G75*
G70*
%OFA0B0*%
%FSLAX24Y24*%
%IPPOS*%
%LPD*%
%AMOC8*
5,1,8,0,0,1.08239X$1,22.5*
%
%ADD10C,0.1339*%
%ADD11C,0.0985*%
%ADD12R,0.0552X0.0631*%
%ADD13R,0.0276X0.0946*%
%ADD14C,0.0591*%
%ADD15C,0.0780*%
D10*
X002109Y002111D03*
X002109Y017859D03*
X033605Y017859D03*
X033605Y002111D03*
D11*
X034077Y004670D03*
X033605Y020615D03*
X013605Y020615D03*
X011557Y020615D03*
X008171Y020615D03*
X006124Y020615D03*
X004077Y020615D03*
X002109Y020615D03*
X001636Y004670D03*
D12*
X007246Y004237D03*
X007994Y004237D03*
X007994Y005339D03*
X007246Y005339D03*
X027719Y005339D03*
X028467Y005339D03*
X028467Y004237D03*
X027719Y004237D03*
D13*
X025927Y003627D03*
X025534Y003627D03*
X025140Y003627D03*
X024746Y003627D03*
X024353Y003627D03*
X023959Y003627D03*
X023565Y003627D03*
X023171Y003627D03*
X022778Y003627D03*
X022384Y003627D03*
X021990Y003627D03*
X021597Y003627D03*
X021203Y003627D03*
X020809Y003627D03*
X020416Y003627D03*
X020022Y003627D03*
X019628Y003627D03*
X019234Y003627D03*
X018841Y003627D03*
X018447Y003627D03*
X018053Y003627D03*
X017660Y003627D03*
X017266Y003627D03*
X016872Y003627D03*
X016479Y003627D03*
X016085Y003627D03*
X015691Y003627D03*
X015297Y003627D03*
X014904Y003627D03*
X014510Y003627D03*
X014116Y003627D03*
X013723Y003627D03*
X013329Y003627D03*
X012935Y003627D03*
X012542Y003627D03*
X012148Y003627D03*
X011754Y003627D03*
X011360Y003627D03*
X010967Y003627D03*
X010573Y003627D03*
X010179Y003627D03*
X009786Y003627D03*
X009786Y002170D03*
X010179Y002170D03*
X010573Y002170D03*
X010967Y002170D03*
X011360Y002170D03*
X011754Y002170D03*
X012148Y002170D03*
X012542Y002170D03*
X012935Y002170D03*
X013329Y002170D03*
X013723Y002170D03*
X014116Y002170D03*
X014510Y002170D03*
X014904Y002170D03*
X015297Y002170D03*
X015691Y002170D03*
X016085Y002170D03*
X016479Y002170D03*
X016872Y002170D03*
X017266Y002170D03*
X017660Y002170D03*
X018053Y002170D03*
X018447Y002170D03*
X018841Y002170D03*
X019234Y002170D03*
X019628Y002170D03*
X020022Y002170D03*
X020416Y002170D03*
X020809Y002170D03*
X021203Y002170D03*
X021597Y002170D03*
X021990Y002170D03*
X022384Y002170D03*
X022778Y002170D03*
X023171Y002170D03*
X023565Y002170D03*
X023959Y002170D03*
X024353Y002170D03*
X024746Y002170D03*
X025140Y002170D03*
X025534Y002170D03*
X025927Y002170D03*
D14*
X026597Y002898D03*
X026597Y002898D03*
X009116Y002898D03*
X009116Y002898D03*
D15*
X007152Y002611D03*
X006152Y002611D03*
X005152Y002611D03*
X004152Y002611D03*
X004152Y001611D03*
X005152Y001611D03*
X006152Y001611D03*
X007152Y001611D03*
X002609Y006666D03*
X001609Y006666D03*
X001609Y007666D03*
X002609Y007666D03*
X002609Y008666D03*
X001609Y008666D03*
X001609Y009666D03*
X002609Y009666D03*
X002609Y010666D03*
X001609Y010666D03*
X001609Y011666D03*
X002609Y011666D03*
X002609Y012666D03*
X001609Y012666D03*
X001609Y013666D03*
X002609Y013666D03*
X002609Y014666D03*
X001609Y014666D03*
X001609Y015666D03*
X002609Y015666D03*
X015872Y019721D03*
X016872Y019721D03*
X017872Y019721D03*
X017872Y020721D03*
X016872Y020721D03*
X015872Y020721D03*
X019416Y020721D03*
X020416Y020721D03*
X021416Y020721D03*
X021416Y019721D03*
X020416Y019721D03*
X019416Y019721D03*
X022959Y019721D03*
X023959Y019721D03*
X024959Y019721D03*
X024959Y020721D03*
X023959Y020721D03*
X022959Y020721D03*
X026502Y020721D03*
X027502Y020721D03*
X028502Y020721D03*
X028502Y019721D03*
X027502Y019721D03*
X026502Y019721D03*
X030046Y019721D03*
X031046Y019721D03*
X032046Y019721D03*
X032046Y020721D03*
X031046Y020721D03*
X030046Y020721D03*
X033105Y015709D03*
X034105Y015709D03*
X034105Y014709D03*
X033105Y014709D03*
X033105Y013709D03*
X034105Y013709D03*
X034105Y012166D03*
X033105Y012166D03*
X033105Y011166D03*
X034105Y011166D03*
X034105Y010166D03*
X033105Y010166D03*
X033105Y008623D03*
X034105Y008623D03*
X034105Y007623D03*
X033105Y007623D03*
X033105Y006623D03*
X034105Y006623D03*
X031561Y002611D03*
X030561Y002611D03*
X029561Y002611D03*
X028561Y002611D03*
X028561Y001611D03*
X029561Y001611D03*
X030561Y001611D03*
X031561Y001611D03*
M02*
