%
M48
M72
T01C0.0100
T02C0.0120
T03C0.0197
T04C0.0400
T05C0.0551
T06C0.0630
T07C0.1299
%
T01
X12542Y4906
X12935Y5064
X13329Y4788
X13723Y5143
X14116Y5182
X14510Y4906
X14943Y5143
X15258Y4828
X15691Y5103
X16085Y4906
X16479Y4788
X16872Y4788
X17266Y5024
X17660Y4828
X18053Y4985
X18447Y5103
X18841Y4788
X19234Y5143
X19628Y5024
X20022Y5024
X20416Y4828
X20809Y4946
X21203Y5182
X21597Y4906
X21990Y5024
X22384Y5339
X22778Y4906
X23171Y5143
X23565Y4985
X21597Y6560
X20809Y6835
X20416Y6324
X20022Y6206
X19628Y6520
X19234Y6678
X18841Y6442
X18447Y6639
X18053Y7190
X17660Y7465
X17266Y7387
X16872Y7308
X16479Y7820
X16085Y7859
X15691Y7780
X17266Y8568
X17660Y8568
X18447Y8528
X19234Y7859
X20022Y7426
X16872Y9001
X16479Y9355
X16085Y9434
X15691Y9473
T02
X17423Y10615
X16912Y10812
X18132Y10654
X18211Y9985
X18959Y10103
X19471Y9867
X19628Y9316
X20297Y9276
X20337Y8607
X20927Y8528
X21085Y7938
X21282Y7387
X22030Y7465
X22109Y6875
X22423Y6442
X23053Y6324
X23290Y5930
X23762Y5694
X24038Y5221
X24431Y4906
X24353Y4473
X24746Y4473
X25140Y4473
X25534Y4473
X25927Y4473
X23959Y4473
X23565Y4473
X23171Y4473
X22778Y4473
X22384Y4473
X21990Y4473
X21597Y4473
X21203Y4473
X20809Y4473
X20416Y4473
X20022Y4473
X19628Y4473
X19234Y4473
X18841Y4473
X18447Y4473
X18053Y4473
X17660Y4473
X17266Y4473
X16872Y4473
X16479Y4473
X16085Y4473
X15691Y4473
X15297Y4473
X14904Y4473
X14510Y4473
X14116Y4473
X13723Y4473
X13329Y4473
X12935Y4473
X12542Y4473
X12148Y4473
X11754Y4473
X11360Y4473
X10967Y4473
X10573Y4473
X10179Y4473
X9786Y4473
X10101Y5300
X11282Y4906
X11636Y5300
X12109Y5457
X12109Y6206
X12227Y6757
X13132Y6560
X13408Y7072
X14077Y7032
X14038Y7859
X11872Y9276
X10888Y9591
X10258Y9434
X11675Y10221
X10179Y10969
X9392Y11048
X9392Y12465
X10101Y8253
X11085Y7898
X11715Y8056
X10258Y6599
X7227Y5851
X6754Y5339
X7305Y4828
X6794Y4198
X7620Y3804
X9786Y1324
X10179Y1324
X10573Y1324
X10967Y1324
X11360Y1324
X11754Y1324
X12148Y1324
X12542Y1324
X12935Y1324
X13329Y1324
X13723Y1324
X14116Y1324
X14510Y1324
X14904Y1324
X15297Y1324
X15691Y1324
X16085Y1324
X16479Y1324
X16872Y1324
X17266Y1324
X17660Y1324
X18053Y1324
X18447Y1324
X18841Y1324
X19234Y1324
X19628Y1324
X20022Y1324
X20416Y1324
X20809Y1324
X21203Y1324
X21597Y1324
X21990Y1324
X22384Y1324
X22778Y1324
X23171Y1324
X23565Y1324
X23959Y1324
X24353Y1324
X24746Y1324
X25140Y1324
X25534Y1324
X25927Y1324
X28014Y3765
X29077Y4394
X28605Y4828
X28171Y4749
X28959Y5339
X28408Y5851
X25809Y9080
X25612Y9709
X24786Y9513
X24353Y10497
X23880Y10772
X23171Y10772
X21951Y11639
X20849Y11954
X22384Y12780
X23447Y12426
X23683Y11993
X25258Y10654
X27896Y13331
X27502Y13646
X27581Y14473
X26715Y14985
X25612Y14631
X24864Y14552
X26557Y14119
X17109Y11757
X16321Y11717
T03
X15691Y12544
X14904Y12741
X13723Y13528
X12148Y14198
X10534Y14237
X9471Y15497
X10967Y15772
X12738Y16481
X14707Y15694
X15888Y15694
X16754Y14749
X18447Y16678
X21715Y14631
X22778Y14828
X23723Y15654
X24825Y15418
X25140Y16678
X26518Y16363
X27542Y16599
X28368Y17072
X30140Y17820
X31203Y18883
X31912Y18804
X29825Y19001
X28762Y18961
X27384Y19001
X26282Y18922
X25219Y18961
X24038Y18843
X23171Y18961
X21203Y18961
X20219Y18765
X19195Y18961
X17660Y18961
X17109Y18765
X16085Y19001
X14313Y18646
X13132Y18450
X10573Y18450
X9392Y16954
X7227Y17623
X6439Y16166
X6990Y14591
X7109Y13804
X7109Y12583
X7935Y11520
X8053Y10851
X8368Y9631
X8447Y8528
X9116Y7544
X9038Y6796
X5455Y5536
X3408Y6442
X3762Y7780
X3408Y8686
X3526Y9513
X3447Y10576
X3762Y11835
X3447Y12544
X3644Y13646
X3447Y14906
X3683Y15969
X4746Y17780
X7423Y19119
X17069Y12583
X17778Y12662
X18801Y12741
X20612Y13922
X19549Y14080
X21990Y17072
X28801Y12662
X29589Y13725
X29707Y14828
X29707Y15536
X31242Y16678
X32266Y16087
X32266Y14631
X32384Y13922
X32109Y12150
X31951Y11087
X32345Y10379
X32227Y8410
X32069Y7465
X32227Y6402
X32620Y5261
X30849Y5261
X26675Y7426
X26400Y6796
X25179Y6363
X27502Y8607
X27620Y10064
X27935Y11048
X25691Y2898
X24864Y2898
X27305Y930
X14313Y10772
X11951Y12229
X3290Y4946
X8408Y930
X10022Y2898
X10849Y2898
T04
X7152Y2611
X6152Y2611
X5152Y2611
X4152Y2611
X4152Y1611
X5152Y1611
X6152Y1611
X7152Y1611
X2609Y6666
X1609Y6666
X1609Y7666
X2609Y7666
X2609Y8666
X1609Y8666
X1609Y9666
X2609Y9666
X2609Y10666
X1609Y10666
X1609Y11666
X2609Y11666
X2609Y12666
X1609Y12666
X1609Y13666
X2609Y13666
X2609Y14666
X1609Y14666
X1609Y15666
X2609Y15666
X15872Y19721
X16872Y19721
X17872Y19721
X17872Y20721
X16872Y20721
X15872Y20721
X19416Y20721
X20416Y20721
X21416Y20721
X21416Y19721
X20416Y19721
X19416Y19721
X22959Y19721
X23959Y19721
X24959Y19721
X24959Y20721
X23959Y20721
X22959Y20721
X26502Y20721
X27502Y20721
X28502Y20721
X28502Y19721
X27502Y19721
X26502Y19721
X30046Y19721
X31046Y19721
X32046Y19721
X32046Y20721
X31046Y20721
X30046Y20721
X33105Y15709
X34105Y15709
X34105Y14709
X33105Y14709
X33105Y13709
X34105Y13709
X34105Y12166
X33105Y12166
X33105Y11166
X34105Y11166
X34105Y10166
X33105Y10166
X33105Y8623
X34105Y8623
X34105Y7623
X33105Y7623
X33105Y6623
X34105Y6623
X31561Y2611
X30561Y2611
X29561Y2611
X28561Y2611
X28561Y1611
X29561Y1611
X30561Y1611
X31561Y1611
T05
X26597Y2898
X26597Y2898
X9116Y2898
X9116Y2898
T06
X1636Y4670
X2109Y20615
X4077Y20615
X6124Y20615
X8171Y20615
X11557Y20615
X13605Y20615
X33605Y20615
X34077Y4670
T07
X2109Y2111
X2109Y17859
X33605Y17859
X33605Y2111
M30
