G75*
G70*
%OFA0B0*%
%FSLAX24Y24*%
%IPPOS*%
%LPD*%
%AMOC8*
5,1,8,0,0,1.08239X$1,22.5*
%
%ADD10R,0.0236X0.0906*%
D10*
X009786Y002170D03*
X010179Y002170D03*
X010573Y002170D03*
X010967Y002170D03*
X011360Y002170D03*
X011754Y002170D03*
X012148Y002170D03*
X012542Y002170D03*
X012935Y002170D03*
X013329Y002170D03*
X013723Y002170D03*
X014116Y002170D03*
X014510Y002170D03*
X014904Y002170D03*
X015297Y002170D03*
X015691Y002170D03*
X016085Y002170D03*
X016479Y002170D03*
X016872Y002170D03*
X017266Y002170D03*
X017660Y002170D03*
X018053Y002170D03*
X018447Y002170D03*
X018841Y002170D03*
X019234Y002170D03*
X019628Y002170D03*
X020022Y002170D03*
X020416Y002170D03*
X020809Y002170D03*
X021203Y002170D03*
X021597Y002170D03*
X021990Y002170D03*
X022384Y002170D03*
X022778Y002170D03*
X023171Y002170D03*
X023565Y002170D03*
X023959Y002170D03*
X024353Y002170D03*
X024746Y002170D03*
X025140Y002170D03*
X025534Y002170D03*
X025927Y002170D03*
X025927Y003627D03*
X025534Y003627D03*
X025140Y003627D03*
X024746Y003627D03*
X024353Y003627D03*
X023959Y003627D03*
X023565Y003627D03*
X023171Y003627D03*
X022778Y003627D03*
X022384Y003627D03*
X021990Y003627D03*
X021597Y003627D03*
X021203Y003627D03*
X020809Y003627D03*
X020416Y003627D03*
X020022Y003627D03*
X019628Y003627D03*
X019234Y003627D03*
X018841Y003627D03*
X018447Y003627D03*
X018053Y003627D03*
X017660Y003627D03*
X017266Y003627D03*
X016872Y003627D03*
X016479Y003627D03*
X016085Y003627D03*
X015691Y003627D03*
X015297Y003627D03*
X014904Y003627D03*
X014510Y003627D03*
X014116Y003627D03*
X013723Y003627D03*
X013329Y003627D03*
X012935Y003627D03*
X012542Y003627D03*
X012148Y003627D03*
X011754Y003627D03*
X011360Y003627D03*
X010967Y003627D03*
X010573Y003627D03*
X010179Y003627D03*
X009786Y003627D03*
M02*
