G75*
G70*
%OFA0B0*%
%FSLAX24Y24*%
%IPPOS*%
%LPD*%
%AMOC8*
5,1,8,0,0,1.08239X$1,22.5*
%
%ADD10C,0.0080*%
%ADD11C,0.0040*%
%ADD12C,0.0060*%
%ADD13R,0.3937X0.0011*%
%ADD14R,0.3937X0.0011*%
%ADD15R,0.0120X0.0011*%
%ADD16R,0.0120X0.0011*%
%ADD17R,0.0120X0.0011*%
%ADD18R,0.0120X0.0011*%
%ADD19R,0.0744X0.0011*%
%ADD20R,0.0755X0.0011*%
%ADD21R,0.0766X0.0011*%
%ADD22R,0.0776X0.0011*%
%ADD23R,0.0787X0.0011*%
%ADD24R,0.0798X0.0011*%
%ADD25R,0.0798X0.0011*%
%ADD26R,0.0809X0.0011*%
%ADD27R,0.0820X0.0011*%
%ADD28R,0.0842X0.0011*%
%ADD29R,0.0842X0.0011*%
%ADD30R,0.0853X0.0011*%
%ADD31R,0.0864X0.0011*%
%ADD32R,0.0886X0.0011*%
%ADD33R,0.0886X0.0011*%
%ADD34R,0.0897X0.0011*%
%ADD35R,0.0908X0.0011*%
%ADD36R,0.0908X0.0011*%
%ADD37R,0.0930X0.0011*%
%ADD38R,0.0941X0.0011*%
%ADD39R,0.0951X0.0011*%
%ADD40R,0.0951X0.0011*%
%ADD41R,0.0962X0.0011*%
%ADD42R,0.0973X0.0011*%
%ADD43R,0.0995X0.0011*%
%ADD44R,0.0995X0.0011*%
%ADD45R,0.1006X0.0011*%
%ADD46R,0.1017X0.0011*%
%ADD47R,0.1039X0.0011*%
%ADD48R,0.1039X0.0011*%
%ADD49R,0.1050X0.0011*%
%ADD50R,0.1061X0.0011*%
%ADD51R,0.1061X0.0011*%
%ADD52R,0.1083X0.0011*%
%ADD53R,0.1094X0.0011*%
%ADD54R,0.1105X0.0011*%
%ADD55R,0.1105X0.0011*%
%ADD56R,0.1126X0.0011*%
%ADD57R,0.1137X0.0011*%
%ADD58R,0.1148X0.0011*%
%ADD59R,0.1148X0.0011*%
%ADD60R,0.1159X0.0011*%
%ADD61R,0.1170X0.0011*%
%ADD62R,0.1181X0.0011*%
%ADD63R,0.1192X0.0011*%
%ADD64R,0.1192X0.0011*%
%ADD65R,0.1203X0.0011*%
%ADD66R,0.1214X0.0011*%
%ADD67R,0.1214X0.0011*%
%ADD68R,0.1236X0.0011*%
%ADD69R,0.0153X0.0011*%
%ADD70R,0.0984X0.0011*%
%ADD71R,0.0164X0.0011*%
%ADD72R,0.0984X0.0011*%
%ADD73R,0.0164X0.0011*%
%ADD74R,0.0186X0.0011*%
%ADD75R,0.0208X0.0011*%
%ADD76R,0.0208X0.0011*%
%ADD77R,0.0230X0.0011*%
%ADD78R,0.0995X0.0011*%
%ADD79R,0.0995X0.0011*%
%ADD80R,0.0252X0.0011*%
%ADD81R,0.0252X0.0011*%
%ADD82R,0.0273X0.0011*%
%ADD83R,0.0284X0.0011*%
%ADD84R,0.0284X0.0011*%
%ADD85R,0.0295X0.0011*%
%ADD86R,0.0306X0.0011*%
%ADD87R,0.1006X0.0011*%
%ADD88R,0.0306X0.0011*%
%ADD89R,0.0317X0.0011*%
%ADD90R,0.1006X0.0011*%
%ADD91R,0.0328X0.0011*%
%ADD92R,0.1006X0.0011*%
%ADD93R,0.0328X0.0011*%
%ADD94R,0.0339X0.0011*%
%ADD95R,0.0547X0.0011*%
%ADD96R,0.0437X0.0011*%
%ADD97R,0.0339X0.0011*%
%ADD98R,0.0536X0.0011*%
%ADD99R,0.0405X0.0011*%
%ADD100R,0.0536X0.0011*%
%ADD101R,0.0372X0.0011*%
%ADD102R,0.0339X0.0011*%
%ADD103R,0.0547X0.0011*%
%ADD104R,0.0328X0.0011*%
%ADD105R,0.0262X0.0011*%
%ADD106R,0.0569X0.0011*%
%ADD107R,0.0481X0.0011*%
%ADD108R,0.0066X0.0011*%
%ADD109R,0.0175X0.0011*%
%ADD110R,0.0459X0.0011*%
%ADD111R,0.0066X0.0011*%
%ADD112R,0.0131X0.0011*%
%ADD113R,0.0437X0.0011*%
%ADD114R,0.0077X0.0011*%
%ADD115R,0.0098X0.0011*%
%ADD116R,0.0066X0.0011*%
%ADD117R,0.0394X0.0011*%
%ADD118R,0.0317X0.0011*%
%ADD119R,0.0383X0.0011*%
%ADD120R,0.0328X0.0011*%
%ADD121R,0.0372X0.0011*%
%ADD122R,0.0066X0.0011*%
%ADD123R,0.0317X0.0011*%
%ADD124R,0.0361X0.0011*%
%ADD125R,0.0011X0.0011*%
%ADD126R,0.0350X0.0011*%
%ADD127R,0.0055X0.0011*%
%ADD128R,0.0295X0.0011*%
%ADD129R,0.0350X0.0011*%
%ADD130R,0.0295X0.0011*%
%ADD131R,0.0361X0.0011*%
%ADD132R,0.0131X0.0011*%
%ADD133R,0.0350X0.0011*%
%ADD134R,0.0142X0.0011*%
%ADD135R,0.0142X0.0011*%
%ADD136R,0.0055X0.0011*%
%ADD137R,0.0142X0.0011*%
%ADD138R,0.0262X0.0011*%
%ADD139R,0.0131X0.0011*%
%ADD140R,0.0241X0.0011*%
%ADD141R,0.0383X0.0011*%
%ADD142R,0.0241X0.0011*%
%ADD143R,0.0230X0.0011*%
%ADD144R,0.0219X0.0011*%
%ADD145R,0.0416X0.0011*%
%ADD146R,0.0131X0.0011*%
%ADD147R,0.0219X0.0011*%
%ADD148R,0.0426X0.0011*%
%ADD149R,0.0448X0.0011*%
%ADD150R,0.0219X0.0011*%
%ADD151R,0.0459X0.0011*%
%ADD152R,0.0470X0.0011*%
%ADD153R,0.0197X0.0011*%
%ADD154R,0.0492X0.0011*%
%ADD155R,0.0087X0.0011*%
%ADD156R,0.0503X0.0011*%
%ADD157R,0.0153X0.0011*%
%ADD158R,0.0197X0.0011*%
%ADD159R,0.0197X0.0011*%
%ADD160R,0.0197X0.0011*%
%ADD161R,0.0055X0.0011*%
%ADD162R,0.0230X0.0011*%
%ADD163R,0.0164X0.0011*%
%ADD164R,0.0241X0.0011*%
%ADD165R,0.0262X0.0011*%
%ADD166R,0.0962X0.0011*%
%ADD167R,0.0536X0.0011*%
%ADD168R,0.0962X0.0011*%
%ADD169R,0.0951X0.0011*%
%ADD170R,0.0558X0.0011*%
%ADD171R,0.0930X0.0011*%
%ADD172R,0.0897X0.0011*%
%ADD173R,0.0875X0.0011*%
%ADD174R,0.0842X0.0011*%
%ADD175R,0.0558X0.0011*%
%ADD176R,0.0820X0.0011*%
%ADD177R,0.0755X0.0011*%
%ADD178R,0.0733X0.0011*%
%ADD179R,0.0525X0.0011*%
%ADD180R,0.0722X0.0011*%
%ADD181R,0.0525X0.0011*%
%ADD182R,0.0700X0.0011*%
%ADD183R,0.0689X0.0011*%
%ADD184R,0.0514X0.0011*%
%ADD185R,0.0678X0.0011*%
%ADD186R,0.0514X0.0011*%
%ADD187R,0.0656X0.0011*%
%ADD188R,0.0503X0.0011*%
%ADD189R,0.0656X0.0011*%
%ADD190R,0.0645X0.0011*%
%ADD191R,0.0634X0.0011*%
%ADD192R,0.0481X0.0011*%
%ADD193R,0.0634X0.0011*%
%ADD194R,0.0623X0.0011*%
%ADD195R,0.0470X0.0011*%
%ADD196R,0.0623X0.0011*%
%ADD197R,0.0470X0.0011*%
%ADD198R,0.0623X0.0011*%
%ADD199R,0.0612X0.0011*%
%ADD200R,0.0612X0.0011*%
%ADD201R,0.0623X0.0011*%
%ADD202R,0.0437X0.0011*%
%ADD203R,0.0427X0.0011*%
%ADD204R,0.0416X0.0011*%
%ADD205R,0.0416X0.0011*%
%ADD206R,0.0208X0.0011*%
%ADD207R,0.0667X0.0011*%
%ADD208R,0.0230X0.0011*%
%ADD209R,0.0109X0.0011*%
%ADD210R,0.0689X0.0011*%
%ADD211R,0.0711X0.0011*%
%ADD212R,0.0306X0.0011*%
%ADD213R,0.1105X0.0011*%
%ADD214R,0.1105X0.0011*%
%ADD215R,0.0186X0.0011*%
%ADD216R,0.0426X0.0011*%
%ADD217R,0.0262X0.0011*%
%ADD218R,0.1094X0.0011*%
%ADD219R,0.0481X0.0011*%
%ADD220R,0.1083X0.0011*%
%ADD221R,0.0317X0.0011*%
%ADD222R,0.0492X0.0011*%
%ADD223R,0.1072X0.0011*%
%ADD224R,0.1050X0.0011*%
%ADD225R,0.0941X0.0011*%
%ADD226R,0.1039X0.0011*%
%ADD227R,0.1028X0.0011*%
%ADD228R,0.0919X0.0011*%
%ADD229R,0.1028X0.0011*%
%ADD230R,0.0919X0.0011*%
%ADD231R,0.0919X0.0011*%
%ADD232R,0.0908X0.0011*%
%ADD233R,0.0897X0.0011*%
%ADD234R,0.0940X0.0011*%
%ADD235R,0.0875X0.0011*%
%ADD236R,0.0886X0.0011*%
%ADD237R,0.0919X0.0011*%
%ADD238R,0.0875X0.0011*%
%ADD239R,0.0930X0.0011*%
%ADD240R,0.0973X0.0011*%
%ADD241R,0.1017X0.0011*%
%ADD242R,0.1061X0.0011*%
%ADD243R,0.1126X0.0011*%
%ADD244R,0.1290X0.0011*%
%ADD245R,0.1345X0.0011*%
%ADD246R,0.1498X0.0011*%
%ADD247R,0.1498X0.0011*%
%ADD248R,0.1498X0.0011*%
%ADD249R,0.1498X0.0011*%
%ADD250R,0.2832X0.0011*%
%ADD251R,0.2843X0.0011*%
%ADD252R,0.2854X0.0011*%
%ADD253R,0.2865X0.0011*%
%ADD254R,0.0087X0.0011*%
%ADD255R,0.0077X0.0011*%
%ADD256R,0.0109X0.0011*%
%ADD257R,0.0098X0.0011*%
%ADD258R,0.0088X0.0011*%
%ADD259R,0.0175X0.0011*%
%ADD260R,0.0109X0.0011*%
%ADD261R,0.0241X0.0011*%
%ADD262R,0.0109X0.0011*%
%ADD263R,0.3062X0.0011*%
%ADD264R,0.3073X0.0011*%
%ADD265R,0.3084X0.0011*%
%ADD266R,0.3106X0.0011*%
%ADD267R,0.0273X0.0011*%
%ADD268R,0.0273X0.0011*%
%ADD269R,0.0175X0.0011*%
%ADD270R,0.0153X0.0011*%
%ADD271R,0.0186X0.0011*%
%ADD272R,0.0251X0.0011*%
%ADD273R,0.0251X0.0011*%
%ADD274R,0.0295X0.0011*%
%ADD275R,0.0273X0.0011*%
%ADD276R,0.0306X0.0011*%
%ADD277R,0.0350X0.0011*%
%ADD278R,0.0339X0.0011*%
%ADD279R,0.0219X0.0011*%
%ADD280R,0.0186X0.0011*%
%ADD281R,0.0175X0.0011*%
%ADD282R,0.1258X0.0011*%
%ADD283R,0.3182X0.0011*%
%ADD284R,0.3182X0.0011*%
%ADD285R,0.3182X0.0011*%
%ADD286R,0.2165X0.0011*%
%ADD287R,0.0164X0.0011*%
%ADD288R,0.0077X0.0011*%
%ADD289R,0.0088X0.0011*%
%ADD290R,0.3073X0.0011*%
%ADD291R,0.3051X0.0011*%
%ADD292R,0.0416X0.0011*%
%ADD293R,0.0558X0.0011*%
%ADD294R,0.0591X0.0011*%
%ADD295R,0.0612X0.0011*%
%ADD296R,0.0634X0.0011*%
%ADD297R,0.0667X0.0011*%
%ADD298R,0.0361X0.0011*%
%ADD299R,0.0700X0.0011*%
%ADD300R,0.0722X0.0011*%
%ADD301R,0.0733X0.0011*%
%ADD302R,0.0755X0.0011*%
%ADD303R,0.0459X0.0011*%
%ADD304R,0.0766X0.0011*%
%ADD305R,0.0766X0.0011*%
%ADD306R,0.0503X0.0011*%
%ADD307R,0.0525X0.0011*%
%ADD308R,0.0514X0.0011*%
%ADD309R,0.0580X0.0011*%
%ADD310R,0.0547X0.0011*%
%ADD311R,0.0405X0.0011*%
%ADD312R,0.0405X0.0011*%
%ADD313R,0.0372X0.0011*%
%ADD314R,0.0558X0.0011*%
%ADD315R,0.0591X0.0011*%
%ADD316R,0.0601X0.0011*%
%ADD317R,0.0601X0.0011*%
%ADD318R,0.1072X0.0011*%
%ADD319R,0.0405X0.0011*%
%ADD320R,0.1531X0.0011*%
%ADD321R,0.1542X0.0011*%
%ADD322R,0.1553X0.0011*%
%ADD323R,0.1553X0.0011*%
%ADD324R,0.1564X0.0011*%
%ADD325R,0.1575X0.0011*%
%ADD326R,0.1564X0.0011*%
%ADD327R,0.1575X0.0011*%
%ADD328R,0.1564X0.0011*%
%ADD329R,0.1542X0.0011*%
%ADD330R,0.1520X0.0011*%
%ADD331R,0.1531X0.0011*%
%ADD332R,0.1531X0.0011*%
%ADD333R,0.1301X0.0011*%
%ADD334R,0.1280X0.0011*%
%ADD335R,0.1280X0.0011*%
%ADD336R,0.1269X0.0011*%
%ADD337R,0.1269X0.0011*%
%ADD338R,0.1258X0.0011*%
%ADD339R,0.1258X0.0011*%
%ADD340R,0.1247X0.0011*%
%ADD341R,0.1225X0.0011*%
%ADD342R,0.1028X0.0011*%
%ADD343R,0.0864X0.0011*%
%ADD344R,0.0831X0.0011*%
%ADD345R,0.0448X0.0011*%
%ADD346R,0.0394X0.0011*%
%ADD347R,0.0383X0.0011*%
%ADD348R,0.0033X0.0011*%
%ADD349R,0.0284X0.0011*%
%ADD350R,0.0033X0.0011*%
%ADD351R,0.0372X0.0011*%
%ADD352R,0.0077X0.0011*%
%ADD353R,0.0361X0.0011*%
%ADD354R,0.0142X0.0011*%
%ADD355R,0.0601X0.0011*%
%ADD356R,0.0580X0.0011*%
%ADD357R,0.0591X0.0011*%
%ADD358R,0.0580X0.0011*%
%ADD359R,0.0580X0.0011*%
%ADD360R,0.0569X0.0011*%
%ADD361R,0.0569X0.0011*%
%ADD362R,0.0569X0.0011*%
%ADD363R,0.0525X0.0011*%
%ADD364R,0.0514X0.0011*%
%ADD365R,0.0492X0.0011*%
%ADD366R,0.0481X0.0011*%
%ADD367R,0.0459X0.0011*%
%ADD368R,0.1137X0.0011*%
%ADD369R,0.1192X0.0011*%
%ADD370R,0.1225X0.0011*%
%ADD371R,0.1236X0.0011*%
%ADD372R,0.0208X0.0011*%
%ADD373R,0.1148X0.0011*%
%ADD374R,0.1126X0.0011*%
%ADD375R,0.1050X0.0011*%
%ADD376R,0.0842X0.0011*%
%ADD377R,0.0667X0.0011*%
D10*
X001420Y002111D02*
X001422Y002163D01*
X001428Y002215D01*
X001438Y002266D01*
X001451Y002316D01*
X001469Y002366D01*
X001490Y002413D01*
X001514Y002459D01*
X001543Y002503D01*
X001574Y002545D01*
X001608Y002584D01*
X001645Y002621D01*
X001685Y002654D01*
X001728Y002685D01*
X001772Y002712D01*
X001818Y002736D01*
X001867Y002756D01*
X001916Y002772D01*
X001967Y002785D01*
X002018Y002794D01*
X002070Y002799D01*
X002122Y002800D01*
X002174Y002797D01*
X002226Y002790D01*
X002277Y002779D01*
X002327Y002765D01*
X002376Y002746D01*
X002423Y002724D01*
X002468Y002699D01*
X002512Y002670D01*
X002553Y002638D01*
X002592Y002603D01*
X002627Y002565D01*
X002660Y002524D01*
X002690Y002482D01*
X002716Y002437D01*
X002739Y002390D01*
X002758Y002341D01*
X002774Y002291D01*
X002786Y002241D01*
X002794Y002189D01*
X002798Y002137D01*
X002798Y002085D01*
X002794Y002033D01*
X002786Y001981D01*
X002774Y001931D01*
X002758Y001881D01*
X002739Y001832D01*
X002716Y001785D01*
X002690Y001740D01*
X002660Y001698D01*
X002627Y001657D01*
X002592Y001619D01*
X002553Y001584D01*
X002512Y001552D01*
X002468Y001523D01*
X002423Y001498D01*
X002376Y001476D01*
X002327Y001457D01*
X002277Y001443D01*
X002226Y001432D01*
X002174Y001425D01*
X002122Y001422D01*
X002070Y001423D01*
X002018Y001428D01*
X001967Y001437D01*
X001916Y001450D01*
X001867Y001466D01*
X001818Y001486D01*
X001772Y001510D01*
X001728Y001537D01*
X001685Y001568D01*
X001645Y001601D01*
X001608Y001638D01*
X001574Y001677D01*
X001543Y001719D01*
X001514Y001763D01*
X001490Y001809D01*
X001469Y001856D01*
X001451Y001906D01*
X001438Y001956D01*
X001428Y002007D01*
X001422Y002059D01*
X001420Y002111D01*
X003652Y001361D02*
X003902Y001111D01*
X004402Y001111D01*
X004652Y001361D01*
X004902Y001111D01*
X005402Y001111D01*
X005652Y001361D01*
X005902Y001111D01*
X006402Y001111D01*
X006652Y001361D01*
X006902Y001111D01*
X007402Y001111D01*
X007652Y001361D01*
X007652Y002861D01*
X007402Y003111D01*
X006902Y003111D01*
X006652Y002861D01*
X006402Y003111D01*
X005902Y003111D01*
X005652Y002861D01*
X005402Y003111D01*
X004902Y003111D01*
X004652Y002861D01*
X004402Y003111D01*
X003902Y003111D01*
X003652Y002861D01*
X003652Y001361D01*
X004136Y001107D02*
X004136Y000950D01*
X007168Y000950D02*
X007168Y001107D01*
X008841Y001749D02*
X009179Y001749D01*
X009179Y001914D01*
X008841Y001749D02*
X008841Y004048D01*
X009171Y004048D01*
X009171Y003883D01*
X009313Y003607D02*
X009281Y003603D01*
X009250Y003596D01*
X009220Y003585D01*
X009191Y003570D01*
X009163Y003553D01*
X009138Y003532D01*
X009116Y003509D01*
X009096Y003484D01*
X009079Y003456D01*
X009066Y003427D01*
X009055Y003396D01*
X009048Y003365D01*
X009045Y003333D01*
X009046Y003300D01*
X009046Y002513D01*
X009045Y002505D02*
X009047Y002472D01*
X009053Y002439D01*
X009062Y002407D01*
X009074Y002376D01*
X009090Y002346D01*
X009108Y002318D01*
X009130Y002293D01*
X009153Y002269D01*
X009180Y002249D01*
X009208Y002231D01*
X009238Y002216D01*
X009269Y002204D01*
X009302Y002196D01*
X009335Y002191D01*
X009368Y002190D01*
X007179Y003174D02*
X007179Y003528D01*
X004187Y003528D02*
X004187Y003174D01*
X002859Y006166D02*
X001359Y006166D01*
X001109Y006416D01*
X001109Y006916D01*
X001359Y007166D01*
X001109Y007416D01*
X001109Y007916D01*
X001359Y008166D01*
X001109Y008416D01*
X001109Y008916D01*
X001359Y009166D01*
X001109Y009416D01*
X001109Y009916D01*
X001359Y010166D01*
X001109Y010416D01*
X001109Y010916D01*
X001359Y011166D01*
X001109Y011416D01*
X001109Y011916D01*
X001359Y012166D01*
X001109Y012416D01*
X001109Y012916D01*
X001359Y013166D01*
X001109Y013416D01*
X001109Y013916D01*
X001359Y014166D01*
X001109Y014416D01*
X001109Y014916D01*
X001359Y015166D01*
X001109Y015416D01*
X001109Y015916D01*
X001359Y016166D01*
X002859Y016166D01*
X003109Y015916D01*
X003109Y015416D01*
X002859Y015166D01*
X003109Y014916D01*
X003109Y014416D01*
X002859Y014166D01*
X003109Y013916D01*
X003109Y013416D01*
X002859Y013166D01*
X003109Y012916D01*
X003109Y012416D01*
X002859Y012166D01*
X003109Y011916D01*
X003109Y011416D01*
X002859Y011166D01*
X003109Y010916D01*
X003109Y010416D01*
X002859Y010166D01*
X003109Y009916D01*
X003109Y009416D01*
X002859Y009166D01*
X003109Y008916D01*
X003109Y008416D01*
X002859Y008166D01*
X003109Y007916D01*
X003109Y007416D01*
X002859Y007166D01*
X003109Y006916D01*
X003109Y006416D01*
X002859Y006166D01*
X003171Y006646D02*
X003526Y006646D01*
X001105Y006658D02*
X000947Y006658D01*
X000947Y015674D02*
X001105Y015674D01*
X003171Y015654D02*
X003526Y015654D01*
X001420Y017859D02*
X001422Y017911D01*
X001428Y017963D01*
X001438Y018014D01*
X001451Y018064D01*
X001469Y018114D01*
X001490Y018161D01*
X001514Y018207D01*
X001543Y018251D01*
X001574Y018293D01*
X001608Y018332D01*
X001645Y018369D01*
X001685Y018402D01*
X001728Y018433D01*
X001772Y018460D01*
X001818Y018484D01*
X001867Y018504D01*
X001916Y018520D01*
X001967Y018533D01*
X002018Y018542D01*
X002070Y018547D01*
X002122Y018548D01*
X002174Y018545D01*
X002226Y018538D01*
X002277Y018527D01*
X002327Y018513D01*
X002376Y018494D01*
X002423Y018472D01*
X002468Y018447D01*
X002512Y018418D01*
X002553Y018386D01*
X002592Y018351D01*
X002627Y018313D01*
X002660Y018272D01*
X002690Y018230D01*
X002716Y018185D01*
X002739Y018138D01*
X002758Y018089D01*
X002774Y018039D01*
X002786Y017989D01*
X002794Y017937D01*
X002798Y017885D01*
X002798Y017833D01*
X002794Y017781D01*
X002786Y017729D01*
X002774Y017679D01*
X002758Y017629D01*
X002739Y017580D01*
X002716Y017533D01*
X002690Y017488D01*
X002660Y017446D01*
X002627Y017405D01*
X002592Y017367D01*
X002553Y017332D01*
X002512Y017300D01*
X002468Y017271D01*
X002423Y017246D01*
X002376Y017224D01*
X002327Y017205D01*
X002277Y017191D01*
X002226Y017180D01*
X002174Y017173D01*
X002122Y017170D01*
X002070Y017171D01*
X002018Y017176D01*
X001967Y017185D01*
X001916Y017198D01*
X001867Y017214D01*
X001818Y017234D01*
X001772Y017258D01*
X001728Y017285D01*
X001685Y017316D01*
X001645Y017349D01*
X001608Y017386D01*
X001574Y017425D01*
X001543Y017467D01*
X001514Y017511D01*
X001490Y017557D01*
X001469Y017604D01*
X001451Y017654D01*
X001438Y017704D01*
X001428Y017755D01*
X001422Y017807D01*
X001420Y017859D01*
X015372Y019471D02*
X015622Y019221D01*
X016122Y019221D01*
X016372Y019471D01*
X016622Y019221D01*
X017122Y019221D01*
X017372Y019471D01*
X017622Y019221D01*
X018122Y019221D01*
X018372Y019471D01*
X018372Y020971D01*
X018122Y021221D01*
X017622Y021221D01*
X017372Y020971D01*
X017122Y021221D01*
X016622Y021221D01*
X016372Y020971D01*
X016122Y021221D01*
X015622Y021221D01*
X015372Y020971D01*
X015372Y019471D01*
X015868Y019217D02*
X015868Y018863D01*
X017876Y018863D02*
X017876Y019217D01*
X018916Y019471D02*
X019166Y019221D01*
X019666Y019221D01*
X019916Y019471D01*
X020166Y019221D01*
X020666Y019221D01*
X020916Y019471D01*
X021166Y019221D01*
X021666Y019221D01*
X021916Y019471D01*
X021916Y020971D01*
X021666Y021221D01*
X021166Y021221D01*
X020916Y020971D01*
X020666Y021221D01*
X020166Y021221D01*
X019916Y020971D01*
X019666Y021221D01*
X019166Y021221D01*
X018916Y020971D01*
X018916Y019471D01*
X019412Y019217D02*
X019412Y018863D01*
X021400Y018863D02*
X021400Y019217D01*
X022459Y019471D02*
X022709Y019221D01*
X023209Y019221D01*
X023459Y019471D01*
X023709Y019221D01*
X024209Y019221D01*
X024459Y019471D01*
X024709Y019221D01*
X025209Y019221D01*
X025459Y019471D01*
X025459Y020971D01*
X025209Y021221D01*
X024709Y021221D01*
X024459Y020971D01*
X024209Y021221D01*
X023709Y021221D01*
X023459Y020971D01*
X023209Y021221D01*
X022709Y021221D01*
X022459Y020971D01*
X022459Y019471D01*
X022955Y019217D02*
X022955Y018863D01*
X024963Y018863D02*
X024963Y019217D01*
X026002Y019471D02*
X026252Y019221D01*
X026752Y019221D01*
X027002Y019471D01*
X027252Y019221D01*
X027752Y019221D01*
X028002Y019471D01*
X028252Y019221D01*
X028752Y019221D01*
X029002Y019471D01*
X029002Y020971D01*
X028752Y021221D01*
X028252Y021221D01*
X028002Y020971D01*
X027752Y021221D01*
X027252Y021221D01*
X027002Y020971D01*
X026752Y021221D01*
X026252Y021221D01*
X026002Y020971D01*
X026002Y019471D01*
X026498Y019217D02*
X026498Y018863D01*
X028486Y018863D02*
X028486Y019217D01*
X029546Y019471D02*
X029796Y019221D01*
X030296Y019221D01*
X030546Y019471D01*
X030796Y019221D01*
X031296Y019221D01*
X031546Y019471D01*
X031796Y019221D01*
X032296Y019221D01*
X032546Y019471D01*
X032546Y020971D01*
X032296Y021221D01*
X031796Y021221D01*
X031546Y020971D01*
X031296Y021221D01*
X030796Y021221D01*
X030546Y020971D01*
X030296Y021221D01*
X029796Y021221D01*
X029546Y020971D01*
X029546Y019471D01*
X030042Y019217D02*
X030042Y018863D01*
X032030Y018863D02*
X032030Y019217D01*
X032916Y017859D02*
X032918Y017911D01*
X032924Y017963D01*
X032934Y018014D01*
X032947Y018064D01*
X032965Y018114D01*
X032986Y018161D01*
X033010Y018207D01*
X033039Y018251D01*
X033070Y018293D01*
X033104Y018332D01*
X033141Y018369D01*
X033181Y018402D01*
X033224Y018433D01*
X033268Y018460D01*
X033314Y018484D01*
X033363Y018504D01*
X033412Y018520D01*
X033463Y018533D01*
X033514Y018542D01*
X033566Y018547D01*
X033618Y018548D01*
X033670Y018545D01*
X033722Y018538D01*
X033773Y018527D01*
X033823Y018513D01*
X033872Y018494D01*
X033919Y018472D01*
X033964Y018447D01*
X034008Y018418D01*
X034049Y018386D01*
X034088Y018351D01*
X034123Y018313D01*
X034156Y018272D01*
X034186Y018230D01*
X034212Y018185D01*
X034235Y018138D01*
X034254Y018089D01*
X034270Y018039D01*
X034282Y017989D01*
X034290Y017937D01*
X034294Y017885D01*
X034294Y017833D01*
X034290Y017781D01*
X034282Y017729D01*
X034270Y017679D01*
X034254Y017629D01*
X034235Y017580D01*
X034212Y017533D01*
X034186Y017488D01*
X034156Y017446D01*
X034123Y017405D01*
X034088Y017367D01*
X034049Y017332D01*
X034008Y017300D01*
X033964Y017271D01*
X033919Y017246D01*
X033872Y017224D01*
X033823Y017205D01*
X033773Y017191D01*
X033722Y017180D01*
X033670Y017173D01*
X033618Y017170D01*
X033566Y017171D01*
X033514Y017176D01*
X033463Y017185D01*
X033412Y017198D01*
X033363Y017214D01*
X033314Y017234D01*
X033268Y017258D01*
X033224Y017285D01*
X033181Y017316D01*
X033141Y017349D01*
X033104Y017386D01*
X033070Y017425D01*
X033039Y017467D01*
X033010Y017511D01*
X032986Y017557D01*
X032965Y017604D01*
X032947Y017654D01*
X032934Y017704D01*
X032924Y017755D01*
X032918Y017807D01*
X032916Y017859D01*
X032855Y016209D02*
X032605Y015959D01*
X032605Y015459D01*
X032855Y015209D01*
X032605Y014959D01*
X032605Y014459D01*
X032855Y014209D01*
X032605Y013959D01*
X032605Y013459D01*
X032855Y013209D01*
X034355Y013209D01*
X034605Y013459D01*
X034605Y013959D01*
X034355Y014209D01*
X034605Y014459D01*
X034605Y014959D01*
X034355Y015209D01*
X034605Y015459D01*
X034605Y015959D01*
X034355Y016209D01*
X032855Y016209D01*
X032605Y015694D02*
X032250Y015694D01*
X034609Y015713D02*
X034766Y015713D01*
X034766Y013706D02*
X034609Y013706D01*
X034355Y012666D02*
X032855Y012666D01*
X032605Y012416D01*
X032605Y011916D01*
X032855Y011666D01*
X032605Y011416D01*
X032605Y010916D01*
X032855Y010666D01*
X032605Y010416D01*
X032605Y009916D01*
X032855Y009666D01*
X034355Y009666D01*
X034605Y009916D01*
X034605Y010416D01*
X034355Y010666D01*
X034605Y010916D01*
X034605Y011416D01*
X034355Y011666D01*
X034605Y011916D01*
X034605Y012416D01*
X034355Y012666D01*
X034609Y012170D02*
X034766Y012170D01*
X032605Y012150D02*
X032250Y012150D01*
X032250Y013725D02*
X032605Y013725D01*
X032605Y010182D02*
X032250Y010182D01*
X032855Y009123D02*
X032605Y008873D01*
X032605Y008373D01*
X032855Y008123D01*
X032605Y007873D01*
X032605Y007373D01*
X032855Y007123D01*
X032605Y006873D01*
X032605Y006373D01*
X032855Y006123D01*
X034355Y006123D01*
X034605Y006373D01*
X034605Y006873D01*
X034355Y007123D01*
X034605Y007373D01*
X034605Y007873D01*
X034355Y008123D01*
X034605Y008373D01*
X034605Y008873D01*
X034355Y009123D01*
X032855Y009123D01*
X032605Y008607D02*
X032250Y008607D01*
X034609Y008627D02*
X034766Y008627D01*
X034766Y010162D02*
X034609Y010162D01*
X034609Y006619D02*
X034766Y006619D01*
X032605Y006639D02*
X032250Y006639D01*
X031589Y003528D02*
X031589Y003174D01*
X031811Y003111D02*
X031311Y003111D01*
X031061Y002861D01*
X030811Y003111D01*
X030311Y003111D01*
X030061Y002861D01*
X029811Y003111D01*
X029311Y003111D01*
X029061Y002861D01*
X028811Y003111D01*
X028311Y003111D01*
X028061Y002861D01*
X028061Y001361D01*
X028311Y001111D01*
X028811Y001111D01*
X029061Y001361D01*
X029311Y001111D01*
X029811Y001111D01*
X030061Y001361D01*
X030311Y001111D01*
X030811Y001111D01*
X031061Y001361D01*
X031311Y001111D01*
X031811Y001111D01*
X032061Y001361D01*
X032061Y002861D01*
X031811Y003111D01*
X032916Y002111D02*
X032918Y002163D01*
X032924Y002215D01*
X032934Y002266D01*
X032947Y002316D01*
X032965Y002366D01*
X032986Y002413D01*
X033010Y002459D01*
X033039Y002503D01*
X033070Y002545D01*
X033104Y002584D01*
X033141Y002621D01*
X033181Y002654D01*
X033224Y002685D01*
X033268Y002712D01*
X033314Y002736D01*
X033363Y002756D01*
X033412Y002772D01*
X033463Y002785D01*
X033514Y002794D01*
X033566Y002799D01*
X033618Y002800D01*
X033670Y002797D01*
X033722Y002790D01*
X033773Y002779D01*
X033823Y002765D01*
X033872Y002746D01*
X033919Y002724D01*
X033964Y002699D01*
X034008Y002670D01*
X034049Y002638D01*
X034088Y002603D01*
X034123Y002565D01*
X034156Y002524D01*
X034186Y002482D01*
X034212Y002437D01*
X034235Y002390D01*
X034254Y002341D01*
X034270Y002291D01*
X034282Y002241D01*
X034290Y002189D01*
X034294Y002137D01*
X034294Y002085D01*
X034290Y002033D01*
X034282Y001981D01*
X034270Y001931D01*
X034254Y001881D01*
X034235Y001832D01*
X034212Y001785D01*
X034186Y001740D01*
X034156Y001698D01*
X034123Y001657D01*
X034088Y001619D01*
X034049Y001584D01*
X034008Y001552D01*
X033964Y001523D01*
X033919Y001498D01*
X033872Y001476D01*
X033823Y001457D01*
X033773Y001443D01*
X033722Y001432D01*
X033670Y001425D01*
X033618Y001422D01*
X033566Y001423D01*
X033514Y001428D01*
X033463Y001437D01*
X033412Y001450D01*
X033363Y001466D01*
X033314Y001486D01*
X033268Y001510D01*
X033224Y001537D01*
X033181Y001568D01*
X033141Y001601D01*
X033104Y001638D01*
X033070Y001677D01*
X033039Y001719D01*
X033010Y001763D01*
X032986Y001809D01*
X032965Y001856D01*
X032947Y001906D01*
X032934Y001956D01*
X032924Y002007D01*
X032918Y002059D01*
X032916Y002111D01*
X031577Y001107D02*
X031577Y000950D01*
X028546Y000950D02*
X028546Y001107D01*
X026872Y001749D02*
X026542Y001749D01*
X026542Y001914D01*
X026872Y001749D02*
X026872Y004048D01*
X026542Y004048D01*
X026542Y003883D01*
X026668Y003284D02*
X026668Y002497D01*
X026667Y002497D02*
X026668Y002464D01*
X026665Y002432D01*
X026658Y002401D01*
X026647Y002370D01*
X026634Y002341D01*
X026617Y002313D01*
X026597Y002288D01*
X026575Y002265D01*
X026550Y002244D01*
X026522Y002227D01*
X026493Y002212D01*
X026463Y002201D01*
X026432Y002194D01*
X026400Y002190D01*
X026668Y003292D02*
X026666Y003325D01*
X026660Y003358D01*
X026651Y003390D01*
X026639Y003421D01*
X026623Y003451D01*
X026605Y003479D01*
X026583Y003504D01*
X026560Y003528D01*
X026533Y003548D01*
X026505Y003566D01*
X026475Y003581D01*
X026444Y003593D01*
X026411Y003601D01*
X026378Y003606D01*
X026345Y003607D01*
X028597Y003528D02*
X028597Y003174D01*
X028506Y021225D02*
X028506Y021383D01*
X030042Y021383D02*
X030042Y021225D01*
X032049Y021225D02*
X032049Y021383D01*
X026498Y021383D02*
X026498Y021225D01*
X024963Y021225D02*
X024963Y021383D01*
X022955Y021383D02*
X022955Y021225D01*
X021420Y021225D02*
X021420Y021383D01*
X019412Y021383D02*
X019412Y021225D01*
X017876Y021225D02*
X017876Y021383D01*
X015868Y021383D02*
X015868Y021225D01*
D11*
X016012Y021462D02*
X015935Y021538D01*
X016242Y021845D01*
X016242Y021538D01*
X016166Y021462D01*
X016012Y021462D01*
X015935Y021538D02*
X015935Y021845D01*
X016012Y021922D01*
X016166Y021922D01*
X016242Y021845D01*
X015782Y021845D02*
X015782Y021769D01*
X015705Y021692D01*
X015782Y021615D01*
X015782Y021538D01*
X015705Y021462D01*
X015552Y021462D01*
X015475Y021538D01*
X015628Y021692D02*
X015705Y021692D01*
X015782Y021845D02*
X015705Y021922D01*
X015552Y021922D01*
X015475Y021845D01*
X014447Y021806D02*
X014447Y021729D01*
X014370Y021653D01*
X014447Y021576D01*
X014447Y021499D01*
X014370Y021422D01*
X014216Y021422D01*
X014140Y021499D01*
X013986Y021576D02*
X013986Y021883D01*
X014140Y021806D02*
X014216Y021883D01*
X014370Y021883D01*
X014447Y021806D01*
X014370Y021653D02*
X014293Y021653D01*
X013986Y021576D02*
X013833Y021422D01*
X013679Y021576D01*
X013679Y021883D01*
X013526Y021806D02*
X013526Y021729D01*
X013449Y021653D01*
X013526Y021576D01*
X013526Y021499D01*
X013449Y021422D01*
X013296Y021422D01*
X013219Y021499D01*
X013065Y021422D02*
X013065Y021729D01*
X012912Y021883D01*
X012758Y021729D01*
X012758Y021422D01*
X012758Y021653D02*
X013065Y021653D01*
X013219Y021806D02*
X013296Y021883D01*
X013449Y021883D01*
X013526Y021806D01*
X013449Y021653D02*
X013372Y021653D01*
X012360Y021653D02*
X012360Y021499D01*
X012283Y021422D01*
X012130Y021422D01*
X012053Y021499D01*
X012053Y021653D02*
X012206Y021729D01*
X012283Y021729D01*
X012360Y021653D01*
X012360Y021883D02*
X012053Y021883D01*
X012053Y021653D01*
X011900Y021576D02*
X011900Y021883D01*
X011900Y021576D02*
X011746Y021422D01*
X011593Y021576D01*
X011593Y021883D01*
X011286Y021883D02*
X011286Y021422D01*
X011439Y021422D02*
X011132Y021422D01*
X010979Y021422D02*
X010979Y021729D01*
X010825Y021883D01*
X010672Y021729D01*
X010672Y021422D01*
X010672Y021653D02*
X010979Y021653D01*
X011132Y021729D02*
X011286Y021883D01*
X009073Y021883D02*
X008766Y021883D01*
X008766Y021653D01*
X008919Y021729D01*
X008996Y021729D01*
X009073Y021653D01*
X009073Y021499D01*
X008996Y021422D01*
X008842Y021422D01*
X008766Y021499D01*
X008612Y021576D02*
X008612Y021883D01*
X008305Y021883D02*
X008305Y021576D01*
X008459Y021422D01*
X008612Y021576D01*
X008152Y021422D02*
X007845Y021422D01*
X007998Y021422D02*
X007998Y021883D01*
X007845Y021729D01*
X007691Y021806D02*
X007615Y021883D01*
X007384Y021883D01*
X007384Y021422D01*
X007615Y021422D01*
X007691Y021499D01*
X007691Y021806D01*
X006868Y021806D02*
X006868Y021729D01*
X006791Y021653D01*
X006868Y021576D01*
X006868Y021499D01*
X006791Y021422D01*
X006638Y021422D01*
X006561Y021499D01*
X006407Y021576D02*
X006254Y021422D01*
X006100Y021576D01*
X006100Y021883D01*
X005947Y021806D02*
X005947Y021729D01*
X005870Y021653D01*
X005947Y021576D01*
X005947Y021499D01*
X005870Y021422D01*
X005717Y021422D01*
X005640Y021499D01*
X005487Y021499D02*
X005487Y021806D01*
X005410Y021883D01*
X005180Y021883D01*
X005180Y021422D01*
X005410Y021422D01*
X005487Y021499D01*
X005794Y021653D02*
X005870Y021653D01*
X005947Y021806D02*
X005870Y021883D01*
X005717Y021883D01*
X005640Y021806D01*
X006407Y021883D02*
X006407Y021576D01*
X006561Y021806D02*
X006638Y021883D01*
X006791Y021883D01*
X006868Y021806D01*
X006791Y021653D02*
X006714Y021653D01*
X004801Y021653D02*
X004724Y021576D01*
X004494Y021576D01*
X004494Y021422D02*
X004494Y021883D01*
X004724Y021883D01*
X004801Y021806D01*
X004801Y021653D01*
X004340Y021499D02*
X004340Y021883D01*
X004034Y021883D02*
X004034Y021499D01*
X004110Y021422D01*
X004264Y021422D01*
X004340Y021499D01*
X003880Y021499D02*
X003803Y021422D01*
X003650Y021422D01*
X003573Y021499D01*
X003420Y021576D02*
X003266Y021422D01*
X003113Y021576D01*
X003113Y021883D01*
X003420Y021883D02*
X003420Y021576D01*
X003573Y021729D02*
X003650Y021653D01*
X003803Y021653D01*
X003880Y021576D01*
X003880Y021499D01*
X003880Y021806D02*
X003803Y021883D01*
X003650Y021883D01*
X003573Y021806D01*
X003573Y021729D01*
X001301Y021459D02*
X001301Y021229D01*
X000841Y021229D01*
X000841Y021459D01*
X000917Y021536D01*
X001224Y021536D01*
X001301Y021459D01*
X001301Y021075D02*
X000841Y021075D01*
X000841Y020768D02*
X001301Y021075D01*
X001301Y020768D02*
X000841Y020768D01*
X000917Y020615D02*
X000841Y020538D01*
X000841Y020385D01*
X000917Y020308D01*
X001224Y020308D01*
X001301Y020385D01*
X001301Y020538D01*
X001224Y020615D01*
X001071Y020615D01*
X001071Y020461D01*
X001224Y020154D02*
X000917Y020154D01*
X000841Y020078D01*
X000841Y019848D01*
X001301Y019848D01*
X001301Y020078D01*
X001224Y020154D01*
X000752Y016087D02*
X000675Y016087D01*
X000598Y016011D01*
X000598Y015857D01*
X000522Y015780D01*
X000445Y015780D01*
X000368Y015857D01*
X000368Y016011D01*
X000445Y016087D01*
X000522Y016087D01*
X000598Y016011D01*
X000598Y015857D02*
X000675Y015780D01*
X000752Y015780D01*
X000829Y015857D01*
X000829Y016011D01*
X000752Y016087D01*
X000829Y015627D02*
X000829Y015320D01*
X000522Y015627D01*
X000445Y015627D01*
X000368Y015550D01*
X000368Y015397D01*
X000445Y015320D01*
X003900Y015399D02*
X004207Y015706D01*
X004207Y015782D01*
X004130Y015859D01*
X003977Y015859D01*
X003900Y015782D01*
X003900Y015399D02*
X004207Y015399D01*
X004361Y015399D02*
X004361Y015475D01*
X004667Y015782D01*
X004667Y015859D01*
X004361Y015859D01*
X015475Y018115D02*
X015782Y018422D01*
X015782Y018499D01*
X015705Y018576D01*
X015552Y018576D01*
X015475Y018499D01*
X015475Y018115D02*
X015782Y018115D01*
X015935Y018192D02*
X016012Y018115D01*
X016166Y018115D01*
X016242Y018192D01*
X016242Y018499D01*
X016166Y018576D01*
X016012Y018576D01*
X015935Y018499D01*
X015935Y018422D01*
X016012Y018345D01*
X016242Y018345D01*
X017483Y018192D02*
X017560Y018115D01*
X017713Y018115D01*
X017790Y018192D01*
X017790Y018269D01*
X017713Y018345D01*
X017636Y018345D01*
X017713Y018345D02*
X017790Y018422D01*
X017790Y018499D01*
X017713Y018576D01*
X017560Y018576D01*
X017483Y018499D01*
X017943Y018499D02*
X018020Y018576D01*
X018173Y018576D01*
X018250Y018499D01*
X018250Y018422D01*
X018173Y018345D01*
X018250Y018269D01*
X018250Y018192D01*
X018173Y018115D01*
X018020Y018115D01*
X017943Y018192D01*
X018097Y018345D02*
X018173Y018345D01*
X019018Y018192D02*
X019095Y018115D01*
X019248Y018115D01*
X019325Y018192D01*
X019325Y018269D01*
X019248Y018345D01*
X019172Y018345D01*
X019248Y018345D02*
X019325Y018422D01*
X019325Y018499D01*
X019248Y018576D01*
X019095Y018576D01*
X019018Y018499D01*
X019479Y018576D02*
X019479Y018345D01*
X019632Y018422D01*
X019709Y018422D01*
X019786Y018345D01*
X019786Y018192D01*
X019709Y018115D01*
X019555Y018115D01*
X019479Y018192D01*
X019479Y018576D02*
X019786Y018576D01*
X021066Y018499D02*
X021142Y018576D01*
X021296Y018576D01*
X021372Y018499D01*
X021372Y018422D01*
X021296Y018345D01*
X021372Y018269D01*
X021372Y018192D01*
X021296Y018115D01*
X021142Y018115D01*
X021066Y018192D01*
X021219Y018345D02*
X021296Y018345D01*
X021526Y018422D02*
X021603Y018345D01*
X021833Y018345D01*
X021833Y018192D02*
X021833Y018499D01*
X021756Y018576D01*
X021603Y018576D01*
X021526Y018499D01*
X021526Y018422D01*
X021526Y018192D02*
X021603Y018115D01*
X021756Y018115D01*
X021833Y018192D01*
X022562Y018345D02*
X022792Y018576D01*
X022792Y018115D01*
X023022Y018115D02*
X023329Y018115D01*
X023175Y018115D02*
X023175Y018576D01*
X023022Y018422D01*
X022869Y018345D02*
X022562Y018345D01*
X024569Y018345D02*
X024876Y018345D01*
X025030Y018345D02*
X025030Y018576D01*
X025337Y018576D01*
X025260Y018422D02*
X025337Y018345D01*
X025337Y018192D01*
X025260Y018115D01*
X025107Y018115D01*
X025030Y018192D01*
X025030Y018345D02*
X025183Y018422D01*
X025260Y018422D01*
X024800Y018576D02*
X024800Y018115D01*
X024569Y018345D02*
X024800Y018576D01*
X026105Y018345D02*
X026412Y018345D01*
X026565Y018192D02*
X026565Y018115D01*
X026565Y018192D02*
X026872Y018499D01*
X026872Y018576D01*
X026565Y018576D01*
X026335Y018576D02*
X026105Y018345D01*
X026335Y018115D02*
X026335Y018576D01*
X028152Y018576D02*
X028152Y018345D01*
X028306Y018422D01*
X028382Y018422D01*
X028459Y018345D01*
X028459Y018192D01*
X028382Y018115D01*
X028229Y018115D01*
X028152Y018192D01*
X028152Y018576D02*
X028459Y018576D01*
X028613Y018422D02*
X028766Y018576D01*
X028766Y018115D01*
X028613Y018115D02*
X028919Y018115D01*
X029648Y018192D02*
X029725Y018115D01*
X029878Y018115D01*
X029955Y018192D01*
X029955Y018345D01*
X029878Y018422D01*
X029802Y018422D01*
X029648Y018345D01*
X029648Y018576D01*
X029955Y018576D01*
X030109Y018499D02*
X030185Y018576D01*
X030339Y018576D01*
X030416Y018499D01*
X030416Y018422D01*
X030339Y018345D01*
X030416Y018269D01*
X030416Y018192D01*
X030339Y018115D01*
X030185Y018115D01*
X030109Y018192D01*
X030262Y018345D02*
X030339Y018345D01*
X031459Y018345D02*
X031613Y018422D01*
X031689Y018422D01*
X031766Y018345D01*
X031766Y018192D01*
X031689Y018115D01*
X031536Y018115D01*
X031459Y018192D01*
X031459Y018345D02*
X031459Y018576D01*
X031766Y018576D01*
X031920Y018576D02*
X032227Y018576D01*
X032227Y018499D01*
X031920Y018192D01*
X031920Y018115D01*
X034305Y020001D02*
X034459Y019848D01*
X034766Y019848D01*
X034535Y019848D02*
X034535Y020154D01*
X034459Y020154D02*
X034766Y020154D01*
X034689Y020308D02*
X034766Y020385D01*
X034766Y020538D01*
X034689Y020615D01*
X034535Y020615D01*
X034535Y020461D01*
X034382Y020308D02*
X034305Y020385D01*
X034305Y020538D01*
X034382Y020615D01*
X034305Y020768D02*
X034766Y021075D01*
X034305Y021075D01*
X034305Y021229D02*
X034305Y021459D01*
X034382Y021536D01*
X034689Y021536D01*
X034766Y021459D01*
X034766Y021229D01*
X034305Y021229D01*
X034305Y020768D02*
X034766Y020768D01*
X034689Y020308D02*
X034382Y020308D01*
X034459Y020154D02*
X034305Y020001D01*
X032384Y021538D02*
X032307Y021462D01*
X032154Y021462D01*
X032077Y021538D01*
X032077Y021615D01*
X032154Y021692D01*
X032307Y021692D01*
X032384Y021615D01*
X032384Y021538D01*
X032307Y021692D02*
X032384Y021769D01*
X032384Y021845D01*
X032307Y021922D01*
X032154Y021922D01*
X032077Y021845D01*
X032077Y021769D01*
X032154Y021692D01*
X031924Y021692D02*
X031924Y021538D01*
X031847Y021462D01*
X031693Y021462D01*
X031617Y021538D01*
X031617Y021692D02*
X031770Y021769D01*
X031847Y021769D01*
X031924Y021692D01*
X031924Y021922D02*
X031617Y021922D01*
X031617Y021692D01*
X030416Y021692D02*
X030109Y021692D01*
X030339Y021922D01*
X030339Y021462D01*
X029955Y021538D02*
X029955Y021692D01*
X029878Y021769D01*
X029802Y021769D01*
X029648Y021692D01*
X029648Y021922D01*
X029955Y021922D01*
X029955Y021538D02*
X029878Y021462D01*
X029725Y021462D01*
X029648Y021538D01*
X028841Y021462D02*
X028534Y021462D01*
X028841Y021769D01*
X028841Y021845D01*
X028764Y021922D01*
X028611Y021922D01*
X028534Y021845D01*
X028380Y021922D02*
X028073Y021922D01*
X028073Y021692D01*
X028227Y021769D01*
X028304Y021769D01*
X028380Y021692D01*
X028380Y021538D01*
X028304Y021462D01*
X028150Y021462D01*
X028073Y021538D01*
X026872Y021538D02*
X026795Y021462D01*
X026642Y021462D01*
X026565Y021538D01*
X026565Y021615D01*
X026642Y021692D01*
X026795Y021692D01*
X026872Y021615D01*
X026872Y021538D01*
X026795Y021692D02*
X026872Y021769D01*
X026872Y021845D01*
X026795Y021922D01*
X026642Y021922D01*
X026565Y021845D01*
X026565Y021769D01*
X026642Y021692D01*
X026412Y021692D02*
X026105Y021692D01*
X026335Y021922D01*
X026335Y021462D01*
X025297Y021538D02*
X025297Y021615D01*
X025221Y021692D01*
X024990Y021692D01*
X024990Y021538D01*
X025067Y021462D01*
X025221Y021462D01*
X025297Y021538D01*
X025144Y021845D02*
X024990Y021692D01*
X024837Y021692D02*
X024530Y021692D01*
X024760Y021922D01*
X024760Y021462D01*
X025144Y021845D02*
X025297Y021922D01*
X023329Y021845D02*
X023252Y021922D01*
X023099Y021922D01*
X023022Y021845D01*
X022869Y021692D02*
X022562Y021692D01*
X022792Y021922D01*
X022792Y021462D01*
X023022Y021462D02*
X023329Y021769D01*
X023329Y021845D01*
X023329Y021462D02*
X023022Y021462D01*
X021754Y021538D02*
X021677Y021462D01*
X021524Y021462D01*
X021447Y021538D01*
X021754Y021845D01*
X021754Y021538D01*
X021447Y021538D02*
X021447Y021845D01*
X021524Y021922D01*
X021677Y021922D01*
X021754Y021845D01*
X021294Y021692D02*
X020987Y021692D01*
X021217Y021922D01*
X021217Y021462D01*
X019786Y021538D02*
X019786Y021615D01*
X019709Y021692D01*
X019479Y021692D01*
X019479Y021538D01*
X019555Y021462D01*
X019709Y021462D01*
X019786Y021538D01*
X019632Y021845D02*
X019479Y021692D01*
X019325Y021769D02*
X019248Y021692D01*
X019325Y021615D01*
X019325Y021538D01*
X019248Y021462D01*
X019095Y021462D01*
X019018Y021538D01*
X019172Y021692D02*
X019248Y021692D01*
X019325Y021769D02*
X019325Y021845D01*
X019248Y021922D01*
X019095Y021922D01*
X019018Y021845D01*
X019632Y021845D02*
X019786Y021922D01*
X018250Y021692D02*
X017943Y021692D01*
X018173Y021922D01*
X018173Y021462D01*
X017790Y021538D02*
X017713Y021462D01*
X017560Y021462D01*
X017483Y021538D01*
X017636Y021692D02*
X017713Y021692D01*
X017790Y021615D01*
X017790Y021538D01*
X017713Y021692D02*
X017790Y021769D01*
X017790Y021845D01*
X017713Y021922D01*
X017560Y021922D01*
X017483Y021845D01*
X031184Y015899D02*
X031184Y015668D01*
X031337Y015745D01*
X031414Y015745D01*
X031491Y015668D01*
X031491Y015515D01*
X031414Y015438D01*
X031260Y015438D01*
X031184Y015515D01*
X031644Y015515D02*
X031721Y015438D01*
X031874Y015438D01*
X031951Y015515D01*
X031951Y015822D01*
X031874Y015899D01*
X031721Y015899D01*
X031644Y015822D01*
X031644Y015745D01*
X031721Y015668D01*
X031951Y015668D01*
X031491Y015899D02*
X031184Y015899D01*
X031491Y013930D02*
X031337Y013853D01*
X031184Y013700D01*
X031414Y013700D01*
X031491Y013623D01*
X031491Y013546D01*
X031414Y013470D01*
X031260Y013470D01*
X031184Y013546D01*
X031184Y013700D01*
X031644Y013853D02*
X031721Y013930D01*
X031874Y013930D01*
X031951Y013853D01*
X031951Y013777D01*
X031874Y013700D01*
X031951Y013623D01*
X031951Y013546D01*
X031874Y013470D01*
X031721Y013470D01*
X031644Y013546D01*
X031797Y013700D02*
X031874Y013700D01*
X031951Y012355D02*
X031644Y012355D01*
X031644Y012125D01*
X031797Y012202D01*
X031874Y012202D01*
X031951Y012125D01*
X031951Y011972D01*
X031874Y011895D01*
X031721Y011895D01*
X031644Y011972D01*
X031491Y011972D02*
X031491Y012048D01*
X031414Y012125D01*
X031184Y012125D01*
X031184Y011972D01*
X031260Y011895D01*
X031414Y011895D01*
X031491Y011972D01*
X031337Y012278D02*
X031184Y012125D01*
X031337Y012278D02*
X031491Y012355D01*
X031491Y010387D02*
X031337Y010310D01*
X031184Y010156D01*
X031414Y010156D01*
X031491Y010080D01*
X031491Y010003D01*
X031414Y009926D01*
X031260Y009926D01*
X031184Y010003D01*
X031184Y010156D01*
X031644Y010233D02*
X031644Y010310D01*
X031721Y010387D01*
X031874Y010387D01*
X031951Y010310D01*
X031951Y010003D01*
X031874Y009926D01*
X031721Y009926D01*
X031644Y010003D01*
X031721Y010156D02*
X031951Y010156D01*
X031721Y010156D02*
X031644Y010233D01*
X031491Y008812D02*
X031184Y008812D01*
X031491Y008812D02*
X031491Y008735D01*
X031184Y008428D01*
X031184Y008351D01*
X031644Y008351D02*
X031951Y008351D01*
X031797Y008351D02*
X031797Y008812D01*
X031644Y008658D01*
X031644Y006843D02*
X031644Y006613D01*
X031797Y006690D01*
X031874Y006690D01*
X031951Y006613D01*
X031951Y006460D01*
X031874Y006383D01*
X031721Y006383D01*
X031644Y006460D01*
X031491Y006767D02*
X031184Y006460D01*
X031184Y006383D01*
X031184Y006843D02*
X031491Y006843D01*
X031491Y006767D01*
X031644Y006843D02*
X031951Y006843D01*
X034305Y005081D02*
X034382Y005158D01*
X034689Y005158D01*
X034766Y005081D01*
X034766Y004851D01*
X034305Y004851D01*
X034305Y005081D01*
X034305Y004697D02*
X034766Y004697D01*
X034305Y004390D01*
X034766Y004390D01*
X034689Y004237D02*
X034535Y004237D01*
X034535Y004083D01*
X034382Y003930D02*
X034689Y003930D01*
X034766Y004007D01*
X034766Y004160D01*
X034689Y004237D01*
X034382Y004237D02*
X034305Y004160D01*
X034305Y004007D01*
X034382Y003930D01*
X034459Y003777D02*
X034766Y003777D01*
X034535Y003777D02*
X034535Y003470D01*
X034459Y003470D02*
X034305Y003623D01*
X034459Y003777D01*
X034459Y003470D02*
X034766Y003470D01*
X032069Y004247D02*
X031762Y003940D01*
X031762Y003863D01*
X031609Y004247D02*
X031302Y003940D01*
X031302Y003863D01*
X031302Y004324D02*
X031609Y004324D01*
X031609Y004247D01*
X031762Y004324D02*
X032069Y004324D01*
X032069Y004247D01*
X028998Y004247D02*
X028998Y004170D01*
X028921Y004094D01*
X028998Y004017D01*
X028998Y003940D01*
X028921Y003863D01*
X028768Y003863D01*
X028691Y003940D01*
X028538Y003940D02*
X028461Y003863D01*
X028308Y003863D01*
X028231Y003940D01*
X028231Y004017D01*
X028308Y004094D01*
X028461Y004094D01*
X028538Y004017D01*
X028538Y003940D01*
X028461Y004094D02*
X028538Y004170D01*
X028538Y004247D01*
X028461Y004324D01*
X028308Y004324D01*
X028231Y004247D01*
X028231Y004170D01*
X028308Y004094D01*
X028691Y004247D02*
X028768Y004324D01*
X028921Y004324D01*
X028998Y004247D01*
X028921Y004094D02*
X028845Y004094D01*
X027914Y003863D02*
X027684Y003633D01*
X027991Y003633D01*
X027914Y003403D02*
X027914Y003863D01*
X027530Y003786D02*
X027530Y003710D01*
X027454Y003633D01*
X027300Y003633D01*
X027223Y003710D01*
X027223Y003786D01*
X027300Y003863D01*
X027454Y003863D01*
X027530Y003786D01*
X027454Y003633D02*
X027530Y003556D01*
X027530Y003479D01*
X027454Y003403D01*
X027300Y003403D01*
X027223Y003479D01*
X027223Y003556D01*
X027300Y003633D01*
X027300Y002387D02*
X027454Y002387D01*
X027530Y002310D01*
X027530Y002233D01*
X027454Y002156D01*
X027300Y002156D01*
X027223Y002233D01*
X027223Y002310D01*
X027300Y002387D01*
X027300Y002156D02*
X027223Y002080D01*
X027223Y002003D01*
X027300Y001926D01*
X027454Y001926D01*
X027530Y002003D01*
X027530Y002080D01*
X027454Y002156D01*
X027684Y002003D02*
X027761Y001926D01*
X027914Y001926D01*
X027991Y002003D01*
X027991Y002080D01*
X027914Y002156D01*
X027837Y002156D01*
X027914Y002156D02*
X027991Y002233D01*
X027991Y002310D01*
X027914Y002387D01*
X027761Y002387D01*
X027684Y002310D01*
X028189Y000780D02*
X028343Y000780D01*
X028420Y000704D01*
X028420Y000627D01*
X028343Y000550D01*
X028189Y000550D01*
X028113Y000627D01*
X028113Y000704D01*
X028189Y000780D01*
X028189Y000550D02*
X028113Y000473D01*
X028113Y000397D01*
X028189Y000320D01*
X028343Y000320D01*
X028420Y000397D01*
X028420Y000473D01*
X028343Y000550D01*
X028573Y000550D02*
X028803Y000780D01*
X028803Y000320D01*
X028880Y000550D02*
X028573Y000550D01*
X031184Y000397D02*
X031184Y000320D01*
X031184Y000397D02*
X031491Y000704D01*
X031491Y000780D01*
X031184Y000780D01*
X031644Y000704D02*
X031644Y000627D01*
X031721Y000550D01*
X031874Y000550D01*
X031951Y000473D01*
X031951Y000397D01*
X031874Y000320D01*
X031721Y000320D01*
X031644Y000397D01*
X031644Y000473D01*
X031721Y000550D01*
X031874Y000550D02*
X031951Y000627D01*
X031951Y000704D01*
X031874Y000780D01*
X031721Y000780D01*
X031644Y000704D01*
X034817Y006265D02*
X034817Y006572D01*
X034894Y006572D01*
X035201Y006265D01*
X035277Y006265D01*
X035201Y006725D02*
X035277Y006802D01*
X035277Y006955D01*
X035201Y007032D01*
X035124Y007032D01*
X035047Y006955D01*
X035047Y006725D01*
X035201Y006725D01*
X035047Y006725D02*
X034894Y006879D01*
X034817Y007032D01*
X034817Y008233D02*
X034817Y008540D01*
X034894Y008540D01*
X035201Y008233D01*
X035277Y008233D01*
X035277Y008694D02*
X034971Y009001D01*
X034894Y009001D01*
X034817Y008924D01*
X034817Y008771D01*
X034894Y008694D01*
X035277Y008694D02*
X035277Y009001D01*
X035277Y009808D02*
X035201Y009808D01*
X034894Y010115D01*
X034817Y010115D01*
X034817Y009808D01*
X034894Y010269D02*
X034817Y010345D01*
X034817Y010499D01*
X034894Y010576D01*
X035201Y010269D01*
X035277Y010345D01*
X035277Y010499D01*
X035201Y010576D01*
X034894Y010576D01*
X034894Y010269D02*
X035201Y010269D01*
X035201Y011777D02*
X035277Y011853D01*
X035277Y012007D01*
X035201Y012084D01*
X035124Y012084D01*
X035047Y012007D01*
X035047Y011777D01*
X035201Y011777D01*
X035047Y011777D02*
X034894Y011930D01*
X034817Y012084D01*
X035047Y012237D02*
X034894Y012391D01*
X034817Y012544D01*
X035047Y012467D02*
X035047Y012237D01*
X035201Y012237D01*
X035277Y012314D01*
X035277Y012467D01*
X035201Y012544D01*
X035124Y012544D01*
X035047Y012467D01*
X035047Y013351D02*
X035047Y013582D01*
X035124Y013658D01*
X035201Y013658D01*
X035277Y013582D01*
X035277Y013428D01*
X035201Y013351D01*
X035047Y013351D01*
X034894Y013505D01*
X034817Y013658D01*
X035047Y013812D02*
X034817Y014042D01*
X035277Y014042D01*
X035047Y014119D02*
X035047Y013812D01*
X035047Y015320D02*
X035047Y015550D01*
X035124Y015627D01*
X035201Y015627D01*
X035277Y015550D01*
X035277Y015397D01*
X035201Y015320D01*
X035047Y015320D01*
X034894Y015473D01*
X034817Y015627D01*
X034894Y015780D02*
X034817Y015857D01*
X034817Y016011D01*
X034894Y016087D01*
X035201Y015780D01*
X035277Y015857D01*
X035277Y016011D01*
X035201Y016087D01*
X034894Y016087D01*
X034894Y015780D02*
X035201Y015780D01*
X008506Y003794D02*
X008430Y003871D01*
X008276Y003871D01*
X008199Y003794D01*
X008506Y003794D02*
X008506Y003717D01*
X008199Y003411D01*
X008506Y003411D01*
X007357Y003863D02*
X007050Y003863D01*
X007203Y003863D02*
X007203Y004324D01*
X007050Y004170D01*
X004365Y004247D02*
X004058Y003940D01*
X004058Y003863D01*
X004058Y004324D02*
X004365Y004324D01*
X004365Y004247D01*
X004130Y006462D02*
X004207Y006538D01*
X004207Y006845D01*
X004130Y006922D01*
X003977Y006922D01*
X003900Y006845D01*
X003900Y006769D01*
X003977Y006692D01*
X004207Y006692D01*
X004130Y006462D02*
X003977Y006462D01*
X003900Y006538D01*
X001301Y005042D02*
X001224Y005118D01*
X000917Y005118D01*
X000841Y005042D01*
X000841Y004811D01*
X001301Y004811D01*
X001301Y005042D01*
X001301Y004658D02*
X000841Y004658D01*
X000841Y004351D02*
X001301Y004658D01*
X001301Y004351D02*
X000841Y004351D01*
X000917Y004198D02*
X000841Y004121D01*
X000841Y003967D01*
X000917Y003891D01*
X001224Y003891D01*
X001301Y003967D01*
X001301Y004121D01*
X001224Y004198D01*
X001071Y004198D01*
X001071Y004044D01*
X001224Y003737D02*
X000917Y003737D01*
X000841Y003660D01*
X000841Y003430D01*
X001301Y003430D01*
X001301Y003660D01*
X001224Y003737D01*
X000829Y006265D02*
X000829Y006572D01*
X000829Y006418D02*
X000368Y006418D01*
X000522Y006265D01*
X000445Y006725D02*
X000368Y006802D01*
X000368Y006955D01*
X000445Y007032D01*
X000752Y006725D01*
X000829Y006802D01*
X000829Y006955D01*
X000752Y007032D01*
X000445Y007032D01*
X000445Y006725D02*
X000752Y006725D01*
X008199Y002241D02*
X008353Y002395D01*
X008353Y001934D01*
X008506Y001934D02*
X008199Y001934D01*
X007280Y000780D02*
X007126Y000780D01*
X007050Y000704D01*
X007280Y000780D02*
X007357Y000704D01*
X007357Y000627D01*
X007050Y000320D01*
X007357Y000320D01*
X004365Y000397D02*
X004288Y000320D01*
X004134Y000320D01*
X004058Y000397D01*
X004058Y000473D01*
X004134Y000550D01*
X004288Y000550D01*
X004365Y000473D01*
X004365Y000397D01*
X004288Y000550D02*
X004365Y000627D01*
X004365Y000704D01*
X004288Y000780D01*
X004134Y000780D01*
X004058Y000704D01*
X004058Y000627D01*
X004134Y000550D01*
D12*
X000759Y002111D02*
X000761Y002184D01*
X000767Y002257D01*
X000777Y002329D01*
X000791Y002401D01*
X000808Y002472D01*
X000830Y002542D01*
X000855Y002611D01*
X000884Y002678D01*
X000916Y002743D01*
X000952Y002807D01*
X000992Y002869D01*
X001034Y002928D01*
X001080Y002985D01*
X001129Y003039D01*
X001181Y003091D01*
X001235Y003140D01*
X001292Y003186D01*
X001351Y003228D01*
X001413Y003268D01*
X001477Y003304D01*
X001542Y003336D01*
X001609Y003365D01*
X001678Y003390D01*
X001748Y003412D01*
X001819Y003429D01*
X001891Y003443D01*
X001963Y003453D01*
X002036Y003459D01*
X002109Y003461D01*
X002182Y003459D01*
X002255Y003453D01*
X002327Y003443D01*
X002399Y003429D01*
X002470Y003412D01*
X002540Y003390D01*
X002609Y003365D01*
X002676Y003336D01*
X002741Y003304D01*
X002805Y003268D01*
X002867Y003228D01*
X002926Y003186D01*
X002983Y003140D01*
X003037Y003091D01*
X003089Y003039D01*
X003138Y002985D01*
X003184Y002928D01*
X003226Y002869D01*
X003266Y002807D01*
X003302Y002743D01*
X003334Y002678D01*
X003363Y002611D01*
X003388Y002542D01*
X003410Y002472D01*
X003427Y002401D01*
X003441Y002329D01*
X003451Y002257D01*
X003457Y002184D01*
X003459Y002111D01*
X003457Y002038D01*
X003451Y001965D01*
X003441Y001893D01*
X003427Y001821D01*
X003410Y001750D01*
X003388Y001680D01*
X003363Y001611D01*
X003334Y001544D01*
X003302Y001479D01*
X003266Y001415D01*
X003226Y001353D01*
X003184Y001294D01*
X003138Y001237D01*
X003089Y001183D01*
X003037Y001131D01*
X002983Y001082D01*
X002926Y001036D01*
X002867Y000994D01*
X002805Y000954D01*
X002741Y000918D01*
X002676Y000886D01*
X002609Y000857D01*
X002540Y000832D01*
X002470Y000810D01*
X002399Y000793D01*
X002327Y000779D01*
X002255Y000769D01*
X002182Y000763D01*
X002109Y000761D01*
X002036Y000763D01*
X001963Y000769D01*
X001891Y000779D01*
X001819Y000793D01*
X001748Y000810D01*
X001678Y000832D01*
X001609Y000857D01*
X001542Y000886D01*
X001477Y000918D01*
X001413Y000954D01*
X001351Y000994D01*
X001292Y001036D01*
X001235Y001082D01*
X001181Y001131D01*
X001129Y001183D01*
X001080Y001237D01*
X001034Y001294D01*
X000992Y001353D01*
X000952Y001415D01*
X000916Y001479D01*
X000884Y001544D01*
X000855Y001611D01*
X000830Y001680D01*
X000808Y001750D01*
X000791Y001821D01*
X000777Y001893D01*
X000767Y001965D01*
X000761Y002038D01*
X000759Y002111D01*
X000759Y017859D02*
X000761Y017932D01*
X000767Y018005D01*
X000777Y018077D01*
X000791Y018149D01*
X000808Y018220D01*
X000830Y018290D01*
X000855Y018359D01*
X000884Y018426D01*
X000916Y018491D01*
X000952Y018555D01*
X000992Y018617D01*
X001034Y018676D01*
X001080Y018733D01*
X001129Y018787D01*
X001181Y018839D01*
X001235Y018888D01*
X001292Y018934D01*
X001351Y018976D01*
X001413Y019016D01*
X001477Y019052D01*
X001542Y019084D01*
X001609Y019113D01*
X001678Y019138D01*
X001748Y019160D01*
X001819Y019177D01*
X001891Y019191D01*
X001963Y019201D01*
X002036Y019207D01*
X002109Y019209D01*
X002182Y019207D01*
X002255Y019201D01*
X002327Y019191D01*
X002399Y019177D01*
X002470Y019160D01*
X002540Y019138D01*
X002609Y019113D01*
X002676Y019084D01*
X002741Y019052D01*
X002805Y019016D01*
X002867Y018976D01*
X002926Y018934D01*
X002983Y018888D01*
X003037Y018839D01*
X003089Y018787D01*
X003138Y018733D01*
X003184Y018676D01*
X003226Y018617D01*
X003266Y018555D01*
X003302Y018491D01*
X003334Y018426D01*
X003363Y018359D01*
X003388Y018290D01*
X003410Y018220D01*
X003427Y018149D01*
X003441Y018077D01*
X003451Y018005D01*
X003457Y017932D01*
X003459Y017859D01*
X003457Y017786D01*
X003451Y017713D01*
X003441Y017641D01*
X003427Y017569D01*
X003410Y017498D01*
X003388Y017428D01*
X003363Y017359D01*
X003334Y017292D01*
X003302Y017227D01*
X003266Y017163D01*
X003226Y017101D01*
X003184Y017042D01*
X003138Y016985D01*
X003089Y016931D01*
X003037Y016879D01*
X002983Y016830D01*
X002926Y016784D01*
X002867Y016742D01*
X002805Y016702D01*
X002741Y016666D01*
X002676Y016634D01*
X002609Y016605D01*
X002540Y016580D01*
X002470Y016558D01*
X002399Y016541D01*
X002327Y016527D01*
X002255Y016517D01*
X002182Y016511D01*
X002109Y016509D01*
X002036Y016511D01*
X001963Y016517D01*
X001891Y016527D01*
X001819Y016541D01*
X001748Y016558D01*
X001678Y016580D01*
X001609Y016605D01*
X001542Y016634D01*
X001477Y016666D01*
X001413Y016702D01*
X001351Y016742D01*
X001292Y016784D01*
X001235Y016830D01*
X001181Y016879D01*
X001129Y016931D01*
X001080Y016985D01*
X001034Y017042D01*
X000992Y017101D01*
X000952Y017163D01*
X000916Y017227D01*
X000884Y017292D01*
X000855Y017359D01*
X000830Y017428D01*
X000808Y017498D01*
X000791Y017569D01*
X000777Y017641D01*
X000767Y017713D01*
X000761Y017786D01*
X000759Y017859D01*
X032255Y017859D02*
X032257Y017932D01*
X032263Y018005D01*
X032273Y018077D01*
X032287Y018149D01*
X032304Y018220D01*
X032326Y018290D01*
X032351Y018359D01*
X032380Y018426D01*
X032412Y018491D01*
X032448Y018555D01*
X032488Y018617D01*
X032530Y018676D01*
X032576Y018733D01*
X032625Y018787D01*
X032677Y018839D01*
X032731Y018888D01*
X032788Y018934D01*
X032847Y018976D01*
X032909Y019016D01*
X032973Y019052D01*
X033038Y019084D01*
X033105Y019113D01*
X033174Y019138D01*
X033244Y019160D01*
X033315Y019177D01*
X033387Y019191D01*
X033459Y019201D01*
X033532Y019207D01*
X033605Y019209D01*
X033678Y019207D01*
X033751Y019201D01*
X033823Y019191D01*
X033895Y019177D01*
X033966Y019160D01*
X034036Y019138D01*
X034105Y019113D01*
X034172Y019084D01*
X034237Y019052D01*
X034301Y019016D01*
X034363Y018976D01*
X034422Y018934D01*
X034479Y018888D01*
X034533Y018839D01*
X034585Y018787D01*
X034634Y018733D01*
X034680Y018676D01*
X034722Y018617D01*
X034762Y018555D01*
X034798Y018491D01*
X034830Y018426D01*
X034859Y018359D01*
X034884Y018290D01*
X034906Y018220D01*
X034923Y018149D01*
X034937Y018077D01*
X034947Y018005D01*
X034953Y017932D01*
X034955Y017859D01*
X034953Y017786D01*
X034947Y017713D01*
X034937Y017641D01*
X034923Y017569D01*
X034906Y017498D01*
X034884Y017428D01*
X034859Y017359D01*
X034830Y017292D01*
X034798Y017227D01*
X034762Y017163D01*
X034722Y017101D01*
X034680Y017042D01*
X034634Y016985D01*
X034585Y016931D01*
X034533Y016879D01*
X034479Y016830D01*
X034422Y016784D01*
X034363Y016742D01*
X034301Y016702D01*
X034237Y016666D01*
X034172Y016634D01*
X034105Y016605D01*
X034036Y016580D01*
X033966Y016558D01*
X033895Y016541D01*
X033823Y016527D01*
X033751Y016517D01*
X033678Y016511D01*
X033605Y016509D01*
X033532Y016511D01*
X033459Y016517D01*
X033387Y016527D01*
X033315Y016541D01*
X033244Y016558D01*
X033174Y016580D01*
X033105Y016605D01*
X033038Y016634D01*
X032973Y016666D01*
X032909Y016702D01*
X032847Y016742D01*
X032788Y016784D01*
X032731Y016830D01*
X032677Y016879D01*
X032625Y016931D01*
X032576Y016985D01*
X032530Y017042D01*
X032488Y017101D01*
X032448Y017163D01*
X032412Y017227D01*
X032380Y017292D01*
X032351Y017359D01*
X032326Y017428D01*
X032304Y017498D01*
X032287Y017569D01*
X032273Y017641D01*
X032263Y017713D01*
X032257Y017786D01*
X032255Y017859D01*
X032255Y002111D02*
X032257Y002184D01*
X032263Y002257D01*
X032273Y002329D01*
X032287Y002401D01*
X032304Y002472D01*
X032326Y002542D01*
X032351Y002611D01*
X032380Y002678D01*
X032412Y002743D01*
X032448Y002807D01*
X032488Y002869D01*
X032530Y002928D01*
X032576Y002985D01*
X032625Y003039D01*
X032677Y003091D01*
X032731Y003140D01*
X032788Y003186D01*
X032847Y003228D01*
X032909Y003268D01*
X032973Y003304D01*
X033038Y003336D01*
X033105Y003365D01*
X033174Y003390D01*
X033244Y003412D01*
X033315Y003429D01*
X033387Y003443D01*
X033459Y003453D01*
X033532Y003459D01*
X033605Y003461D01*
X033678Y003459D01*
X033751Y003453D01*
X033823Y003443D01*
X033895Y003429D01*
X033966Y003412D01*
X034036Y003390D01*
X034105Y003365D01*
X034172Y003336D01*
X034237Y003304D01*
X034301Y003268D01*
X034363Y003228D01*
X034422Y003186D01*
X034479Y003140D01*
X034533Y003091D01*
X034585Y003039D01*
X034634Y002985D01*
X034680Y002928D01*
X034722Y002869D01*
X034762Y002807D01*
X034798Y002743D01*
X034830Y002678D01*
X034859Y002611D01*
X034884Y002542D01*
X034906Y002472D01*
X034923Y002401D01*
X034937Y002329D01*
X034947Y002257D01*
X034953Y002184D01*
X034955Y002111D01*
X034953Y002038D01*
X034947Y001965D01*
X034937Y001893D01*
X034923Y001821D01*
X034906Y001750D01*
X034884Y001680D01*
X034859Y001611D01*
X034830Y001544D01*
X034798Y001479D01*
X034762Y001415D01*
X034722Y001353D01*
X034680Y001294D01*
X034634Y001237D01*
X034585Y001183D01*
X034533Y001131D01*
X034479Y001082D01*
X034422Y001036D01*
X034363Y000994D01*
X034301Y000954D01*
X034237Y000918D01*
X034172Y000886D01*
X034105Y000857D01*
X034036Y000832D01*
X033966Y000810D01*
X033895Y000793D01*
X033823Y000779D01*
X033751Y000769D01*
X033678Y000763D01*
X033605Y000761D01*
X033532Y000763D01*
X033459Y000769D01*
X033387Y000779D01*
X033315Y000793D01*
X033244Y000810D01*
X033174Y000832D01*
X033105Y000857D01*
X033038Y000886D01*
X032973Y000918D01*
X032909Y000954D01*
X032847Y000994D01*
X032788Y001036D01*
X032731Y001082D01*
X032677Y001131D01*
X032625Y001183D01*
X032576Y001237D01*
X032530Y001294D01*
X032488Y001353D01*
X032448Y001415D01*
X032412Y001479D01*
X032380Y001544D01*
X032351Y001611D01*
X032326Y001680D01*
X032304Y001750D01*
X032287Y001821D01*
X032273Y001893D01*
X032263Y001965D01*
X032257Y002038D01*
X032255Y002111D01*
D13*
X027300Y009788D03*
X027300Y009799D03*
X027300Y009821D03*
X027300Y009832D03*
X027300Y009843D03*
X027300Y009854D03*
X027300Y009876D03*
X027300Y009887D03*
X027300Y009898D03*
X027300Y013616D03*
X027300Y013627D03*
X027300Y013638D03*
X027300Y013649D03*
X027300Y013671D03*
X027300Y013681D03*
X027300Y013692D03*
X027300Y013714D03*
X021001Y013714D03*
X021001Y013692D03*
X021001Y013681D03*
X021001Y013671D03*
X021001Y013660D03*
X021001Y013638D03*
X021001Y013627D03*
X021001Y013616D03*
X021001Y009898D03*
X021001Y009887D03*
X021001Y009876D03*
X021001Y009854D03*
X021001Y009843D03*
X021001Y009832D03*
X021001Y009821D03*
X021001Y009799D03*
X021001Y009788D03*
X014701Y009788D03*
X014701Y009799D03*
X014701Y009821D03*
X014701Y009832D03*
X014701Y009843D03*
X014701Y009854D03*
X014701Y009876D03*
X014701Y009887D03*
X014701Y009898D03*
X014701Y013616D03*
X014701Y013627D03*
X014701Y013638D03*
X014701Y013649D03*
X014701Y013671D03*
X014701Y013681D03*
X014701Y013692D03*
X014701Y013714D03*
X008402Y013714D03*
X008402Y013692D03*
X008402Y013681D03*
X008402Y013671D03*
X008402Y013649D03*
X008402Y013638D03*
X008402Y013627D03*
X008402Y013616D03*
X008402Y009898D03*
X008402Y009887D03*
X008402Y009876D03*
X008402Y009854D03*
X008402Y009843D03*
X008402Y009832D03*
X008402Y009821D03*
X008402Y009799D03*
X008402Y009788D03*
D14*
X008402Y009810D03*
X008402Y009865D03*
X008402Y013605D03*
X008402Y013660D03*
X008402Y013703D03*
X014701Y013703D03*
X014701Y013660D03*
X014701Y013605D03*
X014701Y009865D03*
X014701Y009810D03*
X021001Y009810D03*
X021001Y009865D03*
X021001Y013605D03*
X021001Y013649D03*
X021001Y013703D03*
X027300Y013703D03*
X027300Y013660D03*
X027300Y013605D03*
X027300Y009865D03*
X027300Y009810D03*
D15*
X025392Y009908D03*
X025392Y009963D03*
X025392Y010007D03*
X025392Y010062D03*
X025392Y010116D03*
X025392Y010160D03*
X025392Y010215D03*
X025392Y010258D03*
X025392Y010313D03*
X025392Y010357D03*
X025392Y010412D03*
X025392Y010455D03*
X025392Y010510D03*
X025392Y010554D03*
X025392Y010597D03*
X025392Y010652D03*
X025392Y010696D03*
X025392Y010751D03*
X025392Y010794D03*
X025392Y010849D03*
X025392Y010893D03*
X025392Y010947D03*
X025392Y010991D03*
X025392Y011046D03*
X025392Y011101D03*
X025392Y011144D03*
X025392Y011199D03*
X025392Y011243D03*
X025392Y011297D03*
X025392Y011341D03*
X025392Y011396D03*
X025392Y011440D03*
X025392Y011494D03*
X025392Y011538D03*
X025392Y011593D03*
X025392Y011636D03*
X025392Y011691D03*
X025392Y011735D03*
X025392Y011790D03*
X025392Y011833D03*
X025392Y011888D03*
X025392Y011932D03*
X025392Y011986D03*
X025392Y012030D03*
X025392Y012085D03*
X025392Y012129D03*
X025392Y012183D03*
X025392Y012227D03*
X025392Y012282D03*
X025392Y012325D03*
X025392Y012380D03*
X025392Y012424D03*
X025392Y012478D03*
X025392Y012522D03*
X025392Y012577D03*
X025392Y012621D03*
X025392Y012675D03*
X025392Y012719D03*
X025392Y012774D03*
X025392Y012818D03*
X025392Y012872D03*
X025392Y012916D03*
X025392Y012971D03*
X025392Y013014D03*
X025392Y013069D03*
X025392Y013113D03*
X025392Y013167D03*
X025392Y013211D03*
X025392Y013266D03*
X025392Y013310D03*
X025392Y013364D03*
X025392Y013408D03*
X025392Y013463D03*
X025392Y013506D03*
X025392Y013561D03*
X020569Y010204D03*
X019092Y010204D03*
X019092Y010160D03*
X019092Y010105D03*
X019092Y010062D03*
X019092Y010007D03*
X019092Y009963D03*
X019092Y009908D03*
X019092Y010258D03*
X019092Y010302D03*
X019092Y010357D03*
X019092Y010401D03*
X019092Y010455D03*
X019092Y010499D03*
X019092Y010554D03*
X019092Y010597D03*
X019092Y010652D03*
X019092Y010696D03*
X019092Y010751D03*
X019092Y010794D03*
X019092Y010849D03*
X019092Y010893D03*
X019092Y010947D03*
X019092Y010991D03*
X019092Y011046D03*
X019092Y011090D03*
X019092Y011144D03*
X019092Y011188D03*
X019092Y011243D03*
X019092Y011286D03*
X019092Y011341D03*
X019092Y011385D03*
X019092Y011440D03*
X019092Y011483D03*
X019092Y011538D03*
X019092Y011582D03*
X019092Y011636D03*
X019092Y011680D03*
X019092Y011735D03*
X019092Y011779D03*
X019092Y011833D03*
X019092Y011877D03*
X019092Y011932D03*
X019092Y011975D03*
X019092Y012030D03*
X019092Y012074D03*
X019092Y012129D03*
X019092Y012172D03*
X019092Y012227D03*
X019092Y012271D03*
X019092Y012325D03*
X019092Y012369D03*
X019092Y012424D03*
X019092Y012468D03*
X019092Y012522D03*
X019092Y012566D03*
X019092Y012621D03*
X019092Y012664D03*
X019092Y012719D03*
X019092Y012763D03*
X019092Y012818D03*
X019092Y012861D03*
X019092Y012916D03*
X019092Y012960D03*
X019092Y013014D03*
X019092Y013058D03*
X019092Y013113D03*
X019092Y013157D03*
X019092Y013211D03*
X019092Y013255D03*
X019092Y013310D03*
X019092Y013353D03*
X019092Y013408D03*
X019092Y013452D03*
X019092Y013506D03*
X019092Y013550D03*
X016194Y012872D03*
X014259Y012872D03*
X012793Y012872D03*
X012793Y012916D03*
X012793Y012971D03*
X012793Y013014D03*
X012793Y013069D03*
X012793Y013113D03*
X012793Y013167D03*
X012793Y013211D03*
X012793Y013266D03*
X012793Y013310D03*
X012793Y013364D03*
X012793Y013408D03*
X012793Y013463D03*
X012793Y013506D03*
X012793Y013561D03*
X012793Y012818D03*
X012793Y012774D03*
X012793Y012719D03*
X012793Y012675D03*
X012793Y012621D03*
X012793Y012577D03*
X012793Y012522D03*
X012793Y012478D03*
X012793Y012424D03*
X012793Y012380D03*
X012793Y012325D03*
X012793Y012282D03*
X012793Y012227D03*
X012793Y012183D03*
X012793Y012129D03*
X012793Y012085D03*
X012793Y012030D03*
X012793Y011986D03*
X012793Y011932D03*
X012793Y011888D03*
X012793Y011833D03*
X012793Y011790D03*
X012793Y011735D03*
X012793Y011691D03*
X012793Y011636D03*
X012793Y011593D03*
X012793Y011538D03*
X012793Y011494D03*
X012793Y011440D03*
X012793Y011396D03*
X012793Y011341D03*
X012793Y011297D03*
X012793Y011243D03*
X012793Y011199D03*
X012793Y011144D03*
X012793Y011101D03*
X012793Y011046D03*
X012793Y010991D03*
X012793Y010947D03*
X012793Y010893D03*
X012793Y010849D03*
X012793Y010794D03*
X012793Y010751D03*
X012793Y010696D03*
X012793Y010652D03*
X012793Y010597D03*
X012793Y010554D03*
X012793Y010510D03*
X012793Y010455D03*
X012793Y010412D03*
X012793Y010357D03*
X012793Y010313D03*
X012793Y010258D03*
X012793Y010215D03*
X012793Y010160D03*
X012793Y010116D03*
X012793Y010062D03*
X012793Y010007D03*
X012793Y009963D03*
X012793Y009908D03*
X015002Y010597D03*
X008517Y011538D03*
X006494Y011538D03*
X006494Y011494D03*
X006494Y011440D03*
X006494Y011396D03*
X006494Y011341D03*
X006494Y011297D03*
X006494Y011243D03*
X006494Y011199D03*
X006494Y011144D03*
X006494Y011101D03*
X006494Y011046D03*
X006494Y010991D03*
X006494Y010947D03*
X006494Y010893D03*
X006494Y010849D03*
X006494Y010794D03*
X006494Y010751D03*
X006494Y010696D03*
X006494Y010652D03*
X006494Y010597D03*
X006494Y010554D03*
X006494Y010510D03*
X006494Y010455D03*
X006494Y010412D03*
X006494Y010357D03*
X006494Y010313D03*
X006494Y010258D03*
X006494Y010215D03*
X006494Y010160D03*
X006494Y010116D03*
X006494Y010062D03*
X006494Y010007D03*
X006494Y009963D03*
X006494Y009908D03*
X006494Y011593D03*
X006494Y011636D03*
X006494Y011691D03*
X006494Y011735D03*
X006494Y011790D03*
X006494Y011833D03*
X006494Y011888D03*
X006494Y011932D03*
X006494Y011986D03*
X006494Y012030D03*
X006494Y012085D03*
X006494Y012129D03*
X006494Y012183D03*
X006494Y012227D03*
X006494Y012282D03*
X006494Y012325D03*
X006494Y012380D03*
X006494Y012424D03*
X006494Y012478D03*
X006494Y012522D03*
X006494Y012577D03*
X006494Y012621D03*
X006494Y012675D03*
X006494Y012719D03*
X006494Y012774D03*
X006494Y012818D03*
X006494Y012872D03*
X006494Y012916D03*
X006494Y012971D03*
X006494Y013014D03*
X006494Y013069D03*
X006494Y013113D03*
X006494Y013167D03*
X006494Y013211D03*
X006494Y013266D03*
X006494Y013310D03*
X006494Y013364D03*
X006494Y013408D03*
X006494Y013463D03*
X006494Y013506D03*
X006494Y013561D03*
D16*
X010311Y013561D03*
X010311Y013506D03*
X010311Y013463D03*
X010311Y013408D03*
X010311Y013364D03*
X010311Y013310D03*
X010311Y013266D03*
X010311Y013211D03*
X010311Y013167D03*
X010311Y013113D03*
X010311Y013069D03*
X010311Y013014D03*
X010311Y012971D03*
X010311Y012916D03*
X010311Y012872D03*
X010311Y012818D03*
X010311Y012774D03*
X010311Y012719D03*
X010311Y012675D03*
X010311Y012621D03*
X010311Y012577D03*
X010311Y012522D03*
X010311Y012478D03*
X010311Y012424D03*
X010311Y012380D03*
X010311Y012325D03*
X010311Y012282D03*
X010311Y012227D03*
X010311Y012183D03*
X010311Y012129D03*
X010311Y012085D03*
X010311Y012030D03*
X010311Y011986D03*
X010311Y011932D03*
X010311Y011888D03*
X010311Y011833D03*
X010311Y011790D03*
X010311Y011735D03*
X010311Y011691D03*
X010311Y011636D03*
X010311Y011593D03*
X010311Y011538D03*
X010311Y011494D03*
X010311Y011440D03*
X010311Y011396D03*
X010311Y011341D03*
X010311Y011297D03*
X010311Y011243D03*
X010311Y011199D03*
X010311Y011144D03*
X010311Y011101D03*
X010311Y011046D03*
X010311Y010991D03*
X010311Y010947D03*
X010311Y010893D03*
X010311Y010849D03*
X010311Y010794D03*
X010311Y010751D03*
X010311Y010696D03*
X010311Y010652D03*
X010311Y010597D03*
X010311Y010554D03*
X010311Y010510D03*
X010311Y010455D03*
X010311Y010412D03*
X010311Y010357D03*
X010311Y010313D03*
X010311Y010258D03*
X010311Y010215D03*
X010311Y010160D03*
X010311Y010116D03*
X010311Y010062D03*
X010311Y010007D03*
X010311Y009963D03*
X010311Y009908D03*
X016610Y009908D03*
X016610Y009963D03*
X016610Y010007D03*
X016610Y010062D03*
X016610Y010116D03*
X016610Y010160D03*
X016610Y010215D03*
X016610Y010258D03*
X016610Y010313D03*
X016610Y010357D03*
X016610Y010412D03*
X016610Y010455D03*
X016610Y010510D03*
X016610Y010554D03*
X016610Y010597D03*
X016610Y010652D03*
X016610Y010696D03*
X016610Y010751D03*
X016610Y010794D03*
X016610Y010849D03*
X016610Y010893D03*
X016610Y010947D03*
X016610Y010991D03*
X016610Y011046D03*
X016610Y011101D03*
X016610Y011144D03*
X016610Y011199D03*
X016610Y011243D03*
X016610Y011297D03*
X016610Y011341D03*
X016610Y011396D03*
X016610Y011440D03*
X016610Y011494D03*
X016610Y011538D03*
X016610Y011593D03*
X016610Y011636D03*
X016610Y011691D03*
X016610Y011735D03*
X016610Y011790D03*
X016610Y011833D03*
X016610Y011888D03*
X016610Y011932D03*
X016610Y011986D03*
X016610Y012030D03*
X016610Y012085D03*
X016610Y012129D03*
X016610Y012183D03*
X016610Y012227D03*
X016610Y012282D03*
X016610Y012325D03*
X016610Y012380D03*
X016610Y012424D03*
X016610Y012478D03*
X016610Y012522D03*
X016610Y012577D03*
X016610Y012621D03*
X016610Y012675D03*
X016610Y012719D03*
X016610Y012774D03*
X016610Y012818D03*
X016610Y012872D03*
X016610Y012916D03*
X016610Y012971D03*
X016610Y013014D03*
X016610Y013069D03*
X016610Y013113D03*
X016610Y013167D03*
X016610Y013211D03*
X016610Y013266D03*
X016610Y013310D03*
X016610Y013364D03*
X016610Y013408D03*
X016610Y013463D03*
X016610Y013506D03*
X016610Y013561D03*
X020142Y012424D03*
X020689Y013211D03*
X022909Y013211D03*
X022909Y013255D03*
X022909Y013310D03*
X022909Y013353D03*
X022909Y013408D03*
X022909Y013452D03*
X022909Y013506D03*
X022909Y013550D03*
X022909Y013157D03*
X022909Y013113D03*
X022909Y013058D03*
X022909Y013014D03*
X022909Y012960D03*
X022909Y012916D03*
X022909Y012861D03*
X022909Y012818D03*
X022909Y012763D03*
X022909Y012719D03*
X022909Y012664D03*
X022909Y012621D03*
X022909Y012566D03*
X022909Y012522D03*
X022909Y012468D03*
X022909Y012424D03*
X022909Y012369D03*
X022909Y012325D03*
X022909Y012271D03*
X022909Y012227D03*
X022909Y012172D03*
X022909Y012129D03*
X022909Y012074D03*
X022909Y012030D03*
X022909Y011975D03*
X022909Y011932D03*
X022909Y011877D03*
X022909Y011833D03*
X022909Y011779D03*
X022909Y011735D03*
X022909Y011680D03*
X022909Y011636D03*
X022909Y011582D03*
X022909Y011538D03*
X022909Y011483D03*
X022909Y011440D03*
X022909Y011385D03*
X022909Y011341D03*
X022909Y011286D03*
X022909Y011243D03*
X022909Y011188D03*
X022909Y011144D03*
X022909Y011090D03*
X022909Y011046D03*
X022909Y010991D03*
X022909Y010947D03*
X022909Y010893D03*
X022909Y010849D03*
X022909Y010794D03*
X022909Y010751D03*
X022909Y010696D03*
X022909Y010652D03*
X022909Y010597D03*
X022909Y010554D03*
X022909Y010499D03*
X022909Y010455D03*
X022909Y010401D03*
X022909Y010357D03*
X022909Y010302D03*
X022909Y010258D03*
X022909Y010204D03*
X022909Y010160D03*
X022909Y010105D03*
X022909Y010062D03*
X022909Y010007D03*
X022909Y009963D03*
X022909Y009908D03*
X021039Y011243D03*
X029208Y011243D03*
X029208Y011199D03*
X029208Y011144D03*
X029208Y011101D03*
X029208Y011046D03*
X029208Y010991D03*
X029208Y010947D03*
X029208Y010893D03*
X029208Y010849D03*
X029208Y010794D03*
X029208Y010751D03*
X029208Y010696D03*
X029208Y010652D03*
X029208Y010597D03*
X029208Y010554D03*
X029208Y010510D03*
X029208Y010455D03*
X029208Y010412D03*
X029208Y010357D03*
X029208Y010313D03*
X029208Y010258D03*
X029208Y010215D03*
X029208Y010160D03*
X029208Y010116D03*
X029208Y010062D03*
X029208Y010007D03*
X029208Y009963D03*
X029208Y009908D03*
X029208Y011297D03*
X029208Y011341D03*
X029208Y011396D03*
X029208Y011440D03*
X029208Y011494D03*
X029208Y011538D03*
X029208Y011593D03*
X029208Y011636D03*
X029208Y011691D03*
X029208Y011735D03*
X029208Y011790D03*
X029208Y011833D03*
X029208Y011888D03*
X029208Y011932D03*
X029208Y011986D03*
X029208Y012030D03*
X029208Y012085D03*
X029208Y012129D03*
X029208Y012183D03*
X029208Y012227D03*
X029208Y012282D03*
X029208Y012325D03*
X029208Y012380D03*
X029208Y012424D03*
X029208Y012478D03*
X029208Y012522D03*
X029208Y012577D03*
X029208Y012621D03*
X029208Y012675D03*
X029208Y012719D03*
X029208Y012774D03*
X029208Y012818D03*
X029208Y012872D03*
X029208Y012916D03*
X029208Y012971D03*
X029208Y013014D03*
X029208Y013069D03*
X029208Y013113D03*
X029208Y013167D03*
X029208Y013211D03*
X029208Y013266D03*
X029208Y013310D03*
X029208Y013364D03*
X029208Y013408D03*
X029208Y013463D03*
X029208Y013506D03*
X029208Y013561D03*
D17*
X025392Y013550D03*
X025392Y013539D03*
X025392Y013528D03*
X025392Y013517D03*
X025392Y013496D03*
X025392Y013485D03*
X025392Y013474D03*
X025392Y013452D03*
X025392Y013441D03*
X025392Y013430D03*
X025392Y013419D03*
X025392Y013397D03*
X025392Y013386D03*
X025392Y013375D03*
X025392Y013353D03*
X025392Y013342D03*
X025392Y013331D03*
X025392Y013321D03*
X025392Y013299D03*
X025392Y013288D03*
X025392Y013277D03*
X025392Y013255D03*
X025392Y013244D03*
X025392Y013233D03*
X025392Y013222D03*
X025392Y013200D03*
X025392Y013189D03*
X025392Y013178D03*
X025392Y013157D03*
X025392Y013146D03*
X025392Y013135D03*
X025392Y013124D03*
X025392Y013102D03*
X025392Y013091D03*
X025392Y013080D03*
X025392Y013058D03*
X025392Y013047D03*
X025392Y013036D03*
X025392Y013025D03*
X025392Y013003D03*
X025392Y012992D03*
X025392Y012982D03*
X025392Y012960D03*
X025392Y012949D03*
X025392Y012938D03*
X025392Y012927D03*
X025392Y012905D03*
X025392Y012894D03*
X025392Y012883D03*
X025392Y012861D03*
X025392Y012850D03*
X025392Y012839D03*
X025392Y012828D03*
X025392Y012807D03*
X025392Y012796D03*
X025392Y012785D03*
X025392Y012763D03*
X025392Y012752D03*
X025392Y012741D03*
X025392Y012730D03*
X025392Y012708D03*
X025392Y012697D03*
X025392Y012686D03*
X025392Y012664D03*
X025392Y012653D03*
X025392Y012643D03*
X025392Y012632D03*
X025392Y012610D03*
X025392Y012599D03*
X025392Y012588D03*
X025392Y012566D03*
X025392Y012555D03*
X025392Y012544D03*
X025392Y012533D03*
X025392Y012511D03*
X025392Y012500D03*
X025392Y012489D03*
X025392Y012468D03*
X025392Y012457D03*
X025392Y012446D03*
X025392Y012435D03*
X025392Y012413D03*
X025392Y012402D03*
X025392Y012391D03*
X025392Y012369D03*
X025392Y012358D03*
X025392Y012347D03*
X025392Y012336D03*
X025392Y012314D03*
X025392Y012304D03*
X025392Y012293D03*
X025392Y012271D03*
X025392Y012260D03*
X025392Y012249D03*
X025392Y012238D03*
X025392Y012216D03*
X025392Y012205D03*
X025392Y012194D03*
X025392Y012172D03*
X025392Y012161D03*
X025392Y012150D03*
X025392Y012139D03*
X025392Y012118D03*
X025392Y012107D03*
X025392Y012096D03*
X025392Y012074D03*
X025392Y012063D03*
X025392Y012052D03*
X025392Y012041D03*
X025392Y012019D03*
X025392Y012008D03*
X025392Y011997D03*
X025392Y011975D03*
X025392Y011964D03*
X025392Y011954D03*
X025392Y011943D03*
X025392Y011921D03*
X025392Y011910D03*
X025392Y011899D03*
X025392Y011877D03*
X025392Y011866D03*
X025392Y011855D03*
X025392Y011844D03*
X025392Y011822D03*
X025392Y011811D03*
X025392Y011800D03*
X025392Y011779D03*
X025392Y011768D03*
X025392Y011757D03*
X025392Y011746D03*
X025392Y011724D03*
X025392Y011713D03*
X025392Y011702D03*
X025392Y011680D03*
X025392Y011669D03*
X025392Y011658D03*
X025392Y011647D03*
X025392Y011625D03*
X025392Y011615D03*
X025392Y011604D03*
X025392Y011582D03*
X025392Y011571D03*
X025392Y011560D03*
X025392Y011549D03*
X025392Y011527D03*
X025392Y011516D03*
X025392Y011505D03*
X025392Y011483D03*
X025392Y011472D03*
X025392Y011461D03*
X025392Y011450D03*
X025392Y011429D03*
X025392Y011418D03*
X025392Y011407D03*
X025392Y011385D03*
X025392Y011374D03*
X025392Y011363D03*
X025392Y011352D03*
X025392Y011330D03*
X025392Y011319D03*
X025392Y011308D03*
X025392Y011286D03*
X025392Y011276D03*
X025392Y011265D03*
X025392Y011254D03*
X025392Y011232D03*
X025392Y011221D03*
X025392Y011210D03*
X025392Y011188D03*
X025392Y011177D03*
X025392Y011166D03*
X025392Y011155D03*
X025392Y011133D03*
X025392Y011122D03*
X025392Y011111D03*
X025392Y011090D03*
X025392Y011079D03*
X025392Y011068D03*
X025392Y011057D03*
X025392Y011035D03*
X025392Y011024D03*
X025392Y011013D03*
X025392Y011002D03*
X025392Y010980D03*
X025392Y010969D03*
X025392Y010958D03*
X025392Y010936D03*
X025392Y010926D03*
X025392Y010915D03*
X025392Y010904D03*
X025392Y010882D03*
X025392Y010871D03*
X025392Y010860D03*
X025392Y010838D03*
X025392Y010827D03*
X025392Y010816D03*
X025392Y010805D03*
X025392Y010783D03*
X025392Y010772D03*
X025392Y010761D03*
X025392Y010740D03*
X025392Y010729D03*
X025392Y010718D03*
X025392Y010707D03*
X025392Y010685D03*
X025392Y010674D03*
X025392Y010663D03*
X025392Y010641D03*
X025392Y010630D03*
X025392Y010619D03*
X025392Y010608D03*
X025392Y010587D03*
X025392Y010576D03*
X025392Y010565D03*
X025392Y010543D03*
X025392Y010532D03*
X025392Y010521D03*
X025392Y010499D03*
X025392Y010488D03*
X025392Y010477D03*
X025392Y010466D03*
X025392Y010444D03*
X025392Y010433D03*
X025392Y010422D03*
X025392Y010401D03*
X025392Y010390D03*
X025392Y010379D03*
X025392Y010368D03*
X025392Y010346D03*
X025392Y010335D03*
X025392Y010324D03*
X025392Y010302D03*
X025392Y010291D03*
X025392Y010280D03*
X025392Y010269D03*
X025392Y010248D03*
X025392Y010237D03*
X025392Y010226D03*
X025392Y010204D03*
X025392Y010193D03*
X025392Y010182D03*
X025392Y010171D03*
X025392Y010149D03*
X025392Y010138D03*
X025392Y010127D03*
X025392Y010105D03*
X025392Y010094D03*
X025392Y010083D03*
X025392Y010073D03*
X025392Y010051D03*
X025392Y010040D03*
X025392Y010029D03*
X025392Y010018D03*
X025392Y009996D03*
X025392Y009985D03*
X025392Y009974D03*
X025392Y009952D03*
X025392Y009941D03*
X025392Y009930D03*
X025392Y009919D03*
X021290Y012391D03*
X021290Y012402D03*
X021290Y012413D03*
X020755Y012118D03*
X021400Y013277D03*
X021400Y013288D03*
X019092Y013288D03*
X019092Y013299D03*
X019092Y013321D03*
X019092Y013331D03*
X019092Y013342D03*
X019092Y013364D03*
X019092Y013375D03*
X019092Y013386D03*
X019092Y013397D03*
X019092Y013419D03*
X019092Y013430D03*
X019092Y013441D03*
X019092Y013463D03*
X019092Y013474D03*
X019092Y013485D03*
X019092Y013496D03*
X019092Y013517D03*
X019092Y013528D03*
X019092Y013539D03*
X019092Y013561D03*
X019092Y013572D03*
X019092Y013583D03*
X019092Y013594D03*
X019092Y013277D03*
X019092Y013266D03*
X019092Y013244D03*
X019092Y013233D03*
X019092Y013222D03*
X019092Y013200D03*
X019092Y013189D03*
X019092Y013178D03*
X019092Y013167D03*
X019092Y013146D03*
X019092Y013135D03*
X019092Y013124D03*
X019092Y013102D03*
X019092Y013091D03*
X019092Y013080D03*
X019092Y013069D03*
X019092Y013047D03*
X019092Y013036D03*
X019092Y013025D03*
X019092Y013003D03*
X019092Y012992D03*
X019092Y012982D03*
X019092Y012971D03*
X019092Y012949D03*
X019092Y012938D03*
X019092Y012927D03*
X019092Y012905D03*
X019092Y012894D03*
X019092Y012883D03*
X019092Y012872D03*
X019092Y012850D03*
X019092Y012839D03*
X019092Y012828D03*
X019092Y012807D03*
X019092Y012796D03*
X019092Y012785D03*
X019092Y012774D03*
X019092Y012752D03*
X019092Y012741D03*
X019092Y012730D03*
X019092Y012708D03*
X019092Y012697D03*
X019092Y012686D03*
X019092Y012675D03*
X019092Y012653D03*
X019092Y012643D03*
X019092Y012632D03*
X019092Y012610D03*
X019092Y012599D03*
X019092Y012588D03*
X019092Y012577D03*
X019092Y012555D03*
X019092Y012544D03*
X019092Y012533D03*
X019092Y012511D03*
X019092Y012500D03*
X019092Y012489D03*
X019092Y012478D03*
X019092Y012457D03*
X019092Y012446D03*
X019092Y012435D03*
X019092Y012413D03*
X019092Y012402D03*
X019092Y012391D03*
X019092Y012380D03*
X019092Y012358D03*
X019092Y012347D03*
X019092Y012336D03*
X019092Y012314D03*
X019092Y012304D03*
X019092Y012293D03*
X019092Y012282D03*
X019092Y012260D03*
X019092Y012249D03*
X019092Y012238D03*
X019092Y012216D03*
X019092Y012205D03*
X019092Y012194D03*
X019092Y012183D03*
X019092Y012161D03*
X019092Y012150D03*
X019092Y012139D03*
X019092Y012118D03*
X019092Y012107D03*
X019092Y012096D03*
X019092Y012085D03*
X019092Y012063D03*
X019092Y012052D03*
X019092Y012041D03*
X019092Y012019D03*
X019092Y012008D03*
X019092Y011997D03*
X019092Y011986D03*
X019092Y011964D03*
X019092Y011954D03*
X019092Y011943D03*
X019092Y011921D03*
X019092Y011910D03*
X019092Y011899D03*
X019092Y011888D03*
X019092Y011866D03*
X019092Y011855D03*
X019092Y011844D03*
X019092Y011822D03*
X019092Y011811D03*
X019092Y011800D03*
X019092Y011789D03*
X019092Y011768D03*
X019092Y011757D03*
X019092Y011746D03*
X019092Y011724D03*
X019092Y011713D03*
X019092Y011702D03*
X019092Y011691D03*
X019092Y011669D03*
X019092Y011658D03*
X019092Y011647D03*
X019092Y011625D03*
X019092Y011615D03*
X019092Y011604D03*
X019092Y011593D03*
X019092Y011571D03*
X019092Y011560D03*
X019092Y011549D03*
X019092Y011527D03*
X019092Y011516D03*
X019092Y011505D03*
X019092Y011494D03*
X019092Y011472D03*
X019092Y011461D03*
X019092Y011450D03*
X019092Y011429D03*
X019092Y011418D03*
X019092Y011407D03*
X019092Y011396D03*
X019092Y011374D03*
X019092Y011363D03*
X019092Y011352D03*
X019092Y011330D03*
X019092Y011319D03*
X019092Y011308D03*
X019092Y011297D03*
X019092Y011276D03*
X019092Y011265D03*
X019092Y011254D03*
X019092Y011232D03*
X019092Y011221D03*
X019092Y011210D03*
X019092Y011199D03*
X019092Y011177D03*
X019092Y011166D03*
X019092Y011155D03*
X019092Y011133D03*
X019092Y011122D03*
X019092Y011111D03*
X019092Y011101D03*
X019092Y011079D03*
X019092Y011068D03*
X019092Y011057D03*
X019092Y011035D03*
X019092Y011024D03*
X019092Y011013D03*
X019092Y011002D03*
X019092Y010980D03*
X019092Y010969D03*
X019092Y010958D03*
X019092Y010936D03*
X019092Y010926D03*
X019092Y010915D03*
X019092Y010904D03*
X019092Y010882D03*
X019092Y010871D03*
X019092Y010860D03*
X019092Y010838D03*
X019092Y010827D03*
X019092Y010816D03*
X019092Y010805D03*
X019092Y010783D03*
X019092Y010772D03*
X019092Y010761D03*
X019092Y010740D03*
X019092Y010729D03*
X019092Y010718D03*
X019092Y010707D03*
X019092Y010685D03*
X019092Y010674D03*
X019092Y010663D03*
X019092Y010641D03*
X019092Y010630D03*
X019092Y010619D03*
X019092Y010608D03*
X019092Y010587D03*
X019092Y010576D03*
X019092Y010565D03*
X019092Y010543D03*
X019092Y010532D03*
X019092Y010521D03*
X019092Y010510D03*
X019092Y010488D03*
X019092Y010477D03*
X019092Y010466D03*
X019092Y010444D03*
X019092Y010433D03*
X019092Y010422D03*
X019092Y010412D03*
X019092Y010390D03*
X019092Y010379D03*
X019092Y010368D03*
X019092Y010346D03*
X019092Y010335D03*
X019092Y010324D03*
X019092Y010313D03*
X019092Y010291D03*
X019092Y010280D03*
X019092Y010269D03*
X019092Y010248D03*
X019092Y010237D03*
X019092Y010226D03*
X019092Y010215D03*
X019092Y010193D03*
X019092Y010182D03*
X019092Y010171D03*
X019092Y010149D03*
X019092Y010138D03*
X019092Y010127D03*
X019092Y010116D03*
X019092Y010094D03*
X019092Y010083D03*
X019092Y010073D03*
X019092Y010051D03*
X019092Y010040D03*
X019092Y010029D03*
X019092Y010018D03*
X019092Y009996D03*
X019092Y009985D03*
X019092Y009974D03*
X019092Y009952D03*
X019092Y009941D03*
X019092Y009930D03*
X019092Y009919D03*
X014062Y010674D03*
X013088Y010587D03*
X012793Y010587D03*
X012793Y010576D03*
X012793Y010565D03*
X012793Y010543D03*
X012793Y010532D03*
X012793Y010521D03*
X012793Y010499D03*
X012793Y010488D03*
X012793Y010477D03*
X012793Y010466D03*
X012793Y010444D03*
X012793Y010433D03*
X012793Y010422D03*
X012793Y010401D03*
X012793Y010390D03*
X012793Y010379D03*
X012793Y010368D03*
X012793Y010346D03*
X012793Y010335D03*
X012793Y010324D03*
X012793Y010302D03*
X012793Y010291D03*
X012793Y010280D03*
X012793Y010269D03*
X012793Y010248D03*
X012793Y010237D03*
X012793Y010226D03*
X012793Y010204D03*
X012793Y010193D03*
X012793Y010182D03*
X012793Y010171D03*
X012793Y010149D03*
X012793Y010138D03*
X012793Y010127D03*
X012793Y010105D03*
X012793Y010094D03*
X012793Y010083D03*
X012793Y010073D03*
X012793Y010051D03*
X012793Y010040D03*
X012793Y010029D03*
X012793Y010018D03*
X012793Y009996D03*
X012793Y009985D03*
X012793Y009974D03*
X012793Y009952D03*
X012793Y009941D03*
X012793Y009930D03*
X012793Y009919D03*
X012793Y010608D03*
X012793Y010619D03*
X012793Y010630D03*
X012793Y010641D03*
X012793Y010663D03*
X012793Y010674D03*
X012793Y010685D03*
X012793Y010707D03*
X012793Y010718D03*
X012793Y010729D03*
X012793Y010740D03*
X012793Y010761D03*
X012793Y010772D03*
X012793Y010783D03*
X012793Y010805D03*
X012793Y010816D03*
X012793Y010827D03*
X012793Y010838D03*
X012793Y010860D03*
X012793Y010871D03*
X012793Y010882D03*
X012793Y010904D03*
X012793Y010915D03*
X012793Y010926D03*
X012793Y010936D03*
X012793Y010958D03*
X012793Y010969D03*
X012793Y010980D03*
X012793Y011002D03*
X012793Y011013D03*
X012793Y011024D03*
X012793Y011035D03*
X012793Y011057D03*
X012793Y011068D03*
X012793Y011079D03*
X012793Y011090D03*
X012793Y011111D03*
X012793Y011122D03*
X012793Y011133D03*
X012793Y011155D03*
X012793Y011166D03*
X012793Y011177D03*
X012793Y011188D03*
X012793Y011210D03*
X012793Y011221D03*
X012793Y011232D03*
X012793Y011254D03*
X012793Y011265D03*
X012793Y011276D03*
X012793Y011286D03*
X012793Y011308D03*
X012793Y011319D03*
X012793Y011330D03*
X012793Y011352D03*
X012793Y011363D03*
X012793Y011374D03*
X012793Y011385D03*
X012793Y011407D03*
X012793Y011418D03*
X012793Y011429D03*
X012793Y011450D03*
X012793Y011461D03*
X012793Y011472D03*
X012793Y011483D03*
X012793Y011505D03*
X012793Y011516D03*
X012793Y011527D03*
X012793Y011549D03*
X012793Y011560D03*
X012793Y011571D03*
X012793Y011582D03*
X012793Y011604D03*
X012793Y011615D03*
X012793Y011625D03*
X012793Y011647D03*
X012793Y011658D03*
X012793Y011669D03*
X012793Y011680D03*
X012793Y011702D03*
X012793Y011713D03*
X012793Y011724D03*
X012793Y011746D03*
X012793Y011757D03*
X012793Y011768D03*
X012793Y011779D03*
X012793Y011800D03*
X012793Y011811D03*
X012793Y011822D03*
X012793Y011844D03*
X012793Y011855D03*
X012793Y011866D03*
X012793Y011877D03*
X012793Y011899D03*
X012793Y011910D03*
X012793Y011921D03*
X012793Y011943D03*
X012793Y011954D03*
X012793Y011964D03*
X012793Y011975D03*
X012793Y011997D03*
X012793Y012008D03*
X012793Y012019D03*
X012793Y012041D03*
X012793Y012052D03*
X012793Y012063D03*
X012793Y012074D03*
X012793Y012096D03*
X012793Y012107D03*
X012793Y012118D03*
X012793Y012139D03*
X012793Y012150D03*
X012793Y012161D03*
X012793Y012172D03*
X012793Y012194D03*
X012793Y012205D03*
X012793Y012216D03*
X012793Y012238D03*
X012793Y012249D03*
X012793Y012260D03*
X012793Y012271D03*
X012793Y012293D03*
X012793Y012304D03*
X012793Y012314D03*
X012793Y012336D03*
X012793Y012347D03*
X012793Y012358D03*
X012793Y012369D03*
X012793Y012391D03*
X012793Y012402D03*
X012793Y012413D03*
X012793Y012435D03*
X012793Y012446D03*
X012793Y012457D03*
X012793Y012468D03*
X012793Y012489D03*
X012793Y012500D03*
X012793Y012511D03*
X012793Y012533D03*
X012793Y012544D03*
X012793Y012555D03*
X012793Y012566D03*
X012793Y012588D03*
X012793Y012599D03*
X012793Y012610D03*
X012793Y012632D03*
X012793Y012643D03*
X012793Y012653D03*
X012793Y012664D03*
X012793Y012686D03*
X012793Y012697D03*
X012793Y012708D03*
X012793Y012730D03*
X012793Y012741D03*
X012793Y012752D03*
X012793Y012763D03*
X012793Y012785D03*
X012793Y012796D03*
X012793Y012807D03*
X012793Y012828D03*
X012793Y012839D03*
X012793Y012850D03*
X012793Y012861D03*
X012793Y012883D03*
X012793Y012894D03*
X012793Y012905D03*
X012793Y012927D03*
X012793Y012938D03*
X012793Y012949D03*
X012793Y012960D03*
X012793Y012982D03*
X012793Y012992D03*
X012793Y013003D03*
X012793Y013025D03*
X012793Y013036D03*
X012793Y013047D03*
X012793Y013058D03*
X012793Y013080D03*
X012793Y013091D03*
X012793Y013102D03*
X012793Y013124D03*
X012793Y013135D03*
X012793Y013146D03*
X012793Y013157D03*
X012793Y013178D03*
X012793Y013189D03*
X012793Y013200D03*
X012793Y013222D03*
X012793Y013233D03*
X012793Y013244D03*
X012793Y013255D03*
X012793Y013277D03*
X012793Y013288D03*
X012793Y013299D03*
X012793Y013321D03*
X012793Y013331D03*
X012793Y013342D03*
X012793Y013353D03*
X012793Y013375D03*
X012793Y013386D03*
X012793Y013397D03*
X012793Y013419D03*
X012793Y013430D03*
X012793Y013441D03*
X012793Y013452D03*
X012793Y013474D03*
X012793Y013485D03*
X012793Y013496D03*
X012793Y013517D03*
X012793Y013528D03*
X012793Y013539D03*
X012793Y013550D03*
X012793Y013572D03*
X012793Y013583D03*
X012793Y013594D03*
X013220Y012905D03*
X008911Y011877D03*
X006494Y011877D03*
X006494Y011866D03*
X006494Y011855D03*
X006494Y011844D03*
X006494Y011822D03*
X006494Y011811D03*
X006494Y011800D03*
X006494Y011779D03*
X006494Y011768D03*
X006494Y011757D03*
X006494Y011746D03*
X006494Y011724D03*
X006494Y011713D03*
X006494Y011702D03*
X006494Y011680D03*
X006494Y011669D03*
X006494Y011658D03*
X006494Y011647D03*
X006494Y011625D03*
X006494Y011615D03*
X006494Y011604D03*
X006494Y011582D03*
X006494Y011571D03*
X006494Y011560D03*
X006494Y011549D03*
X006494Y011527D03*
X006494Y011516D03*
X006494Y011505D03*
X006494Y011483D03*
X006494Y011472D03*
X006494Y011461D03*
X006494Y011450D03*
X006494Y011429D03*
X006494Y011418D03*
X006494Y011407D03*
X006494Y011385D03*
X006494Y011374D03*
X006494Y011363D03*
X006494Y011352D03*
X006494Y011330D03*
X006494Y011319D03*
X006494Y011308D03*
X006494Y011286D03*
X006494Y011276D03*
X006494Y011265D03*
X006494Y011254D03*
X006494Y011232D03*
X006494Y011221D03*
X006494Y011210D03*
X006494Y011188D03*
X006494Y011177D03*
X006494Y011166D03*
X006494Y011155D03*
X006494Y011133D03*
X006494Y011122D03*
X006494Y011111D03*
X006494Y011090D03*
X006494Y011079D03*
X006494Y011068D03*
X006494Y011057D03*
X006494Y011035D03*
X006494Y011024D03*
X006494Y011013D03*
X006494Y011002D03*
X006494Y010980D03*
X006494Y010969D03*
X006494Y010958D03*
X006494Y010936D03*
X006494Y010926D03*
X006494Y010915D03*
X006494Y010904D03*
X006494Y010882D03*
X006494Y010871D03*
X006494Y010860D03*
X006494Y010838D03*
X006494Y010827D03*
X006494Y010816D03*
X006494Y010805D03*
X006494Y010783D03*
X006494Y010772D03*
X006494Y010761D03*
X006494Y010740D03*
X006494Y010729D03*
X006494Y010718D03*
X006494Y010707D03*
X006494Y010685D03*
X006494Y010674D03*
X006494Y010663D03*
X006494Y010641D03*
X006494Y010630D03*
X006494Y010619D03*
X006494Y010608D03*
X006494Y010587D03*
X006494Y010576D03*
X006494Y010565D03*
X006494Y010543D03*
X006494Y010532D03*
X006494Y010521D03*
X006494Y010499D03*
X006494Y010488D03*
X006494Y010477D03*
X006494Y010466D03*
X006494Y010444D03*
X006494Y010433D03*
X006494Y010422D03*
X006494Y010401D03*
X006494Y010390D03*
X006494Y010379D03*
X006494Y010368D03*
X006494Y010346D03*
X006494Y010335D03*
X006494Y010324D03*
X006494Y010302D03*
X006494Y010291D03*
X006494Y010280D03*
X006494Y010269D03*
X006494Y010248D03*
X006494Y010237D03*
X006494Y010226D03*
X006494Y010204D03*
X006494Y010193D03*
X006494Y010182D03*
X006494Y010171D03*
X006494Y010149D03*
X006494Y010138D03*
X006494Y010127D03*
X006494Y010105D03*
X006494Y010094D03*
X006494Y010083D03*
X006494Y010073D03*
X006494Y010051D03*
X006494Y010040D03*
X006494Y010029D03*
X006494Y010018D03*
X006494Y009996D03*
X006494Y009985D03*
X006494Y009974D03*
X006494Y009952D03*
X006494Y009941D03*
X006494Y009930D03*
X006494Y009919D03*
X006494Y011899D03*
X006494Y011910D03*
X006494Y011921D03*
X006494Y011943D03*
X006494Y011954D03*
X006494Y011964D03*
X006494Y011975D03*
X006494Y011997D03*
X006494Y012008D03*
X006494Y012019D03*
X006494Y012041D03*
X006494Y012052D03*
X006494Y012063D03*
X006494Y012074D03*
X006494Y012096D03*
X006494Y012107D03*
X006494Y012118D03*
X006494Y012139D03*
X006494Y012150D03*
X006494Y012161D03*
X006494Y012172D03*
X006494Y012194D03*
X006494Y012205D03*
X006494Y012216D03*
X006494Y012238D03*
X006494Y012249D03*
X006494Y012260D03*
X006494Y012271D03*
X006494Y012293D03*
X006494Y012304D03*
X006494Y012314D03*
X006494Y012336D03*
X006494Y012347D03*
X006494Y012358D03*
X006494Y012369D03*
X006494Y012391D03*
X006494Y012402D03*
X006494Y012413D03*
X006494Y012435D03*
X006494Y012446D03*
X006494Y012457D03*
X006494Y012468D03*
X006494Y012489D03*
X006494Y012500D03*
X006494Y012511D03*
X006494Y012533D03*
X006494Y012544D03*
X006494Y012555D03*
X006494Y012566D03*
X006494Y012588D03*
X006494Y012599D03*
X006494Y012610D03*
X006494Y012632D03*
X006494Y012643D03*
X006494Y012653D03*
X006494Y012664D03*
X006494Y012686D03*
X006494Y012697D03*
X006494Y012708D03*
X006494Y012730D03*
X006494Y012741D03*
X006494Y012752D03*
X006494Y012763D03*
X006494Y012785D03*
X006494Y012796D03*
X006494Y012807D03*
X006494Y012828D03*
X006494Y012839D03*
X006494Y012850D03*
X006494Y012861D03*
X006494Y012883D03*
X006494Y012894D03*
X006494Y012905D03*
X006494Y012927D03*
X006494Y012938D03*
X006494Y012949D03*
X006494Y012960D03*
X006494Y012982D03*
X006494Y012992D03*
X006494Y013003D03*
X006494Y013025D03*
X006494Y013036D03*
X006494Y013047D03*
X006494Y013058D03*
X006494Y013080D03*
X006494Y013091D03*
X006494Y013102D03*
X006494Y013124D03*
X006494Y013135D03*
X006494Y013146D03*
X006494Y013157D03*
X006494Y013178D03*
X006494Y013189D03*
X006494Y013200D03*
X006494Y013222D03*
X006494Y013233D03*
X006494Y013244D03*
X006494Y013255D03*
X006494Y013277D03*
X006494Y013288D03*
X006494Y013299D03*
X006494Y013321D03*
X006494Y013331D03*
X006494Y013342D03*
X006494Y013353D03*
X006494Y013375D03*
X006494Y013386D03*
X006494Y013397D03*
X006494Y013419D03*
X006494Y013430D03*
X006494Y013441D03*
X006494Y013452D03*
X006494Y013474D03*
X006494Y013485D03*
X006494Y013496D03*
X006494Y013517D03*
X006494Y013528D03*
X006494Y013539D03*
X006494Y013550D03*
X006494Y013572D03*
X006494Y013583D03*
X006494Y013594D03*
X025392Y013594D03*
X025392Y013583D03*
X025392Y013572D03*
D18*
X022909Y013572D03*
X022909Y013561D03*
X022909Y013539D03*
X022909Y013528D03*
X022909Y013517D03*
X022909Y013496D03*
X022909Y013485D03*
X022909Y013474D03*
X022909Y013463D03*
X022909Y013441D03*
X022909Y013430D03*
X022909Y013419D03*
X022909Y013397D03*
X022909Y013386D03*
X022909Y013375D03*
X022909Y013364D03*
X022909Y013342D03*
X022909Y013331D03*
X022909Y013321D03*
X022909Y013299D03*
X022909Y013288D03*
X022909Y013277D03*
X022909Y013266D03*
X022909Y013244D03*
X022909Y013233D03*
X022909Y013222D03*
X022909Y013200D03*
X022909Y013189D03*
X022909Y013178D03*
X022909Y013167D03*
X022909Y013146D03*
X022909Y013135D03*
X022909Y013124D03*
X022909Y013102D03*
X022909Y013091D03*
X022909Y013080D03*
X022909Y013069D03*
X022909Y013047D03*
X022909Y013036D03*
X022909Y013025D03*
X022909Y013003D03*
X022909Y012992D03*
X022909Y012982D03*
X022909Y012971D03*
X022909Y012949D03*
X022909Y012938D03*
X022909Y012927D03*
X022909Y012905D03*
X022909Y012894D03*
X022909Y012883D03*
X022909Y012872D03*
X022909Y012850D03*
X022909Y012839D03*
X022909Y012828D03*
X022909Y012807D03*
X022909Y012796D03*
X022909Y012785D03*
X022909Y012774D03*
X022909Y012752D03*
X022909Y012741D03*
X022909Y012730D03*
X022909Y012708D03*
X022909Y012697D03*
X022909Y012686D03*
X022909Y012675D03*
X022909Y012653D03*
X022909Y012643D03*
X022909Y012632D03*
X022909Y012610D03*
X022909Y012599D03*
X022909Y012588D03*
X022909Y012577D03*
X022909Y012555D03*
X022909Y012544D03*
X022909Y012533D03*
X022909Y012511D03*
X022909Y012500D03*
X022909Y012489D03*
X022909Y012478D03*
X022909Y012457D03*
X022909Y012446D03*
X022909Y012435D03*
X022909Y012413D03*
X022909Y012402D03*
X022909Y012391D03*
X022909Y012380D03*
X022909Y012358D03*
X022909Y012347D03*
X022909Y012336D03*
X022909Y012314D03*
X022909Y012304D03*
X022909Y012293D03*
X022909Y012282D03*
X022909Y012260D03*
X022909Y012249D03*
X022909Y012238D03*
X022909Y012216D03*
X022909Y012205D03*
X022909Y012194D03*
X022909Y012183D03*
X022909Y012161D03*
X022909Y012150D03*
X022909Y012139D03*
X022909Y012118D03*
X022909Y012107D03*
X022909Y012096D03*
X022909Y012085D03*
X022909Y012063D03*
X022909Y012052D03*
X022909Y012041D03*
X022909Y012019D03*
X022909Y012008D03*
X022909Y011997D03*
X022909Y011986D03*
X022909Y011964D03*
X022909Y011954D03*
X022909Y011943D03*
X022909Y011921D03*
X022909Y011910D03*
X022909Y011899D03*
X022909Y011888D03*
X022909Y011866D03*
X022909Y011855D03*
X022909Y011844D03*
X022909Y011822D03*
X022909Y011811D03*
X022909Y011800D03*
X022909Y011789D03*
X022909Y011768D03*
X022909Y011757D03*
X022909Y011746D03*
X022909Y011724D03*
X022909Y011713D03*
X022909Y011702D03*
X022909Y011691D03*
X022909Y011669D03*
X022909Y011658D03*
X022909Y011647D03*
X022909Y011625D03*
X022909Y011615D03*
X022909Y011604D03*
X022909Y011593D03*
X022909Y011571D03*
X022909Y011560D03*
X022909Y011549D03*
X022909Y011527D03*
X022909Y011516D03*
X022909Y011505D03*
X022909Y011494D03*
X022909Y011472D03*
X022909Y011461D03*
X022909Y011450D03*
X022909Y011429D03*
X022909Y011418D03*
X022909Y011407D03*
X022909Y011396D03*
X022909Y011374D03*
X022909Y011363D03*
X022909Y011352D03*
X022909Y011330D03*
X022909Y011319D03*
X022909Y011308D03*
X022909Y011297D03*
X022909Y011276D03*
X022909Y011265D03*
X022909Y011254D03*
X022909Y011232D03*
X022909Y011221D03*
X022909Y011210D03*
X022909Y011199D03*
X022909Y011177D03*
X022909Y011166D03*
X022909Y011155D03*
X022909Y011133D03*
X022909Y011122D03*
X022909Y011111D03*
X022909Y011101D03*
X022909Y011079D03*
X022909Y011068D03*
X022909Y011057D03*
X022909Y011035D03*
X022909Y011024D03*
X022909Y011013D03*
X022909Y011002D03*
X022909Y010980D03*
X022909Y010969D03*
X022909Y010958D03*
X022909Y010936D03*
X022909Y010926D03*
X022909Y010915D03*
X022909Y010904D03*
X022909Y010882D03*
X022909Y010871D03*
X022909Y010860D03*
X022909Y010838D03*
X022909Y010827D03*
X022909Y010816D03*
X022909Y010805D03*
X022909Y010783D03*
X022909Y010772D03*
X022909Y010761D03*
X022909Y010740D03*
X022909Y010729D03*
X022909Y010718D03*
X022909Y010707D03*
X022909Y010685D03*
X022909Y010674D03*
X022909Y010663D03*
X022909Y010641D03*
X022909Y010630D03*
X022909Y010619D03*
X022909Y010608D03*
X022909Y010587D03*
X022909Y010576D03*
X022909Y010565D03*
X022909Y010543D03*
X022909Y010532D03*
X022909Y010521D03*
X022909Y010510D03*
X022909Y010488D03*
X022909Y010477D03*
X022909Y010466D03*
X022909Y010444D03*
X022909Y010433D03*
X022909Y010422D03*
X022909Y010412D03*
X022909Y010390D03*
X022909Y010379D03*
X022909Y010368D03*
X022909Y010346D03*
X022909Y010335D03*
X022909Y010324D03*
X022909Y010313D03*
X022909Y010291D03*
X022909Y010280D03*
X022909Y010269D03*
X022909Y010248D03*
X022909Y010237D03*
X022909Y010226D03*
X022909Y010215D03*
X022909Y010193D03*
X022909Y010182D03*
X022909Y010171D03*
X022909Y010149D03*
X022909Y010138D03*
X022909Y010127D03*
X022909Y010116D03*
X022909Y010094D03*
X022909Y010083D03*
X022909Y010073D03*
X022909Y010051D03*
X022909Y010040D03*
X022909Y010029D03*
X022909Y010018D03*
X022909Y009996D03*
X022909Y009985D03*
X022909Y009974D03*
X022909Y009952D03*
X022909Y009941D03*
X022909Y009930D03*
X022909Y009919D03*
X021662Y011954D03*
X022122Y012708D03*
X022909Y013583D03*
X022909Y013594D03*
X020689Y013200D03*
X020678Y012314D03*
X020142Y012402D03*
X020142Y012413D03*
X016610Y012413D03*
X016610Y012402D03*
X016610Y012391D03*
X016610Y012369D03*
X016610Y012358D03*
X016610Y012347D03*
X016610Y012336D03*
X016610Y012314D03*
X016610Y012304D03*
X016610Y012293D03*
X016610Y012271D03*
X016610Y012260D03*
X016610Y012249D03*
X016610Y012238D03*
X016610Y012216D03*
X016610Y012205D03*
X016610Y012194D03*
X016610Y012172D03*
X016610Y012161D03*
X016610Y012150D03*
X016610Y012139D03*
X016610Y012118D03*
X016610Y012107D03*
X016610Y012096D03*
X016610Y012074D03*
X016610Y012063D03*
X016610Y012052D03*
X016610Y012041D03*
X016610Y012019D03*
X016610Y012008D03*
X016610Y011997D03*
X016610Y011975D03*
X016610Y011964D03*
X016610Y011954D03*
X016610Y011943D03*
X016610Y011921D03*
X016610Y011910D03*
X016610Y011899D03*
X016610Y011877D03*
X016610Y011866D03*
X016610Y011855D03*
X016610Y011844D03*
X016610Y011822D03*
X016610Y011811D03*
X016610Y011800D03*
X016610Y011779D03*
X016610Y011768D03*
X016610Y011757D03*
X016610Y011746D03*
X016610Y011724D03*
X016610Y011713D03*
X016610Y011702D03*
X016610Y011680D03*
X016610Y011669D03*
X016610Y011658D03*
X016610Y011647D03*
X016610Y011625D03*
X016610Y011615D03*
X016610Y011604D03*
X016610Y011582D03*
X016610Y011571D03*
X016610Y011560D03*
X016610Y011549D03*
X016610Y011527D03*
X016610Y011516D03*
X016610Y011505D03*
X016610Y011483D03*
X016610Y011472D03*
X016610Y011461D03*
X016610Y011450D03*
X016610Y011429D03*
X016610Y011418D03*
X016610Y011407D03*
X016610Y011385D03*
X016610Y011374D03*
X016610Y011363D03*
X016610Y011352D03*
X016610Y011330D03*
X016610Y011319D03*
X016610Y011308D03*
X016610Y011286D03*
X016610Y011276D03*
X016610Y011265D03*
X016610Y011254D03*
X016610Y011232D03*
X016610Y011221D03*
X016610Y011210D03*
X016610Y011188D03*
X016610Y011177D03*
X016610Y011166D03*
X016610Y011155D03*
X016610Y011133D03*
X016610Y011122D03*
X016610Y011111D03*
X016610Y011090D03*
X016610Y011079D03*
X016610Y011068D03*
X016610Y011057D03*
X016610Y011035D03*
X016610Y011024D03*
X016610Y011013D03*
X016610Y011002D03*
X016610Y010980D03*
X016610Y010969D03*
X016610Y010958D03*
X016610Y010936D03*
X016610Y010926D03*
X016610Y010915D03*
X016610Y010904D03*
X016610Y010882D03*
X016610Y010871D03*
X016610Y010860D03*
X016610Y010838D03*
X016610Y010827D03*
X016610Y010816D03*
X016610Y010805D03*
X016610Y010783D03*
X016610Y010772D03*
X016610Y010761D03*
X016610Y010740D03*
X016610Y010729D03*
X016610Y010718D03*
X016610Y010707D03*
X016610Y010685D03*
X016610Y010674D03*
X016610Y010663D03*
X016610Y010641D03*
X016610Y010630D03*
X016610Y010619D03*
X016610Y010608D03*
X016610Y010587D03*
X016610Y010576D03*
X016610Y010565D03*
X016610Y010543D03*
X016610Y010532D03*
X016610Y010521D03*
X016610Y010499D03*
X016610Y010488D03*
X016610Y010477D03*
X016610Y010466D03*
X016610Y010444D03*
X016610Y010433D03*
X016610Y010422D03*
X016610Y010401D03*
X016610Y010390D03*
X016610Y010379D03*
X016610Y010368D03*
X016610Y010346D03*
X016610Y010335D03*
X016610Y010324D03*
X016610Y010302D03*
X016610Y010291D03*
X016610Y010280D03*
X016610Y010269D03*
X016610Y010248D03*
X016610Y010237D03*
X016610Y010226D03*
X016610Y010204D03*
X016610Y010193D03*
X016610Y010182D03*
X016610Y010171D03*
X016610Y010149D03*
X016610Y010138D03*
X016610Y010127D03*
X016610Y010105D03*
X016610Y010094D03*
X016610Y010083D03*
X016610Y010073D03*
X016610Y010051D03*
X016610Y010040D03*
X016610Y010029D03*
X016610Y010018D03*
X016610Y009996D03*
X016610Y009985D03*
X016610Y009974D03*
X016610Y009952D03*
X016610Y009941D03*
X016610Y009930D03*
X016610Y009919D03*
X016610Y012435D03*
X016610Y012446D03*
X016610Y012457D03*
X016610Y012468D03*
X016610Y012489D03*
X016610Y012500D03*
X016610Y012511D03*
X016610Y012533D03*
X016610Y012544D03*
X016610Y012555D03*
X016610Y012566D03*
X016610Y012588D03*
X016610Y012599D03*
X016610Y012610D03*
X016610Y012632D03*
X016610Y012643D03*
X016610Y012653D03*
X016610Y012664D03*
X016610Y012686D03*
X016610Y012697D03*
X016610Y012708D03*
X016610Y012730D03*
X016610Y012741D03*
X016610Y012752D03*
X016610Y012763D03*
X016610Y012785D03*
X016610Y012796D03*
X016610Y012807D03*
X016610Y012828D03*
X016610Y012839D03*
X016610Y012850D03*
X016610Y012861D03*
X016610Y012883D03*
X016610Y012894D03*
X016610Y012905D03*
X016610Y012927D03*
X016610Y012938D03*
X016610Y012949D03*
X016610Y012960D03*
X016610Y012982D03*
X016610Y012992D03*
X016610Y013003D03*
X016610Y013025D03*
X016610Y013036D03*
X016610Y013047D03*
X016610Y013058D03*
X016610Y013080D03*
X016610Y013091D03*
X016610Y013102D03*
X016610Y013124D03*
X016610Y013135D03*
X016610Y013146D03*
X016610Y013157D03*
X016610Y013178D03*
X016610Y013189D03*
X016610Y013200D03*
X016610Y013222D03*
X016610Y013233D03*
X016610Y013244D03*
X016610Y013255D03*
X016610Y013277D03*
X016610Y013288D03*
X016610Y013299D03*
X016610Y013321D03*
X016610Y013331D03*
X016610Y013342D03*
X016610Y013353D03*
X016610Y013375D03*
X016610Y013386D03*
X016610Y013397D03*
X016610Y013419D03*
X016610Y013430D03*
X016610Y013441D03*
X016610Y013452D03*
X016610Y013474D03*
X016610Y013485D03*
X016610Y013496D03*
X016610Y013517D03*
X016610Y013528D03*
X016610Y013539D03*
X016610Y013550D03*
X016610Y013572D03*
X016610Y013583D03*
X016610Y013594D03*
X016205Y012883D03*
X014248Y012861D03*
X010311Y012861D03*
X010311Y012850D03*
X010311Y012839D03*
X010311Y012828D03*
X010311Y012807D03*
X010311Y012796D03*
X010311Y012785D03*
X010311Y012763D03*
X010311Y012752D03*
X010311Y012741D03*
X010311Y012730D03*
X010311Y012708D03*
X010311Y012697D03*
X010311Y012686D03*
X010311Y012664D03*
X010311Y012653D03*
X010311Y012643D03*
X010311Y012632D03*
X010311Y012610D03*
X010311Y012599D03*
X010311Y012588D03*
X010311Y012566D03*
X010311Y012555D03*
X010311Y012544D03*
X010311Y012533D03*
X010311Y012511D03*
X010311Y012500D03*
X010311Y012489D03*
X010311Y012468D03*
X010311Y012457D03*
X010311Y012446D03*
X010311Y012435D03*
X010311Y012413D03*
X010311Y012402D03*
X010311Y012391D03*
X010311Y012369D03*
X010311Y012358D03*
X010311Y012347D03*
X010311Y012336D03*
X010311Y012314D03*
X010311Y012304D03*
X010311Y012293D03*
X010311Y012271D03*
X010311Y012260D03*
X010311Y012249D03*
X010311Y012238D03*
X010311Y012216D03*
X010311Y012205D03*
X010311Y012194D03*
X010311Y012172D03*
X010311Y012161D03*
X010311Y012150D03*
X010311Y012139D03*
X010311Y012118D03*
X010311Y012107D03*
X010311Y012096D03*
X010311Y012074D03*
X010311Y012063D03*
X010311Y012052D03*
X010311Y012041D03*
X010311Y012019D03*
X010311Y012008D03*
X010311Y011997D03*
X010311Y011975D03*
X010311Y011964D03*
X010311Y011954D03*
X010311Y011943D03*
X010311Y011921D03*
X010311Y011910D03*
X010311Y011899D03*
X010311Y011877D03*
X010311Y011866D03*
X010311Y011855D03*
X010311Y011844D03*
X010311Y011822D03*
X010311Y011811D03*
X010311Y011800D03*
X010311Y011779D03*
X010311Y011768D03*
X010311Y011757D03*
X010311Y011746D03*
X010311Y011724D03*
X010311Y011713D03*
X010311Y011702D03*
X010311Y011680D03*
X010311Y011669D03*
X010311Y011658D03*
X010311Y011647D03*
X010311Y011625D03*
X010311Y011615D03*
X010311Y011604D03*
X010311Y011582D03*
X010311Y011571D03*
X010311Y011560D03*
X010311Y011549D03*
X010311Y011527D03*
X010311Y011516D03*
X010311Y011505D03*
X010311Y011483D03*
X010311Y011472D03*
X010311Y011461D03*
X010311Y011450D03*
X010311Y011429D03*
X010311Y011418D03*
X010311Y011407D03*
X010311Y011385D03*
X010311Y011374D03*
X010311Y011363D03*
X010311Y011352D03*
X010311Y011330D03*
X010311Y011319D03*
X010311Y011308D03*
X010311Y011286D03*
X010311Y011276D03*
X010311Y011265D03*
X010311Y011254D03*
X010311Y011232D03*
X010311Y011221D03*
X010311Y011210D03*
X010311Y011188D03*
X010311Y011177D03*
X010311Y011166D03*
X010311Y011155D03*
X010311Y011133D03*
X010311Y011122D03*
X010311Y011111D03*
X010311Y011090D03*
X010311Y011079D03*
X010311Y011068D03*
X010311Y011057D03*
X010311Y011035D03*
X010311Y011024D03*
X010311Y011013D03*
X010311Y011002D03*
X010311Y010980D03*
X010311Y010969D03*
X010311Y010958D03*
X010311Y010936D03*
X010311Y010926D03*
X010311Y010915D03*
X010311Y010904D03*
X010311Y010882D03*
X010311Y010871D03*
X010311Y010860D03*
X010311Y010838D03*
X010311Y010827D03*
X010311Y010816D03*
X010311Y010805D03*
X010311Y010783D03*
X010311Y010772D03*
X010311Y010761D03*
X010311Y010740D03*
X010311Y010729D03*
X010311Y010718D03*
X010311Y010707D03*
X010311Y010685D03*
X010311Y010674D03*
X010311Y010663D03*
X010311Y010641D03*
X010311Y010630D03*
X010311Y010619D03*
X010311Y010608D03*
X010311Y010587D03*
X010311Y010576D03*
X010311Y010565D03*
X010311Y010543D03*
X010311Y010532D03*
X010311Y010521D03*
X010311Y010499D03*
X010311Y010488D03*
X010311Y010477D03*
X010311Y010466D03*
X010311Y010444D03*
X010311Y010433D03*
X010311Y010422D03*
X010311Y010401D03*
X010311Y010390D03*
X010311Y010379D03*
X010311Y010368D03*
X010311Y010346D03*
X010311Y010335D03*
X010311Y010324D03*
X010311Y010302D03*
X010311Y010291D03*
X010311Y010280D03*
X010311Y010269D03*
X010311Y010248D03*
X010311Y010237D03*
X010311Y010226D03*
X010311Y010204D03*
X010311Y010193D03*
X010311Y010182D03*
X010311Y010171D03*
X010311Y010149D03*
X010311Y010138D03*
X010311Y010127D03*
X010311Y010105D03*
X010311Y010094D03*
X010311Y010083D03*
X010311Y010073D03*
X010311Y010051D03*
X010311Y010040D03*
X010311Y010029D03*
X010311Y010018D03*
X010311Y009996D03*
X010311Y009985D03*
X010311Y009974D03*
X010311Y009952D03*
X010311Y009941D03*
X010311Y009930D03*
X010311Y009919D03*
X010311Y012883D03*
X010311Y012894D03*
X010311Y012905D03*
X010311Y012927D03*
X010311Y012938D03*
X010311Y012949D03*
X010311Y012960D03*
X010311Y012982D03*
X010311Y012992D03*
X010311Y013003D03*
X010311Y013025D03*
X010311Y013036D03*
X010311Y013047D03*
X010311Y013058D03*
X010311Y013080D03*
X010311Y013091D03*
X010311Y013102D03*
X010311Y013124D03*
X010311Y013135D03*
X010311Y013146D03*
X010311Y013157D03*
X010311Y013178D03*
X010311Y013189D03*
X010311Y013200D03*
X010311Y013222D03*
X010311Y013233D03*
X010311Y013244D03*
X010311Y013255D03*
X010311Y013277D03*
X010311Y013288D03*
X010311Y013299D03*
X010311Y013321D03*
X010311Y013331D03*
X010311Y013342D03*
X010311Y013353D03*
X010311Y013375D03*
X010311Y013386D03*
X010311Y013397D03*
X010311Y013419D03*
X010311Y013430D03*
X010311Y013441D03*
X010311Y013452D03*
X010311Y013474D03*
X010311Y013485D03*
X010311Y013496D03*
X010311Y013517D03*
X010311Y013528D03*
X010311Y013539D03*
X010311Y013550D03*
X010311Y013572D03*
X010311Y013583D03*
X010311Y013594D03*
X029208Y013594D03*
X029208Y013583D03*
X029208Y013572D03*
X029208Y013550D03*
X029208Y013539D03*
X029208Y013528D03*
X029208Y013517D03*
X029208Y013496D03*
X029208Y013485D03*
X029208Y013474D03*
X029208Y013452D03*
X029208Y013441D03*
X029208Y013430D03*
X029208Y013419D03*
X029208Y013397D03*
X029208Y013386D03*
X029208Y013375D03*
X029208Y013353D03*
X029208Y013342D03*
X029208Y013331D03*
X029208Y013321D03*
X029208Y013299D03*
X029208Y013288D03*
X029208Y013277D03*
X029208Y013255D03*
X029208Y013244D03*
X029208Y013233D03*
X029208Y013222D03*
X029208Y013200D03*
X029208Y013189D03*
X029208Y013178D03*
X029208Y013157D03*
X029208Y013146D03*
X029208Y013135D03*
X029208Y013124D03*
X029208Y013102D03*
X029208Y013091D03*
X029208Y013080D03*
X029208Y013058D03*
X029208Y013047D03*
X029208Y013036D03*
X029208Y013025D03*
X029208Y013003D03*
X029208Y012992D03*
X029208Y012982D03*
X029208Y012960D03*
X029208Y012949D03*
X029208Y012938D03*
X029208Y012927D03*
X029208Y012905D03*
X029208Y012894D03*
X029208Y012883D03*
X029208Y012861D03*
X029208Y012850D03*
X029208Y012839D03*
X029208Y012828D03*
X029208Y012807D03*
X029208Y012796D03*
X029208Y012785D03*
X029208Y012763D03*
X029208Y012752D03*
X029208Y012741D03*
X029208Y012730D03*
X029208Y012708D03*
X029208Y012697D03*
X029208Y012686D03*
X029208Y012664D03*
X029208Y012653D03*
X029208Y012643D03*
X029208Y012632D03*
X029208Y012610D03*
X029208Y012599D03*
X029208Y012588D03*
X029208Y012566D03*
X029208Y012555D03*
X029208Y012544D03*
X029208Y012533D03*
X029208Y012511D03*
X029208Y012500D03*
X029208Y012489D03*
X029208Y012468D03*
X029208Y012457D03*
X029208Y012446D03*
X029208Y012435D03*
X029208Y012413D03*
X029208Y012402D03*
X029208Y012391D03*
X029208Y012369D03*
X029208Y012358D03*
X029208Y012347D03*
X029208Y012336D03*
X029208Y012314D03*
X029208Y012304D03*
X029208Y012293D03*
X029208Y012271D03*
X029208Y012260D03*
X029208Y012249D03*
X029208Y012238D03*
X029208Y012216D03*
X029208Y012205D03*
X029208Y012194D03*
X029208Y012172D03*
X029208Y012161D03*
X029208Y012150D03*
X029208Y012139D03*
X029208Y012118D03*
X029208Y012107D03*
X029208Y012096D03*
X029208Y012074D03*
X029208Y012063D03*
X029208Y012052D03*
X029208Y012041D03*
X029208Y012019D03*
X029208Y012008D03*
X029208Y011997D03*
X029208Y011975D03*
X029208Y011964D03*
X029208Y011954D03*
X029208Y011943D03*
X029208Y011921D03*
X029208Y011910D03*
X029208Y011899D03*
X029208Y011877D03*
X029208Y011866D03*
X029208Y011855D03*
X029208Y011844D03*
X029208Y011822D03*
X029208Y011811D03*
X029208Y011800D03*
X029208Y011779D03*
X029208Y011768D03*
X029208Y011757D03*
X029208Y011746D03*
X029208Y011724D03*
X029208Y011713D03*
X029208Y011702D03*
X029208Y011680D03*
X029208Y011669D03*
X029208Y011658D03*
X029208Y011647D03*
X029208Y011625D03*
X029208Y011615D03*
X029208Y011604D03*
X029208Y011582D03*
X029208Y011571D03*
X029208Y011560D03*
X029208Y011549D03*
X029208Y011527D03*
X029208Y011516D03*
X029208Y011505D03*
X029208Y011483D03*
X029208Y011472D03*
X029208Y011461D03*
X029208Y011450D03*
X029208Y011429D03*
X029208Y011418D03*
X029208Y011407D03*
X029208Y011385D03*
X029208Y011374D03*
X029208Y011363D03*
X029208Y011352D03*
X029208Y011330D03*
X029208Y011319D03*
X029208Y011308D03*
X029208Y011286D03*
X029208Y011276D03*
X029208Y011265D03*
X029208Y011254D03*
X029208Y011232D03*
X029208Y011221D03*
X029208Y011210D03*
X029208Y011188D03*
X029208Y011177D03*
X029208Y011166D03*
X029208Y011155D03*
X029208Y011133D03*
X029208Y011122D03*
X029208Y011111D03*
X029208Y011090D03*
X029208Y011079D03*
X029208Y011068D03*
X029208Y011057D03*
X029208Y011035D03*
X029208Y011024D03*
X029208Y011013D03*
X029208Y011002D03*
X029208Y010980D03*
X029208Y010969D03*
X029208Y010958D03*
X029208Y010936D03*
X029208Y010926D03*
X029208Y010915D03*
X029208Y010904D03*
X029208Y010882D03*
X029208Y010871D03*
X029208Y010860D03*
X029208Y010838D03*
X029208Y010827D03*
X029208Y010816D03*
X029208Y010805D03*
X029208Y010783D03*
X029208Y010772D03*
X029208Y010761D03*
X029208Y010740D03*
X029208Y010729D03*
X029208Y010718D03*
X029208Y010707D03*
X029208Y010685D03*
X029208Y010674D03*
X029208Y010663D03*
X029208Y010641D03*
X029208Y010630D03*
X029208Y010619D03*
X029208Y010608D03*
X029208Y010587D03*
X029208Y010576D03*
X029208Y010565D03*
X029208Y010543D03*
X029208Y010532D03*
X029208Y010521D03*
X029208Y010499D03*
X029208Y010488D03*
X029208Y010477D03*
X029208Y010466D03*
X029208Y010444D03*
X029208Y010433D03*
X029208Y010422D03*
X029208Y010401D03*
X029208Y010390D03*
X029208Y010379D03*
X029208Y010368D03*
X029208Y010346D03*
X029208Y010335D03*
X029208Y010324D03*
X029208Y010302D03*
X029208Y010291D03*
X029208Y010280D03*
X029208Y010269D03*
X029208Y010248D03*
X029208Y010237D03*
X029208Y010226D03*
X029208Y010204D03*
X029208Y010193D03*
X029208Y010182D03*
X029208Y010171D03*
X029208Y010149D03*
X029208Y010138D03*
X029208Y010127D03*
X029208Y010105D03*
X029208Y010094D03*
X029208Y010083D03*
X029208Y010073D03*
X029208Y010051D03*
X029208Y010040D03*
X029208Y010029D03*
X029208Y010018D03*
X029208Y009996D03*
X029208Y009985D03*
X029208Y009974D03*
X029208Y009952D03*
X029208Y009941D03*
X029208Y009930D03*
X029208Y009919D03*
D19*
X021329Y010466D03*
X021329Y010477D03*
X008402Y010379D03*
D20*
X008408Y010390D03*
X008408Y010401D03*
D21*
X008402Y010412D03*
D22*
X008408Y010422D03*
X007752Y012074D03*
D23*
X007768Y012063D03*
X008402Y010433D03*
X027037Y013353D03*
D24*
X008408Y010444D03*
D25*
X008408Y010455D03*
D26*
X008402Y010466D03*
X007779Y012052D03*
D27*
X008408Y010488D03*
X008408Y010477D03*
D28*
X008408Y010499D03*
D29*
X008408Y010510D03*
D30*
X008402Y010521D03*
D31*
X008408Y010532D03*
X008408Y010543D03*
D32*
X008408Y010554D03*
X009250Y012719D03*
X009315Y012818D03*
D33*
X009326Y012828D03*
X009304Y012796D03*
X009283Y012763D03*
X009261Y012730D03*
X007839Y012008D03*
X008408Y010565D03*
X027043Y013331D03*
D34*
X021001Y012008D03*
X021001Y011997D03*
X009332Y012839D03*
X009244Y012708D03*
X009233Y012697D03*
X008402Y010576D03*
D35*
X008408Y010587D03*
X009337Y012850D03*
D36*
X007861Y011986D03*
X008408Y010597D03*
D37*
X008408Y010608D03*
X008408Y010619D03*
X007522Y012807D03*
D38*
X007505Y012839D03*
X007495Y012850D03*
X007877Y011964D03*
X009157Y012555D03*
X008402Y010630D03*
D39*
X008408Y010641D03*
D40*
X008408Y010652D03*
D41*
X008402Y010663D03*
X009354Y012883D03*
D42*
X007916Y011921D03*
X008408Y010685D03*
X008408Y010674D03*
X020995Y011954D03*
D43*
X008408Y010696D03*
X008211Y011199D03*
D44*
X008211Y011210D03*
X008200Y011221D03*
X008200Y011232D03*
X008211Y011188D03*
X008222Y011177D03*
X008222Y011166D03*
X008244Y011111D03*
X008255Y011090D03*
X008255Y011079D03*
X008266Y011057D03*
X008276Y011024D03*
X008178Y011286D03*
X008167Y011308D03*
X008167Y011319D03*
X007970Y011822D03*
X007959Y011844D03*
X007948Y011866D03*
X007653Y012632D03*
X008408Y010707D03*
D45*
X008402Y010718D03*
X008162Y011330D03*
X007976Y011800D03*
X007976Y011811D03*
X007954Y011855D03*
X007473Y012894D03*
D46*
X008408Y010740D03*
X008408Y010729D03*
D47*
X008408Y010751D03*
D48*
X008408Y010761D03*
D49*
X008402Y010772D03*
D50*
X008408Y010783D03*
X007708Y012566D03*
D51*
X007467Y012916D03*
X008408Y010794D03*
D52*
X008408Y010805D03*
X008408Y010816D03*
X007730Y012533D03*
X027043Y013277D03*
D53*
X027267Y011516D03*
X008402Y010827D03*
X007768Y012468D03*
X007757Y012489D03*
D54*
X007773Y012457D03*
X007773Y012446D03*
X008408Y010838D03*
D55*
X008408Y010849D03*
X007762Y012478D03*
D56*
X008408Y010871D03*
X008408Y010860D03*
D57*
X008402Y010882D03*
X007462Y012927D03*
D58*
X008408Y010893D03*
D59*
X008408Y010904D03*
D60*
X008402Y010915D03*
X027212Y011549D03*
D61*
X008408Y010926D03*
D62*
X008402Y010936D03*
X027201Y011560D03*
D63*
X008408Y010947D03*
D64*
X008408Y010958D03*
D65*
X008402Y010969D03*
X027169Y011582D03*
D66*
X008408Y010980D03*
D67*
X008408Y010991D03*
D68*
X008408Y011002D03*
X008408Y011013D03*
X021105Y011910D03*
D69*
X020760Y012107D03*
X014166Y012730D03*
X008949Y011024D03*
D70*
X008271Y011035D03*
X008260Y011068D03*
X008238Y011122D03*
X008227Y011155D03*
X007943Y011877D03*
X007932Y011899D03*
X007921Y011910D03*
X007637Y012653D03*
X007626Y012664D03*
X007484Y012883D03*
X009354Y012894D03*
X021001Y011943D03*
D71*
X021301Y012489D03*
X014171Y012741D03*
X014215Y010882D03*
X008955Y011035D03*
X008758Y012413D03*
D72*
X007932Y011888D03*
X008249Y011101D03*
X008271Y011046D03*
D73*
X008955Y011046D03*
X014160Y012719D03*
X020164Y012325D03*
D74*
X020175Y012304D03*
X020700Y013102D03*
X021301Y012533D03*
X021761Y012019D03*
X026135Y012358D03*
X026135Y012369D03*
X026135Y012391D03*
X026135Y012402D03*
X026135Y012413D03*
X026135Y012435D03*
X026135Y012446D03*
X026135Y012457D03*
X026135Y012468D03*
X026135Y012489D03*
X026135Y012500D03*
X026135Y012511D03*
X026135Y012533D03*
X026135Y012544D03*
X026157Y012643D03*
X026157Y012653D03*
X026157Y012249D03*
X027929Y012249D03*
X027929Y012260D03*
X027940Y012304D03*
X027940Y012314D03*
X027940Y012336D03*
X027951Y012369D03*
X027951Y012391D03*
X027951Y012402D03*
X027951Y012413D03*
X027951Y012435D03*
X027951Y012446D03*
X027951Y012457D03*
X027951Y012468D03*
X027951Y012489D03*
X027951Y012500D03*
X027951Y012511D03*
X027951Y012533D03*
X027940Y012566D03*
X027940Y012588D03*
X027940Y012599D03*
X027929Y012632D03*
X027929Y012643D03*
X016096Y012730D03*
X016085Y012708D03*
X016074Y012697D03*
X016074Y012686D03*
X014116Y012653D03*
X014105Y012632D03*
X014084Y012588D03*
X013187Y012850D03*
X014259Y010980D03*
X014248Y010958D03*
X016151Y010871D03*
X016172Y010915D03*
X008955Y011057D03*
X008955Y011068D03*
X008955Y011079D03*
X008933Y011910D03*
D75*
X008944Y011921D03*
X009239Y011844D03*
X009239Y011822D03*
X009217Y011768D03*
X009206Y011746D03*
X009195Y011724D03*
X009184Y011702D03*
X008955Y011111D03*
X008955Y011090D03*
X013132Y010674D03*
X014269Y011002D03*
X014269Y011013D03*
X014051Y012500D03*
X014051Y012511D03*
X014062Y012533D03*
X013176Y012828D03*
X015112Y012861D03*
X015997Y012544D03*
X015997Y012533D03*
X015986Y012511D03*
X015986Y012500D03*
X016008Y012555D03*
X016008Y012566D03*
X016030Y012610D03*
X016041Y012632D03*
X016194Y010958D03*
X016183Y010936D03*
X020284Y011702D03*
X020503Y010980D03*
X021345Y010816D03*
X020700Y012435D03*
X020700Y012446D03*
X020700Y012457D03*
X021301Y012544D03*
X021301Y012555D03*
X026190Y012752D03*
X026190Y012763D03*
X026212Y012807D03*
X026223Y012828D03*
X026234Y012850D03*
X026179Y012172D03*
X026190Y012139D03*
X026212Y012096D03*
X026223Y012074D03*
X026223Y012063D03*
X027852Y012052D03*
X027863Y012074D03*
X027885Y012118D03*
X027896Y012139D03*
X027896Y012150D03*
X027896Y012752D03*
X027885Y012785D03*
X027863Y012828D03*
X027852Y012850D03*
D76*
X027863Y012818D03*
X027885Y012774D03*
X027907Y012719D03*
X027841Y012030D03*
X026212Y012085D03*
X021301Y012566D03*
X020306Y011680D03*
X009239Y011833D03*
X008955Y011101D03*
D77*
X008955Y011122D03*
X008955Y011133D03*
X008462Y011418D03*
X009151Y011647D03*
X014018Y012391D03*
X015101Y012839D03*
X015943Y012336D03*
X015943Y012314D03*
X015057Y010685D03*
X020262Y011724D03*
X020766Y012085D03*
X020711Y012511D03*
X020711Y012533D03*
X021356Y010805D03*
X026277Y011975D03*
X026266Y012905D03*
X026277Y012927D03*
X027797Y012938D03*
X027797Y011964D03*
X027797Y011954D03*
D78*
X008233Y011133D03*
X008189Y011254D03*
X008189Y011265D03*
X007642Y012643D03*
D79*
X008233Y011144D03*
D80*
X008955Y011144D03*
X013154Y011144D03*
X013154Y011101D03*
X013154Y011046D03*
X013154Y010991D03*
X013154Y010947D03*
X013154Y010893D03*
X013154Y010849D03*
X013154Y010794D03*
X013154Y011199D03*
X013154Y011243D03*
X013154Y011297D03*
X013154Y011341D03*
X013154Y011396D03*
X013154Y011440D03*
X013154Y011494D03*
X013154Y011538D03*
X013154Y011593D03*
X013154Y011636D03*
X013154Y011691D03*
X013154Y011735D03*
X013154Y011790D03*
X013154Y011833D03*
X013154Y011888D03*
X013154Y011932D03*
X013154Y011986D03*
X013154Y012030D03*
X013154Y012085D03*
X013154Y012129D03*
X013154Y012183D03*
X013154Y012227D03*
X013154Y012282D03*
X013154Y012325D03*
X013154Y012380D03*
X013154Y012424D03*
X013154Y012478D03*
X013154Y012522D03*
X013154Y012577D03*
X013154Y012621D03*
X013154Y012675D03*
X013154Y012719D03*
X014007Y012325D03*
X015090Y012818D03*
X014291Y011101D03*
X020689Y013058D03*
X021312Y012664D03*
X021783Y012074D03*
X026343Y011888D03*
X027743Y011888D03*
X027743Y013014D03*
X026343Y013014D03*
D81*
X026354Y013025D03*
X026365Y013036D03*
X027765Y012982D03*
X027754Y011899D03*
X027732Y011877D03*
X027721Y011866D03*
X026354Y011877D03*
X026332Y011899D03*
X021312Y012643D03*
X021312Y012653D03*
X021225Y012139D03*
X020197Y012260D03*
X020689Y013047D03*
X015068Y010707D03*
X014291Y011090D03*
X013154Y011090D03*
X013154Y011079D03*
X013154Y011068D03*
X013154Y011057D03*
X013154Y011035D03*
X013154Y011024D03*
X013154Y011013D03*
X013154Y011002D03*
X013154Y010980D03*
X013154Y010969D03*
X013154Y010958D03*
X013154Y010936D03*
X013154Y010926D03*
X013154Y010915D03*
X013154Y010904D03*
X013154Y010882D03*
X013154Y010871D03*
X013154Y010860D03*
X013154Y010838D03*
X013154Y010827D03*
X013154Y010816D03*
X013154Y010805D03*
X013154Y010783D03*
X013154Y010772D03*
X013154Y010761D03*
X013154Y011111D03*
X013154Y011122D03*
X013154Y011133D03*
X013154Y011155D03*
X013154Y011166D03*
X013154Y011177D03*
X013154Y011188D03*
X013154Y011210D03*
X013154Y011221D03*
X013154Y011232D03*
X013154Y011254D03*
X013154Y011265D03*
X013154Y011276D03*
X013154Y011286D03*
X013154Y011308D03*
X013154Y011319D03*
X013154Y011330D03*
X013154Y011352D03*
X013154Y011363D03*
X013154Y011374D03*
X013154Y011385D03*
X013154Y011407D03*
X013154Y011418D03*
X013154Y011429D03*
X013154Y011450D03*
X013154Y011461D03*
X013154Y011472D03*
X013154Y011483D03*
X013154Y011505D03*
X013154Y011516D03*
X013154Y011527D03*
X013154Y011549D03*
X013154Y011560D03*
X013154Y011571D03*
X013154Y011582D03*
X013154Y011604D03*
X013154Y011615D03*
X013154Y011625D03*
X013154Y011647D03*
X013154Y011658D03*
X013154Y011669D03*
X013154Y011680D03*
X013154Y011702D03*
X013154Y011713D03*
X013154Y011724D03*
X013154Y011746D03*
X013154Y011757D03*
X013154Y011768D03*
X013154Y011779D03*
X013154Y011800D03*
X013154Y011811D03*
X013154Y011822D03*
X013154Y011844D03*
X013154Y011855D03*
X013154Y011866D03*
X013154Y011877D03*
X013154Y011899D03*
X013154Y011910D03*
X013154Y011921D03*
X013154Y011943D03*
X013154Y011954D03*
X013154Y011964D03*
X013154Y011975D03*
X013154Y011997D03*
X013154Y012008D03*
X013154Y012019D03*
X013154Y012041D03*
X013154Y012052D03*
X013154Y012063D03*
X013154Y012074D03*
X013154Y012096D03*
X013154Y012107D03*
X013154Y012118D03*
X013154Y012139D03*
X013154Y012150D03*
X013154Y012161D03*
X013154Y012172D03*
X013154Y012194D03*
X013154Y012205D03*
X013154Y012216D03*
X013154Y012238D03*
X013154Y012249D03*
X013154Y012260D03*
X013154Y012271D03*
X013154Y012293D03*
X013154Y012304D03*
X013154Y012314D03*
X013154Y012336D03*
X013154Y012347D03*
X013154Y012358D03*
X013154Y012369D03*
X013154Y012391D03*
X013154Y012402D03*
X013154Y012413D03*
X013154Y012435D03*
X013154Y012446D03*
X013154Y012457D03*
X013154Y012468D03*
X013154Y012489D03*
X013154Y012500D03*
X013154Y012511D03*
X013154Y012533D03*
X013154Y012544D03*
X013154Y012555D03*
X013154Y012566D03*
X013154Y012588D03*
X013154Y012599D03*
X013154Y012610D03*
X013154Y012632D03*
X013154Y012643D03*
X013154Y012653D03*
X013154Y012664D03*
X013154Y012686D03*
X013154Y012697D03*
X013154Y012708D03*
X013154Y012730D03*
X013154Y012741D03*
X013154Y012752D03*
X013154Y012763D03*
X014007Y012336D03*
X014007Y012314D03*
X014007Y012304D03*
X014007Y012293D03*
X009250Y011910D03*
X009140Y011625D03*
X009130Y011615D03*
X008955Y011166D03*
X008955Y011155D03*
X008790Y012468D03*
D82*
X008801Y012489D03*
X008200Y012391D03*
X009108Y011582D03*
X008955Y011188D03*
X008955Y011177D03*
X014007Y012194D03*
X014007Y012205D03*
X014007Y012216D03*
X014007Y012238D03*
X014007Y012249D03*
X015943Y012172D03*
X015943Y012161D03*
X015943Y012150D03*
X015943Y012139D03*
X016238Y011210D03*
X016238Y011188D03*
X016238Y011177D03*
X020230Y011768D03*
X020711Y012599D03*
X021312Y012675D03*
X021312Y012686D03*
X021804Y012107D03*
X021356Y013178D03*
X026409Y013080D03*
X026409Y011822D03*
D83*
X028251Y010116D03*
X021219Y012129D03*
X020202Y012227D03*
X016233Y011243D03*
X015948Y012085D03*
X008960Y011199D03*
X008468Y011396D03*
D84*
X008960Y011210D03*
X009091Y011560D03*
X009102Y011571D03*
X008818Y012500D03*
X014002Y012172D03*
X014297Y011166D03*
X015948Y012096D03*
X015948Y012107D03*
X015948Y012118D03*
X016233Y011232D03*
X016233Y011221D03*
X020224Y011789D03*
X020224Y011800D03*
X021405Y011177D03*
X020421Y010827D03*
X020421Y010816D03*
X021810Y012118D03*
X021318Y012697D03*
X020716Y012610D03*
X026425Y013091D03*
X026436Y013102D03*
X027650Y013102D03*
X027661Y013091D03*
X027650Y011800D03*
X026414Y011811D03*
D85*
X026430Y011800D03*
X026463Y013124D03*
X027623Y013124D03*
X022012Y012588D03*
X021826Y012150D03*
X021312Y012708D03*
X021356Y013167D03*
X020689Y013025D03*
X020711Y012632D03*
X020766Y012063D03*
X020219Y011822D03*
X020219Y011811D03*
X021367Y010783D03*
X020558Y010237D03*
X016227Y011254D03*
X016227Y011265D03*
X015954Y012041D03*
X015954Y012052D03*
X015954Y012063D03*
X015954Y012074D03*
X014291Y011210D03*
X014291Y011188D03*
X014291Y011177D03*
X014018Y012074D03*
X014018Y012096D03*
X014007Y012118D03*
X014007Y012139D03*
X014007Y012150D03*
X014007Y012161D03*
X009086Y011549D03*
X008955Y011221D03*
X008823Y012511D03*
D86*
X009069Y011516D03*
X009058Y011505D03*
X008960Y011254D03*
X008960Y011232D03*
X008468Y011385D03*
X014012Y012107D03*
X014023Y012063D03*
X014023Y012052D03*
X014023Y012041D03*
X015959Y012019D03*
X015959Y012008D03*
X016222Y011286D03*
X016222Y011276D03*
X020202Y012216D03*
X020716Y012643D03*
X021318Y012730D03*
X020694Y013003D03*
X021219Y012118D03*
X021832Y012161D03*
X021843Y012183D03*
X022007Y012577D03*
X021405Y011199D03*
X020421Y010805D03*
X026458Y011779D03*
X026469Y011768D03*
X027617Y011768D03*
X027606Y013135D03*
X026480Y013135D03*
X028262Y010127D03*
D87*
X008194Y011243D03*
X007987Y011790D03*
D88*
X008960Y011243D03*
X014023Y012030D03*
X015959Y012030D03*
X016222Y011297D03*
X020498Y010991D03*
X021843Y012172D03*
X021318Y012719D03*
X021351Y013157D03*
D89*
X021859Y012205D03*
X026485Y011757D03*
X026496Y013146D03*
X027043Y013419D03*
X016216Y011319D03*
X016216Y011308D03*
X015976Y011943D03*
X015976Y011954D03*
X014280Y011276D03*
X014280Y011265D03*
X014280Y011254D03*
X014040Y011964D03*
X014040Y011975D03*
X008965Y011276D03*
X008965Y011265D03*
D90*
X008184Y011276D03*
X007987Y011779D03*
D91*
X009026Y011450D03*
X009037Y011461D03*
X009015Y011418D03*
X008982Y011330D03*
X008971Y011308D03*
X008971Y011286D03*
X014045Y011943D03*
X014045Y011954D03*
X014056Y011910D03*
X014056Y011899D03*
X014275Y011308D03*
X014275Y011286D03*
X016003Y011844D03*
X016003Y011855D03*
X016014Y011811D03*
X016200Y011363D03*
X016200Y011352D03*
X016211Y011330D03*
X020202Y012194D03*
X020771Y012052D03*
X021219Y012107D03*
X021865Y012216D03*
X021318Y012752D03*
X020694Y012982D03*
X020694Y012992D03*
X021416Y011221D03*
X020432Y010783D03*
X020552Y010248D03*
X021383Y010138D03*
X026502Y011746D03*
X027584Y011746D03*
X027573Y013157D03*
X028262Y010138D03*
D92*
X008173Y011297D03*
X007965Y011833D03*
X007659Y012621D03*
D93*
X009026Y011440D03*
X008971Y011297D03*
X014034Y011986D03*
X014045Y011932D03*
X014275Y011297D03*
X015981Y011932D03*
X021318Y012763D03*
D94*
X021356Y013135D03*
X020700Y012971D03*
X020208Y012183D03*
X021411Y011232D03*
X021378Y010761D03*
X021881Y012238D03*
X027546Y011724D03*
X016194Y011374D03*
X016183Y011407D03*
X016172Y011418D03*
X016085Y011625D03*
X016063Y011680D03*
X016052Y011702D03*
X016052Y011713D03*
X016030Y011757D03*
X016030Y011768D03*
X016019Y011800D03*
X016008Y011822D03*
X015997Y011866D03*
X014269Y011330D03*
X014269Y011319D03*
X014259Y011352D03*
X014259Y011363D03*
X014105Y011746D03*
X014095Y011779D03*
X014084Y011800D03*
X014084Y011811D03*
X014084Y011822D03*
X014073Y011844D03*
X014073Y011855D03*
X014062Y011877D03*
X014051Y011921D03*
X009020Y011429D03*
X009009Y011407D03*
X008987Y011363D03*
X008987Y011352D03*
X008976Y011319D03*
X008462Y011374D03*
D95*
X007932Y011341D03*
X007910Y011396D03*
X009124Y011986D03*
X027989Y010849D03*
X028022Y010794D03*
D96*
X027037Y013408D03*
X020443Y010652D03*
X020530Y010302D03*
X008435Y011341D03*
D97*
X008987Y011341D03*
X014062Y011888D03*
X014073Y011833D03*
X014127Y011691D03*
X014248Y011396D03*
X014269Y011341D03*
X016019Y011790D03*
X016008Y011833D03*
X016183Y011396D03*
X021870Y012227D03*
X026529Y013167D03*
X027557Y013167D03*
X027568Y011735D03*
D98*
X027940Y010926D03*
X027972Y010882D03*
X027972Y010871D03*
X027983Y010860D03*
X027043Y013397D03*
X009162Y012074D03*
X007927Y011352D03*
X007752Y011768D03*
D99*
X007817Y011461D03*
X008451Y011352D03*
X020208Y011986D03*
X020208Y011997D03*
X020208Y012008D03*
X020208Y012019D03*
X020208Y012041D03*
X020208Y012052D03*
X020208Y012063D03*
X021334Y012883D03*
X021334Y012894D03*
X021334Y012905D03*
X021356Y013036D03*
X021356Y013047D03*
X028279Y010182D03*
D100*
X028290Y010280D03*
X028290Y010291D03*
X027994Y010838D03*
X027951Y010915D03*
X007916Y011363D03*
X007916Y011374D03*
D101*
X008457Y011363D03*
X008315Y011768D03*
X007724Y011647D03*
X020213Y011910D03*
X020213Y011921D03*
X020705Y012730D03*
X020705Y012741D03*
X020705Y012752D03*
X021351Y013091D03*
X021952Y012413D03*
X021941Y012391D03*
X021941Y012380D03*
X021930Y012358D03*
X021930Y012347D03*
X026578Y011702D03*
X027508Y011702D03*
X026567Y013189D03*
D102*
X021990Y012544D03*
X021990Y012533D03*
X020711Y012675D03*
X020711Y012686D03*
X020711Y012697D03*
X020219Y011866D03*
X014116Y011713D03*
X008998Y011385D03*
X008998Y011374D03*
D103*
X009113Y011943D03*
X009113Y011954D03*
X009146Y012041D03*
X009157Y012052D03*
X009157Y012063D03*
X007910Y011407D03*
X007910Y011385D03*
X028000Y010827D03*
X028011Y010816D03*
X028011Y010805D03*
X028033Y010772D03*
X028054Y010740D03*
D104*
X015992Y011888D03*
X009004Y011396D03*
D105*
X009124Y011604D03*
X008468Y011407D03*
X014002Y012260D03*
X014002Y012271D03*
X014286Y011111D03*
X020235Y011757D03*
X020246Y011746D03*
X021362Y013189D03*
X026381Y013047D03*
X027715Y013036D03*
X027726Y013025D03*
X027715Y011855D03*
X026381Y011844D03*
X026359Y011866D03*
D106*
X028087Y010685D03*
X028098Y010663D03*
X028153Y010576D03*
X028284Y010324D03*
X020454Y011101D03*
X007910Y011418D03*
D107*
X007866Y011429D03*
X009244Y012194D03*
X020476Y011035D03*
X021362Y010685D03*
X020519Y010346D03*
X027683Y011363D03*
X027705Y011330D03*
X027705Y011319D03*
X027715Y011308D03*
D108*
X008216Y011527D03*
X008205Y011516D03*
X008205Y011505D03*
X008162Y011429D03*
D109*
X008457Y011429D03*
X008249Y012358D03*
X013192Y012861D03*
X014111Y012643D03*
X014122Y012664D03*
X016101Y012741D03*
X016145Y010860D03*
X020170Y012314D03*
X021296Y012500D03*
X021296Y012511D03*
X021405Y011133D03*
X021340Y010827D03*
D110*
X028284Y010215D03*
X009365Y012478D03*
X009266Y012227D03*
X007845Y011440D03*
D111*
X008173Y011440D03*
D112*
X008446Y011440D03*
X008479Y011636D03*
X013094Y010597D03*
X014078Y010696D03*
X014155Y010794D03*
D113*
X009365Y012446D03*
X009365Y012457D03*
X009310Y012304D03*
X007834Y011450D03*
X028284Y010204D03*
D114*
X027043Y013430D03*
X016260Y012960D03*
X008736Y012369D03*
X008178Y011450D03*
D115*
X008441Y011450D03*
X008539Y011527D03*
X008911Y011866D03*
X008276Y012336D03*
X013077Y010565D03*
X013996Y010608D03*
X014007Y010619D03*
X014018Y010630D03*
X014991Y010576D03*
X015965Y010641D03*
X015986Y010663D03*
X015997Y010674D03*
X016008Y010685D03*
X015166Y012949D03*
X014313Y012949D03*
X014302Y012938D03*
X013231Y012927D03*
X020131Y012457D03*
X021280Y012358D03*
X022133Y012730D03*
X021411Y013321D03*
X021411Y013331D03*
X021400Y011122D03*
D116*
X021044Y011232D03*
X020454Y010915D03*
X021285Y012336D03*
X013247Y012960D03*
X008249Y011680D03*
X008249Y011669D03*
X008238Y011615D03*
X008238Y011604D03*
X008227Y011571D03*
X008227Y011560D03*
X008194Y011483D03*
X008194Y011472D03*
X008184Y011461D03*
D117*
X007801Y011472D03*
X007724Y011669D03*
X007724Y011680D03*
X020202Y012085D03*
X020202Y012096D03*
X020202Y012107D03*
X020202Y012118D03*
X020705Y012774D03*
X020705Y012785D03*
X020705Y012796D03*
X020705Y012807D03*
X020705Y012828D03*
X020705Y012839D03*
X020705Y012850D03*
X020705Y012872D03*
X021329Y012872D03*
X021329Y012850D03*
X021351Y013069D03*
X021416Y011276D03*
X020432Y010707D03*
X020541Y010280D03*
D118*
X021411Y011210D03*
X020219Y011844D03*
X020208Y012205D03*
X020711Y012653D03*
X021312Y012741D03*
X021356Y013146D03*
X021848Y012194D03*
X027601Y011757D03*
X027590Y013146D03*
X015986Y011921D03*
X015986Y011910D03*
X014029Y011997D03*
X014029Y012008D03*
X014029Y012019D03*
X009042Y011472D03*
D119*
X007795Y011483D03*
X020437Y010729D03*
X020437Y010718D03*
X021378Y010740D03*
X021969Y012446D03*
X021969Y012457D03*
X021323Y012828D03*
X021323Y012839D03*
D120*
X021996Y012555D03*
X020213Y011855D03*
X016189Y011385D03*
X015992Y011877D03*
X015992Y011899D03*
X014067Y011866D03*
X009047Y011483D03*
X008851Y012533D03*
X026512Y013157D03*
D121*
X021930Y012369D03*
X020705Y012916D03*
X020213Y011932D03*
X007779Y011494D03*
X007724Y011636D03*
D122*
X008205Y011494D03*
X008216Y011538D03*
D123*
X009053Y011494D03*
X020219Y011833D03*
X020711Y012664D03*
X022001Y012566D03*
X020427Y010794D03*
D124*
X020219Y011899D03*
X021356Y013102D03*
X021892Y012260D03*
X014171Y011582D03*
X007773Y011505D03*
X007762Y011527D03*
D125*
X008583Y011505D03*
D126*
X007768Y011516D03*
X014166Y011604D03*
X016090Y011604D03*
X016090Y011615D03*
X020957Y011265D03*
X021351Y013124D03*
D127*
X021422Y013364D03*
X020131Y012478D03*
X008561Y011516D03*
X008233Y011582D03*
X008222Y011549D03*
X008244Y011625D03*
X008244Y011647D03*
X008244Y011658D03*
X008255Y011702D03*
X008255Y011713D03*
X008255Y011724D03*
D128*
X009075Y011527D03*
D129*
X007757Y011538D03*
X007735Y011593D03*
X014089Y011790D03*
X014111Y011735D03*
X014144Y011636D03*
X014187Y011538D03*
X014209Y011494D03*
X014231Y011440D03*
X016058Y011691D03*
X016079Y011636D03*
X016101Y011593D03*
X016123Y011538D03*
X016145Y011494D03*
X016167Y011440D03*
X020213Y011877D03*
X020202Y012172D03*
X020694Y012960D03*
X021985Y012522D03*
X021416Y011243D03*
D130*
X009075Y011538D03*
D131*
X007752Y011549D03*
X007741Y011582D03*
X007730Y011604D03*
X007730Y011615D03*
X007730Y011625D03*
X008867Y012544D03*
X014182Y011560D03*
X014193Y011527D03*
X014204Y011505D03*
X014226Y011450D03*
X020208Y012161D03*
X020700Y012927D03*
X020700Y012938D03*
X020700Y012949D03*
X021323Y012807D03*
X021323Y012796D03*
X021979Y012500D03*
X021903Y012282D03*
X021411Y011254D03*
X026551Y011713D03*
X027524Y011713D03*
D132*
X021296Y012435D03*
X021296Y012446D03*
X021394Y013266D03*
X016189Y012861D03*
X015150Y012927D03*
X014166Y010805D03*
X014067Y010685D03*
X015008Y010608D03*
X016090Y010772D03*
X016090Y010783D03*
X008512Y011549D03*
X008501Y011571D03*
X008457Y011702D03*
D133*
X007746Y011571D03*
X007746Y011560D03*
X014100Y011757D03*
X014100Y011768D03*
X014111Y011724D03*
X014122Y011702D03*
X014133Y011680D03*
X014133Y011669D03*
X014144Y011658D03*
X014144Y011647D03*
X014155Y011625D03*
X014155Y011615D03*
X014177Y011571D03*
X014187Y011549D03*
X014198Y011516D03*
X014209Y011483D03*
X014220Y011472D03*
X014220Y011461D03*
X014231Y011429D03*
X014242Y011418D03*
X014242Y011407D03*
X014253Y011385D03*
X014253Y011374D03*
X016025Y011779D03*
X016036Y011746D03*
X016047Y011724D03*
X016068Y011669D03*
X016068Y011658D03*
X016079Y011647D03*
X016101Y011582D03*
X016112Y011571D03*
X016112Y011560D03*
X016123Y011549D03*
X016123Y011527D03*
X016134Y011516D03*
X016134Y011505D03*
X016145Y011483D03*
X016156Y011472D03*
X016156Y011461D03*
X016156Y011450D03*
X016167Y011429D03*
X020213Y011888D03*
X020705Y012708D03*
X021318Y012774D03*
X021318Y012785D03*
X021985Y012511D03*
X021887Y012249D03*
X021219Y012096D03*
X020432Y010772D03*
X020432Y010761D03*
X026534Y011724D03*
X026545Y013178D03*
X027540Y013178D03*
X028273Y010149D03*
D134*
X008506Y011560D03*
D135*
X008495Y011582D03*
X008484Y011615D03*
X008473Y011647D03*
X008462Y011680D03*
X008430Y011746D03*
X008266Y012347D03*
X008747Y012402D03*
X013209Y012883D03*
X014182Y010827D03*
X014171Y010816D03*
X014149Y010783D03*
X013099Y010608D03*
X016107Y010805D03*
X016150Y012807D03*
X020153Y012358D03*
X021225Y012183D03*
X021651Y011943D03*
X021750Y011986D03*
X021334Y010838D03*
X028213Y010073D03*
D136*
X022154Y012763D03*
X020700Y013255D03*
X008255Y011735D03*
X008255Y011691D03*
X008244Y011636D03*
X008233Y011593D03*
D137*
X008441Y011735D03*
X008495Y011593D03*
X008922Y011888D03*
X014193Y010849D03*
X016096Y010794D03*
X016161Y012818D03*
X015144Y012916D03*
X020153Y012369D03*
X020678Y012325D03*
D138*
X022029Y012621D03*
X021362Y010794D03*
X014002Y012282D03*
X009113Y011593D03*
D139*
X008490Y011604D03*
X008479Y011625D03*
X008468Y011658D03*
X008468Y011669D03*
X008446Y011713D03*
X008446Y011724D03*
X008227Y011757D03*
X008741Y012391D03*
X013214Y012894D03*
X014231Y012839D03*
X014231Y012828D03*
X014242Y012850D03*
X016167Y012828D03*
X016178Y012839D03*
X016178Y012850D03*
X016079Y010761D03*
X014144Y010772D03*
X014133Y010761D03*
X014089Y010707D03*
X020148Y012380D03*
X020148Y012391D03*
X020694Y013167D03*
X020694Y013178D03*
X020694Y013189D03*
X022116Y012697D03*
X020443Y010904D03*
D140*
X009146Y011636D03*
D141*
X007719Y011658D03*
X020208Y011943D03*
X020208Y011954D03*
X020208Y011964D03*
X020700Y012883D03*
X020700Y012894D03*
X020700Y012905D03*
X021356Y013080D03*
X021958Y012435D03*
X021947Y012402D03*
X020547Y010269D03*
X026584Y013200D03*
X027502Y013200D03*
X027043Y011483D03*
X028279Y010171D03*
D142*
X027759Y011910D03*
X027770Y011921D03*
X026327Y011910D03*
X026316Y011921D03*
X026294Y012949D03*
X026305Y012960D03*
X026316Y012982D03*
X026327Y012992D03*
X026338Y013003D03*
X027759Y012992D03*
X027781Y012960D03*
X021777Y012063D03*
X021307Y012632D03*
X021362Y013200D03*
X021405Y011155D03*
X020421Y010860D03*
X016233Y011068D03*
X016233Y011079D03*
X016233Y011090D03*
X016222Y011035D03*
X015937Y012271D03*
X015937Y012293D03*
X015937Y012304D03*
X015948Y012347D03*
X015948Y012358D03*
X015095Y012828D03*
X014023Y012413D03*
X014023Y012402D03*
X014013Y012369D03*
X014013Y012358D03*
X014013Y012347D03*
X014286Y011079D03*
X014286Y011068D03*
X013149Y010707D03*
X009157Y011658D03*
D143*
X009162Y011669D03*
X008780Y012457D03*
X014029Y012446D03*
X014029Y012435D03*
X015954Y012391D03*
X015954Y012369D03*
X015965Y012435D03*
X016227Y011057D03*
X016216Y011024D03*
X016216Y011013D03*
X014280Y011057D03*
X020689Y013069D03*
X021312Y012610D03*
X021225Y012150D03*
X021772Y012052D03*
X022056Y012643D03*
X026288Y012938D03*
X026255Y012008D03*
X026288Y011964D03*
X026288Y011954D03*
X026299Y011943D03*
X027043Y011472D03*
X027787Y011943D03*
X027808Y011975D03*
X027819Y012905D03*
X027808Y012927D03*
X027787Y012949D03*
X028235Y010094D03*
D144*
X027825Y011997D03*
X027825Y012008D03*
X027825Y012894D03*
X026250Y012883D03*
X026239Y012861D03*
X026239Y012041D03*
X026250Y012019D03*
X020694Y013080D03*
X016211Y011002D03*
X015959Y012402D03*
X015959Y012413D03*
X015970Y012446D03*
X015970Y012457D03*
X015970Y012468D03*
X014045Y012489D03*
X014034Y012468D03*
X014034Y012457D03*
X009168Y011680D03*
X008774Y012446D03*
D145*
X009343Y012380D03*
X007724Y011691D03*
X021340Y012916D03*
X021351Y012960D03*
X021351Y013014D03*
X027497Y011691D03*
D146*
X021296Y012424D03*
X014220Y012818D03*
X008457Y011691D03*
D147*
X009179Y011691D03*
X014045Y012478D03*
X015959Y012424D03*
X016211Y010991D03*
X026239Y012030D03*
X026250Y012872D03*
X027814Y012916D03*
X027814Y011986D03*
D148*
X026638Y013222D03*
X020941Y011276D03*
X020481Y011013D03*
X020536Y010291D03*
X009359Y012413D03*
X009359Y012435D03*
X009326Y012336D03*
X009315Y012314D03*
X007730Y011702D03*
D149*
X007730Y011713D03*
X009272Y012238D03*
X009283Y012260D03*
X009294Y012271D03*
X009370Y012468D03*
X020448Y010641D03*
X020525Y010313D03*
X021367Y010707D03*
D150*
X020421Y010871D03*
X020279Y011713D03*
X020180Y012282D03*
X020705Y012478D03*
X020705Y012489D03*
X020705Y012500D03*
X021307Y012577D03*
X021307Y012588D03*
X021307Y012599D03*
X026228Y012839D03*
X026261Y012894D03*
X026228Y012052D03*
X026261Y011997D03*
X027836Y012019D03*
X027847Y012041D03*
X027858Y012063D03*
X027858Y012839D03*
X027847Y012861D03*
X027836Y012883D03*
X016200Y010980D03*
X016200Y010969D03*
X015051Y010674D03*
X014275Y011024D03*
X014275Y011035D03*
X013138Y010685D03*
X015981Y012489D03*
X015106Y012850D03*
X009244Y011877D03*
X009244Y011866D03*
X009244Y011855D03*
X009190Y011713D03*
D151*
X009277Y012249D03*
X009365Y012489D03*
X007735Y011724D03*
X020476Y011024D03*
X020454Y010630D03*
X020454Y010619D03*
X026655Y011669D03*
X027475Y011680D03*
X027617Y011472D03*
X027628Y011450D03*
D152*
X027633Y011440D03*
X021367Y010696D03*
X021367Y010160D03*
X007741Y011735D03*
D153*
X009201Y011735D03*
X014078Y012577D03*
X015117Y012872D03*
X016014Y012577D03*
X016036Y012621D03*
X016189Y010947D03*
X014264Y010991D03*
X020694Y012424D03*
X021766Y012030D03*
X026141Y012325D03*
X026152Y012282D03*
X026163Y012227D03*
X026173Y012183D03*
X026195Y012129D03*
X026152Y012621D03*
X026163Y012675D03*
X026173Y012719D03*
X027923Y012675D03*
X027934Y012621D03*
X027934Y012282D03*
X027923Y012227D03*
X027912Y012183D03*
X027890Y012129D03*
D154*
X027732Y011276D03*
X027743Y011265D03*
X027743Y011254D03*
X027765Y011221D03*
X027776Y011210D03*
X027787Y011188D03*
X028290Y010248D03*
X028290Y010237D03*
X020514Y010368D03*
X020514Y010379D03*
X020470Y010587D03*
X009228Y012172D03*
X007741Y011746D03*
D155*
X008249Y011746D03*
X013236Y012938D03*
X014319Y012960D03*
X016233Y012927D03*
X016243Y012938D03*
X015948Y010630D03*
X015937Y010619D03*
X015926Y010608D03*
X015904Y010587D03*
X015894Y010576D03*
X015883Y010565D03*
X014986Y010565D03*
X013980Y010587D03*
X013969Y010576D03*
X013958Y010565D03*
X020673Y012293D03*
X021219Y012194D03*
X021285Y012347D03*
X022138Y012741D03*
X021416Y013342D03*
X020694Y013233D03*
D156*
X027825Y011122D03*
X009222Y012161D03*
X007746Y011757D03*
D157*
X008424Y011757D03*
X013105Y010619D03*
X014187Y010838D03*
X014198Y010860D03*
X014209Y010871D03*
X015019Y010619D03*
X016112Y010816D03*
X016123Y010827D03*
X015139Y012905D03*
X014187Y012763D03*
X014177Y012752D03*
X020159Y012347D03*
X020159Y012336D03*
X020684Y012336D03*
X020684Y012347D03*
X021296Y012457D03*
X021296Y012478D03*
X021755Y011997D03*
X022105Y012686D03*
X021394Y013244D03*
X020694Y013146D03*
X020694Y013135D03*
D158*
X020694Y013091D03*
X020694Y012413D03*
X020694Y012402D03*
X020760Y012096D03*
X020180Y012293D03*
X022072Y012653D03*
X020432Y010882D03*
X020563Y010215D03*
X016178Y010926D03*
X016167Y010904D03*
X015040Y010663D03*
X014253Y010969D03*
X013127Y010663D03*
X014067Y012544D03*
X014067Y012555D03*
X014078Y012566D03*
X014089Y012599D03*
X013181Y012839D03*
X016025Y012599D03*
X016047Y012643D03*
X016058Y012653D03*
X016058Y012664D03*
X009233Y011811D03*
X009233Y011800D03*
X009212Y011757D03*
X008763Y012435D03*
X026141Y012347D03*
X026141Y012336D03*
X026152Y012271D03*
X026152Y012260D03*
X026163Y012238D03*
X026163Y012216D03*
X026173Y012205D03*
X026173Y012194D03*
X026184Y012161D03*
X026184Y012150D03*
X026141Y012555D03*
X026141Y012566D03*
X026152Y012632D03*
X026163Y012664D03*
X026163Y012686D03*
X026173Y012697D03*
X026173Y012708D03*
X026184Y012730D03*
X026184Y012741D03*
X026206Y012796D03*
X027890Y012763D03*
X027901Y012741D03*
X027901Y012730D03*
X027912Y012708D03*
X027912Y012697D03*
X027912Y012686D03*
X027923Y012664D03*
X027923Y012653D03*
X027934Y012610D03*
X027945Y012555D03*
X027945Y012544D03*
X027945Y012358D03*
X027945Y012347D03*
X027934Y012293D03*
X027934Y012271D03*
X027923Y012238D03*
X027923Y012216D03*
X027912Y012205D03*
X027912Y012194D03*
X027901Y012172D03*
X027901Y012161D03*
X027879Y012107D03*
D159*
X009222Y011779D03*
D160*
X009222Y011790D03*
D161*
X008900Y011855D03*
D162*
X009250Y011888D03*
X015943Y012325D03*
X020711Y012522D03*
X026266Y011986D03*
D163*
X022100Y012675D03*
X021761Y012008D03*
X020689Y012358D03*
X020700Y013124D03*
X016129Y010838D03*
X015024Y010630D03*
X014226Y010904D03*
X013110Y010630D03*
X014138Y012686D03*
X014149Y012708D03*
X015133Y012894D03*
X008922Y011899D03*
D164*
X009244Y011899D03*
X020563Y010226D03*
X022040Y012632D03*
X027748Y013003D03*
D165*
X027705Y013047D03*
X027694Y013058D03*
X027705Y011844D03*
X026370Y011855D03*
X021799Y012096D03*
X021788Y012085D03*
X020716Y012588D03*
X021405Y011166D03*
X020421Y010838D03*
X016243Y011155D03*
X016243Y011166D03*
X015937Y012194D03*
X015937Y012205D03*
X015937Y012216D03*
X009244Y011921D03*
D166*
X007910Y011932D03*
X007615Y012675D03*
D167*
X009173Y012085D03*
X009108Y011932D03*
X021356Y010652D03*
X027929Y010947D03*
X027962Y010893D03*
D168*
X007899Y011943D03*
X007604Y012686D03*
D169*
X007598Y012697D03*
X007588Y012708D03*
X007489Y012861D03*
X007894Y011954D03*
X020995Y011964D03*
D170*
X027043Y011505D03*
X028027Y010783D03*
X028038Y010761D03*
X028060Y010729D03*
X028071Y010718D03*
X028071Y010707D03*
X009140Y012019D03*
X009130Y012008D03*
X009130Y011997D03*
X009119Y011975D03*
X009119Y011964D03*
D171*
X009162Y012566D03*
X009173Y012588D03*
X009184Y012610D03*
X007872Y011975D03*
X007566Y012741D03*
X007555Y012752D03*
X007511Y012828D03*
X027043Y013321D03*
D172*
X007845Y011997D03*
D173*
X007823Y012019D03*
X009299Y012785D03*
X009310Y012807D03*
X021001Y012019D03*
D174*
X007806Y012030D03*
D175*
X009140Y012030D03*
X028082Y010696D03*
D176*
X007795Y012041D03*
D177*
X007741Y012085D03*
X021334Y010455D03*
D178*
X021334Y010488D03*
X021334Y010291D03*
X007730Y012096D03*
D179*
X009179Y012096D03*
X020487Y010510D03*
X020487Y010488D03*
X020487Y010477D03*
X020498Y010444D03*
X020498Y010433D03*
X027912Y010969D03*
X027912Y010980D03*
X027923Y010958D03*
X027934Y010936D03*
D180*
X007713Y012107D03*
D181*
X009190Y012107D03*
X009190Y012118D03*
X009354Y012544D03*
X020465Y011068D03*
X020465Y011057D03*
X027890Y011013D03*
X027956Y010904D03*
D182*
X007702Y012118D03*
D183*
X007686Y012129D03*
D184*
X009195Y012129D03*
X027841Y011101D03*
X028290Y010258D03*
D185*
X007680Y012139D03*
D186*
X009206Y012139D03*
X020503Y010422D03*
X020503Y010412D03*
X021356Y010171D03*
X021356Y010663D03*
X027458Y011669D03*
X027841Y011090D03*
X027852Y011079D03*
X027863Y011068D03*
X027863Y011057D03*
X027885Y011024D03*
X027896Y011002D03*
X028290Y010269D03*
D187*
X007670Y012150D03*
D188*
X009212Y012150D03*
X009365Y012533D03*
X020476Y010576D03*
X020476Y010565D03*
X020509Y010390D03*
X021362Y010674D03*
X026698Y011658D03*
X027759Y011232D03*
X027792Y011177D03*
X027803Y011166D03*
X027803Y011155D03*
D189*
X021340Y010565D03*
X007659Y012161D03*
X007582Y012358D03*
X007582Y012369D03*
D190*
X007588Y012347D03*
X007653Y012172D03*
X021345Y010226D03*
D191*
X007648Y012183D03*
X007582Y012325D03*
D192*
X009233Y012183D03*
X020465Y010597D03*
X020519Y010357D03*
X027661Y011396D03*
X027694Y011341D03*
D193*
X021340Y010576D03*
X007637Y012194D03*
X007582Y012336D03*
D194*
X007588Y012314D03*
X007588Y012304D03*
X007598Y012271D03*
X007609Y012249D03*
X007631Y012205D03*
X020405Y011276D03*
X021334Y010587D03*
D195*
X020525Y010335D03*
X020459Y010608D03*
X026671Y013233D03*
X027415Y013233D03*
X027644Y011429D03*
X027644Y011418D03*
X027655Y011407D03*
X027688Y011352D03*
X028290Y010226D03*
X009250Y012205D03*
D196*
X007620Y012216D03*
D197*
X009261Y012216D03*
X009370Y012500D03*
X027623Y011461D03*
X027666Y011385D03*
X027677Y011374D03*
D198*
X007620Y012227D03*
D199*
X007615Y012238D03*
D200*
X007604Y012260D03*
X007593Y012293D03*
X020399Y011265D03*
X020399Y011254D03*
D201*
X007598Y012282D03*
D202*
X009299Y012282D03*
D203*
X009304Y012293D03*
X009337Y012358D03*
X009348Y012391D03*
X009348Y012402D03*
X027448Y013222D03*
D204*
X009321Y012325D03*
D205*
X009332Y012347D03*
X009343Y012369D03*
X021208Y012063D03*
X021340Y012927D03*
X021340Y012938D03*
X021340Y012949D03*
X021351Y012971D03*
X021351Y012982D03*
X021351Y012992D03*
X021351Y013003D03*
X021351Y013025D03*
X026622Y011680D03*
X028284Y010193D03*
D206*
X027874Y012096D03*
X027874Y012796D03*
X027874Y012807D03*
X026201Y012785D03*
X026201Y012118D03*
X026201Y012107D03*
X021772Y012041D03*
X021225Y012161D03*
X020295Y011691D03*
X021378Y013222D03*
X016019Y012588D03*
X008233Y012369D03*
D207*
X007588Y012380D03*
X021334Y010554D03*
D208*
X021312Y012621D03*
X021367Y013211D03*
X026310Y012971D03*
X016227Y011046D03*
X015954Y012380D03*
X014029Y012424D03*
X014280Y011046D03*
X013143Y010696D03*
X008222Y012380D03*
D209*
X008741Y012380D03*
X013225Y012916D03*
X014034Y010652D03*
X021285Y012369D03*
X022127Y012719D03*
X021405Y013310D03*
D210*
X021334Y010543D03*
X021334Y010532D03*
X021345Y010248D03*
X007588Y012391D03*
D211*
X007598Y012402D03*
X021334Y010521D03*
X021334Y010510D03*
D212*
X021373Y010772D03*
X015970Y011964D03*
X015970Y011975D03*
X015970Y011997D03*
X014286Y011232D03*
X014286Y011221D03*
X008184Y012402D03*
X027628Y011779D03*
D213*
X007784Y012413D03*
X007784Y012435D03*
X007752Y012500D03*
D214*
X007784Y012424D03*
D215*
X008758Y012424D03*
X013121Y010652D03*
X014248Y010947D03*
X015035Y010652D03*
X014105Y012621D03*
X021301Y012522D03*
X022089Y012664D03*
X021629Y011932D03*
X026135Y012380D03*
X026135Y012424D03*
X026135Y012478D03*
X026135Y012522D03*
X027940Y012577D03*
X027951Y012522D03*
X027951Y012478D03*
X027951Y012424D03*
X027951Y012380D03*
X027940Y012325D03*
D216*
X009359Y012424D03*
D217*
X008796Y012478D03*
X015937Y012227D03*
X015937Y012183D03*
X016243Y011144D03*
X020421Y010849D03*
X020760Y012074D03*
D218*
X007746Y012511D03*
D219*
X009365Y012511D03*
X027726Y011286D03*
D220*
X007741Y012522D03*
D221*
X008834Y012522D03*
X016205Y011341D03*
D222*
X009370Y012522D03*
D223*
X007724Y012544D03*
X007713Y012555D03*
D224*
X007702Y012577D03*
D225*
X007582Y012719D03*
X009168Y012577D03*
X009343Y012872D03*
X021001Y011975D03*
D226*
X007686Y012588D03*
D227*
X007680Y012599D03*
D228*
X007549Y012763D03*
X007538Y012785D03*
X009179Y012599D03*
X009212Y012653D03*
D229*
X007670Y012610D03*
X007473Y012905D03*
D230*
X009190Y012621D03*
D231*
X009201Y012632D03*
X009201Y012643D03*
X009343Y012861D03*
X007527Y012796D03*
X021001Y011986D03*
D232*
X009228Y012686D03*
X009217Y012664D03*
D233*
X009222Y012675D03*
D234*
X007571Y012730D03*
D235*
X009266Y012741D03*
D236*
X009272Y012752D03*
D237*
X007538Y012774D03*
D238*
X009288Y012774D03*
D239*
X007511Y012818D03*
D240*
X007489Y012872D03*
X027043Y013310D03*
D241*
X027043Y013299D03*
X009359Y012905D03*
D242*
X009370Y012916D03*
D243*
X009370Y012927D03*
X027251Y011527D03*
D244*
X021088Y011691D03*
X021088Y011702D03*
X021088Y011713D03*
X007440Y012938D03*
D245*
X009403Y012938D03*
D246*
X007478Y012949D03*
X007478Y012960D03*
X007478Y012982D03*
X007478Y012992D03*
X007478Y013003D03*
X007478Y013025D03*
X007478Y013036D03*
X007478Y013047D03*
X007478Y013058D03*
X007478Y013080D03*
X007478Y013091D03*
X007478Y013102D03*
X007478Y013124D03*
D247*
X009326Y013124D03*
X009326Y013102D03*
X009326Y013091D03*
X009326Y013080D03*
X009326Y013058D03*
X009326Y013047D03*
X009326Y013036D03*
X009326Y013025D03*
X009326Y013003D03*
X009326Y012992D03*
X009326Y012982D03*
X009326Y012960D03*
X009326Y012949D03*
D248*
X007478Y012971D03*
X007478Y013014D03*
X007478Y013069D03*
X007478Y013113D03*
D249*
X009326Y013113D03*
X009326Y013069D03*
X009326Y013014D03*
X009326Y012971D03*
D250*
X014444Y010510D03*
D251*
X014450Y010521D03*
D252*
X014455Y010532D03*
D253*
X014461Y010543D03*
D254*
X013072Y010554D03*
D255*
X013952Y010554D03*
X014980Y010554D03*
X015866Y010554D03*
X021422Y013353D03*
D256*
X021405Y013299D03*
X020694Y013222D03*
X020137Y012446D03*
X020137Y012435D03*
X021285Y012380D03*
X016222Y012905D03*
X015161Y012938D03*
X014297Y012927D03*
X014275Y012894D03*
X014264Y012883D03*
X014023Y010641D03*
X014997Y010587D03*
X016025Y010707D03*
X013083Y010576D03*
D257*
X013985Y010597D03*
X015976Y010652D03*
X016227Y012916D03*
X014291Y012916D03*
X021323Y010849D03*
D258*
X015915Y010597D03*
D259*
X016156Y010882D03*
X015030Y010641D03*
X014242Y010936D03*
X014231Y010926D03*
X014231Y010915D03*
X013116Y010641D03*
X014144Y012697D03*
X016112Y012752D03*
X021033Y011254D03*
X021712Y011964D03*
X021383Y013233D03*
D260*
X020684Y012304D03*
X016211Y012894D03*
X014286Y012905D03*
X014045Y010663D03*
D261*
X015062Y010696D03*
X015937Y012282D03*
X014013Y012380D03*
X020191Y012271D03*
X020257Y011735D03*
X026305Y011932D03*
X027781Y011932D03*
X027770Y012971D03*
D262*
X016014Y010696D03*
D263*
X014559Y010718D03*
X014767Y012982D03*
X014778Y012992D03*
D264*
X014565Y010729D03*
D265*
X014570Y010740D03*
D266*
X014581Y010751D03*
D267*
X014291Y011122D03*
X014291Y011133D03*
X014291Y011155D03*
X015079Y011155D03*
X015079Y011166D03*
X015079Y011177D03*
X015079Y011188D03*
X015079Y011210D03*
X015079Y011221D03*
X015079Y011232D03*
X015079Y011254D03*
X015079Y011265D03*
X015079Y011276D03*
X015079Y011286D03*
X015079Y011308D03*
X015079Y011319D03*
X015079Y011330D03*
X015079Y011352D03*
X015079Y011363D03*
X015079Y011374D03*
X015079Y011385D03*
X015079Y011407D03*
X015079Y011418D03*
X015079Y011429D03*
X015079Y011450D03*
X015079Y011461D03*
X015079Y011472D03*
X015079Y011483D03*
X015079Y011505D03*
X015079Y011516D03*
X015079Y011527D03*
X015079Y011549D03*
X015079Y011560D03*
X015079Y011571D03*
X015079Y011582D03*
X015079Y011604D03*
X015079Y011615D03*
X015079Y011625D03*
X015079Y011647D03*
X015079Y011658D03*
X015079Y011669D03*
X015079Y011680D03*
X015079Y011702D03*
X015079Y011713D03*
X015079Y011724D03*
X015079Y011746D03*
X015079Y011757D03*
X015079Y011768D03*
X015079Y011779D03*
X015079Y011800D03*
X015079Y011811D03*
X015079Y011822D03*
X015079Y011844D03*
X015079Y011855D03*
X015079Y011866D03*
X015079Y011877D03*
X015079Y011899D03*
X015079Y011910D03*
X015079Y011921D03*
X015079Y011943D03*
X015079Y011954D03*
X015079Y011964D03*
X015079Y011975D03*
X015079Y011997D03*
X015079Y012008D03*
X015079Y012019D03*
X015079Y012041D03*
X015079Y012052D03*
X015079Y012063D03*
X015079Y012074D03*
X015079Y012096D03*
X015079Y012107D03*
X015079Y012118D03*
X015079Y012139D03*
X015079Y012150D03*
X015079Y012161D03*
X015079Y012172D03*
X015079Y012194D03*
X015079Y012205D03*
X015079Y012216D03*
X015079Y012238D03*
X015079Y012249D03*
X015079Y012260D03*
X015079Y012271D03*
X015079Y012293D03*
X015079Y012304D03*
X015079Y012314D03*
X015079Y012336D03*
X015079Y012347D03*
X015079Y012358D03*
X015079Y012369D03*
X015079Y012391D03*
X015079Y012402D03*
X015079Y012413D03*
X015079Y012435D03*
X015079Y012446D03*
X015079Y012457D03*
X015079Y012468D03*
X015079Y012489D03*
X015079Y012500D03*
X015079Y012511D03*
X015079Y012533D03*
X015079Y012544D03*
X015079Y012555D03*
X015079Y012566D03*
X015079Y012588D03*
X015079Y012599D03*
X015079Y012610D03*
X015079Y012632D03*
X015079Y012643D03*
X015079Y012653D03*
X015079Y012664D03*
X015079Y012686D03*
X015079Y012697D03*
X015079Y012708D03*
X015079Y012730D03*
X015079Y012741D03*
X015079Y012752D03*
X015079Y011133D03*
X015079Y011122D03*
X015079Y011111D03*
X015079Y011090D03*
X015079Y011079D03*
X015079Y011068D03*
X015079Y011057D03*
X015079Y011035D03*
X015079Y011024D03*
X015079Y011013D03*
X015079Y011002D03*
X015079Y010980D03*
X015079Y010969D03*
X015079Y010958D03*
X015079Y010936D03*
X015079Y010926D03*
X015079Y010915D03*
X015079Y010904D03*
X015079Y010882D03*
X015079Y010871D03*
X015079Y010860D03*
X015079Y010838D03*
X015079Y010827D03*
X015079Y010816D03*
X015079Y010805D03*
X015079Y010783D03*
X015079Y010772D03*
X015079Y010761D03*
X020197Y012238D03*
X020197Y012249D03*
X020689Y013036D03*
X022023Y012610D03*
X026387Y013058D03*
X027666Y011811D03*
X027677Y011822D03*
D268*
X026398Y011833D03*
X026398Y013069D03*
X015079Y012719D03*
X015079Y012675D03*
X015079Y012621D03*
X015079Y012577D03*
X015079Y012522D03*
X015079Y012478D03*
X015079Y012424D03*
X015079Y012380D03*
X015079Y012325D03*
X015079Y012282D03*
X015079Y012227D03*
X015079Y012183D03*
X015079Y012129D03*
X015079Y012085D03*
X015079Y012030D03*
X015079Y011986D03*
X015079Y011932D03*
X015079Y011888D03*
X015079Y011833D03*
X015079Y011790D03*
X015079Y011735D03*
X015079Y011691D03*
X015079Y011636D03*
X015079Y011593D03*
X015079Y011538D03*
X015079Y011494D03*
X015079Y011440D03*
X015079Y011396D03*
X015079Y011341D03*
X015079Y011297D03*
X015079Y011243D03*
X015079Y011199D03*
X015079Y011144D03*
X015079Y011101D03*
X015079Y011046D03*
X015079Y010991D03*
X015079Y010947D03*
X015079Y010893D03*
X015079Y010849D03*
X015079Y010794D03*
X014291Y011144D03*
D269*
X016134Y010849D03*
X016090Y012719D03*
D270*
X014220Y010893D03*
X020694Y013157D03*
X021296Y012468D03*
D271*
X026146Y012577D03*
X016161Y010893D03*
X016063Y012675D03*
D272*
X016238Y011101D03*
X020711Y012566D03*
D273*
X020711Y012577D03*
X020711Y012555D03*
X020711Y012544D03*
X016238Y011133D03*
X016238Y011122D03*
X016238Y011111D03*
X015943Y012238D03*
X015943Y012249D03*
X015943Y012260D03*
X028246Y010105D03*
D274*
X027644Y011790D03*
X026441Y011790D03*
X026452Y013113D03*
X027633Y013113D03*
X021815Y012129D03*
X021411Y011188D03*
X020711Y012621D03*
X020689Y013014D03*
X014291Y011199D03*
X014018Y012085D03*
X014007Y012129D03*
D275*
X014007Y012183D03*
X014007Y012227D03*
X015943Y012129D03*
X016238Y011199D03*
X020230Y011779D03*
X027688Y011833D03*
X027688Y013069D03*
D276*
X015970Y011986D03*
X014286Y011243D03*
D277*
X014166Y011593D03*
D278*
X016041Y011735D03*
X026518Y011735D03*
D279*
X026217Y012818D03*
X026272Y012916D03*
X027836Y012872D03*
X021405Y011144D03*
X020705Y012468D03*
X015992Y012522D03*
X015981Y012478D03*
X014056Y012522D03*
X013170Y012818D03*
D280*
X014095Y012610D03*
X015123Y012883D03*
X020689Y012391D03*
X020689Y012380D03*
X026146Y012314D03*
X026146Y012304D03*
X026146Y012293D03*
X026146Y012588D03*
X026146Y012599D03*
X026146Y012610D03*
X028224Y010083D03*
D281*
X021219Y012172D03*
X020694Y013113D03*
X014133Y012675D03*
D282*
X015571Y012763D03*
D283*
X014619Y012774D03*
D284*
X014619Y012785D03*
D285*
X014630Y012796D03*
D286*
X014133Y012807D03*
D287*
X013198Y012872D03*
X020437Y010893D03*
X021728Y011975D03*
X020689Y012369D03*
D288*
X020700Y013244D03*
X022144Y012752D03*
X016249Y012949D03*
X013241Y012949D03*
D289*
X015172Y012960D03*
D290*
X014762Y012971D03*
D291*
X014783Y013003D03*
D292*
X020443Y010663D03*
X021373Y010718D03*
X021373Y010149D03*
D293*
X021356Y010182D03*
X021345Y010630D03*
X027349Y013244D03*
X028093Y010674D03*
X028290Y010302D03*
D294*
X028284Y010346D03*
X028273Y010368D03*
X028262Y010390D03*
X028240Y010422D03*
X028240Y010433D03*
X028229Y010444D03*
X028208Y010477D03*
X028197Y010499D03*
X027431Y011658D03*
X021340Y010608D03*
X021351Y010193D03*
X020443Y011133D03*
X020432Y011155D03*
X020421Y011177D03*
X020410Y011210D03*
D295*
X021340Y010597D03*
X021351Y010204D03*
D296*
X021351Y010215D03*
D297*
X021345Y010237D03*
D298*
X020547Y010258D03*
X020437Y010751D03*
X021378Y010751D03*
X021903Y012271D03*
D299*
X021340Y010258D03*
D300*
X021340Y010269D03*
X021340Y010280D03*
D301*
X021334Y010302D03*
X021334Y010499D03*
X027043Y013364D03*
D302*
X021334Y010335D03*
X021334Y010324D03*
X021334Y010313D03*
D303*
X020519Y010324D03*
X027595Y011505D03*
X027606Y011483D03*
D304*
X021329Y010444D03*
X021329Y010433D03*
X021329Y010422D03*
X021329Y010412D03*
X021329Y010390D03*
X021329Y010379D03*
X021329Y010368D03*
X021329Y010346D03*
D305*
X021329Y010357D03*
X021329Y010401D03*
D306*
X020509Y010401D03*
X020476Y010554D03*
X020476Y011046D03*
X027781Y011199D03*
X027814Y011144D03*
D307*
X020498Y010455D03*
X020487Y010499D03*
D308*
X020481Y010521D03*
X020481Y010532D03*
X020481Y010543D03*
X020492Y010466D03*
X027819Y011133D03*
X027830Y011111D03*
X027874Y011035D03*
D309*
X028147Y010587D03*
X028158Y010565D03*
X028180Y010532D03*
X028180Y010521D03*
X028202Y010488D03*
X028279Y010335D03*
X021345Y010619D03*
X020448Y011111D03*
X020448Y011122D03*
D310*
X020465Y011079D03*
X021351Y010641D03*
D311*
X021378Y010729D03*
X020437Y010685D03*
X020437Y010674D03*
D312*
X020437Y010696D03*
D313*
X020432Y010740D03*
X020487Y011002D03*
X021416Y011265D03*
X021219Y012085D03*
X021908Y012293D03*
X021919Y012304D03*
X021919Y012314D03*
X021919Y012336D03*
X021974Y012478D03*
X021974Y012489D03*
X020202Y012150D03*
X020202Y012139D03*
X027519Y013189D03*
D314*
X028049Y010751D03*
X028290Y010313D03*
X020459Y011090D03*
D315*
X020432Y011144D03*
X028251Y010412D03*
D316*
X028257Y010401D03*
X027043Y013386D03*
X020427Y011166D03*
X020416Y011199D03*
X020405Y011221D03*
X020405Y011232D03*
D317*
X020405Y011243D03*
X020416Y011188D03*
X028279Y010357D03*
D318*
X020629Y011286D03*
D319*
X021411Y011286D03*
X020208Y011975D03*
X020208Y012030D03*
X020208Y012074D03*
X026605Y013211D03*
X027469Y013211D03*
D320*
X020957Y011604D03*
X020859Y011308D03*
X020859Y011297D03*
D321*
X020864Y011319D03*
X020951Y011593D03*
D322*
X020946Y011571D03*
X020869Y011330D03*
D323*
X020869Y011341D03*
D324*
X020875Y011352D03*
X020875Y011363D03*
X020941Y011549D03*
X020941Y011560D03*
D325*
X020924Y011516D03*
X020924Y011505D03*
X020924Y011494D03*
X020913Y011472D03*
X020913Y011461D03*
X020913Y011450D03*
X020902Y011429D03*
X020902Y011418D03*
X020891Y011407D03*
X020891Y011396D03*
X020880Y011374D03*
D326*
X020886Y011385D03*
X020930Y011538D03*
D327*
X020913Y011483D03*
X020902Y011440D03*
D328*
X020930Y011527D03*
D329*
X020951Y011582D03*
D330*
X020962Y011615D03*
X020962Y011625D03*
X020973Y011647D03*
X020973Y011658D03*
D331*
X020968Y011636D03*
D332*
X020968Y011669D03*
D333*
X021083Y011680D03*
D334*
X021094Y011724D03*
X021094Y011746D03*
X021094Y011757D03*
X021094Y011768D03*
X021094Y011789D03*
X021094Y011800D03*
X021094Y011811D03*
D335*
X021094Y011779D03*
X021094Y011735D03*
D336*
X021099Y011822D03*
X021099Y011844D03*
X021099Y011855D03*
X027092Y011647D03*
D337*
X021099Y011833D03*
D338*
X021105Y011866D03*
X021105Y011888D03*
X027119Y011625D03*
D339*
X027109Y011636D03*
X021105Y011877D03*
D340*
X021110Y011899D03*
D341*
X021110Y011921D03*
D342*
X021012Y011932D03*
D343*
X021006Y012030D03*
D344*
X021012Y012041D03*
D345*
X021203Y012052D03*
D346*
X021219Y012074D03*
X021329Y012861D03*
X021351Y013058D03*
X020705Y012861D03*
X020705Y012818D03*
X026600Y011691D03*
D347*
X021958Y012424D03*
X020700Y012763D03*
X020208Y012129D03*
D348*
X020755Y012129D03*
D349*
X021821Y012139D03*
X022018Y012599D03*
X027672Y013080D03*
D350*
X020678Y012282D03*
D351*
X021329Y012818D03*
X021974Y012468D03*
X021919Y012325D03*
X028273Y010160D03*
D352*
X020131Y012468D03*
D353*
X020711Y012719D03*
X021356Y013113D03*
D354*
X021400Y013255D03*
D355*
X028268Y010379D03*
D356*
X028224Y010455D03*
D357*
X028219Y010466D03*
D358*
X028191Y010510D03*
D359*
X028169Y010543D03*
X028126Y010619D03*
D360*
X028109Y010652D03*
X028164Y010554D03*
D361*
X028142Y010597D03*
D362*
X028131Y010608D03*
X028120Y010630D03*
X028109Y010641D03*
X026731Y013244D03*
D363*
X027901Y010991D03*
D364*
X027874Y011046D03*
D365*
X027754Y011243D03*
X027721Y011297D03*
D366*
X027037Y011494D03*
D367*
X027606Y011494D03*
D368*
X027234Y011538D03*
D369*
X027185Y011571D03*
D370*
X027158Y011593D03*
D371*
X027141Y011604D03*
X027130Y011615D03*
D372*
X027874Y012085D03*
X026201Y012774D03*
D373*
X027043Y013255D03*
D374*
X027043Y013266D03*
D375*
X027037Y013288D03*
D376*
X027043Y013342D03*
D377*
X027043Y013375D03*
M02*
