G75*
G70*
%OFA0B0*%
%FSLAX24Y24*%
%IPPOS*%
%LPD*%
%AMOC8*
5,1,8,0,0,1.08239X$1,22.5*
%
%ADD10C,0.0945*%
%ADD11R,0.0512X0.0591*%
%ADD12R,0.0236X0.0906*%
%ADD13C,0.0740*%
%ADD14C,0.0295*%
%ADD15C,0.0200*%
%ADD16C,0.0080*%
%ADD17C,0.0180*%
%ADD18C,0.0160*%
%ADD19C,0.0240*%
%ADD20C,0.0100*%
%ADD21C,0.0400*%
D10*
X002109Y004276D03*
X002109Y020615D03*
X004077Y020615D03*
X006124Y020615D03*
X008171Y020615D03*
X011557Y020615D03*
X013605Y020615D03*
X033605Y020615D03*
X033605Y004276D03*
D11*
X028467Y004237D03*
X027719Y004237D03*
X027719Y005339D03*
X028467Y005339D03*
X007994Y005339D03*
X007246Y005339D03*
X007246Y004237D03*
X007994Y004237D03*
D12*
X009786Y003627D03*
X010179Y003627D03*
X010573Y003627D03*
X010967Y003627D03*
X011360Y003627D03*
X011754Y003627D03*
X012148Y003627D03*
X012542Y003627D03*
X012935Y003627D03*
X013329Y003627D03*
X013723Y003627D03*
X014116Y003627D03*
X014510Y003627D03*
X014904Y003627D03*
X015297Y003627D03*
X015691Y003627D03*
X016085Y003627D03*
X016479Y003627D03*
X016872Y003627D03*
X017266Y003627D03*
X017660Y003627D03*
X018053Y003627D03*
X018447Y003627D03*
X018841Y003627D03*
X019234Y003627D03*
X019628Y003627D03*
X020022Y003627D03*
X020416Y003627D03*
X020809Y003627D03*
X021203Y003627D03*
X021597Y003627D03*
X021990Y003627D03*
X022384Y003627D03*
X022778Y003627D03*
X023171Y003627D03*
X023565Y003627D03*
X023959Y003627D03*
X024353Y003627D03*
X024746Y003627D03*
X025140Y003627D03*
X025534Y003627D03*
X025927Y003627D03*
X025927Y002170D03*
X025534Y002170D03*
X025140Y002170D03*
X024746Y002170D03*
X024353Y002170D03*
X023959Y002170D03*
X023565Y002170D03*
X023171Y002170D03*
X022778Y002170D03*
X022384Y002170D03*
X021990Y002170D03*
X021597Y002170D03*
X021203Y002170D03*
X020809Y002170D03*
X020416Y002170D03*
X020022Y002170D03*
X019628Y002170D03*
X019234Y002170D03*
X018841Y002170D03*
X018447Y002170D03*
X018053Y002170D03*
X017660Y002170D03*
X017266Y002170D03*
X016872Y002170D03*
X016479Y002170D03*
X016085Y002170D03*
X015691Y002170D03*
X015297Y002170D03*
X014904Y002170D03*
X014510Y002170D03*
X014116Y002170D03*
X013723Y002170D03*
X013329Y002170D03*
X012935Y002170D03*
X012542Y002170D03*
X012148Y002170D03*
X011754Y002170D03*
X011360Y002170D03*
X010967Y002170D03*
X010573Y002170D03*
X010179Y002170D03*
X009786Y002170D03*
D13*
X007152Y002611D03*
X006152Y002611D03*
X005152Y002611D03*
X004152Y002611D03*
X004152Y001611D03*
X005152Y001611D03*
X006152Y001611D03*
X007152Y001611D03*
X002609Y006666D03*
X001609Y006666D03*
X001609Y007666D03*
X002609Y007666D03*
X002609Y008666D03*
X001609Y008666D03*
X001609Y009666D03*
X002609Y009666D03*
X002609Y010666D03*
X001609Y010666D03*
X001609Y011666D03*
X002609Y011666D03*
X002609Y012666D03*
X001609Y012666D03*
X001609Y013666D03*
X002609Y013666D03*
X002609Y014666D03*
X001609Y014666D03*
X001609Y015666D03*
X002609Y015666D03*
X015872Y019721D03*
X016872Y019721D03*
X017872Y019721D03*
X017872Y020721D03*
X016872Y020721D03*
X015872Y020721D03*
X019416Y020721D03*
X020416Y020721D03*
X021416Y020721D03*
X021416Y019721D03*
X020416Y019721D03*
X019416Y019721D03*
X022959Y019721D03*
X023959Y019721D03*
X024959Y019721D03*
X024959Y020721D03*
X023959Y020721D03*
X022959Y020721D03*
X026502Y020721D03*
X027502Y020721D03*
X028502Y020721D03*
X028502Y019721D03*
X027502Y019721D03*
X026502Y019721D03*
X030046Y019721D03*
X031046Y019721D03*
X032046Y019721D03*
X032046Y020721D03*
X031046Y020721D03*
X030046Y020721D03*
X033105Y015709D03*
X034105Y015709D03*
X034105Y014709D03*
X033105Y014709D03*
X033105Y013709D03*
X034105Y013709D03*
X034105Y012166D03*
X033105Y012166D03*
X033105Y011166D03*
X034105Y011166D03*
X034105Y010166D03*
X033105Y010166D03*
X033105Y008623D03*
X034105Y008623D03*
X034105Y007623D03*
X033105Y007623D03*
X033105Y006623D03*
X034105Y006623D03*
X031561Y002611D03*
X030561Y002611D03*
X029561Y002611D03*
X028561Y002611D03*
X028561Y001611D03*
X029561Y001611D03*
X030561Y001611D03*
X031561Y001611D03*
D14*
X027305Y000930D03*
X025691Y002898D03*
X024864Y002898D03*
X025179Y006363D03*
X026400Y006796D03*
X026675Y007426D03*
X027502Y008607D03*
X027620Y010064D03*
X027935Y011048D03*
X028801Y012662D03*
X029589Y013725D03*
X029707Y014828D03*
X029707Y015536D03*
X031242Y016678D03*
X032266Y016087D03*
X032266Y014631D03*
X032384Y013922D03*
X032109Y012150D03*
X031951Y011087D03*
X032345Y010379D03*
X032227Y008410D03*
X032069Y007465D03*
X032227Y006402D03*
X032620Y005261D03*
X030849Y005261D03*
X018801Y012741D03*
X017778Y012662D03*
X017069Y012583D03*
X015691Y012544D03*
X014904Y012741D03*
X013723Y013528D03*
X012148Y014198D03*
X010534Y014237D03*
X009471Y015497D03*
X010967Y015772D03*
X012738Y016481D03*
X014707Y015694D03*
X015888Y015694D03*
X016754Y014749D03*
X018447Y016678D03*
X021715Y014631D03*
X022778Y014828D03*
X023723Y015654D03*
X024825Y015418D03*
X025140Y016678D03*
X026518Y016363D03*
X027542Y016599D03*
X028368Y017072D03*
X030140Y017820D03*
X031203Y018883D03*
X031912Y018804D03*
X029825Y019001D03*
X028762Y018961D03*
X027384Y019001D03*
X026282Y018922D03*
X025219Y018961D03*
X024038Y018843D03*
X023171Y018961D03*
X021203Y018961D03*
X020219Y018765D03*
X019195Y018961D03*
X017660Y018961D03*
X017109Y018765D03*
X016085Y019001D03*
X014313Y018646D03*
X013132Y018450D03*
X010573Y018450D03*
X009392Y016954D03*
X007227Y017623D03*
X006439Y016166D03*
X006990Y014591D03*
X007109Y013804D03*
X007109Y012583D03*
X007935Y011520D03*
X008053Y010851D03*
X008368Y009631D03*
X008447Y008528D03*
X009116Y007544D03*
X009038Y006796D03*
X005455Y005536D03*
X003408Y006442D03*
X003762Y007780D03*
X003408Y008686D03*
X003526Y009513D03*
X003447Y010576D03*
X003762Y011835D03*
X003447Y012544D03*
X003644Y013646D03*
X003447Y014906D03*
X003683Y015969D03*
X004746Y017780D03*
X007423Y019119D03*
X011951Y012229D03*
X014313Y010772D03*
X019549Y014080D03*
X020612Y013922D03*
X021990Y017072D03*
X003290Y004946D03*
X008408Y000930D03*
X010022Y002898D03*
X010849Y002898D03*
D15*
X010967Y001324D03*
X011360Y001324D03*
X011754Y001324D03*
X012148Y001324D03*
X012542Y001324D03*
X012935Y001324D03*
X013329Y001324D03*
X013723Y001324D03*
X014116Y001324D03*
X014510Y001324D03*
X014904Y001324D03*
X015297Y001324D03*
X015691Y001324D03*
X016085Y001324D03*
X016479Y001324D03*
X016872Y001324D03*
X017266Y001324D03*
X017660Y001324D03*
X018053Y001324D03*
X018447Y001324D03*
X018841Y001324D03*
X019234Y001324D03*
X019628Y001324D03*
X020022Y001324D03*
X020416Y001324D03*
X020809Y001324D03*
X021203Y001324D03*
X021597Y001324D03*
X021990Y001324D03*
X022384Y001324D03*
X022778Y001324D03*
X023171Y001324D03*
X023565Y001324D03*
X023959Y001324D03*
X024353Y001324D03*
X024746Y001324D03*
X025140Y001324D03*
X025534Y001324D03*
X025927Y001324D03*
X028014Y003765D03*
X029077Y004394D03*
X028605Y004828D03*
X028171Y004749D03*
X028959Y005339D03*
X028408Y005851D03*
X025927Y004473D03*
X025534Y004473D03*
X025140Y004473D03*
X024746Y004473D03*
X024353Y004473D03*
X023959Y004473D03*
X024431Y004906D03*
X024038Y005221D03*
X023762Y005694D03*
X023290Y005930D03*
X023053Y006324D03*
X022423Y006442D03*
X022109Y006875D03*
X022030Y007465D03*
X021282Y007387D03*
X021085Y007938D03*
X020927Y008528D03*
X020337Y008607D03*
X020297Y009276D03*
X019628Y009316D03*
X019471Y009867D03*
X018959Y010103D03*
X018211Y009985D03*
X018132Y010654D03*
X017423Y010615D03*
X016912Y010812D03*
X017109Y011757D03*
X016321Y011717D03*
X011872Y009276D03*
X010888Y009591D03*
X010258Y009434D03*
X011675Y010221D03*
X010179Y010969D03*
X009392Y011048D03*
X009392Y012465D03*
X010101Y008253D03*
X011085Y007898D03*
X011715Y008056D03*
X013408Y007072D03*
X013132Y006560D03*
X012227Y006757D03*
X012109Y006206D03*
X012109Y005457D03*
X011636Y005300D03*
X011282Y004906D03*
X011360Y004473D03*
X010967Y004473D03*
X010573Y004473D03*
X010179Y004473D03*
X009786Y004473D03*
X010101Y005300D03*
X011754Y004473D03*
X012148Y004473D03*
X012542Y004473D03*
X012935Y004473D03*
X013329Y004473D03*
X013723Y004473D03*
X014116Y004473D03*
X014510Y004473D03*
X014904Y004473D03*
X015297Y004473D03*
X015691Y004473D03*
X016085Y004473D03*
X016479Y004473D03*
X016872Y004473D03*
X017266Y004473D03*
X017660Y004473D03*
X018053Y004473D03*
X018447Y004473D03*
X018841Y004473D03*
X019234Y004473D03*
X019628Y004473D03*
X020022Y004473D03*
X020416Y004473D03*
X020809Y004473D03*
X021203Y004473D03*
X021597Y004473D03*
X021990Y004473D03*
X022384Y004473D03*
X022778Y004473D03*
X023171Y004473D03*
X023565Y004473D03*
X025809Y009080D03*
X025612Y009709D03*
X024786Y009513D03*
X024353Y010497D03*
X023880Y010772D03*
X023171Y010772D03*
X021951Y011639D03*
X020849Y011954D03*
X022384Y012780D03*
X023447Y012426D03*
X023683Y011993D03*
X025258Y010654D03*
X027896Y013331D03*
X027502Y013646D03*
X027581Y014473D03*
X026715Y014985D03*
X025612Y014631D03*
X024864Y014552D03*
X026557Y014119D03*
X014038Y007859D03*
X014077Y007032D03*
X010258Y006599D03*
X007227Y005851D03*
X006754Y005339D03*
X007305Y004828D03*
X006794Y004198D03*
X007620Y003804D03*
X009786Y001324D03*
X010179Y001324D03*
X010573Y001324D03*
D16*
X002708Y000584D02*
X002699Y000583D01*
X015022Y000583D01*
X015022Y001159D01*
X014987Y001124D01*
X014821Y001124D01*
X014707Y001238D01*
X014593Y001124D01*
X014427Y001124D01*
X014313Y001238D01*
X014199Y001124D01*
X014034Y001124D01*
X013920Y001238D01*
X013806Y001124D01*
X013640Y001124D01*
X013526Y001238D01*
X013412Y001124D01*
X013246Y001124D01*
X013132Y001238D01*
X013018Y001124D01*
X012852Y001124D01*
X012738Y001238D01*
X012624Y001124D01*
X012459Y001124D01*
X012345Y001238D01*
X012231Y001124D01*
X012065Y001124D01*
X011951Y001238D01*
X011837Y001124D01*
X011671Y001124D01*
X011557Y001238D01*
X011443Y001124D01*
X011278Y001124D01*
X011164Y001238D01*
X011050Y001124D01*
X010884Y001124D01*
X010770Y001238D01*
X010656Y001124D01*
X010490Y001124D01*
X010376Y001238D01*
X010262Y001124D01*
X010097Y001124D01*
X009983Y001238D01*
X009869Y001124D01*
X009703Y001124D01*
X009586Y001241D01*
X009586Y001872D01*
X008679Y001872D01*
X007892Y002659D01*
X007775Y002776D01*
X007775Y003862D01*
X007705Y003862D01*
X007658Y003909D01*
X007658Y004565D01*
X007705Y004612D01*
X008283Y004612D01*
X008330Y004565D01*
X008330Y003909D01*
X008283Y003862D01*
X008175Y003862D01*
X008175Y002942D01*
X008429Y002687D01*
X008401Y002756D01*
X008401Y003041D01*
X008510Y003304D01*
X008711Y003505D01*
X008974Y003614D01*
X009259Y003614D01*
X009522Y003505D01*
X009588Y003439D01*
X009588Y003542D01*
X009586Y003544D01*
X008166Y004964D01*
X007705Y004964D01*
X007658Y005011D01*
X007658Y005668D01*
X007705Y005715D01*
X008283Y005715D01*
X008330Y005668D01*
X008330Y005365D01*
X009586Y004110D01*
X009586Y004556D01*
X009703Y004673D01*
X009869Y004673D01*
X009979Y004562D01*
X009979Y004587D01*
X009586Y004981D01*
X009586Y013249D01*
X003877Y018957D01*
X003877Y020100D01*
X003764Y020147D01*
X003609Y020302D01*
X003525Y020505D01*
X003525Y020725D01*
X003609Y020928D01*
X003764Y021083D01*
X003967Y021167D01*
X004187Y021167D01*
X004390Y021083D01*
X004545Y020928D01*
X004630Y020725D01*
X004630Y020505D01*
X004545Y020302D01*
X004390Y020147D01*
X004277Y020100D01*
X004277Y019123D01*
X009869Y013531D01*
X009986Y013414D01*
X009986Y005147D01*
X010262Y004870D01*
X010373Y004759D01*
X010373Y013642D01*
X006041Y017974D01*
X005924Y018091D01*
X005924Y020100D01*
X005811Y020147D01*
X005656Y020302D01*
X005572Y020505D01*
X005572Y020725D01*
X005656Y020928D01*
X005811Y021083D01*
X006014Y021167D01*
X006234Y021167D01*
X006437Y021083D01*
X006593Y020928D01*
X006677Y020725D01*
X006677Y020505D01*
X006593Y020302D01*
X006437Y020147D01*
X006324Y020100D01*
X006324Y018257D01*
X010773Y013808D01*
X010773Y005153D01*
X011160Y005540D01*
X011160Y014036D01*
X008089Y017108D01*
X007971Y017225D01*
X007971Y020100D01*
X007859Y020147D01*
X007703Y020302D01*
X007619Y020505D01*
X007619Y020725D01*
X007703Y020928D01*
X007859Y021083D01*
X008062Y021167D01*
X008281Y021167D01*
X008484Y021083D01*
X008640Y020928D01*
X008724Y020725D01*
X008724Y020505D01*
X008640Y020302D01*
X008484Y020147D01*
X008371Y020100D01*
X008371Y017391D01*
X011560Y014202D01*
X011560Y005375D01*
X011443Y005257D01*
X011167Y004981D01*
X011167Y004562D01*
X011278Y004673D01*
X011443Y004673D01*
X011557Y004559D01*
X011671Y004673D01*
X011837Y004673D01*
X011951Y004559D01*
X012065Y004673D01*
X012231Y004673D01*
X012345Y004559D01*
X012459Y004673D01*
X012624Y004673D01*
X012738Y004559D01*
X012852Y004673D01*
X013018Y004673D01*
X013132Y004559D01*
X013246Y004673D01*
X013412Y004673D01*
X013526Y004559D01*
X013640Y004673D01*
X013806Y004673D01*
X013920Y004559D01*
X014034Y004673D01*
X014199Y004673D01*
X014313Y004559D01*
X014427Y004673D01*
X014593Y004673D01*
X014707Y004559D01*
X014821Y004673D01*
X014987Y004673D01*
X015022Y004638D01*
X015022Y008410D01*
X013132Y010300D01*
X013132Y014709D01*
X009904Y017938D01*
X009904Y021750D01*
X000580Y021750D01*
X000580Y018406D01*
X000631Y018571D01*
X000906Y018975D01*
X000906Y018975D01*
X001289Y019279D01*
X001744Y019458D01*
X001744Y019458D01*
X002231Y019494D01*
X002231Y019494D01*
X002708Y019386D01*
X002708Y019386D01*
X003131Y019141D01*
X003131Y019141D01*
X003464Y018783D01*
X003464Y018783D01*
X003676Y018342D01*
X003676Y018342D01*
X003749Y017859D01*
X003676Y017376D01*
X003676Y017376D01*
X003464Y016935D01*
X003464Y016935D01*
X003131Y016577D01*
X003131Y016577D01*
X002708Y016332D01*
X002708Y016332D01*
X002231Y016224D01*
X002231Y016224D01*
X001744Y016260D01*
X001744Y016260D01*
X001289Y016439D01*
X001289Y016439D01*
X000906Y016744D01*
X000906Y016744D01*
X000906Y016744D01*
X000631Y017147D01*
X000631Y017147D01*
X000580Y017313D01*
X000580Y002658D01*
X000631Y002823D01*
X000631Y002823D01*
X000906Y003227D01*
X000906Y003227D01*
X000906Y003227D01*
X001289Y003531D01*
X001289Y003531D01*
X001744Y003710D01*
X001744Y003710D01*
X001855Y003718D01*
X001787Y003753D01*
X001709Y003809D01*
X001641Y003877D01*
X001585Y003955D01*
X001541Y004041D01*
X001511Y004133D01*
X001496Y004228D01*
X001496Y004236D01*
X002068Y004236D01*
X002068Y004316D01*
X001496Y004316D01*
X001496Y004325D01*
X001511Y004420D01*
X001541Y004511D01*
X001585Y004597D01*
X001641Y004675D01*
X001709Y004744D01*
X001787Y004800D01*
X001873Y004844D01*
X001965Y004874D01*
X002060Y004889D01*
X002069Y004889D01*
X002069Y004316D01*
X002149Y004316D01*
X002721Y004316D01*
X002721Y004325D01*
X002706Y004420D01*
X002676Y004511D01*
X002632Y004597D01*
X002576Y004675D01*
X002508Y004744D01*
X002430Y004800D01*
X002344Y004844D01*
X002252Y004874D01*
X002157Y004889D01*
X002149Y004889D01*
X002149Y004316D01*
X002149Y004236D01*
X002721Y004236D01*
X002721Y004228D01*
X002706Y004133D01*
X002676Y004041D01*
X002632Y003955D01*
X002576Y003877D01*
X002508Y003809D01*
X002430Y003753D01*
X002360Y003717D01*
X002708Y003638D01*
X002708Y003638D01*
X003131Y003393D01*
X003131Y003393D01*
X003464Y003035D01*
X003464Y003035D01*
X003676Y002594D01*
X003676Y002594D01*
X003749Y002111D01*
X003676Y001628D01*
X003676Y001628D01*
X003464Y001187D01*
X003464Y001187D01*
X003131Y000829D01*
X003131Y000829D01*
X003131Y000829D01*
X002708Y000584D01*
X002708Y000584D01*
X002758Y000614D02*
X015022Y000614D01*
X015022Y000692D02*
X002894Y000692D01*
X003030Y000771D02*
X015022Y000771D01*
X015022Y000849D02*
X003150Y000849D01*
X003223Y000928D02*
X015022Y000928D01*
X015022Y001006D02*
X003295Y001006D01*
X003368Y001085D02*
X015022Y001085D01*
X015179Y001085D02*
X032342Y001085D01*
X032288Y001163D02*
X031656Y001163D01*
X031651Y001161D02*
X031816Y001230D01*
X031943Y001356D01*
X032011Y001522D01*
X032011Y001701D01*
X031943Y001866D01*
X031816Y001993D01*
X031651Y002061D01*
X031472Y002061D01*
X031306Y001993D01*
X031180Y001866D01*
X031111Y001701D01*
X031111Y001522D01*
X031180Y001356D01*
X031306Y001230D01*
X031472Y001161D01*
X031651Y001161D01*
X031467Y001163D02*
X030656Y001163D01*
X030651Y001161D02*
X030816Y001230D01*
X030943Y001356D01*
X031011Y001522D01*
X031011Y001701D01*
X030943Y001866D01*
X030816Y001993D01*
X030651Y002061D01*
X030472Y002061D01*
X030306Y001993D01*
X030180Y001866D01*
X030111Y001701D01*
X030111Y001522D01*
X030180Y001356D01*
X030306Y001230D01*
X030472Y001161D01*
X030651Y001161D01*
X030467Y001163D02*
X029656Y001163D01*
X029651Y001161D02*
X029816Y001230D01*
X029943Y001356D01*
X030011Y001522D01*
X030011Y001701D01*
X029943Y001866D01*
X029816Y001993D01*
X029651Y002061D01*
X029472Y002061D01*
X029306Y001993D01*
X029180Y001866D01*
X029111Y001701D01*
X029111Y001522D01*
X029180Y001356D01*
X029306Y001230D01*
X029472Y001161D01*
X029651Y001161D01*
X029467Y001163D02*
X028656Y001163D01*
X028651Y001161D02*
X028816Y001230D01*
X028943Y001356D01*
X029011Y001522D01*
X029011Y001701D01*
X028943Y001866D01*
X028816Y001993D01*
X028651Y002061D01*
X028472Y002061D01*
X028306Y001993D01*
X028180Y001866D01*
X028111Y001701D01*
X028111Y001522D01*
X028180Y001356D01*
X028306Y001230D01*
X028472Y001161D01*
X028651Y001161D01*
X028467Y001163D02*
X026050Y001163D01*
X026010Y001124D02*
X026127Y001241D01*
X026127Y001872D01*
X026994Y001872D01*
X027782Y002659D01*
X027899Y002776D01*
X027899Y003862D01*
X028008Y003862D01*
X028055Y003909D01*
X028055Y004565D01*
X028008Y004612D01*
X027430Y004612D01*
X027383Y004565D01*
X027383Y003909D01*
X027430Y003862D01*
X027499Y003862D01*
X027499Y002942D01*
X027312Y002754D01*
X027312Y002756D01*
X027312Y003041D01*
X027203Y003304D01*
X027002Y003505D01*
X026739Y003614D01*
X026454Y003614D01*
X026191Y003505D01*
X026126Y003439D01*
X026126Y003526D01*
X027563Y004964D01*
X028008Y004964D01*
X028055Y005011D01*
X028055Y005668D01*
X028008Y005715D01*
X027430Y005715D01*
X027383Y005668D01*
X027383Y005349D01*
X026127Y004094D01*
X026127Y004556D01*
X026010Y004673D01*
X025845Y004673D01*
X025734Y004562D01*
X025734Y006721D01*
X015694Y016761D01*
X015301Y017154D01*
X013805Y018651D01*
X013805Y020100D01*
X013918Y020147D01*
X014073Y020302D01*
X014157Y020505D01*
X014157Y020725D01*
X014073Y020928D01*
X013918Y021083D01*
X013714Y021167D01*
X013495Y021167D01*
X013292Y021083D01*
X013136Y020928D01*
X013052Y020725D01*
X013052Y020505D01*
X013136Y020302D01*
X013292Y020147D01*
X013405Y020100D01*
X013405Y018485D01*
X015018Y016872D01*
X015411Y016478D01*
X025334Y006556D01*
X025334Y005940D01*
X017072Y014202D01*
X016875Y014399D01*
X011757Y019517D01*
X011757Y020100D01*
X011870Y020147D01*
X012026Y020302D01*
X012110Y020505D01*
X012110Y020725D01*
X012026Y020928D01*
X011870Y021083D01*
X011667Y021167D01*
X011447Y021167D01*
X011244Y021083D01*
X011089Y020928D01*
X011005Y020725D01*
X011005Y020505D01*
X011089Y020302D01*
X011244Y020147D01*
X011357Y020100D01*
X011357Y019351D01*
X016593Y014116D01*
X016789Y013919D01*
X024940Y005768D01*
X024940Y004562D01*
X024829Y004673D01*
X024663Y004673D01*
X024549Y004559D01*
X024435Y004673D01*
X024270Y004673D01*
X024156Y004559D01*
X024042Y004673D01*
X023876Y004673D01*
X023762Y004559D01*
X023648Y004673D01*
X023482Y004673D01*
X023368Y004559D01*
X023254Y004673D01*
X023089Y004673D01*
X022975Y004559D01*
X022861Y004673D01*
X022695Y004673D01*
X022581Y004559D01*
X022467Y004673D01*
X022301Y004673D01*
X022187Y004559D01*
X022073Y004673D01*
X021908Y004673D01*
X021794Y004559D01*
X021680Y004673D01*
X021514Y004673D01*
X021400Y004559D01*
X021286Y004673D01*
X021120Y004673D01*
X021006Y004559D01*
X020892Y004673D01*
X020726Y004673D01*
X020612Y004559D01*
X020498Y004673D01*
X020333Y004673D01*
X020219Y004559D01*
X020105Y004673D01*
X019939Y004673D01*
X019825Y004559D01*
X019711Y004673D01*
X019545Y004673D01*
X019431Y004559D01*
X019317Y004673D01*
X019152Y004673D01*
X019038Y004559D01*
X018924Y004673D01*
X018758Y004673D01*
X018644Y004559D01*
X018530Y004673D01*
X018364Y004673D01*
X018250Y004559D01*
X018136Y004673D01*
X017971Y004673D01*
X017857Y004559D01*
X017743Y004673D01*
X017577Y004673D01*
X017463Y004559D01*
X017349Y004673D01*
X017183Y004673D01*
X017069Y004559D01*
X016955Y004673D01*
X016789Y004673D01*
X016675Y004559D01*
X016561Y004673D01*
X016396Y004673D01*
X016282Y004559D01*
X016168Y004673D01*
X016002Y004673D01*
X015888Y004559D01*
X015774Y004673D01*
X015608Y004673D01*
X015494Y004559D01*
X015380Y004673D01*
X015215Y004673D01*
X015179Y004638D01*
X015179Y008489D01*
X013290Y010379D01*
X013290Y014828D01*
X010061Y018056D01*
X010061Y021750D01*
X035133Y021750D01*
X035133Y018423D01*
X034960Y018783D01*
X034627Y019141D01*
X034204Y019386D01*
X034204Y019386D01*
X033727Y019494D01*
X033240Y019458D01*
X033240Y019458D01*
X032785Y019279D01*
X032785Y019279D01*
X032402Y018975D01*
X032402Y018975D01*
X032402Y018975D01*
X032127Y018571D01*
X032127Y018571D01*
X031983Y018103D01*
X031983Y017615D01*
X032127Y017147D01*
X032402Y016744D01*
X032402Y016744D01*
X032402Y016744D01*
X032785Y016439D01*
X033240Y016260D01*
X033727Y016224D01*
X034204Y016332D01*
X034627Y016577D01*
X034960Y016935D01*
X034960Y016935D01*
X035133Y017295D01*
X035133Y002675D01*
X034960Y003035D01*
X034627Y003393D01*
X034204Y003638D01*
X034204Y003638D01*
X033856Y003717D01*
X033926Y003753D01*
X034004Y003809D01*
X034072Y003877D01*
X034128Y003955D01*
X034172Y004041D01*
X034202Y004133D01*
X034217Y004228D01*
X034217Y004236D01*
X033645Y004236D01*
X033645Y004316D01*
X034217Y004316D01*
X034217Y004325D01*
X034202Y004420D01*
X034172Y004511D01*
X034128Y004597D01*
X034072Y004675D01*
X034004Y004744D01*
X033926Y004800D01*
X033840Y004844D01*
X033748Y004874D01*
X033653Y004889D01*
X033645Y004889D01*
X033645Y004316D01*
X033565Y004316D01*
X033565Y004236D01*
X032992Y004236D01*
X032992Y004228D01*
X033007Y004133D01*
X033037Y004041D01*
X033081Y003955D01*
X033137Y003877D01*
X033206Y003809D01*
X033284Y003753D01*
X033351Y003718D01*
X033240Y003710D01*
X033240Y003710D01*
X032785Y003531D01*
X032402Y003227D01*
X032402Y003227D01*
X032127Y002823D01*
X032127Y002823D01*
X031983Y002355D01*
X031983Y001867D01*
X032127Y001399D01*
X032402Y000996D01*
X032402Y000996D01*
X032785Y000691D01*
X033060Y000583D01*
X015179Y000583D01*
X015179Y001159D01*
X015215Y001124D01*
X015380Y001124D01*
X015494Y001238D01*
X015608Y001124D01*
X015774Y001124D01*
X015888Y001238D01*
X016002Y001124D01*
X016168Y001124D01*
X016282Y001238D01*
X016396Y001124D01*
X016561Y001124D01*
X016675Y001238D01*
X016789Y001124D01*
X016955Y001124D01*
X017069Y001238D01*
X017183Y001124D01*
X017349Y001124D01*
X017463Y001238D01*
X017577Y001124D01*
X017743Y001124D01*
X017857Y001238D01*
X017971Y001124D01*
X018136Y001124D01*
X018250Y001238D01*
X018364Y001124D01*
X018530Y001124D01*
X018644Y001238D01*
X018758Y001124D01*
X018924Y001124D01*
X019038Y001238D01*
X019152Y001124D01*
X019317Y001124D01*
X019431Y001238D01*
X019545Y001124D01*
X019711Y001124D01*
X019825Y001238D01*
X019939Y001124D01*
X020105Y001124D01*
X020219Y001238D01*
X020333Y001124D01*
X020498Y001124D01*
X020612Y001238D01*
X020726Y001124D01*
X020892Y001124D01*
X021006Y001238D01*
X021120Y001124D01*
X021286Y001124D01*
X021400Y001238D01*
X021514Y001124D01*
X021680Y001124D01*
X021794Y001238D01*
X021908Y001124D01*
X022073Y001124D01*
X022187Y001238D01*
X022301Y001124D01*
X022467Y001124D01*
X022581Y001238D01*
X022695Y001124D01*
X022861Y001124D01*
X022975Y001238D01*
X023089Y001124D01*
X023254Y001124D01*
X023368Y001238D01*
X023482Y001124D01*
X023648Y001124D01*
X023762Y001238D01*
X023876Y001124D01*
X024042Y001124D01*
X024156Y001238D01*
X024270Y001124D01*
X024435Y001124D01*
X024549Y001238D01*
X024663Y001124D01*
X024829Y001124D01*
X024943Y001238D01*
X025057Y001124D01*
X025223Y001124D01*
X025337Y001238D01*
X025451Y001124D01*
X025617Y001124D01*
X025731Y001238D01*
X025845Y001124D01*
X026010Y001124D01*
X026127Y001242D02*
X028294Y001242D01*
X028216Y001320D02*
X026127Y001320D01*
X026127Y001399D02*
X028162Y001399D01*
X028130Y001477D02*
X026127Y001477D01*
X026127Y001556D02*
X028111Y001556D01*
X028111Y001634D02*
X026127Y001634D01*
X026127Y001713D02*
X028116Y001713D01*
X028149Y001791D02*
X026127Y001791D01*
X026127Y001870D02*
X028183Y001870D01*
X028262Y001948D02*
X027071Y001948D01*
X027149Y002027D02*
X028388Y002027D01*
X028472Y002161D02*
X028651Y002161D01*
X028816Y002230D01*
X028943Y002356D01*
X029011Y002522D01*
X029011Y002701D01*
X028943Y002866D01*
X028816Y002993D01*
X028651Y003061D01*
X028472Y003061D01*
X028306Y002993D01*
X028180Y002866D01*
X028111Y002701D01*
X028111Y002522D01*
X028180Y002356D01*
X028306Y002230D01*
X028472Y002161D01*
X028417Y002184D02*
X027306Y002184D01*
X027385Y002262D02*
X028274Y002262D01*
X028195Y002341D02*
X027463Y002341D01*
X027542Y002419D02*
X028154Y002419D01*
X028121Y002498D02*
X027620Y002498D01*
X027699Y002576D02*
X028111Y002576D01*
X028111Y002655D02*
X027777Y002655D01*
X027856Y002733D02*
X028125Y002733D01*
X028157Y002812D02*
X027899Y002812D01*
X027899Y002890D02*
X028204Y002890D01*
X028282Y002969D02*
X027899Y002969D01*
X027899Y003047D02*
X028438Y003047D01*
X028685Y003047D02*
X029438Y003047D01*
X029472Y003061D02*
X029306Y002993D01*
X029180Y002866D01*
X029111Y002701D01*
X029111Y002522D01*
X029180Y002356D01*
X029306Y002230D01*
X029472Y002161D01*
X029651Y002161D01*
X029816Y002230D01*
X029943Y002356D01*
X030011Y002522D01*
X030011Y002701D01*
X029943Y002866D01*
X029816Y002993D01*
X029651Y003061D01*
X029472Y003061D01*
X029282Y002969D02*
X028840Y002969D01*
X028919Y002890D02*
X029204Y002890D01*
X029157Y002812D02*
X028965Y002812D01*
X028998Y002733D02*
X029125Y002733D01*
X029111Y002655D02*
X029011Y002655D01*
X029011Y002576D02*
X029111Y002576D01*
X029121Y002498D02*
X029001Y002498D01*
X028969Y002419D02*
X029154Y002419D01*
X029195Y002341D02*
X028927Y002341D01*
X028849Y002262D02*
X029274Y002262D01*
X029417Y002184D02*
X028705Y002184D01*
X028734Y002027D02*
X029388Y002027D01*
X029262Y001948D02*
X028861Y001948D01*
X028939Y001870D02*
X029183Y001870D01*
X029149Y001791D02*
X028974Y001791D01*
X029006Y001713D02*
X029116Y001713D01*
X029111Y001634D02*
X029011Y001634D01*
X029011Y001556D02*
X029111Y001556D01*
X029130Y001477D02*
X028993Y001477D01*
X028960Y001399D02*
X029162Y001399D01*
X029216Y001320D02*
X028907Y001320D01*
X028828Y001242D02*
X029294Y001242D01*
X029828Y001242D02*
X030294Y001242D01*
X030216Y001320D02*
X029907Y001320D01*
X029960Y001399D02*
X030162Y001399D01*
X030130Y001477D02*
X029993Y001477D01*
X030011Y001556D02*
X030111Y001556D01*
X030111Y001634D02*
X030011Y001634D01*
X030006Y001713D02*
X030116Y001713D01*
X030149Y001791D02*
X029974Y001791D01*
X029939Y001870D02*
X030183Y001870D01*
X030262Y001948D02*
X029861Y001948D01*
X029734Y002027D02*
X030388Y002027D01*
X030472Y002161D02*
X030651Y002161D01*
X030816Y002230D01*
X030943Y002356D01*
X031011Y002522D01*
X031011Y002701D01*
X030943Y002866D01*
X030816Y002993D01*
X030651Y003061D01*
X030472Y003061D01*
X030306Y002993D01*
X030180Y002866D01*
X030111Y002701D01*
X030111Y002522D01*
X030180Y002356D01*
X030306Y002230D01*
X030472Y002161D01*
X030417Y002184D02*
X029705Y002184D01*
X029849Y002262D02*
X030274Y002262D01*
X030195Y002341D02*
X029927Y002341D01*
X029969Y002419D02*
X030154Y002419D01*
X030121Y002498D02*
X030001Y002498D01*
X030011Y002576D02*
X030111Y002576D01*
X030111Y002655D02*
X030011Y002655D01*
X029998Y002733D02*
X030125Y002733D01*
X030157Y002812D02*
X029965Y002812D01*
X029919Y002890D02*
X030204Y002890D01*
X030282Y002969D02*
X029840Y002969D01*
X029685Y003047D02*
X030438Y003047D01*
X030685Y003047D02*
X031438Y003047D01*
X031472Y003061D02*
X031306Y002993D01*
X031180Y002866D01*
X031111Y002701D01*
X031111Y002522D01*
X031180Y002356D01*
X031306Y002230D01*
X031472Y002161D01*
X031651Y002161D01*
X031816Y002230D01*
X031943Y002356D01*
X032011Y002522D01*
X032011Y002701D01*
X031943Y002866D01*
X031816Y002993D01*
X031651Y003061D01*
X031472Y003061D01*
X031282Y002969D02*
X030840Y002969D01*
X030919Y002890D02*
X031204Y002890D01*
X031157Y002812D02*
X030965Y002812D01*
X030998Y002733D02*
X031125Y002733D01*
X031111Y002655D02*
X031011Y002655D01*
X031011Y002576D02*
X031111Y002576D01*
X031121Y002498D02*
X031001Y002498D01*
X030969Y002419D02*
X031154Y002419D01*
X031195Y002341D02*
X030927Y002341D01*
X030849Y002262D02*
X031274Y002262D01*
X031417Y002184D02*
X030705Y002184D01*
X030734Y002027D02*
X031388Y002027D01*
X031262Y001948D02*
X030861Y001948D01*
X030939Y001870D02*
X031183Y001870D01*
X031149Y001791D02*
X030974Y001791D01*
X031006Y001713D02*
X031116Y001713D01*
X031111Y001634D02*
X031011Y001634D01*
X031011Y001556D02*
X031111Y001556D01*
X031130Y001477D02*
X030993Y001477D01*
X030960Y001399D02*
X031162Y001399D01*
X031216Y001320D02*
X030907Y001320D01*
X030828Y001242D02*
X031294Y001242D01*
X031828Y001242D02*
X032235Y001242D01*
X032181Y001320D02*
X031907Y001320D01*
X031960Y001399D02*
X032128Y001399D01*
X032127Y001399D02*
X032127Y001399D01*
X032103Y001477D02*
X031993Y001477D01*
X032011Y001556D02*
X032079Y001556D01*
X032055Y001634D02*
X032011Y001634D01*
X032006Y001713D02*
X032030Y001713D01*
X032006Y001791D02*
X031974Y001791D01*
X031983Y001870D02*
X031939Y001870D01*
X031983Y001948D02*
X031861Y001948D01*
X031983Y002027D02*
X031734Y002027D01*
X031705Y002184D02*
X031983Y002184D01*
X031983Y002262D02*
X031849Y002262D01*
X031927Y002341D02*
X031983Y002341D01*
X031969Y002419D02*
X032002Y002419D01*
X032001Y002498D02*
X032027Y002498D01*
X032011Y002576D02*
X032051Y002576D01*
X032075Y002655D02*
X032011Y002655D01*
X031998Y002733D02*
X032099Y002733D01*
X032124Y002812D02*
X031965Y002812D01*
X031919Y002890D02*
X032173Y002890D01*
X032226Y002969D02*
X031840Y002969D01*
X031685Y003047D02*
X032280Y003047D01*
X032334Y003126D02*
X027899Y003126D01*
X027899Y003204D02*
X032387Y003204D01*
X032473Y003283D02*
X027899Y003283D01*
X027899Y003361D02*
X032571Y003361D01*
X032669Y003440D02*
X027899Y003440D01*
X027899Y003518D02*
X032768Y003518D01*
X032785Y003531D02*
X032785Y003531D01*
X032951Y003597D02*
X027899Y003597D01*
X027899Y003675D02*
X033151Y003675D01*
X033282Y003754D02*
X027899Y003754D01*
X027899Y003832D02*
X028123Y003832D01*
X028125Y003830D02*
X028157Y003811D01*
X028192Y003802D01*
X028427Y003802D01*
X028427Y004197D01*
X028507Y004197D01*
X028507Y004277D01*
X028863Y004277D01*
X028863Y004551D01*
X028853Y004586D01*
X028835Y004618D01*
X028809Y004644D01*
X028777Y004663D01*
X028741Y004672D01*
X028507Y004672D01*
X028507Y004277D01*
X028427Y004277D01*
X028427Y004672D01*
X028192Y004672D01*
X028157Y004663D01*
X028125Y004644D01*
X028099Y004618D01*
X028080Y004586D01*
X028071Y004551D01*
X028071Y004277D01*
X028427Y004277D01*
X028427Y004197D01*
X028071Y004197D01*
X028071Y003923D01*
X028080Y003888D01*
X028099Y003856D01*
X028125Y003830D01*
X028074Y003911D02*
X028055Y003911D01*
X028055Y003989D02*
X028071Y003989D01*
X028071Y004068D02*
X028055Y004068D01*
X028055Y004146D02*
X028071Y004146D01*
X028055Y004225D02*
X028427Y004225D01*
X028427Y004303D02*
X028507Y004303D01*
X028507Y004225D02*
X032993Y004225D01*
X033005Y004146D02*
X028863Y004146D01*
X028863Y004197D02*
X028507Y004197D01*
X028507Y003802D01*
X028741Y003802D01*
X028777Y003811D01*
X028809Y003830D01*
X028835Y003856D01*
X028853Y003888D01*
X028863Y003923D01*
X028863Y004197D01*
X028863Y004303D02*
X033565Y004303D01*
X033565Y004316D02*
X032992Y004316D01*
X032992Y004325D01*
X033007Y004420D01*
X033037Y004511D01*
X033081Y004597D01*
X033137Y004675D01*
X033206Y004744D01*
X033284Y004800D01*
X033369Y004844D01*
X033461Y004874D01*
X033556Y004889D01*
X033565Y004889D01*
X033565Y004316D01*
X033565Y004382D02*
X033645Y004382D01*
X033645Y004460D02*
X033565Y004460D01*
X033565Y004539D02*
X033645Y004539D01*
X033645Y004617D02*
X033565Y004617D01*
X033565Y004696D02*
X033645Y004696D01*
X033645Y004774D02*
X033565Y004774D01*
X033565Y004853D02*
X033645Y004853D01*
X033813Y004853D02*
X035133Y004853D01*
X035133Y004931D02*
X028807Y004931D01*
X028809Y004932D02*
X028835Y004958D01*
X028853Y004990D01*
X028863Y005026D01*
X028863Y005299D01*
X028507Y005299D01*
X028507Y004904D01*
X028741Y004904D01*
X028777Y004914D01*
X028809Y004932D01*
X028858Y005010D02*
X035133Y005010D01*
X035133Y005088D02*
X028863Y005088D01*
X028863Y005167D02*
X035133Y005167D01*
X035133Y005245D02*
X028863Y005245D01*
X028863Y005379D02*
X028507Y005379D01*
X028507Y005299D01*
X028427Y005299D01*
X028427Y004904D01*
X028192Y004904D01*
X028157Y004914D01*
X028125Y004932D01*
X028099Y004958D01*
X028080Y004990D01*
X028071Y005026D01*
X028071Y005299D01*
X028427Y005299D01*
X028427Y005379D01*
X028071Y005379D01*
X028071Y005653D01*
X028080Y005689D01*
X028099Y005721D01*
X028125Y005747D01*
X028157Y005765D01*
X028192Y005775D01*
X028427Y005775D01*
X028427Y005379D01*
X028507Y005379D01*
X028507Y005775D01*
X028741Y005775D01*
X028777Y005765D01*
X028809Y005747D01*
X028835Y005721D01*
X028853Y005689D01*
X028863Y005653D01*
X028863Y005379D01*
X028863Y005402D02*
X035133Y005402D01*
X035133Y005324D02*
X028507Y005324D01*
X028507Y005402D02*
X028427Y005402D01*
X028427Y005324D02*
X028055Y005324D01*
X028055Y005402D02*
X028071Y005402D01*
X028071Y005481D02*
X028055Y005481D01*
X028055Y005559D02*
X028071Y005559D01*
X028071Y005638D02*
X028055Y005638D01*
X028096Y005716D02*
X025734Y005716D01*
X025734Y005638D02*
X027383Y005638D01*
X027383Y005559D02*
X025734Y005559D01*
X025734Y005481D02*
X027383Y005481D01*
X027383Y005402D02*
X025734Y005402D01*
X025734Y005324D02*
X027357Y005324D01*
X027279Y005245D02*
X025734Y005245D01*
X025734Y005167D02*
X027200Y005167D01*
X027122Y005088D02*
X025734Y005088D01*
X025734Y005010D02*
X027043Y005010D01*
X026965Y004931D02*
X025734Y004931D01*
X025734Y004853D02*
X026886Y004853D01*
X026808Y004774D02*
X025734Y004774D01*
X025734Y004696D02*
X026729Y004696D01*
X026651Y004617D02*
X026066Y004617D01*
X026127Y004539D02*
X026572Y004539D01*
X026494Y004460D02*
X026127Y004460D01*
X026127Y004382D02*
X026415Y004382D01*
X026337Y004303D02*
X026127Y004303D01*
X026127Y004225D02*
X026258Y004225D01*
X026180Y004146D02*
X026127Y004146D01*
X026431Y003832D02*
X027499Y003832D01*
X027499Y003754D02*
X026353Y003754D01*
X026274Y003675D02*
X027499Y003675D01*
X027499Y003597D02*
X026781Y003597D01*
X026971Y003518D02*
X027499Y003518D01*
X027499Y003440D02*
X027068Y003440D01*
X027146Y003361D02*
X027499Y003361D01*
X027499Y003283D02*
X027212Y003283D01*
X027245Y003204D02*
X027499Y003204D01*
X027499Y003126D02*
X027277Y003126D01*
X027310Y003047D02*
X027499Y003047D01*
X027499Y002969D02*
X027312Y002969D01*
X027312Y002890D02*
X027447Y002890D01*
X027369Y002812D02*
X027312Y002812D01*
X027228Y002105D02*
X031983Y002105D01*
X032395Y001006D02*
X015179Y001006D01*
X015179Y000928D02*
X032488Y000928D01*
X032402Y000996D02*
X032402Y000996D01*
X032586Y000849D02*
X015179Y000849D01*
X015179Y000771D02*
X032685Y000771D01*
X032783Y000692D02*
X015179Y000692D01*
X015179Y000614D02*
X032981Y000614D01*
X032785Y000691D02*
X032785Y000691D01*
X035105Y002733D02*
X035133Y002733D01*
X035133Y002812D02*
X035067Y002812D01*
X035029Y002890D02*
X035133Y002890D01*
X035133Y002969D02*
X034992Y002969D01*
X034960Y003035D02*
X034960Y003035D01*
X034948Y003047D02*
X035133Y003047D01*
X035133Y003126D02*
X034875Y003126D01*
X034803Y003204D02*
X035133Y003204D01*
X035133Y003283D02*
X034730Y003283D01*
X034657Y003361D02*
X035133Y003361D01*
X035133Y003440D02*
X034547Y003440D01*
X034627Y003393D02*
X034627Y003393D01*
X034411Y003518D02*
X035133Y003518D01*
X035133Y003597D02*
X034275Y003597D01*
X034040Y003675D02*
X035133Y003675D01*
X035133Y003754D02*
X033927Y003754D01*
X034026Y003832D02*
X035133Y003832D01*
X035133Y003911D02*
X034096Y003911D01*
X034146Y003989D02*
X035133Y003989D01*
X035133Y004068D02*
X034181Y004068D01*
X034204Y004146D02*
X035133Y004146D01*
X035133Y004225D02*
X034216Y004225D01*
X034208Y004382D02*
X035133Y004382D01*
X035133Y004460D02*
X034189Y004460D01*
X034158Y004539D02*
X035133Y004539D01*
X035133Y004617D02*
X034114Y004617D01*
X034052Y004696D02*
X035133Y004696D01*
X035133Y004774D02*
X033962Y004774D01*
X033645Y004303D02*
X035133Y004303D01*
X035133Y005481D02*
X028863Y005481D01*
X028863Y005559D02*
X035133Y005559D01*
X035133Y005638D02*
X028863Y005638D01*
X028837Y005716D02*
X035133Y005716D01*
X035133Y005795D02*
X025734Y005795D01*
X025734Y005873D02*
X035133Y005873D01*
X035133Y005952D02*
X025734Y005952D01*
X025734Y006030D02*
X035133Y006030D01*
X035133Y006109D02*
X025734Y006109D01*
X025734Y006187D02*
X032981Y006187D01*
X033015Y006173D02*
X033194Y006173D01*
X033359Y006241D01*
X033486Y006368D01*
X033555Y006533D01*
X033555Y006712D01*
X033486Y006878D01*
X033359Y007004D01*
X033194Y007073D01*
X033015Y007073D01*
X032850Y007004D01*
X032723Y006878D01*
X032655Y006712D01*
X032655Y006533D01*
X032723Y006368D01*
X032850Y006241D01*
X033015Y006173D01*
X032825Y006266D02*
X025734Y006266D01*
X025734Y006344D02*
X032747Y006344D01*
X032700Y006423D02*
X025734Y006423D01*
X025734Y006501D02*
X032668Y006501D01*
X032655Y006580D02*
X025734Y006580D01*
X025734Y006658D02*
X032655Y006658D01*
X032665Y006737D02*
X025719Y006737D01*
X025640Y006815D02*
X032697Y006815D01*
X032739Y006894D02*
X025562Y006894D01*
X025483Y006972D02*
X032817Y006972D01*
X032961Y007051D02*
X025405Y007051D01*
X025326Y007129D02*
X035133Y007129D01*
X035133Y007051D02*
X034248Y007051D01*
X034194Y007073D02*
X034015Y007073D01*
X033850Y007004D01*
X033723Y006878D01*
X033655Y006712D01*
X033655Y006533D01*
X033723Y006368D01*
X033850Y006241D01*
X034015Y006173D01*
X034194Y006173D01*
X034359Y006241D01*
X034486Y006368D01*
X034555Y006533D01*
X034555Y006712D01*
X034486Y006878D01*
X034359Y007004D01*
X034194Y007073D01*
X034194Y007173D02*
X034359Y007241D01*
X034486Y007368D01*
X034555Y007533D01*
X034555Y007712D01*
X034486Y007878D01*
X034359Y008004D01*
X034194Y008073D01*
X034015Y008073D01*
X033850Y008004D01*
X033723Y007878D01*
X033655Y007712D01*
X033655Y007533D01*
X033723Y007368D01*
X033850Y007241D01*
X034015Y007173D01*
X034194Y007173D01*
X034278Y007208D02*
X035133Y007208D01*
X035133Y007286D02*
X034404Y007286D01*
X034483Y007365D02*
X035133Y007365D01*
X035133Y007443D02*
X034517Y007443D01*
X034550Y007522D02*
X035133Y007522D01*
X035133Y007600D02*
X034555Y007600D01*
X034555Y007679D02*
X035133Y007679D01*
X035133Y007757D02*
X034536Y007757D01*
X034504Y007836D02*
X035133Y007836D01*
X035133Y007914D02*
X034450Y007914D01*
X034371Y007993D02*
X035133Y007993D01*
X035133Y008071D02*
X034198Y008071D01*
X034194Y008173D02*
X034359Y008241D01*
X034486Y008368D01*
X034555Y008533D01*
X034555Y008712D01*
X034486Y008878D01*
X034359Y009004D01*
X034194Y009073D01*
X034015Y009073D01*
X033850Y009004D01*
X033723Y008878D01*
X033655Y008712D01*
X033655Y008533D01*
X033723Y008368D01*
X033850Y008241D01*
X034015Y008173D01*
X034194Y008173D01*
X034327Y008228D02*
X035133Y008228D01*
X035133Y008150D02*
X024306Y008150D01*
X024227Y008228D02*
X032882Y008228D01*
X032850Y008241D02*
X033015Y008173D01*
X033194Y008173D01*
X033359Y008241D01*
X033486Y008368D01*
X033555Y008533D01*
X033555Y008712D01*
X033486Y008878D01*
X033359Y009004D01*
X033194Y009073D01*
X033015Y009073D01*
X032850Y009004D01*
X032723Y008878D01*
X032655Y008712D01*
X032655Y008533D01*
X032723Y008368D01*
X032850Y008241D01*
X032784Y008307D02*
X024149Y008307D01*
X024070Y008385D02*
X032716Y008385D01*
X032683Y008464D02*
X023992Y008464D01*
X023913Y008542D02*
X032655Y008542D01*
X032655Y008621D02*
X023835Y008621D01*
X023756Y008699D02*
X032655Y008699D01*
X032682Y008778D02*
X023678Y008778D01*
X023599Y008856D02*
X032714Y008856D01*
X032780Y008935D02*
X023521Y008935D01*
X023442Y009013D02*
X032871Y009013D01*
X033338Y009013D02*
X033871Y009013D01*
X033780Y008935D02*
X033429Y008935D01*
X033495Y008856D02*
X033714Y008856D01*
X033682Y008778D02*
X033528Y008778D01*
X033555Y008699D02*
X033655Y008699D01*
X033655Y008621D02*
X033555Y008621D01*
X033555Y008542D02*
X033655Y008542D01*
X033683Y008464D02*
X033526Y008464D01*
X033493Y008385D02*
X033716Y008385D01*
X033784Y008307D02*
X033425Y008307D01*
X033327Y008228D02*
X033882Y008228D01*
X034011Y008071D02*
X033198Y008071D01*
X033194Y008073D02*
X033015Y008073D01*
X032850Y008004D01*
X032723Y007878D01*
X032655Y007712D01*
X032655Y007533D01*
X032723Y007368D01*
X032850Y007241D01*
X033015Y007173D01*
X033194Y007173D01*
X033359Y007241D01*
X033486Y007368D01*
X033555Y007533D01*
X033555Y007712D01*
X033486Y007878D01*
X033359Y008004D01*
X033194Y008073D01*
X033011Y008071D02*
X024384Y008071D01*
X024463Y007993D02*
X032838Y007993D01*
X032759Y007914D02*
X024541Y007914D01*
X024620Y007836D02*
X032706Y007836D01*
X032673Y007757D02*
X024698Y007757D01*
X024777Y007679D02*
X032655Y007679D01*
X032655Y007600D02*
X024855Y007600D01*
X024934Y007522D02*
X032659Y007522D01*
X032692Y007443D02*
X025012Y007443D01*
X025091Y007365D02*
X032726Y007365D01*
X032805Y007286D02*
X025169Y007286D01*
X025248Y007208D02*
X032931Y007208D01*
X033278Y007208D02*
X033931Y007208D01*
X033805Y007286D02*
X033404Y007286D01*
X033483Y007365D02*
X033726Y007365D01*
X033692Y007443D02*
X033517Y007443D01*
X033550Y007522D02*
X033659Y007522D01*
X033655Y007600D02*
X033555Y007600D01*
X033555Y007679D02*
X033655Y007679D01*
X033673Y007757D02*
X033536Y007757D01*
X033504Y007836D02*
X033706Y007836D01*
X033759Y007914D02*
X033450Y007914D01*
X033371Y007993D02*
X033838Y007993D01*
X034425Y008307D02*
X035133Y008307D01*
X035133Y008385D02*
X034493Y008385D01*
X034526Y008464D02*
X035133Y008464D01*
X035133Y008542D02*
X034555Y008542D01*
X034555Y008621D02*
X035133Y008621D01*
X035133Y008699D02*
X034555Y008699D01*
X034528Y008778D02*
X035133Y008778D01*
X035133Y008856D02*
X034495Y008856D01*
X034429Y008935D02*
X035133Y008935D01*
X035133Y009013D02*
X034338Y009013D01*
X035133Y009092D02*
X023364Y009092D01*
X023285Y009170D02*
X035133Y009170D01*
X035133Y009249D02*
X023207Y009249D01*
X023128Y009327D02*
X035133Y009327D01*
X035133Y009406D02*
X023050Y009406D01*
X022971Y009484D02*
X035133Y009484D01*
X035133Y009563D02*
X022893Y009563D01*
X022814Y009641D02*
X035133Y009641D01*
X035133Y009720D02*
X034202Y009720D01*
X034194Y009716D02*
X034359Y009785D01*
X034486Y009911D01*
X034555Y010077D01*
X034555Y010256D01*
X034486Y010421D01*
X034359Y010548D01*
X034194Y010616D01*
X034015Y010616D01*
X033850Y010548D01*
X033723Y010421D01*
X033655Y010256D01*
X033655Y010077D01*
X033723Y009911D01*
X033850Y009785D01*
X034015Y009716D01*
X034194Y009716D01*
X034007Y009720D02*
X033202Y009720D01*
X033194Y009716D02*
X033359Y009785D01*
X033486Y009911D01*
X033555Y010077D01*
X033555Y010256D01*
X033486Y010421D01*
X033359Y010548D01*
X033194Y010616D01*
X033015Y010616D01*
X032850Y010548D01*
X032723Y010421D01*
X032655Y010256D01*
X032655Y010077D01*
X032723Y009911D01*
X032850Y009785D01*
X033015Y009716D01*
X033194Y009716D01*
X033007Y009720D02*
X022736Y009720D01*
X022657Y009798D02*
X032836Y009798D01*
X032758Y009877D02*
X022579Y009877D01*
X022500Y009955D02*
X032705Y009955D01*
X032672Y010034D02*
X022422Y010034D01*
X022343Y010112D02*
X032655Y010112D01*
X032655Y010191D02*
X022265Y010191D01*
X022186Y010269D02*
X032660Y010269D01*
X032693Y010348D02*
X022108Y010348D01*
X022029Y010426D02*
X032728Y010426D01*
X032807Y010505D02*
X021951Y010505D01*
X021872Y010583D02*
X032935Y010583D01*
X033015Y010716D02*
X033194Y010716D01*
X033359Y010785D01*
X033486Y010911D01*
X033555Y011077D01*
X033555Y011256D01*
X033486Y011421D01*
X033359Y011548D01*
X033194Y011616D01*
X033015Y011616D01*
X032850Y011548D01*
X032723Y011421D01*
X032655Y011256D01*
X032655Y011077D01*
X032723Y010911D01*
X032850Y010785D01*
X033015Y010716D01*
X032957Y010740D02*
X021715Y010740D01*
X021637Y010819D02*
X032816Y010819D01*
X032737Y010897D02*
X021558Y010897D01*
X021480Y010976D02*
X032696Y010976D01*
X032664Y011054D02*
X021401Y011054D01*
X021323Y011133D02*
X032655Y011133D01*
X032655Y011211D02*
X021244Y011211D01*
X021166Y011290D02*
X032669Y011290D01*
X032701Y011368D02*
X021087Y011368D01*
X021009Y011447D02*
X032749Y011447D01*
X032827Y011525D02*
X020930Y011525D01*
X020852Y011604D02*
X032985Y011604D01*
X033015Y011716D02*
X032850Y011785D01*
X032723Y011911D01*
X032655Y012077D01*
X032655Y012256D01*
X032723Y012421D01*
X032850Y012548D01*
X033015Y012616D01*
X033194Y012616D01*
X033359Y012548D01*
X033486Y012421D01*
X033555Y012256D01*
X033555Y012077D01*
X033486Y011911D01*
X033359Y011785D01*
X033194Y011716D01*
X033015Y011716D01*
X032908Y011761D02*
X020695Y011761D01*
X020616Y011839D02*
X032795Y011839D01*
X032720Y011918D02*
X020538Y011918D01*
X020459Y011996D02*
X032688Y011996D01*
X032655Y012075D02*
X020381Y012075D01*
X020302Y012153D02*
X032655Y012153D01*
X032655Y012232D02*
X020224Y012232D01*
X020145Y012310D02*
X032677Y012310D01*
X032710Y012389D02*
X020067Y012389D01*
X019988Y012467D02*
X032769Y012467D01*
X032848Y012546D02*
X019910Y012546D01*
X019831Y012624D02*
X035133Y012624D01*
X035133Y012546D02*
X034362Y012546D01*
X034359Y012548D02*
X034194Y012616D01*
X034015Y012616D01*
X033850Y012548D01*
X033723Y012421D01*
X033655Y012256D01*
X033655Y012077D01*
X033723Y011911D01*
X033850Y011785D01*
X034015Y011716D01*
X034194Y011716D01*
X034359Y011785D01*
X034486Y011911D01*
X034555Y012077D01*
X034555Y012256D01*
X034486Y012421D01*
X034359Y012548D01*
X034440Y012467D02*
X035133Y012467D01*
X035133Y012389D02*
X034500Y012389D01*
X034532Y012310D02*
X035133Y012310D01*
X035133Y012232D02*
X034555Y012232D01*
X034555Y012153D02*
X035133Y012153D01*
X035133Y012075D02*
X034554Y012075D01*
X034521Y011996D02*
X035133Y011996D01*
X035133Y011918D02*
X034489Y011918D01*
X034414Y011839D02*
X035133Y011839D01*
X035133Y011761D02*
X034301Y011761D01*
X034224Y011604D02*
X035133Y011604D01*
X035133Y011682D02*
X020773Y011682D01*
X020443Y011447D02*
X019827Y011447D01*
X019749Y011525D02*
X020364Y011525D01*
X020286Y011604D02*
X019670Y011604D01*
X019592Y011682D02*
X020207Y011682D01*
X020129Y011761D02*
X019513Y011761D01*
X019435Y011839D02*
X020050Y011839D01*
X019972Y011918D02*
X019356Y011918D01*
X019278Y011996D02*
X019893Y011996D01*
X019815Y012075D02*
X019199Y012075D01*
X019121Y012153D02*
X019736Y012153D01*
X019658Y012232D02*
X019042Y012232D01*
X018964Y012310D02*
X019579Y012310D01*
X019501Y012389D02*
X018885Y012389D01*
X018807Y012467D02*
X019422Y012467D01*
X019344Y012546D02*
X018728Y012546D01*
X018650Y012624D02*
X019265Y012624D01*
X019187Y012703D02*
X018571Y012703D01*
X018493Y012781D02*
X019108Y012781D01*
X019030Y012860D02*
X018414Y012860D01*
X018336Y012938D02*
X018951Y012938D01*
X018873Y013017D02*
X018257Y013017D01*
X018179Y013095D02*
X018794Y013095D01*
X018716Y013174D02*
X018100Y013174D01*
X018022Y013252D02*
X018637Y013252D01*
X018559Y013331D02*
X017943Y013331D01*
X017865Y013409D02*
X018480Y013409D01*
X018402Y013488D02*
X017786Y013488D01*
X017708Y013566D02*
X018323Y013566D01*
X018245Y013645D02*
X017629Y013645D01*
X017551Y013723D02*
X018166Y013723D01*
X018088Y013802D02*
X017472Y013802D01*
X017394Y013880D02*
X018009Y013880D01*
X017931Y013959D02*
X017315Y013959D01*
X017237Y014037D02*
X017852Y014037D01*
X017774Y014116D02*
X017158Y014116D01*
X017080Y014194D02*
X017695Y014194D01*
X017617Y014273D02*
X017001Y014273D01*
X016923Y014351D02*
X017538Y014351D01*
X017460Y014430D02*
X016844Y014430D01*
X016766Y014508D02*
X017381Y014508D01*
X017303Y014587D02*
X016687Y014587D01*
X016609Y014665D02*
X017224Y014665D01*
X017146Y014744D02*
X016530Y014744D01*
X016452Y014822D02*
X017067Y014822D01*
X016989Y014901D02*
X016373Y014901D01*
X016295Y014979D02*
X016910Y014979D01*
X016832Y015058D02*
X016216Y015058D01*
X016138Y015136D02*
X016753Y015136D01*
X016675Y015215D02*
X016059Y015215D01*
X015981Y015293D02*
X016596Y015293D01*
X016518Y015372D02*
X015902Y015372D01*
X015824Y015450D02*
X016439Y015450D01*
X016361Y015529D02*
X015745Y015529D01*
X015667Y015607D02*
X016282Y015607D01*
X016204Y015686D02*
X015588Y015686D01*
X015510Y015764D02*
X016125Y015764D01*
X016047Y015843D02*
X015431Y015843D01*
X015353Y015921D02*
X015968Y015921D01*
X015890Y016000D02*
X015274Y016000D01*
X015196Y016078D02*
X015811Y016078D01*
X015733Y016157D02*
X015117Y016157D01*
X015039Y016235D02*
X015654Y016235D01*
X015576Y016314D02*
X014960Y016314D01*
X014882Y016392D02*
X015497Y016392D01*
X015419Y016471D02*
X014803Y016471D01*
X014725Y016549D02*
X015340Y016549D01*
X015262Y016628D02*
X014646Y016628D01*
X014568Y016706D02*
X015183Y016706D01*
X015105Y016785D02*
X014489Y016785D01*
X014411Y016863D02*
X015026Y016863D01*
X014948Y016942D02*
X014332Y016942D01*
X014254Y017020D02*
X014869Y017020D01*
X014791Y017099D02*
X014175Y017099D01*
X014097Y017177D02*
X014712Y017177D01*
X014634Y017256D02*
X014018Y017256D01*
X013940Y017334D02*
X014555Y017334D01*
X014477Y017413D02*
X013861Y017413D01*
X013783Y017491D02*
X014398Y017491D01*
X014320Y017570D02*
X013704Y017570D01*
X013626Y017648D02*
X014241Y017648D01*
X014163Y017727D02*
X013547Y017727D01*
X013469Y017805D02*
X014084Y017805D01*
X014006Y017884D02*
X013390Y017884D01*
X013312Y017962D02*
X013927Y017962D01*
X013849Y018041D02*
X013233Y018041D01*
X013155Y018119D02*
X013770Y018119D01*
X013692Y018198D02*
X013076Y018198D01*
X012998Y018276D02*
X013613Y018276D01*
X013535Y018355D02*
X012919Y018355D01*
X012841Y018433D02*
X013456Y018433D01*
X013405Y018512D02*
X012762Y018512D01*
X012684Y018590D02*
X013405Y018590D01*
X013405Y018669D02*
X012605Y018669D01*
X012527Y018747D02*
X013405Y018747D01*
X013405Y018826D02*
X012448Y018826D01*
X012370Y018904D02*
X013405Y018904D01*
X013405Y018983D02*
X012291Y018983D01*
X012213Y019061D02*
X013405Y019061D01*
X013405Y019140D02*
X012134Y019140D01*
X012056Y019218D02*
X013405Y019218D01*
X013405Y019297D02*
X011977Y019297D01*
X011899Y019375D02*
X013405Y019375D01*
X013405Y019454D02*
X011820Y019454D01*
X011757Y019532D02*
X013405Y019532D01*
X013405Y019611D02*
X011757Y019611D01*
X011757Y019689D02*
X013405Y019689D01*
X013405Y019768D02*
X011757Y019768D01*
X011757Y019846D02*
X013405Y019846D01*
X013405Y019925D02*
X011757Y019925D01*
X011757Y020003D02*
X013405Y020003D01*
X013405Y020082D02*
X011757Y020082D01*
X011884Y020160D02*
X013278Y020160D01*
X013200Y020239D02*
X011962Y020239D01*
X012032Y020317D02*
X013130Y020317D01*
X013097Y020396D02*
X012064Y020396D01*
X012097Y020474D02*
X013065Y020474D01*
X013052Y020553D02*
X012110Y020553D01*
X012110Y020631D02*
X013052Y020631D01*
X013052Y020710D02*
X012110Y020710D01*
X012084Y020788D02*
X013078Y020788D01*
X013111Y020867D02*
X012051Y020867D01*
X012009Y020945D02*
X013153Y020945D01*
X013232Y021024D02*
X011930Y021024D01*
X011825Y021102D02*
X013337Y021102D01*
X013872Y021102D02*
X015617Y021102D01*
X015617Y021103D02*
X015491Y020976D01*
X015422Y020811D01*
X015422Y020632D01*
X015491Y020466D01*
X015617Y020340D01*
X015783Y020271D01*
X015962Y020271D01*
X016127Y020340D01*
X016254Y020466D01*
X016322Y020632D01*
X016322Y020811D01*
X016254Y020976D01*
X016127Y021103D01*
X015962Y021171D01*
X015783Y021171D01*
X015617Y021103D01*
X015538Y021024D02*
X013977Y021024D01*
X014056Y020945D02*
X015478Y020945D01*
X015445Y020867D02*
X014098Y020867D01*
X014131Y020788D02*
X015422Y020788D01*
X015422Y020710D02*
X014157Y020710D01*
X014157Y020631D02*
X015423Y020631D01*
X015455Y020553D02*
X014157Y020553D01*
X014144Y020474D02*
X015488Y020474D01*
X015562Y020396D02*
X014112Y020396D01*
X014079Y020317D02*
X015672Y020317D01*
X015756Y020160D02*
X013931Y020160D01*
X014010Y020239D02*
X033121Y020239D01*
X033137Y020216D02*
X033206Y020148D01*
X033284Y020091D01*
X033369Y020047D01*
X033461Y020018D01*
X033556Y020002D01*
X033565Y020002D01*
X033565Y020575D01*
X033645Y020575D01*
X033645Y020655D01*
X034217Y020655D01*
X034217Y020663D01*
X034202Y020758D01*
X034172Y020850D01*
X034128Y020936D01*
X034072Y021014D01*
X034004Y021082D01*
X033926Y021139D01*
X033840Y021183D01*
X033748Y021212D01*
X033653Y021227D01*
X033645Y021227D01*
X033645Y020655D01*
X033565Y020655D01*
X033565Y021227D01*
X033556Y021227D01*
X033461Y021212D01*
X033369Y021183D01*
X033284Y021139D01*
X033206Y021082D01*
X033137Y021014D01*
X033081Y020936D01*
X033037Y020850D01*
X033007Y020758D01*
X032992Y020663D01*
X032992Y020655D01*
X033565Y020655D01*
X033565Y020575D01*
X032992Y020575D01*
X032992Y020567D01*
X033007Y020472D01*
X033037Y020380D01*
X033081Y020294D01*
X033137Y020216D01*
X033193Y020160D02*
X032162Y020160D01*
X032135Y020171D02*
X032300Y020103D01*
X032427Y019976D01*
X032496Y019811D01*
X032496Y019632D01*
X032427Y019466D01*
X032300Y019340D01*
X032135Y019271D01*
X031956Y019271D01*
X031791Y019340D01*
X031664Y019466D01*
X031596Y019632D01*
X031596Y019811D01*
X031664Y019976D01*
X031791Y020103D01*
X031956Y020171D01*
X032135Y020171D01*
X032135Y020271D02*
X032300Y020340D01*
X032427Y020466D01*
X032496Y020632D01*
X032496Y020811D01*
X032427Y020976D01*
X032300Y021103D01*
X032135Y021171D01*
X031956Y021171D01*
X031791Y021103D01*
X031664Y020976D01*
X031596Y020811D01*
X031596Y020632D01*
X031664Y020466D01*
X031791Y020340D01*
X031956Y020271D01*
X032135Y020271D01*
X032246Y020317D02*
X033069Y020317D01*
X033032Y020396D02*
X032356Y020396D01*
X032430Y020474D02*
X033007Y020474D01*
X032994Y020553D02*
X032463Y020553D01*
X032495Y020631D02*
X033565Y020631D01*
X033565Y020553D02*
X033645Y020553D01*
X033645Y020575D02*
X033645Y020002D01*
X033653Y020002D01*
X033748Y020018D01*
X033840Y020047D01*
X033926Y020091D01*
X034004Y020148D01*
X034072Y020216D01*
X034128Y020294D01*
X034172Y020380D01*
X034202Y020472D01*
X034217Y020567D01*
X034217Y020575D01*
X033645Y020575D01*
X033645Y020631D02*
X035133Y020631D01*
X035133Y020553D02*
X034215Y020553D01*
X034202Y020474D02*
X035133Y020474D01*
X035133Y020396D02*
X034177Y020396D01*
X034140Y020317D02*
X035133Y020317D01*
X035133Y020239D02*
X034088Y020239D01*
X034016Y020160D02*
X035133Y020160D01*
X035133Y020082D02*
X033907Y020082D01*
X033645Y020082D02*
X033565Y020082D01*
X033565Y020160D02*
X033645Y020160D01*
X033645Y020239D02*
X033565Y020239D01*
X033565Y020317D02*
X033645Y020317D01*
X033645Y020396D02*
X033565Y020396D01*
X033565Y020474D02*
X033645Y020474D01*
X033645Y020710D02*
X033565Y020710D01*
X033565Y020788D02*
X033645Y020788D01*
X033645Y020867D02*
X033565Y020867D01*
X033565Y020945D02*
X033645Y020945D01*
X033645Y021024D02*
X033565Y021024D01*
X033565Y021102D02*
X033645Y021102D01*
X033645Y021181D02*
X033565Y021181D01*
X033366Y021181D02*
X010061Y021181D01*
X010061Y021259D02*
X035133Y021259D01*
X035133Y021181D02*
X033844Y021181D01*
X033976Y021102D02*
X035133Y021102D01*
X035133Y021024D02*
X034062Y021024D01*
X034122Y020945D02*
X035133Y020945D01*
X035133Y020867D02*
X034164Y020867D01*
X034192Y020788D02*
X035133Y020788D01*
X035133Y020710D02*
X034210Y020710D01*
X033233Y021102D02*
X032301Y021102D01*
X032380Y021024D02*
X033147Y021024D01*
X033087Y020945D02*
X032440Y020945D01*
X032472Y020867D02*
X033045Y020867D01*
X033017Y020788D02*
X032496Y020788D01*
X032496Y020710D02*
X032999Y020710D01*
X033302Y020082D02*
X032322Y020082D01*
X032400Y020003D02*
X033552Y020003D01*
X033565Y020003D02*
X033645Y020003D01*
X033657Y020003D02*
X035133Y020003D01*
X035133Y019925D02*
X032448Y019925D01*
X032481Y019846D02*
X035133Y019846D01*
X035133Y019768D02*
X032496Y019768D01*
X032496Y019689D02*
X035133Y019689D01*
X035133Y019611D02*
X032487Y019611D01*
X032454Y019532D02*
X035133Y019532D01*
X035133Y019454D02*
X033906Y019454D01*
X033727Y019494D02*
X033727Y019494D01*
X033229Y019454D02*
X032414Y019454D01*
X032336Y019375D02*
X033029Y019375D01*
X032829Y019297D02*
X032196Y019297D01*
X031895Y019297D02*
X031196Y019297D01*
X031135Y019271D02*
X031300Y019340D01*
X031427Y019466D01*
X031496Y019632D01*
X031496Y019811D01*
X031427Y019976D01*
X031300Y020103D01*
X031135Y020171D01*
X030956Y020171D01*
X030791Y020103D01*
X030664Y019976D01*
X030596Y019811D01*
X030596Y019632D01*
X030664Y019466D01*
X030791Y019340D01*
X030956Y019271D01*
X031135Y019271D01*
X031336Y019375D02*
X031755Y019375D01*
X031677Y019454D02*
X031414Y019454D01*
X031454Y019532D02*
X031637Y019532D01*
X031604Y019611D02*
X031487Y019611D01*
X031496Y019689D02*
X031596Y019689D01*
X031596Y019768D02*
X031496Y019768D01*
X031481Y019846D02*
X031610Y019846D01*
X031643Y019925D02*
X031448Y019925D01*
X031400Y020003D02*
X031691Y020003D01*
X031769Y020082D02*
X031322Y020082D01*
X031162Y020160D02*
X031929Y020160D01*
X031845Y020317D02*
X031246Y020317D01*
X031300Y020340D02*
X031135Y020271D01*
X030956Y020271D01*
X030791Y020340D01*
X030664Y020466D01*
X030596Y020632D01*
X030596Y020811D01*
X030664Y020976D01*
X030791Y021103D01*
X030956Y021171D01*
X031135Y021171D01*
X031300Y021103D01*
X031427Y020976D01*
X031496Y020811D01*
X031496Y020632D01*
X031427Y020466D01*
X031300Y020340D01*
X031356Y020396D02*
X031735Y020396D01*
X031661Y020474D02*
X031430Y020474D01*
X031463Y020553D02*
X031628Y020553D01*
X031596Y020631D02*
X031495Y020631D01*
X031496Y020710D02*
X031596Y020710D01*
X031596Y020788D02*
X031496Y020788D01*
X031472Y020867D02*
X031619Y020867D01*
X031651Y020945D02*
X031440Y020945D01*
X031380Y021024D02*
X031711Y021024D01*
X031790Y021102D02*
X031301Y021102D01*
X030790Y021102D02*
X030301Y021102D01*
X030300Y021103D02*
X030135Y021171D01*
X029956Y021171D01*
X029791Y021103D01*
X029664Y020976D01*
X029596Y020811D01*
X029596Y020632D01*
X029664Y020466D01*
X029791Y020340D01*
X029956Y020271D01*
X030135Y020271D01*
X030300Y020340D01*
X030427Y020466D01*
X030496Y020632D01*
X030496Y020811D01*
X030427Y020976D01*
X030300Y021103D01*
X030380Y021024D02*
X030711Y021024D01*
X030651Y020945D02*
X030440Y020945D01*
X030472Y020867D02*
X030619Y020867D01*
X030596Y020788D02*
X030496Y020788D01*
X030496Y020710D02*
X030596Y020710D01*
X030596Y020631D02*
X030495Y020631D01*
X030463Y020553D02*
X030628Y020553D01*
X030661Y020474D02*
X030430Y020474D01*
X030356Y020396D02*
X030735Y020396D01*
X030845Y020317D02*
X030246Y020317D01*
X030162Y020160D02*
X030929Y020160D01*
X030769Y020082D02*
X030322Y020082D01*
X030300Y020103D02*
X030135Y020171D01*
X029956Y020171D01*
X029791Y020103D01*
X029664Y019976D01*
X029596Y019811D01*
X029596Y019632D01*
X029664Y019466D01*
X029791Y019340D01*
X029956Y019271D01*
X030135Y019271D01*
X030300Y019340D01*
X030427Y019466D01*
X030496Y019632D01*
X030496Y019811D01*
X030427Y019976D01*
X030300Y020103D01*
X030400Y020003D02*
X030691Y020003D01*
X030643Y019925D02*
X030448Y019925D01*
X030481Y019846D02*
X030610Y019846D01*
X030596Y019768D02*
X030496Y019768D01*
X030496Y019689D02*
X030596Y019689D01*
X030604Y019611D02*
X030487Y019611D01*
X030454Y019532D02*
X030637Y019532D01*
X030677Y019454D02*
X030414Y019454D01*
X030336Y019375D02*
X030755Y019375D01*
X030895Y019297D02*
X030196Y019297D01*
X029895Y019297D02*
X028653Y019297D01*
X028592Y019271D02*
X028757Y019340D01*
X028884Y019466D01*
X028952Y019632D01*
X028952Y019811D01*
X028884Y019976D01*
X028757Y020103D01*
X028592Y020171D01*
X028413Y020171D01*
X028247Y020103D01*
X028121Y019976D01*
X028052Y019811D01*
X028052Y019632D01*
X028121Y019466D01*
X028247Y019340D01*
X028413Y019271D01*
X028592Y019271D01*
X028792Y019375D02*
X029755Y019375D01*
X029677Y019454D02*
X028871Y019454D01*
X028911Y019532D02*
X029637Y019532D01*
X029604Y019611D02*
X028943Y019611D01*
X028952Y019689D02*
X029596Y019689D01*
X029596Y019768D02*
X028952Y019768D01*
X028938Y019846D02*
X029610Y019846D01*
X029643Y019925D02*
X028905Y019925D01*
X028857Y020003D02*
X029691Y020003D01*
X029769Y020082D02*
X028778Y020082D01*
X028619Y020160D02*
X029929Y020160D01*
X029845Y020317D02*
X028702Y020317D01*
X028757Y020340D02*
X028592Y020271D01*
X028413Y020271D01*
X028247Y020340D01*
X028121Y020466D01*
X028052Y020632D01*
X028052Y020811D01*
X028121Y020976D01*
X028247Y021103D01*
X028413Y021171D01*
X028592Y021171D01*
X028757Y021103D01*
X028884Y020976D01*
X028952Y020811D01*
X028952Y020632D01*
X028884Y020466D01*
X028757Y020340D01*
X028813Y020396D02*
X029735Y020396D01*
X029661Y020474D02*
X028887Y020474D01*
X028919Y020553D02*
X029628Y020553D01*
X029596Y020631D02*
X028952Y020631D01*
X028952Y020710D02*
X029596Y020710D01*
X029596Y020788D02*
X028952Y020788D01*
X028929Y020867D02*
X029619Y020867D01*
X029651Y020945D02*
X028897Y020945D01*
X028836Y021024D02*
X029711Y021024D01*
X029790Y021102D02*
X028758Y021102D01*
X028247Y021102D02*
X027758Y021102D01*
X027757Y021103D02*
X027592Y021171D01*
X027413Y021171D01*
X027247Y021103D01*
X027121Y020976D01*
X027052Y020811D01*
X027052Y020632D01*
X027121Y020466D01*
X027247Y020340D01*
X027413Y020271D01*
X027592Y020271D01*
X027757Y020340D01*
X027884Y020466D01*
X027952Y020632D01*
X027952Y020811D01*
X027884Y020976D01*
X027757Y021103D01*
X027836Y021024D02*
X028168Y021024D01*
X028108Y020945D02*
X027897Y020945D01*
X027929Y020867D02*
X028075Y020867D01*
X028052Y020788D02*
X027952Y020788D01*
X027952Y020710D02*
X028052Y020710D01*
X028052Y020631D02*
X027952Y020631D01*
X027919Y020553D02*
X028085Y020553D01*
X028118Y020474D02*
X027887Y020474D01*
X027813Y020396D02*
X028191Y020396D01*
X028302Y020317D02*
X027702Y020317D01*
X027619Y020160D02*
X028386Y020160D01*
X028226Y020082D02*
X027778Y020082D01*
X027757Y020103D02*
X027592Y020171D01*
X027413Y020171D01*
X027247Y020103D01*
X027121Y019976D01*
X027052Y019811D01*
X027052Y019632D01*
X027121Y019466D01*
X027247Y019340D01*
X027413Y019271D01*
X027592Y019271D01*
X027757Y019340D01*
X027884Y019466D01*
X027952Y019632D01*
X027952Y019811D01*
X027884Y019976D01*
X027757Y020103D01*
X027857Y020003D02*
X028148Y020003D01*
X028099Y019925D02*
X027905Y019925D01*
X027938Y019846D02*
X028067Y019846D01*
X028052Y019768D02*
X027952Y019768D01*
X027952Y019689D02*
X028052Y019689D01*
X028061Y019611D02*
X027943Y019611D01*
X027911Y019532D02*
X028093Y019532D01*
X028133Y019454D02*
X027871Y019454D01*
X027792Y019375D02*
X028212Y019375D01*
X028352Y019297D02*
X027653Y019297D01*
X027352Y019297D02*
X026653Y019297D01*
X026592Y019271D02*
X026757Y019340D01*
X026884Y019466D01*
X026952Y019632D01*
X026952Y019811D01*
X026884Y019976D01*
X026757Y020103D01*
X026592Y020171D01*
X026413Y020171D01*
X026247Y020103D01*
X026121Y019976D01*
X026052Y019811D01*
X026052Y019632D01*
X026121Y019466D01*
X026247Y019340D01*
X026413Y019271D01*
X026592Y019271D01*
X026792Y019375D02*
X027212Y019375D01*
X027133Y019454D02*
X026871Y019454D01*
X026911Y019532D02*
X027093Y019532D01*
X027061Y019611D02*
X026943Y019611D01*
X026952Y019689D02*
X027052Y019689D01*
X027052Y019768D02*
X026952Y019768D01*
X026938Y019846D02*
X027067Y019846D01*
X027099Y019925D02*
X026905Y019925D01*
X026857Y020003D02*
X027148Y020003D01*
X027226Y020082D02*
X026778Y020082D01*
X026619Y020160D02*
X027386Y020160D01*
X027302Y020317D02*
X026702Y020317D01*
X026757Y020340D02*
X026592Y020271D01*
X026413Y020271D01*
X026247Y020340D01*
X026121Y020466D01*
X026052Y020632D01*
X026052Y020811D01*
X026121Y020976D01*
X026247Y021103D01*
X026413Y021171D01*
X026592Y021171D01*
X026757Y021103D01*
X026884Y020976D01*
X026952Y020811D01*
X026952Y020632D01*
X026884Y020466D01*
X026757Y020340D01*
X026813Y020396D02*
X027191Y020396D01*
X027118Y020474D02*
X026887Y020474D01*
X026919Y020553D02*
X027085Y020553D01*
X027052Y020631D02*
X026952Y020631D01*
X026952Y020710D02*
X027052Y020710D01*
X027052Y020788D02*
X026952Y020788D01*
X026929Y020867D02*
X027075Y020867D01*
X027108Y020945D02*
X026897Y020945D01*
X026836Y021024D02*
X027168Y021024D01*
X027247Y021102D02*
X026758Y021102D01*
X026247Y021102D02*
X025214Y021102D01*
X025214Y021103D02*
X025048Y021171D01*
X024869Y021171D01*
X024704Y021103D01*
X024577Y020976D01*
X024509Y020811D01*
X024509Y020632D01*
X024577Y020466D01*
X024704Y020340D01*
X024869Y020271D01*
X025048Y020271D01*
X025214Y020340D01*
X025340Y020466D01*
X025409Y020632D01*
X025409Y020811D01*
X025340Y020976D01*
X025214Y021103D01*
X025293Y021024D02*
X026168Y021024D01*
X026108Y020945D02*
X025353Y020945D01*
X025386Y020867D02*
X026075Y020867D01*
X026052Y020788D02*
X025409Y020788D01*
X025409Y020710D02*
X026052Y020710D01*
X026052Y020631D02*
X025409Y020631D01*
X025376Y020553D02*
X026085Y020553D01*
X026118Y020474D02*
X025344Y020474D01*
X025270Y020396D02*
X026191Y020396D01*
X026302Y020317D02*
X025159Y020317D01*
X025075Y020160D02*
X026386Y020160D01*
X026226Y020082D02*
X025235Y020082D01*
X025214Y020103D02*
X025340Y019976D01*
X025409Y019811D01*
X025409Y019632D01*
X025340Y019466D01*
X025214Y019340D01*
X025048Y019271D01*
X024869Y019271D01*
X024704Y019340D01*
X024577Y019466D01*
X024509Y019632D01*
X024509Y019811D01*
X024577Y019976D01*
X024704Y020103D01*
X024869Y020171D01*
X025048Y020171D01*
X025214Y020103D01*
X025313Y020003D02*
X026148Y020003D01*
X026099Y019925D02*
X025362Y019925D01*
X025394Y019846D02*
X026067Y019846D01*
X026052Y019768D02*
X025409Y019768D01*
X025409Y019689D02*
X026052Y019689D01*
X026061Y019611D02*
X025400Y019611D01*
X025368Y019532D02*
X026093Y019532D01*
X026133Y019454D02*
X025328Y019454D01*
X025249Y019375D02*
X026212Y019375D01*
X026352Y019297D02*
X025110Y019297D01*
X024808Y019297D02*
X024110Y019297D01*
X024048Y019271D02*
X024214Y019340D01*
X024340Y019466D01*
X024409Y019632D01*
X024409Y019811D01*
X024340Y019976D01*
X024214Y020103D01*
X024048Y020171D01*
X023869Y020171D01*
X023704Y020103D01*
X023577Y019976D01*
X023509Y019811D01*
X023509Y019632D01*
X023577Y019466D01*
X023704Y019340D01*
X023869Y019271D01*
X024048Y019271D01*
X024249Y019375D02*
X024669Y019375D01*
X024590Y019454D02*
X024328Y019454D01*
X024368Y019532D02*
X024550Y019532D01*
X024518Y019611D02*
X024400Y019611D01*
X024409Y019689D02*
X024509Y019689D01*
X024509Y019768D02*
X024409Y019768D01*
X024394Y019846D02*
X024524Y019846D01*
X024556Y019925D02*
X024362Y019925D01*
X024313Y020003D02*
X024604Y020003D01*
X024683Y020082D02*
X024235Y020082D01*
X024075Y020160D02*
X024842Y020160D01*
X024759Y020317D02*
X024159Y020317D01*
X024214Y020340D02*
X024048Y020271D01*
X023869Y020271D01*
X023704Y020340D01*
X023577Y020466D01*
X023509Y020632D01*
X023509Y020811D01*
X023577Y020976D01*
X023704Y021103D01*
X023869Y021171D01*
X024048Y021171D01*
X024214Y021103D01*
X024340Y020976D01*
X024409Y020811D01*
X024409Y020632D01*
X024340Y020466D01*
X024214Y020340D01*
X024270Y020396D02*
X024648Y020396D01*
X024574Y020474D02*
X024344Y020474D01*
X024376Y020553D02*
X024542Y020553D01*
X024509Y020631D02*
X024409Y020631D01*
X024409Y020710D02*
X024509Y020710D01*
X024509Y020788D02*
X024409Y020788D01*
X024386Y020867D02*
X024532Y020867D01*
X024565Y020945D02*
X024353Y020945D01*
X024293Y021024D02*
X024625Y021024D01*
X024703Y021102D02*
X024214Y021102D01*
X023703Y021102D02*
X023214Y021102D01*
X023214Y021103D02*
X023048Y021171D01*
X022869Y021171D01*
X022704Y021103D01*
X022577Y020976D01*
X022509Y020811D01*
X022509Y020632D01*
X022577Y020466D01*
X022704Y020340D01*
X022869Y020271D01*
X023048Y020271D01*
X023214Y020340D01*
X023340Y020466D01*
X023409Y020632D01*
X023409Y020811D01*
X023340Y020976D01*
X023214Y021103D01*
X023293Y021024D02*
X023625Y021024D01*
X023565Y020945D02*
X023353Y020945D01*
X023386Y020867D02*
X023532Y020867D01*
X023509Y020788D02*
X023409Y020788D01*
X023409Y020710D02*
X023509Y020710D01*
X023509Y020631D02*
X023409Y020631D01*
X023376Y020553D02*
X023542Y020553D01*
X023574Y020474D02*
X023344Y020474D01*
X023270Y020396D02*
X023648Y020396D01*
X023759Y020317D02*
X023159Y020317D01*
X023075Y020160D02*
X023842Y020160D01*
X023683Y020082D02*
X023235Y020082D01*
X023214Y020103D02*
X023340Y019976D01*
X023409Y019811D01*
X023409Y019632D01*
X023340Y019466D01*
X023214Y019340D01*
X023048Y019271D01*
X022869Y019271D01*
X022704Y019340D01*
X022577Y019466D01*
X022509Y019632D01*
X022509Y019811D01*
X022577Y019976D01*
X022704Y020103D01*
X022869Y020171D01*
X023048Y020171D01*
X023214Y020103D01*
X023313Y020003D02*
X023604Y020003D01*
X023556Y019925D02*
X023362Y019925D01*
X023394Y019846D02*
X023524Y019846D01*
X023509Y019768D02*
X023409Y019768D01*
X023409Y019689D02*
X023509Y019689D01*
X023518Y019611D02*
X023400Y019611D01*
X023368Y019532D02*
X023550Y019532D01*
X023590Y019454D02*
X023328Y019454D01*
X023249Y019375D02*
X023669Y019375D01*
X023808Y019297D02*
X023110Y019297D01*
X022808Y019297D02*
X021566Y019297D01*
X021505Y019271D02*
X021670Y019340D01*
X021797Y019466D01*
X021866Y019632D01*
X021866Y019811D01*
X021797Y019976D01*
X021670Y020103D01*
X021505Y020171D01*
X021326Y020171D01*
X021161Y020103D01*
X021034Y019976D01*
X020966Y019811D01*
X020966Y019632D01*
X021034Y019466D01*
X021161Y019340D01*
X021326Y019271D01*
X021505Y019271D01*
X021706Y019375D02*
X022669Y019375D01*
X022590Y019454D02*
X021784Y019454D01*
X021824Y019532D02*
X022550Y019532D01*
X022518Y019611D02*
X021857Y019611D01*
X021866Y019689D02*
X022509Y019689D01*
X022509Y019768D02*
X021866Y019768D01*
X021851Y019846D02*
X022524Y019846D01*
X022556Y019925D02*
X021818Y019925D01*
X021770Y020003D02*
X022604Y020003D01*
X022683Y020082D02*
X021692Y020082D01*
X021532Y020160D02*
X022842Y020160D01*
X022759Y020317D02*
X021616Y020317D01*
X021670Y020340D02*
X021505Y020271D01*
X021326Y020271D01*
X021161Y020340D01*
X021034Y020466D01*
X020966Y020632D01*
X020966Y020811D01*
X021034Y020976D01*
X021161Y021103D01*
X021326Y021171D01*
X021505Y021171D01*
X021670Y021103D01*
X021797Y020976D01*
X021866Y020811D01*
X021866Y020632D01*
X021797Y020466D01*
X021670Y020340D01*
X021726Y020396D02*
X022648Y020396D01*
X022574Y020474D02*
X021800Y020474D01*
X021833Y020553D02*
X022542Y020553D01*
X022509Y020631D02*
X021865Y020631D01*
X021866Y020710D02*
X022509Y020710D01*
X022509Y020788D02*
X021866Y020788D01*
X021842Y020867D02*
X022532Y020867D01*
X022565Y020945D02*
X021810Y020945D01*
X021750Y021024D02*
X022625Y021024D01*
X022703Y021102D02*
X021671Y021102D01*
X021160Y021102D02*
X020671Y021102D01*
X020670Y021103D02*
X020505Y021171D01*
X020326Y021171D01*
X020161Y021103D01*
X020034Y020976D01*
X019966Y020811D01*
X019966Y020632D01*
X020034Y020466D01*
X020161Y020340D01*
X020326Y020271D01*
X020505Y020271D01*
X020670Y020340D01*
X020797Y020466D01*
X020866Y020632D01*
X020866Y020811D01*
X020797Y020976D01*
X020670Y021103D01*
X020750Y021024D02*
X021082Y021024D01*
X021021Y020945D02*
X020810Y020945D01*
X020842Y020867D02*
X020989Y020867D01*
X020966Y020788D02*
X020866Y020788D01*
X020866Y020710D02*
X020966Y020710D01*
X020966Y020631D02*
X020865Y020631D01*
X020833Y020553D02*
X020998Y020553D01*
X021031Y020474D02*
X020800Y020474D01*
X020726Y020396D02*
X021105Y020396D01*
X021215Y020317D02*
X020616Y020317D01*
X020532Y020160D02*
X021299Y020160D01*
X021140Y020082D02*
X020692Y020082D01*
X020670Y020103D02*
X020505Y020171D01*
X020326Y020171D01*
X020161Y020103D01*
X020034Y019976D01*
X019966Y019811D01*
X019966Y019632D01*
X020034Y019466D01*
X020161Y019340D01*
X020326Y019271D01*
X020505Y019271D01*
X020670Y019340D01*
X020797Y019466D01*
X020866Y019632D01*
X020866Y019811D01*
X020797Y019976D01*
X020670Y020103D01*
X020770Y020003D02*
X021061Y020003D01*
X021013Y019925D02*
X020818Y019925D01*
X020851Y019846D02*
X020980Y019846D01*
X020966Y019768D02*
X020866Y019768D01*
X020866Y019689D02*
X020966Y019689D01*
X020974Y019611D02*
X020857Y019611D01*
X020824Y019532D02*
X021007Y019532D01*
X021047Y019454D02*
X020784Y019454D01*
X020706Y019375D02*
X021125Y019375D01*
X021265Y019297D02*
X020566Y019297D01*
X020265Y019297D02*
X019566Y019297D01*
X019505Y019271D02*
X019670Y019340D01*
X019797Y019466D01*
X019866Y019632D01*
X019866Y019811D01*
X019797Y019976D01*
X019670Y020103D01*
X019505Y020171D01*
X019326Y020171D01*
X019161Y020103D01*
X019034Y019976D01*
X018966Y019811D01*
X018966Y019632D01*
X019034Y019466D01*
X019161Y019340D01*
X019326Y019271D01*
X019505Y019271D01*
X019706Y019375D02*
X020125Y019375D01*
X020047Y019454D02*
X019784Y019454D01*
X019824Y019532D02*
X020007Y019532D01*
X019974Y019611D02*
X019857Y019611D01*
X019866Y019689D02*
X019966Y019689D01*
X019966Y019768D02*
X019866Y019768D01*
X019851Y019846D02*
X019980Y019846D01*
X020013Y019925D02*
X019818Y019925D01*
X019770Y020003D02*
X020061Y020003D01*
X020140Y020082D02*
X019692Y020082D01*
X019532Y020160D02*
X020299Y020160D01*
X020215Y020317D02*
X019616Y020317D01*
X019670Y020340D02*
X019505Y020271D01*
X019326Y020271D01*
X019161Y020340D01*
X019034Y020466D01*
X018966Y020632D01*
X018966Y020811D01*
X019034Y020976D01*
X019161Y021103D01*
X019326Y021171D01*
X019505Y021171D01*
X019670Y021103D01*
X019797Y020976D01*
X019866Y020811D01*
X019866Y020632D01*
X019797Y020466D01*
X019670Y020340D01*
X019726Y020396D02*
X020105Y020396D01*
X020031Y020474D02*
X019800Y020474D01*
X019833Y020553D02*
X019998Y020553D01*
X019966Y020631D02*
X019865Y020631D01*
X019866Y020710D02*
X019966Y020710D01*
X019966Y020788D02*
X019866Y020788D01*
X019842Y020867D02*
X019989Y020867D01*
X020021Y020945D02*
X019810Y020945D01*
X019750Y021024D02*
X020082Y021024D01*
X020160Y021102D02*
X019671Y021102D01*
X019160Y021102D02*
X018128Y021102D01*
X018127Y021103D02*
X017962Y021171D01*
X017783Y021171D01*
X017617Y021103D01*
X017491Y020976D01*
X017422Y020811D01*
X017422Y020632D01*
X017491Y020466D01*
X017617Y020340D01*
X017783Y020271D01*
X017962Y020271D01*
X018127Y020340D01*
X018254Y020466D01*
X018322Y020632D01*
X018322Y020811D01*
X018254Y020976D01*
X018127Y021103D01*
X018206Y021024D02*
X019082Y021024D01*
X019021Y020945D02*
X018267Y020945D01*
X018299Y020867D02*
X018989Y020867D01*
X018966Y020788D02*
X018322Y020788D01*
X018322Y020710D02*
X018966Y020710D01*
X018966Y020631D02*
X018322Y020631D01*
X018289Y020553D02*
X018998Y020553D01*
X019031Y020474D02*
X018257Y020474D01*
X018183Y020396D02*
X019105Y020396D01*
X019215Y020317D02*
X018072Y020317D01*
X017989Y020160D02*
X019299Y020160D01*
X019140Y020082D02*
X018148Y020082D01*
X018127Y020103D02*
X017962Y020171D01*
X017783Y020171D01*
X017617Y020103D01*
X017491Y019976D01*
X017422Y019811D01*
X017422Y019632D01*
X017491Y019466D01*
X017617Y019340D01*
X017783Y019271D01*
X017962Y019271D01*
X018127Y019340D01*
X018254Y019466D01*
X018322Y019632D01*
X018322Y019811D01*
X018254Y019976D01*
X018127Y020103D01*
X018227Y020003D02*
X019061Y020003D01*
X019013Y019925D02*
X018275Y019925D01*
X018308Y019846D02*
X018980Y019846D01*
X018966Y019768D02*
X018322Y019768D01*
X018322Y019689D02*
X018966Y019689D01*
X018974Y019611D02*
X018314Y019611D01*
X018281Y019532D02*
X019007Y019532D01*
X019047Y019454D02*
X018241Y019454D01*
X018163Y019375D02*
X019125Y019375D01*
X019265Y019297D02*
X018023Y019297D01*
X017722Y019297D02*
X017023Y019297D01*
X016962Y019271D02*
X017127Y019340D01*
X017254Y019466D01*
X017322Y019632D01*
X017322Y019811D01*
X017254Y019976D01*
X017127Y020103D01*
X016962Y020171D01*
X016783Y020171D01*
X016617Y020103D01*
X016491Y019976D01*
X016422Y019811D01*
X016422Y019632D01*
X016491Y019466D01*
X016617Y019340D01*
X016783Y019271D01*
X016962Y019271D01*
X017163Y019375D02*
X017582Y019375D01*
X017504Y019454D02*
X017241Y019454D01*
X017281Y019532D02*
X017464Y019532D01*
X017431Y019611D02*
X017314Y019611D01*
X017322Y019689D02*
X017422Y019689D01*
X017422Y019768D02*
X017322Y019768D01*
X017308Y019846D02*
X017437Y019846D01*
X017469Y019925D02*
X017275Y019925D01*
X017227Y020003D02*
X017518Y020003D01*
X017596Y020082D02*
X017148Y020082D01*
X016989Y020160D02*
X017756Y020160D01*
X017672Y020317D02*
X017072Y020317D01*
X017127Y020340D02*
X016962Y020271D01*
X016783Y020271D01*
X016617Y020340D01*
X016491Y020466D01*
X016422Y020632D01*
X016422Y020811D01*
X016491Y020976D01*
X016617Y021103D01*
X016783Y021171D01*
X016962Y021171D01*
X017127Y021103D01*
X017254Y020976D01*
X017322Y020811D01*
X017322Y020632D01*
X017254Y020466D01*
X017127Y020340D01*
X017183Y020396D02*
X017562Y020396D01*
X017488Y020474D02*
X017257Y020474D01*
X017289Y020553D02*
X017455Y020553D01*
X017423Y020631D02*
X017322Y020631D01*
X017322Y020710D02*
X017422Y020710D01*
X017422Y020788D02*
X017322Y020788D01*
X017299Y020867D02*
X017445Y020867D01*
X017478Y020945D02*
X017267Y020945D01*
X017206Y021024D02*
X017538Y021024D01*
X017617Y021102D02*
X017128Y021102D01*
X016617Y021102D02*
X016128Y021102D01*
X016206Y021024D02*
X016538Y021024D01*
X016478Y020945D02*
X016267Y020945D01*
X016299Y020867D02*
X016445Y020867D01*
X016422Y020788D02*
X016322Y020788D01*
X016322Y020710D02*
X016422Y020710D01*
X016423Y020631D02*
X016322Y020631D01*
X016289Y020553D02*
X016455Y020553D01*
X016488Y020474D02*
X016257Y020474D01*
X016183Y020396D02*
X016562Y020396D01*
X016672Y020317D02*
X016072Y020317D01*
X015989Y020160D02*
X016756Y020160D01*
X016596Y020082D02*
X016148Y020082D01*
X016127Y020103D02*
X016254Y019976D01*
X016322Y019811D01*
X016322Y019632D01*
X016254Y019466D01*
X016127Y019340D01*
X015962Y019271D01*
X015783Y019271D01*
X015617Y019340D01*
X015491Y019466D01*
X015422Y019632D01*
X015422Y019811D01*
X015491Y019976D01*
X015617Y020103D01*
X015783Y020171D01*
X015962Y020171D01*
X016127Y020103D01*
X016227Y020003D02*
X016518Y020003D01*
X016469Y019925D02*
X016275Y019925D01*
X016308Y019846D02*
X016437Y019846D01*
X016422Y019768D02*
X016322Y019768D01*
X016322Y019689D02*
X016422Y019689D01*
X016431Y019611D02*
X016314Y019611D01*
X016281Y019532D02*
X016464Y019532D01*
X016504Y019454D02*
X016241Y019454D01*
X016163Y019375D02*
X016582Y019375D01*
X016722Y019297D02*
X016023Y019297D01*
X015722Y019297D02*
X013805Y019297D01*
X013805Y019375D02*
X015582Y019375D01*
X015504Y019454D02*
X013805Y019454D01*
X013805Y019532D02*
X015464Y019532D01*
X015431Y019611D02*
X013805Y019611D01*
X013805Y019689D02*
X015422Y019689D01*
X015422Y019768D02*
X013805Y019768D01*
X013805Y019846D02*
X015437Y019846D01*
X015469Y019925D02*
X013805Y019925D01*
X013805Y020003D02*
X015518Y020003D01*
X015596Y020082D02*
X013805Y020082D01*
X013805Y019218D02*
X032708Y019218D01*
X032609Y019140D02*
X013805Y019140D01*
X013805Y019061D02*
X032511Y019061D01*
X032412Y018983D02*
X013805Y018983D01*
X013805Y018904D02*
X032354Y018904D01*
X032301Y018826D02*
X013805Y018826D01*
X013805Y018747D02*
X032247Y018747D01*
X032194Y018669D02*
X013805Y018669D01*
X013865Y018590D02*
X032140Y018590D01*
X032109Y018512D02*
X013944Y018512D01*
X014022Y018433D02*
X032085Y018433D01*
X032060Y018355D02*
X014101Y018355D01*
X014179Y018276D02*
X032036Y018276D01*
X032012Y018198D02*
X014258Y018198D01*
X014336Y018119D02*
X031988Y018119D01*
X031983Y018041D02*
X014415Y018041D01*
X014493Y017962D02*
X031983Y017962D01*
X031983Y017884D02*
X014572Y017884D01*
X014650Y017805D02*
X031983Y017805D01*
X031983Y017727D02*
X014729Y017727D01*
X014807Y017648D02*
X031983Y017648D01*
X031997Y017570D02*
X014886Y017570D01*
X014964Y017491D02*
X032021Y017491D01*
X032045Y017413D02*
X015043Y017413D01*
X015121Y017334D02*
X032069Y017334D01*
X032094Y017256D02*
X015200Y017256D01*
X015278Y017177D02*
X032118Y017177D01*
X032127Y017147D02*
X032127Y017147D01*
X032160Y017099D02*
X015357Y017099D01*
X015435Y017020D02*
X032214Y017020D01*
X032267Y016942D02*
X015514Y016942D01*
X015592Y016863D02*
X032321Y016863D01*
X032374Y016785D02*
X015671Y016785D01*
X015749Y016706D02*
X032449Y016706D01*
X032548Y016628D02*
X015828Y016628D01*
X015906Y016549D02*
X032646Y016549D01*
X032745Y016471D02*
X015985Y016471D01*
X016063Y016392D02*
X032904Y016392D01*
X032785Y016439D02*
X032785Y016439D01*
X033104Y016314D02*
X016142Y016314D01*
X016220Y016235D02*
X033575Y016235D01*
X033727Y016224D02*
X033727Y016224D01*
X033777Y016235D02*
X035133Y016235D01*
X035133Y016157D02*
X034201Y016157D01*
X034194Y016159D02*
X034015Y016159D01*
X033850Y016091D01*
X033723Y015964D01*
X033655Y015799D01*
X033655Y015620D01*
X033723Y015455D01*
X033850Y015328D01*
X034015Y015259D01*
X034194Y015259D01*
X034359Y015328D01*
X034486Y015455D01*
X034555Y015620D01*
X034555Y015799D01*
X034486Y015964D01*
X034359Y016091D01*
X034194Y016159D01*
X034121Y016314D02*
X035133Y016314D01*
X035133Y016392D02*
X034307Y016392D01*
X034204Y016332D02*
X034204Y016332D01*
X034008Y016157D02*
X033201Y016157D01*
X033194Y016159D02*
X033015Y016159D01*
X032850Y016091D01*
X032723Y015964D01*
X032655Y015799D01*
X032655Y015620D01*
X032723Y015455D01*
X032850Y015328D01*
X033015Y015259D01*
X033194Y015259D01*
X033359Y015328D01*
X033486Y015455D01*
X033555Y015620D01*
X033555Y015799D01*
X033486Y015964D01*
X033359Y016091D01*
X033194Y016159D01*
X033240Y016260D02*
X033240Y016260D01*
X033372Y016078D02*
X033837Y016078D01*
X033758Y016000D02*
X033451Y016000D01*
X033504Y015921D02*
X033705Y015921D01*
X033673Y015843D02*
X033537Y015843D01*
X033555Y015764D02*
X033655Y015764D01*
X033655Y015686D02*
X033555Y015686D01*
X033549Y015607D02*
X033660Y015607D01*
X033692Y015529D02*
X033517Y015529D01*
X033482Y015450D02*
X033728Y015450D01*
X033806Y015372D02*
X033403Y015372D01*
X033275Y015293D02*
X033934Y015293D01*
X034015Y015159D02*
X033850Y015091D01*
X033723Y014964D01*
X033655Y014799D01*
X033655Y014620D01*
X033723Y014455D01*
X033850Y014328D01*
X034015Y014259D01*
X034194Y014259D01*
X034359Y014328D01*
X034486Y014455D01*
X034555Y014620D01*
X034555Y014799D01*
X034486Y014964D01*
X034359Y015091D01*
X034194Y015159D01*
X034015Y015159D01*
X033959Y015136D02*
X033251Y015136D01*
X033194Y015159D02*
X033359Y015091D01*
X033486Y014964D01*
X033555Y014799D01*
X033555Y014620D01*
X033486Y014455D01*
X033359Y014328D01*
X033194Y014259D01*
X033015Y014259D01*
X032850Y014328D01*
X032723Y014455D01*
X032655Y014620D01*
X032655Y014799D01*
X032723Y014964D01*
X032850Y015091D01*
X033015Y015159D01*
X033194Y015159D01*
X033393Y015058D02*
X033816Y015058D01*
X033738Y014979D02*
X033471Y014979D01*
X033512Y014901D02*
X033697Y014901D01*
X033664Y014822D02*
X033545Y014822D01*
X033555Y014744D02*
X033655Y014744D01*
X033655Y014665D02*
X033555Y014665D01*
X033541Y014587D02*
X033668Y014587D01*
X033701Y014508D02*
X033508Y014508D01*
X033461Y014430D02*
X033748Y014430D01*
X033827Y014351D02*
X033383Y014351D01*
X033226Y014273D02*
X033983Y014273D01*
X034015Y014159D02*
X033850Y014091D01*
X033723Y013964D01*
X033655Y013799D01*
X033655Y013620D01*
X033723Y013455D01*
X033850Y013328D01*
X034015Y013259D01*
X034194Y013259D01*
X034359Y013328D01*
X034486Y013455D01*
X034555Y013620D01*
X034555Y013799D01*
X034486Y013964D01*
X034359Y014091D01*
X034194Y014159D01*
X034015Y014159D01*
X033909Y014116D02*
X033300Y014116D01*
X033359Y014091D02*
X033194Y014159D01*
X033015Y014159D01*
X032850Y014091D01*
X032723Y013964D01*
X032655Y013799D01*
X032655Y013620D01*
X032723Y013455D01*
X032850Y013328D01*
X033015Y013259D01*
X033194Y013259D01*
X033359Y013328D01*
X033486Y013455D01*
X033555Y013620D01*
X033555Y013799D01*
X033486Y013964D01*
X033359Y014091D01*
X033413Y014037D02*
X033796Y014037D01*
X033721Y013959D02*
X033488Y013959D01*
X033521Y013880D02*
X033688Y013880D01*
X033656Y013802D02*
X033553Y013802D01*
X033555Y013723D02*
X033655Y013723D01*
X033655Y013645D02*
X033555Y013645D01*
X033532Y013566D02*
X033677Y013566D01*
X033709Y013488D02*
X033500Y013488D01*
X033441Y013409D02*
X033769Y013409D01*
X033847Y013331D02*
X033362Y013331D01*
X032847Y013331D02*
X019125Y013331D01*
X019046Y013409D02*
X032769Y013409D01*
X032709Y013488D02*
X018968Y013488D01*
X018889Y013566D02*
X032677Y013566D01*
X032655Y013645D02*
X018811Y013645D01*
X018732Y013723D02*
X032655Y013723D01*
X032656Y013802D02*
X018654Y013802D01*
X018575Y013880D02*
X032688Y013880D01*
X032721Y013959D02*
X018497Y013959D01*
X018418Y014037D02*
X032796Y014037D01*
X032909Y014116D02*
X018340Y014116D01*
X018261Y014194D02*
X035133Y014194D01*
X035133Y014116D02*
X034300Y014116D01*
X034413Y014037D02*
X035133Y014037D01*
X035133Y013959D02*
X034488Y013959D01*
X034521Y013880D02*
X035133Y013880D01*
X035133Y013802D02*
X034553Y013802D01*
X034555Y013723D02*
X035133Y013723D01*
X035133Y013645D02*
X034555Y013645D01*
X034532Y013566D02*
X035133Y013566D01*
X035133Y013488D02*
X034500Y013488D01*
X034441Y013409D02*
X035133Y013409D01*
X035133Y013331D02*
X034362Y013331D01*
X035133Y013252D02*
X019203Y013252D01*
X019282Y013174D02*
X035133Y013174D01*
X035133Y013095D02*
X019360Y013095D01*
X019439Y013017D02*
X035133Y013017D01*
X035133Y012938D02*
X019517Y012938D01*
X019596Y012860D02*
X035133Y012860D01*
X035133Y012781D02*
X019674Y012781D01*
X019753Y012703D02*
X035133Y012703D01*
X033848Y012546D02*
X033362Y012546D01*
X033440Y012467D02*
X033769Y012467D01*
X033710Y012389D02*
X033500Y012389D01*
X033532Y012310D02*
X033677Y012310D01*
X033655Y012232D02*
X033555Y012232D01*
X033555Y012153D02*
X033655Y012153D01*
X033655Y012075D02*
X033554Y012075D01*
X033521Y011996D02*
X033688Y011996D01*
X033720Y011918D02*
X033489Y011918D01*
X033414Y011839D02*
X033795Y011839D01*
X033908Y011761D02*
X033301Y011761D01*
X033224Y011604D02*
X033985Y011604D01*
X034015Y011616D02*
X033850Y011548D01*
X033723Y011421D01*
X033655Y011256D01*
X033655Y011077D01*
X033723Y010911D01*
X033850Y010785D01*
X034015Y010716D01*
X034194Y010716D01*
X034359Y010785D01*
X034486Y010911D01*
X034555Y011077D01*
X034555Y011256D01*
X034486Y011421D01*
X034359Y011548D01*
X034194Y011616D01*
X034015Y011616D01*
X033827Y011525D02*
X033382Y011525D01*
X033461Y011447D02*
X033749Y011447D01*
X033701Y011368D02*
X033508Y011368D01*
X033541Y011290D02*
X033669Y011290D01*
X033655Y011211D02*
X033555Y011211D01*
X033555Y011133D02*
X033655Y011133D01*
X033664Y011054D02*
X033545Y011054D01*
X033513Y010976D02*
X033696Y010976D01*
X033737Y010897D02*
X033472Y010897D01*
X033393Y010819D02*
X033816Y010819D01*
X033957Y010740D02*
X033252Y010740D01*
X033274Y010583D02*
X033935Y010583D01*
X033807Y010505D02*
X033403Y010505D01*
X033481Y010426D02*
X033728Y010426D01*
X033693Y010348D02*
X033517Y010348D01*
X033549Y010269D02*
X033660Y010269D01*
X033655Y010191D02*
X033555Y010191D01*
X033555Y010112D02*
X033655Y010112D01*
X033672Y010034D02*
X033537Y010034D01*
X033504Y009955D02*
X033705Y009955D01*
X033758Y009877D02*
X033451Y009877D01*
X033373Y009798D02*
X033836Y009798D01*
X034373Y009798D02*
X035133Y009798D01*
X035133Y009877D02*
X034451Y009877D01*
X034504Y009955D02*
X035133Y009955D01*
X035133Y010034D02*
X034537Y010034D01*
X034555Y010112D02*
X035133Y010112D01*
X035133Y010191D02*
X034555Y010191D01*
X034549Y010269D02*
X035133Y010269D01*
X035133Y010348D02*
X034517Y010348D01*
X034481Y010426D02*
X035133Y010426D01*
X035133Y010505D02*
X034403Y010505D01*
X034274Y010583D02*
X035133Y010583D01*
X035133Y010662D02*
X021794Y010662D01*
X021542Y010348D02*
X020926Y010348D01*
X020848Y010426D02*
X021463Y010426D01*
X021385Y010505D02*
X020769Y010505D01*
X020691Y010583D02*
X021306Y010583D01*
X021228Y010662D02*
X020612Y010662D01*
X020534Y010740D02*
X021149Y010740D01*
X021071Y010819D02*
X020455Y010819D01*
X020377Y010897D02*
X020992Y010897D01*
X020914Y010976D02*
X020298Y010976D01*
X020220Y011054D02*
X020835Y011054D01*
X020757Y011133D02*
X020141Y011133D01*
X020063Y011211D02*
X020678Y011211D01*
X020600Y011290D02*
X019984Y011290D01*
X019906Y011368D02*
X020521Y011368D01*
X019968Y010740D02*
X013290Y010740D01*
X013290Y010662D02*
X020047Y010662D01*
X020125Y010583D02*
X013290Y010583D01*
X013290Y010505D02*
X020204Y010505D01*
X020282Y010426D02*
X013290Y010426D01*
X013321Y010348D02*
X020361Y010348D01*
X020439Y010269D02*
X013399Y010269D01*
X013478Y010191D02*
X020518Y010191D01*
X020596Y010112D02*
X013556Y010112D01*
X013635Y010034D02*
X020675Y010034D01*
X020753Y009955D02*
X013713Y009955D01*
X013792Y009877D02*
X020832Y009877D01*
X020910Y009798D02*
X013870Y009798D01*
X013949Y009720D02*
X020989Y009720D01*
X021067Y009641D02*
X014027Y009641D01*
X014106Y009563D02*
X021146Y009563D01*
X021224Y009484D02*
X014184Y009484D01*
X014263Y009406D02*
X021303Y009406D01*
X021381Y009327D02*
X014341Y009327D01*
X014420Y009249D02*
X021460Y009249D01*
X021538Y009170D02*
X014498Y009170D01*
X014577Y009092D02*
X021617Y009092D01*
X021695Y009013D02*
X014655Y009013D01*
X014734Y008935D02*
X021774Y008935D01*
X021852Y008856D02*
X014812Y008856D01*
X014891Y008778D02*
X021931Y008778D01*
X022009Y008699D02*
X014969Y008699D01*
X015048Y008621D02*
X022088Y008621D01*
X022166Y008542D02*
X015126Y008542D01*
X015179Y008464D02*
X022245Y008464D01*
X022323Y008385D02*
X015179Y008385D01*
X015179Y008307D02*
X022402Y008307D01*
X022480Y008228D02*
X015179Y008228D01*
X015179Y008150D02*
X022559Y008150D01*
X022637Y008071D02*
X015179Y008071D01*
X015179Y007993D02*
X022716Y007993D01*
X022794Y007914D02*
X015179Y007914D01*
X015179Y007836D02*
X022873Y007836D01*
X022951Y007757D02*
X015179Y007757D01*
X015179Y007679D02*
X023030Y007679D01*
X023108Y007600D02*
X015179Y007600D01*
X015179Y007522D02*
X023187Y007522D01*
X023265Y007443D02*
X015179Y007443D01*
X015179Y007365D02*
X023344Y007365D01*
X023422Y007286D02*
X015179Y007286D01*
X015179Y007208D02*
X023501Y007208D01*
X023579Y007129D02*
X015179Y007129D01*
X015179Y007051D02*
X023658Y007051D01*
X023736Y006972D02*
X015179Y006972D01*
X015179Y006894D02*
X023815Y006894D01*
X023893Y006815D02*
X015179Y006815D01*
X015179Y006737D02*
X023972Y006737D01*
X024050Y006658D02*
X015179Y006658D01*
X015179Y006580D02*
X024129Y006580D01*
X024207Y006501D02*
X015179Y006501D01*
X015179Y006423D02*
X024286Y006423D01*
X024364Y006344D02*
X015179Y006344D01*
X015179Y006266D02*
X024443Y006266D01*
X024521Y006187D02*
X015179Y006187D01*
X015179Y006109D02*
X024600Y006109D01*
X024678Y006030D02*
X015179Y006030D01*
X015179Y005952D02*
X024757Y005952D01*
X024835Y005873D02*
X015179Y005873D01*
X015179Y005795D02*
X024914Y005795D01*
X024940Y005716D02*
X015179Y005716D01*
X015179Y005638D02*
X024940Y005638D01*
X024940Y005559D02*
X015179Y005559D01*
X015179Y005481D02*
X024940Y005481D01*
X024940Y005402D02*
X015179Y005402D01*
X015179Y005324D02*
X024940Y005324D01*
X024940Y005245D02*
X015179Y005245D01*
X015179Y005167D02*
X024940Y005167D01*
X024940Y005088D02*
X015179Y005088D01*
X015179Y005010D02*
X024940Y005010D01*
X024940Y004931D02*
X015179Y004931D01*
X015179Y004853D02*
X024940Y004853D01*
X024940Y004774D02*
X015179Y004774D01*
X015179Y004696D02*
X024940Y004696D01*
X024940Y004617D02*
X024885Y004617D01*
X024607Y004617D02*
X024492Y004617D01*
X024214Y004617D02*
X024098Y004617D01*
X023820Y004617D02*
X023704Y004617D01*
X023426Y004617D02*
X023311Y004617D01*
X023032Y004617D02*
X022917Y004617D01*
X022639Y004617D02*
X022523Y004617D01*
X022245Y004617D02*
X022129Y004617D01*
X021851Y004617D02*
X021736Y004617D01*
X021458Y004617D02*
X021342Y004617D01*
X021064Y004617D02*
X020948Y004617D01*
X020670Y004617D02*
X020555Y004617D01*
X020277Y004617D02*
X020161Y004617D01*
X019883Y004617D02*
X019767Y004617D01*
X019489Y004617D02*
X019374Y004617D01*
X019095Y004617D02*
X018980Y004617D01*
X018702Y004617D02*
X018586Y004617D01*
X018308Y004617D02*
X018192Y004617D01*
X017914Y004617D02*
X017799Y004617D01*
X017521Y004617D02*
X017405Y004617D01*
X017127Y004617D02*
X017011Y004617D01*
X016733Y004617D02*
X016618Y004617D01*
X016340Y004617D02*
X016224Y004617D01*
X015946Y004617D02*
X015830Y004617D01*
X015552Y004617D02*
X015437Y004617D01*
X015022Y004696D02*
X011167Y004696D01*
X011167Y004774D02*
X015022Y004774D01*
X015022Y004853D02*
X011167Y004853D01*
X011167Y004931D02*
X015022Y004931D01*
X015022Y005010D02*
X011195Y005010D01*
X011274Y005088D02*
X015022Y005088D01*
X015022Y005167D02*
X011352Y005167D01*
X011431Y005245D02*
X015022Y005245D01*
X015022Y005324D02*
X011509Y005324D01*
X011560Y005402D02*
X015022Y005402D01*
X015022Y005481D02*
X011560Y005481D01*
X011560Y005559D02*
X015022Y005559D01*
X015022Y005638D02*
X011560Y005638D01*
X011560Y005716D02*
X015022Y005716D01*
X015022Y005795D02*
X011560Y005795D01*
X011560Y005873D02*
X015022Y005873D01*
X015022Y005952D02*
X011560Y005952D01*
X011560Y006030D02*
X015022Y006030D01*
X015022Y006109D02*
X011560Y006109D01*
X011560Y006187D02*
X015022Y006187D01*
X015022Y006266D02*
X011560Y006266D01*
X011560Y006344D02*
X015022Y006344D01*
X015022Y006423D02*
X011560Y006423D01*
X011560Y006501D02*
X015022Y006501D01*
X015022Y006580D02*
X011560Y006580D01*
X011560Y006658D02*
X015022Y006658D01*
X015022Y006737D02*
X011560Y006737D01*
X011560Y006815D02*
X015022Y006815D01*
X015022Y006894D02*
X011560Y006894D01*
X011560Y006972D02*
X015022Y006972D01*
X015022Y007051D02*
X011560Y007051D01*
X011560Y007129D02*
X015022Y007129D01*
X015022Y007208D02*
X011560Y007208D01*
X011560Y007286D02*
X015022Y007286D01*
X015022Y007365D02*
X011560Y007365D01*
X011560Y007443D02*
X015022Y007443D01*
X015022Y007522D02*
X011560Y007522D01*
X011560Y007600D02*
X015022Y007600D01*
X015022Y007679D02*
X011560Y007679D01*
X011560Y007757D02*
X015022Y007757D01*
X015022Y007836D02*
X011560Y007836D01*
X011560Y007914D02*
X015022Y007914D01*
X015022Y007993D02*
X011560Y007993D01*
X011560Y008071D02*
X015022Y008071D01*
X015022Y008150D02*
X011560Y008150D01*
X011560Y008228D02*
X015022Y008228D01*
X015022Y008307D02*
X011560Y008307D01*
X011560Y008385D02*
X015022Y008385D01*
X014969Y008464D02*
X011560Y008464D01*
X011560Y008542D02*
X014890Y008542D01*
X014812Y008621D02*
X011560Y008621D01*
X011560Y008699D02*
X014733Y008699D01*
X014655Y008778D02*
X011560Y008778D01*
X011560Y008856D02*
X014576Y008856D01*
X014498Y008935D02*
X011560Y008935D01*
X011560Y009013D02*
X014419Y009013D01*
X014341Y009092D02*
X011560Y009092D01*
X011560Y009170D02*
X014262Y009170D01*
X014184Y009249D02*
X011560Y009249D01*
X011560Y009327D02*
X014105Y009327D01*
X014027Y009406D02*
X011560Y009406D01*
X011560Y009484D02*
X013948Y009484D01*
X013870Y009563D02*
X011560Y009563D01*
X011560Y009641D02*
X013791Y009641D01*
X013713Y009720D02*
X011560Y009720D01*
X011560Y009798D02*
X013634Y009798D01*
X013556Y009877D02*
X011560Y009877D01*
X011560Y009955D02*
X013477Y009955D01*
X013399Y010034D02*
X011560Y010034D01*
X011560Y010112D02*
X013320Y010112D01*
X013242Y010191D02*
X011560Y010191D01*
X011560Y010269D02*
X013163Y010269D01*
X013132Y010348D02*
X011560Y010348D01*
X011560Y010426D02*
X013132Y010426D01*
X013132Y010505D02*
X011560Y010505D01*
X011560Y010583D02*
X013132Y010583D01*
X013132Y010662D02*
X011560Y010662D01*
X011560Y010740D02*
X013132Y010740D01*
X013132Y010819D02*
X011560Y010819D01*
X011560Y010897D02*
X013132Y010897D01*
X013132Y010976D02*
X011560Y010976D01*
X011560Y011054D02*
X013132Y011054D01*
X013132Y011133D02*
X011560Y011133D01*
X011560Y011211D02*
X013132Y011211D01*
X013132Y011290D02*
X011560Y011290D01*
X011560Y011368D02*
X013132Y011368D01*
X013132Y011447D02*
X011560Y011447D01*
X011560Y011525D02*
X013132Y011525D01*
X013132Y011604D02*
X011560Y011604D01*
X011560Y011682D02*
X013132Y011682D01*
X013132Y011761D02*
X011560Y011761D01*
X011560Y011839D02*
X013132Y011839D01*
X013132Y011918D02*
X011560Y011918D01*
X011560Y011996D02*
X013132Y011996D01*
X013132Y012075D02*
X011560Y012075D01*
X011560Y012153D02*
X013132Y012153D01*
X013132Y012232D02*
X011560Y012232D01*
X011560Y012310D02*
X013132Y012310D01*
X013132Y012389D02*
X011560Y012389D01*
X011560Y012467D02*
X013132Y012467D01*
X013132Y012546D02*
X011560Y012546D01*
X011560Y012624D02*
X013132Y012624D01*
X013132Y012703D02*
X011560Y012703D01*
X011560Y012781D02*
X013132Y012781D01*
X013132Y012860D02*
X011560Y012860D01*
X011560Y012938D02*
X013132Y012938D01*
X013132Y013017D02*
X011560Y013017D01*
X011560Y013095D02*
X013132Y013095D01*
X013132Y013174D02*
X011560Y013174D01*
X011560Y013252D02*
X013132Y013252D01*
X013132Y013331D02*
X011560Y013331D01*
X011560Y013409D02*
X013132Y013409D01*
X013132Y013488D02*
X011560Y013488D01*
X011560Y013566D02*
X013132Y013566D01*
X013132Y013645D02*
X011560Y013645D01*
X011560Y013723D02*
X013132Y013723D01*
X013132Y013802D02*
X011560Y013802D01*
X011560Y013880D02*
X013132Y013880D01*
X013132Y013959D02*
X011560Y013959D01*
X011560Y014037D02*
X013132Y014037D01*
X013132Y014116D02*
X011560Y014116D01*
X011560Y014194D02*
X013132Y014194D01*
X013132Y014273D02*
X011490Y014273D01*
X011411Y014351D02*
X013132Y014351D01*
X013132Y014430D02*
X011333Y014430D01*
X011254Y014508D02*
X013132Y014508D01*
X013132Y014587D02*
X011176Y014587D01*
X011097Y014665D02*
X013132Y014665D01*
X013098Y014744D02*
X011019Y014744D01*
X010940Y014822D02*
X013020Y014822D01*
X012941Y014901D02*
X010862Y014901D01*
X010783Y014979D02*
X012863Y014979D01*
X012784Y015058D02*
X010705Y015058D01*
X010626Y015136D02*
X012706Y015136D01*
X012627Y015215D02*
X010548Y015215D01*
X010469Y015293D02*
X012549Y015293D01*
X012470Y015372D02*
X010391Y015372D01*
X010312Y015450D02*
X012392Y015450D01*
X012313Y015529D02*
X010234Y015529D01*
X010155Y015607D02*
X012235Y015607D01*
X012156Y015686D02*
X010077Y015686D01*
X009998Y015764D02*
X012078Y015764D01*
X011999Y015843D02*
X009920Y015843D01*
X009841Y015921D02*
X011921Y015921D01*
X011842Y016000D02*
X009763Y016000D01*
X009684Y016078D02*
X011764Y016078D01*
X011685Y016157D02*
X009606Y016157D01*
X009527Y016235D02*
X011607Y016235D01*
X011528Y016314D02*
X009449Y016314D01*
X009370Y016392D02*
X011450Y016392D01*
X011371Y016471D02*
X009292Y016471D01*
X009213Y016549D02*
X011293Y016549D01*
X011214Y016628D02*
X009135Y016628D01*
X009056Y016706D02*
X011136Y016706D01*
X011057Y016785D02*
X008978Y016785D01*
X008899Y016863D02*
X010979Y016863D01*
X010900Y016942D02*
X008821Y016942D01*
X008742Y017020D02*
X010822Y017020D01*
X010743Y017099D02*
X008664Y017099D01*
X008585Y017177D02*
X010665Y017177D01*
X010586Y017256D02*
X008507Y017256D01*
X008428Y017334D02*
X010508Y017334D01*
X010429Y017413D02*
X008371Y017413D01*
X008371Y017491D02*
X010351Y017491D01*
X010272Y017570D02*
X008371Y017570D01*
X008371Y017648D02*
X010194Y017648D01*
X010115Y017727D02*
X008371Y017727D01*
X008371Y017805D02*
X010036Y017805D01*
X009958Y017884D02*
X008371Y017884D01*
X008371Y017962D02*
X009904Y017962D01*
X009904Y018041D02*
X008371Y018041D01*
X008371Y018119D02*
X009904Y018119D01*
X009904Y018198D02*
X008371Y018198D01*
X008371Y018276D02*
X009904Y018276D01*
X009904Y018355D02*
X008371Y018355D01*
X008371Y018433D02*
X009904Y018433D01*
X009904Y018512D02*
X008371Y018512D01*
X008371Y018590D02*
X009904Y018590D01*
X009904Y018669D02*
X008371Y018669D01*
X008371Y018747D02*
X009904Y018747D01*
X009904Y018826D02*
X008371Y018826D01*
X008371Y018904D02*
X009904Y018904D01*
X009904Y018983D02*
X008371Y018983D01*
X008371Y019061D02*
X009904Y019061D01*
X009904Y019140D02*
X008371Y019140D01*
X008371Y019218D02*
X009904Y019218D01*
X009904Y019297D02*
X008371Y019297D01*
X008371Y019375D02*
X009904Y019375D01*
X009904Y019454D02*
X008371Y019454D01*
X008371Y019532D02*
X009904Y019532D01*
X009904Y019611D02*
X008371Y019611D01*
X008371Y019689D02*
X009904Y019689D01*
X009904Y019768D02*
X008371Y019768D01*
X008371Y019846D02*
X009904Y019846D01*
X009904Y019925D02*
X008371Y019925D01*
X008371Y020003D02*
X009904Y020003D01*
X009904Y020082D02*
X008371Y020082D01*
X008498Y020160D02*
X009904Y020160D01*
X009904Y020239D02*
X008576Y020239D01*
X008646Y020317D02*
X009904Y020317D01*
X009904Y020396D02*
X008679Y020396D01*
X008711Y020474D02*
X009904Y020474D01*
X009904Y020553D02*
X008724Y020553D01*
X008724Y020631D02*
X009904Y020631D01*
X009904Y020710D02*
X008724Y020710D01*
X008698Y020788D02*
X009904Y020788D01*
X009904Y020867D02*
X008665Y020867D01*
X008623Y020945D02*
X009904Y020945D01*
X009904Y021024D02*
X008544Y021024D01*
X008439Y021102D02*
X009904Y021102D01*
X009904Y021181D02*
X002348Y021181D01*
X002344Y021183D02*
X002252Y021212D01*
X002157Y021227D01*
X002149Y021227D01*
X002149Y020655D01*
X002721Y020655D01*
X002721Y020663D01*
X002706Y020758D01*
X002676Y020850D01*
X002632Y020936D01*
X002576Y021014D01*
X002508Y021082D01*
X002430Y021139D01*
X002344Y021183D01*
X002480Y021102D02*
X003809Y021102D01*
X003704Y021024D02*
X002566Y021024D01*
X002626Y020945D02*
X003626Y020945D01*
X003583Y020867D02*
X002668Y020867D01*
X002696Y020788D02*
X003551Y020788D01*
X003525Y020710D02*
X002714Y020710D01*
X002721Y020575D02*
X002149Y020575D01*
X002149Y020655D01*
X002069Y020655D01*
X002069Y021227D01*
X002060Y021227D01*
X001965Y021212D01*
X001873Y021183D01*
X001787Y021139D01*
X001709Y021082D01*
X001641Y021014D01*
X001585Y020936D01*
X001541Y020850D01*
X001511Y020758D01*
X001496Y020663D01*
X001496Y020655D01*
X002068Y020655D01*
X002068Y020575D01*
X001496Y020575D01*
X001496Y020567D01*
X001511Y020472D01*
X001541Y020380D01*
X001585Y020294D01*
X001641Y020216D01*
X001709Y020148D01*
X001787Y020091D01*
X001873Y020047D01*
X001965Y020018D01*
X002060Y020002D01*
X002069Y020002D01*
X002069Y020575D01*
X002149Y020575D01*
X002149Y020002D01*
X002157Y020002D01*
X002252Y020018D01*
X002344Y020047D01*
X002430Y020091D01*
X002508Y020148D01*
X002576Y020216D01*
X002632Y020294D01*
X002676Y020380D01*
X002706Y020472D01*
X002721Y020567D01*
X002721Y020575D01*
X002719Y020553D02*
X003525Y020553D01*
X003525Y020631D02*
X002149Y020631D01*
X002149Y020553D02*
X002069Y020553D01*
X002068Y020631D02*
X000580Y020631D01*
X000580Y020553D02*
X001498Y020553D01*
X001511Y020474D02*
X000580Y020474D01*
X000580Y020396D02*
X001536Y020396D01*
X001573Y020317D02*
X000580Y020317D01*
X000580Y020239D02*
X001625Y020239D01*
X001697Y020160D02*
X000580Y020160D01*
X000580Y020082D02*
X001806Y020082D01*
X002069Y020082D02*
X002149Y020082D01*
X002149Y020160D02*
X002069Y020160D01*
X002069Y020239D02*
X002149Y020239D01*
X002149Y020317D02*
X002069Y020317D01*
X002069Y020396D02*
X002149Y020396D01*
X002149Y020474D02*
X002069Y020474D01*
X002069Y020710D02*
X002149Y020710D01*
X002149Y020788D02*
X002069Y020788D01*
X002069Y020867D02*
X002149Y020867D01*
X002149Y020945D02*
X002069Y020945D01*
X002069Y021024D02*
X002149Y021024D01*
X002149Y021102D02*
X002069Y021102D01*
X002069Y021181D02*
X002149Y021181D01*
X001869Y021181D02*
X000580Y021181D01*
X000580Y021259D02*
X009904Y021259D01*
X009904Y021338D02*
X000580Y021338D01*
X000580Y021416D02*
X009904Y021416D01*
X009904Y021495D02*
X000580Y021495D01*
X000580Y021573D02*
X009904Y021573D01*
X009904Y021652D02*
X000580Y021652D01*
X000580Y021730D02*
X009904Y021730D01*
X010061Y021730D02*
X035133Y021730D01*
X035133Y021652D02*
X010061Y021652D01*
X010061Y021573D02*
X035133Y021573D01*
X035133Y021495D02*
X010061Y021495D01*
X010061Y021416D02*
X035133Y021416D01*
X035133Y021338D02*
X010061Y021338D01*
X010061Y021102D02*
X011290Y021102D01*
X011185Y021024D02*
X010061Y021024D01*
X010061Y020945D02*
X011106Y020945D01*
X011064Y020867D02*
X010061Y020867D01*
X010061Y020788D02*
X011031Y020788D01*
X011005Y020710D02*
X010061Y020710D01*
X010061Y020631D02*
X011005Y020631D01*
X011005Y020553D02*
X010061Y020553D01*
X010061Y020474D02*
X011018Y020474D01*
X011050Y020396D02*
X010061Y020396D01*
X010061Y020317D02*
X011083Y020317D01*
X011152Y020239D02*
X010061Y020239D01*
X010061Y020160D02*
X011231Y020160D01*
X011357Y020082D02*
X010061Y020082D01*
X010061Y020003D02*
X011357Y020003D01*
X011357Y019925D02*
X010061Y019925D01*
X010061Y019846D02*
X011357Y019846D01*
X011357Y019768D02*
X010061Y019768D01*
X010061Y019689D02*
X011357Y019689D01*
X011357Y019611D02*
X010061Y019611D01*
X010061Y019532D02*
X011357Y019532D01*
X011357Y019454D02*
X010061Y019454D01*
X010061Y019375D02*
X011357Y019375D01*
X011412Y019297D02*
X010061Y019297D01*
X010061Y019218D02*
X011490Y019218D01*
X011569Y019140D02*
X010061Y019140D01*
X010061Y019061D02*
X011647Y019061D01*
X011726Y018983D02*
X010061Y018983D01*
X010061Y018904D02*
X011804Y018904D01*
X011883Y018826D02*
X010061Y018826D01*
X010061Y018747D02*
X011961Y018747D01*
X012040Y018669D02*
X010061Y018669D01*
X010061Y018590D02*
X012118Y018590D01*
X012197Y018512D02*
X010061Y018512D01*
X010061Y018433D02*
X012275Y018433D01*
X012354Y018355D02*
X010061Y018355D01*
X010061Y018276D02*
X012432Y018276D01*
X012511Y018198D02*
X010061Y018198D01*
X010061Y018119D02*
X012589Y018119D01*
X012668Y018041D02*
X010077Y018041D01*
X010155Y017962D02*
X012746Y017962D01*
X012825Y017884D02*
X010234Y017884D01*
X010312Y017805D02*
X012903Y017805D01*
X012982Y017727D02*
X010391Y017727D01*
X010469Y017648D02*
X013060Y017648D01*
X013139Y017570D02*
X010548Y017570D01*
X010626Y017491D02*
X013217Y017491D01*
X013296Y017413D02*
X010705Y017413D01*
X010783Y017334D02*
X013374Y017334D01*
X013453Y017256D02*
X010862Y017256D01*
X010940Y017177D02*
X013531Y017177D01*
X013610Y017099D02*
X011019Y017099D01*
X011097Y017020D02*
X013688Y017020D01*
X013767Y016942D02*
X011176Y016942D01*
X011254Y016863D02*
X013845Y016863D01*
X013924Y016785D02*
X011333Y016785D01*
X011411Y016706D02*
X014002Y016706D01*
X014081Y016628D02*
X011490Y016628D01*
X011568Y016549D02*
X014159Y016549D01*
X014238Y016471D02*
X011647Y016471D01*
X011725Y016392D02*
X014316Y016392D01*
X014395Y016314D02*
X011804Y016314D01*
X011882Y016235D02*
X014473Y016235D01*
X014552Y016157D02*
X011961Y016157D01*
X012039Y016078D02*
X014630Y016078D01*
X014709Y016000D02*
X012118Y016000D01*
X012196Y015921D02*
X014787Y015921D01*
X014866Y015843D02*
X012275Y015843D01*
X012353Y015764D02*
X014944Y015764D01*
X015023Y015686D02*
X012432Y015686D01*
X012510Y015607D02*
X015101Y015607D01*
X015180Y015529D02*
X012589Y015529D01*
X012667Y015450D02*
X015258Y015450D01*
X015337Y015372D02*
X012746Y015372D01*
X012824Y015293D02*
X015415Y015293D01*
X015494Y015215D02*
X012903Y015215D01*
X012981Y015136D02*
X015572Y015136D01*
X015651Y015058D02*
X013060Y015058D01*
X013138Y014979D02*
X015729Y014979D01*
X015808Y014901D02*
X013217Y014901D01*
X013290Y014822D02*
X015886Y014822D01*
X015965Y014744D02*
X013290Y014744D01*
X013290Y014665D02*
X016043Y014665D01*
X016122Y014587D02*
X013290Y014587D01*
X013290Y014508D02*
X016200Y014508D01*
X016279Y014430D02*
X013290Y014430D01*
X013290Y014351D02*
X016357Y014351D01*
X016436Y014273D02*
X013290Y014273D01*
X013290Y014194D02*
X016514Y014194D01*
X016593Y014116D02*
X013290Y014116D01*
X013290Y014037D02*
X016671Y014037D01*
X016750Y013959D02*
X013290Y013959D01*
X013290Y013880D02*
X016828Y013880D01*
X016907Y013802D02*
X013290Y013802D01*
X013290Y013723D02*
X016985Y013723D01*
X017064Y013645D02*
X013290Y013645D01*
X013290Y013566D02*
X017142Y013566D01*
X017221Y013488D02*
X013290Y013488D01*
X013290Y013409D02*
X017299Y013409D01*
X017378Y013331D02*
X013290Y013331D01*
X013290Y013252D02*
X017456Y013252D01*
X017535Y013174D02*
X013290Y013174D01*
X013290Y013095D02*
X017613Y013095D01*
X017692Y013017D02*
X013290Y013017D01*
X013290Y012938D02*
X017770Y012938D01*
X017849Y012860D02*
X013290Y012860D01*
X013290Y012781D02*
X017927Y012781D01*
X018006Y012703D02*
X013290Y012703D01*
X013290Y012624D02*
X018084Y012624D01*
X018163Y012546D02*
X013290Y012546D01*
X013290Y012467D02*
X018241Y012467D01*
X018320Y012389D02*
X013290Y012389D01*
X013290Y012310D02*
X018398Y012310D01*
X018477Y012232D02*
X013290Y012232D01*
X013290Y012153D02*
X018555Y012153D01*
X018634Y012075D02*
X013290Y012075D01*
X013290Y011996D02*
X018712Y011996D01*
X018791Y011918D02*
X013290Y011918D01*
X013290Y011839D02*
X018869Y011839D01*
X018948Y011761D02*
X013290Y011761D01*
X013290Y011682D02*
X019026Y011682D01*
X019105Y011604D02*
X013290Y011604D01*
X013290Y011525D02*
X019183Y011525D01*
X019262Y011447D02*
X013290Y011447D01*
X013290Y011368D02*
X019340Y011368D01*
X019419Y011290D02*
X013290Y011290D01*
X013290Y011211D02*
X019497Y011211D01*
X019576Y011133D02*
X013290Y011133D01*
X013290Y011054D02*
X019654Y011054D01*
X019733Y010976D02*
X013290Y010976D01*
X013290Y010897D02*
X019811Y010897D01*
X019890Y010819D02*
X013290Y010819D01*
X011160Y010819D02*
X010773Y010819D01*
X010773Y010897D02*
X011160Y010897D01*
X011160Y010976D02*
X010773Y010976D01*
X010773Y011054D02*
X011160Y011054D01*
X011160Y011133D02*
X010773Y011133D01*
X010773Y011211D02*
X011160Y011211D01*
X011160Y011290D02*
X010773Y011290D01*
X010773Y011368D02*
X011160Y011368D01*
X011160Y011447D02*
X010773Y011447D01*
X010773Y011525D02*
X011160Y011525D01*
X011160Y011604D02*
X010773Y011604D01*
X010773Y011682D02*
X011160Y011682D01*
X011160Y011761D02*
X010773Y011761D01*
X010773Y011839D02*
X011160Y011839D01*
X011160Y011918D02*
X010773Y011918D01*
X010773Y011996D02*
X011160Y011996D01*
X011160Y012075D02*
X010773Y012075D01*
X010773Y012153D02*
X011160Y012153D01*
X011160Y012232D02*
X010773Y012232D01*
X010773Y012310D02*
X011160Y012310D01*
X011160Y012389D02*
X010773Y012389D01*
X010773Y012467D02*
X011160Y012467D01*
X011160Y012546D02*
X010773Y012546D01*
X010773Y012624D02*
X011160Y012624D01*
X011160Y012703D02*
X010773Y012703D01*
X010773Y012781D02*
X011160Y012781D01*
X011160Y012860D02*
X010773Y012860D01*
X010773Y012938D02*
X011160Y012938D01*
X011160Y013017D02*
X010773Y013017D01*
X010773Y013095D02*
X011160Y013095D01*
X011160Y013174D02*
X010773Y013174D01*
X010773Y013252D02*
X011160Y013252D01*
X011160Y013331D02*
X010773Y013331D01*
X010773Y013409D02*
X011160Y013409D01*
X011160Y013488D02*
X010773Y013488D01*
X010773Y013566D02*
X011160Y013566D01*
X011160Y013645D02*
X010773Y013645D01*
X010773Y013723D02*
X011160Y013723D01*
X011160Y013802D02*
X010773Y013802D01*
X010701Y013880D02*
X011160Y013880D01*
X011160Y013959D02*
X010623Y013959D01*
X010544Y014037D02*
X011159Y014037D01*
X011081Y014116D02*
X010466Y014116D01*
X010387Y014194D02*
X011002Y014194D01*
X010924Y014273D02*
X010309Y014273D01*
X010230Y014351D02*
X010845Y014351D01*
X010767Y014430D02*
X010152Y014430D01*
X010073Y014508D02*
X010688Y014508D01*
X010610Y014587D02*
X009995Y014587D01*
X009916Y014665D02*
X010531Y014665D01*
X010453Y014744D02*
X009838Y014744D01*
X009759Y014822D02*
X010374Y014822D01*
X010296Y014901D02*
X009681Y014901D01*
X009602Y014979D02*
X010217Y014979D01*
X010139Y015058D02*
X009524Y015058D01*
X009445Y015136D02*
X010060Y015136D01*
X009982Y015215D02*
X009367Y015215D01*
X009288Y015293D02*
X009903Y015293D01*
X009825Y015372D02*
X009210Y015372D01*
X009131Y015450D02*
X009746Y015450D01*
X009668Y015529D02*
X009053Y015529D01*
X008974Y015607D02*
X009589Y015607D01*
X009511Y015686D02*
X008896Y015686D01*
X008817Y015764D02*
X009432Y015764D01*
X009354Y015843D02*
X008739Y015843D01*
X008660Y015921D02*
X009275Y015921D01*
X009197Y016000D02*
X008582Y016000D01*
X008503Y016078D02*
X009118Y016078D01*
X009040Y016157D02*
X008425Y016157D01*
X008346Y016235D02*
X008961Y016235D01*
X008883Y016314D02*
X008268Y016314D01*
X008189Y016392D02*
X008804Y016392D01*
X008726Y016471D02*
X008111Y016471D01*
X008032Y016549D02*
X008647Y016549D01*
X008569Y016628D02*
X007954Y016628D01*
X007875Y016706D02*
X008490Y016706D01*
X008412Y016785D02*
X007797Y016785D01*
X007718Y016863D02*
X008333Y016863D01*
X008255Y016942D02*
X007640Y016942D01*
X007561Y017020D02*
X008176Y017020D01*
X008098Y017099D02*
X007483Y017099D01*
X007404Y017177D02*
X008019Y017177D01*
X007971Y017256D02*
X007326Y017256D01*
X007247Y017334D02*
X007971Y017334D01*
X007971Y017413D02*
X007169Y017413D01*
X007090Y017491D02*
X007971Y017491D01*
X007971Y017570D02*
X007012Y017570D01*
X006933Y017648D02*
X007971Y017648D01*
X007971Y017727D02*
X006855Y017727D01*
X006776Y017805D02*
X007971Y017805D01*
X007971Y017884D02*
X006698Y017884D01*
X006619Y017962D02*
X007971Y017962D01*
X007971Y018041D02*
X006541Y018041D01*
X006462Y018119D02*
X007971Y018119D01*
X007971Y018198D02*
X006384Y018198D01*
X006324Y018276D02*
X007971Y018276D01*
X007971Y018355D02*
X006324Y018355D01*
X006324Y018433D02*
X007971Y018433D01*
X007971Y018512D02*
X006324Y018512D01*
X006324Y018590D02*
X007971Y018590D01*
X007971Y018669D02*
X006324Y018669D01*
X006324Y018747D02*
X007971Y018747D01*
X007971Y018826D02*
X006324Y018826D01*
X006324Y018904D02*
X007971Y018904D01*
X007971Y018983D02*
X006324Y018983D01*
X006324Y019061D02*
X007971Y019061D01*
X007971Y019140D02*
X006324Y019140D01*
X006324Y019218D02*
X007971Y019218D01*
X007971Y019297D02*
X006324Y019297D01*
X006324Y019375D02*
X007971Y019375D01*
X007971Y019454D02*
X006324Y019454D01*
X006324Y019532D02*
X007971Y019532D01*
X007971Y019611D02*
X006324Y019611D01*
X006324Y019689D02*
X007971Y019689D01*
X007971Y019768D02*
X006324Y019768D01*
X006324Y019846D02*
X007971Y019846D01*
X007971Y019925D02*
X006324Y019925D01*
X006324Y020003D02*
X007971Y020003D01*
X007971Y020082D02*
X006324Y020082D01*
X006451Y020160D02*
X007845Y020160D01*
X007767Y020239D02*
X006529Y020239D01*
X006599Y020317D02*
X007697Y020317D01*
X007664Y020396D02*
X006631Y020396D01*
X006664Y020474D02*
X007632Y020474D01*
X007619Y020553D02*
X006677Y020553D01*
X006677Y020631D02*
X007619Y020631D01*
X007619Y020710D02*
X006677Y020710D01*
X006651Y020788D02*
X007645Y020788D01*
X007678Y020867D02*
X006618Y020867D01*
X006575Y020945D02*
X007720Y020945D01*
X007799Y021024D02*
X006497Y021024D01*
X006392Y021102D02*
X007904Y021102D01*
X005857Y021102D02*
X004345Y021102D01*
X004450Y021024D02*
X005752Y021024D01*
X005673Y020945D02*
X004528Y020945D01*
X004571Y020867D02*
X005630Y020867D01*
X005598Y020788D02*
X004603Y020788D01*
X004630Y020710D02*
X005572Y020710D01*
X005572Y020631D02*
X004630Y020631D01*
X004630Y020553D02*
X005572Y020553D01*
X005585Y020474D02*
X004617Y020474D01*
X004584Y020396D02*
X005617Y020396D01*
X005650Y020317D02*
X004552Y020317D01*
X004482Y020239D02*
X005719Y020239D01*
X005798Y020160D02*
X004403Y020160D01*
X004277Y020082D02*
X005924Y020082D01*
X005924Y020003D02*
X004277Y020003D01*
X004277Y019925D02*
X005924Y019925D01*
X005924Y019846D02*
X004277Y019846D01*
X004277Y019768D02*
X005924Y019768D01*
X005924Y019689D02*
X004277Y019689D01*
X004277Y019611D02*
X005924Y019611D01*
X005924Y019532D02*
X004277Y019532D01*
X004277Y019454D02*
X005924Y019454D01*
X005924Y019375D02*
X004277Y019375D01*
X004277Y019297D02*
X005924Y019297D01*
X005924Y019218D02*
X004277Y019218D01*
X004277Y019140D02*
X005924Y019140D01*
X005924Y019061D02*
X004339Y019061D01*
X004417Y018983D02*
X005924Y018983D01*
X005924Y018904D02*
X004496Y018904D01*
X004574Y018826D02*
X005924Y018826D01*
X005924Y018747D02*
X004653Y018747D01*
X004731Y018669D02*
X005924Y018669D01*
X005924Y018590D02*
X004810Y018590D01*
X004888Y018512D02*
X005924Y018512D01*
X005924Y018433D02*
X004967Y018433D01*
X005045Y018355D02*
X005924Y018355D01*
X005924Y018276D02*
X005124Y018276D01*
X005202Y018198D02*
X005924Y018198D01*
X005924Y018119D02*
X005281Y018119D01*
X005359Y018041D02*
X005975Y018041D01*
X006053Y017962D02*
X005438Y017962D01*
X005516Y017884D02*
X006132Y017884D01*
X006210Y017805D02*
X005595Y017805D01*
X005673Y017727D02*
X006289Y017727D01*
X006367Y017648D02*
X005752Y017648D01*
X005830Y017570D02*
X006446Y017570D01*
X006524Y017491D02*
X005909Y017491D01*
X005987Y017413D02*
X006603Y017413D01*
X006681Y017334D02*
X006066Y017334D01*
X006144Y017256D02*
X006760Y017256D01*
X006838Y017177D02*
X006223Y017177D01*
X006301Y017099D02*
X006917Y017099D01*
X006995Y017020D02*
X006380Y017020D01*
X006458Y016942D02*
X007074Y016942D01*
X007152Y016863D02*
X006537Y016863D01*
X006615Y016785D02*
X007231Y016785D01*
X007309Y016706D02*
X006694Y016706D01*
X006772Y016628D02*
X007388Y016628D01*
X007466Y016549D02*
X006851Y016549D01*
X006929Y016471D02*
X007545Y016471D01*
X007623Y016392D02*
X007008Y016392D01*
X007086Y016314D02*
X007702Y016314D01*
X007780Y016235D02*
X007165Y016235D01*
X007243Y016157D02*
X007859Y016157D01*
X007937Y016078D02*
X007322Y016078D01*
X007400Y016000D02*
X008016Y016000D01*
X008094Y015921D02*
X007479Y015921D01*
X007557Y015843D02*
X008173Y015843D01*
X008251Y015764D02*
X007636Y015764D01*
X007714Y015686D02*
X008330Y015686D01*
X008408Y015607D02*
X007793Y015607D01*
X007871Y015529D02*
X008487Y015529D01*
X008565Y015450D02*
X007950Y015450D01*
X008028Y015372D02*
X008644Y015372D01*
X008722Y015293D02*
X008107Y015293D01*
X008185Y015215D02*
X008801Y015215D01*
X008879Y015136D02*
X008264Y015136D01*
X008342Y015058D02*
X008958Y015058D01*
X009036Y014979D02*
X008421Y014979D01*
X008499Y014901D02*
X009115Y014901D01*
X009193Y014822D02*
X008578Y014822D01*
X008656Y014744D02*
X009272Y014744D01*
X009350Y014665D02*
X008735Y014665D01*
X008813Y014587D02*
X009429Y014587D01*
X009507Y014508D02*
X008892Y014508D01*
X008970Y014430D02*
X009586Y014430D01*
X009664Y014351D02*
X009049Y014351D01*
X009127Y014273D02*
X009743Y014273D01*
X009821Y014194D02*
X009206Y014194D01*
X009284Y014116D02*
X009900Y014116D01*
X009978Y014037D02*
X009363Y014037D01*
X009441Y013959D02*
X010057Y013959D01*
X010135Y013880D02*
X009520Y013880D01*
X009598Y013802D02*
X010214Y013802D01*
X010292Y013723D02*
X009677Y013723D01*
X009755Y013645D02*
X010371Y013645D01*
X010373Y013566D02*
X009834Y013566D01*
X009912Y013488D02*
X010373Y013488D01*
X010373Y013409D02*
X009986Y013409D01*
X009986Y013331D02*
X010373Y013331D01*
X010373Y013252D02*
X009986Y013252D01*
X009986Y013174D02*
X010373Y013174D01*
X010373Y013095D02*
X009986Y013095D01*
X009986Y013017D02*
X010373Y013017D01*
X010373Y012938D02*
X009986Y012938D01*
X009986Y012860D02*
X010373Y012860D01*
X010373Y012781D02*
X009986Y012781D01*
X009986Y012703D02*
X010373Y012703D01*
X010373Y012624D02*
X009986Y012624D01*
X009986Y012546D02*
X010373Y012546D01*
X010373Y012467D02*
X009986Y012467D01*
X009986Y012389D02*
X010373Y012389D01*
X010373Y012310D02*
X009986Y012310D01*
X009986Y012232D02*
X010373Y012232D01*
X010373Y012153D02*
X009986Y012153D01*
X009986Y012075D02*
X010373Y012075D01*
X010373Y011996D02*
X009986Y011996D01*
X009986Y011918D02*
X010373Y011918D01*
X010373Y011839D02*
X009986Y011839D01*
X009986Y011761D02*
X010373Y011761D01*
X010373Y011682D02*
X009986Y011682D01*
X009986Y011604D02*
X010373Y011604D01*
X010373Y011525D02*
X009986Y011525D01*
X009986Y011447D02*
X010373Y011447D01*
X010373Y011368D02*
X009986Y011368D01*
X009986Y011290D02*
X010373Y011290D01*
X010373Y011211D02*
X009986Y011211D01*
X009986Y011133D02*
X010373Y011133D01*
X010373Y011054D02*
X009986Y011054D01*
X009986Y010976D02*
X010373Y010976D01*
X010373Y010897D02*
X009986Y010897D01*
X009986Y010819D02*
X010373Y010819D01*
X010373Y010740D02*
X009986Y010740D01*
X009986Y010662D02*
X010373Y010662D01*
X010373Y010583D02*
X009986Y010583D01*
X009986Y010505D02*
X010373Y010505D01*
X010373Y010426D02*
X009986Y010426D01*
X009986Y010348D02*
X010373Y010348D01*
X010373Y010269D02*
X009986Y010269D01*
X009986Y010191D02*
X010373Y010191D01*
X010373Y010112D02*
X009986Y010112D01*
X009986Y010034D02*
X010373Y010034D01*
X010373Y009955D02*
X009986Y009955D01*
X009986Y009877D02*
X010373Y009877D01*
X010373Y009798D02*
X009986Y009798D01*
X009986Y009720D02*
X010373Y009720D01*
X010373Y009641D02*
X009986Y009641D01*
X009986Y009563D02*
X010373Y009563D01*
X010373Y009484D02*
X009986Y009484D01*
X009986Y009406D02*
X010373Y009406D01*
X010373Y009327D02*
X009986Y009327D01*
X009986Y009249D02*
X010373Y009249D01*
X010373Y009170D02*
X009986Y009170D01*
X009986Y009092D02*
X010373Y009092D01*
X010373Y009013D02*
X009986Y009013D01*
X009986Y008935D02*
X010373Y008935D01*
X010373Y008856D02*
X009986Y008856D01*
X009986Y008778D02*
X010373Y008778D01*
X010373Y008699D02*
X009986Y008699D01*
X009986Y008621D02*
X010373Y008621D01*
X010373Y008542D02*
X009986Y008542D01*
X009986Y008464D02*
X010373Y008464D01*
X010373Y008385D02*
X009986Y008385D01*
X009986Y008307D02*
X010373Y008307D01*
X010373Y008228D02*
X009986Y008228D01*
X009986Y008150D02*
X010373Y008150D01*
X010373Y008071D02*
X009986Y008071D01*
X009986Y007993D02*
X010373Y007993D01*
X010373Y007914D02*
X009986Y007914D01*
X009986Y007836D02*
X010373Y007836D01*
X010373Y007757D02*
X009986Y007757D01*
X009986Y007679D02*
X010373Y007679D01*
X010373Y007600D02*
X009986Y007600D01*
X009986Y007522D02*
X010373Y007522D01*
X010373Y007443D02*
X009986Y007443D01*
X009986Y007365D02*
X010373Y007365D01*
X010373Y007286D02*
X009986Y007286D01*
X009986Y007208D02*
X010373Y007208D01*
X010373Y007129D02*
X009986Y007129D01*
X009986Y007051D02*
X010373Y007051D01*
X010373Y006972D02*
X009986Y006972D01*
X009986Y006894D02*
X010373Y006894D01*
X010373Y006815D02*
X009986Y006815D01*
X009986Y006737D02*
X010373Y006737D01*
X010373Y006658D02*
X009986Y006658D01*
X009986Y006580D02*
X010373Y006580D01*
X010373Y006501D02*
X009986Y006501D01*
X009986Y006423D02*
X010373Y006423D01*
X010373Y006344D02*
X009986Y006344D01*
X009986Y006266D02*
X010373Y006266D01*
X010373Y006187D02*
X009986Y006187D01*
X009986Y006109D02*
X010373Y006109D01*
X010373Y006030D02*
X009986Y006030D01*
X009986Y005952D02*
X010373Y005952D01*
X010373Y005873D02*
X009986Y005873D01*
X009986Y005795D02*
X010373Y005795D01*
X010373Y005716D02*
X009986Y005716D01*
X009986Y005638D02*
X010373Y005638D01*
X010373Y005559D02*
X009986Y005559D01*
X009986Y005481D02*
X010373Y005481D01*
X010373Y005402D02*
X009986Y005402D01*
X009986Y005324D02*
X010373Y005324D01*
X010373Y005245D02*
X009986Y005245D01*
X009986Y005167D02*
X010373Y005167D01*
X010373Y005088D02*
X010044Y005088D01*
X010123Y005010D02*
X010373Y005010D01*
X010373Y004931D02*
X010201Y004931D01*
X010280Y004853D02*
X010373Y004853D01*
X010373Y004774D02*
X010358Y004774D01*
X009950Y004617D02*
X009925Y004617D01*
X009871Y004696D02*
X009000Y004696D01*
X008921Y004774D02*
X009793Y004774D01*
X009714Y004853D02*
X008843Y004853D01*
X008764Y004931D02*
X009636Y004931D01*
X009586Y005010D02*
X008686Y005010D01*
X008607Y005088D02*
X009586Y005088D01*
X009586Y005167D02*
X008529Y005167D01*
X008450Y005245D02*
X009586Y005245D01*
X009586Y005324D02*
X008372Y005324D01*
X008330Y005402D02*
X009586Y005402D01*
X009586Y005481D02*
X008330Y005481D01*
X008330Y005559D02*
X009586Y005559D01*
X009586Y005638D02*
X008330Y005638D01*
X007658Y005638D02*
X007642Y005638D01*
X007642Y005653D02*
X007633Y005689D01*
X007614Y005721D01*
X007588Y005747D01*
X007556Y005765D01*
X007521Y005775D01*
X007286Y005775D01*
X007286Y005379D01*
X007642Y005379D01*
X007642Y005653D01*
X007617Y005716D02*
X009586Y005716D01*
X009586Y005795D02*
X000580Y005795D01*
X000580Y005873D02*
X009586Y005873D01*
X009586Y005952D02*
X000580Y005952D01*
X000580Y006030D02*
X009586Y006030D01*
X009586Y006109D02*
X000580Y006109D01*
X000580Y006187D02*
X009586Y006187D01*
X009586Y006266D02*
X002817Y006266D01*
X002863Y006285D02*
X002698Y006216D01*
X002519Y006216D01*
X002354Y006285D01*
X002227Y006411D01*
X002159Y006577D01*
X002159Y006756D01*
X002227Y006921D01*
X002354Y007048D01*
X002519Y007116D01*
X002698Y007116D01*
X002863Y007048D01*
X002990Y006921D01*
X003059Y006756D01*
X003059Y006577D01*
X002990Y006411D01*
X002863Y006285D01*
X002923Y006344D02*
X009586Y006344D01*
X009586Y006423D02*
X002995Y006423D01*
X003027Y006501D02*
X009586Y006501D01*
X009586Y006580D02*
X003059Y006580D01*
X003059Y006658D02*
X009586Y006658D01*
X009586Y006737D02*
X003059Y006737D01*
X003034Y006815D02*
X009586Y006815D01*
X009586Y006894D02*
X003001Y006894D01*
X002939Y006972D02*
X009586Y006972D01*
X009586Y007051D02*
X002856Y007051D01*
X002698Y007216D02*
X002863Y007285D01*
X002990Y007411D01*
X003059Y007577D01*
X003059Y007756D01*
X002990Y007921D01*
X002863Y008048D01*
X002698Y008116D01*
X002519Y008116D01*
X002354Y008048D01*
X002227Y007921D01*
X002159Y007756D01*
X002159Y007577D01*
X002227Y007411D01*
X002354Y007285D01*
X002519Y007216D01*
X002698Y007216D01*
X002865Y007286D02*
X009586Y007286D01*
X009586Y007208D02*
X000580Y007208D01*
X000580Y007286D02*
X001352Y007286D01*
X001354Y007285D02*
X001519Y007216D01*
X001698Y007216D01*
X001863Y007285D01*
X001990Y007411D01*
X002059Y007577D01*
X002059Y007756D01*
X001990Y007921D01*
X001863Y008048D01*
X001698Y008116D01*
X001519Y008116D01*
X001354Y008048D01*
X001227Y007921D01*
X001159Y007756D01*
X001159Y007577D01*
X001227Y007411D01*
X001354Y007285D01*
X001274Y007365D02*
X000580Y007365D01*
X000580Y007443D02*
X001214Y007443D01*
X001181Y007522D02*
X000580Y007522D01*
X000580Y007600D02*
X001159Y007600D01*
X001159Y007679D02*
X000580Y007679D01*
X000580Y007757D02*
X001159Y007757D01*
X001192Y007836D02*
X000580Y007836D01*
X000580Y007914D02*
X001224Y007914D01*
X001299Y007993D02*
X000580Y007993D01*
X000580Y008071D02*
X001410Y008071D01*
X001490Y008228D02*
X000580Y008228D01*
X000580Y008150D02*
X009586Y008150D01*
X009586Y008228D02*
X002727Y008228D01*
X002698Y008216D02*
X002863Y008285D01*
X002990Y008411D01*
X003059Y008577D01*
X003059Y008756D01*
X002990Y008921D01*
X002863Y009048D01*
X002698Y009116D01*
X002519Y009116D01*
X002354Y009048D01*
X002227Y008921D01*
X002159Y008756D01*
X002159Y008577D01*
X002227Y008411D01*
X002354Y008285D01*
X002519Y008216D01*
X002698Y008216D01*
X002807Y008071D02*
X009586Y008071D01*
X009586Y007993D02*
X002918Y007993D01*
X002993Y007914D02*
X009586Y007914D01*
X009586Y007836D02*
X003025Y007836D01*
X003058Y007757D02*
X009586Y007757D01*
X009586Y007679D02*
X003059Y007679D01*
X003059Y007600D02*
X009586Y007600D01*
X009586Y007522D02*
X003036Y007522D01*
X003003Y007443D02*
X009586Y007443D01*
X009586Y007365D02*
X002943Y007365D01*
X002352Y007286D02*
X001865Y007286D01*
X001943Y007365D02*
X002274Y007365D01*
X002214Y007443D02*
X002003Y007443D01*
X002036Y007522D02*
X002181Y007522D01*
X002159Y007600D02*
X002059Y007600D01*
X002059Y007679D02*
X002159Y007679D01*
X002159Y007757D02*
X002058Y007757D01*
X002025Y007836D02*
X002192Y007836D01*
X002224Y007914D02*
X001993Y007914D01*
X001918Y007993D02*
X002299Y007993D01*
X002410Y008071D02*
X001807Y008071D01*
X001727Y008228D02*
X002490Y008228D01*
X002332Y008307D02*
X001885Y008307D01*
X001863Y008285D02*
X001990Y008411D01*
X002059Y008577D01*
X002059Y008756D01*
X001990Y008921D01*
X001863Y009048D01*
X001698Y009116D01*
X001519Y009116D01*
X001354Y009048D01*
X001227Y008921D01*
X001159Y008756D01*
X001159Y008577D01*
X001227Y008411D01*
X001354Y008285D01*
X001519Y008216D01*
X001698Y008216D01*
X001863Y008285D01*
X001964Y008385D02*
X002253Y008385D01*
X002205Y008464D02*
X002012Y008464D01*
X002044Y008542D02*
X002173Y008542D01*
X002159Y008621D02*
X002059Y008621D01*
X002059Y008699D02*
X002159Y008699D01*
X002168Y008778D02*
X002049Y008778D01*
X002017Y008856D02*
X002200Y008856D01*
X002241Y008935D02*
X001976Y008935D01*
X001898Y009013D02*
X002319Y009013D01*
X002460Y009092D02*
X001757Y009092D01*
X001698Y009216D02*
X001863Y009285D01*
X001990Y009411D01*
X002059Y009577D01*
X002059Y009756D01*
X001990Y009921D01*
X001863Y010048D01*
X001698Y010116D01*
X001519Y010116D01*
X001354Y010048D01*
X001227Y009921D01*
X001159Y009756D01*
X001159Y009577D01*
X001227Y009411D01*
X001354Y009285D01*
X001519Y009216D01*
X001698Y009216D01*
X001776Y009249D02*
X002441Y009249D01*
X002519Y009216D02*
X002354Y009285D01*
X002227Y009411D01*
X002159Y009577D01*
X002159Y009756D01*
X002227Y009921D01*
X002354Y010048D01*
X002519Y010116D01*
X002698Y010116D01*
X002863Y010048D01*
X002990Y009921D01*
X003059Y009756D01*
X003059Y009577D01*
X002990Y009411D01*
X002863Y009285D01*
X002698Y009216D01*
X002519Y009216D01*
X002311Y009327D02*
X001906Y009327D01*
X001984Y009406D02*
X002233Y009406D01*
X002197Y009484D02*
X002020Y009484D01*
X002053Y009563D02*
X002164Y009563D01*
X002159Y009641D02*
X002059Y009641D01*
X002059Y009720D02*
X002159Y009720D01*
X002176Y009798D02*
X002041Y009798D01*
X002008Y009877D02*
X002209Y009877D01*
X002261Y009955D02*
X001956Y009955D01*
X001877Y010034D02*
X002340Y010034D01*
X002509Y010112D02*
X001708Y010112D01*
X001698Y010216D02*
X001863Y010285D01*
X001990Y010411D01*
X002059Y010577D01*
X002059Y010756D01*
X001990Y010921D01*
X001863Y011048D01*
X001698Y011116D01*
X001519Y011116D01*
X001354Y011048D01*
X001227Y010921D01*
X001159Y010756D01*
X001159Y010577D01*
X001227Y010411D01*
X001354Y010285D01*
X001519Y010216D01*
X001698Y010216D01*
X001826Y010269D02*
X002391Y010269D01*
X002354Y010285D02*
X002519Y010216D01*
X002698Y010216D01*
X002863Y010285D01*
X002990Y010411D01*
X003059Y010577D01*
X003059Y010756D01*
X002990Y010921D01*
X002863Y011048D01*
X002698Y011116D01*
X002519Y011116D01*
X002354Y011048D01*
X002227Y010921D01*
X002159Y010756D01*
X002159Y010577D01*
X002227Y010411D01*
X002354Y010285D01*
X002291Y010348D02*
X001926Y010348D01*
X001996Y010426D02*
X002221Y010426D01*
X002188Y010505D02*
X002029Y010505D01*
X002059Y010583D02*
X002159Y010583D01*
X002159Y010662D02*
X002059Y010662D01*
X002059Y010740D02*
X002159Y010740D01*
X002185Y010819D02*
X002032Y010819D01*
X002000Y010897D02*
X002217Y010897D01*
X002282Y010976D02*
X001935Y010976D01*
X001848Y011054D02*
X002369Y011054D01*
X002519Y011216D02*
X002354Y011285D01*
X002227Y011411D01*
X002159Y011577D01*
X002159Y011756D01*
X002227Y011921D01*
X002354Y012048D01*
X002519Y012116D01*
X002698Y012116D01*
X002863Y012048D01*
X002990Y011921D01*
X003059Y011756D01*
X003059Y011577D01*
X002990Y011411D01*
X002863Y011285D01*
X002698Y011216D01*
X002519Y011216D01*
X002349Y011290D02*
X001868Y011290D01*
X001863Y011285D02*
X001990Y011411D01*
X002059Y011577D01*
X002059Y011756D01*
X001990Y011921D01*
X001863Y012048D01*
X001698Y012116D01*
X001519Y012116D01*
X001354Y012048D01*
X001227Y011921D01*
X001159Y011756D01*
X001159Y011577D01*
X001227Y011411D01*
X001354Y011285D01*
X001519Y011216D01*
X001698Y011216D01*
X001863Y011285D01*
X001947Y011368D02*
X002270Y011368D01*
X002212Y011447D02*
X002005Y011447D01*
X002037Y011525D02*
X002180Y011525D01*
X002159Y011604D02*
X002059Y011604D01*
X002059Y011682D02*
X002159Y011682D01*
X002161Y011761D02*
X002056Y011761D01*
X002024Y011839D02*
X002193Y011839D01*
X002226Y011918D02*
X001991Y011918D01*
X001915Y011996D02*
X002302Y011996D01*
X002419Y012075D02*
X001798Y012075D01*
X001735Y012232D02*
X002482Y012232D01*
X002519Y012216D02*
X002354Y012285D01*
X002227Y012411D01*
X002159Y012577D01*
X002159Y012756D01*
X002227Y012921D01*
X002354Y013048D01*
X002519Y013116D01*
X002698Y013116D01*
X002863Y013048D01*
X002990Y012921D01*
X003059Y012756D01*
X003059Y012577D01*
X002990Y012411D01*
X002863Y012285D01*
X002698Y012216D01*
X002519Y012216D01*
X002328Y012310D02*
X001889Y012310D01*
X001863Y012285D02*
X001990Y012411D01*
X002059Y012577D01*
X002059Y012756D01*
X001990Y012921D01*
X001863Y013048D01*
X001698Y013116D01*
X001519Y013116D01*
X001354Y013048D01*
X001227Y012921D01*
X001159Y012756D01*
X001159Y012577D01*
X001227Y012411D01*
X001354Y012285D01*
X001519Y012216D01*
X001698Y012216D01*
X001863Y012285D01*
X001967Y012389D02*
X002250Y012389D01*
X002204Y012467D02*
X002013Y012467D01*
X002046Y012546D02*
X002171Y012546D01*
X002159Y012624D02*
X002059Y012624D01*
X002059Y012703D02*
X002159Y012703D01*
X002169Y012781D02*
X002048Y012781D01*
X002015Y012860D02*
X002202Y012860D01*
X002244Y012938D02*
X001973Y012938D01*
X001894Y013017D02*
X002323Y013017D01*
X002468Y013095D02*
X001749Y013095D01*
X001698Y013216D02*
X001863Y013285D01*
X001990Y013411D01*
X002059Y013577D01*
X002059Y013756D01*
X001990Y013921D01*
X001863Y014048D01*
X001698Y014116D01*
X001519Y014116D01*
X001354Y014048D01*
X001227Y013921D01*
X001159Y013756D01*
X001159Y013577D01*
X001227Y013411D01*
X001354Y013285D01*
X001519Y013216D01*
X001698Y013216D01*
X001785Y013252D02*
X002432Y013252D01*
X002354Y013285D02*
X002519Y013216D01*
X002698Y013216D01*
X002863Y013285D01*
X002990Y013411D01*
X003059Y013577D01*
X003059Y013756D01*
X002990Y013921D01*
X002863Y014048D01*
X002698Y014116D01*
X002519Y014116D01*
X002354Y014048D01*
X002227Y013921D01*
X002159Y013756D01*
X002159Y013577D01*
X002227Y013411D01*
X002354Y013285D01*
X002308Y013331D02*
X001909Y013331D01*
X001988Y013409D02*
X002229Y013409D01*
X002195Y013488D02*
X002022Y013488D01*
X002054Y013566D02*
X002163Y013566D01*
X002159Y013645D02*
X002059Y013645D01*
X002059Y013723D02*
X002159Y013723D01*
X002178Y013802D02*
X002039Y013802D01*
X002007Y013880D02*
X002210Y013880D01*
X002265Y013959D02*
X001952Y013959D01*
X001874Y014037D02*
X002343Y014037D01*
X002518Y014116D02*
X001699Y014116D01*
X001698Y014216D02*
X001863Y014285D01*
X001990Y014411D01*
X002059Y014577D01*
X002059Y014756D01*
X001990Y014921D01*
X001863Y015048D01*
X001698Y015116D01*
X001519Y015116D01*
X001354Y015048D01*
X001227Y014921D01*
X001159Y014756D01*
X001159Y014577D01*
X001227Y014411D01*
X001354Y014285D01*
X001519Y014216D01*
X001698Y014216D01*
X001834Y014273D02*
X002383Y014273D01*
X002354Y014285D02*
X002519Y014216D01*
X002698Y014216D01*
X002863Y014285D01*
X002990Y014411D01*
X003059Y014577D01*
X003059Y014756D01*
X002990Y014921D01*
X002863Y015048D01*
X002698Y015116D01*
X002519Y015116D01*
X002354Y015048D01*
X002227Y014921D01*
X002159Y014756D01*
X002159Y014577D01*
X002227Y014411D01*
X002354Y014285D01*
X002287Y014351D02*
X001930Y014351D01*
X001998Y014430D02*
X002219Y014430D01*
X002187Y014508D02*
X002030Y014508D01*
X002059Y014587D02*
X002159Y014587D01*
X002159Y014665D02*
X002059Y014665D01*
X002059Y014744D02*
X002159Y014744D01*
X002186Y014822D02*
X002031Y014822D01*
X001998Y014901D02*
X002219Y014901D01*
X002285Y014979D02*
X001932Y014979D01*
X001839Y015058D02*
X002378Y015058D01*
X002519Y015216D02*
X002354Y015285D01*
X002227Y015411D01*
X002159Y015577D01*
X002159Y015756D01*
X002227Y015921D01*
X002354Y016048D01*
X002519Y016116D01*
X002698Y016116D01*
X002863Y016048D01*
X002990Y015921D01*
X003059Y015756D01*
X003059Y015577D01*
X002990Y015411D01*
X002863Y015285D01*
X002698Y015216D01*
X002519Y015216D01*
X002345Y015293D02*
X001872Y015293D01*
X001863Y015285D02*
X001990Y015411D01*
X002059Y015577D01*
X002059Y015756D01*
X001990Y015921D01*
X001863Y016048D01*
X001698Y016116D01*
X001519Y016116D01*
X001354Y016048D01*
X001227Y015921D01*
X001159Y015756D01*
X001159Y015577D01*
X001227Y015411D01*
X001354Y015285D01*
X001519Y015216D01*
X001698Y015216D01*
X001863Y015285D01*
X001950Y015372D02*
X002267Y015372D01*
X002211Y015450D02*
X002006Y015450D01*
X002039Y015529D02*
X002178Y015529D01*
X002159Y015607D02*
X002059Y015607D01*
X002059Y015686D02*
X002159Y015686D01*
X002162Y015764D02*
X002055Y015764D01*
X002023Y015843D02*
X002195Y015843D01*
X002227Y015921D02*
X001990Y015921D01*
X001911Y016000D02*
X002306Y016000D01*
X002427Y016078D02*
X001790Y016078D01*
X001608Y016314D02*
X000580Y016314D01*
X000580Y016392D02*
X001408Y016392D01*
X001249Y016471D02*
X000580Y016471D01*
X000580Y016549D02*
X001150Y016549D01*
X001052Y016628D02*
X000580Y016628D01*
X000580Y016706D02*
X000953Y016706D01*
X000878Y016785D02*
X000580Y016785D01*
X000580Y016863D02*
X000825Y016863D01*
X000771Y016942D02*
X000580Y016942D01*
X000580Y017020D02*
X000718Y017020D01*
X000664Y017099D02*
X000580Y017099D01*
X000580Y017177D02*
X000622Y017177D01*
X000598Y017256D02*
X000580Y017256D01*
X000580Y016235D02*
X002079Y016235D01*
X002281Y016235D02*
X006599Y016235D01*
X006521Y016314D02*
X002625Y016314D01*
X002811Y016392D02*
X006442Y016392D01*
X006364Y016471D02*
X002947Y016471D01*
X003083Y016549D02*
X006285Y016549D01*
X006207Y016628D02*
X003178Y016628D01*
X003251Y016706D02*
X006128Y016706D01*
X006050Y016785D02*
X003324Y016785D01*
X003397Y016863D02*
X005971Y016863D01*
X005893Y016942D02*
X003467Y016942D01*
X003504Y017020D02*
X005814Y017020D01*
X005736Y017099D02*
X003542Y017099D01*
X003580Y017177D02*
X005657Y017177D01*
X005579Y017256D02*
X003618Y017256D01*
X003656Y017334D02*
X005500Y017334D01*
X005422Y017413D02*
X003681Y017413D01*
X003693Y017491D02*
X005343Y017491D01*
X005265Y017570D02*
X003705Y017570D01*
X003717Y017648D02*
X005186Y017648D01*
X005108Y017727D02*
X003729Y017727D01*
X003740Y017805D02*
X005029Y017805D01*
X004951Y017884D02*
X003745Y017884D01*
X003733Y017962D02*
X004872Y017962D01*
X004794Y018041D02*
X003721Y018041D01*
X003709Y018119D02*
X004715Y018119D01*
X004637Y018198D02*
X003697Y018198D01*
X003686Y018276D02*
X004558Y018276D01*
X004480Y018355D02*
X003670Y018355D01*
X003632Y018433D02*
X004401Y018433D01*
X004323Y018512D02*
X003594Y018512D01*
X003556Y018590D02*
X004244Y018590D01*
X004166Y018669D02*
X003519Y018669D01*
X003481Y018747D02*
X004087Y018747D01*
X004009Y018826D02*
X003424Y018826D01*
X003351Y018904D02*
X003930Y018904D01*
X003877Y018983D02*
X003278Y018983D01*
X003205Y019061D02*
X003877Y019061D01*
X003877Y019140D02*
X003133Y019140D01*
X002998Y019218D02*
X003877Y019218D01*
X003877Y019297D02*
X002862Y019297D01*
X002726Y019375D02*
X003877Y019375D01*
X003877Y019454D02*
X002410Y019454D01*
X002161Y020003D02*
X003877Y020003D01*
X003877Y019925D02*
X000580Y019925D01*
X000580Y020003D02*
X002056Y020003D01*
X002069Y020003D02*
X002149Y020003D01*
X002411Y020082D02*
X003877Y020082D01*
X003751Y020160D02*
X002520Y020160D01*
X002592Y020239D02*
X003672Y020239D01*
X003602Y020317D02*
X002644Y020317D01*
X002681Y020396D02*
X003570Y020396D01*
X003537Y020474D02*
X002706Y020474D01*
X001737Y021102D02*
X000580Y021102D01*
X000580Y021024D02*
X001651Y021024D01*
X001591Y020945D02*
X000580Y020945D01*
X000580Y020867D02*
X001549Y020867D01*
X001521Y020788D02*
X000580Y020788D01*
X000580Y020710D02*
X001503Y020710D01*
X000580Y019846D02*
X003877Y019846D01*
X003877Y019768D02*
X000580Y019768D01*
X000580Y019689D02*
X003877Y019689D01*
X003877Y019611D02*
X000580Y019611D01*
X000580Y019532D02*
X003877Y019532D01*
X001732Y019454D02*
X000580Y019454D01*
X000580Y019375D02*
X001532Y019375D01*
X001332Y019297D02*
X000580Y019297D01*
X000580Y019218D02*
X001212Y019218D01*
X001113Y019140D02*
X000580Y019140D01*
X000580Y019061D02*
X001015Y019061D01*
X000916Y018983D02*
X000580Y018983D01*
X000580Y018904D02*
X000858Y018904D01*
X000805Y018826D02*
X000580Y018826D01*
X000580Y018747D02*
X000751Y018747D01*
X000698Y018669D02*
X000580Y018669D01*
X000580Y018590D02*
X000644Y018590D01*
X000613Y018512D02*
X000580Y018512D01*
X000580Y018433D02*
X000588Y018433D01*
X000580Y016157D02*
X006678Y016157D01*
X006756Y016078D02*
X002790Y016078D01*
X002911Y016000D02*
X006835Y016000D01*
X006913Y015921D02*
X002990Y015921D01*
X003023Y015843D02*
X006992Y015843D01*
X007070Y015764D02*
X003055Y015764D01*
X003059Y015686D02*
X007149Y015686D01*
X007227Y015607D02*
X003059Y015607D01*
X003039Y015529D02*
X007306Y015529D01*
X007384Y015450D02*
X003006Y015450D01*
X002950Y015372D02*
X007463Y015372D01*
X007541Y015293D02*
X002872Y015293D01*
X002839Y015058D02*
X007777Y015058D01*
X007698Y015136D02*
X000580Y015136D01*
X000580Y015058D02*
X001378Y015058D01*
X001285Y014979D02*
X000580Y014979D01*
X000580Y014901D02*
X001219Y014901D01*
X001186Y014822D02*
X000580Y014822D01*
X000580Y014744D02*
X001159Y014744D01*
X001159Y014665D02*
X000580Y014665D01*
X000580Y014587D02*
X001159Y014587D01*
X001187Y014508D02*
X000580Y014508D01*
X000580Y014430D02*
X001219Y014430D01*
X001287Y014351D02*
X000580Y014351D01*
X000580Y014273D02*
X001383Y014273D01*
X001518Y014116D02*
X000580Y014116D01*
X000580Y014194D02*
X008640Y014194D01*
X008562Y014273D02*
X002834Y014273D01*
X002930Y014351D02*
X008483Y014351D01*
X008405Y014430D02*
X002998Y014430D01*
X003030Y014508D02*
X008326Y014508D01*
X008248Y014587D02*
X003059Y014587D01*
X003059Y014665D02*
X008169Y014665D01*
X008091Y014744D02*
X003059Y014744D01*
X003031Y014822D02*
X008012Y014822D01*
X007934Y014901D02*
X002998Y014901D01*
X002932Y014979D02*
X007855Y014979D01*
X007620Y015215D02*
X000580Y015215D01*
X000580Y015293D02*
X001345Y015293D01*
X001267Y015372D02*
X000580Y015372D01*
X000580Y015450D02*
X001211Y015450D01*
X001178Y015529D02*
X000580Y015529D01*
X000580Y015607D02*
X001159Y015607D01*
X001159Y015686D02*
X000580Y015686D01*
X000580Y015764D02*
X001162Y015764D01*
X001195Y015843D02*
X000580Y015843D01*
X000580Y015921D02*
X001227Y015921D01*
X001306Y016000D02*
X000580Y016000D01*
X000580Y016078D02*
X001427Y016078D01*
X002699Y014116D02*
X008719Y014116D01*
X008797Y014037D02*
X002874Y014037D01*
X002952Y013959D02*
X008876Y013959D01*
X008954Y013880D02*
X003007Y013880D01*
X003039Y013802D02*
X009033Y013802D01*
X009111Y013723D02*
X003059Y013723D01*
X003059Y013645D02*
X009190Y013645D01*
X009268Y013566D02*
X003054Y013566D01*
X003022Y013488D02*
X009347Y013488D01*
X009425Y013409D02*
X002988Y013409D01*
X002909Y013331D02*
X009504Y013331D01*
X009582Y013252D02*
X002785Y013252D01*
X002749Y013095D02*
X009586Y013095D01*
X009586Y013017D02*
X002894Y013017D01*
X002973Y012938D02*
X009586Y012938D01*
X009586Y012860D02*
X003015Y012860D01*
X003048Y012781D02*
X009586Y012781D01*
X009586Y012703D02*
X003059Y012703D01*
X003059Y012624D02*
X009586Y012624D01*
X009586Y012546D02*
X003046Y012546D01*
X003013Y012467D02*
X009586Y012467D01*
X009586Y012389D02*
X002967Y012389D01*
X002889Y012310D02*
X009586Y012310D01*
X009586Y012232D02*
X002735Y012232D01*
X002798Y012075D02*
X009586Y012075D01*
X009586Y012153D02*
X000580Y012153D01*
X000580Y012075D02*
X001419Y012075D01*
X001302Y011996D02*
X000580Y011996D01*
X000580Y011918D02*
X001226Y011918D01*
X001193Y011839D02*
X000580Y011839D01*
X000580Y011761D02*
X001161Y011761D01*
X001159Y011682D02*
X000580Y011682D01*
X000580Y011604D02*
X001159Y011604D01*
X001180Y011525D02*
X000580Y011525D01*
X000580Y011447D02*
X001212Y011447D01*
X001270Y011368D02*
X000580Y011368D01*
X000580Y011290D02*
X001349Y011290D01*
X001369Y011054D02*
X000580Y011054D01*
X000580Y010976D02*
X001282Y010976D01*
X001217Y010897D02*
X000580Y010897D01*
X000580Y010819D02*
X001185Y010819D01*
X001159Y010740D02*
X000580Y010740D01*
X000580Y010662D02*
X001159Y010662D01*
X001159Y010583D02*
X000580Y010583D01*
X000580Y010505D02*
X001188Y010505D01*
X001221Y010426D02*
X000580Y010426D01*
X000580Y010348D02*
X001291Y010348D01*
X001391Y010269D02*
X000580Y010269D01*
X000580Y010191D02*
X009586Y010191D01*
X009586Y010269D02*
X002826Y010269D01*
X002926Y010348D02*
X009586Y010348D01*
X009586Y010426D02*
X002996Y010426D01*
X003029Y010505D02*
X009586Y010505D01*
X009586Y010583D02*
X003059Y010583D01*
X003059Y010662D02*
X009586Y010662D01*
X009586Y010740D02*
X003059Y010740D01*
X003032Y010819D02*
X009586Y010819D01*
X009586Y010897D02*
X003000Y010897D01*
X002935Y010976D02*
X009586Y010976D01*
X009586Y011054D02*
X002848Y011054D01*
X002868Y011290D02*
X009586Y011290D01*
X009586Y011368D02*
X002947Y011368D01*
X003005Y011447D02*
X009586Y011447D01*
X009586Y011525D02*
X003037Y011525D01*
X003059Y011604D02*
X009586Y011604D01*
X009586Y011682D02*
X003059Y011682D01*
X003056Y011761D02*
X009586Y011761D01*
X009586Y011839D02*
X003024Y011839D01*
X002991Y011918D02*
X009586Y011918D01*
X009586Y011996D02*
X002915Y011996D01*
X001482Y012232D02*
X000580Y012232D01*
X000580Y012310D02*
X001328Y012310D01*
X001250Y012389D02*
X000580Y012389D01*
X000580Y012467D02*
X001204Y012467D01*
X001171Y012546D02*
X000580Y012546D01*
X000580Y012624D02*
X001159Y012624D01*
X001159Y012703D02*
X000580Y012703D01*
X000580Y012781D02*
X001169Y012781D01*
X001202Y012860D02*
X000580Y012860D01*
X000580Y012938D02*
X001244Y012938D01*
X001323Y013017D02*
X000580Y013017D01*
X000580Y013095D02*
X001468Y013095D01*
X001432Y013252D02*
X000580Y013252D01*
X000580Y013174D02*
X009586Y013174D01*
X009586Y011211D02*
X000580Y011211D01*
X000580Y011133D02*
X009586Y011133D01*
X009586Y010112D02*
X002708Y010112D01*
X002877Y010034D02*
X009586Y010034D01*
X009586Y009955D02*
X002956Y009955D01*
X003008Y009877D02*
X009586Y009877D01*
X009586Y009798D02*
X003041Y009798D01*
X003059Y009720D02*
X009586Y009720D01*
X009586Y009641D02*
X003059Y009641D01*
X003053Y009563D02*
X009586Y009563D01*
X009586Y009484D02*
X003020Y009484D01*
X002984Y009406D02*
X009586Y009406D01*
X009586Y009327D02*
X002906Y009327D01*
X002776Y009249D02*
X009586Y009249D01*
X009586Y009170D02*
X000580Y009170D01*
X000580Y009092D02*
X001460Y009092D01*
X001441Y009249D02*
X000580Y009249D01*
X000580Y009327D02*
X001311Y009327D01*
X001233Y009406D02*
X000580Y009406D01*
X000580Y009484D02*
X001197Y009484D01*
X001164Y009563D02*
X000580Y009563D01*
X000580Y009641D02*
X001159Y009641D01*
X001159Y009720D02*
X000580Y009720D01*
X000580Y009798D02*
X001176Y009798D01*
X001209Y009877D02*
X000580Y009877D01*
X000580Y009955D02*
X001261Y009955D01*
X001340Y010034D02*
X000580Y010034D01*
X000580Y010112D02*
X001509Y010112D01*
X001319Y009013D02*
X000580Y009013D01*
X000580Y008935D02*
X001241Y008935D01*
X001200Y008856D02*
X000580Y008856D01*
X000580Y008778D02*
X001168Y008778D01*
X001159Y008699D02*
X000580Y008699D01*
X000580Y008621D02*
X001159Y008621D01*
X001173Y008542D02*
X000580Y008542D01*
X000580Y008464D02*
X001205Y008464D01*
X001253Y008385D02*
X000580Y008385D01*
X000580Y008307D02*
X001332Y008307D01*
X002757Y009092D02*
X009586Y009092D01*
X009586Y009013D02*
X002898Y009013D01*
X002976Y008935D02*
X009586Y008935D01*
X009586Y008856D02*
X003017Y008856D01*
X003049Y008778D02*
X009586Y008778D01*
X009586Y008699D02*
X003059Y008699D01*
X003059Y008621D02*
X009586Y008621D01*
X009586Y008542D02*
X003044Y008542D01*
X003012Y008464D02*
X009586Y008464D01*
X009586Y008385D02*
X002964Y008385D01*
X002885Y008307D02*
X009586Y008307D01*
X010773Y008307D02*
X011160Y008307D01*
X011160Y008385D02*
X010773Y008385D01*
X010773Y008464D02*
X011160Y008464D01*
X011160Y008542D02*
X010773Y008542D01*
X010773Y008621D02*
X011160Y008621D01*
X011160Y008699D02*
X010773Y008699D01*
X010773Y008778D02*
X011160Y008778D01*
X011160Y008856D02*
X010773Y008856D01*
X010773Y008935D02*
X011160Y008935D01*
X011160Y009013D02*
X010773Y009013D01*
X010773Y009092D02*
X011160Y009092D01*
X011160Y009170D02*
X010773Y009170D01*
X010773Y009249D02*
X011160Y009249D01*
X011160Y009327D02*
X010773Y009327D01*
X010773Y009406D02*
X011160Y009406D01*
X011160Y009484D02*
X010773Y009484D01*
X010773Y009563D02*
X011160Y009563D01*
X011160Y009641D02*
X010773Y009641D01*
X010773Y009720D02*
X011160Y009720D01*
X011160Y009798D02*
X010773Y009798D01*
X010773Y009877D02*
X011160Y009877D01*
X011160Y009955D02*
X010773Y009955D01*
X010773Y010034D02*
X011160Y010034D01*
X011160Y010112D02*
X010773Y010112D01*
X010773Y010191D02*
X011160Y010191D01*
X011160Y010269D02*
X010773Y010269D01*
X010773Y010348D02*
X011160Y010348D01*
X011160Y010426D02*
X010773Y010426D01*
X010773Y010505D02*
X011160Y010505D01*
X011160Y010583D02*
X010773Y010583D01*
X010773Y010662D02*
X011160Y010662D01*
X011160Y010740D02*
X010773Y010740D01*
X010773Y008228D02*
X011160Y008228D01*
X011160Y008150D02*
X010773Y008150D01*
X010773Y008071D02*
X011160Y008071D01*
X011160Y007993D02*
X010773Y007993D01*
X010773Y007914D02*
X011160Y007914D01*
X011160Y007836D02*
X010773Y007836D01*
X010773Y007757D02*
X011160Y007757D01*
X011160Y007679D02*
X010773Y007679D01*
X010773Y007600D02*
X011160Y007600D01*
X011160Y007522D02*
X010773Y007522D01*
X010773Y007443D02*
X011160Y007443D01*
X011160Y007365D02*
X010773Y007365D01*
X010773Y007286D02*
X011160Y007286D01*
X011160Y007208D02*
X010773Y007208D01*
X010773Y007129D02*
X011160Y007129D01*
X011160Y007051D02*
X010773Y007051D01*
X010773Y006972D02*
X011160Y006972D01*
X011160Y006894D02*
X010773Y006894D01*
X010773Y006815D02*
X011160Y006815D01*
X011160Y006737D02*
X010773Y006737D01*
X010773Y006658D02*
X011160Y006658D01*
X011160Y006580D02*
X010773Y006580D01*
X010773Y006501D02*
X011160Y006501D01*
X011160Y006423D02*
X010773Y006423D01*
X010773Y006344D02*
X011160Y006344D01*
X011160Y006266D02*
X010773Y006266D01*
X010773Y006187D02*
X011160Y006187D01*
X011160Y006109D02*
X010773Y006109D01*
X010773Y006030D02*
X011160Y006030D01*
X011160Y005952D02*
X010773Y005952D01*
X010773Y005873D02*
X011160Y005873D01*
X011160Y005795D02*
X010773Y005795D01*
X010773Y005716D02*
X011160Y005716D01*
X011160Y005638D02*
X010773Y005638D01*
X010773Y005559D02*
X011160Y005559D01*
X011101Y005481D02*
X010773Y005481D01*
X010773Y005402D02*
X011022Y005402D01*
X010944Y005324D02*
X010773Y005324D01*
X010773Y005245D02*
X010865Y005245D01*
X010787Y005167D02*
X010773Y005167D01*
X011167Y004617D02*
X011221Y004617D01*
X011500Y004617D02*
X011615Y004617D01*
X011893Y004617D02*
X012009Y004617D01*
X012287Y004617D02*
X012403Y004617D01*
X012681Y004617D02*
X012796Y004617D01*
X013074Y004617D02*
X013190Y004617D01*
X013468Y004617D02*
X013584Y004617D01*
X013862Y004617D02*
X013977Y004617D01*
X014255Y004617D02*
X014371Y004617D01*
X014649Y004617D02*
X014765Y004617D01*
X014707Y003140D02*
X014753Y003094D01*
X015022Y003094D01*
X015022Y002703D01*
X014753Y002703D01*
X014707Y002657D01*
X014661Y002703D01*
X014359Y002703D01*
X014313Y002657D01*
X014268Y002703D01*
X013965Y002703D01*
X013920Y002657D01*
X013874Y002703D01*
X013571Y002703D01*
X013526Y002657D01*
X013480Y002703D01*
X013178Y002703D01*
X013132Y002657D01*
X013087Y002703D01*
X012784Y002703D01*
X012738Y002657D01*
X012693Y002703D01*
X012390Y002703D01*
X012345Y002657D01*
X012299Y002703D01*
X011997Y002703D01*
X011951Y002657D01*
X011905Y002703D01*
X011603Y002703D01*
X011557Y002657D01*
X011512Y002703D01*
X011209Y002703D01*
X011164Y002657D01*
X011118Y002703D01*
X010816Y002703D01*
X010770Y002657D01*
X010724Y002703D01*
X010422Y002703D01*
X010376Y002657D01*
X010331Y002703D01*
X010028Y002703D01*
X009983Y002657D01*
X009937Y002703D01*
X009810Y002703D01*
X009832Y002756D01*
X009832Y003041D01*
X009810Y003094D01*
X009937Y003094D01*
X009983Y003140D01*
X010028Y003094D01*
X010331Y003094D01*
X010376Y003140D01*
X010422Y003094D01*
X010724Y003094D01*
X010770Y003140D01*
X010816Y003094D01*
X011118Y003094D01*
X011164Y003140D01*
X011209Y003094D01*
X011512Y003094D01*
X011557Y003140D01*
X011603Y003094D01*
X011905Y003094D01*
X011951Y003140D01*
X011997Y003094D01*
X012299Y003094D01*
X012345Y003140D01*
X012390Y003094D01*
X012693Y003094D01*
X012738Y003140D01*
X012784Y003094D01*
X013087Y003094D01*
X013132Y003140D01*
X013178Y003094D01*
X013480Y003094D01*
X013526Y003140D01*
X013571Y003094D01*
X013874Y003094D01*
X013920Y003140D01*
X013965Y003094D01*
X014268Y003094D01*
X014313Y003140D01*
X014359Y003094D01*
X014661Y003094D01*
X014707Y003140D01*
X014693Y003126D02*
X014721Y003126D01*
X015022Y003047D02*
X009829Y003047D01*
X009832Y002969D02*
X015022Y002969D01*
X015022Y002890D02*
X009832Y002890D01*
X009832Y002812D02*
X015022Y002812D01*
X015022Y002733D02*
X009822Y002733D01*
X009968Y003126D02*
X009997Y003126D01*
X010362Y003126D02*
X010390Y003126D01*
X010756Y003126D02*
X010784Y003126D01*
X011150Y003126D02*
X011178Y003126D01*
X011543Y003126D02*
X011571Y003126D01*
X011937Y003126D02*
X011965Y003126D01*
X012331Y003126D02*
X012359Y003126D01*
X012724Y003126D02*
X012753Y003126D01*
X013118Y003126D02*
X013146Y003126D01*
X013512Y003126D02*
X013540Y003126D01*
X013905Y003126D02*
X013934Y003126D01*
X014299Y003126D02*
X014327Y003126D01*
X015179Y003094D02*
X015179Y002703D01*
X015449Y002703D01*
X015494Y002657D01*
X015540Y002703D01*
X015842Y002703D01*
X015888Y002657D01*
X015934Y002703D01*
X016236Y002703D01*
X016282Y002657D01*
X016327Y002703D01*
X016630Y002703D01*
X016675Y002657D01*
X016721Y002703D01*
X017024Y002703D01*
X017069Y002657D01*
X017115Y002703D01*
X017417Y002703D01*
X017463Y002657D01*
X017508Y002703D01*
X017811Y002703D01*
X017857Y002657D01*
X017902Y002703D01*
X018205Y002703D01*
X018250Y002657D01*
X018296Y002703D01*
X018598Y002703D01*
X018644Y002657D01*
X018690Y002703D01*
X018992Y002703D01*
X019038Y002657D01*
X019083Y002703D01*
X019386Y002703D01*
X019431Y002657D01*
X019477Y002703D01*
X019779Y002703D01*
X019825Y002657D01*
X019871Y002703D01*
X020173Y002703D01*
X020219Y002657D01*
X020264Y002703D01*
X020567Y002703D01*
X020612Y002657D01*
X020658Y002703D01*
X020961Y002703D01*
X021006Y002657D01*
X021052Y002703D01*
X021354Y002703D01*
X021400Y002657D01*
X021445Y002703D01*
X021748Y002703D01*
X021794Y002657D01*
X021839Y002703D01*
X022142Y002703D01*
X022187Y002657D01*
X022233Y002703D01*
X022535Y002703D01*
X022581Y002657D01*
X022627Y002703D01*
X022929Y002703D01*
X022975Y002657D01*
X023020Y002703D01*
X023323Y002703D01*
X023368Y002657D01*
X023414Y002703D01*
X023716Y002703D01*
X023762Y002657D01*
X023808Y002703D01*
X024110Y002703D01*
X024156Y002657D01*
X024201Y002703D01*
X024504Y002703D01*
X024549Y002657D01*
X024595Y002703D01*
X024898Y002703D01*
X024943Y002657D01*
X024989Y002703D01*
X025291Y002703D01*
X025337Y002657D01*
X025382Y002703D01*
X025685Y002703D01*
X025731Y002657D01*
X025776Y002703D01*
X025903Y002703D01*
X025881Y002756D01*
X025881Y003041D01*
X025903Y003094D01*
X025776Y003094D01*
X025731Y003140D01*
X025685Y003094D01*
X025382Y003094D01*
X025337Y003140D01*
X025291Y003094D01*
X024989Y003094D01*
X024943Y003140D01*
X024898Y003094D01*
X024595Y003094D01*
X024549Y003140D01*
X024504Y003094D01*
X024201Y003094D01*
X024156Y003140D01*
X024110Y003094D01*
X023808Y003094D01*
X023762Y003140D01*
X023716Y003094D01*
X023414Y003094D01*
X023368Y003140D01*
X023323Y003094D01*
X023020Y003094D01*
X022975Y003140D01*
X022929Y003094D01*
X022627Y003094D01*
X022581Y003140D01*
X022535Y003094D01*
X022233Y003094D01*
X022187Y003140D01*
X022142Y003094D01*
X021839Y003094D01*
X021794Y003140D01*
X021748Y003094D01*
X021445Y003094D01*
X021400Y003140D01*
X021354Y003094D01*
X021052Y003094D01*
X021006Y003140D01*
X020961Y003094D01*
X020658Y003094D01*
X020612Y003140D01*
X020567Y003094D01*
X020264Y003094D01*
X020219Y003140D01*
X020173Y003094D01*
X019871Y003094D01*
X019825Y003140D01*
X019779Y003094D01*
X019477Y003094D01*
X019431Y003140D01*
X019386Y003094D01*
X019083Y003094D01*
X019038Y003140D01*
X018992Y003094D01*
X018690Y003094D01*
X018644Y003140D01*
X018598Y003094D01*
X018296Y003094D01*
X018250Y003140D01*
X018205Y003094D01*
X017902Y003094D01*
X017857Y003140D01*
X017811Y003094D01*
X017508Y003094D01*
X017463Y003140D01*
X017417Y003094D01*
X017115Y003094D01*
X017069Y003140D01*
X017024Y003094D01*
X016721Y003094D01*
X016675Y003140D01*
X016630Y003094D01*
X016327Y003094D01*
X016282Y003140D01*
X016236Y003094D01*
X015934Y003094D01*
X015888Y003140D01*
X015842Y003094D01*
X015540Y003094D01*
X015494Y003140D01*
X015449Y003094D01*
X015179Y003094D01*
X015179Y003047D02*
X025884Y003047D01*
X025881Y002969D02*
X015179Y002969D01*
X015179Y002890D02*
X025881Y002890D01*
X025881Y002812D02*
X015179Y002812D01*
X015179Y002733D02*
X025891Y002733D01*
X025745Y003126D02*
X025716Y003126D01*
X025351Y003126D02*
X025323Y003126D01*
X024957Y003126D02*
X024929Y003126D01*
X024564Y003126D02*
X024535Y003126D01*
X024170Y003126D02*
X024142Y003126D01*
X023776Y003126D02*
X023748Y003126D01*
X023382Y003126D02*
X023354Y003126D01*
X022989Y003126D02*
X022961Y003126D01*
X022595Y003126D02*
X022567Y003126D01*
X022201Y003126D02*
X022173Y003126D01*
X021808Y003126D02*
X021779Y003126D01*
X021414Y003126D02*
X021386Y003126D01*
X021020Y003126D02*
X020992Y003126D01*
X020627Y003126D02*
X020598Y003126D01*
X020233Y003126D02*
X020205Y003126D01*
X019839Y003126D02*
X019811Y003126D01*
X019445Y003126D02*
X019417Y003126D01*
X019052Y003126D02*
X019024Y003126D01*
X018658Y003126D02*
X018630Y003126D01*
X018264Y003126D02*
X018236Y003126D01*
X017871Y003126D02*
X017842Y003126D01*
X017477Y003126D02*
X017449Y003126D01*
X017083Y003126D02*
X017055Y003126D01*
X016690Y003126D02*
X016661Y003126D01*
X016296Y003126D02*
X016268Y003126D01*
X015902Y003126D02*
X015874Y003126D01*
X015508Y003126D02*
X015480Y003126D01*
X015420Y001163D02*
X015569Y001163D01*
X015813Y001163D02*
X015963Y001163D01*
X016207Y001163D02*
X016356Y001163D01*
X016601Y001163D02*
X016750Y001163D01*
X016995Y001163D02*
X017144Y001163D01*
X017388Y001163D02*
X017537Y001163D01*
X017782Y001163D02*
X017931Y001163D01*
X018176Y001163D02*
X018325Y001163D01*
X018569Y001163D02*
X018719Y001163D01*
X018963Y001163D02*
X019112Y001163D01*
X019357Y001163D02*
X019506Y001163D01*
X019750Y001163D02*
X019900Y001163D01*
X020144Y001163D02*
X020293Y001163D01*
X020538Y001163D02*
X020687Y001163D01*
X020932Y001163D02*
X021081Y001163D01*
X021325Y001163D02*
X021474Y001163D01*
X021719Y001163D02*
X021868Y001163D01*
X022113Y001163D02*
X022262Y001163D01*
X022506Y001163D02*
X022656Y001163D01*
X022900Y001163D02*
X023049Y001163D01*
X023294Y001163D02*
X023443Y001163D01*
X023687Y001163D02*
X023837Y001163D01*
X024081Y001163D02*
X024230Y001163D01*
X024475Y001163D02*
X024624Y001163D01*
X024869Y001163D02*
X025018Y001163D01*
X025262Y001163D02*
X025411Y001163D01*
X025656Y001163D02*
X025805Y001163D01*
X026126Y003440D02*
X026126Y003440D01*
X026126Y003518D02*
X026223Y003518D01*
X026196Y003597D02*
X026412Y003597D01*
X026510Y003911D02*
X027383Y003911D01*
X027383Y003989D02*
X026588Y003989D01*
X026667Y004068D02*
X027383Y004068D01*
X027383Y004146D02*
X026745Y004146D01*
X026824Y004225D02*
X027383Y004225D01*
X027383Y004303D02*
X026902Y004303D01*
X026981Y004382D02*
X027383Y004382D01*
X027383Y004460D02*
X027059Y004460D01*
X027138Y004539D02*
X027383Y004539D01*
X027295Y004696D02*
X033158Y004696D01*
X033095Y004617D02*
X028835Y004617D01*
X028863Y004539D02*
X033051Y004539D01*
X033020Y004460D02*
X028863Y004460D01*
X028863Y004382D02*
X033001Y004382D01*
X033028Y004068D02*
X028863Y004068D01*
X028863Y003989D02*
X033064Y003989D01*
X033113Y003911D02*
X028859Y003911D01*
X028811Y003832D02*
X033183Y003832D01*
X033247Y004774D02*
X027373Y004774D01*
X027452Y004853D02*
X033396Y004853D01*
X033228Y006187D02*
X033981Y006187D01*
X033825Y006266D02*
X033384Y006266D01*
X033462Y006344D02*
X033747Y006344D01*
X033700Y006423D02*
X033509Y006423D01*
X033541Y006501D02*
X033668Y006501D01*
X033655Y006580D02*
X033555Y006580D01*
X033555Y006658D02*
X033655Y006658D01*
X033665Y006737D02*
X033545Y006737D01*
X033512Y006815D02*
X033697Y006815D01*
X033739Y006894D02*
X033470Y006894D01*
X033392Y006972D02*
X033817Y006972D01*
X033961Y007051D02*
X033248Y007051D01*
X034392Y006972D02*
X035133Y006972D01*
X035133Y006894D02*
X034470Y006894D01*
X034512Y006815D02*
X035133Y006815D01*
X035133Y006737D02*
X034545Y006737D01*
X034555Y006658D02*
X035133Y006658D01*
X035133Y006580D02*
X034555Y006580D01*
X034541Y006501D02*
X035133Y006501D01*
X035133Y006423D02*
X034509Y006423D01*
X034462Y006344D02*
X035133Y006344D01*
X035133Y006266D02*
X034384Y006266D01*
X034228Y006187D02*
X035133Y006187D01*
X028507Y005716D02*
X028427Y005716D01*
X028427Y005638D02*
X028507Y005638D01*
X028507Y005559D02*
X028427Y005559D01*
X028427Y005481D02*
X028507Y005481D01*
X028507Y005245D02*
X028427Y005245D01*
X028427Y005167D02*
X028507Y005167D01*
X028507Y005088D02*
X028427Y005088D01*
X028427Y005010D02*
X028507Y005010D01*
X028507Y004931D02*
X028427Y004931D01*
X028127Y004931D02*
X027530Y004931D01*
X028053Y005010D02*
X028075Y005010D01*
X028071Y005088D02*
X028055Y005088D01*
X028055Y005167D02*
X028071Y005167D01*
X028071Y005245D02*
X028055Y005245D01*
X028098Y004617D02*
X027216Y004617D01*
X028055Y004539D02*
X028071Y004539D01*
X028071Y004460D02*
X028055Y004460D01*
X028055Y004382D02*
X028071Y004382D01*
X028071Y004303D02*
X028055Y004303D01*
X028427Y004382D02*
X028507Y004382D01*
X028507Y004460D02*
X028427Y004460D01*
X028427Y004539D02*
X028507Y004539D01*
X028507Y004617D02*
X028427Y004617D01*
X028427Y004146D02*
X028507Y004146D01*
X028507Y004068D02*
X028427Y004068D01*
X028427Y003989D02*
X028507Y003989D01*
X028507Y003911D02*
X028427Y003911D01*
X028427Y003832D02*
X028507Y003832D01*
X025788Y004617D02*
X025734Y004617D01*
X025334Y005952D02*
X025322Y005952D01*
X025334Y006030D02*
X025244Y006030D01*
X025165Y006109D02*
X025334Y006109D01*
X025334Y006187D02*
X025087Y006187D01*
X025008Y006266D02*
X025334Y006266D01*
X025334Y006344D02*
X024930Y006344D01*
X024851Y006423D02*
X025334Y006423D01*
X025334Y006501D02*
X024773Y006501D01*
X024694Y006580D02*
X025310Y006580D01*
X025231Y006658D02*
X024616Y006658D01*
X024537Y006737D02*
X025153Y006737D01*
X025074Y006815D02*
X024459Y006815D01*
X024380Y006894D02*
X024996Y006894D01*
X024917Y006972D02*
X024302Y006972D01*
X024223Y007051D02*
X024839Y007051D01*
X024760Y007129D02*
X024145Y007129D01*
X024066Y007208D02*
X024682Y007208D01*
X024603Y007286D02*
X023988Y007286D01*
X023909Y007365D02*
X024525Y007365D01*
X024446Y007443D02*
X023831Y007443D01*
X023752Y007522D02*
X024368Y007522D01*
X024289Y007600D02*
X023674Y007600D01*
X023595Y007679D02*
X024211Y007679D01*
X024132Y007757D02*
X023517Y007757D01*
X023438Y007836D02*
X024054Y007836D01*
X023975Y007914D02*
X023360Y007914D01*
X023281Y007993D02*
X023897Y007993D01*
X023818Y008071D02*
X023203Y008071D01*
X023124Y008150D02*
X023740Y008150D01*
X023661Y008228D02*
X023046Y008228D01*
X022967Y008307D02*
X023583Y008307D01*
X023504Y008385D02*
X022889Y008385D01*
X022810Y008464D02*
X023426Y008464D01*
X023347Y008542D02*
X022732Y008542D01*
X022653Y008621D02*
X023269Y008621D01*
X023190Y008699D02*
X022575Y008699D01*
X022496Y008778D02*
X023112Y008778D01*
X023033Y008856D02*
X022418Y008856D01*
X022339Y008935D02*
X022955Y008935D01*
X022876Y009013D02*
X022261Y009013D01*
X022182Y009092D02*
X022798Y009092D01*
X022719Y009170D02*
X022104Y009170D01*
X022025Y009249D02*
X022641Y009249D01*
X022562Y009327D02*
X021947Y009327D01*
X021868Y009406D02*
X022484Y009406D01*
X022405Y009484D02*
X021790Y009484D01*
X021711Y009563D02*
X022327Y009563D01*
X022248Y009641D02*
X021633Y009641D01*
X021554Y009720D02*
X022170Y009720D01*
X022091Y009798D02*
X021476Y009798D01*
X021397Y009877D02*
X022013Y009877D01*
X021934Y009955D02*
X021319Y009955D01*
X021240Y010034D02*
X021856Y010034D01*
X021777Y010112D02*
X021162Y010112D01*
X021083Y010191D02*
X021699Y010191D01*
X021620Y010269D02*
X021005Y010269D01*
X018183Y014273D02*
X032983Y014273D01*
X032827Y014351D02*
X018104Y014351D01*
X018026Y014430D02*
X032748Y014430D01*
X032701Y014508D02*
X017947Y014508D01*
X017869Y014587D02*
X032668Y014587D01*
X032655Y014665D02*
X017790Y014665D01*
X017712Y014744D02*
X032655Y014744D01*
X032664Y014822D02*
X017633Y014822D01*
X017555Y014901D02*
X032697Y014901D01*
X032738Y014979D02*
X017476Y014979D01*
X017398Y015058D02*
X032816Y015058D01*
X032959Y015136D02*
X017319Y015136D01*
X017241Y015215D02*
X035133Y015215D01*
X035133Y015293D02*
X034275Y015293D01*
X034403Y015372D02*
X035133Y015372D01*
X035133Y015450D02*
X034482Y015450D01*
X034517Y015529D02*
X035133Y015529D01*
X035133Y015607D02*
X034549Y015607D01*
X034555Y015686D02*
X035133Y015686D01*
X035133Y015764D02*
X034555Y015764D01*
X034537Y015843D02*
X035133Y015843D01*
X035133Y015921D02*
X034504Y015921D01*
X034451Y016000D02*
X035133Y016000D01*
X035133Y016078D02*
X034372Y016078D01*
X034443Y016471D02*
X035133Y016471D01*
X035133Y016549D02*
X034579Y016549D01*
X034627Y016577D02*
X034627Y016577D01*
X034627Y016577D01*
X034674Y016628D02*
X035133Y016628D01*
X035133Y016706D02*
X034747Y016706D01*
X034820Y016785D02*
X035133Y016785D01*
X035133Y016863D02*
X034893Y016863D01*
X034963Y016942D02*
X035133Y016942D01*
X035133Y017020D02*
X035000Y017020D01*
X035038Y017099D02*
X035133Y017099D01*
X035133Y017177D02*
X035076Y017177D01*
X035114Y017256D02*
X035133Y017256D01*
X035128Y018433D02*
X035133Y018433D01*
X035133Y018512D02*
X035090Y018512D01*
X035052Y018590D02*
X035133Y018590D01*
X035133Y018669D02*
X035015Y018669D01*
X034977Y018747D02*
X035133Y018747D01*
X035133Y018826D02*
X034920Y018826D01*
X034960Y018783D02*
X034960Y018783D01*
X034847Y018904D02*
X035133Y018904D01*
X035133Y018983D02*
X034774Y018983D01*
X034701Y019061D02*
X035133Y019061D01*
X035133Y019140D02*
X034629Y019140D01*
X034627Y019141D02*
X034627Y019141D01*
X034494Y019218D02*
X035133Y019218D01*
X035133Y019297D02*
X034358Y019297D01*
X034222Y019375D02*
X035133Y019375D01*
X033008Y016157D02*
X016299Y016157D01*
X016377Y016078D02*
X032837Y016078D01*
X032758Y016000D02*
X016456Y016000D01*
X016534Y015921D02*
X032705Y015921D01*
X032673Y015843D02*
X016613Y015843D01*
X016691Y015764D02*
X032655Y015764D01*
X032655Y015686D02*
X016770Y015686D01*
X016848Y015607D02*
X032660Y015607D01*
X032692Y015529D02*
X016927Y015529D01*
X017005Y015450D02*
X032728Y015450D01*
X032806Y015372D02*
X017084Y015372D01*
X017162Y015293D02*
X032934Y015293D01*
X034251Y015136D02*
X035133Y015136D01*
X035133Y015058D02*
X034393Y015058D01*
X034471Y014979D02*
X035133Y014979D01*
X035133Y014901D02*
X034512Y014901D01*
X034545Y014822D02*
X035133Y014822D01*
X035133Y014744D02*
X034555Y014744D01*
X034555Y014665D02*
X035133Y014665D01*
X035133Y014587D02*
X034541Y014587D01*
X034508Y014508D02*
X035133Y014508D01*
X035133Y014430D02*
X034461Y014430D01*
X034383Y014351D02*
X035133Y014351D01*
X035133Y014273D02*
X034226Y014273D01*
X034382Y011525D02*
X035133Y011525D01*
X035133Y011447D02*
X034461Y011447D01*
X034508Y011368D02*
X035133Y011368D01*
X035133Y011290D02*
X034541Y011290D01*
X034555Y011211D02*
X035133Y011211D01*
X035133Y011133D02*
X034555Y011133D01*
X034545Y011054D02*
X035133Y011054D01*
X035133Y010976D02*
X034513Y010976D01*
X034472Y010897D02*
X035133Y010897D01*
X035133Y010819D02*
X034393Y010819D01*
X034252Y010740D02*
X035133Y010740D01*
X014782Y001163D02*
X014632Y001163D01*
X014388Y001163D02*
X014239Y001163D01*
X013994Y001163D02*
X013845Y001163D01*
X013600Y001163D02*
X013451Y001163D01*
X013207Y001163D02*
X013058Y001163D01*
X012813Y001163D02*
X012664Y001163D01*
X012419Y001163D02*
X012270Y001163D01*
X012026Y001163D02*
X011876Y001163D01*
X011632Y001163D02*
X011483Y001163D01*
X011238Y001163D02*
X011089Y001163D01*
X010845Y001163D02*
X010695Y001163D01*
X010451Y001163D02*
X010302Y001163D01*
X010057Y001163D02*
X009908Y001163D01*
X009663Y001163D02*
X007246Y001163D01*
X007241Y001161D02*
X007407Y001230D01*
X007533Y001356D01*
X007602Y001522D01*
X007602Y001701D01*
X007533Y001866D01*
X007407Y001993D01*
X007241Y002061D01*
X007062Y002061D01*
X006897Y001993D01*
X006770Y001866D01*
X006702Y001701D01*
X006702Y001522D01*
X006770Y001356D01*
X006897Y001230D01*
X007062Y001161D01*
X007241Y001161D01*
X007057Y001163D02*
X006246Y001163D01*
X006241Y001161D02*
X006407Y001230D01*
X006533Y001356D01*
X006602Y001522D01*
X006602Y001701D01*
X006533Y001866D01*
X006407Y001993D01*
X006241Y002061D01*
X006062Y002061D01*
X005897Y001993D01*
X005770Y001866D01*
X005702Y001701D01*
X005702Y001522D01*
X005770Y001356D01*
X005897Y001230D01*
X006062Y001161D01*
X006241Y001161D01*
X006057Y001163D02*
X005246Y001163D01*
X005241Y001161D02*
X005407Y001230D01*
X005533Y001356D01*
X005602Y001522D01*
X005602Y001701D01*
X005533Y001866D01*
X005407Y001993D01*
X005241Y002061D01*
X005062Y002061D01*
X004897Y001993D01*
X004770Y001866D01*
X004702Y001701D01*
X004702Y001522D01*
X004770Y001356D01*
X004897Y001230D01*
X005062Y001161D01*
X005241Y001161D01*
X005057Y001163D02*
X004246Y001163D01*
X004241Y001161D02*
X004407Y001230D01*
X004533Y001356D01*
X004602Y001522D01*
X004602Y001701D01*
X004533Y001866D01*
X004407Y001993D01*
X004241Y002061D01*
X004062Y002061D01*
X003897Y001993D01*
X003770Y001866D01*
X003702Y001701D01*
X003702Y001522D01*
X003770Y001356D01*
X003897Y001230D01*
X004062Y001161D01*
X004241Y001161D01*
X004057Y001163D02*
X003441Y001163D01*
X003490Y001242D02*
X003885Y001242D01*
X003806Y001320D02*
X003528Y001320D01*
X003565Y001399D02*
X003753Y001399D01*
X003720Y001477D02*
X003603Y001477D01*
X003641Y001556D02*
X003702Y001556D01*
X003702Y001634D02*
X003677Y001634D01*
X003688Y001713D02*
X003707Y001713D01*
X003700Y001791D02*
X003739Y001791D01*
X003712Y001870D02*
X003774Y001870D01*
X003724Y001948D02*
X003852Y001948D01*
X003736Y002027D02*
X003979Y002027D01*
X004062Y002161D02*
X004241Y002161D01*
X004407Y002230D01*
X004533Y002356D01*
X004602Y002522D01*
X004602Y002701D01*
X004533Y002866D01*
X004407Y002993D01*
X004241Y003061D01*
X004062Y003061D01*
X003897Y002993D01*
X003770Y002866D01*
X003702Y002701D01*
X003702Y002522D01*
X003770Y002356D01*
X003897Y002230D01*
X004062Y002161D01*
X004008Y002184D02*
X003738Y002184D01*
X003726Y002262D02*
X003864Y002262D01*
X003786Y002341D02*
X003714Y002341D01*
X003702Y002419D02*
X003744Y002419D01*
X003712Y002498D02*
X003690Y002498D01*
X003678Y002576D02*
X003702Y002576D01*
X003702Y002655D02*
X003647Y002655D01*
X003609Y002733D02*
X003715Y002733D01*
X003748Y002812D02*
X003571Y002812D01*
X003533Y002890D02*
X003794Y002890D01*
X003873Y002969D02*
X003495Y002969D01*
X003452Y003047D02*
X004029Y003047D01*
X004275Y003047D02*
X005029Y003047D01*
X005062Y003061D02*
X004897Y002993D01*
X004770Y002866D01*
X004702Y002701D01*
X004702Y002522D01*
X004770Y002356D01*
X004897Y002230D01*
X005062Y002161D01*
X005241Y002161D01*
X005407Y002230D01*
X005533Y002356D01*
X005602Y002522D01*
X005602Y002701D01*
X005533Y002866D01*
X005407Y002993D01*
X005241Y003061D01*
X005062Y003061D01*
X004873Y002969D02*
X004431Y002969D01*
X004509Y002890D02*
X004794Y002890D01*
X004748Y002812D02*
X004556Y002812D01*
X004588Y002733D02*
X004715Y002733D01*
X004702Y002655D02*
X004602Y002655D01*
X004602Y002576D02*
X004702Y002576D01*
X004712Y002498D02*
X004592Y002498D01*
X004559Y002419D02*
X004744Y002419D01*
X004786Y002341D02*
X004518Y002341D01*
X004439Y002262D02*
X004864Y002262D01*
X005008Y002184D02*
X004296Y002184D01*
X004325Y002027D02*
X004979Y002027D01*
X004852Y001948D02*
X004451Y001948D01*
X004530Y001870D02*
X004774Y001870D01*
X004739Y001791D02*
X004564Y001791D01*
X004597Y001713D02*
X004707Y001713D01*
X004702Y001634D02*
X004602Y001634D01*
X004602Y001556D02*
X004702Y001556D01*
X004720Y001477D02*
X004583Y001477D01*
X004551Y001399D02*
X004753Y001399D01*
X004806Y001320D02*
X004497Y001320D01*
X004419Y001242D02*
X004885Y001242D01*
X005419Y001242D02*
X005885Y001242D01*
X005806Y001320D02*
X005497Y001320D01*
X005551Y001399D02*
X005753Y001399D01*
X005720Y001477D02*
X005583Y001477D01*
X005602Y001556D02*
X005702Y001556D01*
X005702Y001634D02*
X005602Y001634D01*
X005597Y001713D02*
X005707Y001713D01*
X005739Y001791D02*
X005564Y001791D01*
X005530Y001870D02*
X005774Y001870D01*
X005852Y001948D02*
X005451Y001948D01*
X005325Y002027D02*
X005979Y002027D01*
X006062Y002161D02*
X006241Y002161D01*
X006407Y002230D01*
X006533Y002356D01*
X006602Y002522D01*
X006602Y002701D01*
X006533Y002866D01*
X006407Y002993D01*
X006241Y003061D01*
X006062Y003061D01*
X005897Y002993D01*
X005770Y002866D01*
X005702Y002701D01*
X005702Y002522D01*
X005770Y002356D01*
X005897Y002230D01*
X006062Y002161D01*
X006008Y002184D02*
X005296Y002184D01*
X005439Y002262D02*
X005864Y002262D01*
X005786Y002341D02*
X005518Y002341D01*
X005559Y002419D02*
X005744Y002419D01*
X005712Y002498D02*
X005592Y002498D01*
X005602Y002576D02*
X005702Y002576D01*
X005702Y002655D02*
X005602Y002655D01*
X005588Y002733D02*
X005715Y002733D01*
X005748Y002812D02*
X005556Y002812D01*
X005509Y002890D02*
X005794Y002890D01*
X005873Y002969D02*
X005431Y002969D01*
X005275Y003047D02*
X006029Y003047D01*
X006275Y003047D02*
X007029Y003047D01*
X007062Y003061D02*
X006897Y002993D01*
X006770Y002866D01*
X006702Y002701D01*
X006702Y002522D01*
X006770Y002356D01*
X006897Y002230D01*
X007062Y002161D01*
X007241Y002161D01*
X007407Y002230D01*
X007533Y002356D01*
X007602Y002522D01*
X007602Y002701D01*
X007533Y002866D01*
X007407Y002993D01*
X007241Y003061D01*
X007062Y003061D01*
X006873Y002969D02*
X006431Y002969D01*
X006509Y002890D02*
X006794Y002890D01*
X006748Y002812D02*
X006556Y002812D01*
X006588Y002733D02*
X006715Y002733D01*
X006702Y002655D02*
X006602Y002655D01*
X006602Y002576D02*
X006702Y002576D01*
X006712Y002498D02*
X006592Y002498D01*
X006559Y002419D02*
X006744Y002419D01*
X006786Y002341D02*
X006518Y002341D01*
X006439Y002262D02*
X006864Y002262D01*
X007008Y002184D02*
X006296Y002184D01*
X006325Y002027D02*
X006979Y002027D01*
X006852Y001948D02*
X006451Y001948D01*
X006530Y001870D02*
X006774Y001870D01*
X006739Y001791D02*
X006564Y001791D01*
X006597Y001713D02*
X006707Y001713D01*
X006702Y001634D02*
X006602Y001634D01*
X006602Y001556D02*
X006702Y001556D01*
X006720Y001477D02*
X006583Y001477D01*
X006551Y001399D02*
X006753Y001399D01*
X006806Y001320D02*
X006497Y001320D01*
X006419Y001242D02*
X006885Y001242D01*
X007419Y001242D02*
X009586Y001242D01*
X009586Y001320D02*
X007497Y001320D01*
X007551Y001399D02*
X009586Y001399D01*
X009586Y001477D02*
X007583Y001477D01*
X007602Y001556D02*
X009586Y001556D01*
X009586Y001634D02*
X007602Y001634D01*
X007597Y001713D02*
X009586Y001713D01*
X009586Y001791D02*
X007564Y001791D01*
X007530Y001870D02*
X009586Y001870D01*
X008603Y001948D02*
X007451Y001948D01*
X007325Y002027D02*
X008524Y002027D01*
X008446Y002105D02*
X003748Y002105D01*
X003379Y003126D02*
X007775Y003126D01*
X007775Y003204D02*
X003307Y003204D01*
X003234Y003283D02*
X007775Y003283D01*
X007775Y003361D02*
X003161Y003361D01*
X003051Y003440D02*
X007775Y003440D01*
X007775Y003518D02*
X002915Y003518D01*
X002779Y003597D02*
X007775Y003597D01*
X007775Y003675D02*
X002544Y003675D01*
X002431Y003754D02*
X007775Y003754D01*
X007775Y003832D02*
X007590Y003832D01*
X007588Y003830D02*
X007614Y003856D01*
X007633Y003888D01*
X007642Y003923D01*
X007642Y004197D01*
X007286Y004197D01*
X007286Y003802D01*
X007521Y003802D01*
X007556Y003811D01*
X007588Y003830D01*
X007639Y003911D02*
X007658Y003911D01*
X007658Y003989D02*
X007642Y003989D01*
X007642Y004068D02*
X007658Y004068D01*
X007658Y004146D02*
X007642Y004146D01*
X007658Y004225D02*
X007286Y004225D01*
X007286Y004197D02*
X007286Y004277D01*
X007206Y004277D01*
X007206Y004197D01*
X006850Y004197D01*
X006850Y003923D01*
X006860Y003888D01*
X006878Y003856D01*
X006904Y003830D01*
X006936Y003811D01*
X006972Y003802D01*
X007206Y003802D01*
X007206Y004197D01*
X007286Y004197D01*
X007286Y004146D02*
X007206Y004146D01*
X007206Y004068D02*
X007286Y004068D01*
X007286Y003989D02*
X007206Y003989D01*
X007206Y003911D02*
X007286Y003911D01*
X007286Y003832D02*
X007206Y003832D01*
X006902Y003832D02*
X002530Y003832D01*
X002600Y003911D02*
X006854Y003911D01*
X006850Y003989D02*
X002650Y003989D01*
X002685Y004068D02*
X006850Y004068D01*
X006850Y004146D02*
X002708Y004146D01*
X002720Y004225D02*
X007206Y004225D01*
X007206Y004277D02*
X006850Y004277D01*
X006850Y004551D01*
X006860Y004586D01*
X006878Y004618D01*
X006904Y004644D01*
X006936Y004663D01*
X006972Y004672D01*
X007206Y004672D01*
X007206Y004277D01*
X007206Y004303D02*
X007286Y004303D01*
X007286Y004277D02*
X007286Y004672D01*
X007521Y004672D01*
X007556Y004663D01*
X007588Y004644D01*
X007614Y004618D01*
X007633Y004586D01*
X007642Y004551D01*
X007642Y004277D01*
X007286Y004277D01*
X007286Y004382D02*
X007206Y004382D01*
X007206Y004460D02*
X007286Y004460D01*
X007286Y004539D02*
X007206Y004539D01*
X007206Y004617D02*
X007286Y004617D01*
X007286Y004904D02*
X007521Y004904D01*
X007556Y004914D01*
X007588Y004932D01*
X007614Y004958D01*
X007633Y004990D01*
X007642Y005026D01*
X007642Y005299D01*
X007286Y005299D01*
X007286Y004904D01*
X007286Y004931D02*
X007206Y004931D01*
X007206Y004904D02*
X006972Y004904D01*
X006936Y004914D01*
X006904Y004932D01*
X006878Y004958D01*
X006860Y004990D01*
X006850Y005026D01*
X006850Y005299D01*
X007206Y005299D01*
X007286Y005299D01*
X007286Y005379D01*
X007206Y005379D01*
X007206Y005299D01*
X007206Y004904D01*
X007206Y005010D02*
X007286Y005010D01*
X007286Y005088D02*
X007206Y005088D01*
X007206Y005167D02*
X007286Y005167D01*
X007286Y005245D02*
X007206Y005245D01*
X007206Y005324D02*
X000580Y005324D01*
X000580Y005402D02*
X006850Y005402D01*
X006850Y005379D02*
X007206Y005379D01*
X007206Y005775D01*
X006972Y005775D01*
X006936Y005765D01*
X006904Y005747D01*
X006878Y005721D01*
X006860Y005689D01*
X006850Y005653D01*
X006850Y005379D01*
X006850Y005481D02*
X000580Y005481D01*
X000580Y005559D02*
X006850Y005559D01*
X006850Y005638D02*
X000580Y005638D01*
X000580Y005716D02*
X006876Y005716D01*
X007206Y005716D02*
X007286Y005716D01*
X007286Y005638D02*
X007206Y005638D01*
X007206Y005559D02*
X007286Y005559D01*
X007286Y005481D02*
X007206Y005481D01*
X007206Y005402D02*
X007286Y005402D01*
X007286Y005324D02*
X007658Y005324D01*
X007658Y005402D02*
X007642Y005402D01*
X007642Y005481D02*
X007658Y005481D01*
X007658Y005559D02*
X007642Y005559D01*
X007642Y005245D02*
X007658Y005245D01*
X007658Y005167D02*
X007642Y005167D01*
X007642Y005088D02*
X007658Y005088D01*
X007660Y005010D02*
X007638Y005010D01*
X007586Y004931D02*
X008199Y004931D01*
X008277Y004853D02*
X002317Y004853D01*
X002466Y004774D02*
X008356Y004774D01*
X008434Y004696D02*
X002556Y004696D01*
X002618Y004617D02*
X006878Y004617D01*
X006850Y004539D02*
X002662Y004539D01*
X002693Y004460D02*
X006850Y004460D01*
X006850Y004382D02*
X002712Y004382D01*
X002149Y004382D02*
X002069Y004382D01*
X002069Y004460D02*
X002149Y004460D01*
X002149Y004539D02*
X002069Y004539D01*
X002069Y004617D02*
X002149Y004617D01*
X002149Y004696D02*
X002069Y004696D01*
X002069Y004774D02*
X002149Y004774D01*
X002149Y004853D02*
X002069Y004853D01*
X001900Y004853D02*
X000580Y004853D01*
X000580Y004931D02*
X006906Y004931D01*
X006855Y005010D02*
X000580Y005010D01*
X000580Y005088D02*
X006850Y005088D01*
X006850Y005167D02*
X000580Y005167D01*
X000580Y005245D02*
X006850Y005245D01*
X007615Y004617D02*
X008513Y004617D01*
X008591Y004539D02*
X008330Y004539D01*
X008330Y004460D02*
X008670Y004460D01*
X008748Y004382D02*
X008330Y004382D01*
X008330Y004303D02*
X008827Y004303D01*
X008905Y004225D02*
X008330Y004225D01*
X008330Y004146D02*
X008984Y004146D01*
X009062Y004068D02*
X008330Y004068D01*
X008330Y003989D02*
X009141Y003989D01*
X009219Y003911D02*
X008330Y003911D01*
X008175Y003832D02*
X009298Y003832D01*
X009376Y003754D02*
X008175Y003754D01*
X008175Y003675D02*
X009455Y003675D01*
X009533Y003597D02*
X009301Y003597D01*
X009490Y003518D02*
X009588Y003518D01*
X009587Y003440D02*
X009588Y003440D01*
X008932Y003597D02*
X008175Y003597D01*
X008175Y003518D02*
X008742Y003518D01*
X008645Y003440D02*
X008175Y003440D01*
X008175Y003361D02*
X008567Y003361D01*
X008501Y003283D02*
X008175Y003283D01*
X008175Y003204D02*
X008468Y003204D01*
X008436Y003126D02*
X008175Y003126D01*
X008175Y003047D02*
X008403Y003047D01*
X008401Y002969D02*
X008175Y002969D01*
X008227Y002890D02*
X008401Y002890D01*
X008401Y002812D02*
X008305Y002812D01*
X008384Y002733D02*
X008410Y002733D01*
X008053Y002498D02*
X007592Y002498D01*
X007602Y002576D02*
X007975Y002576D01*
X007896Y002655D02*
X007602Y002655D01*
X007588Y002733D02*
X007818Y002733D01*
X007775Y002812D02*
X007556Y002812D01*
X007509Y002890D02*
X007775Y002890D01*
X007775Y002969D02*
X007431Y002969D01*
X007275Y003047D02*
X007775Y003047D01*
X007559Y002419D02*
X008132Y002419D01*
X008210Y002341D02*
X007518Y002341D01*
X007439Y002262D02*
X008289Y002262D01*
X008367Y002184D02*
X007296Y002184D01*
X009471Y004225D02*
X009586Y004225D01*
X009586Y004303D02*
X009392Y004303D01*
X009314Y004382D02*
X009586Y004382D01*
X009586Y004460D02*
X009235Y004460D01*
X009157Y004539D02*
X009586Y004539D01*
X009647Y004617D02*
X009078Y004617D01*
X009549Y004146D02*
X009586Y004146D01*
X007658Y004303D02*
X007642Y004303D01*
X007642Y004382D02*
X007658Y004382D01*
X007658Y004460D02*
X007642Y004460D01*
X007642Y004539D02*
X007658Y004539D01*
X006850Y004303D02*
X002149Y004303D01*
X002068Y004303D02*
X000580Y004303D01*
X000580Y004225D02*
X001497Y004225D01*
X001509Y004146D02*
X000580Y004146D01*
X000580Y004068D02*
X001532Y004068D01*
X001567Y003989D02*
X000580Y003989D01*
X000580Y003911D02*
X001617Y003911D01*
X001687Y003832D02*
X000580Y003832D01*
X000580Y003754D02*
X001786Y003754D01*
X001655Y003675D02*
X000580Y003675D01*
X000580Y003597D02*
X001455Y003597D01*
X001272Y003518D02*
X000580Y003518D01*
X000580Y003440D02*
X001173Y003440D01*
X001075Y003361D02*
X000580Y003361D01*
X000580Y003283D02*
X000977Y003283D01*
X000891Y003204D02*
X000580Y003204D01*
X000580Y003126D02*
X000837Y003126D01*
X000784Y003047D02*
X000580Y003047D01*
X000580Y002969D02*
X000730Y002969D01*
X000677Y002890D02*
X000580Y002890D01*
X000580Y002812D02*
X000628Y002812D01*
X000603Y002733D02*
X000580Y002733D01*
X000580Y004382D02*
X001505Y004382D01*
X001524Y004460D02*
X000580Y004460D01*
X000580Y004539D02*
X001555Y004539D01*
X001599Y004617D02*
X000580Y004617D01*
X000580Y004696D02*
X001661Y004696D01*
X001751Y004774D02*
X000580Y004774D01*
X001354Y006285D02*
X001519Y006216D01*
X001698Y006216D01*
X001863Y006285D01*
X001990Y006411D01*
X002059Y006577D01*
X002059Y006756D01*
X001990Y006921D01*
X001863Y007048D01*
X001698Y007116D01*
X001519Y007116D01*
X001354Y007048D01*
X001227Y006921D01*
X001159Y006756D01*
X001159Y006577D01*
X001227Y006411D01*
X001354Y006285D01*
X001400Y006266D02*
X000580Y006266D01*
X000580Y006344D02*
X001294Y006344D01*
X001222Y006423D02*
X000580Y006423D01*
X000580Y006501D02*
X001190Y006501D01*
X001159Y006580D02*
X000580Y006580D01*
X000580Y006658D02*
X001159Y006658D01*
X001159Y006737D02*
X000580Y006737D01*
X000580Y006815D02*
X001183Y006815D01*
X001216Y006894D02*
X000580Y006894D01*
X000580Y006972D02*
X001278Y006972D01*
X001361Y007051D02*
X000580Y007051D01*
X000580Y007129D02*
X009586Y007129D01*
X002361Y007051D02*
X001856Y007051D01*
X001939Y006972D02*
X002278Y006972D01*
X002216Y006894D02*
X002001Y006894D01*
X002034Y006815D02*
X002183Y006815D01*
X002159Y006737D02*
X002059Y006737D01*
X002059Y006658D02*
X002159Y006658D01*
X002159Y006580D02*
X002059Y006580D01*
X002027Y006501D02*
X002190Y006501D01*
X002222Y006423D02*
X001995Y006423D01*
X001923Y006344D02*
X002294Y006344D01*
X002400Y006266D02*
X001817Y006266D01*
X001308Y013331D02*
X000580Y013331D01*
X000580Y013409D02*
X001229Y013409D01*
X001195Y013488D02*
X000580Y013488D01*
X000580Y013566D02*
X001163Y013566D01*
X001159Y013645D02*
X000580Y013645D01*
X000580Y013723D02*
X001159Y013723D01*
X001178Y013802D02*
X000580Y013802D01*
X000580Y013880D02*
X001210Y013880D01*
X001265Y013959D02*
X000580Y013959D01*
X000580Y014037D02*
X001343Y014037D01*
D17*
X013723Y005143D03*
X014116Y005182D03*
X014510Y004906D03*
X014943Y005143D03*
X015258Y004828D03*
X015691Y005103D03*
X016085Y004906D03*
X016479Y004788D03*
X016872Y004788D03*
X017266Y005024D03*
X017660Y004828D03*
X018053Y004985D03*
X018447Y005103D03*
X018841Y004788D03*
X019234Y005143D03*
X019628Y005024D03*
X020022Y005024D03*
X020416Y004828D03*
X020809Y004946D03*
X021203Y005182D03*
X021597Y004906D03*
X021990Y005024D03*
X022384Y005339D03*
X022778Y004906D03*
X023171Y005143D03*
X023565Y004985D03*
X021597Y006560D03*
X020809Y006835D03*
X020416Y006324D03*
X020022Y006206D03*
X019628Y006520D03*
X019234Y006678D03*
X018841Y006442D03*
X018447Y006639D03*
X018053Y007190D03*
X017660Y007465D03*
X017266Y007387D03*
X016872Y007308D03*
X016479Y007820D03*
X016085Y007859D03*
X015691Y007780D03*
X017266Y008568D03*
X017660Y008568D03*
X018447Y008528D03*
X019234Y007859D03*
X020022Y007426D03*
X016872Y009001D03*
X016479Y009355D03*
X016085Y009434D03*
X015691Y009473D03*
X012935Y005064D03*
X012542Y004906D03*
X013329Y004788D03*
D18*
X009766Y002162D02*
X009746Y002072D01*
X025923Y001946D02*
X025927Y002072D01*
X027577Y005261D02*
X027715Y005257D01*
X027719Y005339D01*
D19*
X027577Y005261D02*
X025943Y003627D01*
X025927Y003627D02*
X025927Y004473D01*
X025534Y004473D02*
X025534Y006639D01*
X015494Y016678D01*
X015101Y017072D01*
X013605Y018568D01*
X013605Y020615D01*
X011557Y020615D02*
X011557Y019434D01*
X016675Y014316D01*
X016872Y014119D01*
X025140Y005851D01*
X025140Y004473D01*
X025140Y003627D01*
X024746Y003627D02*
X024746Y004473D01*
X024353Y004473D02*
X024353Y003627D01*
X023959Y003627D02*
X023959Y004473D01*
X023565Y004473D02*
X023565Y003627D01*
X023171Y003627D02*
X023171Y004473D01*
X022778Y004473D02*
X022778Y003627D01*
X022384Y003627D02*
X022384Y004473D01*
X021990Y004473D02*
X021990Y003627D01*
X021597Y003627D02*
X021597Y004473D01*
X021203Y004473D02*
X021203Y003627D01*
X020809Y003627D02*
X020809Y004473D01*
X020416Y004473D02*
X020416Y003627D01*
X020022Y003627D02*
X020022Y004473D01*
X019628Y004473D02*
X019628Y003627D01*
X019234Y003627D02*
X019234Y004473D01*
X018841Y004473D02*
X018841Y003627D01*
X018447Y003627D02*
X018447Y004473D01*
X018053Y004473D02*
X018053Y003627D01*
X017660Y003627D02*
X017660Y004473D01*
X017266Y004473D02*
X017266Y003627D01*
X016872Y003627D02*
X016872Y004473D01*
X016479Y004473D02*
X016479Y003627D01*
X016085Y003627D02*
X016085Y004473D01*
X015691Y004473D02*
X015691Y003627D01*
X015297Y003627D02*
X015297Y004473D01*
X014904Y004473D02*
X014904Y003627D01*
X014510Y003627D02*
X014510Y004473D01*
X014116Y004473D02*
X014116Y003627D01*
X013723Y003627D02*
X013723Y004473D01*
X013329Y004473D02*
X013329Y003627D01*
X012935Y003627D02*
X012935Y004473D01*
X012542Y004473D02*
X012542Y003627D01*
X012148Y003627D02*
X012148Y004473D01*
X011754Y004473D02*
X011754Y003627D01*
X011360Y003627D02*
X011360Y004473D01*
X010967Y004473D02*
X010967Y005064D01*
X011360Y005457D01*
X011360Y014119D01*
X008171Y017308D01*
X008171Y020615D01*
X006124Y020615D02*
X006124Y018174D01*
X010573Y013725D01*
X010573Y004473D01*
X010573Y003627D01*
X010179Y003627D02*
X010179Y004473D01*
X010179Y004670D01*
X009786Y005064D01*
X009786Y013331D01*
X004077Y019040D01*
X004077Y020615D01*
X008152Y005261D02*
X009786Y003627D01*
X009786Y004473D01*
X010967Y004473D02*
X010967Y003627D01*
X010967Y002170D02*
X010967Y001324D01*
X011360Y001324D02*
X011360Y002170D01*
X011754Y002170D02*
X011754Y001324D01*
X012148Y001324D02*
X012148Y002170D01*
X012542Y002170D02*
X012542Y001324D01*
X012935Y001324D02*
X012935Y002170D01*
X013329Y002170D02*
X013329Y001324D01*
X013723Y001324D02*
X013723Y002170D01*
X014116Y002170D02*
X014116Y001324D01*
X014510Y001324D02*
X014510Y002170D01*
X014904Y002170D02*
X014904Y001324D01*
X015297Y001324D02*
X015297Y002170D01*
X015691Y002170D02*
X015691Y001324D01*
X016085Y001324D02*
X016085Y002170D01*
X016479Y002170D02*
X016479Y001324D01*
X016872Y001324D02*
X016872Y002170D01*
X017266Y002170D02*
X017266Y001324D01*
X017660Y001324D02*
X017660Y002170D01*
X018053Y002170D02*
X018053Y001324D01*
X018447Y001324D02*
X018447Y002170D01*
X018841Y002170D02*
X018841Y001324D01*
X019234Y001324D02*
X019234Y002170D01*
X019628Y002170D02*
X019628Y001324D01*
X020022Y001324D02*
X020022Y002170D01*
X020416Y002170D02*
X020416Y001324D01*
X020809Y001324D02*
X020809Y002170D01*
X021203Y002170D02*
X021203Y001324D01*
X021597Y001324D02*
X021597Y002170D01*
X021990Y002170D02*
X021990Y001324D01*
X022384Y001324D02*
X022384Y002170D01*
X022778Y002170D02*
X022778Y001324D01*
X023171Y001324D02*
X023171Y002170D01*
X023565Y002170D02*
X023565Y001324D01*
X023959Y001324D02*
X023959Y002170D01*
X024353Y002170D02*
X024353Y001324D01*
X024746Y001324D02*
X024746Y002170D01*
X025140Y002170D02*
X025140Y001324D01*
X025534Y001324D02*
X025534Y002170D01*
X025927Y002170D02*
X025927Y002072D01*
X026912Y002072D01*
X027699Y002859D01*
X027699Y004217D01*
X025534Y004473D02*
X025534Y003627D01*
X025927Y002072D02*
X025927Y001324D01*
X010573Y001324D02*
X010573Y002170D01*
X010179Y002170D02*
X010179Y001324D01*
X009786Y001324D02*
X009786Y002170D01*
X009746Y002072D02*
X008762Y002072D01*
X007975Y002859D01*
X007975Y004001D01*
D20*
X007994Y004001D01*
X007994Y004237D01*
X007994Y005261D02*
X007994Y005339D01*
X007994Y005261D02*
X008152Y005261D01*
X009766Y002162D02*
X009786Y002162D01*
X009786Y002170D01*
X025927Y003627D02*
X025943Y003627D01*
D21*
X027699Y004217D02*
X027719Y004237D01*
M02*
