G75*
G70*
%OFA0B0*%
%FSLAX24Y24*%
%IPPOS*%
%LPD*%
%AMOC8*
5,1,8,0,0,1.08239X$1,22.5*
%
%ADD10C,0.0945*%
%ADD11C,0.0600*%
%ADD12C,0.0295*%
%ADD13C,0.0200*%
%ADD14C,0.0080*%
%ADD15C,0.0180*%
D10*
X002109Y004276D03*
X002109Y020615D03*
X004077Y020615D03*
X006124Y020615D03*
X008171Y020615D03*
X011557Y020615D03*
X013605Y020615D03*
X033605Y020615D03*
X033605Y004276D03*
D11*
X031561Y002611D03*
X030561Y002611D03*
X029561Y002611D03*
X028561Y002611D03*
X028561Y001611D03*
X029561Y001611D03*
X030561Y001611D03*
X031561Y001611D03*
X033105Y006623D03*
X034105Y006623D03*
X034105Y007623D03*
X033105Y007623D03*
X033105Y008623D03*
X034105Y008623D03*
X034105Y010166D03*
X033105Y010166D03*
X033105Y011166D03*
X034105Y011166D03*
X034105Y012166D03*
X033105Y012166D03*
X033105Y013709D03*
X034105Y013709D03*
X034105Y014709D03*
X033105Y014709D03*
X033105Y015709D03*
X034105Y015709D03*
X032046Y019721D03*
X031046Y019721D03*
X030046Y019721D03*
X030046Y020721D03*
X031046Y020721D03*
X032046Y020721D03*
X028502Y020721D03*
X027502Y020721D03*
X026502Y020721D03*
X026502Y019721D03*
X027502Y019721D03*
X028502Y019721D03*
X024959Y019721D03*
X023959Y019721D03*
X022959Y019721D03*
X022959Y020721D03*
X023959Y020721D03*
X024959Y020721D03*
X021416Y020721D03*
X020416Y020721D03*
X019416Y020721D03*
X019416Y019721D03*
X020416Y019721D03*
X021416Y019721D03*
X017872Y019721D03*
X016872Y019721D03*
X015872Y019721D03*
X015872Y020721D03*
X016872Y020721D03*
X017872Y020721D03*
X002609Y015666D03*
X001609Y015666D03*
X001609Y014666D03*
X002609Y014666D03*
X002609Y013666D03*
X001609Y013666D03*
X001609Y012666D03*
X002609Y012666D03*
X002609Y011666D03*
X001609Y011666D03*
X001609Y010666D03*
X002609Y010666D03*
X002609Y009666D03*
X001609Y009666D03*
X001609Y008666D03*
X002609Y008666D03*
X002609Y007666D03*
X001609Y007666D03*
X001609Y006666D03*
X002609Y006666D03*
X004152Y002611D03*
X005152Y002611D03*
X006152Y002611D03*
X007152Y002611D03*
X007152Y001611D03*
X006152Y001611D03*
X005152Y001611D03*
X004152Y001611D03*
D12*
X008408Y000930D03*
X010022Y002898D03*
X010849Y002898D03*
X005455Y005536D03*
X003408Y006442D03*
X003762Y007780D03*
X003408Y008686D03*
X003526Y009513D03*
X003447Y010576D03*
X003762Y011835D03*
X003447Y012544D03*
X003644Y013646D03*
X003447Y014906D03*
X003683Y015969D03*
X004746Y017780D03*
X006439Y016166D03*
X007227Y017623D03*
X009392Y016954D03*
X010967Y015772D03*
X009471Y015497D03*
X010534Y014237D03*
X012148Y014198D03*
X013723Y013528D03*
X014904Y012741D03*
X015691Y012544D03*
X017069Y012583D03*
X017778Y012662D03*
X018801Y012741D03*
X020612Y013922D03*
X019549Y014080D03*
X021715Y014631D03*
X022778Y014828D03*
X023723Y015654D03*
X024825Y015418D03*
X025140Y016678D03*
X026518Y016363D03*
X027542Y016599D03*
X028368Y017072D03*
X030140Y017820D03*
X031203Y018883D03*
X031912Y018804D03*
X029825Y019001D03*
X028762Y018961D03*
X027384Y019001D03*
X026282Y018922D03*
X025219Y018961D03*
X024038Y018843D03*
X023171Y018961D03*
X021203Y018961D03*
X020219Y018765D03*
X019195Y018961D03*
X017660Y018961D03*
X017109Y018765D03*
X016085Y019001D03*
X014313Y018646D03*
X013132Y018450D03*
X010573Y018450D03*
X012738Y016481D03*
X014707Y015694D03*
X015888Y015694D03*
X016754Y014749D03*
X018447Y016678D03*
X021990Y017072D03*
X028801Y012662D03*
X029589Y013725D03*
X029707Y014828D03*
X029707Y015536D03*
X031242Y016678D03*
X032266Y016087D03*
X032266Y014631D03*
X032384Y013922D03*
X032109Y012150D03*
X031951Y011087D03*
X032345Y010379D03*
X032227Y008410D03*
X032069Y007465D03*
X032227Y006402D03*
X032620Y005261D03*
X030849Y005261D03*
X026675Y007426D03*
X026400Y006796D03*
X025179Y006363D03*
X027502Y008607D03*
X027620Y010064D03*
X027935Y011048D03*
X025691Y002898D03*
X024864Y002898D03*
X027305Y000930D03*
X014313Y010772D03*
X011951Y012229D03*
X007935Y011520D03*
X008053Y010851D03*
X008368Y009631D03*
X008447Y008528D03*
X009116Y007544D03*
X009038Y006796D03*
X003290Y004946D03*
X007109Y012583D03*
X007109Y013804D03*
X006990Y014591D03*
X007423Y019119D03*
D13*
X009392Y012465D03*
X009392Y011048D03*
X010179Y010969D03*
X011675Y010221D03*
X010888Y009591D03*
X010258Y009434D03*
X011872Y009276D03*
X011715Y008056D03*
X011085Y007898D03*
X010101Y008253D03*
X012227Y006757D03*
X013132Y006560D03*
X013408Y007072D03*
X014077Y007032D03*
X014038Y007859D03*
X012109Y006206D03*
X012109Y005457D03*
X011636Y005300D03*
X011282Y004906D03*
X011360Y004473D03*
X010967Y004473D03*
X010573Y004473D03*
X010179Y004473D03*
X009786Y004473D03*
X010101Y005300D03*
X011754Y004473D03*
X012148Y004473D03*
X012542Y004473D03*
X012935Y004473D03*
X013329Y004473D03*
X013723Y004473D03*
X014116Y004473D03*
X014510Y004473D03*
X014904Y004473D03*
X015297Y004473D03*
X015691Y004473D03*
X016085Y004473D03*
X016479Y004473D03*
X016872Y004473D03*
X017266Y004473D03*
X017660Y004473D03*
X018053Y004473D03*
X018447Y004473D03*
X018841Y004473D03*
X019234Y004473D03*
X019628Y004473D03*
X020022Y004473D03*
X020416Y004473D03*
X020809Y004473D03*
X021203Y004473D03*
X021597Y004473D03*
X021990Y004473D03*
X022384Y004473D03*
X022778Y004473D03*
X023171Y004473D03*
X023565Y004473D03*
X023959Y004473D03*
X024353Y004473D03*
X024746Y004473D03*
X025140Y004473D03*
X025534Y004473D03*
X025927Y004473D03*
X024431Y004906D03*
X024038Y005221D03*
X023762Y005694D03*
X023290Y005930D03*
X023053Y006324D03*
X022423Y006442D03*
X022109Y006875D03*
X022030Y007465D03*
X021282Y007387D03*
X021085Y007938D03*
X020927Y008528D03*
X020337Y008607D03*
X020297Y009276D03*
X019628Y009316D03*
X019471Y009867D03*
X018959Y010103D03*
X018211Y009985D03*
X018132Y010654D03*
X017423Y010615D03*
X016912Y010812D03*
X017109Y011757D03*
X016321Y011717D03*
X020849Y011954D03*
X021951Y011639D03*
X023171Y010772D03*
X023880Y010772D03*
X024353Y010497D03*
X025258Y010654D03*
X025612Y009709D03*
X024786Y009513D03*
X025809Y009080D03*
X023683Y011993D03*
X023447Y012426D03*
X022384Y012780D03*
X024864Y014552D03*
X025612Y014631D03*
X026557Y014119D03*
X027502Y013646D03*
X027896Y013331D03*
X027581Y014473D03*
X026715Y014985D03*
X028408Y005851D03*
X028959Y005339D03*
X028605Y004828D03*
X028171Y004749D03*
X029077Y004394D03*
X028014Y003765D03*
X025927Y001324D03*
X025534Y001324D03*
X025140Y001324D03*
X024746Y001324D03*
X024353Y001324D03*
X023959Y001324D03*
X023565Y001324D03*
X023171Y001324D03*
X022778Y001324D03*
X022384Y001324D03*
X021990Y001324D03*
X021597Y001324D03*
X021203Y001324D03*
X020809Y001324D03*
X020416Y001324D03*
X020022Y001324D03*
X019628Y001324D03*
X019234Y001324D03*
X018841Y001324D03*
X018447Y001324D03*
X018053Y001324D03*
X017660Y001324D03*
X017266Y001324D03*
X016872Y001324D03*
X016479Y001324D03*
X016085Y001324D03*
X015691Y001324D03*
X015297Y001324D03*
X014904Y001324D03*
X014510Y001324D03*
X014116Y001324D03*
X013723Y001324D03*
X013329Y001324D03*
X012935Y001324D03*
X012542Y001324D03*
X012148Y001324D03*
X011754Y001324D03*
X011360Y001324D03*
X010967Y001324D03*
X010573Y001324D03*
X010179Y001324D03*
X009786Y001324D03*
X007620Y003804D03*
X006794Y004198D03*
X007305Y004828D03*
X006754Y005339D03*
X007227Y005851D03*
X010258Y006599D03*
D14*
X000580Y000583D02*
X000580Y021750D01*
X009904Y021750D01*
X009904Y017938D01*
X013132Y014709D01*
X013132Y010300D01*
X015022Y008410D01*
X015022Y004610D01*
X014978Y004653D01*
X014829Y004653D01*
X014724Y004548D01*
X014724Y004399D01*
X014829Y004293D01*
X014978Y004293D01*
X015022Y004337D01*
X015022Y001460D01*
X014978Y001504D01*
X014829Y001504D01*
X014724Y001398D01*
X014724Y001249D01*
X014829Y001144D01*
X014978Y001144D01*
X015022Y001187D01*
X015022Y000583D01*
X007758Y000583D01*
X008291Y001116D01*
X008291Y003124D01*
X008812Y003645D01*
X010308Y003645D01*
X010378Y003715D01*
X010956Y004293D01*
X011041Y004293D01*
X011147Y004399D01*
X011147Y004548D01*
X011041Y004653D01*
X010892Y004653D01*
X010787Y004548D01*
X010787Y004463D01*
X010753Y004429D01*
X010753Y004548D01*
X010648Y004653D01*
X010499Y004653D01*
X010393Y004548D01*
X010393Y004463D01*
X010359Y004429D01*
X010359Y004548D01*
X010254Y004653D01*
X010105Y004653D01*
X009999Y004548D01*
X009999Y004463D01*
X009966Y004429D01*
X009966Y004548D01*
X009860Y004653D01*
X009711Y004653D01*
X009651Y004593D01*
X007925Y004593D01*
X006586Y003255D01*
X006516Y003184D01*
X006516Y002725D01*
X006474Y002826D01*
X006367Y002933D01*
X006227Y002991D01*
X006076Y002991D01*
X005937Y002933D01*
X005830Y002826D01*
X005772Y002687D01*
X005772Y002535D01*
X005830Y002396D01*
X005937Y002289D01*
X006076Y002231D01*
X006227Y002231D01*
X006367Y002289D01*
X006474Y002396D01*
X006516Y002497D01*
X006516Y002168D01*
X006516Y002168D01*
X006516Y002118D01*
X006516Y002069D01*
X006516Y002069D01*
X006516Y002068D01*
X006552Y002034D01*
X006586Y001999D01*
X006587Y001999D01*
X006810Y001779D01*
X006772Y001687D01*
X006772Y001535D01*
X006830Y001396D01*
X006937Y001289D01*
X007038Y001247D01*
X006686Y001247D01*
X006492Y001440D01*
X006532Y001535D01*
X006532Y001687D01*
X006474Y001826D01*
X006367Y001933D01*
X006227Y001991D01*
X006076Y001991D01*
X005937Y001933D01*
X005830Y001826D01*
X005772Y001687D01*
X005772Y001535D01*
X005830Y001396D01*
X005937Y001289D01*
X006076Y001231D01*
X006227Y001231D01*
X006323Y001270D01*
X006516Y001077D01*
X006583Y001011D01*
X005922Y001011D01*
X005492Y001440D01*
X005532Y001535D01*
X005532Y001687D01*
X005474Y001826D01*
X005367Y001933D01*
X005227Y001991D01*
X005076Y001991D01*
X004937Y001933D01*
X004830Y001826D01*
X004772Y001687D01*
X004772Y001535D01*
X004830Y001396D01*
X004937Y001289D01*
X005076Y001231D01*
X005227Y001231D01*
X005323Y001270D01*
X005752Y000841D01*
X005819Y000774D01*
X005158Y000774D01*
X004492Y001440D01*
X004532Y001535D01*
X004532Y001687D01*
X004474Y001826D01*
X004367Y001933D01*
X004227Y001991D01*
X004076Y001991D01*
X003937Y001933D01*
X003830Y001826D01*
X003772Y001687D01*
X003772Y001535D01*
X003830Y001396D01*
X003937Y001289D01*
X004076Y001231D01*
X004227Y001231D01*
X004323Y001270D01*
X004989Y000605D01*
X005011Y000583D01*
X000580Y000583D01*
X000580Y000614D02*
X004980Y000614D01*
X004901Y000692D02*
X000580Y000692D01*
X000580Y000771D02*
X004823Y000771D01*
X004744Y000849D02*
X000580Y000849D01*
X000580Y000928D02*
X004666Y000928D01*
X004587Y001006D02*
X000580Y001006D01*
X000580Y001085D02*
X001730Y001085D01*
X001688Y001096D02*
X001965Y001021D01*
X002252Y001021D01*
X002529Y001096D01*
X002778Y001239D01*
X002980Y001442D01*
X003124Y001690D01*
X003198Y001968D01*
X003198Y002254D01*
X003124Y002532D01*
X002980Y002780D01*
X002778Y002983D01*
X002529Y003126D01*
X002252Y003201D01*
X001965Y003201D01*
X001688Y003126D01*
X001439Y002983D01*
X001237Y002780D01*
X001093Y002532D01*
X001019Y002254D01*
X001019Y001968D01*
X001093Y001690D01*
X001237Y001442D01*
X001439Y001239D01*
X001688Y001096D01*
X001571Y001163D02*
X000580Y001163D01*
X000580Y001242D02*
X001437Y001242D01*
X001359Y001320D02*
X000580Y001320D01*
X000580Y001399D02*
X001280Y001399D01*
X001216Y001477D02*
X000580Y001477D01*
X000580Y001556D02*
X001171Y001556D01*
X001126Y001634D02*
X000580Y001634D01*
X000580Y001713D02*
X001087Y001713D01*
X001066Y001791D02*
X000580Y001791D01*
X000580Y001870D02*
X001045Y001870D01*
X001024Y001948D02*
X000580Y001948D01*
X000580Y002027D02*
X001019Y002027D01*
X001019Y002105D02*
X000580Y002105D01*
X000580Y002184D02*
X001019Y002184D01*
X001021Y002262D02*
X000580Y002262D01*
X000580Y002341D02*
X001042Y002341D01*
X001063Y002419D02*
X000580Y002419D01*
X000580Y002498D02*
X001084Y002498D01*
X001119Y002576D02*
X000580Y002576D01*
X000580Y002655D02*
X001164Y002655D01*
X001209Y002733D02*
X000580Y002733D01*
X000580Y002812D02*
X001268Y002812D01*
X001347Y002890D02*
X000580Y002890D01*
X000580Y002969D02*
X001425Y002969D01*
X001551Y003047D02*
X000580Y003047D01*
X000580Y003126D02*
X001686Y003126D01*
X001873Y003709D02*
X001965Y003679D01*
X002060Y003664D01*
X002069Y003664D01*
X002069Y004236D01*
X002149Y004236D01*
X002149Y004316D01*
X002721Y004316D01*
X002721Y004325D01*
X002706Y004420D01*
X002676Y004511D01*
X002632Y004597D01*
X002576Y004675D01*
X002508Y004744D01*
X002430Y004800D01*
X002344Y004844D01*
X002252Y004874D01*
X002157Y004889D01*
X002149Y004889D01*
X002149Y004316D01*
X002069Y004316D01*
X002068Y004316D02*
X002068Y004236D01*
X001496Y004236D01*
X001496Y004228D01*
X001511Y004133D01*
X001541Y004041D01*
X001585Y003955D01*
X001641Y003877D01*
X001709Y003809D01*
X001787Y003753D01*
X001873Y003709D01*
X001786Y003754D02*
X000580Y003754D01*
X000580Y003832D02*
X001687Y003832D01*
X001617Y003911D02*
X000580Y003911D01*
X000580Y003989D02*
X001567Y003989D01*
X001532Y004068D02*
X000580Y004068D01*
X000580Y004146D02*
X001509Y004146D01*
X001497Y004225D02*
X000580Y004225D01*
X000580Y004303D02*
X002068Y004303D01*
X002068Y004316D02*
X001496Y004316D01*
X001496Y004325D01*
X001511Y004420D01*
X001541Y004511D01*
X001585Y004597D01*
X001641Y004675D01*
X001709Y004744D01*
X001787Y004800D01*
X001873Y004844D01*
X001965Y004874D01*
X002060Y004889D01*
X002069Y004889D01*
X002069Y004316D01*
X002069Y004382D02*
X002149Y004382D01*
X002149Y004460D02*
X002069Y004460D01*
X002069Y004539D02*
X002149Y004539D01*
X002149Y004617D02*
X002069Y004617D01*
X002069Y004696D02*
X002149Y004696D01*
X002149Y004774D02*
X002069Y004774D01*
X002069Y004853D02*
X002149Y004853D01*
X002317Y004853D02*
X015022Y004853D01*
X015022Y004931D02*
X000580Y004931D01*
X000580Y004853D02*
X001900Y004853D01*
X001751Y004774D02*
X000580Y004774D01*
X000580Y004696D02*
X001661Y004696D01*
X001599Y004617D02*
X000580Y004617D01*
X000580Y004539D02*
X001555Y004539D01*
X001524Y004460D02*
X000580Y004460D01*
X000580Y004382D02*
X001505Y004382D01*
X002069Y004225D02*
X002149Y004225D01*
X002149Y004236D02*
X002149Y003664D01*
X002157Y003664D01*
X002252Y003679D01*
X002344Y003709D01*
X002430Y003753D01*
X002508Y003809D01*
X002576Y003877D01*
X002632Y003955D01*
X002676Y004041D01*
X002706Y004133D01*
X002721Y004228D01*
X002721Y004236D01*
X002149Y004236D01*
X002149Y004303D02*
X007635Y004303D01*
X007713Y004382D02*
X002712Y004382D01*
X002693Y004460D02*
X007792Y004460D01*
X007870Y004539D02*
X002662Y004539D01*
X002618Y004617D02*
X009675Y004617D01*
X009786Y004473D02*
X007975Y004473D01*
X006636Y003135D01*
X006636Y002119D01*
X007152Y001611D01*
X007500Y001763D02*
X007474Y001826D01*
X007367Y001933D01*
X007227Y001991D01*
X007076Y001991D01*
X006978Y001950D01*
X006756Y002169D01*
X006756Y003085D01*
X008024Y004353D01*
X008472Y004353D01*
X007571Y003451D01*
X007500Y003381D01*
X007500Y002763D01*
X007474Y002826D01*
X007367Y002933D01*
X007227Y002991D01*
X007076Y002991D01*
X006937Y002933D01*
X006830Y002826D01*
X006772Y002687D01*
X006772Y002535D01*
X006830Y002396D01*
X006937Y002289D01*
X007076Y002231D01*
X007227Y002231D01*
X007367Y002289D01*
X007474Y002396D01*
X007500Y002459D01*
X007500Y001763D01*
X007500Y001791D02*
X007489Y001791D01*
X007500Y001870D02*
X007431Y001870D01*
X007500Y001948D02*
X007331Y001948D01*
X007500Y002027D02*
X006901Y002027D01*
X006821Y002105D02*
X007500Y002105D01*
X007500Y002184D02*
X006756Y002184D01*
X006756Y002262D02*
X007001Y002262D01*
X006885Y002341D02*
X006756Y002341D01*
X006756Y002419D02*
X006820Y002419D01*
X006788Y002498D02*
X006756Y002498D01*
X006756Y002576D02*
X006772Y002576D01*
X006772Y002655D02*
X006756Y002655D01*
X006756Y002733D02*
X006791Y002733D01*
X006824Y002812D02*
X006756Y002812D01*
X006756Y002890D02*
X006893Y002890D01*
X007022Y002969D02*
X006756Y002969D01*
X006756Y003047D02*
X007500Y003047D01*
X007500Y002969D02*
X007282Y002969D01*
X007410Y002890D02*
X007500Y002890D01*
X007500Y002812D02*
X007480Y002812D01*
X007500Y003126D02*
X006797Y003126D01*
X006875Y003204D02*
X007500Y003204D01*
X007500Y003283D02*
X006954Y003283D01*
X007032Y003361D02*
X007500Y003361D01*
X007559Y003440D02*
X007111Y003440D01*
X007189Y003518D02*
X007637Y003518D01*
X007716Y003597D02*
X007268Y003597D01*
X007346Y003675D02*
X007794Y003675D01*
X007873Y003754D02*
X007425Y003754D01*
X007503Y003832D02*
X007951Y003832D01*
X008030Y003911D02*
X007582Y003911D01*
X007660Y003989D02*
X008108Y003989D01*
X008187Y004068D02*
X007739Y004068D01*
X007817Y004146D02*
X008265Y004146D01*
X008344Y004225D02*
X007896Y004225D01*
X007974Y004303D02*
X008422Y004303D01*
X008526Y004237D02*
X007620Y003331D01*
X007620Y001402D01*
X007345Y001127D01*
X006636Y001127D01*
X006152Y001611D01*
X006508Y001477D02*
X006796Y001477D01*
X006772Y001556D02*
X006532Y001556D01*
X006532Y001634D02*
X006772Y001634D01*
X006783Y001713D02*
X006521Y001713D01*
X006489Y001791D02*
X006798Y001791D01*
X006718Y001870D02*
X006431Y001870D01*
X006331Y001948D02*
X006639Y001948D01*
X006559Y002027D02*
X003198Y002027D01*
X003198Y002105D02*
X006516Y002105D01*
X006516Y002184D02*
X003198Y002184D01*
X003196Y002262D02*
X004001Y002262D01*
X003937Y002289D02*
X004076Y002231D01*
X004227Y002231D01*
X004367Y002289D01*
X004474Y002396D01*
X004532Y002535D01*
X004532Y002687D01*
X004474Y002826D01*
X004367Y002933D01*
X004227Y002991D01*
X004076Y002991D01*
X003937Y002933D01*
X003830Y002826D01*
X003772Y002687D01*
X003772Y002535D01*
X003830Y002396D01*
X003937Y002289D01*
X003885Y002341D02*
X003175Y002341D01*
X003154Y002419D02*
X003820Y002419D01*
X003788Y002498D02*
X003133Y002498D01*
X003098Y002576D02*
X003772Y002576D01*
X003772Y002655D02*
X003053Y002655D01*
X003008Y002733D02*
X003791Y002733D01*
X003824Y002812D02*
X002949Y002812D01*
X002870Y002890D02*
X003893Y002890D01*
X004022Y002969D02*
X002792Y002969D01*
X002667Y003047D02*
X006516Y003047D01*
X006516Y002969D02*
X006282Y002969D01*
X006410Y002890D02*
X006516Y002890D01*
X006516Y002812D02*
X006480Y002812D01*
X006513Y002733D02*
X006516Y002733D01*
X006516Y003126D02*
X002531Y003126D01*
X002227Y003675D02*
X007007Y003675D01*
X007085Y003754D02*
X002431Y003754D01*
X002530Y003832D02*
X007164Y003832D01*
X007242Y003911D02*
X002600Y003911D01*
X002650Y003989D02*
X007321Y003989D01*
X007399Y004068D02*
X002685Y004068D01*
X002708Y004146D02*
X007478Y004146D01*
X007556Y004225D02*
X002720Y004225D01*
X002149Y004146D02*
X002069Y004146D01*
X002069Y004068D02*
X002149Y004068D01*
X002149Y003989D02*
X002069Y003989D01*
X002069Y003911D02*
X002149Y003911D01*
X002149Y003832D02*
X002069Y003832D01*
X002069Y003754D02*
X002149Y003754D01*
X002149Y003675D02*
X002069Y003675D01*
X001990Y003675D02*
X000580Y003675D01*
X000580Y003597D02*
X006928Y003597D01*
X006850Y003518D02*
X000580Y003518D01*
X000580Y003440D02*
X006771Y003440D01*
X006693Y003361D02*
X000580Y003361D01*
X000580Y003283D02*
X006614Y003283D01*
X006536Y003204D02*
X000580Y003204D01*
X002466Y004774D02*
X015022Y004774D01*
X015022Y004696D02*
X002556Y004696D01*
X000580Y005010D02*
X015022Y005010D01*
X015022Y005088D02*
X000580Y005088D01*
X000580Y005167D02*
X015022Y005167D01*
X015022Y005245D02*
X000580Y005245D01*
X000580Y005324D02*
X015022Y005324D01*
X015022Y005402D02*
X000580Y005402D01*
X000580Y005481D02*
X015022Y005481D01*
X015022Y005559D02*
X000580Y005559D01*
X000580Y005638D02*
X015022Y005638D01*
X015022Y005716D02*
X000580Y005716D01*
X000580Y005795D02*
X015022Y005795D01*
X015022Y005873D02*
X000580Y005873D01*
X000580Y005952D02*
X015022Y005952D01*
X015022Y006030D02*
X000580Y006030D01*
X000580Y006109D02*
X015022Y006109D01*
X015022Y006187D02*
X000580Y006187D01*
X000580Y006266D02*
X015022Y006266D01*
X015022Y006344D02*
X002824Y006344D01*
X002931Y006451D01*
X002989Y006591D01*
X002989Y006742D01*
X002931Y006881D01*
X002824Y006988D01*
X002684Y007046D01*
X002533Y007046D01*
X002393Y006988D01*
X002286Y006881D01*
X002229Y006742D01*
X002229Y006591D01*
X002286Y006451D01*
X002393Y006344D01*
X001824Y006344D01*
X001931Y006451D01*
X001989Y006591D01*
X001989Y006742D01*
X001931Y006881D01*
X001824Y006988D01*
X001684Y007046D01*
X001533Y007046D01*
X001393Y006988D01*
X001286Y006881D01*
X001229Y006742D01*
X001229Y006591D01*
X001286Y006451D01*
X001393Y006344D01*
X000580Y006344D01*
X000580Y006423D02*
X001315Y006423D01*
X001266Y006501D02*
X000580Y006501D01*
X000580Y006580D02*
X001233Y006580D01*
X001229Y006658D02*
X000580Y006658D01*
X000580Y006737D02*
X001229Y006737D01*
X001259Y006815D02*
X000580Y006815D01*
X000580Y006894D02*
X001299Y006894D01*
X001377Y006972D02*
X000580Y006972D01*
X000580Y007051D02*
X015022Y007051D01*
X015022Y007129D02*
X000580Y007129D01*
X000580Y007208D02*
X015022Y007208D01*
X015022Y007286D02*
X000580Y007286D01*
X000580Y007365D02*
X001373Y007365D01*
X001393Y007344D02*
X001533Y007286D01*
X001684Y007286D01*
X001824Y007344D01*
X001931Y007451D01*
X001989Y007591D01*
X001989Y007742D01*
X001931Y007881D01*
X001824Y007988D01*
X001684Y008046D01*
X001533Y008046D01*
X001393Y007988D01*
X001286Y007881D01*
X001229Y007742D01*
X001229Y007591D01*
X001286Y007451D01*
X001393Y007344D01*
X001294Y007443D02*
X000580Y007443D01*
X000580Y007522D02*
X001257Y007522D01*
X001229Y007600D02*
X000580Y007600D01*
X000580Y007679D02*
X001229Y007679D01*
X001235Y007757D02*
X000580Y007757D01*
X000580Y007836D02*
X001267Y007836D01*
X001319Y007914D02*
X000580Y007914D01*
X000580Y007993D02*
X001404Y007993D01*
X001533Y008286D02*
X001393Y008344D01*
X001286Y008451D01*
X001229Y008591D01*
X001229Y008742D01*
X001286Y008881D01*
X001393Y008988D01*
X001533Y009046D01*
X001684Y009046D01*
X001824Y008988D01*
X001931Y008881D01*
X001989Y008742D01*
X001989Y008591D01*
X001931Y008451D01*
X001824Y008344D01*
X001684Y008286D01*
X001533Y008286D01*
X001484Y008307D02*
X000580Y008307D01*
X000580Y008385D02*
X001352Y008385D01*
X001281Y008464D02*
X000580Y008464D01*
X000580Y008542D02*
X001249Y008542D01*
X001229Y008621D02*
X000580Y008621D01*
X000580Y008699D02*
X001229Y008699D01*
X001243Y008778D02*
X000580Y008778D01*
X000580Y008856D02*
X001276Y008856D01*
X001340Y008935D02*
X000580Y008935D01*
X000580Y009013D02*
X001453Y009013D01*
X001533Y009286D02*
X001393Y009344D01*
X001286Y009451D01*
X001229Y009591D01*
X001229Y009742D01*
X001286Y009881D01*
X001393Y009988D01*
X001533Y010046D01*
X001684Y010046D01*
X001824Y009988D01*
X001931Y009881D01*
X001989Y009742D01*
X001989Y009591D01*
X001931Y009451D01*
X001824Y009344D01*
X001684Y009286D01*
X001533Y009286D01*
X001434Y009327D02*
X000580Y009327D01*
X000580Y009249D02*
X014184Y009249D01*
X014105Y009327D02*
X002783Y009327D01*
X002824Y009344D02*
X002931Y009451D01*
X002989Y009591D01*
X002989Y009742D01*
X002931Y009881D01*
X002824Y009988D01*
X002684Y010046D01*
X002533Y010046D01*
X002393Y009988D01*
X002286Y009881D01*
X002229Y009742D01*
X002229Y009591D01*
X002286Y009451D01*
X002393Y009344D01*
X002533Y009286D01*
X002684Y009286D01*
X002824Y009344D01*
X002885Y009406D02*
X014027Y009406D01*
X013948Y009484D02*
X002944Y009484D01*
X002977Y009563D02*
X013870Y009563D01*
X013791Y009641D02*
X002989Y009641D01*
X002989Y009720D02*
X013713Y009720D01*
X013634Y009798D02*
X002965Y009798D01*
X002933Y009877D02*
X013556Y009877D01*
X013477Y009955D02*
X002857Y009955D01*
X002714Y010034D02*
X013399Y010034D01*
X013320Y010112D02*
X000580Y010112D01*
X000580Y010034D02*
X001503Y010034D01*
X001360Y009955D02*
X000580Y009955D01*
X000580Y009877D02*
X001284Y009877D01*
X001252Y009798D02*
X000580Y009798D01*
X000580Y009720D02*
X001229Y009720D01*
X001229Y009641D02*
X000580Y009641D01*
X000580Y009563D02*
X001240Y009563D01*
X001273Y009484D02*
X000580Y009484D01*
X000580Y009406D02*
X001332Y009406D01*
X001783Y009327D02*
X002434Y009327D01*
X002332Y009406D02*
X001885Y009406D01*
X001944Y009484D02*
X002273Y009484D01*
X002240Y009563D02*
X001977Y009563D01*
X001989Y009641D02*
X002229Y009641D01*
X002229Y009720D02*
X001989Y009720D01*
X001965Y009798D02*
X002252Y009798D01*
X002284Y009877D02*
X001933Y009877D01*
X001857Y009955D02*
X002360Y009955D01*
X002503Y010034D02*
X001714Y010034D01*
X001684Y010286D02*
X001824Y010344D01*
X001931Y010451D01*
X001989Y010591D01*
X001989Y010742D01*
X001931Y010881D01*
X001824Y010988D01*
X001684Y011046D01*
X001533Y011046D01*
X001393Y010988D01*
X001286Y010881D01*
X001229Y010742D01*
X001229Y010591D01*
X001286Y010451D01*
X001393Y010344D01*
X001533Y010286D01*
X001684Y010286D01*
X001827Y010348D02*
X002390Y010348D01*
X002393Y010344D02*
X002533Y010286D01*
X002684Y010286D01*
X002824Y010344D01*
X002931Y010451D01*
X002989Y010591D01*
X002989Y010742D01*
X002931Y010881D01*
X002824Y010988D01*
X002684Y011046D01*
X002533Y011046D01*
X002393Y010988D01*
X002286Y010881D01*
X002229Y010742D01*
X002229Y010591D01*
X002286Y010451D01*
X002393Y010344D01*
X002311Y010426D02*
X001906Y010426D01*
X001953Y010505D02*
X002264Y010505D01*
X002232Y010583D02*
X001985Y010583D01*
X001989Y010662D02*
X002229Y010662D01*
X002229Y010740D02*
X001989Y010740D01*
X001957Y010819D02*
X002260Y010819D01*
X002302Y010897D02*
X001915Y010897D01*
X001836Y010976D02*
X002381Y010976D01*
X002525Y011290D02*
X001692Y011290D01*
X001684Y011286D02*
X001824Y011344D01*
X001931Y011451D01*
X001989Y011591D01*
X001989Y011742D01*
X001931Y011881D01*
X001824Y011988D01*
X001684Y012046D01*
X001533Y012046D01*
X001393Y011988D01*
X001286Y011881D01*
X001229Y011742D01*
X001229Y011591D01*
X001286Y011451D01*
X001393Y011344D01*
X001533Y011286D01*
X001684Y011286D01*
X001525Y011290D02*
X000580Y011290D01*
X000580Y011368D02*
X001369Y011368D01*
X001291Y011447D02*
X000580Y011447D01*
X000580Y011525D02*
X001256Y011525D01*
X001229Y011604D02*
X000580Y011604D01*
X000580Y011682D02*
X001229Y011682D01*
X001236Y011761D02*
X000580Y011761D01*
X000580Y011839D02*
X001269Y011839D01*
X001323Y011918D02*
X000580Y011918D01*
X000580Y011996D02*
X001412Y011996D01*
X001533Y012286D02*
X001393Y012344D01*
X001286Y012451D01*
X001229Y012591D01*
X001229Y012742D01*
X001286Y012881D01*
X001393Y012988D01*
X001533Y013046D01*
X001684Y013046D01*
X001824Y012988D01*
X001931Y012881D01*
X001989Y012742D01*
X001989Y012591D01*
X001931Y012451D01*
X001824Y012344D01*
X001684Y012286D01*
X001533Y012286D01*
X001475Y012310D02*
X000580Y012310D01*
X000580Y012232D02*
X013132Y012232D01*
X013132Y012310D02*
X002742Y012310D01*
X002684Y012286D02*
X002824Y012344D01*
X002931Y012451D01*
X002989Y012591D01*
X002989Y012742D01*
X002931Y012881D01*
X002824Y012988D01*
X002684Y013046D01*
X002533Y013046D01*
X002393Y012988D01*
X002286Y012881D01*
X002229Y012742D01*
X002229Y012591D01*
X002286Y012451D01*
X002393Y012344D01*
X002533Y012286D01*
X002684Y012286D01*
X002475Y012310D02*
X001742Y012310D01*
X001868Y012389D02*
X002349Y012389D01*
X002280Y012467D02*
X001937Y012467D01*
X001970Y012546D02*
X002247Y012546D01*
X002229Y012624D02*
X001989Y012624D01*
X001989Y012703D02*
X002229Y012703D01*
X002245Y012781D02*
X001972Y012781D01*
X001940Y012860D02*
X002277Y012860D01*
X002343Y012938D02*
X001874Y012938D01*
X001756Y013017D02*
X002462Y013017D01*
X002533Y013286D02*
X002393Y013344D01*
X002286Y013451D01*
X002229Y013591D01*
X002229Y013742D01*
X002286Y013881D01*
X002393Y013988D01*
X002533Y014046D01*
X002684Y014046D01*
X002824Y013988D01*
X002931Y013881D01*
X002989Y013742D01*
X002989Y013591D01*
X002931Y013451D01*
X002824Y013344D01*
X002684Y013286D01*
X002533Y013286D01*
X002426Y013331D02*
X001791Y013331D01*
X001824Y013344D02*
X001931Y013451D01*
X001989Y013591D01*
X001989Y013742D01*
X001931Y013881D01*
X001824Y013988D01*
X001684Y014046D01*
X001533Y014046D01*
X001393Y013988D01*
X001286Y013881D01*
X001229Y013742D01*
X001229Y013591D01*
X001286Y013451D01*
X001393Y013344D01*
X001533Y013286D01*
X001684Y013286D01*
X001824Y013344D01*
X001889Y013409D02*
X002328Y013409D01*
X002271Y013488D02*
X001946Y013488D01*
X001978Y013566D02*
X002239Y013566D01*
X002229Y013645D02*
X001989Y013645D01*
X001989Y013723D02*
X002229Y013723D01*
X002253Y013802D02*
X001964Y013802D01*
X001931Y013880D02*
X002286Y013880D01*
X002364Y013959D02*
X001853Y013959D01*
X001706Y014037D02*
X002511Y014037D01*
X002706Y014037D02*
X013132Y014037D01*
X013132Y013959D02*
X002853Y013959D01*
X002931Y013880D02*
X013132Y013880D01*
X013132Y013802D02*
X002964Y013802D01*
X002989Y013723D02*
X013132Y013723D01*
X013132Y013645D02*
X002989Y013645D01*
X002978Y013566D02*
X013132Y013566D01*
X013132Y013488D02*
X002946Y013488D01*
X002889Y013409D02*
X013132Y013409D01*
X013132Y013331D02*
X002791Y013331D01*
X002756Y013017D02*
X013132Y013017D01*
X013132Y013095D02*
X000580Y013095D01*
X000580Y013017D02*
X001462Y013017D01*
X001343Y012938D02*
X000580Y012938D01*
X000580Y012860D02*
X001277Y012860D01*
X001245Y012781D02*
X000580Y012781D01*
X000580Y012703D02*
X001229Y012703D01*
X001229Y012624D02*
X000580Y012624D01*
X000580Y012546D02*
X001247Y012546D01*
X001280Y012467D02*
X000580Y012467D01*
X000580Y012389D02*
X001349Y012389D01*
X001805Y011996D02*
X002412Y011996D01*
X002393Y011988D02*
X002286Y011881D01*
X002229Y011742D01*
X002229Y011591D01*
X002286Y011451D01*
X002393Y011344D01*
X002533Y011286D01*
X002684Y011286D01*
X002824Y011344D01*
X002931Y011451D01*
X002989Y011591D01*
X002989Y011742D01*
X002931Y011881D01*
X002824Y011988D01*
X002684Y012046D01*
X002533Y012046D01*
X002393Y011988D01*
X002323Y011918D02*
X001894Y011918D01*
X001948Y011839D02*
X002269Y011839D01*
X002236Y011761D02*
X001981Y011761D01*
X001989Y011682D02*
X002229Y011682D01*
X002229Y011604D02*
X001989Y011604D01*
X001961Y011525D02*
X002256Y011525D01*
X002291Y011447D02*
X001926Y011447D01*
X001848Y011368D02*
X002369Y011368D01*
X002692Y011290D02*
X013132Y011290D01*
X013132Y011368D02*
X002848Y011368D01*
X002926Y011447D02*
X013132Y011447D01*
X013132Y011525D02*
X002961Y011525D01*
X002989Y011604D02*
X013132Y011604D01*
X013132Y011682D02*
X002989Y011682D01*
X002981Y011761D02*
X013132Y011761D01*
X013132Y011839D02*
X002948Y011839D01*
X002894Y011918D02*
X013132Y011918D01*
X013132Y011996D02*
X002805Y011996D01*
X002868Y012389D02*
X013132Y012389D01*
X013132Y012467D02*
X002937Y012467D01*
X002970Y012546D02*
X013132Y012546D01*
X013132Y012624D02*
X002989Y012624D01*
X002989Y012703D02*
X013132Y012703D01*
X013132Y012781D02*
X002972Y012781D01*
X002940Y012860D02*
X013132Y012860D01*
X013132Y012938D02*
X002874Y012938D01*
X001426Y013331D02*
X000580Y013331D01*
X000580Y013409D02*
X001328Y013409D01*
X001271Y013488D02*
X000580Y013488D01*
X000580Y013566D02*
X001239Y013566D01*
X001229Y013645D02*
X000580Y013645D01*
X000580Y013723D02*
X001229Y013723D01*
X001253Y013802D02*
X000580Y013802D01*
X000580Y013880D02*
X001286Y013880D01*
X001364Y013959D02*
X000580Y013959D01*
X000580Y014037D02*
X001511Y014037D01*
X001533Y014286D02*
X001684Y014286D01*
X001824Y014344D01*
X001931Y014451D01*
X001989Y014591D01*
X001989Y014742D01*
X001931Y014881D01*
X001824Y014988D01*
X001684Y015046D01*
X001533Y015046D01*
X001393Y014988D01*
X001286Y014881D01*
X001229Y014742D01*
X001229Y014591D01*
X001286Y014451D01*
X001393Y014344D01*
X001533Y014286D01*
X001386Y014351D02*
X000580Y014351D01*
X000580Y014273D02*
X013132Y014273D01*
X013132Y014351D02*
X002831Y014351D01*
X002824Y014344D02*
X002931Y014451D01*
X002989Y014591D01*
X002989Y014742D01*
X002931Y014881D01*
X002824Y014988D01*
X002684Y015046D01*
X002533Y015046D01*
X002393Y014988D01*
X002286Y014881D01*
X002229Y014742D01*
X002229Y014591D01*
X002286Y014451D01*
X002393Y014344D01*
X002533Y014286D01*
X002684Y014286D01*
X002824Y014344D01*
X002909Y014430D02*
X013132Y014430D01*
X013132Y014508D02*
X002954Y014508D01*
X002987Y014587D02*
X013132Y014587D01*
X013132Y014665D02*
X002989Y014665D01*
X002988Y014744D02*
X013098Y014744D01*
X013020Y014822D02*
X002955Y014822D01*
X002911Y014901D02*
X012941Y014901D01*
X012863Y014979D02*
X002833Y014979D01*
X002701Y015293D02*
X012549Y015293D01*
X012627Y015215D02*
X000580Y015215D01*
X000580Y015293D02*
X001516Y015293D01*
X001533Y015286D02*
X001684Y015286D01*
X001824Y015344D01*
X001931Y015451D01*
X001989Y015591D01*
X001989Y015742D01*
X001931Y015881D01*
X001824Y015988D01*
X001684Y016046D01*
X001533Y016046D01*
X001393Y015988D01*
X001286Y015881D01*
X001229Y015742D01*
X001229Y015591D01*
X001286Y015451D01*
X001393Y015344D01*
X001533Y015286D01*
X001701Y015293D02*
X002516Y015293D01*
X002533Y015286D02*
X002684Y015286D01*
X002824Y015344D01*
X002931Y015451D01*
X002989Y015591D01*
X002989Y015742D01*
X002931Y015881D01*
X002824Y015988D01*
X002684Y016046D01*
X002533Y016046D01*
X002393Y015988D01*
X002286Y015881D01*
X002229Y015742D01*
X002229Y015591D01*
X002286Y015451D01*
X002393Y015344D01*
X002533Y015286D01*
X002366Y015372D02*
X001851Y015372D01*
X001930Y015450D02*
X002287Y015450D01*
X002254Y015529D02*
X001963Y015529D01*
X001989Y015607D02*
X002229Y015607D01*
X002229Y015686D02*
X001989Y015686D01*
X001979Y015764D02*
X002238Y015764D01*
X002270Y015843D02*
X001947Y015843D01*
X001891Y015921D02*
X002326Y015921D01*
X002420Y016000D02*
X001797Y016000D01*
X001420Y016000D02*
X000580Y016000D01*
X000580Y016078D02*
X011764Y016078D01*
X011842Y016000D02*
X002797Y016000D01*
X002891Y015921D02*
X011921Y015921D01*
X011999Y015843D02*
X002947Y015843D01*
X002979Y015764D02*
X012078Y015764D01*
X012156Y015686D02*
X002989Y015686D01*
X002989Y015607D02*
X012235Y015607D01*
X012313Y015529D02*
X002963Y015529D01*
X002930Y015450D02*
X012392Y015450D01*
X012470Y015372D02*
X002851Y015372D01*
X002384Y014979D02*
X001833Y014979D01*
X001911Y014901D02*
X002306Y014901D01*
X002262Y014822D02*
X001955Y014822D01*
X001988Y014744D02*
X002229Y014744D01*
X002229Y014665D02*
X001989Y014665D01*
X001987Y014587D02*
X002230Y014587D01*
X002263Y014508D02*
X001954Y014508D01*
X001909Y014430D02*
X002308Y014430D01*
X002386Y014351D02*
X001831Y014351D01*
X001308Y014430D02*
X000580Y014430D01*
X000580Y014508D02*
X001263Y014508D01*
X001230Y014587D02*
X000580Y014587D01*
X000580Y014665D02*
X001229Y014665D01*
X001229Y014744D02*
X000580Y014744D01*
X000580Y014822D02*
X001262Y014822D01*
X001306Y014901D02*
X000580Y014901D01*
X000580Y014979D02*
X001384Y014979D01*
X001366Y015372D02*
X000580Y015372D01*
X000580Y015450D02*
X001287Y015450D01*
X001254Y015529D02*
X000580Y015529D01*
X000580Y015607D02*
X001229Y015607D01*
X001229Y015686D02*
X000580Y015686D01*
X000580Y015764D02*
X001238Y015764D01*
X001270Y015843D02*
X000580Y015843D01*
X000580Y015921D02*
X001326Y015921D01*
X000580Y016157D02*
X011685Y016157D01*
X011607Y016235D02*
X000580Y016235D01*
X000580Y016314D02*
X011528Y016314D01*
X011450Y016392D02*
X000580Y016392D01*
X000580Y016471D02*
X011371Y016471D01*
X011293Y016549D02*
X000580Y016549D01*
X000580Y016628D02*
X011214Y016628D01*
X011136Y016706D02*
X000580Y016706D01*
X000580Y016785D02*
X001909Y016785D01*
X001965Y016769D02*
X002252Y016769D01*
X002529Y016844D01*
X002778Y016987D01*
X002980Y017190D01*
X003124Y017438D01*
X003198Y017716D01*
X003198Y018003D01*
X003124Y018280D01*
X002980Y018528D01*
X002778Y018731D01*
X002529Y018874D01*
X002252Y018949D01*
X001965Y018949D01*
X001688Y018874D01*
X001439Y018731D01*
X001237Y018528D01*
X001093Y018280D01*
X001019Y018003D01*
X001019Y017716D01*
X001093Y017438D01*
X001237Y017190D01*
X001439Y016987D01*
X001688Y016844D01*
X001965Y016769D01*
X001654Y016863D02*
X000580Y016863D01*
X000580Y016942D02*
X001518Y016942D01*
X001407Y017020D02*
X000580Y017020D01*
X000580Y017099D02*
X001328Y017099D01*
X001250Y017177D02*
X000580Y017177D01*
X000580Y017256D02*
X001199Y017256D01*
X001153Y017334D02*
X000580Y017334D01*
X000580Y017413D02*
X001108Y017413D01*
X001079Y017491D02*
X000580Y017491D01*
X000580Y017570D02*
X001058Y017570D01*
X001037Y017648D02*
X000580Y017648D01*
X000580Y017727D02*
X001019Y017727D01*
X001019Y017805D02*
X000580Y017805D01*
X000580Y017884D02*
X001019Y017884D01*
X001019Y017962D02*
X000580Y017962D01*
X000580Y018041D02*
X001029Y018041D01*
X001050Y018119D02*
X000580Y018119D01*
X000580Y018198D02*
X001071Y018198D01*
X001092Y018276D02*
X000580Y018276D01*
X000580Y018355D02*
X001136Y018355D01*
X001182Y018433D02*
X000580Y018433D01*
X000580Y018512D02*
X001227Y018512D01*
X001299Y018590D02*
X000580Y018590D01*
X000580Y018669D02*
X001377Y018669D01*
X001467Y018747D02*
X000580Y018747D01*
X000580Y018826D02*
X001603Y018826D01*
X001799Y018904D02*
X000580Y018904D01*
X000580Y018983D02*
X009904Y018983D01*
X009904Y019061D02*
X000580Y019061D01*
X000580Y019140D02*
X009904Y019140D01*
X009904Y019218D02*
X000580Y019218D01*
X000580Y019297D02*
X009904Y019297D01*
X009904Y019375D02*
X000580Y019375D01*
X000580Y019454D02*
X009904Y019454D01*
X009904Y019532D02*
X000580Y019532D01*
X000580Y019611D02*
X009904Y019611D01*
X009904Y019689D02*
X000580Y019689D01*
X000580Y019768D02*
X009904Y019768D01*
X009904Y019846D02*
X000580Y019846D01*
X000580Y019925D02*
X009904Y019925D01*
X009904Y020003D02*
X002161Y020003D01*
X002157Y020002D02*
X002252Y020018D01*
X002344Y020047D01*
X002430Y020091D01*
X002508Y020148D01*
X002576Y020216D01*
X002632Y020294D01*
X002676Y020380D01*
X002706Y020472D01*
X002721Y020567D01*
X002721Y020575D01*
X002149Y020575D01*
X002149Y020655D01*
X002721Y020655D01*
X002721Y020663D01*
X002706Y020758D01*
X002676Y020850D01*
X002632Y020936D01*
X002576Y021014D01*
X002508Y021082D01*
X002430Y021139D01*
X002344Y021183D01*
X002252Y021212D01*
X002157Y021227D01*
X002149Y021227D01*
X002149Y020655D01*
X002069Y020655D01*
X002069Y021227D01*
X002060Y021227D01*
X001965Y021212D01*
X001873Y021183D01*
X001787Y021139D01*
X001709Y021082D01*
X001641Y021014D01*
X001585Y020936D01*
X001541Y020850D01*
X001511Y020758D01*
X001496Y020663D01*
X001496Y020655D01*
X002068Y020655D01*
X002068Y020575D01*
X001496Y020575D01*
X001496Y020567D01*
X001511Y020472D01*
X001541Y020380D01*
X001585Y020294D01*
X001641Y020216D01*
X001709Y020148D01*
X001787Y020091D01*
X001873Y020047D01*
X001965Y020018D01*
X002060Y020002D01*
X002069Y020002D01*
X002069Y020575D01*
X002149Y020575D01*
X002149Y020002D01*
X002157Y020002D01*
X002149Y020003D02*
X002069Y020003D01*
X002056Y020003D02*
X000580Y020003D01*
X000580Y020082D02*
X001806Y020082D01*
X001697Y020160D02*
X000580Y020160D01*
X000580Y020239D02*
X001625Y020239D01*
X001573Y020317D02*
X000580Y020317D01*
X000580Y020396D02*
X001536Y020396D01*
X001511Y020474D02*
X000580Y020474D01*
X000580Y020553D02*
X001498Y020553D01*
X001503Y020710D02*
X000580Y020710D01*
X000580Y020788D02*
X001521Y020788D01*
X001549Y020867D02*
X000580Y020867D01*
X000580Y020945D02*
X001591Y020945D01*
X001651Y021024D02*
X000580Y021024D01*
X000580Y021102D02*
X001737Y021102D01*
X001869Y021181D02*
X000580Y021181D01*
X000580Y021259D02*
X009904Y021259D01*
X009904Y021181D02*
X002348Y021181D01*
X002480Y021102D02*
X003809Y021102D01*
X003764Y021083D02*
X003609Y020928D01*
X003525Y020725D01*
X003525Y020505D01*
X003609Y020302D01*
X003764Y020147D01*
X003967Y020062D01*
X004187Y020062D01*
X004390Y020147D01*
X004545Y020302D01*
X004630Y020505D01*
X004630Y020725D01*
X004545Y020928D01*
X004390Y021083D01*
X004187Y021167D01*
X003967Y021167D01*
X003764Y021083D01*
X003704Y021024D02*
X002566Y021024D01*
X002626Y020945D02*
X003626Y020945D01*
X003583Y020867D02*
X002668Y020867D01*
X002696Y020788D02*
X003551Y020788D01*
X003525Y020710D02*
X002714Y020710D01*
X002719Y020553D02*
X003525Y020553D01*
X003525Y020631D02*
X002149Y020631D01*
X002149Y020553D02*
X002069Y020553D01*
X002068Y020631D02*
X000580Y020631D01*
X000580Y021338D02*
X009904Y021338D01*
X009904Y021416D02*
X000580Y021416D01*
X000580Y021495D02*
X009904Y021495D01*
X009904Y021573D02*
X000580Y021573D01*
X000580Y021652D02*
X009904Y021652D01*
X009904Y021730D02*
X000580Y021730D01*
X002069Y021181D02*
X002149Y021181D01*
X002149Y021102D02*
X002069Y021102D01*
X002069Y021024D02*
X002149Y021024D01*
X002149Y020945D02*
X002069Y020945D01*
X002069Y020867D02*
X002149Y020867D01*
X002149Y020788D02*
X002069Y020788D01*
X002069Y020710D02*
X002149Y020710D01*
X002149Y020474D02*
X002069Y020474D01*
X002069Y020396D02*
X002149Y020396D01*
X002149Y020317D02*
X002069Y020317D01*
X002069Y020239D02*
X002149Y020239D01*
X002149Y020160D02*
X002069Y020160D01*
X002069Y020082D02*
X002149Y020082D01*
X002411Y020082D02*
X003921Y020082D01*
X003751Y020160D02*
X002520Y020160D01*
X002592Y020239D02*
X003672Y020239D01*
X003602Y020317D02*
X002644Y020317D01*
X002681Y020396D02*
X003570Y020396D01*
X003537Y020474D02*
X002706Y020474D01*
X004233Y020082D02*
X005968Y020082D01*
X006014Y020062D02*
X006234Y020062D01*
X006437Y020147D01*
X006593Y020302D01*
X006677Y020505D01*
X006677Y020725D01*
X006593Y020928D01*
X006437Y021083D01*
X006234Y021167D01*
X006014Y021167D01*
X005811Y021083D01*
X005656Y020928D01*
X005572Y020725D01*
X005572Y020505D01*
X005656Y020302D01*
X005811Y020147D01*
X006014Y020062D01*
X005798Y020160D02*
X004403Y020160D01*
X004482Y020239D02*
X005719Y020239D01*
X005650Y020317D02*
X004552Y020317D01*
X004584Y020396D02*
X005617Y020396D01*
X005585Y020474D02*
X004617Y020474D01*
X004630Y020553D02*
X005572Y020553D01*
X005572Y020631D02*
X004630Y020631D01*
X004630Y020710D02*
X005572Y020710D01*
X005598Y020788D02*
X004603Y020788D01*
X004571Y020867D02*
X005630Y020867D01*
X005673Y020945D02*
X004528Y020945D01*
X004450Y021024D02*
X005752Y021024D01*
X005857Y021102D02*
X004345Y021102D01*
X006392Y021102D02*
X007904Y021102D01*
X007859Y021083D02*
X007703Y020928D01*
X007619Y020725D01*
X007619Y020505D01*
X007703Y020302D01*
X007859Y020147D01*
X008062Y020062D01*
X008281Y020062D01*
X008484Y020147D01*
X008640Y020302D01*
X008724Y020505D01*
X008724Y020725D01*
X008640Y020928D01*
X008484Y021083D01*
X008281Y021167D01*
X008062Y021167D01*
X007859Y021083D01*
X007799Y021024D02*
X006497Y021024D01*
X006575Y020945D02*
X007720Y020945D01*
X007678Y020867D02*
X006618Y020867D01*
X006651Y020788D02*
X007645Y020788D01*
X007619Y020710D02*
X006677Y020710D01*
X006677Y020631D02*
X007619Y020631D01*
X007619Y020553D02*
X006677Y020553D01*
X006664Y020474D02*
X007632Y020474D01*
X007664Y020396D02*
X006631Y020396D01*
X006599Y020317D02*
X007697Y020317D01*
X007767Y020239D02*
X006529Y020239D01*
X006451Y020160D02*
X007845Y020160D01*
X008015Y020082D02*
X006280Y020082D01*
X008328Y020082D02*
X009904Y020082D01*
X009904Y020160D02*
X008498Y020160D01*
X008576Y020239D02*
X009904Y020239D01*
X009904Y020317D02*
X008646Y020317D01*
X008679Y020396D02*
X009904Y020396D01*
X009904Y020474D02*
X008711Y020474D01*
X008724Y020553D02*
X009904Y020553D01*
X009904Y020631D02*
X008724Y020631D01*
X008724Y020710D02*
X009904Y020710D01*
X009904Y020788D02*
X008698Y020788D01*
X008665Y020867D02*
X009904Y020867D01*
X009904Y020945D02*
X008623Y020945D01*
X008544Y021024D02*
X009904Y021024D01*
X009904Y021102D02*
X008439Y021102D01*
X010061Y021102D02*
X011290Y021102D01*
X011244Y021083D02*
X011089Y020928D01*
X011005Y020725D01*
X011005Y020505D01*
X011089Y020302D01*
X011244Y020147D01*
X011447Y020062D01*
X011667Y020062D01*
X011870Y020147D01*
X012026Y020302D01*
X012110Y020505D01*
X012110Y020725D01*
X012026Y020928D01*
X011870Y021083D01*
X011667Y021167D01*
X011447Y021167D01*
X011244Y021083D01*
X011185Y021024D02*
X010061Y021024D01*
X010061Y020945D02*
X011106Y020945D01*
X011064Y020867D02*
X010061Y020867D01*
X010061Y020788D02*
X011031Y020788D01*
X011005Y020710D02*
X010061Y020710D01*
X010061Y020631D02*
X011005Y020631D01*
X011005Y020553D02*
X010061Y020553D01*
X010061Y020474D02*
X011018Y020474D01*
X011050Y020396D02*
X010061Y020396D01*
X010061Y020317D02*
X011083Y020317D01*
X011152Y020239D02*
X010061Y020239D01*
X010061Y020160D02*
X011231Y020160D01*
X011401Y020082D02*
X010061Y020082D01*
X010061Y020003D02*
X015617Y020003D01*
X015657Y020043D02*
X015550Y019937D01*
X015492Y019797D01*
X015492Y019646D01*
X015550Y019506D01*
X015657Y019399D01*
X015797Y019341D01*
X015948Y019341D01*
X016088Y019399D01*
X016194Y019506D01*
X016252Y019646D01*
X016252Y019797D01*
X016194Y019937D01*
X016088Y020043D01*
X015948Y020101D01*
X015797Y020101D01*
X015657Y020043D01*
X015749Y020082D02*
X013761Y020082D01*
X013714Y020062D02*
X013918Y020147D01*
X014073Y020302D01*
X014157Y020505D01*
X014157Y020725D01*
X014073Y020928D01*
X013918Y021083D01*
X013714Y021167D01*
X013495Y021167D01*
X013292Y021083D01*
X013136Y020928D01*
X013052Y020725D01*
X013052Y020505D01*
X013136Y020302D01*
X013292Y020147D01*
X013495Y020062D01*
X013714Y020062D01*
X013931Y020160D02*
X033193Y020160D01*
X033206Y020148D02*
X033284Y020091D01*
X033369Y020047D01*
X033461Y020018D01*
X033556Y020002D01*
X033565Y020002D01*
X033565Y020575D01*
X033645Y020575D01*
X033645Y020655D01*
X034217Y020655D01*
X034217Y020663D01*
X034202Y020758D01*
X034172Y020850D01*
X034128Y020936D01*
X034072Y021014D01*
X034004Y021082D01*
X033926Y021139D01*
X033840Y021183D01*
X033748Y021212D01*
X033653Y021227D01*
X033645Y021227D01*
X033645Y020655D01*
X033565Y020655D01*
X033565Y021227D01*
X033556Y021227D01*
X033461Y021212D01*
X033369Y021183D01*
X033284Y021139D01*
X033206Y021082D01*
X033137Y021014D01*
X033081Y020936D01*
X033037Y020850D01*
X033007Y020758D01*
X032992Y020663D01*
X032992Y020655D01*
X033565Y020655D01*
X033565Y020575D01*
X032992Y020575D01*
X032992Y020567D01*
X033007Y020472D01*
X033037Y020380D01*
X033081Y020294D01*
X033137Y020216D01*
X033206Y020148D01*
X033302Y020082D02*
X032169Y020082D01*
X032121Y020101D02*
X032261Y020043D01*
X032368Y019937D01*
X032426Y019797D01*
X032426Y019646D01*
X032368Y019506D01*
X032261Y019399D01*
X032121Y019341D01*
X031970Y019341D01*
X031830Y019399D01*
X031723Y019506D01*
X031666Y019646D01*
X031666Y019797D01*
X031723Y019937D01*
X031830Y020043D01*
X031970Y020101D01*
X032121Y020101D01*
X031922Y020082D02*
X031169Y020082D01*
X031121Y020101D02*
X031261Y020043D01*
X031368Y019937D01*
X031426Y019797D01*
X031426Y019646D01*
X031368Y019506D01*
X031261Y019399D01*
X031121Y019341D01*
X030970Y019341D01*
X030830Y019399D01*
X030723Y019506D01*
X030666Y019646D01*
X030666Y019797D01*
X030723Y019937D01*
X030830Y020043D01*
X030970Y020101D01*
X031121Y020101D01*
X030922Y020082D02*
X030169Y020082D01*
X030121Y020101D02*
X030261Y020043D01*
X030368Y019937D01*
X030426Y019797D01*
X030426Y019646D01*
X030368Y019506D01*
X030261Y019399D01*
X030121Y019341D01*
X029970Y019341D01*
X029830Y019399D01*
X029723Y019506D01*
X029666Y019646D01*
X029666Y019797D01*
X029723Y019937D01*
X029830Y020043D01*
X029970Y020101D01*
X030121Y020101D01*
X029922Y020082D02*
X028625Y020082D01*
X028578Y020101D02*
X028717Y020043D01*
X028824Y019937D01*
X028882Y019797D01*
X028882Y019646D01*
X028824Y019506D01*
X028717Y019399D01*
X028578Y019341D01*
X028427Y019341D01*
X028287Y019399D01*
X028180Y019506D01*
X028122Y019646D01*
X028122Y019797D01*
X028180Y019937D01*
X028287Y020043D01*
X028427Y020101D01*
X028578Y020101D01*
X028379Y020082D02*
X027625Y020082D01*
X027578Y020101D02*
X027717Y020043D01*
X027824Y019937D01*
X027882Y019797D01*
X027882Y019646D01*
X027824Y019506D01*
X027717Y019399D01*
X027578Y019341D01*
X027427Y019341D01*
X027287Y019399D01*
X027180Y019506D01*
X027122Y019646D01*
X027122Y019797D01*
X027180Y019937D01*
X027287Y020043D01*
X027427Y020101D01*
X027578Y020101D01*
X027379Y020082D02*
X026625Y020082D01*
X026578Y020101D02*
X026717Y020043D01*
X026824Y019937D01*
X026882Y019797D01*
X026882Y019646D01*
X026824Y019506D01*
X026717Y019399D01*
X026578Y019341D01*
X026427Y019341D01*
X026287Y019399D01*
X026180Y019506D01*
X026122Y019646D01*
X026122Y019797D01*
X026180Y019937D01*
X026287Y020043D01*
X026427Y020101D01*
X026578Y020101D01*
X026379Y020082D02*
X025082Y020082D01*
X025034Y020101D02*
X025174Y020043D01*
X025281Y019937D01*
X025339Y019797D01*
X025339Y019646D01*
X025281Y019506D01*
X025174Y019399D01*
X025034Y019341D01*
X024883Y019341D01*
X024744Y019399D01*
X024637Y019506D01*
X024579Y019646D01*
X024579Y019797D01*
X024637Y019937D01*
X024744Y020043D01*
X024883Y020101D01*
X025034Y020101D01*
X024836Y020082D02*
X024082Y020082D01*
X024034Y020101D02*
X024174Y020043D01*
X024281Y019937D01*
X024339Y019797D01*
X024339Y019646D01*
X024281Y019506D01*
X024174Y019399D01*
X024034Y019341D01*
X023883Y019341D01*
X023744Y019399D01*
X023637Y019506D01*
X023579Y019646D01*
X023579Y019797D01*
X023637Y019937D01*
X023744Y020043D01*
X023883Y020101D01*
X024034Y020101D01*
X023836Y020082D02*
X023082Y020082D01*
X023034Y020101D02*
X023174Y020043D01*
X023281Y019937D01*
X023339Y019797D01*
X023339Y019646D01*
X023281Y019506D01*
X023174Y019399D01*
X023034Y019341D01*
X022883Y019341D01*
X022744Y019399D01*
X022637Y019506D01*
X022579Y019646D01*
X022579Y019797D01*
X022637Y019937D01*
X022744Y020043D01*
X022883Y020101D01*
X023034Y020101D01*
X022836Y020082D02*
X021539Y020082D01*
X021491Y020101D02*
X021631Y020043D01*
X021738Y019937D01*
X021796Y019797D01*
X021796Y019646D01*
X021738Y019506D01*
X021631Y019399D01*
X021491Y019341D01*
X021340Y019341D01*
X021200Y019399D01*
X021093Y019506D01*
X021036Y019646D01*
X021036Y019797D01*
X021093Y019937D01*
X021200Y020043D01*
X021340Y020101D01*
X021491Y020101D01*
X021293Y020082D02*
X020539Y020082D01*
X020491Y020101D02*
X020631Y020043D01*
X020738Y019937D01*
X020796Y019797D01*
X020796Y019646D01*
X020738Y019506D01*
X020631Y019399D01*
X020491Y019341D01*
X020340Y019341D01*
X020200Y019399D01*
X020093Y019506D01*
X020036Y019646D01*
X020036Y019797D01*
X020093Y019937D01*
X020200Y020043D01*
X020340Y020101D01*
X020491Y020101D01*
X020293Y020082D02*
X019539Y020082D01*
X019491Y020101D02*
X019631Y020043D01*
X019738Y019937D01*
X019796Y019797D01*
X019796Y019646D01*
X019738Y019506D01*
X019631Y019399D01*
X019491Y019341D01*
X019340Y019341D01*
X019200Y019399D01*
X019093Y019506D01*
X019036Y019646D01*
X019036Y019797D01*
X019093Y019937D01*
X019200Y020043D01*
X019340Y020101D01*
X019491Y020101D01*
X019293Y020082D02*
X017995Y020082D01*
X017948Y020101D02*
X018088Y020043D01*
X018194Y019937D01*
X018252Y019797D01*
X018252Y019646D01*
X018194Y019506D01*
X018088Y019399D01*
X017948Y019341D01*
X017797Y019341D01*
X017657Y019399D01*
X017550Y019506D01*
X017492Y019646D01*
X017492Y019797D01*
X017550Y019937D01*
X017657Y020043D01*
X017797Y020101D01*
X017948Y020101D01*
X017749Y020082D02*
X016995Y020082D01*
X016948Y020101D02*
X017088Y020043D01*
X017194Y019937D01*
X017252Y019797D01*
X017252Y019646D01*
X017194Y019506D01*
X017088Y019399D01*
X016948Y019341D01*
X016797Y019341D01*
X016657Y019399D01*
X016550Y019506D01*
X016492Y019646D01*
X016492Y019797D01*
X016550Y019937D01*
X016657Y020043D01*
X016797Y020101D01*
X016948Y020101D01*
X016749Y020082D02*
X015995Y020082D01*
X016128Y020003D02*
X016617Y020003D01*
X016545Y019925D02*
X016199Y019925D01*
X016232Y019846D02*
X016513Y019846D01*
X016492Y019768D02*
X016252Y019768D01*
X016252Y019689D02*
X016492Y019689D01*
X016507Y019611D02*
X016238Y019611D01*
X016205Y019532D02*
X016539Y019532D01*
X016603Y019454D02*
X016142Y019454D01*
X016030Y019375D02*
X016715Y019375D01*
X017030Y019375D02*
X017715Y019375D01*
X017603Y019454D02*
X017142Y019454D01*
X017205Y019532D02*
X017539Y019532D01*
X017507Y019611D02*
X017238Y019611D01*
X017252Y019689D02*
X017492Y019689D01*
X017492Y019768D02*
X017252Y019768D01*
X017232Y019846D02*
X017513Y019846D01*
X017545Y019925D02*
X017199Y019925D01*
X017128Y020003D02*
X017617Y020003D01*
X018128Y020003D02*
X019160Y020003D01*
X019089Y019925D02*
X018199Y019925D01*
X018232Y019846D02*
X019056Y019846D01*
X019036Y019768D02*
X018252Y019768D01*
X018252Y019689D02*
X019036Y019689D01*
X019050Y019611D02*
X018238Y019611D01*
X018205Y019532D02*
X019083Y019532D01*
X019146Y019454D02*
X018142Y019454D01*
X018030Y019375D02*
X019258Y019375D01*
X019573Y019375D02*
X020258Y019375D01*
X020146Y019454D02*
X019685Y019454D01*
X019749Y019532D02*
X020083Y019532D01*
X020050Y019611D02*
X019781Y019611D01*
X019796Y019689D02*
X020036Y019689D01*
X020036Y019768D02*
X019796Y019768D01*
X019775Y019846D02*
X020056Y019846D01*
X020089Y019925D02*
X019743Y019925D01*
X019671Y020003D02*
X020160Y020003D01*
X020671Y020003D02*
X021160Y020003D01*
X021089Y019925D02*
X020743Y019925D01*
X020775Y019846D02*
X021056Y019846D01*
X021036Y019768D02*
X020796Y019768D01*
X020796Y019689D02*
X021036Y019689D01*
X021050Y019611D02*
X020781Y019611D01*
X020749Y019532D02*
X021083Y019532D01*
X021146Y019454D02*
X020685Y019454D01*
X020573Y019375D02*
X021258Y019375D01*
X021573Y019375D02*
X022802Y019375D01*
X022689Y019454D02*
X021685Y019454D01*
X021749Y019532D02*
X022626Y019532D01*
X022593Y019611D02*
X021781Y019611D01*
X021796Y019689D02*
X022579Y019689D01*
X022579Y019768D02*
X021796Y019768D01*
X021775Y019846D02*
X022599Y019846D01*
X022632Y019925D02*
X021743Y019925D01*
X021671Y020003D02*
X022703Y020003D01*
X022883Y020341D02*
X022744Y020399D01*
X022637Y020506D01*
X022579Y020646D01*
X022579Y020797D01*
X022637Y020937D01*
X022744Y021043D01*
X022883Y021101D01*
X023034Y021101D01*
X023174Y021043D01*
X023281Y020937D01*
X023339Y020797D01*
X023339Y020646D01*
X023281Y020506D01*
X023174Y020399D01*
X023034Y020341D01*
X022883Y020341D01*
X022752Y020396D02*
X021622Y020396D01*
X021631Y020399D02*
X021738Y020506D01*
X021796Y020646D01*
X021796Y020797D01*
X021738Y020937D01*
X021631Y021043D01*
X021491Y021101D01*
X021340Y021101D01*
X021200Y021043D01*
X021093Y020937D01*
X021036Y020797D01*
X021036Y020646D01*
X021093Y020506D01*
X021200Y020399D01*
X021340Y020341D01*
X021491Y020341D01*
X021631Y020399D01*
X021706Y020474D02*
X022669Y020474D01*
X022617Y020553D02*
X021757Y020553D01*
X021790Y020631D02*
X022585Y020631D01*
X022579Y020710D02*
X021796Y020710D01*
X021796Y020788D02*
X022579Y020788D01*
X022608Y020867D02*
X021767Y020867D01*
X021729Y020945D02*
X022645Y020945D01*
X022724Y021024D02*
X021651Y021024D01*
X021181Y021024D02*
X020651Y021024D01*
X020631Y021043D02*
X020491Y021101D01*
X020340Y021101D01*
X020200Y021043D01*
X020093Y020937D01*
X020036Y020797D01*
X020036Y020646D01*
X020093Y020506D01*
X020200Y020399D01*
X020340Y020341D01*
X020491Y020341D01*
X020631Y020399D01*
X020738Y020506D01*
X020796Y020646D01*
X020796Y020797D01*
X020738Y020937D01*
X020631Y021043D01*
X020729Y020945D02*
X021102Y020945D01*
X021064Y020867D02*
X020767Y020867D01*
X020796Y020788D02*
X021036Y020788D01*
X021036Y020710D02*
X020796Y020710D01*
X020790Y020631D02*
X021042Y020631D01*
X021074Y020553D02*
X020757Y020553D01*
X020706Y020474D02*
X021125Y020474D01*
X021209Y020396D02*
X020622Y020396D01*
X020209Y020396D02*
X019622Y020396D01*
X019631Y020399D02*
X019738Y020506D01*
X019796Y020646D01*
X019796Y020797D01*
X019738Y020937D01*
X019631Y021043D01*
X019491Y021101D01*
X019340Y021101D01*
X019200Y021043D01*
X019093Y020937D01*
X019036Y020797D01*
X019036Y020646D01*
X019093Y020506D01*
X019200Y020399D01*
X019340Y020341D01*
X019491Y020341D01*
X019631Y020399D01*
X019706Y020474D02*
X020125Y020474D01*
X020074Y020553D02*
X019757Y020553D01*
X019790Y020631D02*
X020042Y020631D01*
X020036Y020710D02*
X019796Y020710D01*
X019796Y020788D02*
X020036Y020788D01*
X020064Y020867D02*
X019767Y020867D01*
X019729Y020945D02*
X020102Y020945D01*
X020181Y021024D02*
X019651Y021024D01*
X019181Y021024D02*
X018107Y021024D01*
X018088Y021043D02*
X017948Y021101D01*
X017797Y021101D01*
X017657Y021043D01*
X017550Y020937D01*
X017492Y020797D01*
X017492Y020646D01*
X017550Y020506D01*
X017657Y020399D01*
X017797Y020341D01*
X017948Y020341D01*
X018088Y020399D01*
X018194Y020506D01*
X018252Y020646D01*
X018252Y020797D01*
X018194Y020937D01*
X018088Y021043D01*
X018186Y020945D02*
X019102Y020945D01*
X019064Y020867D02*
X018223Y020867D01*
X018252Y020788D02*
X019036Y020788D01*
X019036Y020710D02*
X018252Y020710D01*
X018246Y020631D02*
X019042Y020631D01*
X019074Y020553D02*
X018214Y020553D01*
X018163Y020474D02*
X019125Y020474D01*
X019209Y020396D02*
X018079Y020396D01*
X017666Y020396D02*
X017079Y020396D01*
X017088Y020399D02*
X017194Y020506D01*
X017252Y020646D01*
X017252Y020797D01*
X017194Y020937D01*
X017088Y021043D01*
X016948Y021101D01*
X016797Y021101D01*
X016657Y021043D01*
X016550Y020937D01*
X016492Y020797D01*
X016492Y020646D01*
X016550Y020506D01*
X016657Y020399D01*
X016797Y020341D01*
X016948Y020341D01*
X017088Y020399D01*
X017163Y020474D02*
X017582Y020474D01*
X017531Y020553D02*
X017214Y020553D01*
X017246Y020631D02*
X017498Y020631D01*
X017492Y020710D02*
X017252Y020710D01*
X017252Y020788D02*
X017492Y020788D01*
X017521Y020867D02*
X017223Y020867D01*
X017186Y020945D02*
X017559Y020945D01*
X017637Y021024D02*
X017107Y021024D01*
X016637Y021024D02*
X016107Y021024D01*
X016088Y021043D02*
X015948Y021101D01*
X015797Y021101D01*
X015657Y021043D01*
X015550Y020937D01*
X015492Y020797D01*
X015492Y020646D01*
X015550Y020506D01*
X015657Y020399D01*
X015797Y020341D01*
X015948Y020341D01*
X016088Y020399D01*
X016194Y020506D01*
X016252Y020646D01*
X016252Y020797D01*
X016194Y020937D01*
X016088Y021043D01*
X016186Y020945D02*
X016559Y020945D01*
X016521Y020867D02*
X016223Y020867D01*
X016252Y020788D02*
X016492Y020788D01*
X016492Y020710D02*
X016252Y020710D01*
X016246Y020631D02*
X016498Y020631D01*
X016531Y020553D02*
X016214Y020553D01*
X016163Y020474D02*
X016582Y020474D01*
X016666Y020396D02*
X016079Y020396D01*
X015666Y020396D02*
X014112Y020396D01*
X014144Y020474D02*
X015582Y020474D01*
X015531Y020553D02*
X014157Y020553D01*
X014157Y020631D02*
X015498Y020631D01*
X015492Y020710D02*
X014157Y020710D01*
X014131Y020788D02*
X015492Y020788D01*
X015521Y020867D02*
X014098Y020867D01*
X014056Y020945D02*
X015559Y020945D01*
X015637Y021024D02*
X013977Y021024D01*
X013872Y021102D02*
X033233Y021102D01*
X033147Y021024D02*
X032281Y021024D01*
X032261Y021043D02*
X032121Y021101D01*
X031970Y021101D01*
X031830Y021043D01*
X031723Y020937D01*
X031666Y020797D01*
X031666Y020646D01*
X031723Y020506D01*
X031830Y020399D01*
X031970Y020341D01*
X032121Y020341D01*
X032261Y020399D01*
X032368Y020506D01*
X032426Y020646D01*
X032426Y020797D01*
X032368Y020937D01*
X032261Y021043D01*
X032359Y020945D02*
X033087Y020945D01*
X033045Y020867D02*
X032397Y020867D01*
X032426Y020788D02*
X033017Y020788D01*
X032999Y020710D02*
X032426Y020710D01*
X032419Y020631D02*
X033565Y020631D01*
X033565Y020553D02*
X033645Y020553D01*
X033645Y020575D02*
X033645Y020002D01*
X033653Y020002D01*
X033748Y020018D01*
X033840Y020047D01*
X033926Y020091D01*
X034004Y020148D01*
X034072Y020216D01*
X034128Y020294D01*
X034172Y020380D01*
X034202Y020472D01*
X034217Y020567D01*
X034217Y020575D01*
X033645Y020575D01*
X033645Y020631D02*
X035133Y020631D01*
X035133Y020553D02*
X034215Y020553D01*
X034202Y020474D02*
X035133Y020474D01*
X035133Y020396D02*
X034177Y020396D01*
X034140Y020317D02*
X035133Y020317D01*
X035133Y020239D02*
X034088Y020239D01*
X034016Y020160D02*
X035133Y020160D01*
X035133Y020082D02*
X033907Y020082D01*
X033645Y020082D02*
X033565Y020082D01*
X033565Y020160D02*
X033645Y020160D01*
X033645Y020239D02*
X033565Y020239D01*
X033565Y020317D02*
X033645Y020317D01*
X033645Y020396D02*
X033565Y020396D01*
X033565Y020474D02*
X033645Y020474D01*
X033645Y020710D02*
X033565Y020710D01*
X033565Y020788D02*
X033645Y020788D01*
X033645Y020867D02*
X033565Y020867D01*
X033565Y020945D02*
X033645Y020945D01*
X033645Y021024D02*
X033565Y021024D01*
X033565Y021102D02*
X033645Y021102D01*
X033645Y021181D02*
X033565Y021181D01*
X033366Y021181D02*
X010061Y021181D01*
X010061Y021259D02*
X035133Y021259D01*
X035133Y021181D02*
X033844Y021181D01*
X033976Y021102D02*
X035133Y021102D01*
X035133Y021024D02*
X034062Y021024D01*
X034122Y020945D02*
X035133Y020945D01*
X035133Y020867D02*
X034164Y020867D01*
X034192Y020788D02*
X035133Y020788D01*
X035133Y020710D02*
X034210Y020710D01*
X033657Y020003D02*
X035133Y020003D01*
X035133Y019925D02*
X032373Y019925D01*
X032405Y019846D02*
X035133Y019846D01*
X035133Y019768D02*
X032426Y019768D01*
X032426Y019689D02*
X035133Y019689D01*
X035133Y019611D02*
X032411Y019611D01*
X032378Y019532D02*
X035133Y019532D01*
X035133Y019454D02*
X032315Y019454D01*
X032203Y019375D02*
X035133Y019375D01*
X035133Y019297D02*
X010061Y019297D01*
X010061Y019375D02*
X015715Y019375D01*
X015603Y019454D02*
X010061Y019454D01*
X010061Y019532D02*
X015539Y019532D01*
X015507Y019611D02*
X010061Y019611D01*
X010061Y019689D02*
X015492Y019689D01*
X015492Y019768D02*
X010061Y019768D01*
X010061Y019846D02*
X015513Y019846D01*
X015545Y019925D02*
X010061Y019925D01*
X010061Y019218D02*
X035133Y019218D01*
X035133Y019140D02*
X010061Y019140D01*
X010061Y019061D02*
X035133Y019061D01*
X035133Y018983D02*
X010061Y018983D01*
X010061Y018904D02*
X033295Y018904D01*
X033184Y018874D02*
X033461Y018949D01*
X033748Y018949D01*
X034025Y018874D01*
X034274Y018731D01*
X034476Y018528D01*
X034620Y018280D01*
X034694Y018003D01*
X034694Y017716D01*
X034620Y017438D01*
X034476Y017190D01*
X034274Y016987D01*
X034025Y016844D01*
X033748Y016769D01*
X033461Y016769D01*
X033184Y016844D01*
X032936Y016987D01*
X032733Y017190D01*
X032589Y017438D01*
X032515Y017716D01*
X032515Y018003D01*
X032589Y018280D01*
X032733Y018528D01*
X032936Y018731D01*
X033184Y018874D01*
X033099Y018826D02*
X010061Y018826D01*
X010061Y018747D02*
X032963Y018747D01*
X032873Y018669D02*
X010061Y018669D01*
X010061Y018590D02*
X032795Y018590D01*
X032723Y018512D02*
X010061Y018512D01*
X010061Y018433D02*
X032678Y018433D01*
X032632Y018355D02*
X010061Y018355D01*
X010061Y018276D02*
X032588Y018276D01*
X032567Y018198D02*
X010061Y018198D01*
X010061Y018119D02*
X032546Y018119D01*
X032525Y018041D02*
X010077Y018041D01*
X010061Y018056D02*
X010061Y021750D01*
X035133Y021750D01*
X035133Y000583D01*
X030702Y000583D01*
X030725Y000605D01*
X031390Y001270D01*
X031486Y001231D01*
X031637Y001231D01*
X031777Y001289D01*
X031883Y001396D01*
X031941Y001535D01*
X031941Y001687D01*
X031883Y001826D01*
X031777Y001933D01*
X031637Y001991D01*
X031486Y001991D01*
X031346Y001933D01*
X031239Y001826D01*
X031181Y001687D01*
X031181Y001535D01*
X031221Y001440D01*
X030555Y000774D01*
X029894Y000774D01*
X029961Y000841D01*
X030390Y001270D01*
X030486Y001231D01*
X030637Y001231D01*
X030777Y001289D01*
X030883Y001396D01*
X030941Y001535D01*
X030941Y001687D01*
X030883Y001826D01*
X030777Y001933D01*
X030637Y001991D01*
X030486Y001991D01*
X030346Y001933D01*
X030239Y001826D01*
X030181Y001687D01*
X030181Y001535D01*
X030221Y001440D01*
X029791Y001011D01*
X029130Y001011D01*
X029197Y001077D01*
X029390Y001270D01*
X029486Y001231D01*
X029637Y001231D01*
X029777Y001289D01*
X029883Y001396D01*
X029941Y001535D01*
X029941Y001687D01*
X029883Y001826D01*
X029777Y001933D01*
X029637Y001991D01*
X029486Y001991D01*
X029346Y001933D01*
X029239Y001826D01*
X029181Y001687D01*
X029181Y001535D01*
X029221Y001440D01*
X029027Y001247D01*
X028675Y001247D01*
X028777Y001289D01*
X028883Y001396D01*
X028941Y001535D01*
X028941Y001687D01*
X028902Y001782D01*
X029127Y002007D01*
X029197Y002077D01*
X029197Y002497D01*
X029239Y002396D01*
X029346Y002289D01*
X029486Y002231D01*
X029637Y002231D01*
X029777Y002289D01*
X029883Y002396D01*
X029941Y002535D01*
X029941Y002687D01*
X029883Y002826D01*
X029777Y002933D01*
X029637Y002991D01*
X029486Y002991D01*
X029346Y002933D01*
X029239Y002826D01*
X029197Y002725D01*
X029197Y003184D01*
X027858Y004523D01*
X027788Y004593D01*
X026062Y004593D01*
X026002Y004653D01*
X025853Y004653D01*
X025747Y004548D01*
X025747Y004429D01*
X025714Y004463D01*
X025714Y004548D01*
X025608Y004653D01*
X025459Y004653D01*
X025354Y004548D01*
X025354Y004429D01*
X025320Y004463D01*
X025320Y004548D01*
X025215Y004653D01*
X025065Y004653D01*
X024960Y004548D01*
X024960Y004429D01*
X024926Y004463D01*
X024926Y004548D01*
X024821Y004653D01*
X024672Y004653D01*
X024566Y004548D01*
X024566Y004399D01*
X024672Y004293D01*
X024757Y004293D01*
X025405Y003645D01*
X026901Y003645D01*
X027422Y003124D01*
X027422Y001116D01*
X027955Y000583D01*
X015179Y000583D01*
X015179Y001187D01*
X015223Y001144D01*
X015372Y001144D01*
X015477Y001249D01*
X015477Y001398D01*
X015372Y001504D01*
X015223Y001504D01*
X015179Y001460D01*
X015179Y004337D01*
X015223Y004293D01*
X015372Y004293D01*
X015477Y004399D01*
X015477Y004548D01*
X015372Y004653D01*
X015223Y004653D01*
X015179Y004610D01*
X015179Y008489D01*
X013290Y010379D01*
X013290Y014828D01*
X010061Y018056D01*
X010155Y017962D02*
X032515Y017962D01*
X032515Y017884D02*
X010234Y017884D01*
X010312Y017805D02*
X032515Y017805D01*
X032515Y017727D02*
X010391Y017727D01*
X010469Y017648D02*
X032533Y017648D01*
X032554Y017570D02*
X010548Y017570D01*
X010626Y017491D02*
X032575Y017491D01*
X032604Y017413D02*
X010705Y017413D01*
X010783Y017334D02*
X032649Y017334D01*
X032695Y017256D02*
X010862Y017256D01*
X010940Y017177D02*
X032746Y017177D01*
X032824Y017099D02*
X011019Y017099D01*
X011097Y017020D02*
X032903Y017020D01*
X033014Y016942D02*
X011176Y016942D01*
X011254Y016863D02*
X033150Y016863D01*
X033405Y016785D02*
X011333Y016785D01*
X011411Y016706D02*
X035133Y016706D01*
X035133Y016628D02*
X011490Y016628D01*
X011568Y016549D02*
X035133Y016549D01*
X035133Y016471D02*
X011647Y016471D01*
X011725Y016392D02*
X035133Y016392D01*
X035133Y016314D02*
X011804Y016314D01*
X011882Y016235D02*
X035133Y016235D01*
X035133Y016157D02*
X011961Y016157D01*
X012039Y016078D02*
X033002Y016078D01*
X033029Y016089D02*
X032889Y016032D01*
X032782Y015925D01*
X032725Y015785D01*
X032725Y015634D01*
X032782Y015494D01*
X032889Y015387D01*
X033029Y015329D01*
X033180Y015329D01*
X033320Y015387D01*
X033427Y015494D01*
X033485Y015634D01*
X033485Y015785D01*
X033427Y015925D01*
X033320Y016032D01*
X033180Y016089D01*
X033029Y016089D01*
X033208Y016078D02*
X034002Y016078D01*
X034029Y016089D02*
X033889Y016032D01*
X033782Y015925D01*
X033725Y015785D01*
X033725Y015634D01*
X033782Y015494D01*
X033889Y015387D01*
X034029Y015329D01*
X034180Y015329D01*
X034320Y015387D01*
X034427Y015494D01*
X034485Y015634D01*
X034485Y015785D01*
X034427Y015925D01*
X034320Y016032D01*
X034180Y016089D01*
X034029Y016089D01*
X034208Y016078D02*
X035133Y016078D01*
X035133Y016000D02*
X034352Y016000D01*
X034428Y015921D02*
X035133Y015921D01*
X035133Y015843D02*
X034461Y015843D01*
X034485Y015764D02*
X035133Y015764D01*
X035133Y015686D02*
X034485Y015686D01*
X034473Y015607D02*
X035133Y015607D01*
X035133Y015529D02*
X034441Y015529D01*
X034383Y015450D02*
X035133Y015450D01*
X035133Y015372D02*
X034282Y015372D01*
X034180Y015089D02*
X034029Y015089D01*
X033889Y015032D01*
X033782Y014925D01*
X033725Y014785D01*
X033725Y014634D01*
X033782Y014494D01*
X033889Y014387D01*
X034029Y014329D01*
X034180Y014329D01*
X034320Y014387D01*
X034427Y014494D01*
X034485Y014634D01*
X034485Y014785D01*
X034427Y014925D01*
X034320Y015032D01*
X034180Y015089D01*
X034257Y015058D02*
X035133Y015058D01*
X035133Y015136D02*
X012981Y015136D01*
X012903Y015215D02*
X035133Y015215D01*
X035133Y015293D02*
X012824Y015293D01*
X012746Y015372D02*
X032927Y015372D01*
X032827Y015450D02*
X012667Y015450D01*
X012589Y015529D02*
X032768Y015529D01*
X032736Y015607D02*
X012510Y015607D01*
X012432Y015686D02*
X032725Y015686D01*
X032725Y015764D02*
X012353Y015764D01*
X012275Y015843D02*
X032748Y015843D01*
X032781Y015921D02*
X012196Y015921D01*
X012118Y016000D02*
X032857Y016000D01*
X033352Y016000D02*
X033857Y016000D01*
X033781Y015921D02*
X033428Y015921D01*
X033461Y015843D02*
X033748Y015843D01*
X033725Y015764D02*
X033485Y015764D01*
X033485Y015686D02*
X033725Y015686D01*
X033736Y015607D02*
X033473Y015607D01*
X033441Y015529D02*
X033768Y015529D01*
X033827Y015450D02*
X033383Y015450D01*
X033282Y015372D02*
X033927Y015372D01*
X033952Y015058D02*
X033257Y015058D01*
X033320Y015032D02*
X033180Y015089D01*
X033029Y015089D01*
X032889Y015032D01*
X032782Y014925D01*
X032725Y014785D01*
X032725Y014634D01*
X032782Y014494D01*
X032889Y014387D01*
X033029Y014329D01*
X033180Y014329D01*
X033320Y014387D01*
X033427Y014494D01*
X033485Y014634D01*
X033485Y014785D01*
X033427Y014925D01*
X033320Y015032D01*
X033372Y014979D02*
X033837Y014979D01*
X033772Y014901D02*
X033437Y014901D01*
X033469Y014822D02*
X033740Y014822D01*
X033725Y014744D02*
X033485Y014744D01*
X033485Y014665D02*
X033725Y014665D01*
X033744Y014587D02*
X033465Y014587D01*
X033432Y014508D02*
X033777Y014508D01*
X033847Y014430D02*
X033362Y014430D01*
X033232Y014351D02*
X033977Y014351D01*
X034232Y014351D02*
X035133Y014351D01*
X035133Y014273D02*
X013290Y014273D01*
X013290Y014351D02*
X032977Y014351D01*
X032847Y014430D02*
X013290Y014430D01*
X013290Y014508D02*
X032777Y014508D01*
X032744Y014587D02*
X013290Y014587D01*
X013290Y014665D02*
X032725Y014665D01*
X032725Y014744D02*
X013290Y014744D01*
X013290Y014822D02*
X032740Y014822D01*
X032772Y014901D02*
X013217Y014901D01*
X013138Y014979D02*
X032837Y014979D01*
X032952Y015058D02*
X013060Y015058D01*
X012784Y015058D02*
X000580Y015058D01*
X000580Y015136D02*
X012706Y015136D01*
X013132Y014194D02*
X000580Y014194D01*
X000580Y014116D02*
X013132Y014116D01*
X013290Y014116D02*
X035133Y014116D01*
X035133Y014194D02*
X013290Y014194D01*
X013290Y014037D02*
X032903Y014037D01*
X032889Y014032D02*
X032782Y013925D01*
X032725Y013785D01*
X032725Y013634D01*
X032782Y013494D01*
X032889Y013387D01*
X033029Y013329D01*
X033180Y013329D01*
X033320Y013387D01*
X033427Y013494D01*
X033485Y013634D01*
X033485Y013785D01*
X033427Y013925D01*
X033320Y014032D01*
X033180Y014089D01*
X033029Y014089D01*
X032889Y014032D01*
X032816Y013959D02*
X013290Y013959D01*
X013290Y013880D02*
X032764Y013880D01*
X032731Y013802D02*
X013290Y013802D01*
X013290Y013723D02*
X032725Y013723D01*
X032725Y013645D02*
X013290Y013645D01*
X013290Y013566D02*
X032753Y013566D01*
X032789Y013488D02*
X013290Y013488D01*
X013290Y013409D02*
X032868Y013409D01*
X033026Y013331D02*
X013290Y013331D01*
X013290Y013252D02*
X035133Y013252D01*
X035133Y013174D02*
X013290Y013174D01*
X013290Y013095D02*
X035133Y013095D01*
X035133Y013017D02*
X013290Y013017D01*
X013290Y012938D02*
X035133Y012938D01*
X035133Y012860D02*
X013290Y012860D01*
X013290Y012781D02*
X035133Y012781D01*
X035133Y012703D02*
X013290Y012703D01*
X013290Y012624D02*
X035133Y012624D01*
X035133Y012546D02*
X034182Y012546D01*
X034180Y012546D02*
X034029Y012546D01*
X033889Y012488D01*
X033782Y012381D01*
X033725Y012242D01*
X033725Y012091D01*
X033782Y011951D01*
X033889Y011844D01*
X034029Y011786D01*
X034180Y011786D01*
X034320Y011844D01*
X034427Y011951D01*
X034485Y012091D01*
X034485Y012242D01*
X034427Y012381D01*
X034320Y012488D01*
X034180Y012546D01*
X034028Y012546D02*
X033182Y012546D01*
X033180Y012546D02*
X033029Y012546D01*
X032889Y012488D01*
X032782Y012381D01*
X032725Y012242D01*
X032725Y012091D01*
X032782Y011951D01*
X032889Y011844D01*
X033029Y011786D01*
X033180Y011786D01*
X033320Y011844D01*
X033427Y011951D01*
X033485Y012091D01*
X033485Y012242D01*
X033427Y012381D01*
X033320Y012488D01*
X033180Y012546D01*
X033028Y012546D02*
X013290Y012546D01*
X013290Y012467D02*
X032868Y012467D01*
X032790Y012389D02*
X013290Y012389D01*
X013290Y012310D02*
X032753Y012310D01*
X032725Y012232D02*
X013290Y012232D01*
X013290Y012153D02*
X032725Y012153D01*
X032731Y012075D02*
X013290Y012075D01*
X013290Y011996D02*
X032764Y011996D01*
X032816Y011918D02*
X013290Y011918D01*
X013290Y011839D02*
X032901Y011839D01*
X033308Y011839D02*
X033901Y011839D01*
X033816Y011918D02*
X033393Y011918D01*
X033445Y011996D02*
X033764Y011996D01*
X033731Y012075D02*
X033478Y012075D01*
X033485Y012153D02*
X033725Y012153D01*
X033725Y012232D02*
X033485Y012232D01*
X033456Y012310D02*
X033753Y012310D01*
X033790Y012389D02*
X033420Y012389D01*
X033341Y012467D02*
X033868Y012467D01*
X034341Y012467D02*
X035133Y012467D01*
X035133Y012389D02*
X034420Y012389D01*
X034456Y012310D02*
X035133Y012310D01*
X035133Y012232D02*
X034485Y012232D01*
X034485Y012153D02*
X035133Y012153D01*
X035133Y012075D02*
X034478Y012075D01*
X034445Y011996D02*
X035133Y011996D01*
X035133Y011918D02*
X034393Y011918D01*
X034308Y011839D02*
X035133Y011839D01*
X035133Y011761D02*
X013290Y011761D01*
X013290Y011682D02*
X035133Y011682D01*
X035133Y011604D02*
X013290Y011604D01*
X013290Y011525D02*
X032978Y011525D01*
X033029Y011546D02*
X032889Y011488D01*
X032782Y011381D01*
X032725Y011242D01*
X032725Y011091D01*
X032782Y010951D01*
X032889Y010844D01*
X033029Y010786D01*
X033180Y010786D01*
X033320Y010844D01*
X033427Y010951D01*
X033485Y011091D01*
X033485Y011242D01*
X033427Y011381D01*
X033320Y011488D01*
X033180Y011546D01*
X033029Y011546D01*
X033231Y011525D02*
X033978Y011525D01*
X034029Y011546D02*
X033889Y011488D01*
X033782Y011381D01*
X033725Y011242D01*
X033725Y011091D01*
X033782Y010951D01*
X033889Y010844D01*
X034029Y010786D01*
X034180Y010786D01*
X034320Y010844D01*
X034427Y010951D01*
X034485Y011091D01*
X034485Y011242D01*
X034427Y011381D01*
X034320Y011488D01*
X034180Y011546D01*
X034029Y011546D01*
X034231Y011525D02*
X035133Y011525D01*
X035133Y011447D02*
X034362Y011447D01*
X034432Y011368D02*
X035133Y011368D01*
X035133Y011290D02*
X034465Y011290D01*
X034485Y011211D02*
X035133Y011211D01*
X035133Y011133D02*
X034485Y011133D01*
X034469Y011054D02*
X035133Y011054D01*
X035133Y010976D02*
X034437Y010976D01*
X034373Y010897D02*
X035133Y010897D01*
X035133Y010819D02*
X034258Y010819D01*
X034180Y010546D02*
X034029Y010546D01*
X033889Y010488D01*
X033782Y010381D01*
X033725Y010242D01*
X033725Y010091D01*
X033782Y009951D01*
X033889Y009844D01*
X034029Y009786D01*
X034180Y009786D01*
X034320Y009844D01*
X034427Y009951D01*
X034485Y010091D01*
X034485Y010242D01*
X034427Y010381D01*
X034320Y010488D01*
X034180Y010546D01*
X034281Y010505D02*
X035133Y010505D01*
X035133Y010583D02*
X013290Y010583D01*
X013290Y010505D02*
X032929Y010505D01*
X032889Y010488D02*
X033029Y010546D01*
X033180Y010546D01*
X033320Y010488D01*
X033427Y010381D01*
X033485Y010242D01*
X033485Y010091D01*
X033427Y009951D01*
X033320Y009844D01*
X033180Y009786D01*
X033029Y009786D01*
X032889Y009844D01*
X032782Y009951D01*
X032725Y010091D01*
X032725Y010242D01*
X032782Y010381D01*
X032889Y010488D01*
X032827Y010426D02*
X013290Y010426D01*
X013321Y010348D02*
X032768Y010348D01*
X032736Y010269D02*
X013399Y010269D01*
X013478Y010191D02*
X032725Y010191D01*
X032725Y010112D02*
X013556Y010112D01*
X013635Y010034D02*
X032748Y010034D01*
X032781Y009955D02*
X013713Y009955D01*
X013792Y009877D02*
X032857Y009877D01*
X033000Y009798D02*
X013870Y009798D01*
X013949Y009720D02*
X035133Y009720D01*
X035133Y009798D02*
X034209Y009798D01*
X034352Y009877D02*
X035133Y009877D01*
X035133Y009955D02*
X034428Y009955D01*
X034461Y010034D02*
X035133Y010034D01*
X035133Y010112D02*
X034485Y010112D01*
X034485Y010191D02*
X035133Y010191D01*
X035133Y010269D02*
X034473Y010269D01*
X034441Y010348D02*
X035133Y010348D01*
X035133Y010426D02*
X034382Y010426D01*
X033929Y010505D02*
X033281Y010505D01*
X033382Y010426D02*
X033827Y010426D01*
X033768Y010348D02*
X033441Y010348D01*
X033473Y010269D02*
X033736Y010269D01*
X033725Y010191D02*
X033485Y010191D01*
X033485Y010112D02*
X033725Y010112D01*
X033748Y010034D02*
X033461Y010034D01*
X033428Y009955D02*
X033781Y009955D01*
X033857Y009877D02*
X033352Y009877D01*
X033209Y009798D02*
X034000Y009798D01*
X034029Y009003D02*
X033889Y008945D01*
X033782Y008838D01*
X033725Y008698D01*
X033725Y008547D01*
X033782Y008408D01*
X033889Y008301D01*
X034029Y008243D01*
X034180Y008243D01*
X034320Y008301D01*
X034427Y008408D01*
X034485Y008547D01*
X034485Y008698D01*
X034427Y008838D01*
X034320Y008945D01*
X034180Y009003D01*
X034029Y009003D01*
X033879Y008935D02*
X033330Y008935D01*
X033320Y008945D02*
X033180Y009003D01*
X033029Y009003D01*
X032889Y008945D01*
X032782Y008838D01*
X032725Y008698D01*
X032725Y008547D01*
X032782Y008408D01*
X032889Y008301D01*
X033029Y008243D01*
X033180Y008243D01*
X033320Y008301D01*
X033427Y008408D01*
X033485Y008547D01*
X033485Y008698D01*
X033427Y008838D01*
X033320Y008945D01*
X033409Y008856D02*
X033800Y008856D01*
X033757Y008778D02*
X033452Y008778D01*
X033484Y008699D02*
X033725Y008699D01*
X033725Y008621D02*
X033485Y008621D01*
X033482Y008542D02*
X033727Y008542D01*
X033759Y008464D02*
X033450Y008464D01*
X033404Y008385D02*
X033805Y008385D01*
X033883Y008307D02*
X033326Y008307D01*
X032883Y008307D02*
X015179Y008307D01*
X015179Y008385D02*
X032805Y008385D01*
X032759Y008464D02*
X015179Y008464D01*
X015126Y008542D02*
X032727Y008542D01*
X032725Y008621D02*
X015048Y008621D01*
X014969Y008699D02*
X032725Y008699D01*
X032757Y008778D02*
X014891Y008778D01*
X014812Y008856D02*
X032800Y008856D01*
X032879Y008935D02*
X014734Y008935D01*
X014655Y009013D02*
X035133Y009013D01*
X035133Y008935D02*
X034330Y008935D01*
X034409Y008856D02*
X035133Y008856D01*
X035133Y008778D02*
X034452Y008778D01*
X034484Y008699D02*
X035133Y008699D01*
X035133Y008621D02*
X034485Y008621D01*
X034482Y008542D02*
X035133Y008542D01*
X035133Y008464D02*
X034450Y008464D01*
X034404Y008385D02*
X035133Y008385D01*
X035133Y008307D02*
X034326Y008307D01*
X034205Y007993D02*
X035133Y007993D01*
X035133Y008071D02*
X015179Y008071D01*
X015179Y007993D02*
X033004Y007993D01*
X033029Y008003D02*
X032889Y007945D01*
X032782Y007838D01*
X032725Y007698D01*
X032725Y007547D01*
X032782Y007408D01*
X032889Y007301D01*
X033029Y007243D01*
X033180Y007243D01*
X033320Y007301D01*
X033427Y007408D01*
X033485Y007547D01*
X033485Y007698D01*
X033427Y007838D01*
X033320Y007945D01*
X033180Y008003D01*
X033029Y008003D01*
X033205Y007993D02*
X034004Y007993D01*
X034029Y008003D02*
X033889Y007945D01*
X033782Y007838D01*
X033725Y007698D01*
X033725Y007547D01*
X033782Y007408D01*
X033889Y007301D01*
X034029Y007243D01*
X034180Y007243D01*
X034320Y007301D01*
X034427Y007408D01*
X034485Y007547D01*
X034485Y007698D01*
X034427Y007838D01*
X034320Y007945D01*
X034180Y008003D01*
X034029Y008003D01*
X033858Y007914D02*
X033351Y007914D01*
X033428Y007836D02*
X033781Y007836D01*
X033749Y007757D02*
X033460Y007757D01*
X033485Y007679D02*
X033725Y007679D01*
X033725Y007600D02*
X033485Y007600D01*
X033474Y007522D02*
X033735Y007522D01*
X033768Y007443D02*
X033441Y007443D01*
X033384Y007365D02*
X033825Y007365D01*
X033925Y007286D02*
X033284Y007286D01*
X033180Y007003D02*
X033029Y007003D01*
X032889Y006945D01*
X032782Y006838D01*
X032725Y006698D01*
X032725Y006547D01*
X032782Y006408D01*
X032889Y006301D01*
X033029Y006243D01*
X033180Y006243D01*
X033320Y006301D01*
X033427Y006408D01*
X033485Y006547D01*
X033485Y006698D01*
X033427Y006838D01*
X033320Y006945D01*
X033180Y007003D01*
X033254Y006972D02*
X033955Y006972D01*
X033889Y006945D02*
X034029Y007003D01*
X034180Y007003D01*
X034320Y006945D01*
X034427Y006838D01*
X034485Y006698D01*
X034485Y006547D01*
X034427Y006408D01*
X034320Y006301D01*
X034180Y006243D01*
X034029Y006243D01*
X033889Y006301D01*
X033782Y006408D01*
X033725Y006547D01*
X033725Y006698D01*
X033782Y006838D01*
X033889Y006945D01*
X033838Y006894D02*
X033371Y006894D01*
X033436Y006815D02*
X033773Y006815D01*
X033740Y006737D02*
X033469Y006737D01*
X033485Y006658D02*
X033725Y006658D01*
X033725Y006580D02*
X033485Y006580D01*
X033465Y006501D02*
X033744Y006501D01*
X033776Y006423D02*
X033433Y006423D01*
X033363Y006344D02*
X033846Y006344D01*
X033974Y006266D02*
X033235Y006266D01*
X032974Y006266D02*
X015179Y006266D01*
X015179Y006344D02*
X032846Y006344D01*
X032776Y006423D02*
X015179Y006423D01*
X015179Y006501D02*
X032744Y006501D01*
X032725Y006580D02*
X015179Y006580D01*
X015179Y006658D02*
X032725Y006658D01*
X032740Y006737D02*
X015179Y006737D01*
X015179Y006815D02*
X032773Y006815D01*
X032838Y006894D02*
X015179Y006894D01*
X015179Y006972D02*
X032955Y006972D01*
X032925Y007286D02*
X015179Y007286D01*
X015179Y007208D02*
X035133Y007208D01*
X035133Y007286D02*
X034284Y007286D01*
X034384Y007365D02*
X035133Y007365D01*
X035133Y007443D02*
X034441Y007443D01*
X034474Y007522D02*
X035133Y007522D01*
X035133Y007600D02*
X034485Y007600D01*
X034485Y007679D02*
X035133Y007679D01*
X035133Y007757D02*
X034460Y007757D01*
X034428Y007836D02*
X035133Y007836D01*
X035133Y007914D02*
X034351Y007914D01*
X035133Y008150D02*
X015179Y008150D01*
X015179Y008228D02*
X035133Y008228D01*
X035133Y009092D02*
X014577Y009092D01*
X014498Y009170D02*
X035133Y009170D01*
X035133Y009249D02*
X014420Y009249D01*
X014341Y009327D02*
X035133Y009327D01*
X035133Y009406D02*
X014263Y009406D01*
X014184Y009484D02*
X035133Y009484D01*
X035133Y009563D02*
X014106Y009563D01*
X014027Y009641D02*
X035133Y009641D01*
X035133Y010662D02*
X013290Y010662D01*
X013290Y010740D02*
X035133Y010740D01*
X033951Y010819D02*
X033258Y010819D01*
X033373Y010897D02*
X033836Y010897D01*
X033772Y010976D02*
X033437Y010976D01*
X033469Y011054D02*
X033740Y011054D01*
X033725Y011133D02*
X033485Y011133D01*
X033485Y011211D02*
X033725Y011211D01*
X033744Y011290D02*
X033465Y011290D01*
X033432Y011368D02*
X033777Y011368D01*
X033848Y011447D02*
X033362Y011447D01*
X032848Y011447D02*
X013290Y011447D01*
X013290Y011368D02*
X032777Y011368D01*
X032744Y011290D02*
X013290Y011290D01*
X013290Y011211D02*
X032725Y011211D01*
X032725Y011133D02*
X013290Y011133D01*
X013290Y011054D02*
X032740Y011054D01*
X032772Y010976D02*
X013290Y010976D01*
X013290Y010897D02*
X032836Y010897D01*
X032951Y010819D02*
X013290Y010819D01*
X013132Y010819D02*
X002957Y010819D01*
X002989Y010740D02*
X013132Y010740D01*
X013132Y010662D02*
X002989Y010662D01*
X002985Y010583D02*
X013132Y010583D01*
X013132Y010505D02*
X002953Y010505D01*
X002906Y010426D02*
X013132Y010426D01*
X013132Y010348D02*
X002827Y010348D01*
X002915Y010897D02*
X013132Y010897D01*
X013132Y010976D02*
X002836Y010976D01*
X001381Y010976D02*
X000580Y010976D01*
X000580Y011054D02*
X013132Y011054D01*
X013132Y011133D02*
X000580Y011133D01*
X000580Y011211D02*
X013132Y011211D01*
X013132Y012075D02*
X000580Y012075D01*
X000580Y012153D02*
X013132Y012153D01*
X013132Y013174D02*
X000580Y013174D01*
X000580Y013252D02*
X013132Y013252D01*
X013163Y010269D02*
X000580Y010269D01*
X000580Y010191D02*
X013242Y010191D01*
X014262Y009170D02*
X000580Y009170D01*
X000580Y009092D02*
X014341Y009092D01*
X014419Y009013D02*
X002764Y009013D01*
X002824Y008988D02*
X002684Y009046D01*
X002533Y009046D01*
X002393Y008988D01*
X002286Y008881D01*
X002229Y008742D01*
X002229Y008591D01*
X002286Y008451D01*
X002393Y008344D01*
X002533Y008286D01*
X002684Y008286D01*
X002824Y008344D01*
X002931Y008451D01*
X002989Y008591D01*
X002989Y008742D01*
X002931Y008881D01*
X002824Y008988D01*
X002877Y008935D02*
X014498Y008935D01*
X014576Y008856D02*
X002941Y008856D01*
X002974Y008778D02*
X014655Y008778D01*
X014733Y008699D02*
X002989Y008699D01*
X002989Y008621D02*
X014812Y008621D01*
X014890Y008542D02*
X002968Y008542D01*
X002936Y008464D02*
X014969Y008464D01*
X015022Y008385D02*
X002865Y008385D01*
X002733Y008307D02*
X015022Y008307D01*
X015022Y008228D02*
X000580Y008228D01*
X000580Y008150D02*
X015022Y008150D01*
X015022Y008071D02*
X000580Y008071D01*
X001733Y008307D02*
X002484Y008307D01*
X002352Y008385D02*
X001865Y008385D01*
X001936Y008464D02*
X002281Y008464D01*
X002249Y008542D02*
X001968Y008542D01*
X001989Y008621D02*
X002229Y008621D01*
X002229Y008699D02*
X001989Y008699D01*
X001974Y008778D02*
X002243Y008778D01*
X002276Y008856D02*
X001941Y008856D01*
X001877Y008935D02*
X002340Y008935D01*
X002453Y009013D02*
X001764Y009013D01*
X002393Y007988D02*
X002533Y008046D01*
X002684Y008046D01*
X002824Y007988D01*
X002931Y007881D01*
X002989Y007742D01*
X002989Y007591D01*
X002931Y007451D01*
X002824Y007344D01*
X002684Y007286D01*
X002533Y007286D01*
X002393Y007344D01*
X002286Y007451D01*
X002229Y007591D01*
X002229Y007742D01*
X002286Y007881D01*
X002393Y007988D01*
X002404Y007993D02*
X001813Y007993D01*
X001898Y007914D02*
X002319Y007914D01*
X002267Y007836D02*
X001950Y007836D01*
X001982Y007757D02*
X002235Y007757D01*
X002229Y007679D02*
X001989Y007679D01*
X001989Y007600D02*
X002229Y007600D01*
X002257Y007522D02*
X001960Y007522D01*
X001923Y007443D02*
X002294Y007443D01*
X002373Y007365D02*
X001844Y007365D01*
X001840Y006972D02*
X002377Y006972D01*
X002299Y006894D02*
X001919Y006894D01*
X001958Y006815D02*
X002259Y006815D01*
X002229Y006737D02*
X001989Y006737D01*
X001989Y006658D02*
X002229Y006658D01*
X002233Y006580D02*
X001984Y006580D01*
X001951Y006501D02*
X002266Y006501D01*
X002315Y006423D02*
X001902Y006423D01*
X001824Y006344D02*
X001684Y006286D01*
X001533Y006286D01*
X001393Y006344D01*
X002393Y006344D02*
X002533Y006286D01*
X002684Y006286D01*
X002824Y006344D01*
X002902Y006423D02*
X015022Y006423D01*
X015022Y006501D02*
X002951Y006501D01*
X002984Y006580D02*
X015022Y006580D01*
X015022Y006658D02*
X002989Y006658D01*
X002989Y006737D02*
X015022Y006737D01*
X015022Y006815D02*
X002958Y006815D01*
X002919Y006894D02*
X015022Y006894D01*
X015022Y006972D02*
X002840Y006972D01*
X002844Y007365D02*
X015022Y007365D01*
X015022Y007443D02*
X002923Y007443D01*
X002960Y007522D02*
X015022Y007522D01*
X015022Y007600D02*
X002989Y007600D01*
X002989Y007679D02*
X015022Y007679D01*
X015022Y007757D02*
X002982Y007757D01*
X002950Y007836D02*
X015022Y007836D01*
X015022Y007914D02*
X002898Y007914D01*
X002813Y007993D02*
X015022Y007993D01*
X015179Y007914D02*
X032858Y007914D01*
X032781Y007836D02*
X015179Y007836D01*
X015179Y007757D02*
X032749Y007757D01*
X032725Y007679D02*
X015179Y007679D01*
X015179Y007600D02*
X032725Y007600D01*
X032735Y007522D02*
X015179Y007522D01*
X015179Y007443D02*
X032768Y007443D01*
X032825Y007365D02*
X015179Y007365D01*
X015179Y007129D02*
X035133Y007129D01*
X035133Y007051D02*
X015179Y007051D01*
X015179Y006187D02*
X035133Y006187D01*
X035133Y006109D02*
X015179Y006109D01*
X015179Y006030D02*
X035133Y006030D01*
X035133Y005952D02*
X015179Y005952D01*
X015179Y005873D02*
X035133Y005873D01*
X035133Y005795D02*
X015179Y005795D01*
X015179Y005716D02*
X035133Y005716D01*
X035133Y005638D02*
X015179Y005638D01*
X015179Y005559D02*
X035133Y005559D01*
X035133Y005481D02*
X015179Y005481D01*
X015179Y005402D02*
X035133Y005402D01*
X035133Y005324D02*
X015179Y005324D01*
X015179Y005245D02*
X035133Y005245D01*
X035133Y005167D02*
X015179Y005167D01*
X015179Y005088D02*
X035133Y005088D01*
X035133Y005010D02*
X015179Y005010D01*
X015179Y004931D02*
X035133Y004931D01*
X035133Y004853D02*
X033813Y004853D01*
X033840Y004844D02*
X033748Y004874D01*
X033653Y004889D01*
X033645Y004889D01*
X033645Y004316D01*
X034217Y004316D01*
X034217Y004325D01*
X034202Y004420D01*
X034172Y004511D01*
X034128Y004597D01*
X034072Y004675D01*
X034004Y004744D01*
X033926Y004800D01*
X033840Y004844D01*
X033962Y004774D02*
X035133Y004774D01*
X035133Y004696D02*
X034052Y004696D01*
X034114Y004617D02*
X035133Y004617D01*
X035133Y004539D02*
X034158Y004539D01*
X034189Y004460D02*
X035133Y004460D01*
X035133Y004382D02*
X034208Y004382D01*
X034217Y004236D02*
X033645Y004236D01*
X033645Y004316D01*
X033565Y004316D01*
X033565Y004236D01*
X033645Y004236D01*
X033645Y003664D01*
X033653Y003664D01*
X033748Y003679D01*
X033840Y003709D01*
X033926Y003753D01*
X034004Y003809D01*
X034072Y003877D01*
X034128Y003955D01*
X034172Y004041D01*
X034202Y004133D01*
X034217Y004228D01*
X034217Y004236D01*
X034216Y004225D02*
X035133Y004225D01*
X035133Y004303D02*
X033645Y004303D01*
X033645Y004225D02*
X033565Y004225D01*
X033565Y004236D02*
X033565Y003664D01*
X033556Y003664D01*
X033461Y003679D01*
X033369Y003709D01*
X033284Y003753D01*
X033206Y003809D01*
X033137Y003877D01*
X033081Y003955D01*
X033037Y004041D01*
X033007Y004133D01*
X032992Y004228D01*
X032992Y004236D01*
X033565Y004236D01*
X033565Y004303D02*
X028078Y004303D01*
X028000Y004382D02*
X033001Y004382D01*
X033007Y004420D02*
X032992Y004325D01*
X032992Y004316D01*
X033565Y004316D01*
X033565Y004889D01*
X033556Y004889D01*
X033461Y004874D01*
X033369Y004844D01*
X033284Y004800D01*
X033206Y004744D01*
X033137Y004675D01*
X033081Y004597D01*
X033037Y004511D01*
X033007Y004420D01*
X033020Y004460D02*
X027921Y004460D01*
X027843Y004539D02*
X033051Y004539D01*
X033095Y004617D02*
X026038Y004617D01*
X025927Y004473D02*
X027738Y004473D01*
X029077Y003135D01*
X029077Y002127D01*
X028561Y001611D01*
X028213Y001763D02*
X028239Y001826D01*
X028346Y001933D01*
X028486Y001991D01*
X028637Y001991D01*
X028732Y001952D01*
X028957Y002176D01*
X028957Y003085D01*
X027689Y004353D01*
X027241Y004353D01*
X027307Y004287D01*
X028213Y003381D01*
X028213Y002763D01*
X028239Y002826D01*
X028346Y002933D01*
X028486Y002991D01*
X028637Y002991D01*
X028777Y002933D01*
X028883Y002826D01*
X028941Y002687D01*
X028941Y002535D01*
X028883Y002396D01*
X028777Y002289D01*
X028637Y002231D01*
X028486Y002231D01*
X028346Y002289D01*
X028239Y002396D01*
X028213Y002459D01*
X028213Y001763D01*
X028213Y001791D02*
X028225Y001791D01*
X028213Y001870D02*
X028282Y001870D01*
X028213Y001948D02*
X028382Y001948D01*
X028213Y002027D02*
X028807Y002027D01*
X028886Y002105D02*
X028213Y002105D01*
X028213Y002184D02*
X028957Y002184D01*
X028957Y002262D02*
X028712Y002262D01*
X028828Y002341D02*
X028957Y002341D01*
X028957Y002419D02*
X028893Y002419D01*
X028926Y002498D02*
X028957Y002498D01*
X028957Y002576D02*
X028941Y002576D01*
X028941Y002655D02*
X028957Y002655D01*
X028957Y002733D02*
X028922Y002733D01*
X028890Y002812D02*
X028957Y002812D01*
X028957Y002890D02*
X028820Y002890D01*
X028691Y002969D02*
X028957Y002969D01*
X028957Y003047D02*
X028213Y003047D01*
X028213Y002969D02*
X028431Y002969D01*
X028303Y002890D02*
X028213Y002890D01*
X028213Y002812D02*
X028233Y002812D01*
X028213Y003126D02*
X028916Y003126D01*
X028838Y003204D02*
X028213Y003204D01*
X028213Y003283D02*
X028759Y003283D01*
X028681Y003361D02*
X028213Y003361D01*
X028154Y003440D02*
X028602Y003440D01*
X028524Y003518D02*
X028076Y003518D01*
X027997Y003597D02*
X028445Y003597D01*
X028367Y003675D02*
X027919Y003675D01*
X027840Y003754D02*
X028288Y003754D01*
X028210Y003832D02*
X027762Y003832D01*
X027683Y003911D02*
X028131Y003911D01*
X028053Y003989D02*
X027605Y003989D01*
X027526Y004068D02*
X027974Y004068D01*
X027896Y004146D02*
X027448Y004146D01*
X027369Y004225D02*
X027817Y004225D01*
X027739Y004303D02*
X027291Y004303D01*
X027187Y004237D02*
X025770Y004237D01*
X025534Y004473D01*
X025354Y004460D02*
X025323Y004460D01*
X025320Y004539D02*
X025354Y004539D01*
X025423Y004617D02*
X025251Y004617D01*
X025140Y004473D02*
X025612Y004001D01*
X027069Y004001D01*
X027817Y003253D01*
X027817Y001284D01*
X028211Y000891D01*
X029841Y000891D01*
X030561Y001611D01*
X030205Y001477D02*
X029917Y001477D01*
X029941Y001556D02*
X030181Y001556D01*
X030181Y001634D02*
X029941Y001634D01*
X029931Y001713D02*
X030192Y001713D01*
X030225Y001791D02*
X029898Y001791D01*
X029840Y001870D02*
X030282Y001870D01*
X030382Y001948D02*
X029741Y001948D01*
X029382Y001948D02*
X029068Y001948D01*
X029146Y002027D02*
X032515Y002027D01*
X032515Y001968D02*
X032589Y001690D01*
X032733Y001442D01*
X032936Y001239D01*
X033184Y001096D01*
X033461Y001021D01*
X033748Y001021D01*
X034025Y001096D01*
X034274Y001239D01*
X034476Y001442D01*
X034620Y001690D01*
X034694Y001968D01*
X034694Y002254D01*
X034620Y002532D01*
X034476Y002780D01*
X034274Y002983D01*
X034025Y003126D01*
X033748Y003201D01*
X033461Y003201D01*
X033184Y003126D01*
X032936Y002983D01*
X032733Y002780D01*
X032589Y002532D01*
X032515Y002254D01*
X032515Y001968D01*
X032520Y001948D02*
X031741Y001948D01*
X031840Y001870D02*
X032541Y001870D01*
X032562Y001791D02*
X031898Y001791D01*
X031931Y001713D02*
X032583Y001713D01*
X032622Y001634D02*
X031941Y001634D01*
X031941Y001556D02*
X032667Y001556D01*
X032712Y001477D02*
X031917Y001477D01*
X031885Y001399D02*
X032776Y001399D01*
X032855Y001320D02*
X031808Y001320D01*
X031662Y001242D02*
X032933Y001242D01*
X033067Y001163D02*
X031283Y001163D01*
X031361Y001242D02*
X031460Y001242D01*
X031204Y001085D02*
X033226Y001085D01*
X033984Y001085D02*
X035133Y001085D01*
X035133Y001163D02*
X034142Y001163D01*
X034276Y001242D02*
X035133Y001242D01*
X035133Y001320D02*
X034355Y001320D01*
X034433Y001399D02*
X035133Y001399D01*
X035133Y001477D02*
X034497Y001477D01*
X034542Y001556D02*
X035133Y001556D01*
X035133Y001634D02*
X034587Y001634D01*
X034626Y001713D02*
X035133Y001713D01*
X035133Y001791D02*
X034647Y001791D01*
X034668Y001870D02*
X035133Y001870D01*
X035133Y001948D02*
X034689Y001948D01*
X034694Y002027D02*
X035133Y002027D01*
X035133Y002105D02*
X034694Y002105D01*
X034694Y002184D02*
X035133Y002184D01*
X035133Y002262D02*
X034692Y002262D01*
X034671Y002341D02*
X035133Y002341D01*
X035133Y002419D02*
X034650Y002419D01*
X034629Y002498D02*
X035133Y002498D01*
X035133Y002576D02*
X034594Y002576D01*
X034549Y002655D02*
X035133Y002655D01*
X035133Y002733D02*
X034504Y002733D01*
X034445Y002812D02*
X035133Y002812D01*
X035133Y002890D02*
X034366Y002890D01*
X034288Y002969D02*
X035133Y002969D01*
X035133Y003047D02*
X034163Y003047D01*
X034027Y003126D02*
X035133Y003126D01*
X035133Y003204D02*
X029177Y003204D01*
X029197Y003126D02*
X033183Y003126D01*
X033047Y003047D02*
X029197Y003047D01*
X029197Y002969D02*
X029431Y002969D01*
X029303Y002890D02*
X029197Y002890D01*
X029197Y002812D02*
X029233Y002812D01*
X029200Y002733D02*
X029197Y002733D01*
X029197Y002419D02*
X029229Y002419D01*
X029197Y002341D02*
X029294Y002341D01*
X029197Y002262D02*
X029411Y002262D01*
X029197Y002184D02*
X032515Y002184D01*
X032517Y002262D02*
X031712Y002262D01*
X031777Y002289D02*
X031883Y002396D01*
X031941Y002535D01*
X031941Y002687D01*
X031883Y002826D01*
X031777Y002933D01*
X031637Y002991D01*
X031486Y002991D01*
X031346Y002933D01*
X031239Y002826D01*
X031181Y002687D01*
X031181Y002535D01*
X031239Y002396D01*
X031346Y002289D01*
X031486Y002231D01*
X031637Y002231D01*
X031777Y002289D01*
X031828Y002341D02*
X032538Y002341D01*
X032559Y002419D02*
X031893Y002419D01*
X031926Y002498D02*
X032580Y002498D01*
X032615Y002576D02*
X031941Y002576D01*
X031941Y002655D02*
X032660Y002655D01*
X032706Y002733D02*
X031922Y002733D01*
X031890Y002812D02*
X032764Y002812D01*
X032843Y002890D02*
X031820Y002890D01*
X031691Y002969D02*
X032921Y002969D01*
X033282Y003754D02*
X028628Y003754D01*
X028549Y003832D02*
X033183Y003832D01*
X033113Y003911D02*
X028471Y003911D01*
X028392Y003989D02*
X033064Y003989D01*
X033028Y004068D02*
X028314Y004068D01*
X028235Y004146D02*
X033005Y004146D01*
X032993Y004225D02*
X028157Y004225D01*
X028706Y003675D02*
X033486Y003675D01*
X033565Y003675D02*
X033645Y003675D01*
X033723Y003675D02*
X035133Y003675D01*
X035133Y003597D02*
X028785Y003597D01*
X028863Y003518D02*
X035133Y003518D01*
X035133Y003440D02*
X028942Y003440D01*
X029020Y003361D02*
X035133Y003361D01*
X035133Y003283D02*
X029099Y003283D01*
X029691Y002969D02*
X030431Y002969D01*
X030486Y002991D02*
X030346Y002933D01*
X030239Y002826D01*
X030181Y002687D01*
X030181Y002535D01*
X030239Y002396D01*
X030346Y002289D01*
X030486Y002231D01*
X030637Y002231D01*
X030777Y002289D01*
X030883Y002396D01*
X030941Y002535D01*
X030941Y002687D01*
X030883Y002826D01*
X030777Y002933D01*
X030637Y002991D01*
X030486Y002991D01*
X030691Y002969D02*
X031431Y002969D01*
X031303Y002890D02*
X030820Y002890D01*
X030890Y002812D02*
X031233Y002812D01*
X031200Y002733D02*
X030922Y002733D01*
X030941Y002655D02*
X031181Y002655D01*
X031181Y002576D02*
X030941Y002576D01*
X030926Y002498D02*
X031197Y002498D01*
X031229Y002419D02*
X030893Y002419D01*
X030828Y002341D02*
X031294Y002341D01*
X031411Y002262D02*
X030712Y002262D01*
X030411Y002262D02*
X029712Y002262D01*
X029828Y002341D02*
X030294Y002341D01*
X030229Y002419D02*
X029893Y002419D01*
X029926Y002498D02*
X030197Y002498D01*
X030181Y002576D02*
X029941Y002576D01*
X029941Y002655D02*
X030181Y002655D01*
X030200Y002733D02*
X029922Y002733D01*
X029890Y002812D02*
X030233Y002812D01*
X030303Y002890D02*
X029820Y002890D01*
X029197Y002105D02*
X032515Y002105D01*
X031561Y001611D02*
X030605Y000654D01*
X028053Y000654D01*
X027542Y001166D01*
X027542Y003174D01*
X026951Y003765D01*
X025455Y003765D01*
X024746Y004473D01*
X024566Y004460D02*
X024533Y004460D01*
X024533Y004399D02*
X024427Y004293D01*
X024278Y004293D01*
X024173Y004399D01*
X024173Y004548D01*
X024278Y004653D01*
X024427Y004653D01*
X024533Y004548D01*
X024533Y004399D01*
X024515Y004382D02*
X024583Y004382D01*
X024662Y004303D02*
X024437Y004303D01*
X024268Y004303D02*
X024043Y004303D01*
X024033Y004293D02*
X024139Y004399D01*
X024139Y004548D01*
X024033Y004653D01*
X023884Y004653D01*
X023779Y004548D01*
X023779Y004399D01*
X023884Y004293D01*
X024033Y004293D01*
X024122Y004382D02*
X024190Y004382D01*
X024173Y004460D02*
X024139Y004460D01*
X024139Y004539D02*
X024173Y004539D01*
X024242Y004617D02*
X024070Y004617D01*
X023848Y004617D02*
X023676Y004617D01*
X023640Y004653D02*
X023491Y004653D01*
X023385Y004548D01*
X023385Y004399D01*
X023491Y004293D01*
X023640Y004293D01*
X023745Y004399D01*
X023745Y004548D01*
X023640Y004653D01*
X023745Y004539D02*
X023779Y004539D01*
X023779Y004460D02*
X023745Y004460D01*
X023728Y004382D02*
X023796Y004382D01*
X023875Y004303D02*
X023650Y004303D01*
X023481Y004303D02*
X023256Y004303D01*
X023246Y004293D02*
X023351Y004399D01*
X023351Y004548D01*
X023246Y004653D01*
X023097Y004653D01*
X022991Y004548D01*
X022991Y004399D01*
X023097Y004293D01*
X023246Y004293D01*
X023334Y004382D02*
X023402Y004382D01*
X023385Y004460D02*
X023351Y004460D01*
X023351Y004539D02*
X023385Y004539D01*
X023454Y004617D02*
X023282Y004617D01*
X023061Y004617D02*
X022889Y004617D01*
X022852Y004653D02*
X022958Y004548D01*
X022958Y004399D01*
X022852Y004293D01*
X022703Y004293D01*
X022598Y004399D01*
X022598Y004548D01*
X022703Y004653D01*
X022852Y004653D01*
X022958Y004539D02*
X022991Y004539D01*
X022991Y004460D02*
X022958Y004460D01*
X022941Y004382D02*
X023009Y004382D01*
X023087Y004303D02*
X022862Y004303D01*
X022693Y004303D02*
X022468Y004303D01*
X022459Y004293D02*
X022564Y004399D01*
X022564Y004548D01*
X022459Y004653D01*
X022310Y004653D01*
X022204Y004548D01*
X022204Y004399D01*
X022310Y004293D01*
X022459Y004293D01*
X022547Y004382D02*
X022615Y004382D01*
X022598Y004460D02*
X022564Y004460D01*
X022564Y004539D02*
X022598Y004539D01*
X022667Y004617D02*
X022495Y004617D01*
X022273Y004617D02*
X022101Y004617D01*
X022065Y004653D02*
X021916Y004653D01*
X021810Y004548D01*
X021810Y004399D01*
X021916Y004293D01*
X022065Y004293D01*
X022170Y004399D01*
X022170Y004548D01*
X022065Y004653D01*
X022170Y004539D02*
X022204Y004539D01*
X022204Y004460D02*
X022170Y004460D01*
X022153Y004382D02*
X022221Y004382D01*
X022300Y004303D02*
X022075Y004303D01*
X021906Y004303D02*
X021681Y004303D01*
X021671Y004293D02*
X021777Y004399D01*
X021777Y004548D01*
X021671Y004653D01*
X021522Y004653D01*
X021417Y004548D01*
X021417Y004399D01*
X021522Y004293D01*
X021671Y004293D01*
X021760Y004382D02*
X021828Y004382D01*
X021810Y004460D02*
X021777Y004460D01*
X021777Y004539D02*
X021810Y004539D01*
X021880Y004617D02*
X021707Y004617D01*
X021486Y004617D02*
X021314Y004617D01*
X021278Y004653D02*
X021128Y004653D01*
X021023Y004548D01*
X021023Y004399D01*
X021128Y004293D01*
X021278Y004293D01*
X021383Y004399D01*
X021383Y004548D01*
X021278Y004653D01*
X021383Y004539D02*
X021417Y004539D01*
X021417Y004460D02*
X021383Y004460D01*
X021366Y004382D02*
X021434Y004382D01*
X021512Y004303D02*
X021287Y004303D01*
X021119Y004303D02*
X020894Y004303D01*
X020884Y004293D02*
X020989Y004399D01*
X020989Y004548D01*
X020884Y004653D01*
X020735Y004653D01*
X020629Y004548D01*
X020629Y004399D01*
X020735Y004293D01*
X020884Y004293D01*
X020972Y004382D02*
X021040Y004382D01*
X021023Y004460D02*
X020989Y004460D01*
X020989Y004539D02*
X021023Y004539D01*
X021092Y004617D02*
X020920Y004617D01*
X020699Y004617D02*
X020526Y004617D01*
X020490Y004653D02*
X020341Y004653D01*
X020236Y004548D01*
X020236Y004399D01*
X020341Y004293D01*
X020490Y004293D01*
X020596Y004399D01*
X020596Y004548D01*
X020490Y004653D01*
X020596Y004539D02*
X020629Y004539D01*
X020629Y004460D02*
X020596Y004460D01*
X020578Y004382D02*
X020646Y004382D01*
X020725Y004303D02*
X020500Y004303D01*
X020331Y004303D02*
X020106Y004303D01*
X020096Y004293D02*
X020202Y004399D01*
X020202Y004548D01*
X020096Y004653D01*
X019947Y004653D01*
X019842Y004548D01*
X019842Y004399D01*
X019947Y004293D01*
X020096Y004293D01*
X020185Y004382D02*
X020253Y004382D01*
X020236Y004460D02*
X020202Y004460D01*
X020202Y004539D02*
X020236Y004539D01*
X020305Y004617D02*
X020133Y004617D01*
X019911Y004617D02*
X019739Y004617D01*
X019703Y004653D02*
X019554Y004653D01*
X019448Y004548D01*
X019448Y004399D01*
X019554Y004293D01*
X019703Y004293D01*
X019808Y004399D01*
X019808Y004548D01*
X019703Y004653D01*
X019808Y004539D02*
X019842Y004539D01*
X019842Y004460D02*
X019808Y004460D01*
X019791Y004382D02*
X019859Y004382D01*
X019938Y004303D02*
X019713Y004303D01*
X019544Y004303D02*
X019319Y004303D01*
X019309Y004293D02*
X019414Y004399D01*
X019414Y004548D01*
X019309Y004653D01*
X019160Y004653D01*
X019054Y004548D01*
X019054Y004399D01*
X019160Y004293D01*
X019309Y004293D01*
X019397Y004382D02*
X019465Y004382D01*
X019448Y004460D02*
X019414Y004460D01*
X019414Y004539D02*
X019448Y004539D01*
X019517Y004617D02*
X019345Y004617D01*
X019124Y004617D02*
X018952Y004617D01*
X018915Y004653D02*
X019021Y004548D01*
X019021Y004399D01*
X018915Y004293D01*
X018766Y004293D01*
X018661Y004399D01*
X018661Y004548D01*
X018766Y004653D01*
X018915Y004653D01*
X019021Y004539D02*
X019054Y004539D01*
X019054Y004460D02*
X019021Y004460D01*
X019004Y004382D02*
X019072Y004382D01*
X019150Y004303D02*
X018925Y004303D01*
X018756Y004303D02*
X018531Y004303D01*
X018522Y004293D02*
X018627Y004399D01*
X018627Y004548D01*
X018522Y004653D01*
X018373Y004653D01*
X018267Y004548D01*
X018267Y004399D01*
X018373Y004293D01*
X018522Y004293D01*
X018610Y004382D02*
X018678Y004382D01*
X018661Y004460D02*
X018627Y004460D01*
X018627Y004539D02*
X018661Y004539D01*
X018730Y004617D02*
X018558Y004617D01*
X018336Y004617D02*
X018164Y004617D01*
X018128Y004653D02*
X017979Y004653D01*
X017873Y004548D01*
X017873Y004399D01*
X017979Y004293D01*
X018128Y004293D01*
X018233Y004399D01*
X018233Y004548D01*
X018128Y004653D01*
X018233Y004539D02*
X018267Y004539D01*
X018267Y004460D02*
X018233Y004460D01*
X018216Y004382D02*
X018284Y004382D01*
X018363Y004303D02*
X018138Y004303D01*
X017969Y004303D02*
X017744Y004303D01*
X017734Y004293D02*
X017840Y004399D01*
X017840Y004548D01*
X017734Y004653D01*
X017585Y004653D01*
X017480Y004548D01*
X017480Y004399D01*
X017585Y004293D01*
X017734Y004293D01*
X017823Y004382D02*
X017891Y004382D01*
X017873Y004460D02*
X017840Y004460D01*
X017840Y004539D02*
X017873Y004539D01*
X017943Y004617D02*
X017770Y004617D01*
X017549Y004617D02*
X017377Y004617D01*
X017341Y004653D02*
X017191Y004653D01*
X017086Y004548D01*
X017086Y004399D01*
X017191Y004293D01*
X017341Y004293D01*
X017446Y004399D01*
X017446Y004548D01*
X017341Y004653D01*
X017446Y004539D02*
X017480Y004539D01*
X017480Y004460D02*
X017446Y004460D01*
X017429Y004382D02*
X017497Y004382D01*
X017575Y004303D02*
X017350Y004303D01*
X017182Y004303D02*
X016957Y004303D01*
X016947Y004293D02*
X017052Y004399D01*
X017052Y004548D01*
X016947Y004653D01*
X016798Y004653D01*
X016692Y004548D01*
X016692Y004399D01*
X016798Y004293D01*
X016947Y004293D01*
X017035Y004382D02*
X017103Y004382D01*
X017086Y004460D02*
X017052Y004460D01*
X017052Y004539D02*
X017086Y004539D01*
X017155Y004617D02*
X016983Y004617D01*
X016762Y004617D02*
X016589Y004617D01*
X016553Y004653D02*
X016404Y004653D01*
X016299Y004548D01*
X016299Y004399D01*
X016404Y004293D01*
X016553Y004293D01*
X016659Y004399D01*
X016659Y004548D01*
X016553Y004653D01*
X016659Y004539D02*
X016692Y004539D01*
X016692Y004460D02*
X016659Y004460D01*
X016641Y004382D02*
X016709Y004382D01*
X016788Y004303D02*
X016563Y004303D01*
X016394Y004303D02*
X016169Y004303D01*
X016159Y004293D02*
X016265Y004399D01*
X016265Y004548D01*
X016159Y004653D01*
X016010Y004653D01*
X015905Y004548D01*
X015905Y004399D01*
X016010Y004293D01*
X016159Y004293D01*
X016248Y004382D02*
X016316Y004382D01*
X016299Y004460D02*
X016265Y004460D01*
X016265Y004539D02*
X016299Y004539D01*
X016368Y004617D02*
X016196Y004617D01*
X015974Y004617D02*
X015802Y004617D01*
X015766Y004653D02*
X015617Y004653D01*
X015511Y004548D01*
X015511Y004399D01*
X015617Y004293D01*
X015766Y004293D01*
X015871Y004399D01*
X015871Y004548D01*
X015766Y004653D01*
X015871Y004539D02*
X015905Y004539D01*
X015905Y004460D02*
X015871Y004460D01*
X015854Y004382D02*
X015922Y004382D01*
X016001Y004303D02*
X015776Y004303D01*
X015607Y004303D02*
X015382Y004303D01*
X015460Y004382D02*
X015528Y004382D01*
X015511Y004460D02*
X015477Y004460D01*
X015477Y004539D02*
X015511Y004539D01*
X015580Y004617D02*
X015408Y004617D01*
X015187Y004617D02*
X015179Y004617D01*
X015179Y004696D02*
X033158Y004696D01*
X033247Y004774D02*
X015179Y004774D01*
X015179Y004853D02*
X033396Y004853D01*
X033565Y004853D02*
X033645Y004853D01*
X033645Y004774D02*
X033565Y004774D01*
X033565Y004696D02*
X033645Y004696D01*
X033645Y004617D02*
X033565Y004617D01*
X033565Y004539D02*
X033645Y004539D01*
X033645Y004460D02*
X033565Y004460D01*
X033565Y004382D02*
X033645Y004382D01*
X033645Y004146D02*
X033565Y004146D01*
X033565Y004068D02*
X033645Y004068D01*
X033645Y003989D02*
X033565Y003989D01*
X033565Y003911D02*
X033645Y003911D01*
X033645Y003832D02*
X033565Y003832D01*
X033565Y003754D02*
X033645Y003754D01*
X033927Y003754D02*
X035133Y003754D01*
X035133Y003832D02*
X034026Y003832D01*
X034096Y003911D02*
X035133Y003911D01*
X035133Y003989D02*
X034146Y003989D01*
X034181Y004068D02*
X035133Y004068D01*
X035133Y004146D02*
X034204Y004146D01*
X034235Y006266D02*
X035133Y006266D01*
X035133Y006344D02*
X034363Y006344D01*
X034433Y006423D02*
X035133Y006423D01*
X035133Y006501D02*
X034465Y006501D01*
X034485Y006580D02*
X035133Y006580D01*
X035133Y006658D02*
X034485Y006658D01*
X034469Y006737D02*
X035133Y006737D01*
X035133Y006815D02*
X034436Y006815D01*
X034371Y006894D02*
X035133Y006894D01*
X035133Y006972D02*
X034254Y006972D01*
X028093Y003331D02*
X027187Y004237D01*
X026949Y003597D02*
X026781Y003597D01*
X026739Y003614D02*
X026454Y003614D01*
X026191Y003505D01*
X025990Y003304D01*
X025881Y003041D01*
X025881Y002756D01*
X025990Y002493D01*
X026191Y002292D01*
X026454Y002183D01*
X026739Y002183D01*
X027002Y002292D01*
X027203Y002493D01*
X027312Y002756D01*
X027312Y003041D01*
X027203Y003304D01*
X027002Y003505D01*
X026739Y003614D01*
X026971Y003518D02*
X027028Y003518D01*
X027068Y003440D02*
X027106Y003440D01*
X027146Y003361D02*
X027185Y003361D01*
X027212Y003283D02*
X027263Y003283D01*
X027245Y003204D02*
X027342Y003204D01*
X027277Y003126D02*
X027420Y003126D01*
X027422Y003047D02*
X027310Y003047D01*
X027312Y002969D02*
X027422Y002969D01*
X027422Y002890D02*
X027312Y002890D01*
X027312Y002812D02*
X027422Y002812D01*
X027422Y002733D02*
X027303Y002733D01*
X027270Y002655D02*
X027422Y002655D01*
X027422Y002576D02*
X027238Y002576D01*
X027205Y002498D02*
X027422Y002498D01*
X027422Y002419D02*
X027129Y002419D01*
X027051Y002341D02*
X027422Y002341D01*
X027422Y002262D02*
X026930Y002262D01*
X026741Y002184D02*
X027422Y002184D01*
X027422Y002105D02*
X015179Y002105D01*
X015179Y002027D02*
X027422Y002027D01*
X027422Y001948D02*
X015179Y001948D01*
X015179Y001870D02*
X027422Y001870D01*
X027422Y001791D02*
X015179Y001791D01*
X015179Y001713D02*
X027422Y001713D01*
X027422Y001634D02*
X015179Y001634D01*
X015179Y001556D02*
X027422Y001556D01*
X027422Y001477D02*
X026029Y001477D01*
X026002Y001504D02*
X025853Y001504D01*
X025747Y001398D01*
X025747Y001249D01*
X025853Y001144D01*
X026002Y001144D01*
X026107Y001249D01*
X026107Y001398D01*
X026002Y001504D01*
X026107Y001399D02*
X027422Y001399D01*
X027422Y001320D02*
X026107Y001320D01*
X026100Y001242D02*
X027422Y001242D01*
X027422Y001163D02*
X026021Y001163D01*
X025833Y001163D02*
X025628Y001163D01*
X025608Y001144D02*
X025714Y001249D01*
X025714Y001398D01*
X025608Y001504D01*
X025459Y001504D01*
X025354Y001398D01*
X025354Y001249D01*
X025459Y001144D01*
X025608Y001144D01*
X025706Y001242D02*
X025755Y001242D01*
X025747Y001320D02*
X025714Y001320D01*
X025713Y001399D02*
X025748Y001399D01*
X025826Y001477D02*
X025635Y001477D01*
X025433Y001477D02*
X025241Y001477D01*
X025215Y001504D02*
X025065Y001504D01*
X024960Y001398D01*
X024960Y001249D01*
X025065Y001144D01*
X025215Y001144D01*
X025320Y001249D01*
X025320Y001398D01*
X025215Y001504D01*
X025320Y001399D02*
X025354Y001399D01*
X025354Y001320D02*
X025320Y001320D01*
X025312Y001242D02*
X025361Y001242D01*
X025440Y001163D02*
X025234Y001163D01*
X025046Y001163D02*
X024840Y001163D01*
X024821Y001144D02*
X024926Y001249D01*
X024926Y001398D01*
X024821Y001504D01*
X024672Y001504D01*
X024566Y001398D01*
X024566Y001249D01*
X024672Y001144D01*
X024821Y001144D01*
X024919Y001242D02*
X024968Y001242D01*
X024960Y001320D02*
X024926Y001320D01*
X024926Y001399D02*
X024960Y001399D01*
X025039Y001477D02*
X024847Y001477D01*
X024645Y001477D02*
X024454Y001477D01*
X024427Y001504D02*
X024278Y001504D01*
X024173Y001398D01*
X024173Y001249D01*
X024278Y001144D01*
X024427Y001144D01*
X024533Y001249D01*
X024533Y001398D01*
X024427Y001504D01*
X024532Y001399D02*
X024567Y001399D01*
X024566Y001320D02*
X024533Y001320D01*
X024525Y001242D02*
X024574Y001242D01*
X024652Y001163D02*
X024447Y001163D01*
X024259Y001163D02*
X024053Y001163D01*
X024033Y001144D02*
X024139Y001249D01*
X024139Y001398D01*
X024033Y001504D01*
X023884Y001504D01*
X023779Y001398D01*
X023779Y001249D01*
X023884Y001144D01*
X024033Y001144D01*
X024131Y001242D02*
X024180Y001242D01*
X024173Y001320D02*
X024139Y001320D01*
X024139Y001399D02*
X024173Y001399D01*
X024251Y001477D02*
X024060Y001477D01*
X023858Y001477D02*
X023666Y001477D01*
X023640Y001504D02*
X023491Y001504D01*
X023385Y001398D01*
X023385Y001249D01*
X023491Y001144D01*
X023640Y001144D01*
X023745Y001249D01*
X023745Y001398D01*
X023640Y001504D01*
X023745Y001399D02*
X023779Y001399D01*
X023779Y001320D02*
X023745Y001320D01*
X023738Y001242D02*
X023786Y001242D01*
X023865Y001163D02*
X023659Y001163D01*
X023471Y001163D02*
X023265Y001163D01*
X023246Y001144D02*
X023351Y001249D01*
X023351Y001398D01*
X023246Y001504D01*
X023097Y001504D01*
X022991Y001398D01*
X022991Y001249D01*
X023097Y001144D01*
X023246Y001144D01*
X023344Y001242D02*
X023393Y001242D01*
X023385Y001320D02*
X023351Y001320D01*
X023351Y001399D02*
X023386Y001399D01*
X023464Y001477D02*
X023273Y001477D01*
X023070Y001477D02*
X022879Y001477D01*
X022852Y001504D02*
X022958Y001398D01*
X022958Y001249D01*
X022852Y001144D01*
X022703Y001144D01*
X022598Y001249D01*
X022598Y001398D01*
X022703Y001504D01*
X022852Y001504D01*
X022957Y001399D02*
X022992Y001399D01*
X022991Y001320D02*
X022958Y001320D01*
X022950Y001242D02*
X022999Y001242D01*
X023078Y001163D02*
X022872Y001163D01*
X022684Y001163D02*
X022478Y001163D01*
X022459Y001144D02*
X022564Y001249D01*
X022564Y001398D01*
X022459Y001504D01*
X022310Y001504D01*
X022204Y001398D01*
X022204Y001249D01*
X022310Y001144D01*
X022459Y001144D01*
X022557Y001242D02*
X022605Y001242D01*
X022598Y001320D02*
X022564Y001320D01*
X022564Y001399D02*
X022598Y001399D01*
X022677Y001477D02*
X022485Y001477D01*
X022283Y001477D02*
X022092Y001477D01*
X022065Y001504D02*
X021916Y001504D01*
X021810Y001398D01*
X021810Y001249D01*
X021916Y001144D01*
X022065Y001144D01*
X022170Y001249D01*
X022170Y001398D01*
X022065Y001504D01*
X022170Y001399D02*
X022204Y001399D01*
X022204Y001320D02*
X022170Y001320D01*
X022163Y001242D02*
X022212Y001242D01*
X022290Y001163D02*
X022084Y001163D01*
X021896Y001163D02*
X021691Y001163D01*
X021671Y001144D02*
X021777Y001249D01*
X021777Y001398D01*
X021671Y001504D01*
X021522Y001504D01*
X021417Y001398D01*
X021417Y001249D01*
X021522Y001144D01*
X021671Y001144D01*
X021769Y001242D02*
X021818Y001242D01*
X021810Y001320D02*
X021777Y001320D01*
X021776Y001399D02*
X021811Y001399D01*
X021889Y001477D02*
X021698Y001477D01*
X021496Y001477D02*
X021304Y001477D01*
X021278Y001504D02*
X021128Y001504D01*
X021023Y001398D01*
X021023Y001249D01*
X021128Y001144D01*
X021278Y001144D01*
X021383Y001249D01*
X021383Y001398D01*
X021278Y001504D01*
X021383Y001399D02*
X021417Y001399D01*
X021417Y001320D02*
X021383Y001320D01*
X021375Y001242D02*
X021424Y001242D01*
X021503Y001163D02*
X021297Y001163D01*
X021109Y001163D02*
X020903Y001163D01*
X020884Y001144D02*
X020989Y001249D01*
X020989Y001398D01*
X020884Y001504D01*
X020735Y001504D01*
X020629Y001398D01*
X020629Y001249D01*
X020735Y001144D01*
X020884Y001144D01*
X020982Y001242D02*
X021031Y001242D01*
X021023Y001320D02*
X020989Y001320D01*
X020989Y001399D02*
X021023Y001399D01*
X021102Y001477D02*
X020910Y001477D01*
X020708Y001477D02*
X020517Y001477D01*
X020490Y001504D02*
X020341Y001504D01*
X020236Y001398D01*
X020236Y001249D01*
X020341Y001144D01*
X020490Y001144D01*
X020596Y001249D01*
X020596Y001398D01*
X020490Y001504D01*
X020595Y001399D02*
X020630Y001399D01*
X020629Y001320D02*
X020596Y001320D01*
X020588Y001242D02*
X020637Y001242D01*
X020715Y001163D02*
X020510Y001163D01*
X020322Y001163D02*
X020116Y001163D01*
X020096Y001144D02*
X020202Y001249D01*
X020202Y001398D01*
X020096Y001504D01*
X019947Y001504D01*
X019842Y001398D01*
X019842Y001249D01*
X019947Y001144D01*
X020096Y001144D01*
X020194Y001242D02*
X020243Y001242D01*
X020236Y001320D02*
X020202Y001320D01*
X020202Y001399D02*
X020236Y001399D01*
X020314Y001477D02*
X020123Y001477D01*
X019921Y001477D02*
X019729Y001477D01*
X019703Y001504D02*
X019554Y001504D01*
X019448Y001398D01*
X019448Y001249D01*
X019554Y001144D01*
X019703Y001144D01*
X019808Y001249D01*
X019808Y001398D01*
X019703Y001504D01*
X019808Y001399D02*
X019842Y001399D01*
X019842Y001320D02*
X019808Y001320D01*
X019801Y001242D02*
X019849Y001242D01*
X019928Y001163D02*
X019722Y001163D01*
X019534Y001163D02*
X019328Y001163D01*
X019309Y001144D02*
X019414Y001249D01*
X019414Y001398D01*
X019309Y001504D01*
X019160Y001504D01*
X019054Y001398D01*
X019054Y001249D01*
X019160Y001144D01*
X019309Y001144D01*
X019407Y001242D02*
X019456Y001242D01*
X019448Y001320D02*
X019414Y001320D01*
X019414Y001399D02*
X019449Y001399D01*
X019527Y001477D02*
X019336Y001477D01*
X019133Y001477D02*
X018942Y001477D01*
X018915Y001504D02*
X019021Y001398D01*
X019021Y001249D01*
X018915Y001144D01*
X018766Y001144D01*
X018661Y001249D01*
X018661Y001398D01*
X018766Y001504D01*
X018915Y001504D01*
X019020Y001399D02*
X019055Y001399D01*
X019054Y001320D02*
X019021Y001320D01*
X019013Y001242D02*
X019062Y001242D01*
X019141Y001163D02*
X018935Y001163D01*
X018747Y001163D02*
X018541Y001163D01*
X018522Y001144D02*
X018627Y001249D01*
X018627Y001398D01*
X018522Y001504D01*
X018373Y001504D01*
X018267Y001398D01*
X018267Y001249D01*
X018373Y001144D01*
X018522Y001144D01*
X018620Y001242D02*
X018668Y001242D01*
X018661Y001320D02*
X018627Y001320D01*
X018627Y001399D02*
X018661Y001399D01*
X018740Y001477D02*
X018548Y001477D01*
X018346Y001477D02*
X018155Y001477D01*
X018128Y001504D02*
X017979Y001504D01*
X017873Y001398D01*
X017873Y001249D01*
X017979Y001144D01*
X018128Y001144D01*
X018233Y001249D01*
X018233Y001398D01*
X018128Y001504D01*
X018233Y001399D02*
X018267Y001399D01*
X018267Y001320D02*
X018233Y001320D01*
X018226Y001242D02*
X018275Y001242D01*
X018353Y001163D02*
X018147Y001163D01*
X017959Y001163D02*
X017754Y001163D01*
X017734Y001144D02*
X017840Y001249D01*
X017840Y001398D01*
X017734Y001504D01*
X017585Y001504D01*
X017480Y001398D01*
X017480Y001249D01*
X017585Y001144D01*
X017734Y001144D01*
X017832Y001242D02*
X017881Y001242D01*
X017873Y001320D02*
X017840Y001320D01*
X017839Y001399D02*
X017874Y001399D01*
X017952Y001477D02*
X017761Y001477D01*
X017559Y001477D02*
X017367Y001477D01*
X017341Y001504D02*
X017191Y001504D01*
X017086Y001398D01*
X017086Y001249D01*
X017191Y001144D01*
X017341Y001144D01*
X017446Y001249D01*
X017446Y001398D01*
X017341Y001504D01*
X017446Y001399D02*
X017480Y001399D01*
X017480Y001320D02*
X017446Y001320D01*
X017438Y001242D02*
X017487Y001242D01*
X017566Y001163D02*
X017360Y001163D01*
X017172Y001163D02*
X016966Y001163D01*
X016947Y001144D02*
X017052Y001249D01*
X017052Y001398D01*
X016947Y001504D01*
X016798Y001504D01*
X016692Y001398D01*
X016692Y001249D01*
X016798Y001144D01*
X016947Y001144D01*
X017045Y001242D02*
X017094Y001242D01*
X017086Y001320D02*
X017052Y001320D01*
X017052Y001399D02*
X017086Y001399D01*
X017165Y001477D02*
X016973Y001477D01*
X016771Y001477D02*
X016580Y001477D01*
X016553Y001504D02*
X016404Y001504D01*
X016299Y001398D01*
X016299Y001249D01*
X016404Y001144D01*
X016553Y001144D01*
X016659Y001249D01*
X016659Y001398D01*
X016553Y001504D01*
X016658Y001399D02*
X016693Y001399D01*
X016692Y001320D02*
X016659Y001320D01*
X016651Y001242D02*
X016700Y001242D01*
X016778Y001163D02*
X016573Y001163D01*
X016385Y001163D02*
X016179Y001163D01*
X016159Y001144D02*
X016265Y001249D01*
X016265Y001398D01*
X016159Y001504D01*
X016010Y001504D01*
X015905Y001398D01*
X015905Y001249D01*
X016010Y001144D01*
X016159Y001144D01*
X016257Y001242D02*
X016306Y001242D01*
X016299Y001320D02*
X016265Y001320D01*
X016265Y001399D02*
X016299Y001399D01*
X016377Y001477D02*
X016186Y001477D01*
X015984Y001477D02*
X015792Y001477D01*
X015766Y001504D02*
X015617Y001504D01*
X015511Y001398D01*
X015511Y001249D01*
X015617Y001144D01*
X015766Y001144D01*
X015871Y001249D01*
X015871Y001398D01*
X015766Y001504D01*
X015871Y001399D02*
X015905Y001399D01*
X015905Y001320D02*
X015871Y001320D01*
X015864Y001242D02*
X015912Y001242D01*
X015991Y001163D02*
X015785Y001163D01*
X015597Y001163D02*
X015391Y001163D01*
X015470Y001242D02*
X015519Y001242D01*
X015511Y001320D02*
X015477Y001320D01*
X015477Y001399D02*
X015512Y001399D01*
X015590Y001477D02*
X015399Y001477D01*
X015196Y001477D02*
X015179Y001477D01*
X015022Y001477D02*
X015005Y001477D01*
X015022Y001556D02*
X008291Y001556D01*
X008291Y001634D02*
X015022Y001634D01*
X015022Y001713D02*
X008291Y001713D01*
X008291Y001791D02*
X015022Y001791D01*
X015022Y001870D02*
X008291Y001870D01*
X008291Y001948D02*
X015022Y001948D01*
X015022Y002027D02*
X008291Y002027D01*
X008291Y002105D02*
X015022Y002105D01*
X015022Y002184D02*
X009260Y002184D01*
X009259Y002183D02*
X009522Y002292D01*
X009723Y002493D01*
X009832Y002756D01*
X009832Y003041D01*
X009723Y003304D01*
X009522Y003505D01*
X009259Y003614D01*
X008974Y003614D01*
X008711Y003505D01*
X008510Y003304D01*
X008401Y003041D01*
X008401Y002756D01*
X008510Y002493D01*
X008711Y002292D01*
X008974Y002183D01*
X009259Y002183D01*
X009450Y002262D02*
X015022Y002262D01*
X015022Y002341D02*
X009570Y002341D01*
X009649Y002419D02*
X015022Y002419D01*
X015022Y002498D02*
X009725Y002498D01*
X009757Y002576D02*
X015022Y002576D01*
X015022Y002655D02*
X009790Y002655D01*
X009822Y002733D02*
X015022Y002733D01*
X015022Y002812D02*
X009832Y002812D01*
X009832Y002890D02*
X015022Y002890D01*
X015022Y002969D02*
X009832Y002969D01*
X009829Y003047D02*
X015022Y003047D01*
X015022Y003126D02*
X009797Y003126D01*
X009764Y003204D02*
X015022Y003204D01*
X015022Y003283D02*
X009732Y003283D01*
X009666Y003361D02*
X015022Y003361D01*
X015022Y003440D02*
X009587Y003440D01*
X009490Y003518D02*
X015022Y003518D01*
X015022Y003597D02*
X009301Y003597D01*
X008932Y003597D02*
X008764Y003597D01*
X008742Y003518D02*
X008685Y003518D01*
X008645Y003440D02*
X008607Y003440D01*
X008567Y003361D02*
X008528Y003361D01*
X008501Y003283D02*
X008450Y003283D01*
X008468Y003204D02*
X008371Y003204D01*
X008436Y003126D02*
X008293Y003126D01*
X008291Y003047D02*
X008403Y003047D01*
X008401Y002969D02*
X008291Y002969D01*
X008291Y002890D02*
X008401Y002890D01*
X008401Y002812D02*
X008291Y002812D01*
X008291Y002733D02*
X008410Y002733D01*
X008443Y002655D02*
X008291Y002655D01*
X008291Y002576D02*
X008475Y002576D01*
X008508Y002498D02*
X008291Y002498D01*
X008291Y002419D02*
X008584Y002419D01*
X008662Y002341D02*
X008291Y002341D01*
X008291Y002262D02*
X008783Y002262D01*
X008972Y002184D02*
X008291Y002184D01*
X007500Y002262D02*
X007302Y002262D01*
X007419Y002341D02*
X007500Y002341D01*
X007500Y002419D02*
X007484Y002419D01*
X006516Y002419D02*
X006484Y002419D01*
X006516Y002341D02*
X006419Y002341D01*
X006516Y002262D02*
X006302Y002262D01*
X006001Y002262D02*
X005302Y002262D01*
X005367Y002289D02*
X005227Y002231D01*
X005076Y002231D01*
X004937Y002289D01*
X004830Y002396D01*
X004772Y002535D01*
X004772Y002687D01*
X004830Y002826D01*
X004937Y002933D01*
X005076Y002991D01*
X005227Y002991D01*
X005367Y002933D01*
X005474Y002826D01*
X005532Y002687D01*
X005532Y002535D01*
X005474Y002396D01*
X005367Y002289D01*
X005419Y002341D02*
X005885Y002341D01*
X005820Y002419D02*
X005484Y002419D01*
X005516Y002498D02*
X005788Y002498D01*
X005772Y002576D02*
X005532Y002576D01*
X005532Y002655D02*
X005772Y002655D01*
X005791Y002733D02*
X005513Y002733D01*
X005480Y002812D02*
X005824Y002812D01*
X005893Y002890D02*
X005410Y002890D01*
X005282Y002969D02*
X006022Y002969D01*
X005022Y002969D02*
X004282Y002969D01*
X004410Y002890D02*
X004893Y002890D01*
X004824Y002812D02*
X004480Y002812D01*
X004513Y002733D02*
X004791Y002733D01*
X004772Y002655D02*
X004532Y002655D01*
X004532Y002576D02*
X004772Y002576D01*
X004788Y002498D02*
X004516Y002498D01*
X004484Y002419D02*
X004820Y002419D01*
X004885Y002341D02*
X004419Y002341D01*
X004302Y002262D02*
X005001Y002262D01*
X004972Y001948D02*
X004331Y001948D01*
X004431Y001870D02*
X004873Y001870D01*
X004815Y001791D02*
X004489Y001791D01*
X004521Y001713D02*
X004783Y001713D01*
X004772Y001634D02*
X004532Y001634D01*
X004532Y001556D02*
X004772Y001556D01*
X004796Y001477D02*
X004508Y001477D01*
X004534Y001399D02*
X004829Y001399D01*
X004905Y001320D02*
X004613Y001320D01*
X004691Y001242D02*
X005051Y001242D01*
X005253Y001242D02*
X005352Y001242D01*
X005430Y001163D02*
X004770Y001163D01*
X004848Y001085D02*
X005509Y001085D01*
X005587Y001006D02*
X004927Y001006D01*
X005005Y000928D02*
X005666Y000928D01*
X005744Y000849D02*
X005084Y000849D01*
X005109Y000654D02*
X007660Y000654D01*
X008171Y001166D01*
X008171Y003174D01*
X008762Y003765D01*
X010258Y003765D01*
X010967Y004473D01*
X011147Y004460D02*
X011180Y004460D01*
X011180Y004399D02*
X011286Y004293D01*
X011435Y004293D01*
X011540Y004399D01*
X011540Y004548D01*
X011435Y004653D01*
X011286Y004653D01*
X011180Y004548D01*
X011180Y004399D01*
X011198Y004382D02*
X011130Y004382D01*
X011051Y004303D02*
X011276Y004303D01*
X011445Y004303D02*
X011670Y004303D01*
X011680Y004293D02*
X011829Y004293D01*
X011934Y004399D01*
X011934Y004548D01*
X011829Y004653D01*
X011680Y004653D01*
X011574Y004548D01*
X011574Y004399D01*
X011680Y004293D01*
X011591Y004382D02*
X011523Y004382D01*
X011540Y004460D02*
X011574Y004460D01*
X011574Y004539D02*
X011540Y004539D01*
X011471Y004617D02*
X011643Y004617D01*
X011865Y004617D02*
X012037Y004617D01*
X012073Y004653D02*
X011968Y004548D01*
X011968Y004399D01*
X012073Y004293D01*
X012222Y004293D01*
X012328Y004399D01*
X012328Y004548D01*
X012222Y004653D01*
X012073Y004653D01*
X011968Y004539D02*
X011934Y004539D01*
X011934Y004460D02*
X011968Y004460D01*
X011985Y004382D02*
X011917Y004382D01*
X011839Y004303D02*
X012064Y004303D01*
X012232Y004303D02*
X012457Y004303D01*
X012467Y004293D02*
X012616Y004293D01*
X012722Y004399D01*
X012722Y004548D01*
X012616Y004653D01*
X012467Y004653D01*
X012362Y004548D01*
X012362Y004399D01*
X012467Y004293D01*
X012379Y004382D02*
X012311Y004382D01*
X012328Y004460D02*
X012362Y004460D01*
X012362Y004539D02*
X012328Y004539D01*
X012259Y004617D02*
X012431Y004617D01*
X012652Y004617D02*
X012825Y004617D01*
X012861Y004653D02*
X012755Y004548D01*
X012755Y004399D01*
X012861Y004293D01*
X013010Y004293D01*
X013115Y004399D01*
X013115Y004548D01*
X013010Y004653D01*
X012861Y004653D01*
X012755Y004539D02*
X012722Y004539D01*
X012722Y004460D02*
X012755Y004460D01*
X012772Y004382D02*
X012704Y004382D01*
X012626Y004303D02*
X012851Y004303D01*
X013020Y004303D02*
X013245Y004303D01*
X013254Y004293D02*
X013404Y004293D01*
X013509Y004399D01*
X013509Y004548D01*
X013404Y004653D01*
X013254Y004653D01*
X013149Y004548D01*
X013149Y004399D01*
X013254Y004293D01*
X013166Y004382D02*
X013098Y004382D01*
X013115Y004460D02*
X013149Y004460D01*
X013149Y004539D02*
X013115Y004539D01*
X013046Y004617D02*
X013218Y004617D01*
X013440Y004617D02*
X013612Y004617D01*
X013648Y004653D02*
X013543Y004548D01*
X013543Y004399D01*
X013648Y004293D01*
X013797Y004293D01*
X013903Y004399D01*
X013903Y004548D01*
X013797Y004653D01*
X013648Y004653D01*
X013543Y004539D02*
X013509Y004539D01*
X013509Y004460D02*
X013543Y004460D01*
X013560Y004382D02*
X013492Y004382D01*
X013413Y004303D02*
X013638Y004303D01*
X013807Y004303D02*
X014032Y004303D01*
X014042Y004293D02*
X014191Y004293D01*
X014296Y004399D01*
X014296Y004548D01*
X014191Y004653D01*
X014042Y004653D01*
X013936Y004548D01*
X013936Y004399D01*
X014042Y004293D01*
X013954Y004382D02*
X013886Y004382D01*
X013903Y004460D02*
X013936Y004460D01*
X013936Y004539D02*
X013903Y004539D01*
X013833Y004617D02*
X014006Y004617D01*
X014227Y004617D02*
X014399Y004617D01*
X014436Y004653D02*
X014330Y004548D01*
X014330Y004399D01*
X014436Y004293D01*
X014585Y004293D01*
X014690Y004399D01*
X014690Y004548D01*
X014585Y004653D01*
X014436Y004653D01*
X014330Y004539D02*
X014296Y004539D01*
X014296Y004460D02*
X014330Y004460D01*
X014347Y004382D02*
X014279Y004382D01*
X014201Y004303D02*
X014426Y004303D01*
X014594Y004303D02*
X014819Y004303D01*
X014741Y004382D02*
X014673Y004382D01*
X014690Y004460D02*
X014724Y004460D01*
X014724Y004539D02*
X014690Y004539D01*
X014621Y004617D02*
X014793Y004617D01*
X015015Y004617D02*
X015022Y004617D01*
X015022Y004303D02*
X014988Y004303D01*
X015022Y004225D02*
X010888Y004225D01*
X010809Y004146D02*
X015022Y004146D01*
X015022Y004068D02*
X010731Y004068D01*
X010652Y003989D02*
X015022Y003989D01*
X015022Y003911D02*
X010574Y003911D01*
X010495Y003832D02*
X015022Y003832D01*
X015022Y003754D02*
X010417Y003754D01*
X010338Y003675D02*
X015022Y003675D01*
X015179Y003675D02*
X025375Y003675D01*
X025296Y003754D02*
X015179Y003754D01*
X015179Y003832D02*
X025218Y003832D01*
X025139Y003911D02*
X015179Y003911D01*
X015179Y003989D02*
X025061Y003989D01*
X024982Y004068D02*
X015179Y004068D01*
X015179Y004146D02*
X024904Y004146D01*
X024825Y004225D02*
X015179Y004225D01*
X015179Y004303D02*
X015213Y004303D01*
X015179Y003597D02*
X026412Y003597D01*
X026223Y003518D02*
X015179Y003518D01*
X015179Y003440D02*
X026126Y003440D01*
X026047Y003361D02*
X015179Y003361D01*
X015179Y003283D02*
X025981Y003283D01*
X025949Y003204D02*
X015179Y003204D01*
X015179Y003126D02*
X025916Y003126D01*
X025884Y003047D02*
X015179Y003047D01*
X015179Y002969D02*
X025881Y002969D01*
X025881Y002890D02*
X015179Y002890D01*
X015179Y002812D02*
X025881Y002812D01*
X025891Y002733D02*
X015179Y002733D01*
X015179Y002655D02*
X025923Y002655D01*
X025956Y002576D02*
X015179Y002576D01*
X015179Y002498D02*
X025988Y002498D01*
X026064Y002419D02*
X015179Y002419D01*
X015179Y002341D02*
X026143Y002341D01*
X026263Y002262D02*
X015179Y002262D01*
X015179Y002184D02*
X026453Y002184D01*
X028213Y002262D02*
X028411Y002262D01*
X028294Y002341D02*
X028213Y002341D01*
X028213Y002419D02*
X028229Y002419D01*
X028911Y001791D02*
X029225Y001791D01*
X029192Y001713D02*
X028931Y001713D01*
X028941Y001634D02*
X029181Y001634D01*
X029181Y001556D02*
X028941Y001556D01*
X028917Y001477D02*
X029205Y001477D01*
X029179Y001399D02*
X028885Y001399D01*
X028808Y001320D02*
X029101Y001320D01*
X029077Y001127D02*
X028368Y001127D01*
X028093Y001402D01*
X028093Y003331D01*
X028989Y001870D02*
X029282Y001870D01*
X029561Y001611D02*
X029077Y001127D01*
X029204Y001085D02*
X029865Y001085D01*
X029944Y001163D02*
X029283Y001163D01*
X029361Y001242D02*
X029460Y001242D01*
X029662Y001242D02*
X030022Y001242D01*
X030101Y001320D02*
X029808Y001320D01*
X029885Y001399D02*
X030179Y001399D01*
X030361Y001242D02*
X030460Y001242D01*
X030283Y001163D02*
X030944Y001163D01*
X031022Y001242D02*
X030662Y001242D01*
X030808Y001320D02*
X031101Y001320D01*
X031179Y001399D02*
X030885Y001399D01*
X030917Y001477D02*
X031205Y001477D01*
X031181Y001556D02*
X030941Y001556D01*
X030941Y001634D02*
X031181Y001634D01*
X031192Y001713D02*
X030931Y001713D01*
X030898Y001791D02*
X031225Y001791D01*
X031282Y001870D02*
X030840Y001870D01*
X030741Y001948D02*
X031382Y001948D01*
X031126Y001006D02*
X035133Y001006D01*
X035133Y000928D02*
X031047Y000928D01*
X030969Y000849D02*
X035133Y000849D01*
X035133Y000771D02*
X030890Y000771D01*
X030812Y000692D02*
X035133Y000692D01*
X035133Y000614D02*
X030733Y000614D01*
X030630Y000849D02*
X029969Y000849D01*
X030047Y000928D02*
X030708Y000928D01*
X030787Y001006D02*
X030126Y001006D01*
X030204Y001085D02*
X030865Y001085D01*
X027924Y000614D02*
X015179Y000614D01*
X015179Y000692D02*
X027846Y000692D01*
X027767Y000771D02*
X015179Y000771D01*
X015179Y000849D02*
X027689Y000849D01*
X027610Y000928D02*
X015179Y000928D01*
X015179Y001006D02*
X027532Y001006D01*
X027453Y001085D02*
X015179Y001085D01*
X015179Y001163D02*
X015204Y001163D01*
X015022Y001163D02*
X014998Y001163D01*
X015022Y001085D02*
X008260Y001085D01*
X008291Y001163D02*
X009692Y001163D01*
X009711Y001144D02*
X009860Y001144D01*
X009966Y001249D01*
X009966Y001398D01*
X009860Y001504D01*
X009711Y001504D01*
X009606Y001398D01*
X009606Y001249D01*
X009711Y001144D01*
X009613Y001242D02*
X008291Y001242D01*
X008291Y001320D02*
X009606Y001320D01*
X009606Y001399D02*
X008291Y001399D01*
X008291Y001477D02*
X009685Y001477D01*
X009887Y001477D02*
X010078Y001477D01*
X010105Y001504D02*
X009999Y001398D01*
X009999Y001249D01*
X010105Y001144D01*
X010254Y001144D01*
X010359Y001249D01*
X010359Y001398D01*
X010254Y001504D01*
X010105Y001504D01*
X010000Y001399D02*
X009965Y001399D01*
X009966Y001320D02*
X009999Y001320D01*
X010007Y001242D02*
X009958Y001242D01*
X009880Y001163D02*
X010085Y001163D01*
X010273Y001163D02*
X010479Y001163D01*
X010499Y001144D02*
X010648Y001144D01*
X010753Y001249D01*
X010753Y001398D01*
X010648Y001504D01*
X010499Y001504D01*
X010393Y001398D01*
X010393Y001249D01*
X010499Y001144D01*
X010401Y001242D02*
X010352Y001242D01*
X010359Y001320D02*
X010393Y001320D01*
X010393Y001399D02*
X010359Y001399D01*
X010281Y001477D02*
X010472Y001477D01*
X010674Y001477D02*
X010866Y001477D01*
X010892Y001504D02*
X010787Y001398D01*
X010787Y001249D01*
X010892Y001144D01*
X011041Y001144D01*
X011147Y001249D01*
X011147Y001398D01*
X011041Y001504D01*
X010892Y001504D01*
X010787Y001399D02*
X010753Y001399D01*
X010753Y001320D02*
X010787Y001320D01*
X010794Y001242D02*
X010746Y001242D01*
X010667Y001163D02*
X010873Y001163D01*
X011061Y001163D02*
X011267Y001163D01*
X011286Y001144D02*
X011435Y001144D01*
X011540Y001249D01*
X011540Y001398D01*
X011435Y001504D01*
X011286Y001504D01*
X011180Y001398D01*
X011180Y001249D01*
X011286Y001144D01*
X011188Y001242D02*
X011139Y001242D01*
X011147Y001320D02*
X011180Y001320D01*
X011181Y001399D02*
X011146Y001399D01*
X011068Y001477D02*
X011259Y001477D01*
X011462Y001477D02*
X011653Y001477D01*
X011680Y001504D02*
X011574Y001398D01*
X011574Y001249D01*
X011680Y001144D01*
X011829Y001144D01*
X011934Y001249D01*
X011934Y001398D01*
X011829Y001504D01*
X011680Y001504D01*
X011575Y001399D02*
X011540Y001399D01*
X011540Y001320D02*
X011574Y001320D01*
X011582Y001242D02*
X011533Y001242D01*
X011454Y001163D02*
X011660Y001163D01*
X011848Y001163D02*
X012054Y001163D01*
X012073Y001144D02*
X012222Y001144D01*
X012328Y001249D01*
X012328Y001398D01*
X012222Y001504D01*
X012073Y001504D01*
X011968Y001398D01*
X011968Y001249D01*
X012073Y001144D01*
X011975Y001242D02*
X011927Y001242D01*
X011934Y001320D02*
X011968Y001320D01*
X011968Y001399D02*
X011934Y001399D01*
X011855Y001477D02*
X012047Y001477D01*
X012249Y001477D02*
X012440Y001477D01*
X012467Y001504D02*
X012362Y001398D01*
X012362Y001249D01*
X012467Y001144D01*
X012616Y001144D01*
X012722Y001249D01*
X012722Y001398D01*
X012616Y001504D01*
X012467Y001504D01*
X012362Y001399D02*
X012328Y001399D01*
X012328Y001320D02*
X012362Y001320D01*
X012369Y001242D02*
X012320Y001242D01*
X012242Y001163D02*
X012448Y001163D01*
X012636Y001163D02*
X012841Y001163D01*
X012861Y001144D02*
X012755Y001249D01*
X012755Y001398D01*
X012861Y001504D01*
X013010Y001504D01*
X013115Y001398D01*
X013115Y001249D01*
X013010Y001144D01*
X012861Y001144D01*
X012763Y001242D02*
X012714Y001242D01*
X012722Y001320D02*
X012755Y001320D01*
X012756Y001399D02*
X012721Y001399D01*
X012643Y001477D02*
X012834Y001477D01*
X013036Y001477D02*
X013228Y001477D01*
X013254Y001504D02*
X013149Y001398D01*
X013149Y001249D01*
X013254Y001144D01*
X013404Y001144D01*
X013509Y001249D01*
X013509Y001398D01*
X013404Y001504D01*
X013254Y001504D01*
X013149Y001399D02*
X013115Y001399D01*
X013115Y001320D02*
X013149Y001320D01*
X013157Y001242D02*
X013108Y001242D01*
X013029Y001163D02*
X013235Y001163D01*
X013423Y001163D02*
X013629Y001163D01*
X013648Y001144D02*
X013797Y001144D01*
X013903Y001249D01*
X013903Y001398D01*
X013797Y001504D01*
X013648Y001504D01*
X013543Y001398D01*
X013543Y001249D01*
X013648Y001144D01*
X013550Y001242D02*
X013501Y001242D01*
X013509Y001320D02*
X013543Y001320D01*
X013543Y001399D02*
X013509Y001399D01*
X013430Y001477D02*
X013622Y001477D01*
X013824Y001477D02*
X014015Y001477D01*
X014042Y001504D02*
X013936Y001398D01*
X013936Y001249D01*
X014042Y001144D01*
X014191Y001144D01*
X014296Y001249D01*
X014296Y001398D01*
X014191Y001504D01*
X014042Y001504D01*
X013937Y001399D02*
X013902Y001399D01*
X013903Y001320D02*
X013936Y001320D01*
X013944Y001242D02*
X013895Y001242D01*
X013817Y001163D02*
X014022Y001163D01*
X014210Y001163D02*
X014416Y001163D01*
X014436Y001144D02*
X014585Y001144D01*
X014690Y001249D01*
X014690Y001398D01*
X014585Y001504D01*
X014436Y001504D01*
X014330Y001398D01*
X014330Y001249D01*
X014436Y001144D01*
X014338Y001242D02*
X014289Y001242D01*
X014296Y001320D02*
X014330Y001320D01*
X014330Y001399D02*
X014296Y001399D01*
X014218Y001477D02*
X014409Y001477D01*
X014611Y001477D02*
X014803Y001477D01*
X014724Y001399D02*
X014690Y001399D01*
X014690Y001320D02*
X014724Y001320D01*
X014731Y001242D02*
X014683Y001242D01*
X014604Y001163D02*
X014810Y001163D01*
X015022Y001006D02*
X008181Y001006D01*
X008103Y000928D02*
X015022Y000928D01*
X015022Y000849D02*
X008024Y000849D01*
X007946Y000771D02*
X015022Y000771D01*
X015022Y000692D02*
X007867Y000692D01*
X007789Y000614D02*
X015022Y000614D01*
X010573Y004473D02*
X010101Y004001D01*
X008644Y004001D01*
X007896Y003253D01*
X007896Y001284D01*
X007502Y000891D01*
X005872Y000891D01*
X005152Y001611D01*
X005508Y001477D02*
X005796Y001477D01*
X005772Y001556D02*
X005532Y001556D01*
X005532Y001634D02*
X005772Y001634D01*
X005783Y001713D02*
X005521Y001713D01*
X005489Y001791D02*
X005815Y001791D01*
X005873Y001870D02*
X005431Y001870D01*
X005331Y001948D02*
X005972Y001948D01*
X005829Y001399D02*
X005534Y001399D01*
X005613Y001320D02*
X005905Y001320D01*
X006051Y001242D02*
X005691Y001242D01*
X005770Y001163D02*
X006430Y001163D01*
X006352Y001242D02*
X006253Y001242D01*
X006509Y001085D02*
X005848Y001085D01*
X006534Y001399D02*
X006829Y001399D01*
X006905Y001320D02*
X006613Y001320D01*
X005109Y000654D02*
X004152Y001611D01*
X003796Y001477D02*
X003001Y001477D01*
X003046Y001556D02*
X003772Y001556D01*
X003772Y001634D02*
X003091Y001634D01*
X003130Y001713D02*
X003783Y001713D01*
X003815Y001791D02*
X003151Y001791D01*
X003172Y001870D02*
X003873Y001870D01*
X003972Y001948D02*
X003193Y001948D01*
X002937Y001399D02*
X003829Y001399D01*
X003905Y001320D02*
X002858Y001320D01*
X002780Y001242D02*
X004051Y001242D01*
X004253Y001242D02*
X004352Y001242D01*
X004430Y001163D02*
X002646Y001163D01*
X002487Y001085D02*
X004509Y001085D01*
X008526Y004237D02*
X009943Y004237D01*
X010179Y004473D01*
X010359Y004460D02*
X010390Y004460D01*
X010393Y004539D02*
X010359Y004539D01*
X010290Y004617D02*
X010462Y004617D01*
X010684Y004617D02*
X010856Y004617D01*
X010787Y004539D02*
X010753Y004539D01*
X010753Y004460D02*
X010784Y004460D01*
X011078Y004617D02*
X011250Y004617D01*
X011180Y004539D02*
X011147Y004539D01*
X010069Y004617D02*
X009896Y004617D01*
X009966Y004539D02*
X009999Y004539D01*
X009996Y004460D02*
X009966Y004460D01*
X001390Y010348D02*
X000580Y010348D01*
X000580Y010426D02*
X001311Y010426D01*
X001264Y010505D02*
X000580Y010505D01*
X000580Y010583D02*
X001232Y010583D01*
X001229Y010662D02*
X000580Y010662D01*
X000580Y010740D02*
X001229Y010740D01*
X001260Y010819D02*
X000580Y010819D01*
X000580Y010897D02*
X001302Y010897D01*
X002308Y016785D02*
X011057Y016785D01*
X010979Y016863D02*
X002563Y016863D01*
X002699Y016942D02*
X010900Y016942D01*
X010822Y017020D02*
X002810Y017020D01*
X002889Y017099D02*
X010743Y017099D01*
X010665Y017177D02*
X002967Y017177D01*
X003018Y017256D02*
X010586Y017256D01*
X010508Y017334D02*
X003064Y017334D01*
X003109Y017413D02*
X010429Y017413D01*
X010351Y017491D02*
X003138Y017491D01*
X003159Y017570D02*
X010272Y017570D01*
X010194Y017648D02*
X003180Y017648D01*
X003198Y017727D02*
X010115Y017727D01*
X010036Y017805D02*
X003198Y017805D01*
X003198Y017884D02*
X009958Y017884D01*
X009904Y017962D02*
X003198Y017962D01*
X003188Y018041D02*
X009904Y018041D01*
X009904Y018119D02*
X003167Y018119D01*
X003146Y018198D02*
X009904Y018198D01*
X009904Y018276D02*
X003125Y018276D01*
X003081Y018355D02*
X009904Y018355D01*
X009904Y018433D02*
X003035Y018433D01*
X002990Y018512D02*
X009904Y018512D01*
X009904Y018590D02*
X002918Y018590D01*
X002840Y018669D02*
X009904Y018669D01*
X009904Y018747D02*
X002750Y018747D01*
X002614Y018826D02*
X009904Y018826D01*
X009904Y018904D02*
X002418Y018904D01*
X010061Y021338D02*
X035133Y021338D01*
X035133Y021416D02*
X010061Y021416D01*
X010061Y021495D02*
X035133Y021495D01*
X035133Y021573D02*
X010061Y021573D01*
X010061Y021652D02*
X035133Y021652D01*
X035133Y021730D02*
X010061Y021730D01*
X011825Y021102D02*
X013337Y021102D01*
X013232Y021024D02*
X011930Y021024D01*
X012009Y020945D02*
X013153Y020945D01*
X013111Y020867D02*
X012051Y020867D01*
X012084Y020788D02*
X013078Y020788D01*
X013052Y020710D02*
X012110Y020710D01*
X012110Y020631D02*
X013052Y020631D01*
X013052Y020553D02*
X012110Y020553D01*
X012097Y020474D02*
X013065Y020474D01*
X013097Y020396D02*
X012064Y020396D01*
X012032Y020317D02*
X013130Y020317D01*
X013200Y020239D02*
X011962Y020239D01*
X011884Y020160D02*
X013278Y020160D01*
X013449Y020082D02*
X011713Y020082D01*
X014010Y020239D02*
X033121Y020239D01*
X033069Y020317D02*
X014079Y020317D01*
X023116Y019375D02*
X023802Y019375D01*
X023689Y019454D02*
X023229Y019454D01*
X023292Y019532D02*
X023626Y019532D01*
X023593Y019611D02*
X023324Y019611D01*
X023339Y019689D02*
X023579Y019689D01*
X023579Y019768D02*
X023339Y019768D01*
X023319Y019846D02*
X023599Y019846D01*
X023632Y019925D02*
X023286Y019925D01*
X023214Y020003D02*
X023703Y020003D01*
X024214Y020003D02*
X024703Y020003D01*
X024632Y019925D02*
X024286Y019925D01*
X024319Y019846D02*
X024599Y019846D01*
X024579Y019768D02*
X024339Y019768D01*
X024339Y019689D02*
X024579Y019689D01*
X024593Y019611D02*
X024324Y019611D01*
X024292Y019532D02*
X024626Y019532D01*
X024689Y019454D02*
X024229Y019454D01*
X024116Y019375D02*
X024802Y019375D01*
X025116Y019375D02*
X026345Y019375D01*
X026232Y019454D02*
X025229Y019454D01*
X025292Y019532D02*
X026169Y019532D01*
X026137Y019611D02*
X025324Y019611D01*
X025339Y019689D02*
X026122Y019689D01*
X026122Y019768D02*
X025339Y019768D01*
X025319Y019846D02*
X026143Y019846D01*
X026175Y019925D02*
X025286Y019925D01*
X025214Y020003D02*
X026247Y020003D01*
X026758Y020003D02*
X027247Y020003D01*
X027175Y019925D02*
X026829Y019925D01*
X026862Y019846D02*
X027143Y019846D01*
X027122Y019768D02*
X026882Y019768D01*
X026882Y019689D02*
X027122Y019689D01*
X027137Y019611D02*
X026868Y019611D01*
X026835Y019532D02*
X027169Y019532D01*
X027232Y019454D02*
X026772Y019454D01*
X026659Y019375D02*
X027345Y019375D01*
X027659Y019375D02*
X028345Y019375D01*
X028232Y019454D02*
X027772Y019454D01*
X027835Y019532D02*
X028169Y019532D01*
X028137Y019611D02*
X027868Y019611D01*
X027882Y019689D02*
X028122Y019689D01*
X028122Y019768D02*
X027882Y019768D01*
X027862Y019846D02*
X028143Y019846D01*
X028175Y019925D02*
X027829Y019925D01*
X027758Y020003D02*
X028247Y020003D01*
X028758Y020003D02*
X029790Y020003D01*
X029718Y019925D02*
X028829Y019925D01*
X028862Y019846D02*
X029686Y019846D01*
X029666Y019768D02*
X028882Y019768D01*
X028882Y019689D02*
X029666Y019689D01*
X029680Y019611D02*
X028868Y019611D01*
X028835Y019532D02*
X029713Y019532D01*
X029776Y019454D02*
X028772Y019454D01*
X028659Y019375D02*
X029888Y019375D01*
X030203Y019375D02*
X030888Y019375D01*
X030776Y019454D02*
X030315Y019454D01*
X030378Y019532D02*
X030713Y019532D01*
X030680Y019611D02*
X030411Y019611D01*
X030426Y019689D02*
X030666Y019689D01*
X030666Y019768D02*
X030426Y019768D01*
X030405Y019846D02*
X030686Y019846D01*
X030718Y019925D02*
X030373Y019925D01*
X030301Y020003D02*
X030790Y020003D01*
X031301Y020003D02*
X031790Y020003D01*
X031718Y019925D02*
X031373Y019925D01*
X031405Y019846D02*
X031686Y019846D01*
X031666Y019768D02*
X031426Y019768D01*
X031426Y019689D02*
X031666Y019689D01*
X031680Y019611D02*
X031411Y019611D01*
X031378Y019532D02*
X031713Y019532D01*
X031776Y019454D02*
X031315Y019454D01*
X031203Y019375D02*
X031888Y019375D01*
X032301Y020003D02*
X033552Y020003D01*
X033565Y020003D02*
X033645Y020003D01*
X033032Y020396D02*
X032252Y020396D01*
X032336Y020474D02*
X033007Y020474D01*
X032994Y020553D02*
X032387Y020553D01*
X031839Y020396D02*
X031252Y020396D01*
X031261Y020399D02*
X031368Y020506D01*
X031426Y020646D01*
X031426Y020797D01*
X031368Y020937D01*
X031261Y021043D01*
X031121Y021101D01*
X030970Y021101D01*
X030830Y021043D01*
X030723Y020937D01*
X030666Y020797D01*
X030666Y020646D01*
X030723Y020506D01*
X030830Y020399D01*
X030970Y020341D01*
X031121Y020341D01*
X031261Y020399D01*
X031336Y020474D02*
X031755Y020474D01*
X031704Y020553D02*
X031387Y020553D01*
X031419Y020631D02*
X031672Y020631D01*
X031666Y020710D02*
X031426Y020710D01*
X031426Y020788D02*
X031666Y020788D01*
X031694Y020867D02*
X031397Y020867D01*
X031359Y020945D02*
X031732Y020945D01*
X031810Y021024D02*
X031281Y021024D01*
X030810Y021024D02*
X030281Y021024D01*
X030261Y021043D02*
X030121Y021101D01*
X029970Y021101D01*
X029830Y021043D01*
X029723Y020937D01*
X029666Y020797D01*
X029666Y020646D01*
X029723Y020506D01*
X029830Y020399D01*
X029970Y020341D01*
X030121Y020341D01*
X030261Y020399D01*
X030368Y020506D01*
X030426Y020646D01*
X030426Y020797D01*
X030368Y020937D01*
X030261Y021043D01*
X030359Y020945D02*
X030732Y020945D01*
X030694Y020867D02*
X030397Y020867D01*
X030426Y020788D02*
X030666Y020788D01*
X030666Y020710D02*
X030426Y020710D01*
X030419Y020631D02*
X030672Y020631D01*
X030704Y020553D02*
X030387Y020553D01*
X030336Y020474D02*
X030755Y020474D01*
X030839Y020396D02*
X030252Y020396D01*
X029839Y020396D02*
X028709Y020396D01*
X028717Y020399D02*
X028824Y020506D01*
X028882Y020646D01*
X028882Y020797D01*
X028824Y020937D01*
X028717Y021043D01*
X028578Y021101D01*
X028427Y021101D01*
X028287Y021043D01*
X028180Y020937D01*
X028122Y020797D01*
X028122Y020646D01*
X028180Y020506D01*
X028287Y020399D01*
X028427Y020341D01*
X028578Y020341D01*
X028717Y020399D01*
X028792Y020474D02*
X029755Y020474D01*
X029704Y020553D02*
X028844Y020553D01*
X028876Y020631D02*
X029672Y020631D01*
X029666Y020710D02*
X028882Y020710D01*
X028882Y020788D02*
X029666Y020788D01*
X029694Y020867D02*
X028853Y020867D01*
X028816Y020945D02*
X029732Y020945D01*
X029810Y021024D02*
X028737Y021024D01*
X028267Y021024D02*
X027737Y021024D01*
X027717Y021043D02*
X027578Y021101D01*
X027427Y021101D01*
X027287Y021043D01*
X027180Y020937D01*
X027122Y020797D01*
X027122Y020646D01*
X027180Y020506D01*
X027287Y020399D01*
X027427Y020341D01*
X027578Y020341D01*
X027717Y020399D01*
X027824Y020506D01*
X027882Y020646D01*
X027882Y020797D01*
X027824Y020937D01*
X027717Y021043D01*
X027816Y020945D02*
X028189Y020945D01*
X028151Y020867D02*
X027853Y020867D01*
X027882Y020788D02*
X028122Y020788D01*
X028122Y020710D02*
X027882Y020710D01*
X027876Y020631D02*
X028128Y020631D01*
X028161Y020553D02*
X027844Y020553D01*
X027792Y020474D02*
X028212Y020474D01*
X028295Y020396D02*
X027709Y020396D01*
X027295Y020396D02*
X026709Y020396D01*
X026717Y020399D02*
X026824Y020506D01*
X026882Y020646D01*
X026882Y020797D01*
X026824Y020937D01*
X026717Y021043D01*
X026578Y021101D01*
X026427Y021101D01*
X026287Y021043D01*
X026180Y020937D01*
X026122Y020797D01*
X026122Y020646D01*
X026180Y020506D01*
X026287Y020399D01*
X026427Y020341D01*
X026578Y020341D01*
X026717Y020399D01*
X026792Y020474D02*
X027212Y020474D01*
X027161Y020553D02*
X026844Y020553D01*
X026876Y020631D02*
X027128Y020631D01*
X027122Y020710D02*
X026882Y020710D01*
X026882Y020788D02*
X027122Y020788D01*
X027151Y020867D02*
X026853Y020867D01*
X026816Y020945D02*
X027189Y020945D01*
X027267Y021024D02*
X026737Y021024D01*
X026267Y021024D02*
X025194Y021024D01*
X025174Y021043D02*
X025034Y021101D01*
X024883Y021101D01*
X024744Y021043D01*
X024637Y020937D01*
X024579Y020797D01*
X024579Y020646D01*
X024637Y020506D01*
X024744Y020399D01*
X024883Y020341D01*
X025034Y020341D01*
X025174Y020399D01*
X025281Y020506D01*
X025339Y020646D01*
X025339Y020797D01*
X025281Y020937D01*
X025174Y021043D01*
X025272Y020945D02*
X026189Y020945D01*
X026151Y020867D02*
X025310Y020867D01*
X025339Y020788D02*
X026122Y020788D01*
X026122Y020710D02*
X025339Y020710D01*
X025333Y020631D02*
X026128Y020631D01*
X026161Y020553D02*
X025300Y020553D01*
X025249Y020474D02*
X026212Y020474D01*
X026295Y020396D02*
X025166Y020396D01*
X024752Y020396D02*
X024166Y020396D01*
X024174Y020399D02*
X024281Y020506D01*
X024339Y020646D01*
X024339Y020797D01*
X024281Y020937D01*
X024174Y021043D01*
X024034Y021101D01*
X023883Y021101D01*
X023744Y021043D01*
X023637Y020937D01*
X023579Y020797D01*
X023579Y020646D01*
X023637Y020506D01*
X023744Y020399D01*
X023883Y020341D01*
X024034Y020341D01*
X024174Y020399D01*
X024249Y020474D02*
X024669Y020474D01*
X024617Y020553D02*
X024300Y020553D01*
X024333Y020631D02*
X024585Y020631D01*
X024579Y020710D02*
X024339Y020710D01*
X024339Y020788D02*
X024579Y020788D01*
X024608Y020867D02*
X024310Y020867D01*
X024272Y020945D02*
X024645Y020945D01*
X024724Y021024D02*
X024194Y021024D01*
X023724Y021024D02*
X023194Y021024D01*
X023272Y020945D02*
X023645Y020945D01*
X023608Y020867D02*
X023310Y020867D01*
X023339Y020788D02*
X023579Y020788D01*
X023579Y020710D02*
X023339Y020710D01*
X023333Y020631D02*
X023585Y020631D01*
X023617Y020553D02*
X023300Y020553D01*
X023249Y020474D02*
X023669Y020474D01*
X023752Y020396D02*
X023166Y020396D01*
X033307Y014037D02*
X033903Y014037D01*
X033889Y014032D02*
X033782Y013925D01*
X033725Y013785D01*
X033725Y013634D01*
X033782Y013494D01*
X033889Y013387D01*
X034029Y013329D01*
X034180Y013329D01*
X034320Y013387D01*
X034427Y013494D01*
X034485Y013634D01*
X034485Y013785D01*
X034427Y013925D01*
X034320Y014032D01*
X034180Y014089D01*
X034029Y014089D01*
X033889Y014032D01*
X033816Y013959D02*
X033393Y013959D01*
X033445Y013880D02*
X033764Y013880D01*
X033731Y013802D02*
X033478Y013802D01*
X033485Y013723D02*
X033725Y013723D01*
X033725Y013645D02*
X033485Y013645D01*
X033456Y013566D02*
X033753Y013566D01*
X033789Y013488D02*
X033420Y013488D01*
X033342Y013409D02*
X033868Y013409D01*
X034026Y013331D02*
X033183Y013331D01*
X034183Y013331D02*
X035133Y013331D01*
X035133Y013409D02*
X034342Y013409D01*
X034420Y013488D02*
X035133Y013488D01*
X035133Y013566D02*
X034456Y013566D01*
X034485Y013645D02*
X035133Y013645D01*
X035133Y013723D02*
X034485Y013723D01*
X034478Y013802D02*
X035133Y013802D01*
X035133Y013880D02*
X034445Y013880D01*
X034393Y013959D02*
X035133Y013959D01*
X035133Y014037D02*
X034307Y014037D01*
X034362Y014430D02*
X035133Y014430D01*
X035133Y014508D02*
X034432Y014508D01*
X034465Y014587D02*
X035133Y014587D01*
X035133Y014665D02*
X034485Y014665D01*
X034485Y014744D02*
X035133Y014744D01*
X035133Y014822D02*
X034469Y014822D01*
X034437Y014901D02*
X035133Y014901D01*
X035133Y014979D02*
X034372Y014979D01*
X033804Y016785D02*
X035133Y016785D01*
X035133Y016863D02*
X034059Y016863D01*
X034195Y016942D02*
X035133Y016942D01*
X035133Y017020D02*
X034307Y017020D01*
X034385Y017099D02*
X035133Y017099D01*
X035133Y017177D02*
X034464Y017177D01*
X034514Y017256D02*
X035133Y017256D01*
X035133Y017334D02*
X034560Y017334D01*
X034605Y017413D02*
X035133Y017413D01*
X035133Y017491D02*
X034634Y017491D01*
X034655Y017570D02*
X035133Y017570D01*
X035133Y017648D02*
X034676Y017648D01*
X034694Y017727D02*
X035133Y017727D01*
X035133Y017805D02*
X034694Y017805D01*
X034694Y017884D02*
X035133Y017884D01*
X035133Y017962D02*
X034694Y017962D01*
X034684Y018041D02*
X035133Y018041D01*
X035133Y018119D02*
X034663Y018119D01*
X034642Y018198D02*
X035133Y018198D01*
X035133Y018276D02*
X034621Y018276D01*
X034577Y018355D02*
X035133Y018355D01*
X035133Y018433D02*
X034531Y018433D01*
X034486Y018512D02*
X035133Y018512D01*
X035133Y018590D02*
X034414Y018590D01*
X034336Y018669D02*
X035133Y018669D01*
X035133Y018747D02*
X034246Y018747D01*
X034110Y018826D02*
X035133Y018826D01*
X035133Y018904D02*
X033914Y018904D01*
X025817Y004617D02*
X025644Y004617D01*
X025714Y004539D02*
X025747Y004539D01*
X025747Y004460D02*
X025717Y004460D01*
X025029Y004617D02*
X024857Y004617D01*
X024926Y004539D02*
X024960Y004539D01*
X024960Y004460D02*
X024929Y004460D01*
X024636Y004617D02*
X024463Y004617D01*
X024533Y004539D02*
X024566Y004539D01*
D15*
X023565Y004985D03*
X023171Y005143D03*
X022778Y004906D03*
X022384Y005339D03*
X021990Y005024D03*
X021597Y004906D03*
X021203Y005182D03*
X020809Y004946D03*
X020416Y004828D03*
X020022Y005024D03*
X019628Y005024D03*
X019234Y005143D03*
X018841Y004788D03*
X018447Y005103D03*
X018053Y004985D03*
X017660Y004828D03*
X017266Y005024D03*
X016872Y004788D03*
X016479Y004788D03*
X016085Y004906D03*
X015691Y005103D03*
X015258Y004828D03*
X014943Y005143D03*
X014510Y004906D03*
X014116Y005182D03*
X013723Y005143D03*
X013329Y004788D03*
X012935Y005064D03*
X012542Y004906D03*
X016872Y007308D03*
X017266Y007387D03*
X017660Y007465D03*
X018053Y007190D03*
X018447Y006639D03*
X018841Y006442D03*
X019234Y006678D03*
X019628Y006520D03*
X020022Y006206D03*
X020416Y006324D03*
X020809Y006835D03*
X021597Y006560D03*
X020022Y007426D03*
X019234Y007859D03*
X018447Y008528D03*
X017660Y008568D03*
X017266Y008568D03*
X016872Y009001D03*
X016479Y009355D03*
X016085Y009434D03*
X015691Y009473D03*
X016085Y007859D03*
X016479Y007820D03*
X015691Y007780D03*
M02*
