G75*
G70*
%OFA0B0*%
%FSLAX24Y24*%
%IPPOS*%
%LPD*%
%AMOC8*
5,1,8,0,0,1.08239X$1,22.5*
%
%ADD10C,0.0000*%
D10*
X000907Y000907D02*
X000907Y022954D01*
X036340Y022954D01*
X036340Y000907D01*
X000907Y000907D01*
X002226Y002876D02*
X002228Y002926D01*
X002234Y002976D01*
X002244Y003026D01*
X002257Y003074D01*
X002274Y003122D01*
X002295Y003168D01*
X002319Y003212D01*
X002347Y003254D01*
X002378Y003294D01*
X002412Y003331D01*
X002449Y003366D01*
X002488Y003397D01*
X002529Y003426D01*
X002573Y003451D01*
X002619Y003473D01*
X002666Y003491D01*
X002714Y003505D01*
X002763Y003516D01*
X002813Y003523D01*
X002863Y003526D01*
X002914Y003525D01*
X002964Y003520D01*
X003014Y003511D01*
X003062Y003499D01*
X003110Y003482D01*
X003156Y003462D01*
X003201Y003439D01*
X003244Y003412D01*
X003284Y003382D01*
X003322Y003349D01*
X003357Y003313D01*
X003390Y003274D01*
X003419Y003233D01*
X003445Y003190D01*
X003468Y003145D01*
X003487Y003098D01*
X003502Y003050D01*
X003514Y003001D01*
X003522Y002951D01*
X003526Y002901D01*
X003526Y002851D01*
X003522Y002801D01*
X003514Y002751D01*
X003502Y002702D01*
X003487Y002654D01*
X003468Y002607D01*
X003445Y002562D01*
X003419Y002519D01*
X003390Y002478D01*
X003357Y002439D01*
X003322Y002403D01*
X003284Y002370D01*
X003244Y002340D01*
X003201Y002313D01*
X003156Y002290D01*
X003110Y002270D01*
X003062Y002253D01*
X003014Y002241D01*
X002964Y002232D01*
X002914Y002227D01*
X002863Y002226D01*
X002813Y002229D01*
X002763Y002236D01*
X002714Y002247D01*
X002666Y002261D01*
X002619Y002279D01*
X002573Y002301D01*
X002529Y002326D01*
X002488Y002355D01*
X002449Y002386D01*
X002412Y002421D01*
X002378Y002458D01*
X002347Y002498D01*
X002319Y002540D01*
X002295Y002584D01*
X002274Y002630D01*
X002257Y002678D01*
X002244Y002726D01*
X002234Y002776D01*
X002228Y002826D01*
X002226Y002876D01*
X001813Y005385D02*
X001815Y005411D01*
X001821Y005437D01*
X001831Y005462D01*
X001844Y005485D01*
X001860Y005505D01*
X001880Y005523D01*
X001902Y005538D01*
X001925Y005550D01*
X001951Y005558D01*
X001977Y005562D01*
X002003Y005562D01*
X002029Y005558D01*
X002055Y005550D01*
X002079Y005538D01*
X002100Y005523D01*
X002120Y005505D01*
X002136Y005485D01*
X002149Y005462D01*
X002159Y005437D01*
X002165Y005411D01*
X002167Y005385D01*
X002165Y005359D01*
X002159Y005333D01*
X002149Y005308D01*
X002136Y005285D01*
X002120Y005265D01*
X002100Y005247D01*
X002078Y005232D01*
X002055Y005220D01*
X002029Y005212D01*
X002003Y005208D01*
X001977Y005208D01*
X001951Y005212D01*
X001925Y005220D01*
X001901Y005232D01*
X001880Y005247D01*
X001860Y005265D01*
X001844Y005285D01*
X001831Y005308D01*
X001821Y005333D01*
X001815Y005359D01*
X001813Y005385D01*
X001813Y007059D02*
X001815Y007085D01*
X001821Y007111D01*
X001831Y007136D01*
X001844Y007159D01*
X001860Y007179D01*
X001880Y007197D01*
X001902Y007212D01*
X001925Y007224D01*
X001951Y007232D01*
X001977Y007236D01*
X002003Y007236D01*
X002029Y007232D01*
X002055Y007224D01*
X002079Y007212D01*
X002100Y007197D01*
X002120Y007179D01*
X002136Y007159D01*
X002149Y007136D01*
X002159Y007111D01*
X002165Y007085D01*
X002167Y007059D01*
X002165Y007033D01*
X002159Y007007D01*
X002149Y006982D01*
X002136Y006959D01*
X002120Y006939D01*
X002100Y006921D01*
X002078Y006906D01*
X002055Y006894D01*
X002029Y006886D01*
X002003Y006882D01*
X001977Y006882D01*
X001951Y006886D01*
X001925Y006894D01*
X001901Y006906D01*
X001880Y006921D01*
X001860Y006939D01*
X001844Y006959D01*
X001831Y006982D01*
X001821Y007007D01*
X001815Y007033D01*
X001813Y007059D01*
X001813Y007944D02*
X001815Y007970D01*
X001821Y007996D01*
X001831Y008021D01*
X001844Y008044D01*
X001860Y008064D01*
X001880Y008082D01*
X001902Y008097D01*
X001925Y008109D01*
X001951Y008117D01*
X001977Y008121D01*
X002003Y008121D01*
X002029Y008117D01*
X002055Y008109D01*
X002079Y008097D01*
X002100Y008082D01*
X002120Y008064D01*
X002136Y008044D01*
X002149Y008021D01*
X002159Y007996D01*
X002165Y007970D01*
X002167Y007944D01*
X002165Y007918D01*
X002159Y007892D01*
X002149Y007867D01*
X002136Y007844D01*
X002120Y007824D01*
X002100Y007806D01*
X002078Y007791D01*
X002055Y007779D01*
X002029Y007771D01*
X002003Y007767D01*
X001977Y007767D01*
X001951Y007771D01*
X001925Y007779D01*
X001901Y007791D01*
X001880Y007806D01*
X001860Y007824D01*
X001844Y007844D01*
X001831Y007867D01*
X001821Y007892D01*
X001815Y007918D01*
X001813Y007944D01*
X001813Y009618D02*
X001815Y009644D01*
X001821Y009670D01*
X001831Y009695D01*
X001844Y009718D01*
X001860Y009738D01*
X001880Y009756D01*
X001902Y009771D01*
X001925Y009783D01*
X001951Y009791D01*
X001977Y009795D01*
X002003Y009795D01*
X002029Y009791D01*
X002055Y009783D01*
X002079Y009771D01*
X002100Y009756D01*
X002120Y009738D01*
X002136Y009718D01*
X002149Y009695D01*
X002159Y009670D01*
X002165Y009644D01*
X002167Y009618D01*
X002165Y009592D01*
X002159Y009566D01*
X002149Y009541D01*
X002136Y009518D01*
X002120Y009498D01*
X002100Y009480D01*
X002078Y009465D01*
X002055Y009453D01*
X002029Y009445D01*
X002003Y009441D01*
X001977Y009441D01*
X001951Y009445D01*
X001925Y009453D01*
X001901Y009465D01*
X001880Y009480D01*
X001860Y009498D01*
X001844Y009518D01*
X001831Y009541D01*
X001821Y009566D01*
X001815Y009592D01*
X001813Y009618D01*
X003084Y012362D02*
X003086Y012389D01*
X003092Y012415D01*
X003101Y012441D01*
X003115Y012464D01*
X003131Y012485D01*
X003151Y012504D01*
X003173Y012520D01*
X003197Y012532D01*
X003222Y012541D01*
X003249Y012546D01*
X003276Y012547D01*
X003303Y012544D01*
X003329Y012537D01*
X003354Y012527D01*
X003377Y012512D01*
X003397Y012495D01*
X003415Y012475D01*
X003430Y012453D01*
X003442Y012428D01*
X003450Y012402D01*
X003454Y012376D01*
X003454Y012348D01*
X003450Y012322D01*
X003442Y012296D01*
X003430Y012271D01*
X003415Y012249D01*
X003397Y012229D01*
X003377Y012212D01*
X003354Y012197D01*
X003329Y012187D01*
X003303Y012180D01*
X003276Y012177D01*
X003249Y012178D01*
X003222Y012183D01*
X003197Y012192D01*
X003173Y012204D01*
X003151Y012220D01*
X003131Y012239D01*
X003115Y012260D01*
X003101Y012283D01*
X003092Y012309D01*
X003086Y012335D01*
X003084Y012362D01*
X003084Y013862D02*
X003086Y013889D01*
X003092Y013915D01*
X003101Y013941D01*
X003115Y013964D01*
X003131Y013985D01*
X003151Y014004D01*
X003173Y014020D01*
X003197Y014032D01*
X003222Y014041D01*
X003249Y014046D01*
X003276Y014047D01*
X003303Y014044D01*
X003329Y014037D01*
X003354Y014027D01*
X003377Y014012D01*
X003397Y013995D01*
X003415Y013975D01*
X003430Y013953D01*
X003442Y013928D01*
X003450Y013902D01*
X003454Y013876D01*
X003454Y013848D01*
X003450Y013822D01*
X003442Y013796D01*
X003430Y013771D01*
X003415Y013749D01*
X003397Y013729D01*
X003377Y013712D01*
X003354Y013697D01*
X003329Y013687D01*
X003303Y013680D01*
X003276Y013677D01*
X003249Y013678D01*
X003222Y013683D01*
X003197Y013692D01*
X003173Y013704D01*
X003151Y013720D01*
X003131Y013739D01*
X003115Y013760D01*
X003101Y013783D01*
X003092Y013809D01*
X003086Y013835D01*
X003084Y013862D01*
X002226Y018624D02*
X002228Y018674D01*
X002234Y018724D01*
X002244Y018774D01*
X002257Y018822D01*
X002274Y018870D01*
X002295Y018916D01*
X002319Y018960D01*
X002347Y019002D01*
X002378Y019042D01*
X002412Y019079D01*
X002449Y019114D01*
X002488Y019145D01*
X002529Y019174D01*
X002573Y019199D01*
X002619Y019221D01*
X002666Y019239D01*
X002714Y019253D01*
X002763Y019264D01*
X002813Y019271D01*
X002863Y019274D01*
X002914Y019273D01*
X002964Y019268D01*
X003014Y019259D01*
X003062Y019247D01*
X003110Y019230D01*
X003156Y019210D01*
X003201Y019187D01*
X003244Y019160D01*
X003284Y019130D01*
X003322Y019097D01*
X003357Y019061D01*
X003390Y019022D01*
X003419Y018981D01*
X003445Y018938D01*
X003468Y018893D01*
X003487Y018846D01*
X003502Y018798D01*
X003514Y018749D01*
X003522Y018699D01*
X003526Y018649D01*
X003526Y018599D01*
X003522Y018549D01*
X003514Y018499D01*
X003502Y018450D01*
X003487Y018402D01*
X003468Y018355D01*
X003445Y018310D01*
X003419Y018267D01*
X003390Y018226D01*
X003357Y018187D01*
X003322Y018151D01*
X003284Y018118D01*
X003244Y018088D01*
X003201Y018061D01*
X003156Y018038D01*
X003110Y018018D01*
X003062Y018001D01*
X003014Y017989D01*
X002964Y017980D01*
X002914Y017975D01*
X002863Y017974D01*
X002813Y017977D01*
X002763Y017984D01*
X002714Y017995D01*
X002666Y018009D01*
X002619Y018027D01*
X002573Y018049D01*
X002529Y018074D01*
X002488Y018103D01*
X002449Y018134D01*
X002412Y018169D01*
X002378Y018206D01*
X002347Y018246D01*
X002319Y018288D01*
X002295Y018332D01*
X002274Y018378D01*
X002257Y018426D01*
X002244Y018474D01*
X002234Y018524D01*
X002228Y018574D01*
X002226Y018624D01*
X009607Y003663D02*
X009609Y003696D01*
X009615Y003728D01*
X009624Y003759D01*
X009637Y003789D01*
X009654Y003817D01*
X009674Y003843D01*
X009697Y003867D01*
X009722Y003887D01*
X009750Y003905D01*
X009779Y003919D01*
X009810Y003929D01*
X009842Y003936D01*
X009875Y003939D01*
X009908Y003938D01*
X009940Y003933D01*
X009971Y003924D01*
X010002Y003912D01*
X010030Y003896D01*
X010057Y003877D01*
X010081Y003855D01*
X010102Y003830D01*
X010121Y003803D01*
X010136Y003774D01*
X010147Y003744D01*
X010155Y003712D01*
X010159Y003679D01*
X010159Y003647D01*
X010155Y003614D01*
X010147Y003582D01*
X010136Y003552D01*
X010121Y003523D01*
X010102Y003496D01*
X010081Y003471D01*
X010057Y003449D01*
X010030Y003430D01*
X010002Y003414D01*
X009971Y003402D01*
X009940Y003393D01*
X009908Y003388D01*
X009875Y003387D01*
X009842Y003390D01*
X009810Y003397D01*
X009779Y003407D01*
X009750Y003421D01*
X009722Y003439D01*
X009697Y003459D01*
X009674Y003483D01*
X009654Y003509D01*
X009637Y003537D01*
X009624Y003567D01*
X009615Y003598D01*
X009609Y003630D01*
X009607Y003663D01*
X009609Y003696D01*
X009615Y003728D01*
X009624Y003759D01*
X009637Y003789D01*
X009654Y003817D01*
X009674Y003843D01*
X009697Y003867D01*
X009722Y003887D01*
X009750Y003905D01*
X009779Y003919D01*
X009810Y003929D01*
X009842Y003936D01*
X009875Y003939D01*
X009908Y003938D01*
X009940Y003933D01*
X009971Y003924D01*
X010002Y003912D01*
X010030Y003896D01*
X010057Y003877D01*
X010081Y003855D01*
X010102Y003830D01*
X010121Y003803D01*
X010136Y003774D01*
X010147Y003744D01*
X010155Y003712D01*
X010159Y003679D01*
X010159Y003647D01*
X010155Y003614D01*
X010147Y003582D01*
X010136Y003552D01*
X010121Y003523D01*
X010102Y003496D01*
X010081Y003471D01*
X010057Y003449D01*
X010030Y003430D01*
X010002Y003414D01*
X009971Y003402D01*
X009940Y003393D01*
X009908Y003388D01*
X009875Y003387D01*
X009842Y003390D01*
X009810Y003397D01*
X009779Y003407D01*
X009750Y003421D01*
X009722Y003439D01*
X009697Y003459D01*
X009674Y003483D01*
X009654Y003509D01*
X009637Y003537D01*
X009624Y003567D01*
X009615Y003598D01*
X009609Y003630D01*
X009607Y003663D01*
X027088Y003663D02*
X027090Y003696D01*
X027096Y003728D01*
X027105Y003759D01*
X027118Y003789D01*
X027135Y003817D01*
X027155Y003843D01*
X027178Y003867D01*
X027203Y003887D01*
X027231Y003905D01*
X027260Y003919D01*
X027291Y003929D01*
X027323Y003936D01*
X027356Y003939D01*
X027389Y003938D01*
X027421Y003933D01*
X027452Y003924D01*
X027483Y003912D01*
X027511Y003896D01*
X027538Y003877D01*
X027562Y003855D01*
X027583Y003830D01*
X027602Y003803D01*
X027617Y003774D01*
X027628Y003744D01*
X027636Y003712D01*
X027640Y003679D01*
X027640Y003647D01*
X027636Y003614D01*
X027628Y003582D01*
X027617Y003552D01*
X027602Y003523D01*
X027583Y003496D01*
X027562Y003471D01*
X027538Y003449D01*
X027511Y003430D01*
X027483Y003414D01*
X027452Y003402D01*
X027421Y003393D01*
X027389Y003388D01*
X027356Y003387D01*
X027323Y003390D01*
X027291Y003397D01*
X027260Y003407D01*
X027231Y003421D01*
X027203Y003439D01*
X027178Y003459D01*
X027155Y003483D01*
X027135Y003509D01*
X027118Y003537D01*
X027105Y003567D01*
X027096Y003598D01*
X027090Y003630D01*
X027088Y003663D01*
X027090Y003696D01*
X027096Y003728D01*
X027105Y003759D01*
X027118Y003789D01*
X027135Y003817D01*
X027155Y003843D01*
X027178Y003867D01*
X027203Y003887D01*
X027231Y003905D01*
X027260Y003919D01*
X027291Y003929D01*
X027323Y003936D01*
X027356Y003939D01*
X027389Y003938D01*
X027421Y003933D01*
X027452Y003924D01*
X027483Y003912D01*
X027511Y003896D01*
X027538Y003877D01*
X027562Y003855D01*
X027583Y003830D01*
X027602Y003803D01*
X027617Y003774D01*
X027628Y003744D01*
X027636Y003712D01*
X027640Y003679D01*
X027640Y003647D01*
X027636Y003614D01*
X027628Y003582D01*
X027617Y003552D01*
X027602Y003523D01*
X027583Y003496D01*
X027562Y003471D01*
X027538Y003449D01*
X027511Y003430D01*
X027483Y003414D01*
X027452Y003402D01*
X027421Y003393D01*
X027389Y003388D01*
X027356Y003387D01*
X027323Y003390D01*
X027291Y003397D01*
X027260Y003407D01*
X027231Y003421D01*
X027203Y003439D01*
X027178Y003459D01*
X027155Y003483D01*
X027135Y003509D01*
X027118Y003537D01*
X027105Y003567D01*
X027096Y003598D01*
X027090Y003630D01*
X027088Y003663D01*
X033722Y002876D02*
X033724Y002926D01*
X033730Y002976D01*
X033740Y003026D01*
X033753Y003074D01*
X033770Y003122D01*
X033791Y003168D01*
X033815Y003212D01*
X033843Y003254D01*
X033874Y003294D01*
X033908Y003331D01*
X033945Y003366D01*
X033984Y003397D01*
X034025Y003426D01*
X034069Y003451D01*
X034115Y003473D01*
X034162Y003491D01*
X034210Y003505D01*
X034259Y003516D01*
X034309Y003523D01*
X034359Y003526D01*
X034410Y003525D01*
X034460Y003520D01*
X034510Y003511D01*
X034558Y003499D01*
X034606Y003482D01*
X034652Y003462D01*
X034697Y003439D01*
X034740Y003412D01*
X034780Y003382D01*
X034818Y003349D01*
X034853Y003313D01*
X034886Y003274D01*
X034915Y003233D01*
X034941Y003190D01*
X034964Y003145D01*
X034983Y003098D01*
X034998Y003050D01*
X035010Y003001D01*
X035018Y002951D01*
X035022Y002901D01*
X035022Y002851D01*
X035018Y002801D01*
X035010Y002751D01*
X034998Y002702D01*
X034983Y002654D01*
X034964Y002607D01*
X034941Y002562D01*
X034915Y002519D01*
X034886Y002478D01*
X034853Y002439D01*
X034818Y002403D01*
X034780Y002370D01*
X034740Y002340D01*
X034697Y002313D01*
X034652Y002290D01*
X034606Y002270D01*
X034558Y002253D01*
X034510Y002241D01*
X034460Y002232D01*
X034410Y002227D01*
X034359Y002226D01*
X034309Y002229D01*
X034259Y002236D01*
X034210Y002247D01*
X034162Y002261D01*
X034115Y002279D01*
X034069Y002301D01*
X034025Y002326D01*
X033984Y002355D01*
X033945Y002386D01*
X033908Y002421D01*
X033874Y002458D01*
X033843Y002498D01*
X033815Y002540D01*
X033791Y002584D01*
X033770Y002630D01*
X033753Y002678D01*
X033740Y002726D01*
X033730Y002776D01*
X033724Y002826D01*
X033722Y002876D01*
X033722Y018624D02*
X033724Y018674D01*
X033730Y018724D01*
X033740Y018774D01*
X033753Y018822D01*
X033770Y018870D01*
X033791Y018916D01*
X033815Y018960D01*
X033843Y019002D01*
X033874Y019042D01*
X033908Y019079D01*
X033945Y019114D01*
X033984Y019145D01*
X034025Y019174D01*
X034069Y019199D01*
X034115Y019221D01*
X034162Y019239D01*
X034210Y019253D01*
X034259Y019264D01*
X034309Y019271D01*
X034359Y019274D01*
X034410Y019273D01*
X034460Y019268D01*
X034510Y019259D01*
X034558Y019247D01*
X034606Y019230D01*
X034652Y019210D01*
X034697Y019187D01*
X034740Y019160D01*
X034780Y019130D01*
X034818Y019097D01*
X034853Y019061D01*
X034886Y019022D01*
X034915Y018981D01*
X034941Y018938D01*
X034964Y018893D01*
X034983Y018846D01*
X034998Y018798D01*
X035010Y018749D01*
X035018Y018699D01*
X035022Y018649D01*
X035022Y018599D01*
X035018Y018549D01*
X035010Y018499D01*
X034998Y018450D01*
X034983Y018402D01*
X034964Y018355D01*
X034941Y018310D01*
X034915Y018267D01*
X034886Y018226D01*
X034853Y018187D01*
X034818Y018151D01*
X034780Y018118D01*
X034740Y018088D01*
X034697Y018061D01*
X034652Y018038D01*
X034606Y018018D01*
X034558Y018001D01*
X034510Y017989D01*
X034460Y017980D01*
X034410Y017975D01*
X034359Y017974D01*
X034309Y017977D01*
X034259Y017984D01*
X034210Y017995D01*
X034162Y018009D01*
X034115Y018027D01*
X034069Y018049D01*
X034025Y018074D01*
X033984Y018103D01*
X033945Y018134D01*
X033908Y018169D01*
X033874Y018206D01*
X033843Y018246D01*
X033815Y018288D01*
X033791Y018332D01*
X033770Y018378D01*
X033753Y018426D01*
X033740Y018474D01*
X033730Y018524D01*
X033724Y018574D01*
X033722Y018624D01*
X030283Y019411D02*
X030285Y019461D01*
X030291Y019511D01*
X030301Y019560D01*
X030315Y019608D01*
X030332Y019655D01*
X030353Y019700D01*
X030378Y019744D01*
X030406Y019785D01*
X030438Y019824D01*
X030472Y019861D01*
X030509Y019895D01*
X030549Y019925D01*
X030591Y019952D01*
X030635Y019976D01*
X030681Y019997D01*
X030728Y020013D01*
X030776Y020026D01*
X030826Y020035D01*
X030875Y020040D01*
X030926Y020041D01*
X030976Y020038D01*
X031025Y020031D01*
X031074Y020020D01*
X031122Y020005D01*
X031168Y019987D01*
X031213Y019965D01*
X031256Y019939D01*
X031297Y019910D01*
X031336Y019878D01*
X031372Y019843D01*
X031404Y019805D01*
X031434Y019765D01*
X031461Y019722D01*
X031484Y019678D01*
X031503Y019632D01*
X031519Y019584D01*
X031531Y019535D01*
X031539Y019486D01*
X031543Y019436D01*
X031543Y019386D01*
X031539Y019336D01*
X031531Y019287D01*
X031519Y019238D01*
X031503Y019190D01*
X031484Y019144D01*
X031461Y019100D01*
X031434Y019057D01*
X031404Y019017D01*
X031372Y018979D01*
X031336Y018944D01*
X031297Y018912D01*
X031256Y018883D01*
X031213Y018857D01*
X031168Y018835D01*
X031122Y018817D01*
X031074Y018802D01*
X031025Y018791D01*
X030976Y018784D01*
X030926Y018781D01*
X030875Y018782D01*
X030826Y018787D01*
X030776Y018796D01*
X030728Y018809D01*
X030681Y018825D01*
X030635Y018846D01*
X030591Y018870D01*
X030549Y018897D01*
X030509Y018927D01*
X030472Y018961D01*
X030438Y018998D01*
X030406Y019037D01*
X030378Y019078D01*
X030353Y019122D01*
X030332Y019167D01*
X030315Y019214D01*
X030301Y019262D01*
X030291Y019311D01*
X030285Y019361D01*
X030283Y019411D01*
X025783Y019411D02*
X025785Y019461D01*
X025791Y019511D01*
X025801Y019560D01*
X025815Y019608D01*
X025832Y019655D01*
X025853Y019700D01*
X025878Y019744D01*
X025906Y019785D01*
X025938Y019824D01*
X025972Y019861D01*
X026009Y019895D01*
X026049Y019925D01*
X026091Y019952D01*
X026135Y019976D01*
X026181Y019997D01*
X026228Y020013D01*
X026276Y020026D01*
X026326Y020035D01*
X026375Y020040D01*
X026426Y020041D01*
X026476Y020038D01*
X026525Y020031D01*
X026574Y020020D01*
X026622Y020005D01*
X026668Y019987D01*
X026713Y019965D01*
X026756Y019939D01*
X026797Y019910D01*
X026836Y019878D01*
X026872Y019843D01*
X026904Y019805D01*
X026934Y019765D01*
X026961Y019722D01*
X026984Y019678D01*
X027003Y019632D01*
X027019Y019584D01*
X027031Y019535D01*
X027039Y019486D01*
X027043Y019436D01*
X027043Y019386D01*
X027039Y019336D01*
X027031Y019287D01*
X027019Y019238D01*
X027003Y019190D01*
X026984Y019144D01*
X026961Y019100D01*
X026934Y019057D01*
X026904Y019017D01*
X026872Y018979D01*
X026836Y018944D01*
X026797Y018912D01*
X026756Y018883D01*
X026713Y018857D01*
X026668Y018835D01*
X026622Y018817D01*
X026574Y018802D01*
X026525Y018791D01*
X026476Y018784D01*
X026426Y018781D01*
X026375Y018782D01*
X026326Y018787D01*
X026276Y018796D01*
X026228Y018809D01*
X026181Y018825D01*
X026135Y018846D01*
X026091Y018870D01*
X026049Y018897D01*
X026009Y018927D01*
X025972Y018961D01*
X025938Y018998D01*
X025906Y019037D01*
X025878Y019078D01*
X025853Y019122D01*
X025832Y019167D01*
X025815Y019214D01*
X025801Y019262D01*
X025791Y019311D01*
X025785Y019361D01*
X025783Y019411D01*
M02*
