G75*
G70*
%OFA0B0*%
%FSLAX24Y24*%
%IPPOS*%
%LPD*%
%AMOC8*
5,1,8,0,0,1.08239X$1,22.5*
%
%ADD10R,0.0236X0.0906*%
%ADD11R,0.0591X0.0512*%
%ADD12R,0.0512X0.0591*%
D10*
X011755Y002125D03*
X012149Y002125D03*
X012543Y002125D03*
X012936Y002125D03*
X013330Y002125D03*
X013724Y002125D03*
X014117Y002125D03*
X014511Y002125D03*
X014905Y002125D03*
X015299Y002125D03*
X015692Y002125D03*
X016086Y002125D03*
X016480Y002125D03*
X016873Y002125D03*
X017267Y002125D03*
X017661Y002125D03*
X018054Y002125D03*
X018448Y002125D03*
X018842Y002125D03*
X019236Y002125D03*
X019629Y002125D03*
X020023Y002125D03*
X020417Y002125D03*
X020810Y002125D03*
X021204Y002125D03*
X021598Y002125D03*
X021991Y002125D03*
X022385Y002125D03*
X022779Y002125D03*
X023173Y002125D03*
X023566Y002125D03*
X023960Y002125D03*
X023960Y003669D03*
X023566Y003669D03*
X023173Y003669D03*
X022779Y003669D03*
X022385Y003669D03*
X021991Y003669D03*
X021598Y003669D03*
X021204Y003669D03*
X020810Y003669D03*
X020417Y003669D03*
X020023Y003669D03*
X019629Y003669D03*
X019236Y003669D03*
X018842Y003669D03*
X018448Y003669D03*
X018054Y003669D03*
X017661Y003669D03*
X017267Y003669D03*
X016873Y003669D03*
X016480Y003669D03*
X016086Y003669D03*
X015692Y003669D03*
X015299Y003669D03*
X014905Y003669D03*
X014511Y003669D03*
X014117Y003669D03*
X013724Y003669D03*
X013330Y003669D03*
X012936Y003669D03*
X012543Y003669D03*
X012149Y003669D03*
X011755Y003669D03*
D11*
X013133Y015909D03*
X013133Y016657D03*
X014708Y016657D03*
X014708Y015909D03*
X016283Y015909D03*
X016283Y016657D03*
X017858Y016657D03*
X017858Y015909D03*
X020614Y015909D03*
X020614Y016657D03*
D12*
X008822Y002503D03*
X009570Y002503D03*
X009570Y004078D03*
X008822Y004078D03*
X026145Y004078D03*
X026893Y004078D03*
X026893Y002503D03*
X026145Y002503D03*
M02*
