G75*
G70*
%OFA0B0*%
%FSLAX24Y24*%
%IPPOS*%
%LPD*%
%AMOC8*
5,1,8,0,0,1.08239X$1,22.5*
%
%ADD10C,0.0600*%
%ADD11C,0.0945*%
%ADD12C,0.0080*%
%ADD13C,0.0200*%
%ADD14C,0.0354*%
D10*
X001649Y006484D03*
X002649Y006484D03*
X002649Y007484D03*
X001649Y007484D03*
X001649Y008484D03*
X002649Y008484D03*
X002649Y009484D03*
X001649Y009484D03*
X001649Y010484D03*
X002649Y010484D03*
X002649Y011484D03*
X001649Y011484D03*
X001649Y012484D03*
X002649Y012484D03*
X002649Y013484D03*
X001649Y013484D03*
X005696Y019326D03*
X006696Y019326D03*
X007696Y019326D03*
X008696Y019326D03*
X009696Y019326D03*
X010696Y019326D03*
X011696Y019326D03*
X012696Y019326D03*
X012696Y020326D03*
X011696Y020326D03*
X010696Y020326D03*
X009696Y020326D03*
X008696Y020326D03*
X007696Y020326D03*
X006696Y020326D03*
X005696Y020326D03*
X015858Y020318D03*
X016858Y020318D03*
X017858Y020318D03*
X018858Y020318D03*
X019858Y020318D03*
X019858Y019318D03*
X018858Y019318D03*
X017858Y019318D03*
X016858Y019318D03*
X015858Y019318D03*
X023413Y019326D03*
X024413Y019326D03*
X025413Y019326D03*
X026413Y019326D03*
X027413Y019326D03*
X028413Y019326D03*
X029413Y019326D03*
X030413Y019326D03*
X030413Y020326D03*
X029413Y020326D03*
X028413Y020326D03*
X027413Y020326D03*
X026413Y020326D03*
X025413Y020326D03*
X024413Y020326D03*
X023413Y020326D03*
X033066Y013484D03*
X034066Y013484D03*
X034066Y012484D03*
X033066Y012484D03*
X033066Y011484D03*
X034066Y011484D03*
X034066Y010484D03*
X033066Y010484D03*
X033066Y009484D03*
X034066Y009484D03*
X034066Y008484D03*
X033066Y008484D03*
X033066Y007484D03*
X034066Y007484D03*
X034066Y006484D03*
X033066Y006484D03*
D11*
X033606Y004669D03*
X030456Y004078D03*
X028094Y004078D03*
X028094Y001716D03*
X030456Y001716D03*
X007621Y001716D03*
X005259Y001716D03*
X005259Y004078D03*
X007621Y004078D03*
X002110Y004669D03*
X002110Y015102D03*
X004866Y015102D03*
X002110Y020614D03*
X033606Y020614D03*
D12*
X000581Y021748D02*
X000581Y000581D01*
X017661Y000581D01*
X017661Y001122D01*
X017578Y001122D01*
X017464Y001236D01*
X017350Y001122D01*
X017184Y001122D01*
X017070Y001236D01*
X016956Y001122D01*
X016791Y001122D01*
X016676Y001236D01*
X016563Y001122D01*
X016397Y001122D01*
X016283Y001236D01*
X016169Y001122D01*
X016003Y001122D01*
X015889Y001236D01*
X015775Y001122D01*
X015609Y001122D01*
X015495Y001236D01*
X015381Y001122D01*
X015216Y001122D01*
X015102Y001236D01*
X014988Y001122D01*
X014822Y001122D01*
X014708Y001236D01*
X014594Y001122D01*
X014428Y001122D01*
X014314Y001236D01*
X014200Y001122D01*
X014035Y001122D01*
X013921Y001236D01*
X013807Y001122D01*
X013641Y001122D01*
X013527Y001236D01*
X013413Y001122D01*
X013247Y001122D01*
X013133Y001236D01*
X013019Y001122D01*
X012854Y001122D01*
X012739Y001236D01*
X012626Y001122D01*
X012460Y001122D01*
X012346Y001236D01*
X012232Y001122D01*
X012066Y001122D01*
X011952Y001236D01*
X011838Y001122D01*
X011672Y001122D01*
X011555Y001239D01*
X011555Y001405D01*
X011672Y001522D01*
X011838Y001522D01*
X011952Y001408D01*
X012066Y001522D01*
X012232Y001522D01*
X012346Y001408D01*
X012460Y001522D01*
X012626Y001522D01*
X012739Y001408D01*
X012854Y001522D01*
X013019Y001522D01*
X013133Y001408D01*
X013247Y001522D01*
X013413Y001522D01*
X013527Y001408D01*
X013641Y001522D01*
X013807Y001522D01*
X013921Y001408D01*
X014035Y001522D01*
X014200Y001522D01*
X014314Y001408D01*
X014428Y001522D01*
X014594Y001522D01*
X014708Y001408D01*
X014822Y001522D01*
X014988Y001522D01*
X015102Y001408D01*
X015216Y001522D01*
X015381Y001522D01*
X015495Y001408D01*
X015609Y001522D01*
X015775Y001522D01*
X015889Y001408D01*
X016003Y001522D01*
X016169Y001522D01*
X016283Y001408D01*
X016397Y001522D01*
X016563Y001522D01*
X016676Y001408D01*
X016791Y001522D01*
X016956Y001522D01*
X017070Y001408D01*
X017184Y001522D01*
X017350Y001522D01*
X017464Y001408D01*
X017578Y001522D01*
X017661Y001522D01*
X017661Y004272D01*
X017578Y004272D01*
X017464Y004386D01*
X017350Y004272D01*
X017184Y004272D01*
X017070Y004386D01*
X016956Y004272D01*
X016791Y004272D01*
X016677Y004386D01*
X016563Y004272D01*
X016397Y004272D01*
X016283Y004386D01*
X016169Y004272D01*
X016003Y004272D01*
X015889Y004386D01*
X015775Y004272D01*
X015609Y004272D01*
X015495Y004386D01*
X015381Y004272D01*
X015216Y004272D01*
X015102Y004386D01*
X014988Y004272D01*
X014822Y004272D01*
X014708Y004386D01*
X014594Y004272D01*
X014428Y004272D01*
X014314Y004386D01*
X014200Y004272D01*
X014035Y004272D01*
X013921Y004386D01*
X013807Y004272D01*
X013641Y004272D01*
X013527Y004386D01*
X013413Y004272D01*
X013247Y004272D01*
X013133Y004386D01*
X013019Y004272D01*
X012854Y004272D01*
X012739Y004386D01*
X012626Y004272D01*
X012460Y004272D01*
X012346Y004386D01*
X012232Y004272D01*
X012066Y004272D01*
X011952Y004386D01*
X011838Y004272D01*
X011672Y004272D01*
X011555Y004389D01*
X011555Y004474D01*
X009178Y006851D01*
X002806Y006851D01*
X002876Y006823D01*
X002988Y006710D01*
X003049Y006563D01*
X003049Y006404D01*
X002988Y006257D01*
X002876Y006145D01*
X002729Y006084D01*
X002569Y006084D01*
X002422Y006145D01*
X002310Y006257D01*
X002249Y006404D01*
X002249Y006563D01*
X002310Y006710D01*
X002422Y006823D01*
X002492Y006851D01*
X002215Y006851D01*
X002013Y006650D01*
X002049Y006563D01*
X002049Y006404D01*
X001988Y006257D01*
X001876Y006145D01*
X001729Y006084D01*
X001569Y006084D01*
X001422Y006145D01*
X001310Y006257D01*
X001249Y006404D01*
X001249Y006563D01*
X001310Y006710D01*
X001422Y006823D01*
X001569Y006884D01*
X001729Y006884D01*
X001815Y006848D01*
X002017Y007049D01*
X002099Y007131D01*
X002454Y007131D01*
X001844Y007131D01*
X001876Y007145D02*
X001988Y007257D01*
X002049Y007404D01*
X002049Y007563D01*
X002013Y007650D01*
X002199Y007836D01*
X002454Y007836D01*
X002422Y007823D01*
X002310Y007710D01*
X002249Y007563D01*
X002249Y007404D01*
X002310Y007257D01*
X002422Y007145D01*
X002454Y007131D01*
X002357Y007210D02*
X001941Y007210D01*
X001876Y007145D02*
X001729Y007084D01*
X001569Y007084D01*
X001422Y007145D01*
X001310Y007257D01*
X001249Y007404D01*
X001249Y007563D01*
X001310Y007710D01*
X001422Y007823D01*
X001569Y007884D01*
X001729Y007884D01*
X001815Y007848D01*
X002001Y008034D01*
X002083Y008116D01*
X002492Y008116D01*
X002422Y008145D01*
X002310Y008257D01*
X002249Y008404D01*
X002249Y008563D01*
X002310Y008710D01*
X002422Y008823D01*
X002511Y008859D01*
X002223Y008859D01*
X002013Y008650D01*
X002049Y008563D01*
X002049Y008404D01*
X001988Y008257D01*
X001876Y008145D01*
X001729Y008084D01*
X001569Y008084D01*
X001422Y008145D01*
X001310Y008257D01*
X001249Y008404D01*
X001249Y008563D01*
X001310Y008710D01*
X001422Y008823D01*
X001569Y008884D01*
X001729Y008884D01*
X001815Y008848D01*
X002025Y009057D01*
X002107Y009139D01*
X002435Y009139D01*
X002422Y009145D01*
X002310Y009257D01*
X002249Y009404D01*
X002249Y009563D01*
X002310Y009710D01*
X002422Y009823D01*
X002473Y009844D01*
X002207Y009844D01*
X002013Y009650D01*
X002049Y009563D01*
X002049Y009404D01*
X001988Y009257D01*
X001876Y009145D01*
X001729Y009084D01*
X001569Y009084D01*
X001422Y009145D01*
X001310Y009257D01*
X001249Y009404D01*
X001249Y009563D01*
X001310Y009710D01*
X001422Y009823D01*
X001569Y009884D01*
X001729Y009884D01*
X001815Y009848D01*
X002009Y010042D01*
X002091Y010124D01*
X002473Y010124D01*
X002422Y010145D01*
X002310Y010257D01*
X002249Y010404D01*
X002249Y010563D01*
X002310Y010710D01*
X002422Y010823D01*
X002435Y010828D01*
X002191Y010828D01*
X002013Y010650D01*
X002049Y010563D01*
X002049Y010404D01*
X001988Y010257D01*
X001876Y010145D01*
X001729Y010084D01*
X001569Y010084D01*
X001422Y010145D01*
X001310Y010257D01*
X001249Y010404D01*
X001249Y010563D01*
X001310Y010710D01*
X001422Y010823D01*
X001569Y010884D01*
X001729Y010884D01*
X001815Y010848D01*
X001993Y011026D01*
X002075Y011108D01*
X002511Y011108D01*
X002422Y011145D01*
X002310Y011257D01*
X002249Y011404D01*
X002249Y011563D01*
X002310Y011710D01*
X002422Y011823D01*
X002492Y011851D01*
X002215Y011851D01*
X002013Y011650D01*
X002049Y011563D01*
X002049Y011404D01*
X001988Y011257D01*
X001876Y011145D01*
X001729Y011084D01*
X001569Y011084D01*
X001422Y011145D01*
X001310Y011257D01*
X001249Y011404D01*
X001249Y011563D01*
X001310Y011710D01*
X001422Y011823D01*
X001569Y011884D01*
X001729Y011884D01*
X001815Y011848D01*
X002017Y012049D01*
X002099Y012131D01*
X002454Y012131D01*
X002422Y012145D01*
X002310Y012257D01*
X002249Y012404D01*
X002249Y012563D01*
X002310Y012710D01*
X002422Y012823D01*
X002454Y012836D01*
X002199Y012836D01*
X002013Y012650D01*
X002049Y012563D01*
X002049Y012404D01*
X001988Y012257D01*
X001876Y012145D01*
X001729Y012084D01*
X001569Y012084D01*
X001422Y012145D01*
X001310Y012257D01*
X001249Y012404D01*
X001249Y012563D01*
X001310Y012710D01*
X001422Y012823D01*
X001569Y012884D01*
X001729Y012884D01*
X001815Y012848D01*
X002001Y013034D01*
X002001Y013034D01*
X002083Y013116D01*
X002492Y013116D01*
X002422Y013145D01*
X002310Y013257D01*
X002249Y013404D01*
X002249Y013563D01*
X002310Y013710D01*
X002420Y013820D01*
X002183Y013820D01*
X002013Y013650D01*
X002049Y013563D01*
X002049Y013404D01*
X001988Y013257D01*
X001876Y013145D01*
X001729Y013084D01*
X001569Y013084D01*
X001422Y013145D01*
X001310Y013257D01*
X001249Y013404D01*
X001249Y013563D01*
X001310Y013710D01*
X001422Y013823D01*
X001569Y013884D01*
X001729Y013884D01*
X001815Y013848D01*
X001985Y014018D01*
X001985Y014018D01*
X002067Y014100D01*
X009412Y014100D01*
X009494Y014018D01*
X014651Y008861D01*
X014651Y008744D01*
X014651Y004615D01*
X014708Y004558D01*
X014765Y004615D01*
X014765Y009138D01*
X006146Y017757D01*
X006064Y017839D01*
X006064Y019169D01*
X006035Y019100D01*
X005923Y018987D01*
X005776Y018926D01*
X005617Y018926D01*
X005470Y018987D01*
X005357Y019100D01*
X005296Y019247D01*
X005296Y019406D01*
X005357Y019553D01*
X005470Y019665D01*
X005617Y019726D01*
X005776Y019726D01*
X005923Y019665D01*
X006035Y019553D01*
X006064Y019483D01*
X006064Y019760D01*
X005862Y019962D01*
X005776Y019926D01*
X005617Y019926D01*
X005470Y019987D01*
X005357Y020100D01*
X005296Y020247D01*
X005296Y020406D01*
X005357Y020553D01*
X005470Y020665D01*
X005617Y020726D01*
X005776Y020726D01*
X005923Y020665D01*
X006035Y020553D01*
X006096Y020406D01*
X006096Y020247D01*
X006060Y020160D01*
X006262Y019958D01*
X006344Y019876D01*
X006344Y019521D01*
X006357Y019553D01*
X006470Y019665D01*
X006617Y019726D01*
X006776Y019726D01*
X006923Y019665D01*
X007035Y019553D01*
X007048Y019521D01*
X007048Y019776D01*
X006862Y019962D01*
X006776Y019926D01*
X006617Y019926D01*
X006470Y019987D01*
X006357Y020100D01*
X006296Y020247D01*
X006296Y020406D01*
X006357Y020553D01*
X006470Y020665D01*
X006617Y020726D01*
X006776Y020726D01*
X006923Y020665D01*
X007035Y020553D01*
X007096Y020406D01*
X007096Y020247D01*
X007060Y020160D01*
X007246Y019974D01*
X007328Y019892D01*
X007328Y019483D01*
X007357Y019553D01*
X007470Y019665D01*
X007617Y019726D01*
X007776Y019726D01*
X007923Y019665D01*
X008033Y019555D01*
X008033Y019792D01*
X007862Y019962D01*
X007776Y019926D01*
X007617Y019926D01*
X007470Y019987D01*
X007357Y020100D01*
X007296Y020247D01*
X007296Y020406D01*
X007357Y020553D01*
X007470Y020665D01*
X007617Y020726D01*
X007776Y020726D01*
X007923Y020665D01*
X008035Y020553D01*
X008096Y020406D01*
X008096Y020247D01*
X008060Y020160D01*
X008231Y019990D01*
X008313Y019908D01*
X008313Y019445D01*
X008357Y019553D01*
X008470Y019665D01*
X008617Y019726D01*
X008776Y019726D01*
X008923Y019665D01*
X009035Y019553D01*
X009056Y019502D01*
X009056Y019768D01*
X008862Y019962D01*
X008776Y019926D01*
X008617Y019926D01*
X008470Y019987D01*
X008357Y020100D01*
X008296Y020247D01*
X008296Y020406D01*
X008357Y020553D01*
X008470Y020665D01*
X008617Y020726D01*
X008776Y020726D01*
X008923Y020665D01*
X009035Y020553D01*
X009096Y020406D01*
X009096Y020247D01*
X009060Y020160D01*
X009254Y019966D01*
X009336Y019884D01*
X009336Y019502D01*
X009357Y019553D01*
X009470Y019665D01*
X009617Y019726D01*
X009776Y019726D01*
X009923Y019665D01*
X010035Y019553D01*
X010040Y019540D01*
X010040Y019784D01*
X009862Y019962D01*
X009776Y019926D01*
X009617Y019926D01*
X009470Y019987D01*
X009357Y020100D01*
X009296Y020247D01*
X009296Y020406D01*
X009357Y020553D01*
X009470Y020665D01*
X009617Y020726D01*
X009776Y020726D01*
X009923Y020665D01*
X010035Y020553D01*
X010096Y020406D01*
X010096Y020247D01*
X010060Y020160D01*
X010320Y019900D01*
X010320Y019784D01*
X010320Y019464D01*
X010357Y019553D01*
X010470Y019665D01*
X010617Y019726D01*
X010776Y019726D01*
X010923Y019665D01*
X011035Y019553D01*
X011064Y019483D01*
X011064Y019760D01*
X010862Y019962D01*
X010776Y019926D01*
X010617Y019926D01*
X010470Y019987D01*
X010357Y020100D01*
X010296Y020247D01*
X010296Y020406D01*
X010357Y020553D01*
X010470Y020665D01*
X010617Y020726D01*
X010776Y020726D01*
X010923Y020665D01*
X011035Y020553D01*
X011096Y020406D01*
X011096Y020247D01*
X011060Y020160D01*
X011262Y019958D01*
X011262Y019958D01*
X011344Y019876D01*
X011344Y019521D01*
X011357Y019553D01*
X011470Y019665D01*
X011617Y019726D01*
X011776Y019726D01*
X011923Y019665D01*
X012035Y019553D01*
X012048Y019521D01*
X012048Y019776D01*
X011862Y019962D01*
X011776Y019926D01*
X011617Y019926D01*
X011470Y019987D01*
X011357Y020100D01*
X011296Y020247D01*
X011296Y020406D01*
X011357Y020553D01*
X011470Y020665D01*
X011617Y020726D01*
X011776Y020726D01*
X011923Y020665D01*
X012035Y020553D01*
X012096Y020406D01*
X012096Y020247D01*
X012060Y020160D01*
X012246Y019974D01*
X012328Y019892D01*
X012328Y019483D01*
X012357Y019553D01*
X012470Y019665D01*
X012617Y019726D01*
X012776Y019726D01*
X012923Y019665D01*
X013033Y019555D01*
X013033Y019792D01*
X012862Y019962D01*
X012776Y019926D01*
X012617Y019926D01*
X012470Y019987D01*
X012357Y020100D01*
X012296Y020247D01*
X012296Y020406D01*
X012357Y020553D01*
X012470Y020665D01*
X012617Y020726D01*
X012776Y020726D01*
X012923Y020665D01*
X013035Y020553D01*
X013096Y020406D01*
X013096Y020247D01*
X013060Y020160D01*
X013231Y019990D01*
X013313Y019908D01*
X013313Y016498D01*
X017801Y012010D01*
X017801Y011894D01*
X017801Y007171D01*
X017914Y007285D01*
X017914Y011894D01*
X017914Y012010D01*
X021795Y015890D01*
X021795Y021748D01*
X000581Y021748D01*
X000581Y021741D02*
X021795Y021741D01*
X021795Y021662D02*
X000581Y021662D01*
X000581Y021583D02*
X021795Y021583D01*
X021795Y021505D02*
X000581Y021505D01*
X000581Y021426D02*
X021795Y021426D01*
X021795Y021348D02*
X000581Y021348D01*
X000581Y021269D02*
X021795Y021269D01*
X021795Y021191D02*
X002315Y021191D01*
X002345Y021181D02*
X002253Y021211D01*
X002158Y021226D01*
X002150Y021226D01*
X002150Y020654D01*
X002070Y020654D01*
X002070Y021226D01*
X002061Y021226D01*
X001966Y021211D01*
X001874Y021181D01*
X001789Y021137D01*
X001711Y021081D01*
X001642Y021013D01*
X001586Y020935D01*
X001542Y020849D01*
X001512Y020757D01*
X001497Y020662D01*
X001497Y020653D01*
X002069Y020653D01*
X002069Y020574D01*
X001497Y020574D01*
X001497Y020565D01*
X001512Y020470D01*
X001542Y020378D01*
X001586Y020292D01*
X001642Y020214D01*
X001711Y020146D01*
X001789Y020090D01*
X001874Y020046D01*
X001966Y020016D01*
X002061Y020001D01*
X002070Y020001D01*
X002070Y020573D01*
X002150Y020573D01*
X002150Y020574D02*
X002150Y020653D01*
X002722Y020653D01*
X002722Y020662D01*
X002707Y020757D01*
X002677Y020849D01*
X002633Y020935D01*
X002577Y021013D01*
X002509Y021081D01*
X002431Y021137D01*
X002345Y021181D01*
X002465Y021112D02*
X021795Y021112D01*
X021795Y021034D02*
X002556Y021034D01*
X002619Y020955D02*
X021795Y020955D01*
X021795Y020877D02*
X002663Y020877D01*
X002694Y020798D02*
X021795Y020798D01*
X021795Y020719D02*
X020039Y020719D01*
X020027Y020726D02*
X019961Y020747D01*
X019898Y020757D01*
X019898Y020358D01*
X020297Y020358D01*
X020287Y020421D01*
X020265Y020487D01*
X020234Y020549D01*
X020193Y020605D01*
X020144Y020654D01*
X020088Y020695D01*
X020027Y020726D01*
X019898Y020719D02*
X019818Y020719D01*
X019818Y020757D02*
X019755Y020747D01*
X019689Y020726D01*
X019627Y020695D01*
X019571Y020654D01*
X019522Y020605D01*
X019481Y020549D01*
X019450Y020487D01*
X019428Y020421D01*
X019418Y020358D01*
X019817Y020358D01*
X019817Y020278D01*
X019418Y020278D01*
X019428Y020215D01*
X019450Y020149D01*
X019481Y020088D01*
X019522Y020032D01*
X019571Y019983D01*
X019627Y019942D01*
X019689Y019911D01*
X019755Y019889D01*
X019818Y019879D01*
X019818Y020278D01*
X019898Y020278D01*
X019898Y020358D01*
X019818Y020358D01*
X019818Y020757D01*
X019818Y020641D02*
X019898Y020641D01*
X019898Y020562D02*
X019818Y020562D01*
X019818Y020484D02*
X019898Y020484D01*
X019898Y020405D02*
X019818Y020405D01*
X019817Y020327D02*
X019258Y020327D01*
X019258Y020398D02*
X019197Y020545D01*
X019084Y020657D01*
X018937Y020718D01*
X018778Y020718D01*
X018631Y020657D01*
X018519Y020545D01*
X018458Y020398D01*
X018458Y020239D01*
X018519Y020092D01*
X018631Y019979D01*
X018778Y019918D01*
X018937Y019918D01*
X019084Y019979D01*
X019197Y020092D01*
X019258Y020239D01*
X019258Y020398D01*
X019255Y020405D02*
X019426Y020405D01*
X019449Y020484D02*
X019222Y020484D01*
X019179Y020562D02*
X019491Y020562D01*
X019558Y020641D02*
X019101Y020641D01*
X018615Y020641D02*
X018101Y020641D01*
X018084Y020657D02*
X017937Y020718D01*
X017778Y020718D01*
X017631Y020657D01*
X017519Y020545D01*
X017458Y020398D01*
X017458Y020239D01*
X017519Y020092D01*
X017631Y019979D01*
X017778Y019918D01*
X017937Y019918D01*
X018084Y019979D01*
X018197Y020092D01*
X018258Y020239D01*
X018258Y020398D01*
X018197Y020545D01*
X018084Y020657D01*
X018179Y020562D02*
X018536Y020562D01*
X018493Y020484D02*
X018222Y020484D01*
X018255Y020405D02*
X018461Y020405D01*
X018458Y020327D02*
X018258Y020327D01*
X018258Y020248D02*
X018458Y020248D01*
X018486Y020170D02*
X018229Y020170D01*
X018196Y020091D02*
X018519Y020091D01*
X018598Y020013D02*
X018118Y020013D01*
X017975Y019934D02*
X018740Y019934D01*
X018778Y019718D02*
X018631Y019657D01*
X018519Y019545D01*
X018458Y019398D01*
X018458Y019239D01*
X018519Y019092D01*
X018631Y018979D01*
X018778Y018918D01*
X018937Y018918D01*
X019084Y018979D01*
X019197Y019092D01*
X019258Y019239D01*
X019258Y019398D01*
X019197Y019545D01*
X019084Y019657D01*
X018937Y019718D01*
X018778Y019718D01*
X018730Y019698D02*
X017985Y019698D01*
X017937Y019718D02*
X017778Y019718D01*
X017631Y019657D01*
X017519Y019545D01*
X017458Y019398D01*
X017458Y019239D01*
X017519Y019092D01*
X017631Y018979D01*
X017778Y018918D01*
X017937Y018918D01*
X018084Y018979D01*
X018197Y019092D01*
X018258Y019239D01*
X018258Y019398D01*
X018197Y019545D01*
X018084Y019657D01*
X017937Y019718D01*
X017730Y019698D02*
X016985Y019698D01*
X016937Y019718D02*
X016778Y019718D01*
X016631Y019657D01*
X016519Y019545D01*
X016458Y019398D01*
X016458Y019239D01*
X016519Y019092D01*
X016631Y018979D01*
X016778Y018918D01*
X016937Y018918D01*
X017084Y018979D01*
X017197Y019092D01*
X017258Y019239D01*
X017258Y019398D01*
X017197Y019545D01*
X017084Y019657D01*
X016937Y019718D01*
X016937Y019918D02*
X016778Y019918D01*
X016631Y019979D01*
X016519Y020092D01*
X016458Y020239D01*
X016458Y020398D01*
X016519Y020545D01*
X016631Y020657D01*
X016778Y020718D01*
X016937Y020718D01*
X017084Y020657D01*
X017197Y020545D01*
X017258Y020398D01*
X017258Y020239D01*
X017197Y020092D01*
X017084Y019979D01*
X016937Y019918D01*
X016975Y019934D02*
X017740Y019934D01*
X017598Y020013D02*
X017118Y020013D01*
X017196Y020091D02*
X017519Y020091D01*
X017486Y020170D02*
X017229Y020170D01*
X017258Y020248D02*
X017458Y020248D01*
X017458Y020327D02*
X017258Y020327D01*
X017255Y020405D02*
X017461Y020405D01*
X017493Y020484D02*
X017222Y020484D01*
X017179Y020562D02*
X017536Y020562D01*
X017615Y020641D02*
X017101Y020641D01*
X016615Y020641D02*
X016157Y020641D01*
X016144Y020654D02*
X016088Y020695D01*
X016027Y020726D01*
X015961Y020747D01*
X015898Y020757D01*
X015898Y020358D01*
X016297Y020358D01*
X016287Y020421D01*
X016265Y020487D01*
X016234Y020549D01*
X016193Y020605D01*
X016144Y020654D01*
X016224Y020562D02*
X016536Y020562D01*
X016493Y020484D02*
X016266Y020484D01*
X016289Y020405D02*
X016461Y020405D01*
X016458Y020327D02*
X015898Y020327D01*
X015898Y020358D02*
X015898Y020278D01*
X016297Y020278D01*
X016287Y020215D01*
X016265Y020149D01*
X016234Y020088D01*
X016193Y020032D01*
X016144Y019983D01*
X016088Y019942D01*
X016027Y019911D01*
X015961Y019889D01*
X015898Y019879D01*
X015898Y020278D01*
X015818Y020278D01*
X015818Y019879D01*
X015755Y019889D01*
X015689Y019911D01*
X015627Y019942D01*
X015571Y019983D01*
X015522Y020032D01*
X015481Y020088D01*
X015450Y020149D01*
X015428Y020215D01*
X015418Y020278D01*
X015817Y020278D01*
X015817Y020358D01*
X015418Y020358D01*
X015428Y020421D01*
X015450Y020487D01*
X015481Y020549D01*
X015522Y020605D01*
X015571Y020654D01*
X015627Y020695D01*
X015689Y020726D01*
X015755Y020747D01*
X015818Y020757D01*
X015818Y020358D01*
X015898Y020358D01*
X015898Y020405D02*
X015818Y020405D01*
X015817Y020327D02*
X013096Y020327D01*
X013096Y020405D02*
X015426Y020405D01*
X015449Y020484D02*
X013064Y020484D01*
X013026Y020562D02*
X015491Y020562D01*
X015558Y020641D02*
X012947Y020641D01*
X012792Y020719D02*
X015676Y020719D01*
X015818Y020719D02*
X015898Y020719D01*
X015898Y020641D02*
X015818Y020641D01*
X015818Y020562D02*
X015898Y020562D01*
X015898Y020484D02*
X015818Y020484D01*
X015818Y020248D02*
X015898Y020248D01*
X015898Y020170D02*
X015818Y020170D01*
X015818Y020091D02*
X015898Y020091D01*
X015898Y020013D02*
X015818Y020013D01*
X015818Y019934D02*
X015898Y019934D01*
X016073Y019934D02*
X016740Y019934D01*
X016598Y020013D02*
X016174Y020013D01*
X016236Y020091D02*
X016519Y020091D01*
X016486Y020170D02*
X016272Y020170D01*
X016292Y020248D02*
X016458Y020248D01*
X016039Y020719D02*
X019676Y020719D01*
X020157Y020641D02*
X021795Y020641D01*
X021795Y020562D02*
X020224Y020562D01*
X020266Y020484D02*
X021795Y020484D01*
X021795Y020405D02*
X020289Y020405D01*
X020297Y020278D02*
X019898Y020278D01*
X019898Y019879D01*
X019961Y019889D01*
X020027Y019911D01*
X020088Y019942D01*
X020144Y019983D01*
X020193Y020032D01*
X020234Y020088D01*
X020265Y020149D01*
X020287Y020215D01*
X020297Y020278D01*
X020292Y020248D02*
X021795Y020248D01*
X021795Y020170D02*
X020272Y020170D01*
X020236Y020091D02*
X021795Y020091D01*
X021795Y020013D02*
X020174Y020013D01*
X020073Y019934D02*
X021795Y019934D01*
X021795Y019855D02*
X013313Y019855D01*
X013313Y019777D02*
X021795Y019777D01*
X021795Y019698D02*
X019985Y019698D01*
X019937Y019718D02*
X019778Y019718D01*
X019631Y019657D01*
X019519Y019545D01*
X019458Y019398D01*
X019458Y019239D01*
X019519Y019092D01*
X019631Y018979D01*
X019778Y018918D01*
X019937Y018918D01*
X020084Y018979D01*
X020197Y019092D01*
X020258Y019239D01*
X020258Y019398D01*
X020197Y019545D01*
X020084Y019657D01*
X019937Y019718D01*
X019730Y019698D02*
X018985Y019698D01*
X019122Y019620D02*
X019594Y019620D01*
X019517Y019541D02*
X019198Y019541D01*
X019231Y019463D02*
X019485Y019463D01*
X019458Y019384D02*
X019258Y019384D01*
X019258Y019306D02*
X019458Y019306D01*
X019462Y019227D02*
X019253Y019227D01*
X019220Y019149D02*
X019495Y019149D01*
X019540Y019070D02*
X019175Y019070D01*
X019097Y018991D02*
X019619Y018991D01*
X020097Y018991D02*
X021795Y018991D01*
X021795Y018913D02*
X013313Y018913D01*
X013313Y018991D02*
X015619Y018991D01*
X015631Y018979D02*
X015778Y018918D01*
X015937Y018918D01*
X016084Y018979D01*
X016197Y019092D01*
X016258Y019239D01*
X016258Y019398D01*
X016197Y019545D01*
X016084Y019657D01*
X015937Y019718D01*
X015778Y019718D01*
X015631Y019657D01*
X015519Y019545D01*
X015458Y019398D01*
X015458Y019239D01*
X015519Y019092D01*
X015631Y018979D01*
X015540Y019070D02*
X013313Y019070D01*
X013313Y019149D02*
X015495Y019149D01*
X015462Y019227D02*
X013313Y019227D01*
X013313Y019306D02*
X015458Y019306D01*
X015458Y019384D02*
X013313Y019384D01*
X013313Y019463D02*
X015485Y019463D01*
X015517Y019541D02*
X013313Y019541D01*
X013313Y019620D02*
X015594Y019620D01*
X015730Y019698D02*
X013313Y019698D01*
X013173Y019850D02*
X013173Y016440D01*
X017661Y011952D01*
X017661Y004472D01*
X017546Y004304D02*
X017382Y004304D01*
X017461Y004382D02*
X017467Y004382D01*
X017267Y004472D02*
X017267Y011558D01*
X012188Y016637D01*
X012188Y019834D01*
X011696Y020326D01*
X011328Y020170D02*
X011064Y020170D01*
X011096Y020248D02*
X011296Y020248D01*
X011296Y020327D02*
X011096Y020327D01*
X011096Y020405D02*
X011296Y020405D01*
X011329Y020484D02*
X011064Y020484D01*
X011026Y020562D02*
X011367Y020562D01*
X011445Y020641D02*
X010947Y020641D01*
X010792Y020719D02*
X011601Y020719D01*
X011792Y020719D02*
X012601Y020719D01*
X012445Y020641D02*
X011947Y020641D01*
X012026Y020562D02*
X012367Y020562D01*
X012329Y020484D02*
X012064Y020484D01*
X012096Y020405D02*
X012296Y020405D01*
X012296Y020327D02*
X012096Y020327D01*
X012096Y020248D02*
X012296Y020248D01*
X012328Y020170D02*
X012064Y020170D01*
X012129Y020091D02*
X012366Y020091D01*
X012444Y020013D02*
X012208Y020013D01*
X012286Y019934D02*
X012598Y019934D01*
X012795Y019934D02*
X012890Y019934D01*
X012969Y019855D02*
X012328Y019855D01*
X012328Y019777D02*
X013033Y019777D01*
X013033Y019698D02*
X012843Y019698D01*
X012968Y019620D02*
X013033Y019620D01*
X013173Y019850D02*
X012696Y020326D01*
X013064Y020170D02*
X015443Y020170D01*
X015423Y020248D02*
X013096Y020248D01*
X013129Y020091D02*
X015480Y020091D01*
X015541Y020013D02*
X013208Y020013D01*
X013286Y019934D02*
X015643Y019934D01*
X015985Y019698D02*
X016730Y019698D01*
X016594Y019620D02*
X016122Y019620D01*
X016198Y019541D02*
X016517Y019541D01*
X016485Y019463D02*
X016231Y019463D01*
X016258Y019384D02*
X016458Y019384D01*
X016458Y019306D02*
X016258Y019306D01*
X016253Y019227D02*
X016462Y019227D01*
X016495Y019149D02*
X016220Y019149D01*
X016175Y019070D02*
X016540Y019070D01*
X016619Y018991D02*
X016097Y018991D01*
X017097Y018991D02*
X017619Y018991D01*
X017540Y019070D02*
X017175Y019070D01*
X017220Y019149D02*
X017495Y019149D01*
X017462Y019227D02*
X017253Y019227D01*
X017258Y019306D02*
X017458Y019306D01*
X017458Y019384D02*
X017258Y019384D01*
X017231Y019463D02*
X017485Y019463D01*
X017517Y019541D02*
X017198Y019541D01*
X017122Y019620D02*
X017594Y019620D01*
X018122Y019620D02*
X018594Y019620D01*
X018517Y019541D02*
X018198Y019541D01*
X018231Y019463D02*
X018485Y019463D01*
X018458Y019384D02*
X018258Y019384D01*
X018258Y019306D02*
X018458Y019306D01*
X018462Y019227D02*
X018253Y019227D01*
X018220Y019149D02*
X018495Y019149D01*
X018540Y019070D02*
X018175Y019070D01*
X018097Y018991D02*
X018619Y018991D01*
X018029Y018363D02*
X021795Y018363D01*
X021795Y018285D02*
X018058Y018285D01*
X018058Y018334D02*
X017940Y018451D01*
X017775Y018451D01*
X017658Y018334D01*
X017658Y018168D01*
X017775Y018051D01*
X017940Y018051D01*
X018058Y018168D01*
X018058Y018334D01*
X018058Y018206D02*
X021795Y018206D01*
X021795Y018128D02*
X018017Y018128D01*
X017699Y018128D02*
X013313Y018128D01*
X013313Y018206D02*
X017658Y018206D01*
X017658Y018285D02*
X013313Y018285D01*
X013313Y018363D02*
X017687Y018363D01*
X017765Y018442D02*
X013313Y018442D01*
X013313Y018520D02*
X021795Y018520D01*
X021795Y018442D02*
X017950Y018442D01*
X017467Y017940D02*
X017350Y018058D01*
X017184Y018058D01*
X017067Y017940D01*
X017067Y017775D01*
X017184Y017658D01*
X017350Y017658D01*
X017467Y017775D01*
X017467Y017940D01*
X017437Y017970D02*
X021795Y017970D01*
X021795Y017892D02*
X017467Y017892D01*
X017467Y017813D02*
X021795Y017813D01*
X021795Y017735D02*
X017427Y017735D01*
X017350Y017467D02*
X017184Y017467D01*
X017067Y017350D01*
X017067Y017184D01*
X017184Y017067D01*
X017350Y017067D01*
X017467Y017184D01*
X017467Y017350D01*
X017350Y017467D01*
X017396Y017421D02*
X021795Y017421D01*
X021795Y017499D02*
X013313Y017499D01*
X013313Y017421D02*
X017138Y017421D01*
X017067Y017342D02*
X013313Y017342D01*
X013313Y017264D02*
X017067Y017264D01*
X017067Y017185D02*
X013313Y017185D01*
X013313Y017106D02*
X017145Y017106D01*
X017389Y017106D02*
X021795Y017106D01*
X021795Y017028D02*
X013313Y017028D01*
X013313Y016949D02*
X021795Y016949D01*
X021795Y016871D02*
X013313Y016871D01*
X013313Y016792D02*
X021795Y016792D01*
X021795Y016714D02*
X013313Y016714D01*
X013313Y016635D02*
X021795Y016635D01*
X021795Y016557D02*
X013313Y016557D01*
X013333Y016478D02*
X021795Y016478D01*
X021795Y016400D02*
X013411Y016400D01*
X013490Y016321D02*
X021795Y016321D01*
X021795Y016242D02*
X013568Y016242D01*
X013647Y016164D02*
X021795Y016164D01*
X021795Y016085D02*
X013725Y016085D01*
X013804Y016007D02*
X021795Y016007D01*
X021795Y015928D02*
X013883Y015928D01*
X013961Y015850D02*
X021754Y015850D01*
X021676Y015771D02*
X014040Y015771D01*
X014118Y015693D02*
X021597Y015693D01*
X021519Y015614D02*
X014197Y015614D01*
X014275Y015536D02*
X021440Y015536D01*
X021361Y015457D02*
X014354Y015457D01*
X014432Y015379D02*
X021283Y015379D01*
X021204Y015300D02*
X014511Y015300D01*
X014589Y015221D02*
X021126Y015221D01*
X021047Y015143D02*
X014668Y015143D01*
X014747Y015064D02*
X020969Y015064D01*
X020890Y014986D02*
X014825Y014986D01*
X014904Y014907D02*
X020812Y014907D01*
X020733Y014829D02*
X014982Y014829D01*
X015061Y014750D02*
X020655Y014750D01*
X020576Y014672D02*
X015139Y014672D01*
X015218Y014593D02*
X020497Y014593D01*
X020419Y014515D02*
X015296Y014515D01*
X015375Y014436D02*
X020340Y014436D01*
X020262Y014357D02*
X015453Y014357D01*
X015532Y014279D02*
X020183Y014279D01*
X020105Y014200D02*
X015611Y014200D01*
X015689Y014122D02*
X020026Y014122D01*
X019948Y014043D02*
X015768Y014043D01*
X015846Y013965D02*
X019869Y013965D01*
X019791Y013886D02*
X015925Y013886D01*
X016003Y013808D02*
X019712Y013808D01*
X019634Y013729D02*
X016082Y013729D01*
X016160Y013651D02*
X019555Y013651D01*
X019476Y013572D02*
X016239Y013572D01*
X016317Y013493D02*
X019398Y013493D01*
X019319Y013415D02*
X016396Y013415D01*
X016474Y013336D02*
X019241Y013336D01*
X019162Y013258D02*
X016553Y013258D01*
X016632Y013179D02*
X019084Y013179D01*
X019005Y013101D02*
X016710Y013101D01*
X016789Y013022D02*
X018927Y013022D01*
X018848Y012944D02*
X016867Y012944D01*
X016946Y012865D02*
X018770Y012865D01*
X018691Y012787D02*
X017024Y012787D01*
X017103Y012708D02*
X018612Y012708D01*
X018534Y012629D02*
X017181Y012629D01*
X017260Y012551D02*
X018455Y012551D01*
X018377Y012472D02*
X017338Y012472D01*
X017417Y012394D02*
X018298Y012394D01*
X018220Y012315D02*
X017496Y012315D01*
X017574Y012237D02*
X018141Y012237D01*
X018063Y012158D02*
X017653Y012158D01*
X017731Y012080D02*
X017984Y012080D01*
X017914Y012001D02*
X017801Y012001D01*
X017801Y011923D02*
X017914Y011923D01*
X017914Y011844D02*
X017801Y011844D01*
X017801Y011766D02*
X017914Y011766D01*
X017914Y011687D02*
X017801Y011687D01*
X017801Y011608D02*
X017914Y011608D01*
X017914Y011530D02*
X017801Y011530D01*
X017801Y011451D02*
X017914Y011451D01*
X017914Y011373D02*
X017801Y011373D01*
X017801Y011294D02*
X017914Y011294D01*
X017914Y011216D02*
X017801Y011216D01*
X017801Y011137D02*
X017914Y011137D01*
X017914Y011059D02*
X017801Y011059D01*
X017801Y010980D02*
X017914Y010980D01*
X017914Y010902D02*
X017801Y010902D01*
X017801Y010823D02*
X017914Y010823D01*
X017914Y010744D02*
X017801Y010744D01*
X017801Y010666D02*
X017914Y010666D01*
X017914Y010587D02*
X017801Y010587D01*
X017801Y010509D02*
X017914Y010509D01*
X017914Y010430D02*
X017801Y010430D01*
X017801Y010352D02*
X017914Y010352D01*
X017914Y010273D02*
X017801Y010273D01*
X017801Y010195D02*
X017914Y010195D01*
X017914Y010116D02*
X017801Y010116D01*
X017801Y010038D02*
X017914Y010038D01*
X017914Y009959D02*
X017801Y009959D01*
X017801Y009880D02*
X017914Y009880D01*
X017914Y009802D02*
X017801Y009802D01*
X017801Y009723D02*
X017914Y009723D01*
X017914Y009645D02*
X017801Y009645D01*
X017801Y009566D02*
X017914Y009566D01*
X017914Y009488D02*
X017801Y009488D01*
X017801Y009409D02*
X017914Y009409D01*
X017914Y009331D02*
X017801Y009331D01*
X017801Y009252D02*
X017914Y009252D01*
X017914Y009174D02*
X017801Y009174D01*
X017801Y009095D02*
X017914Y009095D01*
X017914Y009016D02*
X017801Y009016D01*
X017801Y008938D02*
X017914Y008938D01*
X017914Y008859D02*
X017801Y008859D01*
X017801Y008781D02*
X017914Y008781D01*
X017914Y008702D02*
X017801Y008702D01*
X017801Y008624D02*
X017914Y008624D01*
X017914Y008545D02*
X017801Y008545D01*
X017801Y008467D02*
X017914Y008467D01*
X017914Y008388D02*
X017801Y008388D01*
X017801Y008310D02*
X017914Y008310D01*
X017914Y008231D02*
X017801Y008231D01*
X017801Y008153D02*
X017914Y008153D01*
X017914Y008074D02*
X017801Y008074D01*
X017801Y007995D02*
X017914Y007995D01*
X017914Y007917D02*
X017801Y007917D01*
X017801Y007838D02*
X017914Y007838D01*
X017914Y007760D02*
X017801Y007760D01*
X017801Y007681D02*
X017914Y007681D01*
X017914Y007603D02*
X017801Y007603D01*
X017801Y007524D02*
X017914Y007524D01*
X017914Y007446D02*
X017801Y007446D01*
X017801Y007367D02*
X017914Y007367D01*
X017914Y007289D02*
X017801Y007289D01*
X017801Y007210D02*
X017840Y007210D01*
X014765Y007210D02*
X014651Y007210D01*
X014651Y007289D02*
X014765Y007289D01*
X014765Y007367D02*
X014651Y007367D01*
X014651Y007446D02*
X014765Y007446D01*
X014765Y007524D02*
X014651Y007524D01*
X014651Y007603D02*
X014765Y007603D01*
X014765Y007681D02*
X014651Y007681D01*
X014651Y007760D02*
X014765Y007760D01*
X014765Y007838D02*
X014651Y007838D01*
X014651Y007917D02*
X014765Y007917D01*
X014765Y007995D02*
X014651Y007995D01*
X014651Y008074D02*
X014765Y008074D01*
X014765Y008153D02*
X014651Y008153D01*
X014651Y008231D02*
X014765Y008231D01*
X014765Y008310D02*
X014651Y008310D01*
X014651Y008388D02*
X014765Y008388D01*
X014765Y008467D02*
X014651Y008467D01*
X014651Y008545D02*
X014765Y008545D01*
X014765Y008624D02*
X014651Y008624D01*
X014651Y008702D02*
X014765Y008702D01*
X014765Y008781D02*
X014651Y008781D01*
X014651Y008859D02*
X014765Y008859D01*
X014765Y008938D02*
X014574Y008938D01*
X014495Y009016D02*
X014765Y009016D01*
X014765Y009095D02*
X014417Y009095D01*
X014338Y009174D02*
X014729Y009174D01*
X014651Y009252D02*
X014260Y009252D01*
X014181Y009331D02*
X014572Y009331D01*
X014494Y009409D02*
X014102Y009409D01*
X014024Y009488D02*
X014415Y009488D01*
X014337Y009566D02*
X013945Y009566D01*
X013867Y009645D02*
X014258Y009645D01*
X014180Y009723D02*
X013788Y009723D01*
X013710Y009802D02*
X014101Y009802D01*
X014023Y009880D02*
X013631Y009880D01*
X013553Y009959D02*
X013944Y009959D01*
X013866Y010038D02*
X013474Y010038D01*
X013396Y010116D02*
X013787Y010116D01*
X013708Y010195D02*
X013317Y010195D01*
X013238Y010273D02*
X013630Y010273D01*
X013551Y010352D02*
X013160Y010352D01*
X013081Y010430D02*
X013473Y010430D01*
X013394Y010509D02*
X013003Y010509D01*
X012924Y010587D02*
X013316Y010587D01*
X013237Y010666D02*
X012846Y010666D01*
X012767Y010744D02*
X013159Y010744D01*
X013080Y010823D02*
X012689Y010823D01*
X012610Y010902D02*
X013002Y010902D01*
X012923Y010980D02*
X012532Y010980D01*
X012453Y011059D02*
X012844Y011059D01*
X012766Y011137D02*
X012374Y011137D01*
X012296Y011216D02*
X012687Y011216D01*
X012609Y011294D02*
X012217Y011294D01*
X012139Y011373D02*
X012530Y011373D01*
X012452Y011451D02*
X012060Y011451D01*
X011982Y011530D02*
X012373Y011530D01*
X012295Y011608D02*
X011903Y011608D01*
X011825Y011687D02*
X012216Y011687D01*
X012138Y011766D02*
X011746Y011766D01*
X011668Y011844D02*
X012059Y011844D01*
X011980Y011923D02*
X011589Y011923D01*
X011511Y012001D02*
X011902Y012001D01*
X011823Y012080D02*
X011432Y012080D01*
X011353Y012158D02*
X011745Y012158D01*
X011666Y012237D02*
X011275Y012237D01*
X011196Y012315D02*
X011588Y012315D01*
X011509Y012394D02*
X011118Y012394D01*
X011039Y012472D02*
X011431Y012472D01*
X011352Y012551D02*
X010961Y012551D01*
X010882Y012629D02*
X011274Y012629D01*
X011195Y012708D02*
X010804Y012708D01*
X010725Y012787D02*
X011116Y012787D01*
X011038Y012865D02*
X010647Y012865D01*
X010568Y012944D02*
X010959Y012944D01*
X010881Y013022D02*
X010489Y013022D01*
X010411Y013101D02*
X010802Y013101D01*
X010724Y013179D02*
X010332Y013179D01*
X010254Y013258D02*
X010645Y013258D01*
X010567Y013336D02*
X010175Y013336D01*
X010097Y013415D02*
X010488Y013415D01*
X010410Y013493D02*
X010018Y013493D01*
X009940Y013572D02*
X010331Y013572D01*
X010253Y013651D02*
X009861Y013651D01*
X009783Y013729D02*
X010174Y013729D01*
X010095Y013808D02*
X009704Y013808D01*
X009625Y013886D02*
X010017Y013886D01*
X009938Y013965D02*
X009547Y013965D01*
X009468Y014043D02*
X009860Y014043D01*
X009781Y014122D02*
X000581Y014122D01*
X000581Y014200D02*
X009703Y014200D01*
X009624Y014279D02*
X000581Y014279D01*
X000581Y014357D02*
X009546Y014357D01*
X009467Y014436D02*
X000581Y014436D01*
X000581Y014515D02*
X009389Y014515D01*
X009310Y014593D02*
X005134Y014593D01*
X005190Y014616D02*
X005351Y014777D01*
X005438Y014988D01*
X005438Y015216D01*
X005351Y015426D01*
X005190Y015587D01*
X004979Y015674D01*
X004752Y015674D01*
X004541Y015587D01*
X004380Y015426D01*
X004293Y015216D01*
X004293Y014988D01*
X004380Y014777D01*
X004541Y014616D01*
X004752Y014529D01*
X004979Y014529D01*
X005190Y014616D01*
X005245Y014672D02*
X009231Y014672D01*
X009153Y014750D02*
X005324Y014750D01*
X005372Y014829D02*
X009074Y014829D01*
X008996Y014907D02*
X005405Y014907D01*
X005437Y014986D02*
X008917Y014986D01*
X008839Y015064D02*
X005438Y015064D01*
X005438Y015143D02*
X008760Y015143D01*
X008682Y015221D02*
X005436Y015221D01*
X005403Y015300D02*
X008603Y015300D01*
X008525Y015379D02*
X005371Y015379D01*
X005320Y015457D02*
X008446Y015457D01*
X008367Y015536D02*
X005241Y015536D01*
X005124Y015614D02*
X008289Y015614D01*
X008210Y015693D02*
X000581Y015693D01*
X000581Y015771D02*
X008132Y015771D01*
X008053Y015850D02*
X000581Y015850D01*
X000581Y015928D02*
X007975Y015928D01*
X007896Y016007D02*
X000581Y016007D01*
X000581Y016085D02*
X007818Y016085D01*
X007739Y016164D02*
X000581Y016164D01*
X000581Y016242D02*
X007661Y016242D01*
X007582Y016321D02*
X000581Y016321D01*
X000581Y016400D02*
X007504Y016400D01*
X007425Y016478D02*
X000581Y016478D01*
X000581Y016557D02*
X007346Y016557D01*
X007268Y016635D02*
X000581Y016635D01*
X000581Y016714D02*
X007189Y016714D01*
X007111Y016792D02*
X002344Y016792D01*
X002253Y016768D02*
X002530Y016842D01*
X002779Y016986D01*
X002981Y017189D01*
X003125Y017437D01*
X003199Y017714D01*
X003199Y018001D01*
X003125Y018278D01*
X002981Y018527D01*
X002779Y018730D01*
X002530Y018873D01*
X002253Y018947D01*
X001966Y018947D01*
X001689Y018873D01*
X001441Y018730D01*
X001238Y018527D01*
X001094Y018278D01*
X001020Y018001D01*
X001020Y017714D01*
X001094Y017437D01*
X001238Y017189D01*
X001441Y016986D01*
X001689Y016842D01*
X001966Y016768D01*
X002253Y016768D01*
X002580Y016871D02*
X007032Y016871D01*
X006954Y016949D02*
X002716Y016949D01*
X002821Y017028D02*
X006875Y017028D01*
X006797Y017106D02*
X002899Y017106D01*
X002978Y017185D02*
X006718Y017185D01*
X006640Y017264D02*
X003025Y017264D01*
X003070Y017342D02*
X006561Y017342D01*
X006482Y017421D02*
X003115Y017421D01*
X003142Y017499D02*
X006404Y017499D01*
X006325Y017578D02*
X003163Y017578D01*
X003184Y017656D02*
X006247Y017656D01*
X006168Y017735D02*
X003199Y017735D01*
X003199Y017813D02*
X006090Y017813D01*
X006064Y017892D02*
X003199Y017892D01*
X003199Y017970D02*
X006064Y017970D01*
X006064Y018049D02*
X003186Y018049D01*
X003165Y018128D02*
X006064Y018128D01*
X006064Y018206D02*
X003144Y018206D01*
X003121Y018285D02*
X006064Y018285D01*
X006064Y018363D02*
X003076Y018363D01*
X003031Y018442D02*
X006064Y018442D01*
X006064Y018520D02*
X002985Y018520D01*
X002909Y018599D02*
X006064Y018599D01*
X006064Y018677D02*
X002831Y018677D01*
X002733Y018756D02*
X006064Y018756D01*
X006064Y018834D02*
X002597Y018834D01*
X002381Y018913D02*
X006064Y018913D01*
X006064Y018991D02*
X005927Y018991D01*
X006006Y019070D02*
X006064Y019070D01*
X006056Y019149D02*
X006064Y019149D01*
X005465Y018991D02*
X000581Y018991D01*
X000581Y018913D02*
X001838Y018913D01*
X001622Y018834D02*
X000581Y018834D01*
X000581Y018756D02*
X001486Y018756D01*
X001388Y018677D02*
X000581Y018677D01*
X000581Y018599D02*
X001310Y018599D01*
X001234Y018520D02*
X000581Y018520D01*
X000581Y018442D02*
X001189Y018442D01*
X001143Y018363D02*
X000581Y018363D01*
X000581Y018285D02*
X001098Y018285D01*
X001075Y018206D02*
X000581Y018206D01*
X000581Y018128D02*
X001054Y018128D01*
X001033Y018049D02*
X000581Y018049D01*
X000581Y017970D02*
X001020Y017970D01*
X001020Y017892D02*
X000581Y017892D01*
X000581Y017813D02*
X001020Y017813D01*
X001020Y017735D02*
X000581Y017735D01*
X000581Y017656D02*
X001036Y017656D01*
X001057Y017578D02*
X000581Y017578D01*
X000581Y017499D02*
X001078Y017499D01*
X001104Y017421D02*
X000581Y017421D01*
X000581Y017342D02*
X001149Y017342D01*
X001194Y017264D02*
X000581Y017264D01*
X000581Y017185D02*
X001241Y017185D01*
X001320Y017106D02*
X000581Y017106D01*
X000581Y017028D02*
X001398Y017028D01*
X001503Y016949D02*
X000581Y016949D01*
X000581Y016871D02*
X001640Y016871D01*
X001876Y016792D02*
X000581Y016792D01*
X000581Y015614D02*
X001851Y015614D01*
X001785Y015587D02*
X001996Y015674D01*
X002223Y015674D01*
X002434Y015587D01*
X002595Y015426D01*
X002682Y015216D01*
X002682Y014988D01*
X002595Y014777D01*
X002434Y014616D01*
X002223Y014529D01*
X001996Y014529D01*
X001785Y014616D01*
X001624Y014777D01*
X001537Y014988D01*
X001537Y015216D01*
X001624Y015426D01*
X001785Y015587D01*
X001734Y015536D02*
X000581Y015536D01*
X000581Y015457D02*
X001655Y015457D01*
X001605Y015379D02*
X000581Y015379D01*
X000581Y015300D02*
X001572Y015300D01*
X001540Y015221D02*
X000581Y015221D01*
X000581Y015143D02*
X001537Y015143D01*
X001537Y015064D02*
X000581Y015064D01*
X000581Y014986D02*
X001538Y014986D01*
X001570Y014907D02*
X000581Y014907D01*
X000581Y014829D02*
X001603Y014829D01*
X001651Y014750D02*
X000581Y014750D01*
X000581Y014672D02*
X001730Y014672D01*
X001842Y014593D02*
X000581Y014593D01*
X000581Y014043D02*
X002011Y014043D01*
X001932Y013965D02*
X000581Y013965D01*
X000581Y013886D02*
X001854Y013886D01*
X002125Y013960D02*
X009354Y013960D01*
X014511Y008803D01*
X014511Y004472D01*
X014651Y004618D02*
X014765Y004618D01*
X014765Y004697D02*
X014651Y004697D01*
X014651Y004775D02*
X014765Y004775D01*
X014765Y004854D02*
X014651Y004854D01*
X014651Y004932D02*
X014765Y004932D01*
X014765Y005011D02*
X014651Y005011D01*
X014651Y005089D02*
X014765Y005089D01*
X014765Y005168D02*
X014651Y005168D01*
X014651Y005246D02*
X014765Y005246D01*
X014765Y005325D02*
X014651Y005325D01*
X014651Y005404D02*
X014765Y005404D01*
X014765Y005482D02*
X014651Y005482D01*
X014651Y005561D02*
X014765Y005561D01*
X014765Y005639D02*
X014651Y005639D01*
X014651Y005718D02*
X014765Y005718D01*
X014765Y005796D02*
X014651Y005796D01*
X014651Y005875D02*
X014765Y005875D01*
X014765Y005953D02*
X014651Y005953D01*
X014651Y006032D02*
X014765Y006032D01*
X014765Y006110D02*
X014651Y006110D01*
X014651Y006189D02*
X014765Y006189D01*
X014765Y006267D02*
X014651Y006267D01*
X014651Y006346D02*
X014765Y006346D01*
X014765Y006425D02*
X014651Y006425D01*
X014651Y006503D02*
X014765Y006503D01*
X014765Y006582D02*
X014651Y006582D01*
X014651Y006660D02*
X014765Y006660D01*
X014765Y006739D02*
X014651Y006739D01*
X014651Y006817D02*
X014765Y006817D01*
X014765Y006896D02*
X014651Y006896D01*
X014651Y006974D02*
X014765Y006974D01*
X014765Y007053D02*
X014651Y007053D01*
X014651Y007131D02*
X014765Y007131D01*
X013977Y007131D02*
X013864Y007131D01*
X013864Y007053D02*
X013977Y007053D01*
X013977Y006974D02*
X013864Y006974D01*
X013864Y006896D02*
X013977Y006896D01*
X013977Y006817D02*
X013864Y006817D01*
X013864Y006739D02*
X013977Y006739D01*
X013977Y006660D02*
X013864Y006660D01*
X013864Y006582D02*
X013977Y006582D01*
X013977Y006503D02*
X013864Y006503D01*
X013864Y006425D02*
X013977Y006425D01*
X013977Y006346D02*
X013864Y006346D01*
X013864Y006267D02*
X013977Y006267D01*
X013977Y006189D02*
X013864Y006189D01*
X013864Y006110D02*
X013977Y006110D01*
X013977Y006032D02*
X013864Y006032D01*
X013864Y005953D02*
X013977Y005953D01*
X013977Y005875D02*
X013864Y005875D01*
X013864Y005796D02*
X013977Y005796D01*
X013977Y005718D02*
X013864Y005718D01*
X013864Y005639D02*
X013977Y005639D01*
X013977Y005561D02*
X013864Y005561D01*
X013864Y005482D02*
X013977Y005482D01*
X013977Y005404D02*
X013864Y005404D01*
X013864Y005325D02*
X013977Y005325D01*
X013977Y005246D02*
X013864Y005246D01*
X013864Y005168D02*
X013977Y005168D01*
X013977Y005089D02*
X013864Y005089D01*
X013864Y005011D02*
X013977Y005011D01*
X013977Y004932D02*
X013864Y004932D01*
X013864Y004854D02*
X013977Y004854D01*
X013977Y004775D02*
X013864Y004775D01*
X013864Y004697D02*
X013977Y004697D01*
X013977Y004618D02*
X013864Y004618D01*
X013864Y004615D02*
X013864Y007957D01*
X013864Y008073D01*
X009887Y012049D01*
X009805Y012131D01*
X002844Y012131D01*
X002876Y012145D01*
X002988Y012257D01*
X003049Y012404D01*
X003049Y012563D01*
X002988Y012710D01*
X002876Y012823D01*
X002844Y012836D01*
X009493Y012836D01*
X013977Y008351D01*
X013977Y004615D01*
X013921Y004558D01*
X013864Y004615D01*
X013724Y004472D02*
X013724Y008015D01*
X009747Y011991D01*
X002157Y011991D01*
X001649Y011484D01*
X001365Y011766D02*
X000581Y011766D01*
X000581Y011844D02*
X001474Y011844D01*
X001300Y011687D02*
X000581Y011687D01*
X000581Y011608D02*
X001268Y011608D01*
X001249Y011530D02*
X000581Y011530D01*
X000581Y011451D02*
X001249Y011451D01*
X001262Y011373D02*
X000581Y011373D01*
X000581Y011294D02*
X001294Y011294D01*
X001351Y011216D02*
X000581Y011216D01*
X000581Y011137D02*
X001440Y011137D01*
X001423Y010823D02*
X000581Y010823D01*
X000581Y010902D02*
X001869Y010902D01*
X001947Y010980D02*
X000581Y010980D01*
X000581Y011059D02*
X002026Y011059D01*
X002133Y010968D02*
X009984Y010968D01*
X013330Y007621D01*
X013330Y004472D01*
X013215Y004304D02*
X013051Y004304D01*
X013130Y004382D02*
X013137Y004382D01*
X012936Y004472D02*
X012936Y006834D01*
X009787Y009984D01*
X002149Y009984D01*
X001649Y009484D01*
X002015Y009645D02*
X002283Y009645D01*
X002250Y009566D02*
X002048Y009566D01*
X002049Y009488D02*
X002249Y009488D01*
X002249Y009409D02*
X002049Y009409D01*
X002019Y009331D02*
X002279Y009331D01*
X002315Y009252D02*
X001983Y009252D01*
X001905Y009174D02*
X002393Y009174D01*
X002165Y008999D02*
X009590Y008999D01*
X011736Y006854D01*
X012543Y006047D01*
X012543Y004472D01*
X012658Y004304D02*
X012821Y004304D01*
X012743Y004382D02*
X012736Y004382D01*
X012428Y004304D02*
X012264Y004304D01*
X012342Y004382D02*
X012349Y004382D01*
X012149Y004472D02*
X012149Y005259D01*
X009432Y007976D01*
X005653Y007976D01*
X002141Y007976D01*
X001649Y007484D01*
X001359Y007760D02*
X000581Y007760D01*
X000581Y007838D02*
X001460Y007838D01*
X001298Y007681D02*
X000581Y007681D01*
X000581Y007603D02*
X001265Y007603D01*
X001249Y007524D02*
X000581Y007524D01*
X000581Y007446D02*
X001249Y007446D01*
X001264Y007367D02*
X000581Y007367D01*
X000581Y007289D02*
X001297Y007289D01*
X001357Y007210D02*
X000581Y007210D01*
X000581Y007131D02*
X001454Y007131D01*
X001863Y006896D02*
X000581Y006896D01*
X000581Y006974D02*
X001942Y006974D01*
X002020Y007053D02*
X000581Y007053D01*
X000581Y006817D02*
X001417Y006817D01*
X001338Y006739D02*
X000581Y006739D01*
X000581Y006660D02*
X001289Y006660D01*
X001257Y006582D02*
X000581Y006582D01*
X000581Y006503D02*
X001249Y006503D01*
X001249Y006425D02*
X000581Y006425D01*
X000581Y006346D02*
X001273Y006346D01*
X001306Y006267D02*
X000581Y006267D01*
X000581Y006189D02*
X001378Y006189D01*
X001505Y006110D02*
X000581Y006110D01*
X000581Y006032D02*
X009997Y006032D01*
X009919Y006110D02*
X002793Y006110D01*
X002920Y006189D02*
X009840Y006189D01*
X009762Y006267D02*
X002992Y006267D01*
X003025Y006346D02*
X009683Y006346D01*
X009604Y006425D02*
X003049Y006425D01*
X003049Y006503D02*
X009526Y006503D01*
X009447Y006582D02*
X003041Y006582D01*
X003009Y006660D02*
X009369Y006660D01*
X009290Y006739D02*
X002959Y006739D01*
X002881Y006817D02*
X009212Y006817D01*
X009236Y006991D02*
X011755Y004472D01*
X011555Y004461D02*
X008048Y004461D01*
X008107Y004402D02*
X007946Y004563D01*
X007735Y004651D01*
X007508Y004651D01*
X007297Y004563D01*
X007136Y004402D01*
X007049Y004192D01*
X007049Y003964D01*
X007136Y003754D01*
X005745Y003754D01*
X005832Y003964D01*
X005832Y004192D01*
X005745Y004402D01*
X005584Y004563D01*
X005373Y004651D01*
X005145Y004651D01*
X004935Y004563D01*
X004774Y004402D01*
X004687Y004192D01*
X004687Y003964D01*
X004774Y003754D01*
X004935Y003593D01*
X005145Y003506D01*
X005373Y003506D01*
X005584Y003593D01*
X005745Y003754D01*
X005777Y003833D02*
X007103Y003833D01*
X007071Y003911D02*
X005810Y003911D01*
X005832Y003990D02*
X007049Y003990D01*
X007049Y004068D02*
X005832Y004068D01*
X005832Y004147D02*
X007049Y004147D01*
X007063Y004225D02*
X005818Y004225D01*
X005785Y004304D02*
X007095Y004304D01*
X007128Y004382D02*
X005753Y004382D01*
X005686Y004461D02*
X007195Y004461D01*
X007273Y004540D02*
X005607Y004540D01*
X005452Y004618D02*
X007429Y004618D01*
X007814Y004618D02*
X011411Y004618D01*
X011490Y004540D02*
X007970Y004540D01*
X008107Y004402D02*
X008194Y004192D01*
X008194Y003964D01*
X008107Y003754D01*
X017661Y003754D01*
X017661Y003676D02*
X008029Y003676D01*
X008107Y003754D02*
X007946Y003593D01*
X007735Y003506D01*
X007508Y003506D01*
X007297Y003593D01*
X007136Y003754D01*
X007214Y003676D02*
X005666Y003676D01*
X005588Y003597D02*
X007293Y003597D01*
X007476Y003518D02*
X005404Y003518D01*
X005114Y003518D02*
X000581Y003518D01*
X000581Y003440D02*
X010617Y003440D01*
X010681Y003504D02*
X010479Y003302D01*
X010370Y003039D01*
X010370Y002755D01*
X010479Y002492D01*
X010681Y002290D01*
X010944Y002181D01*
X011228Y002181D01*
X011491Y002290D01*
X011693Y002492D01*
X011802Y002755D01*
X011802Y003039D01*
X011693Y003302D01*
X011491Y003504D01*
X011228Y003613D01*
X010944Y003613D01*
X010681Y003504D01*
X010716Y003518D02*
X007766Y003518D01*
X007950Y003597D02*
X010906Y003597D01*
X011266Y003597D02*
X017661Y003597D01*
X017661Y003518D02*
X011455Y003518D01*
X011555Y003440D02*
X017661Y003440D01*
X017661Y003361D02*
X011634Y003361D01*
X011701Y003283D02*
X017661Y003283D01*
X017661Y003204D02*
X011733Y003204D01*
X011766Y003126D02*
X017661Y003126D01*
X017661Y003047D02*
X011798Y003047D01*
X011802Y002969D02*
X017661Y002969D01*
X017661Y002890D02*
X011802Y002890D01*
X011802Y002812D02*
X017661Y002812D01*
X017661Y002733D02*
X011793Y002733D01*
X011760Y002654D02*
X017661Y002654D01*
X017661Y002576D02*
X011727Y002576D01*
X011695Y002497D02*
X017661Y002497D01*
X017661Y002419D02*
X011620Y002419D01*
X011541Y002340D02*
X017661Y002340D01*
X017661Y002262D02*
X011422Y002262D01*
X011233Y002183D02*
X017661Y002183D01*
X017661Y002105D02*
X008042Y002105D01*
X008107Y002040D02*
X007946Y002201D01*
X007735Y002288D01*
X007508Y002288D01*
X007297Y002201D01*
X007136Y002040D01*
X007049Y001830D01*
X007049Y001602D01*
X007136Y001392D01*
X007297Y001231D01*
X007508Y001143D01*
X007735Y001143D01*
X007946Y001231D01*
X008107Y001392D01*
X008194Y001602D01*
X008194Y001830D01*
X008107Y002040D01*
X008113Y002026D02*
X017661Y002026D01*
X017661Y001948D02*
X008145Y001948D01*
X008178Y001869D02*
X017661Y001869D01*
X017661Y001791D02*
X008194Y001791D01*
X008194Y001712D02*
X017661Y001712D01*
X017661Y001633D02*
X008194Y001633D01*
X008174Y001555D02*
X017661Y001555D01*
X017532Y001476D02*
X017396Y001476D01*
X017138Y001476D02*
X017002Y001476D01*
X016745Y001476D02*
X016608Y001476D01*
X016351Y001476D02*
X016215Y001476D01*
X015957Y001476D02*
X015821Y001476D01*
X015564Y001476D02*
X015427Y001476D01*
X015170Y001476D02*
X015034Y001476D01*
X014776Y001476D02*
X014640Y001476D01*
X014382Y001476D02*
X014246Y001476D01*
X013989Y001476D02*
X013852Y001476D01*
X013595Y001476D02*
X013459Y001476D01*
X013201Y001476D02*
X013065Y001476D01*
X012808Y001476D02*
X012671Y001476D01*
X012414Y001476D02*
X012278Y001476D01*
X012020Y001476D02*
X011884Y001476D01*
X011627Y001476D02*
X008142Y001476D01*
X008109Y001398D02*
X011555Y001398D01*
X011555Y001319D02*
X008034Y001319D01*
X007956Y001241D02*
X011555Y001241D01*
X011632Y001162D02*
X007781Y001162D01*
X007462Y001162D02*
X005418Y001162D01*
X005373Y001143D02*
X005584Y001231D01*
X005745Y001392D01*
X005832Y001602D01*
X005832Y001830D01*
X005745Y002040D01*
X005584Y002201D01*
X005373Y002288D01*
X005145Y002288D01*
X004935Y002201D01*
X004774Y002040D01*
X004687Y001830D01*
X004687Y001602D01*
X004774Y001392D01*
X004935Y001231D01*
X005145Y001143D01*
X005373Y001143D01*
X005594Y001241D02*
X007287Y001241D01*
X007208Y001319D02*
X005672Y001319D01*
X005747Y001398D02*
X007133Y001398D01*
X007101Y001476D02*
X005780Y001476D01*
X005812Y001555D02*
X007068Y001555D01*
X007049Y001633D02*
X005832Y001633D01*
X005832Y001712D02*
X007049Y001712D01*
X007049Y001791D02*
X005832Y001791D01*
X005815Y001869D02*
X007065Y001869D01*
X007098Y001948D02*
X005783Y001948D01*
X005750Y002026D02*
X007130Y002026D01*
X007201Y002105D02*
X005680Y002105D01*
X005601Y002183D02*
X007279Y002183D01*
X007443Y002262D02*
X005437Y002262D01*
X005081Y002262D02*
X003197Y002262D01*
X003199Y002253D02*
X003125Y002530D01*
X002981Y002779D01*
X002779Y002981D01*
X002530Y003125D01*
X002253Y003199D01*
X001966Y003199D01*
X001689Y003125D01*
X001441Y002981D01*
X001238Y002779D01*
X001094Y002530D01*
X001020Y002253D01*
X001020Y001966D01*
X001094Y001689D01*
X001238Y001441D01*
X001441Y001238D01*
X001689Y001094D01*
X001966Y001020D01*
X002253Y001020D01*
X002530Y001094D01*
X002779Y001238D01*
X002981Y001441D01*
X003125Y001689D01*
X003199Y001966D01*
X003199Y002253D01*
X003199Y002183D02*
X004917Y002183D01*
X004838Y002105D02*
X003199Y002105D01*
X003199Y002026D02*
X004768Y002026D01*
X004736Y001948D02*
X003194Y001948D01*
X003173Y001869D02*
X004703Y001869D01*
X004687Y001791D02*
X003152Y001791D01*
X003131Y001712D02*
X004687Y001712D01*
X004687Y001633D02*
X003093Y001633D01*
X003047Y001555D02*
X004706Y001555D01*
X004739Y001476D02*
X003002Y001476D01*
X002939Y001398D02*
X004771Y001398D01*
X004846Y001319D02*
X002860Y001319D01*
X002782Y001241D02*
X004925Y001241D01*
X005100Y001162D02*
X002648Y001162D01*
X002490Y001084D02*
X017661Y001084D01*
X017661Y001005D02*
X000581Y001005D01*
X000581Y000927D02*
X017661Y000927D01*
X017661Y000848D02*
X000581Y000848D01*
X000581Y000769D02*
X017661Y000769D01*
X017661Y000691D02*
X000581Y000691D01*
X000581Y000612D02*
X017661Y000612D01*
X018054Y000612D02*
X035134Y000612D01*
X035134Y000581D02*
X018054Y000581D01*
X018054Y001122D01*
X018137Y001122D01*
X018251Y001236D01*
X018365Y001122D01*
X018531Y001122D01*
X018645Y001236D01*
X018759Y001122D01*
X018925Y001122D01*
X019039Y001236D01*
X019153Y001122D01*
X019318Y001122D01*
X019432Y001236D01*
X019546Y001122D01*
X019712Y001122D01*
X019826Y001236D01*
X019940Y001122D01*
X020106Y001122D01*
X020220Y001236D01*
X020334Y001122D01*
X020500Y001122D01*
X020614Y001236D01*
X020728Y001122D01*
X020893Y001122D01*
X021007Y001236D01*
X021121Y001122D01*
X021287Y001122D01*
X021401Y001236D01*
X021515Y001122D01*
X021681Y001122D01*
X021795Y001236D01*
X021909Y001122D01*
X022074Y001122D01*
X022188Y001236D01*
X022302Y001122D01*
X022468Y001122D01*
X022582Y001236D01*
X022696Y001122D01*
X022862Y001122D01*
X022976Y001236D01*
X023090Y001122D01*
X023255Y001122D01*
X023369Y001236D01*
X023483Y001122D01*
X023649Y001122D01*
X023763Y001236D01*
X023877Y001122D01*
X024043Y001122D01*
X024160Y001239D01*
X024160Y001405D01*
X024043Y001522D01*
X023877Y001522D01*
X023763Y001408D01*
X023649Y001522D01*
X023483Y001522D01*
X023369Y001408D01*
X023255Y001522D01*
X023090Y001522D01*
X022976Y001408D01*
X022862Y001522D01*
X022696Y001522D01*
X022582Y001408D01*
X022468Y001522D01*
X022302Y001522D01*
X022188Y001408D01*
X022074Y001522D01*
X021909Y001522D01*
X021795Y001408D01*
X021681Y001522D01*
X021515Y001522D01*
X021401Y001408D01*
X021287Y001522D01*
X021121Y001522D01*
X021007Y001408D01*
X020893Y001522D01*
X020728Y001522D01*
X020614Y001408D01*
X020500Y001522D01*
X020334Y001522D01*
X020220Y001408D01*
X020106Y001522D01*
X019940Y001522D01*
X019826Y001408D01*
X019712Y001522D01*
X019546Y001522D01*
X019432Y001408D01*
X019318Y001522D01*
X019153Y001522D01*
X019039Y001408D01*
X018925Y001522D01*
X018759Y001522D01*
X018645Y001408D01*
X018531Y001522D01*
X018365Y001522D01*
X018251Y001408D01*
X018137Y001522D01*
X018054Y001522D01*
X018054Y004272D01*
X018137Y004272D01*
X018251Y004386D01*
X018365Y004272D01*
X018531Y004272D01*
X018645Y004386D01*
X018759Y004272D01*
X018925Y004272D01*
X019039Y004386D01*
X019153Y004272D01*
X019318Y004272D01*
X019432Y004386D01*
X019546Y004272D01*
X019712Y004272D01*
X019826Y004386D01*
X019940Y004272D01*
X020106Y004272D01*
X020220Y004386D01*
X020334Y004272D01*
X020500Y004272D01*
X020614Y004386D01*
X020728Y004272D01*
X020893Y004272D01*
X021007Y004386D01*
X021121Y004272D01*
X021287Y004272D01*
X021401Y004386D01*
X021515Y004272D01*
X021681Y004272D01*
X021795Y004386D01*
X021909Y004272D01*
X022074Y004272D01*
X022188Y004386D01*
X022302Y004272D01*
X022468Y004272D01*
X022582Y004386D01*
X022696Y004272D01*
X022862Y004272D01*
X022976Y004386D01*
X023090Y004272D01*
X023255Y004272D01*
X023369Y004386D01*
X023483Y004272D01*
X023649Y004272D01*
X023763Y004386D01*
X023877Y004272D01*
X024043Y004272D01*
X024160Y004389D01*
X024160Y004474D01*
X026518Y006832D01*
X032862Y006832D01*
X032840Y006823D01*
X032727Y006710D01*
X032666Y006563D01*
X032666Y006404D01*
X032727Y006257D01*
X032840Y006145D01*
X032987Y006084D01*
X033146Y006084D01*
X033293Y006145D01*
X033405Y006257D01*
X033466Y006404D01*
X033466Y006563D01*
X033405Y006710D01*
X033293Y006823D01*
X033271Y006832D01*
X033520Y006832D01*
X033702Y006650D01*
X033666Y006563D01*
X033666Y006404D01*
X033727Y006257D01*
X033840Y006145D01*
X033987Y006084D01*
X034146Y006084D01*
X034293Y006145D01*
X034405Y006257D01*
X034466Y006404D01*
X034466Y006563D01*
X034405Y006710D01*
X034293Y006823D01*
X034146Y006884D01*
X033987Y006884D01*
X033900Y006848D01*
X033718Y007030D01*
X033636Y007112D01*
X033214Y007112D01*
X033293Y007145D01*
X033405Y007257D01*
X033466Y007404D01*
X033466Y007563D01*
X033405Y007710D01*
X033293Y007823D01*
X033261Y007836D01*
X033516Y007836D01*
X033702Y007650D01*
X033666Y007563D01*
X033666Y007404D01*
X033727Y007257D01*
X033840Y007145D01*
X033987Y007084D01*
X034146Y007084D01*
X034293Y007145D01*
X034405Y007257D01*
X034466Y007404D01*
X034466Y007563D01*
X034405Y007710D01*
X034293Y007823D01*
X034146Y007884D01*
X033987Y007884D01*
X033900Y007848D01*
X033714Y008034D01*
X033632Y008116D01*
X033223Y008116D01*
X033293Y008145D01*
X033405Y008257D01*
X033466Y008404D01*
X033466Y008563D01*
X033405Y008710D01*
X033293Y008823D01*
X033252Y008840D01*
X033512Y008840D01*
X033702Y008650D01*
X033666Y008563D01*
X033666Y008404D01*
X033727Y008257D01*
X033840Y008145D01*
X033987Y008084D01*
X034146Y008084D01*
X034293Y008145D01*
X034405Y008257D01*
X034466Y008404D01*
X034466Y008563D01*
X034405Y008710D01*
X034293Y008823D01*
X034146Y008884D01*
X033987Y008884D01*
X033900Y008848D01*
X033710Y009038D01*
X033628Y009120D01*
X033233Y009120D01*
X033293Y009145D01*
X033405Y009257D01*
X033466Y009404D01*
X033466Y009563D01*
X033405Y009710D01*
X033293Y009823D01*
X033242Y009844D01*
X033508Y009844D01*
X033702Y009650D01*
X033666Y009563D01*
X033666Y009404D01*
X033727Y009257D01*
X033840Y009145D01*
X033987Y009084D01*
X034146Y009084D01*
X034293Y009145D01*
X034405Y009257D01*
X034466Y009404D01*
X034466Y009563D01*
X034405Y009710D01*
X034293Y009823D01*
X034146Y009884D01*
X033987Y009884D01*
X033900Y009848D01*
X033706Y010042D01*
X033624Y010124D01*
X033242Y010124D01*
X033293Y010145D01*
X033405Y010257D01*
X033466Y010404D01*
X033466Y010563D01*
X033405Y010710D01*
X033293Y010823D01*
X033233Y010848D01*
X033504Y010848D01*
X033702Y010650D01*
X033666Y010563D01*
X033666Y010404D01*
X033727Y010257D01*
X033840Y010145D01*
X033987Y010084D01*
X034146Y010084D01*
X034293Y010145D01*
X034405Y010257D01*
X034466Y010404D01*
X034466Y010563D01*
X034405Y010710D01*
X034293Y010823D01*
X034146Y010884D01*
X033987Y010884D01*
X033900Y010848D01*
X033702Y011046D01*
X033620Y011128D01*
X033252Y011128D01*
X033293Y011145D01*
X033405Y011257D01*
X033466Y011404D01*
X033466Y011563D01*
X033405Y011710D01*
X033293Y011823D01*
X033271Y011832D01*
X033520Y011832D01*
X033702Y011650D01*
X033666Y011563D01*
X033666Y011404D01*
X033727Y011257D01*
X033840Y011145D01*
X033987Y011084D01*
X034146Y011084D01*
X034293Y011145D01*
X034405Y011257D01*
X034466Y011404D01*
X034466Y011563D01*
X034405Y011710D01*
X034293Y011823D01*
X034146Y011884D01*
X033987Y011884D01*
X033900Y011848D01*
X033718Y012030D01*
X033636Y012112D01*
X033214Y012112D01*
X033293Y012145D01*
X033405Y012257D01*
X033466Y012404D01*
X033466Y012563D01*
X033405Y012710D01*
X033293Y012823D01*
X033261Y012836D01*
X033516Y012836D01*
X033702Y012650D01*
X033666Y012563D01*
X033666Y012404D01*
X033727Y012257D01*
X033840Y012145D01*
X033987Y012084D01*
X034146Y012084D01*
X034293Y012145D01*
X034405Y012257D01*
X034466Y012404D01*
X034466Y012563D01*
X034405Y012710D01*
X034293Y012823D01*
X034146Y012884D01*
X033987Y012884D01*
X033900Y012848D01*
X033714Y013034D01*
X033632Y013116D01*
X033223Y013116D01*
X033293Y013145D01*
X033405Y013257D01*
X033466Y013404D01*
X033466Y013563D01*
X033405Y013710D01*
X033293Y013823D01*
X033204Y013859D01*
X033493Y013859D01*
X033702Y013650D01*
X033666Y013563D01*
X033666Y013404D01*
X033727Y013257D01*
X033840Y013145D01*
X033987Y013084D01*
X034146Y013084D01*
X034293Y013145D01*
X034405Y013257D01*
X034466Y013404D01*
X034466Y013563D01*
X034405Y013710D01*
X034293Y013823D01*
X034146Y013884D01*
X033987Y013884D01*
X033900Y013848D01*
X033691Y014057D01*
X033609Y014139D01*
X026343Y014139D01*
X026261Y014057D01*
X021064Y008861D01*
X021064Y008744D01*
X021064Y004615D01*
X021007Y004558D01*
X020950Y004615D01*
X020950Y009138D01*
X029963Y018151D01*
X030045Y018233D01*
X030045Y019169D01*
X030074Y019100D01*
X030186Y018987D01*
X030333Y018926D01*
X030492Y018926D01*
X030639Y018987D01*
X030752Y019100D01*
X030813Y019247D01*
X030813Y019406D01*
X030752Y019553D01*
X030639Y019665D01*
X030492Y019726D01*
X030333Y019726D01*
X030186Y019665D01*
X030074Y019553D01*
X030045Y019483D01*
X030045Y019760D01*
X030247Y019962D01*
X030333Y019926D01*
X030492Y019926D01*
X030639Y019987D01*
X030752Y020100D01*
X030813Y020247D01*
X030813Y020406D01*
X030752Y020553D01*
X030639Y020665D01*
X030492Y020726D01*
X030333Y020726D01*
X030186Y020665D01*
X030074Y020553D01*
X030013Y020406D01*
X030013Y020247D01*
X030049Y020160D01*
X029765Y019876D01*
X029765Y019760D01*
X029765Y019521D01*
X029752Y019553D01*
X029639Y019665D01*
X029492Y019726D01*
X029333Y019726D01*
X029186Y019665D01*
X029074Y019553D01*
X029021Y019426D01*
X029021Y019737D01*
X029247Y019962D01*
X029333Y019926D01*
X029492Y019926D01*
X029639Y019987D01*
X029752Y020100D01*
X029813Y020247D01*
X029813Y020406D01*
X029752Y020553D01*
X029639Y020665D01*
X029492Y020726D01*
X029333Y020726D01*
X029186Y020665D01*
X029074Y020553D01*
X029013Y020406D01*
X029013Y020247D01*
X029049Y020160D01*
X028741Y019853D01*
X028741Y019737D01*
X028741Y019563D01*
X028639Y019665D01*
X028492Y019726D01*
X028333Y019726D01*
X028186Y019665D01*
X028074Y019553D01*
X028037Y019464D01*
X028037Y019752D01*
X028247Y019962D01*
X028333Y019926D01*
X028492Y019926D01*
X028639Y019987D01*
X028752Y020100D01*
X028813Y020247D01*
X028813Y020406D01*
X028752Y020553D01*
X028639Y020665D01*
X028492Y020726D01*
X028333Y020726D01*
X028186Y020665D01*
X028074Y020553D01*
X028013Y020406D01*
X028013Y020247D01*
X028049Y020160D01*
X027839Y019950D01*
X027757Y019868D01*
X027757Y019540D01*
X027752Y019553D01*
X027639Y019665D01*
X027492Y019726D01*
X027333Y019726D01*
X027186Y019665D01*
X027074Y019553D01*
X027053Y019502D01*
X027053Y019768D01*
X027247Y019962D01*
X027333Y019926D01*
X027492Y019926D01*
X027639Y019987D01*
X027752Y020100D01*
X027813Y020247D01*
X027813Y020406D01*
X027752Y020553D01*
X027639Y020665D01*
X027492Y020726D01*
X027333Y020726D01*
X027186Y020665D01*
X027074Y020553D01*
X027013Y020406D01*
X027013Y020247D01*
X027049Y020160D01*
X026855Y019966D01*
X026855Y019966D01*
X026773Y019884D01*
X026773Y019502D01*
X026752Y019553D01*
X026639Y019665D01*
X026492Y019726D01*
X026333Y019726D01*
X026186Y019665D01*
X026074Y019553D01*
X026068Y019540D01*
X026068Y019784D01*
X026247Y019962D01*
X026333Y019926D01*
X026492Y019926D01*
X026639Y019987D01*
X026752Y020100D01*
X026813Y020247D01*
X026813Y020406D01*
X026752Y020553D01*
X026639Y020665D01*
X026492Y020726D01*
X026333Y020726D01*
X026186Y020665D01*
X026074Y020553D01*
X026013Y020406D01*
X026013Y020247D01*
X026049Y020160D01*
X025870Y019982D01*
X025789Y019900D01*
X025789Y019464D01*
X025752Y019553D01*
X025639Y019665D01*
X025492Y019726D01*
X025333Y019726D01*
X025186Y019665D01*
X025074Y019553D01*
X025045Y019483D01*
X025045Y019760D01*
X025247Y019962D01*
X025333Y019926D01*
X025492Y019926D01*
X025639Y019987D01*
X025752Y020100D01*
X025813Y020247D01*
X025813Y020406D01*
X025752Y020553D01*
X025639Y020665D01*
X025492Y020726D01*
X025333Y020726D01*
X025186Y020665D01*
X025074Y020553D01*
X025013Y020406D01*
X025013Y020247D01*
X025049Y020160D01*
X024847Y019958D01*
X024765Y019876D01*
X024765Y019521D01*
X024752Y019553D01*
X024639Y019665D01*
X024492Y019726D01*
X024333Y019726D01*
X024186Y019665D01*
X024074Y019553D01*
X024061Y019521D01*
X024061Y019776D01*
X024247Y019962D01*
X024333Y019926D01*
X024492Y019926D01*
X024639Y019987D01*
X024752Y020100D01*
X024813Y020247D01*
X024813Y020406D01*
X024752Y020553D01*
X024639Y020665D01*
X024492Y020726D01*
X024333Y020726D01*
X024186Y020665D01*
X024074Y020553D01*
X024013Y020406D01*
X024013Y020247D01*
X024049Y020160D01*
X023863Y019974D01*
X023781Y019892D01*
X023781Y019483D01*
X023752Y019553D01*
X023639Y019665D01*
X023492Y019726D01*
X023333Y019726D01*
X023186Y019665D01*
X023076Y019555D01*
X023076Y019792D01*
X023247Y019962D01*
X023333Y019926D01*
X023492Y019926D01*
X023639Y019987D01*
X023752Y020100D01*
X023813Y020247D01*
X023813Y020406D01*
X023752Y020553D01*
X023639Y020665D01*
X023492Y020726D01*
X023333Y020726D01*
X023186Y020665D01*
X023074Y020553D01*
X023013Y020406D01*
X023013Y020247D01*
X023049Y020160D01*
X022878Y019990D01*
X022796Y019908D01*
X022796Y016892D01*
X022188Y016284D01*
X022188Y021748D01*
X035134Y021748D01*
X035134Y000581D01*
X035134Y000691D02*
X018054Y000691D01*
X018054Y000769D02*
X035134Y000769D01*
X035134Y000848D02*
X018054Y000848D01*
X018054Y000927D02*
X035134Y000927D01*
X035134Y001005D02*
X018054Y001005D01*
X018054Y001084D02*
X033225Y001084D01*
X033185Y001094D02*
X033462Y001020D01*
X033749Y001020D01*
X034026Y001094D01*
X034275Y001238D01*
X034478Y001441D01*
X034621Y001689D01*
X034695Y001966D01*
X034695Y002253D01*
X034621Y002530D01*
X034478Y002779D01*
X034275Y002981D01*
X034026Y003125D01*
X033749Y003199D01*
X033462Y003199D01*
X033185Y003125D01*
X032937Y002981D01*
X032734Y002779D01*
X032590Y002530D01*
X032516Y002253D01*
X032516Y001966D01*
X032590Y001689D01*
X032734Y001441D01*
X032937Y001238D01*
X033185Y001094D01*
X033067Y001162D02*
X030615Y001162D01*
X030570Y001143D02*
X030342Y001143D01*
X030132Y001231D01*
X029971Y001392D01*
X029884Y001602D01*
X029884Y001830D01*
X029971Y002040D01*
X030132Y002201D01*
X030342Y002288D01*
X030570Y002288D01*
X030780Y002201D01*
X030941Y002040D01*
X031029Y001830D01*
X031029Y001602D01*
X030941Y001392D01*
X030780Y001231D01*
X030570Y001143D01*
X030791Y001241D02*
X032934Y001241D01*
X032855Y001319D02*
X030869Y001319D01*
X030944Y001398D02*
X032776Y001398D01*
X032713Y001476D02*
X030976Y001476D01*
X031009Y001555D02*
X032668Y001555D01*
X032622Y001633D02*
X031029Y001633D01*
X031029Y001712D02*
X032584Y001712D01*
X032563Y001791D02*
X031029Y001791D01*
X031012Y001869D02*
X032542Y001869D01*
X032521Y001948D02*
X030980Y001948D01*
X030947Y002026D02*
X032516Y002026D01*
X032516Y002105D02*
X030877Y002105D01*
X030798Y002183D02*
X032516Y002183D01*
X032518Y002262D02*
X030634Y002262D01*
X030278Y002262D02*
X028272Y002262D01*
X028208Y002288D02*
X028418Y002201D01*
X028579Y002040D01*
X028666Y001830D01*
X028666Y001602D01*
X028579Y001392D01*
X028418Y001231D01*
X028208Y001143D01*
X027980Y001143D01*
X027770Y001231D01*
X027609Y001392D01*
X027521Y001602D01*
X027521Y001830D01*
X027609Y002040D01*
X027770Y002201D01*
X027980Y002288D01*
X028208Y002288D01*
X028436Y002183D02*
X030114Y002183D01*
X030035Y002105D02*
X028515Y002105D01*
X028585Y002026D02*
X029965Y002026D01*
X029932Y001948D02*
X028618Y001948D01*
X028650Y001869D02*
X029900Y001869D01*
X029884Y001791D02*
X028666Y001791D01*
X028666Y001712D02*
X029884Y001712D01*
X029884Y001633D02*
X028666Y001633D01*
X028647Y001555D02*
X029903Y001555D01*
X029936Y001476D02*
X028614Y001476D01*
X028582Y001398D02*
X029968Y001398D01*
X030043Y001319D02*
X028507Y001319D01*
X028428Y001241D02*
X030122Y001241D01*
X030297Y001162D02*
X028253Y001162D01*
X027935Y001162D02*
X024083Y001162D01*
X024160Y001241D02*
X027759Y001241D01*
X027681Y001319D02*
X024160Y001319D01*
X024160Y001398D02*
X027606Y001398D01*
X027573Y001476D02*
X024089Y001476D01*
X023831Y001476D02*
X023695Y001476D01*
X023438Y001476D02*
X023301Y001476D01*
X023044Y001476D02*
X022908Y001476D01*
X022650Y001476D02*
X022514Y001476D01*
X022256Y001476D02*
X022120Y001476D01*
X021863Y001476D02*
X021726Y001476D01*
X021469Y001476D02*
X021333Y001476D01*
X021075Y001476D02*
X020939Y001476D01*
X020682Y001476D02*
X020545Y001476D01*
X020288Y001476D02*
X020152Y001476D01*
X019894Y001476D02*
X019758Y001476D01*
X019501Y001476D02*
X019364Y001476D01*
X019107Y001476D02*
X018971Y001476D01*
X018713Y001476D02*
X018577Y001476D01*
X018319Y001476D02*
X018183Y001476D01*
X018054Y001555D02*
X027541Y001555D01*
X027521Y001633D02*
X018054Y001633D01*
X018054Y001712D02*
X027521Y001712D01*
X027521Y001791D02*
X018054Y001791D01*
X018054Y001869D02*
X027538Y001869D01*
X027570Y001948D02*
X018054Y001948D01*
X018054Y002026D02*
X027603Y002026D01*
X027673Y002105D02*
X018054Y002105D01*
X018054Y002183D02*
X024483Y002183D01*
X024487Y002181D02*
X024772Y002181D01*
X025035Y002290D01*
X025236Y002492D01*
X025345Y002755D01*
X025345Y003039D01*
X025236Y003302D01*
X025035Y003504D01*
X024772Y003613D01*
X024487Y003613D01*
X024224Y003504D01*
X024023Y003302D01*
X023914Y003039D01*
X023914Y002755D01*
X024023Y002492D01*
X024224Y002290D01*
X024487Y002181D01*
X024293Y002262D02*
X018054Y002262D01*
X018054Y002340D02*
X024174Y002340D01*
X024095Y002419D02*
X018054Y002419D01*
X018054Y002497D02*
X024020Y002497D01*
X023988Y002576D02*
X018054Y002576D01*
X018054Y002654D02*
X023955Y002654D01*
X023923Y002733D02*
X018054Y002733D01*
X018054Y002812D02*
X023914Y002812D01*
X023914Y002890D02*
X018054Y002890D01*
X018054Y002969D02*
X023914Y002969D01*
X023917Y003047D02*
X018054Y003047D01*
X018054Y003126D02*
X023950Y003126D01*
X023982Y003204D02*
X018054Y003204D01*
X018054Y003283D02*
X024015Y003283D01*
X024082Y003361D02*
X018054Y003361D01*
X018054Y003440D02*
X024160Y003440D01*
X024260Y003518D02*
X018054Y003518D01*
X018054Y003597D02*
X024449Y003597D01*
X024809Y003597D02*
X027765Y003597D01*
X027770Y003593D02*
X027980Y003506D01*
X028208Y003506D01*
X028418Y003593D01*
X028579Y003754D01*
X029971Y003754D01*
X030132Y003593D01*
X030342Y003506D01*
X030570Y003506D01*
X030780Y003593D01*
X030941Y003754D01*
X031029Y003964D01*
X031029Y004192D01*
X030941Y004402D01*
X030780Y004563D01*
X030570Y004651D01*
X030342Y004651D01*
X030132Y004563D01*
X029971Y004402D01*
X029884Y004192D01*
X029884Y003964D01*
X029971Y003754D01*
X029938Y003833D02*
X028612Y003833D01*
X028644Y003911D02*
X029905Y003911D01*
X029884Y003990D02*
X028666Y003990D01*
X028666Y003964D02*
X028579Y003754D01*
X028501Y003676D02*
X030049Y003676D01*
X030127Y003597D02*
X028422Y003597D01*
X028239Y003518D02*
X030311Y003518D01*
X030601Y003518D02*
X035134Y003518D01*
X035134Y003440D02*
X025098Y003440D01*
X025177Y003361D02*
X035134Y003361D01*
X035134Y003283D02*
X025244Y003283D01*
X025277Y003204D02*
X035134Y003204D01*
X035134Y003126D02*
X034023Y003126D01*
X034161Y003047D02*
X035134Y003047D01*
X035134Y002969D02*
X034288Y002969D01*
X034366Y002890D02*
X035134Y002890D01*
X035134Y002812D02*
X034445Y002812D01*
X034504Y002733D02*
X035134Y002733D01*
X035134Y002654D02*
X034549Y002654D01*
X034595Y002576D02*
X035134Y002576D01*
X035134Y002497D02*
X034630Y002497D01*
X034651Y002419D02*
X035134Y002419D01*
X035134Y002340D02*
X034672Y002340D01*
X034693Y002262D02*
X035134Y002262D01*
X035134Y002183D02*
X034695Y002183D01*
X034695Y002105D02*
X035134Y002105D01*
X035134Y002026D02*
X034695Y002026D01*
X034690Y001948D02*
X035134Y001948D01*
X035134Y001869D02*
X034669Y001869D01*
X034648Y001791D02*
X035134Y001791D01*
X035134Y001712D02*
X034627Y001712D01*
X034589Y001633D02*
X035134Y001633D01*
X035134Y001555D02*
X034544Y001555D01*
X034498Y001476D02*
X035134Y001476D01*
X035134Y001398D02*
X034435Y001398D01*
X034356Y001319D02*
X035134Y001319D01*
X035134Y001241D02*
X034278Y001241D01*
X034144Y001162D02*
X035134Y001162D01*
X035134Y001084D02*
X033987Y001084D01*
X032539Y002340D02*
X025085Y002340D01*
X025163Y002419D02*
X032561Y002419D01*
X032582Y002497D02*
X025238Y002497D01*
X025271Y002576D02*
X032617Y002576D01*
X032662Y002654D02*
X025303Y002654D01*
X025336Y002733D02*
X032707Y002733D01*
X032767Y002812D02*
X025345Y002812D01*
X025345Y002890D02*
X032845Y002890D01*
X032924Y002969D02*
X025345Y002969D01*
X025342Y003047D02*
X033050Y003047D01*
X033188Y003126D02*
X025309Y003126D01*
X024999Y003518D02*
X027949Y003518D01*
X027770Y003593D02*
X027609Y003754D01*
X027521Y003964D01*
X027521Y004192D01*
X027609Y004402D01*
X027770Y004563D01*
X027980Y004651D01*
X028208Y004651D01*
X028418Y004563D01*
X028579Y004402D01*
X028666Y004192D01*
X028666Y003964D01*
X028666Y004068D02*
X029884Y004068D01*
X029884Y004147D02*
X028666Y004147D01*
X028653Y004225D02*
X029897Y004225D01*
X029930Y004304D02*
X028620Y004304D01*
X028587Y004382D02*
X029962Y004382D01*
X030029Y004461D02*
X028521Y004461D01*
X028442Y004540D02*
X030108Y004540D01*
X030264Y004618D02*
X028286Y004618D01*
X027901Y004618D02*
X024304Y004618D01*
X024226Y004540D02*
X027746Y004540D01*
X027667Y004461D02*
X024160Y004461D01*
X024153Y004382D02*
X027600Y004382D01*
X027568Y004304D02*
X024075Y004304D01*
X023960Y004472D02*
X026460Y006972D01*
X033578Y006972D01*
X034066Y006484D01*
X033666Y006503D02*
X033466Y006503D01*
X033466Y006425D02*
X033666Y006425D01*
X033690Y006346D02*
X033442Y006346D01*
X033410Y006267D02*
X033723Y006267D01*
X033795Y006189D02*
X033337Y006189D01*
X033210Y006110D02*
X033922Y006110D01*
X034210Y006110D02*
X035134Y006110D01*
X035134Y006032D02*
X025718Y006032D01*
X025797Y006110D02*
X032922Y006110D01*
X032795Y006189D02*
X025875Y006189D01*
X025954Y006267D02*
X032723Y006267D01*
X032690Y006346D02*
X026032Y006346D01*
X026111Y006425D02*
X032666Y006425D01*
X032666Y006503D02*
X026189Y006503D01*
X026268Y006582D02*
X032674Y006582D01*
X032706Y006660D02*
X026346Y006660D01*
X026425Y006739D02*
X032756Y006739D01*
X032834Y006817D02*
X026503Y006817D01*
X025436Y007129D02*
X026283Y007976D01*
X033574Y007976D01*
X034066Y007484D01*
X034356Y007760D02*
X035134Y007760D01*
X035134Y007838D02*
X034255Y007838D01*
X034417Y007681D02*
X035134Y007681D01*
X035134Y007603D02*
X034450Y007603D01*
X034466Y007524D02*
X035134Y007524D01*
X035134Y007446D02*
X034466Y007446D01*
X034451Y007367D02*
X035134Y007367D01*
X035134Y007289D02*
X034418Y007289D01*
X034358Y007210D02*
X035134Y007210D01*
X035134Y007131D02*
X034261Y007131D01*
X033871Y007131D02*
X033261Y007131D01*
X033358Y007210D02*
X033774Y007210D01*
X033714Y007289D02*
X033418Y007289D01*
X033451Y007367D02*
X033682Y007367D01*
X033666Y007446D02*
X033466Y007446D01*
X033466Y007524D02*
X033666Y007524D01*
X033683Y007603D02*
X033450Y007603D01*
X033417Y007681D02*
X033671Y007681D01*
X033592Y007760D02*
X033356Y007760D01*
X033752Y007995D02*
X035134Y007995D01*
X035134Y007917D02*
X033831Y007917D01*
X033674Y008074D02*
X035134Y008074D01*
X035134Y008153D02*
X034301Y008153D01*
X034379Y008231D02*
X035134Y008231D01*
X035134Y008310D02*
X034427Y008310D01*
X034460Y008388D02*
X035134Y008388D01*
X035134Y008467D02*
X034466Y008467D01*
X034466Y008545D02*
X035134Y008545D01*
X035134Y008624D02*
X034441Y008624D01*
X034409Y008702D02*
X035134Y008702D01*
X035134Y008781D02*
X034335Y008781D01*
X034204Y008859D02*
X035134Y008859D01*
X035134Y008938D02*
X033810Y008938D01*
X033888Y008859D02*
X033928Y008859D01*
X033959Y009095D02*
X033653Y009095D01*
X033731Y009016D02*
X035134Y009016D01*
X035134Y009095D02*
X034173Y009095D01*
X034322Y009174D02*
X035134Y009174D01*
X035134Y009252D02*
X034400Y009252D01*
X034436Y009331D02*
X035134Y009331D01*
X035134Y009409D02*
X034466Y009409D01*
X034466Y009488D02*
X035134Y009488D01*
X035134Y009566D02*
X034465Y009566D01*
X034432Y009645D02*
X035134Y009645D01*
X035134Y009723D02*
X034392Y009723D01*
X034314Y009802D02*
X035134Y009802D01*
X035134Y009880D02*
X034153Y009880D01*
X033979Y009880D02*
X033867Y009880D01*
X033789Y009959D02*
X035134Y009959D01*
X035134Y010038D02*
X033710Y010038D01*
X033632Y010116D02*
X033908Y010116D01*
X033790Y010195D02*
X033343Y010195D01*
X033412Y010273D02*
X033720Y010273D01*
X033688Y010352D02*
X033445Y010352D01*
X033466Y010430D02*
X033666Y010430D01*
X033666Y010509D02*
X033466Y010509D01*
X033456Y010587D02*
X033676Y010587D01*
X033686Y010666D02*
X033424Y010666D01*
X033371Y010744D02*
X033607Y010744D01*
X033529Y010823D02*
X033292Y010823D01*
X033275Y011137D02*
X033857Y011137D01*
X033769Y011216D02*
X033364Y011216D01*
X033421Y011294D02*
X033712Y011294D01*
X033679Y011373D02*
X033453Y011373D01*
X033466Y011451D02*
X033666Y011451D01*
X033666Y011530D02*
X033466Y011530D01*
X033448Y011608D02*
X033685Y011608D01*
X033665Y011687D02*
X033415Y011687D01*
X033350Y011766D02*
X033586Y011766D01*
X033578Y011972D02*
X025948Y011972D01*
X021991Y008015D01*
X021991Y004472D01*
X021851Y004615D02*
X021795Y004558D01*
X021738Y004615D01*
X021738Y008351D01*
X026223Y012836D01*
X032871Y012836D01*
X032840Y012823D01*
X032727Y012710D01*
X032666Y012563D01*
X032666Y012404D01*
X032727Y012257D01*
X032840Y012145D01*
X032919Y012112D01*
X025890Y012112D01*
X025808Y012030D01*
X021851Y008073D01*
X021851Y007957D01*
X021851Y004615D01*
X021851Y004618D02*
X021738Y004618D01*
X021738Y004697D02*
X021851Y004697D01*
X021851Y004775D02*
X021738Y004775D01*
X021738Y004854D02*
X021851Y004854D01*
X021851Y004932D02*
X021738Y004932D01*
X021738Y005011D02*
X021851Y005011D01*
X021851Y005089D02*
X021738Y005089D01*
X021738Y005168D02*
X021851Y005168D01*
X021851Y005246D02*
X021738Y005246D01*
X021738Y005325D02*
X021851Y005325D01*
X021851Y005404D02*
X021738Y005404D01*
X021738Y005482D02*
X021851Y005482D01*
X021851Y005561D02*
X021738Y005561D01*
X021738Y005639D02*
X021851Y005639D01*
X021851Y005718D02*
X021738Y005718D01*
X021738Y005796D02*
X021851Y005796D01*
X021851Y005875D02*
X021738Y005875D01*
X021738Y005953D02*
X021851Y005953D01*
X021851Y006032D02*
X021738Y006032D01*
X021738Y006110D02*
X021851Y006110D01*
X021851Y006189D02*
X021738Y006189D01*
X021738Y006267D02*
X021851Y006267D01*
X021851Y006346D02*
X021738Y006346D01*
X021738Y006425D02*
X021851Y006425D01*
X021851Y006503D02*
X021738Y006503D01*
X021738Y006582D02*
X021851Y006582D01*
X021851Y006660D02*
X021738Y006660D01*
X021738Y006739D02*
X021851Y006739D01*
X021851Y006817D02*
X021738Y006817D01*
X021738Y006896D02*
X021851Y006896D01*
X021851Y006974D02*
X021738Y006974D01*
X021738Y007053D02*
X021851Y007053D01*
X021851Y007131D02*
X021738Y007131D01*
X021738Y007210D02*
X021851Y007210D01*
X021851Y007289D02*
X021738Y007289D01*
X021738Y007367D02*
X021851Y007367D01*
X021851Y007446D02*
X021738Y007446D01*
X021738Y007524D02*
X021851Y007524D01*
X021851Y007603D02*
X021738Y007603D01*
X021738Y007681D02*
X021851Y007681D01*
X021851Y007760D02*
X021738Y007760D01*
X021738Y007838D02*
X021851Y007838D01*
X021851Y007917D02*
X021738Y007917D01*
X021738Y007995D02*
X021851Y007995D01*
X021852Y008074D02*
X021738Y008074D01*
X021738Y008153D02*
X021931Y008153D01*
X022009Y008231D02*
X021738Y008231D01*
X021738Y008310D02*
X022088Y008310D01*
X022167Y008388D02*
X021775Y008388D01*
X021854Y008467D02*
X022245Y008467D01*
X022324Y008545D02*
X021932Y008545D01*
X022011Y008624D02*
X022402Y008624D01*
X022481Y008702D02*
X022089Y008702D01*
X022168Y008781D02*
X022559Y008781D01*
X022638Y008859D02*
X022246Y008859D01*
X022325Y008938D02*
X022716Y008938D01*
X022795Y009016D02*
X022403Y009016D01*
X022482Y009095D02*
X022873Y009095D01*
X022952Y009174D02*
X022561Y009174D01*
X022639Y009252D02*
X023031Y009252D01*
X023109Y009331D02*
X022718Y009331D01*
X022796Y009409D02*
X023188Y009409D01*
X023266Y009488D02*
X022875Y009488D01*
X022953Y009566D02*
X023345Y009566D01*
X023423Y009645D02*
X023032Y009645D01*
X023110Y009723D02*
X023502Y009723D01*
X023580Y009802D02*
X023189Y009802D01*
X023267Y009880D02*
X023659Y009880D01*
X023737Y009959D02*
X023346Y009959D01*
X023425Y010038D02*
X023816Y010038D01*
X023894Y010116D02*
X023503Y010116D01*
X023582Y010195D02*
X023973Y010195D01*
X024052Y010273D02*
X023660Y010273D01*
X023739Y010352D02*
X024130Y010352D01*
X024209Y010430D02*
X023817Y010430D01*
X023896Y010509D02*
X024287Y010509D01*
X024366Y010587D02*
X023974Y010587D01*
X024053Y010666D02*
X024444Y010666D01*
X024523Y010744D02*
X024131Y010744D01*
X024210Y010823D02*
X024601Y010823D01*
X024680Y010902D02*
X024289Y010902D01*
X024367Y010980D02*
X024758Y010980D01*
X024837Y011059D02*
X024446Y011059D01*
X024524Y011137D02*
X024916Y011137D01*
X024994Y011216D02*
X024603Y011216D01*
X024681Y011294D02*
X025073Y011294D01*
X025151Y011373D02*
X024760Y011373D01*
X024838Y011451D02*
X025230Y011451D01*
X025308Y011530D02*
X024917Y011530D01*
X024995Y011608D02*
X025387Y011608D01*
X025465Y011687D02*
X025074Y011687D01*
X025152Y011766D02*
X025544Y011766D01*
X025622Y011844D02*
X025231Y011844D01*
X025310Y011923D02*
X025701Y011923D01*
X025780Y012001D02*
X025388Y012001D01*
X025467Y012080D02*
X025858Y012080D01*
X025624Y012237D02*
X032747Y012237D01*
X032703Y012315D02*
X025702Y012315D01*
X025781Y012394D02*
X032670Y012394D01*
X032666Y012472D02*
X025859Y012472D01*
X025938Y012551D02*
X032666Y012551D01*
X032694Y012629D02*
X026016Y012629D01*
X026095Y012708D02*
X032726Y012708D01*
X032804Y012787D02*
X026174Y012787D01*
X026165Y012976D02*
X033574Y012976D01*
X034066Y012484D01*
X033694Y012629D02*
X033439Y012629D01*
X033466Y012551D02*
X033666Y012551D01*
X033666Y012472D02*
X033466Y012472D01*
X033462Y012394D02*
X033670Y012394D01*
X033703Y012315D02*
X033429Y012315D01*
X033385Y012237D02*
X033747Y012237D01*
X033826Y012158D02*
X033307Y012158D01*
X033578Y011972D02*
X034066Y011484D01*
X034350Y011766D02*
X035134Y011766D01*
X035134Y011844D02*
X034241Y011844D01*
X034415Y011687D02*
X035134Y011687D01*
X035134Y011608D02*
X034448Y011608D01*
X034466Y011530D02*
X035134Y011530D01*
X035134Y011451D02*
X034466Y011451D01*
X034453Y011373D02*
X035134Y011373D01*
X035134Y011294D02*
X034421Y011294D01*
X034364Y011216D02*
X035134Y011216D01*
X035134Y011137D02*
X034275Y011137D01*
X034292Y010823D02*
X035134Y010823D01*
X035134Y010902D02*
X033846Y010902D01*
X033768Y010980D02*
X035134Y010980D01*
X035134Y011059D02*
X033689Y011059D01*
X033562Y010988D02*
X025751Y010988D01*
X022385Y007621D01*
X022385Y004472D01*
X022270Y004304D02*
X022106Y004304D01*
X022185Y004382D02*
X022192Y004382D01*
X022500Y004304D02*
X022664Y004304D01*
X022585Y004382D02*
X022579Y004382D01*
X022779Y004472D02*
X022779Y006834D01*
X025929Y009984D01*
X033566Y009984D01*
X034066Y009484D01*
X033700Y009645D02*
X033432Y009645D01*
X033465Y009566D02*
X033668Y009566D01*
X033666Y009488D02*
X033466Y009488D01*
X033466Y009409D02*
X033666Y009409D01*
X033697Y009331D02*
X033436Y009331D01*
X033400Y009252D02*
X033732Y009252D01*
X033811Y009174D02*
X033322Y009174D01*
X033570Y008980D02*
X026106Y008980D01*
X023173Y006047D01*
X023173Y004472D01*
X023287Y004304D02*
X023451Y004304D01*
X023373Y004382D02*
X023366Y004382D01*
X023566Y004472D02*
X023566Y005259D01*
X025436Y007129D01*
X025639Y005953D02*
X035134Y005953D01*
X035134Y005875D02*
X025561Y005875D01*
X025482Y005796D02*
X035134Y005796D01*
X035134Y005718D02*
X025404Y005718D01*
X025325Y005639D02*
X035134Y005639D01*
X035134Y005561D02*
X025247Y005561D01*
X025168Y005482D02*
X035134Y005482D01*
X035134Y005404D02*
X025090Y005404D01*
X025011Y005325D02*
X035134Y005325D01*
X035134Y005246D02*
X033810Y005246D01*
X033841Y005236D02*
X033749Y005266D01*
X033654Y005281D01*
X033646Y005281D01*
X033646Y004709D01*
X034218Y004709D01*
X034218Y004717D01*
X034203Y004812D01*
X034173Y004904D01*
X034130Y004990D01*
X034073Y005068D01*
X034005Y005136D01*
X033927Y005193D01*
X033841Y005236D01*
X033961Y005168D02*
X035134Y005168D01*
X035134Y005089D02*
X034051Y005089D01*
X034114Y005011D02*
X035134Y005011D01*
X035134Y004932D02*
X034159Y004932D01*
X034190Y004854D02*
X035134Y004854D01*
X035134Y004775D02*
X034209Y004775D01*
X034218Y004629D02*
X033646Y004629D01*
X033646Y004709D01*
X033566Y004709D01*
X033566Y005281D01*
X033557Y005281D01*
X033462Y005266D01*
X033371Y005236D01*
X033285Y005193D01*
X033207Y005136D01*
X033138Y005068D01*
X033082Y004990D01*
X033038Y004904D01*
X033008Y004812D01*
X032993Y004717D01*
X032993Y004709D01*
X033565Y004709D01*
X033565Y004629D01*
X032993Y004629D01*
X032993Y004620D01*
X033008Y004525D01*
X033038Y004434D01*
X033082Y004348D01*
X033138Y004270D01*
X033207Y004201D01*
X033285Y004145D01*
X033371Y004101D01*
X033462Y004071D01*
X033557Y004056D01*
X033566Y004056D01*
X033566Y004628D01*
X033646Y004628D01*
X033646Y004056D01*
X033654Y004056D01*
X033749Y004071D01*
X033841Y004101D01*
X033927Y004145D01*
X034005Y004201D01*
X034073Y004270D01*
X034130Y004348D01*
X034173Y004434D01*
X034203Y004525D01*
X034218Y004620D01*
X034218Y004629D01*
X034218Y004618D02*
X035134Y004618D01*
X035134Y004540D02*
X034205Y004540D01*
X034182Y004461D02*
X035134Y004461D01*
X035134Y004382D02*
X034147Y004382D01*
X034098Y004304D02*
X035134Y004304D01*
X035134Y004225D02*
X034029Y004225D01*
X033929Y004147D02*
X035134Y004147D01*
X035134Y004068D02*
X033730Y004068D01*
X033646Y004068D02*
X033566Y004068D01*
X033566Y004147D02*
X033646Y004147D01*
X033646Y004225D02*
X033566Y004225D01*
X033566Y004304D02*
X033646Y004304D01*
X033646Y004382D02*
X033566Y004382D01*
X033566Y004461D02*
X033646Y004461D01*
X033646Y004540D02*
X033566Y004540D01*
X033566Y004618D02*
X033646Y004618D01*
X033646Y004697D02*
X035134Y004697D01*
X035134Y003990D02*
X031029Y003990D01*
X031029Y004068D02*
X033481Y004068D01*
X033282Y004147D02*
X031029Y004147D01*
X031015Y004225D02*
X033183Y004225D01*
X033114Y004304D02*
X030982Y004304D01*
X030950Y004382D02*
X033064Y004382D01*
X033029Y004461D02*
X030883Y004461D01*
X030804Y004540D02*
X033006Y004540D01*
X032994Y004618D02*
X030648Y004618D01*
X031007Y003911D02*
X035134Y003911D01*
X035134Y003833D02*
X030974Y003833D01*
X030941Y003754D02*
X035134Y003754D01*
X035134Y003676D02*
X030863Y003676D01*
X030785Y003597D02*
X035134Y003597D01*
X033646Y004775D02*
X033566Y004775D01*
X033565Y004697D02*
X024383Y004697D01*
X024461Y004775D02*
X033002Y004775D01*
X033022Y004854D02*
X024540Y004854D01*
X024618Y004932D02*
X033053Y004932D01*
X033097Y005011D02*
X024697Y005011D01*
X024776Y005089D02*
X033160Y005089D01*
X033251Y005168D02*
X024854Y005168D01*
X024933Y005246D02*
X033402Y005246D01*
X033566Y005246D02*
X033646Y005246D01*
X033646Y005168D02*
X033566Y005168D01*
X033566Y005089D02*
X033646Y005089D01*
X033646Y005011D02*
X033566Y005011D01*
X033566Y004932D02*
X033646Y004932D01*
X033646Y004854D02*
X033566Y004854D01*
X034337Y006189D02*
X035134Y006189D01*
X035134Y006267D02*
X034410Y006267D01*
X034442Y006346D02*
X035134Y006346D01*
X035134Y006425D02*
X034466Y006425D01*
X034466Y006503D02*
X035134Y006503D01*
X035134Y006582D02*
X034459Y006582D01*
X034426Y006660D02*
X035134Y006660D01*
X035134Y006739D02*
X034377Y006739D01*
X034298Y006817D02*
X035134Y006817D01*
X035134Y006896D02*
X033852Y006896D01*
X033774Y006974D02*
X035134Y006974D01*
X035134Y007053D02*
X033695Y007053D01*
X033535Y006817D02*
X033298Y006817D01*
X033377Y006739D02*
X033613Y006739D01*
X033692Y006660D02*
X033426Y006660D01*
X033459Y006582D02*
X033674Y006582D01*
X033832Y008153D02*
X033301Y008153D01*
X033379Y008231D02*
X033753Y008231D01*
X033705Y008310D02*
X033427Y008310D01*
X033460Y008388D02*
X033673Y008388D01*
X033666Y008467D02*
X033466Y008467D01*
X033466Y008545D02*
X033666Y008545D01*
X033691Y008624D02*
X033441Y008624D01*
X033409Y008702D02*
X033650Y008702D01*
X033571Y008781D02*
X033335Y008781D01*
X033570Y008980D02*
X034066Y008484D01*
X033629Y009723D02*
X033392Y009723D01*
X033314Y009802D02*
X033550Y009802D01*
X034224Y010116D02*
X035134Y010116D01*
X035134Y010195D02*
X034343Y010195D01*
X034412Y010273D02*
X035134Y010273D01*
X035134Y010352D02*
X034445Y010352D01*
X034466Y010430D02*
X035134Y010430D01*
X035134Y010509D02*
X034466Y010509D01*
X034456Y010587D02*
X035134Y010587D01*
X035134Y010666D02*
X034424Y010666D01*
X034371Y010744D02*
X035134Y010744D01*
X034066Y010484D02*
X033562Y010988D01*
X033825Y011923D02*
X035134Y011923D01*
X035134Y012001D02*
X033747Y012001D01*
X033668Y012080D02*
X035134Y012080D01*
X035134Y012158D02*
X034307Y012158D01*
X034385Y012237D02*
X035134Y012237D01*
X035134Y012315D02*
X034429Y012315D01*
X034462Y012394D02*
X035134Y012394D01*
X035134Y012472D02*
X034466Y012472D01*
X034466Y012551D02*
X035134Y012551D01*
X035134Y012629D02*
X034439Y012629D01*
X034406Y012708D02*
X035134Y012708D01*
X035134Y012787D02*
X034329Y012787D01*
X034190Y012865D02*
X035134Y012865D01*
X035134Y012944D02*
X033804Y012944D01*
X033726Y013022D02*
X035134Y013022D01*
X035134Y013101D02*
X034187Y013101D01*
X034328Y013179D02*
X035134Y013179D01*
X035134Y013258D02*
X034406Y013258D01*
X034438Y013336D02*
X035134Y013336D01*
X035134Y013415D02*
X034466Y013415D01*
X034466Y013493D02*
X035134Y013493D01*
X035134Y013572D02*
X034463Y013572D01*
X034430Y013651D02*
X035134Y013651D01*
X035134Y013729D02*
X034386Y013729D01*
X034308Y013808D02*
X035134Y013808D01*
X035134Y013886D02*
X033862Y013886D01*
X033783Y013965D02*
X035134Y013965D01*
X035134Y014043D02*
X033705Y014043D01*
X033626Y014122D02*
X035134Y014122D01*
X035134Y014200D02*
X026013Y014200D01*
X026091Y014279D02*
X035134Y014279D01*
X035134Y014357D02*
X026170Y014357D01*
X026248Y014436D02*
X035134Y014436D01*
X035134Y014515D02*
X026327Y014515D01*
X026405Y014593D02*
X035134Y014593D01*
X035134Y014672D02*
X026484Y014672D01*
X026562Y014750D02*
X035134Y014750D01*
X035134Y014829D02*
X026641Y014829D01*
X026719Y014907D02*
X035134Y014907D01*
X035134Y014986D02*
X026798Y014986D01*
X026876Y015064D02*
X035134Y015064D01*
X035134Y015143D02*
X026955Y015143D01*
X027034Y015221D02*
X035134Y015221D01*
X035134Y015300D02*
X027112Y015300D01*
X027191Y015379D02*
X035134Y015379D01*
X035134Y015457D02*
X027269Y015457D01*
X027348Y015536D02*
X035134Y015536D01*
X035134Y015614D02*
X027426Y015614D01*
X027505Y015693D02*
X035134Y015693D01*
X035134Y015771D02*
X027583Y015771D01*
X027662Y015850D02*
X035134Y015850D01*
X035134Y015928D02*
X027740Y015928D01*
X027819Y016007D02*
X035134Y016007D01*
X035134Y016085D02*
X027898Y016085D01*
X027976Y016164D02*
X035134Y016164D01*
X035134Y016242D02*
X028055Y016242D01*
X028133Y016321D02*
X035134Y016321D01*
X035134Y016400D02*
X028212Y016400D01*
X028290Y016478D02*
X035134Y016478D01*
X035134Y016557D02*
X028369Y016557D01*
X028447Y016635D02*
X035134Y016635D01*
X035134Y016714D02*
X028526Y016714D01*
X028604Y016792D02*
X033372Y016792D01*
X033462Y016768D02*
X033749Y016768D01*
X034026Y016842D01*
X034275Y016986D01*
X034478Y017189D01*
X034621Y017437D01*
X034695Y017714D01*
X034695Y018001D01*
X034621Y018278D01*
X034478Y018527D01*
X034275Y018730D01*
X034026Y018873D01*
X033749Y018947D01*
X033462Y018947D01*
X033185Y018873D01*
X032937Y018730D01*
X032734Y018527D01*
X032590Y018278D01*
X032516Y018001D01*
X032516Y017714D01*
X032590Y017437D01*
X032734Y017189D01*
X032937Y016986D01*
X033185Y016842D01*
X033462Y016768D01*
X033136Y016871D02*
X028683Y016871D01*
X028762Y016949D02*
X033000Y016949D01*
X032894Y017028D02*
X028840Y017028D01*
X028919Y017106D02*
X032816Y017106D01*
X032737Y017185D02*
X028997Y017185D01*
X029076Y017264D02*
X032690Y017264D01*
X032645Y017342D02*
X029154Y017342D01*
X029233Y017421D02*
X032600Y017421D01*
X032574Y017499D02*
X029311Y017499D01*
X029390Y017578D02*
X032553Y017578D01*
X032532Y017656D02*
X029468Y017656D01*
X029547Y017735D02*
X032516Y017735D01*
X032516Y017813D02*
X029626Y017813D01*
X029704Y017892D02*
X032516Y017892D01*
X032516Y017970D02*
X029783Y017970D01*
X029861Y018049D02*
X032529Y018049D01*
X032550Y018128D02*
X029940Y018128D01*
X030018Y018206D02*
X032571Y018206D01*
X032594Y018285D02*
X030045Y018285D01*
X030045Y018363D02*
X032639Y018363D01*
X032685Y018442D02*
X030045Y018442D01*
X030045Y018520D02*
X032730Y018520D01*
X032806Y018599D02*
X030045Y018599D01*
X030045Y018677D02*
X032884Y018677D01*
X032982Y018756D02*
X030045Y018756D01*
X030045Y018834D02*
X033118Y018834D01*
X033334Y018913D02*
X030045Y018913D01*
X030045Y018991D02*
X030182Y018991D01*
X030103Y019070D02*
X030045Y019070D01*
X030045Y019149D02*
X030053Y019149D01*
X030644Y018991D02*
X035134Y018991D01*
X035134Y018913D02*
X033877Y018913D01*
X034093Y018834D02*
X035134Y018834D01*
X035134Y018756D02*
X034229Y018756D01*
X034327Y018677D02*
X035134Y018677D01*
X035134Y018599D02*
X034405Y018599D01*
X034481Y018520D02*
X035134Y018520D01*
X035134Y018442D02*
X034527Y018442D01*
X034572Y018363D02*
X035134Y018363D01*
X035134Y018285D02*
X034617Y018285D01*
X034640Y018206D02*
X035134Y018206D01*
X035134Y018128D02*
X034661Y018128D01*
X034682Y018049D02*
X035134Y018049D01*
X035134Y017970D02*
X034695Y017970D01*
X034695Y017892D02*
X035134Y017892D01*
X035134Y017813D02*
X034695Y017813D01*
X034695Y017735D02*
X035134Y017735D01*
X035134Y017656D02*
X034680Y017656D01*
X034659Y017578D02*
X035134Y017578D01*
X035134Y017499D02*
X034638Y017499D01*
X034611Y017421D02*
X035134Y017421D01*
X035134Y017342D02*
X034566Y017342D01*
X034521Y017264D02*
X035134Y017264D01*
X035134Y017185D02*
X034474Y017185D01*
X034395Y017106D02*
X035134Y017106D01*
X035134Y017028D02*
X034317Y017028D01*
X034212Y016949D02*
X035134Y016949D01*
X035134Y016871D02*
X034076Y016871D01*
X033840Y016792D02*
X035134Y016792D01*
X035134Y019070D02*
X030722Y019070D01*
X030772Y019149D02*
X035134Y019149D01*
X035134Y019227D02*
X030805Y019227D01*
X030813Y019306D02*
X035134Y019306D01*
X035134Y019384D02*
X030813Y019384D01*
X030789Y019463D02*
X035134Y019463D01*
X035134Y019541D02*
X030757Y019541D01*
X030685Y019620D02*
X035134Y019620D01*
X035134Y019698D02*
X030559Y019698D01*
X030511Y019934D02*
X035134Y019934D01*
X035134Y019855D02*
X030140Y019855D01*
X030062Y019777D02*
X035134Y019777D01*
X035134Y020013D02*
X033727Y020013D01*
X033749Y020016D02*
X033841Y020046D01*
X033927Y020090D01*
X034005Y020146D01*
X034073Y020214D01*
X034130Y020292D01*
X034173Y020378D01*
X034203Y020470D01*
X034218Y020565D01*
X034218Y020574D01*
X033646Y020574D01*
X033646Y020653D01*
X034218Y020653D01*
X034218Y020662D01*
X034203Y020757D01*
X034173Y020849D01*
X034130Y020935D01*
X034073Y021013D01*
X034005Y021081D01*
X033927Y021137D01*
X033841Y021181D01*
X033749Y021211D01*
X033654Y021226D01*
X033646Y021226D01*
X033646Y020654D01*
X033566Y020654D01*
X033566Y021226D01*
X033557Y021226D01*
X033462Y021211D01*
X033371Y021181D01*
X033285Y021137D01*
X033207Y021081D01*
X033138Y021013D01*
X033082Y020935D01*
X033038Y020849D01*
X033008Y020757D01*
X032993Y020662D01*
X032993Y020653D01*
X033565Y020653D01*
X033565Y020574D01*
X032993Y020574D01*
X032993Y020565D01*
X033008Y020470D01*
X033038Y020378D01*
X033082Y020292D01*
X033138Y020214D01*
X033207Y020146D01*
X033285Y020090D01*
X033371Y020046D01*
X033462Y020016D01*
X033557Y020001D01*
X033566Y020001D01*
X033566Y020573D01*
X033646Y020573D01*
X033646Y020001D01*
X033654Y020001D01*
X033749Y020016D01*
X033646Y020013D02*
X033566Y020013D01*
X033566Y020091D02*
X033646Y020091D01*
X033646Y020170D02*
X033566Y020170D01*
X033566Y020248D02*
X033646Y020248D01*
X033646Y020327D02*
X033566Y020327D01*
X033566Y020405D02*
X033646Y020405D01*
X033646Y020484D02*
X033566Y020484D01*
X033566Y020562D02*
X033646Y020562D01*
X033646Y020641D02*
X035134Y020641D01*
X035134Y020719D02*
X034209Y020719D01*
X034190Y020798D02*
X035134Y020798D01*
X035134Y020877D02*
X034159Y020877D01*
X034115Y020955D02*
X035134Y020955D01*
X035134Y021034D02*
X034052Y021034D01*
X033961Y021112D02*
X035134Y021112D01*
X035134Y021191D02*
X033811Y021191D01*
X033646Y021191D02*
X033566Y021191D01*
X033566Y021112D02*
X033646Y021112D01*
X033646Y021034D02*
X033566Y021034D01*
X033566Y020955D02*
X033646Y020955D01*
X033646Y020877D02*
X033566Y020877D01*
X033566Y020798D02*
X033646Y020798D01*
X033646Y020719D02*
X033566Y020719D01*
X033565Y020641D02*
X030664Y020641D01*
X030742Y020562D02*
X032994Y020562D01*
X033006Y020484D02*
X030780Y020484D01*
X030813Y020405D02*
X033029Y020405D01*
X033064Y020327D02*
X030813Y020327D01*
X030813Y020248D02*
X033114Y020248D01*
X033183Y020170D02*
X030781Y020170D01*
X030743Y020091D02*
X033283Y020091D01*
X033485Y020013D02*
X030665Y020013D01*
X030314Y019934D02*
X030219Y019934D01*
X030266Y019698D02*
X030045Y019698D01*
X030045Y019620D02*
X030141Y019620D01*
X030069Y019541D02*
X030045Y019541D01*
X029765Y019541D02*
X029757Y019541D01*
X029765Y019620D02*
X029685Y019620D01*
X029765Y019698D02*
X029559Y019698D01*
X029765Y019777D02*
X029062Y019777D01*
X029021Y019698D02*
X029266Y019698D01*
X029141Y019620D02*
X029021Y019620D01*
X029021Y019541D02*
X029069Y019541D01*
X029036Y019463D02*
X029021Y019463D01*
X028741Y019620D02*
X028685Y019620D01*
X028741Y019698D02*
X028559Y019698D01*
X028741Y019777D02*
X028061Y019777D01*
X028037Y019698D02*
X028266Y019698D01*
X028141Y019620D02*
X028037Y019620D01*
X028037Y019541D02*
X028069Y019541D01*
X027757Y019541D02*
X027757Y019541D01*
X027757Y019620D02*
X027685Y019620D01*
X027757Y019698D02*
X027559Y019698D01*
X027757Y019777D02*
X027061Y019777D01*
X027053Y019698D02*
X027266Y019698D01*
X027141Y019620D02*
X027053Y019620D01*
X027053Y019541D02*
X027069Y019541D01*
X026773Y019541D02*
X026757Y019541D01*
X026773Y019620D02*
X026685Y019620D01*
X026773Y019698D02*
X026559Y019698D01*
X026773Y019777D02*
X026068Y019777D01*
X026068Y019698D02*
X026266Y019698D01*
X026141Y019620D02*
X026068Y019620D01*
X026068Y019541D02*
X026069Y019541D01*
X025789Y019541D02*
X025757Y019541D01*
X025789Y019620D02*
X025685Y019620D01*
X025789Y019698D02*
X025559Y019698D01*
X025511Y019934D02*
X025823Y019934D01*
X025789Y019855D02*
X025140Y019855D01*
X025062Y019777D02*
X025789Y019777D01*
X025929Y019842D02*
X025929Y017464D01*
X019236Y010771D01*
X019236Y004472D01*
X019350Y004304D02*
X019514Y004304D01*
X019436Y004382D02*
X019429Y004382D01*
X019629Y004472D02*
X019629Y010377D01*
X026913Y017661D01*
X026913Y019826D01*
X027413Y020326D01*
X027781Y020170D02*
X028045Y020170D01*
X028013Y020248D02*
X027813Y020248D01*
X027813Y020327D02*
X028013Y020327D01*
X028013Y020405D02*
X027813Y020405D01*
X027780Y020484D02*
X028045Y020484D01*
X028083Y020562D02*
X027742Y020562D01*
X027664Y020641D02*
X028162Y020641D01*
X028317Y020719D02*
X027508Y020719D01*
X027317Y020719D02*
X026508Y020719D01*
X026664Y020641D02*
X027162Y020641D01*
X027083Y020562D02*
X026742Y020562D01*
X026780Y020484D02*
X027045Y020484D01*
X027013Y020405D02*
X026813Y020405D01*
X026813Y020327D02*
X027013Y020327D01*
X027013Y020248D02*
X026813Y020248D01*
X026781Y020170D02*
X027045Y020170D01*
X026980Y020091D02*
X026743Y020091D01*
X026665Y020013D02*
X026901Y020013D01*
X026823Y019934D02*
X026511Y019934D01*
X026314Y019934D02*
X026219Y019934D01*
X026140Y019855D02*
X026773Y019855D01*
X027140Y019855D02*
X027757Y019855D01*
X027823Y019934D02*
X027511Y019934D01*
X027665Y020013D02*
X027901Y020013D01*
X027980Y020091D02*
X027743Y020091D01*
X027897Y019810D02*
X027897Y017858D01*
X020023Y009984D01*
X020023Y004472D01*
X020138Y004304D02*
X020302Y004304D01*
X020223Y004382D02*
X020216Y004382D01*
X020417Y004472D02*
X020417Y009590D01*
X028881Y018054D01*
X028881Y019795D01*
X029413Y020326D01*
X029781Y020170D02*
X030045Y020170D01*
X030013Y020248D02*
X029813Y020248D01*
X029813Y020327D02*
X030013Y020327D01*
X030013Y020405D02*
X029813Y020405D01*
X029780Y020484D02*
X030045Y020484D01*
X030083Y020562D02*
X029742Y020562D01*
X029664Y020641D02*
X030162Y020641D01*
X030317Y020719D02*
X029508Y020719D01*
X029317Y020719D02*
X028508Y020719D01*
X028664Y020641D02*
X029162Y020641D01*
X029083Y020562D02*
X028742Y020562D01*
X028780Y020484D02*
X029045Y020484D01*
X029013Y020405D02*
X028813Y020405D01*
X028813Y020327D02*
X029013Y020327D01*
X029013Y020248D02*
X028813Y020248D01*
X028781Y020170D02*
X029045Y020170D01*
X028980Y020091D02*
X028743Y020091D01*
X028665Y020013D02*
X028901Y020013D01*
X028823Y019934D02*
X028511Y019934D01*
X028314Y019934D02*
X028219Y019934D01*
X028140Y019855D02*
X028744Y019855D01*
X029140Y019855D02*
X029765Y019855D01*
X029823Y019934D02*
X029511Y019934D01*
X029665Y020013D02*
X029901Y020013D01*
X029980Y020091D02*
X029743Y020091D01*
X029905Y019818D02*
X030413Y020326D01*
X030508Y020719D02*
X033002Y020719D01*
X033022Y020798D02*
X022188Y020798D01*
X022188Y020719D02*
X023317Y020719D01*
X023162Y020641D02*
X022188Y020641D01*
X022188Y020562D02*
X023083Y020562D01*
X023045Y020484D02*
X022188Y020484D01*
X022188Y020405D02*
X023013Y020405D01*
X023013Y020327D02*
X022188Y020327D01*
X022188Y020248D02*
X023013Y020248D01*
X023045Y020170D02*
X022188Y020170D01*
X022188Y020091D02*
X022980Y020091D01*
X022901Y020013D02*
X022188Y020013D01*
X022188Y019934D02*
X022823Y019934D01*
X022796Y019855D02*
X022188Y019855D01*
X022188Y019777D02*
X022796Y019777D01*
X022796Y019698D02*
X022188Y019698D01*
X022188Y019620D02*
X022796Y019620D01*
X022796Y019541D02*
X022188Y019541D01*
X022188Y019463D02*
X022796Y019463D01*
X022796Y019384D02*
X022188Y019384D01*
X022188Y019306D02*
X022796Y019306D01*
X022796Y019227D02*
X022188Y019227D01*
X022188Y019149D02*
X022796Y019149D01*
X022796Y019070D02*
X022188Y019070D01*
X022188Y018991D02*
X022796Y018991D01*
X022796Y018913D02*
X022188Y018913D01*
X022188Y018834D02*
X022796Y018834D01*
X022796Y018756D02*
X022188Y018756D01*
X022188Y018677D02*
X022796Y018677D01*
X022796Y018599D02*
X022188Y018599D01*
X022188Y018520D02*
X022796Y018520D01*
X022796Y018442D02*
X022188Y018442D01*
X022188Y018363D02*
X022796Y018363D01*
X022796Y018285D02*
X022188Y018285D01*
X022188Y018206D02*
X022796Y018206D01*
X022796Y018128D02*
X022188Y018128D01*
X022188Y018049D02*
X022796Y018049D01*
X022796Y017970D02*
X022188Y017970D01*
X022188Y017892D02*
X022796Y017892D01*
X022796Y017813D02*
X022188Y017813D01*
X022188Y017735D02*
X022796Y017735D01*
X022796Y017656D02*
X022188Y017656D01*
X022188Y017578D02*
X022796Y017578D01*
X022796Y017499D02*
X022188Y017499D01*
X022188Y017421D02*
X022796Y017421D01*
X022796Y017342D02*
X022188Y017342D01*
X022188Y017264D02*
X022796Y017264D01*
X022796Y017185D02*
X022188Y017185D01*
X022188Y017106D02*
X022796Y017106D01*
X022796Y017028D02*
X022188Y017028D01*
X022188Y016949D02*
X022796Y016949D01*
X022775Y016871D02*
X022188Y016871D01*
X022188Y016792D02*
X022697Y016792D01*
X022618Y016714D02*
X022188Y016714D01*
X022188Y016635D02*
X022540Y016635D01*
X022461Y016557D02*
X022188Y016557D01*
X022188Y016478D02*
X022383Y016478D01*
X022304Y016400D02*
X022188Y016400D01*
X022188Y016321D02*
X022225Y016321D01*
X022936Y016834D02*
X022936Y019850D01*
X023413Y020326D01*
X023781Y020170D02*
X024045Y020170D01*
X024013Y020248D02*
X023813Y020248D01*
X023813Y020327D02*
X024013Y020327D01*
X024013Y020405D02*
X023813Y020405D01*
X023780Y020484D02*
X024045Y020484D01*
X024083Y020562D02*
X023742Y020562D01*
X023664Y020641D02*
X024162Y020641D01*
X024317Y020719D02*
X023508Y020719D01*
X023743Y020091D02*
X023980Y020091D01*
X023901Y020013D02*
X023665Y020013D01*
X023511Y019934D02*
X023823Y019934D01*
X023781Y019855D02*
X023140Y019855D01*
X023076Y019777D02*
X023781Y019777D01*
X023781Y019698D02*
X023559Y019698D01*
X023685Y019620D02*
X023781Y019620D01*
X023781Y019541D02*
X023757Y019541D01*
X024061Y019541D02*
X024069Y019541D01*
X024061Y019620D02*
X024141Y019620D01*
X024061Y019698D02*
X024266Y019698D01*
X024140Y019855D02*
X024765Y019855D01*
X024765Y019777D02*
X024062Y019777D01*
X023921Y019834D02*
X023921Y017031D01*
X018448Y011558D01*
X018448Y004472D01*
X018333Y004304D02*
X018169Y004304D01*
X018248Y004382D02*
X018255Y004382D01*
X018054Y004472D02*
X018054Y011952D01*
X022936Y016834D01*
X021795Y017185D02*
X017467Y017185D01*
X017467Y017264D02*
X021795Y017264D01*
X021795Y017342D02*
X017467Y017342D01*
X017107Y017735D02*
X013313Y017735D01*
X013313Y017813D02*
X017067Y017813D01*
X017067Y017892D02*
X013313Y017892D01*
X013313Y017970D02*
X017097Y017970D01*
X017176Y018049D02*
X013313Y018049D01*
X013313Y017656D02*
X021795Y017656D01*
X021795Y017578D02*
X013313Y017578D01*
X013313Y018599D02*
X021795Y018599D01*
X021795Y018677D02*
X013313Y018677D01*
X013313Y018756D02*
X021795Y018756D01*
X021795Y018834D02*
X013313Y018834D01*
X012550Y019698D02*
X012328Y019698D01*
X012328Y019620D02*
X012424Y019620D01*
X012352Y019541D02*
X012328Y019541D01*
X012048Y019541D02*
X012040Y019541D01*
X012048Y019620D02*
X011968Y019620D01*
X012048Y019698D02*
X011843Y019698D01*
X011969Y019855D02*
X011344Y019855D01*
X011344Y019777D02*
X012047Y019777D01*
X011890Y019934D02*
X011795Y019934D01*
X011598Y019934D02*
X011286Y019934D01*
X011208Y020013D02*
X011444Y020013D01*
X011366Y020091D02*
X011129Y020091D01*
X011204Y019818D02*
X011204Y016834D01*
X016873Y011165D01*
X016873Y004472D01*
X016758Y004304D02*
X016595Y004304D01*
X016673Y004382D02*
X016680Y004382D01*
X016480Y004472D02*
X016480Y010771D01*
X010180Y017070D01*
X010180Y019842D01*
X009696Y020326D01*
X009328Y020170D02*
X009064Y020170D01*
X009096Y020248D02*
X009296Y020248D01*
X009296Y020327D02*
X009096Y020327D01*
X009096Y020405D02*
X009296Y020405D01*
X009329Y020484D02*
X009064Y020484D01*
X009026Y020562D02*
X009367Y020562D01*
X009445Y020641D02*
X008947Y020641D01*
X008792Y020719D02*
X009601Y020719D01*
X009792Y020719D02*
X010601Y020719D01*
X010445Y020641D02*
X009947Y020641D01*
X010026Y020562D02*
X010367Y020562D01*
X010329Y020484D02*
X010064Y020484D01*
X010096Y020405D02*
X010296Y020405D01*
X010296Y020327D02*
X010096Y020327D01*
X010096Y020248D02*
X010296Y020248D01*
X010328Y020170D02*
X010064Y020170D01*
X010129Y020091D02*
X010366Y020091D01*
X010444Y020013D02*
X010208Y020013D01*
X010286Y019934D02*
X010598Y019934D01*
X010795Y019934D02*
X010890Y019934D01*
X010969Y019855D02*
X010320Y019855D01*
X010320Y019777D02*
X011047Y019777D01*
X011064Y019698D02*
X010843Y019698D01*
X010968Y019620D02*
X011064Y019620D01*
X011064Y019541D02*
X011040Y019541D01*
X011344Y019541D02*
X011352Y019541D01*
X011344Y019620D02*
X011424Y019620D01*
X011344Y019698D02*
X011550Y019698D01*
X011204Y019818D02*
X010696Y020326D01*
X010040Y019777D02*
X009336Y019777D01*
X009336Y019855D02*
X009969Y019855D01*
X009890Y019934D02*
X009795Y019934D01*
X009598Y019934D02*
X009286Y019934D01*
X009208Y020013D02*
X009444Y020013D01*
X009366Y020091D02*
X009129Y020091D01*
X009196Y019826D02*
X008696Y020326D01*
X008328Y020170D02*
X008064Y020170D01*
X008096Y020248D02*
X008296Y020248D01*
X008296Y020327D02*
X008096Y020327D01*
X008096Y020405D02*
X008296Y020405D01*
X008329Y020484D02*
X008064Y020484D01*
X008026Y020562D02*
X008367Y020562D01*
X008445Y020641D02*
X007947Y020641D01*
X007792Y020719D02*
X008601Y020719D01*
X008366Y020091D02*
X008129Y020091D01*
X008208Y020013D02*
X008444Y020013D01*
X008598Y019934D02*
X008286Y019934D01*
X008313Y019855D02*
X008969Y019855D01*
X009047Y019777D02*
X008313Y019777D01*
X008313Y019698D02*
X008550Y019698D01*
X008424Y019620D02*
X008313Y019620D01*
X008313Y019541D02*
X008352Y019541D01*
X008320Y019463D02*
X008313Y019463D01*
X008033Y019620D02*
X007968Y019620D01*
X008033Y019698D02*
X007843Y019698D01*
X007969Y019855D02*
X007328Y019855D01*
X007328Y019777D02*
X008033Y019777D01*
X008173Y019850D02*
X008173Y019039D01*
X008173Y018881D01*
X008173Y017503D01*
X015692Y009984D01*
X015692Y004472D01*
X015577Y004304D02*
X015413Y004304D01*
X015492Y004382D02*
X015499Y004382D01*
X015299Y004472D02*
X015299Y009590D01*
X007188Y017700D01*
X007188Y019834D01*
X006696Y020326D01*
X006328Y020170D02*
X006064Y020170D01*
X006096Y020248D02*
X006296Y020248D01*
X006296Y020327D02*
X006096Y020327D01*
X006096Y020405D02*
X006296Y020405D01*
X006329Y020484D02*
X006064Y020484D01*
X006026Y020562D02*
X006367Y020562D01*
X006445Y020641D02*
X005947Y020641D01*
X005792Y020719D02*
X006601Y020719D01*
X006792Y020719D02*
X007601Y020719D01*
X007445Y020641D02*
X006947Y020641D01*
X007026Y020562D02*
X007367Y020562D01*
X007329Y020484D02*
X007064Y020484D01*
X007096Y020405D02*
X007296Y020405D01*
X007296Y020327D02*
X007096Y020327D01*
X007096Y020248D02*
X007296Y020248D01*
X007328Y020170D02*
X007064Y020170D01*
X007129Y020091D02*
X007366Y020091D01*
X007444Y020013D02*
X007208Y020013D01*
X007286Y019934D02*
X007598Y019934D01*
X007795Y019934D02*
X007890Y019934D01*
X008173Y019850D02*
X007696Y020326D01*
X007047Y019777D02*
X006344Y019777D01*
X006344Y019855D02*
X006969Y019855D01*
X006890Y019934D02*
X006795Y019934D01*
X006598Y019934D02*
X006286Y019934D01*
X006208Y020013D02*
X006444Y020013D01*
X006366Y020091D02*
X006129Y020091D01*
X006204Y019818D02*
X006204Y017897D01*
X014905Y009196D01*
X014905Y004472D01*
X015020Y004304D02*
X015184Y004304D01*
X015105Y004382D02*
X015098Y004382D01*
X014790Y004304D02*
X014626Y004304D01*
X014705Y004382D02*
X014711Y004382D01*
X014396Y004304D02*
X014232Y004304D01*
X014311Y004382D02*
X014318Y004382D01*
X014117Y004472D02*
X014117Y008409D01*
X009551Y012976D01*
X002141Y012976D01*
X001649Y012484D01*
X002021Y012629D02*
X002276Y012629D01*
X002249Y012551D02*
X002049Y012551D01*
X002049Y012472D02*
X002249Y012472D01*
X002253Y012394D02*
X002045Y012394D01*
X002012Y012315D02*
X002286Y012315D01*
X002330Y012237D02*
X001968Y012237D01*
X001889Y012158D02*
X002409Y012158D01*
X002047Y012080D02*
X000581Y012080D01*
X000581Y012158D02*
X001409Y012158D01*
X001330Y012237D02*
X000581Y012237D01*
X000581Y012315D02*
X001286Y012315D01*
X001253Y012394D02*
X000581Y012394D01*
X000581Y012472D02*
X001249Y012472D01*
X001249Y012551D02*
X000581Y012551D01*
X000581Y012629D02*
X001276Y012629D01*
X001309Y012708D02*
X000581Y012708D01*
X000581Y012787D02*
X001386Y012787D01*
X001525Y012865D02*
X000581Y012865D01*
X000581Y012944D02*
X001911Y012944D01*
X001990Y013022D02*
X000581Y013022D01*
X000581Y013101D02*
X001528Y013101D01*
X001388Y013179D02*
X000581Y013179D01*
X000581Y013258D02*
X001310Y013258D01*
X001277Y013336D02*
X000581Y013336D01*
X000581Y013415D02*
X001249Y013415D01*
X001249Y013493D02*
X000581Y013493D01*
X000581Y013572D02*
X001253Y013572D01*
X001285Y013651D02*
X000581Y013651D01*
X000581Y013729D02*
X001329Y013729D01*
X001407Y013808D02*
X000581Y013808D01*
X001649Y013484D02*
X002125Y013960D01*
X002171Y013808D02*
X002407Y013808D01*
X002329Y013729D02*
X002092Y013729D01*
X002014Y013651D02*
X002285Y013651D01*
X002253Y013572D02*
X002045Y013572D01*
X002049Y013493D02*
X002249Y013493D01*
X002249Y013415D02*
X002049Y013415D01*
X002021Y013336D02*
X002277Y013336D01*
X002310Y013258D02*
X001988Y013258D01*
X001910Y013179D02*
X002388Y013179D01*
X002068Y013101D02*
X001770Y013101D01*
X001773Y012865D02*
X001833Y012865D01*
X002071Y012708D02*
X002309Y012708D01*
X002386Y012787D02*
X002150Y012787D01*
X002912Y012787D02*
X009542Y012787D01*
X009620Y012708D02*
X002989Y012708D01*
X003021Y012629D02*
X009699Y012629D01*
X009777Y012551D02*
X003049Y012551D01*
X003049Y012472D02*
X009856Y012472D01*
X009934Y012394D02*
X003045Y012394D01*
X003012Y012315D02*
X010013Y012315D01*
X010091Y012237D02*
X002968Y012237D01*
X002889Y012158D02*
X010170Y012158D01*
X010249Y012080D02*
X009857Y012080D01*
X009936Y012001D02*
X010327Y012001D01*
X010406Y011923D02*
X010014Y011923D01*
X010093Y011844D02*
X010484Y011844D01*
X010563Y011766D02*
X010171Y011766D01*
X010250Y011687D02*
X010641Y011687D01*
X010720Y011608D02*
X010328Y011608D01*
X010407Y011530D02*
X010798Y011530D01*
X010877Y011451D02*
X010486Y011451D01*
X010564Y011373D02*
X010955Y011373D01*
X011034Y011294D02*
X010643Y011294D01*
X010721Y011216D02*
X011113Y011216D01*
X011191Y011137D02*
X010800Y011137D01*
X010878Y011059D02*
X011270Y011059D01*
X011348Y010980D02*
X010957Y010980D01*
X011035Y010902D02*
X011427Y010902D01*
X011505Y010823D02*
X011114Y010823D01*
X011192Y010744D02*
X011584Y010744D01*
X011662Y010666D02*
X011271Y010666D01*
X011349Y010587D02*
X011741Y010587D01*
X011819Y010509D02*
X011428Y010509D01*
X011507Y010430D02*
X011898Y010430D01*
X011977Y010352D02*
X011585Y010352D01*
X011664Y010273D02*
X012055Y010273D01*
X012134Y010195D02*
X011742Y010195D01*
X011821Y010116D02*
X012212Y010116D01*
X012291Y010038D02*
X011899Y010038D01*
X011978Y009959D02*
X012369Y009959D01*
X012448Y009880D02*
X012056Y009880D01*
X012135Y009802D02*
X012526Y009802D01*
X012605Y009723D02*
X012213Y009723D01*
X012292Y009645D02*
X012683Y009645D01*
X012762Y009566D02*
X012371Y009566D01*
X012449Y009488D02*
X012841Y009488D01*
X012919Y009409D02*
X012528Y009409D01*
X012606Y009331D02*
X012998Y009331D01*
X013076Y009252D02*
X012685Y009252D01*
X012763Y009174D02*
X013155Y009174D01*
X013233Y009095D02*
X012842Y009095D01*
X012920Y009016D02*
X013312Y009016D01*
X013390Y008938D02*
X012999Y008938D01*
X013077Y008859D02*
X013469Y008859D01*
X013547Y008781D02*
X013156Y008781D01*
X013235Y008702D02*
X013626Y008702D01*
X013704Y008624D02*
X013313Y008624D01*
X013392Y008545D02*
X013783Y008545D01*
X013862Y008467D02*
X013470Y008467D01*
X013549Y008388D02*
X013940Y008388D01*
X013977Y008310D02*
X013627Y008310D01*
X013706Y008231D02*
X013977Y008231D01*
X013977Y008153D02*
X013784Y008153D01*
X013863Y008074D02*
X013977Y008074D01*
X013977Y007995D02*
X013864Y007995D01*
X013864Y007917D02*
X013977Y007917D01*
X013977Y007838D02*
X013864Y007838D01*
X013864Y007760D02*
X013977Y007760D01*
X013977Y007681D02*
X013864Y007681D01*
X013864Y007603D02*
X013977Y007603D01*
X013977Y007524D02*
X013864Y007524D01*
X013864Y007446D02*
X013977Y007446D01*
X013977Y007367D02*
X013864Y007367D01*
X013864Y007289D02*
X013977Y007289D01*
X013977Y007210D02*
X013864Y007210D01*
X010940Y005089D02*
X002555Y005089D01*
X002577Y005068D02*
X002509Y005136D01*
X002431Y005193D01*
X002345Y005236D01*
X002253Y005266D01*
X002158Y005281D01*
X002150Y005281D01*
X002150Y004709D01*
X002722Y004709D01*
X002722Y004717D01*
X002707Y004812D01*
X002677Y004904D01*
X002633Y004990D01*
X002577Y005068D01*
X002618Y005011D02*
X011018Y005011D01*
X011097Y004932D02*
X002663Y004932D01*
X002694Y004854D02*
X011175Y004854D01*
X011254Y004775D02*
X002713Y004775D01*
X002722Y004629D02*
X002150Y004629D01*
X002150Y004709D01*
X002070Y004709D01*
X002070Y005281D01*
X002061Y005281D01*
X001966Y005266D01*
X001874Y005236D01*
X001789Y005193D01*
X001711Y005136D01*
X001642Y005068D01*
X001586Y004990D01*
X001542Y004904D01*
X001512Y004812D01*
X001497Y004717D01*
X001497Y004709D01*
X002069Y004709D01*
X002069Y004629D01*
X001497Y004629D01*
X001497Y004620D01*
X001512Y004525D01*
X001542Y004434D01*
X001586Y004348D01*
X001642Y004270D01*
X001711Y004201D01*
X001789Y004145D01*
X001874Y004101D01*
X001966Y004071D01*
X002061Y004056D01*
X002070Y004056D01*
X002070Y004628D01*
X002150Y004628D01*
X002150Y004056D01*
X002158Y004056D01*
X002253Y004071D01*
X002345Y004101D01*
X002431Y004145D01*
X002509Y004201D01*
X002577Y004270D01*
X002633Y004348D01*
X002677Y004434D01*
X002707Y004525D01*
X002722Y004620D01*
X002722Y004629D01*
X002722Y004618D02*
X005067Y004618D01*
X004911Y004540D02*
X002709Y004540D01*
X002686Y004461D02*
X004832Y004461D01*
X004766Y004382D02*
X002651Y004382D01*
X002602Y004304D02*
X004733Y004304D01*
X004701Y004225D02*
X002533Y004225D01*
X002433Y004147D02*
X004687Y004147D01*
X004687Y004068D02*
X002234Y004068D01*
X002150Y004068D02*
X002070Y004068D01*
X002070Y004147D02*
X002150Y004147D01*
X002150Y004225D02*
X002070Y004225D01*
X002070Y004304D02*
X002150Y004304D01*
X002150Y004382D02*
X002070Y004382D01*
X002070Y004461D02*
X002150Y004461D01*
X002150Y004540D02*
X002070Y004540D01*
X002070Y004618D02*
X002150Y004618D01*
X002150Y004697D02*
X011332Y004697D01*
X011562Y004382D02*
X008115Y004382D01*
X008148Y004304D02*
X011640Y004304D01*
X011870Y004304D02*
X012034Y004304D01*
X011955Y004382D02*
X011949Y004382D01*
X010861Y005168D02*
X002465Y005168D01*
X002314Y005246D02*
X010783Y005246D01*
X010704Y005325D02*
X000581Y005325D01*
X000581Y005404D02*
X010626Y005404D01*
X010547Y005482D02*
X000581Y005482D01*
X000581Y005561D02*
X010468Y005561D01*
X010390Y005639D02*
X000581Y005639D01*
X000581Y005718D02*
X010311Y005718D01*
X010233Y005796D02*
X000581Y005796D01*
X000581Y005875D02*
X010154Y005875D01*
X010076Y005953D02*
X000581Y005953D01*
X000581Y005246D02*
X001906Y005246D01*
X002070Y005246D02*
X002150Y005246D01*
X002150Y005168D02*
X002070Y005168D01*
X002070Y005089D02*
X002150Y005089D01*
X002150Y005011D02*
X002070Y005011D01*
X002070Y004932D02*
X002150Y004932D01*
X002150Y004854D02*
X002070Y004854D01*
X002070Y004775D02*
X002150Y004775D01*
X002069Y004697D02*
X000581Y004697D01*
X000581Y004775D02*
X001506Y004775D01*
X001526Y004854D02*
X000581Y004854D01*
X000581Y004932D02*
X001556Y004932D01*
X001601Y005011D02*
X000581Y005011D01*
X000581Y005089D02*
X001664Y005089D01*
X001755Y005168D02*
X000581Y005168D01*
X000581Y004618D02*
X001497Y004618D01*
X001510Y004540D02*
X000581Y004540D01*
X000581Y004461D02*
X001533Y004461D01*
X001568Y004382D02*
X000581Y004382D01*
X000581Y004304D02*
X001617Y004304D01*
X001687Y004225D02*
X000581Y004225D01*
X000581Y004147D02*
X001786Y004147D01*
X001985Y004068D02*
X000581Y004068D01*
X000581Y003990D02*
X004687Y003990D01*
X004709Y003911D02*
X000581Y003911D01*
X000581Y003833D02*
X004741Y003833D01*
X004774Y003754D02*
X000581Y003754D01*
X000581Y003676D02*
X004852Y003676D01*
X004931Y003597D02*
X000581Y003597D01*
X000581Y003361D02*
X010538Y003361D01*
X010471Y003283D02*
X000581Y003283D01*
X000581Y003204D02*
X010439Y003204D01*
X010406Y003126D02*
X002527Y003126D01*
X002665Y003047D02*
X010374Y003047D01*
X010370Y002969D02*
X002791Y002969D01*
X002870Y002890D02*
X010370Y002890D01*
X010370Y002812D02*
X002949Y002812D01*
X003008Y002733D02*
X010379Y002733D01*
X010412Y002654D02*
X003053Y002654D01*
X003099Y002576D02*
X010444Y002576D01*
X010477Y002497D02*
X003134Y002497D01*
X003155Y002419D02*
X010552Y002419D01*
X010631Y002340D02*
X003176Y002340D01*
X001692Y003126D02*
X000581Y003126D01*
X000581Y003047D02*
X001554Y003047D01*
X001428Y002969D02*
X000581Y002969D01*
X000581Y002890D02*
X001349Y002890D01*
X001271Y002812D02*
X000581Y002812D01*
X000581Y002733D02*
X001211Y002733D01*
X001166Y002654D02*
X000581Y002654D01*
X000581Y002576D02*
X001121Y002576D01*
X001086Y002497D02*
X000581Y002497D01*
X000581Y002419D02*
X001064Y002419D01*
X001043Y002340D02*
X000581Y002340D01*
X000581Y002262D02*
X001022Y002262D01*
X001020Y002183D02*
X000581Y002183D01*
X000581Y002105D02*
X001020Y002105D01*
X001020Y002026D02*
X000581Y002026D01*
X000581Y001948D02*
X001025Y001948D01*
X001046Y001869D02*
X000581Y001869D01*
X000581Y001791D02*
X001067Y001791D01*
X001088Y001712D02*
X000581Y001712D01*
X000581Y001633D02*
X001126Y001633D01*
X001172Y001555D02*
X000581Y001555D01*
X000581Y001476D02*
X001217Y001476D01*
X001280Y001398D02*
X000581Y001398D01*
X000581Y001319D02*
X001359Y001319D01*
X001438Y001241D02*
X000581Y001241D01*
X000581Y001162D02*
X001571Y001162D01*
X001729Y001084D02*
X000581Y001084D01*
X007800Y002262D02*
X010750Y002262D01*
X010939Y002183D02*
X007964Y002183D01*
X008139Y003833D02*
X017661Y003833D01*
X017661Y003911D02*
X008172Y003911D01*
X008194Y003990D02*
X017661Y003990D01*
X017661Y004068D02*
X008194Y004068D01*
X008194Y004147D02*
X017661Y004147D01*
X017661Y004225D02*
X008180Y004225D01*
X009236Y006991D02*
X002157Y006991D01*
X001649Y006484D01*
X002049Y006503D02*
X002249Y006503D01*
X002249Y006425D02*
X002049Y006425D01*
X002025Y006346D02*
X002273Y006346D01*
X002306Y006267D02*
X001992Y006267D01*
X001920Y006189D02*
X002378Y006189D01*
X002505Y006110D02*
X001793Y006110D01*
X002041Y006582D02*
X002257Y006582D01*
X002289Y006660D02*
X002024Y006660D01*
X002102Y006739D02*
X002338Y006739D01*
X002417Y006817D02*
X002181Y006817D01*
X002297Y007289D02*
X002001Y007289D01*
X002034Y007367D02*
X002264Y007367D01*
X002249Y007446D02*
X002049Y007446D01*
X002049Y007524D02*
X002249Y007524D01*
X002265Y007603D02*
X002033Y007603D01*
X002045Y007681D02*
X002298Y007681D01*
X002359Y007760D02*
X002123Y007760D01*
X001963Y007995D02*
X000581Y007995D01*
X000581Y007917D02*
X001884Y007917D01*
X002041Y008074D02*
X000581Y008074D01*
X000581Y008153D02*
X001414Y008153D01*
X001336Y008231D02*
X000581Y008231D01*
X000581Y008310D02*
X001288Y008310D01*
X001256Y008388D02*
X000581Y008388D01*
X000581Y008467D02*
X001249Y008467D01*
X001249Y008545D02*
X000581Y008545D01*
X000581Y008624D02*
X001274Y008624D01*
X001307Y008702D02*
X000581Y008702D01*
X000581Y008781D02*
X001381Y008781D01*
X001511Y008859D02*
X000581Y008859D01*
X000581Y008938D02*
X001905Y008938D01*
X001827Y008859D02*
X001787Y008859D01*
X001756Y009095D02*
X002062Y009095D01*
X001984Y009016D02*
X000581Y009016D01*
X000581Y009095D02*
X001542Y009095D01*
X001393Y009174D02*
X000581Y009174D01*
X000581Y009252D02*
X001315Y009252D01*
X001279Y009331D02*
X000581Y009331D01*
X000581Y009409D02*
X001249Y009409D01*
X001249Y009488D02*
X000581Y009488D01*
X000581Y009566D02*
X001250Y009566D01*
X001283Y009645D02*
X000581Y009645D01*
X000581Y009723D02*
X001323Y009723D01*
X001402Y009802D02*
X000581Y009802D01*
X000581Y009880D02*
X001562Y009880D01*
X001736Y009880D02*
X001848Y009880D01*
X001926Y009959D02*
X000581Y009959D01*
X000581Y010038D02*
X002005Y010038D01*
X002083Y010116D02*
X001807Y010116D01*
X001926Y010195D02*
X002372Y010195D01*
X002303Y010273D02*
X001995Y010273D01*
X002027Y010352D02*
X002271Y010352D01*
X002249Y010430D02*
X002049Y010430D01*
X002049Y010509D02*
X002249Y010509D01*
X002259Y010587D02*
X002039Y010587D01*
X002029Y010666D02*
X002292Y010666D01*
X002344Y010744D02*
X002108Y010744D01*
X002186Y010823D02*
X002423Y010823D01*
X002440Y011137D02*
X001858Y011137D01*
X001947Y011216D02*
X002351Y011216D01*
X002294Y011294D02*
X002003Y011294D01*
X002036Y011373D02*
X002262Y011373D01*
X002249Y011451D02*
X002049Y011451D01*
X002049Y011530D02*
X002249Y011530D01*
X002268Y011608D02*
X002030Y011608D01*
X002050Y011687D02*
X002300Y011687D01*
X002365Y011766D02*
X002129Y011766D01*
X002207Y011844D02*
X002474Y011844D01*
X001969Y012001D02*
X000581Y012001D01*
X000581Y011923D02*
X001890Y011923D01*
X002133Y010968D02*
X001649Y010484D01*
X001372Y010195D02*
X000581Y010195D01*
X000581Y010273D02*
X001303Y010273D01*
X001271Y010352D02*
X000581Y010352D01*
X000581Y010430D02*
X001249Y010430D01*
X001249Y010509D02*
X000581Y010509D01*
X000581Y010587D02*
X001259Y010587D01*
X001292Y010666D02*
X000581Y010666D01*
X000581Y010744D02*
X001344Y010744D01*
X001491Y010116D02*
X000581Y010116D01*
X002087Y009723D02*
X002323Y009723D01*
X002402Y009802D02*
X002165Y009802D01*
X002165Y008999D02*
X001649Y008484D01*
X002024Y008624D02*
X002274Y008624D01*
X002249Y008545D02*
X002049Y008545D01*
X002049Y008467D02*
X002249Y008467D01*
X002256Y008388D02*
X002042Y008388D01*
X002010Y008310D02*
X002288Y008310D01*
X002336Y008231D02*
X001962Y008231D01*
X001884Y008153D02*
X002414Y008153D01*
X002307Y008702D02*
X002066Y008702D01*
X002144Y008781D02*
X002381Y008781D01*
X002378Y014593D02*
X004597Y014593D01*
X004486Y014672D02*
X002489Y014672D01*
X002568Y014750D02*
X004407Y014750D01*
X004359Y014829D02*
X002616Y014829D01*
X002649Y014907D02*
X004326Y014907D01*
X004294Y014986D02*
X002681Y014986D01*
X002682Y015064D02*
X004293Y015064D01*
X004293Y015143D02*
X002682Y015143D01*
X002680Y015221D02*
X004295Y015221D01*
X004328Y015300D02*
X002647Y015300D01*
X002615Y015379D02*
X004361Y015379D01*
X004411Y015457D02*
X002564Y015457D01*
X002485Y015536D02*
X004490Y015536D01*
X004607Y015614D02*
X002369Y015614D01*
X000581Y019070D02*
X005387Y019070D01*
X005337Y019149D02*
X000581Y019149D01*
X000581Y019227D02*
X005304Y019227D01*
X005296Y019306D02*
X000581Y019306D01*
X000581Y019384D02*
X005296Y019384D01*
X005320Y019463D02*
X000581Y019463D01*
X000581Y019541D02*
X005352Y019541D01*
X005424Y019620D02*
X000581Y019620D01*
X000581Y019698D02*
X005550Y019698D01*
X005598Y019934D02*
X000581Y019934D01*
X000581Y019855D02*
X005969Y019855D01*
X006047Y019777D02*
X000581Y019777D01*
X000581Y020013D02*
X001989Y020013D01*
X002070Y020013D02*
X002150Y020013D01*
X002150Y020001D02*
X002158Y020001D01*
X002253Y020016D01*
X002345Y020046D01*
X002431Y020090D01*
X002509Y020146D01*
X002577Y020214D01*
X002633Y020292D01*
X002677Y020378D01*
X002707Y020470D01*
X002722Y020565D01*
X002722Y020574D01*
X002150Y020574D01*
X002150Y020573D02*
X002150Y020001D01*
X002231Y020013D02*
X005444Y020013D01*
X005366Y020091D02*
X002433Y020091D01*
X002532Y020170D02*
X005328Y020170D01*
X005296Y020248D02*
X002601Y020248D01*
X002651Y020327D02*
X005296Y020327D01*
X005296Y020405D02*
X002686Y020405D01*
X002709Y020484D02*
X005329Y020484D01*
X005367Y020562D02*
X002722Y020562D01*
X002713Y020719D02*
X005601Y020719D01*
X005445Y020641D02*
X002150Y020641D01*
X002150Y020719D02*
X002070Y020719D01*
X002069Y020641D02*
X000581Y020641D01*
X000581Y020719D02*
X001506Y020719D01*
X001526Y020798D02*
X000581Y020798D01*
X000581Y020877D02*
X001556Y020877D01*
X001601Y020955D02*
X000581Y020955D01*
X000581Y021034D02*
X001663Y021034D01*
X001754Y021112D02*
X000581Y021112D01*
X000581Y021191D02*
X001904Y021191D01*
X002070Y021191D02*
X002150Y021191D01*
X002150Y021112D02*
X002070Y021112D01*
X002070Y021034D02*
X002150Y021034D01*
X002150Y020955D02*
X002070Y020955D01*
X002070Y020877D02*
X002150Y020877D01*
X002150Y020798D02*
X002070Y020798D01*
X002070Y020562D02*
X002150Y020562D01*
X002150Y020484D02*
X002070Y020484D01*
X002070Y020405D02*
X002150Y020405D01*
X002150Y020327D02*
X002070Y020327D01*
X002070Y020248D02*
X002150Y020248D01*
X002150Y020170D02*
X002070Y020170D01*
X002070Y020091D02*
X002150Y020091D01*
X001787Y020091D02*
X000581Y020091D01*
X000581Y020170D02*
X001687Y020170D01*
X001618Y020248D02*
X000581Y020248D01*
X000581Y020327D02*
X001568Y020327D01*
X001533Y020405D02*
X000581Y020405D01*
X000581Y020484D02*
X001510Y020484D01*
X001498Y020562D02*
X000581Y020562D01*
X005696Y020326D02*
X006204Y019818D01*
X006064Y019698D02*
X005843Y019698D01*
X005968Y019620D02*
X006064Y019620D01*
X006064Y019541D02*
X006040Y019541D01*
X006344Y019541D02*
X006352Y019541D01*
X006344Y019620D02*
X006424Y019620D01*
X006344Y019698D02*
X006550Y019698D01*
X006843Y019698D02*
X007048Y019698D01*
X007048Y019620D02*
X006968Y019620D01*
X007040Y019541D02*
X007048Y019541D01*
X007328Y019541D02*
X007352Y019541D01*
X007328Y019620D02*
X007424Y019620D01*
X007328Y019698D02*
X007550Y019698D01*
X008795Y019934D02*
X008890Y019934D01*
X008843Y019698D02*
X009056Y019698D01*
X009056Y019620D02*
X008968Y019620D01*
X009040Y019541D02*
X009056Y019541D01*
X009336Y019541D02*
X009352Y019541D01*
X009336Y019620D02*
X009424Y019620D01*
X009336Y019698D02*
X009550Y019698D01*
X009843Y019698D02*
X010040Y019698D01*
X010040Y019620D02*
X009968Y019620D01*
X010040Y019541D02*
X010040Y019541D01*
X010320Y019541D02*
X010352Y019541D01*
X010320Y019620D02*
X010424Y019620D01*
X010320Y019698D02*
X010550Y019698D01*
X009196Y019826D02*
X009196Y017267D01*
X016086Y010377D01*
X016086Y004472D01*
X016201Y004304D02*
X016365Y004304D01*
X016286Y004382D02*
X016279Y004382D01*
X015971Y004304D02*
X015807Y004304D01*
X015886Y004382D02*
X015892Y004382D01*
X016988Y004304D02*
X017152Y004304D01*
X017074Y004382D02*
X017067Y004382D01*
X018054Y004225D02*
X027535Y004225D01*
X027521Y004147D02*
X018054Y004147D01*
X018054Y004068D02*
X027521Y004068D01*
X027521Y003990D02*
X018054Y003990D01*
X018054Y003911D02*
X027543Y003911D01*
X027576Y003833D02*
X018054Y003833D01*
X018054Y003754D02*
X027608Y003754D01*
X027687Y003676D02*
X018054Y003676D01*
X018563Y004304D02*
X018727Y004304D01*
X018648Y004382D02*
X018642Y004382D01*
X018842Y004472D02*
X018842Y011165D01*
X020515Y012838D01*
X024905Y017228D01*
X024905Y019818D01*
X025413Y020326D01*
X025781Y020170D02*
X026045Y020170D01*
X026013Y020248D02*
X025813Y020248D01*
X025813Y020327D02*
X026013Y020327D01*
X026013Y020405D02*
X025813Y020405D01*
X025780Y020484D02*
X026045Y020484D01*
X026083Y020562D02*
X025742Y020562D01*
X025664Y020641D02*
X026162Y020641D01*
X026317Y020719D02*
X025508Y020719D01*
X025317Y020719D02*
X024508Y020719D01*
X024664Y020641D02*
X025162Y020641D01*
X025083Y020562D02*
X024742Y020562D01*
X024780Y020484D02*
X025045Y020484D01*
X025013Y020405D02*
X024813Y020405D01*
X024813Y020327D02*
X025013Y020327D01*
X025013Y020248D02*
X024813Y020248D01*
X024781Y020170D02*
X025045Y020170D01*
X024980Y020091D02*
X024743Y020091D01*
X024665Y020013D02*
X024901Y020013D01*
X024823Y019934D02*
X024511Y019934D01*
X024314Y019934D02*
X024219Y019934D01*
X023921Y019834D02*
X024413Y020326D01*
X025219Y019934D02*
X025314Y019934D01*
X025266Y019698D02*
X025045Y019698D01*
X025045Y019620D02*
X025141Y019620D01*
X025069Y019541D02*
X025045Y019541D01*
X024765Y019541D02*
X024757Y019541D01*
X024765Y019620D02*
X024685Y019620D01*
X024765Y019698D02*
X024559Y019698D01*
X025665Y020013D02*
X025901Y020013D01*
X025980Y020091D02*
X025743Y020091D01*
X025929Y019842D02*
X026413Y020326D01*
X027219Y019934D02*
X027314Y019934D01*
X027897Y019810D02*
X028413Y020326D01*
X029219Y019934D02*
X029314Y019934D01*
X029905Y019818D02*
X029905Y018291D01*
X020810Y009196D01*
X020810Y004472D01*
X020950Y004618D02*
X021064Y004618D01*
X021064Y004697D02*
X020950Y004697D01*
X020950Y004775D02*
X021064Y004775D01*
X021064Y004854D02*
X020950Y004854D01*
X020950Y004932D02*
X021064Y004932D01*
X021064Y005011D02*
X020950Y005011D01*
X020950Y005089D02*
X021064Y005089D01*
X021064Y005168D02*
X020950Y005168D01*
X020950Y005246D02*
X021064Y005246D01*
X021064Y005325D02*
X020950Y005325D01*
X020950Y005404D02*
X021064Y005404D01*
X021064Y005482D02*
X020950Y005482D01*
X020950Y005561D02*
X021064Y005561D01*
X021064Y005639D02*
X020950Y005639D01*
X020950Y005718D02*
X021064Y005718D01*
X021064Y005796D02*
X020950Y005796D01*
X020950Y005875D02*
X021064Y005875D01*
X021064Y005953D02*
X020950Y005953D01*
X020950Y006032D02*
X021064Y006032D01*
X021064Y006110D02*
X020950Y006110D01*
X020950Y006189D02*
X021064Y006189D01*
X021064Y006267D02*
X020950Y006267D01*
X020950Y006346D02*
X021064Y006346D01*
X021064Y006425D02*
X020950Y006425D01*
X020950Y006503D02*
X021064Y006503D01*
X021064Y006582D02*
X020950Y006582D01*
X020950Y006660D02*
X021064Y006660D01*
X021064Y006739D02*
X020950Y006739D01*
X020950Y006817D02*
X021064Y006817D01*
X021064Y006896D02*
X020950Y006896D01*
X020950Y006974D02*
X021064Y006974D01*
X021064Y007053D02*
X020950Y007053D01*
X020950Y007131D02*
X021064Y007131D01*
X021064Y007210D02*
X020950Y007210D01*
X020950Y007289D02*
X021064Y007289D01*
X021064Y007367D02*
X020950Y007367D01*
X020950Y007446D02*
X021064Y007446D01*
X021064Y007524D02*
X020950Y007524D01*
X020950Y007603D02*
X021064Y007603D01*
X021064Y007681D02*
X020950Y007681D01*
X020950Y007760D02*
X021064Y007760D01*
X021064Y007838D02*
X020950Y007838D01*
X020950Y007917D02*
X021064Y007917D01*
X021064Y007995D02*
X020950Y007995D01*
X020950Y008074D02*
X021064Y008074D01*
X021064Y008153D02*
X020950Y008153D01*
X020950Y008231D02*
X021064Y008231D01*
X021064Y008310D02*
X020950Y008310D01*
X020950Y008388D02*
X021064Y008388D01*
X021064Y008467D02*
X020950Y008467D01*
X020950Y008545D02*
X021064Y008545D01*
X021064Y008624D02*
X020950Y008624D01*
X020950Y008702D02*
X021064Y008702D01*
X021064Y008781D02*
X020950Y008781D01*
X020950Y008859D02*
X021064Y008859D01*
X021142Y008938D02*
X020950Y008938D01*
X020950Y009016D02*
X021220Y009016D01*
X021299Y009095D02*
X020950Y009095D01*
X020986Y009174D02*
X021377Y009174D01*
X021456Y009252D02*
X021064Y009252D01*
X021143Y009331D02*
X021534Y009331D01*
X021613Y009409D02*
X021221Y009409D01*
X021300Y009488D02*
X021691Y009488D01*
X021770Y009566D02*
X021378Y009566D01*
X021457Y009645D02*
X021848Y009645D01*
X021927Y009723D02*
X021536Y009723D01*
X021614Y009802D02*
X022006Y009802D01*
X022084Y009880D02*
X021693Y009880D01*
X021771Y009959D02*
X022163Y009959D01*
X022241Y010038D02*
X021850Y010038D01*
X021928Y010116D02*
X022320Y010116D01*
X022398Y010195D02*
X022007Y010195D01*
X022085Y010273D02*
X022477Y010273D01*
X022555Y010352D02*
X022164Y010352D01*
X022242Y010430D02*
X022634Y010430D01*
X022712Y010509D02*
X022321Y010509D01*
X022400Y010587D02*
X022791Y010587D01*
X022869Y010666D02*
X022478Y010666D01*
X022557Y010744D02*
X022948Y010744D01*
X023027Y010823D02*
X022635Y010823D01*
X022714Y010902D02*
X023105Y010902D01*
X023184Y010980D02*
X022792Y010980D01*
X022871Y011059D02*
X023262Y011059D01*
X023341Y011137D02*
X022949Y011137D01*
X023028Y011216D02*
X023419Y011216D01*
X023498Y011294D02*
X023106Y011294D01*
X023185Y011373D02*
X023576Y011373D01*
X023655Y011451D02*
X023264Y011451D01*
X023342Y011530D02*
X023733Y011530D01*
X023812Y011608D02*
X023421Y011608D01*
X023499Y011687D02*
X023891Y011687D01*
X023969Y011766D02*
X023578Y011766D01*
X023656Y011844D02*
X024048Y011844D01*
X024126Y011923D02*
X023735Y011923D01*
X023813Y012001D02*
X024205Y012001D01*
X024283Y012080D02*
X023892Y012080D01*
X023970Y012158D02*
X024362Y012158D01*
X024440Y012237D02*
X024049Y012237D01*
X024127Y012315D02*
X024519Y012315D01*
X024597Y012394D02*
X024206Y012394D01*
X024285Y012472D02*
X024676Y012472D01*
X024755Y012551D02*
X024363Y012551D01*
X024442Y012629D02*
X024833Y012629D01*
X024912Y012708D02*
X024520Y012708D01*
X024599Y012787D02*
X024990Y012787D01*
X025069Y012865D02*
X024677Y012865D01*
X024756Y012944D02*
X025147Y012944D01*
X025226Y013022D02*
X024834Y013022D01*
X024913Y013101D02*
X025304Y013101D01*
X025383Y013179D02*
X024991Y013179D01*
X025070Y013258D02*
X025461Y013258D01*
X025540Y013336D02*
X025149Y013336D01*
X025227Y013415D02*
X025619Y013415D01*
X025697Y013493D02*
X025306Y013493D01*
X025384Y013572D02*
X025776Y013572D01*
X025854Y013651D02*
X025463Y013651D01*
X025541Y013729D02*
X025933Y013729D01*
X026011Y013808D02*
X025620Y013808D01*
X025698Y013886D02*
X026090Y013886D01*
X026168Y013965D02*
X025777Y013965D01*
X025855Y014043D02*
X026247Y014043D01*
X026325Y014122D02*
X025934Y014122D01*
X026401Y013999D02*
X033551Y013999D01*
X034066Y013484D01*
X033666Y013493D02*
X033466Y013493D01*
X033466Y013415D02*
X033666Y013415D01*
X033694Y013336D02*
X033438Y013336D01*
X033406Y013258D02*
X033727Y013258D01*
X033805Y013179D02*
X033328Y013179D01*
X033647Y013101D02*
X033945Y013101D01*
X033942Y012865D02*
X033883Y012865D01*
X033644Y012708D02*
X033406Y012708D01*
X033329Y012787D02*
X033565Y012787D01*
X032826Y012158D02*
X025545Y012158D01*
X026165Y012976D02*
X021598Y008409D01*
X021598Y004472D01*
X021713Y004304D02*
X021877Y004304D01*
X021798Y004382D02*
X021791Y004382D01*
X021483Y004304D02*
X021319Y004304D01*
X021398Y004382D02*
X021404Y004382D01*
X021204Y004472D02*
X021204Y008803D01*
X026401Y013999D01*
X021795Y018049D02*
X017359Y018049D01*
X018975Y019934D02*
X019643Y019934D01*
X019541Y020013D02*
X019118Y020013D01*
X019196Y020091D02*
X019480Y020091D01*
X019443Y020170D02*
X019229Y020170D01*
X019258Y020248D02*
X019423Y020248D01*
X019818Y020248D02*
X019898Y020248D01*
X019898Y020170D02*
X019818Y020170D01*
X019818Y020091D02*
X019898Y020091D01*
X019898Y020013D02*
X019818Y020013D01*
X019818Y019934D02*
X019898Y019934D01*
X020122Y019620D02*
X021795Y019620D01*
X021795Y019541D02*
X020198Y019541D01*
X020231Y019463D02*
X021795Y019463D01*
X021795Y019384D02*
X020258Y019384D01*
X020258Y019306D02*
X021795Y019306D01*
X021795Y019227D02*
X020253Y019227D01*
X020220Y019149D02*
X021795Y019149D01*
X021795Y019070D02*
X020175Y019070D01*
X019898Y020327D02*
X021795Y020327D01*
X022188Y020877D02*
X033052Y020877D01*
X033097Y020955D02*
X022188Y020955D01*
X022188Y021034D02*
X033160Y021034D01*
X033250Y021112D02*
X022188Y021112D01*
X022188Y021191D02*
X033400Y021191D01*
X034218Y020562D02*
X035134Y020562D01*
X035134Y020484D02*
X034205Y020484D01*
X034182Y020405D02*
X035134Y020405D01*
X035134Y020327D02*
X034147Y020327D01*
X034097Y020248D02*
X035134Y020248D01*
X035134Y020170D02*
X034028Y020170D01*
X033929Y020091D02*
X035134Y020091D01*
X035134Y021269D02*
X022188Y021269D01*
X022188Y021348D02*
X035134Y021348D01*
X035134Y021426D02*
X022188Y021426D01*
X022188Y021505D02*
X035134Y021505D01*
X035134Y021583D02*
X022188Y021583D01*
X022188Y021662D02*
X035134Y021662D01*
X035134Y021741D02*
X022188Y021741D01*
X023219Y019934D02*
X023314Y019934D01*
X023266Y019698D02*
X023076Y019698D01*
X023076Y019620D02*
X023141Y019620D01*
X033308Y013808D02*
X033544Y013808D01*
X033623Y013729D02*
X033386Y013729D01*
X033430Y013651D02*
X033701Y013651D01*
X033670Y013572D02*
X033463Y013572D01*
X023766Y004382D02*
X023760Y004382D01*
X023681Y004304D02*
X023845Y004304D01*
X023058Y004304D02*
X022894Y004304D01*
X022972Y004382D02*
X022979Y004382D01*
X021089Y004304D02*
X020925Y004304D01*
X021004Y004382D02*
X021011Y004382D01*
X020695Y004304D02*
X020532Y004304D01*
X020610Y004382D02*
X020617Y004382D01*
X019908Y004304D02*
X019744Y004304D01*
X019823Y004382D02*
X019829Y004382D01*
X019121Y004304D02*
X018957Y004304D01*
X019035Y004382D02*
X019042Y004382D01*
X018965Y001162D02*
X019113Y001162D01*
X019358Y001162D02*
X019506Y001162D01*
X019752Y001162D02*
X019900Y001162D01*
X020146Y001162D02*
X020294Y001162D01*
X020539Y001162D02*
X020688Y001162D01*
X020933Y001162D02*
X021081Y001162D01*
X021327Y001162D02*
X021475Y001162D01*
X021721Y001162D02*
X021869Y001162D01*
X022114Y001162D02*
X022262Y001162D01*
X022508Y001162D02*
X022656Y001162D01*
X022902Y001162D02*
X023050Y001162D01*
X023295Y001162D02*
X023443Y001162D01*
X023689Y001162D02*
X023837Y001162D01*
X024776Y002183D02*
X027752Y002183D01*
X027916Y002262D02*
X024966Y002262D01*
X018719Y001162D02*
X018571Y001162D01*
X018325Y001162D02*
X018177Y001162D01*
X017538Y001162D02*
X017390Y001162D01*
X017144Y001162D02*
X016996Y001162D01*
X016751Y001162D02*
X016602Y001162D01*
X016357Y001162D02*
X016209Y001162D01*
X015963Y001162D02*
X015815Y001162D01*
X015569Y001162D02*
X015421Y001162D01*
X015176Y001162D02*
X015028Y001162D01*
X014782Y001162D02*
X014634Y001162D01*
X014388Y001162D02*
X014240Y001162D01*
X013995Y001162D02*
X013847Y001162D01*
X013601Y001162D02*
X013453Y001162D01*
X013207Y001162D02*
X013059Y001162D01*
X012814Y001162D02*
X012665Y001162D01*
X012420Y001162D02*
X012272Y001162D01*
X012026Y001162D02*
X011878Y001162D01*
X013445Y004304D02*
X013609Y004304D01*
X013530Y004382D02*
X013524Y004382D01*
X013839Y004304D02*
X014003Y004304D01*
X013924Y004382D02*
X013917Y004382D01*
X005890Y019934D02*
X005795Y019934D01*
D13*
X017070Y012936D03*
X020515Y012838D03*
X027306Y012228D03*
X017858Y018251D03*
X017267Y017858D03*
X017267Y017267D03*
X008015Y012228D03*
X008015Y004866D03*
X008803Y004866D03*
X008803Y003291D03*
X009590Y003291D03*
X008015Y002503D03*
X008803Y001716D03*
X009590Y001716D03*
X011755Y001322D03*
X012149Y001322D03*
X012543Y001322D03*
X012936Y001322D03*
X013330Y001322D03*
X013724Y001322D03*
X014117Y001322D03*
X014511Y001322D03*
X014905Y001322D03*
X015299Y001322D03*
X015692Y001322D03*
X016086Y001322D03*
X016480Y001322D03*
X016873Y001322D03*
X017267Y001322D03*
X017661Y001322D03*
X018054Y001322D03*
X018448Y001322D03*
X018842Y001322D03*
X019236Y001322D03*
X019629Y001322D03*
X020023Y001322D03*
X020417Y001322D03*
X020810Y001322D03*
X021204Y001322D03*
X021598Y001322D03*
X021991Y001322D03*
X022385Y001322D03*
X022779Y001322D03*
X023173Y001322D03*
X023566Y001322D03*
X023960Y001322D03*
X026125Y001716D03*
X026913Y001716D03*
X027700Y003291D03*
X026125Y003291D03*
X023960Y004472D03*
X023566Y004472D03*
X023173Y004472D03*
X022779Y004472D03*
X022385Y004472D03*
X021991Y004472D03*
X021598Y004472D03*
X021204Y004472D03*
X020810Y004472D03*
X020417Y004472D03*
X020023Y004472D03*
X019629Y004472D03*
X019236Y004472D03*
X018842Y004472D03*
X018448Y004472D03*
X018054Y004472D03*
X017661Y004472D03*
X017267Y004472D03*
X016873Y004472D03*
X016480Y004472D03*
X016086Y004472D03*
X015692Y004472D03*
X015299Y004472D03*
X014905Y004472D03*
X014511Y004472D03*
X014117Y004472D03*
X013724Y004472D03*
X013330Y004472D03*
X012936Y004472D03*
X012543Y004472D03*
X012149Y004472D03*
X011755Y004472D03*
X026125Y004866D03*
X026913Y004866D03*
X027700Y004866D03*
D14*
X025436Y007129D03*
X011736Y006854D03*
X005653Y007976D03*
M02*
