G75*
G70*
%OFA0B0*%
%FSLAX24Y24*%
%IPPOS*%
%LPD*%
%AMOC8*
5,1,8,0,0,1.08239X$1,22.5*
%
%ADD10C,0.0040*%
%ADD11C,0.0080*%
%ADD12C,0.0060*%
%ADD13R,0.0160X0.0560*%
%ADD14R,0.0560X0.0160*%
D10*
X004295Y001769D02*
X004602Y001769D01*
X004448Y001923D02*
X004448Y001616D01*
X004525Y002720D02*
X004602Y002797D01*
X004602Y003104D01*
X004525Y003181D01*
X004295Y003181D01*
X004295Y002720D01*
X004525Y002720D01*
X004755Y002797D02*
X004832Y002720D01*
X004985Y002720D01*
X005062Y002797D01*
X005062Y002874D01*
X004985Y002950D01*
X004909Y002950D01*
X004985Y002950D02*
X005062Y003027D01*
X005062Y003104D01*
X004985Y003181D01*
X004832Y003181D01*
X004755Y003104D01*
X005216Y003181D02*
X005216Y002874D01*
X005369Y002720D01*
X005523Y002874D01*
X005523Y003181D01*
X005676Y003104D02*
X005753Y003181D01*
X005906Y003181D01*
X005983Y003104D01*
X005983Y003027D01*
X005906Y002950D01*
X005983Y002874D01*
X005983Y002797D01*
X005906Y002720D01*
X005753Y002720D01*
X005676Y002797D01*
X005829Y002950D02*
X005906Y002950D01*
X006657Y002720D02*
X006887Y002720D01*
X006964Y002797D01*
X006964Y003104D01*
X006887Y003181D01*
X006657Y003181D01*
X006657Y002720D01*
X007118Y002720D02*
X007424Y002720D01*
X007271Y002720D02*
X007271Y003181D01*
X007118Y003027D01*
X007578Y002874D02*
X007731Y002720D01*
X007885Y002874D01*
X007885Y003181D01*
X008038Y003181D02*
X008038Y002950D01*
X008192Y003027D01*
X008268Y003027D01*
X008345Y002950D01*
X008345Y002797D01*
X008268Y002720D01*
X008115Y002720D01*
X008038Y002797D01*
X008038Y003181D02*
X008345Y003181D01*
X007578Y003181D02*
X007578Y002874D01*
X006811Y001923D02*
X006811Y001616D01*
X006964Y001769D02*
X006657Y001769D01*
X010200Y001933D02*
X010507Y001933D01*
X010354Y001933D02*
X010354Y002393D01*
X010200Y002240D01*
X010200Y003409D02*
X010507Y003716D01*
X010507Y003793D01*
X010431Y003869D01*
X010277Y003869D01*
X010200Y003793D01*
X010200Y003409D02*
X010507Y003409D01*
X006964Y004131D02*
X006657Y004131D01*
X004602Y004131D02*
X004295Y004131D01*
X001302Y004131D02*
X001302Y003901D01*
X000842Y003901D01*
X000842Y004131D01*
X000919Y004208D01*
X001226Y004208D01*
X001302Y004131D01*
X001226Y004362D02*
X000919Y004362D01*
X000842Y004438D01*
X000842Y004592D01*
X000919Y004669D01*
X001072Y004669D02*
X001072Y004515D01*
X001072Y004669D02*
X001226Y004669D01*
X001302Y004592D01*
X001302Y004438D01*
X001226Y004362D01*
X001302Y004822D02*
X000842Y004822D01*
X001302Y005129D01*
X000842Y005129D01*
X000842Y005282D02*
X000842Y005512D01*
X000919Y005589D01*
X001226Y005589D01*
X001302Y005512D01*
X001302Y005282D01*
X000842Y005282D01*
X003830Y006584D02*
X004290Y006584D01*
X004290Y006431D02*
X004290Y006738D01*
X003984Y006431D02*
X003830Y006584D01*
X003928Y013092D02*
X003775Y013246D01*
X004235Y013246D01*
X004235Y013399D02*
X004235Y013092D01*
X004159Y013553D02*
X004235Y013629D01*
X004235Y013783D01*
X004159Y013859D01*
X004005Y013859D01*
X003928Y013783D01*
X003928Y013706D01*
X004005Y013553D01*
X003775Y013553D01*
X003775Y013859D01*
X003708Y014334D02*
X003401Y014334D01*
X003708Y014334D02*
X003861Y014488D01*
X003708Y014641D01*
X003401Y014641D01*
X003478Y014795D02*
X003554Y014795D01*
X003631Y014871D01*
X003631Y015025D01*
X003708Y015102D01*
X003785Y015102D01*
X003861Y015025D01*
X003861Y014871D01*
X003785Y014795D01*
X003478Y014795D02*
X003401Y014871D01*
X003401Y015025D01*
X003478Y015102D01*
X003401Y015255D02*
X003785Y015255D01*
X003861Y015332D01*
X003861Y015485D01*
X003785Y015562D01*
X003401Y015562D01*
X003401Y015715D02*
X003401Y015946D01*
X003478Y016022D01*
X003631Y016022D01*
X003708Y015946D01*
X003708Y015715D01*
X003861Y015715D02*
X003401Y015715D01*
X002210Y015866D02*
X001903Y015866D01*
X002056Y016019D02*
X002056Y015712D01*
X004812Y015712D02*
X004812Y016019D01*
X004558Y018960D02*
X004558Y019037D01*
X004865Y019344D01*
X004865Y019421D01*
X004558Y019421D01*
X004252Y019421D02*
X004252Y018960D01*
X004405Y018960D02*
X004098Y018960D01*
X004098Y019267D02*
X004252Y019421D01*
X004252Y020240D02*
X004252Y020700D01*
X004098Y020547D01*
X004098Y020240D02*
X004405Y020240D01*
X004558Y020317D02*
X004558Y020393D01*
X004635Y020470D01*
X004789Y020470D01*
X004865Y020393D01*
X004865Y020317D01*
X004789Y020240D01*
X004635Y020240D01*
X004558Y020317D01*
X004635Y020470D02*
X004558Y020547D01*
X004558Y020623D01*
X004635Y020700D01*
X004789Y020700D01*
X004865Y020623D01*
X004865Y020547D01*
X004789Y020470D01*
X001302Y020537D02*
X001302Y020383D01*
X001226Y020306D01*
X000919Y020306D01*
X000842Y020383D01*
X000842Y020537D01*
X000919Y020613D01*
X001072Y020613D02*
X001072Y020460D01*
X001072Y020613D02*
X001226Y020613D01*
X001302Y020537D01*
X001302Y020767D02*
X000842Y020767D01*
X001302Y021074D01*
X000842Y021074D01*
X000842Y021227D02*
X000842Y021457D01*
X000919Y021534D01*
X001226Y021534D01*
X001302Y021457D01*
X001302Y021227D01*
X000842Y021227D01*
X000919Y020153D02*
X000842Y020076D01*
X000842Y019846D01*
X001302Y019846D01*
X001302Y020076D01*
X001226Y020153D01*
X000919Y020153D01*
X013547Y020317D02*
X013624Y020240D01*
X013777Y020240D01*
X013854Y020317D01*
X013854Y020393D01*
X013777Y020470D01*
X013700Y020470D01*
X013777Y020470D02*
X013854Y020547D01*
X013854Y020623D01*
X013777Y020700D01*
X013624Y020700D01*
X013547Y020623D01*
X014007Y020623D02*
X014084Y020700D01*
X014237Y020700D01*
X014314Y020623D01*
X014314Y020547D01*
X014007Y020240D01*
X014314Y020240D01*
X014667Y020228D02*
X014974Y020535D01*
X014974Y020611D01*
X014897Y020688D01*
X014744Y020688D01*
X014667Y020611D01*
X014667Y020228D02*
X014974Y020228D01*
X014821Y019449D02*
X014821Y018988D01*
X014974Y018988D02*
X014667Y018988D01*
X014314Y018960D02*
X014007Y018960D01*
X014161Y018960D02*
X014161Y019421D01*
X014007Y019267D01*
X013854Y019267D02*
X013777Y019190D01*
X013854Y019114D01*
X013854Y019037D01*
X013777Y018960D01*
X013624Y018960D01*
X013547Y019037D01*
X013700Y019190D02*
X013777Y019190D01*
X013854Y019267D02*
X013854Y019344D01*
X013777Y019421D01*
X013624Y019421D01*
X013547Y019344D01*
X014667Y019295D02*
X014821Y019449D01*
X020628Y019333D02*
X020628Y019256D01*
X020704Y019179D01*
X020935Y019179D01*
X020935Y019026D02*
X020935Y019333D01*
X020858Y019409D01*
X020704Y019409D01*
X020628Y019333D01*
X020628Y019026D02*
X020704Y018949D01*
X020858Y018949D01*
X020935Y019026D01*
X021815Y019037D02*
X021891Y018960D01*
X022045Y018960D01*
X022122Y019037D01*
X022122Y019114D01*
X022045Y019190D01*
X021968Y019190D01*
X022045Y019190D02*
X022122Y019267D01*
X022122Y019344D01*
X022045Y019421D01*
X021891Y019421D01*
X021815Y019344D01*
X022275Y019344D02*
X022352Y019421D01*
X022505Y019421D01*
X022582Y019344D01*
X022582Y019267D01*
X022505Y019190D01*
X022582Y019114D01*
X022582Y019037D01*
X022505Y018960D01*
X022352Y018960D01*
X022275Y019037D01*
X022428Y019190D02*
X022505Y019190D01*
X022505Y020240D02*
X022505Y020700D01*
X022275Y020470D01*
X022582Y020470D01*
X022122Y020393D02*
X022122Y020317D01*
X022045Y020240D01*
X021891Y020240D01*
X021815Y020317D01*
X021968Y020470D02*
X022045Y020470D01*
X022122Y020393D01*
X022045Y020470D02*
X022122Y020547D01*
X022122Y020623D01*
X022045Y020700D01*
X021891Y020700D01*
X021815Y020623D01*
X021395Y020611D02*
X021088Y020304D01*
X021165Y020228D01*
X021318Y020228D01*
X021395Y020304D01*
X021395Y020611D01*
X021318Y020688D01*
X021165Y020688D01*
X021088Y020611D01*
X021088Y020304D01*
X020935Y020228D02*
X020628Y020228D01*
X020781Y020228D02*
X020781Y020688D01*
X020628Y020535D01*
X031263Y020470D02*
X031570Y020470D01*
X031724Y020547D02*
X031724Y020623D01*
X031801Y020700D01*
X031954Y020700D01*
X032031Y020623D01*
X032031Y020547D01*
X031954Y020470D01*
X031801Y020470D01*
X031724Y020547D01*
X031801Y020470D02*
X031724Y020393D01*
X031724Y020317D01*
X031801Y020240D01*
X031954Y020240D01*
X032031Y020317D01*
X032031Y020393D01*
X031954Y020470D01*
X031494Y020240D02*
X031494Y020700D01*
X031263Y020470D01*
X031533Y019421D02*
X031303Y019190D01*
X031610Y019190D01*
X031763Y019037D02*
X031763Y018960D01*
X031763Y019037D02*
X032070Y019344D01*
X032070Y019421D01*
X031763Y019421D01*
X031533Y019421D02*
X031533Y018960D01*
X034306Y020000D02*
X034460Y019846D01*
X034767Y019846D01*
X034537Y019846D02*
X034537Y020153D01*
X034460Y020153D02*
X034767Y020153D01*
X034690Y020306D02*
X034383Y020306D01*
X034306Y020383D01*
X034306Y020537D01*
X034383Y020613D01*
X034537Y020613D02*
X034537Y020460D01*
X034537Y020613D02*
X034690Y020613D01*
X034767Y020537D01*
X034767Y020383D01*
X034690Y020306D01*
X034460Y020153D02*
X034306Y020000D01*
X034306Y020767D02*
X034767Y021074D01*
X034306Y021074D01*
X034306Y021227D02*
X034306Y021457D01*
X034383Y021534D01*
X034690Y021534D01*
X034767Y021457D01*
X034767Y021227D01*
X034306Y021227D01*
X034306Y020767D02*
X034767Y020767D01*
X034639Y015147D02*
X034716Y015070D01*
X034716Y014916D01*
X034639Y014840D01*
X034332Y015147D01*
X034639Y015147D01*
X034332Y015147D02*
X034255Y015070D01*
X034255Y014916D01*
X034332Y014840D01*
X034639Y014840D01*
X034639Y014686D02*
X034716Y014609D01*
X034716Y014456D01*
X034639Y014379D01*
X034485Y014379D02*
X034409Y014533D01*
X034409Y014609D01*
X034485Y014686D01*
X034639Y014686D01*
X034255Y014686D02*
X034255Y014379D01*
X034485Y014379D01*
X031885Y013829D02*
X031885Y013675D01*
X031808Y013598D01*
X031655Y013675D02*
X031655Y013905D01*
X031808Y013905D02*
X031501Y013905D01*
X031425Y013829D01*
X031425Y013675D01*
X031501Y013598D01*
X031578Y013598D01*
X031655Y013675D01*
X031655Y013445D02*
X031655Y013138D01*
X031425Y013368D01*
X031885Y013368D01*
X031885Y013829D02*
X031808Y013905D01*
X031718Y006897D02*
X031794Y006821D01*
X031794Y006667D01*
X031718Y006590D01*
X031718Y006437D02*
X031641Y006437D01*
X031564Y006360D01*
X031564Y006130D01*
X031718Y006130D01*
X031794Y006207D01*
X031794Y006360D01*
X031718Y006437D01*
X031411Y006284D02*
X031564Y006130D01*
X031411Y006284D02*
X031334Y006437D01*
X031411Y006590D02*
X031334Y006667D01*
X031334Y006821D01*
X031411Y006897D01*
X031487Y006897D01*
X031564Y006821D01*
X031641Y006897D01*
X031718Y006897D01*
X031564Y006821D02*
X031564Y006744D01*
X034306Y005512D02*
X034306Y005282D01*
X034767Y005282D01*
X034767Y005512D01*
X034690Y005589D01*
X034383Y005589D01*
X034306Y005512D01*
X034306Y005129D02*
X034767Y005129D01*
X034306Y004822D01*
X034767Y004822D01*
X034690Y004669D02*
X034537Y004669D01*
X034537Y004515D01*
X034690Y004362D02*
X034383Y004362D01*
X034306Y004438D01*
X034306Y004592D01*
X034383Y004669D01*
X034690Y004669D02*
X034767Y004592D01*
X034767Y004438D01*
X034690Y004362D01*
X034767Y004208D02*
X034460Y004208D01*
X034306Y004055D01*
X034460Y003901D01*
X034767Y003901D01*
X034537Y003901D02*
X034537Y004208D01*
X031180Y003104D02*
X031180Y003027D01*
X031103Y002950D01*
X031180Y002874D01*
X031180Y002797D01*
X031103Y002720D01*
X030950Y002720D01*
X030873Y002797D01*
X030719Y002874D02*
X030719Y003181D01*
X030873Y003104D02*
X030950Y003181D01*
X031103Y003181D01*
X031180Y003104D01*
X031103Y002950D02*
X031026Y002950D01*
X030719Y002874D02*
X030566Y002720D01*
X030413Y002874D01*
X030413Y003181D01*
X030259Y003104D02*
X030259Y003027D01*
X030182Y002950D01*
X030259Y002874D01*
X030259Y002797D01*
X030182Y002720D01*
X030029Y002720D01*
X029952Y002797D01*
X029799Y002720D02*
X029799Y003027D01*
X029645Y003181D01*
X029492Y003027D01*
X029492Y002720D01*
X029492Y002950D02*
X029799Y002950D01*
X029952Y003104D02*
X030029Y003181D01*
X030182Y003181D01*
X030259Y003104D01*
X030182Y002950D02*
X030106Y002950D01*
X029645Y001923D02*
X029645Y001616D01*
X029492Y001769D02*
X029799Y001769D01*
X028820Y002720D02*
X028666Y002720D01*
X028589Y002797D01*
X028589Y002950D02*
X028743Y003027D01*
X028820Y003027D01*
X028896Y002950D01*
X028896Y002797D01*
X028820Y002720D01*
X028589Y002950D02*
X028589Y003181D01*
X028896Y003181D01*
X028436Y003181D02*
X028436Y002874D01*
X028282Y002720D01*
X028129Y002874D01*
X028129Y003181D01*
X027822Y003181D02*
X027822Y002720D01*
X027669Y002720D02*
X027976Y002720D01*
X027515Y002720D02*
X027515Y003027D01*
X027362Y003181D01*
X027208Y003027D01*
X027208Y002720D01*
X027208Y002950D02*
X027515Y002950D01*
X027669Y003027D02*
X027822Y003181D01*
X027436Y004131D02*
X027130Y004131D01*
X025992Y003631D02*
X025685Y003631D01*
X025915Y003862D01*
X025915Y003401D01*
X025531Y003478D02*
X025531Y003555D01*
X025455Y003631D01*
X025225Y003631D01*
X025225Y003478D01*
X025301Y003401D01*
X025455Y003401D01*
X025531Y003478D01*
X025225Y003631D02*
X025378Y003785D01*
X025531Y003862D01*
X025531Y002385D02*
X025378Y002309D01*
X025225Y002155D01*
X025455Y002155D01*
X025531Y002078D01*
X025531Y002002D01*
X025455Y001925D01*
X025301Y001925D01*
X025225Y002002D01*
X025225Y002155D01*
X025685Y002002D02*
X025762Y001925D01*
X025915Y001925D01*
X025992Y002002D01*
X025992Y002078D01*
X025915Y002155D01*
X025838Y002155D01*
X025915Y002155D02*
X025992Y002232D01*
X025992Y002309D01*
X025915Y002385D01*
X025762Y002385D01*
X025685Y002309D01*
X027130Y001769D02*
X027436Y001769D01*
X027283Y001616D02*
X027283Y001923D01*
X029492Y004131D02*
X029799Y004131D01*
D11*
X001421Y002110D02*
X001423Y002162D01*
X001429Y002214D01*
X001439Y002265D01*
X001452Y002315D01*
X001470Y002365D01*
X001491Y002412D01*
X001515Y002458D01*
X001544Y002502D01*
X001575Y002544D01*
X001609Y002583D01*
X001646Y002620D01*
X001686Y002653D01*
X001729Y002684D01*
X001773Y002711D01*
X001819Y002735D01*
X001868Y002755D01*
X001917Y002771D01*
X001968Y002784D01*
X002019Y002793D01*
X002071Y002798D01*
X002123Y002799D01*
X002175Y002796D01*
X002227Y002789D01*
X002278Y002778D01*
X002328Y002764D01*
X002377Y002745D01*
X002424Y002723D01*
X002469Y002698D01*
X002513Y002669D01*
X002554Y002637D01*
X002593Y002602D01*
X002628Y002564D01*
X002661Y002523D01*
X002691Y002481D01*
X002717Y002436D01*
X002740Y002389D01*
X002759Y002340D01*
X002775Y002290D01*
X002787Y002240D01*
X002795Y002188D01*
X002799Y002136D01*
X002799Y002084D01*
X002795Y002032D01*
X002787Y001980D01*
X002775Y001930D01*
X002759Y001880D01*
X002740Y001831D01*
X002717Y001784D01*
X002691Y001739D01*
X002661Y001697D01*
X002628Y001656D01*
X002593Y001618D01*
X002554Y001583D01*
X002513Y001551D01*
X002469Y001522D01*
X002424Y001497D01*
X002377Y001475D01*
X002328Y001456D01*
X002278Y001442D01*
X002227Y001431D01*
X002175Y001424D01*
X002123Y001421D01*
X002071Y001422D01*
X002019Y001427D01*
X001968Y001436D01*
X001917Y001449D01*
X001868Y001465D01*
X001819Y001485D01*
X001773Y001509D01*
X001729Y001536D01*
X001686Y001567D01*
X001646Y001600D01*
X001609Y001637D01*
X001575Y001676D01*
X001544Y001718D01*
X001515Y001762D01*
X001491Y001808D01*
X001470Y001855D01*
X001452Y001905D01*
X001439Y001955D01*
X001429Y002006D01*
X001423Y002058D01*
X001421Y002110D01*
X001399Y005984D02*
X002899Y005984D01*
X003149Y006234D01*
X003149Y006734D01*
X002899Y006984D01*
X003149Y007234D01*
X003149Y007734D01*
X002899Y007984D01*
X003149Y008234D01*
X003149Y008734D01*
X002899Y008984D01*
X003149Y009234D01*
X003149Y009734D01*
X002899Y009984D01*
X003149Y010234D01*
X003149Y010734D01*
X002899Y010984D01*
X003149Y011234D01*
X003149Y011734D01*
X002899Y011984D01*
X003149Y012234D01*
X003149Y012734D01*
X002899Y012984D01*
X003149Y013234D01*
X003149Y013734D01*
X002899Y013984D01*
X001399Y013984D01*
X001149Y013734D01*
X001149Y013234D01*
X001399Y012984D01*
X001149Y012734D01*
X001149Y012234D01*
X001399Y011984D01*
X001149Y011734D01*
X001149Y011234D01*
X001399Y010984D01*
X001149Y010734D01*
X001149Y010234D01*
X001399Y009984D01*
X001149Y009734D01*
X001149Y009234D01*
X001399Y008984D01*
X001149Y008734D01*
X001149Y008234D01*
X001399Y007984D01*
X001149Y007734D01*
X001149Y007234D01*
X001399Y006984D01*
X001149Y006734D01*
X001149Y006234D01*
X001399Y005984D01*
X003173Y006527D02*
X003527Y006527D01*
X010842Y004047D02*
X010842Y001747D01*
X011180Y001747D01*
X011180Y001913D01*
X011047Y002511D02*
X011047Y003299D01*
X011047Y003298D02*
X011046Y003331D01*
X011049Y003363D01*
X011056Y003394D01*
X011067Y003425D01*
X011080Y003454D01*
X011097Y003482D01*
X011117Y003507D01*
X011139Y003530D01*
X011164Y003551D01*
X011192Y003568D01*
X011221Y003583D01*
X011251Y003594D01*
X011282Y003601D01*
X011314Y003605D01*
X011173Y003881D02*
X011173Y004047D01*
X010842Y004047D01*
X011047Y002503D02*
X011049Y002470D01*
X011055Y002437D01*
X011064Y002405D01*
X011076Y002374D01*
X011092Y002344D01*
X011110Y002316D01*
X011132Y002291D01*
X011155Y002267D01*
X011182Y002247D01*
X011210Y002229D01*
X011240Y002214D01*
X011271Y002202D01*
X011304Y002194D01*
X011337Y002189D01*
X011370Y002188D01*
X024401Y002189D02*
X024433Y002193D01*
X024464Y002200D01*
X024494Y002211D01*
X024523Y002226D01*
X024551Y002243D01*
X024576Y002264D01*
X024598Y002287D01*
X024618Y002312D01*
X024635Y002340D01*
X024648Y002369D01*
X024659Y002400D01*
X024666Y002431D01*
X024669Y002463D01*
X024668Y002496D01*
X024669Y002495D02*
X024669Y003283D01*
X024669Y003291D02*
X024667Y003324D01*
X024661Y003357D01*
X024652Y003389D01*
X024640Y003420D01*
X024624Y003450D01*
X024606Y003478D01*
X024584Y003503D01*
X024561Y003527D01*
X024534Y003547D01*
X024506Y003565D01*
X024476Y003580D01*
X024445Y003592D01*
X024412Y003600D01*
X024379Y003605D01*
X024346Y003606D01*
X024535Y003881D02*
X024535Y004047D01*
X024889Y004047D01*
X024889Y001747D01*
X024543Y001747D01*
X024543Y001913D01*
X032173Y006527D02*
X032527Y006527D01*
X032566Y006734D02*
X032566Y006234D01*
X032816Y005984D01*
X034316Y005984D01*
X034566Y006234D01*
X034566Y006734D01*
X034316Y006984D01*
X034566Y007234D01*
X034566Y007734D01*
X034316Y007984D01*
X034566Y008234D01*
X034566Y008734D01*
X034316Y008984D01*
X034566Y009234D01*
X034566Y009734D01*
X034316Y009984D01*
X034566Y010234D01*
X034566Y010734D01*
X034316Y010984D01*
X034566Y011234D01*
X034566Y011734D01*
X034316Y011984D01*
X034566Y012234D01*
X034566Y012734D01*
X034316Y012984D01*
X034566Y013234D01*
X034566Y013734D01*
X034316Y013984D01*
X032816Y013984D01*
X032566Y013734D01*
X032566Y013234D01*
X032816Y012984D01*
X032566Y012734D01*
X032566Y012234D01*
X032816Y011984D01*
X032566Y011734D01*
X032566Y011234D01*
X032816Y010984D01*
X032566Y010734D01*
X032566Y010234D01*
X032816Y009984D01*
X032566Y009734D01*
X032566Y009234D01*
X032816Y008984D01*
X032566Y008734D01*
X032566Y008234D01*
X032816Y007984D01*
X032566Y007734D01*
X032566Y007234D01*
X032816Y006984D01*
X032566Y006734D01*
X032917Y002110D02*
X032919Y002162D01*
X032925Y002214D01*
X032935Y002265D01*
X032948Y002315D01*
X032966Y002365D01*
X032987Y002412D01*
X033011Y002458D01*
X033040Y002502D01*
X033071Y002544D01*
X033105Y002583D01*
X033142Y002620D01*
X033182Y002653D01*
X033225Y002684D01*
X033269Y002711D01*
X033315Y002735D01*
X033364Y002755D01*
X033413Y002771D01*
X033464Y002784D01*
X033515Y002793D01*
X033567Y002798D01*
X033619Y002799D01*
X033671Y002796D01*
X033723Y002789D01*
X033774Y002778D01*
X033824Y002764D01*
X033873Y002745D01*
X033920Y002723D01*
X033965Y002698D01*
X034009Y002669D01*
X034050Y002637D01*
X034089Y002602D01*
X034124Y002564D01*
X034157Y002523D01*
X034187Y002481D01*
X034213Y002436D01*
X034236Y002389D01*
X034255Y002340D01*
X034271Y002290D01*
X034283Y002240D01*
X034291Y002188D01*
X034295Y002136D01*
X034295Y002084D01*
X034291Y002032D01*
X034283Y001980D01*
X034271Y001930D01*
X034255Y001880D01*
X034236Y001831D01*
X034213Y001784D01*
X034187Y001739D01*
X034157Y001697D01*
X034124Y001656D01*
X034089Y001618D01*
X034050Y001583D01*
X034009Y001551D01*
X033965Y001522D01*
X033920Y001497D01*
X033873Y001475D01*
X033824Y001456D01*
X033774Y001442D01*
X033723Y001431D01*
X033671Y001424D01*
X033619Y001421D01*
X033567Y001422D01*
X033515Y001427D01*
X033464Y001436D01*
X033413Y001449D01*
X033364Y001465D01*
X033315Y001485D01*
X033269Y001509D01*
X033225Y001536D01*
X033182Y001567D01*
X033142Y001600D01*
X033105Y001637D01*
X033071Y001676D01*
X033040Y001718D01*
X033011Y001762D01*
X032987Y001808D01*
X032966Y001855D01*
X032948Y001905D01*
X032935Y001955D01*
X032925Y002006D01*
X032919Y002058D01*
X032917Y002110D01*
X032527Y013527D02*
X032173Y013527D01*
X032917Y017858D02*
X032919Y017910D01*
X032925Y017962D01*
X032935Y018013D01*
X032948Y018063D01*
X032966Y018113D01*
X032987Y018160D01*
X033011Y018206D01*
X033040Y018250D01*
X033071Y018292D01*
X033105Y018331D01*
X033142Y018368D01*
X033182Y018401D01*
X033225Y018432D01*
X033269Y018459D01*
X033315Y018483D01*
X033364Y018503D01*
X033413Y018519D01*
X033464Y018532D01*
X033515Y018541D01*
X033567Y018546D01*
X033619Y018547D01*
X033671Y018544D01*
X033723Y018537D01*
X033774Y018526D01*
X033824Y018512D01*
X033873Y018493D01*
X033920Y018471D01*
X033965Y018446D01*
X034009Y018417D01*
X034050Y018385D01*
X034089Y018350D01*
X034124Y018312D01*
X034157Y018271D01*
X034187Y018229D01*
X034213Y018184D01*
X034236Y018137D01*
X034255Y018088D01*
X034271Y018038D01*
X034283Y017988D01*
X034291Y017936D01*
X034295Y017884D01*
X034295Y017832D01*
X034291Y017780D01*
X034283Y017728D01*
X034271Y017678D01*
X034255Y017628D01*
X034236Y017579D01*
X034213Y017532D01*
X034187Y017487D01*
X034157Y017445D01*
X034124Y017404D01*
X034089Y017366D01*
X034050Y017331D01*
X034009Y017299D01*
X033965Y017270D01*
X033920Y017245D01*
X033873Y017223D01*
X033824Y017204D01*
X033774Y017190D01*
X033723Y017179D01*
X033671Y017172D01*
X033619Y017169D01*
X033567Y017170D01*
X033515Y017175D01*
X033464Y017184D01*
X033413Y017197D01*
X033364Y017213D01*
X033315Y017233D01*
X033269Y017257D01*
X033225Y017284D01*
X033182Y017315D01*
X033142Y017348D01*
X033105Y017385D01*
X033071Y017424D01*
X033040Y017466D01*
X033011Y017510D01*
X032987Y017556D01*
X032966Y017603D01*
X032948Y017653D01*
X032935Y017703D01*
X032925Y017754D01*
X032919Y017806D01*
X032917Y017858D01*
X030913Y019076D02*
X030913Y020576D01*
X030663Y020826D01*
X030163Y020826D01*
X029913Y020576D01*
X029663Y020826D01*
X029163Y020826D01*
X028913Y020576D01*
X028663Y020826D01*
X028163Y020826D01*
X027913Y020576D01*
X027663Y020826D01*
X027163Y020826D01*
X026913Y020576D01*
X026663Y020826D01*
X026163Y020826D01*
X025913Y020576D01*
X025663Y020826D01*
X025163Y020826D01*
X024913Y020576D01*
X024663Y020826D01*
X024163Y020826D01*
X023913Y020576D01*
X023663Y020826D01*
X023163Y020826D01*
X022913Y020576D01*
X022913Y019076D01*
X023163Y018826D01*
X023663Y018826D01*
X023913Y019076D01*
X024163Y018826D01*
X024663Y018826D01*
X024913Y019076D01*
X025163Y018826D01*
X025663Y018826D01*
X025913Y019076D01*
X026163Y018826D01*
X026663Y018826D01*
X026913Y019076D01*
X027163Y018826D01*
X027663Y018826D01*
X027913Y019076D01*
X028163Y018826D01*
X028663Y018826D01*
X028913Y019076D01*
X029163Y018826D01*
X029663Y018826D01*
X029913Y019076D01*
X030163Y018826D01*
X030663Y018826D01*
X030913Y019076D01*
X020358Y019068D02*
X020108Y018818D01*
X019608Y018818D01*
X019358Y019068D01*
X019108Y018818D01*
X018608Y018818D01*
X018358Y019068D01*
X018108Y018818D01*
X017608Y018818D01*
X017358Y019068D01*
X017108Y018818D01*
X016608Y018818D01*
X016358Y019068D01*
X016108Y018818D01*
X015608Y018818D01*
X015358Y019068D01*
X015358Y019568D01*
X015608Y019818D01*
X015358Y020068D01*
X015358Y020568D01*
X015608Y020818D01*
X016108Y020818D01*
X016358Y020568D01*
X016608Y020818D01*
X017108Y020818D01*
X017358Y020568D01*
X017608Y020818D01*
X018108Y020818D01*
X018358Y020568D01*
X018608Y020818D01*
X019108Y020818D01*
X019358Y020568D01*
X019608Y020818D01*
X020108Y020818D01*
X020358Y020568D01*
X020358Y020068D01*
X020108Y019818D01*
X020358Y019568D01*
X020358Y019068D01*
X013196Y019076D02*
X012946Y018826D01*
X012446Y018826D01*
X012196Y019076D01*
X011946Y018826D01*
X011446Y018826D01*
X011196Y019076D01*
X010946Y018826D01*
X010446Y018826D01*
X010196Y019076D01*
X009946Y018826D01*
X009446Y018826D01*
X009196Y019076D01*
X008946Y018826D01*
X008446Y018826D01*
X008196Y019076D01*
X007946Y018826D01*
X007446Y018826D01*
X007196Y019076D01*
X006946Y018826D01*
X006446Y018826D01*
X006196Y019076D01*
X005946Y018826D01*
X005446Y018826D01*
X005196Y019076D01*
X005196Y020576D01*
X005446Y020826D01*
X005946Y020826D01*
X006196Y020576D01*
X006446Y020826D01*
X006946Y020826D01*
X007196Y020576D01*
X007446Y020826D01*
X007946Y020826D01*
X008196Y020576D01*
X008446Y020826D01*
X008946Y020826D01*
X009196Y020576D01*
X009446Y020826D01*
X009946Y020826D01*
X010196Y020576D01*
X010446Y020826D01*
X010946Y020826D01*
X011196Y020576D01*
X011446Y020826D01*
X011946Y020826D01*
X012196Y020576D01*
X012446Y020826D01*
X012946Y020826D01*
X013196Y020576D01*
X013196Y019076D01*
X003527Y013527D02*
X003173Y013527D01*
X001421Y017858D02*
X001423Y017910D01*
X001429Y017962D01*
X001439Y018013D01*
X001452Y018063D01*
X001470Y018113D01*
X001491Y018160D01*
X001515Y018206D01*
X001544Y018250D01*
X001575Y018292D01*
X001609Y018331D01*
X001646Y018368D01*
X001686Y018401D01*
X001729Y018432D01*
X001773Y018459D01*
X001819Y018483D01*
X001868Y018503D01*
X001917Y018519D01*
X001968Y018532D01*
X002019Y018541D01*
X002071Y018546D01*
X002123Y018547D01*
X002175Y018544D01*
X002227Y018537D01*
X002278Y018526D01*
X002328Y018512D01*
X002377Y018493D01*
X002424Y018471D01*
X002469Y018446D01*
X002513Y018417D01*
X002554Y018385D01*
X002593Y018350D01*
X002628Y018312D01*
X002661Y018271D01*
X002691Y018229D01*
X002717Y018184D01*
X002740Y018137D01*
X002759Y018088D01*
X002775Y018038D01*
X002787Y017988D01*
X002795Y017936D01*
X002799Y017884D01*
X002799Y017832D01*
X002795Y017780D01*
X002787Y017728D01*
X002775Y017678D01*
X002759Y017628D01*
X002740Y017579D01*
X002717Y017532D01*
X002691Y017487D01*
X002661Y017445D01*
X002628Y017404D01*
X002593Y017366D01*
X002554Y017331D01*
X002513Y017299D01*
X002469Y017270D01*
X002424Y017245D01*
X002377Y017223D01*
X002328Y017204D01*
X002278Y017190D01*
X002227Y017179D01*
X002175Y017172D01*
X002123Y017169D01*
X002071Y017170D01*
X002019Y017175D01*
X001968Y017184D01*
X001917Y017197D01*
X001868Y017213D01*
X001819Y017233D01*
X001773Y017257D01*
X001729Y017284D01*
X001686Y017315D01*
X001646Y017348D01*
X001609Y017385D01*
X001575Y017424D01*
X001544Y017466D01*
X001515Y017510D01*
X001491Y017556D01*
X001470Y017603D01*
X001452Y017653D01*
X001439Y017703D01*
X001429Y017754D01*
X001423Y017806D01*
X001421Y017858D01*
D12*
X000760Y017858D02*
X000762Y017931D01*
X000768Y018004D01*
X000778Y018076D01*
X000792Y018148D01*
X000809Y018219D01*
X000831Y018289D01*
X000856Y018358D01*
X000885Y018425D01*
X000917Y018490D01*
X000953Y018554D01*
X000993Y018616D01*
X001035Y018675D01*
X001081Y018732D01*
X001130Y018786D01*
X001182Y018838D01*
X001236Y018887D01*
X001293Y018933D01*
X001352Y018975D01*
X001414Y019015D01*
X001478Y019051D01*
X001543Y019083D01*
X001610Y019112D01*
X001679Y019137D01*
X001749Y019159D01*
X001820Y019176D01*
X001892Y019190D01*
X001964Y019200D01*
X002037Y019206D01*
X002110Y019208D01*
X002183Y019206D01*
X002256Y019200D01*
X002328Y019190D01*
X002400Y019176D01*
X002471Y019159D01*
X002541Y019137D01*
X002610Y019112D01*
X002677Y019083D01*
X002742Y019051D01*
X002806Y019015D01*
X002868Y018975D01*
X002927Y018933D01*
X002984Y018887D01*
X003038Y018838D01*
X003090Y018786D01*
X003139Y018732D01*
X003185Y018675D01*
X003227Y018616D01*
X003267Y018554D01*
X003303Y018490D01*
X003335Y018425D01*
X003364Y018358D01*
X003389Y018289D01*
X003411Y018219D01*
X003428Y018148D01*
X003442Y018076D01*
X003452Y018004D01*
X003458Y017931D01*
X003460Y017858D01*
X003458Y017785D01*
X003452Y017712D01*
X003442Y017640D01*
X003428Y017568D01*
X003411Y017497D01*
X003389Y017427D01*
X003364Y017358D01*
X003335Y017291D01*
X003303Y017226D01*
X003267Y017162D01*
X003227Y017100D01*
X003185Y017041D01*
X003139Y016984D01*
X003090Y016930D01*
X003038Y016878D01*
X002984Y016829D01*
X002927Y016783D01*
X002868Y016741D01*
X002806Y016701D01*
X002742Y016665D01*
X002677Y016633D01*
X002610Y016604D01*
X002541Y016579D01*
X002471Y016557D01*
X002400Y016540D01*
X002328Y016526D01*
X002256Y016516D01*
X002183Y016510D01*
X002110Y016508D01*
X002037Y016510D01*
X001964Y016516D01*
X001892Y016526D01*
X001820Y016540D01*
X001749Y016557D01*
X001679Y016579D01*
X001610Y016604D01*
X001543Y016633D01*
X001478Y016665D01*
X001414Y016701D01*
X001352Y016741D01*
X001293Y016783D01*
X001236Y016829D01*
X001182Y016878D01*
X001130Y016930D01*
X001081Y016984D01*
X001035Y017041D01*
X000993Y017100D01*
X000953Y017162D01*
X000917Y017226D01*
X000885Y017291D01*
X000856Y017358D01*
X000831Y017427D01*
X000809Y017497D01*
X000792Y017568D01*
X000778Y017640D01*
X000768Y017712D01*
X000762Y017785D01*
X000760Y017858D01*
X000760Y002110D02*
X000762Y002183D01*
X000768Y002256D01*
X000778Y002328D01*
X000792Y002400D01*
X000809Y002471D01*
X000831Y002541D01*
X000856Y002610D01*
X000885Y002677D01*
X000917Y002742D01*
X000953Y002806D01*
X000993Y002868D01*
X001035Y002927D01*
X001081Y002984D01*
X001130Y003038D01*
X001182Y003090D01*
X001236Y003139D01*
X001293Y003185D01*
X001352Y003227D01*
X001414Y003267D01*
X001478Y003303D01*
X001543Y003335D01*
X001610Y003364D01*
X001679Y003389D01*
X001749Y003411D01*
X001820Y003428D01*
X001892Y003442D01*
X001964Y003452D01*
X002037Y003458D01*
X002110Y003460D01*
X002183Y003458D01*
X002256Y003452D01*
X002328Y003442D01*
X002400Y003428D01*
X002471Y003411D01*
X002541Y003389D01*
X002610Y003364D01*
X002677Y003335D01*
X002742Y003303D01*
X002806Y003267D01*
X002868Y003227D01*
X002927Y003185D01*
X002984Y003139D01*
X003038Y003090D01*
X003090Y003038D01*
X003139Y002984D01*
X003185Y002927D01*
X003227Y002868D01*
X003267Y002806D01*
X003303Y002742D01*
X003335Y002677D01*
X003364Y002610D01*
X003389Y002541D01*
X003411Y002471D01*
X003428Y002400D01*
X003442Y002328D01*
X003452Y002256D01*
X003458Y002183D01*
X003460Y002110D01*
X003458Y002037D01*
X003452Y001964D01*
X003442Y001892D01*
X003428Y001820D01*
X003411Y001749D01*
X003389Y001679D01*
X003364Y001610D01*
X003335Y001543D01*
X003303Y001478D01*
X003267Y001414D01*
X003227Y001352D01*
X003185Y001293D01*
X003139Y001236D01*
X003090Y001182D01*
X003038Y001130D01*
X002984Y001081D01*
X002927Y001035D01*
X002868Y000993D01*
X002806Y000953D01*
X002742Y000917D01*
X002677Y000885D01*
X002610Y000856D01*
X002541Y000831D01*
X002471Y000809D01*
X002400Y000792D01*
X002328Y000778D01*
X002256Y000768D01*
X002183Y000762D01*
X002110Y000760D01*
X002037Y000762D01*
X001964Y000768D01*
X001892Y000778D01*
X001820Y000792D01*
X001749Y000809D01*
X001679Y000831D01*
X001610Y000856D01*
X001543Y000885D01*
X001478Y000917D01*
X001414Y000953D01*
X001352Y000993D01*
X001293Y001035D01*
X001236Y001081D01*
X001182Y001130D01*
X001130Y001182D01*
X001081Y001236D01*
X001035Y001293D01*
X000993Y001352D01*
X000953Y001414D01*
X000917Y001478D01*
X000885Y001543D01*
X000856Y001610D01*
X000831Y001679D01*
X000809Y001749D01*
X000792Y001820D01*
X000778Y001892D01*
X000768Y001964D01*
X000762Y002037D01*
X000760Y002110D01*
X032256Y002110D02*
X032258Y002183D01*
X032264Y002256D01*
X032274Y002328D01*
X032288Y002400D01*
X032305Y002471D01*
X032327Y002541D01*
X032352Y002610D01*
X032381Y002677D01*
X032413Y002742D01*
X032449Y002806D01*
X032489Y002868D01*
X032531Y002927D01*
X032577Y002984D01*
X032626Y003038D01*
X032678Y003090D01*
X032732Y003139D01*
X032789Y003185D01*
X032848Y003227D01*
X032910Y003267D01*
X032974Y003303D01*
X033039Y003335D01*
X033106Y003364D01*
X033175Y003389D01*
X033245Y003411D01*
X033316Y003428D01*
X033388Y003442D01*
X033460Y003452D01*
X033533Y003458D01*
X033606Y003460D01*
X033679Y003458D01*
X033752Y003452D01*
X033824Y003442D01*
X033896Y003428D01*
X033967Y003411D01*
X034037Y003389D01*
X034106Y003364D01*
X034173Y003335D01*
X034238Y003303D01*
X034302Y003267D01*
X034364Y003227D01*
X034423Y003185D01*
X034480Y003139D01*
X034534Y003090D01*
X034586Y003038D01*
X034635Y002984D01*
X034681Y002927D01*
X034723Y002868D01*
X034763Y002806D01*
X034799Y002742D01*
X034831Y002677D01*
X034860Y002610D01*
X034885Y002541D01*
X034907Y002471D01*
X034924Y002400D01*
X034938Y002328D01*
X034948Y002256D01*
X034954Y002183D01*
X034956Y002110D01*
X034954Y002037D01*
X034948Y001964D01*
X034938Y001892D01*
X034924Y001820D01*
X034907Y001749D01*
X034885Y001679D01*
X034860Y001610D01*
X034831Y001543D01*
X034799Y001478D01*
X034763Y001414D01*
X034723Y001352D01*
X034681Y001293D01*
X034635Y001236D01*
X034586Y001182D01*
X034534Y001130D01*
X034480Y001081D01*
X034423Y001035D01*
X034364Y000993D01*
X034302Y000953D01*
X034238Y000917D01*
X034173Y000885D01*
X034106Y000856D01*
X034037Y000831D01*
X033967Y000809D01*
X033896Y000792D01*
X033824Y000778D01*
X033752Y000768D01*
X033679Y000762D01*
X033606Y000760D01*
X033533Y000762D01*
X033460Y000768D01*
X033388Y000778D01*
X033316Y000792D01*
X033245Y000809D01*
X033175Y000831D01*
X033106Y000856D01*
X033039Y000885D01*
X032974Y000917D01*
X032910Y000953D01*
X032848Y000993D01*
X032789Y001035D01*
X032732Y001081D01*
X032678Y001130D01*
X032626Y001182D01*
X032577Y001236D01*
X032531Y001293D01*
X032489Y001352D01*
X032449Y001414D01*
X032413Y001478D01*
X032381Y001543D01*
X032352Y001610D01*
X032327Y001679D01*
X032305Y001749D01*
X032288Y001820D01*
X032274Y001892D01*
X032264Y001964D01*
X032258Y002037D01*
X032256Y002110D01*
X032256Y017858D02*
X032258Y017931D01*
X032264Y018004D01*
X032274Y018076D01*
X032288Y018148D01*
X032305Y018219D01*
X032327Y018289D01*
X032352Y018358D01*
X032381Y018425D01*
X032413Y018490D01*
X032449Y018554D01*
X032489Y018616D01*
X032531Y018675D01*
X032577Y018732D01*
X032626Y018786D01*
X032678Y018838D01*
X032732Y018887D01*
X032789Y018933D01*
X032848Y018975D01*
X032910Y019015D01*
X032974Y019051D01*
X033039Y019083D01*
X033106Y019112D01*
X033175Y019137D01*
X033245Y019159D01*
X033316Y019176D01*
X033388Y019190D01*
X033460Y019200D01*
X033533Y019206D01*
X033606Y019208D01*
X033679Y019206D01*
X033752Y019200D01*
X033824Y019190D01*
X033896Y019176D01*
X033967Y019159D01*
X034037Y019137D01*
X034106Y019112D01*
X034173Y019083D01*
X034238Y019051D01*
X034302Y019015D01*
X034364Y018975D01*
X034423Y018933D01*
X034480Y018887D01*
X034534Y018838D01*
X034586Y018786D01*
X034635Y018732D01*
X034681Y018675D01*
X034723Y018616D01*
X034763Y018554D01*
X034799Y018490D01*
X034831Y018425D01*
X034860Y018358D01*
X034885Y018289D01*
X034907Y018219D01*
X034924Y018148D01*
X034938Y018076D01*
X034948Y018004D01*
X034954Y017931D01*
X034956Y017858D01*
X034954Y017785D01*
X034948Y017712D01*
X034938Y017640D01*
X034924Y017568D01*
X034907Y017497D01*
X034885Y017427D01*
X034860Y017358D01*
X034831Y017291D01*
X034799Y017226D01*
X034763Y017162D01*
X034723Y017100D01*
X034681Y017041D01*
X034635Y016984D01*
X034586Y016930D01*
X034534Y016878D01*
X034480Y016829D01*
X034423Y016783D01*
X034364Y016741D01*
X034302Y016701D01*
X034238Y016665D01*
X034173Y016633D01*
X034106Y016604D01*
X034037Y016579D01*
X033967Y016557D01*
X033896Y016540D01*
X033824Y016526D01*
X033752Y016516D01*
X033679Y016510D01*
X033606Y016508D01*
X033533Y016510D01*
X033460Y016516D01*
X033388Y016526D01*
X033316Y016540D01*
X033245Y016557D01*
X033175Y016579D01*
X033106Y016604D01*
X033039Y016633D01*
X032974Y016665D01*
X032910Y016701D01*
X032848Y016741D01*
X032789Y016783D01*
X032732Y016829D01*
X032678Y016878D01*
X032626Y016930D01*
X032577Y016984D01*
X032531Y017041D01*
X032489Y017100D01*
X032449Y017162D01*
X032413Y017226D01*
X032381Y017291D01*
X032352Y017358D01*
X032327Y017427D01*
X032305Y017497D01*
X032288Y017568D01*
X032274Y017640D01*
X032264Y017712D01*
X032258Y017785D01*
X032256Y017858D01*
D13*
X005653Y009196D03*
D14*
X009196Y009590D03*
X010771Y009590D03*
X013133Y009590D03*
X014708Y009590D03*
X017070Y009590D03*
X018645Y009590D03*
X021007Y009590D03*
X022582Y009590D03*
X024944Y009590D03*
X026519Y009590D03*
X026519Y011952D03*
X022582Y011952D03*
X018645Y011952D03*
X014708Y011952D03*
X010771Y011952D03*
X013133Y007621D03*
X017070Y006047D03*
X023173Y006047D03*
X026913Y006440D03*
M02*
