G75*
G70*
%OFA0B0*%
%FSLAX24Y24*%
%IPPOS*%
%LPD*%
%AMOC8*
5,1,8,0,0,1.08239X$1,22.5*
%
%ADD10C,0.0000*%
D10*
X000141Y000141D02*
X035574Y000141D01*
X035574Y022188D01*
X000141Y022188D01*
X000141Y000141D01*
X001460Y002110D02*
X001462Y002160D01*
X001468Y002210D01*
X001478Y002260D01*
X001491Y002308D01*
X001508Y002356D01*
X001529Y002402D01*
X001553Y002446D01*
X001581Y002488D01*
X001612Y002528D01*
X001646Y002565D01*
X001683Y002600D01*
X001722Y002631D01*
X001763Y002660D01*
X001807Y002685D01*
X001853Y002707D01*
X001900Y002725D01*
X001948Y002739D01*
X001997Y002750D01*
X002047Y002757D01*
X002097Y002760D01*
X002148Y002759D01*
X002198Y002754D01*
X002248Y002745D01*
X002296Y002733D01*
X002344Y002716D01*
X002390Y002696D01*
X002435Y002673D01*
X002478Y002646D01*
X002518Y002616D01*
X002556Y002583D01*
X002591Y002547D01*
X002624Y002508D01*
X002653Y002467D01*
X002679Y002424D01*
X002702Y002379D01*
X002721Y002332D01*
X002736Y002284D01*
X002748Y002235D01*
X002756Y002185D01*
X002760Y002135D01*
X002760Y002085D01*
X002756Y002035D01*
X002748Y001985D01*
X002736Y001936D01*
X002721Y001888D01*
X002702Y001841D01*
X002679Y001796D01*
X002653Y001753D01*
X002624Y001712D01*
X002591Y001673D01*
X002556Y001637D01*
X002518Y001604D01*
X002478Y001574D01*
X002435Y001547D01*
X002390Y001524D01*
X002344Y001504D01*
X002296Y001487D01*
X002248Y001475D01*
X002198Y001466D01*
X002148Y001461D01*
X002097Y001460D01*
X002047Y001463D01*
X001997Y001470D01*
X001948Y001481D01*
X001900Y001495D01*
X001853Y001513D01*
X001807Y001535D01*
X001763Y001560D01*
X001722Y001589D01*
X001683Y001620D01*
X001646Y001655D01*
X001612Y001692D01*
X001581Y001732D01*
X001553Y001774D01*
X001529Y001818D01*
X001508Y001864D01*
X001491Y001912D01*
X001478Y001960D01*
X001468Y002010D01*
X001462Y002060D01*
X001460Y002110D01*
X010810Y002897D02*
X010812Y002930D01*
X010818Y002962D01*
X010827Y002993D01*
X010840Y003023D01*
X010857Y003051D01*
X010877Y003077D01*
X010900Y003101D01*
X010925Y003121D01*
X010953Y003139D01*
X010982Y003153D01*
X011013Y003163D01*
X011045Y003170D01*
X011078Y003173D01*
X011111Y003172D01*
X011143Y003167D01*
X011174Y003158D01*
X011205Y003146D01*
X011233Y003130D01*
X011260Y003111D01*
X011284Y003089D01*
X011305Y003064D01*
X011324Y003037D01*
X011339Y003008D01*
X011350Y002978D01*
X011358Y002946D01*
X011362Y002913D01*
X011362Y002881D01*
X011358Y002848D01*
X011350Y002816D01*
X011339Y002786D01*
X011324Y002757D01*
X011305Y002730D01*
X011284Y002705D01*
X011260Y002683D01*
X011233Y002664D01*
X011205Y002648D01*
X011174Y002636D01*
X011143Y002627D01*
X011111Y002622D01*
X011078Y002621D01*
X011045Y002624D01*
X011013Y002631D01*
X010982Y002641D01*
X010953Y002655D01*
X010925Y002673D01*
X010900Y002693D01*
X010877Y002717D01*
X010857Y002743D01*
X010840Y002771D01*
X010827Y002801D01*
X010818Y002832D01*
X010812Y002864D01*
X010810Y002897D01*
X010812Y002930D01*
X010818Y002962D01*
X010827Y002993D01*
X010840Y003023D01*
X010857Y003051D01*
X010877Y003077D01*
X010900Y003101D01*
X010925Y003121D01*
X010953Y003139D01*
X010982Y003153D01*
X011013Y003163D01*
X011045Y003170D01*
X011078Y003173D01*
X011111Y003172D01*
X011143Y003167D01*
X011174Y003158D01*
X011205Y003146D01*
X011233Y003130D01*
X011260Y003111D01*
X011284Y003089D01*
X011305Y003064D01*
X011324Y003037D01*
X011339Y003008D01*
X011350Y002978D01*
X011358Y002946D01*
X011362Y002913D01*
X011362Y002881D01*
X011358Y002848D01*
X011350Y002816D01*
X011339Y002786D01*
X011324Y002757D01*
X011305Y002730D01*
X011284Y002705D01*
X011260Y002683D01*
X011233Y002664D01*
X011205Y002648D01*
X011174Y002636D01*
X011143Y002627D01*
X011111Y002622D01*
X011078Y002621D01*
X011045Y002624D01*
X011013Y002631D01*
X010982Y002641D01*
X010953Y002655D01*
X010925Y002673D01*
X010900Y002693D01*
X010877Y002717D01*
X010857Y002743D01*
X010840Y002771D01*
X010827Y002801D01*
X010818Y002832D01*
X010812Y002864D01*
X010810Y002897D01*
X024353Y002897D02*
X024355Y002930D01*
X024361Y002962D01*
X024370Y002993D01*
X024383Y003023D01*
X024400Y003051D01*
X024420Y003077D01*
X024443Y003101D01*
X024468Y003121D01*
X024496Y003139D01*
X024525Y003153D01*
X024556Y003163D01*
X024588Y003170D01*
X024621Y003173D01*
X024654Y003172D01*
X024686Y003167D01*
X024717Y003158D01*
X024748Y003146D01*
X024776Y003130D01*
X024803Y003111D01*
X024827Y003089D01*
X024848Y003064D01*
X024867Y003037D01*
X024882Y003008D01*
X024893Y002978D01*
X024901Y002946D01*
X024905Y002913D01*
X024905Y002881D01*
X024901Y002848D01*
X024893Y002816D01*
X024882Y002786D01*
X024867Y002757D01*
X024848Y002730D01*
X024827Y002705D01*
X024803Y002683D01*
X024776Y002664D01*
X024748Y002648D01*
X024717Y002636D01*
X024686Y002627D01*
X024654Y002622D01*
X024621Y002621D01*
X024588Y002624D01*
X024556Y002631D01*
X024525Y002641D01*
X024496Y002655D01*
X024468Y002673D01*
X024443Y002693D01*
X024420Y002717D01*
X024400Y002743D01*
X024383Y002771D01*
X024370Y002801D01*
X024361Y002832D01*
X024355Y002864D01*
X024353Y002897D01*
X024355Y002930D01*
X024361Y002962D01*
X024370Y002993D01*
X024383Y003023D01*
X024400Y003051D01*
X024420Y003077D01*
X024443Y003101D01*
X024468Y003121D01*
X024496Y003139D01*
X024525Y003153D01*
X024556Y003163D01*
X024588Y003170D01*
X024621Y003173D01*
X024654Y003172D01*
X024686Y003167D01*
X024717Y003158D01*
X024748Y003146D01*
X024776Y003130D01*
X024803Y003111D01*
X024827Y003089D01*
X024848Y003064D01*
X024867Y003037D01*
X024882Y003008D01*
X024893Y002978D01*
X024901Y002946D01*
X024905Y002913D01*
X024905Y002881D01*
X024901Y002848D01*
X024893Y002816D01*
X024882Y002786D01*
X024867Y002757D01*
X024848Y002730D01*
X024827Y002705D01*
X024803Y002683D01*
X024776Y002664D01*
X024748Y002648D01*
X024717Y002636D01*
X024686Y002627D01*
X024654Y002622D01*
X024621Y002621D01*
X024588Y002624D01*
X024556Y002631D01*
X024525Y002641D01*
X024496Y002655D01*
X024468Y002673D01*
X024443Y002693D01*
X024420Y002717D01*
X024400Y002743D01*
X024383Y002771D01*
X024370Y002801D01*
X024361Y002832D01*
X024355Y002864D01*
X024353Y002897D01*
X032956Y002110D02*
X032958Y002160D01*
X032964Y002210D01*
X032974Y002260D01*
X032987Y002308D01*
X033004Y002356D01*
X033025Y002402D01*
X033049Y002446D01*
X033077Y002488D01*
X033108Y002528D01*
X033142Y002565D01*
X033179Y002600D01*
X033218Y002631D01*
X033259Y002660D01*
X033303Y002685D01*
X033349Y002707D01*
X033396Y002725D01*
X033444Y002739D01*
X033493Y002750D01*
X033543Y002757D01*
X033593Y002760D01*
X033644Y002759D01*
X033694Y002754D01*
X033744Y002745D01*
X033792Y002733D01*
X033840Y002716D01*
X033886Y002696D01*
X033931Y002673D01*
X033974Y002646D01*
X034014Y002616D01*
X034052Y002583D01*
X034087Y002547D01*
X034120Y002508D01*
X034149Y002467D01*
X034175Y002424D01*
X034198Y002379D01*
X034217Y002332D01*
X034232Y002284D01*
X034244Y002235D01*
X034252Y002185D01*
X034256Y002135D01*
X034256Y002085D01*
X034252Y002035D01*
X034244Y001985D01*
X034232Y001936D01*
X034217Y001888D01*
X034198Y001841D01*
X034175Y001796D01*
X034149Y001753D01*
X034120Y001712D01*
X034087Y001673D01*
X034052Y001637D01*
X034014Y001604D01*
X033974Y001574D01*
X033931Y001547D01*
X033886Y001524D01*
X033840Y001504D01*
X033792Y001487D01*
X033744Y001475D01*
X033694Y001466D01*
X033644Y001461D01*
X033593Y001460D01*
X033543Y001463D01*
X033493Y001470D01*
X033444Y001481D01*
X033396Y001495D01*
X033349Y001513D01*
X033303Y001535D01*
X033259Y001560D01*
X033218Y001589D01*
X033179Y001620D01*
X033142Y001655D01*
X033108Y001692D01*
X033077Y001732D01*
X033049Y001774D01*
X033025Y001818D01*
X033004Y001864D01*
X032987Y001912D01*
X032974Y001960D01*
X032964Y002010D01*
X032958Y002060D01*
X032956Y002110D01*
X032956Y017858D02*
X032958Y017908D01*
X032964Y017958D01*
X032974Y018008D01*
X032987Y018056D01*
X033004Y018104D01*
X033025Y018150D01*
X033049Y018194D01*
X033077Y018236D01*
X033108Y018276D01*
X033142Y018313D01*
X033179Y018348D01*
X033218Y018379D01*
X033259Y018408D01*
X033303Y018433D01*
X033349Y018455D01*
X033396Y018473D01*
X033444Y018487D01*
X033493Y018498D01*
X033543Y018505D01*
X033593Y018508D01*
X033644Y018507D01*
X033694Y018502D01*
X033744Y018493D01*
X033792Y018481D01*
X033840Y018464D01*
X033886Y018444D01*
X033931Y018421D01*
X033974Y018394D01*
X034014Y018364D01*
X034052Y018331D01*
X034087Y018295D01*
X034120Y018256D01*
X034149Y018215D01*
X034175Y018172D01*
X034198Y018127D01*
X034217Y018080D01*
X034232Y018032D01*
X034244Y017983D01*
X034252Y017933D01*
X034256Y017883D01*
X034256Y017833D01*
X034252Y017783D01*
X034244Y017733D01*
X034232Y017684D01*
X034217Y017636D01*
X034198Y017589D01*
X034175Y017544D01*
X034149Y017501D01*
X034120Y017460D01*
X034087Y017421D01*
X034052Y017385D01*
X034014Y017352D01*
X033974Y017322D01*
X033931Y017295D01*
X033886Y017272D01*
X033840Y017252D01*
X033792Y017235D01*
X033744Y017223D01*
X033694Y017214D01*
X033644Y017209D01*
X033593Y017208D01*
X033543Y017211D01*
X033493Y017218D01*
X033444Y017229D01*
X033396Y017243D01*
X033349Y017261D01*
X033303Y017283D01*
X033259Y017308D01*
X033218Y017337D01*
X033179Y017368D01*
X033142Y017403D01*
X033108Y017440D01*
X033077Y017480D01*
X033049Y017522D01*
X033025Y017566D01*
X033004Y017612D01*
X032987Y017660D01*
X032974Y017708D01*
X032964Y017758D01*
X032958Y017808D01*
X032956Y017858D01*
X001460Y017858D02*
X001462Y017908D01*
X001468Y017958D01*
X001478Y018008D01*
X001491Y018056D01*
X001508Y018104D01*
X001529Y018150D01*
X001553Y018194D01*
X001581Y018236D01*
X001612Y018276D01*
X001646Y018313D01*
X001683Y018348D01*
X001722Y018379D01*
X001763Y018408D01*
X001807Y018433D01*
X001853Y018455D01*
X001900Y018473D01*
X001948Y018487D01*
X001997Y018498D01*
X002047Y018505D01*
X002097Y018508D01*
X002148Y018507D01*
X002198Y018502D01*
X002248Y018493D01*
X002296Y018481D01*
X002344Y018464D01*
X002390Y018444D01*
X002435Y018421D01*
X002478Y018394D01*
X002518Y018364D01*
X002556Y018331D01*
X002591Y018295D01*
X002624Y018256D01*
X002653Y018215D01*
X002679Y018172D01*
X002702Y018127D01*
X002721Y018080D01*
X002736Y018032D01*
X002748Y017983D01*
X002756Y017933D01*
X002760Y017883D01*
X002760Y017833D01*
X002756Y017783D01*
X002748Y017733D01*
X002736Y017684D01*
X002721Y017636D01*
X002702Y017589D01*
X002679Y017544D01*
X002653Y017501D01*
X002624Y017460D01*
X002591Y017421D01*
X002556Y017385D01*
X002518Y017352D01*
X002478Y017322D01*
X002435Y017295D01*
X002390Y017272D01*
X002344Y017252D01*
X002296Y017235D01*
X002248Y017223D01*
X002198Y017214D01*
X002148Y017209D01*
X002097Y017208D01*
X002047Y017211D01*
X001997Y017218D01*
X001948Y017229D01*
X001900Y017243D01*
X001853Y017261D01*
X001807Y017283D01*
X001763Y017308D01*
X001722Y017337D01*
X001683Y017368D01*
X001646Y017403D01*
X001612Y017440D01*
X001581Y017480D01*
X001553Y017522D01*
X001529Y017566D01*
X001508Y017612D01*
X001491Y017660D01*
X001478Y017708D01*
X001468Y017758D01*
X001462Y017808D01*
X001460Y017858D01*
M02*
