G75*
G70*
%OFA0B0*%
%FSLAX24Y24*%
%IPPOS*%
%LPD*%
%AMOC8*
5,1,8,0,0,1.08239X$1,22.5*
%
%ADD10C,0.0100*%
%ADD11C,0.0000*%
D10*
X000180Y000180D02*
X035613Y000180D01*
X035613Y022227D01*
X000180Y022227D01*
X000180Y000180D01*
D11*
X001499Y002149D02*
X001501Y002199D01*
X001507Y002249D01*
X001517Y002299D01*
X001530Y002347D01*
X001547Y002395D01*
X001568Y002441D01*
X001592Y002485D01*
X001620Y002527D01*
X001651Y002567D01*
X001685Y002604D01*
X001722Y002639D01*
X001761Y002670D01*
X001802Y002699D01*
X001846Y002724D01*
X001892Y002746D01*
X001939Y002764D01*
X001987Y002778D01*
X002036Y002789D01*
X002086Y002796D01*
X002136Y002799D01*
X002187Y002798D01*
X002237Y002793D01*
X002287Y002784D01*
X002335Y002772D01*
X002383Y002755D01*
X002429Y002735D01*
X002474Y002712D01*
X002517Y002685D01*
X002557Y002655D01*
X002595Y002622D01*
X002630Y002586D01*
X002663Y002547D01*
X002692Y002506D01*
X002718Y002463D01*
X002741Y002418D01*
X002760Y002371D01*
X002775Y002323D01*
X002787Y002274D01*
X002795Y002224D01*
X002799Y002174D01*
X002799Y002124D01*
X002795Y002074D01*
X002787Y002024D01*
X002775Y001975D01*
X002760Y001927D01*
X002741Y001880D01*
X002718Y001835D01*
X002692Y001792D01*
X002663Y001751D01*
X002630Y001712D01*
X002595Y001676D01*
X002557Y001643D01*
X002517Y001613D01*
X002474Y001586D01*
X002429Y001563D01*
X002383Y001543D01*
X002335Y001526D01*
X002287Y001514D01*
X002237Y001505D01*
X002187Y001500D01*
X002136Y001499D01*
X002086Y001502D01*
X002036Y001509D01*
X001987Y001520D01*
X001939Y001534D01*
X001892Y001552D01*
X001846Y001574D01*
X001802Y001599D01*
X001761Y001628D01*
X001722Y001659D01*
X001685Y001694D01*
X001651Y001731D01*
X001620Y001771D01*
X001592Y001813D01*
X001568Y001857D01*
X001547Y001903D01*
X001530Y001951D01*
X001517Y001999D01*
X001507Y002049D01*
X001501Y002099D01*
X001499Y002149D01*
X008880Y002936D02*
X008882Y002969D01*
X008888Y003001D01*
X008897Y003032D01*
X008910Y003062D01*
X008927Y003090D01*
X008947Y003116D01*
X008970Y003140D01*
X008995Y003160D01*
X009023Y003178D01*
X009052Y003192D01*
X009083Y003202D01*
X009115Y003209D01*
X009148Y003212D01*
X009181Y003211D01*
X009213Y003206D01*
X009244Y003197D01*
X009275Y003185D01*
X009303Y003169D01*
X009330Y003150D01*
X009354Y003128D01*
X009375Y003103D01*
X009394Y003076D01*
X009409Y003047D01*
X009420Y003017D01*
X009428Y002985D01*
X009432Y002952D01*
X009432Y002920D01*
X009428Y002887D01*
X009420Y002855D01*
X009409Y002825D01*
X009394Y002796D01*
X009375Y002769D01*
X009354Y002744D01*
X009330Y002722D01*
X009303Y002703D01*
X009275Y002687D01*
X009244Y002675D01*
X009213Y002666D01*
X009181Y002661D01*
X009148Y002660D01*
X009115Y002663D01*
X009083Y002670D01*
X009052Y002680D01*
X009023Y002694D01*
X008995Y002712D01*
X008970Y002732D01*
X008947Y002756D01*
X008927Y002782D01*
X008910Y002810D01*
X008897Y002840D01*
X008888Y002871D01*
X008882Y002903D01*
X008880Y002936D01*
X026361Y002936D02*
X026363Y002969D01*
X026369Y003001D01*
X026378Y003032D01*
X026391Y003062D01*
X026408Y003090D01*
X026428Y003116D01*
X026451Y003140D01*
X026476Y003160D01*
X026504Y003178D01*
X026533Y003192D01*
X026564Y003202D01*
X026596Y003209D01*
X026629Y003212D01*
X026662Y003211D01*
X026694Y003206D01*
X026725Y003197D01*
X026756Y003185D01*
X026784Y003169D01*
X026811Y003150D01*
X026835Y003128D01*
X026856Y003103D01*
X026875Y003076D01*
X026890Y003047D01*
X026901Y003017D01*
X026909Y002985D01*
X026913Y002952D01*
X026913Y002920D01*
X026909Y002887D01*
X026901Y002855D01*
X026890Y002825D01*
X026875Y002796D01*
X026856Y002769D01*
X026835Y002744D01*
X026811Y002722D01*
X026784Y002703D01*
X026756Y002687D01*
X026725Y002675D01*
X026694Y002666D01*
X026662Y002661D01*
X026629Y002660D01*
X026596Y002663D01*
X026564Y002670D01*
X026533Y002680D01*
X026504Y002694D01*
X026476Y002712D01*
X026451Y002732D01*
X026428Y002756D01*
X026408Y002782D01*
X026391Y002810D01*
X026378Y002840D01*
X026369Y002871D01*
X026363Y002903D01*
X026361Y002936D01*
X032995Y002149D02*
X032997Y002199D01*
X033003Y002249D01*
X033013Y002299D01*
X033026Y002347D01*
X033043Y002395D01*
X033064Y002441D01*
X033088Y002485D01*
X033116Y002527D01*
X033147Y002567D01*
X033181Y002604D01*
X033218Y002639D01*
X033257Y002670D01*
X033298Y002699D01*
X033342Y002724D01*
X033388Y002746D01*
X033435Y002764D01*
X033483Y002778D01*
X033532Y002789D01*
X033582Y002796D01*
X033632Y002799D01*
X033683Y002798D01*
X033733Y002793D01*
X033783Y002784D01*
X033831Y002772D01*
X033879Y002755D01*
X033925Y002735D01*
X033970Y002712D01*
X034013Y002685D01*
X034053Y002655D01*
X034091Y002622D01*
X034126Y002586D01*
X034159Y002547D01*
X034188Y002506D01*
X034214Y002463D01*
X034237Y002418D01*
X034256Y002371D01*
X034271Y002323D01*
X034283Y002274D01*
X034291Y002224D01*
X034295Y002174D01*
X034295Y002124D01*
X034291Y002074D01*
X034283Y002024D01*
X034271Y001975D01*
X034256Y001927D01*
X034237Y001880D01*
X034214Y001835D01*
X034188Y001792D01*
X034159Y001751D01*
X034126Y001712D01*
X034091Y001676D01*
X034053Y001643D01*
X034013Y001613D01*
X033970Y001586D01*
X033925Y001563D01*
X033879Y001543D01*
X033831Y001526D01*
X033783Y001514D01*
X033733Y001505D01*
X033683Y001500D01*
X033632Y001499D01*
X033582Y001502D01*
X033532Y001509D01*
X033483Y001520D01*
X033435Y001534D01*
X033388Y001552D01*
X033342Y001574D01*
X033298Y001599D01*
X033257Y001628D01*
X033218Y001659D01*
X033181Y001694D01*
X033147Y001731D01*
X033116Y001771D01*
X033088Y001813D01*
X033064Y001857D01*
X033043Y001903D01*
X033026Y001951D01*
X033013Y001999D01*
X033003Y002049D01*
X032997Y002099D01*
X032995Y002149D01*
X032995Y017897D02*
X032997Y017947D01*
X033003Y017997D01*
X033013Y018047D01*
X033026Y018095D01*
X033043Y018143D01*
X033064Y018189D01*
X033088Y018233D01*
X033116Y018275D01*
X033147Y018315D01*
X033181Y018352D01*
X033218Y018387D01*
X033257Y018418D01*
X033298Y018447D01*
X033342Y018472D01*
X033388Y018494D01*
X033435Y018512D01*
X033483Y018526D01*
X033532Y018537D01*
X033582Y018544D01*
X033632Y018547D01*
X033683Y018546D01*
X033733Y018541D01*
X033783Y018532D01*
X033831Y018520D01*
X033879Y018503D01*
X033925Y018483D01*
X033970Y018460D01*
X034013Y018433D01*
X034053Y018403D01*
X034091Y018370D01*
X034126Y018334D01*
X034159Y018295D01*
X034188Y018254D01*
X034214Y018211D01*
X034237Y018166D01*
X034256Y018119D01*
X034271Y018071D01*
X034283Y018022D01*
X034291Y017972D01*
X034295Y017922D01*
X034295Y017872D01*
X034291Y017822D01*
X034283Y017772D01*
X034271Y017723D01*
X034256Y017675D01*
X034237Y017628D01*
X034214Y017583D01*
X034188Y017540D01*
X034159Y017499D01*
X034126Y017460D01*
X034091Y017424D01*
X034053Y017391D01*
X034013Y017361D01*
X033970Y017334D01*
X033925Y017311D01*
X033879Y017291D01*
X033831Y017274D01*
X033783Y017262D01*
X033733Y017253D01*
X033683Y017248D01*
X033632Y017247D01*
X033582Y017250D01*
X033532Y017257D01*
X033483Y017268D01*
X033435Y017282D01*
X033388Y017300D01*
X033342Y017322D01*
X033298Y017347D01*
X033257Y017376D01*
X033218Y017407D01*
X033181Y017442D01*
X033147Y017479D01*
X033116Y017519D01*
X033088Y017561D01*
X033064Y017605D01*
X033043Y017651D01*
X033026Y017699D01*
X033013Y017747D01*
X033003Y017797D01*
X032997Y017847D01*
X032995Y017897D01*
X001499Y017897D02*
X001501Y017947D01*
X001507Y017997D01*
X001517Y018047D01*
X001530Y018095D01*
X001547Y018143D01*
X001568Y018189D01*
X001592Y018233D01*
X001620Y018275D01*
X001651Y018315D01*
X001685Y018352D01*
X001722Y018387D01*
X001761Y018418D01*
X001802Y018447D01*
X001846Y018472D01*
X001892Y018494D01*
X001939Y018512D01*
X001987Y018526D01*
X002036Y018537D01*
X002086Y018544D01*
X002136Y018547D01*
X002187Y018546D01*
X002237Y018541D01*
X002287Y018532D01*
X002335Y018520D01*
X002383Y018503D01*
X002429Y018483D01*
X002474Y018460D01*
X002517Y018433D01*
X002557Y018403D01*
X002595Y018370D01*
X002630Y018334D01*
X002663Y018295D01*
X002692Y018254D01*
X002718Y018211D01*
X002741Y018166D01*
X002760Y018119D01*
X002775Y018071D01*
X002787Y018022D01*
X002795Y017972D01*
X002799Y017922D01*
X002799Y017872D01*
X002795Y017822D01*
X002787Y017772D01*
X002775Y017723D01*
X002760Y017675D01*
X002741Y017628D01*
X002718Y017583D01*
X002692Y017540D01*
X002663Y017499D01*
X002630Y017460D01*
X002595Y017424D01*
X002557Y017391D01*
X002517Y017361D01*
X002474Y017334D01*
X002429Y017311D01*
X002383Y017291D01*
X002335Y017274D01*
X002287Y017262D01*
X002237Y017253D01*
X002187Y017248D01*
X002136Y017247D01*
X002086Y017250D01*
X002036Y017257D01*
X001987Y017268D01*
X001939Y017282D01*
X001892Y017300D01*
X001846Y017322D01*
X001802Y017347D01*
X001761Y017376D01*
X001722Y017407D01*
X001685Y017442D01*
X001651Y017479D01*
X001620Y017519D01*
X001592Y017561D01*
X001568Y017605D01*
X001547Y017651D01*
X001530Y017699D01*
X001517Y017747D01*
X001507Y017797D01*
X001501Y017847D01*
X001499Y017897D01*
M02*
