G75*
G70*
%OFA0B0*%
%FSLAX24Y24*%
%IPPOS*%
%LPD*%
%AMOC8*
5,1,8,0,0,1.08239X$1,22.5*
%
%ADD10C,0.0100*%
%ADD11C,0.0000*%
D10*
X000150Y000150D02*
X035583Y000150D01*
X035583Y022197D01*
X000150Y022197D01*
X000150Y000150D01*
D11*
X001469Y002119D02*
X001471Y002169D01*
X001477Y002219D01*
X001487Y002269D01*
X001500Y002317D01*
X001517Y002365D01*
X001538Y002411D01*
X001562Y002455D01*
X001590Y002497D01*
X001621Y002537D01*
X001655Y002574D01*
X001692Y002609D01*
X001731Y002640D01*
X001772Y002669D01*
X001816Y002694D01*
X001862Y002716D01*
X001909Y002734D01*
X001957Y002748D01*
X002006Y002759D01*
X002056Y002766D01*
X002106Y002769D01*
X002157Y002768D01*
X002207Y002763D01*
X002257Y002754D01*
X002305Y002742D01*
X002353Y002725D01*
X002399Y002705D01*
X002444Y002682D01*
X002487Y002655D01*
X002527Y002625D01*
X002565Y002592D01*
X002600Y002556D01*
X002633Y002517D01*
X002662Y002476D01*
X002688Y002433D01*
X002711Y002388D01*
X002730Y002341D01*
X002745Y002293D01*
X002757Y002244D01*
X002765Y002194D01*
X002769Y002144D01*
X002769Y002094D01*
X002765Y002044D01*
X002757Y001994D01*
X002745Y001945D01*
X002730Y001897D01*
X002711Y001850D01*
X002688Y001805D01*
X002662Y001762D01*
X002633Y001721D01*
X002600Y001682D01*
X002565Y001646D01*
X002527Y001613D01*
X002487Y001583D01*
X002444Y001556D01*
X002399Y001533D01*
X002353Y001513D01*
X002305Y001496D01*
X002257Y001484D01*
X002207Y001475D01*
X002157Y001470D01*
X002106Y001469D01*
X002056Y001472D01*
X002006Y001479D01*
X001957Y001490D01*
X001909Y001504D01*
X001862Y001522D01*
X001816Y001544D01*
X001772Y001569D01*
X001731Y001598D01*
X001692Y001629D01*
X001655Y001664D01*
X001621Y001701D01*
X001590Y001741D01*
X001562Y001783D01*
X001538Y001827D01*
X001517Y001873D01*
X001500Y001921D01*
X001487Y001969D01*
X001477Y002019D01*
X001471Y002069D01*
X001469Y002119D01*
X008850Y002906D02*
X008852Y002939D01*
X008858Y002971D01*
X008867Y003002D01*
X008880Y003032D01*
X008897Y003060D01*
X008917Y003086D01*
X008940Y003110D01*
X008965Y003130D01*
X008993Y003148D01*
X009022Y003162D01*
X009053Y003172D01*
X009085Y003179D01*
X009118Y003182D01*
X009151Y003181D01*
X009183Y003176D01*
X009214Y003167D01*
X009245Y003155D01*
X009273Y003139D01*
X009300Y003120D01*
X009324Y003098D01*
X009345Y003073D01*
X009364Y003046D01*
X009379Y003017D01*
X009390Y002987D01*
X009398Y002955D01*
X009402Y002922D01*
X009402Y002890D01*
X009398Y002857D01*
X009390Y002825D01*
X009379Y002795D01*
X009364Y002766D01*
X009345Y002739D01*
X009324Y002714D01*
X009300Y002692D01*
X009273Y002673D01*
X009245Y002657D01*
X009214Y002645D01*
X009183Y002636D01*
X009151Y002631D01*
X009118Y002630D01*
X009085Y002633D01*
X009053Y002640D01*
X009022Y002650D01*
X008993Y002664D01*
X008965Y002682D01*
X008940Y002702D01*
X008917Y002726D01*
X008897Y002752D01*
X008880Y002780D01*
X008867Y002810D01*
X008858Y002841D01*
X008852Y002873D01*
X008850Y002906D01*
X026331Y002906D02*
X026333Y002939D01*
X026339Y002971D01*
X026348Y003002D01*
X026361Y003032D01*
X026378Y003060D01*
X026398Y003086D01*
X026421Y003110D01*
X026446Y003130D01*
X026474Y003148D01*
X026503Y003162D01*
X026534Y003172D01*
X026566Y003179D01*
X026599Y003182D01*
X026632Y003181D01*
X026664Y003176D01*
X026695Y003167D01*
X026726Y003155D01*
X026754Y003139D01*
X026781Y003120D01*
X026805Y003098D01*
X026826Y003073D01*
X026845Y003046D01*
X026860Y003017D01*
X026871Y002987D01*
X026879Y002955D01*
X026883Y002922D01*
X026883Y002890D01*
X026879Y002857D01*
X026871Y002825D01*
X026860Y002795D01*
X026845Y002766D01*
X026826Y002739D01*
X026805Y002714D01*
X026781Y002692D01*
X026754Y002673D01*
X026726Y002657D01*
X026695Y002645D01*
X026664Y002636D01*
X026632Y002631D01*
X026599Y002630D01*
X026566Y002633D01*
X026534Y002640D01*
X026503Y002650D01*
X026474Y002664D01*
X026446Y002682D01*
X026421Y002702D01*
X026398Y002726D01*
X026378Y002752D01*
X026361Y002780D01*
X026348Y002810D01*
X026339Y002841D01*
X026333Y002873D01*
X026331Y002906D01*
X032965Y002119D02*
X032967Y002169D01*
X032973Y002219D01*
X032983Y002269D01*
X032996Y002317D01*
X033013Y002365D01*
X033034Y002411D01*
X033058Y002455D01*
X033086Y002497D01*
X033117Y002537D01*
X033151Y002574D01*
X033188Y002609D01*
X033227Y002640D01*
X033268Y002669D01*
X033312Y002694D01*
X033358Y002716D01*
X033405Y002734D01*
X033453Y002748D01*
X033502Y002759D01*
X033552Y002766D01*
X033602Y002769D01*
X033653Y002768D01*
X033703Y002763D01*
X033753Y002754D01*
X033801Y002742D01*
X033849Y002725D01*
X033895Y002705D01*
X033940Y002682D01*
X033983Y002655D01*
X034023Y002625D01*
X034061Y002592D01*
X034096Y002556D01*
X034129Y002517D01*
X034158Y002476D01*
X034184Y002433D01*
X034207Y002388D01*
X034226Y002341D01*
X034241Y002293D01*
X034253Y002244D01*
X034261Y002194D01*
X034265Y002144D01*
X034265Y002094D01*
X034261Y002044D01*
X034253Y001994D01*
X034241Y001945D01*
X034226Y001897D01*
X034207Y001850D01*
X034184Y001805D01*
X034158Y001762D01*
X034129Y001721D01*
X034096Y001682D01*
X034061Y001646D01*
X034023Y001613D01*
X033983Y001583D01*
X033940Y001556D01*
X033895Y001533D01*
X033849Y001513D01*
X033801Y001496D01*
X033753Y001484D01*
X033703Y001475D01*
X033653Y001470D01*
X033602Y001469D01*
X033552Y001472D01*
X033502Y001479D01*
X033453Y001490D01*
X033405Y001504D01*
X033358Y001522D01*
X033312Y001544D01*
X033268Y001569D01*
X033227Y001598D01*
X033188Y001629D01*
X033151Y001664D01*
X033117Y001701D01*
X033086Y001741D01*
X033058Y001783D01*
X033034Y001827D01*
X033013Y001873D01*
X032996Y001921D01*
X032983Y001969D01*
X032973Y002019D01*
X032967Y002069D01*
X032965Y002119D01*
X032965Y017867D02*
X032967Y017917D01*
X032973Y017967D01*
X032983Y018017D01*
X032996Y018065D01*
X033013Y018113D01*
X033034Y018159D01*
X033058Y018203D01*
X033086Y018245D01*
X033117Y018285D01*
X033151Y018322D01*
X033188Y018357D01*
X033227Y018388D01*
X033268Y018417D01*
X033312Y018442D01*
X033358Y018464D01*
X033405Y018482D01*
X033453Y018496D01*
X033502Y018507D01*
X033552Y018514D01*
X033602Y018517D01*
X033653Y018516D01*
X033703Y018511D01*
X033753Y018502D01*
X033801Y018490D01*
X033849Y018473D01*
X033895Y018453D01*
X033940Y018430D01*
X033983Y018403D01*
X034023Y018373D01*
X034061Y018340D01*
X034096Y018304D01*
X034129Y018265D01*
X034158Y018224D01*
X034184Y018181D01*
X034207Y018136D01*
X034226Y018089D01*
X034241Y018041D01*
X034253Y017992D01*
X034261Y017942D01*
X034265Y017892D01*
X034265Y017842D01*
X034261Y017792D01*
X034253Y017742D01*
X034241Y017693D01*
X034226Y017645D01*
X034207Y017598D01*
X034184Y017553D01*
X034158Y017510D01*
X034129Y017469D01*
X034096Y017430D01*
X034061Y017394D01*
X034023Y017361D01*
X033983Y017331D01*
X033940Y017304D01*
X033895Y017281D01*
X033849Y017261D01*
X033801Y017244D01*
X033753Y017232D01*
X033703Y017223D01*
X033653Y017218D01*
X033602Y017217D01*
X033552Y017220D01*
X033502Y017227D01*
X033453Y017238D01*
X033405Y017252D01*
X033358Y017270D01*
X033312Y017292D01*
X033268Y017317D01*
X033227Y017346D01*
X033188Y017377D01*
X033151Y017412D01*
X033117Y017449D01*
X033086Y017489D01*
X033058Y017531D01*
X033034Y017575D01*
X033013Y017621D01*
X032996Y017669D01*
X032983Y017717D01*
X032973Y017767D01*
X032967Y017817D01*
X032965Y017867D01*
X001469Y017867D02*
X001471Y017917D01*
X001477Y017967D01*
X001487Y018017D01*
X001500Y018065D01*
X001517Y018113D01*
X001538Y018159D01*
X001562Y018203D01*
X001590Y018245D01*
X001621Y018285D01*
X001655Y018322D01*
X001692Y018357D01*
X001731Y018388D01*
X001772Y018417D01*
X001816Y018442D01*
X001862Y018464D01*
X001909Y018482D01*
X001957Y018496D01*
X002006Y018507D01*
X002056Y018514D01*
X002106Y018517D01*
X002157Y018516D01*
X002207Y018511D01*
X002257Y018502D01*
X002305Y018490D01*
X002353Y018473D01*
X002399Y018453D01*
X002444Y018430D01*
X002487Y018403D01*
X002527Y018373D01*
X002565Y018340D01*
X002600Y018304D01*
X002633Y018265D01*
X002662Y018224D01*
X002688Y018181D01*
X002711Y018136D01*
X002730Y018089D01*
X002745Y018041D01*
X002757Y017992D01*
X002765Y017942D01*
X002769Y017892D01*
X002769Y017842D01*
X002765Y017792D01*
X002757Y017742D01*
X002745Y017693D01*
X002730Y017645D01*
X002711Y017598D01*
X002688Y017553D01*
X002662Y017510D01*
X002633Y017469D01*
X002600Y017430D01*
X002565Y017394D01*
X002527Y017361D01*
X002487Y017331D01*
X002444Y017304D01*
X002399Y017281D01*
X002353Y017261D01*
X002305Y017244D01*
X002257Y017232D01*
X002207Y017223D01*
X002157Y017218D01*
X002106Y017217D01*
X002056Y017220D01*
X002006Y017227D01*
X001957Y017238D01*
X001909Y017252D01*
X001862Y017270D01*
X001816Y017292D01*
X001772Y017317D01*
X001731Y017346D01*
X001692Y017377D01*
X001655Y017412D01*
X001621Y017449D01*
X001590Y017489D01*
X001562Y017531D01*
X001538Y017575D01*
X001517Y017621D01*
X001500Y017669D01*
X001487Y017717D01*
X001477Y017767D01*
X001471Y017817D01*
X001469Y017867D01*
M02*
