G75*
G70*
%OFA0B0*%
%FSLAX24Y24*%
%IPPOS*%
%LPD*%
%AMOC8*
5,1,8,0,0,1.08239X$1,22.5*
%
%ADD10R,0.0236X0.0906*%
D10*
X009826Y002208D03*
X010219Y002208D03*
X010613Y002208D03*
X011007Y002208D03*
X011400Y002208D03*
X011794Y002208D03*
X012188Y002208D03*
X012582Y002208D03*
X012975Y002208D03*
X013369Y002208D03*
X013763Y002208D03*
X014156Y002208D03*
X014550Y002208D03*
X014944Y002208D03*
X015337Y002208D03*
X015731Y002208D03*
X016125Y002208D03*
X016519Y002208D03*
X016912Y002208D03*
X017306Y002208D03*
X017700Y002208D03*
X018093Y002208D03*
X018487Y002208D03*
X018881Y002208D03*
X019274Y002208D03*
X019668Y002208D03*
X020062Y002208D03*
X020456Y002208D03*
X020849Y002208D03*
X021243Y002208D03*
X021637Y002208D03*
X022030Y002208D03*
X022424Y002208D03*
X022818Y002208D03*
X023211Y002208D03*
X023605Y002208D03*
X023999Y002208D03*
X024393Y002208D03*
X024786Y002208D03*
X025180Y002208D03*
X025574Y002208D03*
X025967Y002208D03*
X025967Y003664D03*
X025574Y003664D03*
X025180Y003664D03*
X024786Y003664D03*
X024393Y003664D03*
X023999Y003664D03*
X023605Y003664D03*
X023211Y003664D03*
X022818Y003664D03*
X022424Y003664D03*
X022030Y003664D03*
X021637Y003664D03*
X021243Y003664D03*
X020849Y003664D03*
X020456Y003664D03*
X020062Y003664D03*
X019668Y003664D03*
X019274Y003664D03*
X018881Y003664D03*
X018487Y003664D03*
X018093Y003664D03*
X017700Y003664D03*
X017306Y003664D03*
X016912Y003664D03*
X016519Y003664D03*
X016125Y003664D03*
X015731Y003664D03*
X015337Y003664D03*
X014944Y003664D03*
X014550Y003664D03*
X014156Y003664D03*
X013763Y003664D03*
X013369Y003664D03*
X012975Y003664D03*
X012582Y003664D03*
X012188Y003664D03*
X011794Y003664D03*
X011400Y003664D03*
X011007Y003664D03*
X010613Y003664D03*
X010219Y003664D03*
X009826Y003664D03*
M02*
