G75*
G70*
%OFA0B0*%
%FSLAX24Y24*%
%IPPOS*%
%LPD*%
%AMOC8*
5,1,8,0,0,1.08239X$1,22.5*
%
%ADD10C,0.0080*%
%ADD11C,0.0060*%
%ADD12C,0.0040*%
%ADD13C,0.0050*%
D10*
X008912Y001786D02*
X008912Y004086D01*
X009251Y004086D01*
X009251Y003920D01*
X009117Y003322D02*
X009117Y002534D01*
X009117Y002535D02*
X009116Y002502D01*
X009119Y002470D01*
X009126Y002439D01*
X009137Y002408D01*
X009150Y002379D01*
X009167Y002351D01*
X009187Y002326D01*
X009209Y002303D01*
X009234Y002282D01*
X009262Y002265D01*
X009291Y002250D01*
X009321Y002239D01*
X009352Y002232D01*
X009384Y002228D01*
X009243Y001952D02*
X009243Y001786D01*
X008912Y001786D01*
X009117Y003330D02*
X009119Y003363D01*
X009125Y003396D01*
X009134Y003428D01*
X009146Y003459D01*
X009162Y003489D01*
X009180Y003517D01*
X009202Y003542D01*
X009225Y003566D01*
X009252Y003586D01*
X009280Y003604D01*
X009310Y003619D01*
X009341Y003631D01*
X009374Y003639D01*
X009407Y003644D01*
X009440Y003645D01*
X011597Y009432D02*
X024196Y009432D01*
X024196Y014353D01*
X011597Y014353D01*
X011597Y009432D01*
X026409Y003644D02*
X026441Y003640D01*
X026472Y003633D01*
X026502Y003622D01*
X026531Y003607D01*
X026559Y003590D01*
X026584Y003569D01*
X026606Y003546D01*
X026626Y003521D01*
X026643Y003493D01*
X026656Y003464D01*
X026667Y003433D01*
X026674Y003402D01*
X026677Y003370D01*
X026676Y003337D01*
X026676Y002550D01*
X026676Y002542D02*
X026674Y002509D01*
X026668Y002476D01*
X026659Y002444D01*
X026647Y002413D01*
X026631Y002383D01*
X026613Y002355D01*
X026591Y002330D01*
X026568Y002306D01*
X026541Y002286D01*
X026513Y002268D01*
X026483Y002253D01*
X026452Y002241D01*
X026419Y002233D01*
X026386Y002228D01*
X026353Y002227D01*
X026542Y001952D02*
X026542Y001786D01*
X026897Y001786D01*
X026897Y004086D01*
X026550Y004086D01*
X026550Y003920D01*
D11*
X021894Y013202D02*
X021787Y013202D01*
X021680Y013309D01*
X021680Y013843D01*
X021787Y013843D02*
X021573Y013843D01*
X021356Y013522D02*
X021249Y013629D01*
X021036Y013629D01*
X020929Y013522D01*
X020929Y013309D01*
X021036Y013202D01*
X021249Y013202D01*
X021356Y013309D01*
X021356Y013522D01*
X021894Y013202D02*
X022000Y013309D01*
X020711Y013202D02*
X020391Y013202D01*
X020284Y013309D01*
X020391Y013416D01*
X020605Y013416D01*
X020711Y013522D01*
X020605Y013629D01*
X020284Y013629D01*
X020067Y013522D02*
X019960Y013629D01*
X019746Y013629D01*
X019640Y013522D01*
X019640Y013202D01*
X019422Y013309D02*
X019315Y013202D01*
X018995Y013202D01*
X018995Y013629D01*
X018671Y013629D02*
X018457Y013629D01*
X018351Y013522D01*
X018351Y013202D01*
X018671Y013202D01*
X018778Y013309D01*
X018671Y013416D01*
X018351Y013416D01*
X019422Y013309D02*
X019422Y013629D01*
X020067Y013843D02*
X020067Y013202D01*
X016292Y013202D02*
X016292Y013843D01*
X015971Y013843D01*
X015865Y013736D01*
X015865Y013522D01*
X015971Y013416D01*
X016292Y013416D01*
X016078Y013416D02*
X015865Y013202D01*
X015647Y013309D02*
X015647Y013522D01*
X015540Y013629D01*
X015327Y013629D01*
X015220Y013522D01*
X015220Y013416D01*
X015647Y013416D01*
X015647Y013309D02*
X015540Y013202D01*
X015327Y013202D01*
X015003Y013629D02*
X014789Y013202D01*
X014576Y013629D01*
X014126Y013629D02*
X013913Y013843D01*
X013699Y013629D01*
X013699Y013202D01*
X013699Y013522D02*
X014126Y013522D01*
X014126Y013629D02*
X014126Y013202D01*
D12*
X008691Y001940D02*
X008384Y001940D01*
X008538Y001940D02*
X008538Y002401D01*
X008691Y002247D01*
X008691Y003464D02*
X008384Y003464D01*
X008384Y003771D02*
X008384Y003847D01*
X008461Y003924D01*
X008615Y003924D01*
X008691Y003847D01*
X008384Y003771D02*
X008691Y003464D01*
X012457Y006598D02*
X012457Y006828D01*
X012534Y006905D01*
X012611Y006828D01*
X012611Y006598D01*
X012764Y006598D02*
X012764Y006905D01*
X012688Y006905D01*
X012611Y006828D01*
X012918Y006828D02*
X012918Y006674D01*
X012995Y006598D01*
X013148Y006598D01*
X013225Y006674D01*
X013225Y006828D01*
X013148Y006905D01*
X012995Y006905D01*
X012918Y006828D01*
X013378Y006905D02*
X013608Y006905D01*
X013685Y006828D01*
X013685Y006674D01*
X013608Y006598D01*
X013378Y006598D01*
X013839Y006598D02*
X013915Y006598D01*
X013915Y006674D01*
X013839Y006674D01*
X013839Y006598D01*
X014069Y006751D02*
X014376Y006751D01*
X014376Y006674D02*
X014376Y006828D01*
X014299Y006905D01*
X014146Y006905D01*
X014069Y006828D01*
X014069Y006751D01*
X014146Y006598D02*
X014299Y006598D01*
X014376Y006674D01*
X014529Y006598D02*
X014759Y006598D01*
X014836Y006674D01*
X014836Y006828D01*
X014759Y006905D01*
X014529Y006905D01*
X014529Y007058D02*
X014529Y006598D01*
X014990Y006674D02*
X014990Y006828D01*
X015066Y006905D01*
X015220Y006905D01*
X015297Y006828D01*
X015297Y006674D01*
X015220Y006598D01*
X015066Y006598D01*
X014990Y006674D01*
X015450Y006598D02*
X015680Y006598D01*
X015757Y006674D01*
X015757Y006828D01*
X015680Y006905D01*
X015450Y006905D01*
X015910Y006828D02*
X015910Y006751D01*
X016217Y006751D01*
X016217Y006674D02*
X016217Y006828D01*
X016141Y006905D01*
X015987Y006905D01*
X015910Y006828D01*
X015987Y006598D02*
X016141Y006598D01*
X016217Y006674D01*
X016371Y006598D02*
X016524Y006598D01*
X016448Y006598D02*
X016448Y007058D01*
X016524Y007058D01*
X016678Y006905D02*
X016908Y006905D01*
X016985Y006828D01*
X016985Y006674D01*
X016908Y006598D01*
X016678Y006598D01*
X016678Y006521D02*
X016678Y006905D01*
X016678Y006521D02*
X016754Y006444D01*
X016831Y006444D01*
X017138Y006674D02*
X017138Y006828D01*
X017215Y006905D01*
X017368Y006905D01*
X017445Y006828D01*
X017445Y006674D01*
X017368Y006598D01*
X017215Y006598D01*
X017138Y006674D01*
X017598Y006674D02*
X017598Y006828D01*
X017675Y006905D01*
X017829Y006905D01*
X017905Y006828D01*
X017905Y006674D01*
X017829Y006598D01*
X017675Y006598D01*
X017598Y006674D01*
X018059Y006598D02*
X018289Y006598D01*
X018366Y006674D01*
X018366Y006828D01*
X018289Y006905D01*
X018059Y006905D01*
X018059Y006521D01*
X018136Y006444D01*
X018212Y006444D01*
X018519Y006598D02*
X018596Y006598D01*
X018596Y006674D01*
X018519Y006674D01*
X018519Y006598D01*
X018749Y006751D02*
X019056Y006751D01*
X019056Y006674D02*
X019056Y006828D01*
X018980Y006905D01*
X018826Y006905D01*
X018749Y006828D01*
X018749Y006751D01*
X018826Y006598D02*
X018980Y006598D01*
X019056Y006674D01*
X019210Y006598D02*
X019287Y006674D01*
X019287Y006981D01*
X019363Y006905D02*
X019210Y006905D01*
X019517Y006828D02*
X019594Y006905D01*
X019747Y006905D01*
X019824Y006828D01*
X019824Y006674D01*
X019747Y006598D01*
X019594Y006598D01*
X019517Y006674D01*
X019517Y006828D01*
X019977Y006828D02*
X019977Y006598D01*
X020131Y006598D02*
X020131Y006828D01*
X020054Y006905D01*
X019977Y006828D01*
X020131Y006828D02*
X020207Y006905D01*
X020284Y006905D01*
X020284Y006598D01*
X020438Y006905D02*
X020514Y006905D01*
X020668Y006751D01*
X020821Y006751D02*
X021051Y006751D01*
X021128Y006674D01*
X021051Y006598D01*
X020821Y006598D01*
X020821Y006828D01*
X020898Y006905D01*
X021051Y006905D01*
X021282Y006828D02*
X021282Y006598D01*
X021435Y006598D02*
X021435Y006828D01*
X021358Y006905D01*
X021282Y006828D01*
X021435Y006828D02*
X021512Y006905D01*
X021589Y006905D01*
X021589Y006598D01*
X022049Y006598D02*
X021742Y007058D01*
X022202Y007058D02*
X022509Y006598D01*
X022663Y006598D02*
X022740Y006598D01*
X022740Y006674D01*
X022663Y006674D01*
X022663Y006598D01*
X022663Y006828D02*
X022740Y006828D01*
X022740Y006905D01*
X022663Y006905D01*
X022663Y006828D01*
X022893Y006828D02*
X022893Y006674D01*
X022970Y006598D01*
X023200Y006598D01*
X023353Y006598D02*
X023430Y006674D01*
X023430Y006981D01*
X023507Y006905D02*
X023353Y006905D01*
X023200Y006905D02*
X022970Y006905D01*
X022893Y006828D01*
X023200Y006905D02*
X023200Y006444D01*
X023660Y006598D02*
X023737Y006674D01*
X023737Y006981D01*
X023814Y006905D02*
X023660Y006905D01*
X023967Y006828D02*
X023967Y006598D01*
X023967Y006828D02*
X024044Y006905D01*
X024197Y006905D01*
X024274Y006828D01*
X024274Y007058D02*
X024274Y006598D01*
X024563Y007527D02*
X024486Y007604D01*
X024486Y007987D01*
X024716Y007987D01*
X024793Y007911D01*
X024793Y007757D01*
X024716Y007680D01*
X024486Y007680D01*
X024333Y007680D02*
X024333Y008141D01*
X024256Y007987D02*
X024103Y007987D01*
X024026Y007911D01*
X024026Y007680D01*
X023796Y007757D02*
X023796Y008064D01*
X023872Y007987D02*
X023719Y007987D01*
X023796Y007757D02*
X023719Y007680D01*
X023105Y007757D02*
X023028Y007680D01*
X022798Y007680D01*
X022798Y007987D02*
X023028Y007987D01*
X023105Y007911D01*
X023105Y007757D01*
X022184Y007680D02*
X021877Y007987D01*
X021877Y008064D01*
X021954Y008141D01*
X022108Y008141D01*
X022184Y008064D01*
X022184Y007680D02*
X021877Y007680D01*
X021724Y007757D02*
X021417Y008064D01*
X021417Y007757D01*
X021494Y007680D01*
X021647Y007680D01*
X021724Y007757D01*
X021724Y008064D01*
X021647Y008141D01*
X021494Y008141D01*
X021417Y008064D01*
X021264Y007987D02*
X021110Y008141D01*
X021110Y007680D01*
X020957Y007680D02*
X021264Y007680D01*
X020803Y007680D02*
X020496Y007987D01*
X020496Y008064D01*
X020573Y008141D01*
X020726Y008141D01*
X020803Y008064D01*
X020803Y007680D02*
X020496Y007680D01*
X019451Y007834D02*
X019298Y007680D01*
X019144Y007834D01*
X019144Y008141D01*
X018914Y007987D02*
X018761Y007987D01*
X018684Y007911D01*
X018684Y007680D01*
X018914Y007680D01*
X018991Y007757D01*
X018914Y007834D01*
X018684Y007834D01*
X018531Y007987D02*
X018531Y007680D01*
X018531Y007987D02*
X018300Y007987D01*
X018224Y007911D01*
X018224Y007680D01*
X018070Y007757D02*
X018070Y007911D01*
X017993Y007987D01*
X017763Y007987D01*
X017763Y008141D02*
X017763Y007680D01*
X017993Y007680D01*
X018070Y007757D01*
X017610Y007757D02*
X017610Y007911D01*
X017533Y007987D01*
X017380Y007987D01*
X017303Y007911D01*
X017303Y007834D01*
X017610Y007834D01*
X017610Y007757D02*
X017533Y007680D01*
X017380Y007680D01*
X017149Y007680D02*
X017149Y007987D01*
X017149Y007834D02*
X016996Y007987D01*
X016919Y007987D01*
X016766Y007987D02*
X016536Y007987D01*
X016459Y007911D01*
X016459Y007757D01*
X016536Y007680D01*
X016766Y007680D01*
X016766Y008141D01*
X016305Y007987D02*
X016229Y007987D01*
X016229Y007680D01*
X016305Y007680D02*
X016152Y007680D01*
X015998Y007680D02*
X015845Y007680D01*
X015922Y007680D02*
X015922Y008141D01*
X015998Y008141D01*
X016229Y008141D02*
X016229Y008217D01*
X015691Y007987D02*
X015538Y007987D01*
X015615Y008064D02*
X015615Y007757D01*
X015538Y007680D01*
X014924Y007757D02*
X014847Y007680D01*
X014694Y007680D01*
X014617Y007757D01*
X014617Y008141D01*
X014464Y007987D02*
X014234Y007987D01*
X014157Y007911D01*
X014157Y007680D01*
X014003Y007680D02*
X013850Y007680D01*
X013927Y007680D02*
X013927Y007987D01*
X014003Y007987D01*
X013927Y008141D02*
X013927Y008217D01*
X013696Y007987D02*
X013543Y007680D01*
X013390Y007987D01*
X013236Y007911D02*
X013159Y007987D01*
X013006Y007987D01*
X012929Y007911D01*
X012929Y007834D01*
X013236Y007834D01*
X013236Y007757D02*
X013236Y007911D01*
X013236Y007757D02*
X013159Y007680D01*
X013006Y007680D01*
X012776Y007680D02*
X012776Y007987D01*
X012776Y007834D02*
X012622Y007987D01*
X012545Y007987D01*
X012392Y007911D02*
X012315Y007987D01*
X012085Y007987D01*
X011932Y007987D02*
X011855Y007987D01*
X011855Y007680D01*
X011932Y007680D02*
X011778Y007680D01*
X011548Y007757D02*
X011548Y008064D01*
X011625Y007987D02*
X011471Y007987D01*
X011318Y007987D02*
X011318Y007757D01*
X011241Y007680D01*
X011011Y007680D01*
X011011Y007604D02*
X011088Y007527D01*
X011164Y007527D01*
X011011Y007604D02*
X011011Y007987D01*
X010781Y007757D02*
X010781Y007680D01*
X010704Y007680D01*
X010704Y007757D01*
X010781Y007757D01*
X010704Y007680D02*
X010857Y007527D01*
X011471Y007680D02*
X011548Y007757D01*
X011855Y008141D02*
X011855Y008217D01*
X012162Y007834D02*
X012315Y007834D01*
X012392Y007911D01*
X012392Y007680D02*
X012162Y007680D01*
X012085Y007757D01*
X012162Y007834D01*
X010090Y007680D02*
X009937Y007680D01*
X010013Y007680D02*
X010013Y008141D01*
X009937Y008141D02*
X010090Y008141D01*
X009783Y008064D02*
X009783Y007987D01*
X009706Y007911D01*
X009553Y007911D01*
X009476Y007834D01*
X009476Y007757D01*
X009553Y007680D01*
X009706Y007680D01*
X009783Y007757D01*
X009783Y008064D02*
X009706Y008141D01*
X009553Y008141D01*
X009476Y008064D01*
X009323Y008141D02*
X009169Y008141D01*
X009246Y008141D02*
X009246Y007680D01*
X009323Y007680D02*
X009169Y007680D01*
X009016Y007757D02*
X008939Y007680D01*
X008786Y007680D01*
X008709Y007757D01*
X008709Y007834D01*
X008786Y007911D01*
X008939Y007911D01*
X009016Y007987D01*
X009016Y008064D01*
X008939Y008141D01*
X008786Y008141D01*
X008709Y008064D01*
X013151Y009944D02*
X013151Y010174D01*
X013228Y010251D01*
X013305Y010174D01*
X013305Y009944D01*
X013458Y009944D02*
X013458Y010251D01*
X013381Y010251D01*
X013305Y010174D01*
X013612Y010251D02*
X013688Y010251D01*
X013842Y010098D01*
X013842Y010251D02*
X013842Y009944D01*
X013995Y010021D02*
X013995Y010174D01*
X014072Y010251D01*
X014225Y010251D01*
X014302Y010174D01*
X014302Y010021D01*
X014225Y009944D01*
X014072Y009944D01*
X013995Y010021D01*
X014456Y010174D02*
X014609Y010174D01*
X014532Y010328D02*
X014456Y010404D01*
X014532Y010328D02*
X014532Y009944D01*
X014763Y009944D02*
X014839Y010021D01*
X014839Y010328D01*
X014916Y010251D02*
X014763Y010251D01*
X015070Y010174D02*
X015070Y009944D01*
X015300Y009944D01*
X015376Y010021D01*
X015300Y010098D01*
X015070Y010098D01*
X015070Y010174D02*
X015146Y010251D01*
X015300Y010251D01*
X015607Y010404D02*
X015607Y009944D01*
X015683Y009944D02*
X015530Y009944D01*
X015837Y010021D02*
X015837Y010174D01*
X015914Y010251D01*
X016144Y010251D01*
X016144Y009791D01*
X016144Y009944D02*
X015914Y009944D01*
X015837Y010021D01*
X015683Y010404D02*
X015607Y010404D01*
X015532Y011027D02*
X015455Y011104D01*
X015455Y011257D01*
X015532Y011334D01*
X015685Y011334D01*
X015762Y011257D01*
X015762Y011104D01*
X015685Y011027D01*
X015532Y011027D01*
X015301Y011104D02*
X015301Y011257D01*
X015225Y011334D01*
X014994Y011334D01*
X014841Y011334D02*
X014841Y011104D01*
X014764Y011027D01*
X014534Y011027D01*
X014534Y011334D01*
X014381Y011487D02*
X014304Y011487D01*
X014304Y011027D01*
X014381Y011027D02*
X014227Y011027D01*
X014074Y011104D02*
X014074Y011257D01*
X013997Y011334D01*
X013843Y011334D01*
X013767Y011257D01*
X013767Y011180D01*
X014074Y011180D01*
X014074Y011104D02*
X013997Y011027D01*
X013843Y011027D01*
X014994Y011027D02*
X015225Y011027D01*
X015301Y011104D01*
X014994Y011027D02*
X014994Y011487D01*
X014991Y012011D02*
X014684Y012011D01*
X014531Y012011D02*
X014454Y012011D01*
X014454Y012088D01*
X014531Y012088D01*
X014531Y012011D01*
X014301Y012088D02*
X014224Y012011D01*
X014070Y012011D01*
X013994Y012088D01*
X013994Y012241D01*
X014070Y012318D01*
X014147Y012318D01*
X014301Y012241D01*
X014301Y012471D01*
X013994Y012471D01*
X013380Y012395D02*
X013380Y012088D01*
X013303Y012011D01*
X013150Y012011D01*
X013073Y012088D01*
X013073Y012241D01*
X013226Y012241D01*
X013073Y012395D02*
X013150Y012471D01*
X013303Y012471D01*
X013380Y012395D01*
X012919Y012471D02*
X012919Y012011D01*
X012919Y012241D02*
X012613Y012241D01*
X012459Y012318D02*
X012152Y012318D01*
X012459Y012011D01*
X012152Y012011D01*
X012613Y012011D02*
X012613Y012471D01*
X014684Y012395D02*
X014684Y012318D01*
X014991Y012011D01*
X015145Y012241D02*
X015452Y012241D01*
X015605Y012241D02*
X015912Y012241D01*
X015682Y012471D01*
X015682Y012011D01*
X016065Y012011D02*
X016142Y012011D01*
X016142Y012088D01*
X016065Y012088D01*
X016065Y012011D01*
X016296Y012011D02*
X016603Y012011D01*
X016296Y012318D01*
X016296Y012395D01*
X016372Y012471D01*
X016526Y012471D01*
X016603Y012395D01*
X017216Y012241D02*
X017216Y012164D01*
X017523Y012164D01*
X017523Y012088D02*
X017523Y012241D01*
X017447Y012318D01*
X017293Y012318D01*
X017216Y012241D01*
X017293Y012011D02*
X017447Y012011D01*
X017523Y012088D01*
X017677Y012011D02*
X017907Y012011D01*
X017984Y012088D01*
X017984Y012241D01*
X017907Y012318D01*
X017677Y012318D01*
X017677Y012471D02*
X017677Y012011D01*
X018137Y012011D02*
X018291Y012011D01*
X018214Y012011D02*
X018214Y012318D01*
X018291Y012318D01*
X018444Y012318D02*
X018444Y012088D01*
X018521Y012011D01*
X018598Y012088D01*
X018674Y012011D01*
X018751Y012088D01*
X018751Y012318D01*
X018214Y012471D02*
X018214Y012548D01*
X019365Y012318D02*
X019672Y012011D01*
X019365Y012011D01*
X019365Y012318D02*
X019672Y012318D01*
X019825Y012241D02*
X020132Y012241D01*
X020132Y012011D02*
X020132Y012471D01*
X020286Y012471D02*
X020439Y012318D01*
X020593Y012471D01*
X020593Y012011D01*
X020286Y012011D02*
X020286Y012471D01*
X019825Y012471D02*
X019825Y012011D01*
X020135Y011487D02*
X020059Y011410D01*
X020059Y011334D01*
X020135Y011257D01*
X020366Y011257D01*
X020366Y011487D02*
X020135Y011487D01*
X020135Y011257D02*
X020059Y011180D01*
X020059Y011104D01*
X020135Y011027D01*
X020366Y011027D01*
X020366Y011487D01*
X020980Y011487D02*
X020980Y011027D01*
X021210Y011027D01*
X021286Y011104D01*
X021286Y011257D01*
X021210Y011334D01*
X020980Y011334D01*
X021440Y011257D02*
X021440Y011027D01*
X021440Y011257D02*
X021517Y011334D01*
X021747Y011334D01*
X021747Y011027D01*
X021900Y011027D02*
X022131Y011027D01*
X022207Y011104D01*
X022131Y011180D01*
X021900Y011180D01*
X021900Y011257D02*
X021900Y011027D01*
X021900Y011257D02*
X021977Y011334D01*
X022131Y011334D01*
X021974Y012011D02*
X021667Y012011D01*
X021820Y012011D02*
X021820Y012471D01*
X021974Y012318D01*
X022127Y012241D02*
X022434Y012241D01*
X022588Y012241D02*
X022588Y012088D01*
X022664Y012011D01*
X022818Y012011D01*
X022895Y012088D01*
X023048Y012088D02*
X023048Y012011D01*
X023125Y012011D01*
X023125Y012088D01*
X023048Y012088D01*
X022895Y012241D02*
X022741Y012318D01*
X022664Y012318D01*
X022588Y012241D01*
X022588Y012471D02*
X022895Y012471D01*
X022895Y012241D01*
X023278Y012395D02*
X023585Y012088D01*
X023585Y012011D01*
X023585Y012471D02*
X023278Y012471D01*
X023278Y012395D01*
X021513Y012395D02*
X021513Y012318D01*
X021437Y012241D01*
X021283Y012241D01*
X021207Y012164D01*
X021207Y012088D01*
X021283Y012011D01*
X021437Y012011D01*
X021513Y012088D01*
X021513Y012164D01*
X021437Y012241D01*
X021283Y012241D02*
X021207Y012318D01*
X021207Y012395D01*
X021283Y012471D01*
X021437Y012471D01*
X021513Y012395D01*
X019829Y011334D02*
X019675Y011334D01*
X019598Y011257D01*
X019598Y011027D01*
X019829Y011027D01*
X019905Y011104D01*
X019829Y011180D01*
X019598Y011180D01*
X019445Y011257D02*
X019368Y011334D01*
X019138Y011334D01*
X018984Y011257D02*
X018908Y011334D01*
X018754Y011334D01*
X018678Y011257D01*
X018678Y011180D01*
X018984Y011180D01*
X018984Y011104D02*
X018984Y011257D01*
X018984Y011104D02*
X018908Y011027D01*
X018754Y011027D01*
X018524Y011027D02*
X018294Y011027D01*
X018217Y011104D01*
X018217Y011257D01*
X018294Y011334D01*
X018524Y011334D01*
X018524Y011487D02*
X018524Y011027D01*
X019138Y011104D02*
X019215Y011180D01*
X019368Y011180D01*
X019445Y011257D01*
X019445Y011027D02*
X019215Y011027D01*
X019138Y011104D01*
X019290Y010404D02*
X019290Y009944D01*
X019136Y010021D02*
X019060Y010098D01*
X018829Y010098D01*
X018829Y010174D02*
X018829Y009944D01*
X019060Y009944D01*
X019136Y010021D01*
X019060Y010251D02*
X018906Y010251D01*
X018829Y010174D01*
X018676Y010098D02*
X018522Y010251D01*
X018446Y010251D01*
X018292Y010251D02*
X018216Y010251D01*
X018139Y010174D01*
X018062Y010251D01*
X017985Y010174D01*
X017985Y009944D01*
X018139Y009944D02*
X018139Y010174D01*
X018292Y010251D02*
X018292Y009944D01*
X018676Y009944D02*
X018676Y010251D01*
X019290Y010404D02*
X019443Y010251D01*
X019597Y010404D01*
X019597Y009944D01*
X020211Y010098D02*
X020518Y010098D01*
X020518Y010174D02*
X020441Y010251D01*
X020287Y010251D01*
X020211Y010174D01*
X020211Y010098D01*
X020287Y009944D02*
X020441Y009944D01*
X020518Y010021D01*
X020518Y010174D01*
X020671Y010174D02*
X020671Y009944D01*
X020671Y010174D02*
X020748Y010251D01*
X020901Y010251D01*
X020978Y010174D01*
X021131Y010251D02*
X021285Y010251D01*
X021208Y010328D02*
X021208Y010021D01*
X021131Y009944D01*
X020978Y009944D02*
X020978Y010404D01*
X021899Y010251D02*
X021975Y010251D01*
X022129Y010098D01*
X022129Y010251D02*
X022129Y009944D01*
X022282Y010021D02*
X022282Y010174D01*
X022359Y010251D01*
X022513Y010251D01*
X022589Y010174D01*
X022589Y010021D01*
X022513Y009944D01*
X022359Y009944D01*
X022282Y010021D01*
X022743Y010174D02*
X022896Y010174D01*
X022819Y010328D02*
X022743Y010404D01*
X022819Y010328D02*
X022819Y009944D01*
X025023Y008217D02*
X025023Y008141D01*
X025023Y007987D02*
X025023Y007680D01*
X024947Y007680D02*
X025100Y007680D01*
X025100Y007987D02*
X025023Y007987D01*
X025254Y007987D02*
X025330Y007987D01*
X025484Y007834D01*
X025484Y007987D02*
X025484Y007680D01*
X025637Y007680D02*
X025867Y007680D01*
X025944Y007757D01*
X025944Y007987D01*
X026098Y007911D02*
X026098Y007757D01*
X026174Y007680D01*
X026405Y007680D01*
X026405Y007527D02*
X026405Y007987D01*
X026174Y007987D01*
X026098Y007911D01*
X026558Y007911D02*
X026558Y007757D01*
X026635Y007680D01*
X026788Y007680D01*
X026865Y007757D01*
X026865Y007911D01*
X026788Y007987D01*
X026635Y007987D01*
X026558Y007911D01*
X027018Y008064D02*
X027095Y008141D01*
X027249Y008141D01*
X027325Y008064D01*
X027325Y007757D01*
X027249Y007680D01*
X027095Y007680D01*
X027018Y007757D01*
X025791Y007527D02*
X025714Y007527D01*
X025637Y007604D01*
X025637Y007987D01*
X024640Y007527D02*
X024563Y007527D01*
X024333Y007911D02*
X024256Y007987D01*
X020668Y006905D02*
X020668Y006598D01*
X019451Y007834D02*
X019451Y008141D01*
X017755Y009944D02*
X017602Y009944D01*
X017525Y010021D01*
X017525Y010174D01*
X017602Y010251D01*
X017755Y010251D01*
X017832Y010174D01*
X017832Y010021D01*
X017755Y009944D01*
X017295Y010021D02*
X017295Y010328D01*
X017372Y010251D02*
X017218Y010251D01*
X017065Y010174D02*
X016988Y010251D01*
X016834Y010251D01*
X016758Y010174D01*
X016758Y010098D01*
X017065Y010098D01*
X017065Y010174D02*
X017065Y010021D01*
X016988Y009944D01*
X016834Y009944D01*
X017218Y009944D02*
X017295Y010021D01*
X017296Y011027D02*
X017296Y011257D01*
X017373Y011334D01*
X017603Y011334D01*
X017603Y011027D01*
X017757Y011027D02*
X017757Y011257D01*
X017834Y011334D01*
X017987Y011334D01*
X017987Y011180D02*
X017757Y011180D01*
X017757Y011027D02*
X017987Y011027D01*
X018064Y011104D01*
X017987Y011180D01*
X017143Y011104D02*
X017143Y011257D01*
X017066Y011334D01*
X016836Y011334D01*
X016836Y011487D02*
X016836Y011027D01*
X017066Y011027D01*
X017143Y011104D01*
X016222Y011027D02*
X016222Y011334D01*
X016145Y011334D01*
X016069Y011257D01*
X015992Y011334D01*
X015915Y011257D01*
X015915Y011027D01*
X016069Y011027D02*
X016069Y011257D01*
X014991Y012395D02*
X014914Y012471D01*
X014761Y012471D01*
X014684Y012395D01*
X014924Y008141D02*
X014924Y007757D01*
X014464Y007680D02*
X014464Y007987D01*
X027184Y003647D02*
X027490Y003647D01*
X027260Y003877D01*
X027260Y003417D01*
X027644Y003493D02*
X027721Y003417D01*
X027874Y003417D01*
X027951Y003493D01*
X027951Y003570D01*
X027874Y003647D01*
X027721Y003647D01*
X027644Y003570D01*
X027644Y003493D01*
X027721Y003647D02*
X027644Y003723D01*
X027644Y003800D01*
X027721Y003877D01*
X027874Y003877D01*
X027951Y003800D01*
X027951Y003723D01*
X027874Y003647D01*
X027874Y002349D02*
X027721Y002349D01*
X027644Y002273D01*
X027644Y002196D01*
X027721Y002119D01*
X027874Y002119D01*
X027951Y002196D01*
X027951Y002273D01*
X027874Y002349D01*
X027874Y002119D02*
X027951Y002042D01*
X027951Y001966D01*
X027874Y001889D01*
X027721Y001889D01*
X027644Y001966D01*
X027644Y002042D01*
X027721Y002119D01*
X027490Y001966D02*
X027414Y001889D01*
X027260Y001889D01*
X027184Y001966D01*
X027184Y002042D01*
X027260Y002119D01*
X027337Y002119D01*
X027260Y002119D02*
X027184Y002196D01*
X027184Y002273D01*
X027260Y002349D01*
X027414Y002349D01*
X027490Y002273D01*
D13*
X022581Y007837D02*
X022583Y007873D01*
X022589Y007909D01*
X022599Y007944D01*
X022612Y007978D01*
X022629Y008010D01*
X022649Y008040D01*
X022673Y008067D01*
X022699Y008092D01*
X022728Y008114D01*
X022759Y008133D01*
X022792Y008148D01*
X022826Y008160D01*
X022862Y008168D01*
X022898Y008172D01*
X022934Y008172D01*
X022970Y008168D01*
X023006Y008160D01*
X023040Y008148D01*
X023073Y008133D01*
X023104Y008114D01*
X023133Y008092D01*
X023159Y008067D01*
X023183Y008040D01*
X023203Y008010D01*
X023220Y007978D01*
X023233Y007944D01*
X023243Y007909D01*
X023249Y007873D01*
X023251Y007837D01*
X023249Y007801D01*
X023243Y007765D01*
X023233Y007730D01*
X023220Y007696D01*
X023203Y007664D01*
X023183Y007634D01*
X023159Y007607D01*
X023133Y007582D01*
X023104Y007560D01*
X023073Y007541D01*
X023040Y007526D01*
X023006Y007514D01*
X022970Y007506D01*
X022934Y007502D01*
X022898Y007502D01*
X022862Y007506D01*
X022826Y007514D01*
X022792Y007526D01*
X022759Y007541D01*
X022728Y007560D01*
X022699Y007582D01*
X022673Y007607D01*
X022649Y007634D01*
X022629Y007664D01*
X022612Y007696D01*
X022599Y007730D01*
X022589Y007765D01*
X022583Y007801D01*
X022581Y007837D01*
M02*
