G75*
G70*
%OFA0B0*%
%FSLAX24Y24*%
%IPPOS*%
%LPD*%
%AMOC8*
5,1,8,0,0,1.08239X$1,22.5*
%
%ADD10R,0.0236X0.0906*%
%ADD11C,0.0160*%
%ADD12C,0.0180*%
%ADD13C,0.0295*%
%ADD14C,0.0240*%
%ADD15C,0.0240*%
%ADD16C,0.0080*%
D10*
X009826Y002208D03*
X010219Y002208D03*
X010613Y002208D03*
X011007Y002208D03*
X011400Y002208D03*
X011794Y002208D03*
X012188Y002208D03*
X012582Y002208D03*
X012975Y002208D03*
X013369Y002208D03*
X013763Y002208D03*
X014156Y002208D03*
X014550Y002208D03*
X014944Y002208D03*
X015337Y002208D03*
X015731Y002208D03*
X016125Y002208D03*
X016519Y002208D03*
X016912Y002208D03*
X017306Y002208D03*
X017700Y002208D03*
X018093Y002208D03*
X018487Y002208D03*
X018881Y002208D03*
X019274Y002208D03*
X019668Y002208D03*
X020062Y002208D03*
X020456Y002208D03*
X020849Y002208D03*
X021243Y002208D03*
X021637Y002208D03*
X022030Y002208D03*
X022424Y002208D03*
X022818Y002208D03*
X023211Y002208D03*
X023605Y002208D03*
X023999Y002208D03*
X024393Y002208D03*
X024786Y002208D03*
X025180Y002208D03*
X025574Y002208D03*
X025967Y002208D03*
X025967Y003664D03*
X025574Y003664D03*
X025180Y003664D03*
X024786Y003664D03*
X024393Y003664D03*
X023999Y003664D03*
X023605Y003664D03*
X023211Y003664D03*
X022818Y003664D03*
X022424Y003664D03*
X022030Y003664D03*
X021637Y003664D03*
X021243Y003664D03*
X020849Y003664D03*
X020456Y003664D03*
X020062Y003664D03*
X019668Y003664D03*
X019274Y003664D03*
X018881Y003664D03*
X018487Y003664D03*
X018093Y003664D03*
X017700Y003664D03*
X017306Y003664D03*
X016912Y003664D03*
X016519Y003664D03*
X016125Y003664D03*
X015731Y003664D03*
X015337Y003664D03*
X014944Y003664D03*
X014550Y003664D03*
X014156Y003664D03*
X013763Y003664D03*
X013369Y003664D03*
X012975Y003664D03*
X012582Y003664D03*
X012188Y003664D03*
X011794Y003664D03*
X011400Y003664D03*
X011007Y003664D03*
X010613Y003664D03*
X010219Y003664D03*
X009826Y003664D03*
D11*
X003196Y000835D02*
X002979Y000710D01*
X014983Y000710D01*
X014983Y001635D01*
X014776Y001635D01*
X014747Y001664D01*
X014718Y001635D01*
X014382Y001635D01*
X014353Y001664D01*
X014324Y001635D01*
X014003Y001635D01*
X014003Y001510D01*
X013966Y001422D01*
X013899Y001354D01*
X013810Y001318D01*
X013715Y001318D01*
X013627Y001354D01*
X013566Y001415D01*
X013505Y001354D01*
X013417Y001318D01*
X013321Y001318D01*
X013233Y001354D01*
X013172Y001415D01*
X013111Y001354D01*
X013023Y001318D01*
X012928Y001318D01*
X012839Y001354D01*
X012772Y001422D01*
X012735Y001510D01*
X012735Y001578D01*
X012723Y001575D01*
X012582Y001575D01*
X012582Y002208D01*
X012582Y002208D01*
X012582Y002840D01*
X012723Y002840D01*
X012769Y002828D01*
X012810Y002804D01*
X012834Y002780D01*
X013143Y002780D01*
X013172Y002751D01*
X013201Y002780D01*
X013537Y002780D01*
X013566Y002751D01*
X013595Y002780D01*
X013930Y002780D01*
X013960Y002751D01*
X013989Y002780D01*
X014324Y002780D01*
X014353Y002751D01*
X014382Y002780D01*
X014718Y002780D01*
X014747Y002751D01*
X014776Y002780D01*
X014983Y002780D01*
X014983Y003091D01*
X014776Y003091D01*
X014747Y003121D01*
X014718Y003091D01*
X014382Y003091D01*
X014353Y003121D01*
X014324Y003091D01*
X013989Y003091D01*
X013960Y003121D01*
X013930Y003091D01*
X013595Y003091D01*
X013566Y003121D01*
X013537Y003091D01*
X013201Y003091D01*
X013172Y003121D01*
X013143Y003091D01*
X012834Y003091D01*
X012810Y003067D01*
X012769Y003044D01*
X012723Y003031D01*
X012582Y003031D01*
X012582Y003664D01*
X012582Y003664D01*
X012582Y003031D01*
X012440Y003031D01*
X012394Y003044D01*
X012353Y003067D01*
X012329Y003091D01*
X012020Y003091D01*
X011991Y003121D01*
X011962Y003091D01*
X011653Y003091D01*
X011629Y003067D01*
X011588Y003044D01*
X011542Y003031D01*
X011400Y003031D01*
X011400Y003664D01*
X011400Y003664D01*
X011400Y003031D01*
X011259Y003031D01*
X011213Y003044D01*
X011172Y003067D01*
X011148Y003091D01*
X010853Y003091D01*
X010853Y002780D01*
X011148Y002780D01*
X011172Y002804D01*
X011213Y002828D01*
X011259Y002840D01*
X011400Y002840D01*
X011400Y002208D01*
X011400Y002208D01*
X011400Y002840D01*
X011542Y002840D01*
X011588Y002828D01*
X011629Y002804D01*
X011653Y002780D01*
X011962Y002780D01*
X011991Y002751D01*
X012020Y002780D01*
X012329Y002780D01*
X012353Y002804D01*
X012394Y002828D01*
X012440Y002840D01*
X012582Y002840D01*
X012582Y002208D01*
X012582Y002208D01*
X012582Y001575D01*
X012440Y001575D01*
X012428Y001578D01*
X012428Y001510D01*
X012391Y001422D01*
X012324Y001354D01*
X012236Y001318D01*
X012140Y001318D01*
X012052Y001354D01*
X011991Y001415D01*
X011930Y001354D01*
X011842Y001318D01*
X011746Y001318D01*
X011658Y001354D01*
X011591Y001422D01*
X011554Y001510D01*
X011554Y001578D01*
X011542Y001575D01*
X011400Y001575D01*
X011400Y002208D01*
X011400Y002208D01*
X011400Y001575D01*
X011259Y001575D01*
X011213Y001587D01*
X011172Y001611D01*
X011148Y001635D01*
X010853Y001635D01*
X010853Y001510D01*
X010817Y001422D01*
X010749Y001354D01*
X010661Y001318D01*
X010565Y001318D01*
X010477Y001354D01*
X010410Y001422D01*
X010373Y001510D01*
X010373Y001635D01*
X010078Y001635D01*
X010054Y001611D01*
X010013Y001587D01*
X009967Y001575D01*
X009826Y001575D01*
X009826Y002208D01*
X009826Y002208D01*
X009528Y002208D01*
X009528Y002272D01*
X009307Y002180D01*
X009006Y002180D01*
X008728Y002295D01*
X008516Y002508D01*
X008401Y002786D01*
X008401Y003086D01*
X008516Y003364D01*
X008728Y003576D01*
X009006Y003691D01*
X009307Y003691D01*
X009528Y003600D01*
X009528Y003664D01*
X009826Y003664D01*
X009826Y003664D01*
X009826Y004297D01*
X009967Y004297D01*
X010013Y004285D01*
X010054Y004261D01*
X010078Y004237D01*
X010387Y004237D01*
X010416Y004208D01*
X010445Y004237D01*
X010781Y004237D01*
X010810Y004208D01*
X010839Y004237D01*
X011148Y004237D01*
X011172Y004261D01*
X011213Y004285D01*
X011259Y004297D01*
X011400Y004297D01*
X011400Y003664D01*
X011400Y003664D01*
X011400Y004297D01*
X011542Y004297D01*
X011554Y004294D01*
X011554Y004362D01*
X011578Y004419D01*
X011510Y004419D01*
X011497Y004432D01*
X007503Y004432D01*
X007503Y007030D01*
X000710Y007030D01*
X000710Y002988D01*
X000917Y003291D01*
X000917Y003291D01*
X000917Y003291D01*
X001309Y003603D01*
X001309Y003603D01*
X001775Y003786D01*
X001775Y003786D01*
X002274Y003824D01*
X002274Y003824D01*
X002762Y003712D01*
X002762Y003712D01*
X003196Y003462D01*
X003196Y003462D01*
X003537Y003095D01*
X003537Y003095D01*
X003754Y002644D01*
X003754Y002644D01*
X003829Y002149D01*
X003754Y001653D01*
X003754Y001653D01*
X003537Y001202D01*
X003537Y001202D01*
X003196Y000835D01*
X003196Y000835D01*
X003196Y000835D01*
X003160Y000814D02*
X014983Y000814D01*
X014983Y000973D02*
X003324Y000973D01*
X003471Y001131D02*
X014983Y001131D01*
X014983Y001290D02*
X003579Y001290D01*
X003655Y001448D02*
X006604Y001448D01*
X006567Y001485D02*
X006643Y001410D01*
X006741Y001369D01*
X006847Y001369D01*
X006946Y001410D01*
X007021Y001485D01*
X007062Y001583D01*
X007062Y001690D01*
X007021Y001788D01*
X006946Y001864D01*
X006847Y001904D01*
X006741Y001904D01*
X006643Y001864D01*
X006567Y001788D01*
X006527Y001690D01*
X006527Y001583D01*
X006567Y001485D01*
X006527Y001607D02*
X003731Y001607D01*
X003771Y001765D02*
X006558Y001765D01*
X007031Y001765D02*
X009528Y001765D01*
X009528Y001731D02*
X009540Y001685D01*
X009564Y001644D01*
X009597Y001611D01*
X009638Y001587D01*
X009684Y001575D01*
X009826Y001575D01*
X009826Y002208D01*
X009826Y002208D01*
X009528Y002208D01*
X009528Y001731D01*
X009604Y001607D02*
X007062Y001607D01*
X006984Y001448D02*
X010399Y001448D01*
X010373Y001607D02*
X010047Y001607D01*
X009826Y001607D02*
X009826Y001607D01*
X009826Y001765D02*
X009826Y001765D01*
X009826Y001924D02*
X009826Y001924D01*
X009826Y002082D02*
X009826Y002082D01*
X009528Y002082D02*
X003818Y002082D01*
X003815Y002241D02*
X008861Y002241D01*
X008625Y002399D02*
X003791Y002399D01*
X003767Y002558D02*
X008495Y002558D01*
X008430Y002716D02*
X003719Y002716D01*
X003643Y002875D02*
X008401Y002875D01*
X008401Y003033D02*
X003566Y003033D01*
X003447Y003192D02*
X008444Y003192D01*
X008510Y003350D02*
X003300Y003350D01*
X003115Y003509D02*
X008660Y003509D01*
X008947Y003667D02*
X002841Y003667D01*
X001471Y003667D02*
X000710Y003667D01*
X000710Y003509D02*
X001189Y003509D01*
X000991Y003350D02*
X000710Y003350D01*
X000710Y003192D02*
X000849Y003192D01*
X000741Y003033D02*
X000710Y003033D01*
X000710Y003826D02*
X009528Y003826D01*
X009528Y003984D02*
X007029Y003984D01*
X007021Y003965D02*
X007062Y004064D01*
X007062Y004170D01*
X007021Y004269D01*
X006946Y004344D01*
X006847Y004385D01*
X006741Y004385D01*
X006643Y004344D01*
X006567Y004269D01*
X006527Y004170D01*
X006527Y004064D01*
X006567Y003965D01*
X006643Y003890D01*
X006741Y003849D01*
X006847Y003849D01*
X006946Y003890D01*
X007021Y003965D01*
X007062Y004143D02*
X009528Y004143D01*
X009528Y004141D02*
X009528Y003664D01*
X009826Y003664D01*
X009826Y003664D01*
X009826Y004297D01*
X009684Y004297D01*
X009638Y004285D01*
X009597Y004261D01*
X009564Y004228D01*
X009540Y004186D01*
X009528Y004141D01*
X009826Y004143D02*
X009826Y004143D01*
X009826Y003984D02*
X009826Y003984D01*
X009826Y003826D02*
X009826Y003826D01*
X009826Y003667D02*
X009826Y003667D01*
X009528Y003667D02*
X009366Y003667D01*
X009912Y003031D02*
X009967Y003031D01*
X010013Y003044D01*
X010054Y003067D01*
X010078Y003091D01*
X010373Y003091D01*
X010373Y002780D01*
X010078Y002780D01*
X010054Y002804D01*
X010013Y002828D01*
X009967Y002840D01*
X009912Y002840D01*
X009912Y003031D01*
X009973Y003033D02*
X010373Y003033D01*
X010373Y002875D02*
X009912Y002875D01*
X010853Y002875D02*
X014983Y002875D01*
X014983Y003033D02*
X012729Y003033D01*
X012582Y003033D02*
X012582Y003033D01*
X012434Y003033D02*
X011548Y003033D01*
X011400Y003033D02*
X011400Y003033D01*
X011253Y003033D02*
X010853Y003033D01*
X011400Y003192D02*
X011400Y003192D01*
X011400Y003350D02*
X011400Y003350D01*
X011400Y003509D02*
X011400Y003509D01*
X011400Y003667D02*
X011400Y003667D01*
X011400Y003826D02*
X011400Y003826D01*
X011400Y003984D02*
X011400Y003984D01*
X011400Y004143D02*
X011400Y004143D01*
X011554Y004301D02*
X006989Y004301D01*
X006600Y004301D02*
X000710Y004301D01*
X000710Y004143D02*
X006527Y004143D01*
X006560Y003984D02*
X000710Y003984D01*
X000710Y004460D02*
X007503Y004460D01*
X007503Y004618D02*
X000710Y004618D01*
X000710Y004777D02*
X007503Y004777D01*
X007503Y004935D02*
X000710Y004935D01*
X000710Y005094D02*
X007503Y005094D01*
X007503Y005252D02*
X000710Y005252D01*
X000710Y005411D02*
X007503Y005411D01*
X007503Y005569D02*
X000710Y005569D01*
X000710Y005728D02*
X007503Y005728D01*
X007503Y005886D02*
X000710Y005886D01*
X000710Y006045D02*
X007503Y006045D01*
X007503Y006203D02*
X000710Y006203D01*
X000710Y006362D02*
X007503Y006362D01*
X007503Y006520D02*
X000710Y006520D01*
X000710Y006679D02*
X007503Y006679D01*
X007503Y006837D02*
X000710Y006837D01*
X000710Y006996D02*
X007503Y006996D01*
X007703Y006996D02*
X012500Y006996D01*
X012500Y007154D02*
X007662Y007154D01*
X007703Y007113D02*
X007586Y007230D01*
X000710Y007230D01*
X000710Y013239D01*
X012134Y013239D01*
X012570Y012803D01*
X012570Y010749D01*
X012500Y010679D01*
X012500Y004632D01*
X007703Y004632D01*
X007703Y007113D01*
X007703Y006837D02*
X012500Y006837D01*
X012500Y006679D02*
X007703Y006679D01*
X007703Y006520D02*
X012500Y006520D01*
X012500Y006362D02*
X007703Y006362D01*
X007703Y006203D02*
X012500Y006203D01*
X012500Y006045D02*
X007703Y006045D01*
X007703Y005886D02*
X012500Y005886D01*
X012500Y005728D02*
X007703Y005728D01*
X007703Y005569D02*
X012500Y005569D01*
X012500Y005411D02*
X007703Y005411D01*
X007703Y005252D02*
X012500Y005252D01*
X012500Y005094D02*
X007703Y005094D01*
X007703Y004935D02*
X012500Y004935D01*
X012500Y004777D02*
X007703Y004777D01*
X011400Y002716D02*
X011400Y002716D01*
X011400Y002558D02*
X011400Y002558D01*
X011400Y002399D02*
X011400Y002399D01*
X011400Y002241D02*
X011400Y002241D01*
X011400Y002082D02*
X011400Y002082D01*
X011400Y001924D02*
X011400Y001924D01*
X011400Y001765D02*
X011400Y001765D01*
X011400Y001607D02*
X011400Y001607D01*
X011179Y001607D02*
X010853Y001607D01*
X010827Y001448D02*
X011580Y001448D01*
X012402Y001448D02*
X012761Y001448D01*
X012582Y001607D02*
X012582Y001607D01*
X012582Y001765D02*
X012582Y001765D01*
X012582Y001924D02*
X012582Y001924D01*
X012582Y002082D02*
X012582Y002082D01*
X012582Y002241D02*
X012582Y002241D01*
X012582Y002399D02*
X012582Y002399D01*
X012582Y002558D02*
X012582Y002558D01*
X012582Y002716D02*
X012582Y002716D01*
X012582Y003192D02*
X012582Y003192D01*
X012582Y003350D02*
X012582Y003350D01*
X012582Y003509D02*
X012582Y003509D01*
X012582Y003664D02*
X012582Y004297D01*
X012723Y004297D01*
X012769Y004285D01*
X012790Y004273D01*
X012631Y004432D01*
X012399Y004432D01*
X012428Y004362D01*
X012428Y004294D01*
X012440Y004297D01*
X012582Y004297D01*
X012582Y003664D01*
X012582Y003664D01*
X012582Y003667D02*
X012582Y003667D01*
X012582Y003826D02*
X012582Y003826D01*
X012582Y003984D02*
X012582Y003984D01*
X012582Y004143D02*
X012582Y004143D01*
X012428Y004301D02*
X012762Y004301D01*
X013529Y004923D02*
X013529Y005624D01*
X013748Y005404D01*
X013895Y005404D01*
X013971Y005480D01*
X013971Y005588D01*
X013895Y005664D01*
X013538Y006021D01*
X013538Y006501D01*
X015694Y008657D01*
X015694Y009853D01*
X015601Y009946D01*
X015587Y009960D01*
X015587Y010031D01*
X015464Y010154D01*
X015290Y010154D01*
X015167Y010031D01*
X015167Y009857D01*
X015290Y009734D01*
X015361Y009734D01*
X015374Y009720D01*
X015374Y008790D01*
X013538Y006954D01*
X013538Y008265D01*
X013462Y008341D01*
X013293Y008511D01*
X013293Y010232D01*
X013986Y010926D01*
X014720Y010926D01*
X015311Y010335D01*
X015719Y010335D01*
X015812Y010429D01*
X016030Y010647D01*
X016117Y010561D01*
X016291Y010561D01*
X016414Y010684D01*
X016414Y010807D01*
X016467Y010807D01*
X016495Y010836D01*
X016566Y010836D01*
X016689Y010959D01*
X016689Y011133D01*
X016566Y011256D01*
X016473Y011256D01*
X016511Y011347D01*
X016511Y011454D01*
X016470Y011552D01*
X016395Y011627D01*
X016296Y011668D01*
X016190Y011668D01*
X016091Y011627D01*
X016016Y011552D01*
X015975Y011454D01*
X015975Y011347D01*
X016016Y011249D01*
X016091Y011174D01*
X016190Y011133D01*
X016269Y011133D01*
X016269Y011127D01*
X016059Y011127D01*
X015944Y011012D01*
X015931Y011026D01*
X015931Y011270D01*
X015261Y011939D01*
X015168Y012033D01*
X013854Y012033D01*
X012869Y011048D01*
X012869Y012911D01*
X012793Y012987D01*
X012242Y013538D01*
X000710Y013538D01*
X000710Y017057D01*
X000917Y016754D01*
X000917Y016754D01*
X001309Y016442D01*
X001775Y016259D01*
X002274Y016221D01*
X002762Y016333D01*
X003196Y016583D01*
X003196Y016583D01*
X003196Y016583D01*
X003537Y016950D01*
X003754Y017401D01*
X003754Y017401D01*
X003829Y017897D01*
X003754Y018392D01*
X003537Y018843D01*
X003196Y019210D01*
X003196Y019210D01*
X002762Y019460D01*
X002274Y019572D01*
X001775Y019534D01*
X001775Y019534D01*
X001309Y019351D01*
X001309Y019351D01*
X000917Y019039D01*
X000710Y018736D01*
X000710Y021697D01*
X035083Y021697D01*
X035083Y020467D01*
X030992Y020467D01*
X030916Y020391D01*
X023987Y013462D01*
X023987Y009053D01*
X019893Y004958D01*
X019893Y004851D01*
X019969Y004774D01*
X019970Y004773D01*
X020007Y004735D01*
X020008Y004735D01*
X020062Y004735D01*
X020115Y004735D01*
X020115Y004735D01*
X020116Y004735D01*
X020154Y004773D01*
X024249Y008830D01*
X024250Y008830D01*
X024288Y008867D01*
X024325Y008905D01*
X024325Y008905D01*
X024326Y008906D01*
X024326Y008959D01*
X024326Y009013D01*
X024326Y009013D01*
X024326Y013315D01*
X031139Y020129D01*
X035083Y020129D01*
X035083Y018738D01*
X035033Y018843D01*
X034692Y019210D01*
X034258Y019460D01*
X033770Y019572D01*
X033271Y019534D01*
X033271Y019534D01*
X032805Y019351D01*
X032413Y019039D01*
X032131Y018625D01*
X031983Y018147D01*
X031983Y017646D01*
X032131Y017168D01*
X032131Y017168D01*
X032413Y016754D01*
X032413Y016754D01*
X032805Y016442D01*
X033271Y016259D01*
X033770Y016221D01*
X033770Y016221D01*
X034258Y016333D01*
X034258Y016333D01*
X034692Y016583D01*
X034692Y016583D01*
X035033Y016950D01*
X035083Y017055D01*
X035083Y002990D01*
X035033Y003095D01*
X034692Y003462D01*
X034258Y003712D01*
X033770Y003824D01*
X033271Y003786D01*
X033271Y003786D01*
X032805Y003603D01*
X032805Y003603D01*
X032413Y003291D01*
X032131Y002877D01*
X031983Y002399D01*
X031983Y001898D01*
X032131Y001420D01*
X032131Y001420D01*
X032413Y001006D01*
X032413Y001006D01*
X032784Y000710D01*
X015183Y000710D01*
X015183Y001578D01*
X015196Y001575D01*
X015337Y001575D01*
X015337Y002208D01*
X015337Y002840D01*
X015196Y002840D01*
X015183Y002837D01*
X015183Y003035D01*
X015196Y003031D01*
X015337Y003031D01*
X015337Y003664D01*
X015337Y003664D01*
X015337Y003031D01*
X015479Y003031D01*
X015525Y003044D01*
X015566Y003067D01*
X015590Y003091D01*
X015899Y003091D01*
X015928Y003121D01*
X015957Y003091D01*
X016266Y003091D01*
X016290Y003067D01*
X016331Y003044D01*
X016377Y003031D01*
X016519Y003031D01*
X016660Y003031D01*
X016706Y003044D01*
X016747Y003067D01*
X016771Y003091D01*
X017080Y003091D01*
X017109Y003121D01*
X017138Y003091D01*
X017447Y003091D01*
X017471Y003067D01*
X017512Y003044D01*
X017558Y003031D01*
X017700Y003031D01*
X017841Y003031D01*
X017887Y003044D01*
X017928Y003067D01*
X017952Y003091D01*
X018261Y003091D01*
X018290Y003121D01*
X018319Y003091D01*
X018628Y003091D01*
X018652Y003067D01*
X018693Y003044D01*
X018739Y003031D01*
X018881Y003031D01*
X019023Y003031D01*
X019068Y003044D01*
X019109Y003067D01*
X019133Y003091D01*
X019442Y003091D01*
X019471Y003121D01*
X019500Y003091D01*
X019809Y003091D01*
X019833Y003067D01*
X019874Y003044D01*
X019920Y003031D01*
X020062Y003031D01*
X020204Y003031D01*
X020249Y003044D01*
X020291Y003067D01*
X020315Y003091D01*
X020623Y003091D01*
X020652Y003121D01*
X020681Y003091D01*
X020990Y003091D01*
X021014Y003067D01*
X021055Y003044D01*
X021101Y003031D01*
X021243Y003031D01*
X021385Y003031D01*
X021431Y003044D01*
X021472Y003067D01*
X021496Y003091D01*
X021805Y003091D01*
X021834Y003121D01*
X021863Y003091D01*
X022171Y003091D01*
X022195Y003067D01*
X022237Y003044D01*
X022282Y003031D01*
X022424Y003031D01*
X022424Y003664D01*
X022424Y003664D01*
X022424Y003031D01*
X022566Y003031D01*
X022612Y003044D01*
X022653Y003067D01*
X022677Y003091D01*
X022986Y003091D01*
X023015Y003121D01*
X023044Y003091D01*
X023353Y003091D01*
X023377Y003067D01*
X023418Y003044D01*
X023463Y003031D01*
X023605Y003031D01*
X023605Y003664D01*
X023605Y003664D01*
X023605Y003031D01*
X023747Y003031D01*
X023793Y003044D01*
X023834Y003067D01*
X023858Y003091D01*
X024167Y003091D01*
X024196Y003121D01*
X024225Y003091D01*
X024534Y003091D01*
X024558Y003067D01*
X024599Y003044D01*
X024644Y003031D01*
X024786Y003031D01*
X024786Y003664D01*
X024786Y003664D01*
X024786Y003031D01*
X024928Y003031D01*
X024974Y003044D01*
X025015Y003067D01*
X025039Y003091D01*
X025334Y003091D01*
X025334Y003056D01*
X025306Y002989D01*
X025306Y002883D01*
X025334Y002816D01*
X025334Y002780D01*
X025039Y002780D01*
X025015Y002804D01*
X024974Y002828D01*
X024928Y002840D01*
X024786Y002840D01*
X024644Y002840D01*
X024599Y002828D01*
X024558Y002804D01*
X024534Y002780D01*
X024225Y002780D01*
X024196Y002751D01*
X024167Y002780D01*
X023858Y002780D01*
X023834Y002804D01*
X023793Y002828D01*
X023747Y002840D01*
X023605Y002840D01*
X023463Y002840D01*
X023418Y002828D01*
X023377Y002804D01*
X023353Y002780D01*
X023044Y002780D01*
X023015Y002751D01*
X022986Y002780D01*
X022677Y002780D01*
X022653Y002804D01*
X022612Y002828D01*
X022566Y002840D01*
X022424Y002840D01*
X022282Y002840D01*
X022237Y002828D01*
X022195Y002804D01*
X022171Y002780D01*
X021863Y002780D01*
X021834Y002751D01*
X021805Y002780D01*
X021496Y002780D01*
X021472Y002804D01*
X021431Y002828D01*
X021385Y002840D01*
X021243Y002840D01*
X021243Y002208D01*
X021243Y002840D01*
X021101Y002840D01*
X021055Y002828D01*
X021014Y002804D01*
X020990Y002780D01*
X020681Y002780D01*
X020652Y002751D01*
X020623Y002780D01*
X020315Y002780D01*
X020291Y002804D01*
X020249Y002828D01*
X020204Y002840D01*
X020062Y002840D01*
X020062Y002208D01*
X020062Y002208D01*
X020062Y002840D01*
X019920Y002840D01*
X019874Y002828D01*
X019833Y002804D01*
X019809Y002780D01*
X019500Y002780D01*
X019471Y002751D01*
X019442Y002780D01*
X019133Y002780D01*
X019109Y002804D01*
X019068Y002828D01*
X019023Y002840D01*
X018881Y002840D01*
X018881Y002208D01*
X018881Y002208D01*
X018881Y002840D01*
X018739Y002840D01*
X018693Y002828D01*
X018652Y002804D01*
X018628Y002780D01*
X018319Y002780D01*
X018290Y002751D01*
X018261Y002780D01*
X017952Y002780D01*
X017928Y002804D01*
X017887Y002828D01*
X017841Y002840D01*
X017700Y002840D01*
X017700Y002208D01*
X017700Y002208D01*
X017700Y002840D01*
X017558Y002840D01*
X017512Y002828D01*
X017471Y002804D01*
X017447Y002780D01*
X017138Y002780D01*
X017109Y002751D01*
X017080Y002780D01*
X016771Y002780D01*
X016747Y002804D01*
X016706Y002828D01*
X016660Y002840D01*
X016519Y002840D01*
X016519Y002208D01*
X016519Y002208D01*
X016519Y002840D01*
X016377Y002840D01*
X016331Y002828D01*
X016290Y002804D01*
X016266Y002780D01*
X015957Y002780D01*
X015928Y002751D01*
X015899Y002780D01*
X015590Y002780D01*
X015566Y002804D01*
X015525Y002828D01*
X015479Y002840D01*
X015337Y002840D01*
X015337Y002208D01*
X015337Y002208D01*
X015337Y002208D01*
X015337Y001575D01*
X015479Y001575D01*
X015525Y001587D01*
X015566Y001611D01*
X015590Y001635D01*
X015899Y001635D01*
X015928Y001664D01*
X015957Y001635D01*
X016266Y001635D01*
X016290Y001611D01*
X016331Y001587D01*
X016377Y001575D01*
X016519Y001575D01*
X016660Y001575D01*
X016706Y001587D01*
X016747Y001611D01*
X016771Y001635D01*
X017066Y001635D01*
X017066Y001431D01*
X017103Y001343D01*
X017170Y001276D01*
X017258Y001239D01*
X017354Y001239D01*
X017442Y001276D01*
X017509Y001343D01*
X017546Y001431D01*
X017546Y001578D01*
X017558Y001575D01*
X017700Y001575D01*
X017841Y001575D01*
X017887Y001587D01*
X017928Y001611D01*
X017952Y001635D01*
X018261Y001635D01*
X018290Y001664D01*
X018319Y001635D01*
X018628Y001635D01*
X018652Y001611D01*
X018693Y001587D01*
X018739Y001575D01*
X018881Y001575D01*
X019023Y001575D01*
X019068Y001587D01*
X019109Y001611D01*
X019133Y001635D01*
X019442Y001635D01*
X019471Y001664D01*
X019500Y001635D01*
X019809Y001635D01*
X019833Y001611D01*
X019874Y001587D01*
X019920Y001575D01*
X020062Y001575D01*
X020204Y001575D01*
X020249Y001587D01*
X020291Y001611D01*
X020315Y001635D01*
X020623Y001635D01*
X020652Y001664D01*
X020681Y001635D01*
X020990Y001635D01*
X021014Y001611D01*
X021055Y001587D01*
X021101Y001575D01*
X021243Y001575D01*
X021385Y001575D01*
X021431Y001587D01*
X021472Y001611D01*
X021496Y001635D01*
X021805Y001635D01*
X021834Y001664D01*
X021863Y001635D01*
X022171Y001635D01*
X022195Y001611D01*
X022237Y001587D01*
X022282Y001575D01*
X022424Y001575D01*
X022424Y002208D01*
X022424Y002840D01*
X022424Y002208D01*
X022424Y002208D01*
X022424Y002208D01*
X022424Y001575D01*
X022566Y001575D01*
X022612Y001587D01*
X022653Y001611D01*
X022677Y001635D01*
X022986Y001635D01*
X023015Y001664D01*
X023044Y001635D01*
X023353Y001635D01*
X023377Y001611D01*
X023418Y001587D01*
X023463Y001575D01*
X023605Y001575D01*
X023605Y002208D01*
X023605Y002840D01*
X023605Y002208D01*
X023605Y002208D01*
X023605Y002208D01*
X023605Y001575D01*
X023747Y001575D01*
X023793Y001587D01*
X023834Y001611D01*
X023858Y001635D01*
X024167Y001635D01*
X024196Y001664D01*
X024225Y001635D01*
X024534Y001635D01*
X024558Y001611D01*
X024599Y001587D01*
X024644Y001575D01*
X024786Y001575D01*
X024786Y002208D01*
X024786Y002840D01*
X024786Y002208D01*
X024786Y002208D01*
X024786Y002208D01*
X024786Y001575D01*
X024928Y001575D01*
X024974Y001587D01*
X025015Y001611D01*
X025039Y001635D01*
X025334Y001635D01*
X025334Y001599D01*
X025306Y001532D01*
X025306Y001426D01*
X025334Y001359D01*
X025334Y001245D01*
X025306Y001178D01*
X025306Y001072D01*
X025347Y000973D01*
X025422Y000898D01*
X025520Y000857D01*
X025627Y000857D01*
X025725Y000898D01*
X025801Y000973D01*
X025841Y001072D01*
X025841Y001178D01*
X025814Y001245D01*
X025814Y001359D01*
X025841Y001426D01*
X025841Y001532D01*
X025824Y001575D01*
X025826Y001575D01*
X025967Y001575D01*
X025967Y002208D01*
X026266Y002208D01*
X026266Y002272D01*
X026486Y002180D01*
X026787Y002180D01*
X027065Y002295D01*
X027277Y002508D01*
X027392Y002786D01*
X027392Y003086D01*
X027277Y003364D01*
X027065Y003576D01*
X026787Y003691D01*
X026486Y003691D01*
X026266Y003600D01*
X026266Y003664D01*
X025967Y003664D01*
X025967Y004297D01*
X025840Y004297D01*
X025841Y004300D01*
X025841Y004406D01*
X025801Y004505D01*
X025725Y004580D01*
X025627Y004621D01*
X025520Y004621D01*
X025422Y004580D01*
X025347Y004505D01*
X025306Y004406D01*
X025306Y004300D01*
X025332Y004237D01*
X025039Y004237D01*
X025015Y004261D01*
X024974Y004285D01*
X024928Y004297D01*
X024786Y004297D01*
X024644Y004297D01*
X024633Y004294D01*
X024633Y004362D01*
X024596Y004450D01*
X024529Y004517D01*
X024440Y004554D01*
X024345Y004554D01*
X024257Y004517D01*
X024196Y004456D01*
X024135Y004517D01*
X024047Y004554D01*
X023951Y004554D01*
X023863Y004517D01*
X023795Y004450D01*
X023759Y004362D01*
X023759Y004294D01*
X023747Y004297D01*
X023605Y004297D01*
X023463Y004297D01*
X023451Y004294D01*
X023451Y004362D01*
X023415Y004450D01*
X023347Y004517D01*
X023259Y004554D01*
X023164Y004554D01*
X023076Y004517D01*
X023015Y004456D01*
X022954Y004517D01*
X022866Y004554D01*
X022770Y004554D01*
X022682Y004517D01*
X022614Y004450D01*
X022578Y004362D01*
X022578Y004294D01*
X022566Y004297D01*
X022424Y004297D01*
X022282Y004297D01*
X022270Y004294D01*
X022270Y004362D01*
X022234Y004450D01*
X022166Y004517D01*
X022078Y004554D01*
X021983Y004554D01*
X021894Y004517D01*
X021834Y004456D01*
X021773Y004517D01*
X021684Y004554D01*
X021589Y004554D01*
X021501Y004517D01*
X021433Y004450D01*
X021397Y004362D01*
X021397Y004294D01*
X021385Y004297D01*
X021243Y004297D01*
X021243Y003664D01*
X021243Y003031D01*
X021243Y003664D01*
X021243Y003664D01*
X021243Y004297D01*
X021101Y004297D01*
X021089Y004294D01*
X021089Y004362D01*
X021053Y004450D01*
X020985Y004517D01*
X020897Y004554D01*
X020802Y004554D01*
X020713Y004517D01*
X020652Y004456D01*
X020592Y004517D01*
X020503Y004554D01*
X020408Y004554D01*
X020320Y004517D01*
X020252Y004450D01*
X020216Y004362D01*
X020216Y004294D01*
X020204Y004297D01*
X020062Y004297D01*
X020062Y003664D01*
X020062Y003031D01*
X020062Y003664D01*
X020062Y003664D01*
X020062Y003664D01*
X020062Y004297D01*
X019920Y004297D01*
X019908Y004294D01*
X019908Y004362D01*
X019872Y004450D01*
X019804Y004517D01*
X019716Y004554D01*
X019620Y004554D01*
X019532Y004517D01*
X019471Y004456D01*
X019410Y004517D01*
X019322Y004554D01*
X019227Y004554D01*
X019139Y004517D01*
X019071Y004450D01*
X019034Y004362D01*
X019034Y004294D01*
X019023Y004297D01*
X018881Y004297D01*
X018881Y003664D01*
X018881Y003031D01*
X018881Y003664D01*
X018881Y003664D01*
X018881Y003664D01*
X018881Y004297D01*
X018739Y004297D01*
X018727Y004294D01*
X018727Y004362D01*
X018691Y004450D01*
X018623Y004517D01*
X018535Y004554D01*
X018439Y004554D01*
X018351Y004517D01*
X018290Y004456D01*
X018229Y004517D01*
X018141Y004554D01*
X018046Y004554D01*
X017957Y004517D01*
X017890Y004450D01*
X017853Y004362D01*
X017853Y004294D01*
X017841Y004297D01*
X017700Y004297D01*
X017700Y003664D01*
X017700Y003031D01*
X017700Y003664D01*
X017700Y003664D01*
X017700Y003664D01*
X017700Y004297D01*
X017558Y004297D01*
X017546Y004294D01*
X017546Y004362D01*
X017509Y004450D01*
X017442Y004517D01*
X017354Y004554D01*
X017258Y004554D01*
X017170Y004517D01*
X017109Y004456D01*
X017048Y004517D01*
X016960Y004554D01*
X016865Y004554D01*
X016776Y004517D01*
X016709Y004450D01*
X016672Y004362D01*
X016672Y004294D01*
X016660Y004297D01*
X016519Y004297D01*
X016519Y003664D01*
X016519Y003031D01*
X016519Y003664D01*
X016519Y003664D01*
X016519Y003664D01*
X016519Y004297D01*
X016377Y004297D01*
X016365Y004294D01*
X016365Y004362D01*
X016328Y004450D01*
X016261Y004517D01*
X016173Y004554D01*
X016077Y004554D01*
X015989Y004517D01*
X015928Y004456D01*
X015867Y004517D01*
X015779Y004554D01*
X015683Y004554D01*
X015595Y004517D01*
X015528Y004450D01*
X015491Y004362D01*
X015491Y004294D01*
X015479Y004297D01*
X015337Y004297D01*
X015196Y004297D01*
X015184Y004294D01*
X015184Y004362D01*
X015183Y004363D01*
X015183Y004515D01*
X015111Y004587D01*
X018317Y004587D01*
X018411Y004681D01*
X020340Y006610D01*
X020340Y008632D01*
X020246Y008726D01*
X019734Y009238D01*
X019136Y009238D01*
X019086Y009288D01*
X018912Y009288D01*
X018789Y009165D01*
X018789Y008991D01*
X018868Y008912D01*
X018868Y008754D01*
X018991Y008631D01*
X019061Y008631D01*
X019784Y007909D01*
X019784Y006860D01*
X018066Y005143D01*
X015645Y005143D01*
X015655Y005153D01*
X017648Y007146D01*
X017799Y007146D01*
X017849Y007096D01*
X018023Y007096D01*
X018146Y007219D01*
X018146Y007393D01*
X018023Y007516D01*
X017849Y007516D01*
X017799Y007466D01*
X017648Y007466D01*
X017515Y007466D01*
X016121Y006072D01*
X016015Y006177D01*
X015841Y006177D01*
X015718Y006054D01*
X015718Y005880D01*
X015824Y005775D01*
X015429Y005379D01*
X014621Y005379D01*
X015135Y005892D01*
X015150Y005855D01*
X015225Y005780D01*
X015324Y005739D01*
X015430Y005739D01*
X015528Y005780D01*
X015604Y005855D01*
X015644Y005954D01*
X015644Y006060D01*
X015604Y006158D01*
X015528Y006234D01*
X015491Y006249D01*
X016994Y007752D01*
X016994Y010783D01*
X017165Y010954D01*
X017235Y010954D01*
X017359Y011077D01*
X017359Y011251D01*
X017235Y011374D01*
X017062Y011374D01*
X016939Y011251D01*
X016939Y011181D01*
X016767Y011009D01*
X016674Y010916D01*
X016674Y007884D01*
X013668Y004878D01*
X013574Y004878D01*
X013529Y004923D01*
X013529Y004935D02*
X013724Y004935D01*
X013883Y005094D02*
X013529Y005094D01*
X013529Y005252D02*
X014041Y005252D01*
X013901Y005411D02*
X014200Y005411D01*
X014358Y005569D02*
X013971Y005569D01*
X013832Y005728D02*
X014517Y005728D01*
X014675Y005886D02*
X013674Y005886D01*
X013538Y006045D02*
X014834Y006045D01*
X014992Y006203D02*
X013538Y006203D01*
X013538Y006362D02*
X015151Y006362D01*
X015309Y006520D02*
X013557Y006520D01*
X013716Y006679D02*
X015468Y006679D01*
X015626Y006837D02*
X013874Y006837D01*
X014033Y006996D02*
X015785Y006996D01*
X015943Y007154D02*
X014191Y007154D01*
X014350Y007313D02*
X015349Y007313D01*
X015369Y007293D02*
X015543Y007293D01*
X015666Y007416D01*
X015666Y007590D01*
X015543Y007713D01*
X015369Y007713D01*
X015246Y007590D01*
X015246Y007416D01*
X015369Y007293D01*
X015562Y007313D02*
X016102Y007313D01*
X016260Y007471D02*
X015666Y007471D01*
X015626Y007630D02*
X016419Y007630D01*
X016577Y007788D02*
X014825Y007788D01*
X014667Y007630D02*
X015285Y007630D01*
X015246Y007471D02*
X014508Y007471D01*
X014214Y007630D02*
X013538Y007630D01*
X013538Y007788D02*
X014373Y007788D01*
X014531Y007947D02*
X013538Y007947D01*
X013538Y008105D02*
X014690Y008105D01*
X014848Y008264D02*
X013538Y008264D01*
X013382Y008422D02*
X013961Y008422D01*
X013929Y008454D02*
X014005Y008378D01*
X014103Y008338D01*
X014210Y008338D01*
X014308Y008378D01*
X014383Y008454D01*
X014395Y008482D01*
X014457Y008456D01*
X014564Y008456D01*
X014662Y008496D01*
X014738Y008572D01*
X014778Y008670D01*
X014778Y008777D01*
X014738Y008875D01*
X014662Y008950D01*
X014564Y008991D01*
X014457Y008991D01*
X014359Y008950D01*
X014284Y008875D01*
X014272Y008847D01*
X014210Y008873D01*
X014103Y008873D01*
X014005Y008832D01*
X013929Y008757D01*
X013889Y008658D01*
X013889Y008552D01*
X013929Y008454D01*
X013889Y008581D02*
X013293Y008581D01*
X013293Y008739D02*
X013922Y008739D01*
X014306Y008898D02*
X013293Y008898D01*
X013293Y009056D02*
X015374Y009056D01*
X015374Y008898D02*
X014715Y008898D01*
X014778Y008739D02*
X015324Y008739D01*
X015165Y008581D02*
X014741Y008581D01*
X015007Y008422D02*
X014352Y008422D01*
X014984Y007947D02*
X016674Y007947D01*
X016674Y008105D02*
X015142Y008105D01*
X015301Y008264D02*
X016674Y008264D01*
X016674Y008422D02*
X015459Y008422D01*
X015618Y008581D02*
X016674Y008581D01*
X016674Y008739D02*
X015694Y008739D01*
X015694Y008898D02*
X016674Y008898D01*
X016674Y009056D02*
X015694Y009056D01*
X015694Y009215D02*
X016674Y009215D01*
X016674Y009373D02*
X015694Y009373D01*
X015694Y009532D02*
X016674Y009532D01*
X016674Y009690D02*
X015694Y009690D01*
X015694Y009849D02*
X016674Y009849D01*
X016674Y010007D02*
X015587Y010007D01*
X015374Y009690D02*
X013293Y009690D01*
X013293Y009532D02*
X014589Y009532D01*
X014537Y009480D02*
X014537Y009306D01*
X014660Y009183D01*
X014834Y009183D01*
X014957Y009306D01*
X014957Y009480D01*
X014834Y009603D01*
X014660Y009603D01*
X014537Y009480D01*
X014537Y009373D02*
X013293Y009373D01*
X013293Y009215D02*
X014628Y009215D01*
X014866Y009215D02*
X015374Y009215D01*
X015374Y009373D02*
X014957Y009373D01*
X014905Y009532D02*
X015374Y009532D01*
X015175Y009849D02*
X013293Y009849D01*
X013293Y010007D02*
X015167Y010007D01*
X015163Y010483D02*
X013543Y010483D01*
X013702Y010641D02*
X015005Y010641D01*
X014846Y010800D02*
X013860Y010800D01*
X013913Y011246D02*
X014144Y011477D01*
X014996Y011477D01*
X015172Y011300D01*
X015107Y011273D01*
X015032Y011198D01*
X014993Y011105D01*
X014946Y011152D01*
X014853Y011246D01*
X013913Y011246D01*
X013942Y011275D02*
X015112Y011275D01*
X015039Y011434D02*
X014101Y011434D01*
X013571Y011751D02*
X012869Y011751D01*
X012869Y011909D02*
X013730Y011909D01*
X013413Y011592D02*
X012869Y011592D01*
X012869Y011434D02*
X013254Y011434D01*
X013096Y011275D02*
X012869Y011275D01*
X012869Y011117D02*
X012937Y011117D01*
X012570Y011117D02*
X000710Y011117D01*
X000710Y011275D02*
X012570Y011275D01*
X012570Y011434D02*
X010828Y011434D01*
X010804Y011410D02*
X010879Y011485D01*
X010920Y011583D01*
X010920Y011690D01*
X010879Y011788D01*
X010804Y011864D01*
X010706Y011904D01*
X010599Y011904D01*
X010501Y011864D01*
X010426Y011788D01*
X010385Y011690D01*
X010385Y011583D01*
X010426Y011485D01*
X010501Y011410D01*
X010599Y011369D01*
X010706Y011369D01*
X010804Y011410D01*
X010920Y011592D02*
X012570Y011592D01*
X012570Y011751D02*
X010895Y011751D01*
X010410Y011751D02*
X000710Y011751D01*
X000710Y011909D02*
X012570Y011909D01*
X012570Y012068D02*
X000710Y012068D01*
X000710Y012226D02*
X012570Y012226D01*
X012570Y012385D02*
X000710Y012385D01*
X000710Y012543D02*
X012570Y012543D01*
X012570Y012702D02*
X000710Y012702D01*
X000710Y012860D02*
X012513Y012860D01*
X012354Y013019D02*
X000710Y013019D01*
X000710Y013177D02*
X012196Y013177D01*
X012445Y013336D02*
X023987Y013336D01*
X023987Y013177D02*
X012603Y013177D01*
X012762Y013019D02*
X023987Y013019D01*
X023987Y012860D02*
X012869Y012860D01*
X012869Y012702D02*
X023987Y012702D01*
X023987Y012543D02*
X012869Y012543D01*
X012869Y012385D02*
X023987Y012385D01*
X023987Y012226D02*
X012869Y012226D01*
X012869Y012068D02*
X016580Y012068D01*
X016587Y012084D02*
X016546Y011985D01*
X016546Y011879D01*
X016587Y011780D01*
X016662Y011705D01*
X016761Y011664D01*
X016867Y011664D01*
X016965Y011705D01*
X017041Y011780D01*
X017081Y011879D01*
X017081Y011985D01*
X017041Y012084D01*
X016965Y012159D01*
X016867Y012200D01*
X016761Y012200D01*
X016662Y012159D01*
X016587Y012084D01*
X016546Y011909D02*
X015291Y011909D01*
X015450Y011751D02*
X016617Y011751D01*
X016430Y011592D02*
X019413Y011592D01*
X019402Y011603D02*
X019477Y011528D01*
X019576Y011487D01*
X019682Y011487D01*
X019780Y011528D01*
X019856Y011603D01*
X019896Y011702D01*
X019896Y011808D01*
X019856Y011906D01*
X019780Y011982D01*
X019682Y012022D01*
X019576Y012022D01*
X019477Y011982D01*
X019402Y011906D01*
X019361Y011808D01*
X019361Y011702D01*
X019402Y011603D01*
X019361Y011751D02*
X017011Y011751D01*
X017081Y011909D02*
X019405Y011909D01*
X019853Y011909D02*
X023987Y011909D01*
X023987Y011751D02*
X019896Y011751D01*
X019845Y011592D02*
X023987Y011592D01*
X023987Y011434D02*
X016511Y011434D01*
X016481Y011275D02*
X016962Y011275D01*
X016874Y011117D02*
X016689Y011117D01*
X016688Y010958D02*
X016716Y010958D01*
X016674Y010800D02*
X016414Y010800D01*
X016371Y010641D02*
X016674Y010641D01*
X016674Y010483D02*
X015866Y010483D01*
X016025Y010641D02*
X016036Y010641D01*
X016048Y011117D02*
X015931Y011117D01*
X015925Y011275D02*
X016005Y011275D01*
X015975Y011434D02*
X015767Y011434D01*
X015608Y011592D02*
X016056Y011592D01*
X017047Y012068D02*
X023987Y012068D01*
X024326Y012068D02*
X030726Y012068D01*
X030698Y012079D02*
X030796Y012038D01*
X030903Y012038D01*
X031001Y012079D01*
X031076Y012154D01*
X031110Y012235D01*
X031139Y012235D01*
X031237Y012276D01*
X031312Y012351D01*
X031353Y012450D01*
X031353Y012556D01*
X031312Y012654D01*
X031237Y012730D01*
X031139Y012770D01*
X031032Y012770D01*
X030934Y012730D01*
X030859Y012654D01*
X030825Y012574D01*
X030796Y012574D01*
X030698Y012533D01*
X030622Y012458D01*
X030582Y012359D01*
X030582Y012253D01*
X030622Y012154D01*
X030698Y012079D01*
X030593Y012226D02*
X024326Y012226D01*
X024326Y012385D02*
X030592Y012385D01*
X030722Y012543D02*
X024326Y012543D01*
X024326Y012702D02*
X030906Y012702D01*
X031265Y012702D02*
X035083Y012702D01*
X035083Y012860D02*
X024326Y012860D01*
X024326Y013019D02*
X035083Y013019D01*
X035083Y013177D02*
X024326Y013177D01*
X024346Y013336D02*
X029126Y013336D01*
X029126Y013335D02*
X029202Y013260D01*
X029300Y013219D01*
X029406Y013219D01*
X029505Y013260D01*
X029580Y013335D01*
X029621Y013434D01*
X029621Y013540D01*
X029580Y013639D01*
X029505Y013714D01*
X029406Y013755D01*
X029300Y013755D01*
X029202Y013714D01*
X029126Y013639D01*
X029086Y013540D01*
X029086Y013434D01*
X029126Y013335D01*
X029086Y013494D02*
X024505Y013494D01*
X024663Y013653D02*
X029140Y013653D01*
X029566Y013653D02*
X030563Y013653D01*
X030560Y013654D02*
X030658Y013613D01*
X030765Y013613D01*
X030863Y013654D01*
X030938Y013729D01*
X030979Y013828D01*
X030979Y013934D01*
X030938Y014032D01*
X030863Y014108D01*
X030765Y014148D01*
X030658Y014148D01*
X030560Y014108D01*
X030485Y014032D01*
X030444Y013934D01*
X030444Y013828D01*
X030485Y013729D01*
X030560Y013654D01*
X030451Y013811D02*
X024822Y013811D01*
X024980Y013970D02*
X030459Y013970D01*
X030609Y014128D02*
X025139Y014128D01*
X025297Y014287D02*
X035083Y014287D01*
X035083Y014445D02*
X025456Y014445D01*
X025614Y014604D02*
X035083Y014604D01*
X035083Y014762D02*
X025773Y014762D01*
X025931Y014921D02*
X035083Y014921D01*
X035083Y015079D02*
X026090Y015079D01*
X026248Y015238D02*
X035083Y015238D01*
X035083Y015396D02*
X026407Y015396D01*
X026565Y015555D02*
X035083Y015555D01*
X035083Y015713D02*
X030423Y015713D01*
X030391Y015700D02*
X030489Y015741D01*
X030564Y015816D01*
X030605Y015914D01*
X030605Y016021D01*
X030564Y016119D01*
X030489Y016194D01*
X030391Y016235D01*
X030284Y016235D01*
X030186Y016194D01*
X030111Y016119D01*
X030070Y016021D01*
X030070Y015914D01*
X030111Y015816D01*
X030186Y015741D01*
X030284Y015700D01*
X030391Y015700D01*
X030252Y015713D02*
X029753Y015713D01*
X029721Y015700D02*
X029820Y015741D01*
X029895Y015816D01*
X029936Y015914D01*
X029936Y016021D01*
X029895Y016119D01*
X029820Y016194D01*
X029721Y016235D01*
X029615Y016235D01*
X029517Y016194D01*
X029441Y016119D01*
X029401Y016021D01*
X029401Y015914D01*
X029441Y015816D01*
X029517Y015741D01*
X029615Y015700D01*
X029721Y015700D01*
X029583Y015713D02*
X026724Y015713D01*
X026882Y015872D02*
X029418Y015872D01*
X029404Y016030D02*
X027041Y016030D01*
X027199Y016189D02*
X029511Y016189D01*
X029826Y016189D02*
X030180Y016189D01*
X030074Y016030D02*
X029932Y016030D01*
X029918Y015872D02*
X030088Y015872D01*
X030587Y015872D02*
X035083Y015872D01*
X035083Y016030D02*
X030601Y016030D01*
X030495Y016189D02*
X035083Y016189D01*
X035083Y016347D02*
X034283Y016347D01*
X034558Y016506D02*
X035083Y016506D01*
X035083Y016664D02*
X034767Y016664D01*
X034914Y016823D02*
X035083Y016823D01*
X035033Y016950D02*
X035033Y016950D01*
X035048Y016981D02*
X035083Y016981D01*
X033271Y016259D02*
X033271Y016259D01*
X033046Y016347D02*
X027358Y016347D01*
X027516Y016506D02*
X032724Y016506D01*
X032805Y016442D02*
X032805Y016442D01*
X032526Y016664D02*
X027675Y016664D01*
X027833Y016823D02*
X032366Y016823D01*
X032413Y016754D02*
X032413Y016754D01*
X032258Y016981D02*
X030994Y016981D01*
X031040Y017000D02*
X031116Y017076D01*
X031149Y017156D01*
X031178Y017156D01*
X031276Y017197D01*
X031352Y017272D01*
X031393Y017371D01*
X031393Y017477D01*
X031352Y017576D01*
X031276Y017651D01*
X031178Y017692D01*
X031072Y017692D01*
X030973Y017651D01*
X030898Y017576D01*
X030865Y017495D01*
X030835Y017495D01*
X030737Y017454D01*
X030662Y017379D01*
X030621Y017280D01*
X030621Y017174D01*
X030662Y017076D01*
X030737Y017000D01*
X030835Y016960D01*
X030942Y016960D01*
X031040Y017000D01*
X031142Y017140D02*
X032150Y017140D01*
X032091Y017298D02*
X031362Y017298D01*
X031393Y017457D02*
X032042Y017457D01*
X031993Y017615D02*
X031312Y017615D01*
X030937Y017615D02*
X028626Y017615D01*
X028784Y017774D02*
X031983Y017774D01*
X031983Y017932D02*
X028943Y017932D01*
X029101Y018091D02*
X031983Y018091D01*
X031983Y018147D02*
X031983Y018147D01*
X032015Y018249D02*
X029260Y018249D01*
X029418Y018408D02*
X032064Y018408D01*
X032113Y018566D02*
X029577Y018566D01*
X029735Y018725D02*
X032198Y018725D01*
X032307Y018883D02*
X029894Y018883D01*
X030052Y019042D02*
X032416Y019042D01*
X032413Y019039D02*
X032413Y019039D01*
X032615Y019200D02*
X030211Y019200D01*
X030369Y019359D02*
X032823Y019359D01*
X033226Y019517D02*
X030528Y019517D01*
X030686Y019676D02*
X035083Y019676D01*
X035083Y019834D02*
X030845Y019834D01*
X031003Y019993D02*
X035083Y019993D01*
X035083Y020468D02*
X000710Y020468D01*
X000710Y020310D02*
X030834Y020310D01*
X030676Y020151D02*
X000710Y020151D01*
X000710Y019993D02*
X030517Y019993D01*
X030359Y019834D02*
X000710Y019834D01*
X000710Y019676D02*
X030200Y019676D01*
X030042Y019517D02*
X002514Y019517D01*
X002274Y019572D02*
X002274Y019572D01*
X002762Y019460D02*
X002762Y019460D01*
X002939Y019359D02*
X029883Y019359D01*
X029725Y019200D02*
X003205Y019200D01*
X003352Y019042D02*
X029566Y019042D01*
X029408Y018883D02*
X003499Y018883D01*
X003537Y018843D02*
X003537Y018843D01*
X003594Y018725D02*
X029249Y018725D01*
X029091Y018566D02*
X003670Y018566D01*
X003746Y018408D02*
X028932Y018408D01*
X028774Y018249D02*
X003775Y018249D01*
X003754Y018392D02*
X003754Y018392D01*
X003799Y018091D02*
X028615Y018091D01*
X028457Y017932D02*
X003823Y017932D01*
X003810Y017774D02*
X028298Y017774D01*
X028140Y017615D02*
X003786Y017615D01*
X003762Y017457D02*
X027981Y017457D01*
X027823Y017298D02*
X003704Y017298D01*
X003628Y017140D02*
X027664Y017140D01*
X027506Y016981D02*
X003551Y016981D01*
X003537Y016950D02*
X003537Y016950D01*
X003418Y016823D02*
X027347Y016823D01*
X027189Y016664D02*
X003271Y016664D01*
X003062Y016506D02*
X027030Y016506D01*
X026872Y016347D02*
X002787Y016347D01*
X002762Y016333D02*
X002762Y016333D01*
X002274Y016221D02*
X002274Y016221D01*
X001775Y016259D02*
X001775Y016259D01*
X001550Y016347D02*
X000710Y016347D01*
X000710Y016189D02*
X026713Y016189D01*
X026555Y016030D02*
X000710Y016030D01*
X000710Y015872D02*
X026396Y015872D01*
X026238Y015713D02*
X000710Y015713D01*
X000710Y015555D02*
X026079Y015555D01*
X025921Y015396D02*
X000710Y015396D01*
X000710Y015238D02*
X025762Y015238D01*
X025604Y015079D02*
X000710Y015079D01*
X000710Y014921D02*
X025445Y014921D01*
X025287Y014762D02*
X000710Y014762D01*
X000710Y014604D02*
X025128Y014604D01*
X024970Y014445D02*
X000710Y014445D01*
X000710Y014287D02*
X024811Y014287D01*
X024653Y014128D02*
X000710Y014128D01*
X000710Y013970D02*
X024494Y013970D01*
X024336Y013811D02*
X000710Y013811D01*
X000710Y013653D02*
X024177Y013653D01*
X024019Y013494D02*
X012286Y013494D01*
X010385Y011592D02*
X000710Y011592D01*
X000710Y011434D02*
X010477Y011434D01*
X012570Y010958D02*
X000710Y010958D01*
X000710Y010800D02*
X012570Y010800D01*
X012500Y010641D02*
X000710Y010641D01*
X000710Y010483D02*
X012500Y010483D01*
X012500Y010324D02*
X000710Y010324D01*
X000710Y010166D02*
X012500Y010166D01*
X012500Y010007D02*
X000710Y010007D01*
X000710Y009849D02*
X012500Y009849D01*
X012500Y009690D02*
X000710Y009690D01*
X000710Y009532D02*
X012500Y009532D01*
X012500Y009373D02*
X000710Y009373D01*
X000710Y009215D02*
X012500Y009215D01*
X012500Y009056D02*
X009242Y009056D01*
X009229Y009068D02*
X009131Y009109D01*
X009024Y009109D01*
X008926Y009068D01*
X008851Y008993D01*
X008810Y008895D01*
X008810Y008788D01*
X008851Y008690D01*
X008926Y008615D01*
X009024Y008574D01*
X009131Y008574D01*
X009229Y008615D01*
X009305Y008690D01*
X009345Y008788D01*
X009345Y008895D01*
X009305Y008993D01*
X009229Y009068D01*
X009344Y008898D02*
X012500Y008898D01*
X012500Y008739D02*
X009325Y008739D01*
X009147Y008581D02*
X012500Y008581D01*
X012500Y008422D02*
X000710Y008422D01*
X000710Y008264D02*
X012500Y008264D01*
X012500Y008105D02*
X000710Y008105D01*
X000710Y007947D02*
X012500Y007947D01*
X012500Y007788D02*
X000710Y007788D01*
X000710Y007630D02*
X012500Y007630D01*
X012500Y007471D02*
X000710Y007471D01*
X000710Y007313D02*
X012500Y007313D01*
X013538Y007313D02*
X013897Y007313D01*
X014056Y007471D02*
X013538Y007471D01*
X013538Y007154D02*
X013739Y007154D01*
X013580Y006996D02*
X013538Y006996D01*
X015128Y005886D02*
X015137Y005886D01*
X014970Y005728D02*
X015777Y005728D01*
X015718Y005886D02*
X015617Y005886D01*
X015644Y006045D02*
X015718Y006045D01*
X015559Y006203D02*
X016252Y006203D01*
X016411Y006362D02*
X015604Y006362D01*
X015762Y006520D02*
X016569Y006520D01*
X016728Y006679D02*
X015921Y006679D01*
X016079Y006837D02*
X016886Y006837D01*
X017045Y006996D02*
X016238Y006996D01*
X016396Y007154D02*
X017203Y007154D01*
X017362Y007313D02*
X016555Y007313D01*
X016713Y007471D02*
X017804Y007471D01*
X018068Y007471D02*
X019447Y007471D01*
X019457Y007475D02*
X019359Y007434D01*
X019284Y007359D01*
X019243Y007261D01*
X019243Y007154D01*
X018081Y007154D01*
X018146Y007313D02*
X019264Y007313D01*
X019243Y007154D02*
X019284Y007056D01*
X019359Y006981D01*
X019457Y006940D01*
X019564Y006940D01*
X019662Y006981D01*
X019738Y007056D01*
X019778Y007154D01*
X019784Y007154D01*
X019778Y007154D02*
X019778Y007261D01*
X019738Y007359D01*
X019662Y007434D01*
X019564Y007475D01*
X019457Y007475D01*
X019574Y007471D02*
X019784Y007471D01*
X019784Y007313D02*
X019757Y007313D01*
X019784Y006996D02*
X019677Y006996D01*
X019760Y006837D02*
X017939Y006837D01*
X017927Y006867D02*
X017851Y006942D01*
X017753Y006983D01*
X017646Y006983D01*
X017548Y006942D01*
X017473Y006867D01*
X017432Y006769D01*
X017432Y006662D01*
X017473Y006564D01*
X017548Y006489D01*
X017646Y006448D01*
X017753Y006448D01*
X017851Y006489D01*
X017927Y006564D01*
X017967Y006662D01*
X017967Y006769D01*
X017927Y006867D01*
X017967Y006679D02*
X019602Y006679D01*
X019443Y006520D02*
X017883Y006520D01*
X017517Y006520D02*
X017022Y006520D01*
X017180Y006679D02*
X017432Y006679D01*
X017460Y006837D02*
X017339Y006837D01*
X017497Y006996D02*
X019344Y006996D01*
X019283Y007529D02*
X019109Y007529D01*
X019058Y007580D01*
X019007Y007529D01*
X018833Y007529D01*
X018782Y007580D01*
X018732Y007529D01*
X018558Y007529D01*
X018507Y007580D01*
X018456Y007529D01*
X018282Y007529D01*
X018159Y007652D01*
X018159Y007826D01*
X018282Y007949D01*
X018456Y007949D01*
X018507Y007898D01*
X018558Y007949D01*
X018732Y007949D01*
X018782Y007898D01*
X018833Y007949D01*
X019007Y007949D01*
X019058Y007898D01*
X019109Y007949D01*
X019283Y007949D01*
X019406Y007826D01*
X019406Y007652D01*
X019283Y007529D01*
X019383Y007630D02*
X019784Y007630D01*
X019784Y007788D02*
X019406Y007788D01*
X019285Y007947D02*
X019746Y007947D01*
X019588Y008105D02*
X016994Y008105D01*
X016994Y007947D02*
X018279Y007947D01*
X018459Y007947D02*
X018555Y007947D01*
X018734Y007947D02*
X018831Y007947D01*
X019010Y007947D02*
X019106Y007947D01*
X019429Y008264D02*
X016994Y008264D01*
X016994Y008422D02*
X019271Y008422D01*
X019112Y008581D02*
X016994Y008581D01*
X016994Y008739D02*
X018883Y008739D01*
X018868Y008898D02*
X016994Y008898D01*
X016994Y009056D02*
X018789Y009056D01*
X018839Y009215D02*
X016994Y009215D01*
X016994Y009373D02*
X019716Y009373D01*
X019716Y009339D02*
X019756Y009241D01*
X019832Y009166D01*
X019930Y009125D01*
X020036Y009125D01*
X020135Y009166D01*
X020210Y009241D01*
X020251Y009339D01*
X020251Y009446D01*
X020210Y009544D01*
X020135Y009619D01*
X020036Y009660D01*
X019930Y009660D01*
X019832Y009619D01*
X019756Y009544D01*
X019716Y009446D01*
X019716Y009339D01*
X019758Y009215D02*
X019783Y009215D01*
X019916Y009056D02*
X023987Y009056D01*
X023987Y009215D02*
X020184Y009215D01*
X020251Y009373D02*
X023987Y009373D01*
X023987Y009532D02*
X020215Y009532D01*
X019751Y009532D02*
X016994Y009532D01*
X016994Y009690D02*
X023987Y009690D01*
X023987Y009849D02*
X016994Y009849D01*
X016994Y010007D02*
X023987Y010007D01*
X023987Y010166D02*
X016994Y010166D01*
X016994Y010324D02*
X023987Y010324D01*
X023987Y010483D02*
X016994Y010483D01*
X016994Y010641D02*
X023987Y010641D01*
X023987Y010800D02*
X017010Y010800D01*
X017239Y010958D02*
X023987Y010958D01*
X023987Y011117D02*
X017359Y011117D01*
X017335Y011275D02*
X023987Y011275D01*
X024326Y011275D02*
X035083Y011275D01*
X035083Y011117D02*
X030582Y011117D01*
X030564Y011158D02*
X030489Y011234D01*
X030391Y011274D01*
X030284Y011274D01*
X030186Y011234D01*
X030111Y011158D01*
X030070Y011060D01*
X030070Y010954D01*
X030111Y010855D01*
X030186Y010780D01*
X030284Y010739D01*
X030391Y010739D01*
X030489Y010780D01*
X030564Y010855D01*
X030605Y010954D01*
X030605Y011060D01*
X030564Y011158D01*
X030605Y010958D02*
X035083Y010958D01*
X035083Y010800D02*
X030509Y010800D01*
X030166Y010800D02*
X029839Y010800D01*
X029820Y010780D02*
X029895Y010855D01*
X029936Y010954D01*
X029936Y011060D01*
X029895Y011158D01*
X029820Y011234D01*
X029721Y011274D01*
X029615Y011274D01*
X029517Y011234D01*
X029441Y011158D01*
X029401Y011060D01*
X029401Y010954D01*
X029441Y010855D01*
X029517Y010780D01*
X029615Y010739D01*
X029721Y010739D01*
X029820Y010780D01*
X029936Y010958D02*
X030070Y010958D01*
X030093Y011117D02*
X029912Y011117D01*
X029424Y011117D02*
X024326Y011117D01*
X024326Y010958D02*
X029401Y010958D01*
X029497Y010800D02*
X024326Y010800D01*
X024326Y010641D02*
X035083Y010641D01*
X035083Y010483D02*
X024326Y010483D01*
X024326Y010324D02*
X035083Y010324D01*
X035083Y010166D02*
X024326Y010166D01*
X024326Y010007D02*
X035083Y010007D01*
X035083Y009849D02*
X024326Y009849D01*
X024326Y009690D02*
X035083Y009690D01*
X035083Y009532D02*
X024326Y009532D01*
X024326Y009373D02*
X035083Y009373D01*
X035083Y009215D02*
X024326Y009215D01*
X024326Y009056D02*
X028717Y009056D01*
X028729Y009068D02*
X028654Y008993D01*
X028613Y008895D01*
X028613Y008788D01*
X028654Y008690D01*
X028729Y008615D01*
X028828Y008574D01*
X028857Y008574D01*
X028890Y008493D01*
X028965Y008418D01*
X029064Y008377D01*
X029170Y008377D01*
X029269Y008418D01*
X029344Y008493D01*
X029385Y008591D01*
X029385Y008698D01*
X029344Y008796D01*
X029269Y008871D01*
X029170Y008912D01*
X029141Y008912D01*
X029108Y008993D01*
X029032Y009068D01*
X028934Y009109D01*
X028828Y009109D01*
X028729Y009068D01*
X028614Y008898D02*
X024318Y008898D01*
X024158Y008739D02*
X028634Y008739D01*
X028811Y008581D02*
X023998Y008581D01*
X023838Y008422D02*
X028961Y008422D01*
X029273Y008422D02*
X035083Y008422D01*
X035083Y008264D02*
X030534Y008264D01*
X030525Y008284D02*
X030450Y008360D01*
X030351Y008400D01*
X030245Y008400D01*
X030147Y008360D01*
X030071Y008284D01*
X030030Y008186D01*
X030030Y008080D01*
X030071Y007981D01*
X030147Y007906D01*
X030245Y007865D01*
X030351Y007865D01*
X030450Y007906D01*
X030525Y007981D01*
X030566Y008080D01*
X030566Y008186D01*
X030525Y008284D01*
X030566Y008105D02*
X035083Y008105D01*
X035083Y007947D02*
X030490Y007947D01*
X030106Y007947D02*
X029821Y007947D01*
X029856Y007981D02*
X029896Y008080D01*
X029896Y008186D01*
X029856Y008284D01*
X029780Y008360D01*
X029682Y008400D01*
X029576Y008400D01*
X029477Y008360D01*
X029402Y008284D01*
X029361Y008186D01*
X029361Y008080D01*
X029402Y007981D01*
X029477Y007906D01*
X029576Y007865D01*
X029682Y007865D01*
X029780Y007906D01*
X029856Y007981D01*
X029896Y008105D02*
X030030Y008105D01*
X030063Y008264D02*
X029864Y008264D01*
X029393Y008264D02*
X023678Y008264D01*
X023518Y008105D02*
X029361Y008105D01*
X029437Y007947D02*
X023358Y007947D01*
X023198Y007788D02*
X035083Y007788D01*
X035083Y007630D02*
X023038Y007630D01*
X022878Y007471D02*
X035083Y007471D01*
X035083Y007313D02*
X022718Y007313D01*
X022558Y007154D02*
X035083Y007154D01*
X035083Y006996D02*
X022398Y006996D01*
X022238Y006837D02*
X035083Y006837D01*
X035083Y006679D02*
X022078Y006679D01*
X021918Y006520D02*
X035083Y006520D01*
X035083Y006362D02*
X027749Y006362D01*
X027773Y006352D02*
X027674Y006393D01*
X027568Y006393D01*
X027469Y006352D01*
X027394Y006276D01*
X027353Y006178D01*
X027353Y006072D01*
X027394Y005973D01*
X027469Y005898D01*
X027550Y005865D01*
X027550Y005835D01*
X027591Y005737D01*
X027666Y005662D01*
X027765Y005621D01*
X027871Y005621D01*
X027969Y005662D01*
X028045Y005737D01*
X028085Y005835D01*
X028085Y005942D01*
X028045Y006040D01*
X027969Y006116D01*
X027889Y006149D01*
X027889Y006178D01*
X027848Y006276D01*
X027773Y006352D01*
X027878Y006203D02*
X035083Y006203D01*
X035083Y006045D02*
X029880Y006045D01*
X029899Y006037D02*
X029800Y006078D01*
X029694Y006078D01*
X029595Y006037D01*
X029520Y005962D01*
X029479Y005863D01*
X029479Y005757D01*
X029520Y005658D01*
X029595Y005583D01*
X029694Y005542D01*
X029800Y005542D01*
X029899Y005583D01*
X029974Y005658D01*
X030015Y005757D01*
X030015Y005863D01*
X029974Y005962D01*
X029899Y006037D01*
X030005Y005886D02*
X030163Y005886D01*
X030147Y005879D02*
X030071Y005804D01*
X030030Y005706D01*
X030030Y005599D01*
X030071Y005501D01*
X030147Y005426D01*
X030245Y005385D01*
X030351Y005385D01*
X030450Y005426D01*
X030525Y005501D01*
X030566Y005599D01*
X030566Y005706D01*
X030525Y005804D01*
X030450Y005879D01*
X030351Y005920D01*
X030245Y005920D01*
X030147Y005879D01*
X030040Y005728D02*
X030002Y005728D01*
X030043Y005569D02*
X029865Y005569D01*
X029629Y005569D02*
X020957Y005569D01*
X020797Y005411D02*
X030183Y005411D01*
X030413Y005411D02*
X035083Y005411D01*
X035083Y005569D02*
X030553Y005569D01*
X030557Y005728D02*
X035083Y005728D01*
X035083Y005886D02*
X030434Y005886D01*
X029614Y006045D02*
X028040Y006045D01*
X028085Y005886D02*
X029489Y005886D01*
X029491Y005728D02*
X028035Y005728D01*
X027600Y005728D02*
X021117Y005728D01*
X021277Y005886D02*
X027498Y005886D01*
X027365Y006045D02*
X021437Y006045D01*
X021597Y006203D02*
X027364Y006203D01*
X027493Y006362D02*
X021757Y006362D01*
X021454Y006520D02*
X020250Y006520D01*
X020340Y006679D02*
X021613Y006679D01*
X021771Y006837D02*
X020340Y006837D01*
X020340Y006996D02*
X021930Y006996D01*
X022088Y007154D02*
X020340Y007154D01*
X020340Y007313D02*
X022247Y007313D01*
X022405Y007471D02*
X020859Y007471D01*
X020863Y007473D02*
X020916Y007526D01*
X020954Y007511D01*
X021060Y007511D01*
X021158Y007552D01*
X021234Y007627D01*
X021274Y007725D01*
X021274Y007832D01*
X021234Y007930D01*
X021158Y008005D01*
X021060Y008046D01*
X021038Y008046D01*
X021038Y008068D01*
X020997Y008166D01*
X020922Y008242D01*
X020824Y008282D01*
X020717Y008282D01*
X020619Y008242D01*
X020544Y008166D01*
X020503Y008068D01*
X020503Y007961D01*
X020530Y007896D01*
X020485Y007851D01*
X020444Y007753D01*
X020444Y007646D01*
X020485Y007548D01*
X020560Y007473D01*
X020658Y007432D01*
X020765Y007432D01*
X020863Y007473D01*
X020564Y007471D02*
X020340Y007471D01*
X020340Y007630D02*
X020451Y007630D01*
X020458Y007788D02*
X020340Y007788D01*
X020340Y007947D02*
X020509Y007947D01*
X020518Y008105D02*
X020340Y008105D01*
X020340Y008264D02*
X020672Y008264D01*
X020869Y008264D02*
X023198Y008264D01*
X023356Y008422D02*
X020340Y008422D01*
X020340Y008581D02*
X023515Y008581D01*
X023673Y008739D02*
X020233Y008739D01*
X020075Y008898D02*
X023832Y008898D01*
X023039Y008105D02*
X021023Y008105D01*
X021217Y007947D02*
X022881Y007947D01*
X022722Y007788D02*
X021274Y007788D01*
X021235Y007630D02*
X022564Y007630D01*
X021296Y006362D02*
X020092Y006362D01*
X019933Y006203D02*
X021137Y006203D01*
X020979Y006045D02*
X019775Y006045D01*
X019616Y005886D02*
X020820Y005886D01*
X020662Y005728D02*
X019458Y005728D01*
X019299Y005569D02*
X020503Y005569D01*
X020345Y005411D02*
X019141Y005411D01*
X018982Y005252D02*
X020186Y005252D01*
X020028Y005094D02*
X018824Y005094D01*
X018665Y004935D02*
X019893Y004935D01*
X019967Y004777D02*
X018507Y004777D01*
X018348Y004618D02*
X025514Y004618D01*
X025634Y004618D02*
X027550Y004618D01*
X027550Y004615D02*
X027591Y004517D01*
X027666Y004441D01*
X027765Y004401D01*
X027871Y004401D01*
X027969Y004441D01*
X028045Y004517D01*
X028085Y004615D01*
X028085Y004721D01*
X028045Y004820D01*
X027969Y004895D01*
X027871Y004936D01*
X027765Y004936D01*
X027666Y004895D01*
X027591Y004820D01*
X027550Y004721D01*
X027550Y004615D01*
X027573Y004777D02*
X020157Y004777D01*
X020008Y004735D02*
X020008Y004735D01*
X019969Y004774D02*
X019969Y004774D01*
X020317Y004935D02*
X027763Y004935D01*
X027873Y004935D02*
X035083Y004935D01*
X035083Y004777D02*
X028063Y004777D01*
X028085Y004618D02*
X035083Y004618D01*
X035083Y004460D02*
X027988Y004460D01*
X027871Y004267D02*
X027765Y004267D01*
X027666Y004226D01*
X027591Y004151D01*
X027550Y004052D01*
X027550Y003946D01*
X027591Y003847D01*
X027666Y003772D01*
X027765Y003731D01*
X027871Y003731D01*
X027969Y003772D01*
X028045Y003847D01*
X028085Y003946D01*
X028085Y004052D01*
X028045Y004151D01*
X027969Y004226D01*
X027871Y004267D01*
X028048Y004143D02*
X035083Y004143D01*
X035083Y004301D02*
X025841Y004301D01*
X025967Y004297D02*
X025967Y003664D01*
X025967Y003664D01*
X025967Y003664D01*
X026266Y003664D01*
X026266Y004141D01*
X026253Y004186D01*
X026230Y004228D01*
X026196Y004261D01*
X026155Y004285D01*
X026109Y004297D01*
X025967Y004297D01*
X025967Y004143D02*
X025967Y004143D01*
X025967Y003984D02*
X025967Y003984D01*
X025967Y003826D02*
X025967Y003826D01*
X025967Y003667D02*
X025967Y003667D01*
X026266Y003667D02*
X026427Y003667D01*
X026266Y003826D02*
X027613Y003826D01*
X027550Y003984D02*
X026266Y003984D01*
X026265Y004143D02*
X027588Y004143D01*
X027648Y004460D02*
X025819Y004460D01*
X025328Y004460D02*
X024586Y004460D01*
X024633Y004301D02*
X025306Y004301D01*
X024786Y004297D02*
X024786Y003664D01*
X024786Y004297D01*
X024786Y004143D02*
X024786Y004143D01*
X024786Y003984D02*
X024786Y003984D01*
X024786Y003826D02*
X024786Y003826D01*
X024786Y003667D02*
X024786Y003667D01*
X024786Y003664D02*
X024786Y003664D01*
X024786Y003509D02*
X024786Y003509D01*
X024786Y003350D02*
X024786Y003350D01*
X024786Y003192D02*
X024786Y003192D01*
X024786Y003033D02*
X024786Y003033D01*
X024639Y003033D02*
X023753Y003033D01*
X023605Y003033D02*
X023605Y003033D01*
X023458Y003033D02*
X022572Y003033D01*
X022424Y003033D02*
X022424Y003033D01*
X022277Y003033D02*
X021390Y003033D01*
X021243Y003033D02*
X021243Y003033D01*
X021096Y003033D02*
X020209Y003033D01*
X020062Y003033D02*
X020062Y003033D01*
X019914Y003033D02*
X019028Y003033D01*
X018881Y003033D02*
X018881Y003033D01*
X018733Y003033D02*
X017847Y003033D01*
X017700Y003033D02*
X017700Y003033D01*
X017552Y003033D02*
X016666Y003033D01*
X016519Y003033D02*
X016519Y003033D01*
X016371Y003033D02*
X015485Y003033D01*
X015337Y003033D02*
X015337Y003033D01*
X015190Y003033D02*
X015183Y003033D01*
X015183Y002875D02*
X025309Y002875D01*
X025324Y003033D02*
X024934Y003033D01*
X024786Y002716D02*
X024786Y002716D01*
X024786Y002558D02*
X024786Y002558D01*
X024786Y002399D02*
X024786Y002399D01*
X024786Y002241D02*
X024786Y002241D01*
X024786Y002082D02*
X024786Y002082D01*
X024786Y001924D02*
X024786Y001924D01*
X024786Y001765D02*
X024786Y001765D01*
X024786Y001607D02*
X024786Y001607D01*
X024565Y001607D02*
X023826Y001607D01*
X023605Y001607D02*
X023605Y001607D01*
X023605Y001765D02*
X023605Y001765D01*
X023605Y001924D02*
X023605Y001924D01*
X023605Y002082D02*
X023605Y002082D01*
X023605Y002241D02*
X023605Y002241D01*
X023605Y002399D02*
X023605Y002399D01*
X023605Y002558D02*
X023605Y002558D01*
X023605Y002716D02*
X023605Y002716D01*
X023605Y003192D02*
X023605Y003192D01*
X023605Y003350D02*
X023605Y003350D01*
X023605Y003509D02*
X023605Y003509D01*
X023605Y003664D02*
X023605Y004297D01*
X023605Y003664D01*
X023605Y003664D01*
X023605Y003667D02*
X023605Y003667D01*
X023605Y003826D02*
X023605Y003826D01*
X023605Y003984D02*
X023605Y003984D01*
X023605Y004143D02*
X023605Y004143D01*
X023451Y004301D02*
X023759Y004301D01*
X023805Y004460D02*
X023405Y004460D01*
X023018Y004460D02*
X023012Y004460D01*
X022624Y004460D02*
X022224Y004460D01*
X022270Y004301D02*
X022578Y004301D01*
X022424Y004297D02*
X022424Y003664D01*
X022424Y004297D01*
X022424Y004143D02*
X022424Y004143D01*
X022424Y003984D02*
X022424Y003984D01*
X022424Y003826D02*
X022424Y003826D01*
X022424Y003667D02*
X022424Y003667D01*
X022424Y003664D02*
X022424Y003664D01*
X022424Y003509D02*
X022424Y003509D01*
X022424Y003350D02*
X022424Y003350D01*
X022424Y003192D02*
X022424Y003192D01*
X022424Y002716D02*
X022424Y002716D01*
X022424Y002558D02*
X022424Y002558D01*
X022424Y002399D02*
X022424Y002399D01*
X022424Y002241D02*
X022424Y002241D01*
X022424Y002082D02*
X022424Y002082D01*
X022424Y001924D02*
X022424Y001924D01*
X022424Y001765D02*
X022424Y001765D01*
X022424Y001607D02*
X022424Y001607D01*
X022203Y001607D02*
X021464Y001607D01*
X021243Y001607D02*
X021243Y001607D01*
X021243Y001575D02*
X021243Y002208D01*
X021243Y002208D01*
X021243Y002208D01*
X021243Y001575D01*
X021243Y001765D02*
X021243Y001765D01*
X021243Y001924D02*
X021243Y001924D01*
X021243Y002082D02*
X021243Y002082D01*
X021243Y002241D02*
X021243Y002241D01*
X021243Y002399D02*
X021243Y002399D01*
X021243Y002558D02*
X021243Y002558D01*
X021243Y002716D02*
X021243Y002716D01*
X021243Y003192D02*
X021243Y003192D01*
X021243Y003350D02*
X021243Y003350D01*
X021243Y003509D02*
X021243Y003509D01*
X021243Y003664D02*
X021243Y003664D01*
X021243Y003667D02*
X021243Y003667D01*
X021243Y003826D02*
X021243Y003826D01*
X021243Y003984D02*
X021243Y003984D01*
X021243Y004143D02*
X021243Y004143D01*
X021089Y004301D02*
X021397Y004301D01*
X021443Y004460D02*
X021043Y004460D01*
X020656Y004460D02*
X020649Y004460D01*
X020262Y004460D02*
X019862Y004460D01*
X019908Y004301D02*
X020216Y004301D01*
X020062Y004143D02*
X020062Y004143D01*
X020062Y003984D02*
X020062Y003984D01*
X020062Y003826D02*
X020062Y003826D01*
X020062Y003667D02*
X020062Y003667D01*
X020062Y003509D02*
X020062Y003509D01*
X020062Y003350D02*
X020062Y003350D01*
X020062Y003192D02*
X020062Y003192D01*
X020062Y002716D02*
X020062Y002716D01*
X020062Y002558D02*
X020062Y002558D01*
X020062Y002399D02*
X020062Y002399D01*
X020062Y002241D02*
X020062Y002241D01*
X020062Y002208D02*
X020062Y001575D01*
X020062Y002208D01*
X020062Y002208D01*
X020062Y002082D02*
X020062Y002082D01*
X020062Y001924D02*
X020062Y001924D01*
X020062Y001765D02*
X020062Y001765D01*
X020062Y001607D02*
X020062Y001607D01*
X020283Y001607D02*
X021022Y001607D01*
X019841Y001607D02*
X019102Y001607D01*
X018881Y001607D02*
X018881Y001607D01*
X018881Y001575D02*
X018881Y002208D01*
X018881Y002208D01*
X018881Y001575D01*
X018881Y001765D02*
X018881Y001765D01*
X018881Y001924D02*
X018881Y001924D01*
X018881Y002082D02*
X018881Y002082D01*
X018881Y002241D02*
X018881Y002241D01*
X018881Y002399D02*
X018881Y002399D01*
X018881Y002558D02*
X018881Y002558D01*
X018881Y002716D02*
X018881Y002716D01*
X018881Y003192D02*
X018881Y003192D01*
X018881Y003350D02*
X018881Y003350D01*
X018881Y003509D02*
X018881Y003509D01*
X018881Y003667D02*
X018881Y003667D01*
X018881Y003826D02*
X018881Y003826D01*
X018881Y003984D02*
X018881Y003984D01*
X018881Y004143D02*
X018881Y004143D01*
X019034Y004301D02*
X018727Y004301D01*
X018681Y004460D02*
X019081Y004460D01*
X019468Y004460D02*
X019474Y004460D01*
X018293Y004460D02*
X018287Y004460D01*
X017900Y004460D02*
X017500Y004460D01*
X017546Y004301D02*
X017853Y004301D01*
X017700Y004143D02*
X017700Y004143D01*
X017700Y003984D02*
X017700Y003984D01*
X017700Y003826D02*
X017700Y003826D01*
X017700Y003667D02*
X017700Y003667D01*
X017700Y003509D02*
X017700Y003509D01*
X017700Y003350D02*
X017700Y003350D01*
X017700Y003192D02*
X017700Y003192D01*
X017700Y002716D02*
X017700Y002716D01*
X017700Y002558D02*
X017700Y002558D01*
X017700Y002399D02*
X017700Y002399D01*
X017700Y002241D02*
X017700Y002241D01*
X017700Y002208D02*
X017700Y001575D01*
X017700Y002208D01*
X017700Y002208D01*
X017700Y002082D02*
X017700Y002082D01*
X017700Y001924D02*
X017700Y001924D01*
X017700Y001765D02*
X017700Y001765D01*
X017700Y001607D02*
X017700Y001607D01*
X017921Y001607D02*
X018660Y001607D01*
X017546Y001448D02*
X025306Y001448D01*
X025334Y001290D02*
X017456Y001290D01*
X017156Y001290D02*
X015183Y001290D01*
X015183Y001448D02*
X017066Y001448D01*
X017066Y001607D02*
X016740Y001607D01*
X016519Y001607D02*
X016519Y001607D01*
X016519Y001575D02*
X016519Y002208D01*
X016519Y002208D01*
X016519Y001575D01*
X016519Y001765D02*
X016519Y001765D01*
X016519Y001924D02*
X016519Y001924D01*
X016519Y002082D02*
X016519Y002082D01*
X016519Y002241D02*
X016519Y002241D01*
X016519Y002399D02*
X016519Y002399D01*
X016519Y002558D02*
X016519Y002558D01*
X016519Y002716D02*
X016519Y002716D01*
X016519Y003192D02*
X016519Y003192D01*
X016519Y003350D02*
X016519Y003350D01*
X016519Y003509D02*
X016519Y003509D01*
X016519Y003667D02*
X016519Y003667D01*
X016519Y003826D02*
X016519Y003826D01*
X016519Y003984D02*
X016519Y003984D01*
X016519Y004143D02*
X016519Y004143D01*
X016672Y004301D02*
X016365Y004301D01*
X016319Y004460D02*
X016719Y004460D01*
X017106Y004460D02*
X017112Y004460D01*
X015931Y004460D02*
X015925Y004460D01*
X015537Y004460D02*
X015183Y004460D01*
X015184Y004301D02*
X015491Y004301D01*
X015337Y004297D02*
X015337Y003664D01*
X015337Y004297D01*
X015337Y004143D02*
X015337Y004143D01*
X015337Y003984D02*
X015337Y003984D01*
X015337Y003826D02*
X015337Y003826D01*
X015337Y003667D02*
X015337Y003667D01*
X015337Y003664D02*
X015337Y003664D01*
X015337Y003509D02*
X015337Y003509D01*
X015337Y003350D02*
X015337Y003350D01*
X015337Y003192D02*
X015337Y003192D01*
X015337Y002716D02*
X015337Y002716D01*
X015337Y002558D02*
X015337Y002558D01*
X015337Y002399D02*
X015337Y002399D01*
X015337Y002241D02*
X015337Y002241D01*
X015337Y002082D02*
X015337Y002082D01*
X015337Y001924D02*
X015337Y001924D01*
X015337Y001765D02*
X015337Y001765D01*
X015337Y001607D02*
X015337Y001607D01*
X015559Y001607D02*
X016297Y001607D01*
X015183Y001131D02*
X025306Y001131D01*
X025348Y000973D02*
X015183Y000973D01*
X015183Y000814D02*
X032654Y000814D01*
X032455Y000973D02*
X025800Y000973D01*
X025841Y001131D02*
X032328Y001131D01*
X032413Y001006D02*
X032413Y001006D01*
X032220Y001290D02*
X025814Y001290D01*
X025841Y001448D02*
X032122Y001448D01*
X032073Y001607D02*
X026189Y001607D01*
X026196Y001611D02*
X026230Y001644D01*
X026253Y001685D01*
X026266Y001731D01*
X026266Y002208D01*
X025967Y002208D01*
X025967Y002208D01*
X025967Y002208D01*
X025967Y001575D01*
X026109Y001575D01*
X026155Y001587D01*
X026196Y001611D01*
X026266Y001765D02*
X032024Y001765D01*
X031983Y001924D02*
X026266Y001924D01*
X026266Y002082D02*
X031983Y002082D01*
X031983Y002241D02*
X026932Y002241D01*
X027168Y002399D02*
X031983Y002399D01*
X032032Y002558D02*
X027298Y002558D01*
X027363Y002716D02*
X032081Y002716D01*
X032130Y002875D02*
X027392Y002875D01*
X027392Y003033D02*
X032237Y003033D01*
X032131Y002877D02*
X032131Y002877D01*
X032345Y003192D02*
X027349Y003192D01*
X027283Y003350D02*
X032487Y003350D01*
X032413Y003291D02*
X032413Y003291D01*
X032686Y003509D02*
X027133Y003509D01*
X026846Y003667D02*
X032967Y003667D01*
X033770Y003824D02*
X033770Y003824D01*
X034258Y003712D02*
X034258Y003712D01*
X034337Y003667D02*
X035083Y003667D01*
X035083Y003509D02*
X034611Y003509D01*
X034692Y003462D02*
X034692Y003462D01*
X034796Y003350D02*
X035083Y003350D01*
X035083Y003192D02*
X034943Y003192D01*
X035033Y003095D02*
X035033Y003095D01*
X035062Y003033D02*
X035083Y003033D01*
X035083Y003826D02*
X028023Y003826D01*
X028085Y003984D02*
X035083Y003984D01*
X035083Y005094D02*
X020477Y005094D01*
X020637Y005252D02*
X035083Y005252D01*
X035083Y008581D02*
X029380Y008581D01*
X029368Y008739D02*
X035083Y008739D01*
X035083Y008898D02*
X029206Y008898D01*
X029045Y009056D02*
X035083Y009056D01*
X035083Y011434D02*
X024326Y011434D01*
X024326Y011592D02*
X035083Y011592D01*
X035083Y011751D02*
X024326Y011751D01*
X024326Y011909D02*
X035083Y011909D01*
X035083Y012068D02*
X030973Y012068D01*
X031106Y012226D02*
X035083Y012226D01*
X035083Y012385D02*
X031326Y012385D01*
X031353Y012543D02*
X035083Y012543D01*
X035083Y013336D02*
X029580Y013336D01*
X029621Y013494D02*
X035083Y013494D01*
X035083Y013653D02*
X030860Y013653D01*
X030972Y013811D02*
X035083Y013811D01*
X035083Y013970D02*
X030964Y013970D01*
X030814Y014128D02*
X035083Y014128D01*
X030784Y016981D02*
X027992Y016981D01*
X028150Y017140D02*
X030635Y017140D01*
X030628Y017298D02*
X028309Y017298D01*
X028467Y017457D02*
X030743Y017457D01*
X033770Y019572D02*
X033770Y019572D01*
X034010Y019517D02*
X035083Y019517D01*
X035083Y019359D02*
X034435Y019359D01*
X034258Y019460D02*
X034258Y019460D01*
X034692Y019210D02*
X034692Y019210D01*
X034701Y019200D02*
X035083Y019200D01*
X035083Y019042D02*
X034848Y019042D01*
X034995Y018883D02*
X035083Y018883D01*
X035033Y018843D02*
X035033Y018843D01*
X035083Y020627D02*
X000710Y020627D01*
X000710Y020785D02*
X035083Y020785D01*
X035083Y020944D02*
X000710Y020944D01*
X000710Y021102D02*
X035083Y021102D01*
X035083Y021261D02*
X000710Y021261D01*
X000710Y021419D02*
X035083Y021419D01*
X035083Y021578D02*
X000710Y021578D01*
X000710Y019517D02*
X001730Y019517D01*
X001327Y019359D02*
X000710Y019359D01*
X000710Y019200D02*
X001119Y019200D01*
X000920Y019042D02*
X000710Y019042D01*
X000710Y018883D02*
X000810Y018883D01*
X000917Y019039D02*
X000917Y019039D01*
X000917Y019039D01*
X000762Y016981D02*
X000710Y016981D01*
X000710Y016823D02*
X000870Y016823D01*
X000917Y016754D02*
X000917Y016754D01*
X001030Y016664D02*
X000710Y016664D01*
X000710Y016506D02*
X001228Y016506D01*
X001309Y016442D02*
X001309Y016442D01*
X000710Y009056D02*
X006866Y009056D01*
X006879Y009068D02*
X006804Y008993D01*
X006763Y008895D01*
X006763Y008788D01*
X006804Y008690D01*
X006879Y008615D01*
X006977Y008574D01*
X007084Y008574D01*
X007182Y008615D01*
X007257Y008690D01*
X007298Y008788D01*
X007298Y008895D01*
X007257Y008993D01*
X007182Y009068D01*
X007084Y009109D01*
X006977Y009109D01*
X006879Y009068D01*
X006764Y008898D02*
X000710Y008898D01*
X000710Y008739D02*
X006783Y008739D01*
X006961Y008581D02*
X000710Y008581D01*
X007100Y008581D02*
X009008Y008581D01*
X008830Y008739D02*
X007278Y008739D01*
X007297Y008898D02*
X008811Y008898D01*
X008914Y009056D02*
X007194Y009056D01*
X013293Y010166D02*
X016674Y010166D01*
X016674Y010324D02*
X013385Y010324D01*
X014982Y011117D02*
X014998Y011117D01*
X019609Y008537D02*
X019702Y008575D01*
X019777Y008650D01*
X019804Y008716D01*
X020020Y008500D01*
X020020Y008125D01*
X020010Y008135D01*
X019609Y008537D01*
X019707Y008581D02*
X019939Y008581D01*
X020020Y008422D02*
X019723Y008422D01*
X019882Y008264D02*
X020020Y008264D01*
X018159Y007788D02*
X016994Y007788D01*
X016872Y007630D02*
X018182Y007630D01*
X019285Y006362D02*
X016863Y006362D01*
X016705Y006203D02*
X019126Y006203D01*
X018968Y006045D02*
X016546Y006045D01*
X016388Y005886D02*
X018809Y005886D01*
X018651Y005728D02*
X016229Y005728D01*
X016071Y005569D02*
X018492Y005569D01*
X018334Y005411D02*
X015912Y005411D01*
X015754Y005252D02*
X018175Y005252D01*
X015618Y005569D02*
X014811Y005569D01*
X014653Y005411D02*
X015460Y005411D01*
X013742Y005411D02*
X013529Y005411D01*
X013529Y005569D02*
X013584Y005569D01*
X009528Y002241D02*
X009452Y002241D01*
X009528Y001924D02*
X003795Y001924D01*
X013977Y001448D02*
X014983Y001448D01*
X014983Y001607D02*
X014003Y001607D01*
X021830Y004460D02*
X021837Y004460D01*
X024193Y004460D02*
X024199Y004460D01*
X025967Y002082D02*
X025967Y002082D01*
X025967Y001924D02*
X025967Y001924D01*
X025967Y001765D02*
X025967Y001765D01*
X025967Y001607D02*
X025967Y001607D01*
X025334Y001607D02*
X025008Y001607D01*
X026266Y002241D02*
X026341Y002241D01*
X023384Y001607D02*
X022645Y001607D01*
D12*
X022818Y004314D03*
X023211Y004314D03*
X023999Y004314D03*
X024393Y004314D03*
X022030Y004314D03*
X021637Y004314D03*
X020849Y004314D03*
X020456Y004314D03*
X019668Y004314D03*
X019274Y004314D03*
X018487Y004314D03*
X018093Y004314D03*
X017306Y004314D03*
X016912Y004314D03*
X016125Y004314D03*
X015731Y004314D03*
X014944Y004314D03*
X014550Y004314D03*
X014393Y004550D03*
X014117Y004550D03*
X013841Y004550D03*
X013605Y004668D03*
X013369Y004786D03*
X012404Y004944D03*
X011597Y004629D03*
X011794Y004314D03*
X012188Y004314D03*
X015141Y005416D03*
X015928Y005967D03*
X016007Y006322D03*
X016440Y007070D03*
X016007Y007267D03*
X015456Y007503D03*
X015889Y007936D03*
X016400Y008487D03*
X016007Y008920D03*
X016597Y008999D03*
X017149Y008605D03*
X017542Y008526D03*
X018054Y008920D03*
X017660Y008999D03*
X017897Y009393D03*
X017503Y009786D03*
X017149Y009904D03*
X017463Y010180D03*
X017149Y010377D03*
X016400Y009944D03*
X016637Y009668D03*
X016007Y009511D03*
X015731Y009274D03*
X015377Y009944D03*
X014589Y009904D03*
X014747Y009393D03*
X015141Y008664D03*
X014786Y008251D03*
X015101Y008015D03*
X014235Y007700D03*
X014274Y007188D03*
X012424Y007030D03*
X010889Y007621D03*
X010574Y008251D03*
X010574Y006991D03*
X012424Y008211D03*
X015574Y010692D03*
X015771Y010889D03*
X016204Y010771D03*
X016479Y011046D03*
X017149Y011164D03*
X018015Y010613D03*
X018290Y010298D03*
X017306Y009393D03*
X018999Y009078D03*
X019078Y008841D03*
X019826Y008645D03*
X019944Y008448D03*
X020377Y007641D03*
X019196Y007739D03*
X018920Y007739D03*
X018645Y007739D03*
X018369Y007739D03*
X018133Y007188D03*
X017936Y007306D03*
X017030Y007109D03*
X017109Y007936D03*
X016243Y005436D03*
X017306Y001479D03*
X013763Y001558D03*
X013369Y001558D03*
X012975Y001558D03*
X012188Y001558D03*
X011794Y001558D03*
D13*
X011361Y001479D03*
X012621Y001479D03*
X011519Y002897D03*
X012463Y003015D03*
X012582Y004353D03*
X011400Y004353D03*
X009727Y004334D03*
X009452Y003782D03*
X010101Y002936D03*
X009452Y002050D03*
X009924Y001499D03*
X007798Y001361D03*
X006794Y001637D03*
X005633Y001952D03*
X004845Y002562D03*
X004255Y001361D03*
X007995Y003723D03*
X006794Y004117D03*
X008152Y004983D03*
X009334Y006558D03*
X007562Y007818D03*
X007030Y008841D03*
X006932Y009629D03*
X007601Y010259D03*
X008389Y009904D03*
X008979Y009668D03*
X009609Y010259D03*
X010200Y009786D03*
X011381Y009826D03*
X011853Y009826D03*
X011853Y009314D03*
X013625Y009176D03*
X014156Y008605D03*
X014511Y008723D03*
X014865Y008743D03*
X013743Y008192D03*
X015633Y007759D03*
X015160Y006834D03*
X014176Y006676D03*
X013861Y006282D03*
X015377Y006007D03*
X017700Y005495D03*
X018271Y006046D03*
X017700Y006715D03*
X019452Y006676D03*
X019511Y007208D03*
X019019Y008251D03*
X019550Y008802D03*
X019983Y009393D03*
X019865Y009845D03*
X018999Y009747D03*
X019904Y010751D03*
X019255Y011125D03*
X019649Y011400D03*
X019629Y011755D03*
X020416Y012129D03*
X020751Y012503D03*
X021026Y011912D03*
X020456Y011302D03*
X018861Y010771D03*
X018507Y011243D03*
X018782Y011676D03*
X018369Y012267D03*
X017444Y012306D03*
X016814Y011932D03*
X016007Y012267D03*
X015495Y011873D03*
X016243Y011400D03*
X015259Y011046D03*
X014471Y011361D03*
X014038Y010810D03*
X012995Y011322D03*
X014609Y012306D03*
X012719Y013330D03*
X012208Y012621D03*
X011774Y012621D03*
X011223Y013054D03*
X010593Y012463D03*
X010652Y011637D03*
X009097Y011676D03*
X008546Y012778D03*
X007483Y013723D03*
X006341Y014629D03*
X004373Y013645D03*
X002050Y014747D03*
X003271Y015574D03*
X004649Y016755D03*
X006381Y016558D03*
X007247Y018015D03*
X008822Y016991D03*
X010475Y016204D03*
X011381Y015259D03*
X012837Y015298D03*
X014097Y015416D03*
X015790Y015023D03*
X016282Y015731D03*
X015810Y016164D03*
X016204Y016715D03*
X015849Y017070D03*
X015062Y016834D03*
X014786Y017227D03*
X014274Y017660D03*
X013999Y018015D03*
X014511Y018369D03*
X015101Y017857D03*
X015711Y018999D03*
X017208Y018330D03*
X017916Y017227D03*
X016912Y016007D03*
X017227Y015751D03*
X016735Y015180D03*
X017247Y014786D03*
X017483Y014511D03*
X018290Y014176D03*
X019097Y013979D03*
X018290Y013625D03*
X018369Y013133D03*
X017700Y012897D03*
X017700Y013566D03*
X016853Y013605D03*
X015239Y013723D03*
X013625Y014078D03*
X010475Y013999D03*
X008743Y015534D03*
X012326Y016400D03*
X010239Y018054D03*
X008822Y019235D03*
X009924Y020259D03*
X010711Y021086D03*
X012759Y021558D03*
X015397Y020889D03*
X016971Y020023D03*
X017916Y020889D03*
X018782Y019432D03*
X020318Y018211D03*
X021105Y019589D03*
X020318Y021046D03*
X022286Y021479D03*
X024609Y021125D03*
X027208Y020219D03*
X028704Y019708D03*
X029688Y019708D03*
X029294Y020495D03*
X030554Y020652D03*
X031538Y020928D03*
X032837Y021597D03*
X033231Y020692D03*
X032601Y019845D03*
X031617Y019649D03*
X032168Y018900D03*
X029845Y018271D03*
X028507Y018369D03*
X028664Y017286D03*
X029983Y016755D03*
X029668Y015967D03*
X030337Y015967D03*
X030869Y015278D03*
X029845Y014530D03*
X030711Y013881D03*
X030928Y013349D03*
X030062Y013349D03*
X029353Y013487D03*
X028586Y013074D03*
X027208Y013428D03*
X026519Y013979D03*
X026204Y013625D03*
X025692Y013113D03*
X025377Y012798D03*
X024826Y013507D03*
X025101Y013782D03*
X025613Y014334D03*
X026243Y014924D03*
X026479Y015160D03*
X026912Y015633D03*
X027542Y016263D03*
X028192Y015633D03*
X028664Y014924D03*
X027562Y015003D03*
X027129Y014550D03*
X024511Y014373D03*
X023684Y014570D03*
X023723Y015160D03*
X023684Y015672D03*
X023093Y015475D03*
X023093Y014845D03*
X022660Y014373D03*
X022385Y014137D03*
X021460Y014511D03*
X021774Y013526D03*
X021302Y013015D03*
X021696Y012582D03*
X022011Y012897D03*
X022503Y013389D03*
X023172Y014058D03*
X024471Y012916D03*
X023743Y012306D03*
X024471Y011971D03*
X024491Y011519D03*
X025357Y011952D03*
X026361Y012011D03*
X027149Y011479D03*
X026774Y011125D03*
X027837Y010928D03*
X027168Y010259D03*
X026538Y009570D03*
X025869Y010180D03*
X025397Y010377D03*
X025397Y010967D03*
X024511Y010495D03*
X024511Y009747D03*
X023782Y009747D03*
X024530Y009117D03*
X024334Y008645D03*
X025239Y008290D03*
X025515Y008566D03*
X025672Y009156D03*
X025397Y009708D03*
X026558Y008723D03*
X026066Y007956D03*
X025593Y007503D03*
X025318Y007227D03*
X024649Y007700D03*
X023625Y007897D03*
X022680Y008566D03*
X022050Y009117D03*
X021302Y009078D03*
X020908Y008605D03*
X020771Y008015D03*
X020711Y007700D03*
X021007Y007778D03*
X022601Y006873D03*
X022365Y006637D03*
X021893Y006164D03*
X022601Y005652D03*
X022365Y005416D03*
X023074Y004944D03*
X023979Y004708D03*
X024904Y004393D03*
X025574Y004353D03*
X027011Y004412D03*
X027818Y004668D03*
X027818Y003999D03*
X028448Y005259D03*
X029255Y005475D03*
X029747Y005810D03*
X030298Y005652D03*
X031026Y005869D03*
X031223Y006853D03*
X029885Y007365D03*
X029255Y006912D03*
X028704Y007385D03*
X029629Y008133D03*
X030298Y008133D03*
X031046Y008802D03*
X031814Y009019D03*
X032601Y008034D03*
X032995Y007050D03*
X034963Y008034D03*
X030337Y011007D03*
X029668Y011007D03*
X029983Y011794D03*
X030849Y012306D03*
X031086Y012503D03*
X028822Y012168D03*
X028448Y012168D03*
X027956Y011794D03*
X028881Y010219D03*
X028881Y008841D03*
X029117Y008645D03*
X026814Y007523D03*
X026086Y006794D03*
X025554Y006263D03*
X025160Y005869D03*
X024826Y005515D03*
X024058Y005967D03*
X024530Y006440D03*
X023625Y006676D03*
X023074Y006125D03*
X021696Y004747D03*
X020987Y005298D03*
X020672Y004983D03*
X020239Y004727D03*
X018586Y004629D03*
X020082Y005908D03*
X020928Y006263D03*
X016617Y004432D03*
X016558Y002995D03*
X017700Y002956D03*
X019117Y002916D03*
X020259Y002975D03*
X021361Y002916D03*
X022227Y002956D03*
X023723Y002916D03*
X024668Y002956D03*
X025574Y002936D03*
X026381Y002089D03*
X025987Y001420D03*
X025574Y001479D03*
X025574Y001125D03*
X024865Y001499D03*
X023526Y001460D03*
X022463Y001499D03*
X021204Y001499D03*
X020180Y001479D03*
X018723Y001499D03*
X017719Y001479D03*
X016263Y001479D03*
X015278Y001243D03*
X014865Y001125D03*
X015298Y002877D03*
X014865Y002975D03*
X009078Y008841D03*
X005121Y009117D03*
X003428Y010416D03*
X004215Y011834D03*
X001893Y012463D03*
X001420Y010652D03*
X002168Y009156D03*
X003310Y007778D03*
X004255Y006676D03*
X004255Y005889D03*
X004255Y005101D03*
X004255Y004117D03*
X002483Y005101D03*
X001302Y004117D03*
X001696Y006479D03*
X002877Y006479D03*
X000948Y007542D03*
X006853Y011715D03*
X001263Y015731D03*
X005160Y018448D03*
X004215Y019550D03*
X006066Y019589D03*
X005397Y020967D03*
X006853Y021558D03*
X008231Y021046D03*
X003074Y021164D03*
X001735Y019983D03*
X000948Y021558D03*
X013999Y018920D03*
X018704Y015298D03*
X017818Y015160D03*
X019845Y014471D03*
X020928Y015515D03*
X020515Y016440D03*
X021932Y016440D03*
X023093Y016460D03*
X023723Y016420D03*
X023782Y016755D03*
X023093Y017089D03*
X024885Y015967D03*
X026420Y016479D03*
X026932Y018211D03*
X025987Y018881D03*
X028074Y021400D03*
X031125Y017424D03*
X030889Y017227D03*
X034649Y020810D03*
X033664Y012916D03*
X033389Y011971D03*
X034767Y011774D03*
X027621Y006125D03*
X027818Y005889D03*
X027070Y006086D03*
X031105Y004530D03*
X031814Y003074D03*
X031420Y002365D03*
X031814Y001145D03*
X026893Y001145D03*
X015141Y010259D03*
X017483Y011263D03*
X019727Y013093D03*
X022444Y011991D03*
X022326Y010534D03*
D14*
X022030Y004314D02*
X022030Y003664D01*
X021637Y003664D02*
X021637Y004314D01*
X021243Y004196D02*
X021243Y001676D01*
X022424Y001676D02*
X022424Y004196D01*
X022818Y004314D02*
X022818Y003664D01*
X023211Y003664D02*
X023211Y004314D01*
X023605Y004196D02*
X023605Y001676D01*
X024786Y001676D02*
X024786Y004196D01*
X024393Y004314D02*
X024393Y003664D01*
X023999Y003664D02*
X023999Y004314D01*
X025574Y004353D02*
X025574Y004058D01*
X025967Y004196D02*
X025967Y001676D01*
X025574Y001479D02*
X025574Y001125D01*
X025574Y001479D02*
X025574Y002208D01*
X025574Y003664D01*
X020849Y003664D02*
X020849Y004314D01*
X020456Y004314D02*
X020456Y003664D01*
X020062Y004196D02*
X020062Y001676D01*
X018881Y001676D02*
X018881Y004196D01*
X019274Y004314D02*
X019274Y003664D01*
X019668Y003664D02*
X019668Y004314D01*
X018487Y004314D02*
X018487Y003664D01*
X018093Y003664D02*
X018093Y004314D01*
X017700Y004196D02*
X017700Y001676D01*
X017306Y001479D02*
X017306Y002208D01*
X016519Y001676D02*
X016519Y004196D01*
X016912Y004314D02*
X016912Y003664D01*
X017306Y003664D02*
X017306Y004314D01*
X016125Y004314D02*
X016125Y003664D01*
X015731Y003664D02*
X015731Y004314D01*
X015337Y004196D02*
X015337Y001676D01*
X013763Y001558D02*
X013763Y002208D01*
X013369Y002208D02*
X013369Y001558D01*
X012975Y001558D02*
X012975Y002208D01*
X012188Y002208D02*
X012188Y001558D01*
X012582Y001558D02*
X012582Y004274D01*
X012188Y004314D02*
X012188Y003664D01*
X011794Y003664D02*
X011794Y004314D01*
X011400Y004274D02*
X011400Y001558D01*
X011794Y001558D02*
X011794Y002208D01*
X010613Y002208D02*
X010613Y001755D01*
X010613Y001558D01*
X009826Y001558D02*
X009826Y004274D01*
X010613Y003664D02*
X010613Y002208D01*
X014550Y004078D02*
X014550Y004314D01*
X014944Y004314D02*
X014944Y004038D01*
D15*
X010613Y001558D03*
D16*
X012975Y003664D02*
X012975Y004314D01*
X012660Y004629D01*
X012660Y010613D01*
X013920Y011873D01*
X015101Y011873D01*
X015771Y011204D01*
X015771Y010889D01*
X015574Y010692D02*
X015574Y011125D01*
X015062Y011637D01*
X014078Y011637D01*
X012897Y010456D01*
X012897Y004668D01*
X013369Y004196D01*
X013369Y003664D01*
X013566Y004274D02*
X013133Y004708D01*
X013133Y010298D01*
X013920Y011086D01*
X014786Y011086D01*
X015377Y010495D01*
X015652Y010495D01*
X016125Y010967D01*
X016400Y010967D01*
X016479Y011046D01*
X016834Y010849D02*
X016834Y007818D01*
X013684Y004668D01*
X013605Y004668D01*
X013369Y004786D02*
X013369Y006558D01*
X015534Y008723D01*
X015534Y009786D01*
X015377Y009944D01*
X016834Y010849D02*
X017149Y011164D01*
X018999Y009078D02*
X019668Y009078D01*
X020180Y008566D01*
X020180Y006676D01*
X018251Y004747D01*
X014589Y004747D01*
X014393Y004550D01*
X014117Y004550D02*
X014550Y004983D01*
X018133Y004983D01*
X019944Y006794D01*
X019944Y007975D01*
X019078Y008841D01*
X017936Y007306D02*
X017582Y007306D01*
X015495Y005219D01*
X014511Y005219D01*
X013841Y004550D01*
X013999Y004274D02*
X013566Y004274D01*
X013999Y004274D02*
X014156Y004117D01*
X014156Y003664D01*
X014550Y003664D02*
X014550Y004078D01*
X014944Y004038D02*
X014944Y003664D01*
M02*
