G75*
G70*
%OFA0B0*%
%FSLAX24Y24*%
%IPPOS*%
%LPD*%
%AMOC8*
5,1,8,0,0,1.08239X$1,22.5*
%
%ADD10C,0.0040*%
%ADD11C,0.0080*%
%ADD12C,0.0160*%
%ADD13C,0.0070*%
%ADD14C,0.0060*%
%ADD15C,0.0050*%
%ADD16C,0.0098*%
%ADD17R,0.0098X0.0118*%
%ADD18C,0.0220*%
%ADD19C,0.0256*%
%ADD20C,0.0100*%
%ADD21R,0.0118X0.0098*%
%ADD22R,0.0200X0.0320*%
%ADD23R,0.3937X0.0011*%
%ADD24R,0.3937X0.0011*%
%ADD25R,0.0120X0.0011*%
%ADD26R,0.0120X0.0011*%
%ADD27R,0.0120X0.0011*%
%ADD28R,0.0120X0.0011*%
%ADD29R,0.2832X0.0011*%
%ADD30R,0.2843X0.0011*%
%ADD31R,0.2854X0.0011*%
%ADD32R,0.2865X0.0011*%
%ADD33R,0.0087X0.0011*%
%ADD34R,0.0077X0.0011*%
%ADD35R,0.0098X0.0011*%
%ADD36R,0.0087X0.0011*%
%ADD37R,0.0109X0.0011*%
%ADD38R,0.0131X0.0011*%
%ADD39R,0.0098X0.0011*%
%ADD40R,0.0088X0.0011*%
%ADD41R,0.0142X0.0011*%
%ADD42R,0.0131X0.0011*%
%ADD43R,0.0153X0.0011*%
%ADD44R,0.0164X0.0011*%
%ADD45R,0.0175X0.0011*%
%ADD46R,0.0186X0.0011*%
%ADD47R,0.0109X0.0011*%
%ADD48R,0.0197X0.0011*%
%ADD49R,0.0109X0.0011*%
%ADD50R,0.0208X0.0011*%
%ADD51R,0.0219X0.0011*%
%ADD52R,0.0230X0.0011*%
%ADD53R,0.0230X0.0011*%
%ADD54R,0.0241X0.0011*%
%ADD55R,0.0109X0.0011*%
%ADD56R,0.0241X0.0011*%
%ADD57R,0.0131X0.0011*%
%ADD58R,0.0252X0.0011*%
%ADD59R,0.3062X0.0011*%
%ADD60R,0.3073X0.0011*%
%ADD61R,0.3084X0.0011*%
%ADD62R,0.3106X0.0011*%
%ADD63R,0.0273X0.0011*%
%ADD64R,0.0252X0.0011*%
%ADD65R,0.0273X0.0011*%
%ADD66R,0.0142X0.0011*%
%ADD67R,0.0175X0.0011*%
%ADD68R,0.0175X0.0011*%
%ADD69R,0.0186X0.0011*%
%ADD70R,0.0164X0.0011*%
%ADD71R,0.0153X0.0011*%
%ADD72R,0.0186X0.0011*%
%ADD73R,0.0197X0.0011*%
%ADD74R,0.0219X0.0011*%
%ADD75R,0.0219X0.0011*%
%ADD76R,0.0230X0.0011*%
%ADD77R,0.0251X0.0011*%
%ADD78R,0.0262X0.0011*%
%ADD79R,0.0251X0.0011*%
%ADD80R,0.0262X0.0011*%
%ADD81R,0.0262X0.0011*%
%ADD82R,0.0284X0.0011*%
%ADD83R,0.0295X0.0011*%
%ADD84R,0.0273X0.0011*%
%ADD85R,0.0295X0.0011*%
%ADD86R,0.0273X0.0011*%
%ADD87R,0.0306X0.0011*%
%ADD88R,0.0306X0.0011*%
%ADD89R,0.0284X0.0011*%
%ADD90R,0.0317X0.0011*%
%ADD91R,0.0306X0.0011*%
%ADD92R,0.0328X0.0011*%
%ADD93R,0.0328X0.0011*%
%ADD94R,0.0306X0.0011*%
%ADD95R,0.0339X0.0011*%
%ADD96R,0.0339X0.0011*%
%ADD97R,0.0317X0.0011*%
%ADD98R,0.0350X0.0011*%
%ADD99R,0.0328X0.0011*%
%ADD100R,0.0350X0.0011*%
%ADD101R,0.0361X0.0011*%
%ADD102R,0.0361X0.0011*%
%ADD103R,0.0350X0.0011*%
%ADD104R,0.0350X0.0011*%
%ADD105R,0.0339X0.0011*%
%ADD106R,0.0339X0.0011*%
%ADD107R,0.0328X0.0011*%
%ADD108R,0.0317X0.0011*%
%ADD109R,0.0262X0.0011*%
%ADD110R,0.0230X0.0011*%
%ADD111R,0.0219X0.0011*%
%ADD112R,0.0208X0.0011*%
%ADD113R,0.0186X0.0011*%
%ADD114R,0.0175X0.0011*%
%ADD115R,0.0164X0.0011*%
%ADD116R,0.0153X0.0011*%
%ADD117R,0.1258X0.0011*%
%ADD118R,0.3182X0.0011*%
%ADD119R,0.3182X0.0011*%
%ADD120R,0.3182X0.0011*%
%ADD121R,0.2165X0.0011*%
%ADD122R,0.0131X0.0011*%
%ADD123R,0.0164X0.0011*%
%ADD124R,0.0077X0.0011*%
%ADD125R,0.0066X0.0011*%
%ADD126R,0.0088X0.0011*%
%ADD127R,0.0077X0.0011*%
%ADD128R,0.3073X0.0011*%
%ADD129R,0.3051X0.0011*%
%ADD130R,0.0744X0.0011*%
%ADD131R,0.0755X0.0011*%
%ADD132R,0.0766X0.0011*%
%ADD133R,0.0776X0.0011*%
%ADD134R,0.0787X0.0011*%
%ADD135R,0.0798X0.0011*%
%ADD136R,0.0798X0.0011*%
%ADD137R,0.0809X0.0011*%
%ADD138R,0.0820X0.0011*%
%ADD139R,0.0842X0.0011*%
%ADD140R,0.0842X0.0011*%
%ADD141R,0.0853X0.0011*%
%ADD142R,0.0864X0.0011*%
%ADD143R,0.0886X0.0011*%
%ADD144R,0.0886X0.0011*%
%ADD145R,0.0897X0.0011*%
%ADD146R,0.0908X0.0011*%
%ADD147R,0.0908X0.0011*%
%ADD148R,0.0930X0.0011*%
%ADD149R,0.0941X0.0011*%
%ADD150R,0.0951X0.0011*%
%ADD151R,0.0951X0.0011*%
%ADD152R,0.0962X0.0011*%
%ADD153R,0.0973X0.0011*%
%ADD154R,0.0995X0.0011*%
%ADD155R,0.0995X0.0011*%
%ADD156R,0.1006X0.0011*%
%ADD157R,0.1017X0.0011*%
%ADD158R,0.1039X0.0011*%
%ADD159R,0.1039X0.0011*%
%ADD160R,0.1050X0.0011*%
%ADD161R,0.1061X0.0011*%
%ADD162R,0.1061X0.0011*%
%ADD163R,0.1083X0.0011*%
%ADD164R,0.1094X0.0011*%
%ADD165R,0.1105X0.0011*%
%ADD166R,0.1105X0.0011*%
%ADD167R,0.1126X0.0011*%
%ADD168R,0.1137X0.0011*%
%ADD169R,0.1148X0.0011*%
%ADD170R,0.1148X0.0011*%
%ADD171R,0.1159X0.0011*%
%ADD172R,0.1170X0.0011*%
%ADD173R,0.1181X0.0011*%
%ADD174R,0.1192X0.0011*%
%ADD175R,0.1192X0.0011*%
%ADD176R,0.1203X0.0011*%
%ADD177R,0.1214X0.0011*%
%ADD178R,0.1214X0.0011*%
%ADD179R,0.1236X0.0011*%
%ADD180R,0.0984X0.0011*%
%ADD181R,0.0984X0.0011*%
%ADD182R,0.0208X0.0011*%
%ADD183R,0.0995X0.0011*%
%ADD184R,0.0995X0.0011*%
%ADD185R,0.1006X0.0011*%
%ADD186R,0.1006X0.0011*%
%ADD187R,0.1006X0.0011*%
%ADD188R,0.0547X0.0011*%
%ADD189R,0.0437X0.0011*%
%ADD190R,0.0536X0.0011*%
%ADD191R,0.0405X0.0011*%
%ADD192R,0.0536X0.0011*%
%ADD193R,0.0372X0.0011*%
%ADD194R,0.0547X0.0011*%
%ADD195R,0.0569X0.0011*%
%ADD196R,0.0481X0.0011*%
%ADD197R,0.0066X0.0011*%
%ADD198R,0.0459X0.0011*%
%ADD199R,0.0066X0.0011*%
%ADD200R,0.0437X0.0011*%
%ADD201R,0.0394X0.0011*%
%ADD202R,0.0383X0.0011*%
%ADD203R,0.0372X0.0011*%
%ADD204R,0.0066X0.0011*%
%ADD205R,0.0317X0.0011*%
%ADD206R,0.0011X0.0011*%
%ADD207R,0.0055X0.0011*%
%ADD208R,0.0295X0.0011*%
%ADD209R,0.0295X0.0011*%
%ADD210R,0.0142X0.0011*%
%ADD211R,0.0055X0.0011*%
%ADD212R,0.0241X0.0011*%
%ADD213R,0.0383X0.0011*%
%ADD214R,0.0416X0.0011*%
%ADD215R,0.0426X0.0011*%
%ADD216R,0.0448X0.0011*%
%ADD217R,0.0459X0.0011*%
%ADD218R,0.0470X0.0011*%
%ADD219R,0.0492X0.0011*%
%ADD220R,0.0503X0.0011*%
%ADD221R,0.0197X0.0011*%
%ADD222R,0.0197X0.0011*%
%ADD223R,0.0055X0.0011*%
%ADD224R,0.0241X0.0011*%
%ADD225R,0.0962X0.0011*%
%ADD226R,0.0536X0.0011*%
%ADD227R,0.0962X0.0011*%
%ADD228R,0.0951X0.0011*%
%ADD229R,0.0558X0.0011*%
%ADD230R,0.0930X0.0011*%
%ADD231R,0.0897X0.0011*%
%ADD232R,0.0875X0.0011*%
%ADD233R,0.0842X0.0011*%
%ADD234R,0.0558X0.0011*%
%ADD235R,0.0820X0.0011*%
%ADD236R,0.0755X0.0011*%
%ADD237R,0.0733X0.0011*%
%ADD238R,0.0525X0.0011*%
%ADD239R,0.0722X0.0011*%
%ADD240R,0.0525X0.0011*%
%ADD241R,0.0700X0.0011*%
%ADD242R,0.0689X0.0011*%
%ADD243R,0.0514X0.0011*%
%ADD244R,0.0678X0.0011*%
%ADD245R,0.0514X0.0011*%
%ADD246R,0.0656X0.0011*%
%ADD247R,0.0503X0.0011*%
%ADD248R,0.0656X0.0011*%
%ADD249R,0.0645X0.0011*%
%ADD250R,0.0634X0.0011*%
%ADD251R,0.0481X0.0011*%
%ADD252R,0.0634X0.0011*%
%ADD253R,0.0623X0.0011*%
%ADD254R,0.0470X0.0011*%
%ADD255R,0.0623X0.0011*%
%ADD256R,0.0470X0.0011*%
%ADD257R,0.0623X0.0011*%
%ADD258R,0.0612X0.0011*%
%ADD259R,0.0612X0.0011*%
%ADD260R,0.0623X0.0011*%
%ADD261R,0.0437X0.0011*%
%ADD262R,0.0427X0.0011*%
%ADD263R,0.0416X0.0011*%
%ADD264R,0.0416X0.0011*%
%ADD265R,0.0667X0.0011*%
%ADD266R,0.0689X0.0011*%
%ADD267R,0.0711X0.0011*%
%ADD268R,0.1105X0.0011*%
%ADD269R,0.1105X0.0011*%
%ADD270R,0.0426X0.0011*%
%ADD271R,0.1094X0.0011*%
%ADD272R,0.0481X0.0011*%
%ADD273R,0.1083X0.0011*%
%ADD274R,0.0492X0.0011*%
%ADD275R,0.1072X0.0011*%
%ADD276R,0.1050X0.0011*%
%ADD277R,0.0941X0.0011*%
%ADD278R,0.1039X0.0011*%
%ADD279R,0.1028X0.0011*%
%ADD280R,0.0919X0.0011*%
%ADD281R,0.1028X0.0011*%
%ADD282R,0.0919X0.0011*%
%ADD283R,0.0919X0.0011*%
%ADD284R,0.0908X0.0011*%
%ADD285R,0.0897X0.0011*%
%ADD286R,0.0940X0.0011*%
%ADD287R,0.0875X0.0011*%
%ADD288R,0.0886X0.0011*%
%ADD289R,0.0919X0.0011*%
%ADD290R,0.0875X0.0011*%
%ADD291R,0.0930X0.0011*%
%ADD292R,0.0973X0.0011*%
%ADD293R,0.1017X0.0011*%
%ADD294R,0.1061X0.0011*%
%ADD295R,0.1126X0.0011*%
%ADD296R,0.1290X0.0011*%
%ADD297R,0.1345X0.0011*%
%ADD298R,0.1498X0.0011*%
%ADD299R,0.1498X0.0011*%
%ADD300R,0.1498X0.0011*%
%ADD301R,0.1498X0.0011*%
%ADD302R,0.0416X0.0011*%
%ADD303R,0.0558X0.0011*%
%ADD304R,0.0591X0.0011*%
%ADD305R,0.0612X0.0011*%
%ADD306R,0.0634X0.0011*%
%ADD307R,0.0667X0.0011*%
%ADD308R,0.0361X0.0011*%
%ADD309R,0.0700X0.0011*%
%ADD310R,0.0722X0.0011*%
%ADD311R,0.0733X0.0011*%
%ADD312R,0.0755X0.0011*%
%ADD313R,0.0459X0.0011*%
%ADD314R,0.0766X0.0011*%
%ADD315R,0.0766X0.0011*%
%ADD316R,0.0503X0.0011*%
%ADD317R,0.0525X0.0011*%
%ADD318R,0.0514X0.0011*%
%ADD319R,0.0580X0.0011*%
%ADD320R,0.0547X0.0011*%
%ADD321R,0.0405X0.0011*%
%ADD322R,0.0405X0.0011*%
%ADD323R,0.0372X0.0011*%
%ADD324R,0.0558X0.0011*%
%ADD325R,0.0591X0.0011*%
%ADD326R,0.0601X0.0011*%
%ADD327R,0.0601X0.0011*%
%ADD328R,0.1072X0.0011*%
%ADD329R,0.0405X0.0011*%
%ADD330R,0.1531X0.0011*%
%ADD331R,0.1542X0.0011*%
%ADD332R,0.1553X0.0011*%
%ADD333R,0.1553X0.0011*%
%ADD334R,0.1564X0.0011*%
%ADD335R,0.1575X0.0011*%
%ADD336R,0.1564X0.0011*%
%ADD337R,0.1575X0.0011*%
%ADD338R,0.1564X0.0011*%
%ADD339R,0.1542X0.0011*%
%ADD340R,0.1520X0.0011*%
%ADD341R,0.1531X0.0011*%
%ADD342R,0.1531X0.0011*%
%ADD343R,0.1301X0.0011*%
%ADD344R,0.1280X0.0011*%
%ADD345R,0.1280X0.0011*%
%ADD346R,0.1269X0.0011*%
%ADD347R,0.1269X0.0011*%
%ADD348R,0.1258X0.0011*%
%ADD349R,0.1258X0.0011*%
%ADD350R,0.1247X0.0011*%
%ADD351R,0.1225X0.0011*%
%ADD352R,0.1028X0.0011*%
%ADD353R,0.0864X0.0011*%
%ADD354R,0.0831X0.0011*%
%ADD355R,0.0448X0.0011*%
%ADD356R,0.0394X0.0011*%
%ADD357R,0.0383X0.0011*%
%ADD358R,0.0033X0.0011*%
%ADD359R,0.0284X0.0011*%
%ADD360R,0.0033X0.0011*%
%ADD361R,0.0372X0.0011*%
%ADD362R,0.0077X0.0011*%
%ADD363R,0.0361X0.0011*%
%ADD364R,0.0142X0.0011*%
%ADD365R,0.3926X0.0011*%
%ADD366R,0.0120X0.0011*%
%ADD367R,0.0120X0.0011*%
%ADD368R,0.0382X0.0011*%
%ADD369R,0.0414X0.0011*%
%ADD370R,0.0393X0.0011*%
%ADD371R,0.0404X0.0011*%
%ADD372R,0.0382X0.0011*%
%ADD373R,0.0371X0.0011*%
%ADD374R,0.0382X0.0011*%
%ADD375R,0.0393X0.0011*%
%ADD376R,0.0131X0.0011*%
%ADD377R,0.0142X0.0011*%
%ADD378R,0.0120X0.0011*%
%ADD379R,0.0131X0.0011*%
%ADD380R,0.0131X0.0011*%
%ADD381R,0.0142X0.0011*%
%ADD382R,0.0153X0.0011*%
%ADD383R,0.0153X0.0011*%
%ADD384R,0.0164X0.0011*%
%ADD385R,0.0153X0.0011*%
%ADD386R,0.0175X0.0011*%
%ADD387R,0.0164X0.0011*%
%ADD388R,0.0174X0.0011*%
%ADD389R,0.0174X0.0011*%
%ADD390R,0.0196X0.0011*%
%ADD391R,0.0185X0.0011*%
%ADD392R,0.0218X0.0011*%
%ADD393R,0.0229X0.0011*%
%ADD394R,0.0142X0.0011*%
%ADD395R,0.0589X0.0011*%
%ADD396R,0.0567X0.0011*%
%ADD397R,0.0185X0.0011*%
%ADD398R,0.0534X0.0011*%
%ADD399R,0.0513X0.0011*%
%ADD400R,0.0196X0.0011*%
%ADD401R,0.0480X0.0011*%
%ADD402R,0.0207X0.0011*%
%ADD403R,0.0436X0.0011*%
%ADD404R,0.0229X0.0011*%
%ADD405R,0.0240X0.0011*%
%ADD406R,0.0349X0.0011*%
%ADD407R,0.0273X0.0011*%
%ADD408R,0.0294X0.0011*%
%ADD409R,0.0284X0.0011*%
%ADD410R,0.0305X0.0011*%
%ADD411R,0.0774X0.0011*%
%ADD412R,0.0752X0.0011*%
%ADD413R,0.0742X0.0011*%
%ADD414R,0.0731X0.0011*%
%ADD415R,0.0720X0.0011*%
%ADD416R,0.0709X0.0011*%
%ADD417R,0.0698X0.0011*%
%ADD418R,0.0687X0.0011*%
%ADD419R,0.0676X0.0011*%
%ADD420R,0.0665X0.0011*%
%ADD421R,0.0654X0.0011*%
%ADD422R,0.0643X0.0011*%
%ADD423R,0.0633X0.0011*%
%ADD424R,0.0622X0.0011*%
%ADD425R,0.0611X0.0011*%
%ADD426R,0.0600X0.0011*%
%ADD427R,0.0578X0.0011*%
%ADD428R,0.0556X0.0011*%
%ADD429R,0.0545X0.0011*%
%ADD430R,0.0534X0.0011*%
%ADD431R,0.0523X0.0011*%
%ADD432R,0.0502X0.0011*%
%ADD433R,0.0491X0.0011*%
%ADD434R,0.0469X0.0011*%
%ADD435R,0.0458X0.0011*%
%ADD436R,0.0447X0.0011*%
%ADD437R,0.0425X0.0011*%
%ADD438R,0.0403X0.0011*%
%ADD439R,0.0393X0.0011*%
%ADD440R,0.0371X0.0011*%
%ADD441R,0.0360X0.0011*%
%ADD442R,0.0338X0.0011*%
%ADD443R,0.0327X0.0011*%
%ADD444R,0.0316X0.0011*%
%ADD445R,0.0305X0.0011*%
%ADD446R,0.0294X0.0011*%
%ADD447R,0.0022X0.0011*%
%ADD448R,0.0033X0.0011*%
%ADD449R,0.0011X0.0011*%
%ADD450R,0.0262X0.0011*%
%ADD451R,0.0055X0.0011*%
%ADD452R,0.0044X0.0011*%
%ADD453R,0.0251X0.0011*%
%ADD454R,0.0087X0.0011*%
%ADD455R,0.0065X0.0011*%
%ADD456R,0.0109X0.0011*%
%ADD457R,0.0076X0.0011*%
%ADD458R,0.0218X0.0011*%
%ADD459R,0.0109X0.0011*%
%ADD460R,0.0098X0.0011*%
%ADD461R,0.0087X0.0011*%
%ADD462R,0.0055X0.0011*%
%ADD463R,0.0011X0.0011*%
%ADD464R,0.0033X0.0011*%
%ADD465R,0.0022X0.0011*%
%ADD466R,0.0076X0.0011*%
%ADD467R,0.0098X0.0011*%
%ADD468R,0.0109X0.0011*%
%ADD469R,0.0229X0.0011*%
%ADD470R,0.0164X0.0011*%
%ADD471R,0.0011X0.0011*%
%ADD472R,0.0044X0.0011*%
%ADD473R,0.0076X0.0011*%
%ADD474R,0.0098X0.0011*%
%ADD475R,0.0054X0.0011*%
%ADD476R,0.0022X0.0011*%
%ADD477R,0.0033X0.0011*%
%ADD478R,0.0087X0.0011*%
%ADD479R,0.0065X0.0011*%
D10*
X000680Y003763D02*
X000910Y003763D01*
X000987Y003840D01*
X000910Y003916D01*
X000987Y003993D01*
X000910Y004070D01*
X000680Y004070D01*
X000680Y004223D02*
X000987Y004223D01*
X000833Y004223D02*
X000680Y004377D01*
X000680Y004454D01*
X000680Y004607D02*
X000680Y004684D01*
X000987Y004684D01*
X000987Y004607D02*
X000987Y004761D01*
X000910Y004991D02*
X000603Y004991D01*
X000680Y004914D02*
X000680Y005067D01*
X000757Y005221D02*
X000680Y005298D01*
X000680Y005451D01*
X000757Y005528D01*
X000833Y005528D01*
X000833Y005221D01*
X000757Y005221D02*
X000910Y005221D01*
X000987Y005298D01*
X000987Y005451D01*
X001270Y005451D02*
X001347Y005374D01*
X001501Y005374D01*
X001577Y005451D01*
X001577Y005605D01*
X001424Y005681D02*
X001424Y005374D01*
X001270Y005451D02*
X001270Y005605D01*
X001347Y005681D01*
X001424Y005681D01*
X001347Y005835D02*
X001501Y005835D01*
X001577Y005911D01*
X001577Y006142D01*
X001501Y006372D02*
X001194Y006372D01*
X001270Y006295D02*
X001270Y006449D01*
X001270Y006602D02*
X001270Y006679D01*
X001577Y006679D01*
X001577Y006602D02*
X001577Y006756D01*
X001501Y006909D02*
X001577Y006986D01*
X001577Y007139D01*
X001501Y007216D01*
X001347Y007216D01*
X001270Y007139D01*
X001270Y006986D01*
X001347Y006909D01*
X001501Y006909D01*
X001117Y006679D02*
X001040Y006679D01*
X001501Y006372D02*
X001577Y006449D01*
X001270Y006142D02*
X001270Y005911D01*
X001347Y005835D01*
X001270Y005221D02*
X001270Y005067D01*
X001194Y005144D02*
X001501Y005144D01*
X001577Y005221D01*
X001501Y004914D02*
X001347Y004914D01*
X001270Y004837D01*
X001270Y004684D01*
X001347Y004607D01*
X001501Y004607D01*
X001577Y004684D01*
X001577Y004837D01*
X001501Y004914D01*
X001270Y004454D02*
X001270Y004377D01*
X001424Y004223D01*
X001577Y004223D02*
X001270Y004223D01*
X001347Y004070D02*
X001501Y004070D01*
X001577Y003993D01*
X001577Y003763D01*
X001731Y003763D02*
X001270Y003763D01*
X001270Y003993D01*
X001347Y004070D01*
X000526Y004684D02*
X000450Y004684D01*
X000910Y004991D02*
X000987Y005067D01*
X002897Y005096D02*
X003204Y005096D01*
X003204Y005172D02*
X003204Y004865D01*
X003357Y004942D02*
X003664Y005249D01*
X003664Y004942D01*
X003587Y004865D01*
X003434Y004865D01*
X003357Y004942D01*
X003357Y005249D01*
X003434Y005326D01*
X003587Y005326D01*
X003664Y005249D01*
X003684Y005653D02*
X003377Y005653D01*
X003530Y005653D02*
X003530Y006113D01*
X003377Y005960D01*
X003223Y005960D02*
X003223Y005653D01*
X003223Y005883D02*
X002917Y005883D01*
X002917Y005960D02*
X003070Y006113D01*
X003223Y005960D01*
X002917Y005960D02*
X002917Y005653D01*
X003050Y005326D02*
X003204Y005172D01*
X003050Y005326D02*
X002897Y005172D01*
X002897Y004865D01*
X002917Y006460D02*
X002917Y006767D01*
X003070Y006920D01*
X003223Y006767D01*
X003223Y006460D01*
X003377Y006460D02*
X003684Y006767D01*
X003684Y006844D01*
X003607Y006920D01*
X003454Y006920D01*
X003377Y006844D01*
X003223Y006690D02*
X002917Y006690D01*
X003377Y006460D02*
X003684Y006460D01*
X004629Y007304D02*
X004936Y007611D01*
X004936Y007304D01*
X004859Y007228D01*
X004706Y007228D01*
X004629Y007304D01*
X004629Y007611D01*
X004706Y007688D01*
X004859Y007688D01*
X004936Y007611D01*
X004914Y008172D02*
X004684Y008172D01*
X004761Y008326D02*
X004684Y008403D01*
X004761Y008479D01*
X004991Y008479D01*
X004914Y008326D02*
X004761Y008326D01*
X004914Y008326D02*
X004991Y008249D01*
X004914Y008172D01*
X005145Y008172D02*
X005375Y008172D01*
X005452Y008249D01*
X005375Y008326D01*
X005221Y008326D01*
X005145Y008403D01*
X005221Y008479D01*
X005452Y008479D01*
X005701Y008708D02*
X005701Y009168D01*
X005932Y009168D01*
X006008Y009092D01*
X006008Y008938D01*
X005932Y008861D01*
X005701Y008861D01*
X005548Y008861D02*
X005548Y009168D01*
X005548Y008861D02*
X005318Y008861D01*
X005241Y008938D01*
X005241Y009168D01*
X005088Y009168D02*
X004934Y009168D01*
X005011Y009245D02*
X005011Y008938D01*
X005088Y008861D01*
X004781Y009015D02*
X004474Y009015D01*
X004474Y009092D02*
X004550Y009168D01*
X004704Y009168D01*
X004781Y009092D01*
X004781Y009015D01*
X004704Y008861D02*
X004550Y008861D01*
X004474Y008938D01*
X004474Y009092D01*
X004320Y009168D02*
X004090Y009168D01*
X004013Y009092D01*
X004090Y009015D01*
X004243Y009015D01*
X004320Y008938D01*
X004243Y008861D01*
X004013Y008861D01*
X003687Y008633D02*
X003687Y008172D01*
X003456Y008172D01*
X003380Y008249D01*
X003380Y008403D01*
X003456Y008479D01*
X003687Y008479D01*
X003840Y008479D02*
X003840Y008172D01*
X003840Y008326D02*
X003994Y008479D01*
X004070Y008479D01*
X004224Y008403D02*
X004301Y008479D01*
X004454Y008479D01*
X004531Y008403D01*
X004531Y008326D01*
X004224Y008326D01*
X004224Y008249D02*
X004224Y008403D01*
X004224Y008249D02*
X004301Y008172D01*
X004454Y008172D01*
X003399Y008861D02*
X003399Y009322D01*
X003246Y009168D01*
X003093Y009322D01*
X003093Y008861D01*
X002939Y008938D02*
X002939Y009245D01*
X002862Y009322D01*
X002709Y009322D01*
X002632Y009245D01*
X002632Y008938D01*
X002709Y008861D01*
X002862Y008861D01*
X002939Y008938D01*
X003226Y008633D02*
X003226Y008172D01*
X002996Y008172D01*
X002919Y008249D01*
X002919Y008403D01*
X002996Y008479D01*
X003226Y008479D01*
X002766Y008403D02*
X002766Y008172D01*
X002536Y008172D01*
X002459Y008249D01*
X002536Y008326D01*
X002766Y008326D01*
X002766Y008403D02*
X002689Y008479D01*
X002536Y008479D01*
X002479Y008861D02*
X002325Y009015D01*
X002402Y009015D02*
X002172Y009015D01*
X002172Y008861D02*
X002172Y009322D01*
X002402Y009322D01*
X002479Y009245D01*
X002479Y009092D01*
X002402Y009015D01*
X002018Y009092D02*
X002018Y009245D01*
X001942Y009322D01*
X001711Y009322D01*
X001711Y008861D01*
X001558Y008861D02*
X001251Y008861D01*
X001251Y009322D01*
X001558Y009322D01*
X001404Y009092D02*
X001251Y009092D01*
X001097Y009322D02*
X000791Y009322D01*
X000791Y008861D01*
X001097Y008861D01*
X001155Y008633D02*
X001078Y008556D01*
X001155Y008633D02*
X001308Y008633D01*
X001385Y008556D01*
X001385Y008479D01*
X001078Y008172D01*
X001385Y008172D01*
X001538Y008249D02*
X001615Y008172D01*
X001768Y008172D01*
X001845Y008249D01*
X001538Y008249D02*
X001538Y008556D01*
X001615Y008633D01*
X001768Y008633D01*
X001845Y008556D01*
X001942Y009015D02*
X001711Y009015D01*
X001942Y009015D02*
X002018Y009092D01*
X000944Y009092D02*
X000791Y009092D01*
X000771Y008633D02*
X000924Y008633D01*
X000848Y008633D02*
X000848Y008172D01*
X000924Y008172D02*
X000771Y008172D01*
X001270Y007600D02*
X001347Y007676D01*
X001577Y007676D01*
X001270Y007600D02*
X001270Y007369D01*
X001577Y007369D01*
X006066Y007228D02*
X006373Y007228D01*
X006220Y007228D02*
X006220Y007688D01*
X006066Y007534D01*
X018940Y009196D02*
X018942Y009208D01*
X018947Y009219D01*
X018956Y009228D01*
X018967Y009233D01*
X018979Y009235D01*
X018991Y009233D01*
X019002Y009228D01*
X019011Y009219D01*
X019016Y009208D01*
X019018Y009196D01*
X019016Y009184D01*
X019011Y009173D01*
X019002Y009164D01*
X018991Y009159D01*
X018979Y009157D01*
X018967Y009159D01*
X018956Y009164D01*
X018947Y009173D01*
X018942Y009184D01*
X018940Y009196D01*
X025397Y010239D02*
X025627Y010239D01*
X025704Y010316D01*
X025704Y010623D01*
X025627Y010700D01*
X025397Y010700D01*
X025397Y010239D01*
X025857Y010239D02*
X025857Y010546D01*
X026011Y010700D01*
X026164Y010546D01*
X026164Y010239D01*
X026318Y010316D02*
X026394Y010239D01*
X026548Y010239D01*
X026625Y010316D01*
X026778Y010470D02*
X027085Y010470D01*
X027008Y010700D02*
X027008Y010239D01*
X026778Y010470D02*
X027008Y010700D01*
X026625Y010623D02*
X026548Y010700D01*
X026394Y010700D01*
X026318Y010623D01*
X026318Y010316D01*
X026164Y010470D02*
X025857Y010470D01*
X025857Y006369D02*
X026087Y006369D01*
X026164Y006292D01*
X026164Y005985D01*
X026087Y005909D01*
X025857Y005909D01*
X025857Y006369D01*
X025704Y006216D02*
X025704Y005909D01*
X025704Y006139D02*
X025397Y006139D01*
X025397Y006216D02*
X025550Y006369D01*
X025704Y006216D01*
X025397Y006216D02*
X025397Y005909D01*
X026318Y005985D02*
X026318Y006292D01*
X026394Y006369D01*
X026548Y006369D01*
X026625Y006292D01*
X026778Y006292D02*
X026855Y006369D01*
X027008Y006369D01*
X027085Y006292D01*
X027085Y006216D01*
X027008Y006139D01*
X027085Y006062D01*
X027085Y005985D01*
X027008Y005909D01*
X026855Y005909D01*
X026778Y005985D01*
X026625Y005985D02*
X026548Y005909D01*
X026394Y005909D01*
X026318Y005985D01*
X026931Y006139D02*
X027008Y006139D01*
X027008Y002038D02*
X026778Y001808D01*
X027085Y001808D01*
X027008Y001578D02*
X027008Y002038D01*
X026625Y001962D02*
X026548Y002038D01*
X026394Y002038D01*
X026318Y001962D01*
X026318Y001655D01*
X026394Y001578D01*
X026548Y001578D01*
X026625Y001655D01*
X026164Y001655D02*
X026164Y001962D01*
X026087Y002038D01*
X025857Y002038D01*
X025857Y001578D01*
X026087Y001578D01*
X026164Y001655D01*
X025704Y001578D02*
X025704Y001885D01*
X025550Y002038D01*
X025397Y001885D01*
X025397Y001578D01*
X025397Y001808D02*
X025704Y001808D01*
X025627Y014570D02*
X025704Y014647D01*
X025704Y014954D01*
X025627Y015030D01*
X025397Y015030D01*
X025397Y014570D01*
X025627Y014570D01*
X025857Y014570D02*
X025857Y014877D01*
X026011Y015030D01*
X026164Y014877D01*
X026164Y014570D01*
X026318Y014647D02*
X026394Y014570D01*
X026548Y014570D01*
X026625Y014647D01*
X026778Y014647D02*
X026855Y014570D01*
X027008Y014570D01*
X027085Y014647D01*
X027085Y014724D01*
X027008Y014800D01*
X026931Y014800D01*
X027008Y014800D02*
X027085Y014877D01*
X027085Y014954D01*
X027008Y015030D01*
X026855Y015030D01*
X026778Y014954D01*
X026625Y014954D02*
X026548Y015030D01*
X026394Y015030D01*
X026318Y014954D01*
X026318Y014647D01*
X026164Y014800D02*
X025857Y014800D01*
X021637Y018507D02*
X021330Y018967D01*
X021176Y018891D02*
X021176Y018737D01*
X021099Y018661D01*
X020869Y018661D01*
X021023Y018661D02*
X021176Y018507D01*
X021330Y018507D02*
X021637Y018967D01*
X021176Y018891D02*
X021099Y018967D01*
X020869Y018967D01*
X020869Y018507D01*
X016325Y018507D02*
X016018Y018967D01*
X015864Y018891D02*
X015864Y018737D01*
X015788Y018661D01*
X015558Y018661D01*
X015711Y018661D02*
X015864Y018507D01*
X016018Y018507D02*
X016325Y018967D01*
X015864Y018891D02*
X015788Y018967D01*
X015558Y018967D01*
X015558Y018507D01*
X015097Y018507D02*
X015404Y018967D01*
X014944Y018967D02*
X014637Y018507D01*
X014944Y018507D02*
X014637Y018967D01*
X014483Y018967D02*
X014176Y018967D01*
X014330Y018967D02*
X014330Y018507D01*
D11*
X001460Y002149D02*
X001462Y002201D01*
X001468Y002253D01*
X001478Y002304D01*
X001491Y002354D01*
X001509Y002404D01*
X001530Y002451D01*
X001554Y002497D01*
X001583Y002541D01*
X001614Y002583D01*
X001648Y002622D01*
X001685Y002659D01*
X001725Y002692D01*
X001768Y002723D01*
X001812Y002750D01*
X001858Y002774D01*
X001907Y002794D01*
X001956Y002810D01*
X002007Y002823D01*
X002058Y002832D01*
X002110Y002837D01*
X002162Y002838D01*
X002214Y002835D01*
X002266Y002828D01*
X002317Y002817D01*
X002367Y002803D01*
X002416Y002784D01*
X002463Y002762D01*
X002508Y002737D01*
X002552Y002708D01*
X002593Y002676D01*
X002632Y002641D01*
X002667Y002603D01*
X002700Y002562D01*
X002730Y002520D01*
X002756Y002475D01*
X002779Y002428D01*
X002798Y002379D01*
X002814Y002329D01*
X002826Y002279D01*
X002834Y002227D01*
X002838Y002175D01*
X002838Y002123D01*
X002834Y002071D01*
X002826Y002019D01*
X002814Y001969D01*
X002798Y001919D01*
X002779Y001870D01*
X002756Y001823D01*
X002730Y001778D01*
X002700Y001736D01*
X002667Y001695D01*
X002632Y001657D01*
X002593Y001622D01*
X002552Y001590D01*
X002508Y001561D01*
X002463Y001536D01*
X002416Y001514D01*
X002367Y001495D01*
X002317Y001481D01*
X002266Y001470D01*
X002214Y001463D01*
X002162Y001460D01*
X002110Y001461D01*
X002058Y001466D01*
X002007Y001475D01*
X001956Y001488D01*
X001907Y001504D01*
X001858Y001524D01*
X001812Y001548D01*
X001768Y001575D01*
X001725Y001606D01*
X001685Y001639D01*
X001648Y001676D01*
X001614Y001715D01*
X001583Y001757D01*
X001554Y001801D01*
X001530Y001847D01*
X001509Y001894D01*
X001491Y001944D01*
X001478Y001994D01*
X001468Y002045D01*
X001462Y002097D01*
X001460Y002149D01*
X004117Y003723D02*
X004117Y004511D01*
X006873Y004511D01*
X006873Y003723D01*
X004117Y003723D01*
X004649Y003487D02*
X004649Y002385D01*
X006341Y002385D01*
X006341Y003487D01*
X004649Y003487D01*
X005495Y003743D02*
X005495Y004471D01*
X005515Y004727D02*
X005515Y007837D01*
X006873Y007857D02*
X006873Y007070D01*
X002345Y007070D01*
X002345Y004708D01*
X004117Y004708D01*
X004117Y007857D01*
X002345Y007857D01*
X002345Y007070D01*
X002385Y006282D02*
X006873Y006282D01*
X006873Y007070D01*
X006873Y006282D02*
X006873Y005495D01*
X002365Y005495D01*
X004117Y004708D02*
X006873Y004708D01*
X006873Y005495D01*
X003723Y004038D02*
X003526Y003841D01*
X003723Y004038D02*
X003526Y004235D01*
X003723Y004038D02*
X002070Y004038D01*
X004117Y007857D02*
X006873Y007857D01*
X011342Y011322D02*
X011344Y011334D01*
X011349Y011345D01*
X011358Y011354D01*
X011369Y011359D01*
X011381Y011361D01*
X011393Y011359D01*
X011404Y011354D01*
X011413Y011345D01*
X011418Y011334D01*
X011420Y011322D01*
X011418Y011310D01*
X011413Y011299D01*
X011404Y011290D01*
X011393Y011285D01*
X011381Y011283D01*
X011369Y011285D01*
X011358Y011290D01*
X011349Y011299D01*
X011344Y011310D01*
X011342Y011322D01*
X021617Y008999D02*
X021617Y008487D01*
X021617Y008054D02*
X021617Y007621D01*
X021735Y007503D01*
X022365Y007503D01*
X022483Y007621D01*
X022483Y008054D01*
X022483Y008487D02*
X022483Y008999D01*
X021617Y008999D01*
X027306Y008999D02*
X027424Y008881D01*
X028054Y008881D01*
X028172Y008999D01*
X028172Y009432D01*
X028172Y009865D02*
X028172Y010377D01*
X027306Y010377D01*
X027306Y009865D01*
X027306Y009432D02*
X027306Y008999D01*
X027700Y007306D02*
X027582Y007188D01*
X027582Y006558D01*
X027700Y006440D01*
X028133Y006440D01*
X028566Y006440D02*
X029078Y006440D01*
X029078Y007306D01*
X028566Y007306D01*
X028133Y007306D02*
X027700Y007306D01*
X032385Y005495D02*
X032385Y004629D01*
X032976Y005062D02*
X032978Y005113D01*
X032984Y005164D01*
X032994Y005214D01*
X033007Y005264D01*
X033025Y005312D01*
X033045Y005359D01*
X033070Y005404D01*
X033098Y005447D01*
X033129Y005488D01*
X033163Y005526D01*
X033200Y005561D01*
X033239Y005594D01*
X033281Y005624D01*
X033325Y005650D01*
X033371Y005672D01*
X033419Y005692D01*
X033468Y005707D01*
X033518Y005719D01*
X033568Y005727D01*
X033619Y005731D01*
X033671Y005731D01*
X033722Y005727D01*
X033772Y005719D01*
X033822Y005707D01*
X033871Y005692D01*
X033919Y005672D01*
X033965Y005650D01*
X034009Y005624D01*
X034051Y005594D01*
X034090Y005561D01*
X034127Y005526D01*
X034161Y005488D01*
X034192Y005447D01*
X034220Y005404D01*
X034245Y005359D01*
X034265Y005312D01*
X034283Y005264D01*
X034296Y005214D01*
X034306Y005164D01*
X034312Y005113D01*
X034314Y005062D01*
X034312Y005011D01*
X034306Y004960D01*
X034296Y004910D01*
X034283Y004860D01*
X034265Y004812D01*
X034245Y004765D01*
X034220Y004720D01*
X034192Y004677D01*
X034161Y004636D01*
X034127Y004598D01*
X034090Y004563D01*
X034051Y004530D01*
X034009Y004500D01*
X033965Y004474D01*
X033919Y004452D01*
X033871Y004432D01*
X033822Y004417D01*
X033772Y004405D01*
X033722Y004397D01*
X033671Y004393D01*
X033619Y004393D01*
X033568Y004397D01*
X033518Y004405D01*
X033468Y004417D01*
X033419Y004432D01*
X033371Y004452D01*
X033325Y004474D01*
X033281Y004500D01*
X033239Y004530D01*
X033200Y004563D01*
X033163Y004598D01*
X033129Y004636D01*
X033098Y004677D01*
X033070Y004720D01*
X033045Y004765D01*
X033025Y004812D01*
X033007Y004860D01*
X032994Y004910D01*
X032984Y004960D01*
X032978Y005011D01*
X032976Y005062D01*
X034904Y005495D02*
X034904Y004629D01*
X032956Y002149D02*
X032958Y002201D01*
X032964Y002253D01*
X032974Y002304D01*
X032987Y002354D01*
X033005Y002404D01*
X033026Y002451D01*
X033050Y002497D01*
X033079Y002541D01*
X033110Y002583D01*
X033144Y002622D01*
X033181Y002659D01*
X033221Y002692D01*
X033264Y002723D01*
X033308Y002750D01*
X033354Y002774D01*
X033403Y002794D01*
X033452Y002810D01*
X033503Y002823D01*
X033554Y002832D01*
X033606Y002837D01*
X033658Y002838D01*
X033710Y002835D01*
X033762Y002828D01*
X033813Y002817D01*
X033863Y002803D01*
X033912Y002784D01*
X033959Y002762D01*
X034004Y002737D01*
X034048Y002708D01*
X034089Y002676D01*
X034128Y002641D01*
X034163Y002603D01*
X034196Y002562D01*
X034226Y002520D01*
X034252Y002475D01*
X034275Y002428D01*
X034294Y002379D01*
X034310Y002329D01*
X034322Y002279D01*
X034330Y002227D01*
X034334Y002175D01*
X034334Y002123D01*
X034330Y002071D01*
X034322Y002019D01*
X034310Y001969D01*
X034294Y001919D01*
X034275Y001870D01*
X034252Y001823D01*
X034226Y001778D01*
X034196Y001736D01*
X034163Y001695D01*
X034128Y001657D01*
X034089Y001622D01*
X034048Y001590D01*
X034004Y001561D01*
X033959Y001536D01*
X033912Y001514D01*
X033863Y001495D01*
X033813Y001481D01*
X033762Y001470D01*
X033710Y001463D01*
X033658Y001460D01*
X033606Y001461D01*
X033554Y001466D01*
X033503Y001475D01*
X033452Y001488D01*
X033403Y001504D01*
X033354Y001524D01*
X033308Y001548D01*
X033264Y001575D01*
X033221Y001606D01*
X033181Y001639D01*
X033144Y001676D01*
X033110Y001715D01*
X033079Y001757D01*
X033050Y001801D01*
X033026Y001847D01*
X033005Y001894D01*
X032987Y001944D01*
X032974Y001994D01*
X032964Y002045D01*
X032958Y002097D01*
X032956Y002149D01*
X030967Y002582D02*
X030967Y001715D01*
X029039Y002149D02*
X029041Y002200D01*
X029047Y002251D01*
X029057Y002301D01*
X029070Y002351D01*
X029088Y002399D01*
X029108Y002446D01*
X029133Y002491D01*
X029161Y002534D01*
X029192Y002575D01*
X029226Y002613D01*
X029263Y002648D01*
X029302Y002681D01*
X029344Y002711D01*
X029388Y002737D01*
X029434Y002759D01*
X029482Y002779D01*
X029531Y002794D01*
X029581Y002806D01*
X029631Y002814D01*
X029682Y002818D01*
X029734Y002818D01*
X029785Y002814D01*
X029835Y002806D01*
X029885Y002794D01*
X029934Y002779D01*
X029982Y002759D01*
X030028Y002737D01*
X030072Y002711D01*
X030114Y002681D01*
X030153Y002648D01*
X030190Y002613D01*
X030224Y002575D01*
X030255Y002534D01*
X030283Y002491D01*
X030308Y002446D01*
X030328Y002399D01*
X030346Y002351D01*
X030359Y002301D01*
X030369Y002251D01*
X030375Y002200D01*
X030377Y002149D01*
X030375Y002098D01*
X030369Y002047D01*
X030359Y001997D01*
X030346Y001947D01*
X030328Y001899D01*
X030308Y001852D01*
X030283Y001807D01*
X030255Y001764D01*
X030224Y001723D01*
X030190Y001685D01*
X030153Y001650D01*
X030114Y001617D01*
X030072Y001587D01*
X030028Y001561D01*
X029982Y001539D01*
X029934Y001519D01*
X029885Y001504D01*
X029835Y001492D01*
X029785Y001484D01*
X029734Y001480D01*
X029682Y001480D01*
X029631Y001484D01*
X029581Y001492D01*
X029531Y001504D01*
X029482Y001519D01*
X029434Y001539D01*
X029388Y001561D01*
X029344Y001587D01*
X029302Y001617D01*
X029263Y001650D01*
X029226Y001685D01*
X029192Y001723D01*
X029161Y001764D01*
X029133Y001807D01*
X029108Y001852D01*
X029088Y001899D01*
X029070Y001947D01*
X029057Y001997D01*
X029047Y002047D01*
X029041Y002098D01*
X029039Y002149D01*
X028448Y002582D02*
X028448Y001715D01*
X032385Y009589D02*
X032385Y010456D01*
X032976Y010023D02*
X032978Y010074D01*
X032984Y010125D01*
X032994Y010175D01*
X033007Y010225D01*
X033025Y010273D01*
X033045Y010320D01*
X033070Y010365D01*
X033098Y010408D01*
X033129Y010449D01*
X033163Y010487D01*
X033200Y010522D01*
X033239Y010555D01*
X033281Y010585D01*
X033325Y010611D01*
X033371Y010633D01*
X033419Y010653D01*
X033468Y010668D01*
X033518Y010680D01*
X033568Y010688D01*
X033619Y010692D01*
X033671Y010692D01*
X033722Y010688D01*
X033772Y010680D01*
X033822Y010668D01*
X033871Y010653D01*
X033919Y010633D01*
X033965Y010611D01*
X034009Y010585D01*
X034051Y010555D01*
X034090Y010522D01*
X034127Y010487D01*
X034161Y010449D01*
X034192Y010408D01*
X034220Y010365D01*
X034245Y010320D01*
X034265Y010273D01*
X034283Y010225D01*
X034296Y010175D01*
X034306Y010125D01*
X034312Y010074D01*
X034314Y010023D01*
X034312Y009972D01*
X034306Y009921D01*
X034296Y009871D01*
X034283Y009821D01*
X034265Y009773D01*
X034245Y009726D01*
X034220Y009681D01*
X034192Y009638D01*
X034161Y009597D01*
X034127Y009559D01*
X034090Y009524D01*
X034051Y009491D01*
X034009Y009461D01*
X033965Y009435D01*
X033919Y009413D01*
X033871Y009393D01*
X033822Y009378D01*
X033772Y009366D01*
X033722Y009358D01*
X033671Y009354D01*
X033619Y009354D01*
X033568Y009358D01*
X033518Y009366D01*
X033468Y009378D01*
X033419Y009393D01*
X033371Y009413D01*
X033325Y009435D01*
X033281Y009461D01*
X033239Y009491D01*
X033200Y009524D01*
X033163Y009559D01*
X033129Y009597D01*
X033098Y009638D01*
X033070Y009681D01*
X033045Y009726D01*
X033025Y009773D01*
X033007Y009821D01*
X032994Y009871D01*
X032984Y009921D01*
X032978Y009972D01*
X032976Y010023D01*
X034904Y010456D02*
X034904Y009589D01*
X033526Y012463D02*
X033015Y012463D01*
X032582Y012463D02*
X032149Y012463D01*
X032030Y012582D01*
X032030Y013211D01*
X032149Y013330D01*
X032582Y013330D01*
X033015Y013330D02*
X033526Y013330D01*
X033526Y012463D01*
X032385Y014550D02*
X032385Y015416D01*
X032976Y014983D02*
X032978Y015034D01*
X032984Y015085D01*
X032994Y015135D01*
X033007Y015185D01*
X033025Y015233D01*
X033045Y015280D01*
X033070Y015325D01*
X033098Y015368D01*
X033129Y015409D01*
X033163Y015447D01*
X033200Y015482D01*
X033239Y015515D01*
X033281Y015545D01*
X033325Y015571D01*
X033371Y015593D01*
X033419Y015613D01*
X033468Y015628D01*
X033518Y015640D01*
X033568Y015648D01*
X033619Y015652D01*
X033671Y015652D01*
X033722Y015648D01*
X033772Y015640D01*
X033822Y015628D01*
X033871Y015613D01*
X033919Y015593D01*
X033965Y015571D01*
X034009Y015545D01*
X034051Y015515D01*
X034090Y015482D01*
X034127Y015447D01*
X034161Y015409D01*
X034192Y015368D01*
X034220Y015325D01*
X034245Y015280D01*
X034265Y015233D01*
X034283Y015185D01*
X034296Y015135D01*
X034306Y015085D01*
X034312Y015034D01*
X034314Y014983D01*
X034312Y014932D01*
X034306Y014881D01*
X034296Y014831D01*
X034283Y014781D01*
X034265Y014733D01*
X034245Y014686D01*
X034220Y014641D01*
X034192Y014598D01*
X034161Y014557D01*
X034127Y014519D01*
X034090Y014484D01*
X034051Y014451D01*
X034009Y014421D01*
X033965Y014395D01*
X033919Y014373D01*
X033871Y014353D01*
X033822Y014338D01*
X033772Y014326D01*
X033722Y014318D01*
X033671Y014314D01*
X033619Y014314D01*
X033568Y014318D01*
X033518Y014326D01*
X033468Y014338D01*
X033419Y014353D01*
X033371Y014373D01*
X033325Y014395D01*
X033281Y014421D01*
X033239Y014451D01*
X033200Y014484D01*
X033163Y014519D01*
X033129Y014557D01*
X033098Y014598D01*
X033070Y014641D01*
X033045Y014686D01*
X033025Y014733D01*
X033007Y014781D01*
X032994Y014831D01*
X032984Y014881D01*
X032978Y014932D01*
X032976Y014983D01*
X034904Y015416D02*
X034904Y014550D01*
X032956Y017897D02*
X032958Y017949D01*
X032964Y018001D01*
X032974Y018052D01*
X032987Y018102D01*
X033005Y018152D01*
X033026Y018199D01*
X033050Y018245D01*
X033079Y018289D01*
X033110Y018331D01*
X033144Y018370D01*
X033181Y018407D01*
X033221Y018440D01*
X033264Y018471D01*
X033308Y018498D01*
X033354Y018522D01*
X033403Y018542D01*
X033452Y018558D01*
X033503Y018571D01*
X033554Y018580D01*
X033606Y018585D01*
X033658Y018586D01*
X033710Y018583D01*
X033762Y018576D01*
X033813Y018565D01*
X033863Y018551D01*
X033912Y018532D01*
X033959Y018510D01*
X034004Y018485D01*
X034048Y018456D01*
X034089Y018424D01*
X034128Y018389D01*
X034163Y018351D01*
X034196Y018310D01*
X034226Y018268D01*
X034252Y018223D01*
X034275Y018176D01*
X034294Y018127D01*
X034310Y018077D01*
X034322Y018027D01*
X034330Y017975D01*
X034334Y017923D01*
X034334Y017871D01*
X034330Y017819D01*
X034322Y017767D01*
X034310Y017717D01*
X034294Y017667D01*
X034275Y017618D01*
X034252Y017571D01*
X034226Y017526D01*
X034196Y017484D01*
X034163Y017443D01*
X034128Y017405D01*
X034089Y017370D01*
X034048Y017338D01*
X034004Y017309D01*
X033959Y017284D01*
X033912Y017262D01*
X033863Y017243D01*
X033813Y017229D01*
X033762Y017218D01*
X033710Y017211D01*
X033658Y017208D01*
X033606Y017209D01*
X033554Y017214D01*
X033503Y017223D01*
X033452Y017236D01*
X033403Y017252D01*
X033354Y017272D01*
X033308Y017296D01*
X033264Y017323D01*
X033221Y017354D01*
X033181Y017387D01*
X033144Y017424D01*
X033110Y017463D01*
X033079Y017505D01*
X033050Y017549D01*
X033026Y017595D01*
X033005Y017642D01*
X032987Y017692D01*
X032974Y017742D01*
X032964Y017793D01*
X032958Y017845D01*
X032956Y017897D01*
X031952Y018526D02*
X031440Y018526D01*
X031007Y018526D02*
X030574Y018526D01*
X030456Y018645D01*
X030456Y019274D01*
X030574Y019393D01*
X031007Y019393D01*
X031440Y019393D02*
X031952Y019393D01*
X031952Y018526D01*
X023841Y017503D02*
X022975Y017503D01*
X022739Y018763D02*
X022741Y018814D01*
X022747Y018865D01*
X022757Y018915D01*
X022770Y018965D01*
X022788Y019013D01*
X022808Y019060D01*
X022833Y019105D01*
X022861Y019148D01*
X022892Y019189D01*
X022926Y019227D01*
X022963Y019262D01*
X023002Y019295D01*
X023044Y019325D01*
X023088Y019351D01*
X023134Y019373D01*
X023182Y019393D01*
X023231Y019408D01*
X023281Y019420D01*
X023331Y019428D01*
X023382Y019432D01*
X023434Y019432D01*
X023485Y019428D01*
X023535Y019420D01*
X023585Y019408D01*
X023634Y019393D01*
X023682Y019373D01*
X023728Y019351D01*
X023772Y019325D01*
X023814Y019295D01*
X023853Y019262D01*
X023890Y019227D01*
X023924Y019189D01*
X023955Y019148D01*
X023983Y019105D01*
X024008Y019060D01*
X024028Y019013D01*
X024046Y018965D01*
X024059Y018915D01*
X024069Y018865D01*
X024075Y018814D01*
X024077Y018763D01*
X024075Y018712D01*
X024069Y018661D01*
X024059Y018611D01*
X024046Y018561D01*
X024028Y018513D01*
X024008Y018466D01*
X023983Y018421D01*
X023955Y018378D01*
X023924Y018337D01*
X023890Y018299D01*
X023853Y018264D01*
X023814Y018231D01*
X023772Y018201D01*
X023728Y018175D01*
X023682Y018153D01*
X023634Y018133D01*
X023585Y018118D01*
X023535Y018106D01*
X023485Y018098D01*
X023434Y018094D01*
X023382Y018094D01*
X023331Y018098D01*
X023281Y018106D01*
X023231Y018118D01*
X023182Y018133D01*
X023134Y018153D01*
X023088Y018175D01*
X023044Y018201D01*
X023002Y018231D01*
X022963Y018264D01*
X022926Y018299D01*
X022892Y018337D01*
X022861Y018378D01*
X022833Y018421D01*
X022808Y018466D01*
X022788Y018513D01*
X022770Y018561D01*
X022757Y018611D01*
X022747Y018661D01*
X022741Y018712D01*
X022739Y018763D01*
X022975Y020023D02*
X023841Y020023D01*
X013645Y019196D02*
X013645Y018330D01*
X011716Y018763D02*
X011718Y018814D01*
X011724Y018865D01*
X011734Y018915D01*
X011747Y018965D01*
X011765Y019013D01*
X011785Y019060D01*
X011810Y019105D01*
X011838Y019148D01*
X011869Y019189D01*
X011903Y019227D01*
X011940Y019262D01*
X011979Y019295D01*
X012021Y019325D01*
X012065Y019351D01*
X012111Y019373D01*
X012159Y019393D01*
X012208Y019408D01*
X012258Y019420D01*
X012308Y019428D01*
X012359Y019432D01*
X012411Y019432D01*
X012462Y019428D01*
X012512Y019420D01*
X012562Y019408D01*
X012611Y019393D01*
X012659Y019373D01*
X012705Y019351D01*
X012749Y019325D01*
X012791Y019295D01*
X012830Y019262D01*
X012867Y019227D01*
X012901Y019189D01*
X012932Y019148D01*
X012960Y019105D01*
X012985Y019060D01*
X013005Y019013D01*
X013023Y018965D01*
X013036Y018915D01*
X013046Y018865D01*
X013052Y018814D01*
X013054Y018763D01*
X013052Y018712D01*
X013046Y018661D01*
X013036Y018611D01*
X013023Y018561D01*
X013005Y018513D01*
X012985Y018466D01*
X012960Y018421D01*
X012932Y018378D01*
X012901Y018337D01*
X012867Y018299D01*
X012830Y018264D01*
X012791Y018231D01*
X012749Y018201D01*
X012705Y018175D01*
X012659Y018153D01*
X012611Y018133D01*
X012562Y018118D01*
X012512Y018106D01*
X012462Y018098D01*
X012411Y018094D01*
X012359Y018094D01*
X012308Y018098D01*
X012258Y018106D01*
X012208Y018118D01*
X012159Y018133D01*
X012111Y018153D01*
X012065Y018175D01*
X012021Y018201D01*
X011979Y018231D01*
X011940Y018264D01*
X011903Y018299D01*
X011869Y018337D01*
X011838Y018378D01*
X011810Y018421D01*
X011785Y018466D01*
X011765Y018513D01*
X011747Y018561D01*
X011734Y018611D01*
X011724Y018661D01*
X011718Y018712D01*
X011716Y018763D01*
X011125Y018330D02*
X011125Y019196D01*
X001460Y017897D02*
X001462Y017949D01*
X001468Y018001D01*
X001478Y018052D01*
X001491Y018102D01*
X001509Y018152D01*
X001530Y018199D01*
X001554Y018245D01*
X001583Y018289D01*
X001614Y018331D01*
X001648Y018370D01*
X001685Y018407D01*
X001725Y018440D01*
X001768Y018471D01*
X001812Y018498D01*
X001858Y018522D01*
X001907Y018542D01*
X001956Y018558D01*
X002007Y018571D01*
X002058Y018580D01*
X002110Y018585D01*
X002162Y018586D01*
X002214Y018583D01*
X002266Y018576D01*
X002317Y018565D01*
X002367Y018551D01*
X002416Y018532D01*
X002463Y018510D01*
X002508Y018485D01*
X002552Y018456D01*
X002593Y018424D01*
X002632Y018389D01*
X002667Y018351D01*
X002700Y018310D01*
X002730Y018268D01*
X002756Y018223D01*
X002779Y018176D01*
X002798Y018127D01*
X002814Y018077D01*
X002826Y018027D01*
X002834Y017975D01*
X002838Y017923D01*
X002838Y017871D01*
X002834Y017819D01*
X002826Y017767D01*
X002814Y017717D01*
X002798Y017667D01*
X002779Y017618D01*
X002756Y017571D01*
X002730Y017526D01*
X002700Y017484D01*
X002667Y017443D01*
X002632Y017405D01*
X002593Y017370D01*
X002552Y017338D01*
X002508Y017309D01*
X002463Y017284D01*
X002416Y017262D01*
X002367Y017243D01*
X002317Y017229D01*
X002266Y017218D01*
X002214Y017211D01*
X002162Y017208D01*
X002110Y017209D01*
X002058Y017214D01*
X002007Y017223D01*
X001956Y017236D01*
X001907Y017252D01*
X001858Y017272D01*
X001812Y017296D01*
X001768Y017323D01*
X001725Y017354D01*
X001685Y017387D01*
X001648Y017424D01*
X001614Y017463D01*
X001583Y017505D01*
X001554Y017549D01*
X001530Y017595D01*
X001509Y017642D01*
X001491Y017692D01*
X001478Y017742D01*
X001468Y017793D01*
X001462Y017845D01*
X001460Y017897D01*
D12*
X014353Y019865D02*
X021243Y019865D01*
X025967Y021637D02*
X025967Y016125D01*
X024156Y014314D01*
X024156Y008999D01*
X020062Y004904D01*
X008448Y007070D02*
X008448Y000771D01*
X008448Y007070D02*
X005692Y009826D01*
X000771Y009826D01*
X026952Y019865D02*
X033054Y019865D01*
D13*
X033057Y020294D02*
X032662Y020294D01*
X032530Y020426D01*
X032530Y020689D01*
X032662Y020821D01*
X033057Y020821D01*
X033057Y021084D02*
X033057Y020294D01*
X032265Y020294D02*
X032265Y020689D01*
X032133Y020821D01*
X031738Y020821D01*
X031738Y020294D01*
X031473Y020294D02*
X031078Y020294D01*
X030946Y020426D01*
X031078Y020557D01*
X031473Y020557D01*
X031473Y020689D02*
X031473Y020294D01*
X031473Y020689D02*
X031341Y020821D01*
X031078Y020821D01*
X030681Y020689D02*
X030681Y020426D01*
X030549Y020294D01*
X030154Y020294D01*
X030154Y021084D01*
X030154Y020821D02*
X030549Y020821D01*
X030681Y020689D01*
X029889Y020689D02*
X029889Y020557D01*
X029362Y020557D01*
X029362Y020426D02*
X029362Y020689D01*
X029494Y020821D01*
X029758Y020821D01*
X029889Y020689D01*
X029494Y020294D02*
X029362Y020426D01*
X029494Y020294D02*
X029758Y020294D01*
X029098Y020426D02*
X028966Y020294D01*
X028570Y020294D01*
X028306Y020294D02*
X027910Y020294D01*
X027779Y020426D01*
X027910Y020557D01*
X028306Y020557D01*
X028306Y020689D02*
X028174Y020821D01*
X027910Y020821D01*
X027514Y020821D02*
X027514Y020953D01*
X027382Y021084D01*
X026987Y021084D01*
X026987Y020294D01*
X027382Y020294D01*
X027514Y020426D01*
X027514Y020557D01*
X027382Y020689D01*
X026987Y020689D01*
X027382Y020689D02*
X027514Y020821D01*
X028306Y020689D02*
X028306Y020294D01*
X028702Y020557D02*
X028570Y020689D01*
X028702Y020821D01*
X029098Y020821D01*
X028966Y020557D02*
X028702Y020557D01*
X028966Y020557D02*
X029098Y020426D01*
X021250Y020294D02*
X020723Y020294D01*
X021250Y020821D01*
X020723Y020821D01*
X020458Y020689D02*
X019931Y020689D01*
X019667Y020689D02*
X019667Y020426D01*
X019535Y020294D01*
X019271Y020294D01*
X019139Y020426D01*
X019139Y020953D01*
X019271Y021084D01*
X019535Y021084D01*
X019667Y020953D01*
X019667Y020689D02*
X019403Y020689D01*
X018875Y020689D02*
X018875Y020426D01*
X018743Y020294D01*
X018479Y020294D01*
X018348Y020426D01*
X018348Y020689D02*
X018611Y020821D01*
X018743Y020821D01*
X018875Y020689D01*
X018875Y021084D02*
X018348Y021084D01*
X018348Y020689D01*
X018083Y020426D02*
X018083Y020294D01*
X017952Y020294D01*
X017952Y020426D01*
X018083Y020426D01*
X017687Y020294D02*
X017160Y020294D01*
X017687Y020821D01*
X017687Y020953D01*
X017555Y021084D01*
X017292Y021084D01*
X017160Y020953D01*
X016895Y020689D02*
X016368Y020689D01*
X016103Y020689D02*
X015576Y020689D01*
X015971Y021084D01*
X015971Y020294D01*
X015312Y020294D02*
X015180Y020294D01*
X015180Y020426D01*
X015312Y020426D01*
X015312Y020294D01*
X014915Y020294D02*
X014388Y020294D01*
X014915Y020821D01*
X014915Y020953D01*
X014784Y021084D01*
X014520Y021084D01*
X014388Y020953D01*
X019931Y021084D02*
X019931Y020294D01*
X020458Y020294D02*
X020458Y021084D01*
D14*
X029400Y016806D02*
X029400Y015837D01*
X029401Y015834D02*
X029402Y015817D01*
X029407Y015800D01*
X029414Y015785D01*
X029424Y015771D01*
X029436Y015759D01*
X029450Y015749D01*
X029465Y015742D01*
X029482Y015737D01*
X029499Y015736D01*
X029503Y015735D02*
X030471Y015735D01*
X030467Y015736D02*
X030484Y015737D01*
X030501Y015742D01*
X030516Y015749D01*
X030530Y015759D01*
X030542Y015771D01*
X030552Y015785D01*
X030559Y015800D01*
X030564Y015817D01*
X030565Y015834D01*
X030566Y015834D02*
X030566Y016806D01*
X030565Y016806D02*
X030564Y016823D01*
X030559Y016840D01*
X030552Y016855D01*
X030542Y016869D01*
X030530Y016881D01*
X030516Y016891D01*
X030501Y016898D01*
X030484Y016903D01*
X030467Y016904D01*
X030471Y016904D02*
X029503Y016904D01*
X029499Y016904D02*
X029482Y016903D01*
X029465Y016898D01*
X029450Y016891D01*
X029436Y016881D01*
X029424Y016869D01*
X029414Y016855D01*
X029407Y016840D01*
X029402Y016823D01*
X029401Y016806D01*
X032295Y017897D02*
X032297Y017970D01*
X032303Y018043D01*
X032313Y018115D01*
X032327Y018187D01*
X032344Y018258D01*
X032366Y018328D01*
X032391Y018397D01*
X032420Y018464D01*
X032452Y018529D01*
X032488Y018593D01*
X032528Y018655D01*
X032570Y018714D01*
X032616Y018771D01*
X032665Y018825D01*
X032717Y018877D01*
X032771Y018926D01*
X032828Y018972D01*
X032887Y019014D01*
X032949Y019054D01*
X033013Y019090D01*
X033078Y019122D01*
X033145Y019151D01*
X033214Y019176D01*
X033284Y019198D01*
X033355Y019215D01*
X033427Y019229D01*
X033499Y019239D01*
X033572Y019245D01*
X033645Y019247D01*
X033718Y019245D01*
X033791Y019239D01*
X033863Y019229D01*
X033935Y019215D01*
X034006Y019198D01*
X034076Y019176D01*
X034145Y019151D01*
X034212Y019122D01*
X034277Y019090D01*
X034341Y019054D01*
X034403Y019014D01*
X034462Y018972D01*
X034519Y018926D01*
X034573Y018877D01*
X034625Y018825D01*
X034674Y018771D01*
X034720Y018714D01*
X034762Y018655D01*
X034802Y018593D01*
X034838Y018529D01*
X034870Y018464D01*
X034899Y018397D01*
X034924Y018328D01*
X034946Y018258D01*
X034963Y018187D01*
X034977Y018115D01*
X034987Y018043D01*
X034993Y017970D01*
X034995Y017897D01*
X034993Y017824D01*
X034987Y017751D01*
X034977Y017679D01*
X034963Y017607D01*
X034946Y017536D01*
X034924Y017466D01*
X034899Y017397D01*
X034870Y017330D01*
X034838Y017265D01*
X034802Y017201D01*
X034762Y017139D01*
X034720Y017080D01*
X034674Y017023D01*
X034625Y016969D01*
X034573Y016917D01*
X034519Y016868D01*
X034462Y016822D01*
X034403Y016780D01*
X034341Y016740D01*
X034277Y016704D01*
X034212Y016672D01*
X034145Y016643D01*
X034076Y016618D01*
X034006Y016596D01*
X033935Y016579D01*
X033863Y016565D01*
X033791Y016555D01*
X033718Y016549D01*
X033645Y016547D01*
X033572Y016549D01*
X033499Y016555D01*
X033427Y016565D01*
X033355Y016579D01*
X033284Y016596D01*
X033214Y016618D01*
X033145Y016643D01*
X033078Y016672D01*
X033013Y016704D01*
X032949Y016740D01*
X032887Y016780D01*
X032828Y016822D01*
X032771Y016868D01*
X032717Y016917D01*
X032665Y016969D01*
X032616Y017023D01*
X032570Y017080D01*
X032528Y017139D01*
X032488Y017201D01*
X032452Y017265D01*
X032420Y017330D01*
X032391Y017397D01*
X032366Y017466D01*
X032344Y017536D01*
X032327Y017607D01*
X032313Y017679D01*
X032303Y017751D01*
X032297Y017824D01*
X032295Y017897D01*
X030471Y011944D02*
X029503Y011944D01*
X029499Y011943D02*
X029482Y011942D01*
X029465Y011937D01*
X029450Y011930D01*
X029436Y011920D01*
X029424Y011908D01*
X029414Y011894D01*
X029407Y011879D01*
X029402Y011862D01*
X029401Y011845D01*
X029400Y011845D02*
X029400Y010877D01*
X029401Y010873D02*
X029402Y010856D01*
X029407Y010839D01*
X029414Y010824D01*
X029424Y010810D01*
X029436Y010798D01*
X029450Y010788D01*
X029465Y010781D01*
X029482Y010776D01*
X029499Y010775D01*
X029503Y010774D02*
X030471Y010774D01*
X030467Y010775D02*
X030484Y010776D01*
X030501Y010781D01*
X030516Y010788D01*
X030530Y010798D01*
X030542Y010810D01*
X030552Y010824D01*
X030559Y010839D01*
X030564Y010856D01*
X030565Y010873D01*
X030566Y010873D02*
X030566Y011845D01*
X030565Y011845D02*
X030564Y011862D01*
X030559Y011879D01*
X030552Y011894D01*
X030542Y011908D01*
X030530Y011920D01*
X030516Y011930D01*
X030501Y011937D01*
X030484Y011942D01*
X030467Y011943D01*
X030463Y008365D02*
X029495Y008365D01*
X029499Y008365D02*
X029482Y008364D01*
X029465Y008359D01*
X029450Y008352D01*
X029436Y008342D01*
X029424Y008330D01*
X029414Y008316D01*
X029407Y008301D01*
X029402Y008284D01*
X029401Y008267D01*
X029400Y008267D02*
X029400Y007294D01*
X029401Y007294D02*
X029402Y007277D01*
X029407Y007260D01*
X029414Y007245D01*
X029424Y007231D01*
X029436Y007219D01*
X029450Y007209D01*
X029465Y007202D01*
X029482Y007197D01*
X029499Y007196D01*
X029495Y007196D02*
X030463Y007196D01*
X030467Y007196D02*
X030484Y007197D01*
X030501Y007202D01*
X030516Y007209D01*
X030530Y007219D01*
X030542Y007231D01*
X030552Y007245D01*
X030559Y007260D01*
X030564Y007277D01*
X030565Y007294D01*
X030566Y007294D02*
X030566Y008263D01*
X030565Y008267D02*
X030564Y008284D01*
X030559Y008301D01*
X030552Y008316D01*
X030542Y008330D01*
X030530Y008342D01*
X030516Y008352D01*
X030501Y008359D01*
X030484Y008364D01*
X030467Y008365D01*
X027952Y004897D02*
X026979Y004897D01*
X026979Y004896D02*
X026962Y004895D01*
X026945Y004890D01*
X026930Y004883D01*
X026916Y004873D01*
X026904Y004861D01*
X026894Y004847D01*
X026887Y004832D01*
X026882Y004815D01*
X026881Y004798D01*
X026881Y004802D02*
X026881Y003834D01*
X026881Y003830D02*
X026882Y003813D01*
X026887Y003796D01*
X026894Y003781D01*
X026904Y003767D01*
X026916Y003755D01*
X026930Y003745D01*
X026945Y003738D01*
X026962Y003733D01*
X026979Y003732D01*
X026979Y003731D02*
X027948Y003731D01*
X027952Y003732D02*
X027969Y003733D01*
X027986Y003738D01*
X028001Y003745D01*
X028015Y003755D01*
X028027Y003767D01*
X028037Y003781D01*
X028044Y003796D01*
X028049Y003813D01*
X028050Y003830D01*
X028050Y003834D02*
X028050Y004802D01*
X028050Y004798D02*
X028049Y004815D01*
X028044Y004832D01*
X028037Y004847D01*
X028027Y004861D01*
X028015Y004873D01*
X028001Y004883D01*
X027986Y004890D01*
X027969Y004895D01*
X027952Y004896D01*
X032295Y002149D02*
X032297Y002222D01*
X032303Y002295D01*
X032313Y002367D01*
X032327Y002439D01*
X032344Y002510D01*
X032366Y002580D01*
X032391Y002649D01*
X032420Y002716D01*
X032452Y002781D01*
X032488Y002845D01*
X032528Y002907D01*
X032570Y002966D01*
X032616Y003023D01*
X032665Y003077D01*
X032717Y003129D01*
X032771Y003178D01*
X032828Y003224D01*
X032887Y003266D01*
X032949Y003306D01*
X033013Y003342D01*
X033078Y003374D01*
X033145Y003403D01*
X033214Y003428D01*
X033284Y003450D01*
X033355Y003467D01*
X033427Y003481D01*
X033499Y003491D01*
X033572Y003497D01*
X033645Y003499D01*
X033718Y003497D01*
X033791Y003491D01*
X033863Y003481D01*
X033935Y003467D01*
X034006Y003450D01*
X034076Y003428D01*
X034145Y003403D01*
X034212Y003374D01*
X034277Y003342D01*
X034341Y003306D01*
X034403Y003266D01*
X034462Y003224D01*
X034519Y003178D01*
X034573Y003129D01*
X034625Y003077D01*
X034674Y003023D01*
X034720Y002966D01*
X034762Y002907D01*
X034802Y002845D01*
X034838Y002781D01*
X034870Y002716D01*
X034899Y002649D01*
X034924Y002580D01*
X034946Y002510D01*
X034963Y002439D01*
X034977Y002367D01*
X034987Y002295D01*
X034993Y002222D01*
X034995Y002149D01*
X034993Y002076D01*
X034987Y002003D01*
X034977Y001931D01*
X034963Y001859D01*
X034946Y001788D01*
X034924Y001718D01*
X034899Y001649D01*
X034870Y001582D01*
X034838Y001517D01*
X034802Y001453D01*
X034762Y001391D01*
X034720Y001332D01*
X034674Y001275D01*
X034625Y001221D01*
X034573Y001169D01*
X034519Y001120D01*
X034462Y001074D01*
X034403Y001032D01*
X034341Y000992D01*
X034277Y000956D01*
X034212Y000924D01*
X034145Y000895D01*
X034076Y000870D01*
X034006Y000848D01*
X033935Y000831D01*
X033863Y000817D01*
X033791Y000807D01*
X033718Y000801D01*
X033645Y000799D01*
X033572Y000801D01*
X033499Y000807D01*
X033427Y000817D01*
X033355Y000831D01*
X033284Y000848D01*
X033214Y000870D01*
X033145Y000895D01*
X033078Y000924D01*
X033013Y000956D01*
X032949Y000992D01*
X032887Y001032D01*
X032828Y001074D01*
X032771Y001120D01*
X032717Y001169D01*
X032665Y001221D01*
X032616Y001275D01*
X032570Y001332D01*
X032528Y001391D01*
X032488Y001453D01*
X032452Y001517D01*
X032420Y001582D01*
X032391Y001649D01*
X032366Y001718D01*
X032344Y001788D01*
X032327Y001859D01*
X032313Y001931D01*
X032303Y002003D01*
X032297Y002076D01*
X032295Y002149D01*
X000799Y002149D02*
X000801Y002222D01*
X000807Y002295D01*
X000817Y002367D01*
X000831Y002439D01*
X000848Y002510D01*
X000870Y002580D01*
X000895Y002649D01*
X000924Y002716D01*
X000956Y002781D01*
X000992Y002845D01*
X001032Y002907D01*
X001074Y002966D01*
X001120Y003023D01*
X001169Y003077D01*
X001221Y003129D01*
X001275Y003178D01*
X001332Y003224D01*
X001391Y003266D01*
X001453Y003306D01*
X001517Y003342D01*
X001582Y003374D01*
X001649Y003403D01*
X001718Y003428D01*
X001788Y003450D01*
X001859Y003467D01*
X001931Y003481D01*
X002003Y003491D01*
X002076Y003497D01*
X002149Y003499D01*
X002222Y003497D01*
X002295Y003491D01*
X002367Y003481D01*
X002439Y003467D01*
X002510Y003450D01*
X002580Y003428D01*
X002649Y003403D01*
X002716Y003374D01*
X002781Y003342D01*
X002845Y003306D01*
X002907Y003266D01*
X002966Y003224D01*
X003023Y003178D01*
X003077Y003129D01*
X003129Y003077D01*
X003178Y003023D01*
X003224Y002966D01*
X003266Y002907D01*
X003306Y002845D01*
X003342Y002781D01*
X003374Y002716D01*
X003403Y002649D01*
X003428Y002580D01*
X003450Y002510D01*
X003467Y002439D01*
X003481Y002367D01*
X003491Y002295D01*
X003497Y002222D01*
X003499Y002149D01*
X003497Y002076D01*
X003491Y002003D01*
X003481Y001931D01*
X003467Y001859D01*
X003450Y001788D01*
X003428Y001718D01*
X003403Y001649D01*
X003374Y001582D01*
X003342Y001517D01*
X003306Y001453D01*
X003266Y001391D01*
X003224Y001332D01*
X003178Y001275D01*
X003129Y001221D01*
X003077Y001169D01*
X003023Y001120D01*
X002966Y001074D01*
X002907Y001032D01*
X002845Y000992D01*
X002781Y000956D01*
X002716Y000924D01*
X002649Y000895D01*
X002580Y000870D01*
X002510Y000848D01*
X002439Y000831D01*
X002367Y000817D01*
X002295Y000807D01*
X002222Y000801D01*
X002149Y000799D01*
X002076Y000801D01*
X002003Y000807D01*
X001931Y000817D01*
X001859Y000831D01*
X001788Y000848D01*
X001718Y000870D01*
X001649Y000895D01*
X001582Y000924D01*
X001517Y000956D01*
X001453Y000992D01*
X001391Y001032D01*
X001332Y001074D01*
X001275Y001120D01*
X001221Y001169D01*
X001169Y001221D01*
X001120Y001275D01*
X001074Y001332D01*
X001032Y001391D01*
X000992Y001453D01*
X000956Y001517D01*
X000924Y001582D01*
X000895Y001649D01*
X000870Y001718D01*
X000848Y001788D01*
X000831Y001859D01*
X000817Y001931D01*
X000807Y002003D01*
X000801Y002076D01*
X000799Y002149D01*
X000799Y017897D02*
X000801Y017970D01*
X000807Y018043D01*
X000817Y018115D01*
X000831Y018187D01*
X000848Y018258D01*
X000870Y018328D01*
X000895Y018397D01*
X000924Y018464D01*
X000956Y018529D01*
X000992Y018593D01*
X001032Y018655D01*
X001074Y018714D01*
X001120Y018771D01*
X001169Y018825D01*
X001221Y018877D01*
X001275Y018926D01*
X001332Y018972D01*
X001391Y019014D01*
X001453Y019054D01*
X001517Y019090D01*
X001582Y019122D01*
X001649Y019151D01*
X001718Y019176D01*
X001788Y019198D01*
X001859Y019215D01*
X001931Y019229D01*
X002003Y019239D01*
X002076Y019245D01*
X002149Y019247D01*
X002222Y019245D01*
X002295Y019239D01*
X002367Y019229D01*
X002439Y019215D01*
X002510Y019198D01*
X002580Y019176D01*
X002649Y019151D01*
X002716Y019122D01*
X002781Y019090D01*
X002845Y019054D01*
X002907Y019014D01*
X002966Y018972D01*
X003023Y018926D01*
X003077Y018877D01*
X003129Y018825D01*
X003178Y018771D01*
X003224Y018714D01*
X003266Y018655D01*
X003306Y018593D01*
X003342Y018529D01*
X003374Y018464D01*
X003403Y018397D01*
X003428Y018328D01*
X003450Y018258D01*
X003467Y018187D01*
X003481Y018115D01*
X003491Y018043D01*
X003497Y017970D01*
X003499Y017897D01*
X003497Y017824D01*
X003491Y017751D01*
X003481Y017679D01*
X003467Y017607D01*
X003450Y017536D01*
X003428Y017466D01*
X003403Y017397D01*
X003374Y017330D01*
X003342Y017265D01*
X003306Y017201D01*
X003266Y017139D01*
X003224Y017080D01*
X003178Y017023D01*
X003129Y016969D01*
X003077Y016917D01*
X003023Y016868D01*
X002966Y016822D01*
X002907Y016780D01*
X002845Y016740D01*
X002781Y016704D01*
X002716Y016672D01*
X002649Y016643D01*
X002580Y016618D01*
X002510Y016596D01*
X002439Y016579D01*
X002367Y016565D01*
X002295Y016555D01*
X002222Y016549D01*
X002149Y016547D01*
X002076Y016549D01*
X002003Y016555D01*
X001931Y016565D01*
X001859Y016579D01*
X001788Y016596D01*
X001718Y016618D01*
X001649Y016643D01*
X001582Y016672D01*
X001517Y016704D01*
X001453Y016740D01*
X001391Y016780D01*
X001332Y016822D01*
X001275Y016868D01*
X001221Y016917D01*
X001169Y016969D01*
X001120Y017023D01*
X001074Y017080D01*
X001032Y017139D01*
X000992Y017201D01*
X000956Y017265D01*
X000924Y017330D01*
X000895Y017397D01*
X000870Y017466D01*
X000848Y017536D01*
X000831Y017607D01*
X000817Y017679D01*
X000807Y017751D01*
X000801Y017824D01*
X000799Y017897D01*
D15*
X017414Y011704D02*
X018082Y011036D01*
X018694Y011648D01*
X018026Y012316D01*
X017987Y012316D02*
X017989Y012328D01*
X017994Y012339D01*
X018003Y012348D01*
X018014Y012353D01*
X018026Y012355D01*
X018038Y012353D01*
X018049Y012348D01*
X018058Y012339D01*
X018063Y012328D01*
X018065Y012316D01*
X018063Y012304D01*
X018058Y012293D01*
X018049Y012284D01*
X018038Y012279D01*
X018026Y012277D01*
X018014Y012279D01*
X018003Y012284D01*
X017994Y012293D01*
X017989Y012304D01*
X017987Y012316D01*
X018026Y012316D02*
X017414Y011704D01*
X018752Y010365D02*
X019365Y010978D01*
X019326Y010978D02*
X019328Y010990D01*
X019333Y011001D01*
X019342Y011010D01*
X019353Y011015D01*
X019365Y011017D01*
X019377Y011015D01*
X019388Y011010D01*
X019397Y011001D01*
X019402Y010990D01*
X019404Y010978D01*
X019402Y010966D01*
X019397Y010955D01*
X019388Y010946D01*
X019377Y010941D01*
X019365Y010939D01*
X019353Y010941D01*
X019342Y010946D01*
X019333Y010955D01*
X019328Y010966D01*
X019326Y010978D01*
X019365Y010978D02*
X020033Y010310D01*
X019420Y009697D01*
X018752Y010365D01*
D16*
X019874Y009047D02*
X019857Y009030D01*
X019480Y008417D02*
X019463Y008400D01*
X021310Y008389D02*
X021334Y008389D01*
X018811Y007000D02*
X018794Y006983D01*
X018220Y006685D02*
X018203Y006668D01*
X015976Y006707D02*
X015959Y006724D01*
X015661Y007297D02*
X015644Y007314D01*
X014677Y007140D02*
X014660Y007157D01*
X013605Y007215D02*
X013605Y007239D01*
X014204Y008085D02*
X014187Y008102D01*
X013968Y008872D02*
X013951Y008889D01*
X013456Y009542D02*
X013439Y009559D01*
X014542Y010368D02*
X014559Y010385D01*
X014975Y010841D02*
X014992Y010858D01*
X015880Y011274D02*
X015897Y011291D01*
X016471Y011786D02*
X016488Y011803D01*
X019696Y012385D02*
X019720Y012385D01*
X012424Y008538D02*
X012424Y008514D01*
X010625Y009038D02*
X010601Y009038D01*
X010231Y009038D02*
X010207Y009038D01*
X008578Y009038D02*
X008554Y009038D01*
X008184Y009038D02*
X008160Y009038D01*
X011782Y011834D02*
X011806Y011834D01*
X012176Y011834D02*
X012200Y011834D01*
X014896Y005602D02*
X014913Y005585D01*
X028448Y005743D02*
X028448Y005719D01*
X028448Y006113D02*
X028448Y006137D01*
X030574Y005310D02*
X030574Y005286D01*
X028893Y009471D02*
X028869Y009471D01*
X028499Y009471D02*
X028475Y009471D01*
X031349Y011440D02*
X031373Y011440D01*
X031334Y013133D02*
X031310Y013133D01*
X031703Y013133D02*
X031727Y013133D01*
X028881Y013829D02*
X028881Y013853D01*
X031349Y016400D02*
X031373Y016400D01*
X031322Y017766D02*
X031322Y017790D01*
X031322Y018160D02*
X031322Y018184D01*
D17*
X029983Y017700D03*
X028763Y016558D03*
X028763Y016086D03*
X029983Y014944D03*
X028881Y014235D03*
X030062Y013881D03*
X029983Y012739D03*
X028763Y011597D03*
X028763Y011125D03*
X029983Y009944D03*
X029983Y009156D03*
X028763Y008211D03*
X028763Y007739D03*
X029983Y006400D03*
X031204Y007582D03*
X031204Y008172D03*
X026794Y005574D03*
X026400Y005101D03*
X029629Y004078D03*
X030574Y004904D03*
X030810Y004078D03*
G36*
X014307Y009710D02*
X014238Y009779D01*
X014321Y009862D01*
X014390Y009793D01*
X014307Y009710D01*
G37*
G36*
X013411Y010187D02*
X013480Y010256D01*
X013563Y010173D01*
X013494Y010104D01*
X013411Y010187D01*
G37*
X006086Y006676D03*
X006086Y005889D03*
X004904Y005889D03*
X004904Y006676D03*
X004904Y005101D03*
X006086Y005101D03*
X006086Y004117D03*
X004904Y004117D03*
D18*
X007530Y009235D02*
X007554Y009235D01*
X009577Y009235D02*
X009601Y009235D01*
X011152Y012030D02*
X011176Y012030D01*
X019085Y012818D02*
X019109Y012818D01*
X022038Y008251D02*
X022062Y008251D01*
X027727Y009629D02*
X027751Y009629D01*
X028330Y006885D02*
X028330Y006861D01*
X032778Y012885D02*
X032778Y012909D01*
X031204Y018948D02*
X031204Y018972D01*
X014559Y006156D02*
X014542Y006173D01*
D19*
X004855Y003192D03*
D20*
X027591Y004058D02*
X027593Y004080D01*
X027599Y004102D01*
X027608Y004122D01*
X027621Y004140D01*
X027637Y004156D01*
X027655Y004169D01*
X027675Y004178D01*
X027697Y004184D01*
X027719Y004186D01*
X027741Y004184D01*
X027763Y004178D01*
X027783Y004169D01*
X027801Y004156D01*
X027817Y004140D01*
X027830Y004122D01*
X027839Y004102D01*
X027845Y004080D01*
X027847Y004058D01*
X027845Y004036D01*
X027839Y004014D01*
X027830Y003994D01*
X027817Y003976D01*
X027801Y003960D01*
X027783Y003947D01*
X027763Y003938D01*
X027741Y003932D01*
X027719Y003930D01*
X027697Y003932D01*
X027675Y003938D01*
X027655Y003947D01*
X027637Y003960D01*
X027621Y003976D01*
X027608Y003994D01*
X027599Y004014D01*
X027593Y004036D01*
X027591Y004058D01*
X030111Y008034D02*
X030113Y008056D01*
X030119Y008078D01*
X030128Y008098D01*
X030141Y008116D01*
X030157Y008132D01*
X030175Y008145D01*
X030195Y008154D01*
X030217Y008160D01*
X030239Y008162D01*
X030261Y008160D01*
X030283Y008154D01*
X030303Y008145D01*
X030321Y008132D01*
X030337Y008116D01*
X030350Y008098D01*
X030359Y008078D01*
X030365Y008056D01*
X030367Y008034D01*
X030365Y008012D01*
X030359Y007990D01*
X030350Y007970D01*
X030337Y007952D01*
X030321Y007936D01*
X030303Y007923D01*
X030283Y007914D01*
X030261Y007908D01*
X030239Y007906D01*
X030217Y007908D01*
X030195Y007914D01*
X030175Y007923D01*
X030157Y007936D01*
X030141Y007952D01*
X030128Y007970D01*
X030119Y007990D01*
X030113Y008012D01*
X030111Y008034D01*
X029599Y011105D02*
X029601Y011127D01*
X029607Y011149D01*
X029616Y011169D01*
X029629Y011187D01*
X029645Y011203D01*
X029663Y011216D01*
X029683Y011225D01*
X029705Y011231D01*
X029727Y011233D01*
X029749Y011231D01*
X029771Y011225D01*
X029791Y011216D01*
X029809Y011203D01*
X029825Y011187D01*
X029838Y011169D01*
X029847Y011149D01*
X029853Y011127D01*
X029855Y011105D01*
X029853Y011083D01*
X029847Y011061D01*
X029838Y011041D01*
X029825Y011023D01*
X029809Y011007D01*
X029791Y010994D01*
X029771Y010985D01*
X029749Y010979D01*
X029727Y010977D01*
X029705Y010979D01*
X029683Y010985D01*
X029663Y010994D01*
X029645Y011007D01*
X029629Y011023D01*
X029616Y011041D01*
X029607Y011061D01*
X029601Y011083D01*
X029599Y011105D01*
X029599Y016066D02*
X029601Y016088D01*
X029607Y016110D01*
X029616Y016130D01*
X029629Y016148D01*
X029645Y016164D01*
X029663Y016177D01*
X029683Y016186D01*
X029705Y016192D01*
X029727Y016194D01*
X029749Y016192D01*
X029771Y016186D01*
X029791Y016177D01*
X029809Y016164D01*
X029825Y016148D01*
X029838Y016130D01*
X029847Y016110D01*
X029853Y016088D01*
X029855Y016066D01*
X029853Y016044D01*
X029847Y016022D01*
X029838Y016002D01*
X029825Y015984D01*
X029809Y015968D01*
X029791Y015955D01*
X029771Y015946D01*
X029749Y015940D01*
X029727Y015938D01*
X029705Y015940D01*
X029683Y015946D01*
X029663Y015955D01*
X029645Y015968D01*
X029629Y015984D01*
X029616Y016002D01*
X029607Y016022D01*
X029601Y016044D01*
X029599Y016066D01*
D21*
X030967Y016400D03*
X031361Y015219D03*
X030967Y011440D03*
X031361Y010259D03*
X031715Y006007D03*
X031715Y004826D03*
X029786Y005101D03*
X028841Y004314D03*
X026086Y004314D03*
X027680Y002582D03*
X027680Y001381D03*
X007188Y001873D03*
X007188Y003487D03*
D22*
X015298Y002424D03*
X015298Y001637D03*
D23*
X007655Y011597D03*
X007655Y011608D03*
X007655Y011630D03*
X007655Y011641D03*
X007655Y011652D03*
X007655Y011663D03*
X007655Y011685D03*
X007655Y011696D03*
X007655Y011707D03*
X002930Y011707D03*
X002930Y011696D03*
X002930Y011685D03*
X002930Y011663D03*
X002930Y011652D03*
X002930Y011641D03*
X002930Y011630D03*
X002930Y011608D03*
X002930Y011597D03*
X002930Y015425D03*
X002930Y015436D03*
X002930Y015447D03*
X002930Y015458D03*
X002930Y015480D03*
X002930Y015491D03*
X002930Y015502D03*
X002930Y015523D03*
X007655Y015523D03*
X007655Y015502D03*
X007655Y015491D03*
X007655Y015480D03*
X007655Y015469D03*
X007655Y015447D03*
X007655Y015436D03*
X007655Y015425D03*
X007655Y016322D03*
X007655Y016333D03*
X007655Y016355D03*
X007655Y016365D03*
X007655Y016376D03*
X007655Y016387D03*
X007655Y016409D03*
X007655Y016420D03*
X007655Y016431D03*
X007655Y020149D03*
X007655Y020160D03*
X007655Y020171D03*
X007655Y020182D03*
X007655Y020204D03*
X007655Y020215D03*
X007655Y020226D03*
X007655Y020248D03*
D24*
X007655Y020237D03*
X007655Y020193D03*
X007655Y020138D03*
X007655Y016398D03*
X007655Y016344D03*
X007655Y015512D03*
X007655Y015458D03*
X007655Y015414D03*
X002930Y015414D03*
X002930Y015469D03*
X002930Y015512D03*
X002930Y011674D03*
X002930Y011619D03*
X007655Y011619D03*
X007655Y011674D03*
D25*
X007223Y012013D03*
X005746Y012013D03*
X005746Y011969D03*
X005746Y011914D03*
X005746Y011871D03*
X005746Y011816D03*
X005746Y011772D03*
X005746Y011718D03*
X005746Y012068D03*
X005746Y012111D03*
X005746Y012166D03*
X005746Y012210D03*
X005746Y012264D03*
X005746Y012308D03*
X005746Y012363D03*
X005746Y012407D03*
X005746Y012461D03*
X005746Y012505D03*
X005746Y012560D03*
X005746Y012603D03*
X005746Y012658D03*
X005746Y012702D03*
X005746Y012757D03*
X005746Y012800D03*
X005746Y012855D03*
X005746Y012899D03*
X005746Y012953D03*
X005746Y012997D03*
X005746Y013052D03*
X005746Y013096D03*
X005746Y013150D03*
X005746Y013194D03*
X005746Y013249D03*
X005746Y013292D03*
X005746Y013347D03*
X005746Y013391D03*
X005746Y013446D03*
X005746Y013489D03*
X005746Y013544D03*
X005746Y013588D03*
X005746Y013642D03*
X005746Y013686D03*
X005746Y013741D03*
X005746Y013785D03*
X005746Y013839D03*
X005746Y013883D03*
X005746Y013938D03*
X005746Y013981D03*
X005746Y014036D03*
X005746Y014080D03*
X005746Y014135D03*
X005746Y014178D03*
X005746Y014233D03*
X005746Y014277D03*
X005746Y014331D03*
X005746Y014375D03*
X005746Y014430D03*
X005746Y014474D03*
X005746Y014528D03*
X005746Y014572D03*
X005746Y014627D03*
X005746Y014670D03*
X005746Y014725D03*
X005746Y014769D03*
X005746Y014823D03*
X005746Y014867D03*
X005746Y014922D03*
X005746Y014966D03*
X005746Y015020D03*
X005746Y015064D03*
X005746Y015119D03*
X005746Y015163D03*
X005746Y015217D03*
X005746Y015261D03*
X005746Y015316D03*
X005746Y015359D03*
X004423Y014681D03*
X002488Y014681D03*
X001022Y014681D03*
X001022Y014725D03*
X001022Y014780D03*
X001022Y014823D03*
X001022Y014878D03*
X001022Y014922D03*
X001022Y014977D03*
X001022Y015020D03*
X001022Y015075D03*
X001022Y015119D03*
X001022Y015173D03*
X001022Y015217D03*
X001022Y015272D03*
X001022Y015316D03*
X001022Y015370D03*
X001022Y014627D03*
X001022Y014583D03*
X001022Y014528D03*
X001022Y014484D03*
X001022Y014430D03*
X001022Y014386D03*
X001022Y014331D03*
X001022Y014288D03*
X001022Y014233D03*
X001022Y014189D03*
X001022Y014135D03*
X001022Y014091D03*
X001022Y014036D03*
X001022Y013992D03*
X001022Y013938D03*
X001022Y013894D03*
X001022Y013839D03*
X001022Y013795D03*
X001022Y013741D03*
X001022Y013697D03*
X001022Y013642D03*
X001022Y013599D03*
X001022Y013544D03*
X001022Y013500D03*
X001022Y013446D03*
X001022Y013402D03*
X001022Y013347D03*
X001022Y013303D03*
X001022Y013249D03*
X001022Y013205D03*
X001022Y013150D03*
X001022Y013107D03*
X001022Y013052D03*
X001022Y013008D03*
X001022Y012953D03*
X001022Y012910D03*
X001022Y012855D03*
X001022Y012800D03*
X001022Y012757D03*
X001022Y012702D03*
X001022Y012658D03*
X001022Y012603D03*
X001022Y012560D03*
X001022Y012505D03*
X001022Y012461D03*
X001022Y012407D03*
X001022Y012363D03*
X001022Y012319D03*
X001022Y012264D03*
X001022Y012221D03*
X001022Y012166D03*
X001022Y012122D03*
X001022Y012068D03*
X001022Y012024D03*
X001022Y011969D03*
X001022Y011925D03*
X001022Y011871D03*
X001022Y011816D03*
X001022Y011772D03*
X001022Y011718D03*
X003231Y012407D03*
X005746Y016442D03*
X005746Y016497D03*
X005746Y016540D03*
X005746Y016595D03*
X005746Y016650D03*
X005746Y016694D03*
X005746Y016748D03*
X005746Y016792D03*
X005746Y016847D03*
X005746Y016890D03*
X005746Y016945D03*
X005746Y016989D03*
X005746Y017044D03*
X005746Y017087D03*
X005746Y017131D03*
X005746Y017186D03*
X005746Y017229D03*
X005746Y017284D03*
X005746Y017328D03*
X005746Y017383D03*
X005746Y017426D03*
X005746Y017481D03*
X005746Y017525D03*
X005746Y017579D03*
X005746Y017634D03*
X005746Y017678D03*
X005746Y017733D03*
X005746Y017776D03*
X005746Y017831D03*
X005746Y017875D03*
X005746Y017929D03*
X005746Y017973D03*
X005746Y018028D03*
X005746Y018072D03*
X005746Y018126D03*
X005746Y018170D03*
X005746Y018225D03*
X005746Y018268D03*
X005746Y018323D03*
X005746Y018367D03*
X005746Y018421D03*
X005746Y018465D03*
X005746Y018520D03*
X005746Y018564D03*
X005746Y018618D03*
X005746Y018662D03*
X005746Y018717D03*
X005746Y018760D03*
X005746Y018815D03*
X005746Y018859D03*
X005746Y018914D03*
X005746Y018957D03*
X005746Y019012D03*
X005746Y019056D03*
X005746Y019110D03*
X005746Y019154D03*
X005746Y019209D03*
X005746Y019253D03*
X005746Y019307D03*
X005746Y019351D03*
X005746Y019406D03*
X005746Y019449D03*
X005746Y019504D03*
X005746Y019548D03*
X005746Y019603D03*
X005746Y019646D03*
X005746Y019701D03*
X005746Y019745D03*
X005746Y019799D03*
X005746Y019843D03*
X005746Y019898D03*
X005746Y019942D03*
X005746Y019996D03*
X005746Y020040D03*
X005746Y020095D03*
X007770Y018072D03*
D26*
X009563Y018072D03*
X009563Y018028D03*
X009563Y017973D03*
X009563Y017929D03*
X009563Y017875D03*
X009563Y017831D03*
X009563Y017776D03*
X009563Y017733D03*
X009563Y017678D03*
X009563Y017634D03*
X009563Y017579D03*
X009563Y017525D03*
X009563Y017481D03*
X009563Y017426D03*
X009563Y017383D03*
X009563Y017328D03*
X009563Y017284D03*
X009563Y017229D03*
X009563Y017186D03*
X009563Y017131D03*
X009563Y017087D03*
X009563Y017044D03*
X009563Y016989D03*
X009563Y016945D03*
X009563Y016890D03*
X009563Y016847D03*
X009563Y016792D03*
X009563Y016748D03*
X009563Y016694D03*
X009563Y016650D03*
X009563Y016595D03*
X009563Y016540D03*
X009563Y016497D03*
X009563Y016442D03*
X009563Y015359D03*
X009563Y015316D03*
X009563Y015261D03*
X009563Y015217D03*
X009563Y015163D03*
X009563Y015119D03*
X009563Y015064D03*
X009563Y015020D03*
X009563Y014966D03*
X009563Y014922D03*
X009563Y014867D03*
X009563Y014823D03*
X009563Y014769D03*
X009563Y014725D03*
X009563Y014670D03*
X009563Y014627D03*
X009563Y014572D03*
X009563Y014528D03*
X009563Y014474D03*
X009563Y014430D03*
X009563Y014375D03*
X009563Y014331D03*
X009563Y014277D03*
X009563Y014233D03*
X009563Y014178D03*
X009563Y014135D03*
X009563Y014080D03*
X009563Y014036D03*
X009563Y013981D03*
X009563Y013938D03*
X009563Y013883D03*
X009563Y013839D03*
X009563Y013785D03*
X009563Y013741D03*
X009563Y013686D03*
X009563Y013642D03*
X009563Y013588D03*
X009563Y013544D03*
X009563Y013489D03*
X009563Y013446D03*
X009563Y013391D03*
X009563Y013347D03*
X009563Y013292D03*
X009563Y013249D03*
X009563Y013194D03*
X009563Y013150D03*
X009563Y013096D03*
X009563Y013052D03*
X009563Y012997D03*
X009563Y012953D03*
X009563Y012899D03*
X009563Y012855D03*
X009563Y012800D03*
X009563Y012757D03*
X009563Y012702D03*
X009563Y012658D03*
X009563Y012603D03*
X009563Y012560D03*
X009563Y012505D03*
X009563Y012461D03*
X009563Y012407D03*
X009563Y012363D03*
X009563Y012308D03*
X009563Y012264D03*
X009563Y012210D03*
X009563Y012166D03*
X009563Y012111D03*
X009563Y012068D03*
X009563Y012013D03*
X009563Y011969D03*
X009563Y011914D03*
X009563Y011871D03*
X009563Y011816D03*
X009563Y011772D03*
X009563Y011718D03*
X007693Y013052D03*
X006796Y014233D03*
X007343Y015020D03*
X004839Y015020D03*
X004839Y014977D03*
X004839Y014922D03*
X004839Y014878D03*
X004839Y014823D03*
X004839Y014780D03*
X004839Y014725D03*
X004839Y014681D03*
X004839Y014627D03*
X004839Y014583D03*
X004839Y014528D03*
X004839Y014484D03*
X004839Y014430D03*
X004839Y014386D03*
X004839Y014331D03*
X004839Y014288D03*
X004839Y014233D03*
X004839Y014189D03*
X004839Y014135D03*
X004839Y014091D03*
X004839Y014036D03*
X004839Y013992D03*
X004839Y013938D03*
X004839Y013894D03*
X004839Y013839D03*
X004839Y013795D03*
X004839Y013741D03*
X004839Y013697D03*
X004839Y013642D03*
X004839Y013599D03*
X004839Y013544D03*
X004839Y013500D03*
X004839Y013446D03*
X004839Y013402D03*
X004839Y013347D03*
X004839Y013303D03*
X004839Y013249D03*
X004839Y013205D03*
X004839Y013150D03*
X004839Y013107D03*
X004839Y013052D03*
X004839Y013008D03*
X004839Y012953D03*
X004839Y012910D03*
X004839Y012855D03*
X004839Y012800D03*
X004839Y012757D03*
X004839Y012702D03*
X004839Y012658D03*
X004839Y012603D03*
X004839Y012560D03*
X004839Y012505D03*
X004839Y012461D03*
X004839Y012407D03*
X004839Y012363D03*
X004839Y012319D03*
X004839Y012264D03*
X004839Y012221D03*
X004839Y012166D03*
X004839Y012122D03*
X004839Y012068D03*
X004839Y012024D03*
X004839Y011969D03*
X004839Y011925D03*
X004839Y011871D03*
X004839Y011816D03*
X004839Y011772D03*
X004839Y011718D03*
X004839Y015075D03*
X004839Y015119D03*
X004839Y015173D03*
X004839Y015217D03*
X004839Y015272D03*
X004839Y015316D03*
X004839Y015370D03*
X009563Y018126D03*
X009563Y018170D03*
X009563Y018225D03*
X009563Y018268D03*
X009563Y018323D03*
X009563Y018367D03*
X009563Y018421D03*
X009563Y018465D03*
X009563Y018520D03*
X009563Y018564D03*
X009563Y018618D03*
X009563Y018662D03*
X009563Y018717D03*
X009563Y018760D03*
X009563Y018815D03*
X009563Y018859D03*
X009563Y018914D03*
X009563Y018957D03*
X009563Y019012D03*
X009563Y019056D03*
X009563Y019110D03*
X009563Y019154D03*
X009563Y019209D03*
X009563Y019253D03*
X009563Y019307D03*
X009563Y019351D03*
X009563Y019406D03*
X009563Y019449D03*
X009563Y019504D03*
X009563Y019548D03*
X009563Y019603D03*
X009563Y019646D03*
X009563Y019701D03*
X009563Y019745D03*
X009563Y019799D03*
X009563Y019843D03*
X009563Y019898D03*
X009563Y019942D03*
X009563Y019996D03*
X009563Y020040D03*
X009563Y020095D03*
D27*
X008163Y018411D03*
X005746Y018411D03*
X005746Y018400D03*
X005746Y018389D03*
X005746Y018378D03*
X005746Y018356D03*
X005746Y018345D03*
X005746Y018334D03*
X005746Y018312D03*
X005746Y018301D03*
X005746Y018290D03*
X005746Y018279D03*
X005746Y018257D03*
X005746Y018246D03*
X005746Y018236D03*
X005746Y018214D03*
X005746Y018203D03*
X005746Y018192D03*
X005746Y018181D03*
X005746Y018159D03*
X005746Y018148D03*
X005746Y018137D03*
X005746Y018115D03*
X005746Y018104D03*
X005746Y018093D03*
X005746Y018082D03*
X005746Y018061D03*
X005746Y018050D03*
X005746Y018039D03*
X005746Y018017D03*
X005746Y018006D03*
X005746Y017995D03*
X005746Y017984D03*
X005746Y017962D03*
X005746Y017951D03*
X005746Y017940D03*
X005746Y017918D03*
X005746Y017907D03*
X005746Y017897D03*
X005746Y017886D03*
X005746Y017864D03*
X005746Y017853D03*
X005746Y017842D03*
X005746Y017820D03*
X005746Y017809D03*
X005746Y017798D03*
X005746Y017787D03*
X005746Y017765D03*
X005746Y017754D03*
X005746Y017743D03*
X005746Y017722D03*
X005746Y017711D03*
X005746Y017700D03*
X005746Y017689D03*
X005746Y017667D03*
X005746Y017656D03*
X005746Y017645D03*
X005746Y017623D03*
X005746Y017612D03*
X005746Y017601D03*
X005746Y017590D03*
X005746Y017568D03*
X005746Y017558D03*
X005746Y017547D03*
X005746Y017536D03*
X005746Y017514D03*
X005746Y017503D03*
X005746Y017492D03*
X005746Y017470D03*
X005746Y017459D03*
X005746Y017448D03*
X005746Y017437D03*
X005746Y017415D03*
X005746Y017404D03*
X005746Y017393D03*
X005746Y017372D03*
X005746Y017361D03*
X005746Y017350D03*
X005746Y017339D03*
X005746Y017317D03*
X005746Y017306D03*
X005746Y017295D03*
X005746Y017273D03*
X005746Y017262D03*
X005746Y017251D03*
X005746Y017240D03*
X005746Y017219D03*
X005746Y017208D03*
X005746Y017197D03*
X005746Y017175D03*
X005746Y017164D03*
X005746Y017153D03*
X005746Y017142D03*
X005746Y017120D03*
X005746Y017109D03*
X005746Y017098D03*
X005746Y017076D03*
X005746Y017065D03*
X005746Y017054D03*
X005746Y017033D03*
X005746Y017022D03*
X005746Y017011D03*
X005746Y017000D03*
X005746Y016978D03*
X005746Y016967D03*
X005746Y016956D03*
X005746Y016934D03*
X005746Y016923D03*
X005746Y016912D03*
X005746Y016901D03*
X005746Y016879D03*
X005746Y016869D03*
X005746Y016858D03*
X005746Y016836D03*
X005746Y016825D03*
X005746Y016814D03*
X005746Y016803D03*
X005746Y016781D03*
X005746Y016770D03*
X005746Y016759D03*
X005746Y016737D03*
X005746Y016726D03*
X005746Y016715D03*
X005746Y016704D03*
X005746Y016683D03*
X005746Y016672D03*
X005746Y016661D03*
X005746Y016639D03*
X005746Y016628D03*
X005746Y016617D03*
X005746Y016606D03*
X005746Y016584D03*
X005746Y016573D03*
X005746Y016562D03*
X005746Y016551D03*
X005746Y016530D03*
X005746Y016519D03*
X005746Y016508D03*
X005746Y016486D03*
X005746Y016475D03*
X005746Y016464D03*
X005746Y016453D03*
X005746Y015403D03*
X005746Y015392D03*
X005746Y015381D03*
X005746Y015370D03*
X005746Y015348D03*
X005746Y015337D03*
X005746Y015327D03*
X005746Y015305D03*
X005746Y015294D03*
X005746Y015283D03*
X005746Y015272D03*
X005746Y015250D03*
X005746Y015239D03*
X005746Y015228D03*
X005746Y015206D03*
X005746Y015195D03*
X005746Y015184D03*
X005746Y015173D03*
X005746Y015152D03*
X005746Y015141D03*
X005746Y015130D03*
X005746Y015108D03*
X005746Y015097D03*
X005746Y015086D03*
X005746Y015075D03*
X005746Y015053D03*
X005746Y015042D03*
X005746Y015031D03*
X005746Y015009D03*
X005746Y014998D03*
X005746Y014988D03*
X005746Y014977D03*
X005746Y014955D03*
X005746Y014944D03*
X005746Y014933D03*
X005746Y014911D03*
X005746Y014900D03*
X005746Y014889D03*
X005746Y014878D03*
X005746Y014856D03*
X005746Y014845D03*
X005746Y014834D03*
X005746Y014813D03*
X005746Y014802D03*
X005746Y014791D03*
X005746Y014780D03*
X005746Y014758D03*
X005746Y014747D03*
X005746Y014736D03*
X005746Y014714D03*
X005746Y014703D03*
X005746Y014692D03*
X005746Y014681D03*
X005746Y014659D03*
X005746Y014649D03*
X005746Y014638D03*
X005746Y014616D03*
X005746Y014605D03*
X005746Y014594D03*
X005746Y014583D03*
X005746Y014561D03*
X005746Y014550D03*
X005746Y014539D03*
X005746Y014517D03*
X005746Y014506D03*
X005746Y014495D03*
X005746Y014484D03*
X005746Y014463D03*
X005746Y014452D03*
X005746Y014441D03*
X005746Y014419D03*
X005746Y014408D03*
X005746Y014397D03*
X005746Y014386D03*
X005746Y014364D03*
X005746Y014353D03*
X005746Y014342D03*
X005746Y014320D03*
X005746Y014309D03*
X005746Y014299D03*
X005746Y014288D03*
X005746Y014266D03*
X005746Y014255D03*
X005746Y014244D03*
X005746Y014222D03*
X005746Y014211D03*
X005746Y014200D03*
X005746Y014189D03*
X005746Y014167D03*
X005746Y014156D03*
X005746Y014145D03*
X005746Y014124D03*
X005746Y014113D03*
X005746Y014102D03*
X005746Y014091D03*
X005746Y014069D03*
X005746Y014058D03*
X005746Y014047D03*
X005746Y014025D03*
X005746Y014014D03*
X005746Y014003D03*
X005746Y013992D03*
X005746Y013970D03*
X005746Y013960D03*
X005746Y013949D03*
X005746Y013927D03*
X005746Y013916D03*
X005746Y013905D03*
X005746Y013894D03*
X005746Y013872D03*
X005746Y013861D03*
X005746Y013850D03*
X005746Y013828D03*
X005746Y013817D03*
X005746Y013806D03*
X005746Y013795D03*
X005746Y013774D03*
X005746Y013763D03*
X005746Y013752D03*
X005746Y013730D03*
X005746Y013719D03*
X005746Y013708D03*
X005746Y013697D03*
X005746Y013675D03*
X005746Y013664D03*
X005746Y013653D03*
X005746Y013631D03*
X005746Y013621D03*
X005746Y013610D03*
X005746Y013599D03*
X005746Y013577D03*
X005746Y013566D03*
X005746Y013555D03*
X005746Y013533D03*
X005746Y013522D03*
X005746Y013511D03*
X005746Y013500D03*
X005746Y013478D03*
X005746Y013467D03*
X005746Y013456D03*
X005746Y013435D03*
X005746Y013424D03*
X005746Y013413D03*
X005746Y013402D03*
X005746Y013380D03*
X005746Y013369D03*
X005746Y013358D03*
X005746Y013336D03*
X005746Y013325D03*
X005746Y013314D03*
X005746Y013303D03*
X005746Y013281D03*
X005746Y013271D03*
X005746Y013260D03*
X005746Y013238D03*
X005746Y013227D03*
X005746Y013216D03*
X005746Y013205D03*
X005746Y013183D03*
X005746Y013172D03*
X005746Y013161D03*
X005746Y013139D03*
X005746Y013128D03*
X005746Y013117D03*
X005746Y013106D03*
X005746Y013085D03*
X005746Y013074D03*
X005746Y013063D03*
X005746Y013041D03*
X005746Y013030D03*
X005746Y013019D03*
X005746Y013008D03*
X005746Y012986D03*
X005746Y012975D03*
X005746Y012964D03*
X005746Y012942D03*
X005746Y012932D03*
X005746Y012921D03*
X005746Y012910D03*
X005746Y012888D03*
X005746Y012877D03*
X005746Y012866D03*
X005746Y012844D03*
X005746Y012833D03*
X005746Y012822D03*
X005746Y012811D03*
X005746Y012789D03*
X005746Y012778D03*
X005746Y012767D03*
X005746Y012746D03*
X005746Y012735D03*
X005746Y012724D03*
X005746Y012713D03*
X005746Y012691D03*
X005746Y012680D03*
X005746Y012669D03*
X005746Y012647D03*
X005746Y012636D03*
X005746Y012625D03*
X005746Y012614D03*
X005746Y012593D03*
X005746Y012582D03*
X005746Y012571D03*
X005746Y012549D03*
X005746Y012538D03*
X005746Y012527D03*
X005746Y012516D03*
X005746Y012494D03*
X005746Y012483D03*
X005746Y012472D03*
X005746Y012450D03*
X005746Y012439D03*
X005746Y012428D03*
X005746Y012418D03*
X005746Y012396D03*
X005746Y012385D03*
X005746Y012374D03*
X005746Y012352D03*
X005746Y012341D03*
X005746Y012330D03*
X005746Y012319D03*
X005746Y012297D03*
X005746Y012286D03*
X005746Y012275D03*
X005746Y012254D03*
X005746Y012243D03*
X005746Y012232D03*
X005746Y012221D03*
X005746Y012199D03*
X005746Y012188D03*
X005746Y012177D03*
X005746Y012155D03*
X005746Y012144D03*
X005746Y012133D03*
X005746Y012122D03*
X005746Y012100D03*
X005746Y012089D03*
X005746Y012079D03*
X005746Y012057D03*
X005746Y012046D03*
X005746Y012035D03*
X005746Y012024D03*
X005746Y012002D03*
X005746Y011991D03*
X005746Y011980D03*
X005746Y011958D03*
X005746Y011947D03*
X005746Y011936D03*
X005746Y011925D03*
X005746Y011904D03*
X005746Y011893D03*
X005746Y011882D03*
X005746Y011860D03*
X005746Y011849D03*
X005746Y011838D03*
X005746Y011827D03*
X005746Y011805D03*
X005746Y011794D03*
X005746Y011783D03*
X005746Y011761D03*
X005746Y011750D03*
X005746Y011739D03*
X005746Y011729D03*
X002291Y012483D03*
X001317Y012396D03*
X001022Y012396D03*
X001022Y012385D03*
X001022Y012374D03*
X001022Y012352D03*
X001022Y012341D03*
X001022Y012330D03*
X001022Y012308D03*
X001022Y012297D03*
X001022Y012286D03*
X001022Y012275D03*
X001022Y012254D03*
X001022Y012243D03*
X001022Y012232D03*
X001022Y012210D03*
X001022Y012199D03*
X001022Y012188D03*
X001022Y012177D03*
X001022Y012155D03*
X001022Y012144D03*
X001022Y012133D03*
X001022Y012111D03*
X001022Y012100D03*
X001022Y012089D03*
X001022Y012079D03*
X001022Y012057D03*
X001022Y012046D03*
X001022Y012035D03*
X001022Y012013D03*
X001022Y012002D03*
X001022Y011991D03*
X001022Y011980D03*
X001022Y011958D03*
X001022Y011947D03*
X001022Y011936D03*
X001022Y011914D03*
X001022Y011904D03*
X001022Y011893D03*
X001022Y011882D03*
X001022Y011860D03*
X001022Y011849D03*
X001022Y011838D03*
X001022Y011827D03*
X001022Y011805D03*
X001022Y011794D03*
X001022Y011783D03*
X001022Y011761D03*
X001022Y011750D03*
X001022Y011739D03*
X001022Y011729D03*
X001022Y012418D03*
X001022Y012428D03*
X001022Y012439D03*
X001022Y012450D03*
X001022Y012472D03*
X001022Y012483D03*
X001022Y012494D03*
X001022Y012516D03*
X001022Y012527D03*
X001022Y012538D03*
X001022Y012549D03*
X001022Y012571D03*
X001022Y012582D03*
X001022Y012593D03*
X001022Y012614D03*
X001022Y012625D03*
X001022Y012636D03*
X001022Y012647D03*
X001022Y012669D03*
X001022Y012680D03*
X001022Y012691D03*
X001022Y012713D03*
X001022Y012724D03*
X001022Y012735D03*
X001022Y012746D03*
X001022Y012767D03*
X001022Y012778D03*
X001022Y012789D03*
X001022Y012811D03*
X001022Y012822D03*
X001022Y012833D03*
X001022Y012844D03*
X001022Y012866D03*
X001022Y012877D03*
X001022Y012888D03*
X001022Y012899D03*
X001022Y012921D03*
X001022Y012932D03*
X001022Y012942D03*
X001022Y012964D03*
X001022Y012975D03*
X001022Y012986D03*
X001022Y012997D03*
X001022Y013019D03*
X001022Y013030D03*
X001022Y013041D03*
X001022Y013063D03*
X001022Y013074D03*
X001022Y013085D03*
X001022Y013096D03*
X001022Y013117D03*
X001022Y013128D03*
X001022Y013139D03*
X001022Y013161D03*
X001022Y013172D03*
X001022Y013183D03*
X001022Y013194D03*
X001022Y013216D03*
X001022Y013227D03*
X001022Y013238D03*
X001022Y013260D03*
X001022Y013271D03*
X001022Y013281D03*
X001022Y013292D03*
X001022Y013314D03*
X001022Y013325D03*
X001022Y013336D03*
X001022Y013358D03*
X001022Y013369D03*
X001022Y013380D03*
X001022Y013391D03*
X001022Y013413D03*
X001022Y013424D03*
X001022Y013435D03*
X001022Y013456D03*
X001022Y013467D03*
X001022Y013478D03*
X001022Y013489D03*
X001022Y013511D03*
X001022Y013522D03*
X001022Y013533D03*
X001022Y013555D03*
X001022Y013566D03*
X001022Y013577D03*
X001022Y013588D03*
X001022Y013610D03*
X001022Y013621D03*
X001022Y013631D03*
X001022Y013653D03*
X001022Y013664D03*
X001022Y013675D03*
X001022Y013686D03*
X001022Y013708D03*
X001022Y013719D03*
X001022Y013730D03*
X001022Y013752D03*
X001022Y013763D03*
X001022Y013774D03*
X001022Y013785D03*
X001022Y013806D03*
X001022Y013817D03*
X001022Y013828D03*
X001022Y013850D03*
X001022Y013861D03*
X001022Y013872D03*
X001022Y013883D03*
X001022Y013905D03*
X001022Y013916D03*
X001022Y013927D03*
X001022Y013949D03*
X001022Y013960D03*
X001022Y013970D03*
X001022Y013981D03*
X001022Y014003D03*
X001022Y014014D03*
X001022Y014025D03*
X001022Y014047D03*
X001022Y014058D03*
X001022Y014069D03*
X001022Y014080D03*
X001022Y014102D03*
X001022Y014113D03*
X001022Y014124D03*
X001022Y014145D03*
X001022Y014156D03*
X001022Y014167D03*
X001022Y014178D03*
X001022Y014200D03*
X001022Y014211D03*
X001022Y014222D03*
X001022Y014244D03*
X001022Y014255D03*
X001022Y014266D03*
X001022Y014277D03*
X001022Y014299D03*
X001022Y014309D03*
X001022Y014320D03*
X001022Y014342D03*
X001022Y014353D03*
X001022Y014364D03*
X001022Y014375D03*
X001022Y014397D03*
X001022Y014408D03*
X001022Y014419D03*
X001022Y014441D03*
X001022Y014452D03*
X001022Y014463D03*
X001022Y014474D03*
X001022Y014495D03*
X001022Y014506D03*
X001022Y014517D03*
X001022Y014539D03*
X001022Y014550D03*
X001022Y014561D03*
X001022Y014572D03*
X001022Y014594D03*
X001022Y014605D03*
X001022Y014616D03*
X001022Y014638D03*
X001022Y014649D03*
X001022Y014659D03*
X001022Y014670D03*
X001022Y014692D03*
X001022Y014703D03*
X001022Y014714D03*
X001022Y014736D03*
X001022Y014747D03*
X001022Y014758D03*
X001022Y014769D03*
X001022Y014791D03*
X001022Y014802D03*
X001022Y014813D03*
X001022Y014834D03*
X001022Y014845D03*
X001022Y014856D03*
X001022Y014867D03*
X001022Y014889D03*
X001022Y014900D03*
X001022Y014911D03*
X001022Y014933D03*
X001022Y014944D03*
X001022Y014955D03*
X001022Y014966D03*
X001022Y014988D03*
X001022Y014998D03*
X001022Y015009D03*
X001022Y015031D03*
X001022Y015042D03*
X001022Y015053D03*
X001022Y015064D03*
X001022Y015086D03*
X001022Y015097D03*
X001022Y015108D03*
X001022Y015130D03*
X001022Y015141D03*
X001022Y015152D03*
X001022Y015163D03*
X001022Y015184D03*
X001022Y015195D03*
X001022Y015206D03*
X001022Y015228D03*
X001022Y015239D03*
X001022Y015250D03*
X001022Y015261D03*
X001022Y015283D03*
X001022Y015294D03*
X001022Y015305D03*
X001022Y015327D03*
X001022Y015337D03*
X001022Y015348D03*
X001022Y015359D03*
X001022Y015381D03*
X001022Y015392D03*
X001022Y015403D03*
X001449Y014714D03*
X007409Y013927D03*
X007945Y014200D03*
X007945Y014211D03*
X007945Y014222D03*
X008054Y015086D03*
X008054Y015097D03*
X005746Y018432D03*
X005746Y018443D03*
X005746Y018454D03*
X005746Y018476D03*
X005746Y018487D03*
X005746Y018498D03*
X005746Y018509D03*
X005746Y018531D03*
X005746Y018542D03*
X005746Y018553D03*
X005746Y018575D03*
X005746Y018586D03*
X005746Y018596D03*
X005746Y018607D03*
X005746Y018629D03*
X005746Y018640D03*
X005746Y018651D03*
X005746Y018673D03*
X005746Y018684D03*
X005746Y018695D03*
X005746Y018706D03*
X005746Y018728D03*
X005746Y018739D03*
X005746Y018750D03*
X005746Y018771D03*
X005746Y018782D03*
X005746Y018793D03*
X005746Y018804D03*
X005746Y018826D03*
X005746Y018837D03*
X005746Y018848D03*
X005746Y018870D03*
X005746Y018881D03*
X005746Y018892D03*
X005746Y018903D03*
X005746Y018925D03*
X005746Y018935D03*
X005746Y018946D03*
X005746Y018968D03*
X005746Y018979D03*
X005746Y018990D03*
X005746Y019001D03*
X005746Y019023D03*
X005746Y019034D03*
X005746Y019045D03*
X005746Y019067D03*
X005746Y019078D03*
X005746Y019089D03*
X005746Y019100D03*
X005746Y019121D03*
X005746Y019132D03*
X005746Y019143D03*
X005746Y019165D03*
X005746Y019176D03*
X005746Y019187D03*
X005746Y019198D03*
X005746Y019220D03*
X005746Y019231D03*
X005746Y019242D03*
X005746Y019264D03*
X005746Y019274D03*
X005746Y019285D03*
X005746Y019296D03*
X005746Y019318D03*
X005746Y019329D03*
X005746Y019340D03*
X005746Y019362D03*
X005746Y019373D03*
X005746Y019384D03*
X005746Y019395D03*
X005746Y019417D03*
X005746Y019428D03*
X005746Y019439D03*
X005746Y019460D03*
X005746Y019471D03*
X005746Y019482D03*
X005746Y019493D03*
X005746Y019515D03*
X005746Y019526D03*
X005746Y019537D03*
X005746Y019559D03*
X005746Y019570D03*
X005746Y019581D03*
X005746Y019592D03*
X005746Y019614D03*
X005746Y019624D03*
X005746Y019635D03*
X005746Y019657D03*
X005746Y019668D03*
X005746Y019679D03*
X005746Y019690D03*
X005746Y019712D03*
X005746Y019723D03*
X005746Y019734D03*
X005746Y019756D03*
X005746Y019767D03*
X005746Y019778D03*
X005746Y019789D03*
X005746Y019810D03*
X005746Y019821D03*
X005746Y019832D03*
X005746Y019854D03*
X005746Y019865D03*
X005746Y019876D03*
X005746Y019887D03*
X005746Y019909D03*
X005746Y019920D03*
X005746Y019931D03*
X005746Y019953D03*
X005746Y019963D03*
X005746Y019974D03*
X005746Y019985D03*
X005746Y020007D03*
X005746Y020018D03*
X005746Y020029D03*
X005746Y020051D03*
X005746Y020062D03*
X005746Y020073D03*
X005746Y020084D03*
X005746Y020106D03*
X005746Y020117D03*
X005746Y020128D03*
D28*
X009563Y020128D03*
X009563Y020117D03*
X009563Y020106D03*
X009563Y020084D03*
X009563Y020073D03*
X009563Y020062D03*
X009563Y020051D03*
X009563Y020029D03*
X009563Y020018D03*
X009563Y020007D03*
X009563Y019985D03*
X009563Y019974D03*
X009563Y019963D03*
X009563Y019953D03*
X009563Y019931D03*
X009563Y019920D03*
X009563Y019909D03*
X009563Y019887D03*
X009563Y019876D03*
X009563Y019865D03*
X009563Y019854D03*
X009563Y019832D03*
X009563Y019821D03*
X009563Y019810D03*
X009563Y019789D03*
X009563Y019778D03*
X009563Y019767D03*
X009563Y019756D03*
X009563Y019734D03*
X009563Y019723D03*
X009563Y019712D03*
X009563Y019690D03*
X009563Y019679D03*
X009563Y019668D03*
X009563Y019657D03*
X009563Y019635D03*
X009563Y019624D03*
X009563Y019614D03*
X009563Y019592D03*
X009563Y019581D03*
X009563Y019570D03*
X009563Y019559D03*
X009563Y019537D03*
X009563Y019526D03*
X009563Y019515D03*
X009563Y019493D03*
X009563Y019482D03*
X009563Y019471D03*
X009563Y019460D03*
X009563Y019439D03*
X009563Y019428D03*
X009563Y019417D03*
X009563Y019395D03*
X009563Y019384D03*
X009563Y019373D03*
X009563Y019362D03*
X009563Y019340D03*
X009563Y019329D03*
X009563Y019318D03*
X009563Y019296D03*
X009563Y019285D03*
X009563Y019274D03*
X009563Y019264D03*
X009563Y019242D03*
X009563Y019231D03*
X009563Y019220D03*
X009563Y019198D03*
X009563Y019187D03*
X009563Y019176D03*
X009563Y019165D03*
X009563Y019143D03*
X009563Y019132D03*
X009563Y019121D03*
X009563Y019100D03*
X009563Y019089D03*
X009563Y019078D03*
X009563Y019067D03*
X009563Y019045D03*
X009563Y019034D03*
X009563Y019023D03*
X009563Y019001D03*
X009563Y018990D03*
X009563Y018979D03*
X009563Y018968D03*
X009563Y018946D03*
X009563Y018935D03*
X009563Y018925D03*
X009563Y018903D03*
X009563Y018892D03*
X009563Y018881D03*
X009563Y018870D03*
X009563Y018848D03*
X009563Y018837D03*
X009563Y018826D03*
X009563Y018804D03*
X009563Y018793D03*
X009563Y018782D03*
X009563Y018771D03*
X009563Y018750D03*
X009563Y018739D03*
X009563Y018728D03*
X009563Y018706D03*
X009563Y018695D03*
X009563Y018684D03*
X009563Y018673D03*
X009563Y018651D03*
X009563Y018640D03*
X009563Y018629D03*
X009563Y018607D03*
X009563Y018596D03*
X009563Y018586D03*
X009563Y018575D03*
X009563Y018553D03*
X009563Y018542D03*
X009563Y018531D03*
X009563Y018509D03*
X009563Y018498D03*
X009563Y018487D03*
X009563Y018476D03*
X009563Y018454D03*
X009563Y018443D03*
X009563Y018432D03*
X009563Y018411D03*
X009563Y018400D03*
X009563Y018389D03*
X009563Y018378D03*
X009563Y018356D03*
X009563Y018345D03*
X009563Y018334D03*
X009563Y018312D03*
X009563Y018301D03*
X009563Y018290D03*
X009563Y018279D03*
X009563Y018257D03*
X009563Y018246D03*
X009563Y018236D03*
X009563Y018214D03*
X009563Y018203D03*
X009563Y018192D03*
X009563Y018181D03*
X009563Y018159D03*
X009563Y018148D03*
X009563Y018137D03*
X009563Y018115D03*
X009563Y018104D03*
X009563Y018093D03*
X009563Y018082D03*
X009563Y018061D03*
X009563Y018050D03*
X009563Y018039D03*
X009563Y018017D03*
X009563Y018006D03*
X009563Y017995D03*
X009563Y017984D03*
X009563Y017962D03*
X009563Y017951D03*
X009563Y017940D03*
X009563Y017918D03*
X009563Y017907D03*
X009563Y017897D03*
X009563Y017886D03*
X009563Y017864D03*
X009563Y017853D03*
X009563Y017842D03*
X009563Y017820D03*
X009563Y017809D03*
X009563Y017798D03*
X009563Y017787D03*
X009563Y017765D03*
X009563Y017754D03*
X009563Y017743D03*
X009563Y017722D03*
X009563Y017711D03*
X009563Y017700D03*
X009563Y017689D03*
X009563Y017667D03*
X009563Y017656D03*
X009563Y017645D03*
X009563Y017623D03*
X009563Y017612D03*
X009563Y017601D03*
X009563Y017590D03*
X009563Y017568D03*
X009563Y017558D03*
X009563Y017547D03*
X009563Y017536D03*
X009563Y017514D03*
X009563Y017503D03*
X009563Y017492D03*
X009563Y017470D03*
X009563Y017459D03*
X009563Y017448D03*
X009563Y017437D03*
X009563Y017415D03*
X009563Y017404D03*
X009563Y017393D03*
X009563Y017372D03*
X009563Y017361D03*
X009563Y017350D03*
X009563Y017339D03*
X009563Y017317D03*
X009563Y017306D03*
X009563Y017295D03*
X009563Y017273D03*
X009563Y017262D03*
X009563Y017251D03*
X009563Y017240D03*
X009563Y017219D03*
X009563Y017208D03*
X009563Y017197D03*
X009563Y017175D03*
X009563Y017164D03*
X009563Y017153D03*
X009563Y017142D03*
X009563Y017120D03*
X009563Y017109D03*
X009563Y017098D03*
X009563Y017076D03*
X009563Y017065D03*
X009563Y017054D03*
X009563Y017033D03*
X009563Y017022D03*
X009563Y017011D03*
X009563Y017000D03*
X009563Y016978D03*
X009563Y016967D03*
X009563Y016956D03*
X009563Y016934D03*
X009563Y016923D03*
X009563Y016912D03*
X009563Y016901D03*
X009563Y016879D03*
X009563Y016869D03*
X009563Y016858D03*
X009563Y016836D03*
X009563Y016825D03*
X009563Y016814D03*
X009563Y016803D03*
X009563Y016781D03*
X009563Y016770D03*
X009563Y016759D03*
X009563Y016737D03*
X009563Y016726D03*
X009563Y016715D03*
X009563Y016704D03*
X009563Y016683D03*
X009563Y016672D03*
X009563Y016661D03*
X009563Y016639D03*
X009563Y016628D03*
X009563Y016617D03*
X009563Y016606D03*
X009563Y016584D03*
X009563Y016573D03*
X009563Y016562D03*
X009563Y016551D03*
X009563Y016530D03*
X009563Y016519D03*
X009563Y016508D03*
X009563Y016486D03*
X009563Y016475D03*
X009563Y016464D03*
X009563Y016453D03*
X009563Y015403D03*
X009563Y015392D03*
X009563Y015381D03*
X009563Y015370D03*
X009563Y015348D03*
X009563Y015337D03*
X009563Y015327D03*
X009563Y015305D03*
X009563Y015294D03*
X009563Y015283D03*
X009563Y015272D03*
X009563Y015250D03*
X009563Y015239D03*
X009563Y015228D03*
X009563Y015206D03*
X009563Y015195D03*
X009563Y015184D03*
X009563Y015173D03*
X009563Y015152D03*
X009563Y015141D03*
X009563Y015130D03*
X009563Y015108D03*
X009563Y015097D03*
X009563Y015086D03*
X009563Y015075D03*
X009563Y015053D03*
X009563Y015042D03*
X009563Y015031D03*
X009563Y015009D03*
X009563Y014998D03*
X009563Y014988D03*
X009563Y014977D03*
X009563Y014955D03*
X009563Y014944D03*
X009563Y014933D03*
X009563Y014911D03*
X009563Y014900D03*
X009563Y014889D03*
X009563Y014878D03*
X009563Y014856D03*
X009563Y014845D03*
X009563Y014834D03*
X009563Y014813D03*
X009563Y014802D03*
X009563Y014791D03*
X009563Y014780D03*
X009563Y014758D03*
X009563Y014747D03*
X009563Y014736D03*
X009563Y014714D03*
X009563Y014703D03*
X009563Y014692D03*
X009563Y014681D03*
X009563Y014659D03*
X009563Y014649D03*
X009563Y014638D03*
X009563Y014616D03*
X009563Y014605D03*
X009563Y014594D03*
X009563Y014583D03*
X009563Y014561D03*
X009563Y014550D03*
X009563Y014539D03*
X009563Y014517D03*
X009563Y014506D03*
X009563Y014495D03*
X009563Y014484D03*
X009563Y014463D03*
X009563Y014452D03*
X009563Y014441D03*
X009563Y014419D03*
X009563Y014408D03*
X009563Y014397D03*
X009563Y014386D03*
X009563Y014364D03*
X009563Y014353D03*
X009563Y014342D03*
X009563Y014320D03*
X009563Y014309D03*
X009563Y014299D03*
X009563Y014288D03*
X009563Y014266D03*
X009563Y014255D03*
X009563Y014244D03*
X009563Y014222D03*
X009563Y014211D03*
X009563Y014200D03*
X009563Y014189D03*
X009563Y014167D03*
X009563Y014156D03*
X009563Y014145D03*
X009563Y014124D03*
X009563Y014113D03*
X009563Y014102D03*
X009563Y014091D03*
X009563Y014069D03*
X009563Y014058D03*
X009563Y014047D03*
X009563Y014025D03*
X009563Y014014D03*
X009563Y014003D03*
X009563Y013992D03*
X009563Y013970D03*
X009563Y013960D03*
X009563Y013949D03*
X009563Y013927D03*
X009563Y013916D03*
X009563Y013905D03*
X009563Y013894D03*
X009563Y013872D03*
X009563Y013861D03*
X009563Y013850D03*
X009563Y013828D03*
X009563Y013817D03*
X009563Y013806D03*
X009563Y013795D03*
X009563Y013774D03*
X009563Y013763D03*
X009563Y013752D03*
X009563Y013730D03*
X009563Y013719D03*
X009563Y013708D03*
X009563Y013697D03*
X009563Y013675D03*
X009563Y013664D03*
X009563Y013653D03*
X009563Y013631D03*
X009563Y013621D03*
X009563Y013610D03*
X009563Y013599D03*
X009563Y013577D03*
X009563Y013566D03*
X009563Y013555D03*
X009563Y013533D03*
X009563Y013522D03*
X009563Y013511D03*
X009563Y013500D03*
X009563Y013478D03*
X009563Y013467D03*
X009563Y013456D03*
X009563Y013435D03*
X009563Y013424D03*
X009563Y013413D03*
X009563Y013402D03*
X009563Y013380D03*
X009563Y013369D03*
X009563Y013358D03*
X009563Y013336D03*
X009563Y013325D03*
X009563Y013314D03*
X009563Y013303D03*
X009563Y013281D03*
X009563Y013271D03*
X009563Y013260D03*
X009563Y013238D03*
X009563Y013227D03*
X009563Y013216D03*
X009563Y013205D03*
X009563Y013183D03*
X009563Y013172D03*
X009563Y013161D03*
X009563Y013139D03*
X009563Y013128D03*
X009563Y013117D03*
X009563Y013106D03*
X009563Y013085D03*
X009563Y013074D03*
X009563Y013063D03*
X009563Y013041D03*
X009563Y013030D03*
X009563Y013019D03*
X009563Y013008D03*
X009563Y012986D03*
X009563Y012975D03*
X009563Y012964D03*
X009563Y012942D03*
X009563Y012932D03*
X009563Y012921D03*
X009563Y012910D03*
X009563Y012888D03*
X009563Y012877D03*
X009563Y012866D03*
X009563Y012844D03*
X009563Y012833D03*
X009563Y012822D03*
X009563Y012811D03*
X009563Y012789D03*
X009563Y012778D03*
X009563Y012767D03*
X009563Y012746D03*
X009563Y012735D03*
X009563Y012724D03*
X009563Y012713D03*
X009563Y012691D03*
X009563Y012680D03*
X009563Y012669D03*
X009563Y012647D03*
X009563Y012636D03*
X009563Y012625D03*
X009563Y012614D03*
X009563Y012593D03*
X009563Y012582D03*
X009563Y012571D03*
X009563Y012549D03*
X009563Y012538D03*
X009563Y012527D03*
X009563Y012516D03*
X009563Y012494D03*
X009563Y012483D03*
X009563Y012472D03*
X009563Y012450D03*
X009563Y012439D03*
X009563Y012428D03*
X009563Y012418D03*
X009563Y012396D03*
X009563Y012385D03*
X009563Y012374D03*
X009563Y012352D03*
X009563Y012341D03*
X009563Y012330D03*
X009563Y012319D03*
X009563Y012297D03*
X009563Y012286D03*
X009563Y012275D03*
X009563Y012254D03*
X009563Y012243D03*
X009563Y012232D03*
X009563Y012221D03*
X009563Y012199D03*
X009563Y012188D03*
X009563Y012177D03*
X009563Y012155D03*
X009563Y012144D03*
X009563Y012133D03*
X009563Y012122D03*
X009563Y012100D03*
X009563Y012089D03*
X009563Y012079D03*
X009563Y012057D03*
X009563Y012046D03*
X009563Y012035D03*
X009563Y012024D03*
X009563Y012002D03*
X009563Y011991D03*
X009563Y011980D03*
X009563Y011958D03*
X009563Y011947D03*
X009563Y011936D03*
X009563Y011925D03*
X009563Y011904D03*
X009563Y011893D03*
X009563Y011882D03*
X009563Y011860D03*
X009563Y011849D03*
X009563Y011838D03*
X009563Y011827D03*
X009563Y011805D03*
X009563Y011794D03*
X009563Y011783D03*
X009563Y011761D03*
X009563Y011750D03*
X009563Y011739D03*
X009563Y011729D03*
X008316Y013763D03*
X007332Y014124D03*
X006796Y014211D03*
X006796Y014222D03*
X007343Y015009D03*
X008776Y014517D03*
X004839Y014517D03*
X004839Y014506D03*
X004839Y014495D03*
X004839Y014474D03*
X004839Y014463D03*
X004839Y014452D03*
X004839Y014441D03*
X004839Y014419D03*
X004839Y014408D03*
X004839Y014397D03*
X004839Y014375D03*
X004839Y014364D03*
X004839Y014353D03*
X004839Y014342D03*
X004839Y014320D03*
X004839Y014309D03*
X004839Y014299D03*
X004839Y014277D03*
X004839Y014266D03*
X004839Y014255D03*
X004839Y014244D03*
X004839Y014222D03*
X004839Y014211D03*
X004839Y014200D03*
X004839Y014178D03*
X004839Y014167D03*
X004839Y014156D03*
X004839Y014145D03*
X004839Y014124D03*
X004839Y014113D03*
X004839Y014102D03*
X004839Y014080D03*
X004839Y014069D03*
X004839Y014058D03*
X004839Y014047D03*
X004839Y014025D03*
X004839Y014014D03*
X004839Y014003D03*
X004839Y013981D03*
X004839Y013970D03*
X004839Y013960D03*
X004839Y013949D03*
X004839Y013927D03*
X004839Y013916D03*
X004839Y013905D03*
X004839Y013883D03*
X004839Y013872D03*
X004839Y013861D03*
X004839Y013850D03*
X004839Y013828D03*
X004839Y013817D03*
X004839Y013806D03*
X004839Y013785D03*
X004839Y013774D03*
X004839Y013763D03*
X004839Y013752D03*
X004839Y013730D03*
X004839Y013719D03*
X004839Y013708D03*
X004839Y013686D03*
X004839Y013675D03*
X004839Y013664D03*
X004839Y013653D03*
X004839Y013631D03*
X004839Y013621D03*
X004839Y013610D03*
X004839Y013588D03*
X004839Y013577D03*
X004839Y013566D03*
X004839Y013555D03*
X004839Y013533D03*
X004839Y013522D03*
X004839Y013511D03*
X004839Y013489D03*
X004839Y013478D03*
X004839Y013467D03*
X004839Y013456D03*
X004839Y013435D03*
X004839Y013424D03*
X004839Y013413D03*
X004839Y013391D03*
X004839Y013380D03*
X004839Y013369D03*
X004839Y013358D03*
X004839Y013336D03*
X004839Y013325D03*
X004839Y013314D03*
X004839Y013292D03*
X004839Y013281D03*
X004839Y013271D03*
X004839Y013260D03*
X004839Y013238D03*
X004839Y013227D03*
X004839Y013216D03*
X004839Y013194D03*
X004839Y013183D03*
X004839Y013172D03*
X004839Y013161D03*
X004839Y013139D03*
X004839Y013128D03*
X004839Y013117D03*
X004839Y013096D03*
X004839Y013085D03*
X004839Y013074D03*
X004839Y013063D03*
X004839Y013041D03*
X004839Y013030D03*
X004839Y013019D03*
X004839Y012997D03*
X004839Y012986D03*
X004839Y012975D03*
X004839Y012964D03*
X004839Y012942D03*
X004839Y012932D03*
X004839Y012921D03*
X004839Y012899D03*
X004839Y012888D03*
X004839Y012877D03*
X004839Y012866D03*
X004839Y012844D03*
X004839Y012833D03*
X004839Y012822D03*
X004839Y012811D03*
X004839Y012789D03*
X004839Y012778D03*
X004839Y012767D03*
X004839Y012746D03*
X004839Y012735D03*
X004839Y012724D03*
X004839Y012713D03*
X004839Y012691D03*
X004839Y012680D03*
X004839Y012669D03*
X004839Y012647D03*
X004839Y012636D03*
X004839Y012625D03*
X004839Y012614D03*
X004839Y012593D03*
X004839Y012582D03*
X004839Y012571D03*
X004839Y012549D03*
X004839Y012538D03*
X004839Y012527D03*
X004839Y012516D03*
X004839Y012494D03*
X004839Y012483D03*
X004839Y012472D03*
X004839Y012450D03*
X004839Y012439D03*
X004839Y012428D03*
X004839Y012418D03*
X004839Y012396D03*
X004839Y012385D03*
X004839Y012374D03*
X004839Y012352D03*
X004839Y012341D03*
X004839Y012330D03*
X004839Y012308D03*
X004839Y012297D03*
X004839Y012286D03*
X004839Y012275D03*
X004839Y012254D03*
X004839Y012243D03*
X004839Y012232D03*
X004839Y012210D03*
X004839Y012199D03*
X004839Y012188D03*
X004839Y012177D03*
X004839Y012155D03*
X004839Y012144D03*
X004839Y012133D03*
X004839Y012111D03*
X004839Y012100D03*
X004839Y012089D03*
X004839Y012079D03*
X004839Y012057D03*
X004839Y012046D03*
X004839Y012035D03*
X004839Y012013D03*
X004839Y012002D03*
X004839Y011991D03*
X004839Y011980D03*
X004839Y011958D03*
X004839Y011947D03*
X004839Y011936D03*
X004839Y011914D03*
X004839Y011904D03*
X004839Y011893D03*
X004839Y011882D03*
X004839Y011860D03*
X004839Y011849D03*
X004839Y011838D03*
X004839Y011827D03*
X004839Y011805D03*
X004839Y011794D03*
X004839Y011783D03*
X004839Y011761D03*
X004839Y011750D03*
X004839Y011739D03*
X004839Y011729D03*
X004839Y014539D03*
X004839Y014550D03*
X004839Y014561D03*
X004839Y014572D03*
X004839Y014594D03*
X004839Y014605D03*
X004839Y014616D03*
X004839Y014638D03*
X004839Y014649D03*
X004839Y014659D03*
X004839Y014670D03*
X004839Y014692D03*
X004839Y014703D03*
X004839Y014714D03*
X004839Y014736D03*
X004839Y014747D03*
X004839Y014758D03*
X004839Y014769D03*
X004839Y014791D03*
X004839Y014802D03*
X004839Y014813D03*
X004839Y014834D03*
X004839Y014845D03*
X004839Y014856D03*
X004839Y014867D03*
X004839Y014889D03*
X004839Y014900D03*
X004839Y014911D03*
X004839Y014933D03*
X004839Y014944D03*
X004839Y014955D03*
X004839Y014966D03*
X004839Y014988D03*
X004839Y014998D03*
X004839Y015009D03*
X004839Y015031D03*
X004839Y015042D03*
X004839Y015053D03*
X004839Y015064D03*
X004839Y015086D03*
X004839Y015097D03*
X004839Y015108D03*
X004839Y015130D03*
X004839Y015141D03*
X004839Y015152D03*
X004839Y015163D03*
X004839Y015184D03*
X004839Y015195D03*
X004839Y015206D03*
X004839Y015228D03*
X004839Y015239D03*
X004839Y015250D03*
X004839Y015261D03*
X004839Y015283D03*
X004839Y015294D03*
X004839Y015305D03*
X004839Y015327D03*
X004839Y015337D03*
X004839Y015348D03*
X004839Y015359D03*
X004839Y015381D03*
X004839Y015392D03*
X004839Y015403D03*
X004434Y014692D03*
X002477Y014670D03*
D29*
X002673Y012319D03*
D30*
X002679Y012330D03*
D31*
X002684Y012341D03*
D32*
X002690Y012352D03*
D33*
X001301Y012363D03*
D34*
X002181Y012363D03*
X003209Y012363D03*
X004095Y012363D03*
X008076Y015163D03*
D35*
X008065Y015141D03*
X008065Y015130D03*
X008787Y014539D03*
X007934Y014167D03*
X006785Y014266D03*
X008054Y012932D03*
X004237Y012494D03*
X004226Y012483D03*
X004215Y012472D03*
X004194Y012450D03*
X003220Y012385D03*
X002247Y012439D03*
X002236Y012428D03*
X002225Y012418D03*
X001306Y012374D03*
X001460Y014736D03*
X002531Y014747D03*
X002542Y014758D03*
X003395Y014758D03*
X007693Y017984D03*
X007792Y018061D03*
X008163Y018400D03*
X007529Y018870D03*
D36*
X007502Y018279D03*
X008070Y015152D03*
X007349Y015042D03*
X007939Y014156D03*
X007874Y014003D03*
X007327Y014102D03*
X008792Y014550D03*
X004472Y014747D03*
X004461Y014736D03*
X002548Y014769D03*
X001465Y014747D03*
X002209Y012396D03*
X002198Y012385D03*
X002187Y012374D03*
X003215Y012374D03*
X004112Y012374D03*
X004122Y012385D03*
X004133Y012396D03*
X004155Y012418D03*
X004166Y012428D03*
X004177Y012439D03*
D37*
X004254Y012516D03*
X003226Y012396D03*
X002252Y012450D03*
X001312Y012385D03*
X002493Y014692D03*
X002504Y014703D03*
X002526Y014736D03*
X003390Y014747D03*
X004451Y014714D03*
X006791Y014255D03*
X006791Y014244D03*
X007939Y014189D03*
X008059Y015108D03*
X007349Y015031D03*
D38*
X007699Y017973D03*
X007731Y018170D03*
X002384Y012603D03*
X002307Y012505D03*
X001323Y012407D03*
D39*
X002214Y012407D03*
X004204Y012461D03*
X004456Y014725D03*
X002520Y014725D03*
X007977Y012658D03*
D40*
X004144Y012407D03*
D41*
X004336Y012614D03*
X002411Y012636D03*
X002400Y012625D03*
X002378Y012593D03*
X001328Y012418D03*
X001438Y014692D03*
X004379Y014616D03*
X006807Y014167D03*
X007879Y013992D03*
X008306Y013752D03*
X008404Y013795D03*
X007988Y012647D03*
X007748Y018115D03*
X007737Y018148D03*
X007726Y018181D03*
X007715Y018214D03*
X007682Y018279D03*
X007518Y018881D03*
X007999Y018935D03*
D42*
X007710Y018236D03*
X007753Y018104D03*
X007764Y018082D03*
X008049Y015075D03*
X007950Y014255D03*
X007950Y014244D03*
X004418Y014670D03*
X003379Y014736D03*
X002395Y012614D03*
X002296Y012494D03*
X003237Y012418D03*
X004319Y012582D03*
X004319Y012593D03*
D43*
X004341Y012625D03*
X004352Y012636D03*
X003248Y012428D03*
X002438Y012680D03*
X002427Y012669D03*
X002416Y012647D03*
X001334Y012428D03*
X002405Y014561D03*
X002416Y014572D03*
X003368Y014714D03*
X006813Y014156D03*
X006813Y014145D03*
X007338Y014145D03*
X007338Y014156D03*
X007950Y014266D03*
X007950Y014288D03*
X008409Y013806D03*
X008759Y014495D03*
X008049Y015053D03*
X007349Y014955D03*
X007349Y014944D03*
X007677Y018290D03*
D44*
X008174Y018432D03*
X007354Y014933D03*
X007343Y014167D03*
X008415Y013817D03*
X008754Y014484D03*
X004358Y012647D03*
X003253Y012439D03*
X002455Y012713D03*
X001339Y012439D03*
X002367Y014495D03*
X002378Y014517D03*
X003362Y014703D03*
D45*
X004341Y014561D03*
X002373Y014506D03*
X002471Y012746D03*
X002460Y012735D03*
X002460Y012724D03*
X003259Y012450D03*
X004385Y012691D03*
X001345Y012450D03*
X007688Y013063D03*
X008366Y013774D03*
X008038Y015042D03*
D46*
X008743Y014474D03*
X007956Y014331D03*
X008284Y013741D03*
X003264Y012461D03*
X002477Y012757D03*
X001350Y012461D03*
X002334Y014430D03*
X008010Y018957D03*
D47*
X007994Y018914D03*
X008059Y015119D03*
X008781Y014528D03*
X007939Y014178D03*
X002263Y012461D03*
X001454Y014725D03*
D48*
X001410Y014649D03*
X002296Y014364D03*
X002296Y014353D03*
X002307Y014375D03*
X002318Y014408D03*
X004254Y014408D03*
X004276Y014452D03*
X004287Y014463D03*
X004287Y014474D03*
X002482Y012778D03*
X003269Y012472D03*
X004396Y012713D03*
X004407Y012735D03*
X006835Y014102D03*
X007349Y014211D03*
X007349Y014222D03*
X007414Y013905D03*
X007349Y014900D03*
X008727Y014463D03*
X007086Y012691D03*
X007217Y012024D03*
X001356Y012472D03*
X008464Y018290D03*
X008486Y018334D03*
X008486Y018345D03*
X008016Y018968D03*
D49*
X004440Y014703D03*
X002515Y014714D03*
X002274Y012472D03*
X007338Y014113D03*
D50*
X007354Y014244D03*
X007354Y014255D03*
X007354Y014266D03*
X007956Y014353D03*
X007956Y014364D03*
X006939Y013511D03*
X007157Y012789D03*
X007999Y012625D03*
X004423Y012767D03*
X004412Y012746D03*
X002498Y012811D03*
X002498Y012822D03*
X001361Y012483D03*
X002280Y014309D03*
X002280Y014320D03*
X002291Y014342D03*
X001405Y014638D03*
X003341Y014670D03*
X004226Y014353D03*
X004226Y014342D03*
X004215Y014320D03*
X004215Y014309D03*
X004237Y014364D03*
X004237Y014375D03*
X004259Y014419D03*
X004270Y014441D03*
X008207Y017623D03*
X008207Y017645D03*
X008437Y018236D03*
X008448Y018257D03*
X008459Y018279D03*
X008470Y018301D03*
X008491Y018356D03*
X008491Y018378D03*
X008196Y018454D03*
D51*
X008497Y018411D03*
X008497Y018400D03*
X008497Y018389D03*
X008442Y018246D03*
X003335Y014659D03*
X004210Y014299D03*
X004429Y012789D03*
X004429Y012778D03*
X003280Y012483D03*
X002504Y012833D03*
X002504Y012844D03*
X001367Y012494D03*
X006835Y014091D03*
X007360Y014288D03*
X007360Y014299D03*
X007360Y014309D03*
X007961Y014386D03*
X007961Y014397D03*
X007961Y014408D03*
X006933Y013522D03*
X007075Y012680D03*
D52*
X008010Y012614D03*
X006917Y013533D03*
X007420Y013894D03*
X007365Y014320D03*
X007365Y014342D03*
X004172Y014145D03*
X004172Y014124D03*
X003330Y014649D03*
X002247Y014200D03*
X003286Y012494D03*
X008207Y017656D03*
X008207Y017667D03*
X007715Y017951D03*
X008404Y018181D03*
D53*
X007474Y018914D03*
X008021Y015020D03*
X007967Y014430D03*
X004456Y012855D03*
X004183Y014189D03*
X002258Y014233D03*
X002509Y012855D03*
X001372Y012505D03*
D54*
X003291Y012505D03*
X004166Y014091D03*
X002241Y014189D03*
X006846Y014080D03*
X006911Y013544D03*
D55*
X004243Y012505D03*
D56*
X004451Y012844D03*
X004462Y012877D03*
X004462Y012888D03*
X004462Y012899D03*
X004166Y014080D03*
X004166Y014102D03*
X004166Y014113D03*
X004177Y014156D03*
X004177Y014167D03*
X003324Y014638D03*
X002252Y014222D03*
X002252Y014211D03*
X002241Y014178D03*
X002241Y014167D03*
X002241Y014156D03*
X002515Y012888D03*
X002515Y012877D03*
X001378Y012516D03*
X007075Y012669D03*
X008059Y012964D03*
X008431Y013872D03*
X007961Y014441D03*
X008016Y015009D03*
X008409Y018192D03*
D57*
X007742Y018137D03*
X007731Y018159D03*
X007720Y018192D03*
X007720Y018203D03*
X007699Y018246D03*
X007699Y018257D03*
X007480Y018290D03*
X007994Y018925D03*
X007349Y014998D03*
X007349Y014988D03*
X007349Y014977D03*
X006802Y014200D03*
X006802Y014189D03*
X008770Y014506D03*
X007097Y012713D03*
X004308Y012571D03*
X002373Y012582D03*
X002362Y012571D03*
X002318Y012516D03*
X002460Y014638D03*
X002460Y014649D03*
X002471Y014659D03*
X001443Y014703D03*
X004396Y014638D03*
X004407Y014649D03*
X004407Y014659D03*
D58*
X002236Y014145D03*
X002236Y014124D03*
X002236Y014113D03*
X002236Y014102D03*
X001383Y014102D03*
X001383Y014113D03*
X001383Y014124D03*
X001383Y014145D03*
X001383Y014156D03*
X001383Y014167D03*
X001383Y014178D03*
X001383Y014200D03*
X001383Y014211D03*
X001383Y014222D03*
X001383Y014244D03*
X001383Y014255D03*
X001383Y014266D03*
X001383Y014277D03*
X001383Y014299D03*
X001383Y014309D03*
X001383Y014320D03*
X001383Y014342D03*
X001383Y014353D03*
X001383Y014364D03*
X001383Y014375D03*
X001383Y014397D03*
X001383Y014408D03*
X001383Y014419D03*
X001383Y014441D03*
X001383Y014452D03*
X001383Y014463D03*
X001383Y014474D03*
X001383Y014495D03*
X001383Y014506D03*
X001383Y014517D03*
X001383Y014539D03*
X001383Y014550D03*
X001383Y014561D03*
X001383Y014572D03*
X001383Y014080D03*
X001383Y014069D03*
X001383Y014058D03*
X001383Y014047D03*
X001383Y014025D03*
X001383Y014014D03*
X001383Y014003D03*
X001383Y013981D03*
X001383Y013970D03*
X001383Y013960D03*
X001383Y013949D03*
X001383Y013927D03*
X001383Y013916D03*
X001383Y013905D03*
X001383Y013883D03*
X001383Y013872D03*
X001383Y013861D03*
X001383Y013850D03*
X001383Y013828D03*
X001383Y013817D03*
X001383Y013806D03*
X001383Y013785D03*
X001383Y013774D03*
X001383Y013763D03*
X001383Y013752D03*
X001383Y013730D03*
X001383Y013719D03*
X001383Y013708D03*
X001383Y013686D03*
X001383Y013675D03*
X001383Y013664D03*
X001383Y013653D03*
X001383Y013631D03*
X001383Y013621D03*
X001383Y013610D03*
X001383Y013588D03*
X001383Y013577D03*
X001383Y013566D03*
X001383Y013555D03*
X001383Y013533D03*
X001383Y013522D03*
X001383Y013511D03*
X001383Y013489D03*
X001383Y013478D03*
X001383Y013467D03*
X001383Y013456D03*
X001383Y013435D03*
X001383Y013424D03*
X001383Y013413D03*
X001383Y013391D03*
X001383Y013380D03*
X001383Y013369D03*
X001383Y013358D03*
X001383Y013336D03*
X001383Y013325D03*
X001383Y013314D03*
X001383Y013292D03*
X001383Y013281D03*
X001383Y013271D03*
X001383Y013260D03*
X001383Y013238D03*
X001383Y013227D03*
X001383Y013216D03*
X001383Y013194D03*
X001383Y013183D03*
X001383Y013172D03*
X001383Y013161D03*
X001383Y013139D03*
X001383Y013128D03*
X001383Y013117D03*
X001383Y013096D03*
X001383Y013085D03*
X001383Y013074D03*
X001383Y013063D03*
X001383Y013041D03*
X001383Y013030D03*
X001383Y013019D03*
X001383Y012997D03*
X001383Y012986D03*
X001383Y012975D03*
X001383Y012964D03*
X001383Y012942D03*
X001383Y012932D03*
X001383Y012921D03*
X001383Y012899D03*
X001383Y012888D03*
X001383Y012877D03*
X001383Y012866D03*
X001383Y012844D03*
X001383Y012833D03*
X001383Y012822D03*
X001383Y012811D03*
X001383Y012789D03*
X001383Y012778D03*
X001383Y012767D03*
X001383Y012746D03*
X001383Y012735D03*
X001383Y012724D03*
X001383Y012713D03*
X001383Y012691D03*
X001383Y012680D03*
X001383Y012669D03*
X001383Y012647D03*
X001383Y012636D03*
X001383Y012625D03*
X001383Y012614D03*
X001383Y012593D03*
X001383Y012582D03*
X001383Y012571D03*
X002520Y012899D03*
X003297Y012516D03*
X006851Y014069D03*
X007879Y013949D03*
X007967Y014452D03*
X007967Y014463D03*
X007343Y014856D03*
X008207Y017689D03*
X008207Y017700D03*
X008382Y018148D03*
X008393Y018159D03*
X008502Y018443D03*
X008043Y019001D03*
D59*
X003007Y014802D03*
X002996Y014791D03*
X002788Y012527D03*
D60*
X002794Y012538D03*
D61*
X002799Y012549D03*
D62*
X002810Y012560D03*
D63*
X002520Y012932D03*
X002520Y012942D03*
X002520Y012964D03*
X003308Y012964D03*
X003308Y012975D03*
X003308Y012986D03*
X003308Y012997D03*
X003308Y013019D03*
X003308Y013030D03*
X003308Y013041D03*
X003308Y013063D03*
X003308Y013074D03*
X003308Y013085D03*
X003308Y013096D03*
X003308Y013117D03*
X003308Y013128D03*
X003308Y013139D03*
X003308Y013161D03*
X003308Y013172D03*
X003308Y013183D03*
X003308Y013194D03*
X003308Y013216D03*
X003308Y013227D03*
X003308Y013238D03*
X003308Y013260D03*
X003308Y013271D03*
X003308Y013281D03*
X003308Y013292D03*
X003308Y013314D03*
X003308Y013325D03*
X003308Y013336D03*
X003308Y013358D03*
X003308Y013369D03*
X003308Y013380D03*
X003308Y013391D03*
X003308Y013413D03*
X003308Y013424D03*
X003308Y013435D03*
X003308Y013456D03*
X003308Y013467D03*
X003308Y013478D03*
X003308Y013489D03*
X003308Y013511D03*
X003308Y013522D03*
X003308Y013533D03*
X003308Y013555D03*
X003308Y013566D03*
X003308Y013577D03*
X003308Y013588D03*
X003308Y013610D03*
X003308Y013621D03*
X003308Y013631D03*
X003308Y013653D03*
X003308Y013664D03*
X003308Y013675D03*
X003308Y013686D03*
X003308Y013708D03*
X003308Y013719D03*
X003308Y013730D03*
X003308Y013752D03*
X003308Y013763D03*
X003308Y013774D03*
X003308Y013785D03*
X003308Y013806D03*
X003308Y013817D03*
X003308Y013828D03*
X003308Y013850D03*
X003308Y013861D03*
X003308Y013872D03*
X003308Y013883D03*
X003308Y013905D03*
X003308Y013916D03*
X003308Y013927D03*
X003308Y013949D03*
X003308Y013960D03*
X003308Y013970D03*
X003308Y013981D03*
X003308Y014003D03*
X003308Y014014D03*
X003308Y014025D03*
X003308Y014047D03*
X003308Y014058D03*
X003308Y014069D03*
X003308Y014080D03*
X003308Y014102D03*
X003308Y014113D03*
X003308Y014124D03*
X003308Y014145D03*
X003308Y014156D03*
X003308Y014167D03*
X003308Y014178D03*
X003308Y014200D03*
X003308Y014211D03*
X003308Y014222D03*
X003308Y014244D03*
X003308Y014255D03*
X003308Y014266D03*
X003308Y014277D03*
X003308Y014299D03*
X003308Y014309D03*
X003308Y014320D03*
X003308Y014342D03*
X003308Y014353D03*
X003308Y014364D03*
X003308Y014375D03*
X003308Y014397D03*
X003308Y014408D03*
X003308Y014419D03*
X003308Y014441D03*
X003308Y014452D03*
X003308Y014463D03*
X003308Y014474D03*
X003308Y014495D03*
X003308Y014506D03*
X003308Y014517D03*
X003308Y014539D03*
X003308Y014550D03*
X003308Y014561D03*
X003308Y012942D03*
X003308Y012932D03*
X003308Y012921D03*
X003308Y012899D03*
X003308Y012888D03*
X003308Y012877D03*
X003308Y012866D03*
X003308Y012844D03*
X003308Y012833D03*
X003308Y012822D03*
X003308Y012811D03*
X003308Y012789D03*
X003308Y012778D03*
X003308Y012767D03*
X003308Y012746D03*
X003308Y012735D03*
X003308Y012724D03*
X003308Y012713D03*
X003308Y012691D03*
X003308Y012680D03*
X003308Y012669D03*
X003308Y012647D03*
X003308Y012636D03*
X003308Y012625D03*
X003308Y012614D03*
X003308Y012593D03*
X003308Y012582D03*
X003308Y012571D03*
X006851Y014047D03*
X006851Y014058D03*
X007343Y014845D03*
X008677Y014419D03*
D64*
X007967Y014474D03*
X007343Y014867D03*
X008437Y013883D03*
X003319Y014627D03*
X002236Y014135D03*
X001383Y014135D03*
X001383Y014091D03*
X001383Y014036D03*
X001383Y013992D03*
X001383Y013938D03*
X001383Y013894D03*
X001383Y013839D03*
X001383Y013795D03*
X001383Y013741D03*
X001383Y013697D03*
X001383Y013642D03*
X001383Y013599D03*
X001383Y013544D03*
X001383Y013500D03*
X001383Y013446D03*
X001383Y013402D03*
X001383Y013347D03*
X001383Y013303D03*
X001383Y013249D03*
X001383Y013205D03*
X001383Y013150D03*
X001383Y013107D03*
X001383Y013052D03*
X001383Y013008D03*
X001383Y012953D03*
X001383Y012910D03*
X001383Y012855D03*
X001383Y012800D03*
X001383Y012757D03*
X001383Y012702D03*
X001383Y012658D03*
X001383Y012603D03*
X002520Y012910D03*
X001383Y014189D03*
X001383Y014233D03*
X001383Y014288D03*
X001383Y014331D03*
X001383Y014386D03*
X001383Y014430D03*
X001383Y014484D03*
X001383Y014528D03*
X008207Y017678D03*
D65*
X003308Y014528D03*
X003308Y014484D03*
X003308Y014430D03*
X003308Y014386D03*
X003308Y014331D03*
X003308Y014288D03*
X003308Y014233D03*
X003308Y014189D03*
X003308Y014135D03*
X003308Y014091D03*
X003308Y014036D03*
X003308Y013992D03*
X003308Y013938D03*
X003308Y013894D03*
X003308Y013839D03*
X003308Y013795D03*
X003308Y013741D03*
X003308Y013697D03*
X003308Y013642D03*
X003308Y013599D03*
X003308Y013544D03*
X003308Y013500D03*
X003308Y013446D03*
X003308Y013402D03*
X003308Y013347D03*
X003308Y013303D03*
X003308Y013249D03*
X003308Y013205D03*
X003308Y013150D03*
X003308Y013107D03*
X003308Y013052D03*
X003308Y013008D03*
X003308Y012953D03*
X003308Y012910D03*
X003308Y012855D03*
X003308Y012800D03*
X003308Y012757D03*
X003308Y012702D03*
X003308Y012658D03*
X003308Y012603D03*
X002520Y012953D03*
D66*
X002422Y012658D03*
X004325Y012603D03*
X006807Y014178D03*
X007332Y014135D03*
X004390Y014627D03*
X003373Y014725D03*
X007748Y018126D03*
X007693Y018268D03*
X008174Y018421D03*
D67*
X004319Y014528D03*
X004363Y012658D03*
D68*
X004374Y012669D03*
X006824Y014124D03*
X007950Y014309D03*
X007950Y014320D03*
X008059Y012942D03*
X007994Y012636D03*
X004330Y014550D03*
X002351Y014474D03*
X002340Y014452D03*
X001421Y014670D03*
X007710Y017962D03*
X007502Y018892D03*
D69*
X008185Y018443D03*
X008207Y017612D03*
X008207Y017601D03*
X008207Y017590D03*
X007354Y014911D03*
X007956Y014342D03*
X008415Y013828D03*
X006829Y014113D03*
X004401Y012724D03*
X004379Y012680D03*
X002488Y012789D03*
X002477Y012767D03*
X002313Y014397D03*
X002334Y014441D03*
X002345Y014463D03*
X001416Y014659D03*
X004303Y014506D03*
X004303Y014495D03*
X004314Y014517D03*
X004325Y014539D03*
D70*
X002400Y014550D03*
X002444Y012691D03*
X007956Y014299D03*
X008207Y017568D03*
X008010Y018946D03*
D71*
X007349Y014966D03*
X007950Y014277D03*
X002449Y012702D03*
D72*
X004390Y012702D03*
X004292Y014484D03*
D73*
X004265Y014430D03*
X004243Y014386D03*
X003346Y014681D03*
X002307Y014386D03*
X002493Y012800D03*
X004418Y012757D03*
X007349Y014233D03*
X008420Y013839D03*
X008453Y018268D03*
D74*
X008431Y018225D03*
X004188Y014233D03*
X002274Y014288D03*
X004440Y012800D03*
D75*
X004440Y012811D03*
X004188Y014211D03*
X004188Y014222D03*
X004199Y014255D03*
X004199Y014266D03*
X004199Y014277D03*
X002274Y014299D03*
X002263Y014277D03*
X002263Y014266D03*
X007349Y014889D03*
X008420Y018214D03*
X008027Y018979D03*
D76*
X008032Y018990D03*
X008415Y018203D03*
X007343Y014878D03*
X007967Y014419D03*
X007879Y013960D03*
X008426Y013861D03*
X008710Y014452D03*
X004456Y012866D03*
X004445Y012833D03*
X004445Y012822D03*
X004183Y014178D03*
X004183Y014200D03*
X004194Y014244D03*
X002258Y014244D03*
X002258Y014255D03*
X002509Y012866D03*
D77*
X004467Y012910D03*
X007365Y014375D03*
D78*
X008016Y014998D03*
X006889Y013566D03*
X006900Y013555D03*
X002515Y012921D03*
X002231Y014069D03*
X002231Y014080D03*
X007720Y017940D03*
X008377Y018137D03*
D79*
X007365Y014386D03*
X007365Y014364D03*
X007365Y014353D03*
X004467Y012942D03*
X004467Y012932D03*
X004467Y012921D03*
X004172Y014047D03*
X004172Y014058D03*
X004172Y014069D03*
D80*
X004166Y014036D03*
X004166Y013992D03*
X004472Y012953D03*
X007075Y012658D03*
X007414Y013883D03*
X008049Y019012D03*
D81*
X008497Y018454D03*
X007371Y014397D03*
X008442Y013894D03*
X008453Y013905D03*
X008059Y012975D03*
X007075Y012647D03*
X004472Y012964D03*
X004472Y012975D03*
X004166Y014003D03*
X004166Y014014D03*
X004166Y014025D03*
D82*
X004177Y013927D03*
X004177Y013916D03*
X004177Y013905D03*
X004461Y013041D03*
X004461Y013030D03*
X002526Y012975D03*
X002231Y013981D03*
X006878Y013610D03*
X006878Y013599D03*
X008059Y012986D03*
X007075Y012636D03*
X007075Y012625D03*
X008464Y013927D03*
X007972Y014506D03*
X007371Y014419D03*
X008213Y017743D03*
X008344Y018093D03*
X008355Y018104D03*
X008070Y019034D03*
D83*
X008076Y019045D03*
X008338Y018082D03*
X008207Y017754D03*
X008010Y014977D03*
X007967Y014517D03*
X008666Y014397D03*
X008481Y013960D03*
X007420Y013872D03*
X006873Y013631D03*
X006873Y013621D03*
X007365Y014441D03*
X007343Y014834D03*
X004456Y013074D03*
X004456Y013063D03*
X004183Y013850D03*
X004183Y013861D03*
X004183Y013872D03*
X004183Y013883D03*
X002520Y013019D03*
X002520Y012997D03*
X002520Y012986D03*
X002247Y013883D03*
X002247Y013905D03*
X002236Y013927D03*
X002236Y013949D03*
X002236Y013960D03*
X002236Y013970D03*
X007212Y012046D03*
X008021Y012593D03*
D84*
X006884Y013577D03*
X007365Y014408D03*
X007967Y014484D03*
X007967Y014495D03*
X008010Y014988D03*
X008459Y013916D03*
X004467Y013019D03*
X004467Y012997D03*
X004467Y012986D03*
X004172Y013949D03*
X004172Y013960D03*
X004172Y013970D03*
X004172Y013981D03*
X002236Y014003D03*
X002236Y014014D03*
X002236Y014025D03*
X002236Y014047D03*
X002236Y014058D03*
X008207Y017711D03*
X008207Y017722D03*
X008360Y018115D03*
X008054Y019023D03*
X007453Y018925D03*
D85*
X007343Y014823D03*
X007365Y014430D03*
X008470Y013938D03*
X008065Y012997D03*
X002520Y013008D03*
X002247Y013894D03*
X002236Y013938D03*
D86*
X002236Y013992D03*
X002236Y014036D03*
X004172Y013938D03*
X004467Y013008D03*
X006884Y013588D03*
D87*
X008027Y012582D03*
X004199Y013774D03*
X004199Y013785D03*
X004199Y013806D03*
X002515Y013041D03*
X002515Y013030D03*
X007436Y018935D03*
D88*
X004199Y013795D03*
X002515Y013052D03*
D89*
X004177Y013894D03*
X004461Y013052D03*
X006856Y014036D03*
X007874Y013938D03*
X008213Y017733D03*
X007720Y017929D03*
D90*
X008218Y017809D03*
X008218Y017798D03*
X008513Y014014D03*
X004445Y013128D03*
X004445Y013117D03*
X004205Y013752D03*
X004205Y013763D03*
X002509Y013085D03*
X002509Y013074D03*
X002509Y013063D03*
X002269Y013774D03*
X002269Y013785D03*
D91*
X002252Y013850D03*
X002252Y013861D03*
X002252Y013872D03*
X002241Y013916D03*
X004188Y013828D03*
X004188Y013817D03*
X004451Y013096D03*
X004451Y013085D03*
X006856Y014025D03*
X007371Y014452D03*
X007349Y014813D03*
X007972Y014539D03*
X008661Y014386D03*
X008497Y013992D03*
X008486Y013970D03*
X007874Y013927D03*
X008059Y013008D03*
X007075Y012614D03*
X008213Y017765D03*
X008213Y017787D03*
X008311Y018039D03*
X008322Y018050D03*
X007720Y017918D03*
D92*
X008224Y017842D03*
X008224Y017820D03*
X008234Y017864D03*
X008267Y017951D03*
X008278Y017984D03*
X008289Y017995D03*
X007349Y014802D03*
X007349Y014791D03*
X007972Y014561D03*
X007874Y013916D03*
X007425Y013861D03*
X006857Y014003D03*
X008070Y013030D03*
X007086Y012593D03*
X007206Y012057D03*
X008038Y011947D03*
X008519Y014025D03*
X004440Y013139D03*
X004429Y013161D03*
X004429Y013172D03*
X004243Y013621D03*
X004232Y013653D03*
X004232Y013664D03*
X002504Y013117D03*
X002504Y013096D03*
X002285Y013708D03*
X002285Y013719D03*
X002274Y013752D03*
X002274Y013763D03*
D93*
X002274Y013741D03*
X002263Y013795D03*
X002504Y013107D03*
X004210Y013741D03*
X007972Y014572D03*
X008224Y017831D03*
X008278Y017973D03*
D94*
X008213Y017776D03*
X008005Y014966D03*
X007972Y014528D03*
X008497Y013981D03*
X007152Y012800D03*
X004451Y013107D03*
X004188Y013839D03*
X002252Y013839D03*
D95*
X002280Y013730D03*
X002291Y013686D03*
X002302Y013664D03*
X002302Y013653D03*
X002313Y013631D03*
X002313Y013621D03*
X002313Y013610D03*
X002323Y013588D03*
X002334Y013555D03*
X002488Y013172D03*
X002488Y013161D03*
X002498Y013139D03*
X002498Y013128D03*
X004237Y013631D03*
X004248Y013610D03*
X004259Y013577D03*
X004259Y013566D03*
X004281Y013522D03*
X004281Y013511D03*
X004292Y013489D03*
X004314Y013435D03*
X004401Y013227D03*
X004412Y013216D03*
X004423Y013183D03*
X004226Y013675D03*
X006862Y013992D03*
X007354Y014780D03*
X008010Y014944D03*
X008535Y014047D03*
X008065Y013041D03*
X008032Y012571D03*
X008229Y017853D03*
X008240Y017886D03*
X008240Y017897D03*
X008262Y017940D03*
X008273Y017962D03*
X007715Y017907D03*
D96*
X008240Y017875D03*
X008524Y014036D03*
X004412Y013205D03*
X004248Y013599D03*
X004237Y013642D03*
X002498Y013150D03*
X002477Y013205D03*
X002356Y013500D03*
X002302Y013642D03*
X002291Y013697D03*
D97*
X004434Y013150D03*
X008087Y019056D03*
D98*
X006999Y018104D03*
X006999Y018093D03*
X007972Y014594D03*
X007972Y014583D03*
X007360Y014517D03*
X007874Y013905D03*
X008541Y014058D03*
X008639Y014320D03*
X006867Y013697D03*
X007086Y012582D03*
X007086Y012571D03*
X004396Y013238D03*
X004385Y013260D03*
X004385Y013271D03*
X004385Y013281D03*
X004374Y013292D03*
X004363Y013314D03*
X004363Y013325D03*
X004352Y013336D03*
X004352Y013358D03*
X004341Y013369D03*
X004341Y013380D03*
X004330Y013391D03*
X004308Y013456D03*
X004297Y013467D03*
X004297Y013478D03*
X004276Y013533D03*
X004265Y013555D03*
X004254Y013588D03*
X002482Y013194D03*
X002482Y013183D03*
X002471Y013216D03*
X002471Y013227D03*
X002460Y013238D03*
X002449Y013271D03*
X002449Y013281D03*
X002438Y013292D03*
X002427Y013325D03*
X002416Y013358D03*
X002405Y013380D03*
X002384Y013424D03*
X002384Y013435D03*
X002373Y013456D03*
X002373Y013467D03*
X002362Y013478D03*
X002362Y013489D03*
X002351Y013511D03*
X002340Y013533D03*
X002329Y013566D03*
X002329Y013577D03*
D99*
X002296Y013675D03*
X004221Y013686D03*
X004221Y013708D03*
X004418Y013194D03*
X006867Y013664D03*
X008650Y014364D03*
X008300Y018017D03*
X008103Y019067D03*
D100*
X006988Y018126D03*
X007010Y018072D03*
X007349Y014769D03*
X006857Y013981D03*
X006867Y013686D03*
X008070Y013052D03*
X008639Y014331D03*
X004396Y013249D03*
X004374Y013303D03*
X004352Y013347D03*
X004330Y013402D03*
X004308Y013446D03*
X004287Y013500D03*
X002460Y013249D03*
X002438Y013303D03*
X002416Y013347D03*
X002373Y013446D03*
X002340Y013544D03*
X002318Y013599D03*
D101*
X002411Y013369D03*
X002422Y013336D03*
X002433Y013314D03*
X002455Y013260D03*
X006862Y013970D03*
X007354Y014736D03*
X007354Y014747D03*
X007354Y014758D03*
X007977Y014616D03*
X007977Y014605D03*
X008634Y014309D03*
X008557Y014091D03*
X008065Y013063D03*
X007004Y018082D03*
X006993Y018115D03*
X006982Y018137D03*
X006982Y018148D03*
X006982Y018159D03*
X008120Y019078D03*
D102*
X007015Y018061D03*
X007026Y018039D03*
X008010Y014911D03*
X008546Y014069D03*
X006873Y013708D03*
X002400Y013391D03*
D103*
X002395Y013402D03*
D104*
X002395Y013413D03*
X004319Y013413D03*
X004319Y013424D03*
X007611Y013074D03*
X008005Y014933D03*
X007021Y018050D03*
D105*
X008251Y017918D03*
X008251Y017907D03*
X007365Y014506D03*
X007365Y014495D03*
X007365Y014484D03*
X006873Y013675D03*
X008645Y014342D03*
X008645Y014353D03*
X002345Y013522D03*
D106*
X004270Y013544D03*
D107*
X004221Y013697D03*
X008256Y017929D03*
D108*
X008295Y018006D03*
X008010Y014955D03*
X007967Y014550D03*
X007365Y014463D03*
X006862Y014014D03*
X006873Y013653D03*
X008065Y013019D03*
X008502Y014003D03*
X004215Y013730D03*
X004215Y013719D03*
X002258Y013806D03*
X002258Y013817D03*
X002258Y013828D03*
D109*
X002231Y014091D03*
X008016Y012603D03*
X008683Y014430D03*
X008366Y018126D03*
D110*
X008502Y018421D03*
X007365Y014331D03*
X004172Y014135D03*
D111*
X004210Y014288D03*
X004221Y014331D03*
X002285Y014331D03*
X001399Y014627D03*
X007360Y014277D03*
X008059Y012953D03*
D112*
X006949Y013500D03*
X007879Y013970D03*
X008426Y013850D03*
X008032Y015031D03*
X004248Y014397D03*
X007485Y018903D03*
D113*
X003351Y014692D03*
X002323Y014419D03*
X007343Y014200D03*
X007343Y014189D03*
D114*
X007874Y013981D03*
X007349Y014922D03*
X002362Y014484D03*
D115*
X002389Y014528D03*
X006818Y014135D03*
X008207Y017579D03*
D116*
X008202Y017558D03*
X007414Y013916D03*
X002395Y014539D03*
D117*
X003800Y014572D03*
D118*
X002848Y014583D03*
D119*
X002848Y014594D03*
D120*
X002859Y014605D03*
D121*
X002362Y014616D03*
D122*
X002449Y014627D03*
X007950Y014233D03*
X007710Y018225D03*
D123*
X007343Y014178D03*
X008382Y013785D03*
X007092Y012702D03*
X001427Y014681D03*
D124*
X001470Y014758D03*
X004478Y014758D03*
X007354Y015053D03*
X008798Y014561D03*
D125*
X007939Y014145D03*
X007699Y013041D03*
X007108Y012724D03*
X001476Y014769D03*
X007436Y017995D03*
X007447Y018006D03*
X007447Y018017D03*
X007480Y018093D03*
X007480Y018104D03*
X007491Y018137D03*
X007491Y018148D03*
X007502Y018203D03*
X007502Y018214D03*
D126*
X003401Y014769D03*
D127*
X004489Y014769D03*
X007431Y017984D03*
X007988Y018903D03*
D128*
X002991Y014780D03*
D129*
X003012Y014813D03*
D130*
X007655Y016912D03*
X007983Y012286D03*
X007983Y012275D03*
D131*
X007660Y016923D03*
X007660Y016934D03*
D132*
X007655Y016945D03*
D133*
X007660Y016956D03*
X007004Y018607D03*
D134*
X007021Y018596D03*
X007655Y016967D03*
D135*
X007660Y016978D03*
D136*
X007660Y016989D03*
D137*
X007655Y017000D03*
X007031Y018586D03*
D138*
X007660Y017022D03*
X007660Y017011D03*
D139*
X007660Y017033D03*
D140*
X007660Y017044D03*
D141*
X007655Y017054D03*
D142*
X007660Y017065D03*
X007660Y017076D03*
D143*
X007660Y017087D03*
X008502Y019253D03*
X008568Y019351D03*
D144*
X008579Y019362D03*
X008557Y019329D03*
X008535Y019296D03*
X008513Y019264D03*
X007092Y018542D03*
X007660Y017098D03*
D145*
X007655Y017109D03*
X008486Y019231D03*
X008497Y019242D03*
X008584Y019373D03*
X007655Y013817D03*
X007655Y013806D03*
D146*
X007660Y017120D03*
X008590Y019384D03*
D147*
X007114Y018520D03*
X007660Y017131D03*
D148*
X007660Y017142D03*
X007660Y017153D03*
X006774Y019340D03*
D149*
X006758Y019373D03*
X006747Y019384D03*
X007130Y018498D03*
X008409Y019089D03*
X007655Y017164D03*
D150*
X007660Y017175D03*
D151*
X007660Y017186D03*
D152*
X007655Y017197D03*
X008606Y019417D03*
D153*
X007168Y018454D03*
X007660Y017219D03*
X007660Y017208D03*
X007649Y013763D03*
D154*
X007660Y017229D03*
X007463Y017733D03*
D155*
X007463Y017743D03*
X007453Y017754D03*
X007453Y017765D03*
X007463Y017722D03*
X007474Y017711D03*
X007474Y017700D03*
X007496Y017645D03*
X007507Y017623D03*
X007507Y017612D03*
X007518Y017590D03*
X007529Y017558D03*
X007431Y017820D03*
X007420Y017842D03*
X007420Y017853D03*
X007223Y018356D03*
X007212Y018378D03*
X007201Y018400D03*
X006906Y019165D03*
X007660Y017240D03*
D156*
X007655Y017251D03*
X007414Y017864D03*
X007228Y018334D03*
X007228Y018345D03*
X007206Y018389D03*
X006725Y019428D03*
D157*
X007660Y017273D03*
X007660Y017262D03*
D158*
X007660Y017284D03*
D159*
X007660Y017295D03*
D160*
X007655Y017306D03*
D161*
X007660Y017317D03*
X006960Y019100D03*
D162*
X006720Y019449D03*
X007660Y017328D03*
D163*
X007660Y017339D03*
X007660Y017350D03*
X006982Y019067D03*
D164*
X007010Y019023D03*
X007021Y019001D03*
X007655Y017361D03*
D165*
X007660Y017372D03*
X007026Y018979D03*
X007026Y018990D03*
D166*
X007015Y019012D03*
X007660Y017383D03*
D167*
X007660Y017393D03*
X007660Y017404D03*
D168*
X007655Y017415D03*
X006714Y019460D03*
D169*
X007660Y017426D03*
D170*
X007660Y017437D03*
D171*
X007655Y017448D03*
D172*
X007660Y017459D03*
D173*
X007655Y017470D03*
D174*
X007660Y017481D03*
D175*
X007660Y017492D03*
D176*
X007655Y017503D03*
D177*
X007660Y017514D03*
D178*
X007660Y017525D03*
D179*
X007660Y017536D03*
X007660Y017547D03*
X007759Y013719D03*
D180*
X007655Y013752D03*
X007524Y017568D03*
X007513Y017601D03*
X007491Y017656D03*
X007480Y017689D03*
X007196Y018411D03*
X007185Y018432D03*
X007174Y018443D03*
X006889Y019187D03*
X006878Y019198D03*
X006736Y019417D03*
X008606Y019428D03*
D181*
X007185Y018421D03*
X007502Y017634D03*
X007524Y017579D03*
D182*
X008207Y017634D03*
X008491Y018367D03*
X007956Y014375D03*
X006960Y013489D03*
D183*
X007485Y017667D03*
X007442Y017787D03*
X007442Y017798D03*
X006895Y019176D03*
D184*
X007485Y017678D03*
D185*
X007447Y017776D03*
X007239Y018323D03*
D186*
X007239Y018312D03*
X007436Y017809D03*
D187*
X007425Y017831D03*
X007217Y018367D03*
X006911Y019154D03*
D188*
X008377Y018520D03*
X007163Y017929D03*
X007185Y017875D03*
D189*
X007688Y017875D03*
X007097Y012461D03*
X007185Y012111D03*
D190*
X007179Y017886D03*
X007004Y018301D03*
X008415Y018607D03*
D191*
X007704Y017886D03*
X007070Y017995D03*
X008010Y014856D03*
X008010Y014845D03*
X007988Y014714D03*
X007988Y014703D03*
X007988Y014692D03*
X006862Y013872D03*
X006862Y013861D03*
X006862Y013850D03*
X006862Y013828D03*
X006862Y013817D03*
X006862Y013806D03*
X006862Y013795D03*
D192*
X007168Y017897D03*
X007168Y017907D03*
D193*
X006977Y018181D03*
X007567Y018301D03*
X007710Y017897D03*
X008005Y014900D03*
X007360Y014561D03*
X007360Y014550D03*
X007360Y014539D03*
X006867Y013730D03*
X006867Y013719D03*
X008584Y014156D03*
X008584Y014167D03*
X008595Y014189D03*
X008595Y014200D03*
X008606Y014222D03*
D194*
X007163Y017918D03*
X007163Y017940D03*
X008366Y018476D03*
X008366Y018487D03*
X008399Y018575D03*
X008409Y018586D03*
X008409Y018596D03*
D195*
X007163Y017951D03*
X007108Y012910D03*
D196*
X007130Y012844D03*
X007174Y012155D03*
X008016Y012494D03*
X007119Y017962D03*
X008497Y018728D03*
D197*
X007469Y018061D03*
X007458Y018050D03*
X007458Y018039D03*
X007414Y017962D03*
D198*
X007097Y017973D03*
X008519Y018760D03*
X008617Y019012D03*
D199*
X007425Y017973D03*
D200*
X007086Y017984D03*
X008563Y018837D03*
X008617Y018979D03*
X008617Y018990D03*
D201*
X006977Y018214D03*
X006977Y018203D03*
X007053Y018006D03*
X008005Y014878D03*
X007983Y014681D03*
X007983Y014659D03*
X007360Y014659D03*
X007360Y014649D03*
X007360Y014638D03*
X007360Y014616D03*
X007360Y014605D03*
X007360Y014594D03*
X007360Y014583D03*
X007360Y014681D03*
X006856Y013927D03*
X006856Y013916D03*
X006856Y013905D03*
X006856Y013894D03*
X008070Y013085D03*
X007086Y012516D03*
X007196Y012089D03*
D202*
X007092Y012527D03*
X007092Y012538D03*
X008032Y012549D03*
X008623Y014255D03*
X008623Y014266D03*
X007977Y014638D03*
X007977Y014649D03*
X007048Y018017D03*
D203*
X007031Y018028D03*
X006977Y018170D03*
X007360Y014725D03*
X008584Y014178D03*
X006867Y013741D03*
D204*
X007458Y018028D03*
X007469Y018072D03*
D205*
X008306Y018028D03*
X008656Y014375D03*
X007365Y014474D03*
X006873Y013642D03*
X007081Y012603D03*
D206*
X007835Y018039D03*
D207*
X007813Y018050D03*
X007485Y018115D03*
X007474Y018082D03*
X007496Y018159D03*
X007496Y018181D03*
X007496Y018192D03*
X007507Y018236D03*
X007507Y018246D03*
X007507Y018257D03*
X008076Y015173D03*
X006785Y014288D03*
D208*
X008327Y018061D03*
D209*
X008327Y018072D03*
D210*
X007759Y018093D03*
D211*
X007496Y018170D03*
X007485Y018126D03*
X007507Y018225D03*
X007507Y018268D03*
X007354Y015064D03*
X008809Y014572D03*
D212*
X008399Y018170D03*
D213*
X006971Y018192D03*
X008010Y014889D03*
X007354Y014714D03*
X007354Y014703D03*
X007354Y014692D03*
X008612Y014244D03*
X008601Y014211D03*
X006862Y013774D03*
X006862Y013763D03*
X006862Y013752D03*
X007201Y012079D03*
D214*
X007994Y014725D03*
X008005Y014769D03*
X008005Y014823D03*
X006977Y018225D03*
X008595Y018914D03*
D215*
X008612Y018946D03*
X008612Y018968D03*
X008579Y018870D03*
X008568Y018848D03*
X006982Y018236D03*
X007595Y013085D03*
X007135Y012822D03*
X007190Y012100D03*
D216*
X007179Y012122D03*
X007103Y012450D03*
X008021Y012516D03*
X006982Y018246D03*
X008524Y018771D03*
X008535Y018793D03*
X008546Y018804D03*
X008623Y019001D03*
D217*
X008617Y019023D03*
X008530Y018782D03*
X006988Y018257D03*
X007130Y012833D03*
X007108Y012439D03*
X007108Y012428D03*
D218*
X008021Y012505D03*
X008021Y011969D03*
X006993Y018268D03*
D219*
X006993Y018279D03*
X008481Y018706D03*
X007124Y012396D03*
X007168Y012188D03*
X007168Y012177D03*
D220*
X006999Y018290D03*
X008475Y018695D03*
D221*
X008475Y018312D03*
D222*
X008475Y018323D03*
D223*
X008152Y018389D03*
D224*
X008497Y018432D03*
X008694Y014441D03*
X007217Y012035D03*
D225*
X007163Y018465D03*
X006867Y019209D03*
D226*
X008426Y018618D03*
X008360Y018465D03*
X008010Y012461D03*
D227*
X007152Y018476D03*
X006857Y019220D03*
D228*
X006851Y019231D03*
X006840Y019242D03*
X006742Y019395D03*
X007146Y018487D03*
X007649Y013774D03*
D229*
X008371Y018498D03*
X008371Y018509D03*
X008382Y018531D03*
X008382Y018542D03*
X008393Y018553D03*
D230*
X008415Y019100D03*
X008426Y019121D03*
X008437Y019143D03*
X007124Y018509D03*
X006818Y019274D03*
X006807Y019285D03*
X006764Y019362D03*
D231*
X007097Y018531D03*
D232*
X007075Y018553D03*
X008552Y019318D03*
X008563Y019340D03*
X007655Y013828D03*
D233*
X007059Y018564D03*
D234*
X008393Y018564D03*
D235*
X007048Y018575D03*
D236*
X006993Y018618D03*
X007988Y012264D03*
D237*
X007988Y012297D03*
X007988Y012100D03*
X006982Y018629D03*
D238*
X008431Y018629D03*
X007141Y012319D03*
X007141Y012297D03*
X007141Y012286D03*
X007152Y012254D03*
X007152Y012243D03*
D239*
X006966Y018640D03*
D240*
X008442Y018640D03*
X008442Y018651D03*
X008606Y019078D03*
X007119Y012877D03*
X007119Y012866D03*
D241*
X006955Y018651D03*
D242*
X006939Y018662D03*
D243*
X008448Y018662D03*
D244*
X006933Y018673D03*
D245*
X008459Y018673D03*
X008010Y012472D03*
X008010Y011980D03*
X007157Y012221D03*
X007157Y012232D03*
D246*
X006922Y018684D03*
D247*
X008464Y018684D03*
X008617Y019067D03*
X008016Y012483D03*
X007130Y012385D03*
X007130Y012374D03*
X007163Y012199D03*
D248*
X007994Y012374D03*
X006911Y018695D03*
X006835Y018892D03*
X006835Y018903D03*
D249*
X006840Y018881D03*
X006906Y018706D03*
X007999Y012035D03*
D250*
X006900Y018717D03*
X006835Y018859D03*
D251*
X008486Y018717D03*
X007119Y012407D03*
X007174Y012166D03*
D252*
X007994Y012385D03*
X006889Y018728D03*
X006835Y018870D03*
D253*
X006840Y018848D03*
X006840Y018837D03*
X006851Y018804D03*
X006862Y018782D03*
X006884Y018739D03*
X007059Y013085D03*
X007988Y012396D03*
D254*
X007179Y012144D03*
X007114Y012418D03*
X008502Y018739D03*
D255*
X006873Y018750D03*
D256*
X008513Y018750D03*
X008623Y019034D03*
D257*
X006873Y018760D03*
D258*
X006867Y018771D03*
D259*
X006857Y018793D03*
X006846Y018826D03*
X007053Y013074D03*
X007053Y013063D03*
D260*
X006851Y018815D03*
D261*
X008552Y018815D03*
D262*
X008557Y018826D03*
X008590Y018892D03*
X008601Y018925D03*
X008601Y018935D03*
D263*
X008573Y018859D03*
D264*
X008584Y018881D03*
X008595Y018903D03*
X008005Y014834D03*
X008005Y014813D03*
X008005Y014802D03*
X008005Y014791D03*
X008005Y014780D03*
X007994Y014758D03*
X007994Y014747D03*
X007994Y014736D03*
X007863Y013872D03*
D265*
X007988Y012363D03*
X006840Y018914D03*
D266*
X006840Y018925D03*
X007988Y012352D03*
X007988Y012341D03*
X007999Y012057D03*
D267*
X007988Y012319D03*
X007988Y012330D03*
X006851Y018935D03*
D268*
X007004Y019034D03*
X007037Y018968D03*
X007037Y018946D03*
D269*
X007037Y018957D03*
D270*
X008612Y018957D03*
D271*
X006999Y019045D03*
D272*
X008617Y019045D03*
D273*
X006993Y019056D03*
D274*
X008623Y019056D03*
D275*
X006977Y019078D03*
X006966Y019089D03*
D276*
X006955Y019110D03*
D277*
X006835Y019253D03*
X008420Y019110D03*
X008595Y019406D03*
X007655Y013785D03*
D278*
X006939Y019121D03*
D279*
X006933Y019132D03*
D280*
X006802Y019296D03*
X006791Y019318D03*
X008431Y019132D03*
X008464Y019187D03*
D281*
X006922Y019143D03*
X006725Y019439D03*
D282*
X008442Y019154D03*
D283*
X008453Y019165D03*
X008453Y019176D03*
X008595Y019395D03*
X006780Y019329D03*
X007655Y013795D03*
D284*
X008470Y019198D03*
X008481Y019220D03*
D285*
X008475Y019209D03*
D286*
X006824Y019264D03*
D287*
X008519Y019274D03*
D288*
X008524Y019285D03*
D289*
X006791Y019307D03*
D290*
X008541Y019307D03*
D291*
X006764Y019351D03*
D292*
X006742Y019406D03*
D293*
X008612Y019439D03*
D294*
X008623Y019449D03*
D295*
X008623Y019460D03*
D296*
X006692Y019471D03*
X007742Y013522D03*
X007742Y013511D03*
X007742Y013500D03*
D297*
X008655Y019471D03*
D298*
X006731Y019482D03*
X006731Y019493D03*
X006731Y019515D03*
X006731Y019526D03*
X006731Y019537D03*
X006731Y019559D03*
X006731Y019570D03*
X006731Y019581D03*
X006731Y019592D03*
X006731Y019614D03*
X006731Y019624D03*
X006731Y019635D03*
X006731Y019657D03*
D299*
X008579Y019657D03*
X008579Y019635D03*
X008579Y019624D03*
X008579Y019614D03*
X008579Y019592D03*
X008579Y019581D03*
X008579Y019570D03*
X008579Y019559D03*
X008579Y019537D03*
X008579Y019526D03*
X008579Y019515D03*
X008579Y019493D03*
X008579Y019482D03*
D300*
X006731Y019504D03*
X006731Y019548D03*
X006731Y019603D03*
X006731Y019646D03*
D301*
X008579Y019646D03*
X008579Y019603D03*
X008579Y019548D03*
X008579Y019504D03*
D302*
X008027Y012527D03*
X008027Y011958D03*
X007097Y012472D03*
D303*
X007999Y012439D03*
X008010Y011991D03*
D304*
X008005Y012002D03*
X007994Y012418D03*
X007097Y012942D03*
X007086Y012964D03*
X007075Y012986D03*
X007064Y013019D03*
D305*
X007994Y012407D03*
X008005Y012013D03*
D306*
X008005Y012024D03*
D307*
X007999Y012046D03*
D308*
X008032Y012560D03*
X007092Y012560D03*
X007201Y012068D03*
X008557Y014080D03*
D309*
X007994Y012068D03*
D310*
X007994Y012079D03*
X007994Y012089D03*
D311*
X007988Y012111D03*
X007988Y012308D03*
D312*
X007988Y012144D03*
X007988Y012133D03*
X007988Y012122D03*
D313*
X007174Y012133D03*
D314*
X007983Y012155D03*
X007983Y012177D03*
X007983Y012188D03*
X007983Y012199D03*
X007983Y012221D03*
X007983Y012232D03*
X007983Y012243D03*
X007983Y012254D03*
D315*
X007983Y012210D03*
X007983Y012166D03*
D316*
X007163Y012210D03*
X007130Y012363D03*
X007130Y012855D03*
D317*
X007141Y012308D03*
X007152Y012264D03*
D318*
X007146Y012275D03*
X007135Y012330D03*
X007135Y012341D03*
X007135Y012352D03*
D319*
X007103Y012921D03*
X007103Y012932D03*
X007999Y012428D03*
D320*
X008005Y012450D03*
X007119Y012888D03*
D321*
X007092Y012494D03*
X007092Y012483D03*
X008032Y012538D03*
D322*
X007092Y012505D03*
D323*
X007086Y012549D03*
X007141Y012811D03*
X008070Y013074D03*
X007874Y013894D03*
X008563Y014102D03*
X008573Y014113D03*
X008573Y014124D03*
X008573Y014145D03*
X008628Y014288D03*
X008628Y014299D03*
X006857Y013960D03*
X006857Y013949D03*
D324*
X007114Y012899D03*
D325*
X007086Y012953D03*
D326*
X007081Y012975D03*
X007070Y013008D03*
X007059Y013030D03*
X007059Y013041D03*
D327*
X007059Y013052D03*
X007070Y012997D03*
D328*
X007283Y013096D03*
D329*
X008065Y013096D03*
X006862Y013785D03*
X006862Y013839D03*
X006862Y013883D03*
D330*
X007611Y013413D03*
X007513Y013117D03*
X007513Y013106D03*
D331*
X007518Y013128D03*
X007606Y013402D03*
D332*
X007600Y013380D03*
X007524Y013139D03*
D333*
X007524Y013150D03*
D334*
X007529Y013161D03*
X007529Y013172D03*
X007595Y013358D03*
X007595Y013369D03*
D335*
X007578Y013325D03*
X007578Y013314D03*
X007578Y013303D03*
X007567Y013281D03*
X007567Y013271D03*
X007567Y013260D03*
X007556Y013238D03*
X007556Y013227D03*
X007545Y013216D03*
X007545Y013205D03*
X007535Y013183D03*
D336*
X007540Y013194D03*
X007584Y013347D03*
D337*
X007567Y013292D03*
X007556Y013249D03*
D338*
X007584Y013336D03*
D339*
X007606Y013391D03*
D340*
X007617Y013424D03*
X007617Y013435D03*
X007628Y013456D03*
X007628Y013467D03*
D341*
X007622Y013446D03*
D342*
X007622Y013478D03*
D343*
X007737Y013489D03*
D344*
X007748Y013533D03*
X007748Y013555D03*
X007748Y013566D03*
X007748Y013577D03*
X007748Y013599D03*
X007748Y013610D03*
X007748Y013621D03*
D345*
X007748Y013588D03*
X007748Y013544D03*
D346*
X007753Y013631D03*
X007753Y013653D03*
X007753Y013664D03*
D347*
X007753Y013642D03*
D348*
X007759Y013675D03*
X007759Y013697D03*
D349*
X007759Y013686D03*
D350*
X007764Y013708D03*
D351*
X007764Y013730D03*
D352*
X007666Y013741D03*
D353*
X007660Y013839D03*
D354*
X007666Y013850D03*
D355*
X007857Y013861D03*
D356*
X007874Y013883D03*
X007983Y014670D03*
X008005Y014867D03*
X007360Y014670D03*
X007360Y014627D03*
D357*
X007354Y014572D03*
X006862Y013938D03*
X008612Y014233D03*
D358*
X007409Y013938D03*
D359*
X008475Y013949D03*
X008672Y014408D03*
D360*
X007332Y014091D03*
D361*
X007983Y014627D03*
X008628Y014277D03*
X008573Y014135D03*
D362*
X006785Y014277D03*
D363*
X007365Y014528D03*
X008010Y014922D03*
D364*
X008054Y015064D03*
D365*
X018082Y014265D03*
X018082Y014255D03*
X018082Y014244D03*
X018082Y014233D03*
X018082Y014222D03*
X018082Y014211D03*
X018082Y014200D03*
X018082Y014189D03*
X018082Y014178D03*
X018082Y014167D03*
X018082Y014156D03*
X018082Y017962D03*
X018082Y017973D03*
X018082Y017984D03*
X018082Y017995D03*
X018082Y018006D03*
X018082Y018017D03*
X018082Y018028D03*
X018082Y018039D03*
X018082Y018050D03*
X018082Y018061D03*
X018082Y018071D03*
D366*
X017085Y017123D03*
X017804Y016708D03*
X017804Y016359D03*
X018350Y016359D03*
X018350Y016370D03*
X018350Y016697D03*
X018699Y016905D03*
X018699Y016915D03*
X018666Y016959D03*
X018731Y016850D03*
X019113Y017035D03*
X019462Y017210D03*
X019429Y017264D03*
X019429Y017275D03*
X019397Y017319D03*
X019397Y017330D03*
X019364Y017374D03*
X019320Y017439D03*
X018731Y016218D03*
X018699Y016163D03*
X018699Y016152D03*
X018666Y016108D03*
X019113Y016032D03*
X019462Y015858D03*
X019429Y015792D03*
X019397Y015738D03*
X019364Y015694D03*
X019364Y015683D03*
X019320Y015629D03*
X018459Y015192D03*
X018382Y015345D03*
X018350Y015411D03*
X018317Y015476D03*
X018284Y015541D03*
X018251Y015607D03*
X017968Y015759D03*
X017935Y015694D03*
X017902Y015629D03*
X017870Y015552D03*
X017837Y015487D03*
X017804Y015421D03*
X017761Y015334D03*
X017673Y015160D03*
X017586Y014974D03*
X017673Y014898D03*
X018557Y015007D03*
X018590Y014942D03*
X017085Y015934D03*
X017085Y015945D03*
X016179Y015945D03*
X016179Y015956D03*
X016179Y015967D03*
X016179Y015978D03*
X016179Y015989D03*
X016179Y015999D03*
X016179Y016010D03*
X016179Y016021D03*
X016179Y016032D03*
X016179Y016043D03*
X016179Y016054D03*
X016179Y016065D03*
X016179Y016076D03*
X016179Y016087D03*
X016179Y016098D03*
X016179Y016108D03*
X016179Y016119D03*
X016179Y016130D03*
X016179Y016141D03*
X016179Y016152D03*
X016179Y016163D03*
X016179Y016174D03*
X016179Y016185D03*
X016179Y016196D03*
X016179Y016207D03*
X016179Y016218D03*
X016179Y016228D03*
X016179Y016239D03*
X016179Y016250D03*
X016179Y016261D03*
X016179Y016272D03*
X016179Y016283D03*
X016179Y016294D03*
X016179Y016305D03*
X016179Y016316D03*
X016179Y016327D03*
X016179Y016337D03*
X016179Y016348D03*
X016179Y016359D03*
X016179Y016370D03*
X016179Y016381D03*
X016179Y016392D03*
X016179Y016403D03*
X016179Y016414D03*
X016179Y016425D03*
X016179Y016436D03*
X016179Y016447D03*
X016179Y016457D03*
X016179Y016468D03*
X016179Y016479D03*
X016179Y016490D03*
X016179Y016501D03*
X016179Y016512D03*
X016179Y016523D03*
X016179Y016534D03*
X016179Y016545D03*
X016179Y016556D03*
X016179Y016566D03*
X016179Y016577D03*
X016179Y016588D03*
X016179Y016599D03*
X016179Y016610D03*
X016179Y016621D03*
X016179Y016632D03*
X016179Y016643D03*
X016179Y016654D03*
X016179Y016665D03*
X016179Y016676D03*
X016179Y016686D03*
X016179Y016697D03*
X016179Y016708D03*
X016179Y016719D03*
X016179Y016730D03*
X016179Y016741D03*
X016179Y016752D03*
X016179Y016763D03*
X016179Y016774D03*
X016179Y016785D03*
X016179Y016796D03*
X016179Y016806D03*
X016179Y016817D03*
X016179Y016828D03*
X016179Y016839D03*
X016179Y016850D03*
X016179Y016861D03*
X016179Y016872D03*
X016179Y016883D03*
X016179Y016894D03*
X016179Y016905D03*
X016179Y016915D03*
X016179Y016926D03*
X016179Y016937D03*
X016179Y016948D03*
X016179Y016959D03*
X016179Y016970D03*
X016179Y016981D03*
X016179Y016992D03*
X016179Y017003D03*
X016179Y017014D03*
X016179Y017025D03*
X016179Y017035D03*
X016179Y017046D03*
X016179Y017057D03*
X016179Y017068D03*
X016179Y017079D03*
X016179Y017090D03*
X016179Y017101D03*
X016179Y017112D03*
X016179Y017123D03*
X016179Y017134D03*
X016179Y017144D03*
X016179Y017155D03*
X016179Y017166D03*
X016179Y017177D03*
X016179Y017188D03*
X016179Y017199D03*
X016179Y017210D03*
X016179Y017221D03*
X016179Y017232D03*
X016179Y017243D03*
X016179Y017254D03*
X016179Y017264D03*
X016179Y017275D03*
X016179Y017286D03*
X016179Y017297D03*
X016179Y017308D03*
X016179Y017319D03*
X016179Y017330D03*
X016179Y017341D03*
X016179Y017352D03*
X016179Y017363D03*
X016179Y017374D03*
X016179Y017384D03*
X016179Y017395D03*
X016179Y017406D03*
X016179Y017417D03*
X016179Y017428D03*
X016179Y017439D03*
X016179Y017450D03*
X016179Y017461D03*
X016179Y017472D03*
X016179Y017483D03*
X016179Y017493D03*
X016179Y017504D03*
X016179Y017515D03*
X016179Y017526D03*
X016179Y017537D03*
X016179Y017548D03*
X016179Y017559D03*
X016179Y017570D03*
X016179Y017581D03*
X016179Y017592D03*
X016179Y017603D03*
X016179Y017613D03*
X016179Y017624D03*
X016179Y017635D03*
X016179Y017646D03*
X016179Y017657D03*
X016179Y017668D03*
X016179Y017679D03*
X016179Y017690D03*
X016179Y017701D03*
X016179Y017712D03*
X016179Y017722D03*
X016179Y017733D03*
X016179Y017744D03*
X016179Y017755D03*
X016179Y017766D03*
X016179Y017777D03*
X016179Y017788D03*
X016179Y017799D03*
X016179Y017810D03*
X016179Y017821D03*
X016179Y017832D03*
X016179Y017842D03*
X016179Y017853D03*
X016179Y017864D03*
X016179Y017875D03*
X016179Y017886D03*
X016179Y017897D03*
X016179Y017908D03*
X016179Y017919D03*
X016179Y017930D03*
X016179Y017941D03*
X016179Y017951D03*
X016179Y015934D03*
X016179Y015923D03*
X016179Y015912D03*
X016179Y015901D03*
X016179Y015890D03*
X016179Y015879D03*
X016179Y015869D03*
X016179Y015858D03*
X016179Y015847D03*
X016179Y015836D03*
X016179Y015825D03*
X016179Y015814D03*
X016179Y015803D03*
X016179Y015792D03*
X016179Y015781D03*
X016179Y015770D03*
X016179Y015759D03*
X016179Y015749D03*
X016179Y015738D03*
X016179Y015727D03*
X016179Y015716D03*
X016179Y015705D03*
X016179Y015694D03*
X016179Y015683D03*
X016179Y015672D03*
X016179Y015661D03*
X016179Y015650D03*
X016179Y015640D03*
X016179Y015629D03*
X016179Y015618D03*
X016179Y015607D03*
X016179Y015596D03*
X016179Y015585D03*
X016179Y015574D03*
X016179Y015563D03*
X016179Y015552D03*
X016179Y015541D03*
X016179Y015530D03*
X016179Y015520D03*
X016179Y015509D03*
X016179Y015498D03*
X016179Y015487D03*
X016179Y015476D03*
X016179Y015465D03*
X016179Y015454D03*
X016179Y015443D03*
X016179Y015432D03*
X016179Y015421D03*
X016179Y015411D03*
X016179Y015400D03*
X016179Y015389D03*
X016179Y015378D03*
X016179Y015367D03*
X016179Y015356D03*
X016179Y015345D03*
X016179Y015334D03*
X016179Y015323D03*
X016179Y015312D03*
X016179Y015301D03*
X016179Y015291D03*
X016179Y015280D03*
X016179Y015269D03*
X016179Y015258D03*
X016179Y015247D03*
X016179Y015236D03*
X016179Y015225D03*
X016179Y015214D03*
X016179Y015203D03*
X016179Y015192D03*
X016179Y015181D03*
X016179Y015171D03*
X016179Y015160D03*
X016179Y015149D03*
X016179Y015138D03*
X016179Y015127D03*
X016179Y015116D03*
X016179Y015105D03*
X016179Y015094D03*
X016179Y015083D03*
X016179Y015072D03*
X016179Y015062D03*
X016179Y015051D03*
X016179Y015040D03*
X016179Y015029D03*
X016179Y015018D03*
X016179Y015007D03*
X016179Y014996D03*
X016179Y014985D03*
X016179Y014974D03*
X016179Y014963D03*
X016179Y014952D03*
X016179Y014942D03*
X016179Y014931D03*
X016179Y014920D03*
X016179Y014909D03*
X016179Y014898D03*
X016179Y014887D03*
X016179Y014876D03*
X016179Y014865D03*
X016179Y014854D03*
X016179Y014843D03*
X016179Y014833D03*
X016179Y014822D03*
X016179Y014811D03*
X016179Y014800D03*
X016179Y014789D03*
X016179Y014778D03*
X016179Y014767D03*
X016179Y014756D03*
X016179Y014745D03*
X016179Y014734D03*
X016179Y014723D03*
X016179Y014713D03*
X016179Y014702D03*
X016179Y014691D03*
X016179Y014680D03*
X016179Y014669D03*
X016179Y014658D03*
X016179Y014647D03*
X016179Y014636D03*
X016179Y014625D03*
X016179Y014614D03*
X016179Y014604D03*
X016179Y014593D03*
X016179Y014582D03*
X016179Y014571D03*
X016179Y014560D03*
X016179Y014549D03*
X016179Y014538D03*
X016179Y014527D03*
X016179Y014516D03*
X016179Y014505D03*
X016179Y014494D03*
X016179Y014484D03*
X016179Y014473D03*
X016179Y014462D03*
X016179Y014451D03*
X016179Y014440D03*
X016179Y014429D03*
X016179Y014418D03*
X016179Y014407D03*
X016179Y014396D03*
X016179Y014385D03*
X016179Y014374D03*
X016179Y014364D03*
X016179Y014353D03*
X016179Y014342D03*
X016179Y014331D03*
X016179Y014320D03*
X016179Y014309D03*
X016179Y014298D03*
X016179Y014287D03*
X016179Y014276D03*
D367*
X017499Y014800D03*
X017510Y014822D03*
X017532Y014865D03*
X017543Y014887D03*
X017554Y014909D03*
X017564Y014931D03*
X017575Y014952D03*
X017597Y014996D03*
X017608Y015018D03*
X017619Y015040D03*
X017630Y015062D03*
X017641Y015083D03*
X017641Y015094D03*
X017652Y015116D03*
X017663Y015138D03*
X017695Y015203D03*
X017706Y015225D03*
X017728Y015269D03*
X017739Y015291D03*
X017772Y015356D03*
X017793Y015400D03*
X017826Y015465D03*
X017859Y015530D03*
X017881Y015574D03*
X017913Y015650D03*
X017946Y015716D03*
X017979Y015781D03*
X018001Y015825D03*
X018066Y015716D03*
X018208Y015694D03*
X018219Y015672D03*
X018241Y015629D03*
X018273Y015563D03*
X018295Y015520D03*
X018306Y015498D03*
X018328Y015454D03*
X018360Y015389D03*
X018393Y015323D03*
X018415Y015280D03*
X018426Y015258D03*
X018448Y015214D03*
X018568Y014985D03*
X018600Y014920D03*
X018622Y014876D03*
X018633Y014854D03*
X018655Y014811D03*
X018393Y014800D03*
X017663Y014876D03*
X017652Y014865D03*
X017652Y014854D03*
X017641Y014843D03*
X017641Y014833D03*
X017630Y014822D03*
X017630Y014811D03*
X016812Y015650D03*
X016790Y015683D03*
X016779Y015694D03*
X016779Y015705D03*
X016768Y015716D03*
X016757Y015727D03*
X016757Y015738D03*
X016746Y015749D03*
X016736Y015770D03*
X016725Y015781D03*
X016725Y015792D03*
X016714Y015803D03*
X016703Y015825D03*
X016692Y015847D03*
X016681Y015869D03*
X017030Y016043D03*
X017041Y016021D03*
X017052Y015999D03*
X017063Y015978D03*
X017074Y015967D03*
X017074Y015956D03*
X017095Y015923D03*
X017106Y015912D03*
X017106Y015901D03*
X017117Y015890D03*
X017139Y015858D03*
X017150Y015836D03*
X017466Y016130D03*
X017466Y016141D03*
X017455Y016152D03*
X017444Y016163D03*
X017444Y016174D03*
X017434Y016185D03*
X017423Y016207D03*
X017477Y016119D03*
X018066Y015967D03*
X017793Y016370D03*
X017793Y016381D03*
X017793Y016686D03*
X017793Y016697D03*
X017466Y016926D03*
X017455Y016915D03*
X017444Y016894D03*
X017434Y016883D03*
X017434Y016872D03*
X017401Y016806D03*
X017477Y016948D03*
X017499Y016981D03*
X017150Y017221D03*
X017128Y017188D03*
X017117Y017177D03*
X017106Y017155D03*
X017095Y017144D03*
X017095Y017134D03*
X017074Y017112D03*
X017074Y017101D03*
X017063Y017090D03*
X017063Y017079D03*
X017052Y017068D03*
X017041Y017046D03*
X017030Y017025D03*
X016714Y017254D03*
X016703Y017243D03*
X016725Y017275D03*
X016736Y017297D03*
X016746Y017308D03*
X016746Y017319D03*
X016757Y017330D03*
X016757Y017341D03*
X016768Y017352D03*
X016779Y017363D03*
X016790Y017384D03*
X016812Y017417D03*
X016823Y017428D03*
X018360Y016686D03*
X018360Y016381D03*
X018720Y016196D03*
X018709Y016174D03*
X018688Y016141D03*
X018742Y016239D03*
X019124Y016054D03*
X019135Y016076D03*
X019102Y016010D03*
X019091Y015989D03*
X019080Y015967D03*
X019069Y015956D03*
X019069Y015945D03*
X019048Y015912D03*
X019037Y015901D03*
X019386Y015727D03*
X019386Y015716D03*
X019353Y015672D03*
X019331Y015640D03*
X019418Y015770D03*
X019418Y015781D03*
X019451Y015836D03*
X019473Y015879D03*
X019484Y015901D03*
X019985Y015901D03*
X019985Y015890D03*
X019985Y015879D03*
X019985Y015869D03*
X019985Y015858D03*
X019985Y015847D03*
X019985Y015836D03*
X019985Y015825D03*
X019985Y015814D03*
X019985Y015803D03*
X019985Y015792D03*
X019985Y015781D03*
X019985Y015770D03*
X019985Y015759D03*
X019985Y015749D03*
X019985Y015738D03*
X019985Y015727D03*
X019985Y015716D03*
X019985Y015705D03*
X019985Y015694D03*
X019985Y015683D03*
X019985Y015672D03*
X019985Y015661D03*
X019985Y015650D03*
X019985Y015640D03*
X019985Y015629D03*
X019985Y015618D03*
X019985Y015607D03*
X019985Y015596D03*
X019985Y015585D03*
X019985Y015574D03*
X019985Y015563D03*
X019985Y015552D03*
X019985Y015541D03*
X019985Y015530D03*
X019985Y015520D03*
X019985Y015509D03*
X019985Y015498D03*
X019985Y015487D03*
X019985Y015476D03*
X019985Y015465D03*
X019985Y015454D03*
X019985Y015443D03*
X019985Y015432D03*
X019985Y015421D03*
X019985Y015411D03*
X019985Y015400D03*
X019985Y015389D03*
X019985Y015378D03*
X019985Y015367D03*
X019985Y015356D03*
X019985Y015345D03*
X019985Y015334D03*
X019985Y015323D03*
X019985Y015312D03*
X019985Y015301D03*
X019985Y015291D03*
X019985Y015280D03*
X019985Y015269D03*
X019985Y015258D03*
X019985Y015247D03*
X019985Y015236D03*
X019985Y015225D03*
X019985Y015214D03*
X019985Y015203D03*
X019985Y015192D03*
X019985Y015181D03*
X019985Y015171D03*
X019985Y015160D03*
X019985Y015149D03*
X019985Y015138D03*
X019985Y015127D03*
X019985Y015116D03*
X019985Y015105D03*
X019985Y015094D03*
X019985Y015083D03*
X019985Y015072D03*
X019985Y015062D03*
X019985Y015051D03*
X019985Y015040D03*
X019985Y015029D03*
X019985Y015018D03*
X019985Y015007D03*
X019985Y014996D03*
X019985Y014985D03*
X019985Y014974D03*
X019985Y014963D03*
X019985Y014952D03*
X019985Y014942D03*
X019985Y014931D03*
X019985Y014920D03*
X019985Y014909D03*
X019985Y014898D03*
X019985Y014887D03*
X019985Y014876D03*
X019985Y014865D03*
X019985Y014854D03*
X019985Y014843D03*
X019985Y014833D03*
X019985Y014822D03*
X019985Y014811D03*
X019985Y014800D03*
X019985Y014789D03*
X019985Y014778D03*
X019985Y014767D03*
X019985Y014756D03*
X019985Y014745D03*
X019985Y014734D03*
X019985Y014723D03*
X019985Y014713D03*
X019985Y014702D03*
X019985Y014691D03*
X019985Y014680D03*
X019985Y014669D03*
X019985Y014658D03*
X019985Y014647D03*
X019985Y014636D03*
X019985Y014625D03*
X019985Y014614D03*
X019985Y014604D03*
X019985Y014593D03*
X019985Y014582D03*
X019985Y014571D03*
X019985Y014560D03*
X019985Y014549D03*
X019985Y014538D03*
X019985Y014527D03*
X019985Y014516D03*
X019985Y014505D03*
X019985Y014494D03*
X019985Y014484D03*
X019985Y014473D03*
X019985Y014462D03*
X019985Y014451D03*
X019985Y014440D03*
X019985Y014429D03*
X019985Y014418D03*
X019985Y014407D03*
X019985Y014396D03*
X019985Y014385D03*
X019985Y014374D03*
X019985Y014364D03*
X019985Y014353D03*
X019985Y014342D03*
X019985Y014331D03*
X019985Y014320D03*
X019985Y014309D03*
X019985Y014298D03*
X019985Y014287D03*
X019985Y014276D03*
X019985Y015912D03*
X019985Y015923D03*
X019985Y015934D03*
X019985Y015945D03*
X019985Y015956D03*
X019985Y015967D03*
X019985Y015978D03*
X019985Y015989D03*
X019985Y015999D03*
X019985Y016010D03*
X019985Y016021D03*
X019985Y016032D03*
X019985Y016043D03*
X019985Y016054D03*
X019985Y016065D03*
X019985Y016076D03*
X019985Y016087D03*
X019985Y016098D03*
X019985Y016108D03*
X019985Y016119D03*
X019985Y016130D03*
X019985Y016141D03*
X019985Y016152D03*
X019985Y016163D03*
X019985Y016174D03*
X019985Y016185D03*
X019985Y016196D03*
X019985Y016207D03*
X019985Y016218D03*
X019985Y016228D03*
X019985Y016239D03*
X019985Y016250D03*
X019985Y016261D03*
X019985Y016272D03*
X019985Y016283D03*
X019985Y016294D03*
X019985Y016305D03*
X019985Y016316D03*
X019985Y016327D03*
X019985Y016337D03*
X019985Y016348D03*
X019985Y016359D03*
X019985Y016370D03*
X019985Y016381D03*
X019985Y016392D03*
X019985Y016403D03*
X019985Y016414D03*
X019985Y016425D03*
X019985Y016436D03*
X019985Y016447D03*
X019985Y016457D03*
X019985Y016468D03*
X019985Y016479D03*
X019985Y016490D03*
X019985Y016501D03*
X019985Y016512D03*
X019985Y016523D03*
X019985Y016534D03*
X019985Y016545D03*
X019985Y016556D03*
X019985Y016566D03*
X019985Y016577D03*
X019985Y016588D03*
X019985Y016599D03*
X019985Y016610D03*
X019985Y016621D03*
X019985Y016632D03*
X019985Y016643D03*
X019985Y016654D03*
X019985Y016665D03*
X019985Y016676D03*
X019985Y016686D03*
X019985Y016697D03*
X019985Y016708D03*
X019985Y016719D03*
X019985Y016730D03*
X019985Y016741D03*
X019985Y016752D03*
X019985Y016763D03*
X019985Y016774D03*
X019985Y016785D03*
X019985Y016796D03*
X019985Y016806D03*
X019985Y016817D03*
X019985Y016828D03*
X019985Y016839D03*
X019985Y016850D03*
X019985Y016861D03*
X019985Y016872D03*
X019985Y016883D03*
X019985Y016894D03*
X019985Y016905D03*
X019985Y016915D03*
X019985Y016926D03*
X019985Y016937D03*
X019985Y016948D03*
X019985Y016959D03*
X019985Y016970D03*
X019985Y016981D03*
X019985Y016992D03*
X019985Y017003D03*
X019985Y017014D03*
X019985Y017025D03*
X019985Y017035D03*
X019985Y017046D03*
X019985Y017057D03*
X019985Y017068D03*
X019985Y017079D03*
X019985Y017090D03*
X019985Y017101D03*
X019985Y017112D03*
X019985Y017123D03*
X019985Y017134D03*
X019985Y017144D03*
X019985Y017155D03*
X019985Y017166D03*
X019985Y017177D03*
X019985Y017188D03*
X019985Y017199D03*
X019985Y017210D03*
X019985Y017221D03*
X019985Y017232D03*
X019985Y017243D03*
X019985Y017254D03*
X019985Y017264D03*
X019985Y017275D03*
X019985Y017286D03*
X019985Y017297D03*
X019985Y017308D03*
X019985Y017319D03*
X019985Y017330D03*
X019985Y017341D03*
X019985Y017352D03*
X019985Y017363D03*
X019985Y017374D03*
X019985Y017384D03*
X019985Y017395D03*
X019985Y017406D03*
X019985Y017417D03*
X019985Y017428D03*
X019985Y017439D03*
X019985Y017450D03*
X019985Y017461D03*
X019985Y017472D03*
X019985Y017483D03*
X019985Y017493D03*
X019985Y017504D03*
X019985Y017515D03*
X019985Y017526D03*
X019985Y017537D03*
X019985Y017548D03*
X019985Y017559D03*
X019985Y017570D03*
X019985Y017581D03*
X019985Y017592D03*
X019985Y017603D03*
X019985Y017613D03*
X019985Y017624D03*
X019985Y017635D03*
X019985Y017646D03*
X019985Y017657D03*
X019985Y017668D03*
X019985Y017679D03*
X019985Y017690D03*
X019985Y017701D03*
X019985Y017712D03*
X019985Y017722D03*
X019985Y017733D03*
X019985Y017744D03*
X019985Y017755D03*
X019985Y017766D03*
X019985Y017777D03*
X019985Y017788D03*
X019985Y017799D03*
X019985Y017810D03*
X019985Y017821D03*
X019985Y017832D03*
X019985Y017842D03*
X019985Y017853D03*
X019985Y017864D03*
X019985Y017875D03*
X019985Y017886D03*
X019985Y017897D03*
X019985Y017908D03*
X019985Y017919D03*
X019985Y017930D03*
X019985Y017941D03*
X019985Y017951D03*
X019353Y017395D03*
X019386Y017341D03*
X019418Y017297D03*
X019418Y017286D03*
X019451Y017232D03*
X019473Y017188D03*
X019124Y017014D03*
X019102Y017057D03*
X019091Y017079D03*
X019080Y017101D03*
X019069Y017112D03*
X019069Y017123D03*
X019048Y017155D03*
X019037Y017166D03*
X019015Y017199D03*
X018688Y016926D03*
X018677Y016937D03*
X018709Y016894D03*
X018709Y016883D03*
X018720Y016872D03*
D368*
X018077Y015454D03*
X017575Y014691D03*
D369*
X018071Y015421D03*
X018573Y014691D03*
D370*
X017581Y014702D03*
D371*
X018066Y015007D03*
X018557Y014734D03*
X018557Y014723D03*
X018568Y014713D03*
X018568Y014702D03*
D372*
X017586Y014713D03*
X017586Y014723D03*
D373*
X017592Y014734D03*
X017603Y014756D03*
X017603Y014767D03*
X017613Y014778D03*
X017613Y014789D03*
D374*
X017597Y014745D03*
D375*
X018530Y014789D03*
X018540Y014778D03*
X018540Y014767D03*
X018551Y014756D03*
X018551Y014745D03*
D376*
X018660Y014800D03*
X018649Y014822D03*
X018628Y014865D03*
X018617Y014887D03*
X018584Y014952D03*
X018551Y015018D03*
X018519Y015072D03*
X018519Y015083D03*
X018508Y015094D03*
X018508Y015105D03*
X018486Y015138D03*
X018486Y015149D03*
X018475Y015160D03*
X018475Y015171D03*
X018464Y015181D03*
X018453Y015203D03*
X018442Y015225D03*
X018420Y015269D03*
X018410Y015291D03*
X018377Y015356D03*
X018344Y015421D03*
X018311Y015487D03*
X018301Y015509D03*
X018279Y015552D03*
X018268Y015574D03*
X018257Y015596D03*
X018246Y015618D03*
X018235Y015640D03*
X018213Y015683D03*
X018202Y015705D03*
X018170Y015759D03*
X018170Y015770D03*
X018137Y015825D03*
X018071Y015705D03*
X017962Y015749D03*
X017995Y015814D03*
X017930Y015683D03*
X017897Y015618D03*
X017864Y015541D03*
X017853Y015520D03*
X017843Y015498D03*
X017832Y015476D03*
X017821Y015454D03*
X017810Y015432D03*
X017799Y015411D03*
X017788Y015389D03*
X017755Y015323D03*
X017733Y015280D03*
X017723Y015258D03*
X017701Y015214D03*
X017690Y015192D03*
X017679Y015171D03*
X017668Y015149D03*
X017657Y015127D03*
X017624Y015051D03*
X017613Y015029D03*
X017603Y015007D03*
X017581Y014963D03*
X017570Y014942D03*
X017537Y014876D03*
X017526Y014854D03*
X017504Y014811D03*
X017624Y014800D03*
X017668Y014887D03*
X017679Y014909D03*
X017690Y014920D03*
X017755Y014822D03*
X018377Y014822D03*
X018377Y014833D03*
X019315Y015618D03*
X019347Y015661D03*
X019031Y015890D03*
X019009Y015858D03*
X018998Y015847D03*
X018660Y016098D03*
X018682Y016130D03*
X018071Y015956D03*
X017821Y016337D03*
X017810Y016348D03*
X017494Y016098D03*
X017483Y016108D03*
X017123Y015879D03*
X016806Y015661D03*
X016817Y015640D03*
X016828Y015629D03*
X016839Y015618D03*
X017810Y016719D03*
X018071Y016654D03*
X018344Y016708D03*
X018660Y016970D03*
X018998Y017221D03*
X019009Y017210D03*
X019031Y017177D03*
X019358Y017384D03*
X019380Y017352D03*
X019315Y017450D03*
X019293Y017472D03*
X017494Y016970D03*
X017483Y016959D03*
X017166Y017243D03*
X017155Y017232D03*
X016850Y017461D03*
X016850Y017472D03*
X016861Y017483D03*
X016839Y017450D03*
X016828Y017439D03*
X016806Y017406D03*
X016785Y017374D03*
D377*
X018077Y016414D03*
X018066Y015945D03*
X017695Y014931D03*
X017783Y014854D03*
X017772Y014843D03*
X018350Y014865D03*
X018361Y014854D03*
X018480Y014887D03*
X018491Y014876D03*
X018491Y014865D03*
X018513Y014833D03*
X018513Y014822D03*
X018524Y014811D03*
X018524Y014800D03*
D378*
X018644Y014833D03*
X018611Y014898D03*
X018579Y014963D03*
X018546Y015029D03*
X018437Y015236D03*
X018404Y015301D03*
X018371Y015367D03*
X018339Y015432D03*
X018262Y015585D03*
X018230Y015650D03*
X017990Y015803D03*
X017957Y015738D03*
X017924Y015672D03*
X017892Y015607D03*
X017848Y015509D03*
X017815Y015443D03*
X017783Y015378D03*
X017750Y015312D03*
X017717Y015247D03*
X017684Y015181D03*
X017521Y014843D03*
X017750Y014811D03*
X017750Y014800D03*
X016845Y015607D03*
X017783Y016392D03*
X017815Y016730D03*
X018339Y016730D03*
X018339Y016719D03*
X018371Y016665D03*
X018371Y016403D03*
X018339Y016348D03*
X018339Y016337D03*
X019058Y015934D03*
X019058Y015923D03*
X019026Y015879D03*
X019375Y015705D03*
X019407Y015759D03*
X019440Y015814D03*
X019058Y017134D03*
X019026Y017188D03*
X019342Y017406D03*
X019375Y017363D03*
X019407Y017308D03*
X019440Y017254D03*
X016801Y017395D03*
D379*
X017112Y017166D03*
X017145Y017210D03*
X017472Y016937D03*
X018671Y016948D03*
X019326Y017428D03*
X018671Y016119D03*
X018148Y015814D03*
X018148Y015803D03*
X018181Y015749D03*
X018181Y015738D03*
X017973Y015770D03*
X017941Y015705D03*
X017908Y015640D03*
X017875Y015563D03*
X017766Y015345D03*
X017646Y015105D03*
X017592Y014985D03*
X017559Y014920D03*
X017766Y014833D03*
X018388Y014811D03*
X018595Y014931D03*
X018562Y014996D03*
X018530Y015051D03*
X018530Y015062D03*
X018497Y015116D03*
X018497Y015127D03*
X018388Y015334D03*
X018355Y015400D03*
X018322Y015465D03*
X018290Y015530D03*
X017145Y015847D03*
D380*
X017134Y015869D03*
X016796Y015672D03*
X017712Y015236D03*
X017744Y015301D03*
X017777Y015367D03*
X017886Y015585D03*
X017886Y015596D03*
X017919Y015661D03*
X017952Y015727D03*
X017984Y015792D03*
X018159Y015792D03*
X018159Y015781D03*
X018191Y015727D03*
X018191Y015716D03*
X018224Y015661D03*
X018333Y015443D03*
X018366Y015378D03*
X018399Y015312D03*
X018431Y015247D03*
X018540Y015040D03*
X018573Y014974D03*
X018606Y014909D03*
X018639Y014843D03*
X018366Y014843D03*
X017635Y015072D03*
X017548Y014898D03*
X017515Y014833D03*
X019020Y015869D03*
X019337Y015650D03*
X019053Y017144D03*
X018988Y017232D03*
X019304Y017461D03*
X019337Y017417D03*
X017134Y017199D03*
D381*
X018502Y014854D03*
X018502Y014843D03*
D382*
X018464Y014909D03*
X018344Y014876D03*
X017810Y014887D03*
X017788Y014865D03*
X017712Y014952D03*
X017723Y014963D03*
X018071Y015683D03*
X018071Y015694D03*
X018071Y015934D03*
D383*
X018453Y014931D03*
X017799Y014876D03*
D384*
X018328Y014887D03*
X018437Y014952D03*
X018459Y014920D03*
X018077Y016425D03*
X018077Y016643D03*
D385*
X018475Y014898D03*
D386*
X017821Y014898D03*
D387*
X017728Y014974D03*
X018317Y014898D03*
X018448Y014942D03*
D388*
X017832Y014909D03*
X018072Y015661D03*
X018072Y015672D03*
X018072Y015912D03*
D389*
X017744Y014985D03*
X018301Y014909D03*
D390*
X017853Y014920D03*
D391*
X018284Y014920D03*
X018415Y014974D03*
X018077Y016632D03*
D392*
X017875Y014931D03*
D393*
X017783Y015018D03*
X018262Y014931D03*
D394*
X017706Y014942D03*
D395*
X018072Y014942D03*
X018072Y015247D03*
D396*
X018071Y015269D03*
X018071Y014952D03*
D397*
X018426Y014963D03*
X018066Y015901D03*
D398*
X018066Y014963D03*
D399*
X018066Y014974D03*
X018077Y015323D03*
D400*
X018071Y015640D03*
X018071Y015650D03*
X018071Y015890D03*
X018071Y016436D03*
X017766Y015007D03*
X017755Y014996D03*
X018410Y014985D03*
D401*
X018071Y014985D03*
X018071Y015356D03*
D402*
X018066Y015040D03*
X018393Y014996D03*
X018066Y015879D03*
X018077Y016447D03*
X018077Y016621D03*
D403*
X018072Y015400D03*
X018072Y014996D03*
D404*
X018382Y015007D03*
X018077Y016457D03*
X018077Y016610D03*
D405*
X018072Y016599D03*
X018072Y016468D03*
X018072Y015847D03*
X018072Y015607D03*
X018072Y015596D03*
X017799Y015029D03*
X018366Y015018D03*
D406*
X018071Y015018D03*
X018071Y015487D03*
D407*
X018077Y015563D03*
X018350Y015029D03*
X018077Y016501D03*
X018077Y016512D03*
X018077Y016523D03*
X018077Y016534D03*
X018077Y016545D03*
X018077Y016556D03*
D408*
X018066Y015029D03*
D409*
X017821Y015040D03*
X018071Y015552D03*
D410*
X018322Y015040D03*
D411*
X018077Y015051D03*
X018077Y015062D03*
D412*
X018077Y015072D03*
X018077Y015083D03*
D413*
X018072Y015094D03*
D414*
X018077Y015105D03*
D415*
X018072Y015116D03*
D416*
X018077Y015127D03*
D417*
X018071Y015138D03*
D418*
X018077Y015149D03*
D419*
X018071Y015160D03*
D420*
X018077Y015171D03*
D421*
X018072Y015181D03*
D422*
X018077Y015192D03*
D423*
X018071Y015203D03*
D424*
X018077Y015214D03*
D425*
X018071Y015225D03*
D426*
X018077Y015236D03*
D427*
X018077Y015258D03*
D428*
X018077Y015280D03*
D429*
X018071Y015291D03*
D430*
X018077Y015301D03*
D431*
X018072Y015312D03*
D432*
X018072Y015334D03*
D433*
X018077Y015345D03*
D434*
X018077Y015367D03*
D435*
X018072Y015378D03*
D436*
X018077Y015389D03*
D437*
X018077Y015411D03*
D438*
X018077Y015432D03*
D439*
X018072Y015443D03*
D440*
X018072Y015465D03*
D441*
X018077Y015476D03*
D442*
X018077Y015498D03*
D443*
X018072Y015509D03*
D444*
X018077Y015520D03*
D445*
X018072Y015530D03*
D446*
X018077Y015541D03*
D447*
X016828Y015552D03*
D448*
X016834Y015563D03*
D449*
X017804Y016283D03*
X017804Y016785D03*
X017488Y017035D03*
X019331Y015563D03*
D450*
X018071Y015574D03*
X018071Y015836D03*
X018071Y016490D03*
X018071Y016566D03*
X018071Y016577D03*
D451*
X016834Y015574D03*
D452*
X018072Y015792D03*
X019326Y015574D03*
D453*
X018077Y015585D03*
X018077Y016479D03*
X018077Y016588D03*
D454*
X018344Y016741D03*
X017810Y016752D03*
X017810Y016316D03*
X016839Y015585D03*
X018998Y017254D03*
D455*
X018998Y017264D03*
X018660Y017003D03*
X018344Y016752D03*
X017810Y016305D03*
X017483Y016065D03*
X018071Y015770D03*
X018671Y016065D03*
X019326Y015585D03*
X017155Y017275D03*
D456*
X017035Y017035D03*
X017003Y016970D03*
X017003Y016959D03*
X017003Y016948D03*
X016981Y016905D03*
X016981Y016894D03*
X016948Y016785D03*
X016948Y016774D03*
X016926Y016643D03*
X016926Y016425D03*
X016948Y016294D03*
X016948Y016283D03*
X016981Y016174D03*
X016981Y016163D03*
X017003Y016119D03*
X017003Y016108D03*
X017003Y016098D03*
X017035Y016032D03*
X016676Y015890D03*
X016676Y015879D03*
X016686Y015858D03*
X016697Y015836D03*
X016741Y015759D03*
X016654Y015923D03*
X016654Y015934D03*
X016632Y015978D03*
X016632Y015989D03*
X016610Y016032D03*
X016610Y016043D03*
X016610Y016054D03*
X016567Y016196D03*
X016567Y016207D03*
X016545Y016316D03*
X016545Y016327D03*
X016534Y016425D03*
X016534Y016643D03*
X016545Y016741D03*
X016545Y016752D03*
X016567Y016861D03*
X016567Y016872D03*
X016610Y017014D03*
X016610Y017025D03*
X016632Y017079D03*
X016632Y017090D03*
X016654Y017123D03*
X016654Y017134D03*
X016654Y017144D03*
X016676Y017177D03*
X016676Y017188D03*
X016686Y017199D03*
X016686Y017210D03*
X016697Y017221D03*
X016697Y017232D03*
X016730Y017286D03*
X017417Y016850D03*
X017417Y016839D03*
X017406Y016828D03*
X017406Y016817D03*
X017395Y016796D03*
X017395Y016785D03*
X017384Y016774D03*
X017384Y016763D03*
X017384Y016752D03*
X017363Y016686D03*
X017363Y016676D03*
X017450Y016905D03*
X017777Y016665D03*
X017777Y016654D03*
X017766Y016643D03*
X017766Y016632D03*
X017766Y016621D03*
X017755Y016588D03*
X017755Y016577D03*
X017755Y016479D03*
X017766Y016436D03*
X017766Y016425D03*
X017777Y016414D03*
X017777Y016403D03*
X017417Y016228D03*
X017417Y016218D03*
X017406Y016239D03*
X017406Y016250D03*
X017395Y016261D03*
X017395Y016272D03*
X017395Y016283D03*
X017384Y016294D03*
X017384Y016305D03*
X017363Y016381D03*
X017494Y016087D03*
X016839Y015596D03*
X018366Y016392D03*
X018377Y016414D03*
X018377Y016425D03*
X018388Y016436D03*
X018388Y016447D03*
X018388Y016457D03*
X018399Y016512D03*
X018399Y016556D03*
X018388Y016610D03*
X018388Y016621D03*
X018377Y016643D03*
X018377Y016654D03*
X018366Y016676D03*
X018737Y016828D03*
X018737Y016839D03*
X018748Y016817D03*
X018748Y016806D03*
X018759Y016796D03*
X018759Y016785D03*
X018759Y016774D03*
X018769Y016763D03*
X018769Y016752D03*
X018769Y016741D03*
X018780Y016719D03*
X018780Y016708D03*
X018802Y016577D03*
X018802Y016490D03*
X018780Y016359D03*
X018780Y016348D03*
X018769Y016316D03*
X018769Y016305D03*
X018759Y016294D03*
X018759Y016283D03*
X018759Y016272D03*
X018748Y016261D03*
X018748Y016250D03*
X018737Y016228D03*
X018715Y016185D03*
X019097Y015999D03*
X019086Y015978D03*
X019118Y016043D03*
X019129Y016065D03*
X019151Y016108D03*
X019151Y016119D03*
X019151Y016130D03*
X019162Y016141D03*
X019162Y016152D03*
X019184Y016207D03*
X019184Y016218D03*
X019195Y016250D03*
X019195Y016261D03*
X019217Y016359D03*
X019217Y016370D03*
X019227Y016479D03*
X019227Y016588D03*
X019217Y016697D03*
X019217Y016708D03*
X019195Y016806D03*
X019195Y016817D03*
X019184Y016850D03*
X019184Y016861D03*
X019162Y016915D03*
X019162Y016926D03*
X019151Y016937D03*
X019151Y016948D03*
X019151Y016959D03*
X019129Y016992D03*
X019129Y017003D03*
X019118Y017025D03*
X019097Y017068D03*
X019086Y017090D03*
X019467Y017199D03*
X019478Y017177D03*
X019478Y017166D03*
X019500Y017134D03*
X019500Y017123D03*
X019511Y017112D03*
X019511Y017101D03*
X019511Y017090D03*
X019544Y017014D03*
X019544Y017003D03*
X019576Y016905D03*
X019576Y016894D03*
X019587Y016850D03*
X019587Y016839D03*
X019609Y016719D03*
X019609Y016708D03*
X019609Y016348D03*
X019587Y016218D03*
X019576Y016174D03*
X019576Y016163D03*
X019544Y016065D03*
X019544Y016054D03*
X019511Y015978D03*
X019511Y015967D03*
X019511Y015956D03*
X019500Y015945D03*
X019500Y015934D03*
X019478Y015890D03*
X019467Y015869D03*
X019435Y015803D03*
X019402Y015749D03*
X019315Y015607D03*
D457*
X019320Y015596D03*
X018339Y016316D03*
X018066Y015759D03*
D458*
X018071Y015869D03*
X018071Y015629D03*
X018071Y015618D03*
D459*
X018072Y015727D03*
X018072Y015978D03*
X018072Y015989D03*
X018072Y015999D03*
X018072Y016010D03*
X018072Y016021D03*
X018072Y016032D03*
X018072Y016043D03*
X018072Y016054D03*
X018072Y016065D03*
X018072Y016076D03*
X018072Y016087D03*
X018072Y016098D03*
X018072Y016108D03*
X018072Y016119D03*
X018072Y016130D03*
X018072Y016141D03*
X018072Y016152D03*
X018072Y016163D03*
X018072Y016174D03*
X018072Y016185D03*
X018072Y016196D03*
X018072Y016207D03*
X018072Y016218D03*
X018072Y016228D03*
X018072Y016239D03*
X018072Y016250D03*
X018072Y016261D03*
X018072Y016272D03*
X018072Y016283D03*
X018072Y016294D03*
X018072Y016305D03*
X018072Y016316D03*
X018072Y016327D03*
X018072Y016337D03*
X018072Y016348D03*
X018072Y016359D03*
X018072Y016370D03*
X018072Y016381D03*
X018072Y016392D03*
X018072Y016403D03*
X017428Y016196D03*
X017374Y016327D03*
X017374Y016337D03*
X017014Y016087D03*
X017014Y016076D03*
X017046Y016010D03*
X016959Y016228D03*
X016959Y016239D03*
X016959Y016250D03*
X016577Y016163D03*
X016577Y016152D03*
X016588Y016119D03*
X016588Y016108D03*
X016621Y016021D03*
X016621Y016010D03*
X016665Y015912D03*
X016665Y015901D03*
X016708Y015814D03*
X017374Y016719D03*
X017374Y016730D03*
X017428Y016861D03*
X017046Y017057D03*
X017014Y016992D03*
X017014Y016981D03*
X016959Y016828D03*
X016959Y016817D03*
X016577Y016905D03*
X016577Y016915D03*
X016588Y016948D03*
X016588Y016959D03*
X016621Y017046D03*
X016621Y017057D03*
X016665Y017155D03*
X016665Y017166D03*
X018660Y016981D03*
X018726Y016861D03*
X019108Y017046D03*
X019140Y016981D03*
X019140Y016970D03*
X019173Y016894D03*
X019173Y016883D03*
X019522Y017068D03*
X019522Y017079D03*
X019489Y017144D03*
X019489Y017155D03*
X019457Y017221D03*
X019555Y016981D03*
X019555Y016970D03*
X019173Y016185D03*
X019173Y016174D03*
X019140Y016098D03*
X019140Y016087D03*
X019108Y016021D03*
X019457Y015847D03*
X019489Y015912D03*
X019489Y015923D03*
X019522Y015989D03*
X019522Y015999D03*
X019555Y016087D03*
X019555Y016098D03*
X018726Y016207D03*
D460*
X018775Y016327D03*
X018775Y016337D03*
X018786Y016370D03*
X018786Y016381D03*
X018808Y016501D03*
X018808Y016512D03*
X018808Y016523D03*
X018808Y016534D03*
X018808Y016545D03*
X018808Y016556D03*
X018808Y016566D03*
X018786Y016676D03*
X018786Y016686D03*
X018786Y016697D03*
X018775Y016730D03*
X018393Y016599D03*
X018393Y016588D03*
X018393Y016577D03*
X018393Y016566D03*
X018404Y016545D03*
X018404Y016534D03*
X018404Y016523D03*
X018393Y016501D03*
X018393Y016490D03*
X018393Y016479D03*
X018393Y016468D03*
X017815Y016741D03*
X017499Y016992D03*
X017379Y016741D03*
X017346Y016599D03*
X017346Y016588D03*
X017346Y016577D03*
X017346Y016566D03*
X017346Y016556D03*
X017346Y016545D03*
X017346Y016534D03*
X017346Y016523D03*
X017346Y016512D03*
X017346Y016501D03*
X017346Y016490D03*
X017346Y016479D03*
X017346Y016468D03*
X017346Y016457D03*
X017379Y016316D03*
X017488Y016076D03*
X018066Y015738D03*
X018666Y016087D03*
X019178Y016196D03*
X019189Y016228D03*
X019189Y016239D03*
X019200Y016272D03*
X019200Y016283D03*
X019222Y016381D03*
X019222Y016392D03*
X019222Y016403D03*
X019222Y016414D03*
X019222Y016425D03*
X019222Y016436D03*
X019222Y016447D03*
X019222Y016457D03*
X019222Y016468D03*
X019233Y016490D03*
X019233Y016501D03*
X019233Y016512D03*
X019233Y016523D03*
X019233Y016534D03*
X019233Y016545D03*
X019233Y016556D03*
X019233Y016566D03*
X019233Y016577D03*
X019222Y016599D03*
X019222Y016610D03*
X019222Y016621D03*
X019222Y016632D03*
X019222Y016643D03*
X019222Y016654D03*
X019222Y016665D03*
X019222Y016676D03*
X019222Y016686D03*
X019200Y016774D03*
X019200Y016785D03*
X019200Y016796D03*
X019189Y016828D03*
X019189Y016839D03*
X019178Y016872D03*
X019527Y017057D03*
X019560Y016959D03*
X019582Y016883D03*
X019582Y016872D03*
X019582Y016861D03*
X019593Y016828D03*
X019593Y016817D03*
X019593Y016806D03*
X019615Y016697D03*
X019615Y016686D03*
X019615Y016676D03*
X019615Y016665D03*
X019615Y016654D03*
X019615Y016643D03*
X019615Y016632D03*
X019615Y016621D03*
X019615Y016610D03*
X019615Y016599D03*
X019615Y016588D03*
X019615Y016577D03*
X019615Y016566D03*
X019615Y016556D03*
X019615Y016545D03*
X019615Y016534D03*
X019615Y016523D03*
X019615Y016512D03*
X019615Y016501D03*
X019615Y016490D03*
X019615Y016479D03*
X019615Y016468D03*
X019615Y016457D03*
X019615Y016447D03*
X019615Y016436D03*
X019615Y016425D03*
X019615Y016414D03*
X019615Y016403D03*
X019615Y016392D03*
X019615Y016381D03*
X019615Y016370D03*
X019615Y016359D03*
X019593Y016261D03*
X019593Y016250D03*
X019593Y016239D03*
X019593Y016228D03*
X019582Y016207D03*
X019582Y016196D03*
X019582Y016185D03*
X019560Y016108D03*
X019527Y016010D03*
X019298Y017483D03*
X016986Y016915D03*
X016965Y016850D03*
X016965Y016839D03*
X016932Y016708D03*
X016932Y016697D03*
X016932Y016686D03*
X016932Y016676D03*
X016932Y016665D03*
X016932Y016654D03*
X016921Y016632D03*
X016921Y016621D03*
X016921Y016610D03*
X016921Y016599D03*
X016921Y016588D03*
X016921Y016577D03*
X016921Y016566D03*
X016921Y016556D03*
X016921Y016545D03*
X016921Y016534D03*
X016921Y016523D03*
X016921Y016512D03*
X016921Y016501D03*
X016921Y016490D03*
X016921Y016479D03*
X016921Y016468D03*
X016921Y016457D03*
X016921Y016447D03*
X016921Y016436D03*
X016932Y016414D03*
X016932Y016403D03*
X016932Y016392D03*
X016932Y016381D03*
X016932Y016370D03*
X016932Y016359D03*
X016965Y016218D03*
X016986Y016152D03*
X016627Y015999D03*
X016594Y016098D03*
X016550Y016272D03*
X016550Y016283D03*
X016550Y016294D03*
X016550Y016305D03*
X016539Y016337D03*
X016539Y016348D03*
X016539Y016359D03*
X016539Y016370D03*
X016539Y016381D03*
X016539Y016392D03*
X016539Y016403D03*
X016539Y016414D03*
X016528Y016436D03*
X016528Y016447D03*
X016528Y016457D03*
X016528Y016468D03*
X016528Y016479D03*
X016528Y016490D03*
X016528Y016501D03*
X016528Y016512D03*
X016528Y016523D03*
X016528Y016534D03*
X016528Y016545D03*
X016528Y016556D03*
X016528Y016566D03*
X016528Y016577D03*
X016528Y016588D03*
X016528Y016599D03*
X016528Y016610D03*
X016528Y016621D03*
X016528Y016632D03*
X016539Y016654D03*
X016539Y016665D03*
X016539Y016676D03*
X016539Y016686D03*
X016539Y016697D03*
X016539Y016708D03*
X016539Y016719D03*
X016539Y016730D03*
X016550Y016763D03*
X016550Y016774D03*
X016550Y016785D03*
X016550Y016796D03*
X016594Y016970D03*
X016627Y017068D03*
D461*
X018072Y015749D03*
X019009Y015825D03*
X018660Y016992D03*
D462*
X017488Y017014D03*
X016856Y017515D03*
X017139Y015803D03*
X018066Y015781D03*
X019015Y015814D03*
D463*
X019015Y015792D03*
X018350Y016283D03*
X018066Y015825D03*
X017139Y015781D03*
X017150Y017297D03*
X016845Y017537D03*
D464*
X017488Y017025D03*
X017804Y016774D03*
X018350Y016774D03*
X018350Y016294D03*
X018677Y016054D03*
X019015Y015803D03*
X018066Y015803D03*
X017139Y015792D03*
X019309Y017515D03*
D465*
X017483Y016043D03*
X018072Y015814D03*
D466*
X017150Y015814D03*
X016856Y017504D03*
D467*
X016856Y017493D03*
X016605Y017003D03*
X016561Y016850D03*
X016561Y016839D03*
X016561Y016828D03*
X016943Y016763D03*
X016943Y016752D03*
X016943Y016741D03*
X016976Y016883D03*
X017357Y016665D03*
X017357Y016654D03*
X017357Y016643D03*
X017357Y016632D03*
X017357Y016436D03*
X017357Y016425D03*
X017357Y016414D03*
X017357Y016403D03*
X017357Y016392D03*
X016943Y016327D03*
X016943Y016316D03*
X016943Y016305D03*
X016976Y016185D03*
X016605Y016065D03*
X016561Y016218D03*
X016561Y016228D03*
X016561Y016239D03*
X017150Y015825D03*
X017761Y016447D03*
X017761Y016457D03*
X017761Y016468D03*
X017761Y016599D03*
X017761Y016610D03*
X018382Y016632D03*
X018797Y016632D03*
X018797Y016643D03*
X018797Y016654D03*
X018797Y016621D03*
X018797Y016610D03*
X018797Y016599D03*
X018797Y016588D03*
X018797Y016479D03*
X018797Y016468D03*
X018797Y016457D03*
X018797Y016447D03*
X018797Y016436D03*
X018797Y016425D03*
X018797Y016414D03*
X019211Y016348D03*
X019211Y016337D03*
X019211Y016327D03*
X019211Y016316D03*
X019604Y016316D03*
X019604Y016327D03*
X019604Y016337D03*
X019604Y016305D03*
X019604Y016294D03*
X019571Y016152D03*
X019571Y016141D03*
X019538Y016043D03*
X019004Y015836D03*
X019211Y016719D03*
X019211Y016730D03*
X019211Y016741D03*
X019211Y016752D03*
X019604Y016752D03*
X019604Y016763D03*
X019604Y016774D03*
X019604Y016741D03*
X019604Y016730D03*
X019571Y016915D03*
X019571Y016926D03*
X019538Y017025D03*
D468*
X019533Y017035D03*
X019533Y017046D03*
X019566Y016948D03*
X019566Y016937D03*
X019598Y016796D03*
X019598Y016785D03*
X019206Y016763D03*
X018791Y016665D03*
X018791Y016403D03*
X018791Y016392D03*
X019206Y016305D03*
X019206Y016294D03*
X019598Y016283D03*
X019598Y016272D03*
X019566Y016130D03*
X019566Y016119D03*
X019533Y016032D03*
X019533Y016021D03*
X019446Y015825D03*
X017821Y016327D03*
X017788Y016676D03*
X017352Y016621D03*
X017352Y016610D03*
X017352Y016447D03*
X016937Y016348D03*
X016937Y016337D03*
X016970Y016207D03*
X016970Y016196D03*
X016992Y016141D03*
X016992Y016130D03*
X017025Y016065D03*
X017025Y016054D03*
X017057Y015989D03*
X016643Y015967D03*
X016643Y015956D03*
X016643Y015945D03*
X016599Y016076D03*
X016599Y016087D03*
X016556Y016250D03*
X016556Y016261D03*
X016937Y016719D03*
X016937Y016730D03*
X016970Y016861D03*
X016970Y016872D03*
X016992Y016926D03*
X016992Y016937D03*
X017025Y017003D03*
X017025Y017014D03*
X016643Y017101D03*
X016643Y017112D03*
X016599Y016992D03*
X016599Y016981D03*
X016556Y016817D03*
X016556Y016806D03*
X016719Y017264D03*
X018998Y017243D03*
X019446Y017243D03*
D469*
X018066Y015858D03*
D470*
X018066Y015923D03*
D471*
X018677Y016043D03*
X019309Y017526D03*
D472*
X018998Y017275D03*
X018671Y017014D03*
X017810Y016294D03*
X017483Y016054D03*
X016850Y017526D03*
D473*
X017161Y017264D03*
X017488Y017003D03*
X018077Y016665D03*
X018666Y016076D03*
D474*
X018339Y016327D03*
X017750Y016490D03*
X017750Y016501D03*
X017750Y016512D03*
X017750Y016523D03*
X017750Y016534D03*
X017750Y016545D03*
X017750Y016556D03*
X017750Y016566D03*
X017368Y016697D03*
X017368Y016708D03*
X017368Y016370D03*
X017368Y016359D03*
X017368Y016348D03*
X016954Y016272D03*
X016954Y016261D03*
X016572Y016185D03*
X016572Y016174D03*
X016583Y016141D03*
X016583Y016130D03*
X016954Y016796D03*
X016954Y016806D03*
X016572Y016883D03*
X016572Y016894D03*
X016583Y016926D03*
X016583Y016937D03*
X016616Y017035D03*
X017161Y017254D03*
X019168Y016905D03*
X019549Y016992D03*
X019168Y016163D03*
X019549Y016076D03*
D475*
X018350Y016305D03*
X018350Y016763D03*
X017804Y016763D03*
D476*
X018671Y017025D03*
X019009Y017286D03*
D477*
X017150Y017286D03*
D478*
X019304Y017493D03*
D479*
X019304Y017504D03*
M02*
