%
M48
M72
T01C0.0100
T02C0.0160
T03C0.0197
T04C0.0551
T05C0.1299
%
T01
X10574Y6991
X10889Y7621
X10574Y8251
X12424Y8211
X12424Y7030
X14274Y7188
X14235Y7700
X14786Y8251
X15101Y8015
X15456Y7503
X16007Y7267
X16440Y7070
X17030Y7109
X17936Y7306
X18133Y7188
X18369Y7739
X18645Y7739
X18920Y7739
X19196Y7739
X19944Y8448
X19826Y8645
X19078Y8841
X18999Y9078
X18054Y8920
X17660Y8999
X17897Y9393
X17503Y9786
X17149Y9904
X17463Y10180
X17149Y10377
X16400Y9944
X16637Y9668
X16007Y9511
X15731Y9274
X16007Y8920
X16597Y8999
X17149Y8605
X17542Y8526
X17109Y7936
X16400Y8487
X15889Y7936
X15141Y8664
X14747Y9393
X14589Y9904
X15377Y9944
X15574Y10692
X15771Y10889
X16204Y10771
X16479Y11046
X17149Y11164
X18015Y10613
X18290Y10298
X17306Y9393
X20377Y7641
X16007Y6322
X15928Y5967
X16243Y5436
X15141Y5416
X14393Y4550
X14117Y4550
X13841Y4550
X13605Y4668
X13369Y4786
X12404Y4944
X11597Y4629
X11794Y4314
X12188Y4314
X14550Y4314
X14944Y4314
X15731Y4314
X16125Y4314
X16912Y4314
X17306Y4314
X18093Y4314
X18487Y4314
X19274Y4314
X19668Y4314
X20456Y4314
X20849Y4314
X21637Y4314
X22030Y4314
X22818Y4314
X23211Y4314
X23999Y4314
X24393Y4314
X17306Y1479
X13763Y1558
X13369Y1558
X12975Y1558
X12188Y1558
X11794Y1558
T02
X10613Y1558
T03
X9924Y1499
X9452Y2050
X10101Y2936
X9452Y3782
X9727Y4334
X8152Y4983
X6794Y4117
X7995Y3723
X5633Y1952
X4845Y2562
X4255Y1361
X6794Y1637
X7798Y1361
X11361Y1479
X12621Y1479
X11519Y2897
X12463Y3015
X12582Y4353
X11400Y4353
X13861Y6282
X14176Y6676
X15160Y6834
X15377Y6007
X17700Y5495
X18271Y6046
X17700Y6715
X19452Y6676
X19511Y7208
X19019Y8251
X19550Y8802
X19983Y9393
X19865Y9845
X18999Y9747
X19904Y10751
X19255Y11125
X19649Y11400
X19629Y11755
X20416Y12129
X20751Y12503
X21026Y11912
X20456Y11302
X18861Y10771
X18507Y11243
X18782Y11676
X18369Y12267
X17444Y12306
X16814Y11932
X16007Y12267
X15495Y11873
X16243Y11400
X15259Y11046
X14471Y11361
X14038Y10810
X12995Y11322
X14609Y12306
X12719Y13330
X12208Y12621
X11774Y12621
X11223Y13054
X10593Y12463
X10652Y11637
X9097Y11676
X8546Y12778
X7483Y13723
X6341Y14629
X4373Y13645
X2050Y14747
X3271Y15574
X4649Y16755
X6381Y16558
X7247Y18015
X8822Y16991
X10475Y16204
X11381Y15259
X12837Y15298
X14097Y15416
X15790Y15023
X16282Y15731
X15810Y16164
X16204Y16715
X15849Y17070
X15062Y16834
X14786Y17227
X14274Y17660
X13999Y18015
X14511Y18369
X15101Y17857
X15711Y18999
X17208Y18330
X17916Y17227
X16912Y16007
X17227Y15751
X16735Y15180
X17247Y14786
X17483Y14511
X18290Y14176
X19097Y13979
X18290Y13625
X18369Y13133
X17700Y12897
X17700Y13566
X16853Y13605
X15239Y13723
X13625Y14078
X10475Y13999
X8743Y15534
X12326Y16400
X10239Y18054
X8822Y19235
X9924Y20259
X10711Y21086
X12759Y21558
X15397Y20889
X16971Y20023
X17916Y20889
X18782Y19432
X20318Y18211
X21105Y19589
X20318Y21046
X22286Y21479
X24609Y21125
X27208Y20219
X28704Y19708
X29688Y19708
X29294Y20495
X30554Y20652
X31538Y20928
X32837Y21597
X33231Y20692
X32601Y19845
X31617Y19649
X32168Y18900
X29845Y18271
X28507Y18369
X28664Y17286
X29983Y16755
X29668Y15967
X30337Y15967
X30869Y15278
X29845Y14530
X30711Y13881
X30928Y13349
X30062Y13349
X29353Y13487
X28586Y13074
X27208Y13428
X26519Y13979
X26204Y13625
X25692Y13113
X25377Y12798
X24826Y13507
X25101Y13782
X25613Y14334
X26243Y14924
X26479Y15160
X26912Y15633
X27542Y16263
X28192Y15633
X28664Y14924
X27562Y15003
X27129Y14550
X24511Y14373
X23684Y14570
X23723Y15160
X23684Y15672
X23093Y15475
X23093Y14845
X22660Y14373
X22385Y14137
X21460Y14511
X21774Y13526
X21302Y13015
X21696Y12582
X22011Y12897
X22503Y13389
X23172Y14058
X24471Y12916
X23743Y12306
X24471Y11971
X24491Y11519
X25357Y11952
X26361Y12011
X27149Y11479
X26774Y11125
X27837Y10928
X27168Y10259
X26538Y9570
X25869Y10180
X25397Y10377
X25397Y10967
X24511Y10495
X24511Y9747
X23782Y9747
X24530Y9117
X24334Y8645
X25239Y8290
X25515Y8566
X25672Y9156
X25397Y9708
X26558Y8723
X26066Y7956
X25593Y7503
X25318Y7227
X24649Y7700
X23625Y7897
X22680Y8566
X22050Y9117
X21302Y9078
X20908Y8605
X20771Y8015
X20711Y7700
X21007Y7778
X22601Y6873
X22365Y6637
X21893Y6164
X22601Y5652
X22365Y5416
X23074Y4944
X23979Y4708
X24904Y4393
X25574Y4353
X27011Y4412
X27818Y4668
X27818Y3999
X28448Y5259
X29255Y5475
X29747Y5810
X30298Y5652
X31026Y5869
X31223Y6853
X29885Y7365
X29255Y6912
X28704Y7385
X29629Y8133
X30298Y8133
X31046Y8802
X31814Y9019
X32601Y8034
X32995Y7050
X34963Y8034
X30337Y11007
X29668Y11007
X29983Y11794
X30849Y12306
X31086Y12503
X28822Y12168
X28448Y12168
X27956Y11794
X28881Y10219
X28881Y8841
X29117Y8645
X26814Y7523
X26086Y6794
X25554Y6263
X25160Y5869
X24826Y5515
X24058Y5967
X24530Y6440
X23625Y6676
X23074Y6125
X21696Y4747
X20987Y5298
X20672Y4983
X20239Y4727
X18586Y4629
X20082Y5908
X20928Y6263
X16617Y4432
X16558Y2995
X17700Y2956
X19117Y2916
X20259Y2975
X21361Y2916
X22227Y2956
X23723Y2916
X24668Y2956
X25574Y2936
X26381Y2089
X25987Y1420
X25574Y1479
X25574Y1125
X24865Y1499
X23526Y1460
X22463Y1499
X21204Y1499
X20180Y1479
X18723Y1499
X17719Y1479
X16263Y1479
X15278Y1243
X14865Y1125
X15298Y2877
X14865Y2975
X9334Y6558
X7562Y7818
X7030Y8841
X6932Y9629
X7601Y10259
X8389Y9904
X8979Y9668
X9609Y10259
X10200Y9786
X11381Y9826
X11853Y9826
X11853Y9314
X13625Y9176
X14156Y8605
X14511Y8723
X14865Y8743
X13743Y8192
X15633Y7759
X15141Y10259
X17483Y11263
X19727Y13093
X19845Y14471
X18704Y15298
X17818Y15160
X20515Y16440
X20928Y15515
X21932Y16440
X23093Y16460
X23723Y16420
X23782Y16755
X23093Y17089
X24885Y15967
X26420Y16479
X26932Y18211
X25987Y18881
X28074Y21400
X31125Y17424
X30889Y17227
X34649Y20810
X33664Y12916
X33389Y11971
X34767Y11774
X27621Y6125
X27818Y5889
X27070Y6086
X31105Y4530
X31814Y3074
X31420Y2365
X31814Y1145
X26893Y1145
X22326Y10534
X22444Y11991
X13999Y18920
X8231Y21046
X6853Y21558
X5397Y20967
X6066Y19589
X5160Y18448
X4215Y19550
X3074Y21164
X1735Y19983
X948Y21558
X1263Y15731
X1893Y12463
X4215Y11834
X3428Y10416
X2168Y9156
X3310Y7778
X4255Y6676
X4255Y5889
X4255Y5101
X4255Y4117
X2483Y5101
X1302Y4117
X1696Y6479
X2877Y6479
X948Y7542
X5121Y9117
X9078Y8841
X6853Y11715
X1420Y10652
T04
X9156Y2936
X26637Y2936
T05
X2149Y2149
X2149Y17897
X33645Y17897
X33645Y2149
M30
