G75*
G70*
%OFA0B0*%
%FSLAX24Y24*%
%IPPOS*%
%LPD*%
%AMOC8*
5,1,8,0,0,1.08239X$1,22.5*
%
%ADD10C,0.0180*%
%ADD11C,0.0295*%
%ADD12C,0.0160*%
%ADD13C,0.0240*%
D10*
X010574Y006991D03*
X010889Y007621D03*
X010574Y008251D03*
X012424Y008211D03*
X012424Y007030D03*
X014274Y007188D03*
X014235Y007700D03*
X014786Y008251D03*
X015101Y008015D03*
X015456Y007503D03*
X016007Y007267D03*
X016440Y007070D03*
X017030Y007109D03*
X017936Y007306D03*
X018133Y007188D03*
X018369Y007739D03*
X018645Y007739D03*
X018920Y007739D03*
X019196Y007739D03*
X019944Y008448D03*
X019826Y008645D03*
X019078Y008841D03*
X018999Y009078D03*
X018054Y008920D03*
X017660Y008999D03*
X017897Y009393D03*
X017503Y009786D03*
X017149Y009904D03*
X017463Y010180D03*
X017149Y010377D03*
X016400Y009944D03*
X016637Y009668D03*
X016007Y009511D03*
X015731Y009274D03*
X016007Y008920D03*
X016597Y008999D03*
X017149Y008605D03*
X017542Y008526D03*
X017109Y007936D03*
X016400Y008487D03*
X015889Y007936D03*
X015141Y008664D03*
X014747Y009393D03*
X014589Y009904D03*
X015377Y009944D03*
X015574Y010692D03*
X015771Y010889D03*
X016204Y010771D03*
X016479Y011046D03*
X017149Y011164D03*
X018015Y010613D03*
X018290Y010298D03*
X017306Y009393D03*
X020377Y007641D03*
X016007Y006322D03*
X015928Y005967D03*
X016243Y005436D03*
X015141Y005416D03*
X014393Y004550D03*
X014117Y004550D03*
X013841Y004550D03*
X013605Y004668D03*
X013369Y004786D03*
X012404Y004944D03*
X011597Y004629D03*
X011794Y004314D03*
X012188Y004314D03*
X014550Y004314D03*
X014944Y004314D03*
X015731Y004314D03*
X016125Y004314D03*
X016912Y004314D03*
X017306Y004314D03*
X018093Y004314D03*
X018487Y004314D03*
X019274Y004314D03*
X019668Y004314D03*
X020456Y004314D03*
X020849Y004314D03*
X021637Y004314D03*
X022030Y004314D03*
X022818Y004314D03*
X023211Y004314D03*
X023999Y004314D03*
X024393Y004314D03*
X017306Y001479D03*
X013763Y001558D03*
X013369Y001558D03*
X012975Y001558D03*
X012188Y001558D03*
X011794Y001558D03*
D11*
X011361Y001479D03*
X012621Y001479D03*
X011519Y002897D03*
X012463Y003015D03*
X012582Y004353D03*
X011400Y004353D03*
X009727Y004334D03*
X009452Y003782D03*
X010101Y002936D03*
X009452Y002050D03*
X009924Y001499D03*
X007798Y001361D03*
X006794Y001637D03*
X005633Y001952D03*
X004845Y002562D03*
X004255Y001361D03*
X007995Y003723D03*
X006794Y004117D03*
X008152Y004983D03*
X009334Y006558D03*
X007562Y007818D03*
X007030Y008841D03*
X006932Y009629D03*
X007601Y010259D03*
X008389Y009904D03*
X008979Y009668D03*
X009609Y010259D03*
X010200Y009786D03*
X011381Y009826D03*
X011853Y009826D03*
X011853Y009314D03*
X013625Y009176D03*
X014156Y008605D03*
X014511Y008723D03*
X014865Y008743D03*
X013743Y008192D03*
X015633Y007759D03*
X015160Y006834D03*
X014176Y006676D03*
X013861Y006282D03*
X015377Y006007D03*
X017700Y005495D03*
X018271Y006046D03*
X017700Y006715D03*
X019452Y006676D03*
X019511Y007208D03*
X019019Y008251D03*
X019550Y008802D03*
X019983Y009393D03*
X019865Y009845D03*
X018999Y009747D03*
X019904Y010751D03*
X019255Y011125D03*
X019649Y011400D03*
X019629Y011755D03*
X020416Y012129D03*
X020751Y012503D03*
X021026Y011912D03*
X020456Y011302D03*
X018861Y010771D03*
X018507Y011243D03*
X018782Y011676D03*
X018369Y012267D03*
X017444Y012306D03*
X016814Y011932D03*
X016007Y012267D03*
X015495Y011873D03*
X016243Y011400D03*
X015259Y011046D03*
X014471Y011361D03*
X014038Y010810D03*
X012995Y011322D03*
X014609Y012306D03*
X012719Y013330D03*
X012208Y012621D03*
X011774Y012621D03*
X011223Y013054D03*
X010593Y012463D03*
X010652Y011637D03*
X009097Y011676D03*
X008546Y012778D03*
X007483Y013723D03*
X006341Y014629D03*
X004373Y013645D03*
X002050Y014747D03*
X003271Y015574D03*
X004649Y016755D03*
X006381Y016558D03*
X007247Y018015D03*
X008822Y016991D03*
X010475Y016204D03*
X011381Y015259D03*
X012837Y015298D03*
X014097Y015416D03*
X015790Y015023D03*
X016282Y015731D03*
X015810Y016164D03*
X016204Y016715D03*
X015849Y017070D03*
X015062Y016834D03*
X014786Y017227D03*
X014274Y017660D03*
X013999Y018015D03*
X014511Y018369D03*
X015101Y017857D03*
X015711Y018999D03*
X017208Y018330D03*
X017916Y017227D03*
X016912Y016007D03*
X017227Y015751D03*
X016735Y015180D03*
X017247Y014786D03*
X017483Y014511D03*
X018290Y014176D03*
X019097Y013979D03*
X018290Y013625D03*
X018369Y013133D03*
X017700Y012897D03*
X017700Y013566D03*
X016853Y013605D03*
X015239Y013723D03*
X013625Y014078D03*
X010475Y013999D03*
X008743Y015534D03*
X012326Y016400D03*
X010239Y018054D03*
X008822Y019235D03*
X009924Y020259D03*
X010711Y021086D03*
X012759Y021558D03*
X015397Y020889D03*
X016971Y020023D03*
X017916Y020889D03*
X018782Y019432D03*
X020318Y018211D03*
X021105Y019589D03*
X020318Y021046D03*
X022286Y021479D03*
X024609Y021125D03*
X027208Y020219D03*
X028704Y019708D03*
X029688Y019708D03*
X029294Y020495D03*
X030554Y020652D03*
X031538Y020928D03*
X032837Y021597D03*
X033231Y020692D03*
X032601Y019845D03*
X031617Y019649D03*
X032168Y018900D03*
X029845Y018271D03*
X028507Y018369D03*
X028664Y017286D03*
X029983Y016755D03*
X029668Y015967D03*
X030337Y015967D03*
X030869Y015278D03*
X029845Y014530D03*
X030711Y013881D03*
X030928Y013349D03*
X030062Y013349D03*
X029353Y013487D03*
X028586Y013074D03*
X027208Y013428D03*
X026519Y013979D03*
X026204Y013625D03*
X025692Y013113D03*
X025377Y012798D03*
X024826Y013507D03*
X025101Y013782D03*
X025613Y014334D03*
X026243Y014924D03*
X026479Y015160D03*
X026912Y015633D03*
X027542Y016263D03*
X028192Y015633D03*
X028664Y014924D03*
X027562Y015003D03*
X027129Y014550D03*
X024511Y014373D03*
X023684Y014570D03*
X023723Y015160D03*
X023684Y015672D03*
X023093Y015475D03*
X023093Y014845D03*
X022660Y014373D03*
X022385Y014137D03*
X021460Y014511D03*
X021774Y013526D03*
X021302Y013015D03*
X021696Y012582D03*
X022011Y012897D03*
X022503Y013389D03*
X023172Y014058D03*
X024471Y012916D03*
X023743Y012306D03*
X024471Y011971D03*
X024491Y011519D03*
X025357Y011952D03*
X026361Y012011D03*
X027149Y011479D03*
X026774Y011125D03*
X027837Y010928D03*
X027168Y010259D03*
X026538Y009570D03*
X025869Y010180D03*
X025397Y010377D03*
X025397Y010967D03*
X024511Y010495D03*
X024511Y009747D03*
X023782Y009747D03*
X024530Y009117D03*
X024334Y008645D03*
X025239Y008290D03*
X025515Y008566D03*
X025672Y009156D03*
X025397Y009708D03*
X026558Y008723D03*
X026066Y007956D03*
X025593Y007503D03*
X025318Y007227D03*
X024649Y007700D03*
X023625Y007897D03*
X022680Y008566D03*
X022050Y009117D03*
X021302Y009078D03*
X020908Y008605D03*
X020771Y008015D03*
X020711Y007700D03*
X021007Y007778D03*
X022601Y006873D03*
X022365Y006637D03*
X021893Y006164D03*
X022601Y005652D03*
X022365Y005416D03*
X023074Y004944D03*
X023979Y004708D03*
X024904Y004393D03*
X025574Y004353D03*
X027011Y004412D03*
X027818Y004668D03*
X027818Y003999D03*
X028448Y005259D03*
X029255Y005475D03*
X029747Y005810D03*
X030298Y005652D03*
X031026Y005869D03*
X031223Y006853D03*
X029885Y007365D03*
X029255Y006912D03*
X028704Y007385D03*
X029629Y008133D03*
X030298Y008133D03*
X031046Y008802D03*
X031814Y009019D03*
X032601Y008034D03*
X032995Y007050D03*
X034963Y008034D03*
X030337Y011007D03*
X029668Y011007D03*
X029983Y011794D03*
X030849Y012306D03*
X031086Y012503D03*
X028822Y012168D03*
X028448Y012168D03*
X027956Y011794D03*
X028881Y010219D03*
X028881Y008841D03*
X029117Y008645D03*
X026814Y007523D03*
X026086Y006794D03*
X025554Y006263D03*
X025160Y005869D03*
X024826Y005515D03*
X024058Y005967D03*
X024530Y006440D03*
X023625Y006676D03*
X023074Y006125D03*
X021696Y004747D03*
X020987Y005298D03*
X020672Y004983D03*
X020239Y004727D03*
X018586Y004629D03*
X020082Y005908D03*
X020928Y006263D03*
X016617Y004432D03*
X016558Y002995D03*
X017700Y002956D03*
X019117Y002916D03*
X020259Y002975D03*
X021361Y002916D03*
X022227Y002956D03*
X023723Y002916D03*
X024668Y002956D03*
X025574Y002936D03*
X026381Y002089D03*
X025987Y001420D03*
X025574Y001479D03*
X025574Y001125D03*
X024865Y001499D03*
X023526Y001460D03*
X022463Y001499D03*
X021204Y001499D03*
X020180Y001479D03*
X018723Y001499D03*
X017719Y001479D03*
X016263Y001479D03*
X015278Y001243D03*
X014865Y001125D03*
X015298Y002877D03*
X014865Y002975D03*
X009078Y008841D03*
X005121Y009117D03*
X003428Y010416D03*
X004215Y011834D03*
X001893Y012463D03*
X001420Y010652D03*
X002168Y009156D03*
X003310Y007778D03*
X004255Y006676D03*
X004255Y005889D03*
X004255Y005101D03*
X004255Y004117D03*
X002483Y005101D03*
X001302Y004117D03*
X001696Y006479D03*
X002877Y006479D03*
X000948Y007542D03*
X006853Y011715D03*
X001263Y015731D03*
X005160Y018448D03*
X004215Y019550D03*
X006066Y019589D03*
X005397Y020967D03*
X006853Y021558D03*
X008231Y021046D03*
X003074Y021164D03*
X001735Y019983D03*
X000948Y021558D03*
X013999Y018920D03*
X018704Y015298D03*
X017818Y015160D03*
X019845Y014471D03*
X020928Y015515D03*
X020515Y016440D03*
X021932Y016440D03*
X023093Y016460D03*
X023723Y016420D03*
X023782Y016755D03*
X023093Y017089D03*
X024885Y015967D03*
X026420Y016479D03*
X026932Y018211D03*
X025987Y018881D03*
X028074Y021400D03*
X031125Y017424D03*
X030889Y017227D03*
X034649Y020810D03*
X033664Y012916D03*
X033389Y011971D03*
X034767Y011774D03*
X027621Y006125D03*
X027818Y005889D03*
X027070Y006086D03*
X031105Y004530D03*
X031814Y003074D03*
X031420Y002365D03*
X031814Y001145D03*
X026893Y001145D03*
X015141Y010259D03*
X017483Y011263D03*
X019727Y013093D03*
X022444Y011991D03*
X022326Y010534D03*
D12*
X000710Y007030D02*
X000710Y000710D01*
X014983Y000710D01*
X014983Y004104D01*
X014857Y004104D01*
X014747Y004214D01*
X014637Y004104D01*
X014463Y004104D01*
X014340Y004227D01*
X014340Y004340D01*
X014306Y004340D01*
X014255Y004391D01*
X014204Y004340D01*
X014030Y004340D01*
X013979Y004391D01*
X013928Y004340D01*
X013754Y004340D01*
X013663Y004432D01*
X012367Y004432D01*
X012398Y004401D01*
X012398Y004227D01*
X012275Y004104D01*
X012101Y004104D01*
X011991Y004214D01*
X011881Y004104D01*
X011707Y004104D01*
X011584Y004227D01*
X011584Y004401D01*
X011602Y004419D01*
X011510Y004419D01*
X011497Y004432D01*
X007503Y004432D01*
X007503Y007030D01*
X000710Y007030D01*
X000710Y006996D02*
X007503Y006996D01*
X007503Y006837D02*
X000710Y006837D01*
X000710Y006679D02*
X007503Y006679D01*
X007503Y006520D02*
X000710Y006520D01*
X000710Y006362D02*
X007503Y006362D01*
X007503Y006203D02*
X000710Y006203D01*
X000710Y006045D02*
X007503Y006045D01*
X007503Y005886D02*
X000710Y005886D01*
X000710Y005728D02*
X007503Y005728D01*
X007503Y005569D02*
X000710Y005569D01*
X000710Y005411D02*
X007503Y005411D01*
X007503Y005252D02*
X000710Y005252D01*
X000710Y005094D02*
X007503Y005094D01*
X007503Y004935D02*
X000710Y004935D01*
X000710Y004777D02*
X007503Y004777D01*
X007503Y004618D02*
X000710Y004618D01*
X000710Y004460D02*
X007503Y004460D01*
X007703Y004632D02*
X007703Y007113D01*
X007586Y007230D01*
X000710Y007230D01*
X000710Y013239D01*
X012134Y013239D01*
X012570Y012803D01*
X012570Y008827D01*
X012646Y008751D01*
X013239Y008158D01*
X013239Y005914D01*
X013315Y005837D01*
X013748Y005404D01*
X013895Y005404D01*
X013971Y005480D01*
X013971Y005588D01*
X013895Y005664D01*
X013538Y006021D01*
X013538Y008265D01*
X013462Y008341D01*
X012869Y008935D01*
X012869Y012911D01*
X012242Y013538D01*
X000710Y013538D01*
X000710Y021697D01*
X035083Y021697D01*
X035083Y020467D01*
X030992Y020467D01*
X030916Y020391D01*
X023987Y013462D01*
X023987Y009053D01*
X019893Y004958D01*
X019893Y004851D01*
X019969Y004774D01*
X020008Y004735D01*
X020116Y004735D01*
X020192Y004811D01*
X024326Y008945D01*
X024326Y013315D01*
X031139Y020129D01*
X035083Y020129D01*
X035083Y000710D01*
X015183Y000710D01*
X015183Y004515D01*
X015066Y004632D01*
X014603Y004632D01*
X014603Y004637D01*
X014480Y004760D01*
X014306Y004760D01*
X014255Y004709D01*
X014204Y004760D01*
X014030Y004760D01*
X013979Y004709D01*
X013928Y004760D01*
X013810Y004760D01*
X013692Y004878D01*
X013574Y004878D01*
X013456Y004996D01*
X013282Y004996D01*
X013159Y004873D01*
X013159Y004699D01*
X013226Y004632D01*
X007703Y004632D01*
X007703Y004777D02*
X013159Y004777D01*
X013221Y004935D02*
X007703Y004935D01*
X007703Y005094D02*
X020028Y005094D01*
X019893Y004935D02*
X013517Y004935D01*
X013794Y004777D02*
X019967Y004777D01*
X020157Y004777D02*
X027573Y004777D01*
X027591Y004820D02*
X027550Y004721D01*
X027550Y004615D01*
X027591Y004517D01*
X027666Y004441D01*
X027765Y004401D01*
X027871Y004401D01*
X027969Y004441D01*
X028045Y004517D01*
X028085Y004615D01*
X028085Y004721D01*
X028045Y004820D01*
X027969Y004895D01*
X027871Y004936D01*
X027765Y004936D01*
X027666Y004895D01*
X027591Y004820D01*
X027550Y004618D02*
X025634Y004618D01*
X025627Y004621D02*
X025520Y004621D01*
X025422Y004580D01*
X025347Y004505D01*
X025306Y004406D01*
X025306Y004300D01*
X025347Y004202D01*
X025422Y004126D01*
X025520Y004086D01*
X025627Y004086D01*
X025725Y004126D01*
X025801Y004202D01*
X025841Y004300D01*
X025841Y004406D01*
X025801Y004505D01*
X025725Y004580D01*
X025627Y004621D01*
X025514Y004618D02*
X015080Y004618D01*
X015183Y004460D02*
X015580Y004460D01*
X015521Y004401D02*
X015521Y004227D01*
X015644Y004104D01*
X015818Y004104D01*
X015928Y004214D01*
X016038Y004104D01*
X016212Y004104D01*
X016335Y004227D01*
X016335Y004401D01*
X016212Y004524D01*
X016038Y004524D01*
X015928Y004414D01*
X015818Y004524D01*
X015644Y004524D01*
X015521Y004401D01*
X015521Y004301D02*
X015183Y004301D01*
X015183Y004143D02*
X015606Y004143D01*
X015857Y004143D02*
X015999Y004143D01*
X016251Y004143D02*
X016787Y004143D01*
X016825Y004104D02*
X016999Y004104D01*
X017109Y004214D01*
X017219Y004104D01*
X017393Y004104D01*
X017516Y004227D01*
X017516Y004401D01*
X017393Y004524D01*
X017219Y004524D01*
X017109Y004414D01*
X016999Y004524D01*
X016825Y004524D01*
X016702Y004401D01*
X016702Y004227D01*
X016825Y004104D01*
X017038Y004143D02*
X017180Y004143D01*
X017432Y004143D02*
X017968Y004143D01*
X018006Y004104D02*
X018180Y004104D01*
X018290Y004214D01*
X018400Y004104D01*
X018574Y004104D01*
X018697Y004227D01*
X018697Y004401D01*
X018574Y004524D01*
X018400Y004524D01*
X018290Y004414D01*
X018180Y004524D01*
X018006Y004524D01*
X017883Y004401D01*
X017883Y004227D01*
X018006Y004104D01*
X018219Y004143D02*
X018361Y004143D01*
X018613Y004143D02*
X019149Y004143D01*
X019188Y004104D02*
X019064Y004227D01*
X019064Y004401D01*
X019188Y004524D01*
X019361Y004524D01*
X019471Y004414D01*
X019581Y004524D01*
X019755Y004524D01*
X019878Y004401D01*
X019878Y004227D01*
X019755Y004104D01*
X019581Y004104D01*
X019471Y004214D01*
X019361Y004104D01*
X019188Y004104D01*
X019400Y004143D02*
X019543Y004143D01*
X019794Y004143D02*
X020330Y004143D01*
X020369Y004104D02*
X020543Y004104D01*
X020652Y004214D01*
X020762Y004104D01*
X020936Y004104D01*
X021059Y004227D01*
X021059Y004401D01*
X020936Y004524D01*
X020762Y004524D01*
X020652Y004414D01*
X020543Y004524D01*
X020369Y004524D01*
X020246Y004401D01*
X020246Y004227D01*
X020369Y004104D01*
X020581Y004143D02*
X020724Y004143D01*
X020975Y004143D02*
X021511Y004143D01*
X021550Y004104D02*
X021724Y004104D01*
X021834Y004214D01*
X021943Y004104D01*
X022117Y004104D01*
X022240Y004227D01*
X022240Y004401D01*
X022117Y004524D01*
X021943Y004524D01*
X021834Y004414D01*
X021724Y004524D01*
X021550Y004524D01*
X021427Y004401D01*
X021427Y004227D01*
X021550Y004104D01*
X021762Y004143D02*
X021905Y004143D01*
X022156Y004143D02*
X022692Y004143D01*
X022731Y004104D02*
X022905Y004104D01*
X023015Y004214D01*
X023125Y004104D01*
X023298Y004104D01*
X023421Y004227D01*
X023421Y004401D01*
X023298Y004524D01*
X023125Y004524D01*
X023015Y004414D01*
X022905Y004524D01*
X022731Y004524D01*
X022608Y004401D01*
X022608Y004227D01*
X022731Y004104D01*
X022943Y004143D02*
X023086Y004143D01*
X023337Y004143D02*
X023873Y004143D01*
X023912Y004104D02*
X023789Y004227D01*
X023789Y004401D01*
X023912Y004524D01*
X024086Y004524D01*
X024196Y004414D01*
X024306Y004524D01*
X024480Y004524D01*
X024603Y004401D01*
X024603Y004227D01*
X024480Y004104D01*
X024306Y004104D01*
X024196Y004214D01*
X024086Y004104D01*
X023912Y004104D01*
X024125Y004143D02*
X024267Y004143D01*
X024518Y004143D02*
X025406Y004143D01*
X025306Y004301D02*
X024603Y004301D01*
X024544Y004460D02*
X025328Y004460D01*
X025819Y004460D02*
X027648Y004460D01*
X027765Y004267D02*
X027666Y004226D01*
X027591Y004151D01*
X027550Y004052D01*
X027550Y003946D01*
X027591Y003847D01*
X027666Y003772D01*
X027765Y003731D01*
X027871Y003731D01*
X027969Y003772D01*
X028045Y003847D01*
X028085Y003946D01*
X028085Y004052D01*
X028045Y004151D01*
X027969Y004226D01*
X027871Y004267D01*
X027765Y004267D01*
X027588Y004143D02*
X025741Y004143D01*
X025841Y004301D02*
X035083Y004301D01*
X035083Y004143D02*
X028048Y004143D01*
X028085Y003984D02*
X035083Y003984D01*
X035083Y003826D02*
X028023Y003826D01*
X027613Y003826D02*
X015183Y003826D01*
X015183Y003984D02*
X027550Y003984D01*
X027133Y003509D02*
X035083Y003509D01*
X035083Y003667D02*
X026846Y003667D01*
X026787Y003691D02*
X026486Y003691D01*
X026209Y003576D01*
X025996Y003364D01*
X025881Y003086D01*
X025881Y002786D01*
X025996Y002508D01*
X026209Y002295D01*
X026486Y002180D01*
X026787Y002180D01*
X027065Y002295D01*
X027277Y002508D01*
X027392Y002786D01*
X027392Y003086D01*
X027277Y003364D01*
X027065Y003576D01*
X026787Y003691D01*
X026427Y003667D02*
X015183Y003667D01*
X015183Y003509D02*
X026141Y003509D01*
X025990Y003350D02*
X015183Y003350D01*
X015183Y003192D02*
X025491Y003192D01*
X025520Y003204D02*
X025422Y003163D01*
X025347Y003088D01*
X025306Y002989D01*
X025306Y002883D01*
X025347Y002784D01*
X025422Y002709D01*
X025520Y002668D01*
X025627Y002668D01*
X025725Y002709D01*
X025801Y002784D01*
X025841Y002883D01*
X025841Y002989D01*
X025801Y003088D01*
X025725Y003163D01*
X025627Y003204D01*
X025520Y003204D01*
X025656Y003192D02*
X025925Y003192D01*
X025881Y003033D02*
X025823Y003033D01*
X025838Y002875D02*
X025881Y002875D01*
X025910Y002716D02*
X025732Y002716D01*
X025976Y002558D02*
X015183Y002558D01*
X015183Y002716D02*
X025415Y002716D01*
X025309Y002875D02*
X015183Y002875D01*
X015183Y003033D02*
X025324Y003033D01*
X026105Y002399D02*
X015183Y002399D01*
X015183Y002241D02*
X026341Y002241D01*
X026932Y002241D02*
X032515Y002241D01*
X032515Y002297D02*
X032515Y002000D01*
X032592Y001712D01*
X032741Y001455D01*
X032951Y001245D01*
X033209Y001096D01*
X033496Y001019D01*
X033793Y001019D01*
X034081Y001096D01*
X034338Y001245D01*
X034548Y001455D01*
X034697Y001712D01*
X034774Y002000D01*
X034774Y002297D01*
X034697Y002585D01*
X034548Y002842D01*
X034338Y003052D01*
X034081Y003201D01*
X033793Y003278D01*
X033496Y003278D01*
X033209Y003201D01*
X032951Y003052D01*
X032741Y002842D01*
X032592Y002585D01*
X032515Y002297D01*
X032542Y002399D02*
X027168Y002399D01*
X027298Y002558D02*
X032585Y002558D01*
X032668Y002716D02*
X027363Y002716D01*
X027392Y002875D02*
X032773Y002875D01*
X032932Y003033D02*
X027392Y003033D01*
X027349Y003192D02*
X033192Y003192D01*
X034097Y003192D02*
X035083Y003192D01*
X035083Y003350D02*
X027283Y003350D01*
X027988Y004460D02*
X035083Y004460D01*
X035083Y004618D02*
X028085Y004618D01*
X028063Y004777D02*
X035083Y004777D01*
X035083Y004935D02*
X027873Y004935D01*
X027763Y004935D02*
X020316Y004935D01*
X020474Y005094D02*
X035083Y005094D01*
X035083Y005252D02*
X020633Y005252D01*
X020791Y005411D02*
X030183Y005411D01*
X030147Y005426D02*
X030245Y005385D01*
X030351Y005385D01*
X030450Y005426D01*
X030525Y005501D01*
X030566Y005599D01*
X030566Y005706D01*
X030525Y005804D01*
X030450Y005879D01*
X030351Y005920D01*
X030245Y005920D01*
X030147Y005879D01*
X030071Y005804D01*
X030030Y005706D01*
X030030Y005599D01*
X030071Y005501D01*
X030147Y005426D01*
X030043Y005569D02*
X029865Y005569D01*
X029899Y005583D02*
X029974Y005658D01*
X030015Y005757D01*
X030015Y005863D01*
X029974Y005962D01*
X029899Y006037D01*
X029800Y006078D01*
X029694Y006078D01*
X029595Y006037D01*
X029520Y005962D01*
X029479Y005863D01*
X029479Y005757D01*
X029520Y005658D01*
X029595Y005583D01*
X029694Y005542D01*
X029800Y005542D01*
X029899Y005583D01*
X030002Y005728D02*
X030040Y005728D01*
X030005Y005886D02*
X030163Y005886D01*
X030434Y005886D02*
X035083Y005886D01*
X035083Y005728D02*
X030557Y005728D01*
X030553Y005569D02*
X035083Y005569D01*
X035083Y005411D02*
X030413Y005411D01*
X029880Y006045D02*
X035083Y006045D01*
X035083Y006203D02*
X027878Y006203D01*
X027889Y006178D02*
X027848Y006276D01*
X027773Y006352D01*
X027674Y006393D01*
X027568Y006393D01*
X027469Y006352D01*
X027394Y006276D01*
X027353Y006178D01*
X027353Y006072D01*
X027394Y005973D01*
X027469Y005898D01*
X027550Y005865D01*
X027550Y005835D01*
X027591Y005737D01*
X027666Y005662D01*
X027765Y005621D01*
X027871Y005621D01*
X027969Y005662D01*
X028045Y005737D01*
X028085Y005835D01*
X028085Y005942D01*
X028045Y006040D01*
X027969Y006116D01*
X027889Y006149D01*
X027889Y006178D01*
X028040Y006045D02*
X029614Y006045D01*
X029489Y005886D02*
X028085Y005886D01*
X028035Y005728D02*
X029491Y005728D01*
X029629Y005569D02*
X020950Y005569D01*
X021108Y005728D02*
X027600Y005728D01*
X027498Y005886D02*
X021267Y005886D01*
X021425Y006045D02*
X027365Y006045D01*
X027364Y006203D02*
X021584Y006203D01*
X021742Y006362D02*
X027493Y006362D01*
X027749Y006362D02*
X035083Y006362D01*
X035083Y006520D02*
X021901Y006520D01*
X022059Y006679D02*
X035083Y006679D01*
X035083Y006837D02*
X022218Y006837D01*
X022376Y006996D02*
X035083Y006996D01*
X035083Y007154D02*
X022535Y007154D01*
X022693Y007313D02*
X035083Y007313D01*
X035083Y007471D02*
X022852Y007471D01*
X023010Y007630D02*
X035083Y007630D01*
X035083Y007788D02*
X023169Y007788D01*
X023327Y007947D02*
X029437Y007947D01*
X029402Y007981D02*
X029477Y007906D01*
X029576Y007865D01*
X029682Y007865D01*
X029780Y007906D01*
X029856Y007981D01*
X029896Y008080D01*
X029896Y008186D01*
X029856Y008284D01*
X029780Y008360D01*
X029682Y008400D01*
X029576Y008400D01*
X029477Y008360D01*
X029402Y008284D01*
X029361Y008186D01*
X029361Y008080D01*
X029402Y007981D01*
X029361Y008105D02*
X023486Y008105D01*
X023644Y008264D02*
X029393Y008264D01*
X029269Y008418D02*
X029344Y008493D01*
X029385Y008591D01*
X029385Y008698D01*
X029344Y008796D01*
X029269Y008871D01*
X029170Y008912D01*
X029141Y008912D01*
X029108Y008993D01*
X029032Y009068D01*
X028934Y009109D01*
X028828Y009109D01*
X028729Y009068D01*
X028654Y008993D01*
X028613Y008895D01*
X028613Y008788D01*
X028654Y008690D01*
X028729Y008615D01*
X028828Y008574D01*
X028857Y008574D01*
X028890Y008493D01*
X028965Y008418D01*
X029064Y008377D01*
X029170Y008377D01*
X029269Y008418D01*
X029273Y008422D02*
X035083Y008422D01*
X035083Y008264D02*
X030534Y008264D01*
X030525Y008284D02*
X030450Y008360D01*
X030351Y008400D01*
X030245Y008400D01*
X030147Y008360D01*
X030071Y008284D01*
X030030Y008186D01*
X030030Y008080D01*
X030071Y007981D01*
X030147Y007906D01*
X030245Y007865D01*
X030351Y007865D01*
X030450Y007906D01*
X030525Y007981D01*
X030566Y008080D01*
X030566Y008186D01*
X030525Y008284D01*
X030566Y008105D02*
X035083Y008105D01*
X035083Y007947D02*
X030490Y007947D01*
X030106Y007947D02*
X029821Y007947D01*
X029896Y008105D02*
X030030Y008105D01*
X030063Y008264D02*
X029864Y008264D01*
X029380Y008581D02*
X035083Y008581D01*
X035083Y008739D02*
X029368Y008739D01*
X029206Y008898D02*
X035083Y008898D01*
X035083Y009056D02*
X029045Y009056D01*
X028717Y009056D02*
X024326Y009056D01*
X024326Y009215D02*
X035083Y009215D01*
X035083Y009373D02*
X024326Y009373D01*
X024326Y009532D02*
X035083Y009532D01*
X035083Y009690D02*
X024326Y009690D01*
X024326Y009849D02*
X035083Y009849D01*
X035083Y010007D02*
X024326Y010007D01*
X024326Y010166D02*
X035083Y010166D01*
X035083Y010324D02*
X024326Y010324D01*
X024326Y010483D02*
X035083Y010483D01*
X035083Y010641D02*
X024326Y010641D01*
X024326Y010800D02*
X029497Y010800D01*
X029517Y010780D02*
X029615Y010739D01*
X029721Y010739D01*
X029820Y010780D01*
X029895Y010855D01*
X029936Y010954D01*
X029936Y011060D01*
X029895Y011158D01*
X029820Y011234D01*
X029721Y011274D01*
X029615Y011274D01*
X029517Y011234D01*
X029441Y011158D01*
X029401Y011060D01*
X029401Y010954D01*
X029441Y010855D01*
X029517Y010780D01*
X029401Y010958D02*
X024326Y010958D01*
X024326Y011117D02*
X029424Y011117D01*
X029912Y011117D02*
X030093Y011117D01*
X030111Y011158D02*
X030070Y011060D01*
X030070Y010954D01*
X030111Y010855D01*
X030186Y010780D01*
X030284Y010739D01*
X030391Y010739D01*
X030489Y010780D01*
X030564Y010855D01*
X030605Y010954D01*
X030605Y011060D01*
X030564Y011158D01*
X030489Y011234D01*
X030391Y011274D01*
X030284Y011274D01*
X030186Y011234D01*
X030111Y011158D01*
X030070Y010958D02*
X029936Y010958D01*
X029839Y010800D02*
X030166Y010800D01*
X030509Y010800D02*
X035083Y010800D01*
X035083Y010958D02*
X030605Y010958D01*
X030582Y011117D02*
X035083Y011117D01*
X035083Y011275D02*
X024326Y011275D01*
X024326Y011434D02*
X035083Y011434D01*
X035083Y011592D02*
X024326Y011592D01*
X024326Y011751D02*
X035083Y011751D01*
X035083Y011909D02*
X024326Y011909D01*
X024326Y012068D02*
X030726Y012068D01*
X030698Y012079D02*
X030796Y012038D01*
X030903Y012038D01*
X031001Y012079D01*
X031076Y012154D01*
X031110Y012235D01*
X031139Y012235D01*
X031237Y012276D01*
X031312Y012351D01*
X031353Y012450D01*
X031353Y012556D01*
X031312Y012654D01*
X031237Y012730D01*
X031139Y012770D01*
X031032Y012770D01*
X030934Y012730D01*
X030859Y012654D01*
X030825Y012574D01*
X030796Y012574D01*
X030698Y012533D01*
X030622Y012458D01*
X030582Y012359D01*
X030582Y012253D01*
X030622Y012154D01*
X030698Y012079D01*
X030593Y012226D02*
X024326Y012226D01*
X024326Y012385D02*
X030592Y012385D01*
X030722Y012543D02*
X024326Y012543D01*
X024326Y012702D02*
X030906Y012702D01*
X031265Y012702D02*
X035083Y012702D01*
X035083Y012860D02*
X024326Y012860D01*
X024326Y013019D02*
X035083Y013019D01*
X035083Y013177D02*
X024326Y013177D01*
X024346Y013336D02*
X029126Y013336D01*
X029126Y013335D02*
X029202Y013260D01*
X029300Y013219D01*
X029406Y013219D01*
X029505Y013260D01*
X029580Y013335D01*
X029621Y013434D01*
X029621Y013540D01*
X029580Y013639D01*
X029505Y013714D01*
X029406Y013755D01*
X029300Y013755D01*
X029202Y013714D01*
X029126Y013639D01*
X029086Y013540D01*
X029086Y013434D01*
X029126Y013335D01*
X029086Y013494D02*
X024505Y013494D01*
X024663Y013653D02*
X029140Y013653D01*
X029566Y013653D02*
X030563Y013653D01*
X030560Y013654D02*
X030658Y013613D01*
X030765Y013613D01*
X030863Y013654D01*
X030938Y013729D01*
X030979Y013828D01*
X030979Y013934D01*
X030938Y014032D01*
X030863Y014108D01*
X030765Y014148D01*
X030658Y014148D01*
X030560Y014108D01*
X030485Y014032D01*
X030444Y013934D01*
X030444Y013828D01*
X030485Y013729D01*
X030560Y013654D01*
X030451Y013811D02*
X024822Y013811D01*
X024980Y013970D02*
X030459Y013970D01*
X030609Y014128D02*
X025139Y014128D01*
X025297Y014287D02*
X035083Y014287D01*
X035083Y014445D02*
X025456Y014445D01*
X025614Y014604D02*
X035083Y014604D01*
X035083Y014762D02*
X025773Y014762D01*
X025931Y014921D02*
X035083Y014921D01*
X035083Y015079D02*
X026090Y015079D01*
X026248Y015238D02*
X035083Y015238D01*
X035083Y015396D02*
X026407Y015396D01*
X026565Y015555D02*
X035083Y015555D01*
X035083Y015713D02*
X030423Y015713D01*
X030391Y015700D02*
X030489Y015741D01*
X030564Y015816D01*
X030605Y015914D01*
X030605Y016021D01*
X030564Y016119D01*
X030489Y016194D01*
X030391Y016235D01*
X030284Y016235D01*
X030186Y016194D01*
X030111Y016119D01*
X030070Y016021D01*
X030070Y015914D01*
X030111Y015816D01*
X030186Y015741D01*
X030284Y015700D01*
X030391Y015700D01*
X030252Y015713D02*
X029753Y015713D01*
X029721Y015700D02*
X029820Y015741D01*
X029895Y015816D01*
X029936Y015914D01*
X029936Y016021D01*
X029895Y016119D01*
X029820Y016194D01*
X029721Y016235D01*
X029615Y016235D01*
X029517Y016194D01*
X029441Y016119D01*
X029401Y016021D01*
X029401Y015914D01*
X029441Y015816D01*
X029517Y015741D01*
X029615Y015700D01*
X029721Y015700D01*
X029583Y015713D02*
X026724Y015713D01*
X026882Y015872D02*
X029418Y015872D01*
X029404Y016030D02*
X027041Y016030D01*
X027199Y016189D02*
X029511Y016189D01*
X029826Y016189D02*
X030180Y016189D01*
X030074Y016030D02*
X029932Y016030D01*
X029918Y015872D02*
X030088Y015872D01*
X030587Y015872D02*
X035083Y015872D01*
X035083Y016030D02*
X030601Y016030D01*
X030495Y016189D02*
X035083Y016189D01*
X035083Y016347D02*
X027358Y016347D01*
X027516Y016506D02*
X035083Y016506D01*
X035083Y016664D02*
X027675Y016664D01*
X027833Y016823D02*
X033288Y016823D01*
X033209Y016844D02*
X033496Y016767D01*
X033793Y016767D01*
X034081Y016844D01*
X034338Y016993D01*
X034548Y017203D01*
X034697Y017461D01*
X034774Y017748D01*
X034774Y018045D01*
X034697Y018333D01*
X034548Y018590D01*
X034338Y018800D01*
X034081Y018949D01*
X033793Y019026D01*
X033496Y019026D01*
X033209Y018949D01*
X032951Y018800D01*
X032741Y018590D01*
X032592Y018333D01*
X032515Y018045D01*
X032515Y017748D01*
X032592Y017461D01*
X032741Y017203D01*
X032951Y016993D01*
X033209Y016844D01*
X032971Y016981D02*
X030994Y016981D01*
X031040Y017000D02*
X031116Y017076D01*
X031149Y017156D01*
X031178Y017156D01*
X031276Y017197D01*
X031352Y017272D01*
X031393Y017371D01*
X031393Y017477D01*
X031352Y017576D01*
X031276Y017651D01*
X031178Y017692D01*
X031072Y017692D01*
X030973Y017651D01*
X030898Y017576D01*
X030865Y017495D01*
X030835Y017495D01*
X030737Y017454D01*
X030662Y017379D01*
X030621Y017280D01*
X030621Y017174D01*
X030662Y017076D01*
X030737Y017000D01*
X030835Y016960D01*
X030942Y016960D01*
X031040Y017000D01*
X031142Y017140D02*
X032804Y017140D01*
X032686Y017298D02*
X031362Y017298D01*
X031393Y017457D02*
X032594Y017457D01*
X032551Y017615D02*
X031312Y017615D01*
X030937Y017615D02*
X028626Y017615D01*
X028784Y017774D02*
X032515Y017774D01*
X032515Y017932D02*
X028943Y017932D01*
X029101Y018091D02*
X032527Y018091D01*
X032570Y018249D02*
X029260Y018249D01*
X029418Y018408D02*
X032635Y018408D01*
X032727Y018566D02*
X029577Y018566D01*
X029735Y018725D02*
X032875Y018725D01*
X033094Y018883D02*
X029894Y018883D01*
X030052Y019042D02*
X035083Y019042D01*
X035083Y019200D02*
X030211Y019200D01*
X030369Y019359D02*
X035083Y019359D01*
X035083Y019517D02*
X030528Y019517D01*
X030686Y019676D02*
X035083Y019676D01*
X035083Y019834D02*
X030845Y019834D01*
X031003Y019993D02*
X035083Y019993D01*
X035083Y020468D02*
X000710Y020468D01*
X000710Y020310D02*
X030834Y020310D01*
X030676Y020151D02*
X000710Y020151D01*
X000710Y019993D02*
X030517Y019993D01*
X030359Y019834D02*
X000710Y019834D01*
X000710Y019676D02*
X030200Y019676D01*
X030042Y019517D02*
X000710Y019517D01*
X000710Y019359D02*
X029883Y019359D01*
X029725Y019200D02*
X000710Y019200D01*
X000710Y019042D02*
X029566Y019042D01*
X029408Y018883D02*
X002699Y018883D01*
X002585Y018949D02*
X002297Y019026D01*
X002000Y019026D01*
X001712Y018949D01*
X001455Y018800D01*
X001245Y018590D01*
X001096Y018333D01*
X001019Y018045D01*
X001019Y017748D01*
X001096Y017461D01*
X001245Y017203D01*
X001455Y016993D01*
X001712Y016844D01*
X002000Y016767D01*
X002297Y016767D01*
X002585Y016844D01*
X002842Y016993D01*
X003052Y017203D01*
X003201Y017461D01*
X003278Y017748D01*
X003278Y018045D01*
X003201Y018333D01*
X003052Y018590D01*
X002842Y018800D01*
X002585Y018949D01*
X002918Y018725D02*
X029249Y018725D01*
X029091Y018566D02*
X003066Y018566D01*
X003158Y018408D02*
X028932Y018408D01*
X028774Y018249D02*
X003224Y018249D01*
X003266Y018091D02*
X028615Y018091D01*
X028457Y017932D02*
X003278Y017932D01*
X003278Y017774D02*
X028298Y017774D01*
X028140Y017615D02*
X003243Y017615D01*
X003199Y017457D02*
X027981Y017457D01*
X027823Y017298D02*
X003107Y017298D01*
X002989Y017140D02*
X027664Y017140D01*
X027506Y016981D02*
X002822Y016981D01*
X002505Y016823D02*
X027347Y016823D01*
X027189Y016664D02*
X000710Y016664D01*
X000710Y016506D02*
X027030Y016506D01*
X026872Y016347D02*
X000710Y016347D01*
X000710Y016189D02*
X026713Y016189D01*
X026555Y016030D02*
X000710Y016030D01*
X000710Y015872D02*
X026396Y015872D01*
X026238Y015713D02*
X000710Y015713D01*
X000710Y015555D02*
X026079Y015555D01*
X025921Y015396D02*
X000710Y015396D01*
X000710Y015238D02*
X025762Y015238D01*
X025604Y015079D02*
X000710Y015079D01*
X000710Y014921D02*
X025445Y014921D01*
X025287Y014762D02*
X000710Y014762D01*
X000710Y014604D02*
X025128Y014604D01*
X024970Y014445D02*
X000710Y014445D01*
X000710Y014287D02*
X024811Y014287D01*
X024653Y014128D02*
X000710Y014128D01*
X000710Y013970D02*
X024494Y013970D01*
X024336Y013811D02*
X000710Y013811D01*
X000710Y013653D02*
X024177Y013653D01*
X024019Y013494D02*
X012286Y013494D01*
X012445Y013336D02*
X023987Y013336D01*
X023987Y013177D02*
X012603Y013177D01*
X012762Y013019D02*
X023987Y013019D01*
X023987Y012860D02*
X012869Y012860D01*
X012869Y012702D02*
X023987Y012702D01*
X023987Y012543D02*
X012869Y012543D01*
X012869Y012385D02*
X023987Y012385D01*
X023987Y012226D02*
X012869Y012226D01*
X012869Y012068D02*
X016580Y012068D01*
X016587Y012084D02*
X016546Y011985D01*
X016546Y011879D01*
X016587Y011780D01*
X016662Y011705D01*
X016761Y011664D01*
X016867Y011664D01*
X016965Y011705D01*
X017041Y011780D01*
X017081Y011879D01*
X017081Y011985D01*
X017041Y012084D01*
X016965Y012159D01*
X016867Y012200D01*
X016761Y012200D01*
X016662Y012159D01*
X016587Y012084D01*
X016546Y011909D02*
X012869Y011909D01*
X012869Y011751D02*
X016617Y011751D01*
X016430Y011592D02*
X019413Y011592D01*
X019402Y011603D02*
X019477Y011528D01*
X019576Y011487D01*
X019682Y011487D01*
X019780Y011528D01*
X019856Y011603D01*
X019896Y011702D01*
X019896Y011808D01*
X019856Y011906D01*
X019780Y011982D01*
X019682Y012022D01*
X019576Y012022D01*
X019477Y011982D01*
X019402Y011906D01*
X019361Y011808D01*
X019361Y011702D01*
X019402Y011603D01*
X019361Y011751D02*
X017011Y011751D01*
X017081Y011909D02*
X019405Y011909D01*
X019853Y011909D02*
X023987Y011909D01*
X023987Y011751D02*
X019896Y011751D01*
X019845Y011592D02*
X023987Y011592D01*
X023987Y011434D02*
X016511Y011434D01*
X016511Y011454D02*
X016470Y011552D01*
X016395Y011627D01*
X016296Y011668D01*
X016190Y011668D01*
X016091Y011627D01*
X016016Y011552D01*
X015975Y011454D01*
X015975Y011347D01*
X016016Y011249D01*
X016091Y011174D01*
X016190Y011133D01*
X016269Y011133D01*
X016269Y010981D01*
X016117Y010981D01*
X015994Y010858D01*
X015994Y010684D01*
X016117Y010561D01*
X016291Y010561D01*
X016414Y010684D01*
X016414Y010836D01*
X016566Y010836D01*
X016689Y010959D01*
X016689Y011133D01*
X016566Y011256D01*
X016473Y011256D01*
X016511Y011347D01*
X016511Y011454D01*
X016481Y011275D02*
X016962Y011275D01*
X016939Y011251D02*
X016939Y011077D01*
X017062Y010954D01*
X017235Y010954D01*
X017359Y011077D01*
X017359Y011251D01*
X017235Y011374D01*
X017062Y011374D01*
X016939Y011251D01*
X016939Y011117D02*
X016689Y011117D01*
X016688Y010958D02*
X017058Y010958D01*
X017239Y010958D02*
X023987Y010958D01*
X023987Y010800D02*
X016414Y010800D01*
X016371Y010641D02*
X023987Y010641D01*
X023987Y010483D02*
X015661Y010483D01*
X015661Y010482D02*
X015784Y010605D01*
X015784Y010679D01*
X015858Y010679D01*
X015981Y010802D01*
X015981Y010976D01*
X015858Y011099D01*
X015684Y011099D01*
X015561Y010976D01*
X015561Y010902D01*
X015489Y010902D01*
X015526Y010993D01*
X015526Y011099D01*
X015486Y011198D01*
X015410Y011273D01*
X015312Y011314D01*
X015206Y011314D01*
X015107Y011273D01*
X015032Y011198D01*
X014991Y011099D01*
X014991Y010993D01*
X015032Y010895D01*
X015107Y010819D01*
X015206Y010779D01*
X015312Y010779D01*
X015400Y010815D01*
X015364Y010779D01*
X015364Y010605D01*
X015487Y010482D01*
X015661Y010482D01*
X015486Y010483D02*
X012869Y010483D01*
X012869Y010641D02*
X015364Y010641D01*
X015363Y010800D02*
X015384Y010800D01*
X015512Y010958D02*
X015561Y010958D01*
X015519Y011117D02*
X016269Y011117D01*
X016094Y010958D02*
X015981Y010958D01*
X015978Y010800D02*
X015994Y010800D01*
X016036Y010641D02*
X015784Y010641D01*
X015464Y010154D02*
X015290Y010154D01*
X015167Y010031D01*
X015167Y009857D01*
X015290Y009734D01*
X015464Y009734D01*
X015587Y009857D01*
X015587Y010031D01*
X015464Y010154D01*
X015587Y010007D02*
X023987Y010007D01*
X023987Y009849D02*
X015579Y009849D01*
X015175Y009849D02*
X012869Y009849D01*
X012869Y010007D02*
X015167Y010007D01*
X014834Y009603D02*
X014660Y009603D01*
X014537Y009480D01*
X014537Y009306D01*
X014660Y009183D01*
X014834Y009183D01*
X014957Y009306D01*
X014957Y009480D01*
X014834Y009603D01*
X014905Y009532D02*
X019751Y009532D01*
X019756Y009544D02*
X019716Y009446D01*
X019716Y009339D01*
X019756Y009241D01*
X019832Y009166D01*
X019930Y009125D01*
X020036Y009125D01*
X020135Y009166D01*
X020210Y009241D01*
X020251Y009339D01*
X020251Y009446D01*
X020210Y009544D01*
X020135Y009619D01*
X020036Y009660D01*
X019930Y009660D01*
X019832Y009619D01*
X019756Y009544D01*
X019716Y009373D02*
X014957Y009373D01*
X014866Y009215D02*
X018839Y009215D01*
X018789Y009165D02*
X018912Y009288D01*
X019086Y009288D01*
X019209Y009165D01*
X019209Y009007D01*
X019288Y008928D01*
X019288Y008868D01*
X019323Y008954D01*
X019398Y009029D01*
X019497Y009070D01*
X019603Y009070D01*
X019702Y009029D01*
X019777Y008954D01*
X019818Y008855D01*
X019818Y008749D01*
X019777Y008650D01*
X019702Y008575D01*
X019603Y008534D01*
X019497Y008534D01*
X019398Y008575D01*
X019323Y008650D01*
X019282Y008749D01*
X019282Y008749D01*
X019165Y008631D01*
X018991Y008631D01*
X018868Y008754D01*
X018868Y008912D01*
X018789Y008991D01*
X018789Y009165D01*
X018789Y009056D02*
X012869Y009056D01*
X012869Y009215D02*
X014628Y009215D01*
X014537Y009373D02*
X012869Y009373D01*
X012869Y009532D02*
X014589Y009532D01*
X014564Y008991D02*
X014457Y008991D01*
X014359Y008950D01*
X014284Y008875D01*
X014272Y008847D01*
X014210Y008873D01*
X014103Y008873D01*
X014005Y008832D01*
X013929Y008757D01*
X013889Y008658D01*
X013889Y008552D01*
X013929Y008454D01*
X014005Y008378D01*
X014103Y008338D01*
X014210Y008338D01*
X014308Y008378D01*
X014383Y008454D01*
X014395Y008482D01*
X014457Y008456D01*
X014564Y008456D01*
X014662Y008496D01*
X014738Y008572D01*
X014778Y008670D01*
X014778Y008777D01*
X014738Y008875D01*
X014662Y008950D01*
X014564Y008991D01*
X014715Y008898D02*
X018868Y008898D01*
X018883Y008739D02*
X014778Y008739D01*
X014741Y008581D02*
X019393Y008581D01*
X019286Y008739D02*
X019272Y008739D01*
X019288Y008898D02*
X019300Y008898D01*
X019209Y009056D02*
X019464Y009056D01*
X019636Y009056D02*
X023987Y009056D01*
X023987Y009215D02*
X020184Y009215D01*
X020251Y009373D02*
X023987Y009373D01*
X023987Y009532D02*
X020215Y009532D01*
X019783Y009215D02*
X019159Y009215D01*
X019800Y008898D02*
X023832Y008898D01*
X023673Y008739D02*
X019814Y008739D01*
X019707Y008581D02*
X023515Y008581D01*
X023356Y008422D02*
X014352Y008422D01*
X013961Y008422D02*
X013382Y008422D01*
X013462Y008341D02*
X013462Y008341D01*
X013538Y008264D02*
X020672Y008264D01*
X020717Y008282D02*
X020619Y008242D01*
X020544Y008166D01*
X020503Y008068D01*
X020503Y007961D01*
X020530Y007896D01*
X020485Y007851D01*
X020444Y007753D01*
X020444Y007646D01*
X020485Y007548D01*
X020560Y007473D01*
X020658Y007432D01*
X020765Y007432D01*
X020863Y007473D01*
X020916Y007526D01*
X020954Y007511D01*
X021060Y007511D01*
X021158Y007552D01*
X021234Y007627D01*
X021274Y007725D01*
X021274Y007832D01*
X021234Y007930D01*
X021158Y008005D01*
X021060Y008046D01*
X021038Y008046D01*
X021038Y008068D01*
X020997Y008166D01*
X020922Y008242D01*
X020824Y008282D01*
X020717Y008282D01*
X020869Y008264D02*
X023198Y008264D01*
X023039Y008105D02*
X021023Y008105D01*
X021217Y007947D02*
X022881Y007947D01*
X022722Y007788D02*
X021274Y007788D01*
X021235Y007630D02*
X022564Y007630D01*
X022405Y007471D02*
X020859Y007471D01*
X020564Y007471D02*
X019574Y007471D01*
X019564Y007475D02*
X019457Y007475D01*
X019359Y007434D01*
X019284Y007359D01*
X019243Y007261D01*
X019243Y007154D01*
X018081Y007154D01*
X018023Y007096D02*
X018146Y007219D01*
X018146Y007393D01*
X018023Y007516D01*
X017849Y007516D01*
X017726Y007393D01*
X017726Y007219D01*
X017849Y007096D01*
X018023Y007096D01*
X017851Y006942D02*
X017753Y006983D01*
X017646Y006983D01*
X017548Y006942D01*
X017473Y006867D01*
X017432Y006769D01*
X017432Y006662D01*
X017473Y006564D01*
X017548Y006489D01*
X017646Y006448D01*
X017753Y006448D01*
X017851Y006489D01*
X017927Y006564D01*
X017967Y006662D01*
X017967Y006769D01*
X017927Y006867D01*
X017851Y006942D01*
X017939Y006837D02*
X021771Y006837D01*
X021613Y006679D02*
X017967Y006679D01*
X017883Y006520D02*
X021454Y006520D01*
X021296Y006362D02*
X013538Y006362D01*
X013538Y006520D02*
X017517Y006520D01*
X017432Y006679D02*
X013538Y006679D01*
X013538Y006837D02*
X017460Y006837D01*
X017791Y007154D02*
X013538Y007154D01*
X013538Y006996D02*
X019344Y006996D01*
X019359Y006981D02*
X019457Y006940D01*
X019564Y006940D01*
X019662Y006981D01*
X019738Y007056D01*
X019778Y007154D01*
X022088Y007154D01*
X021930Y006996D02*
X019677Y006996D01*
X019778Y007154D02*
X019778Y007261D01*
X019738Y007359D01*
X019662Y007434D01*
X019564Y007475D01*
X019447Y007471D02*
X018068Y007471D01*
X018146Y007313D02*
X019264Y007313D01*
X019243Y007154D02*
X019284Y007056D01*
X019359Y006981D01*
X019757Y007313D02*
X022247Y007313D01*
X021137Y006203D02*
X015559Y006203D01*
X015528Y006234D02*
X015430Y006274D01*
X015324Y006274D01*
X015225Y006234D01*
X015150Y006158D01*
X015109Y006060D01*
X015109Y005954D01*
X015150Y005855D01*
X015225Y005780D01*
X015324Y005739D01*
X015430Y005739D01*
X015528Y005780D01*
X015604Y005855D01*
X015644Y005954D01*
X015644Y006060D01*
X015604Y006158D01*
X015528Y006234D01*
X015644Y006045D02*
X015718Y006045D01*
X015718Y006054D02*
X015718Y005880D01*
X015841Y005757D01*
X016015Y005757D01*
X016138Y005880D01*
X016138Y006054D01*
X016015Y006177D01*
X015841Y006177D01*
X015718Y006054D01*
X015718Y005886D02*
X015617Y005886D01*
X016138Y005886D02*
X020820Y005886D01*
X020662Y005728D02*
X013832Y005728D01*
X013971Y005569D02*
X020503Y005569D01*
X020345Y005411D02*
X013901Y005411D01*
X013742Y005411D02*
X007703Y005411D01*
X007703Y005569D02*
X013584Y005569D01*
X013425Y005728D02*
X007703Y005728D01*
X007703Y005886D02*
X013267Y005886D01*
X013239Y006045D02*
X007703Y006045D01*
X007703Y006203D02*
X013239Y006203D01*
X013239Y006362D02*
X007703Y006362D01*
X007703Y006520D02*
X013239Y006520D01*
X013239Y006679D02*
X007703Y006679D01*
X007703Y006837D02*
X013239Y006837D01*
X013239Y006996D02*
X007703Y006996D01*
X007662Y007154D02*
X013239Y007154D01*
X013239Y007313D02*
X000710Y007313D01*
X000710Y007471D02*
X013239Y007471D01*
X013239Y007630D02*
X000710Y007630D01*
X000710Y007788D02*
X013239Y007788D01*
X013239Y007947D02*
X000710Y007947D01*
X000710Y008105D02*
X013239Y008105D01*
X013133Y008264D02*
X000710Y008264D01*
X000710Y008422D02*
X012975Y008422D01*
X012816Y008581D02*
X009147Y008581D01*
X009131Y008574D02*
X009229Y008615D01*
X009305Y008690D01*
X009345Y008788D01*
X009345Y008895D01*
X009305Y008993D01*
X009229Y009068D01*
X009131Y009109D01*
X009024Y009109D01*
X008926Y009068D01*
X008851Y008993D01*
X008810Y008895D01*
X008810Y008788D01*
X008851Y008690D01*
X008926Y008615D01*
X009024Y008574D01*
X009131Y008574D01*
X009008Y008581D02*
X007100Y008581D01*
X007084Y008574D02*
X007182Y008615D01*
X007257Y008690D01*
X007298Y008788D01*
X007298Y008895D01*
X007257Y008993D01*
X007182Y009068D01*
X007084Y009109D01*
X006977Y009109D01*
X006879Y009068D01*
X006804Y008993D01*
X006763Y008895D01*
X006763Y008788D01*
X006804Y008690D01*
X006879Y008615D01*
X006977Y008574D01*
X007084Y008574D01*
X006961Y008581D02*
X000710Y008581D01*
X000710Y008739D02*
X006783Y008739D01*
X006764Y008898D02*
X000710Y008898D01*
X000710Y009056D02*
X006866Y009056D01*
X007194Y009056D02*
X008914Y009056D01*
X008811Y008898D02*
X007297Y008898D01*
X007278Y008739D02*
X008830Y008739D01*
X009325Y008739D02*
X012658Y008739D01*
X012570Y008898D02*
X009344Y008898D01*
X009242Y009056D02*
X012570Y009056D01*
X012570Y009215D02*
X000710Y009215D01*
X000710Y009373D02*
X012570Y009373D01*
X012570Y009532D02*
X000710Y009532D01*
X000710Y009690D02*
X012570Y009690D01*
X012570Y009849D02*
X000710Y009849D01*
X000710Y010007D02*
X012570Y010007D01*
X012570Y010166D02*
X000710Y010166D01*
X000710Y010324D02*
X012570Y010324D01*
X012570Y010483D02*
X000710Y010483D01*
X000710Y010641D02*
X012570Y010641D01*
X012570Y010800D02*
X000710Y010800D01*
X000710Y010958D02*
X012570Y010958D01*
X012570Y011117D02*
X000710Y011117D01*
X000710Y011275D02*
X012570Y011275D01*
X012570Y011434D02*
X010828Y011434D01*
X010804Y011410D02*
X010879Y011485D01*
X010920Y011583D01*
X010920Y011690D01*
X010879Y011788D01*
X010804Y011864D01*
X010706Y011904D01*
X010599Y011904D01*
X010501Y011864D01*
X010426Y011788D01*
X010385Y011690D01*
X010385Y011583D01*
X010426Y011485D01*
X010501Y011410D01*
X010599Y011369D01*
X010706Y011369D01*
X010804Y011410D01*
X010920Y011592D02*
X012570Y011592D01*
X012570Y011751D02*
X010895Y011751D01*
X010410Y011751D02*
X000710Y011751D01*
X000710Y011909D02*
X012570Y011909D01*
X012570Y012068D02*
X000710Y012068D01*
X000710Y012226D02*
X012570Y012226D01*
X012570Y012385D02*
X000710Y012385D01*
X000710Y012543D02*
X012570Y012543D01*
X012570Y012702D02*
X000710Y012702D01*
X000710Y012860D02*
X012513Y012860D01*
X012354Y013019D02*
X000710Y013019D01*
X000710Y013177D02*
X012196Y013177D01*
X012869Y011592D02*
X016056Y011592D01*
X015975Y011434D02*
X012869Y011434D01*
X012869Y011275D02*
X015112Y011275D01*
X014998Y011117D02*
X012869Y011117D01*
X012869Y010958D02*
X015006Y010958D01*
X015155Y010800D02*
X012869Y010800D01*
X012869Y010324D02*
X023987Y010324D01*
X023987Y010166D02*
X012869Y010166D01*
X012869Y009690D02*
X023987Y009690D01*
X024278Y008898D02*
X028614Y008898D01*
X028634Y008739D02*
X024120Y008739D01*
X023961Y008581D02*
X028811Y008581D01*
X028961Y008422D02*
X023803Y008422D01*
X020518Y008105D02*
X013538Y008105D01*
X013538Y007947D02*
X018279Y007947D01*
X018282Y007949D02*
X018159Y007826D01*
X018159Y007652D01*
X018282Y007529D01*
X018456Y007529D01*
X018507Y007580D01*
X018558Y007529D01*
X018732Y007529D01*
X018782Y007580D01*
X018833Y007529D01*
X019007Y007529D01*
X019058Y007580D01*
X019109Y007529D01*
X019283Y007529D01*
X019406Y007652D01*
X019406Y007826D01*
X019283Y007949D01*
X019109Y007949D01*
X019058Y007898D01*
X019007Y007949D01*
X018833Y007949D01*
X018782Y007898D01*
X018732Y007949D01*
X018558Y007949D01*
X018507Y007898D01*
X018456Y007949D01*
X018282Y007949D01*
X018459Y007947D02*
X018555Y007947D01*
X018734Y007947D02*
X018831Y007947D01*
X019010Y007947D02*
X019106Y007947D01*
X019285Y007947D02*
X020509Y007947D01*
X020458Y007788D02*
X019406Y007788D01*
X019383Y007630D02*
X020451Y007630D01*
X018182Y007630D02*
X015626Y007630D01*
X015666Y007590D02*
X015543Y007713D01*
X015369Y007713D01*
X015246Y007590D01*
X015246Y007416D01*
X015369Y007293D01*
X015543Y007293D01*
X015666Y007416D01*
X015666Y007590D01*
X015666Y007471D02*
X017804Y007471D01*
X017726Y007313D02*
X015562Y007313D01*
X015349Y007313D02*
X013538Y007313D01*
X013538Y007471D02*
X015246Y007471D01*
X015285Y007630D02*
X013538Y007630D01*
X013538Y007788D02*
X018159Y007788D01*
X016138Y006045D02*
X020979Y006045D01*
X020186Y005252D02*
X007703Y005252D01*
X006946Y004344D02*
X006847Y004385D01*
X006741Y004385D01*
X006643Y004344D01*
X006567Y004269D01*
X006527Y004170D01*
X006527Y004064D01*
X006567Y003965D01*
X006643Y003890D01*
X006741Y003849D01*
X006847Y003849D01*
X006946Y003890D01*
X007021Y003965D01*
X007062Y004064D01*
X007062Y004170D01*
X007021Y004269D01*
X006946Y004344D01*
X006989Y004301D02*
X011584Y004301D01*
X011669Y004143D02*
X007062Y004143D01*
X007029Y003984D02*
X014983Y003984D01*
X014983Y003826D02*
X000710Y003826D01*
X000710Y003984D02*
X006560Y003984D01*
X006527Y004143D02*
X000710Y004143D01*
X000710Y004301D02*
X006600Y004301D01*
X008516Y003364D02*
X008401Y003086D01*
X008401Y002786D01*
X008516Y002508D01*
X008728Y002295D01*
X009006Y002180D01*
X009307Y002180D01*
X009584Y002295D01*
X009797Y002508D01*
X009912Y002786D01*
X009912Y003086D01*
X009797Y003364D01*
X009584Y003576D01*
X009307Y003691D01*
X009006Y003691D01*
X008728Y003576D01*
X008516Y003364D01*
X008510Y003350D02*
X000710Y003350D01*
X000710Y003192D02*
X001696Y003192D01*
X001712Y003201D02*
X001455Y003052D01*
X001245Y002842D01*
X001096Y002585D01*
X001019Y002297D01*
X001019Y002000D01*
X001096Y001712D01*
X001245Y001455D01*
X001455Y001245D01*
X001712Y001096D01*
X002000Y001019D01*
X002297Y001019D01*
X002585Y001096D01*
X002842Y001245D01*
X003052Y001455D01*
X003201Y001712D01*
X003278Y002000D01*
X003278Y002297D01*
X003201Y002585D01*
X003052Y002842D01*
X002842Y003052D01*
X002585Y003201D01*
X002297Y003278D01*
X002000Y003278D01*
X001712Y003201D01*
X001436Y003033D02*
X000710Y003033D01*
X000710Y002875D02*
X001277Y002875D01*
X001172Y002716D02*
X000710Y002716D01*
X000710Y002558D02*
X001089Y002558D01*
X001046Y002399D02*
X000710Y002399D01*
X000710Y002241D02*
X001019Y002241D01*
X001019Y002082D02*
X000710Y002082D01*
X000710Y001924D02*
X001039Y001924D01*
X001082Y001765D02*
X000710Y001765D01*
X000710Y001607D02*
X001157Y001607D01*
X001252Y001448D02*
X000710Y001448D01*
X000710Y001290D02*
X001410Y001290D01*
X001652Y001131D02*
X000710Y001131D01*
X000710Y000973D02*
X014983Y000973D01*
X014983Y001131D02*
X002645Y001131D01*
X002887Y001290D02*
X014983Y001290D01*
X014983Y001448D02*
X013950Y001448D01*
X013973Y001471D02*
X013973Y001645D01*
X013850Y001768D01*
X013676Y001768D01*
X013566Y001658D01*
X013456Y001768D01*
X013282Y001768D01*
X013172Y001658D01*
X013062Y001768D01*
X012888Y001768D01*
X012765Y001645D01*
X012765Y001471D01*
X012888Y001348D01*
X013062Y001348D01*
X013172Y001458D01*
X013282Y001348D01*
X013456Y001348D01*
X013566Y001458D01*
X013676Y001348D01*
X013850Y001348D01*
X013973Y001471D01*
X013973Y001607D02*
X014983Y001607D01*
X014983Y001765D02*
X013853Y001765D01*
X013673Y001765D02*
X013459Y001765D01*
X013279Y001765D02*
X013065Y001765D01*
X012885Y001765D02*
X012278Y001765D01*
X012275Y001768D02*
X012101Y001768D01*
X011991Y001658D01*
X011881Y001768D01*
X011707Y001768D01*
X011584Y001645D01*
X011584Y001471D01*
X011707Y001348D01*
X011881Y001348D01*
X011991Y001458D01*
X012101Y001348D01*
X012275Y001348D01*
X012398Y001471D01*
X012398Y001645D01*
X012275Y001768D01*
X012098Y001765D02*
X011884Y001765D01*
X011704Y001765D02*
X010740Y001765D01*
X010749Y001761D02*
X010661Y001798D01*
X010565Y001798D01*
X010477Y001761D01*
X010410Y001694D01*
X010373Y001606D01*
X010373Y001510D01*
X010410Y001422D01*
X010477Y001354D01*
X010565Y001318D01*
X010661Y001318D01*
X010749Y001354D01*
X010817Y001422D01*
X010853Y001510D01*
X010853Y001606D01*
X010817Y001694D01*
X010749Y001761D01*
X010853Y001607D02*
X011584Y001607D01*
X011607Y001448D02*
X010827Y001448D01*
X010399Y001448D02*
X006984Y001448D01*
X007021Y001485D02*
X007062Y001583D01*
X007062Y001690D01*
X007021Y001788D01*
X006946Y001864D01*
X006847Y001904D01*
X006741Y001904D01*
X006643Y001864D01*
X006567Y001788D01*
X006527Y001690D01*
X006527Y001583D01*
X006567Y001485D01*
X006643Y001410D01*
X006741Y001369D01*
X006847Y001369D01*
X006946Y001410D01*
X007021Y001485D01*
X007062Y001607D02*
X010373Y001607D01*
X010486Y001765D02*
X007031Y001765D01*
X006558Y001765D02*
X003215Y001765D01*
X003258Y001924D02*
X014983Y001924D01*
X014983Y002082D02*
X003278Y002082D01*
X003278Y002241D02*
X008861Y002241D01*
X008625Y002399D02*
X003251Y002399D01*
X003208Y002558D02*
X008495Y002558D01*
X008430Y002716D02*
X003125Y002716D01*
X003020Y002875D02*
X008401Y002875D01*
X008401Y003033D02*
X002862Y003033D01*
X002601Y003192D02*
X008444Y003192D01*
X008660Y003509D02*
X000710Y003509D01*
X000710Y003667D02*
X008947Y003667D01*
X009366Y003667D02*
X014983Y003667D01*
X014983Y003509D02*
X009652Y003509D01*
X009803Y003350D02*
X014983Y003350D01*
X014983Y003192D02*
X009868Y003192D01*
X009912Y003033D02*
X014983Y003033D01*
X014983Y002875D02*
X009912Y002875D01*
X009883Y002716D02*
X014983Y002716D01*
X014983Y002558D02*
X009817Y002558D01*
X009688Y002399D02*
X014983Y002399D01*
X014983Y002241D02*
X009452Y002241D01*
X011981Y001448D02*
X012001Y001448D01*
X012375Y001448D02*
X012788Y001448D01*
X012765Y001607D02*
X012398Y001607D01*
X013162Y001448D02*
X013182Y001448D01*
X013556Y001448D02*
X013576Y001448D01*
X014983Y000814D02*
X000710Y000814D01*
X003046Y001448D02*
X006604Y001448D01*
X006527Y001607D02*
X003140Y001607D01*
X011920Y004143D02*
X012062Y004143D01*
X012314Y004143D02*
X014424Y004143D01*
X014340Y004301D02*
X012398Y004301D01*
X014676Y004143D02*
X014818Y004143D01*
X015883Y004460D02*
X015974Y004460D01*
X016276Y004460D02*
X016761Y004460D01*
X016702Y004301D02*
X016335Y004301D01*
X017064Y004460D02*
X017155Y004460D01*
X017457Y004460D02*
X017942Y004460D01*
X017883Y004301D02*
X017516Y004301D01*
X018245Y004460D02*
X018336Y004460D01*
X018638Y004460D02*
X019123Y004460D01*
X019064Y004301D02*
X018697Y004301D01*
X019426Y004460D02*
X019517Y004460D01*
X019820Y004460D02*
X020304Y004460D01*
X020246Y004301D02*
X019878Y004301D01*
X020607Y004460D02*
X020698Y004460D01*
X021001Y004460D02*
X021485Y004460D01*
X021427Y004301D02*
X021059Y004301D01*
X021788Y004460D02*
X021879Y004460D01*
X022182Y004460D02*
X022666Y004460D01*
X022608Y004301D02*
X022240Y004301D01*
X022969Y004460D02*
X023060Y004460D01*
X023363Y004460D02*
X023848Y004460D01*
X023789Y004301D02*
X023421Y004301D01*
X024150Y004460D02*
X024241Y004460D01*
X025422Y001706D02*
X025347Y001631D01*
X025306Y001532D01*
X025306Y001426D01*
X025347Y001328D01*
X025372Y001302D01*
X025347Y001276D01*
X025306Y001178D01*
X025306Y001072D01*
X025347Y000973D01*
X025422Y000898D01*
X025520Y000857D01*
X025627Y000857D01*
X025725Y000898D01*
X025801Y000973D01*
X025841Y001072D01*
X025841Y001178D01*
X025801Y001276D01*
X025775Y001302D01*
X025801Y001328D01*
X025841Y001426D01*
X025841Y001532D01*
X025801Y001631D01*
X025725Y001706D01*
X025627Y001747D01*
X025520Y001747D01*
X025422Y001706D01*
X025337Y001607D02*
X017476Y001607D01*
X017516Y001566D02*
X017393Y001689D01*
X017219Y001689D01*
X017096Y001566D01*
X017096Y001392D01*
X017219Y001269D01*
X017393Y001269D01*
X017516Y001392D01*
X017516Y001566D01*
X017516Y001448D02*
X025306Y001448D01*
X025360Y001290D02*
X017413Y001290D01*
X017199Y001290D02*
X015183Y001290D01*
X015183Y001448D02*
X017096Y001448D01*
X017136Y001607D02*
X015183Y001607D01*
X015183Y001765D02*
X032578Y001765D01*
X032535Y001924D02*
X015183Y001924D01*
X015183Y002082D02*
X032515Y002082D01*
X032653Y001607D02*
X025811Y001607D01*
X025841Y001448D02*
X032748Y001448D01*
X032906Y001290D02*
X025788Y001290D01*
X025841Y001131D02*
X033148Y001131D01*
X034141Y001131D02*
X035083Y001131D01*
X035083Y000973D02*
X025800Y000973D01*
X025348Y000973D02*
X015183Y000973D01*
X015183Y001131D02*
X025306Y001131D01*
X034383Y001290D02*
X035083Y001290D01*
X035083Y001448D02*
X034542Y001448D01*
X034636Y001607D02*
X035083Y001607D01*
X035083Y001765D02*
X034711Y001765D01*
X034754Y001924D02*
X035083Y001924D01*
X035083Y002082D02*
X034774Y002082D01*
X034774Y002241D02*
X035083Y002241D01*
X035083Y002399D02*
X034747Y002399D01*
X034704Y002558D02*
X035083Y002558D01*
X035083Y002716D02*
X034621Y002716D01*
X034516Y002875D02*
X035083Y002875D01*
X035083Y003033D02*
X034358Y003033D01*
X035083Y000814D02*
X015183Y000814D01*
X015137Y005886D02*
X013674Y005886D01*
X013538Y006045D02*
X015109Y006045D01*
X015195Y006203D02*
X013538Y006203D01*
X013223Y008581D02*
X013889Y008581D01*
X013922Y008739D02*
X013065Y008739D01*
X012906Y008898D02*
X014306Y008898D01*
X017359Y011117D02*
X023987Y011117D01*
X023987Y011275D02*
X017335Y011275D01*
X017047Y012068D02*
X023987Y012068D01*
X029580Y013336D02*
X035083Y013336D01*
X035083Y013494D02*
X029621Y013494D01*
X030860Y013653D02*
X035083Y013653D01*
X035083Y013811D02*
X030972Y013811D01*
X030964Y013970D02*
X035083Y013970D01*
X035083Y014128D02*
X030814Y014128D01*
X031353Y012543D02*
X035083Y012543D01*
X035083Y012385D02*
X031326Y012385D01*
X031106Y012226D02*
X035083Y012226D01*
X035083Y012068D02*
X030973Y012068D01*
X030784Y016981D02*
X027992Y016981D01*
X028150Y017140D02*
X030635Y017140D01*
X030628Y017298D02*
X028309Y017298D01*
X028467Y017457D02*
X030743Y017457D01*
X034001Y016823D02*
X035083Y016823D01*
X035083Y016981D02*
X034318Y016981D01*
X034485Y017140D02*
X035083Y017140D01*
X035083Y017298D02*
X034603Y017298D01*
X034695Y017457D02*
X035083Y017457D01*
X035083Y017615D02*
X034739Y017615D01*
X034774Y017774D02*
X035083Y017774D01*
X035083Y017932D02*
X034774Y017932D01*
X034762Y018091D02*
X035083Y018091D01*
X035083Y018249D02*
X034720Y018249D01*
X034654Y018408D02*
X035083Y018408D01*
X035083Y018566D02*
X034562Y018566D01*
X034414Y018725D02*
X035083Y018725D01*
X035083Y018883D02*
X034195Y018883D01*
X035083Y020627D02*
X000710Y020627D01*
X000710Y020785D02*
X035083Y020785D01*
X035083Y020944D02*
X000710Y020944D01*
X000710Y021102D02*
X035083Y021102D01*
X035083Y021261D02*
X000710Y021261D01*
X000710Y021419D02*
X035083Y021419D01*
X035083Y021578D02*
X000710Y021578D01*
X000710Y018883D02*
X001598Y018883D01*
X001379Y018725D02*
X000710Y018725D01*
X000710Y018566D02*
X001231Y018566D01*
X001139Y018408D02*
X000710Y018408D01*
X000710Y018249D02*
X001074Y018249D01*
X001031Y018091D02*
X000710Y018091D01*
X000710Y017932D02*
X001019Y017932D01*
X001019Y017774D02*
X000710Y017774D01*
X000710Y017615D02*
X001054Y017615D01*
X001098Y017457D02*
X000710Y017457D01*
X000710Y017298D02*
X001190Y017298D01*
X001308Y017140D02*
X000710Y017140D01*
X000710Y016981D02*
X001475Y016981D01*
X001792Y016823D02*
X000710Y016823D01*
X000710Y011592D02*
X010385Y011592D01*
X010477Y011434D02*
X000710Y011434D01*
X015406Y011275D02*
X016005Y011275D01*
D13*
X010613Y001558D03*
M02*
