G75*
G70*
%OFA0B0*%
%FSLAX24Y24*%
%IPPOS*%
%LPD*%
%AMOC8*
5,1,8,0,0,1.08239X$1,22.5*
%
%ADD10C,0.0217*%
%ADD11R,0.0276X0.0946*%
%ADD12C,0.0591*%
%ADD13R,0.1040X0.0340*%
%ADD14C,0.0410*%
%ADD15R,0.0631X0.0158*%
%ADD16R,0.0158X0.0631*%
%ADD17R,0.0355X0.0158*%
%ADD18R,0.0158X0.0355*%
%ADD19R,0.2245X0.2245*%
%ADD20R,0.0197X0.0571*%
%ADD21R,0.0670X0.0788*%
%ADD22R,0.0867X0.0827*%
%ADD23R,0.0512X0.0788*%
%ADD24R,0.0276X0.0512*%
%ADD25R,0.0434X0.0394*%
%ADD26R,0.0473X0.0788*%
%ADD27R,0.0316X0.0394*%
%ADD28R,0.0394X0.0316*%
%ADD29R,0.0257X0.0434*%
%ADD30R,0.0493X0.0591*%
%ADD31R,0.0512X0.0276*%
%ADD32C,0.0970*%
%ADD33C,0.0790*%
%ADD34C,0.0590*%
%ADD35C,0.1300*%
%ADD36R,0.0631X0.0631*%
%ADD37R,0.0394X0.0394*%
%ADD38C,0.1339*%
%ADD39C,0.0434*%
%ADD40R,0.0434X0.0670*%
%ADD41R,0.0434X0.0512*%
%ADD42R,0.0749X0.0335*%
%ADD43R,0.0749X0.0276*%
%ADD44R,0.0394X0.0552*%
%ADD45C,0.0394*%
%ADD46C,0.0985*%
%ADD47C,0.0240*%
%ADD48C,0.0200*%
%ADD49C,0.0210*%
D10*
X015671Y012915D03*
X016065Y012915D03*
X016458Y012915D03*
X016852Y012915D03*
X017246Y012915D03*
X017639Y012915D03*
X018033Y012915D03*
X018427Y012915D03*
X018820Y012915D03*
X019214Y012915D03*
X019608Y012915D03*
X020002Y012915D03*
X020395Y012915D03*
X020789Y012915D03*
X021183Y012915D03*
X021576Y012915D03*
X021576Y013309D03*
X021183Y013309D03*
X021183Y013702D03*
X021576Y013702D03*
X021576Y014096D03*
X021183Y014096D03*
X021183Y014490D03*
X021576Y014490D03*
X021576Y014883D03*
X021183Y014883D03*
X020789Y014883D03*
X020395Y014883D03*
X020002Y014883D03*
X019608Y014883D03*
X019214Y014883D03*
X018820Y014883D03*
X018427Y014883D03*
X018033Y014883D03*
X017639Y014883D03*
X017246Y014883D03*
X016852Y014883D03*
X016458Y014883D03*
X016065Y014883D03*
X015671Y014883D03*
X015671Y014490D03*
X016065Y014490D03*
X016458Y014490D03*
X016458Y014096D03*
X016065Y014096D03*
X015671Y014096D03*
X015671Y013702D03*
X015671Y013309D03*
X016065Y013309D03*
X016458Y013309D03*
X016458Y013702D03*
X016065Y013702D03*
X016852Y013702D03*
X016852Y013309D03*
X017246Y013309D03*
X017246Y013702D03*
X017639Y013702D03*
X017639Y013309D03*
X018033Y013309D03*
X018033Y013702D03*
X018427Y013702D03*
X018427Y013309D03*
X018820Y013309D03*
X018820Y013702D03*
X019214Y013702D03*
X019214Y013309D03*
X019608Y013309D03*
X019608Y013702D03*
X020002Y013702D03*
X020395Y013702D03*
X020395Y013309D03*
X020002Y013309D03*
X020789Y013309D03*
X020789Y013702D03*
X020789Y014096D03*
X020395Y014096D03*
X020002Y014096D03*
X020002Y014490D03*
X020395Y014490D03*
X020789Y014490D03*
X019608Y014490D03*
X019214Y014490D03*
X018820Y014490D03*
X018427Y014490D03*
X018033Y014490D03*
X017639Y014490D03*
X017246Y014490D03*
X017246Y014096D03*
X017639Y014096D03*
X018033Y014096D03*
X018427Y014096D03*
X018820Y014096D03*
X019214Y014096D03*
X019608Y014096D03*
X019608Y015277D03*
X020002Y015277D03*
X020395Y015277D03*
X020395Y015671D03*
X020002Y015671D03*
X019608Y015671D03*
X019214Y015671D03*
X018820Y015671D03*
X018427Y015671D03*
X018427Y015277D03*
X018820Y015277D03*
X019214Y015277D03*
X019214Y016065D03*
X019214Y016458D03*
X018820Y016458D03*
X018427Y016458D03*
X018427Y016065D03*
X018820Y016065D03*
X018033Y016065D03*
X018033Y016458D03*
X017639Y016458D03*
X017246Y016458D03*
X017246Y016065D03*
X017639Y016065D03*
X017639Y015671D03*
X017246Y015671D03*
X017246Y015277D03*
X017639Y015277D03*
X018033Y015277D03*
X018033Y015671D03*
X016852Y015671D03*
X016458Y015671D03*
X016065Y015671D03*
X016065Y015277D03*
X016458Y015277D03*
X016852Y015277D03*
X016852Y016065D03*
X016852Y016458D03*
X016458Y016458D03*
X016458Y016065D03*
X016065Y016065D03*
X016065Y016458D03*
X015671Y016458D03*
X015671Y016065D03*
X015671Y015671D03*
X015671Y015277D03*
X016852Y014490D03*
X016852Y014096D03*
X019608Y016065D03*
X019608Y016458D03*
X020002Y016458D03*
X020395Y016458D03*
X020395Y016065D03*
X020002Y016065D03*
X020789Y016065D03*
X020789Y016458D03*
X021183Y016458D03*
X021576Y016458D03*
X021576Y016065D03*
X021183Y016065D03*
X021183Y015671D03*
X021576Y015671D03*
X021576Y015277D03*
X021183Y015277D03*
X020789Y015277D03*
X020789Y015671D03*
X020789Y016852D03*
X021183Y016852D03*
X021576Y016852D03*
X021576Y017246D03*
X021183Y017246D03*
X021183Y017639D03*
X021576Y017639D03*
X021576Y018033D03*
X021183Y018033D03*
X021183Y018427D03*
X021576Y018427D03*
X021576Y018820D03*
X021183Y018820D03*
X020789Y018820D03*
X020395Y018820D03*
X020002Y018820D03*
X019608Y018820D03*
X019214Y018820D03*
X018820Y018820D03*
X018427Y018820D03*
X018033Y018820D03*
X017639Y018820D03*
X017246Y018820D03*
X016852Y018820D03*
X016458Y018820D03*
X016065Y018820D03*
X015671Y018820D03*
X015671Y018427D03*
X016065Y018427D03*
X016458Y018427D03*
X016458Y018033D03*
X016065Y018033D03*
X015671Y018033D03*
X015671Y017639D03*
X015671Y017246D03*
X016065Y017246D03*
X016458Y017246D03*
X016458Y017639D03*
X016065Y017639D03*
X016852Y017639D03*
X016852Y017246D03*
X017246Y017246D03*
X017246Y017639D03*
X017639Y017639D03*
X017639Y017246D03*
X018033Y017246D03*
X018033Y017639D03*
X018427Y017639D03*
X018427Y017246D03*
X018820Y017246D03*
X018820Y017639D03*
X019214Y017639D03*
X019214Y017246D03*
X019608Y017246D03*
X019608Y017639D03*
X020002Y017639D03*
X020395Y017639D03*
X020395Y017246D03*
X020002Y017246D03*
X020002Y016852D03*
X020395Y016852D03*
X020789Y017246D03*
X020789Y017639D03*
X020789Y018033D03*
X020395Y018033D03*
X020002Y018033D03*
X020002Y018427D03*
X020395Y018427D03*
X020789Y018427D03*
X019608Y018427D03*
X019214Y018427D03*
X018820Y018427D03*
X018427Y018427D03*
X018427Y018033D03*
X018820Y018033D03*
X019214Y018033D03*
X019608Y018033D03*
X018033Y018033D03*
X017639Y018033D03*
X017246Y018033D03*
X017246Y018427D03*
X017639Y018427D03*
X018033Y018427D03*
X016852Y018427D03*
X016852Y018033D03*
X016852Y016852D03*
X017246Y016852D03*
X017639Y016852D03*
X018033Y016852D03*
X018427Y016852D03*
X018820Y016852D03*
X019214Y016852D03*
X019608Y016852D03*
X016458Y016852D03*
X016065Y016852D03*
X015671Y016852D03*
D11*
X015671Y004391D03*
X016065Y004391D03*
X016458Y004391D03*
X016852Y004391D03*
X017246Y004391D03*
X017639Y004391D03*
X018033Y004391D03*
X018427Y004391D03*
X018820Y004391D03*
X019214Y004391D03*
X019608Y004391D03*
X020002Y004391D03*
X020395Y004391D03*
X020789Y004391D03*
X021183Y004391D03*
X021576Y004391D03*
X021970Y004391D03*
X022364Y004391D03*
X022757Y004391D03*
X023151Y004391D03*
X023545Y004391D03*
X023939Y004391D03*
X024332Y004391D03*
X024726Y004391D03*
X025120Y004391D03*
X025513Y004391D03*
X025907Y004391D03*
X026301Y004391D03*
X026694Y004391D03*
X026694Y002935D03*
X026301Y002935D03*
X025907Y002935D03*
X025513Y002935D03*
X025120Y002935D03*
X024726Y002935D03*
X024332Y002935D03*
X023939Y002935D03*
X023545Y002935D03*
X023151Y002935D03*
X022757Y002935D03*
X022364Y002935D03*
X021970Y002935D03*
X021576Y002935D03*
X021183Y002935D03*
X020789Y002935D03*
X020395Y002935D03*
X020002Y002935D03*
X019608Y002935D03*
X019214Y002935D03*
X018820Y002935D03*
X018427Y002935D03*
X018033Y002935D03*
X017639Y002935D03*
X017246Y002935D03*
X016852Y002935D03*
X016458Y002935D03*
X016065Y002935D03*
X015671Y002935D03*
X015277Y002935D03*
X014883Y002935D03*
X014490Y002935D03*
X014096Y002935D03*
X013702Y002935D03*
X013309Y002935D03*
X012915Y002935D03*
X012521Y002935D03*
X012128Y002935D03*
X011734Y002935D03*
X011340Y002935D03*
X010946Y002935D03*
X010553Y002935D03*
X010553Y004391D03*
X010946Y004391D03*
X011340Y004391D03*
X011734Y004391D03*
X012128Y004391D03*
X012521Y004391D03*
X012915Y004391D03*
X013309Y004391D03*
X013702Y004391D03*
X014096Y004391D03*
X014490Y004391D03*
X014883Y004391D03*
X015277Y004391D03*
D12*
X009883Y003663D03*
X009883Y003663D03*
X027364Y003663D03*
X027364Y003663D03*
D13*
X004104Y012112D03*
X004104Y012612D03*
X004104Y013112D03*
X004104Y013612D03*
X004104Y014112D03*
X002434Y014112D03*
X002434Y013612D03*
X002434Y013112D03*
X002434Y012612D03*
X002434Y012112D03*
D14*
X003269Y012362D03*
X003269Y013862D03*
D15*
X007128Y014785D03*
X007128Y014982D03*
X007128Y015179D03*
X007128Y015376D03*
X007128Y015572D03*
X007128Y015769D03*
X007128Y015966D03*
X007128Y016163D03*
X007128Y016360D03*
X007128Y016557D03*
X007128Y016754D03*
X007128Y016950D03*
X010435Y016950D03*
X010435Y016754D03*
X010435Y016557D03*
X010435Y016360D03*
X010435Y016163D03*
X010435Y015966D03*
X010435Y015769D03*
X010435Y015572D03*
X010435Y015376D03*
X010435Y015179D03*
X010435Y014982D03*
X010435Y014785D03*
X028387Y011832D03*
X028387Y011635D03*
X028387Y011439D03*
X028387Y011242D03*
X028387Y011045D03*
X028387Y010848D03*
X028387Y010651D03*
X028387Y010454D03*
X028387Y010257D03*
X028387Y010061D03*
X028387Y009864D03*
X028387Y009667D03*
X031694Y009667D03*
X031694Y009864D03*
X031694Y010061D03*
X031694Y010257D03*
X031694Y010454D03*
X031694Y010651D03*
X031694Y010848D03*
X031694Y011045D03*
X031694Y011242D03*
X031694Y011439D03*
X031694Y011635D03*
X031694Y011832D03*
D16*
X031124Y012403D03*
X030927Y012403D03*
X030730Y012403D03*
X030533Y012403D03*
X030336Y012403D03*
X030139Y012403D03*
X029943Y012403D03*
X029746Y012403D03*
X029549Y012403D03*
X029352Y012403D03*
X029155Y012403D03*
X028958Y012403D03*
X028958Y009096D03*
X029155Y009096D03*
X029352Y009096D03*
X029549Y009096D03*
X029746Y009096D03*
X029943Y009096D03*
X030139Y009096D03*
X030336Y009096D03*
X030533Y009096D03*
X030730Y009096D03*
X030927Y009096D03*
X031124Y009096D03*
X009864Y014214D03*
X009667Y014214D03*
X009470Y014214D03*
X009273Y014214D03*
X009076Y014214D03*
X008880Y014214D03*
X008683Y014214D03*
X008486Y014214D03*
X008289Y014214D03*
X008092Y014214D03*
X007895Y014214D03*
X007698Y014214D03*
X007698Y017521D03*
X007895Y017521D03*
X008092Y017521D03*
X008289Y017521D03*
X008486Y017521D03*
X008683Y017521D03*
X008880Y017521D03*
X009076Y017521D03*
X009273Y017521D03*
X009470Y017521D03*
X009667Y017521D03*
X009864Y017521D03*
D17*
X014883Y009864D03*
X014883Y009667D03*
X014883Y009470D03*
X014883Y009273D03*
X014883Y009076D03*
X014883Y008880D03*
X014883Y008683D03*
X014883Y008486D03*
X014883Y008289D03*
X014883Y008092D03*
X014883Y007895D03*
X014883Y007698D03*
X017639Y007698D03*
X017639Y007895D03*
X017639Y008092D03*
X017639Y008289D03*
X017639Y008486D03*
X017639Y008683D03*
X017639Y008880D03*
X017639Y009076D03*
X017639Y009273D03*
X017639Y009470D03*
X017639Y009667D03*
X017639Y009864D03*
X021183Y009864D03*
X021183Y009667D03*
X021183Y009470D03*
X021183Y009273D03*
X021183Y009076D03*
X021183Y008880D03*
X021183Y008683D03*
X021183Y008486D03*
X021183Y008289D03*
X021183Y008092D03*
X021183Y007895D03*
X021183Y007698D03*
X023939Y007698D03*
X023939Y007895D03*
X023939Y008092D03*
X023939Y008289D03*
X023939Y008486D03*
X023939Y008683D03*
X023939Y008880D03*
X023939Y009076D03*
X023939Y009273D03*
X023939Y009470D03*
X023939Y009667D03*
X023939Y009864D03*
D18*
X023643Y010159D03*
X023446Y010159D03*
X023250Y010159D03*
X023053Y010159D03*
X022856Y010159D03*
X022659Y010159D03*
X022462Y010159D03*
X022265Y010159D03*
X022069Y010159D03*
X021872Y010159D03*
X021675Y010159D03*
X021478Y010159D03*
X021478Y007403D03*
X021675Y007403D03*
X021872Y007403D03*
X022069Y007403D03*
X022265Y007403D03*
X022462Y007403D03*
X022659Y007403D03*
X022856Y007403D03*
X023053Y007403D03*
X023250Y007403D03*
X023446Y007403D03*
X023643Y007403D03*
X017344Y007403D03*
X017147Y007403D03*
X016950Y007403D03*
X016754Y007403D03*
X016557Y007403D03*
X016360Y007403D03*
X016163Y007403D03*
X015966Y007403D03*
X015769Y007403D03*
X015572Y007403D03*
X015376Y007403D03*
X015179Y007403D03*
X015179Y010159D03*
X015376Y010159D03*
X015572Y010159D03*
X015769Y010159D03*
X015966Y010159D03*
X016163Y010159D03*
X016360Y010159D03*
X016557Y010159D03*
X016754Y010159D03*
X016950Y010159D03*
X017147Y010159D03*
X017344Y010159D03*
D19*
X016261Y008781D03*
X022561Y008781D03*
D20*
X008899Y021114D03*
X008643Y021114D03*
X008387Y021114D03*
X008131Y021114D03*
X007876Y021114D03*
D21*
X006773Y022167D03*
X010002Y022167D03*
D22*
X009608Y021242D03*
X007167Y021242D03*
D23*
X008053Y022167D03*
X008722Y022167D03*
D24*
X008269Y019962D03*
X007895Y019962D03*
X007521Y019962D03*
X007521Y019057D03*
X007895Y019057D03*
X008269Y019057D03*
D25*
X023269Y019234D03*
X024017Y019234D03*
X024017Y018407D03*
X023269Y018407D03*
D26*
X016261Y020198D03*
X015277Y020198D03*
D27*
X015277Y021124D03*
X015277Y021635D03*
X016261Y021635D03*
X016261Y021124D03*
X017049Y021124D03*
X017049Y021635D03*
X017836Y021635D03*
X017836Y021124D03*
X022364Y018880D03*
X022364Y018368D03*
X024234Y017698D03*
X024234Y017187D03*
X027088Y012187D03*
X027482Y012187D03*
X027482Y011675D03*
X027088Y011675D03*
X025513Y007069D03*
X025120Y007069D03*
X024726Y007069D03*
X024332Y007069D03*
X024332Y006557D03*
X024726Y006557D03*
X025120Y006557D03*
X025513Y006557D03*
X022757Y006281D03*
X022757Y005769D03*
X021183Y005769D03*
X021183Y006281D03*
X019608Y006557D03*
X019214Y006557D03*
X018820Y006557D03*
X018427Y006557D03*
X018033Y006281D03*
X018033Y005769D03*
X016458Y005769D03*
X016458Y006281D03*
X018427Y007069D03*
X018820Y007069D03*
X019214Y007069D03*
X019608Y007069D03*
X004254Y009411D03*
X004254Y009923D03*
X006813Y017679D03*
X007206Y017679D03*
X007206Y018191D03*
X006813Y018191D03*
X009175Y019155D03*
X009175Y019667D03*
D28*
X005887Y018131D03*
X005376Y018131D03*
X005376Y015572D03*
X005887Y015572D03*
X011380Y015572D03*
X011380Y015966D03*
X011891Y015966D03*
X011891Y015572D03*
X013939Y015868D03*
X014450Y015868D03*
X014450Y016261D03*
X014450Y016655D03*
X013939Y016655D03*
X013939Y016261D03*
X013939Y015080D03*
X014450Y015080D03*
X018368Y019805D03*
X018880Y019805D03*
X019549Y019805D03*
X020061Y019805D03*
X023191Y020297D03*
X023702Y020297D03*
X023210Y017639D03*
X023210Y017246D03*
X023210Y016852D03*
X022698Y016852D03*
X022698Y017246D03*
X022698Y017639D03*
X032738Y012029D03*
X033250Y012029D03*
X033250Y011340D03*
X033250Y010946D03*
X032738Y010946D03*
X032738Y011340D03*
X025376Y009962D03*
X025376Y009569D03*
X025376Y009175D03*
X025376Y008781D03*
X024864Y008781D03*
X024864Y009175D03*
X024864Y009569D03*
X024864Y009962D03*
X023801Y006320D03*
X023289Y006320D03*
X023289Y005730D03*
X023801Y005730D03*
X022226Y005730D03*
X021714Y005730D03*
X021714Y006320D03*
X022226Y006320D03*
X019076Y008781D03*
X019076Y009175D03*
X019076Y009569D03*
X019076Y009962D03*
X018565Y009962D03*
X018565Y009569D03*
X018565Y009175D03*
X018565Y008781D03*
X017502Y006320D03*
X016990Y006320D03*
X016990Y005730D03*
X017502Y005730D03*
X015927Y005730D03*
X015415Y005730D03*
X015415Y006320D03*
X015927Y006320D03*
D29*
X018840Y020730D03*
X019588Y020730D03*
X019214Y021635D03*
D30*
X005946Y017443D03*
X005317Y017443D03*
X005317Y016261D03*
X005946Y016261D03*
D31*
X009903Y019037D03*
X009903Y019411D03*
X009903Y019785D03*
X010809Y019785D03*
X010809Y019411D03*
X010809Y019037D03*
D32*
X025006Y018624D03*
X031926Y018624D03*
D33*
X031426Y020124D03*
X031426Y021124D03*
X031426Y022124D03*
X025506Y022124D03*
X025506Y021124D03*
D34*
X026466Y016024D03*
X027266Y016024D03*
X028066Y016024D03*
X028866Y016024D03*
X029666Y016024D03*
X030466Y016024D03*
X030066Y015024D03*
X029266Y015024D03*
X027666Y015024D03*
X026866Y015024D03*
X026066Y015024D03*
X030866Y015024D03*
D35*
X030366Y018624D03*
X026566Y018624D03*
D36*
X005730Y022167D03*
X004352Y022167D03*
X003368Y022167D03*
X001990Y022167D03*
D37*
X002679Y021911D03*
X005041Y021911D03*
D38*
X002876Y018624D03*
X002876Y002876D03*
X034372Y002876D03*
X034372Y018624D03*
D39*
X001694Y001694D03*
X001694Y019805D03*
X035553Y019805D03*
X035553Y001694D03*
D40*
X009470Y012580D03*
X008781Y011675D03*
X008092Y012580D03*
D41*
X016990Y019805D03*
X017502Y019805D03*
X017502Y020474D03*
X016990Y020474D03*
D42*
X002541Y009263D03*
X002541Y008299D03*
X002541Y006704D03*
X002541Y005740D03*
D43*
X002541Y006222D03*
X002541Y008781D03*
D44*
X001773Y008053D03*
X001773Y006950D03*
X001773Y005494D03*
X001773Y009509D03*
D45*
X002187Y009618D03*
X002187Y007944D03*
X002187Y007059D03*
X002187Y005385D03*
D46*
X004450Y006222D03*
X012128Y021478D03*
X021675Y021478D03*
X027777Y007009D03*
D47*
X026694Y005041D03*
X026301Y005041D03*
X025907Y005041D03*
X025513Y005041D03*
X024332Y005041D03*
X023151Y005041D03*
X021970Y005041D03*
X020789Y005041D03*
X019608Y005041D03*
X018427Y005041D03*
X017246Y005041D03*
X016065Y005041D03*
X016065Y003663D03*
X017246Y003663D03*
X018427Y003663D03*
X019608Y003663D03*
X020789Y003663D03*
X021970Y003663D03*
X023151Y003663D03*
X024332Y003663D03*
X025513Y003663D03*
X025907Y003663D03*
X026301Y003663D03*
X026694Y003663D03*
X026694Y002285D03*
X026301Y002285D03*
X025907Y002285D03*
X025513Y002285D03*
X024332Y002285D03*
X023151Y002285D03*
X021970Y002285D03*
X020789Y002285D03*
X019608Y002285D03*
X018427Y002285D03*
X017246Y002285D03*
X016065Y002285D03*
X013309Y002285D03*
X012128Y002285D03*
X011734Y002285D03*
X011340Y002285D03*
X010946Y002285D03*
X010553Y002285D03*
X010553Y003663D03*
X010946Y003663D03*
X011340Y003663D03*
X011734Y003663D03*
X012128Y003663D03*
X013309Y003663D03*
X013309Y005041D03*
X012128Y005041D03*
X011734Y005041D03*
X011537Y005336D03*
X011340Y005139D03*
X011143Y005336D03*
X010946Y005041D03*
X010553Y005041D03*
D48*
X013506Y005238D03*
X013702Y005041D03*
X013899Y005238D03*
X014096Y005041D03*
X014293Y005238D03*
X014490Y005041D03*
X014687Y005238D03*
X014883Y005041D03*
X015277Y005041D03*
X015671Y005041D03*
X018033Y006714D03*
X019608Y007913D03*
X020887Y007698D03*
X021478Y007108D03*
X020789Y006025D03*
X024332Y006124D03*
X024234Y008683D03*
X020887Y008880D03*
X020789Y009470D03*
X020789Y009864D03*
X018624Y010356D03*
X017935Y008683D03*
X015179Y007108D03*
X014883Y007206D03*
X014588Y008880D03*
X014490Y009470D03*
X014588Y009962D03*
X013899Y010946D03*
X014096Y011143D03*
X014293Y011340D03*
X010553Y013112D03*
X009273Y013702D03*
X009076Y013604D03*
X008880Y013702D03*
X008683Y013604D03*
X008486Y013702D03*
X008289Y013604D03*
X008092Y013702D03*
X007895Y013604D03*
X007698Y013702D03*
X007206Y013309D03*
X007403Y012915D03*
X007206Y012718D03*
X007403Y012521D03*
X007206Y012324D03*
X007206Y011931D03*
X011045Y014785D03*
X010946Y014982D03*
X011045Y015179D03*
X010946Y015376D03*
X010946Y015769D03*
X010946Y016163D03*
X011045Y016360D03*
X009273Y018033D03*
X008486Y018033D03*
X008289Y018131D03*
X007600Y020592D03*
X015179Y018820D03*
X022757Y019411D03*
X023250Y017935D03*
X029352Y012915D03*
X030336Y012915D03*
X030139Y008584D03*
X025120Y002285D03*
X024726Y002285D03*
X023939Y002285D03*
X023545Y002285D03*
X022757Y002285D03*
X022364Y002285D03*
X021576Y002285D03*
X021183Y002285D03*
X020395Y002285D03*
X020002Y002285D03*
X019214Y002285D03*
X018820Y002285D03*
X018033Y002285D03*
X017639Y002285D03*
X016852Y002285D03*
X016458Y002285D03*
X015671Y002285D03*
X015277Y002285D03*
X015080Y002088D03*
X014883Y002285D03*
X014687Y002088D03*
X014490Y002285D03*
X014293Y002088D03*
X014096Y002285D03*
X013899Y002088D03*
X013702Y002285D03*
X012915Y002285D03*
X012521Y002285D03*
X012324Y002088D03*
D49*
X020986Y014293D03*
M02*
