%
M48
M72
T01C0.0080
T02C0.0090
T03C0.0120
T04C0.0350
T05C0.0354
T06C0.0370
T07C0.0400
T08C0.0551
T09C0.0630
T10C0.1260
T11C0.1299
%
T01
X3171Y5730
X3171Y6714
X3171Y8289
X3663Y8781
X3171Y9273
X4254Y10356
X2482Y11734
X3269Y12915
X3269Y13407
X2482Y14490
X4943Y15572
X6616Y15474
X6616Y15179
X6616Y15966
X6517Y16360
X6517Y17246
X6813Y17246
X7206Y17246
X8092Y16950
X7600Y16557
X7600Y16163
X7600Y15769
X7698Y14785
X6616Y13998
X7206Y13309
X7403Y12915
X7206Y12718
X7403Y12521
X7206Y12324
X7206Y11931
X6419Y12128
X5435Y12718
X5041Y12324
X7698Y13702
X7895Y13604
X8092Y13702
X8289Y13604
X8486Y13702
X8683Y13604
X8880Y13702
X9076Y13604
X9273Y13702
X9569Y13506
X10553Y13112
X9569Y11537
X7994Y11537
X12029Y10946
X12423Y11143
X12817Y11340
X13899Y11537
X14293Y11340
X14096Y11143
X13899Y10946
X13604Y10553
X13407Y10356
X14588Y9962
X14588Y9667
X14490Y9470
X14588Y9273
X14490Y9076
X14588Y8880
X14490Y8683
X14588Y8486
X14490Y8289
X13604Y8191
X13407Y8584
X13456Y7551
X13506Y7206
X14883Y7206
X15179Y7108
X15572Y7108
X16163Y7108
X16360Y7009
X16950Y7108
X17147Y7009
X17344Y7108
X17639Y7346
X17935Y7698
X18131Y7895
X18131Y8486
X17935Y8683
X18131Y8880
X17935Y9076
X18131Y9667
X17935Y9864
X18624Y10356
X18820Y10553
X17541Y10553
X16163Y10553
X15966Y10454
X18820Y11537
X19411Y11931
X18820Y12620
X18427Y12324
X17246Y12561
X17443Y13506
X17443Y13899
X17836Y13899
X17836Y13506
X18230Y13506
X18230Y13899
X18624Y13899
X18624Y13506
X19017Y13506
X19411Y13899
X19805Y13899
X20198Y13506
X20592Y13506
X20592Y13899
X20592Y14293
X20592Y14687
X20592Y15080
X20986Y15080
X21380Y15080
X21773Y15080
X21773Y14687
X21380Y14687
X21380Y14293
X21813Y14096
X21380Y13899
X21380Y13112
X21380Y12718
X20002Y12620
X19805Y14293
X19411Y14293
X19017Y14293
X19017Y14687
X19017Y15080
X19411Y15080
X19411Y14687
X19805Y14687
X19805Y15080
X19805Y15474
X20198Y15474
X20592Y15474
X20986Y15474
X21380Y15474
X21872Y15671
X21872Y16065
X21380Y15868
X20986Y16261
X20592Y16261
X20198Y16261
X19805Y16261
X19411Y16261
X19017Y16261
X19017Y16655
X19017Y17049
X19411Y17049
X19805Y17049
X20198Y17049
X20198Y16655
X19805Y16655
X19411Y16655
X19411Y17443
X19017Y17443
X18624Y17443
X18230Y17443
X18230Y17836
X17836Y17836
X17443Y17836
X17049Y17836
X16655Y17836
X16261Y17836
X15868Y17836
X15868Y17443
X16261Y17443
X16655Y17443
X16655Y17049
X16261Y17049
X16261Y16655
X16655Y16655
X17049Y16655
X17443Y16655
X17836Y16655
X17836Y17049
X17443Y17049
X17049Y17049
X17443Y16261
X17836Y16261
X18230Y16261
X18230Y16655
X18230Y17049
X19411Y17836
X19805Y17836
X19805Y18230
X20198Y18230
X20592Y18230
X20592Y17836
X20986Y17836
X21380Y17836
X21380Y18230
X20986Y18230
X20986Y18624
X20986Y19017
X21380Y19017
X20592Y19017
X20198Y19017
X19805Y18624
X19608Y19214
X19017Y19017
X18919Y19214
X18230Y18624
X18230Y18230
X17836Y18230
X18624Y18230
X19017Y18230
X19805Y17443
X20198Y17443
X20592Y17443
X20986Y17443
X20986Y17049
X20592Y17049
X20592Y16655
X20986Y16655
X21872Y16852
X21872Y17639
X21872Y18033
X22757Y18427
X23250Y17935
X23643Y17639
X23643Y16852
X24234Y16655
X24824Y16458
X25021Y16261
X25513Y17049
X25021Y17246
X26694Y16458
X26104Y15671
X25513Y15376
X23742Y15966
X23250Y15080
X23250Y14490
X23250Y14096
X23250Y13702
X23250Y12915
X22659Y11931
X22265Y10553
X22462Y10454
X21281Y10159
X20887Y10159
X20789Y9864
X20887Y9667
X20789Y9470
X20887Y9273
X20789Y9076
X20887Y8880
X20789Y8683
X20887Y8486
X20789Y8289
X20887Y7698
X21478Y7108
X21872Y7108
X22462Y7108
X22659Y7009
X23250Y7108
X23446Y7009
X23643Y7108
X24234Y7698
X24431Y7895
X24431Y8486
X24234Y8683
X24431Y8880
X24234Y9076
X24431Y9667
X24234Y9864
X25691Y9372
X27777Y9864
X27876Y9667
X28860Y10454
X29352Y9765
X29549Y9667
X29155Y9667
X30139Y8584
X30631Y9667
X31124Y9864
X30927Y10257
X31124Y10454
X32206Y10061
X32305Y10553
X32206Y10848
X32305Y11439
X32206Y11635
X33683Y11340
X33683Y10946
X33092Y10257
X33978Y11734
X32009Y12915
X30730Y12915
X30533Y13013
X30336Y12915
X29746Y12915
X29352Y12915
X29057Y12915
X28565Y12128
X28269Y12128
X27876Y11832
X27876Y11439
X27876Y10651
X26793Y11340
X26399Y12029
X27088Y12521
X27482Y12521
X28860Y13702
X27876Y14096
X27679Y14293
X29844Y14391
X30435Y13604
X31419Y14391
X33191Y14391
X30631Y11931
X31616Y8781
X25513Y7502
X25513Y6124
X24923Y5631
X24332Y6124
X23742Y5238
X20789Y6025
X19214Y5041
X18820Y5435
X18033Y6714
X19608Y7913
X19431Y9372
X15868Y13112
X15474Y13112
X14883Y13506
X15376Y14096
X15376Y14490
X15474Y15080
X15868Y15080
X16261Y15080
X16655Y15080
X17049Y15080
X17049Y14687
X17443Y14687
X17836Y14687
X17836Y15080
X17443Y15080
X17443Y15474
X17836Y15474
X18230Y15474
X18230Y15080
X18230Y14687
X18230Y14293
X17836Y14293
X17443Y14293
X17049Y14293
X16655Y14293
X16261Y14293
X16261Y13899
X16261Y13506
X16655Y13506
X16655Y13899
X17049Y13899
X17049Y13506
X17049Y15474
X16655Y15474
X16655Y15868
X16655Y16261
X16261Y15868
X15769Y16261
X15179Y15671
X14785Y15868
X14785Y15474
X13407Y16261
X13112Y15966
X12324Y16655
X12029Y17147
X11734Y16360
X11045Y16360
X10946Y16557
X10946Y16163
X10946Y15769
X10946Y15376
X11045Y15179
X10946Y14982
X11045Y14785
X9864Y14785
X9569Y14785
X9076Y15966
X9864Y16163
X9470Y16950
X9273Y18033
X8978Y18033
X9667Y18033
X9962Y17935
X10848Y18427
X10356Y19017
X10356Y19411
X10356Y19805
X9470Y19411
X8781Y19411
X8289Y19509
X7895Y19509
X6517Y19608
X7600Y20592
X8722Y20592
X9076Y20592
X11340Y19805
X13998Y18820
X14588Y18230
X15376Y18427
X15179Y18820
X15277Y19608
X16065Y19214
X16458Y19214
X16852Y19214
X17246Y19214
X17541Y19313
X18525Y20691
X17443Y21675
X15769Y21675
X20002Y20691
X20198Y19313
X22167Y19509
X22757Y19411
X23939Y19608
X24431Y19214
X24135Y20297
X22757Y20297
X29450Y21478
X19411Y15474
X19017Y15474
X17049Y15868
X15376Y16852
X14785Y17049
X14490Y17049
X14194Y17049
X13899Y17049
X13407Y16852
X13112Y16852
X11045Y16852
X8486Y18033
X8289Y18131
X7797Y18033
X4549Y21183
X4352Y21675
X3368Y21675
X1990Y21675
X5730Y21675
X5139Y8781
X5631Y7797
X7108Y8781
X7974Y8781
X9569Y8781
X11635Y7009
X12128Y5631
X13112Y5238
X13506Y5238
X13702Y5041
X13899Y5238
X14096Y5041
X14293Y5238
X14490Y5041
X14687Y5238
X14883Y5041
X15080Y5238
X15277Y5041
X15671Y5041
X13309Y3663
X12915Y3663
X12521Y3663
X13702Y2285
X13899Y2088
X14096Y2285
X14293Y2088
X14490Y2285
X14687Y2088
X14883Y2285
X15080Y2088
X15277Y2285
X15671Y2285
X16458Y2285
X16852Y2285
X17639Y2285
X18033Y2285
X18820Y2285
X19214Y2285
X20002Y2285
X20395Y2285
X21183Y2285
X21576Y2285
X22364Y2285
X22757Y2285
X23545Y2285
X23939Y2285
X24726Y2285
X25120Y2285
T02
X20986Y14293
T03
X11537Y5336
X11340Y5139
X11143Y5336
X10946Y5041
X10553Y5041
X11734Y5041
X12128Y5041
X12128Y3663
X11734Y3663
X11340Y3663
X10946Y3663
X10553Y3663
X10553Y2285
X10946Y2285
X11340Y2285
X11734Y2285
X12128Y2285
X16065Y2285
X17246Y2285
X18427Y2285
X19608Y2285
X20789Y2285
X21970Y2285
X23151Y2285
X24332Y2285
X25513Y2285
X25907Y2285
X26301Y2285
X26694Y2285
X26694Y3663
X26301Y3663
X25907Y3663
X25513Y3663
X24332Y3663
X23151Y3663
X21970Y3663
X20789Y3663
X19608Y3663
X18427Y3663
X17246Y3663
X16065Y3663
X16065Y5041
X17246Y5041
X18427Y5041
X19608Y5041
X20789Y5041
X21970Y5041
X23151Y5041
X24332Y5041
X25513Y5041
X25907Y5041
X26301Y5041
X26694Y5041
T04
X26913Y15911
X27913Y15911
X28913Y15911
X29913Y15911
X30413Y16911
X29413Y16911
X28413Y16911
X27413Y16911
T05
X1990Y9618
X1990Y7944
X1990Y7059
X1990Y5385
T06
X3269Y12362
X3269Y13862
T07
X26173Y20741
X27173Y21341
X30153Y20741
X31153Y21341
T08
X27364Y3663
X27364Y3663
X9883Y3663
X9883Y3663
T09
X4450Y6222
X25563Y18211
X21675Y21478
X12128Y21478
X31763Y18211
X27777Y7009
T10
X26413Y19411
X30913Y19411
T11
X2876Y2876
X2876Y18624
X34372Y18624
X34372Y2876
M30
