G75*
G70*
%OFA0B0*%
%FSLAX24Y24*%
%IPPOS*%
%LPD*%
%AMOC8*
5,1,8,0,0,1.08239X$1,22.5*
%
%ADD10C,0.1339*%
%ADD11R,0.0276X0.0946*%
%ADD12C,0.0591*%
D10*
X002119Y002119D03*
X002119Y017867D03*
X033615Y017867D03*
X033615Y002119D03*
D11*
X025937Y002178D03*
X025544Y002178D03*
X025150Y002178D03*
X024756Y002178D03*
X024363Y002178D03*
X023969Y002178D03*
X023575Y002178D03*
X023181Y002178D03*
X022788Y002178D03*
X022394Y002178D03*
X022000Y002178D03*
X021607Y002178D03*
X021213Y002178D03*
X020819Y002178D03*
X020426Y002178D03*
X020032Y002178D03*
X019638Y002178D03*
X019244Y002178D03*
X018851Y002178D03*
X018457Y002178D03*
X018063Y002178D03*
X017670Y002178D03*
X017276Y002178D03*
X016882Y002178D03*
X016489Y002178D03*
X016095Y002178D03*
X015701Y002178D03*
X015307Y002178D03*
X014914Y002178D03*
X014520Y002178D03*
X014126Y002178D03*
X013733Y002178D03*
X013339Y002178D03*
X012945Y002178D03*
X012552Y002178D03*
X012158Y002178D03*
X011764Y002178D03*
X011370Y002178D03*
X010977Y002178D03*
X010583Y002178D03*
X010189Y002178D03*
X009796Y002178D03*
X009796Y003634D03*
X010189Y003634D03*
X010583Y003634D03*
X010977Y003634D03*
X011370Y003634D03*
X011764Y003634D03*
X012158Y003634D03*
X012552Y003634D03*
X012945Y003634D03*
X013339Y003634D03*
X013733Y003634D03*
X014126Y003634D03*
X014520Y003634D03*
X014914Y003634D03*
X015307Y003634D03*
X015701Y003634D03*
X016095Y003634D03*
X016489Y003634D03*
X016882Y003634D03*
X017276Y003634D03*
X017670Y003634D03*
X018063Y003634D03*
X018457Y003634D03*
X018851Y003634D03*
X019244Y003634D03*
X019638Y003634D03*
X020032Y003634D03*
X020426Y003634D03*
X020819Y003634D03*
X021213Y003634D03*
X021607Y003634D03*
X022000Y003634D03*
X022394Y003634D03*
X022788Y003634D03*
X023181Y003634D03*
X023575Y003634D03*
X023969Y003634D03*
X024363Y003634D03*
X024756Y003634D03*
X025150Y003634D03*
X025544Y003634D03*
X025937Y003634D03*
D12*
X026607Y002906D03*
X009126Y002906D03*
M02*
