G75*
G70*
%OFA0B0*%
%FSLAX24Y24*%
%IPPOS*%
%LPD*%
%AMOC8*
5,1,8,0,0,1.08239X$1,22.5*
%
%ADD10C,0.0080*%
%ADD11C,0.0060*%
%ADD12C,0.0040*%
%ADD13C,0.0050*%
D10*
X008882Y001756D02*
X008882Y004056D01*
X009221Y004056D01*
X009221Y003890D01*
X009087Y003292D02*
X009087Y002504D01*
X009087Y002505D02*
X009086Y002472D01*
X009089Y002440D01*
X009096Y002409D01*
X009107Y002378D01*
X009120Y002349D01*
X009137Y002321D01*
X009157Y002296D01*
X009179Y002273D01*
X009204Y002252D01*
X009232Y002235D01*
X009261Y002220D01*
X009291Y002209D01*
X009322Y002202D01*
X009354Y002198D01*
X009213Y001922D02*
X009213Y001756D01*
X008882Y001756D01*
X009087Y003300D02*
X009089Y003333D01*
X009095Y003366D01*
X009104Y003398D01*
X009116Y003429D01*
X009132Y003459D01*
X009150Y003487D01*
X009172Y003512D01*
X009195Y003536D01*
X009222Y003556D01*
X009250Y003574D01*
X009280Y003589D01*
X009311Y003601D01*
X009344Y003609D01*
X009377Y003614D01*
X009410Y003615D01*
X011567Y009402D02*
X024166Y009402D01*
X024166Y014323D01*
X011567Y014323D01*
X011567Y009402D01*
X026379Y003614D02*
X026411Y003610D01*
X026442Y003603D01*
X026472Y003592D01*
X026501Y003577D01*
X026529Y003560D01*
X026554Y003539D01*
X026576Y003516D01*
X026596Y003491D01*
X026613Y003463D01*
X026626Y003434D01*
X026637Y003403D01*
X026644Y003372D01*
X026647Y003340D01*
X026646Y003307D01*
X026646Y002520D01*
X026646Y002512D02*
X026644Y002479D01*
X026638Y002446D01*
X026629Y002414D01*
X026617Y002383D01*
X026601Y002353D01*
X026583Y002325D01*
X026561Y002300D01*
X026538Y002276D01*
X026511Y002256D01*
X026483Y002238D01*
X026453Y002223D01*
X026422Y002211D01*
X026389Y002203D01*
X026356Y002198D01*
X026323Y002197D01*
X026512Y001922D02*
X026512Y001756D01*
X026867Y001756D01*
X026867Y004056D01*
X026520Y004056D01*
X026520Y003890D01*
D11*
X021864Y013172D02*
X021757Y013172D01*
X021650Y013279D01*
X021650Y013813D01*
X021757Y013813D02*
X021543Y013813D01*
X021326Y013492D02*
X021326Y013279D01*
X021219Y013172D01*
X021006Y013172D01*
X020899Y013279D01*
X020899Y013492D01*
X021006Y013599D01*
X021219Y013599D01*
X021326Y013492D01*
X020681Y013492D02*
X020575Y013599D01*
X020254Y013599D01*
X020361Y013386D02*
X020575Y013386D01*
X020681Y013492D01*
X020361Y013386D02*
X020254Y013279D01*
X020361Y013172D01*
X020681Y013172D01*
X020037Y013172D02*
X020037Y013813D01*
X019930Y013599D02*
X019716Y013599D01*
X019610Y013492D01*
X019610Y013172D01*
X019392Y013279D02*
X019285Y013172D01*
X018965Y013172D01*
X018965Y013599D01*
X018641Y013599D02*
X018427Y013599D01*
X018321Y013492D01*
X018321Y013172D01*
X018641Y013172D01*
X018748Y013279D01*
X018641Y013386D01*
X018321Y013386D01*
X019392Y013279D02*
X019392Y013599D01*
X019930Y013599D02*
X020037Y013492D01*
X021864Y013172D02*
X021970Y013279D01*
X016262Y013386D02*
X015941Y013386D01*
X015835Y013492D01*
X015835Y013706D01*
X015941Y013813D01*
X016262Y013813D01*
X016262Y013172D01*
X016048Y013386D02*
X015835Y013172D01*
X015617Y013279D02*
X015617Y013492D01*
X015510Y013599D01*
X015297Y013599D01*
X015190Y013492D01*
X015190Y013386D01*
X015617Y013386D01*
X015617Y013279D02*
X015510Y013172D01*
X015297Y013172D01*
X014973Y013599D02*
X014759Y013172D01*
X014546Y013599D01*
X014096Y013599D02*
X014096Y013172D01*
X013669Y013172D02*
X013669Y013599D01*
X013883Y013813D01*
X014096Y013599D01*
X014096Y013492D02*
X013669Y013492D01*
D12*
X008661Y001910D02*
X008354Y001910D01*
X008508Y001910D02*
X008508Y002371D01*
X008661Y002217D01*
X008661Y003434D02*
X008354Y003741D01*
X008354Y003817D01*
X008431Y003894D01*
X008585Y003894D01*
X008661Y003817D01*
X008661Y003434D02*
X008354Y003434D01*
X012427Y006568D02*
X012427Y006798D01*
X012504Y006875D01*
X012581Y006798D01*
X012581Y006568D01*
X012734Y006568D02*
X012734Y006875D01*
X012658Y006875D01*
X012581Y006798D01*
X012888Y006798D02*
X012888Y006644D01*
X012965Y006568D01*
X013118Y006568D01*
X013195Y006644D01*
X013195Y006798D01*
X013118Y006875D01*
X012965Y006875D01*
X012888Y006798D01*
X013348Y006875D02*
X013578Y006875D01*
X013655Y006798D01*
X013655Y006644D01*
X013578Y006568D01*
X013348Y006568D01*
X013809Y006568D02*
X013885Y006568D01*
X013885Y006644D01*
X013809Y006644D01*
X013809Y006568D01*
X014039Y006721D02*
X014346Y006721D01*
X014346Y006644D02*
X014346Y006798D01*
X014269Y006875D01*
X014116Y006875D01*
X014039Y006798D01*
X014039Y006721D01*
X014116Y006568D02*
X014269Y006568D01*
X014346Y006644D01*
X014499Y006568D02*
X014729Y006568D01*
X014806Y006644D01*
X014806Y006798D01*
X014729Y006875D01*
X014499Y006875D01*
X014499Y007028D02*
X014499Y006568D01*
X014960Y006644D02*
X014960Y006798D01*
X015036Y006875D01*
X015190Y006875D01*
X015267Y006798D01*
X015267Y006644D01*
X015190Y006568D01*
X015036Y006568D01*
X014960Y006644D01*
X015420Y006568D02*
X015650Y006568D01*
X015727Y006644D01*
X015727Y006798D01*
X015650Y006875D01*
X015420Y006875D01*
X015880Y006798D02*
X015880Y006721D01*
X016187Y006721D01*
X016187Y006644D02*
X016187Y006798D01*
X016111Y006875D01*
X015957Y006875D01*
X015880Y006798D01*
X015957Y006568D02*
X016111Y006568D01*
X016187Y006644D01*
X016341Y006568D02*
X016494Y006568D01*
X016418Y006568D02*
X016418Y007028D01*
X016494Y007028D01*
X016648Y006875D02*
X016878Y006875D01*
X016955Y006798D01*
X016955Y006644D01*
X016878Y006568D01*
X016648Y006568D01*
X016648Y006491D02*
X016648Y006875D01*
X016648Y006491D02*
X016724Y006414D01*
X016801Y006414D01*
X017108Y006644D02*
X017108Y006798D01*
X017185Y006875D01*
X017338Y006875D01*
X017415Y006798D01*
X017415Y006644D01*
X017338Y006568D01*
X017185Y006568D01*
X017108Y006644D01*
X017568Y006644D02*
X017568Y006798D01*
X017645Y006875D01*
X017799Y006875D01*
X017875Y006798D01*
X017875Y006644D01*
X017799Y006568D01*
X017645Y006568D01*
X017568Y006644D01*
X018029Y006568D02*
X018259Y006568D01*
X018336Y006644D01*
X018336Y006798D01*
X018259Y006875D01*
X018029Y006875D01*
X018029Y006491D01*
X018106Y006414D01*
X018182Y006414D01*
X018489Y006568D02*
X018566Y006568D01*
X018566Y006644D01*
X018489Y006644D01*
X018489Y006568D01*
X018719Y006721D02*
X019026Y006721D01*
X019026Y006644D02*
X019026Y006798D01*
X018950Y006875D01*
X018796Y006875D01*
X018719Y006798D01*
X018719Y006721D01*
X018796Y006568D02*
X018950Y006568D01*
X019026Y006644D01*
X019180Y006568D02*
X019257Y006644D01*
X019257Y006951D01*
X019333Y006875D02*
X019180Y006875D01*
X019487Y006798D02*
X019564Y006875D01*
X019717Y006875D01*
X019794Y006798D01*
X019794Y006644D01*
X019717Y006568D01*
X019564Y006568D01*
X019487Y006644D01*
X019487Y006798D01*
X019947Y006798D02*
X019947Y006568D01*
X020101Y006568D02*
X020101Y006798D01*
X020024Y006875D01*
X019947Y006798D01*
X020101Y006798D02*
X020177Y006875D01*
X020254Y006875D01*
X020254Y006568D01*
X020408Y006875D02*
X020484Y006875D01*
X020638Y006721D01*
X020791Y006721D02*
X021021Y006721D01*
X021098Y006644D01*
X021021Y006568D01*
X020791Y006568D01*
X020791Y006798D01*
X020868Y006875D01*
X021021Y006875D01*
X021252Y006798D02*
X021252Y006568D01*
X021405Y006568D02*
X021405Y006798D01*
X021328Y006875D01*
X021252Y006798D01*
X021405Y006798D02*
X021482Y006875D01*
X021559Y006875D01*
X021559Y006568D01*
X022019Y006568D02*
X021712Y007028D01*
X022172Y007028D02*
X022479Y006568D01*
X022633Y006568D02*
X022710Y006568D01*
X022710Y006644D01*
X022633Y006644D01*
X022633Y006568D01*
X022633Y006798D02*
X022710Y006798D01*
X022710Y006875D01*
X022633Y006875D01*
X022633Y006798D01*
X022863Y006798D02*
X022863Y006644D01*
X022940Y006568D01*
X023170Y006568D01*
X023323Y006568D02*
X023400Y006644D01*
X023400Y006951D01*
X023477Y006875D02*
X023323Y006875D01*
X023170Y006875D02*
X022940Y006875D01*
X022863Y006798D01*
X023170Y006875D02*
X023170Y006414D01*
X023630Y006568D02*
X023707Y006644D01*
X023707Y006951D01*
X023784Y006875D02*
X023630Y006875D01*
X023937Y006798D02*
X023937Y006568D01*
X023937Y006798D02*
X024014Y006875D01*
X024167Y006875D01*
X024244Y006798D01*
X024244Y007028D02*
X024244Y006568D01*
X024533Y007497D02*
X024456Y007574D01*
X024456Y007957D01*
X024686Y007957D01*
X024763Y007881D01*
X024763Y007727D01*
X024686Y007650D01*
X024456Y007650D01*
X024303Y007650D02*
X024303Y008111D01*
X024226Y007957D02*
X024073Y007957D01*
X023996Y007881D01*
X023996Y007650D01*
X023766Y007727D02*
X023766Y008034D01*
X023842Y007957D02*
X023689Y007957D01*
X023766Y007727D02*
X023689Y007650D01*
X024226Y007957D02*
X024303Y007881D01*
X024917Y007650D02*
X025070Y007650D01*
X024993Y007650D02*
X024993Y007957D01*
X025070Y007957D01*
X025224Y007957D02*
X025300Y007957D01*
X025454Y007804D01*
X025454Y007957D02*
X025454Y007650D01*
X025607Y007650D02*
X025837Y007650D01*
X025914Y007727D01*
X025914Y007957D01*
X026068Y007881D02*
X026068Y007727D01*
X026144Y007650D01*
X026375Y007650D01*
X026375Y007497D02*
X026375Y007957D01*
X026144Y007957D01*
X026068Y007881D01*
X026528Y007881D02*
X026528Y007727D01*
X026605Y007650D01*
X026758Y007650D01*
X026835Y007727D01*
X026835Y007881D01*
X026758Y007957D01*
X026605Y007957D01*
X026528Y007881D01*
X026988Y008034D02*
X027065Y008111D01*
X027219Y008111D01*
X027295Y008034D01*
X027295Y007727D01*
X027219Y007650D01*
X027065Y007650D01*
X026988Y007727D01*
X025761Y007497D02*
X025684Y007497D01*
X025607Y007574D01*
X025607Y007957D01*
X024993Y008111D02*
X024993Y008187D01*
X024610Y007497D02*
X024533Y007497D01*
X023075Y007727D02*
X022998Y007650D01*
X022768Y007650D01*
X022768Y007957D02*
X022998Y007957D01*
X023075Y007881D01*
X023075Y007727D01*
X022154Y007650D02*
X021847Y007957D01*
X021847Y008034D01*
X021924Y008111D01*
X022078Y008111D01*
X022154Y008034D01*
X022154Y007650D02*
X021847Y007650D01*
X021694Y007727D02*
X021387Y008034D01*
X021387Y007727D01*
X021464Y007650D01*
X021617Y007650D01*
X021694Y007727D01*
X021694Y008034D01*
X021617Y008111D01*
X021464Y008111D01*
X021387Y008034D01*
X021234Y007957D02*
X021080Y008111D01*
X021080Y007650D01*
X020927Y007650D02*
X021234Y007650D01*
X020773Y007650D02*
X020466Y007957D01*
X020466Y008034D01*
X020543Y008111D01*
X020696Y008111D01*
X020773Y008034D01*
X020773Y007650D02*
X020466Y007650D01*
X019421Y007804D02*
X019268Y007650D01*
X019114Y007804D01*
X019114Y008111D01*
X018884Y007957D02*
X018731Y007957D01*
X018654Y007881D01*
X018654Y007650D01*
X018884Y007650D01*
X018961Y007727D01*
X018884Y007804D01*
X018654Y007804D01*
X018501Y007957D02*
X018501Y007650D01*
X018501Y007957D02*
X018270Y007957D01*
X018194Y007881D01*
X018194Y007650D01*
X018040Y007727D02*
X018040Y007881D01*
X017963Y007957D01*
X017733Y007957D01*
X017733Y008111D02*
X017733Y007650D01*
X017963Y007650D01*
X018040Y007727D01*
X017580Y007727D02*
X017580Y007881D01*
X017503Y007957D01*
X017350Y007957D01*
X017273Y007881D01*
X017273Y007804D01*
X017580Y007804D01*
X017580Y007727D02*
X017503Y007650D01*
X017350Y007650D01*
X017119Y007650D02*
X017119Y007957D01*
X017119Y007804D02*
X016966Y007957D01*
X016889Y007957D01*
X016736Y007957D02*
X016506Y007957D01*
X016429Y007881D01*
X016429Y007727D01*
X016506Y007650D01*
X016736Y007650D01*
X016736Y008111D01*
X016275Y007957D02*
X016199Y007957D01*
X016199Y007650D01*
X016275Y007650D02*
X016122Y007650D01*
X015968Y007650D02*
X015815Y007650D01*
X015892Y007650D02*
X015892Y008111D01*
X015968Y008111D01*
X016199Y008111D02*
X016199Y008187D01*
X015661Y007957D02*
X015508Y007957D01*
X015585Y008034D02*
X015585Y007727D01*
X015508Y007650D01*
X014894Y007727D02*
X014817Y007650D01*
X014664Y007650D01*
X014587Y007727D01*
X014587Y008111D01*
X014434Y007957D02*
X014204Y007957D01*
X014127Y007881D01*
X014127Y007650D01*
X013973Y007650D02*
X013820Y007650D01*
X013897Y007650D02*
X013897Y007957D01*
X013973Y007957D01*
X013897Y008111D02*
X013897Y008187D01*
X013666Y007957D02*
X013513Y007650D01*
X013360Y007957D01*
X013206Y007881D02*
X013129Y007957D01*
X012976Y007957D01*
X012899Y007881D01*
X012899Y007804D01*
X013206Y007804D01*
X013206Y007727D02*
X013206Y007881D01*
X013206Y007727D02*
X013129Y007650D01*
X012976Y007650D01*
X012746Y007650D02*
X012746Y007957D01*
X012746Y007804D02*
X012592Y007957D01*
X012515Y007957D01*
X012362Y007881D02*
X012285Y007957D01*
X012055Y007957D01*
X011902Y007957D02*
X011825Y007957D01*
X011825Y007650D01*
X011902Y007650D02*
X011748Y007650D01*
X011518Y007727D02*
X011518Y008034D01*
X011595Y007957D02*
X011441Y007957D01*
X011288Y007957D02*
X011288Y007727D01*
X011211Y007650D01*
X010981Y007650D01*
X010981Y007574D02*
X011058Y007497D01*
X011134Y007497D01*
X010981Y007574D02*
X010981Y007957D01*
X010751Y007727D02*
X010751Y007650D01*
X010674Y007650D01*
X010674Y007727D01*
X010751Y007727D01*
X010674Y007650D02*
X010827Y007497D01*
X011441Y007650D02*
X011518Y007727D01*
X011825Y008111D02*
X011825Y008187D01*
X012132Y007804D02*
X012285Y007804D01*
X012362Y007881D01*
X012362Y007650D02*
X012132Y007650D01*
X012055Y007727D01*
X012132Y007804D01*
X010060Y007650D02*
X009907Y007650D01*
X009983Y007650D02*
X009983Y008111D01*
X009907Y008111D02*
X010060Y008111D01*
X009753Y008034D02*
X009753Y007957D01*
X009676Y007881D01*
X009523Y007881D01*
X009446Y007804D01*
X009446Y007727D01*
X009523Y007650D01*
X009676Y007650D01*
X009753Y007727D01*
X009753Y008034D02*
X009676Y008111D01*
X009523Y008111D01*
X009446Y008034D01*
X009293Y008111D02*
X009139Y008111D01*
X009216Y008111D02*
X009216Y007650D01*
X009293Y007650D02*
X009139Y007650D01*
X008986Y007727D02*
X008909Y007650D01*
X008756Y007650D01*
X008679Y007727D01*
X008679Y007804D01*
X008756Y007881D01*
X008909Y007881D01*
X008986Y007957D01*
X008986Y008034D01*
X008909Y008111D01*
X008756Y008111D01*
X008679Y008034D01*
X013121Y009914D02*
X013121Y010144D01*
X013198Y010221D01*
X013275Y010144D01*
X013275Y009914D01*
X013428Y009914D02*
X013428Y010221D01*
X013351Y010221D01*
X013275Y010144D01*
X013582Y010221D02*
X013658Y010221D01*
X013812Y010068D01*
X013812Y010221D02*
X013812Y009914D01*
X013965Y009991D02*
X013965Y010144D01*
X014042Y010221D01*
X014195Y010221D01*
X014272Y010144D01*
X014272Y009991D01*
X014195Y009914D01*
X014042Y009914D01*
X013965Y009991D01*
X014426Y010144D02*
X014579Y010144D01*
X014502Y010298D02*
X014426Y010374D01*
X014502Y010298D02*
X014502Y009914D01*
X014733Y009914D02*
X014809Y009991D01*
X014809Y010298D01*
X014886Y010221D02*
X014733Y010221D01*
X015040Y010144D02*
X015040Y009914D01*
X015270Y009914D01*
X015346Y009991D01*
X015270Y010068D01*
X015040Y010068D01*
X015040Y010144D02*
X015116Y010221D01*
X015270Y010221D01*
X015577Y010374D02*
X015577Y009914D01*
X015653Y009914D02*
X015500Y009914D01*
X015807Y009991D02*
X015807Y010144D01*
X015884Y010221D01*
X016114Y010221D01*
X016114Y009761D01*
X016114Y009914D02*
X015884Y009914D01*
X015807Y009991D01*
X015653Y010374D02*
X015577Y010374D01*
X015502Y010997D02*
X015425Y011074D01*
X015425Y011227D01*
X015502Y011304D01*
X015655Y011304D01*
X015732Y011227D01*
X015732Y011074D01*
X015655Y010997D01*
X015502Y010997D01*
X015271Y011074D02*
X015271Y011227D01*
X015195Y011304D01*
X014964Y011304D01*
X014811Y011304D02*
X014811Y011074D01*
X014734Y010997D01*
X014504Y010997D01*
X014504Y011304D01*
X014351Y011457D02*
X014274Y011457D01*
X014274Y010997D01*
X014351Y010997D02*
X014197Y010997D01*
X014044Y011074D02*
X014044Y011227D01*
X013967Y011304D01*
X013813Y011304D01*
X013737Y011227D01*
X013737Y011150D01*
X014044Y011150D01*
X014044Y011074D02*
X013967Y010997D01*
X013813Y010997D01*
X014964Y010997D02*
X015195Y010997D01*
X015271Y011074D01*
X014964Y010997D02*
X014964Y011457D01*
X014961Y011981D02*
X014654Y011981D01*
X014501Y011981D02*
X014424Y011981D01*
X014424Y012058D01*
X014501Y012058D01*
X014501Y011981D01*
X014271Y012058D02*
X014194Y011981D01*
X014040Y011981D01*
X013964Y012058D01*
X013964Y012211D01*
X014040Y012288D01*
X014117Y012288D01*
X014271Y012211D01*
X014271Y012441D01*
X013964Y012441D01*
X013350Y012365D02*
X013350Y012058D01*
X013273Y011981D01*
X013120Y011981D01*
X013043Y012058D01*
X013043Y012211D01*
X013196Y012211D01*
X013043Y012365D02*
X013120Y012441D01*
X013273Y012441D01*
X013350Y012365D01*
X012889Y012441D02*
X012889Y011981D01*
X012889Y012211D02*
X012583Y012211D01*
X012429Y012288D02*
X012122Y012288D01*
X012429Y011981D01*
X012122Y011981D01*
X012583Y011981D02*
X012583Y012441D01*
X014654Y012365D02*
X014654Y012288D01*
X014961Y011981D01*
X015115Y012211D02*
X015422Y012211D01*
X015575Y012211D02*
X015882Y012211D01*
X015652Y012441D01*
X015652Y011981D01*
X016035Y011981D02*
X016112Y011981D01*
X016112Y012058D01*
X016035Y012058D01*
X016035Y011981D01*
X016266Y011981D02*
X016573Y011981D01*
X016266Y012288D01*
X016266Y012365D01*
X016342Y012441D01*
X016496Y012441D01*
X016573Y012365D01*
X017186Y012211D02*
X017186Y012134D01*
X017493Y012134D01*
X017493Y012058D02*
X017493Y012211D01*
X017417Y012288D01*
X017263Y012288D01*
X017186Y012211D01*
X017263Y011981D02*
X017417Y011981D01*
X017493Y012058D01*
X017647Y011981D02*
X017877Y011981D01*
X017954Y012058D01*
X017954Y012211D01*
X017877Y012288D01*
X017647Y012288D01*
X017647Y012441D02*
X017647Y011981D01*
X018107Y011981D02*
X018261Y011981D01*
X018184Y011981D02*
X018184Y012288D01*
X018261Y012288D01*
X018414Y012288D02*
X018414Y012058D01*
X018491Y011981D01*
X018568Y012058D01*
X018644Y011981D01*
X018721Y012058D01*
X018721Y012288D01*
X018184Y012441D02*
X018184Y012518D01*
X019335Y012288D02*
X019642Y011981D01*
X019335Y011981D01*
X019335Y012288D02*
X019642Y012288D01*
X019795Y012211D02*
X020102Y012211D01*
X020102Y011981D02*
X020102Y012441D01*
X020256Y012441D02*
X020409Y012288D01*
X020563Y012441D01*
X020563Y011981D01*
X020256Y011981D02*
X020256Y012441D01*
X019795Y012441D02*
X019795Y011981D01*
X020105Y011457D02*
X020029Y011380D01*
X020029Y011304D01*
X020105Y011227D01*
X020336Y011227D01*
X020336Y011457D02*
X020105Y011457D01*
X020105Y011227D02*
X020029Y011150D01*
X020029Y011074D01*
X020105Y010997D01*
X020336Y010997D01*
X020336Y011457D01*
X020950Y011457D02*
X020950Y010997D01*
X021180Y010997D01*
X021256Y011074D01*
X021256Y011227D01*
X021180Y011304D01*
X020950Y011304D01*
X021410Y011227D02*
X021410Y010997D01*
X021410Y011227D02*
X021487Y011304D01*
X021717Y011304D01*
X021717Y010997D01*
X021870Y010997D02*
X022101Y010997D01*
X022177Y011074D01*
X022101Y011150D01*
X021870Y011150D01*
X021870Y011227D02*
X021870Y010997D01*
X021870Y011227D02*
X021947Y011304D01*
X022101Y011304D01*
X021944Y011981D02*
X021637Y011981D01*
X021790Y011981D02*
X021790Y012441D01*
X021944Y012288D01*
X022097Y012211D02*
X022404Y012211D01*
X022558Y012211D02*
X022558Y012058D01*
X022634Y011981D01*
X022788Y011981D01*
X022865Y012058D01*
X023018Y012058D02*
X023018Y011981D01*
X023095Y011981D01*
X023095Y012058D01*
X023018Y012058D01*
X022865Y012211D02*
X022711Y012288D01*
X022634Y012288D01*
X022558Y012211D01*
X022558Y012441D02*
X022865Y012441D01*
X022865Y012211D01*
X023248Y012365D02*
X023555Y012058D01*
X023555Y011981D01*
X023555Y012441D02*
X023248Y012441D01*
X023248Y012365D01*
X021483Y012365D02*
X021483Y012288D01*
X021407Y012211D01*
X021253Y012211D01*
X021177Y012134D01*
X021177Y012058D01*
X021253Y011981D01*
X021407Y011981D01*
X021483Y012058D01*
X021483Y012134D01*
X021407Y012211D01*
X021253Y012211D02*
X021177Y012288D01*
X021177Y012365D01*
X021253Y012441D01*
X021407Y012441D01*
X021483Y012365D01*
X019799Y011304D02*
X019645Y011304D01*
X019568Y011227D01*
X019568Y010997D01*
X019799Y010997D01*
X019875Y011074D01*
X019799Y011150D01*
X019568Y011150D01*
X019415Y011227D02*
X019338Y011304D01*
X019108Y011304D01*
X018954Y011227D02*
X018878Y011304D01*
X018724Y011304D01*
X018648Y011227D01*
X018648Y011150D01*
X018954Y011150D01*
X018954Y011074D02*
X018954Y011227D01*
X018954Y011074D02*
X018878Y010997D01*
X018724Y010997D01*
X018494Y010997D02*
X018264Y010997D01*
X018187Y011074D01*
X018187Y011227D01*
X018264Y011304D01*
X018494Y011304D01*
X018494Y011457D02*
X018494Y010997D01*
X019108Y011074D02*
X019185Y011150D01*
X019338Y011150D01*
X019415Y011227D01*
X019415Y010997D02*
X019185Y010997D01*
X019108Y011074D01*
X019260Y010374D02*
X019260Y009914D01*
X019106Y009991D02*
X019030Y010068D01*
X018799Y010068D01*
X018799Y010144D02*
X018799Y009914D01*
X019030Y009914D01*
X019106Y009991D01*
X019030Y010221D02*
X018876Y010221D01*
X018799Y010144D01*
X018646Y010068D02*
X018492Y010221D01*
X018416Y010221D01*
X018262Y010221D02*
X018186Y010221D01*
X018109Y010144D01*
X018032Y010221D01*
X017955Y010144D01*
X017955Y009914D01*
X018109Y009914D02*
X018109Y010144D01*
X018262Y010221D02*
X018262Y009914D01*
X018646Y009914D02*
X018646Y010221D01*
X019260Y010374D02*
X019413Y010221D01*
X019567Y010374D01*
X019567Y009914D01*
X020181Y010068D02*
X020488Y010068D01*
X020488Y010144D02*
X020411Y010221D01*
X020257Y010221D01*
X020181Y010144D01*
X020181Y010068D01*
X020257Y009914D02*
X020411Y009914D01*
X020488Y009991D01*
X020488Y010144D01*
X020641Y010144D02*
X020641Y009914D01*
X020641Y010144D02*
X020718Y010221D01*
X020871Y010221D01*
X020948Y010144D01*
X021101Y010221D02*
X021255Y010221D01*
X021178Y010298D02*
X021178Y009991D01*
X021101Y009914D01*
X020948Y009914D02*
X020948Y010374D01*
X021869Y010221D02*
X021945Y010221D01*
X022099Y010068D01*
X022099Y010221D02*
X022099Y009914D01*
X022252Y009991D02*
X022252Y010144D01*
X022329Y010221D01*
X022483Y010221D01*
X022559Y010144D01*
X022559Y009991D01*
X022483Y009914D01*
X022329Y009914D01*
X022252Y009991D01*
X022713Y010144D02*
X022866Y010144D01*
X022789Y010298D02*
X022713Y010374D01*
X022789Y010298D02*
X022789Y009914D01*
X019421Y008111D02*
X019421Y007804D01*
X020638Y006875D02*
X020638Y006568D01*
X017725Y009914D02*
X017572Y009914D01*
X017495Y009991D01*
X017495Y010144D01*
X017572Y010221D01*
X017725Y010221D01*
X017802Y010144D01*
X017802Y009991D01*
X017725Y009914D01*
X017265Y009991D02*
X017265Y010298D01*
X017342Y010221D02*
X017188Y010221D01*
X017035Y010144D02*
X016958Y010221D01*
X016804Y010221D01*
X016728Y010144D01*
X016728Y010068D01*
X017035Y010068D01*
X017035Y010144D02*
X017035Y009991D01*
X016958Y009914D01*
X016804Y009914D01*
X017188Y009914D02*
X017265Y009991D01*
X017266Y010997D02*
X017266Y011227D01*
X017343Y011304D01*
X017573Y011304D01*
X017573Y010997D01*
X017727Y010997D02*
X017727Y011227D01*
X017804Y011304D01*
X017957Y011304D01*
X017957Y011150D02*
X017727Y011150D01*
X017727Y010997D02*
X017957Y010997D01*
X018034Y011074D01*
X017957Y011150D01*
X017113Y011074D02*
X017113Y011227D01*
X017036Y011304D01*
X016806Y011304D01*
X016806Y011457D02*
X016806Y010997D01*
X017036Y010997D01*
X017113Y011074D01*
X016192Y010997D02*
X016192Y011304D01*
X016115Y011304D01*
X016039Y011227D01*
X015962Y011304D01*
X015885Y011227D01*
X015885Y010997D01*
X016039Y010997D02*
X016039Y011227D01*
X014961Y012365D02*
X014884Y012441D01*
X014731Y012441D01*
X014654Y012365D01*
X014894Y008111D02*
X014894Y007727D01*
X014434Y007650D02*
X014434Y007957D01*
X027154Y003617D02*
X027460Y003617D01*
X027230Y003847D01*
X027230Y003387D01*
X027614Y003463D02*
X027691Y003387D01*
X027844Y003387D01*
X027921Y003463D01*
X027921Y003540D01*
X027844Y003617D01*
X027691Y003617D01*
X027614Y003540D01*
X027614Y003463D01*
X027691Y003617D02*
X027614Y003693D01*
X027614Y003770D01*
X027691Y003847D01*
X027844Y003847D01*
X027921Y003770D01*
X027921Y003693D01*
X027844Y003617D01*
X027844Y002319D02*
X027691Y002319D01*
X027614Y002243D01*
X027614Y002166D01*
X027691Y002089D01*
X027844Y002089D01*
X027921Y002166D01*
X027921Y002243D01*
X027844Y002319D01*
X027844Y002089D02*
X027921Y002012D01*
X027921Y001936D01*
X027844Y001859D01*
X027691Y001859D01*
X027614Y001936D01*
X027614Y002012D01*
X027691Y002089D01*
X027460Y001936D02*
X027384Y001859D01*
X027230Y001859D01*
X027154Y001936D01*
X027154Y002012D01*
X027230Y002089D01*
X027307Y002089D01*
X027230Y002089D02*
X027154Y002166D01*
X027154Y002243D01*
X027230Y002319D01*
X027384Y002319D01*
X027460Y002243D01*
D13*
X022551Y007807D02*
X022553Y007843D01*
X022559Y007879D01*
X022569Y007914D01*
X022582Y007948D01*
X022599Y007980D01*
X022619Y008010D01*
X022643Y008037D01*
X022669Y008062D01*
X022698Y008084D01*
X022729Y008103D01*
X022762Y008118D01*
X022796Y008130D01*
X022832Y008138D01*
X022868Y008142D01*
X022904Y008142D01*
X022940Y008138D01*
X022976Y008130D01*
X023010Y008118D01*
X023043Y008103D01*
X023074Y008084D01*
X023103Y008062D01*
X023129Y008037D01*
X023153Y008010D01*
X023173Y007980D01*
X023190Y007948D01*
X023203Y007914D01*
X023213Y007879D01*
X023219Y007843D01*
X023221Y007807D01*
X023219Y007771D01*
X023213Y007735D01*
X023203Y007700D01*
X023190Y007666D01*
X023173Y007634D01*
X023153Y007604D01*
X023129Y007577D01*
X023103Y007552D01*
X023074Y007530D01*
X023043Y007511D01*
X023010Y007496D01*
X022976Y007484D01*
X022940Y007476D01*
X022904Y007472D01*
X022868Y007472D01*
X022832Y007476D01*
X022796Y007484D01*
X022762Y007496D01*
X022729Y007511D01*
X022698Y007530D01*
X022669Y007552D01*
X022643Y007577D01*
X022619Y007604D01*
X022599Y007634D01*
X022582Y007666D01*
X022569Y007700D01*
X022559Y007735D01*
X022553Y007771D01*
X022551Y007807D01*
M02*
