G75*
G70*
%OFA0B0*%
%FSLAX24Y24*%
%IPPOS*%
%LPD*%
%AMOC8*
5,1,8,0,0,1.08239X$1,22.5*
%
%ADD10R,0.0512X0.0217*%
%ADD11R,0.0079X0.0394*%
%ADD12R,0.0394X0.0079*%
%ADD13R,0.0433X0.0394*%
%ADD14R,0.0394X0.0433*%
%ADD15R,0.0591X0.0591*%
%ADD16R,0.0354X0.0354*%
%ADD17R,0.0748X0.0433*%
%ADD18R,0.0472X0.0394*%
%ADD19R,0.0157X0.0531*%
%ADD20R,0.0630X0.0748*%
%ADD21R,0.0827X0.0787*%
%ADD22R,0.0472X0.0748*%
%ADD23R,0.0276X0.0472*%
%ADD24R,0.0394X0.0472*%
%ADD25R,0.0394X0.0315*%
%ADD26R,0.0394X0.1102*%
%ADD27R,0.0512X0.0748*%
%ADD28R,0.0276X0.0098*%
%ADD29R,0.0197X0.0472*%
%ADD30R,0.0098X0.0276*%
%ADD31R,0.1181X0.0551*%
%ADD32R,0.0394X0.0217*%
%ADD33R,0.0091X0.0193*%
%ADD34R,0.0102X0.0091*%
%ADD35R,0.0217X0.0394*%
%ADD36R,0.0400X0.0500*%
%ADD37R,0.0236X0.0472*%
%ADD38R,0.1000X0.0300*%
%ADD39R,0.0630X0.1535*%
%ADD40R,0.0236X0.0906*%
%ADD41R,0.0709X0.0295*%
%ADD42R,0.0709X0.0236*%
%ADD43R,0.0354X0.0512*%
%ADD44R,0.0630X0.0394*%
D10*
X013290Y004943D03*
X014274Y004943D03*
X014274Y005317D03*
X014274Y005691D03*
X013290Y005691D03*
X013290Y006951D03*
X014274Y006951D03*
X014274Y007325D03*
X014274Y007699D03*
X013290Y007699D03*
X014038Y011794D03*
X014038Y012168D03*
X014038Y012542D03*
X015022Y012542D03*
X015022Y011794D03*
X021440Y007699D03*
X021440Y007325D03*
X021440Y006951D03*
X022424Y006951D03*
X022424Y007699D03*
X022424Y005691D03*
X022424Y004943D03*
X021440Y004943D03*
X021440Y005317D03*
X021440Y005691D03*
D11*
X010396Y009707D03*
X010199Y009707D03*
X010003Y009707D03*
X009806Y009707D03*
X009609Y009707D03*
X009412Y009707D03*
X009215Y009707D03*
X009018Y009707D03*
X008821Y009707D03*
X008625Y009707D03*
X008428Y009707D03*
X008231Y009707D03*
X008231Y013251D03*
X008428Y013251D03*
X008625Y013251D03*
X008821Y013251D03*
X009018Y013251D03*
X009215Y013251D03*
X009412Y013251D03*
X009609Y013251D03*
X009806Y013251D03*
X010003Y013251D03*
X010199Y013251D03*
X010396Y013251D03*
D12*
X011085Y012562D03*
X011085Y012365D03*
X011085Y012168D03*
X011085Y011971D03*
X011085Y011774D03*
X011085Y011577D03*
X011085Y011380D03*
X011085Y011184D03*
X011085Y010987D03*
X011085Y010790D03*
X011085Y010593D03*
X011085Y010396D03*
X007542Y010396D03*
X007542Y010593D03*
X007542Y010790D03*
X007542Y010987D03*
X007542Y011184D03*
X007542Y011380D03*
X007542Y011577D03*
X007542Y011774D03*
X007542Y011971D03*
X007542Y012168D03*
X007542Y012365D03*
X007542Y012562D03*
D13*
X005357Y011853D03*
X005357Y011184D03*
X004688Y008920D03*
X004688Y008251D03*
X006794Y008073D03*
X006794Y007404D03*
X006577Y006479D03*
X006577Y005810D03*
X005790Y005810D03*
X005790Y006479D03*
X010377Y007148D03*
X010377Y007817D03*
X012562Y007660D03*
X012562Y006991D03*
X012562Y005652D03*
X012562Y004983D03*
X012522Y010495D03*
X013310Y010495D03*
X014097Y010495D03*
X014884Y010495D03*
X014884Y011164D03*
X014097Y011164D03*
X013310Y011164D03*
X012522Y011164D03*
X012286Y012227D03*
X013073Y012227D03*
X013073Y012896D03*
X012286Y012896D03*
X011459Y012936D03*
X011459Y013605D03*
X013940Y013723D03*
X013940Y014392D03*
X016341Y014392D03*
X016341Y013723D03*
X017955Y013920D03*
X017955Y014589D03*
X019924Y014589D03*
X019924Y013920D03*
X021420Y012345D03*
X021420Y011676D03*
X022207Y011873D03*
X022995Y011873D03*
X022995Y012542D03*
X022207Y012542D03*
X020160Y012069D03*
X020160Y011400D03*
X017758Y011400D03*
X017758Y012069D03*
X015672Y011754D03*
X015672Y012424D03*
X021518Y015475D03*
X021518Y016144D03*
X023979Y016046D03*
X023979Y015377D03*
X025160Y014629D03*
X025160Y013959D03*
X025947Y013959D03*
X025947Y014629D03*
X024963Y012798D03*
X024963Y012129D03*
X023152Y007660D03*
X023152Y006991D03*
X023152Y005652D03*
X023152Y004983D03*
X008625Y016164D03*
X008625Y016833D03*
X007837Y016833D03*
X007050Y016833D03*
X007050Y016164D03*
X007837Y016164D03*
D14*
X005573Y017129D03*
X004904Y017129D03*
X007109Y013546D03*
X007778Y013546D03*
X006794Y010869D03*
X006125Y010869D03*
X006125Y010081D03*
X006794Y010081D03*
X006853Y008959D03*
X006184Y008959D03*
X008959Y007148D03*
X009629Y007148D03*
X022503Y006302D03*
X023172Y006302D03*
X023172Y008310D03*
X022503Y008310D03*
X027798Y010987D03*
X028467Y010987D03*
D15*
X004983Y021420D03*
X003605Y021420D03*
X002621Y021420D03*
X001243Y021420D03*
D16*
X001932Y021164D03*
X004294Y021164D03*
D17*
X007699Y008940D03*
X007699Y007955D03*
D18*
X008959Y007916D03*
X009629Y007916D03*
X009629Y008428D03*
X008959Y008428D03*
D19*
X008152Y020367D03*
X007896Y020367D03*
X007640Y020367D03*
X007384Y020367D03*
X007129Y020367D03*
D20*
X006026Y021420D03*
X009254Y021420D03*
D21*
X008861Y020495D03*
X006420Y020495D03*
D22*
X007306Y021420D03*
X007975Y021420D03*
D23*
X012546Y015420D03*
X012979Y015420D03*
X013412Y015420D03*
X013845Y015420D03*
X014278Y015420D03*
X014711Y015420D03*
X015144Y015420D03*
X015577Y015420D03*
X015951Y015420D03*
D24*
X016325Y017113D03*
X011936Y015420D03*
D25*
X016325Y019554D03*
D26*
X016325Y021188D03*
D27*
X011010Y021365D03*
D28*
X022434Y016095D03*
X022434Y015918D03*
X022434Y015741D03*
X022434Y015564D03*
X023162Y015564D03*
X023162Y015741D03*
X023162Y015918D03*
X023162Y016095D03*
D29*
X022798Y015829D03*
D30*
X022601Y014629D03*
X022404Y014629D03*
X022207Y014629D03*
X022010Y014629D03*
X021814Y014629D03*
X021617Y014629D03*
X021420Y014629D03*
X021420Y013487D03*
X021617Y013487D03*
X021814Y013487D03*
X022010Y013487D03*
X022207Y013487D03*
X022404Y013487D03*
X022601Y013487D03*
X028034Y010367D03*
X028231Y010367D03*
X028428Y010367D03*
X028428Y009245D03*
X028231Y009245D03*
X028034Y009245D03*
D31*
X022010Y014058D03*
D32*
X019412Y012109D03*
X019412Y011735D03*
X019412Y011361D03*
X018467Y011361D03*
X018467Y012109D03*
X015593Y013684D03*
X015593Y014058D03*
X015593Y014432D03*
X014648Y014432D03*
X014648Y013684D03*
X025888Y012936D03*
X026794Y012562D03*
X025888Y012188D03*
D33*
G36*
X017329Y013129D02*
X017266Y013192D01*
X017401Y013327D01*
X017464Y013264D01*
X017329Y013129D01*
G37*
G36*
X017076Y012875D02*
X017013Y012938D01*
X017148Y013073D01*
X017211Y013010D01*
X017076Y012875D01*
G37*
G36*
X016895Y013056D02*
X016832Y013119D01*
X016967Y013254D01*
X017030Y013191D01*
X016895Y013056D01*
G37*
G36*
X017148Y013310D02*
X017085Y013373D01*
X017220Y013508D01*
X017283Y013445D01*
X017148Y013310D01*
G37*
D34*
G36*
X017084Y013374D02*
X017013Y013445D01*
X017076Y013508D01*
X017147Y013437D01*
X017084Y013374D01*
G37*
G36*
X016903Y013193D02*
X016832Y013264D01*
X016895Y013327D01*
X016966Y013256D01*
X016903Y013193D01*
G37*
G36*
X017220Y012875D02*
X017149Y012946D01*
X017212Y013009D01*
X017283Y012938D01*
X017220Y012875D01*
G37*
G36*
X017401Y013056D02*
X017330Y013127D01*
X017393Y013190D01*
X017464Y013119D01*
X017401Y013056D01*
G37*
D35*
X018566Y013782D03*
X018940Y013782D03*
X019314Y013782D03*
X019314Y014727D03*
X018566Y014727D03*
X023211Y016597D03*
X023959Y016597D03*
X023585Y017503D03*
X023979Y014825D03*
X024353Y013920D03*
X023605Y013920D03*
X023979Y013211D03*
X024353Y012306D03*
X023605Y012306D03*
D36*
X028231Y009806D03*
D37*
X007817Y017817D03*
X007443Y017817D03*
X007069Y017817D03*
X007069Y018723D03*
X007443Y018723D03*
X007817Y018723D03*
D38*
X003357Y013365D03*
X003357Y012865D03*
X003357Y012365D03*
X003357Y011865D03*
X003357Y011365D03*
X001687Y011365D03*
X001687Y011865D03*
X001687Y012365D03*
X001687Y012865D03*
X001687Y013365D03*
D39*
X018369Y015869D03*
X019510Y015869D03*
D40*
X019648Y003644D03*
X019254Y003644D03*
X018861Y003644D03*
X018467Y003644D03*
X018073Y003644D03*
X017680Y003644D03*
X017286Y003644D03*
X016892Y003644D03*
X016499Y003644D03*
X016105Y003644D03*
X015711Y003644D03*
X015317Y003644D03*
X014924Y003644D03*
X014530Y003644D03*
X014136Y003644D03*
X013743Y003644D03*
X013349Y003644D03*
X012955Y003644D03*
X012562Y003644D03*
X012168Y003644D03*
X011774Y003644D03*
X011380Y003644D03*
X010987Y003644D03*
X010593Y003644D03*
X010199Y003644D03*
X009806Y003644D03*
X009806Y002188D03*
X010199Y002188D03*
X010593Y002188D03*
X010987Y002188D03*
X011380Y002188D03*
X011774Y002188D03*
X012168Y002188D03*
X012562Y002188D03*
X012955Y002188D03*
X013349Y002188D03*
X013743Y002188D03*
X014136Y002188D03*
X014530Y002188D03*
X014924Y002188D03*
X015317Y002188D03*
X015711Y002188D03*
X016105Y002188D03*
X016499Y002188D03*
X016892Y002188D03*
X017286Y002188D03*
X017680Y002188D03*
X018073Y002188D03*
X018467Y002188D03*
X018861Y002188D03*
X019254Y002188D03*
X019648Y002188D03*
X020042Y002188D03*
X020436Y002188D03*
X020829Y002188D03*
X021223Y002188D03*
X021617Y002188D03*
X022010Y002188D03*
X022404Y002188D03*
X022798Y002188D03*
X023191Y002188D03*
X023585Y002188D03*
X023979Y002188D03*
X024373Y002188D03*
X024766Y002188D03*
X025160Y002188D03*
X025554Y002188D03*
X025947Y002188D03*
X025947Y003644D03*
X025554Y003644D03*
X025160Y003644D03*
X024766Y003644D03*
X024373Y003644D03*
X023979Y003644D03*
X023585Y003644D03*
X023191Y003644D03*
X022798Y003644D03*
X022404Y003644D03*
X022010Y003644D03*
X021617Y003644D03*
X021223Y003644D03*
X020829Y003644D03*
X020436Y003644D03*
X020042Y003644D03*
D41*
X001794Y007552D03*
X001794Y008516D03*
D42*
X001794Y008034D03*
D43*
X001026Y007306D03*
X001026Y008762D03*
D44*
X004550Y005770D03*
X003644Y006459D03*
X004550Y007148D03*
M02*
