G75*
G70*
%OFA0B0*%
%FSLAX24Y24*%
%IPPOS*%
%LPD*%
%AMOC8*
5,1,8,0,0,1.08239X$1,22.5*
%
%ADD10R,0.0630X0.0709*%
%ADD11R,0.0390X0.0120*%
%ADD12R,0.0433X0.0394*%
%ADD13R,0.0394X0.0433*%
%ADD14R,0.0236X0.0866*%
%ADD15R,0.0709X0.0630*%
%ADD16R,0.0710X0.0630*%
%ADD17R,0.0630X0.0710*%
%ADD18R,0.0866X0.0236*%
%ADD19R,0.1024X0.0945*%
%ADD20R,0.0120X0.0390*%
%ADD21R,0.0906X0.0236*%
D10*
X026775Y007062D03*
X027878Y007062D03*
X027878Y008562D03*
X026775Y008562D03*
X030525Y006187D03*
X031628Y006187D03*
X033025Y005812D03*
X034128Y005812D03*
D11*
X031225Y006917D03*
X031225Y007173D03*
X031225Y007429D03*
X031225Y007684D03*
X031225Y007940D03*
X031225Y008196D03*
X031225Y008452D03*
X031225Y008708D03*
X028928Y008708D03*
X028928Y008452D03*
X028928Y008196D03*
X028928Y007940D03*
X028928Y007684D03*
X028928Y007429D03*
X028928Y007173D03*
X028928Y006917D03*
D12*
X003492Y008281D03*
X004161Y008281D03*
X004161Y009187D03*
X003492Y009187D03*
X003661Y013312D03*
X002992Y013312D03*
X003461Y014781D03*
X004130Y014781D03*
X004161Y015687D03*
X003492Y015687D03*
X003661Y019812D03*
X002992Y019812D03*
X003461Y021281D03*
X004130Y021281D03*
X004161Y022187D03*
X003492Y022187D03*
X003661Y026312D03*
X002992Y026312D03*
X008492Y033312D03*
X009161Y033312D03*
X009161Y034219D03*
X008492Y034219D03*
X013461Y023937D03*
X014130Y023937D03*
X025992Y014312D03*
X026661Y014312D03*
X026661Y013312D03*
X025992Y013312D03*
X027492Y011062D03*
X028161Y011062D03*
X028161Y009562D03*
X027492Y009562D03*
X025911Y009312D03*
X025242Y009312D03*
X025242Y008312D03*
X024661Y008312D03*
X023992Y008312D03*
X023992Y007312D03*
X024661Y007312D03*
X025242Y007312D03*
X025911Y007312D03*
X025911Y006312D03*
X025242Y006312D03*
X027492Y006062D03*
X028161Y006062D03*
X028161Y004562D03*
X027492Y004562D03*
X028117Y003187D03*
X028786Y003187D03*
X028786Y002312D03*
X028117Y002312D03*
X026661Y002312D03*
X025992Y002312D03*
X025992Y001312D03*
X026661Y001312D03*
X030492Y005219D03*
X031161Y005219D03*
X033242Y004937D03*
X033911Y004937D03*
X037992Y002312D03*
X038661Y002312D03*
X038661Y001312D03*
X037992Y001312D03*
X041867Y002937D03*
X042536Y002937D03*
X042536Y003812D03*
X041867Y003812D03*
X042036Y005562D03*
X041367Y005562D03*
X039661Y006312D03*
X038992Y006312D03*
X038992Y007312D03*
X039661Y007312D03*
X039661Y008312D03*
X038992Y008312D03*
X038992Y009312D03*
X039661Y009312D03*
X041367Y010062D03*
X042036Y010062D03*
X038661Y013312D03*
X037992Y013312D03*
X037992Y014312D03*
X038661Y014312D03*
X025911Y008312D03*
D13*
X024326Y009978D03*
X024326Y010647D03*
X024326Y005647D03*
X024326Y004978D03*
X031076Y009728D03*
X031076Y010397D03*
X036326Y010478D03*
X036326Y011147D03*
X037326Y011147D03*
X037326Y010478D03*
X037076Y009147D03*
X037076Y008478D03*
X038076Y008478D03*
X038076Y009147D03*
X038076Y007147D03*
X038076Y006478D03*
X037076Y006478D03*
X037076Y007147D03*
X035170Y005928D03*
X035170Y005259D03*
X036326Y005147D03*
X036326Y004478D03*
X037326Y004478D03*
X037326Y005147D03*
X043826Y005228D03*
X043826Y005897D03*
X046451Y003022D03*
X046451Y002353D03*
X047326Y002353D03*
X047326Y003022D03*
X043826Y009728D03*
X043826Y010397D03*
X037826Y017603D03*
X037826Y018272D03*
X036951Y018272D03*
X036951Y017603D03*
X035951Y020478D03*
X035951Y021147D03*
X035326Y021978D03*
X035326Y022647D03*
X034076Y022647D03*
X034076Y021978D03*
X033451Y021147D03*
X033451Y020478D03*
X032201Y020478D03*
X032201Y021147D03*
X031576Y021978D03*
X031576Y022647D03*
X030326Y022647D03*
X030326Y021978D03*
X029701Y021147D03*
X029701Y020478D03*
X030951Y020478D03*
X030951Y021147D03*
X029076Y021978D03*
X029076Y022647D03*
X032826Y022647D03*
X032826Y021978D03*
X034701Y021147D03*
X034701Y020478D03*
X036576Y021978D03*
X036576Y022647D03*
X038451Y021147D03*
X038451Y020478D03*
X039701Y020478D03*
X039701Y021147D03*
X039076Y021978D03*
X039076Y022647D03*
X040326Y022647D03*
X040326Y021978D03*
X041201Y021978D03*
X041201Y022647D03*
X042451Y022647D03*
X042451Y021978D03*
X041826Y021147D03*
X041826Y020478D03*
X043076Y020478D03*
X043076Y021147D03*
X014326Y019397D03*
X014326Y018728D03*
X013451Y018728D03*
X013451Y019397D03*
X004826Y018022D03*
X004826Y017353D03*
X002733Y015928D03*
X002733Y015259D03*
X004826Y011522D03*
X004826Y010853D03*
X002733Y009428D03*
X002733Y008759D03*
X013451Y010603D03*
X013451Y011272D03*
X014326Y011272D03*
X014326Y010603D03*
X002733Y021759D03*
X002733Y022428D03*
X004826Y023853D03*
X004826Y024522D03*
D14*
X004076Y025336D03*
X003576Y025336D03*
X003076Y025336D03*
X002576Y025336D03*
X002576Y023289D03*
X003076Y023289D03*
X003576Y023289D03*
X004076Y023289D03*
X004076Y018836D03*
X003576Y018836D03*
X003076Y018836D03*
X002576Y018836D03*
X002576Y016789D03*
X003076Y016789D03*
X003576Y016789D03*
X004076Y016789D03*
X004076Y012336D03*
X003576Y012336D03*
X003076Y012336D03*
X002576Y012336D03*
X002576Y010289D03*
X003076Y010289D03*
X003576Y010289D03*
X004076Y010289D03*
X025076Y010289D03*
X025576Y010289D03*
X026076Y010289D03*
X026576Y010289D03*
X026576Y012336D03*
X026076Y012336D03*
X025576Y012336D03*
X025076Y012336D03*
X025076Y005336D03*
X025576Y005336D03*
X026076Y005336D03*
X026576Y005336D03*
X026576Y003289D03*
X026076Y003289D03*
X025576Y003289D03*
X025076Y003289D03*
X038076Y003289D03*
X038576Y003289D03*
X039076Y003289D03*
X039576Y003289D03*
X039576Y005336D03*
X039076Y005336D03*
X038576Y005336D03*
X038076Y005336D03*
X040826Y006789D03*
X041326Y006789D03*
X041826Y006789D03*
X042326Y006789D03*
X042826Y006789D03*
X043326Y006789D03*
X043826Y006789D03*
X043826Y008836D03*
X043326Y008836D03*
X042826Y008836D03*
X042326Y008836D03*
X041826Y008836D03*
X041326Y008836D03*
X040826Y008836D03*
X039576Y010289D03*
X039076Y010289D03*
X038576Y010289D03*
X038076Y010289D03*
X038076Y012336D03*
X038576Y012336D03*
X039076Y012336D03*
X039576Y012336D03*
D15*
X045576Y003239D03*
X045576Y002136D03*
X015201Y010386D03*
X015201Y011489D03*
X015201Y018511D03*
X015201Y019614D03*
D16*
X013451Y017997D03*
X013451Y016878D03*
X013451Y013122D03*
X013451Y012003D03*
D17*
X013261Y007937D03*
X012142Y007937D03*
X012142Y022437D03*
X013261Y022437D03*
X048267Y003187D03*
X049386Y003187D03*
X057267Y024312D03*
X058386Y024312D03*
X058386Y025437D03*
X057267Y025437D03*
D18*
X046975Y010062D03*
X046975Y009562D03*
X046975Y009062D03*
X046975Y008562D03*
X046975Y007062D03*
X046975Y006562D03*
X046975Y006062D03*
X046975Y005562D03*
X044928Y005562D03*
X044928Y006062D03*
X044928Y006562D03*
X044928Y007062D03*
X044928Y008562D03*
X044928Y009062D03*
X044928Y009562D03*
X044928Y010062D03*
D19*
X010586Y036312D03*
X008067Y036312D03*
D20*
X034431Y008961D03*
X034687Y008961D03*
X034943Y008961D03*
X035199Y008961D03*
X035454Y008961D03*
X035710Y008961D03*
X035966Y008961D03*
X036222Y008961D03*
X036222Y006664D03*
X035966Y006664D03*
X035710Y006664D03*
X035454Y006664D03*
X035199Y006664D03*
X034943Y006664D03*
X034687Y006664D03*
X034431Y006664D03*
D21*
X023055Y006747D03*
X023055Y006354D03*
X023055Y005960D03*
X023055Y007141D03*
X023055Y007535D03*
X023055Y007929D03*
X023055Y008322D03*
X023055Y008716D03*
X023055Y009110D03*
X023055Y009503D03*
X023055Y009897D03*
X023055Y010291D03*
X023055Y010684D03*
X023055Y011078D03*
X023055Y011472D03*
X023055Y011866D03*
X023055Y012259D03*
X023055Y012653D03*
X023055Y013047D03*
X023055Y013440D03*
X023055Y013834D03*
X023055Y014228D03*
X023055Y014621D03*
X023055Y015015D03*
X023055Y015409D03*
X023055Y015803D03*
X023055Y016196D03*
X023055Y016590D03*
X023055Y016984D03*
X023055Y017377D03*
X023055Y017771D03*
X023055Y018165D03*
X021598Y018165D03*
X021598Y017771D03*
X021598Y017377D03*
X021598Y016984D03*
X021598Y016590D03*
X021598Y016196D03*
X021598Y015803D03*
X021598Y015409D03*
X021598Y015015D03*
X021598Y014621D03*
X021598Y014228D03*
X021598Y013834D03*
X021598Y013440D03*
X021598Y013047D03*
X021598Y012653D03*
X021598Y012259D03*
X021598Y011866D03*
X021598Y011472D03*
X021598Y011078D03*
X021598Y010684D03*
X021598Y010291D03*
X021598Y009897D03*
X021598Y009503D03*
X021598Y009110D03*
X021598Y008716D03*
X021598Y008322D03*
X021598Y007929D03*
X021598Y007535D03*
X021598Y007141D03*
X021598Y006747D03*
X021598Y006354D03*
X021598Y005960D03*
X048348Y005960D03*
X048348Y006354D03*
X048348Y006747D03*
X048348Y007141D03*
X048348Y007535D03*
X048348Y007929D03*
X048348Y008322D03*
X048348Y008716D03*
X048348Y009110D03*
X048348Y009503D03*
X048348Y009897D03*
X048348Y010291D03*
X048348Y010684D03*
X048348Y011078D03*
X048348Y011472D03*
X048348Y011866D03*
X048348Y012259D03*
X048348Y012653D03*
X048348Y013047D03*
X048348Y013440D03*
X048348Y013834D03*
X048348Y014228D03*
X048348Y014621D03*
X048348Y015015D03*
X048348Y015409D03*
X048348Y015803D03*
X048348Y016196D03*
X048348Y016590D03*
X048348Y016984D03*
X048348Y017377D03*
X048348Y017771D03*
X048348Y018165D03*
X049805Y018165D03*
X049805Y017771D03*
X049805Y017377D03*
X049805Y016984D03*
X049805Y016590D03*
X049805Y016196D03*
X049805Y015803D03*
X049805Y015409D03*
X049805Y015015D03*
X049805Y014621D03*
X049805Y014228D03*
X049805Y013834D03*
X049805Y013440D03*
X049805Y013047D03*
X049805Y012653D03*
X049805Y012259D03*
X049805Y011866D03*
X049805Y011472D03*
X049805Y011078D03*
X049805Y010684D03*
X049805Y010291D03*
X049805Y009897D03*
X049805Y009503D03*
X049805Y009110D03*
X049805Y008716D03*
X049805Y008322D03*
X049805Y007929D03*
X049805Y007535D03*
X049805Y007141D03*
X049805Y006747D03*
X049805Y006354D03*
X049805Y005960D03*
M02*
