G75*
G70*
%OFA0B0*%
%FSLAX24Y24*%
%IPPOS*%
%LPD*%
%AMOC8*
5,1,8,0,0,1.08239X$1,22.5*
%
%ADD10C,0.1817*%
%ADD11C,0.1620*%
%ADD12C,0.0317*%
%ADD13R,0.0317X0.0317*%
%ADD14R,0.0540X0.0540*%
%ADD15C,0.0540*%
%ADD16C,0.0436*%
%ADD17C,0.0160*%
%ADD18C,0.0320*%
%ADD19C,0.0640*%
D10*
X006260Y035352D03*
D11*
X005039Y033462D03*
X003779Y035352D03*
D12*
X031076Y025062D03*
X031576Y025062D03*
X031576Y024562D03*
X032076Y024562D03*
X032076Y025062D03*
X032576Y025062D03*
X032576Y024562D03*
X033076Y024562D03*
X033076Y025062D03*
X033576Y025062D03*
X033576Y024562D03*
X034076Y024562D03*
X034076Y025062D03*
X034576Y025062D03*
X034576Y024562D03*
X035076Y024562D03*
X035076Y025062D03*
X035576Y025062D03*
X035576Y024562D03*
X036076Y024562D03*
X036076Y025062D03*
X036576Y025062D03*
X036576Y024562D03*
X037076Y024562D03*
X037076Y025062D03*
X037576Y025062D03*
X037576Y024562D03*
X038076Y024562D03*
X038076Y025062D03*
X038576Y025062D03*
X038576Y024562D03*
X039076Y024562D03*
X039076Y025062D03*
X039576Y025062D03*
X039576Y024562D03*
X040076Y024562D03*
X040076Y025062D03*
X040576Y025062D03*
X040576Y024562D03*
X041076Y024562D03*
X041076Y025062D03*
X041576Y025062D03*
X041576Y024562D03*
X042076Y024562D03*
X042076Y025062D03*
X042576Y025062D03*
X042576Y024562D03*
X043076Y024562D03*
X043076Y025062D03*
X043576Y025062D03*
X043576Y024562D03*
X044076Y024562D03*
X044076Y025062D03*
X044576Y025062D03*
X044576Y024562D03*
X045076Y024562D03*
X045076Y025062D03*
X045576Y025062D03*
X045576Y024562D03*
X046076Y024562D03*
X046076Y025062D03*
X046576Y025062D03*
X046576Y024562D03*
X047076Y024562D03*
X047076Y025062D03*
X047576Y025062D03*
X047576Y024562D03*
X048076Y024562D03*
X048076Y025062D03*
X048576Y025062D03*
X048576Y024562D03*
X049076Y024562D03*
X049076Y025062D03*
X049576Y025062D03*
X049576Y024562D03*
X050076Y024562D03*
X050076Y025062D03*
X050576Y025062D03*
X050576Y024562D03*
X051076Y024562D03*
X051076Y025062D03*
X051576Y025062D03*
X051576Y024562D03*
X052076Y024562D03*
X052076Y025062D03*
X052576Y025062D03*
X052576Y024562D03*
X053076Y024562D03*
X053076Y025062D03*
X053576Y025062D03*
X053576Y024562D03*
X054076Y024562D03*
X054076Y025062D03*
X054576Y025062D03*
X054576Y024562D03*
X055076Y024562D03*
X055076Y025062D03*
X055576Y025062D03*
X055576Y024562D03*
D13*
X031076Y024562D03*
D14*
X006201Y020437D03*
D15*
X006201Y019437D03*
X006201Y018437D03*
X006201Y017437D03*
X006201Y016437D03*
X006201Y015437D03*
D16*
X004795Y016750D03*
X005451Y018844D03*
X004295Y019812D03*
X004795Y023250D03*
X005451Y025312D03*
X004295Y026312D03*
X011389Y022437D03*
X014014Y022437D03*
X014670Y023937D03*
X013451Y024562D03*
X015858Y019625D03*
X015858Y018500D03*
X020826Y018187D03*
X020826Y017562D03*
X020826Y016812D03*
X020826Y016187D03*
X020826Y015531D03*
X020826Y015000D03*
X020826Y014437D03*
X020826Y012656D03*
X020826Y012000D03*
X020826Y011469D03*
X020201Y011437D03*
X020826Y010312D03*
X020826Y009719D03*
X020826Y009125D03*
X020826Y005969D03*
X025576Y004062D03*
X026076Y004062D03*
X026076Y004594D03*
X027608Y003187D03*
X029295Y003187D03*
X029295Y002312D03*
X032326Y006000D03*
X031764Y007531D03*
X030264Y007219D03*
X029514Y007687D03*
X031076Y009219D03*
X031076Y010906D03*
X034858Y008375D03*
X035576Y008375D03*
X035451Y007250D03*
X033951Y006562D03*
X035170Y004625D03*
X036326Y003844D03*
X037076Y005844D03*
X038576Y004062D03*
X039076Y004062D03*
X039076Y004562D03*
X041233Y002937D03*
X043170Y002937D03*
X043170Y003812D03*
X042733Y005437D03*
X042451Y006062D03*
X045576Y004000D03*
X044826Y002125D03*
X050139Y003187D03*
X050576Y005969D03*
X050576Y009125D03*
X050576Y009687D03*
X050576Y010281D03*
X050576Y011469D03*
X050576Y012000D03*
X051201Y011437D03*
X050576Y012656D03*
X050576Y014406D03*
X050576Y015000D03*
X050576Y015531D03*
X050576Y016187D03*
X050576Y016812D03*
X050576Y017562D03*
X050576Y018187D03*
X048076Y019937D03*
X048076Y021812D03*
X046264Y016719D03*
X045514Y015969D03*
X044920Y015375D03*
X044326Y014781D03*
X040076Y015187D03*
X037826Y017094D03*
X036951Y017094D03*
X037826Y019187D03*
X037201Y019562D03*
X036576Y019937D03*
X038451Y018812D03*
X039076Y018437D03*
X039701Y018062D03*
X040326Y018062D03*
X034764Y013875D03*
X035451Y012750D03*
X036326Y011781D03*
X037076Y009781D03*
X038576Y011062D03*
X039076Y011062D03*
X039076Y011562D03*
X042733Y010187D03*
X042451Y009562D03*
X034139Y015125D03*
X033514Y016312D03*
X032889Y017500D03*
X028826Y014812D03*
X027576Y014812D03*
X026076Y011594D03*
X026076Y011062D03*
X025576Y011062D03*
X029889Y006437D03*
X015951Y010375D03*
X015951Y011500D03*
X014014Y007937D03*
X011389Y007937D03*
X005420Y012344D03*
X004295Y013312D03*
X004795Y010219D03*
X023326Y019937D03*
X023326Y021687D03*
X009639Y036312D03*
X054576Y023187D03*
X056639Y024875D03*
X059139Y024312D03*
X059139Y025437D03*
D17*
X001284Y034812D02*
X001284Y000832D01*
X008647Y000832D01*
X008597Y000861D01*
X008375Y001083D01*
X008219Y001354D01*
X008138Y001656D01*
X008138Y001969D01*
X008219Y002271D01*
X008375Y002542D01*
X008597Y002764D01*
X008868Y002920D01*
X009170Y003001D01*
X009483Y003001D01*
X009785Y002920D01*
X010056Y002764D01*
X010278Y002542D01*
X010434Y002271D01*
X010515Y001969D01*
X010515Y001656D01*
X010434Y001354D01*
X010278Y001083D01*
X010056Y000861D01*
X010006Y000832D01*
X030647Y000832D01*
X030597Y000861D01*
X030375Y001083D01*
X030219Y001354D01*
X030138Y001656D01*
X030138Y001969D01*
X030219Y002271D01*
X030375Y002542D01*
X030597Y002764D01*
X030868Y002920D01*
X031170Y003001D01*
X031483Y003001D01*
X031785Y002920D01*
X032056Y002764D01*
X032278Y002542D01*
X032434Y002271D01*
X032515Y001969D01*
X032515Y001656D01*
X032434Y001354D01*
X032278Y001083D01*
X032056Y000861D01*
X032006Y000832D01*
X039647Y000832D01*
X039597Y000861D01*
X039375Y001083D01*
X039219Y001354D01*
X039138Y001656D01*
X039138Y001969D01*
X039219Y002271D01*
X039375Y002542D01*
X039597Y002764D01*
X039846Y002907D01*
X039371Y002907D01*
X039361Y002904D01*
X039315Y002907D01*
X039271Y002907D01*
X039261Y002912D01*
X039249Y002913D01*
X039209Y002933D01*
X039168Y002950D01*
X039160Y002958D01*
X039150Y002963D01*
X039121Y002997D01*
X039089Y003029D01*
X039085Y003039D01*
X038566Y003644D01*
X038493Y003644D01*
X038340Y003708D01*
X038222Y003826D01*
X038158Y003979D01*
X038158Y004146D01*
X038222Y004299D01*
X038296Y004374D01*
X038296Y010751D01*
X038222Y010826D01*
X038158Y010979D01*
X038158Y011146D01*
X038222Y011299D01*
X038340Y011417D01*
X038493Y011481D01*
X038658Y011481D01*
X038658Y011646D01*
X038722Y011799D01*
X038840Y011917D01*
X038993Y011981D01*
X039160Y011981D01*
X039313Y011917D01*
X039431Y011799D01*
X039495Y011646D01*
X039495Y011479D01*
X039471Y011422D01*
X041523Y011422D01*
X041655Y011368D01*
X041757Y011266D01*
X042382Y010641D01*
X042436Y010509D01*
X042436Y010482D01*
X042496Y010542D01*
X042650Y010606D01*
X042816Y010606D01*
X042970Y010542D01*
X043087Y010424D01*
X043151Y010271D01*
X043151Y010104D01*
X043087Y009951D01*
X042970Y009833D01*
X042818Y009770D01*
X042870Y009646D01*
X042870Y009479D01*
X042806Y009326D01*
X042688Y009208D01*
X042535Y009144D01*
X042368Y009144D01*
X042215Y009208D01*
X042097Y009326D01*
X042039Y009466D01*
X041873Y009632D01*
X041873Y009632D01*
X041771Y009734D01*
X041716Y009866D01*
X041716Y010288D01*
X041302Y010702D01*
X039300Y010702D01*
X039160Y010644D01*
X038993Y010644D01*
X038856Y010701D01*
X038856Y004924D01*
X038993Y004981D01*
X039160Y004981D01*
X039313Y004917D01*
X039431Y004799D01*
X039495Y004646D01*
X039495Y004479D01*
X039431Y004326D01*
X039418Y004312D01*
X039431Y004299D01*
X039495Y004146D01*
X039495Y003979D01*
X039431Y003826D01*
X039313Y003708D01*
X039266Y003688D01*
X039455Y003467D01*
X040927Y003467D01*
X041038Y003467D01*
X041141Y003425D01*
X041211Y003356D01*
X041316Y003356D01*
X041470Y003292D01*
X041587Y003174D01*
X041651Y003021D01*
X041651Y002854D01*
X041587Y002701D01*
X041470Y002583D01*
X041316Y002519D01*
X041291Y002519D01*
X041434Y002271D01*
X041515Y001969D01*
X041515Y001656D01*
X041434Y001354D01*
X041278Y001083D01*
X041056Y000861D01*
X041006Y000832D01*
X061647Y000832D01*
X061597Y000861D01*
X061375Y001083D01*
X061219Y001354D01*
X061138Y001656D01*
X061138Y001969D01*
X061219Y002271D01*
X061375Y002542D01*
X061597Y002764D01*
X061868Y002920D01*
X062170Y003001D01*
X062483Y003001D01*
X062785Y002920D01*
X063056Y002764D01*
X063278Y002542D01*
X063299Y002506D01*
X063299Y025725D01*
X012540Y025730D01*
X012536Y025730D01*
X012535Y025730D01*
X012344Y025809D01*
X012200Y025953D01*
X012198Y025955D01*
X012198Y025955D01*
X012153Y026065D01*
X012119Y026146D01*
X012119Y037288D01*
X001284Y037288D01*
X001284Y035892D01*
X001501Y036109D01*
X001830Y036245D01*
X002185Y036245D01*
X002514Y036109D01*
X002765Y035858D01*
X002842Y035672D01*
X002863Y035731D01*
X002911Y035832D01*
X002970Y035926D01*
X003040Y036013D01*
X003118Y036091D01*
X003205Y036161D01*
X003299Y036220D01*
X003400Y036268D01*
X003505Y036305D01*
X003613Y036330D01*
X003699Y036339D01*
X003699Y035432D01*
X003859Y035432D01*
X003859Y036339D01*
X003945Y036330D01*
X004054Y036305D01*
X004159Y036268D01*
X004259Y036220D01*
X004353Y036161D01*
X004440Y036091D01*
X004519Y036013D01*
X004588Y035926D01*
X004647Y035832D01*
X004695Y035731D01*
X004732Y035626D01*
X004757Y035518D01*
X004767Y035432D01*
X003859Y035432D01*
X003859Y035272D01*
X004767Y035272D01*
X004757Y035186D01*
X004732Y035077D01*
X004695Y034972D01*
X004647Y034872D01*
X004588Y034778D01*
X004519Y034691D01*
X004440Y034612D01*
X004353Y034543D01*
X004259Y034484D01*
X004159Y034436D01*
X004054Y034399D01*
X003945Y034374D01*
X003859Y034364D01*
X003859Y035272D01*
X003699Y035272D01*
X003699Y034364D01*
X003613Y034374D01*
X003505Y034399D01*
X003400Y034436D01*
X003299Y034484D01*
X003205Y034543D01*
X003118Y034612D01*
X003040Y034691D01*
X002970Y034778D01*
X002911Y034872D01*
X002863Y034972D01*
X002842Y035032D01*
X002765Y034846D01*
X002514Y034594D01*
X002185Y034458D01*
X001830Y034458D01*
X001501Y034594D01*
X001284Y034812D01*
X001284Y034716D02*
X001380Y034716D01*
X001284Y034558D02*
X001590Y034558D01*
X001284Y034399D02*
X003503Y034399D01*
X003699Y034399D02*
X003859Y034399D01*
X003859Y034558D02*
X003699Y034558D01*
X003699Y034716D02*
X003859Y034716D01*
X003859Y034875D02*
X003699Y034875D01*
X003699Y035033D02*
X003859Y035033D01*
X003859Y035192D02*
X003699Y035192D01*
X003859Y035351D02*
X005151Y035351D01*
X005151Y035206D02*
X005226Y034924D01*
X005372Y034671D01*
X005579Y034465D01*
X005832Y034319D01*
X006114Y034243D01*
X006405Y034243D01*
X006687Y034319D01*
X006940Y034465D01*
X007147Y034671D01*
X007293Y034924D01*
X007368Y035206D01*
X007368Y035498D01*
X007293Y035780D01*
X007147Y036033D01*
X006940Y036239D01*
X006687Y036385D01*
X006405Y036460D01*
X006114Y036460D01*
X005832Y036385D01*
X005579Y036239D01*
X005372Y036033D01*
X005226Y035780D01*
X005151Y035498D01*
X005151Y035206D01*
X005155Y035192D02*
X004758Y035192D01*
X004717Y035033D02*
X005197Y035033D01*
X005255Y034875D02*
X004649Y034875D01*
X004539Y034716D02*
X005346Y034716D01*
X005486Y034558D02*
X004372Y034558D01*
X004419Y034270D02*
X004231Y034082D01*
X001284Y034082D01*
X001284Y033924D02*
X004139Y033924D01*
X004098Y033852D02*
X004029Y033595D01*
X004029Y033329D01*
X004098Y033072D01*
X004231Y032842D01*
X004419Y032654D01*
X004649Y032521D01*
X004906Y032452D01*
X005172Y032452D01*
X005429Y032521D01*
X005659Y032654D01*
X005847Y032842D01*
X005980Y033072D01*
X006049Y033329D01*
X006049Y033595D01*
X005980Y033852D01*
X005847Y034082D01*
X005659Y034270D01*
X005429Y034403D01*
X005172Y034472D01*
X004906Y034472D01*
X004649Y034403D01*
X004419Y034270D01*
X004389Y034241D02*
X001284Y034241D01*
X001284Y033765D02*
X004074Y033765D01*
X004098Y033852D02*
X004231Y034082D01*
X004055Y034399D02*
X004642Y034399D01*
X005436Y034399D02*
X005692Y034399D01*
X005689Y034241D02*
X012119Y034241D01*
X012119Y034399D02*
X006827Y034399D01*
X007033Y034558D02*
X012119Y034558D01*
X012119Y034716D02*
X007173Y034716D01*
X007264Y034875D02*
X012119Y034875D01*
X012119Y035033D02*
X007322Y035033D01*
X007364Y035192D02*
X012119Y035192D01*
X012119Y035351D02*
X007368Y035351D01*
X007365Y035509D02*
X012119Y035509D01*
X012119Y035668D02*
X007323Y035668D01*
X007266Y035826D02*
X012119Y035826D01*
X012119Y035985D02*
X007174Y035985D01*
X007036Y036143D02*
X012119Y036143D01*
X012119Y036302D02*
X006831Y036302D01*
X006406Y036460D02*
X012119Y036460D01*
X012119Y036619D02*
X001284Y036619D01*
X001284Y036777D02*
X012119Y036777D01*
X012119Y036936D02*
X001284Y036936D01*
X001284Y037094D02*
X012119Y037094D01*
X012119Y037253D02*
X001284Y037253D01*
X001284Y036460D02*
X006113Y036460D01*
X005688Y036302D02*
X004062Y036302D01*
X003859Y036302D02*
X003699Y036302D01*
X003699Y036143D02*
X003859Y036143D01*
X003859Y035985D02*
X003699Y035985D01*
X003699Y035826D02*
X003859Y035826D01*
X003859Y035668D02*
X003699Y035668D01*
X003699Y035509D02*
X003859Y035509D01*
X004375Y036143D02*
X005483Y036143D01*
X005345Y035985D02*
X004541Y035985D01*
X004650Y035826D02*
X005253Y035826D01*
X005196Y035668D02*
X004718Y035668D01*
X004758Y035509D02*
X005154Y035509D01*
X005848Y034082D02*
X012119Y034082D01*
X012119Y033924D02*
X005939Y033924D01*
X006004Y033765D02*
X012119Y033765D01*
X012119Y033607D02*
X006046Y033607D01*
X006049Y033448D02*
X012119Y033448D01*
X012119Y033289D02*
X006039Y033289D01*
X005996Y033131D02*
X012119Y033131D01*
X012119Y032972D02*
X005923Y032972D01*
X005819Y032814D02*
X012119Y032814D01*
X012119Y032655D02*
X005661Y032655D01*
X005340Y032497D02*
X012119Y032497D01*
X012119Y032338D02*
X001284Y032338D01*
X001284Y032180D02*
X012119Y032180D01*
X012119Y032021D02*
X001284Y032021D01*
X001284Y031863D02*
X012119Y031863D01*
X012119Y031704D02*
X001284Y031704D01*
X001284Y031545D02*
X012119Y031545D01*
X012119Y031387D02*
X001284Y031387D01*
X001284Y031228D02*
X012119Y031228D01*
X012119Y031070D02*
X001284Y031070D01*
X001284Y030911D02*
X012119Y030911D01*
X012119Y030753D02*
X001284Y030753D01*
X001284Y030594D02*
X012119Y030594D01*
X012119Y030436D02*
X001284Y030436D01*
X001284Y030277D02*
X012119Y030277D01*
X012119Y030119D02*
X001284Y030119D01*
X001284Y029960D02*
X012119Y029960D01*
X012119Y029801D02*
X001284Y029801D01*
X001284Y029643D02*
X012119Y029643D01*
X012119Y029484D02*
X001284Y029484D01*
X001284Y029326D02*
X012119Y029326D01*
X012119Y029167D02*
X001284Y029167D01*
X001284Y029009D02*
X012119Y029009D01*
X012119Y028850D02*
X001284Y028850D01*
X001284Y028692D02*
X012119Y028692D01*
X012119Y028533D02*
X001284Y028533D01*
X001284Y028375D02*
X012119Y028375D01*
X012119Y028216D02*
X001284Y028216D01*
X001284Y028058D02*
X012119Y028058D01*
X012119Y027899D02*
X001284Y027899D01*
X001284Y027740D02*
X012119Y027740D01*
X012119Y027582D02*
X001284Y027582D01*
X001284Y027423D02*
X008880Y027423D01*
X008868Y027420D02*
X008597Y027264D01*
X008375Y027042D01*
X008219Y026771D01*
X008138Y026469D01*
X008138Y026156D01*
X008219Y025854D01*
X008375Y025583D01*
X008597Y025361D01*
X008868Y025205D01*
X009170Y025124D01*
X009483Y025124D01*
X009785Y025205D01*
X010056Y025361D01*
X010278Y025583D01*
X010434Y025854D01*
X010515Y026156D01*
X010515Y026469D01*
X010434Y026771D01*
X010278Y027042D01*
X010056Y027264D01*
X009785Y027420D01*
X009483Y027501D01*
X009170Y027501D01*
X008868Y027420D01*
X008599Y027265D02*
X001284Y027265D01*
X001284Y027106D02*
X008439Y027106D01*
X008321Y026948D02*
X001284Y026948D01*
X001284Y026789D02*
X008229Y026789D01*
X008181Y026631D02*
X001284Y026631D01*
X001284Y026472D02*
X008139Y026472D01*
X008138Y026314D02*
X001284Y026314D01*
X001284Y026155D02*
X008138Y026155D01*
X008181Y025996D02*
X001284Y025996D01*
X001284Y025838D02*
X008228Y025838D01*
X008319Y025679D02*
X005658Y025679D01*
X005675Y025672D02*
X005535Y025731D01*
X005368Y025731D01*
X005215Y025667D01*
X005097Y025549D01*
X005033Y025396D01*
X005033Y025229D01*
X005091Y025089D01*
X005091Y019067D01*
X005033Y018927D01*
X005033Y018761D01*
X005090Y018623D01*
X005061Y012570D01*
X005002Y012427D01*
X005002Y012261D01*
X005066Y012107D01*
X005183Y011989D01*
X005337Y011926D01*
X005503Y011926D01*
X005657Y011989D01*
X005775Y012107D01*
X005838Y012261D01*
X005838Y012427D01*
X005781Y012565D01*
X005794Y015246D01*
X005817Y015202D01*
X005858Y015144D01*
X005908Y015094D01*
X005966Y015053D01*
X006029Y015020D01*
X006096Y014999D01*
X006166Y014987D01*
X006191Y014987D01*
X006191Y015427D01*
X006211Y015427D01*
X006211Y014987D01*
X006237Y014987D01*
X006307Y014999D01*
X006374Y015020D01*
X006437Y015053D01*
X006495Y015094D01*
X006545Y015144D01*
X006586Y015202D01*
X006618Y015265D01*
X006640Y015332D01*
X006651Y015402D01*
X006651Y015427D01*
X006212Y015427D01*
X006212Y015447D01*
X006651Y015447D01*
X006651Y015473D01*
X006640Y015543D01*
X006618Y015610D01*
X006586Y015673D01*
X006545Y015731D01*
X006495Y015781D01*
X006437Y015822D01*
X006374Y015854D01*
X006307Y015876D01*
X006237Y015887D01*
X006211Y015887D01*
X006211Y015448D01*
X006191Y015448D01*
X006191Y015887D01*
X006166Y015887D01*
X006096Y015876D01*
X006029Y015854D01*
X005966Y015822D01*
X005908Y015781D01*
X005858Y015731D01*
X005817Y015673D01*
X005796Y015633D01*
X005799Y016182D01*
X005803Y016171D01*
X005935Y016039D01*
X006108Y015967D01*
X006295Y015967D01*
X006468Y016039D01*
X006600Y016171D01*
X006671Y016344D01*
X006671Y016531D01*
X006600Y016704D01*
X006468Y016836D01*
X006295Y016907D01*
X006108Y016907D01*
X005935Y016836D01*
X005803Y016704D01*
X005801Y016699D01*
X005804Y017227D01*
X005817Y017202D01*
X005858Y017144D01*
X005908Y017094D01*
X005966Y017053D01*
X006029Y017020D01*
X006096Y016999D01*
X006166Y016987D01*
X006191Y016987D01*
X006191Y017427D01*
X006211Y017427D01*
X006211Y016987D01*
X006237Y016987D01*
X006307Y016999D01*
X006374Y017020D01*
X006437Y017053D01*
X006495Y017094D01*
X006545Y017144D01*
X006586Y017202D01*
X006618Y017265D01*
X006640Y017332D01*
X006651Y017402D01*
X006651Y017427D01*
X006212Y017427D01*
X006212Y017447D01*
X006651Y017447D01*
X006651Y017473D01*
X006640Y017543D01*
X006618Y017610D01*
X006586Y017673D01*
X006545Y017731D01*
X006495Y017781D01*
X006437Y017822D01*
X006374Y017854D01*
X006307Y017876D01*
X006237Y017887D01*
X006211Y017887D01*
X006211Y017448D01*
X006191Y017448D01*
X006191Y017887D01*
X006166Y017887D01*
X006096Y017876D01*
X006029Y017854D01*
X005966Y017822D01*
X005908Y017781D01*
X005858Y017731D01*
X005817Y017673D01*
X005806Y017652D01*
X005808Y018166D01*
X005935Y018039D01*
X006108Y017967D01*
X006295Y017967D01*
X006468Y018039D01*
X006600Y018171D01*
X006671Y018344D01*
X006671Y018531D01*
X006600Y018704D01*
X006468Y018836D01*
X006295Y018907D01*
X006108Y018907D01*
X005935Y018836D01*
X005870Y018770D01*
X005870Y018927D01*
X005811Y019067D01*
X005811Y019212D01*
X005817Y019202D01*
X005858Y019144D01*
X005908Y019094D01*
X005966Y019053D01*
X006029Y019020D01*
X006096Y018999D01*
X006166Y018987D01*
X006191Y018987D01*
X006191Y019427D01*
X006211Y019427D01*
X006211Y018987D01*
X006237Y018987D01*
X006307Y018999D01*
X006374Y019020D01*
X006437Y019053D01*
X006495Y019094D01*
X006545Y019144D01*
X006586Y019202D01*
X006618Y019265D01*
X006640Y019332D01*
X006651Y019402D01*
X006651Y019427D01*
X006212Y019427D01*
X006212Y019447D01*
X006651Y019447D01*
X006651Y019473D01*
X006640Y019543D01*
X006618Y019610D01*
X006586Y019673D01*
X006545Y019731D01*
X006495Y019781D01*
X006437Y019822D01*
X006374Y019854D01*
X006307Y019876D01*
X006237Y019887D01*
X006211Y019887D01*
X006211Y019448D01*
X006191Y019448D01*
X006191Y019887D01*
X006166Y019887D01*
X006096Y019876D01*
X006029Y019854D01*
X005966Y019822D01*
X005908Y019781D01*
X005858Y019731D01*
X005817Y019673D01*
X005811Y019663D01*
X005811Y020005D01*
X005849Y019967D01*
X005977Y019967D01*
X006098Y019917D01*
X006305Y019917D01*
X006426Y019967D01*
X006554Y019967D01*
X006671Y020085D01*
X006671Y020172D01*
X006854Y020355D01*
X008649Y020355D01*
X019556Y020355D01*
X019556Y017959D01*
X019636Y017768D01*
X019782Y017622D01*
X020282Y017122D01*
X020470Y017044D01*
X020408Y016896D01*
X020408Y016729D01*
X020472Y016576D01*
X020548Y016500D01*
X020472Y016424D01*
X020408Y016271D01*
X020408Y016104D01*
X020472Y015951D01*
X020563Y015859D01*
X020472Y015768D01*
X020408Y015614D01*
X020408Y015448D01*
X020472Y015294D01*
X020501Y015266D01*
X020472Y015237D01*
X020408Y015083D01*
X020408Y014917D01*
X020472Y014763D01*
X020516Y014719D01*
X020472Y014674D01*
X020408Y014521D01*
X020408Y014354D01*
X020472Y014201D01*
X020590Y014083D01*
X020624Y014069D01*
X020589Y014034D01*
X020546Y013931D01*
X020546Y013819D01*
X020546Y012967D01*
X020472Y012893D01*
X020408Y012739D01*
X020408Y012573D01*
X020472Y012419D01*
X020563Y012328D01*
X020472Y012237D01*
X020408Y012083D01*
X020408Y011917D01*
X020472Y011763D01*
X020501Y011734D01*
X020498Y011732D01*
X020438Y011792D01*
X020285Y011856D01*
X020118Y011856D01*
X019965Y011792D01*
X019847Y011674D01*
X019783Y011521D01*
X019783Y011354D01*
X019847Y011201D01*
X019965Y011083D01*
X020118Y011019D01*
X020285Y011019D01*
X020438Y011083D01*
X020530Y011174D01*
X020590Y011114D01*
X020743Y011051D01*
X020883Y011051D01*
X020927Y011032D01*
X021038Y011032D01*
X025158Y011032D01*
X025158Y010979D01*
X025222Y010826D01*
X025296Y010751D01*
X025296Y004374D01*
X025222Y004299D01*
X025158Y004146D01*
X025158Y003979D01*
X025222Y003826D01*
X025296Y003751D01*
X025296Y003632D01*
X025339Y003529D01*
X025418Y003450D01*
X025839Y003029D01*
X025839Y003029D01*
X025918Y002950D01*
X026021Y002907D01*
X027296Y002907D01*
X027371Y002833D01*
X027525Y002769D01*
X027691Y002769D01*
X027845Y002833D01*
X027962Y002951D01*
X028026Y003104D01*
X028026Y003271D01*
X027962Y003424D01*
X027845Y003542D01*
X027691Y003606D01*
X027525Y003606D01*
X027371Y003542D01*
X027296Y003467D01*
X026192Y003467D01*
X026015Y003644D01*
X026160Y003644D01*
X026313Y003708D01*
X026431Y003826D01*
X026495Y003979D01*
X026495Y004146D01*
X026431Y004299D01*
X026402Y004328D01*
X026431Y004357D01*
X026495Y004511D01*
X026495Y004677D01*
X026431Y004831D01*
X026313Y004948D01*
X026160Y005012D01*
X025993Y005012D01*
X025856Y004955D01*
X025856Y010701D01*
X025993Y010644D01*
X026160Y010644D01*
X026313Y010708D01*
X026431Y010826D01*
X026495Y010979D01*
X026495Y011146D01*
X026431Y011299D01*
X026402Y011328D01*
X026431Y011357D01*
X026495Y011511D01*
X026495Y011677D01*
X026464Y011751D01*
X027351Y011751D01*
X027454Y011794D01*
X027533Y011873D01*
X028439Y012779D01*
X028481Y012882D01*
X028481Y012993D01*
X028481Y015321D01*
X030942Y017782D01*
X039390Y017782D01*
X039465Y017708D01*
X039618Y017644D01*
X039785Y017644D01*
X039938Y017708D01*
X040014Y017784D01*
X040046Y017751D01*
X040046Y017493D01*
X040046Y017382D01*
X040089Y017279D01*
X046089Y011279D01*
X046168Y011200D01*
X046271Y011157D01*
X050296Y011157D01*
X050340Y011114D01*
X050493Y011051D01*
X050660Y011051D01*
X050813Y011114D01*
X050873Y011174D01*
X050965Y011083D01*
X051118Y011019D01*
X051285Y011019D01*
X051438Y011083D01*
X051556Y011201D01*
X051620Y011354D01*
X051620Y011521D01*
X051556Y011674D01*
X051438Y011792D01*
X051285Y011856D01*
X051118Y011856D01*
X050965Y011792D01*
X050905Y011732D01*
X050902Y011734D01*
X050931Y011763D01*
X050995Y011917D01*
X050995Y012083D01*
X050931Y012237D01*
X050840Y012328D01*
X050931Y012419D01*
X050995Y012573D01*
X050995Y012739D01*
X050931Y012893D01*
X050856Y012967D01*
X050856Y013819D01*
X050856Y013931D01*
X050814Y014034D01*
X050801Y014047D01*
X050813Y014052D01*
X050931Y014169D01*
X050995Y014323D01*
X050995Y014489D01*
X050931Y014643D01*
X050871Y014703D01*
X050931Y014763D01*
X050995Y014917D01*
X050995Y015083D01*
X050931Y015237D01*
X050902Y015266D01*
X050931Y015294D01*
X050995Y015448D01*
X050995Y015614D01*
X050931Y015768D01*
X050840Y015859D01*
X050931Y015951D01*
X050995Y016104D01*
X050995Y016271D01*
X050931Y016424D01*
X050855Y016500D01*
X050931Y016576D01*
X050995Y016729D01*
X050995Y016896D01*
X050934Y017042D01*
X051806Y017042D01*
X051806Y005590D01*
X049698Y003482D01*
X049619Y003291D01*
X049619Y003084D01*
X049698Y002893D01*
X049844Y002747D01*
X050036Y002667D01*
X050242Y002667D01*
X050434Y002747D01*
X052767Y005080D01*
X052846Y005271D01*
X052846Y005478D01*
X052846Y017791D01*
X052846Y019353D01*
X052767Y019544D01*
X052621Y019691D01*
X050996Y021316D01*
X050805Y021395D01*
X050598Y021395D01*
X045090Y021395D01*
X045278Y021583D01*
X045434Y021854D01*
X045515Y022156D01*
X045515Y022469D01*
X045434Y022771D01*
X045278Y023042D01*
X045056Y023264D01*
X044785Y023420D01*
X044483Y023501D01*
X044170Y023501D01*
X043868Y023420D01*
X043597Y023264D01*
X043375Y023042D01*
X043219Y022771D01*
X043138Y022469D01*
X043138Y022156D01*
X043219Y021854D01*
X043375Y021583D01*
X043563Y021395D01*
X028090Y021395D01*
X028278Y021583D01*
X028434Y021854D01*
X028515Y022156D01*
X028515Y022469D01*
X028434Y022771D01*
X028278Y023042D01*
X028056Y023264D01*
X027785Y023420D01*
X027483Y023501D01*
X027170Y023501D01*
X026868Y023420D01*
X026597Y023264D01*
X026375Y023042D01*
X026219Y022771D01*
X026138Y022469D01*
X026138Y022156D01*
X026219Y021854D01*
X026375Y021583D01*
X026563Y021395D01*
X020180Y021395D01*
X019973Y021395D01*
X008649Y021395D01*
X006742Y021395D01*
X006536Y021395D01*
X006344Y021316D01*
X005936Y020907D01*
X005849Y020907D01*
X005811Y020870D01*
X005811Y024952D01*
X006677Y024952D01*
X007373Y024257D01*
X007505Y024202D01*
X007648Y024202D01*
X013228Y024202D01*
X013368Y024144D01*
X013535Y024144D01*
X013675Y024202D01*
X014344Y024202D01*
X014316Y024174D01*
X014252Y024021D01*
X014252Y023854D01*
X014316Y023701D01*
X014433Y023583D01*
X014587Y023519D01*
X014753Y023519D01*
X014907Y023583D01*
X015025Y023701D01*
X015088Y023854D01*
X015088Y024021D01*
X015025Y024174D01*
X014996Y024202D01*
X031148Y024202D01*
X031152Y024204D01*
X031318Y024204D01*
X031373Y024259D01*
X031373Y024259D01*
X031505Y024204D01*
X031648Y024204D01*
X031779Y024259D01*
X031826Y024306D01*
X031873Y024259D01*
X032005Y024204D01*
X032148Y024204D01*
X032279Y024259D01*
X032326Y024306D01*
X032373Y024259D01*
X032505Y024204D01*
X032648Y024204D01*
X032779Y024259D01*
X032826Y024306D01*
X032873Y024259D01*
X033005Y024204D01*
X033148Y024204D01*
X033279Y024259D01*
X033326Y024306D01*
X033373Y024259D01*
X033505Y024204D01*
X033648Y024204D01*
X033779Y024259D01*
X033826Y024306D01*
X033873Y024259D01*
X034005Y024204D01*
X034148Y024204D01*
X034279Y024259D01*
X034326Y024306D01*
X034373Y024259D01*
X034505Y024204D01*
X034648Y024204D01*
X034779Y024259D01*
X034826Y024306D01*
X034873Y024259D01*
X035005Y024204D01*
X035148Y024204D01*
X035279Y024259D01*
X035326Y024306D01*
X035373Y024259D01*
X035505Y024204D01*
X035648Y024204D01*
X035779Y024259D01*
X035826Y024306D01*
X035873Y024259D01*
X036005Y024204D01*
X036148Y024204D01*
X036279Y024259D01*
X036326Y024306D01*
X036373Y024259D01*
X036505Y024204D01*
X036648Y024204D01*
X036779Y024259D01*
X036826Y024306D01*
X036873Y024259D01*
X037005Y024204D01*
X037148Y024204D01*
X037279Y024259D01*
X037326Y024306D01*
X037373Y024259D01*
X037505Y024204D01*
X037648Y024204D01*
X037779Y024259D01*
X037826Y024306D01*
X037873Y024259D01*
X038005Y024204D01*
X038148Y024204D01*
X038279Y024259D01*
X038326Y024306D01*
X038373Y024259D01*
X038505Y024204D01*
X038648Y024204D01*
X038779Y024259D01*
X038826Y024306D01*
X038873Y024259D01*
X039005Y024204D01*
X039148Y024204D01*
X039279Y024259D01*
X039326Y024306D01*
X039373Y024259D01*
X039505Y024204D01*
X039648Y024204D01*
X039779Y024259D01*
X039826Y024306D01*
X039873Y024259D01*
X040005Y024204D01*
X040148Y024204D01*
X040279Y024259D01*
X040326Y024306D01*
X040373Y024259D01*
X040505Y024204D01*
X040648Y024204D01*
X040779Y024259D01*
X040826Y024306D01*
X040873Y024259D01*
X041005Y024204D01*
X041148Y024204D01*
X041279Y024259D01*
X041326Y024306D01*
X041373Y024259D01*
X041505Y024204D01*
X041648Y024204D01*
X041779Y024259D01*
X041826Y024306D01*
X041873Y024259D01*
X042005Y024204D01*
X042148Y024204D01*
X042279Y024259D01*
X042326Y024306D01*
X042373Y024259D01*
X042505Y024204D01*
X042648Y024204D01*
X042779Y024259D01*
X042826Y024306D01*
X042873Y024259D01*
X043005Y024204D01*
X043148Y024204D01*
X043279Y024259D01*
X043326Y024306D01*
X043373Y024259D01*
X043505Y024204D01*
X043648Y024204D01*
X043779Y024259D01*
X043826Y024306D01*
X043873Y024259D01*
X044005Y024204D01*
X044148Y024204D01*
X044279Y024259D01*
X044326Y024306D01*
X044373Y024259D01*
X044505Y024204D01*
X044648Y024204D01*
X044779Y024259D01*
X044826Y024306D01*
X044873Y024259D01*
X045005Y024204D01*
X045148Y024204D01*
X045279Y024259D01*
X045326Y024306D01*
X045373Y024259D01*
X045505Y024204D01*
X045648Y024204D01*
X045779Y024259D01*
X045826Y024306D01*
X045873Y024259D01*
X046005Y024204D01*
X046148Y024204D01*
X046279Y024259D01*
X046326Y024306D01*
X046373Y024259D01*
X046505Y024204D01*
X046648Y024204D01*
X046779Y024259D01*
X046826Y024306D01*
X046873Y024259D01*
X047005Y024204D01*
X047148Y024204D01*
X047279Y024259D01*
X047326Y024306D01*
X047373Y024259D01*
X047505Y024204D01*
X047648Y024204D01*
X047779Y024259D01*
X047826Y024306D01*
X047873Y024259D01*
X048005Y024204D01*
X048148Y024204D01*
X048279Y024259D01*
X048326Y024306D01*
X048373Y024259D01*
X048505Y024204D01*
X048648Y024204D01*
X048779Y024259D01*
X048826Y024306D01*
X048873Y024259D01*
X049005Y024204D01*
X049148Y024204D01*
X049279Y024259D01*
X049326Y024306D01*
X049373Y024259D01*
X049505Y024204D01*
X049648Y024204D01*
X049779Y024259D01*
X049826Y024306D01*
X049873Y024259D01*
X050005Y024204D01*
X050148Y024204D01*
X050279Y024259D01*
X050326Y024306D01*
X050373Y024259D01*
X050505Y024204D01*
X050648Y024204D01*
X050779Y024259D01*
X050826Y024306D01*
X050873Y024259D01*
X051005Y024204D01*
X051148Y024204D01*
X051279Y024259D01*
X051326Y024306D01*
X051373Y024259D01*
X051505Y024204D01*
X051648Y024204D01*
X051779Y024259D01*
X051826Y024306D01*
X051873Y024259D01*
X052005Y024204D01*
X052148Y024204D01*
X052279Y024259D01*
X052326Y024306D01*
X052373Y024259D01*
X052505Y024204D01*
X052648Y024204D01*
X052779Y024259D01*
X052826Y024306D01*
X052873Y024259D01*
X053005Y024204D01*
X053148Y024204D01*
X053279Y024259D01*
X053326Y024306D01*
X053373Y024259D01*
X053505Y024204D01*
X053648Y024204D01*
X053779Y024259D01*
X053826Y024306D01*
X053873Y024259D01*
X054005Y024204D01*
X054148Y024204D01*
X054279Y024259D01*
X054326Y024306D01*
X054373Y024259D01*
X054505Y024204D01*
X054648Y024204D01*
X054779Y024259D01*
X054826Y024306D01*
X054873Y024259D01*
X055005Y024204D01*
X055148Y024204D01*
X055279Y024259D01*
X055326Y024306D01*
X055373Y024259D01*
X055505Y024204D01*
X055648Y024204D01*
X055779Y024259D01*
X055880Y024359D01*
X055935Y024491D01*
X055935Y024634D01*
X055880Y024765D01*
X055833Y024812D01*
X055880Y024859D01*
X055935Y024991D01*
X055935Y025134D01*
X055880Y025265D01*
X055779Y025366D01*
X055648Y025421D01*
X055505Y025421D01*
X055373Y025366D01*
X055326Y025319D01*
X055279Y025366D01*
X055148Y025421D01*
X055005Y025421D01*
X054873Y025366D01*
X054826Y025319D01*
X054779Y025366D01*
X054648Y025421D01*
X054505Y025421D01*
X054373Y025366D01*
X054326Y025319D01*
X054279Y025366D01*
X054148Y025421D01*
X054005Y025421D01*
X053873Y025366D01*
X053826Y025319D01*
X053779Y025366D01*
X053648Y025421D01*
X053505Y025421D01*
X053373Y025366D01*
X053326Y025319D01*
X053279Y025366D01*
X053148Y025421D01*
X053005Y025421D01*
X052873Y025366D01*
X052826Y025319D01*
X052779Y025366D01*
X052648Y025421D01*
X052505Y025421D01*
X052373Y025366D01*
X052326Y025319D01*
X052279Y025366D01*
X052148Y025421D01*
X052005Y025421D01*
X051873Y025366D01*
X051826Y025319D01*
X051779Y025366D01*
X051648Y025421D01*
X051505Y025421D01*
X051373Y025366D01*
X051326Y025319D01*
X051279Y025366D01*
X051148Y025421D01*
X051005Y025421D01*
X050873Y025366D01*
X050826Y025319D01*
X050779Y025366D01*
X050648Y025421D01*
X050505Y025421D01*
X050373Y025366D01*
X050326Y025319D01*
X050279Y025366D01*
X050148Y025421D01*
X050005Y025421D01*
X049873Y025366D01*
X049826Y025319D01*
X049779Y025366D01*
X049648Y025421D01*
X049505Y025421D01*
X049373Y025366D01*
X049326Y025319D01*
X049279Y025366D01*
X049148Y025421D01*
X049005Y025421D01*
X048873Y025366D01*
X048826Y025319D01*
X048779Y025366D01*
X048648Y025421D01*
X048505Y025421D01*
X048373Y025366D01*
X048326Y025319D01*
X048279Y025366D01*
X048148Y025421D01*
X048005Y025421D01*
X047873Y025366D01*
X047826Y025319D01*
X047779Y025366D01*
X047648Y025421D01*
X047505Y025421D01*
X047373Y025366D01*
X047326Y025319D01*
X047279Y025366D01*
X047148Y025421D01*
X047005Y025421D01*
X046873Y025366D01*
X046826Y025319D01*
X046779Y025366D01*
X046648Y025421D01*
X046505Y025421D01*
X046373Y025366D01*
X046326Y025319D01*
X046279Y025366D01*
X046148Y025421D01*
X046005Y025421D01*
X045873Y025366D01*
X045826Y025319D01*
X045779Y025366D01*
X045648Y025421D01*
X045505Y025421D01*
X045373Y025366D01*
X045326Y025319D01*
X045279Y025366D01*
X045148Y025421D01*
X045005Y025421D01*
X044873Y025366D01*
X044826Y025319D01*
X044779Y025366D01*
X044648Y025421D01*
X044505Y025421D01*
X044373Y025366D01*
X044326Y025319D01*
X044279Y025366D01*
X044148Y025421D01*
X044005Y025421D01*
X043873Y025366D01*
X043826Y025319D01*
X043779Y025366D01*
X043648Y025421D01*
X043505Y025421D01*
X043373Y025366D01*
X043326Y025319D01*
X043279Y025366D01*
X043148Y025421D01*
X043005Y025421D01*
X042873Y025366D01*
X042826Y025319D01*
X042779Y025366D01*
X042648Y025421D01*
X042505Y025421D01*
X042373Y025366D01*
X042326Y025319D01*
X042279Y025366D01*
X042148Y025421D01*
X042005Y025421D01*
X041873Y025366D01*
X041826Y025319D01*
X041779Y025366D01*
X041648Y025421D01*
X041505Y025421D01*
X041373Y025366D01*
X041326Y025319D01*
X041279Y025366D01*
X041148Y025421D01*
X041005Y025421D01*
X040873Y025366D01*
X040826Y025319D01*
X040779Y025366D01*
X040648Y025421D01*
X040505Y025421D01*
X040373Y025366D01*
X040326Y025319D01*
X040279Y025366D01*
X040148Y025421D01*
X040005Y025421D01*
X039873Y025366D01*
X039826Y025319D01*
X039779Y025366D01*
X039648Y025421D01*
X039505Y025421D01*
X039373Y025366D01*
X039326Y025319D01*
X039279Y025366D01*
X039148Y025421D01*
X039005Y025421D01*
X038873Y025366D01*
X038826Y025319D01*
X038779Y025366D01*
X038648Y025421D01*
X038505Y025421D01*
X038373Y025366D01*
X038326Y025319D01*
X038279Y025366D01*
X038148Y025421D01*
X038005Y025421D01*
X037873Y025366D01*
X037826Y025319D01*
X037779Y025366D01*
X037648Y025421D01*
X037505Y025421D01*
X037373Y025366D01*
X037326Y025319D01*
X037279Y025366D01*
X037148Y025421D01*
X037005Y025421D01*
X036873Y025366D01*
X036826Y025319D01*
X036779Y025366D01*
X036648Y025421D01*
X036505Y025421D01*
X036373Y025366D01*
X036326Y025319D01*
X036279Y025366D01*
X036148Y025421D01*
X036005Y025421D01*
X035873Y025366D01*
X035826Y025319D01*
X035779Y025366D01*
X035648Y025421D01*
X035505Y025421D01*
X035373Y025366D01*
X035326Y025319D01*
X035279Y025366D01*
X035148Y025421D01*
X035005Y025421D01*
X034873Y025366D01*
X034826Y025319D01*
X034779Y025366D01*
X034648Y025421D01*
X034505Y025421D01*
X034373Y025366D01*
X034326Y025319D01*
X034279Y025366D01*
X034148Y025421D01*
X034005Y025421D01*
X033873Y025366D01*
X033826Y025319D01*
X033779Y025366D01*
X033648Y025421D01*
X033505Y025421D01*
X033373Y025366D01*
X033326Y025319D01*
X033279Y025366D01*
X033148Y025421D01*
X033005Y025421D01*
X032873Y025366D01*
X032826Y025319D01*
X032779Y025366D01*
X032648Y025421D01*
X032505Y025421D01*
X032373Y025366D01*
X032326Y025319D01*
X032279Y025366D01*
X032148Y025421D01*
X032005Y025421D01*
X031873Y025366D01*
X031826Y025319D01*
X031779Y025366D01*
X031648Y025421D01*
X031505Y025421D01*
X031373Y025366D01*
X031326Y025319D01*
X031279Y025366D01*
X031148Y025421D01*
X031005Y025421D01*
X030873Y025366D01*
X030773Y025265D01*
X030718Y025134D01*
X030718Y024991D01*
X030747Y024922D01*
X013675Y024922D01*
X013535Y024981D01*
X013368Y024981D01*
X013228Y024922D01*
X007726Y024922D01*
X007132Y025516D01*
X007030Y025618D01*
X006898Y025672D01*
X005675Y025672D01*
X005245Y025679D02*
X001284Y025679D01*
X001284Y025521D02*
X005085Y025521D01*
X005033Y025362D02*
X001284Y025362D01*
X001284Y025204D02*
X005044Y025204D01*
X005091Y025045D02*
X001284Y025045D01*
X001284Y024887D02*
X005091Y024887D01*
X005091Y024728D02*
X001284Y024728D01*
X001284Y024570D02*
X005091Y024570D01*
X005091Y024411D02*
X001284Y024411D01*
X001284Y024252D02*
X005091Y024252D01*
X005091Y024094D02*
X001284Y024094D01*
X001284Y023935D02*
X005091Y023935D01*
X005091Y023777D02*
X001284Y023777D01*
X001284Y023618D02*
X005091Y023618D01*
X005091Y023460D02*
X001284Y023460D01*
X001284Y023301D02*
X005091Y023301D01*
X005091Y023143D02*
X001284Y023143D01*
X001284Y022984D02*
X005091Y022984D01*
X005091Y022826D02*
X001284Y022826D01*
X001284Y022667D02*
X005091Y022667D01*
X005091Y022509D02*
X001284Y022509D01*
X001284Y022350D02*
X005091Y022350D01*
X005091Y022191D02*
X001284Y022191D01*
X001284Y022033D02*
X005091Y022033D01*
X005091Y021874D02*
X001284Y021874D01*
X001284Y021716D02*
X005091Y021716D01*
X005091Y021557D02*
X001284Y021557D01*
X001284Y021399D02*
X005091Y021399D01*
X005091Y021240D02*
X001284Y021240D01*
X001284Y021082D02*
X005091Y021082D01*
X005091Y020923D02*
X001284Y020923D01*
X001284Y020765D02*
X005091Y020765D01*
X005091Y020606D02*
X001284Y020606D01*
X001284Y020447D02*
X005091Y020447D01*
X005091Y020289D02*
X001284Y020289D01*
X001284Y020130D02*
X005091Y020130D01*
X005091Y019972D02*
X001284Y019972D01*
X001284Y019813D02*
X005091Y019813D01*
X005091Y019655D02*
X001284Y019655D01*
X001284Y019496D02*
X005091Y019496D01*
X005091Y019338D02*
X001284Y019338D01*
X001284Y019179D02*
X005091Y019179D01*
X005072Y019021D02*
X001284Y019021D01*
X001284Y018862D02*
X005033Y018862D01*
X005057Y018703D02*
X001284Y018703D01*
X001284Y018545D02*
X005090Y018545D01*
X005089Y018386D02*
X001284Y018386D01*
X001284Y018228D02*
X005089Y018228D01*
X005088Y018069D02*
X001284Y018069D01*
X001284Y017911D02*
X005087Y017911D01*
X005086Y017752D02*
X001284Y017752D01*
X001284Y017594D02*
X005085Y017594D01*
X005085Y017435D02*
X001284Y017435D01*
X001284Y017277D02*
X005084Y017277D01*
X005083Y017118D02*
X001284Y017118D01*
X001284Y016959D02*
X005082Y016959D01*
X005082Y016801D02*
X001284Y016801D01*
X001284Y016642D02*
X005081Y016642D01*
X005080Y016484D02*
X001284Y016484D01*
X001284Y016325D02*
X005079Y016325D01*
X005079Y016167D02*
X001284Y016167D01*
X001284Y016008D02*
X005078Y016008D01*
X005077Y015850D02*
X001284Y015850D01*
X001284Y015691D02*
X005076Y015691D01*
X005076Y015533D02*
X001284Y015533D01*
X001284Y015374D02*
X005075Y015374D01*
X005074Y015216D02*
X001284Y015216D01*
X001284Y015057D02*
X005073Y015057D01*
X005072Y014898D02*
X001284Y014898D01*
X001284Y014740D02*
X005072Y014740D01*
X005071Y014581D02*
X001284Y014581D01*
X001284Y014423D02*
X005070Y014423D01*
X005069Y014264D02*
X001284Y014264D01*
X001284Y014106D02*
X005069Y014106D01*
X005068Y013947D02*
X001284Y013947D01*
X001284Y013789D02*
X005067Y013789D01*
X005066Y013630D02*
X001284Y013630D01*
X001284Y013472D02*
X005066Y013472D01*
X005065Y013313D02*
X001284Y013313D01*
X001284Y013154D02*
X005064Y013154D01*
X005063Y012996D02*
X001284Y012996D01*
X001284Y012837D02*
X005063Y012837D01*
X005062Y012679D02*
X001284Y012679D01*
X001284Y012520D02*
X005041Y012520D01*
X005002Y012362D02*
X001284Y012362D01*
X001284Y012203D02*
X005026Y012203D01*
X005128Y012045D02*
X001284Y012045D01*
X001284Y011886D02*
X015791Y011886D01*
X015715Y011854D02*
X015597Y011737D01*
X015533Y011583D01*
X015533Y011417D01*
X015597Y011263D01*
X015715Y011146D01*
X015868Y011082D01*
X016035Y011082D01*
X016188Y011146D01*
X016306Y011263D01*
X016370Y011417D01*
X016370Y011583D01*
X016306Y011737D01*
X016188Y011854D01*
X016035Y011918D01*
X015868Y011918D01*
X015715Y011854D01*
X015593Y011728D02*
X001284Y011728D01*
X001284Y011569D02*
X015533Y011569D01*
X015536Y011410D02*
X001284Y011410D01*
X001284Y011252D02*
X015608Y011252D01*
X015840Y011093D02*
X001284Y011093D01*
X001284Y010935D02*
X025177Y010935D01*
X025271Y010776D02*
X016075Y010776D01*
X016035Y010793D02*
X015868Y010793D01*
X015715Y010729D01*
X015597Y010612D01*
X015533Y010458D01*
X015533Y010292D01*
X015597Y010138D01*
X015715Y010021D01*
X015868Y009957D01*
X016035Y009957D01*
X016188Y010021D01*
X016306Y010138D01*
X016370Y010292D01*
X016370Y010458D01*
X016306Y010612D01*
X016188Y010729D01*
X016035Y010793D01*
X015828Y010776D02*
X001284Y010776D01*
X001284Y010618D02*
X015603Y010618D01*
X015534Y010459D02*
X001284Y010459D01*
X001284Y010301D02*
X015533Y010301D01*
X015595Y010142D02*
X001284Y010142D01*
X001284Y009984D02*
X015804Y009984D01*
X016099Y009984D02*
X020500Y009984D01*
X020472Y009956D02*
X020532Y010016D01*
X020472Y010076D01*
X020408Y010229D01*
X020408Y010396D01*
X020472Y010549D01*
X020590Y010667D01*
X020743Y010731D01*
X020910Y010731D01*
X021063Y010667D01*
X021181Y010549D01*
X021245Y010396D01*
X021245Y010229D01*
X021181Y010076D01*
X021121Y010016D01*
X021181Y009956D01*
X021245Y009802D01*
X021245Y009636D01*
X021181Y009482D01*
X021121Y009422D01*
X021181Y009362D01*
X021245Y009208D01*
X021245Y009042D01*
X021181Y008888D01*
X021063Y008771D01*
X020910Y008707D01*
X020743Y008707D01*
X020590Y008771D01*
X020472Y008888D01*
X020408Y009042D01*
X020408Y009208D01*
X020472Y009362D01*
X020532Y009422D01*
X020472Y009482D01*
X020408Y009636D01*
X020408Y009802D01*
X020472Y009956D01*
X020418Y009825D02*
X001284Y009825D01*
X001284Y009666D02*
X020408Y009666D01*
X020461Y009508D02*
X001284Y009508D01*
X001284Y009349D02*
X020467Y009349D01*
X020408Y009191D02*
X001284Y009191D01*
X001284Y009032D02*
X020412Y009032D01*
X020486Y008874D02*
X001284Y008874D01*
X001284Y008715D02*
X020723Y008715D01*
X020930Y008715D02*
X025296Y008715D01*
X025296Y008557D02*
X001284Y008557D01*
X001284Y008398D02*
X025296Y008398D01*
X025296Y008240D02*
X014303Y008240D01*
X014251Y008292D02*
X014097Y008356D01*
X013931Y008356D01*
X013777Y008292D01*
X013660Y008174D01*
X013596Y008021D01*
X013596Y007854D01*
X013660Y007701D01*
X013777Y007583D01*
X013931Y007519D01*
X014097Y007519D01*
X014251Y007583D01*
X014368Y007701D01*
X014432Y007854D01*
X014432Y008021D01*
X014368Y008174D01*
X014251Y008292D01*
X014407Y008081D02*
X025296Y008081D01*
X025296Y007923D02*
X014432Y007923D01*
X014395Y007764D02*
X025296Y007764D01*
X025296Y007605D02*
X014273Y007605D01*
X013755Y007605D02*
X001284Y007605D01*
X001284Y007447D02*
X025296Y007447D01*
X025296Y007288D02*
X001284Y007288D01*
X001284Y007130D02*
X025296Y007130D01*
X025296Y006971D02*
X001284Y006971D01*
X001284Y006813D02*
X025296Y006813D01*
X025296Y006654D02*
X001284Y006654D01*
X001284Y006496D02*
X025296Y006496D01*
X025296Y006337D02*
X021030Y006337D01*
X021063Y006323D02*
X020910Y006387D01*
X020743Y006387D01*
X020590Y006323D01*
X020472Y006206D01*
X020408Y006052D01*
X020408Y005886D01*
X020472Y005732D01*
X020590Y005614D01*
X020743Y005551D01*
X020910Y005551D01*
X021063Y005614D01*
X021181Y005732D01*
X021245Y005886D01*
X021245Y006052D01*
X021181Y006206D01*
X021063Y006323D01*
X021192Y006179D02*
X025296Y006179D01*
X025296Y006020D02*
X022540Y006020D01*
X022477Y006046D02*
X022754Y005931D01*
X022967Y005719D01*
X023082Y005441D01*
X023082Y005140D01*
X022967Y004863D01*
X022754Y004650D01*
X022477Y004535D01*
X022176Y004535D01*
X021898Y004650D01*
X021686Y004863D01*
X021571Y005140D01*
X021571Y005441D01*
X021686Y005719D01*
X021898Y005931D01*
X022176Y006046D01*
X022477Y006046D01*
X022113Y006020D02*
X021245Y006020D01*
X021235Y005861D02*
X021829Y005861D01*
X021679Y005703D02*
X021152Y005703D01*
X021614Y005544D02*
X001284Y005544D01*
X001284Y005386D02*
X021571Y005386D01*
X021571Y005227D02*
X001284Y005227D01*
X001284Y005069D02*
X021601Y005069D01*
X021666Y004910D02*
X001284Y004910D01*
X001284Y004752D02*
X021797Y004752D01*
X022036Y004593D02*
X001284Y004593D01*
X001284Y004435D02*
X025296Y004435D01*
X025296Y004593D02*
X022617Y004593D01*
X022856Y004752D02*
X025296Y004752D01*
X025296Y004910D02*
X022987Y004910D01*
X023052Y005069D02*
X025296Y005069D01*
X025296Y005227D02*
X023082Y005227D01*
X023082Y005386D02*
X025296Y005386D01*
X025296Y005544D02*
X023039Y005544D01*
X022974Y005703D02*
X025296Y005703D01*
X025296Y005861D02*
X022824Y005861D01*
X020623Y006337D02*
X001284Y006337D01*
X001284Y006179D02*
X020461Y006179D01*
X020408Y006020D02*
X001284Y006020D01*
X001284Y005861D02*
X020418Y005861D01*
X020501Y005703D02*
X001284Y005703D01*
X001284Y004276D02*
X025212Y004276D01*
X025158Y004117D02*
X001284Y004117D01*
X001284Y003959D02*
X025167Y003959D01*
X025247Y003800D02*
X001284Y003800D01*
X001284Y003642D02*
X025296Y003642D01*
X025385Y003483D02*
X001284Y003483D01*
X001284Y003325D02*
X025543Y003325D01*
X025418Y003450D02*
X025418Y003450D01*
X025576Y003687D02*
X025576Y004062D01*
X025576Y011062D01*
X025233Y011312D02*
X025951Y012031D01*
X027295Y012031D01*
X028201Y012937D01*
X028201Y015437D01*
X030826Y018062D01*
X039701Y018062D01*
X039420Y017752D02*
X030912Y017752D01*
X030754Y017594D02*
X040046Y017594D01*
X040045Y017752D02*
X039982Y017752D01*
X040046Y017435D02*
X038076Y017435D01*
X038063Y017448D02*
X037910Y017512D01*
X037743Y017512D01*
X037590Y017448D01*
X037472Y017331D01*
X037408Y017177D01*
X037408Y017011D01*
X037472Y016857D01*
X037590Y016739D01*
X037743Y016676D01*
X037910Y016676D01*
X038063Y016739D01*
X038181Y016857D01*
X038245Y017011D01*
X038245Y017177D01*
X038181Y017331D01*
X038063Y017448D01*
X038203Y017277D02*
X040091Y017277D01*
X040250Y017118D02*
X038245Y017118D01*
X038223Y016959D02*
X040408Y016959D01*
X040567Y016801D02*
X038125Y016801D01*
X037528Y016801D02*
X037250Y016801D01*
X037306Y016857D02*
X037370Y017011D01*
X037370Y017177D01*
X037306Y017331D01*
X037188Y017448D01*
X037035Y017512D01*
X036868Y017512D01*
X036715Y017448D01*
X036597Y017331D01*
X036533Y017177D01*
X036533Y017011D01*
X036597Y016857D01*
X036715Y016739D01*
X036868Y016676D01*
X037035Y016676D01*
X037188Y016739D01*
X037306Y016857D01*
X037348Y016959D02*
X037429Y016959D01*
X037408Y017118D02*
X037370Y017118D01*
X037328Y017277D02*
X037450Y017277D01*
X037577Y017435D02*
X037201Y017435D01*
X036702Y017435D02*
X030595Y017435D01*
X030437Y017277D02*
X036575Y017277D01*
X036533Y017118D02*
X030278Y017118D01*
X030119Y016959D02*
X036554Y016959D01*
X036653Y016801D02*
X029961Y016801D01*
X029802Y016642D02*
X040726Y016642D01*
X040884Y016484D02*
X029644Y016484D01*
X029485Y016325D02*
X041043Y016325D01*
X041201Y016167D02*
X029327Y016167D01*
X029168Y016008D02*
X041360Y016008D01*
X041518Y015850D02*
X029010Y015850D01*
X028851Y015691D02*
X041677Y015691D01*
X041835Y015533D02*
X028693Y015533D01*
X028534Y015374D02*
X041994Y015374D01*
X042152Y015216D02*
X028481Y015216D01*
X028481Y015057D02*
X042311Y015057D01*
X042469Y014898D02*
X028481Y014898D01*
X028481Y014740D02*
X042628Y014740D01*
X042787Y014581D02*
X028481Y014581D01*
X028481Y014423D02*
X042945Y014423D01*
X043104Y014264D02*
X028481Y014264D01*
X028481Y014106D02*
X043262Y014106D01*
X043421Y013947D02*
X028481Y013947D01*
X028481Y013789D02*
X043579Y013789D01*
X043738Y013630D02*
X028481Y013630D01*
X028481Y013472D02*
X043896Y013472D01*
X044055Y013313D02*
X028481Y013313D01*
X028481Y013154D02*
X044213Y013154D01*
X044372Y012996D02*
X028481Y012996D01*
X028463Y012837D02*
X044531Y012837D01*
X044689Y012679D02*
X028339Y012679D01*
X028180Y012520D02*
X044848Y012520D01*
X045006Y012362D02*
X028022Y012362D01*
X027863Y012203D02*
X045165Y012203D01*
X045323Y012045D02*
X036654Y012045D01*
X036681Y012018D02*
X036563Y012136D01*
X036410Y012199D01*
X036243Y012199D01*
X036090Y012136D01*
X035972Y012018D01*
X035908Y011864D01*
X035908Y011698D01*
X035972Y011544D01*
X036090Y011427D01*
X036243Y011363D01*
X036410Y011363D01*
X036563Y011427D01*
X036681Y011544D01*
X036745Y011698D01*
X036745Y011864D01*
X036681Y012018D01*
X036736Y011886D02*
X038809Y011886D01*
X038692Y011728D02*
X036745Y011728D01*
X036691Y011569D02*
X038658Y011569D01*
X038333Y011410D02*
X036524Y011410D01*
X036129Y011410D02*
X026453Y011410D01*
X026450Y011252D02*
X030831Y011252D01*
X030840Y011261D02*
X030722Y011143D01*
X030658Y010989D01*
X030658Y010823D01*
X030722Y010669D01*
X030840Y010552D01*
X030993Y010488D01*
X031160Y010488D01*
X031313Y010552D01*
X031431Y010669D01*
X031495Y010823D01*
X031495Y010989D01*
X031431Y011143D01*
X031313Y011261D01*
X031160Y011324D01*
X030993Y011324D01*
X030840Y011261D01*
X030701Y011093D02*
X026495Y011093D01*
X026476Y010935D02*
X030658Y010935D01*
X030678Y010776D02*
X026382Y010776D01*
X025856Y010618D02*
X030774Y010618D01*
X031379Y010618D02*
X038296Y010618D01*
X038296Y010459D02*
X025856Y010459D01*
X025856Y010301D02*
X038296Y010301D01*
X038296Y010142D02*
X037298Y010142D01*
X037313Y010136D02*
X037160Y010199D01*
X036993Y010199D01*
X036840Y010136D01*
X036722Y010018D01*
X036658Y009864D01*
X036658Y009698D01*
X036722Y009544D01*
X036840Y009427D01*
X036993Y009363D01*
X037160Y009363D01*
X037313Y009427D01*
X037431Y009544D01*
X037495Y009698D01*
X037495Y009864D01*
X037431Y010018D01*
X037313Y010136D01*
X037445Y009984D02*
X038296Y009984D01*
X038296Y009825D02*
X037495Y009825D01*
X037481Y009666D02*
X038296Y009666D01*
X038296Y009508D02*
X037394Y009508D01*
X036758Y009508D02*
X031378Y009508D01*
X031431Y009456D02*
X031313Y009573D01*
X031160Y009637D01*
X030993Y009637D01*
X030840Y009573D01*
X030722Y009456D01*
X030658Y009302D01*
X030658Y009136D01*
X030722Y008982D01*
X030840Y008864D01*
X030993Y008801D01*
X031160Y008801D01*
X031313Y008864D01*
X031431Y008982D01*
X031495Y009136D01*
X031495Y009302D01*
X031431Y009456D01*
X031475Y009349D02*
X038296Y009349D01*
X038296Y009191D02*
X031495Y009191D01*
X031452Y009032D02*
X038296Y009032D01*
X038296Y008874D02*
X031323Y008874D01*
X030830Y008874D02*
X025856Y008874D01*
X025856Y009032D02*
X030701Y009032D01*
X030658Y009191D02*
X025856Y009191D01*
X025856Y009349D02*
X030678Y009349D01*
X030774Y009508D02*
X025856Y009508D01*
X025856Y009666D02*
X036671Y009666D01*
X036658Y009825D02*
X025856Y009825D01*
X025856Y009984D02*
X036708Y009984D01*
X036855Y010142D02*
X025856Y010142D01*
X025296Y010142D02*
X021208Y010142D01*
X021245Y010301D02*
X025296Y010301D01*
X025296Y010459D02*
X021218Y010459D01*
X021112Y010618D02*
X025296Y010618D01*
X025296Y009984D02*
X021153Y009984D01*
X021235Y009825D02*
X025296Y009825D01*
X025296Y009666D02*
X021245Y009666D01*
X021192Y009508D02*
X025296Y009508D01*
X025296Y009349D02*
X021186Y009349D01*
X021245Y009191D02*
X025296Y009191D01*
X025296Y009032D02*
X021241Y009032D01*
X021167Y008874D02*
X025296Y008874D01*
X025856Y008715D02*
X034607Y008715D01*
X034621Y008729D02*
X034503Y008612D01*
X034440Y008458D01*
X034440Y008292D01*
X034503Y008138D01*
X034621Y008021D01*
X034775Y007957D01*
X034941Y007957D01*
X035095Y008021D01*
X035212Y008138D01*
X035217Y008150D01*
X035222Y008138D01*
X035340Y008021D01*
X035493Y007957D01*
X035660Y007957D01*
X035813Y008021D01*
X035931Y008138D01*
X035995Y008292D01*
X035995Y008458D01*
X035931Y008612D01*
X035813Y008729D01*
X035660Y008793D01*
X035493Y008793D01*
X035340Y008729D01*
X035222Y008612D01*
X035217Y008600D01*
X035212Y008612D01*
X035095Y008729D01*
X034941Y008793D01*
X034775Y008793D01*
X034621Y008729D01*
X034480Y008557D02*
X025856Y008557D01*
X025856Y008398D02*
X034440Y008398D01*
X034461Y008240D02*
X025856Y008240D01*
X025856Y008081D02*
X029372Y008081D01*
X029431Y008106D02*
X029277Y008042D01*
X029160Y007924D01*
X029096Y007771D01*
X029096Y007604D01*
X029160Y007451D01*
X029277Y007333D01*
X029431Y007269D01*
X029597Y007269D01*
X029751Y007333D01*
X029868Y007451D01*
X029932Y007604D01*
X029932Y007771D01*
X029868Y007924D01*
X029751Y008042D01*
X029597Y008106D01*
X029431Y008106D01*
X029656Y008081D02*
X034560Y008081D01*
X035155Y008081D02*
X035279Y008081D01*
X035368Y007668D02*
X035215Y007604D01*
X035097Y007487D01*
X035033Y007333D01*
X035033Y007167D01*
X035097Y007013D01*
X035215Y006896D01*
X035368Y006832D01*
X035535Y006832D01*
X035688Y006896D01*
X035806Y007013D01*
X035870Y007167D01*
X035870Y007333D01*
X035806Y007487D01*
X035688Y007604D01*
X035535Y007668D01*
X035368Y007668D01*
X035217Y007605D02*
X032182Y007605D01*
X032182Y007614D02*
X032118Y007768D01*
X032001Y007886D01*
X031847Y007949D01*
X031681Y007949D01*
X031527Y007886D01*
X031410Y007768D01*
X031346Y007614D01*
X031346Y007448D01*
X031410Y007294D01*
X031527Y007177D01*
X031681Y007113D01*
X031847Y007113D01*
X032001Y007177D01*
X032118Y007294D01*
X032182Y007448D01*
X032182Y007614D01*
X032120Y007764D02*
X038296Y007764D01*
X038296Y007923D02*
X031912Y007923D01*
X031616Y007923D02*
X029869Y007923D01*
X029932Y007764D02*
X031408Y007764D01*
X031346Y007605D02*
X030423Y007605D01*
X030347Y007637D02*
X030181Y007637D01*
X030027Y007573D01*
X029910Y007456D01*
X029846Y007302D01*
X029846Y007136D01*
X029910Y006982D01*
X030027Y006864D01*
X030181Y006801D01*
X030347Y006801D01*
X030501Y006864D01*
X030618Y006982D01*
X030682Y007136D01*
X030682Y007302D01*
X030618Y007456D01*
X030501Y007573D01*
X030347Y007637D01*
X030105Y007605D02*
X029932Y007605D01*
X029906Y007447D02*
X029865Y007447D01*
X029846Y007288D02*
X029643Y007288D01*
X029385Y007288D02*
X025856Y007288D01*
X025856Y007130D02*
X029848Y007130D01*
X029920Y006971D02*
X025856Y006971D01*
X025856Y006813D02*
X029703Y006813D01*
X029652Y006792D02*
X029535Y006674D01*
X029471Y006521D01*
X029471Y006354D01*
X029535Y006201D01*
X029652Y006083D01*
X029806Y006019D01*
X029972Y006019D01*
X030126Y006083D01*
X030243Y006201D01*
X030307Y006354D01*
X030307Y006521D01*
X030243Y006674D01*
X030126Y006792D01*
X029972Y006856D01*
X029806Y006856D01*
X029652Y006792D01*
X029526Y006654D02*
X025856Y006654D01*
X025856Y006496D02*
X029471Y006496D01*
X029478Y006337D02*
X025856Y006337D01*
X025856Y006179D02*
X029557Y006179D01*
X029804Y006020D02*
X025856Y006020D01*
X025856Y005861D02*
X031931Y005861D01*
X031908Y005917D02*
X031972Y005763D01*
X032090Y005646D01*
X032243Y005582D01*
X032410Y005582D01*
X032563Y005646D01*
X032681Y005763D01*
X032745Y005917D01*
X032745Y006083D01*
X032681Y006237D01*
X032563Y006354D01*
X032410Y006418D01*
X032243Y006418D01*
X032090Y006354D01*
X031972Y006237D01*
X031908Y006083D01*
X031908Y005917D01*
X031908Y006020D02*
X029974Y006020D01*
X030221Y006179D02*
X031948Y006179D01*
X032072Y006337D02*
X030300Y006337D01*
X030307Y006496D02*
X033533Y006496D01*
X033533Y006479D02*
X033597Y006326D01*
X033715Y006208D01*
X033868Y006144D01*
X034035Y006144D01*
X034188Y006208D01*
X034306Y006326D01*
X034370Y006479D01*
X034370Y006646D01*
X034306Y006799D01*
X034188Y006917D01*
X034035Y006981D01*
X033868Y006981D01*
X033715Y006917D01*
X033597Y006799D01*
X033533Y006646D01*
X033533Y006479D01*
X033592Y006337D02*
X032581Y006337D01*
X032705Y006179D02*
X033786Y006179D01*
X034117Y006179D02*
X036820Y006179D01*
X036840Y006198D02*
X036722Y006081D01*
X036658Y005927D01*
X036658Y005761D01*
X036722Y005607D01*
X036840Y005489D01*
X036993Y005426D01*
X037160Y005426D01*
X037313Y005489D01*
X037431Y005607D01*
X037495Y005761D01*
X037495Y005927D01*
X037431Y006081D01*
X037313Y006198D01*
X037160Y006262D01*
X036993Y006262D01*
X036840Y006198D01*
X036697Y006020D02*
X032745Y006020D01*
X032722Y005861D02*
X036658Y005861D01*
X036682Y005703D02*
X032621Y005703D01*
X032032Y005703D02*
X025856Y005703D01*
X025856Y005544D02*
X036784Y005544D01*
X037368Y005544D02*
X038296Y005544D01*
X038296Y005386D02*
X025856Y005386D01*
X025856Y005227D02*
X038296Y005227D01*
X038296Y005069D02*
X025856Y005069D01*
X026351Y004910D02*
X034864Y004910D01*
X034816Y004862D02*
X034752Y004708D01*
X034752Y004542D01*
X034816Y004388D01*
X034933Y004271D01*
X035087Y004207D01*
X035253Y004207D01*
X035407Y004271D01*
X035525Y004388D01*
X035588Y004542D01*
X035588Y004708D01*
X035525Y004862D01*
X035407Y004979D01*
X035253Y005043D01*
X035087Y005043D01*
X034933Y004979D01*
X034816Y004862D01*
X034770Y004752D02*
X026464Y004752D01*
X026495Y004593D02*
X034752Y004593D01*
X034796Y004435D02*
X026463Y004435D01*
X026441Y004276D02*
X034928Y004276D01*
X035413Y004276D02*
X038212Y004276D01*
X038158Y004117D02*
X036644Y004117D01*
X036681Y004081D02*
X036563Y004198D01*
X036410Y004262D01*
X036243Y004262D01*
X036090Y004198D01*
X035972Y004081D01*
X035908Y003927D01*
X035908Y003761D01*
X035972Y003607D01*
X036090Y003489D01*
X036243Y003426D01*
X036410Y003426D01*
X036563Y003489D01*
X036681Y003607D01*
X036745Y003761D01*
X036745Y003927D01*
X036681Y004081D01*
X036731Y003959D02*
X038167Y003959D01*
X038247Y003800D02*
X036745Y003800D01*
X036695Y003642D02*
X038568Y003642D01*
X038704Y003483D02*
X036549Y003483D01*
X036104Y003483D02*
X029591Y003483D01*
X029650Y003424D02*
X029532Y003542D01*
X029378Y003606D01*
X029212Y003606D01*
X029058Y003542D01*
X028941Y003424D01*
X028877Y003271D01*
X028877Y003104D01*
X028941Y002951D01*
X029058Y002833D01*
X029212Y002769D01*
X029378Y002769D01*
X029532Y002833D01*
X029650Y002951D01*
X029713Y003104D01*
X029713Y003271D01*
X029650Y003424D01*
X029691Y003325D02*
X038840Y003325D01*
X038976Y003166D02*
X029713Y003166D01*
X029673Y003008D02*
X039110Y003008D01*
X039326Y003187D02*
X040983Y003187D01*
X041233Y002937D01*
X041390Y003325D02*
X043013Y003325D01*
X043087Y003356D02*
X042933Y003292D01*
X042816Y003174D01*
X042752Y003021D01*
X042752Y002854D01*
X042816Y002701D01*
X042933Y002583D01*
X043087Y002519D01*
X043253Y002519D01*
X043407Y002583D01*
X043525Y002701D01*
X043588Y002854D01*
X043588Y003021D01*
X043525Y003174D01*
X043407Y003292D01*
X043253Y003356D01*
X043087Y003356D01*
X043087Y003394D02*
X043253Y003394D01*
X043407Y003458D01*
X043525Y003576D01*
X043588Y003729D01*
X043588Y003896D01*
X043525Y004049D01*
X043407Y004167D01*
X043253Y004231D01*
X043087Y004231D01*
X042933Y004167D01*
X042816Y004049D01*
X042752Y003896D01*
X042752Y003729D01*
X042816Y003576D01*
X042933Y003458D01*
X043087Y003394D01*
X042908Y003483D02*
X039442Y003483D01*
X039306Y003642D02*
X042788Y003642D01*
X042752Y003800D02*
X039406Y003800D01*
X039486Y003959D02*
X042778Y003959D01*
X042884Y004117D02*
X039495Y004117D01*
X039441Y004276D02*
X045261Y004276D01*
X045222Y004237D02*
X045158Y004083D01*
X045158Y003917D01*
X045222Y003763D01*
X045340Y003646D01*
X045493Y003582D01*
X045660Y003582D01*
X045813Y003646D01*
X045931Y003763D01*
X045995Y003917D01*
X045995Y004083D01*
X045931Y004237D01*
X045813Y004354D01*
X045660Y004418D01*
X045493Y004418D01*
X045340Y004354D01*
X045222Y004237D01*
X045173Y004117D02*
X043456Y004117D01*
X043562Y003959D02*
X045158Y003959D01*
X045207Y003800D02*
X043588Y003800D01*
X043552Y003642D02*
X045348Y003642D01*
X045804Y003642D02*
X049858Y003642D01*
X050017Y003800D02*
X045946Y003800D01*
X045995Y003959D02*
X050175Y003959D01*
X050334Y004117D02*
X045980Y004117D01*
X045892Y004276D02*
X050492Y004276D01*
X050651Y004435D02*
X039476Y004435D01*
X039495Y004593D02*
X048786Y004593D01*
X048648Y004650D02*
X048926Y004535D01*
X049227Y004535D01*
X049504Y004650D01*
X049717Y004863D01*
X049832Y005140D01*
X049832Y005441D01*
X049717Y005719D01*
X049504Y005931D01*
X049227Y006046D01*
X048926Y006046D01*
X048648Y005931D01*
X048436Y005719D01*
X048321Y005441D01*
X048321Y005140D01*
X048436Y004863D01*
X048648Y004650D01*
X048547Y004752D02*
X039451Y004752D01*
X039320Y004910D02*
X048416Y004910D01*
X048351Y005069D02*
X042935Y005069D01*
X042970Y005083D02*
X043087Y005201D01*
X043151Y005354D01*
X043151Y005521D01*
X043087Y005674D01*
X042970Y005792D01*
X042818Y005855D01*
X042870Y005979D01*
X042870Y006146D01*
X042806Y006299D01*
X042688Y006417D01*
X042535Y006481D01*
X042368Y006481D01*
X042215Y006417D01*
X042097Y006299D01*
X042033Y006146D01*
X042033Y005979D01*
X042097Y005826D01*
X042215Y005708D01*
X042366Y005645D01*
X042315Y005521D01*
X042315Y005354D01*
X042378Y005201D01*
X042496Y005083D01*
X042650Y005019D01*
X042816Y005019D01*
X042970Y005083D01*
X043098Y005227D02*
X048321Y005227D01*
X048321Y005386D02*
X043151Y005386D01*
X043141Y005544D02*
X048364Y005544D01*
X048429Y005703D02*
X043058Y005703D01*
X042821Y005861D02*
X048579Y005861D01*
X048863Y006020D02*
X042870Y006020D01*
X042856Y006179D02*
X050211Y006179D01*
X050222Y006206D02*
X050158Y006052D01*
X050158Y005886D01*
X050222Y005732D01*
X050340Y005614D01*
X050493Y005551D01*
X050660Y005551D01*
X050813Y005614D01*
X050931Y005732D01*
X050995Y005886D01*
X050995Y006052D01*
X050931Y006206D01*
X050813Y006323D01*
X050660Y006387D01*
X050493Y006387D01*
X050340Y006323D01*
X050222Y006206D01*
X050158Y006020D02*
X049290Y006020D01*
X049574Y005861D02*
X050168Y005861D01*
X050251Y005703D02*
X049724Y005703D01*
X049789Y005544D02*
X051761Y005544D01*
X051806Y005703D02*
X050902Y005703D01*
X050985Y005861D02*
X051806Y005861D01*
X051806Y006020D02*
X050995Y006020D01*
X050942Y006179D02*
X051806Y006179D01*
X051806Y006337D02*
X050780Y006337D01*
X050373Y006337D02*
X042768Y006337D01*
X042135Y006337D02*
X038856Y006337D01*
X038856Y006179D02*
X042047Y006179D01*
X042033Y006020D02*
X038856Y006020D01*
X038856Y005861D02*
X042082Y005861D01*
X042227Y005703D02*
X038856Y005703D01*
X038856Y005544D02*
X042324Y005544D01*
X042315Y005386D02*
X038856Y005386D01*
X038856Y005227D02*
X042367Y005227D01*
X042530Y005069D02*
X038856Y005069D01*
X038296Y004910D02*
X035476Y004910D01*
X035570Y004752D02*
X038296Y004752D01*
X038296Y004593D02*
X035588Y004593D01*
X035544Y004435D02*
X038296Y004435D01*
X038576Y004062D02*
X039326Y003187D01*
X039524Y002691D02*
X032129Y002691D01*
X032284Y002532D02*
X039369Y002532D01*
X039278Y002374D02*
X032375Y002374D01*
X032449Y002215D02*
X039204Y002215D01*
X039161Y002056D02*
X032492Y002056D01*
X032515Y001898D02*
X039138Y001898D01*
X039138Y001739D02*
X032515Y001739D01*
X032495Y001581D02*
X039158Y001581D01*
X039200Y001422D02*
X032452Y001422D01*
X032382Y001264D02*
X039271Y001264D01*
X039362Y001105D02*
X032291Y001105D01*
X032142Y000947D02*
X039511Y000947D01*
X041142Y000947D02*
X061511Y000947D01*
X061362Y001105D02*
X041291Y001105D01*
X041382Y001264D02*
X061271Y001264D01*
X061200Y001422D02*
X041452Y001422D01*
X041495Y001581D02*
X061158Y001581D01*
X061138Y001739D02*
X044988Y001739D01*
X045063Y001771D02*
X045181Y001888D01*
X045245Y002042D01*
X045245Y002208D01*
X045181Y002362D01*
X045063Y002479D01*
X044910Y002543D01*
X044743Y002543D01*
X044590Y002479D01*
X044472Y002362D01*
X044408Y002208D01*
X044408Y002042D01*
X044472Y001888D01*
X044590Y001771D01*
X044743Y001707D01*
X044910Y001707D01*
X045063Y001771D01*
X045185Y001898D02*
X061138Y001898D01*
X061161Y002056D02*
X045245Y002056D01*
X045242Y002215D02*
X061204Y002215D01*
X061278Y002374D02*
X045169Y002374D01*
X044936Y002532D02*
X061369Y002532D01*
X061524Y002691D02*
X050298Y002691D01*
X050536Y002849D02*
X061745Y002849D01*
X062908Y002849D02*
X063299Y002849D01*
X063299Y002691D02*
X063129Y002691D01*
X063284Y002532D02*
X063299Y002532D01*
X063299Y003008D02*
X050695Y003008D01*
X050853Y003166D02*
X063299Y003166D01*
X063299Y003325D02*
X051012Y003325D01*
X051170Y003483D02*
X063299Y003483D01*
X063299Y003642D02*
X051329Y003642D01*
X051487Y003800D02*
X063299Y003800D01*
X063299Y003959D02*
X051646Y003959D01*
X051804Y004117D02*
X063299Y004117D01*
X063299Y004276D02*
X051963Y004276D01*
X052121Y004435D02*
X063299Y004435D01*
X063299Y004593D02*
X052280Y004593D01*
X052439Y004752D02*
X063299Y004752D01*
X063299Y004910D02*
X052597Y004910D01*
X052756Y005069D02*
X063299Y005069D01*
X063299Y005227D02*
X052828Y005227D01*
X052846Y005386D02*
X063299Y005386D01*
X063299Y005544D02*
X052846Y005544D01*
X052846Y005703D02*
X063299Y005703D01*
X063299Y005861D02*
X052846Y005861D01*
X052846Y006020D02*
X063299Y006020D01*
X063299Y006179D02*
X052846Y006179D01*
X052846Y006337D02*
X063299Y006337D01*
X063299Y006496D02*
X052846Y006496D01*
X052846Y006654D02*
X063299Y006654D01*
X063299Y006813D02*
X052846Y006813D01*
X052846Y006971D02*
X063299Y006971D01*
X063299Y007130D02*
X052846Y007130D01*
X052846Y007288D02*
X063299Y007288D01*
X063299Y007447D02*
X052846Y007447D01*
X052846Y007605D02*
X063299Y007605D01*
X063299Y007764D02*
X052846Y007764D01*
X052846Y007923D02*
X063299Y007923D01*
X063299Y008081D02*
X052846Y008081D01*
X052846Y008240D02*
X063299Y008240D01*
X063299Y008398D02*
X052846Y008398D01*
X052846Y008557D02*
X063299Y008557D01*
X063299Y008715D02*
X052846Y008715D01*
X052846Y008874D02*
X063299Y008874D01*
X063299Y009032D02*
X052846Y009032D01*
X052846Y009191D02*
X063299Y009191D01*
X063299Y009349D02*
X052846Y009349D01*
X052846Y009508D02*
X063299Y009508D01*
X063299Y009666D02*
X052846Y009666D01*
X052846Y009825D02*
X063299Y009825D01*
X063299Y009984D02*
X052846Y009984D01*
X052846Y010142D02*
X063299Y010142D01*
X063299Y010301D02*
X052846Y010301D01*
X052846Y010459D02*
X063299Y010459D01*
X063299Y010618D02*
X052846Y010618D01*
X052846Y010776D02*
X063299Y010776D01*
X063299Y010935D02*
X052846Y010935D01*
X052846Y011093D02*
X063299Y011093D01*
X063299Y011252D02*
X052846Y011252D01*
X052846Y011410D02*
X063299Y011410D01*
X063299Y011569D02*
X052846Y011569D01*
X052846Y011728D02*
X063299Y011728D01*
X063299Y011886D02*
X052846Y011886D01*
X052846Y012045D02*
X063299Y012045D01*
X063299Y012203D02*
X052846Y012203D01*
X052846Y012362D02*
X063299Y012362D01*
X063299Y012520D02*
X052846Y012520D01*
X052846Y012679D02*
X063299Y012679D01*
X063299Y012837D02*
X052846Y012837D01*
X052846Y012996D02*
X063299Y012996D01*
X063299Y013154D02*
X052846Y013154D01*
X052846Y013313D02*
X063299Y013313D01*
X063299Y013472D02*
X052846Y013472D01*
X052846Y013630D02*
X063299Y013630D01*
X063299Y013789D02*
X052846Y013789D01*
X052846Y013947D02*
X063299Y013947D01*
X063299Y014106D02*
X052846Y014106D01*
X052846Y014264D02*
X063299Y014264D01*
X063299Y014423D02*
X052846Y014423D01*
X052846Y014581D02*
X063299Y014581D01*
X063299Y014740D02*
X052846Y014740D01*
X052846Y014898D02*
X063299Y014898D01*
X063299Y015057D02*
X052846Y015057D01*
X052846Y015216D02*
X063299Y015216D01*
X063299Y015374D02*
X052846Y015374D01*
X052846Y015533D02*
X063299Y015533D01*
X063299Y015691D02*
X052846Y015691D01*
X052846Y015850D02*
X063299Y015850D01*
X063299Y016008D02*
X052846Y016008D01*
X052846Y016167D02*
X063299Y016167D01*
X063299Y016325D02*
X052846Y016325D01*
X052846Y016484D02*
X063299Y016484D01*
X063299Y016642D02*
X052846Y016642D01*
X052846Y016801D02*
X063299Y016801D01*
X063299Y016959D02*
X052846Y016959D01*
X052846Y017118D02*
X063299Y017118D01*
X063299Y017277D02*
X052846Y017277D01*
X052846Y017435D02*
X063299Y017435D01*
X063299Y017594D02*
X052846Y017594D01*
X052846Y017752D02*
X063299Y017752D01*
X063299Y017911D02*
X052846Y017911D01*
X052846Y018069D02*
X063299Y018069D01*
X063299Y018228D02*
X052846Y018228D01*
X052846Y018386D02*
X063299Y018386D01*
X063299Y018545D02*
X052846Y018545D01*
X052846Y018703D02*
X063299Y018703D01*
X063299Y018862D02*
X052846Y018862D01*
X052846Y019021D02*
X063299Y019021D01*
X063299Y019179D02*
X052846Y019179D01*
X052846Y019338D02*
X063299Y019338D01*
X063299Y019496D02*
X052787Y019496D01*
X052657Y019655D02*
X063299Y019655D01*
X063299Y019813D02*
X052498Y019813D01*
X052621Y019691D02*
X052621Y019691D01*
X052340Y019972D02*
X063299Y019972D01*
X063299Y020130D02*
X052181Y020130D01*
X052023Y020289D02*
X063299Y020289D01*
X063299Y020447D02*
X051864Y020447D01*
X051706Y020606D02*
X063299Y020606D01*
X063299Y020765D02*
X051547Y020765D01*
X051389Y020923D02*
X063299Y020923D01*
X063299Y021082D02*
X051230Y021082D01*
X051072Y021240D02*
X063299Y021240D01*
X063299Y021399D02*
X045094Y021399D01*
X045252Y021557D02*
X063299Y021557D01*
X063299Y021716D02*
X045354Y021716D01*
X045440Y021874D02*
X063299Y021874D01*
X063299Y022033D02*
X045482Y022033D01*
X045515Y022191D02*
X063299Y022191D01*
X063299Y022350D02*
X045515Y022350D01*
X045504Y022509D02*
X063299Y022509D01*
X063299Y022667D02*
X045462Y022667D01*
X045403Y022826D02*
X054357Y022826D01*
X054340Y022833D02*
X054493Y022769D01*
X054660Y022769D01*
X054813Y022833D01*
X054931Y022951D01*
X054995Y023104D01*
X054995Y023271D01*
X054931Y023424D01*
X054813Y023542D01*
X054660Y023606D01*
X054493Y023606D01*
X054340Y023542D01*
X054222Y023424D01*
X054158Y023271D01*
X054158Y023104D01*
X054222Y022951D01*
X054340Y022833D01*
X054208Y022984D02*
X045311Y022984D01*
X045177Y023143D02*
X054158Y023143D01*
X054171Y023301D02*
X044991Y023301D01*
X044637Y023460D02*
X054258Y023460D01*
X054895Y023460D02*
X063299Y023460D01*
X063299Y023618D02*
X014942Y023618D01*
X015056Y023777D02*
X063299Y023777D01*
X063299Y023935D02*
X059321Y023935D01*
X059376Y023958D02*
X059493Y024076D01*
X059557Y024229D01*
X059557Y024396D01*
X059493Y024549D01*
X059376Y024667D01*
X059222Y024731D01*
X059056Y024731D01*
X058902Y024667D01*
X058785Y024549D01*
X058721Y024396D01*
X058721Y024229D01*
X058785Y024076D01*
X058902Y023958D01*
X059056Y023894D01*
X059222Y023894D01*
X059376Y023958D01*
X059501Y024094D02*
X063299Y024094D01*
X063299Y024252D02*
X059557Y024252D01*
X059551Y024411D02*
X063299Y024411D01*
X063299Y024570D02*
X059473Y024570D01*
X059228Y024728D02*
X063299Y024728D01*
X063299Y024887D02*
X057057Y024887D01*
X057057Y024958D02*
X056993Y025112D01*
X056876Y025229D01*
X056722Y025293D01*
X056556Y025293D01*
X056402Y025229D01*
X056285Y025112D01*
X056221Y024958D01*
X056221Y024792D01*
X056285Y024638D01*
X056402Y024521D01*
X056556Y024457D01*
X056722Y024457D01*
X056876Y024521D01*
X056993Y024638D01*
X057057Y024792D01*
X057057Y024958D01*
X057021Y025045D02*
X063299Y025045D01*
X063299Y025204D02*
X056901Y025204D01*
X057031Y024728D02*
X059050Y024728D01*
X058805Y024570D02*
X056925Y024570D01*
X056353Y024570D02*
X055935Y024570D01*
X055902Y024411D02*
X058727Y024411D01*
X058721Y024252D02*
X055765Y024252D01*
X055388Y024252D02*
X055265Y024252D01*
X054888Y024252D02*
X054765Y024252D01*
X054388Y024252D02*
X054265Y024252D01*
X053888Y024252D02*
X053765Y024252D01*
X053388Y024252D02*
X053265Y024252D01*
X052888Y024252D02*
X052765Y024252D01*
X052388Y024252D02*
X052265Y024252D01*
X051888Y024252D02*
X051765Y024252D01*
X051388Y024252D02*
X051265Y024252D01*
X050888Y024252D02*
X050765Y024252D01*
X050388Y024252D02*
X050265Y024252D01*
X049888Y024252D02*
X049765Y024252D01*
X049388Y024252D02*
X049265Y024252D01*
X048888Y024252D02*
X048765Y024252D01*
X048388Y024252D02*
X048265Y024252D01*
X047888Y024252D02*
X047765Y024252D01*
X047388Y024252D02*
X047265Y024252D01*
X046888Y024252D02*
X046765Y024252D01*
X046388Y024252D02*
X046265Y024252D01*
X045888Y024252D02*
X045765Y024252D01*
X045388Y024252D02*
X045265Y024252D01*
X044888Y024252D02*
X044765Y024252D01*
X044388Y024252D02*
X044265Y024252D01*
X043888Y024252D02*
X043765Y024252D01*
X043388Y024252D02*
X043265Y024252D01*
X042888Y024252D02*
X042765Y024252D01*
X042388Y024252D02*
X042265Y024252D01*
X041888Y024252D02*
X041765Y024252D01*
X041388Y024252D02*
X041265Y024252D01*
X040888Y024252D02*
X040765Y024252D01*
X040388Y024252D02*
X040265Y024252D01*
X039888Y024252D02*
X039765Y024252D01*
X039388Y024252D02*
X039265Y024252D01*
X038888Y024252D02*
X038765Y024252D01*
X038388Y024252D02*
X038265Y024252D01*
X037888Y024252D02*
X037765Y024252D01*
X037388Y024252D02*
X037265Y024252D01*
X036888Y024252D02*
X036765Y024252D01*
X036388Y024252D02*
X036265Y024252D01*
X035888Y024252D02*
X035765Y024252D01*
X035388Y024252D02*
X035265Y024252D01*
X034888Y024252D02*
X034765Y024252D01*
X034388Y024252D02*
X034265Y024252D01*
X033888Y024252D02*
X033765Y024252D01*
X033388Y024252D02*
X033265Y024252D01*
X032888Y024252D02*
X032765Y024252D01*
X032388Y024252D02*
X032265Y024252D01*
X031888Y024252D02*
X031765Y024252D01*
X031388Y024252D02*
X031366Y024252D01*
X030718Y025045D02*
X007603Y025045D01*
X007444Y025204D02*
X008871Y025204D01*
X008596Y025362D02*
X007286Y025362D01*
X007127Y025521D02*
X008437Y025521D01*
X009781Y025204D02*
X030747Y025204D01*
X030869Y025362D02*
X010057Y025362D01*
X010216Y025521D02*
X063299Y025521D01*
X063299Y025679D02*
X010333Y025679D01*
X010425Y025838D02*
X012316Y025838D01*
X012198Y025955D02*
X012198Y025955D01*
X012181Y025996D02*
X010472Y025996D01*
X010515Y026155D02*
X012119Y026155D01*
X012119Y026314D02*
X010515Y026314D01*
X010514Y026472D02*
X012119Y026472D01*
X012119Y026631D02*
X010472Y026631D01*
X010424Y026789D02*
X012119Y026789D01*
X012119Y026948D02*
X010332Y026948D01*
X010214Y027106D02*
X012119Y027106D01*
X012119Y027265D02*
X010054Y027265D01*
X009773Y027423D02*
X012119Y027423D01*
X014282Y024094D02*
X005811Y024094D01*
X005811Y024252D02*
X007384Y024252D01*
X007219Y024411D02*
X005811Y024411D01*
X005811Y024570D02*
X007060Y024570D01*
X006902Y024728D02*
X005811Y024728D01*
X005811Y024887D02*
X006743Y024887D01*
X005811Y023935D02*
X014252Y023935D01*
X014284Y023777D02*
X005811Y023777D01*
X005811Y023618D02*
X014398Y023618D01*
X015088Y023935D02*
X058957Y023935D01*
X058777Y024094D02*
X015058Y024094D01*
X014251Y022792D02*
X014097Y022856D01*
X013931Y022856D01*
X013777Y022792D01*
X013660Y022674D01*
X013596Y022521D01*
X013596Y022354D01*
X013660Y022201D01*
X013777Y022083D01*
X013931Y022019D01*
X014097Y022019D01*
X014251Y022083D01*
X014368Y022201D01*
X014432Y022354D01*
X014432Y022521D01*
X014368Y022674D01*
X014251Y022792D01*
X014169Y022826D02*
X026250Y022826D01*
X026191Y022667D02*
X014371Y022667D01*
X014432Y022509D02*
X026148Y022509D01*
X026138Y022350D02*
X014430Y022350D01*
X014359Y022191D02*
X026138Y022191D01*
X026171Y022033D02*
X014130Y022033D01*
X013898Y022033D02*
X005811Y022033D01*
X005811Y022191D02*
X013669Y022191D01*
X013598Y022350D02*
X005811Y022350D01*
X005811Y022509D02*
X013596Y022509D01*
X013657Y022667D02*
X005811Y022667D01*
X005811Y022826D02*
X013859Y022826D01*
X015621Y019979D02*
X015503Y019862D01*
X015440Y019708D01*
X015440Y019542D01*
X015503Y019388D01*
X015621Y019271D01*
X015775Y019207D01*
X015941Y019207D01*
X016095Y019271D01*
X016212Y019388D01*
X016276Y019542D01*
X016276Y019708D01*
X016212Y019862D01*
X016095Y019979D01*
X015941Y020043D01*
X015775Y020043D01*
X015621Y019979D01*
X015613Y019972D02*
X006559Y019972D01*
X006450Y019813D02*
X015483Y019813D01*
X015440Y019655D02*
X006596Y019655D01*
X006648Y019496D02*
X015458Y019496D01*
X015554Y019338D02*
X006641Y019338D01*
X006570Y019179D02*
X019556Y019179D01*
X019556Y019021D02*
X006374Y019021D01*
X006405Y018862D02*
X015639Y018862D01*
X015621Y018854D02*
X015503Y018737D01*
X015440Y018583D01*
X015440Y018417D01*
X015503Y018263D01*
X015621Y018146D01*
X015775Y018082D01*
X015941Y018082D01*
X016095Y018146D01*
X016212Y018263D01*
X016276Y018417D01*
X016276Y018583D01*
X016212Y018737D01*
X016095Y018854D01*
X015941Y018918D01*
X015775Y018918D01*
X015621Y018854D01*
X015489Y018703D02*
X006600Y018703D01*
X006666Y018545D02*
X015440Y018545D01*
X015452Y018386D02*
X006671Y018386D01*
X006623Y018228D02*
X015539Y018228D01*
X016177Y018228D02*
X019556Y018228D01*
X019556Y018386D02*
X016263Y018386D01*
X016276Y018545D02*
X019556Y018545D01*
X019556Y018703D02*
X016226Y018703D01*
X016076Y018862D02*
X019556Y018862D01*
X019556Y019338D02*
X016162Y019338D01*
X016257Y019496D02*
X019556Y019496D01*
X019556Y019655D02*
X016276Y019655D01*
X016232Y019813D02*
X019556Y019813D01*
X019556Y019972D02*
X016102Y019972D01*
X019556Y020130D02*
X006671Y020130D01*
X006788Y020289D02*
X019556Y020289D01*
X020596Y020289D02*
X036337Y020289D01*
X036340Y020292D02*
X036265Y020217D01*
X024521Y020217D01*
X024418Y020175D01*
X024339Y020096D01*
X023082Y018839D01*
X023082Y018984D01*
X022967Y019262D01*
X022754Y019475D01*
X022477Y019590D01*
X022176Y019590D01*
X021898Y019475D01*
X021686Y019262D01*
X021571Y018984D01*
X021571Y018684D01*
X021686Y018406D01*
X021898Y018194D01*
X022176Y018079D01*
X022322Y018079D01*
X021214Y016970D01*
X021181Y017049D01*
X021112Y017118D01*
X021121Y017122D01*
X021267Y017268D01*
X021346Y017459D01*
X021346Y017666D01*
X021267Y017857D01*
X021177Y017947D01*
X021181Y017951D01*
X021245Y018104D01*
X021245Y018271D01*
X021181Y018424D01*
X021063Y018542D01*
X020910Y018606D01*
X020743Y018606D01*
X020596Y018545D01*
X020597Y018545D01*
X020596Y018545D02*
X020596Y020355D01*
X036492Y020355D01*
X036340Y020292D01*
X036661Y020355D02*
X050486Y020355D01*
X051806Y019035D01*
X051806Y018082D01*
X050985Y018082D01*
X050995Y018104D01*
X050995Y018271D01*
X050931Y018424D01*
X050813Y018542D01*
X050660Y018606D01*
X050493Y018606D01*
X050340Y018542D01*
X050222Y018424D01*
X050158Y018271D01*
X050158Y018104D01*
X050222Y017951D01*
X050226Y017947D01*
X050136Y017857D01*
X050056Y017666D01*
X050056Y017459D01*
X050136Y017268D01*
X050282Y017122D01*
X050291Y017118D01*
X050222Y017049D01*
X050189Y016970D01*
X049081Y018079D01*
X049227Y018079D01*
X049504Y018194D01*
X049717Y018406D01*
X049832Y018684D01*
X049832Y018984D01*
X049717Y019262D01*
X049504Y019475D01*
X049227Y019590D01*
X048926Y019590D01*
X048648Y019475D01*
X048436Y019262D01*
X048321Y018984D01*
X048321Y018839D01*
X046985Y020175D01*
X046882Y020217D01*
X046771Y020217D01*
X036888Y020217D01*
X036813Y020292D01*
X036661Y020355D01*
X036816Y020289D02*
X050552Y020289D01*
X050711Y020130D02*
X047029Y020130D01*
X047188Y019972D02*
X050869Y019972D01*
X051028Y019813D02*
X047347Y019813D01*
X047505Y019655D02*
X051186Y019655D01*
X051345Y019496D02*
X049452Y019496D01*
X049641Y019338D02*
X051503Y019338D01*
X051662Y019179D02*
X049751Y019179D01*
X049817Y019021D02*
X051806Y019021D01*
X051806Y018862D02*
X049832Y018862D01*
X049832Y018703D02*
X051806Y018703D01*
X051806Y018545D02*
X050806Y018545D01*
X050947Y018386D02*
X051806Y018386D01*
X051806Y018228D02*
X050995Y018228D01*
X050347Y018545D02*
X049774Y018545D01*
X049697Y018386D02*
X050206Y018386D01*
X050158Y018228D02*
X049539Y018228D01*
X049249Y017911D02*
X050189Y017911D01*
X050173Y018069D02*
X049091Y018069D01*
X049408Y017752D02*
X050092Y017752D01*
X050056Y017594D02*
X049566Y017594D01*
X049725Y017435D02*
X050066Y017435D01*
X050132Y017277D02*
X049883Y017277D01*
X050042Y017118D02*
X050291Y017118D01*
X050968Y016959D02*
X051806Y016959D01*
X051806Y016801D02*
X050995Y016801D01*
X050959Y016642D02*
X051806Y016642D01*
X051806Y016484D02*
X050871Y016484D01*
X050972Y016325D02*
X051806Y016325D01*
X051806Y016167D02*
X050995Y016167D01*
X050955Y016008D02*
X051806Y016008D01*
X051806Y015850D02*
X050849Y015850D01*
X050963Y015691D02*
X051806Y015691D01*
X051806Y015533D02*
X050995Y015533D01*
X050964Y015374D02*
X051806Y015374D01*
X051806Y015216D02*
X050940Y015216D01*
X050995Y015057D02*
X051806Y015057D01*
X051806Y014898D02*
X050987Y014898D01*
X050908Y014740D02*
X051806Y014740D01*
X051806Y014581D02*
X050956Y014581D01*
X050995Y014423D02*
X051806Y014423D01*
X051806Y014264D02*
X050970Y014264D01*
X050867Y014106D02*
X051806Y014106D01*
X051806Y013947D02*
X050850Y013947D01*
X050856Y013789D02*
X051806Y013789D01*
X051806Y013630D02*
X050856Y013630D01*
X050856Y013472D02*
X051806Y013472D01*
X051806Y013313D02*
X050856Y013313D01*
X050856Y013154D02*
X051806Y013154D01*
X051806Y012996D02*
X050856Y012996D01*
X050954Y012837D02*
X051806Y012837D01*
X051806Y012679D02*
X050995Y012679D01*
X050973Y012520D02*
X051806Y012520D01*
X051806Y012362D02*
X050873Y012362D01*
X050945Y012203D02*
X051806Y012203D01*
X051806Y012045D02*
X050995Y012045D01*
X050982Y011886D02*
X051806Y011886D01*
X051806Y011728D02*
X051503Y011728D01*
X051599Y011569D02*
X051806Y011569D01*
X051806Y011410D02*
X051620Y011410D01*
X051577Y011252D02*
X051806Y011252D01*
X051806Y011093D02*
X051449Y011093D01*
X051806Y010935D02*
X042088Y010935D01*
X041930Y011093D02*
X050390Y011093D01*
X050763Y011093D02*
X050954Y011093D01*
X050813Y010636D02*
X050660Y010699D01*
X050493Y010699D01*
X050340Y010636D01*
X050222Y010518D01*
X050158Y010364D01*
X050158Y010198D01*
X050222Y010044D01*
X050282Y009984D01*
X050222Y009924D01*
X050158Y009771D01*
X050158Y009604D01*
X050222Y009451D01*
X050266Y009406D01*
X050222Y009362D01*
X050158Y009208D01*
X050158Y009042D01*
X050222Y008888D01*
X050340Y008771D01*
X050493Y008707D01*
X050660Y008707D01*
X050813Y008771D01*
X050931Y008888D01*
X050995Y009042D01*
X050995Y009208D01*
X050931Y009362D01*
X050886Y009406D01*
X050931Y009451D01*
X050995Y009604D01*
X050995Y009771D01*
X050931Y009924D01*
X050871Y009984D01*
X050931Y010044D01*
X050995Y010198D01*
X050995Y010364D01*
X050931Y010518D01*
X050813Y010636D01*
X050831Y010618D02*
X051806Y010618D01*
X051806Y010776D02*
X042247Y010776D01*
X042391Y010618D02*
X050322Y010618D01*
X050198Y010459D02*
X043052Y010459D01*
X043138Y010301D02*
X050158Y010301D01*
X050181Y010142D02*
X043151Y010142D01*
X043101Y009984D02*
X050281Y009984D01*
X050181Y009825D02*
X042950Y009825D01*
X042861Y009666D02*
X050158Y009666D01*
X050198Y009508D02*
X042870Y009508D01*
X042816Y009349D02*
X050217Y009349D01*
X050158Y009191D02*
X042647Y009191D01*
X042256Y009191D02*
X038856Y009191D01*
X038856Y009349D02*
X042087Y009349D01*
X041997Y009508D02*
X038856Y009508D01*
X038856Y009666D02*
X041838Y009666D01*
X041733Y009825D02*
X038856Y009825D01*
X038856Y009984D02*
X041716Y009984D01*
X041716Y010142D02*
X038856Y010142D01*
X038856Y010301D02*
X041704Y010301D01*
X041546Y010459D02*
X038856Y010459D01*
X038856Y010618D02*
X041387Y010618D01*
X041771Y011252D02*
X046116Y011252D01*
X045957Y011410D02*
X041552Y011410D01*
X039495Y011569D02*
X045799Y011569D01*
X045640Y011728D02*
X039461Y011728D01*
X039344Y011886D02*
X045482Y011886D01*
X045957Y012203D02*
X049977Y012203D01*
X049819Y012362D02*
X045798Y012362D01*
X045640Y012520D02*
X049660Y012520D01*
X049502Y012679D02*
X045481Y012679D01*
X045322Y012837D02*
X049343Y012837D01*
X049185Y012996D02*
X045164Y012996D01*
X045005Y013154D02*
X049026Y013154D01*
X048867Y013313D02*
X044847Y013313D01*
X044688Y013472D02*
X048796Y013472D01*
X048796Y013444D02*
X048839Y013341D01*
X050158Y012022D01*
X050158Y011917D01*
X050222Y011763D01*
X050251Y011734D01*
X050234Y011717D01*
X046442Y011717D01*
X040606Y017553D01*
X040606Y017751D01*
X040681Y017826D01*
X040745Y017979D01*
X040745Y018146D01*
X040740Y018157D01*
X045336Y018157D01*
X048796Y014696D01*
X048796Y013556D01*
X048796Y013444D01*
X048796Y013630D02*
X044530Y013630D01*
X044371Y013789D02*
X048796Y013789D01*
X048796Y013947D02*
X044213Y013947D01*
X044054Y014106D02*
X048796Y014106D01*
X048796Y014264D02*
X043896Y014264D01*
X043737Y014423D02*
X048796Y014423D01*
X048796Y014581D02*
X043578Y014581D01*
X043420Y014740D02*
X048753Y014740D01*
X048595Y014898D02*
X043261Y014898D01*
X043103Y015057D02*
X048436Y015057D01*
X048277Y015216D02*
X042944Y015216D01*
X042786Y015374D02*
X048119Y015374D01*
X047960Y015533D02*
X042627Y015533D01*
X042469Y015691D02*
X047802Y015691D01*
X047643Y015850D02*
X042310Y015850D01*
X042152Y016008D02*
X047485Y016008D01*
X047326Y016167D02*
X041993Y016167D01*
X041834Y016325D02*
X047168Y016325D01*
X047009Y016484D02*
X041676Y016484D01*
X041517Y016642D02*
X046851Y016642D01*
X046692Y016801D02*
X041359Y016801D01*
X041200Y016959D02*
X046533Y016959D01*
X046375Y017118D02*
X041042Y017118D01*
X040883Y017277D02*
X046216Y017277D01*
X046058Y017435D02*
X040725Y017435D01*
X040606Y017594D02*
X045899Y017594D01*
X045741Y017752D02*
X040607Y017752D01*
X040716Y017911D02*
X045582Y017911D01*
X045424Y018069D02*
X040745Y018069D01*
X040326Y018062D02*
X040326Y017437D01*
X046326Y011437D01*
X050545Y011437D01*
X050576Y011469D01*
X050244Y011728D02*
X046432Y011728D01*
X046274Y011886D02*
X050171Y011886D01*
X050136Y012045D02*
X046115Y012045D01*
X049076Y013500D02*
X050576Y012000D01*
X050576Y012656D02*
X050576Y013875D01*
X045639Y018812D01*
X038451Y018812D01*
X025764Y018812D01*
X020826Y013875D01*
X020826Y012656D01*
X020530Y012362D02*
X005838Y012362D01*
X005814Y012203D02*
X020458Y012203D01*
X020408Y012045D02*
X005712Y012045D01*
X005800Y012520D02*
X020430Y012520D01*
X020408Y012679D02*
X005782Y012679D01*
X005783Y012837D02*
X020449Y012837D01*
X020546Y012996D02*
X005783Y012996D01*
X005784Y013154D02*
X020546Y013154D01*
X020546Y013313D02*
X005785Y013313D01*
X005786Y013472D02*
X020546Y013472D01*
X020546Y013630D02*
X005786Y013630D01*
X005787Y013789D02*
X020546Y013789D01*
X020553Y013947D02*
X005788Y013947D01*
X005789Y014106D02*
X020567Y014106D01*
X020446Y014264D02*
X005789Y014264D01*
X005790Y014423D02*
X020408Y014423D01*
X020434Y014581D02*
X005791Y014581D01*
X005792Y014740D02*
X020495Y014740D01*
X020416Y014898D02*
X005792Y014898D01*
X005793Y015057D02*
X005959Y015057D01*
X005809Y015216D02*
X005794Y015216D01*
X006191Y015216D02*
X006211Y015216D01*
X006211Y015374D02*
X006191Y015374D01*
X006191Y015533D02*
X006211Y015533D01*
X006211Y015691D02*
X006191Y015691D01*
X006191Y015850D02*
X006211Y015850D01*
X006384Y015850D02*
X020554Y015850D01*
X020448Y016008D02*
X006393Y016008D01*
X006595Y016167D02*
X020408Y016167D01*
X020431Y016325D02*
X006664Y016325D01*
X006671Y016484D02*
X020532Y016484D01*
X020444Y016642D02*
X006625Y016642D01*
X006503Y016801D02*
X020408Y016801D01*
X020435Y016959D02*
X005802Y016959D01*
X005802Y016801D02*
X005900Y016801D01*
X005884Y017118D02*
X005803Y017118D01*
X006191Y017118D02*
X006211Y017118D01*
X006211Y017277D02*
X006191Y017277D01*
X006212Y017435D02*
X019968Y017435D01*
X019810Y017594D02*
X006624Y017594D01*
X006523Y017752D02*
X019651Y017752D01*
X019576Y017911D02*
X005807Y017911D01*
X005808Y018069D02*
X005905Y018069D01*
X005880Y017752D02*
X005806Y017752D01*
X006191Y017752D02*
X006211Y017752D01*
X006211Y017594D02*
X006191Y017594D01*
X006622Y017277D02*
X020127Y017277D01*
X020291Y017118D02*
X006518Y017118D01*
X006498Y018069D02*
X019556Y018069D01*
X020596Y018703D02*
X021571Y018703D01*
X021571Y018862D02*
X020596Y018862D01*
X020596Y019021D02*
X021586Y019021D01*
X021652Y019179D02*
X020596Y019179D01*
X020596Y019338D02*
X021761Y019338D01*
X021951Y019496D02*
X020596Y019496D01*
X020596Y019655D02*
X023898Y019655D01*
X024056Y019813D02*
X020596Y019813D01*
X020596Y019972D02*
X024215Y019972D01*
X024339Y020096D02*
X024339Y020096D01*
X024373Y020130D02*
X020596Y020130D01*
X021056Y018545D02*
X021628Y018545D01*
X021706Y018386D02*
X021197Y018386D01*
X021245Y018228D02*
X021864Y018228D01*
X022154Y017911D02*
X021213Y017911D01*
X021230Y018069D02*
X022312Y018069D01*
X021995Y017752D02*
X021311Y017752D01*
X021346Y017594D02*
X021837Y017594D01*
X021678Y017435D02*
X021336Y017435D01*
X021271Y017277D02*
X021520Y017277D01*
X021361Y017118D02*
X021112Y017118D01*
X020826Y016187D02*
X024576Y019937D01*
X036576Y019937D01*
X046826Y019937D01*
X050576Y016187D01*
X050576Y015531D02*
X046514Y019562D01*
X037201Y019562D01*
X024826Y019562D01*
X020826Y015531D01*
X020439Y015374D02*
X006647Y015374D01*
X006642Y015533D02*
X020408Y015533D01*
X020440Y015691D02*
X006573Y015691D01*
X006593Y015216D02*
X020463Y015216D01*
X020408Y015057D02*
X006443Y015057D01*
X006211Y015057D02*
X006191Y015057D01*
X005830Y015691D02*
X005796Y015691D01*
X005797Y015850D02*
X006019Y015850D01*
X006009Y016008D02*
X005798Y016008D01*
X005799Y016167D02*
X005807Y016167D01*
X005870Y018862D02*
X005998Y018862D01*
X006028Y019021D02*
X005831Y019021D01*
X005833Y019179D02*
X005811Y019179D01*
X006191Y019179D02*
X006211Y019179D01*
X006211Y019021D02*
X006191Y019021D01*
X006191Y019338D02*
X006211Y019338D01*
X006211Y019496D02*
X006191Y019496D01*
X006191Y019655D02*
X006211Y019655D01*
X006211Y019813D02*
X006191Y019813D01*
X005953Y019813D02*
X005811Y019813D01*
X005811Y019972D02*
X005844Y019972D01*
X005811Y020923D02*
X005952Y020923D01*
X005811Y021082D02*
X006110Y021082D01*
X006269Y021240D02*
X005811Y021240D01*
X005811Y021399D02*
X026559Y021399D01*
X026401Y021557D02*
X005811Y021557D01*
X005811Y021716D02*
X026298Y021716D01*
X026213Y021874D02*
X005811Y021874D01*
X005811Y022984D02*
X026342Y022984D01*
X026476Y023143D02*
X005811Y023143D01*
X005811Y023301D02*
X026662Y023301D01*
X027016Y023460D02*
X005811Y023460D01*
X004738Y032497D02*
X001284Y032497D01*
X001284Y032655D02*
X004417Y032655D01*
X004259Y032814D02*
X001284Y032814D01*
X001284Y032972D02*
X004155Y032972D01*
X004082Y033131D02*
X001284Y033131D01*
X001284Y033289D02*
X004039Y033289D01*
X004029Y033448D02*
X001284Y033448D01*
X001284Y033607D02*
X004032Y033607D01*
X003187Y034558D02*
X002425Y034558D01*
X002636Y034716D02*
X003019Y034716D01*
X002910Y034875D02*
X002777Y034875D01*
X002778Y035826D02*
X002909Y035826D01*
X003017Y035985D02*
X002638Y035985D01*
X002431Y036143D02*
X003183Y036143D01*
X003496Y036302D02*
X001284Y036302D01*
X001284Y036143D02*
X001584Y036143D01*
X001377Y035985D02*
X001284Y035985D01*
X022702Y019496D02*
X023739Y019496D01*
X023581Y019338D02*
X022891Y019338D01*
X023001Y019179D02*
X023422Y019179D01*
X023264Y019021D02*
X023067Y019021D01*
X023082Y018862D02*
X023105Y018862D01*
X025076Y019187D02*
X037826Y019187D01*
X046389Y019187D01*
X050576Y015000D01*
X049076Y014812D02*
X049076Y013500D01*
X049076Y014812D02*
X045451Y018437D01*
X039076Y018437D01*
X025889Y018437D01*
X022326Y014875D01*
X022326Y013500D01*
X020826Y012000D01*
X021245Y012022D02*
X022485Y013263D01*
X022564Y013341D01*
X022606Y013444D01*
X022606Y014759D01*
X026005Y018157D01*
X030526Y018157D01*
X028043Y015675D01*
X027964Y015596D01*
X027921Y015493D01*
X027921Y013053D01*
X027179Y012311D01*
X025896Y012311D01*
X025793Y012269D01*
X025714Y012190D01*
X025117Y011592D01*
X021228Y011592D01*
X021181Y011706D01*
X021152Y011734D01*
X021181Y011763D01*
X021245Y011917D01*
X021245Y012022D01*
X021267Y012045D02*
X025569Y012045D01*
X025728Y012203D02*
X021426Y012203D01*
X021584Y012362D02*
X027230Y012362D01*
X027388Y012520D02*
X021743Y012520D01*
X021901Y012679D02*
X027547Y012679D01*
X027705Y012837D02*
X022060Y012837D01*
X022218Y012996D02*
X027864Y012996D01*
X027921Y013154D02*
X022377Y013154D01*
X022535Y013313D02*
X027921Y013313D01*
X027921Y013472D02*
X022606Y013472D01*
X022606Y013630D02*
X027921Y013630D01*
X027921Y013789D02*
X022606Y013789D01*
X022606Y013947D02*
X027921Y013947D01*
X027921Y014106D02*
X022606Y014106D01*
X022606Y014264D02*
X027921Y014264D01*
X027921Y014423D02*
X022606Y014423D01*
X022606Y014581D02*
X027921Y014581D01*
X027921Y014740D02*
X022606Y014740D01*
X022746Y014898D02*
X027921Y014898D01*
X027921Y015057D02*
X022904Y015057D01*
X023063Y015216D02*
X027921Y015216D01*
X027921Y015374D02*
X023221Y015374D01*
X023380Y015533D02*
X027938Y015533D01*
X028059Y015691D02*
X023539Y015691D01*
X023697Y015850D02*
X028218Y015850D01*
X028376Y016008D02*
X023856Y016008D01*
X024014Y016167D02*
X028535Y016167D01*
X028693Y016325D02*
X024173Y016325D01*
X024331Y016484D02*
X028852Y016484D01*
X029011Y016642D02*
X024490Y016642D01*
X024648Y016801D02*
X029169Y016801D01*
X029328Y016959D02*
X024807Y016959D01*
X024965Y017118D02*
X029486Y017118D01*
X029645Y017277D02*
X025124Y017277D01*
X025283Y017435D02*
X029803Y017435D01*
X029962Y017594D02*
X025441Y017594D01*
X025600Y017752D02*
X030120Y017752D01*
X030279Y017911D02*
X025758Y017911D01*
X025917Y018069D02*
X030437Y018069D01*
X028094Y021399D02*
X043559Y021399D01*
X043401Y021557D02*
X028252Y021557D01*
X028354Y021716D02*
X043298Y021716D01*
X043213Y021874D02*
X028440Y021874D01*
X028482Y022033D02*
X043171Y022033D01*
X043138Y022191D02*
X028515Y022191D01*
X028515Y022350D02*
X043138Y022350D01*
X043148Y022509D02*
X028504Y022509D01*
X028462Y022667D02*
X043191Y022667D01*
X043250Y022826D02*
X028403Y022826D01*
X028311Y022984D02*
X043342Y022984D01*
X043476Y023143D02*
X028177Y023143D01*
X027991Y023301D02*
X043662Y023301D01*
X044016Y023460D02*
X027637Y023460D01*
X031283Y025362D02*
X031369Y025362D01*
X031783Y025362D02*
X031869Y025362D01*
X032283Y025362D02*
X032369Y025362D01*
X032783Y025362D02*
X032869Y025362D01*
X033283Y025362D02*
X033369Y025362D01*
X033783Y025362D02*
X033869Y025362D01*
X034283Y025362D02*
X034369Y025362D01*
X034783Y025362D02*
X034869Y025362D01*
X035283Y025362D02*
X035369Y025362D01*
X035783Y025362D02*
X035869Y025362D01*
X036283Y025362D02*
X036369Y025362D01*
X036783Y025362D02*
X036869Y025362D01*
X037283Y025362D02*
X037369Y025362D01*
X037783Y025362D02*
X037869Y025362D01*
X038283Y025362D02*
X038369Y025362D01*
X038783Y025362D02*
X038869Y025362D01*
X039283Y025362D02*
X039369Y025362D01*
X039783Y025362D02*
X039869Y025362D01*
X040283Y025362D02*
X040369Y025362D01*
X040783Y025362D02*
X040869Y025362D01*
X041283Y025362D02*
X041369Y025362D01*
X041783Y025362D02*
X041869Y025362D01*
X042283Y025362D02*
X042369Y025362D01*
X042783Y025362D02*
X042869Y025362D01*
X043283Y025362D02*
X043369Y025362D01*
X043783Y025362D02*
X043869Y025362D01*
X044283Y025362D02*
X044369Y025362D01*
X044783Y025362D02*
X044869Y025362D01*
X045283Y025362D02*
X045369Y025362D01*
X045783Y025362D02*
X045869Y025362D01*
X046283Y025362D02*
X046369Y025362D01*
X046783Y025362D02*
X046869Y025362D01*
X047283Y025362D02*
X047369Y025362D01*
X047783Y025362D02*
X047869Y025362D01*
X048283Y025362D02*
X048369Y025362D01*
X048783Y025362D02*
X048869Y025362D01*
X049283Y025362D02*
X049369Y025362D01*
X049783Y025362D02*
X049869Y025362D01*
X050283Y025362D02*
X050369Y025362D01*
X050783Y025362D02*
X050869Y025362D01*
X051283Y025362D02*
X051369Y025362D01*
X051783Y025362D02*
X051869Y025362D01*
X052283Y025362D02*
X052369Y025362D01*
X052783Y025362D02*
X052869Y025362D01*
X053283Y025362D02*
X053369Y025362D01*
X053783Y025362D02*
X053869Y025362D01*
X054283Y025362D02*
X054369Y025362D01*
X054783Y025362D02*
X054869Y025362D01*
X055283Y025362D02*
X055369Y025362D01*
X055783Y025362D02*
X063299Y025362D01*
X063299Y023301D02*
X054982Y023301D01*
X054995Y023143D02*
X063299Y023143D01*
X063299Y022984D02*
X054945Y022984D01*
X054795Y022826D02*
X063299Y022826D01*
X056376Y025204D02*
X055906Y025204D01*
X055935Y025045D02*
X056257Y025045D01*
X056221Y024887D02*
X055892Y024887D01*
X055896Y024728D02*
X056247Y024728D01*
X048701Y019496D02*
X047664Y019496D01*
X047822Y019338D02*
X048511Y019338D01*
X048402Y019179D02*
X047981Y019179D01*
X048139Y019021D02*
X048336Y019021D01*
X048321Y018862D02*
X048298Y018862D01*
X050955Y010459D02*
X051806Y010459D01*
X051806Y010301D02*
X050995Y010301D01*
X050971Y010142D02*
X051806Y010142D01*
X051806Y009984D02*
X050872Y009984D01*
X050972Y009825D02*
X051806Y009825D01*
X051806Y009666D02*
X050995Y009666D01*
X050955Y009508D02*
X051806Y009508D01*
X051806Y009349D02*
X050936Y009349D01*
X050995Y009191D02*
X051806Y009191D01*
X051806Y009032D02*
X050991Y009032D01*
X050917Y008874D02*
X051806Y008874D01*
X051806Y008715D02*
X050680Y008715D01*
X050473Y008715D02*
X038856Y008715D01*
X038856Y008557D02*
X051806Y008557D01*
X051806Y008398D02*
X038856Y008398D01*
X038856Y008240D02*
X051806Y008240D01*
X051806Y008081D02*
X038856Y008081D01*
X038856Y007923D02*
X051806Y007923D01*
X051806Y007764D02*
X038856Y007764D01*
X038856Y007605D02*
X051806Y007605D01*
X051806Y007447D02*
X038856Y007447D01*
X038856Y007288D02*
X051806Y007288D01*
X051806Y007130D02*
X038856Y007130D01*
X038856Y006971D02*
X051806Y006971D01*
X051806Y006813D02*
X038856Y006813D01*
X038856Y006654D02*
X051806Y006654D01*
X051806Y006496D02*
X038856Y006496D01*
X038296Y006496D02*
X034370Y006496D01*
X034366Y006654D02*
X038296Y006654D01*
X038296Y006813D02*
X034292Y006813D01*
X034057Y006971D02*
X035139Y006971D01*
X035049Y007130D02*
X031887Y007130D01*
X031640Y007130D02*
X030680Y007130D01*
X030682Y007288D02*
X031416Y007288D01*
X031346Y007447D02*
X030622Y007447D01*
X030608Y006971D02*
X033846Y006971D01*
X033610Y006813D02*
X030376Y006813D01*
X030252Y006654D02*
X033537Y006654D01*
X034311Y006337D02*
X038296Y006337D01*
X038296Y006179D02*
X037333Y006179D01*
X037456Y006020D02*
X038296Y006020D01*
X038296Y005861D02*
X037495Y005861D01*
X037471Y005703D02*
X038296Y005703D01*
X038296Y006971D02*
X035764Y006971D01*
X035854Y007130D02*
X038296Y007130D01*
X038296Y007288D02*
X035870Y007288D01*
X035822Y007447D02*
X038296Y007447D01*
X038296Y007605D02*
X035686Y007605D01*
X035874Y008081D02*
X038296Y008081D01*
X038296Y008240D02*
X035973Y008240D01*
X035995Y008398D02*
X038296Y008398D01*
X038296Y008557D02*
X035954Y008557D01*
X035827Y008715D02*
X038296Y008715D01*
X038856Y008874D02*
X050236Y008874D01*
X050162Y009032D02*
X038856Y009032D01*
X038271Y010776D02*
X031475Y010776D01*
X031495Y010935D02*
X038177Y010935D01*
X038158Y011093D02*
X031451Y011093D01*
X031322Y011252D02*
X038202Y011252D01*
X038576Y011062D02*
X038576Y004062D01*
X039745Y002849D02*
X031908Y002849D01*
X030745Y002849D02*
X029548Y002849D01*
X029475Y002691D02*
X030524Y002691D01*
X030369Y002532D02*
X029657Y002532D01*
X029650Y002549D02*
X029532Y002667D01*
X029378Y002731D01*
X029212Y002731D01*
X029058Y002667D01*
X028941Y002549D01*
X028877Y002396D01*
X028877Y002229D01*
X028941Y002076D01*
X029058Y001958D01*
X029212Y001894D01*
X029378Y001894D01*
X029532Y001958D01*
X029650Y002076D01*
X029713Y002229D01*
X029713Y002396D01*
X029650Y002549D01*
X029713Y002374D02*
X030278Y002374D01*
X030204Y002215D02*
X029707Y002215D01*
X029630Y002056D02*
X030161Y002056D01*
X030138Y001898D02*
X029387Y001898D01*
X029203Y001898D02*
X010515Y001898D01*
X010515Y001739D02*
X030138Y001739D01*
X030158Y001581D02*
X010495Y001581D01*
X010452Y001422D02*
X030200Y001422D01*
X030271Y001264D02*
X010382Y001264D01*
X010291Y001105D02*
X030362Y001105D01*
X030511Y000947D02*
X010142Y000947D01*
X010492Y002056D02*
X028960Y002056D01*
X028883Y002215D02*
X010449Y002215D01*
X010375Y002374D02*
X028877Y002374D01*
X028934Y002532D02*
X010284Y002532D01*
X010129Y002691D02*
X029116Y002691D01*
X029042Y002849D02*
X027861Y002849D01*
X027986Y003008D02*
X028917Y003008D01*
X028877Y003166D02*
X028026Y003166D01*
X028003Y003325D02*
X028900Y003325D01*
X029000Y003483D02*
X027903Y003483D01*
X027608Y003187D02*
X026076Y003187D01*
X025576Y003687D01*
X026018Y003642D02*
X035957Y003642D01*
X035908Y003800D02*
X026406Y003800D01*
X026486Y003959D02*
X035922Y003959D01*
X036009Y004117D02*
X026495Y004117D01*
X026176Y003483D02*
X027312Y003483D01*
X027355Y002849D02*
X009908Y002849D01*
X008745Y002849D02*
X001284Y002849D01*
X001284Y002691D02*
X008524Y002691D01*
X008369Y002532D02*
X001284Y002532D01*
X001284Y002374D02*
X008278Y002374D01*
X008204Y002215D02*
X001284Y002215D01*
X001284Y002056D02*
X008161Y002056D01*
X008138Y001898D02*
X001284Y001898D01*
X001284Y001739D02*
X008138Y001739D01*
X008158Y001581D02*
X001284Y001581D01*
X001284Y001422D02*
X008200Y001422D01*
X008271Y001264D02*
X001284Y001264D01*
X001284Y001105D02*
X008362Y001105D01*
X008511Y000947D02*
X001284Y000947D01*
X001284Y003008D02*
X025860Y003008D01*
X025702Y003166D02*
X001284Y003166D01*
X001284Y007764D02*
X013633Y007764D01*
X013596Y007923D02*
X001284Y007923D01*
X001284Y008081D02*
X013621Y008081D01*
X013725Y008240D02*
X001284Y008240D01*
X016062Y011093D02*
X019954Y011093D01*
X019826Y011252D02*
X016295Y011252D01*
X016367Y011410D02*
X019783Y011410D01*
X019803Y011569D02*
X016370Y011569D01*
X016310Y011728D02*
X019900Y011728D01*
X020421Y011886D02*
X016112Y011886D01*
X016300Y010618D02*
X020541Y010618D01*
X020435Y010459D02*
X016369Y010459D01*
X016370Y010301D02*
X020408Y010301D01*
X020444Y010142D02*
X016308Y010142D01*
X020449Y011093D02*
X020640Y011093D01*
X020983Y011312D02*
X020826Y011469D01*
X020983Y011312D02*
X025233Y011312D01*
X025252Y011728D02*
X021159Y011728D01*
X021232Y011886D02*
X025410Y011886D01*
X026474Y011728D02*
X035908Y011728D01*
X035917Y011886D02*
X027546Y011886D01*
X027533Y011873D02*
X027533Y011873D01*
X027705Y012045D02*
X035999Y012045D01*
X035962Y011569D02*
X026495Y011569D01*
X025856Y007923D02*
X029159Y007923D01*
X029096Y007764D02*
X025856Y007764D01*
X025856Y007605D02*
X029096Y007605D01*
X029163Y007447D02*
X025856Y007447D01*
X030075Y006813D02*
X030151Y006813D01*
X032112Y007288D02*
X035033Y007288D01*
X035081Y007447D02*
X032182Y007447D01*
X035109Y008715D02*
X035325Y008715D01*
X041590Y003166D02*
X042812Y003166D01*
X042752Y003008D02*
X041651Y003008D01*
X041649Y002849D02*
X042754Y002849D01*
X042826Y002691D02*
X041577Y002691D01*
X041347Y002532D02*
X043056Y002532D01*
X043284Y002532D02*
X044717Y002532D01*
X044484Y002374D02*
X041375Y002374D01*
X041449Y002215D02*
X044411Y002215D01*
X044408Y002056D02*
X041492Y002056D01*
X041515Y001898D02*
X044468Y001898D01*
X044665Y001739D02*
X041515Y001739D01*
X043515Y002691D02*
X049980Y002691D01*
X049742Y002849D02*
X043586Y002849D01*
X043588Y003008D02*
X049651Y003008D01*
X049619Y003166D02*
X043528Y003166D01*
X043328Y003325D02*
X049633Y003325D01*
X049699Y003483D02*
X043432Y003483D01*
X049367Y004593D02*
X050809Y004593D01*
X050968Y004752D02*
X049606Y004752D01*
X049737Y004910D02*
X051126Y004910D01*
X051285Y005069D02*
X049802Y005069D01*
X049832Y005227D02*
X051443Y005227D01*
X051602Y005386D02*
X049832Y005386D01*
X025076Y019187D02*
X020826Y015000D01*
D18*
X013451Y024562D02*
X031076Y024562D01*
X039076Y011062D02*
X041451Y011062D01*
X042076Y010437D01*
X042076Y009937D01*
X042451Y009562D01*
X013451Y024562D02*
X007576Y024562D01*
X006826Y025312D01*
X005451Y025312D01*
X005451Y018844D01*
X005420Y012344D01*
D19*
X006201Y020437D02*
X006639Y020875D01*
X008545Y020875D01*
X020076Y020875D01*
X020076Y018062D01*
X020576Y017562D01*
X020826Y017562D01*
X020076Y020875D02*
X050701Y020875D01*
X052326Y019250D01*
X052326Y017687D01*
X052326Y005375D01*
X050139Y003187D01*
X050576Y017562D02*
X052201Y017562D01*
X052326Y017687D01*
M02*
