G75*
G70*
%OFA0B0*%
%FSLAX24Y24*%
%IPPOS*%
%LPD*%
%AMOC8*
5,1,8,0,0,1.08239X$1,22.5*
%
%ADD10C,0.0551*%
%ADD11C,0.1299*%
%ADD12C,0.0394*%
%ADD13R,0.3937X0.0011*%
%ADD14R,0.3937X0.0011*%
%ADD15R,0.0120X0.0011*%
%ADD16R,0.0120X0.0011*%
%ADD17R,0.0120X0.0011*%
%ADD18R,0.0120X0.0011*%
%ADD19R,0.2832X0.0011*%
%ADD20R,0.2843X0.0011*%
%ADD21R,0.2854X0.0011*%
%ADD22R,0.2865X0.0011*%
%ADD23R,0.0087X0.0011*%
%ADD24R,0.0077X0.0011*%
%ADD25R,0.0098X0.0011*%
%ADD26R,0.0087X0.0011*%
%ADD27R,0.0109X0.0011*%
%ADD28R,0.0131X0.0011*%
%ADD29R,0.0098X0.0011*%
%ADD30R,0.0088X0.0011*%
%ADD31R,0.0142X0.0011*%
%ADD32R,0.0131X0.0011*%
%ADD33R,0.0153X0.0011*%
%ADD34R,0.0164X0.0011*%
%ADD35R,0.0175X0.0011*%
%ADD36R,0.0186X0.0011*%
%ADD37R,0.0109X0.0011*%
%ADD38R,0.0197X0.0011*%
%ADD39R,0.0109X0.0011*%
%ADD40R,0.0208X0.0011*%
%ADD41R,0.0219X0.0011*%
%ADD42R,0.0230X0.0011*%
%ADD43R,0.0230X0.0011*%
%ADD44R,0.0241X0.0011*%
%ADD45R,0.0109X0.0011*%
%ADD46R,0.0241X0.0011*%
%ADD47R,0.0131X0.0011*%
%ADD48R,0.0252X0.0011*%
%ADD49R,0.3062X0.0011*%
%ADD50R,0.3073X0.0011*%
%ADD51R,0.3084X0.0011*%
%ADD52R,0.3106X0.0011*%
%ADD53R,0.0273X0.0011*%
%ADD54R,0.0252X0.0011*%
%ADD55R,0.0273X0.0011*%
%ADD56R,0.0142X0.0011*%
%ADD57R,0.0175X0.0011*%
%ADD58R,0.0175X0.0011*%
%ADD59R,0.0186X0.0011*%
%ADD60R,0.0164X0.0011*%
%ADD61R,0.0153X0.0011*%
%ADD62R,0.0186X0.0011*%
%ADD63R,0.0197X0.0011*%
%ADD64R,0.0219X0.0011*%
%ADD65R,0.0219X0.0011*%
%ADD66R,0.0230X0.0011*%
%ADD67R,0.0251X0.0011*%
%ADD68R,0.0262X0.0011*%
%ADD69R,0.0251X0.0011*%
%ADD70R,0.0262X0.0011*%
%ADD71R,0.0262X0.0011*%
%ADD72R,0.0284X0.0011*%
%ADD73R,0.0295X0.0011*%
%ADD74R,0.0273X0.0011*%
%ADD75R,0.0295X0.0011*%
%ADD76R,0.0273X0.0011*%
%ADD77R,0.0306X0.0011*%
%ADD78R,0.0306X0.0011*%
%ADD79R,0.0284X0.0011*%
%ADD80R,0.0317X0.0011*%
%ADD81R,0.0306X0.0011*%
%ADD82R,0.0328X0.0011*%
%ADD83R,0.0328X0.0011*%
%ADD84R,0.0306X0.0011*%
%ADD85R,0.0339X0.0011*%
%ADD86R,0.0339X0.0011*%
%ADD87R,0.0317X0.0011*%
%ADD88R,0.0350X0.0011*%
%ADD89R,0.0328X0.0011*%
%ADD90R,0.0350X0.0011*%
%ADD91R,0.0361X0.0011*%
%ADD92R,0.0361X0.0011*%
%ADD93R,0.0350X0.0011*%
%ADD94R,0.0350X0.0011*%
%ADD95R,0.0339X0.0011*%
%ADD96R,0.0339X0.0011*%
%ADD97R,0.0328X0.0011*%
%ADD98R,0.0317X0.0011*%
%ADD99R,0.0262X0.0011*%
%ADD100R,0.0230X0.0011*%
%ADD101R,0.0219X0.0011*%
%ADD102R,0.0208X0.0011*%
%ADD103R,0.0186X0.0011*%
%ADD104R,0.0175X0.0011*%
%ADD105R,0.0164X0.0011*%
%ADD106R,0.0153X0.0011*%
%ADD107R,0.1258X0.0011*%
%ADD108R,0.3182X0.0011*%
%ADD109R,0.3182X0.0011*%
%ADD110R,0.3182X0.0011*%
%ADD111R,0.2165X0.0011*%
%ADD112R,0.0131X0.0011*%
%ADD113R,0.0164X0.0011*%
%ADD114R,0.0077X0.0011*%
%ADD115R,0.0066X0.0011*%
%ADD116R,0.0088X0.0011*%
%ADD117R,0.0077X0.0011*%
%ADD118R,0.3073X0.0011*%
%ADD119R,0.3051X0.0011*%
%ADD120R,0.0744X0.0011*%
%ADD121R,0.0755X0.0011*%
%ADD122R,0.0766X0.0011*%
%ADD123R,0.0776X0.0011*%
%ADD124R,0.0787X0.0011*%
%ADD125R,0.0798X0.0011*%
%ADD126R,0.0798X0.0011*%
%ADD127R,0.0809X0.0011*%
%ADD128R,0.0820X0.0011*%
%ADD129R,0.0842X0.0011*%
%ADD130R,0.0842X0.0011*%
%ADD131R,0.0853X0.0011*%
%ADD132R,0.0864X0.0011*%
%ADD133R,0.0886X0.0011*%
%ADD134R,0.0886X0.0011*%
%ADD135R,0.0897X0.0011*%
%ADD136R,0.0908X0.0011*%
%ADD137R,0.0908X0.0011*%
%ADD138R,0.0930X0.0011*%
%ADD139R,0.0941X0.0011*%
%ADD140R,0.0951X0.0011*%
%ADD141R,0.0951X0.0011*%
%ADD142R,0.0962X0.0011*%
%ADD143R,0.0973X0.0011*%
%ADD144R,0.0995X0.0011*%
%ADD145R,0.0995X0.0011*%
%ADD146R,0.1006X0.0011*%
%ADD147R,0.1017X0.0011*%
%ADD148R,0.1039X0.0011*%
%ADD149R,0.1039X0.0011*%
%ADD150R,0.1050X0.0011*%
%ADD151R,0.1061X0.0011*%
%ADD152R,0.1061X0.0011*%
%ADD153R,0.1083X0.0011*%
%ADD154R,0.1094X0.0011*%
%ADD155R,0.1105X0.0011*%
%ADD156R,0.1105X0.0011*%
%ADD157R,0.1126X0.0011*%
%ADD158R,0.1137X0.0011*%
%ADD159R,0.1148X0.0011*%
%ADD160R,0.1148X0.0011*%
%ADD161R,0.1159X0.0011*%
%ADD162R,0.1170X0.0011*%
%ADD163R,0.1181X0.0011*%
%ADD164R,0.1192X0.0011*%
%ADD165R,0.1192X0.0011*%
%ADD166R,0.1203X0.0011*%
%ADD167R,0.1214X0.0011*%
%ADD168R,0.1214X0.0011*%
%ADD169R,0.1236X0.0011*%
%ADD170R,0.0984X0.0011*%
%ADD171R,0.0984X0.0011*%
%ADD172R,0.0208X0.0011*%
%ADD173R,0.0995X0.0011*%
%ADD174R,0.0995X0.0011*%
%ADD175R,0.1006X0.0011*%
%ADD176R,0.1006X0.0011*%
%ADD177R,0.1006X0.0011*%
%ADD178R,0.0547X0.0011*%
%ADD179R,0.0437X0.0011*%
%ADD180R,0.0536X0.0011*%
%ADD181R,0.0405X0.0011*%
%ADD182R,0.0536X0.0011*%
%ADD183R,0.0372X0.0011*%
%ADD184R,0.0547X0.0011*%
%ADD185R,0.0569X0.0011*%
%ADD186R,0.0481X0.0011*%
%ADD187R,0.0066X0.0011*%
%ADD188R,0.0459X0.0011*%
%ADD189R,0.0066X0.0011*%
%ADD190R,0.0437X0.0011*%
%ADD191R,0.0394X0.0011*%
%ADD192R,0.0383X0.0011*%
%ADD193R,0.0372X0.0011*%
%ADD194R,0.0066X0.0011*%
%ADD195R,0.0317X0.0011*%
%ADD196R,0.0011X0.0011*%
%ADD197R,0.0055X0.0011*%
%ADD198R,0.0295X0.0011*%
%ADD199R,0.0295X0.0011*%
%ADD200R,0.0142X0.0011*%
%ADD201R,0.0055X0.0011*%
%ADD202R,0.0241X0.0011*%
%ADD203R,0.0383X0.0011*%
%ADD204R,0.0416X0.0011*%
%ADD205R,0.0426X0.0011*%
%ADD206R,0.0448X0.0011*%
%ADD207R,0.0459X0.0011*%
%ADD208R,0.0470X0.0011*%
%ADD209R,0.0492X0.0011*%
%ADD210R,0.0503X0.0011*%
%ADD211R,0.0197X0.0011*%
%ADD212R,0.0197X0.0011*%
%ADD213R,0.0055X0.0011*%
%ADD214R,0.0241X0.0011*%
%ADD215R,0.0962X0.0011*%
%ADD216R,0.0536X0.0011*%
%ADD217R,0.0962X0.0011*%
%ADD218R,0.0951X0.0011*%
%ADD219R,0.0558X0.0011*%
%ADD220R,0.0930X0.0011*%
%ADD221R,0.0897X0.0011*%
%ADD222R,0.0875X0.0011*%
%ADD223R,0.0842X0.0011*%
%ADD224R,0.0558X0.0011*%
%ADD225R,0.0820X0.0011*%
%ADD226R,0.0755X0.0011*%
%ADD227R,0.0733X0.0011*%
%ADD228R,0.0525X0.0011*%
%ADD229R,0.0722X0.0011*%
%ADD230R,0.0525X0.0011*%
%ADD231R,0.0700X0.0011*%
%ADD232R,0.0689X0.0011*%
%ADD233R,0.0514X0.0011*%
%ADD234R,0.0678X0.0011*%
%ADD235R,0.0514X0.0011*%
%ADD236R,0.0656X0.0011*%
%ADD237R,0.0503X0.0011*%
%ADD238R,0.0656X0.0011*%
%ADD239R,0.0645X0.0011*%
%ADD240R,0.0634X0.0011*%
%ADD241R,0.0481X0.0011*%
%ADD242R,0.0634X0.0011*%
%ADD243R,0.0623X0.0011*%
%ADD244R,0.0470X0.0011*%
%ADD245R,0.0623X0.0011*%
%ADD246R,0.0470X0.0011*%
%ADD247R,0.0623X0.0011*%
%ADD248R,0.0612X0.0011*%
%ADD249R,0.0612X0.0011*%
%ADD250R,0.0623X0.0011*%
%ADD251R,0.0437X0.0011*%
%ADD252R,0.0427X0.0011*%
%ADD253R,0.0416X0.0011*%
%ADD254R,0.0416X0.0011*%
%ADD255R,0.0667X0.0011*%
%ADD256R,0.0689X0.0011*%
%ADD257R,0.0711X0.0011*%
%ADD258R,0.1105X0.0011*%
%ADD259R,0.1105X0.0011*%
%ADD260R,0.0426X0.0011*%
%ADD261R,0.1094X0.0011*%
%ADD262R,0.0481X0.0011*%
%ADD263R,0.1083X0.0011*%
%ADD264R,0.0492X0.0011*%
%ADD265R,0.1072X0.0011*%
%ADD266R,0.1050X0.0011*%
%ADD267R,0.0941X0.0011*%
%ADD268R,0.1039X0.0011*%
%ADD269R,0.1028X0.0011*%
%ADD270R,0.0919X0.0011*%
%ADD271R,0.1028X0.0011*%
%ADD272R,0.0919X0.0011*%
%ADD273R,0.0919X0.0011*%
%ADD274R,0.0908X0.0011*%
%ADD275R,0.0897X0.0011*%
%ADD276R,0.0940X0.0011*%
%ADD277R,0.0875X0.0011*%
%ADD278R,0.0886X0.0011*%
%ADD279R,0.0919X0.0011*%
%ADD280R,0.0875X0.0011*%
%ADD281R,0.0930X0.0011*%
%ADD282R,0.0973X0.0011*%
%ADD283R,0.1017X0.0011*%
%ADD284R,0.1061X0.0011*%
%ADD285R,0.1126X0.0011*%
%ADD286R,0.1290X0.0011*%
%ADD287R,0.1345X0.0011*%
%ADD288R,0.1498X0.0011*%
%ADD289R,0.1498X0.0011*%
%ADD290R,0.1498X0.0011*%
%ADD291R,0.1498X0.0011*%
%ADD292R,0.0416X0.0011*%
%ADD293R,0.0558X0.0011*%
%ADD294R,0.0591X0.0011*%
%ADD295R,0.0634X0.0011*%
%ADD296R,0.0667X0.0011*%
%ADD297R,0.0361X0.0011*%
%ADD298R,0.0700X0.0011*%
%ADD299R,0.0722X0.0011*%
%ADD300R,0.0448X0.0011*%
%ADD301R,0.0459X0.0011*%
%ADD302R,0.0755X0.0011*%
%ADD303R,0.0766X0.0011*%
%ADD304R,0.0766X0.0011*%
%ADD305R,0.0525X0.0011*%
%ADD306R,0.0514X0.0011*%
%ADD307R,0.0711X0.0011*%
%ADD308R,0.0503X0.0011*%
%ADD309R,0.0612X0.0011*%
%ADD310R,0.0580X0.0011*%
%ADD311R,0.0547X0.0011*%
%ADD312R,0.0405X0.0011*%
%ADD313R,0.0405X0.0011*%
%ADD314R,0.0372X0.0011*%
%ADD315R,0.0569X0.0011*%
%ADD316R,0.0591X0.0011*%
%ADD317R,0.0601X0.0011*%
%ADD318R,0.0601X0.0011*%
%ADD319R,0.1531X0.0011*%
%ADD320R,0.1531X0.0011*%
%ADD321R,0.1542X0.0011*%
%ADD322R,0.1553X0.0011*%
%ADD323R,0.1553X0.0011*%
%ADD324R,0.1564X0.0011*%
%ADD325R,0.1575X0.0011*%
%ADD326R,0.1564X0.0011*%
%ADD327R,0.1575X0.0011*%
%ADD328R,0.1564X0.0011*%
%ADD329R,0.1542X0.0011*%
%ADD330R,0.1520X0.0011*%
%ADD331R,0.1531X0.0011*%
%ADD332R,0.1531X0.0011*%
%ADD333R,0.1301X0.0011*%
%ADD334R,0.0208X0.0011*%
%ADD335R,0.1290X0.0011*%
%ADD336R,0.1280X0.0011*%
%ADD337R,0.1280X0.0011*%
%ADD338R,0.1269X0.0011*%
%ADD339R,0.1269X0.0011*%
%ADD340R,0.1258X0.0011*%
%ADD341R,0.1258X0.0011*%
%ADD342R,0.1247X0.0011*%
%ADD343R,0.1225X0.0011*%
%ADD344R,0.1028X0.0011*%
%ADD345R,0.0405X0.0011*%
%ADD346R,0.0142X0.0011*%
%ADD347R,0.0864X0.0011*%
%ADD348R,0.0831X0.0011*%
%ADD349R,0.0448X0.0011*%
%ADD350R,0.0394X0.0011*%
%ADD351R,0.0372X0.0011*%
%ADD352R,0.0383X0.0011*%
%ADD353R,0.0033X0.0011*%
%ADD354R,0.0284X0.0011*%
%ADD355R,0.0033X0.0011*%
%ADD356R,0.0361X0.0011*%
%ADD357R,0.0558X0.0011*%
%ADD358R,0.0601X0.0011*%
%ADD359R,0.0580X0.0011*%
%ADD360R,0.0591X0.0011*%
%ADD361R,0.0580X0.0011*%
%ADD362R,0.0580X0.0011*%
%ADD363R,0.0569X0.0011*%
%ADD364R,0.0569X0.0011*%
%ADD365R,0.0525X0.0011*%
%ADD366R,0.0514X0.0011*%
%ADD367R,0.0492X0.0011*%
%ADD368R,0.0481X0.0011*%
%ADD369R,0.0459X0.0011*%
%ADD370R,0.1137X0.0011*%
%ADD371R,0.1192X0.0011*%
%ADD372R,0.1225X0.0011*%
%ADD373R,0.1236X0.0011*%
%ADD374R,0.1148X0.0011*%
%ADD375R,0.1126X0.0011*%
%ADD376R,0.1050X0.0011*%
%ADD377R,0.0842X0.0011*%
%ADD378R,0.0733X0.0011*%
%ADD379R,0.0667X0.0011*%
%ADD380R,0.0236X0.0906*%
%ADD381C,0.0740*%
%ADD382R,0.0512X0.0591*%
%ADD383C,0.0945*%
%ADD384R,0.0591X0.0512*%
%ADD385R,0.0630X0.0591*%
%ADD386R,0.0472X0.0472*%
%ADD387C,0.0200*%
%ADD388C,0.0354*%
D10*
X011086Y002897D03*
X011086Y002897D03*
X024629Y002897D03*
X024629Y002897D03*
D11*
X033606Y002110D03*
X033606Y017858D03*
X002110Y017858D03*
X002110Y002110D03*
D12*
X000929Y000929D03*
X000929Y019039D03*
X034787Y019039D03*
X034787Y000929D03*
D13*
X027301Y013527D03*
X027301Y013538D03*
X027301Y013560D03*
X027301Y013571D03*
X027301Y013582D03*
X027301Y013593D03*
X027301Y013614D03*
X027301Y013625D03*
X027301Y013636D03*
X027301Y017355D03*
X027301Y017366D03*
X027301Y017376D03*
X027301Y017387D03*
X027301Y017409D03*
X027301Y017420D03*
X027301Y017431D03*
X027301Y017453D03*
X021002Y017453D03*
X021002Y017431D03*
X021002Y017420D03*
X021002Y017409D03*
X021002Y017387D03*
X021002Y017376D03*
X021002Y017366D03*
X021002Y017355D03*
X021002Y013636D03*
X021002Y013625D03*
X021002Y013614D03*
X021002Y013593D03*
X021002Y013582D03*
X021002Y013571D03*
X021002Y013560D03*
X021002Y013538D03*
X021002Y013527D03*
X014703Y013527D03*
X014703Y013538D03*
X014703Y013560D03*
X014703Y013571D03*
X014703Y013582D03*
X014703Y013593D03*
X014703Y013614D03*
X014703Y013625D03*
X014703Y013636D03*
X014703Y017355D03*
X014703Y017366D03*
X014703Y017376D03*
X014703Y017387D03*
X014703Y017409D03*
X014703Y017420D03*
X014703Y017431D03*
X014703Y017453D03*
X008403Y017453D03*
X008403Y017431D03*
X008403Y017420D03*
X008403Y017409D03*
X008403Y017387D03*
X008403Y017376D03*
X008403Y017366D03*
X008403Y017355D03*
X008403Y013636D03*
X008403Y013625D03*
X008403Y013614D03*
X008403Y013593D03*
X008403Y013582D03*
X008403Y013571D03*
X008403Y013560D03*
X008403Y013538D03*
X008403Y013527D03*
D14*
X008403Y013549D03*
X008403Y013603D03*
X008403Y017344D03*
X008403Y017398D03*
X008403Y017442D03*
X014703Y017442D03*
X014703Y017398D03*
X014703Y017344D03*
X014703Y013603D03*
X014703Y013549D03*
X021002Y013549D03*
X021002Y013603D03*
X021002Y017344D03*
X021002Y017398D03*
X021002Y017442D03*
X027301Y017442D03*
X027301Y017398D03*
X027301Y017344D03*
X027301Y013603D03*
X027301Y013549D03*
D15*
X025393Y013647D03*
X025393Y013702D03*
X025393Y013746D03*
X025393Y013800D03*
X025393Y013855D03*
X025393Y013899D03*
X025393Y013953D03*
X025393Y013997D03*
X025393Y014052D03*
X025393Y014096D03*
X025393Y014150D03*
X025393Y014194D03*
X025393Y014249D03*
X025393Y014292D03*
X025393Y014336D03*
X025393Y014391D03*
X025393Y014435D03*
X025393Y014489D03*
X025393Y014533D03*
X025393Y014588D03*
X025393Y014631D03*
X025393Y014686D03*
X025393Y014730D03*
X025393Y014785D03*
X025393Y014839D03*
X025393Y014883D03*
X025393Y014938D03*
X025393Y014981D03*
X025393Y015036D03*
X025393Y015080D03*
X025393Y015135D03*
X025393Y015178D03*
X025393Y015233D03*
X025393Y015277D03*
X025393Y015331D03*
X025393Y015375D03*
X025393Y015430D03*
X025393Y015474D03*
X025393Y015528D03*
X025393Y015572D03*
X025393Y015627D03*
X025393Y015670D03*
X025393Y015725D03*
X025393Y015769D03*
X025393Y015824D03*
X025393Y015867D03*
X025393Y015922D03*
X025393Y015966D03*
X025393Y016020D03*
X025393Y016064D03*
X025393Y016119D03*
X025393Y016163D03*
X025393Y016217D03*
X025393Y016261D03*
X025393Y016316D03*
X025393Y016359D03*
X025393Y016414D03*
X025393Y016458D03*
X025393Y016512D03*
X025393Y016556D03*
X025393Y016611D03*
X025393Y016655D03*
X025393Y016709D03*
X025393Y016753D03*
X025393Y016808D03*
X025393Y016851D03*
X025393Y016906D03*
X025393Y016950D03*
X025393Y017005D03*
X025393Y017048D03*
X025393Y017103D03*
X025393Y017147D03*
X025393Y017201D03*
X025393Y017245D03*
X025393Y017300D03*
X019093Y017300D03*
X019093Y017245D03*
X019093Y017201D03*
X019093Y017147D03*
X019093Y017103D03*
X019093Y017048D03*
X019093Y017005D03*
X019093Y016950D03*
X019093Y016906D03*
X019093Y016851D03*
X019093Y016808D03*
X019093Y016753D03*
X019093Y016709D03*
X019093Y016655D03*
X019093Y016611D03*
X019093Y016556D03*
X019093Y016512D03*
X019093Y016458D03*
X019093Y016414D03*
X019093Y016359D03*
X019093Y016316D03*
X019093Y016261D03*
X019093Y016217D03*
X019093Y016163D03*
X019093Y016119D03*
X019093Y016064D03*
X019093Y016020D03*
X019093Y015966D03*
X019093Y015922D03*
X019093Y015867D03*
X019093Y015824D03*
X019093Y015769D03*
X019093Y015725D03*
X019093Y015670D03*
X019093Y015627D03*
X019093Y015572D03*
X019093Y015528D03*
X019093Y015474D03*
X019093Y015430D03*
X019093Y015375D03*
X019093Y015331D03*
X019093Y015277D03*
X019093Y015233D03*
X019093Y015178D03*
X019093Y015135D03*
X019093Y015080D03*
X019093Y015036D03*
X019093Y014981D03*
X019093Y014938D03*
X019093Y014883D03*
X019093Y014839D03*
X019093Y014785D03*
X019093Y014730D03*
X019093Y014686D03*
X019093Y014631D03*
X019093Y014588D03*
X019093Y014533D03*
X019093Y014489D03*
X019093Y014435D03*
X019093Y014391D03*
X019093Y014336D03*
X019093Y014292D03*
X019093Y014249D03*
X019093Y014194D03*
X019093Y014150D03*
X019093Y014096D03*
X019093Y014052D03*
X019093Y013997D03*
X019093Y013953D03*
X019093Y013899D03*
X019093Y013855D03*
X019093Y013800D03*
X019093Y013746D03*
X019093Y013702D03*
X019093Y013647D03*
X015003Y014336D03*
X012794Y014336D03*
X012794Y014292D03*
X012794Y014249D03*
X012794Y014194D03*
X012794Y014150D03*
X012794Y014096D03*
X012794Y014052D03*
X012794Y013997D03*
X012794Y013953D03*
X012794Y013899D03*
X012794Y013855D03*
X012794Y013800D03*
X012794Y013746D03*
X012794Y013702D03*
X012794Y013647D03*
X012794Y014391D03*
X012794Y014435D03*
X012794Y014489D03*
X012794Y014533D03*
X012794Y014588D03*
X012794Y014631D03*
X012794Y014686D03*
X012794Y014730D03*
X012794Y014785D03*
X012794Y014839D03*
X012794Y014883D03*
X012794Y014938D03*
X012794Y014981D03*
X012794Y015036D03*
X012794Y015080D03*
X012794Y015135D03*
X012794Y015178D03*
X012794Y015233D03*
X012794Y015277D03*
X012794Y015331D03*
X012794Y015375D03*
X012794Y015430D03*
X012794Y015474D03*
X012794Y015528D03*
X012794Y015572D03*
X012794Y015627D03*
X012794Y015670D03*
X012794Y015725D03*
X012794Y015769D03*
X012794Y015824D03*
X012794Y015867D03*
X012794Y015922D03*
X012794Y015966D03*
X012794Y016020D03*
X012794Y016064D03*
X012794Y016119D03*
X012794Y016163D03*
X012794Y016217D03*
X012794Y016261D03*
X012794Y016316D03*
X012794Y016359D03*
X012794Y016414D03*
X012794Y016458D03*
X012794Y016512D03*
X012794Y016556D03*
X012794Y016611D03*
X012794Y016655D03*
X012794Y016709D03*
X012794Y016753D03*
X012794Y016808D03*
X012794Y016851D03*
X012794Y016906D03*
X012794Y016950D03*
X012794Y017005D03*
X012794Y017048D03*
X012794Y017103D03*
X012794Y017147D03*
X012794Y017201D03*
X012794Y017245D03*
X012794Y017300D03*
X014260Y016611D03*
X016195Y016611D03*
X008518Y015277D03*
X006495Y015277D03*
X006495Y015233D03*
X006495Y015178D03*
X006495Y015135D03*
X006495Y015080D03*
X006495Y015036D03*
X006495Y014981D03*
X006495Y014938D03*
X006495Y014883D03*
X006495Y014839D03*
X006495Y014785D03*
X006495Y014730D03*
X006495Y014686D03*
X006495Y014631D03*
X006495Y014588D03*
X006495Y014533D03*
X006495Y014489D03*
X006495Y014435D03*
X006495Y014391D03*
X006495Y014336D03*
X006495Y014292D03*
X006495Y014249D03*
X006495Y014194D03*
X006495Y014150D03*
X006495Y014096D03*
X006495Y014052D03*
X006495Y013997D03*
X006495Y013953D03*
X006495Y013899D03*
X006495Y013855D03*
X006495Y013800D03*
X006495Y013746D03*
X006495Y013702D03*
X006495Y013647D03*
X006495Y015331D03*
X006495Y015375D03*
X006495Y015430D03*
X006495Y015474D03*
X006495Y015528D03*
X006495Y015572D03*
X006495Y015627D03*
X006495Y015670D03*
X006495Y015725D03*
X006495Y015769D03*
X006495Y015824D03*
X006495Y015867D03*
X006495Y015922D03*
X006495Y015966D03*
X006495Y016020D03*
X006495Y016064D03*
X006495Y016119D03*
X006495Y016163D03*
X006495Y016217D03*
X006495Y016261D03*
X006495Y016316D03*
X006495Y016359D03*
X006495Y016414D03*
X006495Y016458D03*
X006495Y016512D03*
X006495Y016556D03*
X006495Y016611D03*
X006495Y016655D03*
X006495Y016709D03*
X006495Y016753D03*
X006495Y016808D03*
X006495Y016851D03*
X006495Y016906D03*
X006495Y016950D03*
X006495Y017005D03*
X006495Y017048D03*
X006495Y017103D03*
X006495Y017147D03*
X006495Y017201D03*
X006495Y017245D03*
X006495Y017300D03*
D16*
X010312Y017300D03*
X010312Y017245D03*
X010312Y017201D03*
X010312Y017147D03*
X010312Y017103D03*
X010312Y017048D03*
X010312Y017005D03*
X010312Y016950D03*
X010312Y016906D03*
X010312Y016851D03*
X010312Y016808D03*
X010312Y016753D03*
X010312Y016709D03*
X010312Y016655D03*
X010312Y016611D03*
X010312Y016556D03*
X010312Y016512D03*
X010312Y016458D03*
X010312Y016414D03*
X010312Y016359D03*
X010312Y016316D03*
X010312Y016261D03*
X010312Y016217D03*
X010312Y016163D03*
X010312Y016119D03*
X010312Y016064D03*
X010312Y016020D03*
X010312Y015966D03*
X010312Y015922D03*
X010312Y015867D03*
X010312Y015824D03*
X010312Y015769D03*
X010312Y015725D03*
X010312Y015670D03*
X010312Y015627D03*
X010312Y015572D03*
X010312Y015528D03*
X010312Y015474D03*
X010312Y015430D03*
X010312Y015375D03*
X010312Y015331D03*
X010312Y015277D03*
X010312Y015233D03*
X010312Y015178D03*
X010312Y015135D03*
X010312Y015080D03*
X010312Y015036D03*
X010312Y014981D03*
X010312Y014938D03*
X010312Y014883D03*
X010312Y014839D03*
X010312Y014785D03*
X010312Y014730D03*
X010312Y014686D03*
X010312Y014631D03*
X010312Y014588D03*
X010312Y014533D03*
X010312Y014489D03*
X010312Y014435D03*
X010312Y014391D03*
X010312Y014336D03*
X010312Y014292D03*
X010312Y014249D03*
X010312Y014194D03*
X010312Y014150D03*
X010312Y014096D03*
X010312Y014052D03*
X010312Y013997D03*
X010312Y013953D03*
X010312Y013899D03*
X010312Y013855D03*
X010312Y013800D03*
X010312Y013746D03*
X010312Y013702D03*
X010312Y013647D03*
X016611Y013647D03*
X016611Y013702D03*
X016611Y013746D03*
X016611Y013800D03*
X016611Y013855D03*
X016611Y013899D03*
X016611Y013953D03*
X016611Y013997D03*
X016611Y014052D03*
X016611Y014096D03*
X016611Y014150D03*
X016611Y014194D03*
X016611Y014249D03*
X016611Y014292D03*
X016611Y014336D03*
X016611Y014391D03*
X016611Y014435D03*
X016611Y014489D03*
X016611Y014533D03*
X016611Y014588D03*
X016611Y014631D03*
X016611Y014686D03*
X016611Y014730D03*
X016611Y014785D03*
X016611Y014839D03*
X016611Y014883D03*
X016611Y014938D03*
X016611Y014981D03*
X016611Y015036D03*
X016611Y015080D03*
X016611Y015135D03*
X016611Y015178D03*
X016611Y015233D03*
X016611Y015277D03*
X016611Y015331D03*
X016611Y015375D03*
X016611Y015430D03*
X016611Y015474D03*
X016611Y015528D03*
X016611Y015572D03*
X016611Y015627D03*
X016611Y015670D03*
X016611Y015725D03*
X016611Y015769D03*
X016611Y015824D03*
X016611Y015867D03*
X016611Y015922D03*
X016611Y015966D03*
X016611Y016020D03*
X016611Y016064D03*
X016611Y016119D03*
X016611Y016163D03*
X016611Y016217D03*
X016611Y016261D03*
X016611Y016316D03*
X016611Y016359D03*
X016611Y016414D03*
X016611Y016458D03*
X016611Y016512D03*
X016611Y016556D03*
X016611Y016611D03*
X016611Y016655D03*
X016611Y016709D03*
X016611Y016753D03*
X016611Y016808D03*
X016611Y016851D03*
X016611Y016906D03*
X016611Y016950D03*
X016611Y017005D03*
X016611Y017048D03*
X016611Y017103D03*
X016611Y017147D03*
X016611Y017201D03*
X016611Y017245D03*
X016611Y017300D03*
X020143Y016163D03*
X020690Y016950D03*
X022910Y016950D03*
X022910Y016906D03*
X022910Y016851D03*
X022910Y016808D03*
X022910Y016753D03*
X022910Y016709D03*
X022910Y016655D03*
X022910Y016611D03*
X022910Y016556D03*
X022910Y016512D03*
X022910Y016458D03*
X022910Y016414D03*
X022910Y016359D03*
X022910Y016316D03*
X022910Y016261D03*
X022910Y016217D03*
X022910Y016163D03*
X022910Y016119D03*
X022910Y016064D03*
X022910Y016020D03*
X022910Y015966D03*
X022910Y015922D03*
X022910Y015867D03*
X022910Y015824D03*
X022910Y015769D03*
X022910Y015725D03*
X022910Y015670D03*
X022910Y015627D03*
X022910Y015572D03*
X022910Y015528D03*
X022910Y015474D03*
X022910Y015430D03*
X022910Y015375D03*
X022910Y015331D03*
X022910Y015277D03*
X022910Y015233D03*
X022910Y015178D03*
X022910Y015135D03*
X022910Y015080D03*
X022910Y015036D03*
X022910Y014981D03*
X022910Y014938D03*
X022910Y014883D03*
X022910Y014839D03*
X022910Y014785D03*
X022910Y014730D03*
X022910Y014686D03*
X022910Y014631D03*
X022910Y014588D03*
X022910Y014533D03*
X022910Y014489D03*
X022910Y014435D03*
X022910Y014391D03*
X022910Y014336D03*
X022910Y014292D03*
X022910Y014249D03*
X022910Y014194D03*
X022910Y014150D03*
X022910Y014096D03*
X022910Y014052D03*
X022910Y013997D03*
X022910Y013953D03*
X022910Y013899D03*
X022910Y013855D03*
X022910Y013800D03*
X022910Y013746D03*
X022910Y013702D03*
X022910Y013647D03*
X021040Y014981D03*
X022910Y017005D03*
X022910Y017048D03*
X022910Y017103D03*
X022910Y017147D03*
X022910Y017201D03*
X022910Y017245D03*
X022910Y017300D03*
X029209Y017300D03*
X029209Y017245D03*
X029209Y017201D03*
X029209Y017147D03*
X029209Y017103D03*
X029209Y017048D03*
X029209Y017005D03*
X029209Y016950D03*
X029209Y016906D03*
X029209Y016851D03*
X029209Y016808D03*
X029209Y016753D03*
X029209Y016709D03*
X029209Y016655D03*
X029209Y016611D03*
X029209Y016556D03*
X029209Y016512D03*
X029209Y016458D03*
X029209Y016414D03*
X029209Y016359D03*
X029209Y016316D03*
X029209Y016261D03*
X029209Y016217D03*
X029209Y016163D03*
X029209Y016119D03*
X029209Y016064D03*
X029209Y016020D03*
X029209Y015966D03*
X029209Y015922D03*
X029209Y015867D03*
X029209Y015824D03*
X029209Y015769D03*
X029209Y015725D03*
X029209Y015670D03*
X029209Y015627D03*
X029209Y015572D03*
X029209Y015528D03*
X029209Y015474D03*
X029209Y015430D03*
X029209Y015375D03*
X029209Y015331D03*
X029209Y015277D03*
X029209Y015233D03*
X029209Y015178D03*
X029209Y015135D03*
X029209Y015080D03*
X029209Y015036D03*
X029209Y014981D03*
X029209Y014938D03*
X029209Y014883D03*
X029209Y014839D03*
X029209Y014785D03*
X029209Y014730D03*
X029209Y014686D03*
X029209Y014631D03*
X029209Y014588D03*
X029209Y014533D03*
X029209Y014489D03*
X029209Y014435D03*
X029209Y014391D03*
X029209Y014336D03*
X029209Y014292D03*
X029209Y014249D03*
X029209Y014194D03*
X029209Y014150D03*
X029209Y014096D03*
X029209Y014052D03*
X029209Y013997D03*
X029209Y013953D03*
X029209Y013899D03*
X029209Y013855D03*
X029209Y013800D03*
X029209Y013746D03*
X029209Y013702D03*
X029209Y013647D03*
D17*
X025393Y013658D03*
X025393Y013669D03*
X025393Y013680D03*
X025393Y013691D03*
X025393Y013713D03*
X025393Y013724D03*
X025393Y013735D03*
X025393Y013757D03*
X025393Y013768D03*
X025393Y013778D03*
X025393Y013789D03*
X025393Y013811D03*
X025393Y013822D03*
X025393Y013833D03*
X025393Y013844D03*
X025393Y013866D03*
X025393Y013877D03*
X025393Y013888D03*
X025393Y013910D03*
X025393Y013921D03*
X025393Y013932D03*
X025393Y013943D03*
X025393Y013964D03*
X025393Y013975D03*
X025393Y013986D03*
X025393Y014008D03*
X025393Y014019D03*
X025393Y014030D03*
X025393Y014041D03*
X025393Y014063D03*
X025393Y014074D03*
X025393Y014085D03*
X025393Y014107D03*
X025393Y014117D03*
X025393Y014128D03*
X025393Y014139D03*
X025393Y014161D03*
X025393Y014172D03*
X025393Y014183D03*
X025393Y014205D03*
X025393Y014216D03*
X025393Y014227D03*
X025393Y014238D03*
X025393Y014260D03*
X025393Y014271D03*
X025393Y014282D03*
X025393Y014303D03*
X025393Y014314D03*
X025393Y014325D03*
X025393Y014347D03*
X025393Y014358D03*
X025393Y014369D03*
X025393Y014380D03*
X025393Y014402D03*
X025393Y014413D03*
X025393Y014424D03*
X025393Y014446D03*
X025393Y014456D03*
X025393Y014467D03*
X025393Y014478D03*
X025393Y014500D03*
X025393Y014511D03*
X025393Y014522D03*
X025393Y014544D03*
X025393Y014555D03*
X025393Y014566D03*
X025393Y014577D03*
X025393Y014599D03*
X025393Y014610D03*
X025393Y014621D03*
X025393Y014642D03*
X025393Y014653D03*
X025393Y014664D03*
X025393Y014675D03*
X025393Y014697D03*
X025393Y014708D03*
X025393Y014719D03*
X025393Y014741D03*
X025393Y014752D03*
X025393Y014763D03*
X025393Y014774D03*
X025393Y014796D03*
X025393Y014806D03*
X025393Y014817D03*
X025393Y014828D03*
X025393Y014850D03*
X025393Y014861D03*
X025393Y014872D03*
X025393Y014894D03*
X025393Y014905D03*
X025393Y014916D03*
X025393Y014927D03*
X025393Y014949D03*
X025393Y014960D03*
X025393Y014971D03*
X025393Y014992D03*
X025393Y015003D03*
X025393Y015014D03*
X025393Y015025D03*
X025393Y015047D03*
X025393Y015058D03*
X025393Y015069D03*
X025393Y015091D03*
X025393Y015102D03*
X025393Y015113D03*
X025393Y015124D03*
X025393Y015145D03*
X025393Y015156D03*
X025393Y015167D03*
X025393Y015189D03*
X025393Y015200D03*
X025393Y015211D03*
X025393Y015222D03*
X025393Y015244D03*
X025393Y015255D03*
X025393Y015266D03*
X025393Y015288D03*
X025393Y015299D03*
X025393Y015310D03*
X025393Y015320D03*
X025393Y015342D03*
X025393Y015353D03*
X025393Y015364D03*
X025393Y015386D03*
X025393Y015397D03*
X025393Y015408D03*
X025393Y015419D03*
X025393Y015441D03*
X025393Y015452D03*
X025393Y015463D03*
X025393Y015484D03*
X025393Y015495D03*
X025393Y015506D03*
X025393Y015517D03*
X025393Y015539D03*
X025393Y015550D03*
X025393Y015561D03*
X025393Y015583D03*
X025393Y015594D03*
X025393Y015605D03*
X025393Y015616D03*
X025393Y015638D03*
X025393Y015649D03*
X025393Y015659D03*
X025393Y015681D03*
X025393Y015692D03*
X025393Y015703D03*
X025393Y015714D03*
X025393Y015736D03*
X025393Y015747D03*
X025393Y015758D03*
X025393Y015780D03*
X025393Y015791D03*
X025393Y015802D03*
X025393Y015813D03*
X025393Y015834D03*
X025393Y015845D03*
X025393Y015856D03*
X025393Y015878D03*
X025393Y015889D03*
X025393Y015900D03*
X025393Y015911D03*
X025393Y015933D03*
X025393Y015944D03*
X025393Y015955D03*
X025393Y015977D03*
X025393Y015988D03*
X025393Y015999D03*
X025393Y016009D03*
X025393Y016031D03*
X025393Y016042D03*
X025393Y016053D03*
X025393Y016075D03*
X025393Y016086D03*
X025393Y016097D03*
X025393Y016108D03*
X025393Y016130D03*
X025393Y016141D03*
X025393Y016152D03*
X025393Y016173D03*
X025393Y016184D03*
X025393Y016195D03*
X025393Y016206D03*
X025393Y016228D03*
X025393Y016239D03*
X025393Y016250D03*
X025393Y016272D03*
X025393Y016283D03*
X025393Y016294D03*
X025393Y016305D03*
X025393Y016327D03*
X025393Y016338D03*
X025393Y016348D03*
X025393Y016370D03*
X025393Y016381D03*
X025393Y016392D03*
X025393Y016403D03*
X025393Y016425D03*
X025393Y016436D03*
X025393Y016447D03*
X025393Y016469D03*
X025393Y016480D03*
X025393Y016491D03*
X025393Y016502D03*
X025393Y016523D03*
X025393Y016534D03*
X025393Y016545D03*
X025393Y016567D03*
X025393Y016578D03*
X025393Y016589D03*
X025393Y016600D03*
X025393Y016622D03*
X025393Y016633D03*
X025393Y016644D03*
X025393Y016666D03*
X025393Y016677D03*
X025393Y016687D03*
X025393Y016698D03*
X025393Y016720D03*
X025393Y016731D03*
X025393Y016742D03*
X025393Y016764D03*
X025393Y016775D03*
X025393Y016786D03*
X025393Y016797D03*
X025393Y016819D03*
X025393Y016830D03*
X025393Y016841D03*
X025393Y016862D03*
X025393Y016873D03*
X025393Y016884D03*
X025393Y016895D03*
X025393Y016917D03*
X025393Y016928D03*
X025393Y016939D03*
X025393Y016961D03*
X025393Y016972D03*
X025393Y016983D03*
X025393Y016994D03*
X025393Y017016D03*
X025393Y017026D03*
X025393Y017037D03*
X025393Y017059D03*
X025393Y017070D03*
X025393Y017081D03*
X025393Y017092D03*
X025393Y017114D03*
X025393Y017125D03*
X025393Y017136D03*
X025393Y017158D03*
X025393Y017169D03*
X025393Y017180D03*
X025393Y017191D03*
X025393Y017212D03*
X025393Y017223D03*
X025393Y017234D03*
X025393Y017256D03*
X025393Y017267D03*
X025393Y017278D03*
X025393Y017289D03*
X025393Y017311D03*
X025393Y017322D03*
X025393Y017333D03*
X021401Y017026D03*
X021401Y017016D03*
X021292Y016152D03*
X021292Y016141D03*
X021292Y016130D03*
X020756Y015856D03*
X019093Y015856D03*
X019093Y015845D03*
X019093Y015834D03*
X019093Y015813D03*
X019093Y015802D03*
X019093Y015791D03*
X019093Y015780D03*
X019093Y015758D03*
X019093Y015747D03*
X019093Y015736D03*
X019093Y015714D03*
X019093Y015703D03*
X019093Y015692D03*
X019093Y015681D03*
X019093Y015659D03*
X019093Y015649D03*
X019093Y015638D03*
X019093Y015616D03*
X019093Y015605D03*
X019093Y015594D03*
X019093Y015583D03*
X019093Y015561D03*
X019093Y015550D03*
X019093Y015539D03*
X019093Y015517D03*
X019093Y015506D03*
X019093Y015495D03*
X019093Y015484D03*
X019093Y015463D03*
X019093Y015452D03*
X019093Y015441D03*
X019093Y015419D03*
X019093Y015408D03*
X019093Y015397D03*
X019093Y015386D03*
X019093Y015364D03*
X019093Y015353D03*
X019093Y015342D03*
X019093Y015320D03*
X019093Y015310D03*
X019093Y015299D03*
X019093Y015288D03*
X019093Y015266D03*
X019093Y015255D03*
X019093Y015244D03*
X019093Y015222D03*
X019093Y015211D03*
X019093Y015200D03*
X019093Y015189D03*
X019093Y015167D03*
X019093Y015156D03*
X019093Y015145D03*
X019093Y015124D03*
X019093Y015113D03*
X019093Y015102D03*
X019093Y015091D03*
X019093Y015069D03*
X019093Y015058D03*
X019093Y015047D03*
X019093Y015025D03*
X019093Y015014D03*
X019093Y015003D03*
X019093Y014992D03*
X019093Y014971D03*
X019093Y014960D03*
X019093Y014949D03*
X019093Y014927D03*
X019093Y014916D03*
X019093Y014905D03*
X019093Y014894D03*
X019093Y014872D03*
X019093Y014861D03*
X019093Y014850D03*
X019093Y014828D03*
X019093Y014817D03*
X019093Y014806D03*
X019093Y014796D03*
X019093Y014774D03*
X019093Y014763D03*
X019093Y014752D03*
X019093Y014741D03*
X019093Y014719D03*
X019093Y014708D03*
X019093Y014697D03*
X019093Y014675D03*
X019093Y014664D03*
X019093Y014653D03*
X019093Y014642D03*
X019093Y014621D03*
X019093Y014610D03*
X019093Y014599D03*
X019093Y014577D03*
X019093Y014566D03*
X019093Y014555D03*
X019093Y014544D03*
X019093Y014522D03*
X019093Y014511D03*
X019093Y014500D03*
X019093Y014478D03*
X019093Y014467D03*
X019093Y014456D03*
X019093Y014446D03*
X019093Y014424D03*
X019093Y014413D03*
X019093Y014402D03*
X019093Y014380D03*
X019093Y014369D03*
X019093Y014358D03*
X019093Y014347D03*
X019093Y014325D03*
X019093Y014314D03*
X019093Y014303D03*
X019093Y014282D03*
X019093Y014271D03*
X019093Y014260D03*
X019093Y014238D03*
X019093Y014227D03*
X019093Y014216D03*
X019093Y014205D03*
X019093Y014183D03*
X019093Y014172D03*
X019093Y014161D03*
X019093Y014139D03*
X019093Y014128D03*
X019093Y014117D03*
X019093Y014107D03*
X019093Y014085D03*
X019093Y014074D03*
X019093Y014063D03*
X019093Y014041D03*
X019093Y014030D03*
X019093Y014019D03*
X019093Y014008D03*
X019093Y013986D03*
X019093Y013975D03*
X019093Y013964D03*
X019093Y013943D03*
X019093Y013932D03*
X019093Y013921D03*
X019093Y013910D03*
X019093Y013888D03*
X019093Y013877D03*
X019093Y013866D03*
X019093Y013844D03*
X019093Y013833D03*
X019093Y013822D03*
X019093Y013811D03*
X019093Y013789D03*
X019093Y013778D03*
X019093Y013768D03*
X019093Y013757D03*
X019093Y013735D03*
X019093Y013724D03*
X019093Y013713D03*
X019093Y013691D03*
X019093Y013680D03*
X019093Y013669D03*
X019093Y013658D03*
X020570Y013943D03*
X019093Y015878D03*
X019093Y015889D03*
X019093Y015900D03*
X019093Y015911D03*
X019093Y015933D03*
X019093Y015944D03*
X019093Y015955D03*
X019093Y015977D03*
X019093Y015988D03*
X019093Y015999D03*
X019093Y016009D03*
X019093Y016031D03*
X019093Y016042D03*
X019093Y016053D03*
X019093Y016075D03*
X019093Y016086D03*
X019093Y016097D03*
X019093Y016108D03*
X019093Y016130D03*
X019093Y016141D03*
X019093Y016152D03*
X019093Y016173D03*
X019093Y016184D03*
X019093Y016195D03*
X019093Y016206D03*
X019093Y016228D03*
X019093Y016239D03*
X019093Y016250D03*
X019093Y016272D03*
X019093Y016283D03*
X019093Y016294D03*
X019093Y016305D03*
X019093Y016327D03*
X019093Y016338D03*
X019093Y016348D03*
X019093Y016370D03*
X019093Y016381D03*
X019093Y016392D03*
X019093Y016403D03*
X019093Y016425D03*
X019093Y016436D03*
X019093Y016447D03*
X019093Y016469D03*
X019093Y016480D03*
X019093Y016491D03*
X019093Y016502D03*
X019093Y016523D03*
X019093Y016534D03*
X019093Y016545D03*
X019093Y016567D03*
X019093Y016578D03*
X019093Y016589D03*
X019093Y016600D03*
X019093Y016622D03*
X019093Y016633D03*
X019093Y016644D03*
X019093Y016666D03*
X019093Y016677D03*
X019093Y016687D03*
X019093Y016698D03*
X019093Y016720D03*
X019093Y016731D03*
X019093Y016742D03*
X019093Y016764D03*
X019093Y016775D03*
X019093Y016786D03*
X019093Y016797D03*
X019093Y016819D03*
X019093Y016830D03*
X019093Y016841D03*
X019093Y016862D03*
X019093Y016873D03*
X019093Y016884D03*
X019093Y016895D03*
X019093Y016917D03*
X019093Y016928D03*
X019093Y016939D03*
X019093Y016961D03*
X019093Y016972D03*
X019093Y016983D03*
X019093Y016994D03*
X019093Y017016D03*
X019093Y017026D03*
X019093Y017037D03*
X019093Y017059D03*
X019093Y017070D03*
X019093Y017081D03*
X019093Y017092D03*
X019093Y017114D03*
X019093Y017125D03*
X019093Y017136D03*
X019093Y017158D03*
X019093Y017169D03*
X019093Y017180D03*
X019093Y017191D03*
X019093Y017212D03*
X019093Y017223D03*
X019093Y017234D03*
X019093Y017256D03*
X019093Y017267D03*
X019093Y017278D03*
X019093Y017289D03*
X019093Y017311D03*
X019093Y017322D03*
X019093Y017333D03*
X014063Y014413D03*
X013089Y014325D03*
X012794Y014325D03*
X012794Y014314D03*
X012794Y014303D03*
X012794Y014282D03*
X012794Y014271D03*
X012794Y014260D03*
X012794Y014238D03*
X012794Y014227D03*
X012794Y014216D03*
X012794Y014205D03*
X012794Y014183D03*
X012794Y014172D03*
X012794Y014161D03*
X012794Y014139D03*
X012794Y014128D03*
X012794Y014117D03*
X012794Y014107D03*
X012794Y014085D03*
X012794Y014074D03*
X012794Y014063D03*
X012794Y014041D03*
X012794Y014030D03*
X012794Y014019D03*
X012794Y014008D03*
X012794Y013986D03*
X012794Y013975D03*
X012794Y013964D03*
X012794Y013943D03*
X012794Y013932D03*
X012794Y013921D03*
X012794Y013910D03*
X012794Y013888D03*
X012794Y013877D03*
X012794Y013866D03*
X012794Y013844D03*
X012794Y013833D03*
X012794Y013822D03*
X012794Y013811D03*
X012794Y013789D03*
X012794Y013778D03*
X012794Y013768D03*
X012794Y013757D03*
X012794Y013735D03*
X012794Y013724D03*
X012794Y013713D03*
X012794Y013691D03*
X012794Y013680D03*
X012794Y013669D03*
X012794Y013658D03*
X012794Y014347D03*
X012794Y014358D03*
X012794Y014369D03*
X012794Y014380D03*
X012794Y014402D03*
X012794Y014413D03*
X012794Y014424D03*
X012794Y014446D03*
X012794Y014456D03*
X012794Y014467D03*
X012794Y014478D03*
X012794Y014500D03*
X012794Y014511D03*
X012794Y014522D03*
X012794Y014544D03*
X012794Y014555D03*
X012794Y014566D03*
X012794Y014577D03*
X012794Y014599D03*
X012794Y014610D03*
X012794Y014621D03*
X012794Y014642D03*
X012794Y014653D03*
X012794Y014664D03*
X012794Y014675D03*
X012794Y014697D03*
X012794Y014708D03*
X012794Y014719D03*
X012794Y014741D03*
X012794Y014752D03*
X012794Y014763D03*
X012794Y014774D03*
X012794Y014796D03*
X012794Y014806D03*
X012794Y014817D03*
X012794Y014828D03*
X012794Y014850D03*
X012794Y014861D03*
X012794Y014872D03*
X012794Y014894D03*
X012794Y014905D03*
X012794Y014916D03*
X012794Y014927D03*
X012794Y014949D03*
X012794Y014960D03*
X012794Y014971D03*
X012794Y014992D03*
X012794Y015003D03*
X012794Y015014D03*
X012794Y015025D03*
X012794Y015047D03*
X012794Y015058D03*
X012794Y015069D03*
X012794Y015091D03*
X012794Y015102D03*
X012794Y015113D03*
X012794Y015124D03*
X012794Y015145D03*
X012794Y015156D03*
X012794Y015167D03*
X012794Y015189D03*
X012794Y015200D03*
X012794Y015211D03*
X012794Y015222D03*
X012794Y015244D03*
X012794Y015255D03*
X012794Y015266D03*
X012794Y015288D03*
X012794Y015299D03*
X012794Y015310D03*
X012794Y015320D03*
X012794Y015342D03*
X012794Y015353D03*
X012794Y015364D03*
X012794Y015386D03*
X012794Y015397D03*
X012794Y015408D03*
X012794Y015419D03*
X012794Y015441D03*
X012794Y015452D03*
X012794Y015463D03*
X012794Y015484D03*
X012794Y015495D03*
X012794Y015506D03*
X012794Y015517D03*
X012794Y015539D03*
X012794Y015550D03*
X012794Y015561D03*
X012794Y015583D03*
X012794Y015594D03*
X012794Y015605D03*
X012794Y015616D03*
X012794Y015638D03*
X012794Y015649D03*
X012794Y015659D03*
X012794Y015681D03*
X012794Y015692D03*
X012794Y015703D03*
X012794Y015714D03*
X012794Y015736D03*
X012794Y015747D03*
X012794Y015758D03*
X012794Y015780D03*
X012794Y015791D03*
X012794Y015802D03*
X012794Y015813D03*
X012794Y015834D03*
X012794Y015845D03*
X012794Y015856D03*
X012794Y015878D03*
X012794Y015889D03*
X012794Y015900D03*
X012794Y015911D03*
X012794Y015933D03*
X012794Y015944D03*
X012794Y015955D03*
X012794Y015977D03*
X012794Y015988D03*
X012794Y015999D03*
X012794Y016009D03*
X012794Y016031D03*
X012794Y016042D03*
X012794Y016053D03*
X012794Y016075D03*
X012794Y016086D03*
X012794Y016097D03*
X012794Y016108D03*
X012794Y016130D03*
X012794Y016141D03*
X012794Y016152D03*
X012794Y016173D03*
X012794Y016184D03*
X012794Y016195D03*
X012794Y016206D03*
X012794Y016228D03*
X012794Y016239D03*
X012794Y016250D03*
X012794Y016272D03*
X012794Y016283D03*
X012794Y016294D03*
X012794Y016305D03*
X012794Y016327D03*
X012794Y016338D03*
X012794Y016348D03*
X012794Y016370D03*
X012794Y016381D03*
X012794Y016392D03*
X012794Y016403D03*
X012794Y016425D03*
X012794Y016436D03*
X012794Y016447D03*
X012794Y016469D03*
X012794Y016480D03*
X012794Y016491D03*
X012794Y016502D03*
X012794Y016523D03*
X012794Y016534D03*
X012794Y016545D03*
X012794Y016567D03*
X012794Y016578D03*
X012794Y016589D03*
X012794Y016600D03*
X012794Y016622D03*
X012794Y016633D03*
X012794Y016644D03*
X012794Y016666D03*
X012794Y016677D03*
X012794Y016687D03*
X012794Y016698D03*
X012794Y016720D03*
X012794Y016731D03*
X012794Y016742D03*
X012794Y016764D03*
X012794Y016775D03*
X012794Y016786D03*
X012794Y016797D03*
X012794Y016819D03*
X012794Y016830D03*
X012794Y016841D03*
X012794Y016862D03*
X012794Y016873D03*
X012794Y016884D03*
X012794Y016895D03*
X012794Y016917D03*
X012794Y016928D03*
X012794Y016939D03*
X012794Y016961D03*
X012794Y016972D03*
X012794Y016983D03*
X012794Y016994D03*
X012794Y017016D03*
X012794Y017026D03*
X012794Y017037D03*
X012794Y017059D03*
X012794Y017070D03*
X012794Y017081D03*
X012794Y017092D03*
X012794Y017114D03*
X012794Y017125D03*
X012794Y017136D03*
X012794Y017158D03*
X012794Y017169D03*
X012794Y017180D03*
X012794Y017191D03*
X012794Y017212D03*
X012794Y017223D03*
X012794Y017234D03*
X012794Y017256D03*
X012794Y017267D03*
X012794Y017278D03*
X012794Y017289D03*
X012794Y017311D03*
X012794Y017322D03*
X012794Y017333D03*
X013221Y016644D03*
X008912Y015616D03*
X006495Y015616D03*
X006495Y015605D03*
X006495Y015594D03*
X006495Y015583D03*
X006495Y015561D03*
X006495Y015550D03*
X006495Y015539D03*
X006495Y015517D03*
X006495Y015506D03*
X006495Y015495D03*
X006495Y015484D03*
X006495Y015463D03*
X006495Y015452D03*
X006495Y015441D03*
X006495Y015419D03*
X006495Y015408D03*
X006495Y015397D03*
X006495Y015386D03*
X006495Y015364D03*
X006495Y015353D03*
X006495Y015342D03*
X006495Y015320D03*
X006495Y015310D03*
X006495Y015299D03*
X006495Y015288D03*
X006495Y015266D03*
X006495Y015255D03*
X006495Y015244D03*
X006495Y015222D03*
X006495Y015211D03*
X006495Y015200D03*
X006495Y015189D03*
X006495Y015167D03*
X006495Y015156D03*
X006495Y015145D03*
X006495Y015124D03*
X006495Y015113D03*
X006495Y015102D03*
X006495Y015091D03*
X006495Y015069D03*
X006495Y015058D03*
X006495Y015047D03*
X006495Y015025D03*
X006495Y015014D03*
X006495Y015003D03*
X006495Y014992D03*
X006495Y014971D03*
X006495Y014960D03*
X006495Y014949D03*
X006495Y014927D03*
X006495Y014916D03*
X006495Y014905D03*
X006495Y014894D03*
X006495Y014872D03*
X006495Y014861D03*
X006495Y014850D03*
X006495Y014828D03*
X006495Y014817D03*
X006495Y014806D03*
X006495Y014796D03*
X006495Y014774D03*
X006495Y014763D03*
X006495Y014752D03*
X006495Y014741D03*
X006495Y014719D03*
X006495Y014708D03*
X006495Y014697D03*
X006495Y014675D03*
X006495Y014664D03*
X006495Y014653D03*
X006495Y014642D03*
X006495Y014621D03*
X006495Y014610D03*
X006495Y014599D03*
X006495Y014577D03*
X006495Y014566D03*
X006495Y014555D03*
X006495Y014544D03*
X006495Y014522D03*
X006495Y014511D03*
X006495Y014500D03*
X006495Y014478D03*
X006495Y014467D03*
X006495Y014456D03*
X006495Y014446D03*
X006495Y014424D03*
X006495Y014413D03*
X006495Y014402D03*
X006495Y014380D03*
X006495Y014369D03*
X006495Y014358D03*
X006495Y014347D03*
X006495Y014325D03*
X006495Y014314D03*
X006495Y014303D03*
X006495Y014282D03*
X006495Y014271D03*
X006495Y014260D03*
X006495Y014238D03*
X006495Y014227D03*
X006495Y014216D03*
X006495Y014205D03*
X006495Y014183D03*
X006495Y014172D03*
X006495Y014161D03*
X006495Y014139D03*
X006495Y014128D03*
X006495Y014117D03*
X006495Y014107D03*
X006495Y014085D03*
X006495Y014074D03*
X006495Y014063D03*
X006495Y014041D03*
X006495Y014030D03*
X006495Y014019D03*
X006495Y014008D03*
X006495Y013986D03*
X006495Y013975D03*
X006495Y013964D03*
X006495Y013943D03*
X006495Y013932D03*
X006495Y013921D03*
X006495Y013910D03*
X006495Y013888D03*
X006495Y013877D03*
X006495Y013866D03*
X006495Y013844D03*
X006495Y013833D03*
X006495Y013822D03*
X006495Y013811D03*
X006495Y013789D03*
X006495Y013778D03*
X006495Y013768D03*
X006495Y013757D03*
X006495Y013735D03*
X006495Y013724D03*
X006495Y013713D03*
X006495Y013691D03*
X006495Y013680D03*
X006495Y013669D03*
X006495Y013658D03*
X006495Y015638D03*
X006495Y015649D03*
X006495Y015659D03*
X006495Y015681D03*
X006495Y015692D03*
X006495Y015703D03*
X006495Y015714D03*
X006495Y015736D03*
X006495Y015747D03*
X006495Y015758D03*
X006495Y015780D03*
X006495Y015791D03*
X006495Y015802D03*
X006495Y015813D03*
X006495Y015834D03*
X006495Y015845D03*
X006495Y015856D03*
X006495Y015878D03*
X006495Y015889D03*
X006495Y015900D03*
X006495Y015911D03*
X006495Y015933D03*
X006495Y015944D03*
X006495Y015955D03*
X006495Y015977D03*
X006495Y015988D03*
X006495Y015999D03*
X006495Y016009D03*
X006495Y016031D03*
X006495Y016042D03*
X006495Y016053D03*
X006495Y016075D03*
X006495Y016086D03*
X006495Y016097D03*
X006495Y016108D03*
X006495Y016130D03*
X006495Y016141D03*
X006495Y016152D03*
X006495Y016173D03*
X006495Y016184D03*
X006495Y016195D03*
X006495Y016206D03*
X006495Y016228D03*
X006495Y016239D03*
X006495Y016250D03*
X006495Y016272D03*
X006495Y016283D03*
X006495Y016294D03*
X006495Y016305D03*
X006495Y016327D03*
X006495Y016338D03*
X006495Y016348D03*
X006495Y016370D03*
X006495Y016381D03*
X006495Y016392D03*
X006495Y016403D03*
X006495Y016425D03*
X006495Y016436D03*
X006495Y016447D03*
X006495Y016469D03*
X006495Y016480D03*
X006495Y016491D03*
X006495Y016502D03*
X006495Y016523D03*
X006495Y016534D03*
X006495Y016545D03*
X006495Y016567D03*
X006495Y016578D03*
X006495Y016589D03*
X006495Y016600D03*
X006495Y016622D03*
X006495Y016633D03*
X006495Y016644D03*
X006495Y016666D03*
X006495Y016677D03*
X006495Y016687D03*
X006495Y016698D03*
X006495Y016720D03*
X006495Y016731D03*
X006495Y016742D03*
X006495Y016764D03*
X006495Y016775D03*
X006495Y016786D03*
X006495Y016797D03*
X006495Y016819D03*
X006495Y016830D03*
X006495Y016841D03*
X006495Y016862D03*
X006495Y016873D03*
X006495Y016884D03*
X006495Y016895D03*
X006495Y016917D03*
X006495Y016928D03*
X006495Y016939D03*
X006495Y016961D03*
X006495Y016972D03*
X006495Y016983D03*
X006495Y016994D03*
X006495Y017016D03*
X006495Y017026D03*
X006495Y017037D03*
X006495Y017059D03*
X006495Y017070D03*
X006495Y017081D03*
X006495Y017092D03*
X006495Y017114D03*
X006495Y017125D03*
X006495Y017136D03*
X006495Y017158D03*
X006495Y017169D03*
X006495Y017180D03*
X006495Y017191D03*
X006495Y017212D03*
X006495Y017223D03*
X006495Y017234D03*
X006495Y017256D03*
X006495Y017267D03*
X006495Y017278D03*
X006495Y017289D03*
X006495Y017311D03*
X006495Y017322D03*
X006495Y017333D03*
D18*
X010312Y017333D03*
X010312Y017322D03*
X010312Y017311D03*
X010312Y017289D03*
X010312Y017278D03*
X010312Y017267D03*
X010312Y017256D03*
X010312Y017234D03*
X010312Y017223D03*
X010312Y017212D03*
X010312Y017191D03*
X010312Y017180D03*
X010312Y017169D03*
X010312Y017158D03*
X010312Y017136D03*
X010312Y017125D03*
X010312Y017114D03*
X010312Y017092D03*
X010312Y017081D03*
X010312Y017070D03*
X010312Y017059D03*
X010312Y017037D03*
X010312Y017026D03*
X010312Y017016D03*
X010312Y016994D03*
X010312Y016983D03*
X010312Y016972D03*
X010312Y016961D03*
X010312Y016939D03*
X010312Y016928D03*
X010312Y016917D03*
X010312Y016895D03*
X010312Y016884D03*
X010312Y016873D03*
X010312Y016862D03*
X010312Y016841D03*
X010312Y016830D03*
X010312Y016819D03*
X010312Y016797D03*
X010312Y016786D03*
X010312Y016775D03*
X010312Y016764D03*
X010312Y016742D03*
X010312Y016731D03*
X010312Y016720D03*
X010312Y016698D03*
X010312Y016687D03*
X010312Y016677D03*
X010312Y016666D03*
X010312Y016644D03*
X010312Y016633D03*
X010312Y016622D03*
X010312Y016600D03*
X010312Y016589D03*
X010312Y016578D03*
X010312Y016567D03*
X010312Y016545D03*
X010312Y016534D03*
X010312Y016523D03*
X010312Y016502D03*
X010312Y016491D03*
X010312Y016480D03*
X010312Y016469D03*
X010312Y016447D03*
X010312Y016436D03*
X010312Y016425D03*
X010312Y016403D03*
X010312Y016392D03*
X010312Y016381D03*
X010312Y016370D03*
X010312Y016348D03*
X010312Y016338D03*
X010312Y016327D03*
X010312Y016305D03*
X010312Y016294D03*
X010312Y016283D03*
X010312Y016272D03*
X010312Y016250D03*
X010312Y016239D03*
X010312Y016228D03*
X010312Y016206D03*
X010312Y016195D03*
X010312Y016184D03*
X010312Y016173D03*
X010312Y016152D03*
X010312Y016141D03*
X010312Y016130D03*
X010312Y016108D03*
X010312Y016097D03*
X010312Y016086D03*
X010312Y016075D03*
X010312Y016053D03*
X010312Y016042D03*
X010312Y016031D03*
X010312Y016009D03*
X010312Y015999D03*
X010312Y015988D03*
X010312Y015977D03*
X010312Y015955D03*
X010312Y015944D03*
X010312Y015933D03*
X010312Y015911D03*
X010312Y015900D03*
X010312Y015889D03*
X010312Y015878D03*
X010312Y015856D03*
X010312Y015845D03*
X010312Y015834D03*
X010312Y015813D03*
X010312Y015802D03*
X010312Y015791D03*
X010312Y015780D03*
X010312Y015758D03*
X010312Y015747D03*
X010312Y015736D03*
X010312Y015714D03*
X010312Y015703D03*
X010312Y015692D03*
X010312Y015681D03*
X010312Y015659D03*
X010312Y015649D03*
X010312Y015638D03*
X010312Y015616D03*
X010312Y015605D03*
X010312Y015594D03*
X010312Y015583D03*
X010312Y015561D03*
X010312Y015550D03*
X010312Y015539D03*
X010312Y015517D03*
X010312Y015506D03*
X010312Y015495D03*
X010312Y015484D03*
X010312Y015463D03*
X010312Y015452D03*
X010312Y015441D03*
X010312Y015419D03*
X010312Y015408D03*
X010312Y015397D03*
X010312Y015386D03*
X010312Y015364D03*
X010312Y015353D03*
X010312Y015342D03*
X010312Y015320D03*
X010312Y015310D03*
X010312Y015299D03*
X010312Y015288D03*
X010312Y015266D03*
X010312Y015255D03*
X010312Y015244D03*
X010312Y015222D03*
X010312Y015211D03*
X010312Y015200D03*
X010312Y015189D03*
X010312Y015167D03*
X010312Y015156D03*
X010312Y015145D03*
X010312Y015124D03*
X010312Y015113D03*
X010312Y015102D03*
X010312Y015091D03*
X010312Y015069D03*
X010312Y015058D03*
X010312Y015047D03*
X010312Y015025D03*
X010312Y015014D03*
X010312Y015003D03*
X010312Y014992D03*
X010312Y014971D03*
X010312Y014960D03*
X010312Y014949D03*
X010312Y014927D03*
X010312Y014916D03*
X010312Y014905D03*
X010312Y014894D03*
X010312Y014872D03*
X010312Y014861D03*
X010312Y014850D03*
X010312Y014828D03*
X010312Y014817D03*
X010312Y014806D03*
X010312Y014796D03*
X010312Y014774D03*
X010312Y014763D03*
X010312Y014752D03*
X010312Y014741D03*
X010312Y014719D03*
X010312Y014708D03*
X010312Y014697D03*
X010312Y014675D03*
X010312Y014664D03*
X010312Y014653D03*
X010312Y014642D03*
X010312Y014621D03*
X010312Y014610D03*
X010312Y014599D03*
X010312Y014577D03*
X010312Y014566D03*
X010312Y014555D03*
X010312Y014544D03*
X010312Y014522D03*
X010312Y014511D03*
X010312Y014500D03*
X010312Y014478D03*
X010312Y014467D03*
X010312Y014456D03*
X010312Y014446D03*
X010312Y014424D03*
X010312Y014413D03*
X010312Y014402D03*
X010312Y014380D03*
X010312Y014369D03*
X010312Y014358D03*
X010312Y014347D03*
X010312Y014325D03*
X010312Y014314D03*
X010312Y014303D03*
X010312Y014282D03*
X010312Y014271D03*
X010312Y014260D03*
X010312Y014238D03*
X010312Y014227D03*
X010312Y014216D03*
X010312Y014205D03*
X010312Y014183D03*
X010312Y014172D03*
X010312Y014161D03*
X010312Y014139D03*
X010312Y014128D03*
X010312Y014117D03*
X010312Y014107D03*
X010312Y014085D03*
X010312Y014074D03*
X010312Y014063D03*
X010312Y014041D03*
X010312Y014030D03*
X010312Y014019D03*
X010312Y014008D03*
X010312Y013986D03*
X010312Y013975D03*
X010312Y013964D03*
X010312Y013943D03*
X010312Y013932D03*
X010312Y013921D03*
X010312Y013910D03*
X010312Y013888D03*
X010312Y013877D03*
X010312Y013866D03*
X010312Y013844D03*
X010312Y013833D03*
X010312Y013822D03*
X010312Y013811D03*
X010312Y013789D03*
X010312Y013778D03*
X010312Y013768D03*
X010312Y013757D03*
X010312Y013735D03*
X010312Y013724D03*
X010312Y013713D03*
X010312Y013691D03*
X010312Y013680D03*
X010312Y013669D03*
X010312Y013658D03*
X014249Y016600D03*
X016206Y016622D03*
X016611Y016622D03*
X016611Y016633D03*
X016611Y016644D03*
X016611Y016666D03*
X016611Y016677D03*
X016611Y016687D03*
X016611Y016698D03*
X016611Y016720D03*
X016611Y016731D03*
X016611Y016742D03*
X016611Y016764D03*
X016611Y016775D03*
X016611Y016786D03*
X016611Y016797D03*
X016611Y016819D03*
X016611Y016830D03*
X016611Y016841D03*
X016611Y016862D03*
X016611Y016873D03*
X016611Y016884D03*
X016611Y016895D03*
X016611Y016917D03*
X016611Y016928D03*
X016611Y016939D03*
X016611Y016961D03*
X016611Y016972D03*
X016611Y016983D03*
X016611Y016994D03*
X016611Y017016D03*
X016611Y017026D03*
X016611Y017037D03*
X016611Y017059D03*
X016611Y017070D03*
X016611Y017081D03*
X016611Y017092D03*
X016611Y017114D03*
X016611Y017125D03*
X016611Y017136D03*
X016611Y017158D03*
X016611Y017169D03*
X016611Y017180D03*
X016611Y017191D03*
X016611Y017212D03*
X016611Y017223D03*
X016611Y017234D03*
X016611Y017256D03*
X016611Y017267D03*
X016611Y017278D03*
X016611Y017289D03*
X016611Y017311D03*
X016611Y017322D03*
X016611Y017333D03*
X016611Y016600D03*
X016611Y016589D03*
X016611Y016578D03*
X016611Y016567D03*
X016611Y016545D03*
X016611Y016534D03*
X016611Y016523D03*
X016611Y016502D03*
X016611Y016491D03*
X016611Y016480D03*
X016611Y016469D03*
X016611Y016447D03*
X016611Y016436D03*
X016611Y016425D03*
X016611Y016403D03*
X016611Y016392D03*
X016611Y016381D03*
X016611Y016370D03*
X016611Y016348D03*
X016611Y016338D03*
X016611Y016327D03*
X016611Y016305D03*
X016611Y016294D03*
X016611Y016283D03*
X016611Y016272D03*
X016611Y016250D03*
X016611Y016239D03*
X016611Y016228D03*
X016611Y016206D03*
X016611Y016195D03*
X016611Y016184D03*
X016611Y016173D03*
X016611Y016152D03*
X016611Y016141D03*
X016611Y016130D03*
X016611Y016108D03*
X016611Y016097D03*
X016611Y016086D03*
X016611Y016075D03*
X016611Y016053D03*
X016611Y016042D03*
X016611Y016031D03*
X016611Y016009D03*
X016611Y015999D03*
X016611Y015988D03*
X016611Y015977D03*
X016611Y015955D03*
X016611Y015944D03*
X016611Y015933D03*
X016611Y015911D03*
X016611Y015900D03*
X016611Y015889D03*
X016611Y015878D03*
X016611Y015856D03*
X016611Y015845D03*
X016611Y015834D03*
X016611Y015813D03*
X016611Y015802D03*
X016611Y015791D03*
X016611Y015780D03*
X016611Y015758D03*
X016611Y015747D03*
X016611Y015736D03*
X016611Y015714D03*
X016611Y015703D03*
X016611Y015692D03*
X016611Y015681D03*
X016611Y015659D03*
X016611Y015649D03*
X016611Y015638D03*
X016611Y015616D03*
X016611Y015605D03*
X016611Y015594D03*
X016611Y015583D03*
X016611Y015561D03*
X016611Y015550D03*
X016611Y015539D03*
X016611Y015517D03*
X016611Y015506D03*
X016611Y015495D03*
X016611Y015484D03*
X016611Y015463D03*
X016611Y015452D03*
X016611Y015441D03*
X016611Y015419D03*
X016611Y015408D03*
X016611Y015397D03*
X016611Y015386D03*
X016611Y015364D03*
X016611Y015353D03*
X016611Y015342D03*
X016611Y015320D03*
X016611Y015310D03*
X016611Y015299D03*
X016611Y015288D03*
X016611Y015266D03*
X016611Y015255D03*
X016611Y015244D03*
X016611Y015222D03*
X016611Y015211D03*
X016611Y015200D03*
X016611Y015189D03*
X016611Y015167D03*
X016611Y015156D03*
X016611Y015145D03*
X016611Y015124D03*
X016611Y015113D03*
X016611Y015102D03*
X016611Y015091D03*
X016611Y015069D03*
X016611Y015058D03*
X016611Y015047D03*
X016611Y015025D03*
X016611Y015014D03*
X016611Y015003D03*
X016611Y014992D03*
X016611Y014971D03*
X016611Y014960D03*
X016611Y014949D03*
X016611Y014927D03*
X016611Y014916D03*
X016611Y014905D03*
X016611Y014894D03*
X016611Y014872D03*
X016611Y014861D03*
X016611Y014850D03*
X016611Y014828D03*
X016611Y014817D03*
X016611Y014806D03*
X016611Y014796D03*
X016611Y014774D03*
X016611Y014763D03*
X016611Y014752D03*
X016611Y014741D03*
X016611Y014719D03*
X016611Y014708D03*
X016611Y014697D03*
X016611Y014675D03*
X016611Y014664D03*
X016611Y014653D03*
X016611Y014642D03*
X016611Y014621D03*
X016611Y014610D03*
X016611Y014599D03*
X016611Y014577D03*
X016611Y014566D03*
X016611Y014555D03*
X016611Y014544D03*
X016611Y014522D03*
X016611Y014511D03*
X016611Y014500D03*
X016611Y014478D03*
X016611Y014467D03*
X016611Y014456D03*
X016611Y014446D03*
X016611Y014424D03*
X016611Y014413D03*
X016611Y014402D03*
X016611Y014380D03*
X016611Y014369D03*
X016611Y014358D03*
X016611Y014347D03*
X016611Y014325D03*
X016611Y014314D03*
X016611Y014303D03*
X016611Y014282D03*
X016611Y014271D03*
X016611Y014260D03*
X016611Y014238D03*
X016611Y014227D03*
X016611Y014216D03*
X016611Y014205D03*
X016611Y014183D03*
X016611Y014172D03*
X016611Y014161D03*
X016611Y014139D03*
X016611Y014128D03*
X016611Y014117D03*
X016611Y014107D03*
X016611Y014085D03*
X016611Y014074D03*
X016611Y014063D03*
X016611Y014041D03*
X016611Y014030D03*
X016611Y014019D03*
X016611Y014008D03*
X016611Y013986D03*
X016611Y013975D03*
X016611Y013964D03*
X016611Y013943D03*
X016611Y013932D03*
X016611Y013921D03*
X016611Y013910D03*
X016611Y013888D03*
X016611Y013877D03*
X016611Y013866D03*
X016611Y013844D03*
X016611Y013833D03*
X016611Y013822D03*
X016611Y013811D03*
X016611Y013789D03*
X016611Y013778D03*
X016611Y013768D03*
X016611Y013757D03*
X016611Y013735D03*
X016611Y013724D03*
X016611Y013713D03*
X016611Y013691D03*
X016611Y013680D03*
X016611Y013669D03*
X016611Y013658D03*
X020143Y016141D03*
X020143Y016152D03*
X020679Y016053D03*
X020690Y016939D03*
X022123Y016447D03*
X022910Y016447D03*
X022910Y016436D03*
X022910Y016425D03*
X022910Y016403D03*
X022910Y016392D03*
X022910Y016381D03*
X022910Y016370D03*
X022910Y016348D03*
X022910Y016338D03*
X022910Y016327D03*
X022910Y016305D03*
X022910Y016294D03*
X022910Y016283D03*
X022910Y016272D03*
X022910Y016250D03*
X022910Y016239D03*
X022910Y016228D03*
X022910Y016206D03*
X022910Y016195D03*
X022910Y016184D03*
X022910Y016173D03*
X022910Y016152D03*
X022910Y016141D03*
X022910Y016130D03*
X022910Y016108D03*
X022910Y016097D03*
X022910Y016086D03*
X022910Y016075D03*
X022910Y016053D03*
X022910Y016042D03*
X022910Y016031D03*
X022910Y016009D03*
X022910Y015999D03*
X022910Y015988D03*
X022910Y015977D03*
X022910Y015955D03*
X022910Y015944D03*
X022910Y015933D03*
X022910Y015911D03*
X022910Y015900D03*
X022910Y015889D03*
X022910Y015878D03*
X022910Y015856D03*
X022910Y015845D03*
X022910Y015834D03*
X022910Y015813D03*
X022910Y015802D03*
X022910Y015791D03*
X022910Y015780D03*
X022910Y015758D03*
X022910Y015747D03*
X022910Y015736D03*
X022910Y015714D03*
X022910Y015703D03*
X022910Y015692D03*
X022910Y015681D03*
X022910Y015659D03*
X022910Y015649D03*
X022910Y015638D03*
X022910Y015616D03*
X022910Y015605D03*
X022910Y015594D03*
X022910Y015583D03*
X022910Y015561D03*
X022910Y015550D03*
X022910Y015539D03*
X022910Y015517D03*
X022910Y015506D03*
X022910Y015495D03*
X022910Y015484D03*
X022910Y015463D03*
X022910Y015452D03*
X022910Y015441D03*
X022910Y015419D03*
X022910Y015408D03*
X022910Y015397D03*
X022910Y015386D03*
X022910Y015364D03*
X022910Y015353D03*
X022910Y015342D03*
X022910Y015320D03*
X022910Y015310D03*
X022910Y015299D03*
X022910Y015288D03*
X022910Y015266D03*
X022910Y015255D03*
X022910Y015244D03*
X022910Y015222D03*
X022910Y015211D03*
X022910Y015200D03*
X022910Y015189D03*
X022910Y015167D03*
X022910Y015156D03*
X022910Y015145D03*
X022910Y015124D03*
X022910Y015113D03*
X022910Y015102D03*
X022910Y015091D03*
X022910Y015069D03*
X022910Y015058D03*
X022910Y015047D03*
X022910Y015025D03*
X022910Y015014D03*
X022910Y015003D03*
X022910Y014992D03*
X022910Y014971D03*
X022910Y014960D03*
X022910Y014949D03*
X022910Y014927D03*
X022910Y014916D03*
X022910Y014905D03*
X022910Y014894D03*
X022910Y014872D03*
X022910Y014861D03*
X022910Y014850D03*
X022910Y014828D03*
X022910Y014817D03*
X022910Y014806D03*
X022910Y014796D03*
X022910Y014774D03*
X022910Y014763D03*
X022910Y014752D03*
X022910Y014741D03*
X022910Y014719D03*
X022910Y014708D03*
X022910Y014697D03*
X022910Y014675D03*
X022910Y014664D03*
X022910Y014653D03*
X022910Y014642D03*
X022910Y014621D03*
X022910Y014610D03*
X022910Y014599D03*
X022910Y014577D03*
X022910Y014566D03*
X022910Y014555D03*
X022910Y014544D03*
X022910Y014522D03*
X022910Y014511D03*
X022910Y014500D03*
X022910Y014478D03*
X022910Y014467D03*
X022910Y014456D03*
X022910Y014446D03*
X022910Y014424D03*
X022910Y014413D03*
X022910Y014402D03*
X022910Y014380D03*
X022910Y014369D03*
X022910Y014358D03*
X022910Y014347D03*
X022910Y014325D03*
X022910Y014314D03*
X022910Y014303D03*
X022910Y014282D03*
X022910Y014271D03*
X022910Y014260D03*
X022910Y014238D03*
X022910Y014227D03*
X022910Y014216D03*
X022910Y014205D03*
X022910Y014183D03*
X022910Y014172D03*
X022910Y014161D03*
X022910Y014139D03*
X022910Y014128D03*
X022910Y014117D03*
X022910Y014107D03*
X022910Y014085D03*
X022910Y014074D03*
X022910Y014063D03*
X022910Y014041D03*
X022910Y014030D03*
X022910Y014019D03*
X022910Y014008D03*
X022910Y013986D03*
X022910Y013975D03*
X022910Y013964D03*
X022910Y013943D03*
X022910Y013932D03*
X022910Y013921D03*
X022910Y013910D03*
X022910Y013888D03*
X022910Y013877D03*
X022910Y013866D03*
X022910Y013844D03*
X022910Y013833D03*
X022910Y013822D03*
X022910Y013811D03*
X022910Y013789D03*
X022910Y013778D03*
X022910Y013768D03*
X022910Y013757D03*
X022910Y013735D03*
X022910Y013724D03*
X022910Y013713D03*
X022910Y013691D03*
X022910Y013680D03*
X022910Y013669D03*
X022910Y013658D03*
X021663Y015692D03*
X022910Y016469D03*
X022910Y016480D03*
X022910Y016491D03*
X022910Y016502D03*
X022910Y016523D03*
X022910Y016534D03*
X022910Y016545D03*
X022910Y016567D03*
X022910Y016578D03*
X022910Y016589D03*
X022910Y016600D03*
X022910Y016622D03*
X022910Y016633D03*
X022910Y016644D03*
X022910Y016666D03*
X022910Y016677D03*
X022910Y016687D03*
X022910Y016698D03*
X022910Y016720D03*
X022910Y016731D03*
X022910Y016742D03*
X022910Y016764D03*
X022910Y016775D03*
X022910Y016786D03*
X022910Y016797D03*
X022910Y016819D03*
X022910Y016830D03*
X022910Y016841D03*
X022910Y016862D03*
X022910Y016873D03*
X022910Y016884D03*
X022910Y016895D03*
X022910Y016917D03*
X022910Y016928D03*
X022910Y016939D03*
X022910Y016961D03*
X022910Y016972D03*
X022910Y016983D03*
X022910Y016994D03*
X022910Y017016D03*
X022910Y017026D03*
X022910Y017037D03*
X022910Y017059D03*
X022910Y017070D03*
X022910Y017081D03*
X022910Y017092D03*
X022910Y017114D03*
X022910Y017125D03*
X022910Y017136D03*
X022910Y017158D03*
X022910Y017169D03*
X022910Y017180D03*
X022910Y017191D03*
X022910Y017212D03*
X022910Y017223D03*
X022910Y017234D03*
X022910Y017256D03*
X022910Y017267D03*
X022910Y017278D03*
X022910Y017289D03*
X022910Y017311D03*
X022910Y017322D03*
X022910Y017333D03*
X029209Y017333D03*
X029209Y017322D03*
X029209Y017311D03*
X029209Y017289D03*
X029209Y017278D03*
X029209Y017267D03*
X029209Y017256D03*
X029209Y017234D03*
X029209Y017223D03*
X029209Y017212D03*
X029209Y017191D03*
X029209Y017180D03*
X029209Y017169D03*
X029209Y017158D03*
X029209Y017136D03*
X029209Y017125D03*
X029209Y017114D03*
X029209Y017092D03*
X029209Y017081D03*
X029209Y017070D03*
X029209Y017059D03*
X029209Y017037D03*
X029209Y017026D03*
X029209Y017016D03*
X029209Y016994D03*
X029209Y016983D03*
X029209Y016972D03*
X029209Y016961D03*
X029209Y016939D03*
X029209Y016928D03*
X029209Y016917D03*
X029209Y016895D03*
X029209Y016884D03*
X029209Y016873D03*
X029209Y016862D03*
X029209Y016841D03*
X029209Y016830D03*
X029209Y016819D03*
X029209Y016797D03*
X029209Y016786D03*
X029209Y016775D03*
X029209Y016764D03*
X029209Y016742D03*
X029209Y016731D03*
X029209Y016720D03*
X029209Y016698D03*
X029209Y016687D03*
X029209Y016677D03*
X029209Y016666D03*
X029209Y016644D03*
X029209Y016633D03*
X029209Y016622D03*
X029209Y016600D03*
X029209Y016589D03*
X029209Y016578D03*
X029209Y016567D03*
X029209Y016545D03*
X029209Y016534D03*
X029209Y016523D03*
X029209Y016502D03*
X029209Y016491D03*
X029209Y016480D03*
X029209Y016469D03*
X029209Y016447D03*
X029209Y016436D03*
X029209Y016425D03*
X029209Y016403D03*
X029209Y016392D03*
X029209Y016381D03*
X029209Y016370D03*
X029209Y016348D03*
X029209Y016338D03*
X029209Y016327D03*
X029209Y016305D03*
X029209Y016294D03*
X029209Y016283D03*
X029209Y016272D03*
X029209Y016250D03*
X029209Y016239D03*
X029209Y016228D03*
X029209Y016206D03*
X029209Y016195D03*
X029209Y016184D03*
X029209Y016173D03*
X029209Y016152D03*
X029209Y016141D03*
X029209Y016130D03*
X029209Y016108D03*
X029209Y016097D03*
X029209Y016086D03*
X029209Y016075D03*
X029209Y016053D03*
X029209Y016042D03*
X029209Y016031D03*
X029209Y016009D03*
X029209Y015999D03*
X029209Y015988D03*
X029209Y015977D03*
X029209Y015955D03*
X029209Y015944D03*
X029209Y015933D03*
X029209Y015911D03*
X029209Y015900D03*
X029209Y015889D03*
X029209Y015878D03*
X029209Y015856D03*
X029209Y015845D03*
X029209Y015834D03*
X029209Y015813D03*
X029209Y015802D03*
X029209Y015791D03*
X029209Y015780D03*
X029209Y015758D03*
X029209Y015747D03*
X029209Y015736D03*
X029209Y015714D03*
X029209Y015703D03*
X029209Y015692D03*
X029209Y015681D03*
X029209Y015659D03*
X029209Y015649D03*
X029209Y015638D03*
X029209Y015616D03*
X029209Y015605D03*
X029209Y015594D03*
X029209Y015583D03*
X029209Y015561D03*
X029209Y015550D03*
X029209Y015539D03*
X029209Y015517D03*
X029209Y015506D03*
X029209Y015495D03*
X029209Y015484D03*
X029209Y015463D03*
X029209Y015452D03*
X029209Y015441D03*
X029209Y015419D03*
X029209Y015408D03*
X029209Y015397D03*
X029209Y015386D03*
X029209Y015364D03*
X029209Y015353D03*
X029209Y015342D03*
X029209Y015320D03*
X029209Y015310D03*
X029209Y015299D03*
X029209Y015288D03*
X029209Y015266D03*
X029209Y015255D03*
X029209Y015244D03*
X029209Y015222D03*
X029209Y015211D03*
X029209Y015200D03*
X029209Y015189D03*
X029209Y015167D03*
X029209Y015156D03*
X029209Y015145D03*
X029209Y015124D03*
X029209Y015113D03*
X029209Y015102D03*
X029209Y015091D03*
X029209Y015069D03*
X029209Y015058D03*
X029209Y015047D03*
X029209Y015025D03*
X029209Y015014D03*
X029209Y015003D03*
X029209Y014992D03*
X029209Y014971D03*
X029209Y014960D03*
X029209Y014949D03*
X029209Y014927D03*
X029209Y014916D03*
X029209Y014905D03*
X029209Y014894D03*
X029209Y014872D03*
X029209Y014861D03*
X029209Y014850D03*
X029209Y014828D03*
X029209Y014817D03*
X029209Y014806D03*
X029209Y014796D03*
X029209Y014774D03*
X029209Y014763D03*
X029209Y014752D03*
X029209Y014741D03*
X029209Y014719D03*
X029209Y014708D03*
X029209Y014697D03*
X029209Y014675D03*
X029209Y014664D03*
X029209Y014653D03*
X029209Y014642D03*
X029209Y014621D03*
X029209Y014610D03*
X029209Y014599D03*
X029209Y014577D03*
X029209Y014566D03*
X029209Y014555D03*
X029209Y014544D03*
X029209Y014522D03*
X029209Y014511D03*
X029209Y014500D03*
X029209Y014478D03*
X029209Y014467D03*
X029209Y014456D03*
X029209Y014446D03*
X029209Y014424D03*
X029209Y014413D03*
X029209Y014402D03*
X029209Y014380D03*
X029209Y014369D03*
X029209Y014358D03*
X029209Y014347D03*
X029209Y014325D03*
X029209Y014314D03*
X029209Y014303D03*
X029209Y014282D03*
X029209Y014271D03*
X029209Y014260D03*
X029209Y014238D03*
X029209Y014227D03*
X029209Y014216D03*
X029209Y014205D03*
X029209Y014183D03*
X029209Y014172D03*
X029209Y014161D03*
X029209Y014139D03*
X029209Y014128D03*
X029209Y014117D03*
X029209Y014107D03*
X029209Y014085D03*
X029209Y014074D03*
X029209Y014063D03*
X029209Y014041D03*
X029209Y014030D03*
X029209Y014019D03*
X029209Y014008D03*
X029209Y013986D03*
X029209Y013975D03*
X029209Y013964D03*
X029209Y013943D03*
X029209Y013932D03*
X029209Y013921D03*
X029209Y013910D03*
X029209Y013888D03*
X029209Y013877D03*
X029209Y013866D03*
X029209Y013844D03*
X029209Y013833D03*
X029209Y013822D03*
X029209Y013811D03*
X029209Y013789D03*
X029209Y013778D03*
X029209Y013768D03*
X029209Y013757D03*
X029209Y013735D03*
X029209Y013724D03*
X029209Y013713D03*
X029209Y013691D03*
X029209Y013680D03*
X029209Y013669D03*
X029209Y013658D03*
D19*
X014446Y014249D03*
D20*
X014451Y014260D03*
D21*
X014456Y014271D03*
D22*
X014462Y014282D03*
D23*
X013073Y014292D03*
D24*
X013953Y014292D03*
X014981Y014292D03*
X015867Y014292D03*
D25*
X015966Y014380D03*
X015988Y014402D03*
X015999Y014413D03*
X016009Y014424D03*
X014992Y014314D03*
X014019Y014369D03*
X014008Y014358D03*
X013997Y014347D03*
X013079Y014303D03*
X013232Y016666D03*
X014303Y016677D03*
X014314Y016687D03*
X015167Y016687D03*
X020132Y016195D03*
X021281Y016097D03*
X022134Y016469D03*
X021412Y017059D03*
X021412Y017070D03*
X021401Y014861D03*
X008912Y015605D03*
X008540Y015266D03*
X008442Y015189D03*
X008278Y016075D03*
D26*
X008250Y015484D03*
X013237Y016677D03*
X014320Y016698D03*
X016234Y016666D03*
X016245Y016677D03*
X015949Y014369D03*
X015938Y014358D03*
X015927Y014347D03*
X015906Y014325D03*
X015895Y014314D03*
X015884Y014303D03*
X014987Y014303D03*
X013981Y014325D03*
X013970Y014314D03*
X013959Y014303D03*
X020674Y016031D03*
X021221Y015933D03*
X021286Y016086D03*
X022139Y016480D03*
X021417Y017081D03*
X020696Y016972D03*
D27*
X020696Y016961D03*
X021406Y017037D03*
X021286Y016108D03*
X020138Y016173D03*
X020138Y016184D03*
X016223Y016644D03*
X015162Y016677D03*
X014298Y016666D03*
X014276Y016633D03*
X014265Y016622D03*
X016026Y014446D03*
X014998Y014325D03*
X014025Y014380D03*
X013084Y014314D03*
D28*
X013095Y014336D03*
X014079Y014435D03*
X014156Y014533D03*
X008480Y015375D03*
X008447Y015178D03*
X020149Y016119D03*
X020696Y016906D03*
D29*
X021324Y014588D03*
X016228Y016655D03*
X014292Y016655D03*
X013986Y014336D03*
X015977Y014391D03*
D30*
X015916Y014336D03*
D31*
X016108Y014544D03*
X014183Y014566D03*
X014172Y014555D03*
X014150Y014522D03*
X013100Y014347D03*
X013210Y016622D03*
X016152Y016545D03*
X020154Y016108D03*
X020154Y016097D03*
X021652Y015681D03*
X021335Y014577D03*
X028214Y013811D03*
X008748Y016141D03*
X008267Y016086D03*
X008431Y015484D03*
X008463Y015419D03*
X008474Y015386D03*
X008485Y015353D03*
X008496Y015320D03*
D32*
X008502Y015310D03*
X008513Y015288D03*
X008458Y015441D03*
X014068Y014424D03*
X014167Y014544D03*
X015009Y014347D03*
X016091Y014511D03*
X016091Y014522D03*
X016190Y016600D03*
X015151Y016666D03*
X021297Y016184D03*
X021297Y016173D03*
D33*
X021297Y016195D03*
X021297Y016206D03*
X020685Y016086D03*
X020685Y016075D03*
X020160Y016075D03*
X020160Y016086D03*
X020696Y016873D03*
X020696Y016884D03*
X020696Y016895D03*
X021395Y016983D03*
X022106Y016425D03*
X021756Y015736D03*
X016124Y014566D03*
X016113Y014555D03*
X015020Y014358D03*
X014210Y014610D03*
X014199Y014599D03*
X014189Y014577D03*
X013106Y014358D03*
X014178Y016491D03*
X014189Y016502D03*
X015140Y016644D03*
X008425Y015495D03*
D34*
X008923Y015638D03*
X013111Y014369D03*
X014227Y014642D03*
X015025Y014369D03*
X016130Y014577D03*
X014139Y016425D03*
X014150Y016447D03*
X015135Y016633D03*
X020701Y016862D03*
X020690Y016108D03*
X020690Y016097D03*
X021729Y015714D03*
X021762Y015747D03*
D35*
X021713Y015703D03*
X021220Y015911D03*
X021035Y014992D03*
X021385Y016972D03*
X016113Y016491D03*
X014145Y016436D03*
X014243Y014675D03*
X014232Y014664D03*
X014232Y014653D03*
X015031Y014380D03*
X016157Y014621D03*
X013117Y014380D03*
D36*
X013122Y014391D03*
X014249Y014686D03*
X015036Y014391D03*
X014107Y016359D03*
X008759Y016163D03*
X021303Y016261D03*
X021631Y015670D03*
X026136Y016119D03*
X026136Y016163D03*
X026136Y016217D03*
X026136Y016261D03*
X027941Y016316D03*
X027952Y016261D03*
X027952Y016217D03*
X027952Y016163D03*
X027952Y016119D03*
X027941Y016064D03*
D37*
X022128Y016458D03*
X021286Y016119D03*
X021406Y017048D03*
X014035Y014391D03*
X013226Y016655D03*
X008742Y016119D03*
D38*
X008764Y016173D03*
X009234Y015550D03*
X009234Y015539D03*
X009213Y015495D03*
X013128Y014402D03*
X014254Y014708D03*
X015042Y014402D03*
X016168Y014642D03*
X016179Y014664D03*
X016026Y016338D03*
X016048Y016381D03*
X016059Y016392D03*
X016059Y016403D03*
X014090Y016338D03*
X014079Y016305D03*
X014068Y016294D03*
X014068Y016283D03*
X013182Y016578D03*
X020182Y016031D03*
X020696Y016141D03*
X020696Y016152D03*
X020761Y015834D03*
X022074Y016392D03*
X020696Y016830D03*
X020433Y014621D03*
X026153Y015999D03*
X026153Y016009D03*
X026164Y015977D03*
X026164Y015955D03*
X026175Y015944D03*
X026175Y015933D03*
X026186Y015900D03*
X026186Y015889D03*
X026142Y016075D03*
X026142Y016086D03*
X026142Y016294D03*
X026142Y016305D03*
X026153Y016370D03*
X026164Y016403D03*
X026164Y016425D03*
X026175Y016436D03*
X026175Y016447D03*
X026186Y016469D03*
X026186Y016480D03*
X026207Y016534D03*
X027892Y016502D03*
X027902Y016480D03*
X027902Y016469D03*
X027913Y016447D03*
X027913Y016436D03*
X027913Y016425D03*
X027924Y016403D03*
X027924Y016392D03*
X027935Y016348D03*
X027946Y016294D03*
X027946Y016283D03*
X027946Y016097D03*
X027946Y016086D03*
X027935Y016031D03*
X027935Y016009D03*
X027924Y015977D03*
X027924Y015955D03*
X027913Y015944D03*
X027913Y015933D03*
X027902Y015911D03*
X027902Y015900D03*
X027881Y015845D03*
D39*
X020685Y016042D03*
X016212Y016633D03*
X014287Y016644D03*
X014046Y014402D03*
D40*
X014271Y014741D03*
X014271Y014752D03*
X013133Y014413D03*
X014052Y016239D03*
X014052Y016250D03*
X014063Y016272D03*
X013177Y016567D03*
X015113Y016600D03*
X015999Y016283D03*
X015999Y016272D03*
X016009Y016294D03*
X016009Y016305D03*
X016031Y016348D03*
X016042Y016370D03*
X015988Y016250D03*
X015988Y016239D03*
X016195Y014697D03*
X016184Y014675D03*
X020285Y015441D03*
X020307Y015419D03*
X020504Y014719D03*
X021346Y014555D03*
X020701Y016173D03*
X020701Y016184D03*
X020701Y016195D03*
X021303Y016283D03*
X021303Y016294D03*
X021303Y016305D03*
X026191Y016491D03*
X026191Y016502D03*
X026213Y016545D03*
X026224Y016567D03*
X026235Y016589D03*
X026180Y015911D03*
X026191Y015878D03*
X026213Y015834D03*
X026224Y015813D03*
X026224Y015802D03*
X027853Y015791D03*
X027864Y015813D03*
X027886Y015856D03*
X027897Y015878D03*
X027897Y015889D03*
X027897Y016491D03*
X027886Y016523D03*
X027864Y016567D03*
X027853Y016589D03*
X009240Y015583D03*
X009240Y015561D03*
X009218Y015506D03*
X009207Y015484D03*
X009196Y015463D03*
X009185Y015441D03*
X008945Y015659D03*
X008956Y014850D03*
X008956Y014828D03*
D41*
X009191Y015452D03*
X009245Y015594D03*
X009245Y015605D03*
X009245Y015616D03*
X013139Y014424D03*
X014276Y014763D03*
X014276Y014774D03*
X015053Y014413D03*
X016201Y014708D03*
X016201Y014719D03*
X015982Y016228D03*
X015107Y016589D03*
X020280Y015452D03*
X020706Y016206D03*
X020706Y016228D03*
X020706Y016239D03*
X021308Y016327D03*
X021308Y016338D03*
X020422Y014610D03*
X026229Y015791D03*
X026262Y015736D03*
X026229Y016578D03*
X026262Y016633D03*
X027837Y016622D03*
X027848Y016600D03*
X027859Y016578D03*
X027859Y015802D03*
X027848Y015780D03*
X027837Y015758D03*
D42*
X027799Y015703D03*
X027799Y015692D03*
X027799Y016677D03*
X026278Y016666D03*
X026268Y016644D03*
X026278Y015714D03*
X021357Y014544D03*
X020264Y015463D03*
X020712Y016250D03*
X020712Y016272D03*
X015944Y016075D03*
X015944Y016053D03*
X015102Y016578D03*
X014019Y016130D03*
X015058Y014424D03*
X009152Y015386D03*
X008464Y015156D03*
X008956Y014872D03*
X008956Y014861D03*
D43*
X008223Y016119D03*
X013144Y014435D03*
X014281Y014785D03*
X014030Y016163D03*
X015955Y016119D03*
X016228Y014785D03*
X020690Y016808D03*
X021368Y016950D03*
X021313Y016359D03*
X026311Y016709D03*
D44*
X026306Y015670D03*
X027782Y015670D03*
X027771Y016709D03*
X020258Y015474D03*
X015938Y016020D03*
X014014Y016119D03*
X015063Y014435D03*
D45*
X016015Y014435D03*
D46*
X016223Y014774D03*
X016234Y014806D03*
X016234Y014817D03*
X016234Y014828D03*
X015938Y016009D03*
X015938Y016031D03*
X015938Y016042D03*
X015949Y016086D03*
X015949Y016097D03*
X015096Y016567D03*
X014024Y016152D03*
X014024Y016141D03*
X014014Y016108D03*
X014014Y016097D03*
X014014Y016086D03*
X014287Y014817D03*
X014287Y014806D03*
X013150Y014446D03*
X009158Y015397D03*
X020192Y016009D03*
X021308Y016370D03*
X021363Y016939D03*
X022041Y016370D03*
X021778Y015802D03*
X021406Y014894D03*
X020422Y014599D03*
X026317Y015659D03*
X026328Y015649D03*
X026295Y016687D03*
X026306Y016698D03*
X026317Y016720D03*
X026328Y016731D03*
X026339Y016742D03*
X027760Y016731D03*
X027782Y016698D03*
X027771Y015659D03*
X027760Y015649D03*
D47*
X022117Y016436D03*
X020696Y016917D03*
X020696Y016928D03*
X020149Y016130D03*
X020444Y014642D03*
X016081Y014500D03*
X014145Y014511D03*
X014134Y014500D03*
X014090Y014446D03*
X014232Y016567D03*
X014232Y016578D03*
X014243Y016589D03*
X013215Y016633D03*
X016168Y016567D03*
X016179Y016578D03*
X016179Y016589D03*
X008742Y016130D03*
X008447Y015463D03*
X008447Y015452D03*
X008469Y015408D03*
X008469Y015397D03*
X008480Y015364D03*
X008491Y015342D03*
X008228Y015495D03*
D48*
X009131Y015353D03*
X009142Y015364D03*
X009251Y015649D03*
X008792Y016206D03*
X008956Y014905D03*
X008956Y014894D03*
X013155Y014894D03*
X013155Y014905D03*
X013155Y014916D03*
X013155Y014927D03*
X013155Y014949D03*
X013155Y014960D03*
X013155Y014971D03*
X013155Y014992D03*
X013155Y015003D03*
X013155Y015014D03*
X013155Y015025D03*
X013155Y015047D03*
X013155Y015058D03*
X013155Y015069D03*
X013155Y015091D03*
X013155Y015102D03*
X013155Y015113D03*
X013155Y015124D03*
X013155Y015145D03*
X013155Y015156D03*
X013155Y015167D03*
X013155Y015189D03*
X013155Y015200D03*
X013155Y015211D03*
X013155Y015222D03*
X013155Y015244D03*
X013155Y015255D03*
X013155Y015266D03*
X013155Y015288D03*
X013155Y015299D03*
X013155Y015310D03*
X013155Y015320D03*
X013155Y015342D03*
X013155Y015353D03*
X013155Y015364D03*
X013155Y015386D03*
X013155Y015397D03*
X013155Y015408D03*
X013155Y015419D03*
X013155Y015441D03*
X013155Y015452D03*
X013155Y015463D03*
X013155Y015484D03*
X013155Y015495D03*
X013155Y015506D03*
X013155Y015517D03*
X013155Y015539D03*
X013155Y015550D03*
X013155Y015561D03*
X013155Y015583D03*
X013155Y015594D03*
X013155Y015605D03*
X013155Y015616D03*
X013155Y015638D03*
X013155Y015649D03*
X013155Y015659D03*
X013155Y015681D03*
X013155Y015692D03*
X013155Y015703D03*
X013155Y015714D03*
X013155Y015736D03*
X013155Y015747D03*
X013155Y015758D03*
X013155Y015780D03*
X013155Y015791D03*
X013155Y015802D03*
X013155Y015813D03*
X013155Y015834D03*
X013155Y015845D03*
X013155Y015856D03*
X013155Y015878D03*
X013155Y015889D03*
X013155Y015900D03*
X013155Y015911D03*
X013155Y015933D03*
X013155Y015944D03*
X013155Y015955D03*
X013155Y015977D03*
X013155Y015988D03*
X013155Y015999D03*
X013155Y016009D03*
X013155Y016031D03*
X013155Y016042D03*
X013155Y016053D03*
X013155Y016075D03*
X013155Y016086D03*
X013155Y016097D03*
X013155Y016108D03*
X013155Y016130D03*
X013155Y016141D03*
X013155Y016152D03*
X013155Y016173D03*
X013155Y016184D03*
X013155Y016195D03*
X013155Y016206D03*
X013155Y016228D03*
X013155Y016239D03*
X013155Y016250D03*
X013155Y016272D03*
X013155Y016283D03*
X013155Y016294D03*
X013155Y016305D03*
X013155Y016327D03*
X013155Y016338D03*
X013155Y016348D03*
X013155Y016370D03*
X013155Y016381D03*
X013155Y016392D03*
X013155Y016403D03*
X013155Y016425D03*
X013155Y016436D03*
X013155Y016447D03*
X013155Y016469D03*
X013155Y016480D03*
X013155Y016491D03*
X013155Y016502D03*
X014008Y016075D03*
X014008Y016053D03*
X014008Y016042D03*
X014008Y016031D03*
X014292Y014828D03*
X015069Y014446D03*
X013155Y014500D03*
X013155Y014511D03*
X013155Y014522D03*
X013155Y014544D03*
X013155Y014555D03*
X013155Y014566D03*
X013155Y014577D03*
X013155Y014599D03*
X013155Y014610D03*
X013155Y014621D03*
X013155Y014642D03*
X013155Y014653D03*
X013155Y014664D03*
X013155Y014675D03*
X013155Y014697D03*
X013155Y014708D03*
X013155Y014719D03*
X013155Y014741D03*
X013155Y014752D03*
X013155Y014763D03*
X013155Y014774D03*
X013155Y014796D03*
X013155Y014806D03*
X013155Y014817D03*
X013155Y014828D03*
X013155Y014850D03*
X013155Y014861D03*
X013155Y014872D03*
X020198Y015999D03*
X021226Y015878D03*
X021784Y015813D03*
X021313Y016381D03*
X021313Y016392D03*
X021313Y016403D03*
X020690Y016786D03*
X020690Y016797D03*
X026355Y016764D03*
X026366Y016775D03*
X027766Y016720D03*
X027755Y015638D03*
X027733Y015616D03*
X027722Y015605D03*
X026355Y015616D03*
X026333Y015638D03*
D49*
X014779Y016731D03*
X014768Y016720D03*
X014560Y014456D03*
D50*
X014566Y014467D03*
D51*
X014571Y014478D03*
D52*
X014582Y014489D03*
D53*
X014292Y014861D03*
X014292Y014872D03*
X014292Y014894D03*
X015080Y014894D03*
X015080Y014905D03*
X015080Y014916D03*
X015080Y014927D03*
X015080Y014949D03*
X015080Y014960D03*
X015080Y014971D03*
X015080Y014992D03*
X015080Y015003D03*
X015080Y015014D03*
X015080Y015025D03*
X015080Y015047D03*
X015080Y015058D03*
X015080Y015069D03*
X015080Y015091D03*
X015080Y015102D03*
X015080Y015113D03*
X015080Y015124D03*
X015080Y015145D03*
X015080Y015156D03*
X015080Y015167D03*
X015080Y015189D03*
X015080Y015200D03*
X015080Y015211D03*
X015080Y015222D03*
X015080Y015244D03*
X015080Y015255D03*
X015080Y015266D03*
X015080Y015288D03*
X015080Y015299D03*
X015080Y015310D03*
X015080Y015320D03*
X015080Y015342D03*
X015080Y015353D03*
X015080Y015364D03*
X015080Y015386D03*
X015080Y015397D03*
X015080Y015408D03*
X015080Y015419D03*
X015080Y015441D03*
X015080Y015452D03*
X015080Y015463D03*
X015080Y015484D03*
X015080Y015495D03*
X015080Y015506D03*
X015080Y015517D03*
X015080Y015539D03*
X015080Y015550D03*
X015080Y015561D03*
X015080Y015583D03*
X015080Y015594D03*
X015080Y015605D03*
X015080Y015616D03*
X015080Y015638D03*
X015080Y015649D03*
X015080Y015659D03*
X015080Y015681D03*
X015080Y015692D03*
X015080Y015703D03*
X015080Y015714D03*
X015080Y015736D03*
X015080Y015747D03*
X015080Y015758D03*
X015080Y015780D03*
X015080Y015791D03*
X015080Y015802D03*
X015080Y015813D03*
X015080Y015834D03*
X015080Y015845D03*
X015080Y015856D03*
X015080Y015878D03*
X015080Y015889D03*
X015080Y015900D03*
X015080Y015911D03*
X015080Y015933D03*
X015080Y015944D03*
X015080Y015955D03*
X015080Y015977D03*
X015080Y015988D03*
X015080Y015999D03*
X015080Y016009D03*
X015080Y016031D03*
X015080Y016042D03*
X015080Y016053D03*
X015080Y016075D03*
X015080Y016086D03*
X015080Y016097D03*
X015080Y016108D03*
X015080Y016130D03*
X015080Y016141D03*
X015080Y016152D03*
X015080Y016173D03*
X015080Y016184D03*
X015080Y016195D03*
X015080Y016206D03*
X015080Y016228D03*
X015080Y016239D03*
X015080Y016250D03*
X015080Y016272D03*
X015080Y016283D03*
X015080Y016294D03*
X015080Y016305D03*
X015080Y016327D03*
X015080Y016338D03*
X015080Y016348D03*
X015080Y016370D03*
X015080Y016381D03*
X015080Y016392D03*
X015080Y016403D03*
X015080Y016425D03*
X015080Y016436D03*
X015080Y016447D03*
X015080Y016469D03*
X015080Y016480D03*
X015080Y016491D03*
X015080Y014872D03*
X015080Y014861D03*
X015080Y014850D03*
X015080Y014828D03*
X015080Y014817D03*
X015080Y014806D03*
X015080Y014796D03*
X015080Y014774D03*
X015080Y014763D03*
X015080Y014752D03*
X015080Y014741D03*
X015080Y014719D03*
X015080Y014708D03*
X015080Y014697D03*
X015080Y014675D03*
X015080Y014664D03*
X015080Y014653D03*
X015080Y014642D03*
X015080Y014621D03*
X015080Y014610D03*
X015080Y014599D03*
X015080Y014577D03*
X015080Y014566D03*
X015080Y014555D03*
X015080Y014544D03*
X015080Y014522D03*
X015080Y014511D03*
X015080Y014500D03*
X020198Y015977D03*
X020198Y015988D03*
X020690Y016775D03*
X022024Y016348D03*
X026388Y016797D03*
X027667Y015550D03*
X027678Y015561D03*
D54*
X027744Y015627D03*
X026344Y015627D03*
X026344Y016753D03*
X027744Y016753D03*
X015091Y016556D03*
X014008Y016064D03*
X013155Y016064D03*
X013155Y016020D03*
X013155Y015966D03*
X013155Y015922D03*
X013155Y015867D03*
X013155Y015824D03*
X013155Y015769D03*
X013155Y015725D03*
X013155Y015670D03*
X013155Y015627D03*
X013155Y015572D03*
X013155Y015528D03*
X013155Y015474D03*
X013155Y015430D03*
X013155Y015375D03*
X013155Y015331D03*
X013155Y015277D03*
X013155Y015233D03*
X013155Y015178D03*
X013155Y015135D03*
X013155Y015080D03*
X013155Y015036D03*
X013155Y014981D03*
X013155Y014938D03*
X013155Y014883D03*
X013155Y014839D03*
X013155Y014785D03*
X013155Y014730D03*
X013155Y014686D03*
X013155Y014631D03*
X013155Y014588D03*
X013155Y014533D03*
X014292Y014839D03*
X013155Y016119D03*
X013155Y016163D03*
X013155Y016217D03*
X013155Y016261D03*
X013155Y016316D03*
X013155Y016359D03*
X013155Y016414D03*
X013155Y016458D03*
X008956Y014883D03*
D55*
X014292Y014883D03*
X015080Y014883D03*
X015080Y014839D03*
X015080Y014785D03*
X015080Y014730D03*
X015080Y014686D03*
X015080Y014631D03*
X015080Y014588D03*
X015080Y014533D03*
X015080Y014938D03*
X015080Y014981D03*
X015080Y015036D03*
X015080Y015080D03*
X015080Y015135D03*
X015080Y015178D03*
X015080Y015233D03*
X015080Y015277D03*
X015080Y015331D03*
X015080Y015375D03*
X015080Y015430D03*
X015080Y015474D03*
X015080Y015528D03*
X015080Y015572D03*
X015080Y015627D03*
X015080Y015670D03*
X015080Y015725D03*
X015080Y015769D03*
X015080Y015824D03*
X015080Y015867D03*
X015080Y015922D03*
X015080Y015966D03*
X015080Y016020D03*
X015080Y016064D03*
X015080Y016119D03*
X015080Y016163D03*
X015080Y016217D03*
X015080Y016261D03*
X015080Y016316D03*
X015080Y016359D03*
X015080Y016414D03*
X015080Y016458D03*
X026399Y016808D03*
X026399Y015572D03*
D56*
X021226Y015922D03*
X020679Y016064D03*
X016163Y016556D03*
X015145Y016655D03*
X014194Y014588D03*
X016097Y014533D03*
X008923Y015627D03*
X008442Y015474D03*
X008496Y015331D03*
D57*
X016135Y014588D03*
X016091Y016458D03*
D58*
X016102Y016480D03*
X014123Y016403D03*
X014112Y016381D03*
X013193Y016600D03*
X016146Y014599D03*
X020171Y016053D03*
X021297Y016239D03*
X021297Y016250D03*
X021406Y014872D03*
X021341Y014566D03*
X008458Y015167D03*
X008250Y016097D03*
D59*
X008934Y015649D03*
X008956Y014817D03*
X008956Y014806D03*
X008956Y014796D03*
X013188Y016589D03*
X014085Y016327D03*
X014107Y016370D03*
X014117Y016392D03*
X016075Y016425D03*
X016075Y016436D03*
X016086Y016447D03*
X016097Y016469D03*
X014260Y014719D03*
X014249Y014697D03*
X016152Y014610D03*
X016173Y014653D03*
X020176Y016042D03*
X021303Y016272D03*
X021762Y015758D03*
X022090Y016403D03*
X020701Y016841D03*
X026136Y016283D03*
X026136Y016272D03*
X026136Y016250D03*
X026136Y016239D03*
X026136Y016228D03*
X026136Y016206D03*
X026136Y016195D03*
X026136Y016184D03*
X026136Y016173D03*
X026136Y016152D03*
X026136Y016141D03*
X026136Y016130D03*
X026136Y016108D03*
X026136Y016097D03*
X026158Y015988D03*
X026158Y016381D03*
X026158Y016392D03*
X027930Y016381D03*
X027930Y016370D03*
X027941Y016338D03*
X027941Y016327D03*
X027941Y016305D03*
X027952Y016272D03*
X027952Y016250D03*
X027952Y016239D03*
X027952Y016228D03*
X027952Y016206D03*
X027952Y016195D03*
X027952Y016184D03*
X027952Y016173D03*
X027952Y016152D03*
X027952Y016141D03*
X027952Y016130D03*
X027952Y016108D03*
X027941Y016075D03*
X027941Y016053D03*
X027941Y016042D03*
X027930Y015999D03*
X027930Y015988D03*
D60*
X021303Y016228D03*
X014172Y016480D03*
X014216Y014621D03*
X008956Y014774D03*
X008759Y016152D03*
D61*
X014221Y014631D03*
X021297Y016217D03*
D62*
X020690Y016119D03*
X016163Y014631D03*
X016064Y016414D03*
X026147Y016316D03*
D63*
X026153Y016359D03*
X026164Y016414D03*
X026175Y016458D03*
X026142Y016064D03*
X026153Y016020D03*
X026164Y015966D03*
X026175Y015922D03*
X026196Y015867D03*
X027892Y015867D03*
X027913Y015922D03*
X027924Y015966D03*
X027935Y016020D03*
X027935Y016359D03*
X027924Y016414D03*
X021767Y015769D03*
X020696Y016163D03*
X020564Y013953D03*
X016190Y014686D03*
X014265Y014730D03*
X014079Y016316D03*
X015118Y016611D03*
X016015Y016316D03*
X016037Y016359D03*
X009202Y015474D03*
D64*
X009180Y015430D03*
X014046Y016217D03*
X015960Y016163D03*
X016212Y014730D03*
X026240Y015769D03*
X026251Y016611D03*
X027815Y016655D03*
X027815Y015725D03*
D65*
X027826Y015736D03*
X027826Y015747D03*
X027826Y016633D03*
X026251Y016622D03*
X026240Y016600D03*
X026240Y015780D03*
X026251Y015758D03*
X020696Y016819D03*
X016212Y014741D03*
X015960Y016141D03*
X015960Y016152D03*
X015971Y016184D03*
X015971Y016195D03*
X015971Y016206D03*
X014046Y016228D03*
X014035Y016206D03*
X014035Y016195D03*
X009169Y015419D03*
X008775Y016184D03*
D66*
X008781Y016195D03*
X009163Y015408D03*
X014030Y016173D03*
X014030Y016184D03*
X015955Y016130D03*
X015955Y016108D03*
X015966Y016173D03*
X016228Y014796D03*
X016217Y014763D03*
X016217Y014752D03*
X014281Y014796D03*
X021226Y015889D03*
X021773Y015791D03*
X022057Y016381D03*
X021313Y016348D03*
X026257Y015747D03*
X026289Y015703D03*
X026289Y015692D03*
X026300Y015681D03*
X027044Y015211D03*
X027788Y015681D03*
X027809Y015714D03*
X027820Y016644D03*
X027809Y016666D03*
X027788Y016687D03*
X026289Y016677D03*
X028236Y013833D03*
D67*
X020712Y016316D03*
X016239Y014839D03*
D68*
X014287Y014850D03*
X014003Y015999D03*
X014003Y016009D03*
X009125Y015342D03*
X008469Y015145D03*
X020236Y015495D03*
X020247Y015484D03*
X021363Y016928D03*
X026382Y016786D03*
X027717Y016775D03*
X027727Y016764D03*
X027717Y015594D03*
X026382Y015583D03*
X026360Y015605D03*
D69*
X028247Y013844D03*
X020712Y016283D03*
X020712Y016294D03*
X020712Y016305D03*
X016239Y014872D03*
X016239Y014861D03*
X016239Y014850D03*
X015944Y015977D03*
X015944Y015988D03*
X015944Y015999D03*
D70*
X015938Y015966D03*
X015938Y015922D03*
X016245Y014883D03*
X020422Y014588D03*
X008797Y016217D03*
D71*
X009245Y015659D03*
X015938Y015933D03*
X015938Y015944D03*
X015938Y015955D03*
X016245Y014905D03*
X016245Y014894D03*
X020422Y014577D03*
X021406Y014905D03*
X020761Y015813D03*
X020717Y016327D03*
X021800Y015834D03*
X026371Y015594D03*
X027706Y015583D03*
X027706Y016786D03*
X027695Y016797D03*
D72*
X027662Y016830D03*
X027651Y016841D03*
X026437Y016841D03*
X026426Y016830D03*
X026415Y015550D03*
X027651Y015539D03*
X021811Y015856D03*
X021319Y016436D03*
X020717Y016348D03*
X020225Y015539D03*
X021406Y014916D03*
X020422Y014566D03*
X020422Y014555D03*
X016234Y014960D03*
X016234Y014971D03*
X015949Y015834D03*
X015949Y015845D03*
X015949Y015856D03*
X014298Y014905D03*
X014003Y015911D03*
X009103Y015310D03*
X009092Y015299D03*
X008961Y014949D03*
X008819Y016239D03*
D73*
X008824Y016250D03*
X009087Y015288D03*
X008956Y014960D03*
X014008Y015856D03*
X014008Y015878D03*
X014008Y015889D03*
X014008Y015900D03*
X014019Y015834D03*
X014019Y015813D03*
X014292Y014949D03*
X014292Y014927D03*
X014292Y014916D03*
X015955Y015780D03*
X015955Y015791D03*
X015955Y015802D03*
X015955Y015813D03*
X016228Y015003D03*
X016228Y014992D03*
X020220Y015550D03*
X020220Y015561D03*
X020767Y015802D03*
X020712Y016370D03*
X020690Y016764D03*
X021313Y016447D03*
X022013Y016327D03*
X021827Y015889D03*
X021412Y014927D03*
X021368Y014522D03*
X020559Y013975D03*
X026432Y015539D03*
X026464Y016862D03*
X027624Y016862D03*
D74*
X026410Y016819D03*
X026410Y015561D03*
X021806Y015845D03*
X021313Y016425D03*
X021357Y016917D03*
X020712Y016338D03*
X020231Y015517D03*
X020231Y015506D03*
X016239Y014949D03*
X016239Y014927D03*
X016239Y014916D03*
X015944Y015878D03*
X015944Y015889D03*
X015944Y015900D03*
X015944Y015911D03*
X014008Y015933D03*
X014008Y015944D03*
X014008Y015955D03*
X014008Y015977D03*
X014008Y015988D03*
X009109Y015320D03*
X008956Y014927D03*
X008956Y014916D03*
X008803Y016228D03*
X008201Y016130D03*
D75*
X014008Y015867D03*
X014019Y015824D03*
X014292Y014938D03*
X020712Y016359D03*
X020690Y016753D03*
X021357Y016906D03*
X021817Y015867D03*
X026443Y015528D03*
X027645Y015528D03*
X027635Y016851D03*
X026453Y016851D03*
D76*
X027689Y016808D03*
X027689Y015572D03*
X021313Y016414D03*
X016239Y014938D03*
X015944Y015867D03*
X014008Y015922D03*
X014008Y015966D03*
D77*
X014287Y014971D03*
X014287Y014960D03*
X015971Y015703D03*
X015971Y015714D03*
X015971Y015736D03*
X021374Y014511D03*
X027629Y015517D03*
X008185Y016141D03*
D78*
X014287Y014981D03*
X015971Y015725D03*
D79*
X015949Y015824D03*
X016234Y014981D03*
X020225Y015528D03*
X020203Y015966D03*
X021221Y015867D03*
X028252Y013855D03*
X008961Y014938D03*
X008469Y015135D03*
D80*
X008967Y015014D03*
X008967Y015003D03*
X014041Y015703D03*
X014041Y015714D03*
X014281Y015014D03*
X014281Y015003D03*
X014281Y014992D03*
X015977Y015681D03*
X015977Y015692D03*
X016217Y015058D03*
X016217Y015047D03*
X026486Y015495D03*
X026497Y016884D03*
X027044Y017158D03*
D81*
X026481Y016873D03*
X027607Y016873D03*
X027618Y015506D03*
X026470Y015506D03*
X026459Y015517D03*
X028263Y013866D03*
X021844Y015911D03*
X021833Y015900D03*
X021221Y015856D03*
X021319Y016469D03*
X020717Y016381D03*
X020696Y016742D03*
X021352Y016895D03*
X020203Y015955D03*
X020422Y014544D03*
X016223Y015014D03*
X016223Y015025D03*
X015960Y015747D03*
X015960Y015758D03*
X014025Y015780D03*
X014025Y015791D03*
X014025Y015802D03*
X014014Y015845D03*
X009070Y015255D03*
X009060Y015244D03*
X008961Y014992D03*
X008961Y014971D03*
X008469Y015124D03*
D82*
X008972Y015047D03*
X008972Y015025D03*
X008983Y015069D03*
X009016Y015156D03*
X009027Y015189D03*
X009038Y015200D03*
X014046Y015681D03*
X014046Y015692D03*
X014057Y015649D03*
X014057Y015638D03*
X014276Y015047D03*
X014276Y015025D03*
X016004Y015583D03*
X016004Y015594D03*
X016015Y015550D03*
X016201Y015102D03*
X016201Y015091D03*
X016212Y015069D03*
X020203Y015933D03*
X020772Y015791D03*
X021220Y015845D03*
X021319Y016491D03*
X021319Y016502D03*
X020696Y016720D03*
X020696Y016731D03*
X021866Y015955D03*
X021417Y014960D03*
X020433Y014522D03*
X020553Y013986D03*
X021385Y013877D03*
X026503Y015484D03*
X027585Y015484D03*
X027574Y016895D03*
X028263Y013877D03*
D83*
X015982Y015670D03*
X014276Y015036D03*
X014046Y015670D03*
X014035Y015725D03*
X009027Y015178D03*
X008972Y015036D03*
D84*
X008961Y014981D03*
X014025Y015769D03*
X015960Y015769D03*
X016223Y015036D03*
X020499Y014730D03*
X021406Y014938D03*
X021844Y015922D03*
X022008Y016316D03*
X021319Y016458D03*
D85*
X021357Y016873D03*
X021991Y016283D03*
X021991Y016272D03*
X021882Y015977D03*
X021412Y014971D03*
X021379Y014500D03*
X016195Y015113D03*
X016184Y015145D03*
X016173Y015156D03*
X016086Y015364D03*
X016064Y015419D03*
X016053Y015441D03*
X016053Y015452D03*
X016031Y015495D03*
X016031Y015506D03*
X016020Y015539D03*
X016009Y015561D03*
X015998Y015605D03*
X014271Y015069D03*
X014271Y015058D03*
X014260Y015091D03*
X014260Y015102D03*
X014107Y015484D03*
X014096Y015517D03*
X014085Y015539D03*
X014085Y015550D03*
X014085Y015561D03*
X014074Y015583D03*
X014074Y015594D03*
X014063Y015616D03*
X014052Y015659D03*
X009021Y015167D03*
X009010Y015145D03*
X008988Y015102D03*
X008988Y015091D03*
X008977Y015058D03*
X008463Y015113D03*
X027547Y015463D03*
D86*
X027569Y015474D03*
X027558Y016906D03*
X026530Y016906D03*
X021871Y015966D03*
X020701Y016709D03*
X020209Y015922D03*
X016184Y015135D03*
X016020Y015528D03*
X016009Y015572D03*
X014271Y015080D03*
X014249Y015135D03*
X014128Y015430D03*
X014074Y015572D03*
X014063Y015627D03*
X008988Y015080D03*
D87*
X008835Y016261D03*
X016206Y015080D03*
D88*
X016168Y015167D03*
X016157Y015189D03*
X016157Y015200D03*
X016157Y015211D03*
X016146Y015222D03*
X016135Y015244D03*
X016135Y015255D03*
X016124Y015266D03*
X016124Y015288D03*
X016113Y015299D03*
X016113Y015310D03*
X016102Y015320D03*
X016081Y015386D03*
X016070Y015397D03*
X016070Y015408D03*
X016048Y015463D03*
X016037Y015484D03*
X016026Y015517D03*
X014254Y015124D03*
X014254Y015113D03*
X014243Y015145D03*
X014243Y015156D03*
X014232Y015167D03*
X014221Y015200D03*
X014221Y015211D03*
X014210Y015222D03*
X014199Y015255D03*
X014189Y015288D03*
X014178Y015310D03*
X014156Y015353D03*
X014156Y015364D03*
X014145Y015386D03*
X014145Y015397D03*
X014134Y015408D03*
X014134Y015419D03*
X014123Y015441D03*
X014112Y015463D03*
X014101Y015495D03*
X014101Y015506D03*
X020214Y015616D03*
X020203Y015911D03*
X020706Y016447D03*
X020696Y016698D03*
X021319Y016523D03*
X021986Y016250D03*
X021888Y015988D03*
X021220Y015834D03*
X020433Y014511D03*
X020433Y014500D03*
X026535Y015463D03*
X026546Y016917D03*
X027542Y016917D03*
X028274Y013888D03*
X007747Y015299D03*
X007747Y015310D03*
D89*
X009049Y015222D03*
X008852Y016272D03*
X014068Y015605D03*
X015993Y015616D03*
X015993Y015638D03*
X016190Y015124D03*
X020214Y015594D03*
X021997Y016294D03*
X026514Y016895D03*
D90*
X021986Y016261D03*
X021319Y016512D03*
X020214Y015627D03*
X021417Y014981D03*
X016168Y015178D03*
X016146Y015233D03*
X016124Y015277D03*
X016102Y015331D03*
X016081Y015375D03*
X016059Y015430D03*
X014232Y015178D03*
X014210Y015233D03*
X014189Y015277D03*
X014145Y015375D03*
X014112Y015474D03*
X014090Y015528D03*
X007758Y015277D03*
X007736Y015331D03*
D91*
X007742Y015320D03*
X007731Y015342D03*
X007731Y015353D03*
X007731Y015364D03*
X007753Y015288D03*
X008868Y016283D03*
X014183Y015299D03*
X014194Y015266D03*
X014205Y015244D03*
X014227Y015189D03*
X020209Y015900D03*
X020701Y016666D03*
X020701Y016677D03*
X020701Y016687D03*
X021324Y016545D03*
X021324Y016534D03*
X021981Y016239D03*
X021904Y016009D03*
X021412Y014992D03*
X026552Y015452D03*
X027525Y015452D03*
D92*
X021893Y015999D03*
X021357Y016841D03*
X020220Y015638D03*
X014172Y015320D03*
X007775Y015244D03*
X007764Y015266D03*
D93*
X014167Y015331D03*
D94*
X014167Y015342D03*
X016091Y015353D03*
X016091Y015342D03*
X020958Y015003D03*
X021352Y016862D03*
X007769Y015255D03*
D95*
X008999Y015124D03*
X008999Y015113D03*
X014117Y015452D03*
X020220Y015605D03*
X020712Y016425D03*
X020712Y016436D03*
D96*
X020712Y016414D03*
X016042Y015474D03*
X026519Y015474D03*
D97*
X015993Y015627D03*
X009005Y015135D03*
D98*
X009043Y015211D03*
X014030Y015736D03*
X014030Y015747D03*
X014030Y015758D03*
X015988Y015659D03*
X015988Y015649D03*
X020209Y015944D03*
X020220Y015583D03*
X021412Y014949D03*
X021849Y015933D03*
X021860Y015944D03*
X022002Y016305D03*
X021313Y016480D03*
X021357Y016884D03*
X020712Y016403D03*
X020712Y016392D03*
X027591Y016884D03*
X027602Y015495D03*
D99*
X022030Y016359D03*
X021789Y015824D03*
X021363Y014533D03*
X014003Y016020D03*
X009114Y015331D03*
D100*
X009251Y015627D03*
X015944Y016064D03*
X020712Y016261D03*
X020767Y015824D03*
X026268Y015725D03*
D101*
X026218Y016556D03*
X026273Y016655D03*
X027837Y016611D03*
X021308Y016316D03*
X020706Y016217D03*
X020182Y016020D03*
X021406Y014883D03*
X015993Y016261D03*
X015982Y016217D03*
X014057Y016261D03*
X013171Y016556D03*
D102*
X016020Y016327D03*
X021226Y015900D03*
X021773Y015780D03*
X021379Y016961D03*
X026202Y016523D03*
X026202Y015856D03*
X026202Y015845D03*
X027875Y015834D03*
X027875Y016534D03*
X027875Y016545D03*
X008234Y016108D03*
D103*
X014096Y016348D03*
X015124Y016622D03*
X020690Y016130D03*
X026147Y016053D03*
X026147Y016042D03*
X026147Y016031D03*
X026147Y016327D03*
X026147Y016338D03*
X026147Y016348D03*
X028225Y013822D03*
D104*
X020696Y016851D03*
X014134Y016414D03*
D105*
X014161Y016458D03*
X008956Y014785D03*
X020165Y016064D03*
X022101Y016414D03*
D106*
X020761Y015845D03*
X014167Y016469D03*
X008950Y014763D03*
D107*
X015572Y016502D03*
D108*
X014621Y016512D03*
D109*
X014621Y016523D03*
D110*
X014631Y016534D03*
D111*
X014134Y016545D03*
D112*
X014221Y016556D03*
X008458Y015430D03*
X021297Y016163D03*
X021395Y017005D03*
D113*
X020439Y014631D03*
X013199Y016611D03*
D114*
X013243Y016687D03*
X016250Y016687D03*
X020132Y016206D03*
X020701Y016983D03*
X022145Y016491D03*
D115*
X021286Y016075D03*
X021046Y014971D03*
X020455Y014653D03*
X013248Y016698D03*
X008250Y015419D03*
X008250Y015408D03*
X008239Y015353D03*
X008239Y015342D03*
X008228Y015310D03*
X008228Y015299D03*
X008196Y015222D03*
X008196Y015211D03*
X008185Y015200D03*
D116*
X015173Y016698D03*
D117*
X016261Y016698D03*
X021423Y017092D03*
X027044Y017169D03*
X008737Y016108D03*
X008179Y015189D03*
D118*
X014763Y016709D03*
D119*
X014785Y016742D03*
D120*
X008403Y014117D03*
X021330Y014205D03*
X021330Y014216D03*
D121*
X008409Y014139D03*
X008409Y014128D03*
D122*
X008403Y014150D03*
D123*
X008409Y014161D03*
X007753Y015813D03*
D124*
X007769Y015802D03*
X008403Y014172D03*
X027039Y017092D03*
D125*
X008409Y014183D03*
D126*
X008409Y014194D03*
D127*
X008403Y014205D03*
X007780Y015791D03*
D128*
X008409Y014227D03*
X008409Y014216D03*
D129*
X008409Y014238D03*
D130*
X008409Y014249D03*
D131*
X008403Y014260D03*
D132*
X008409Y014271D03*
X008409Y014282D03*
D133*
X008409Y014292D03*
X009251Y016458D03*
X009317Y016556D03*
D134*
X009327Y016567D03*
X009306Y016534D03*
X009284Y016502D03*
X009262Y016469D03*
X007840Y015747D03*
X008409Y014303D03*
X027044Y017070D03*
D135*
X021002Y015747D03*
X021002Y015736D03*
X009333Y016578D03*
X009245Y016447D03*
X009234Y016436D03*
X008403Y014314D03*
D136*
X008409Y014325D03*
X009338Y016589D03*
D137*
X007862Y015725D03*
X008409Y014336D03*
D138*
X008409Y014347D03*
X008409Y014358D03*
X007523Y016545D03*
D139*
X007507Y016578D03*
X007496Y016589D03*
X007878Y015703D03*
X009158Y016294D03*
X008403Y014369D03*
X021002Y015714D03*
D140*
X008409Y014380D03*
D141*
X008409Y014391D03*
D142*
X008403Y014402D03*
X009355Y016622D03*
D143*
X007917Y015659D03*
X008409Y014424D03*
X008409Y014413D03*
X020996Y015692D03*
D144*
X008409Y014435D03*
X008212Y014938D03*
D145*
X008212Y014949D03*
X008201Y014960D03*
X008201Y014971D03*
X008212Y014927D03*
X008223Y014916D03*
X008223Y014905D03*
X008245Y014850D03*
X008256Y014828D03*
X008256Y014817D03*
X008267Y014796D03*
X008278Y014763D03*
X008179Y015025D03*
X008168Y015047D03*
X008168Y015058D03*
X007971Y015561D03*
X007960Y015583D03*
X007949Y015605D03*
X007654Y016370D03*
X008409Y014446D03*
D146*
X008403Y014456D03*
X008163Y015069D03*
X007977Y015539D03*
X007977Y015550D03*
X007955Y015594D03*
X007474Y016633D03*
D147*
X008409Y014478D03*
X008409Y014467D03*
D148*
X008409Y014489D03*
D149*
X008409Y014500D03*
D150*
X008403Y014511D03*
D151*
X008409Y014522D03*
X007709Y016305D03*
D152*
X007468Y016655D03*
X008409Y014533D03*
D153*
X008409Y014544D03*
X008409Y014555D03*
X007731Y016272D03*
X027044Y017016D03*
D154*
X027268Y015255D03*
X008403Y014566D03*
X007769Y016206D03*
X007758Y016228D03*
D155*
X007775Y016195D03*
X007775Y016184D03*
X008409Y014577D03*
D156*
X008409Y014588D03*
X007764Y016217D03*
D157*
X008409Y014610D03*
X008409Y014599D03*
D158*
X008403Y014621D03*
X007463Y016666D03*
D159*
X008409Y014631D03*
D160*
X008409Y014642D03*
D161*
X008403Y014653D03*
X027214Y015288D03*
D162*
X008409Y014664D03*
D163*
X008403Y014675D03*
X027203Y015299D03*
D164*
X008409Y014686D03*
D165*
X008409Y014697D03*
D166*
X008403Y014708D03*
X027170Y015320D03*
D167*
X008409Y014719D03*
D168*
X008409Y014730D03*
D169*
X008409Y014741D03*
X008409Y014752D03*
X021106Y015649D03*
D170*
X021002Y015681D03*
X009355Y016633D03*
X007933Y015638D03*
X007922Y015649D03*
X007944Y015616D03*
X007638Y016392D03*
X007627Y016403D03*
X007485Y016622D03*
X008228Y014894D03*
X008239Y014861D03*
X008261Y014806D03*
X008272Y014774D03*
D171*
X008272Y014785D03*
X008250Y014839D03*
X007933Y015627D03*
D172*
X009240Y015572D03*
X008956Y014839D03*
X026213Y015824D03*
X027842Y015769D03*
X027908Y016458D03*
X027886Y016512D03*
X027864Y016556D03*
D173*
X008234Y014872D03*
X008190Y014992D03*
X008190Y015003D03*
X007643Y016381D03*
D174*
X008234Y014883D03*
D175*
X008196Y014981D03*
X007988Y015528D03*
D176*
X007988Y015517D03*
X008185Y015014D03*
D177*
X008174Y015036D03*
X007966Y015572D03*
X007660Y016359D03*
D178*
X009125Y015725D03*
X007911Y015135D03*
X007933Y015080D03*
X027990Y014588D03*
X028023Y014533D03*
D179*
X027039Y017147D03*
X020444Y014391D03*
X008436Y015080D03*
D180*
X007928Y015091D03*
X007753Y015506D03*
X009163Y015813D03*
X027044Y017136D03*
X027941Y014664D03*
X027974Y014621D03*
X027974Y014610D03*
X027984Y014599D03*
D181*
X028280Y013921D03*
X021412Y015025D03*
X020209Y015714D03*
X020209Y015736D03*
X020209Y015747D03*
X020209Y015758D03*
X020209Y015780D03*
X020209Y015791D03*
X020209Y015802D03*
X020209Y015813D03*
X021335Y016622D03*
X021335Y016633D03*
X021335Y016644D03*
X021357Y016775D03*
X021357Y016786D03*
X008453Y015091D03*
X007818Y015200D03*
D182*
X007917Y015113D03*
X007917Y015102D03*
X027952Y014653D03*
X027995Y014577D03*
X028291Y014030D03*
X028291Y014019D03*
D183*
X027509Y015441D03*
X026579Y015441D03*
X026568Y016928D03*
X021953Y016152D03*
X021942Y016130D03*
X021352Y016830D03*
X020706Y016491D03*
X020706Y016480D03*
X020706Y016469D03*
X020214Y015659D03*
X020214Y015649D03*
X008458Y015102D03*
X008316Y015506D03*
X007725Y015386D03*
D184*
X007911Y015145D03*
X007911Y015124D03*
X009114Y015681D03*
X009114Y015692D03*
X009147Y015780D03*
X009158Y015791D03*
X009158Y015802D03*
X028001Y014566D03*
X028012Y014555D03*
X028012Y014544D03*
X028034Y014511D03*
X028056Y014478D03*
D185*
X028088Y014424D03*
X028099Y014402D03*
X028154Y014314D03*
X028285Y014063D03*
X007911Y015156D03*
D186*
X007867Y015167D03*
X009245Y015933D03*
X020477Y014774D03*
X021363Y014424D03*
X020521Y014085D03*
X027684Y015102D03*
X027706Y015069D03*
X027706Y015058D03*
X027717Y015047D03*
D187*
X008217Y015266D03*
X008206Y015255D03*
X008206Y015244D03*
X008163Y015167D03*
D188*
X007846Y015178D03*
X009267Y015966D03*
X009366Y016217D03*
X028285Y013953D03*
D189*
X008174Y015178D03*
D190*
X007835Y015189D03*
X009311Y016042D03*
X009366Y016184D03*
X009366Y016195D03*
X020531Y014041D03*
X028285Y013943D03*
D191*
X021417Y015014D03*
X020433Y014446D03*
X020542Y014019D03*
X021221Y015813D03*
X020203Y015834D03*
X020203Y015845D03*
X020203Y015856D03*
X020706Y016523D03*
X020706Y016534D03*
X020706Y016545D03*
X020706Y016567D03*
X020706Y016578D03*
X020706Y016589D03*
X020706Y016600D03*
X021330Y016600D03*
X021330Y016589D03*
X021352Y016797D03*
X007802Y015211D03*
X007725Y015408D03*
X007725Y015419D03*
D192*
X007796Y015222D03*
X020439Y014467D03*
X020439Y014456D03*
X021379Y014478D03*
X021970Y016184D03*
X021970Y016195D03*
X021324Y016567D03*
X021324Y016578D03*
D193*
X020706Y016655D03*
X020214Y015670D03*
X021942Y016119D03*
X007780Y015233D03*
X007725Y015375D03*
D194*
X008206Y015233D03*
X008217Y015277D03*
D195*
X009054Y015233D03*
X020220Y015572D03*
X020428Y014533D03*
D196*
X008584Y015244D03*
D197*
X008562Y015255D03*
X008234Y015320D03*
X008223Y015288D03*
X008245Y015364D03*
X008245Y015386D03*
X008245Y015397D03*
X008256Y015441D03*
X008256Y015452D03*
X008256Y015463D03*
X020701Y016994D03*
X022156Y016502D03*
D198*
X009076Y015266D03*
D199*
X009076Y015277D03*
D200*
X008507Y015299D03*
X021401Y016994D03*
D201*
X021423Y017103D03*
X020132Y016217D03*
X008256Y015474D03*
X008256Y015430D03*
X008245Y015375D03*
X008234Y015331D03*
D202*
X009147Y015375D03*
D203*
X007720Y015397D03*
X020209Y015681D03*
X020209Y015692D03*
X020209Y015703D03*
X020701Y016502D03*
X020701Y016622D03*
X020701Y016633D03*
X020701Y016644D03*
X021357Y016819D03*
X021959Y016173D03*
X021948Y016141D03*
X020548Y014008D03*
X026585Y016939D03*
X027503Y016939D03*
X027044Y015222D03*
X028280Y013910D03*
D204*
X027498Y015430D03*
X021341Y016655D03*
X021352Y016709D03*
X021352Y016753D03*
X009344Y016119D03*
X007725Y015430D03*
D205*
X007731Y015441D03*
X009316Y016053D03*
X009327Y016075D03*
X009360Y016152D03*
X009360Y016173D03*
X020482Y014752D03*
X020942Y015014D03*
X020537Y014030D03*
X026639Y016961D03*
D206*
X021368Y014446D03*
X020449Y014380D03*
X009371Y016206D03*
X009295Y016009D03*
X009284Y015999D03*
X009273Y015977D03*
X007731Y015452D03*
D207*
X007736Y015463D03*
X009278Y015988D03*
X009366Y016228D03*
X020477Y014763D03*
X020455Y014369D03*
X020455Y014358D03*
X026656Y015408D03*
X027476Y015419D03*
X027618Y015211D03*
X027629Y015189D03*
D208*
X027635Y015178D03*
X021368Y014435D03*
X021368Y013899D03*
X007742Y015474D03*
D209*
X007742Y015484D03*
X009229Y015911D03*
X020471Y014325D03*
X020515Y014117D03*
X020515Y014107D03*
X027733Y015014D03*
X027744Y015003D03*
X027744Y014992D03*
X027766Y014960D03*
X027777Y014949D03*
X027788Y014927D03*
X028291Y013986D03*
X028291Y013975D03*
D210*
X027826Y014861D03*
X009224Y015900D03*
X007747Y015495D03*
D211*
X009224Y015517D03*
D212*
X009224Y015528D03*
D213*
X008901Y015594D03*
D214*
X009245Y015638D03*
X020564Y013964D03*
X027749Y016742D03*
D215*
X007911Y015670D03*
X007616Y016414D03*
D216*
X009174Y015824D03*
X009109Y015670D03*
X021357Y014391D03*
X027930Y014686D03*
X027963Y014631D03*
D217*
X007900Y015681D03*
X007605Y016425D03*
D218*
X007600Y016436D03*
X007589Y016447D03*
X007490Y016600D03*
X007895Y015692D03*
X020996Y015703D03*
D219*
X027044Y015244D03*
X028028Y014522D03*
X028039Y014500D03*
X028061Y014467D03*
X028072Y014456D03*
X028072Y014446D03*
X009142Y015758D03*
X009131Y015747D03*
X009131Y015736D03*
X009120Y015714D03*
X009120Y015703D03*
D220*
X009163Y016305D03*
X009174Y016327D03*
X009185Y016348D03*
X007873Y015714D03*
X007567Y016480D03*
X007556Y016491D03*
X007512Y016567D03*
X027044Y017059D03*
D221*
X007846Y015736D03*
D222*
X007824Y015758D03*
X009300Y016523D03*
X009311Y016545D03*
X021002Y015758D03*
D223*
X007807Y015769D03*
D224*
X009142Y015769D03*
X028083Y014435D03*
D225*
X007796Y015780D03*
D226*
X007742Y015824D03*
X021335Y014194D03*
X021335Y014052D03*
D227*
X021335Y014041D03*
X021335Y014030D03*
X021335Y014227D03*
X021335Y014238D03*
X007731Y015834D03*
D228*
X009180Y015834D03*
X020488Y014238D03*
X020488Y014227D03*
X020488Y014216D03*
X020499Y014183D03*
X020499Y014172D03*
X027913Y014708D03*
X027913Y014719D03*
X027924Y014697D03*
X027935Y014675D03*
D229*
X007714Y015845D03*
D230*
X009191Y015845D03*
X009191Y015856D03*
X009355Y016283D03*
X020466Y014806D03*
X020466Y014796D03*
X027892Y014752D03*
X027957Y014642D03*
D231*
X007703Y015856D03*
D232*
X007687Y015867D03*
D233*
X009196Y015867D03*
X020504Y014150D03*
X027842Y014839D03*
X028291Y013997D03*
D234*
X007682Y015878D03*
D235*
X009207Y015878D03*
X020504Y014161D03*
X021357Y014402D03*
X021357Y013910D03*
X027460Y015408D03*
X027842Y014828D03*
X027853Y014817D03*
X027864Y014806D03*
X027864Y014796D03*
X027886Y014763D03*
X027897Y014741D03*
X028291Y014008D03*
D236*
X007671Y015889D03*
D237*
X009213Y015889D03*
X009366Y016272D03*
X020477Y014314D03*
X020477Y014303D03*
X020510Y014139D03*
X020510Y014128D03*
X021363Y014413D03*
X026699Y015397D03*
X027760Y014971D03*
X027793Y014916D03*
X027804Y014905D03*
X027804Y014894D03*
D238*
X021341Y014303D03*
X007660Y015900D03*
X007583Y016097D03*
X007583Y016108D03*
D239*
X007589Y016086D03*
X007654Y015911D03*
X021346Y013964D03*
D240*
X007649Y015922D03*
X007583Y016064D03*
D241*
X009234Y015922D03*
X020466Y014336D03*
X020521Y014096D03*
X027662Y015135D03*
X027695Y015080D03*
D242*
X021341Y014314D03*
X007638Y015933D03*
X007583Y016075D03*
D243*
X007589Y016053D03*
X007589Y016042D03*
X007600Y016009D03*
X007610Y015988D03*
X007632Y015944D03*
X020406Y015014D03*
X021335Y014325D03*
D244*
X020526Y014074D03*
X020460Y014347D03*
X026672Y016972D03*
X027416Y016972D03*
X027645Y015167D03*
X027645Y015156D03*
X027656Y015145D03*
X027689Y015091D03*
X028291Y013964D03*
X009251Y015944D03*
D245*
X007621Y015955D03*
D246*
X009262Y015955D03*
X009371Y016239D03*
X027624Y015200D03*
X027667Y015124D03*
X027678Y015113D03*
D247*
X007621Y015966D03*
D248*
X007616Y015977D03*
X021352Y013943D03*
D249*
X020400Y014992D03*
X020400Y015003D03*
X007605Y015999D03*
X007594Y016031D03*
D250*
X007600Y016020D03*
D251*
X009300Y016020D03*
D252*
X009306Y016031D03*
X009338Y016097D03*
X009349Y016130D03*
X009349Y016141D03*
X027449Y016961D03*
D253*
X009322Y016064D03*
D254*
X009333Y016086D03*
X009344Y016108D03*
X021210Y015802D03*
X021341Y016666D03*
X021341Y016677D03*
X021341Y016687D03*
X021352Y016698D03*
X021352Y016720D03*
X021352Y016731D03*
X021352Y016742D03*
X021352Y016764D03*
X026623Y015419D03*
X028285Y013932D03*
D255*
X021335Y014292D03*
X007589Y016119D03*
D256*
X007589Y016130D03*
X021335Y014282D03*
X021335Y014271D03*
X021346Y013986D03*
D257*
X021335Y014260D03*
X007600Y016141D03*
D258*
X007753Y016239D03*
X007785Y016173D03*
X007785Y016152D03*
D259*
X007785Y016163D03*
D260*
X009360Y016163D03*
D261*
X007747Y016250D03*
D262*
X009366Y016250D03*
X027727Y015025D03*
D263*
X007742Y016261D03*
D264*
X009371Y016261D03*
D265*
X007725Y016283D03*
X007714Y016294D03*
X020630Y015025D03*
D266*
X007703Y016316D03*
D267*
X007583Y016458D03*
X009169Y016316D03*
X009344Y016611D03*
D268*
X007687Y016327D03*
D269*
X007682Y016338D03*
D270*
X007550Y016502D03*
X007539Y016523D03*
X009180Y016338D03*
X009213Y016392D03*
D271*
X007671Y016348D03*
X007474Y016644D03*
D272*
X009191Y016359D03*
X021002Y015725D03*
D273*
X009344Y016600D03*
X009202Y016381D03*
X009202Y016370D03*
X007528Y016534D03*
D274*
X009218Y016403D03*
X009229Y016425D03*
D275*
X009224Y016414D03*
D276*
X007572Y016469D03*
D277*
X009267Y016480D03*
D278*
X009273Y016491D03*
D279*
X007539Y016512D03*
D280*
X009289Y016512D03*
D281*
X007512Y016556D03*
D282*
X007490Y016611D03*
X027044Y017048D03*
D283*
X027044Y017037D03*
X009360Y016644D03*
D284*
X009371Y016655D03*
D285*
X009371Y016666D03*
X027252Y015266D03*
D286*
X021089Y015441D03*
X021089Y015452D03*
X007441Y016677D03*
D287*
X009404Y016677D03*
D288*
X007479Y016687D03*
X007479Y016698D03*
X007479Y016720D03*
X007479Y016731D03*
X007479Y016742D03*
X007479Y016764D03*
X007479Y016775D03*
X007479Y016786D03*
X007479Y016797D03*
X007479Y016819D03*
X007479Y016830D03*
X007479Y016841D03*
X007479Y016862D03*
D289*
X009327Y016862D03*
X009327Y016841D03*
X009327Y016830D03*
X009327Y016819D03*
X009327Y016797D03*
X009327Y016786D03*
X009327Y016775D03*
X009327Y016764D03*
X009327Y016742D03*
X009327Y016731D03*
X009327Y016720D03*
X009327Y016698D03*
X009327Y016687D03*
D290*
X007479Y016709D03*
X007479Y016753D03*
X007479Y016808D03*
X007479Y016851D03*
D291*
X009327Y016851D03*
X009327Y016808D03*
X009327Y016753D03*
X009327Y016709D03*
D292*
X020444Y014402D03*
X021374Y014456D03*
X021374Y013888D03*
D293*
X021357Y013921D03*
X021346Y014369D03*
X020460Y014828D03*
X027350Y016983D03*
X028094Y014413D03*
X028291Y014041D03*
D294*
X028285Y014085D03*
X028274Y014107D03*
X028263Y014128D03*
X028241Y014161D03*
X028241Y014172D03*
X028231Y014183D03*
X028209Y014216D03*
X028198Y014238D03*
X027432Y015397D03*
X021341Y014347D03*
X021352Y013932D03*
X020444Y014872D03*
X020433Y014894D03*
X020422Y014916D03*
X020411Y014949D03*
D295*
X021352Y013953D03*
D296*
X021346Y013975D03*
D297*
X020548Y013997D03*
X020439Y014489D03*
X021379Y014489D03*
X021904Y016020D03*
D298*
X021341Y013997D03*
D299*
X021341Y014008D03*
X021341Y014019D03*
D300*
X020526Y014052D03*
D301*
X020521Y014063D03*
X027596Y015244D03*
X027607Y015222D03*
D302*
X021335Y014074D03*
X021335Y014063D03*
D303*
X021330Y014085D03*
X021330Y014107D03*
X021330Y014117D03*
X021330Y014128D03*
X021330Y014139D03*
X021330Y014161D03*
X021330Y014172D03*
X021330Y014183D03*
D304*
X021330Y014150D03*
X021330Y014096D03*
D305*
X020499Y014194D03*
X020488Y014249D03*
D306*
X020482Y014260D03*
X020482Y014271D03*
X020482Y014282D03*
X020493Y014205D03*
X027820Y014872D03*
X027831Y014850D03*
X027875Y014774D03*
D307*
X021335Y014249D03*
D308*
X020477Y014292D03*
X020477Y014785D03*
X027782Y014938D03*
X027815Y014883D03*
D309*
X021341Y014336D03*
D310*
X021346Y014358D03*
X020449Y014850D03*
X020449Y014861D03*
X028149Y014325D03*
X028159Y014303D03*
X028181Y014271D03*
X028181Y014260D03*
X028203Y014227D03*
X028280Y014074D03*
D311*
X021352Y014380D03*
X020466Y014817D03*
D312*
X020439Y014424D03*
X020439Y014413D03*
X021379Y014467D03*
D313*
X020439Y014435D03*
D314*
X020433Y014478D03*
X020488Y014741D03*
X021417Y015003D03*
X021909Y016031D03*
X021920Y016042D03*
X021920Y016053D03*
X021920Y016075D03*
X021931Y016086D03*
X021931Y016097D03*
X021931Y016108D03*
X021975Y016206D03*
X021975Y016228D03*
X020203Y015889D03*
X020203Y015878D03*
X027520Y016928D03*
D315*
X028143Y014336D03*
X020455Y014839D03*
D316*
X020433Y014883D03*
X028252Y014150D03*
D317*
X028258Y014139D03*
X027044Y017125D03*
X020428Y014905D03*
X020417Y014927D03*
X020406Y014960D03*
X020406Y014971D03*
D318*
X020406Y014981D03*
X020417Y014938D03*
X028280Y014096D03*
D319*
X020860Y015036D03*
D320*
X020860Y015047D03*
X020958Y015342D03*
D321*
X020953Y015320D03*
X020865Y015058D03*
D322*
X020871Y015069D03*
X020947Y015310D03*
D323*
X020871Y015080D03*
D324*
X020876Y015091D03*
X020876Y015102D03*
X020942Y015288D03*
X020942Y015299D03*
D325*
X020925Y015255D03*
X020925Y015244D03*
X020914Y015222D03*
X020914Y015211D03*
X020914Y015200D03*
X020914Y015189D03*
X020903Y015167D03*
X020903Y015156D03*
X020892Y015145D03*
X020881Y015113D03*
D326*
X020887Y015124D03*
X020931Y015266D03*
D327*
X020925Y015233D03*
X020903Y015178D03*
X020892Y015135D03*
D328*
X020931Y015277D03*
D329*
X020953Y015331D03*
D330*
X020963Y015353D03*
X020963Y015364D03*
X020974Y015386D03*
X020974Y015397D03*
D331*
X020969Y015375D03*
D332*
X020969Y015408D03*
D333*
X021084Y015419D03*
D334*
X020296Y015430D03*
X026202Y016512D03*
X027875Y015824D03*
D335*
X021089Y015430D03*
D336*
X021095Y015463D03*
X021095Y015484D03*
X021095Y015495D03*
X021095Y015506D03*
X021095Y015517D03*
X021095Y015539D03*
X021095Y015550D03*
D337*
X021095Y015528D03*
X021095Y015474D03*
D338*
X021100Y015561D03*
X021100Y015583D03*
X021100Y015594D03*
X027093Y015386D03*
D339*
X021100Y015572D03*
D340*
X021106Y015605D03*
X021106Y015616D03*
X027121Y015364D03*
D341*
X027110Y015375D03*
X021106Y015627D03*
D342*
X021111Y015638D03*
D343*
X021111Y015659D03*
D344*
X021013Y015670D03*
D345*
X020209Y015725D03*
X020209Y015769D03*
X026607Y016950D03*
X027471Y016950D03*
D346*
X021751Y015725D03*
D347*
X021007Y015769D03*
D348*
X021013Y015780D03*
D349*
X021204Y015791D03*
D350*
X020203Y015824D03*
X020706Y016512D03*
X020706Y016556D03*
X020706Y016611D03*
X021330Y016611D03*
X021352Y016808D03*
X026601Y015430D03*
D351*
X028274Y013899D03*
X021975Y016217D03*
X021920Y016064D03*
X021220Y015824D03*
X021330Y016556D03*
D352*
X021959Y016163D03*
X020209Y015867D03*
D353*
X020756Y015867D03*
D354*
X021822Y015878D03*
X022019Y016338D03*
X027673Y016819D03*
D355*
X020679Y016020D03*
D356*
X020712Y016458D03*
X021357Y016851D03*
D357*
X028050Y014489D03*
X028291Y014052D03*
D358*
X028269Y014117D03*
D359*
X028225Y014194D03*
D360*
X028220Y014205D03*
D361*
X028192Y014249D03*
D362*
X028170Y014282D03*
X028127Y014358D03*
D363*
X028110Y014391D03*
X028165Y014292D03*
D364*
X028132Y014347D03*
X028121Y014369D03*
X028110Y014380D03*
X026732Y016983D03*
D365*
X027902Y014730D03*
D366*
X027875Y014785D03*
D367*
X027755Y014981D03*
X027722Y015036D03*
D368*
X027039Y015233D03*
D369*
X027607Y015233D03*
D370*
X027235Y015277D03*
D371*
X027186Y015310D03*
D372*
X027159Y015331D03*
D373*
X027142Y015342D03*
X027131Y015353D03*
D374*
X027044Y016994D03*
D375*
X027044Y017005D03*
D376*
X027039Y017026D03*
D377*
X027044Y017081D03*
D378*
X027044Y017103D03*
D379*
X027044Y017114D03*
D380*
X023960Y003625D03*
X023566Y003625D03*
X023173Y003625D03*
X022779Y003625D03*
X022385Y003625D03*
X021991Y003625D03*
X021598Y003625D03*
X021204Y003625D03*
X020810Y003625D03*
X020417Y003625D03*
X020023Y003625D03*
X019629Y003625D03*
X019236Y003625D03*
X018842Y003625D03*
X018448Y003625D03*
X018054Y003625D03*
X017661Y003625D03*
X017267Y003625D03*
X016873Y003625D03*
X016480Y003625D03*
X016086Y003625D03*
X015692Y003625D03*
X015299Y003625D03*
X014905Y003625D03*
X014511Y003625D03*
X014117Y003625D03*
X013724Y003625D03*
X013330Y003625D03*
X012936Y003625D03*
X012543Y003625D03*
X012149Y003625D03*
X011755Y003625D03*
X011755Y002169D03*
X012149Y002169D03*
X012543Y002169D03*
X012936Y002169D03*
X013330Y002169D03*
X013724Y002169D03*
X014117Y002169D03*
X014511Y002169D03*
X014905Y002169D03*
X015299Y002169D03*
X015692Y002169D03*
X016086Y002169D03*
X016480Y002169D03*
X016873Y002169D03*
X017267Y002169D03*
X017661Y002169D03*
X018054Y002169D03*
X018448Y002169D03*
X018842Y002169D03*
X019236Y002169D03*
X019629Y002169D03*
X020023Y002169D03*
X020417Y002169D03*
X020810Y002169D03*
X021204Y002169D03*
X021598Y002169D03*
X021991Y002169D03*
X022385Y002169D03*
X022779Y002169D03*
X023173Y002169D03*
X023566Y002169D03*
X023960Y002169D03*
D381*
X033066Y006484D03*
X034066Y006484D03*
X034066Y007484D03*
X033066Y007484D03*
X033066Y008484D03*
X034066Y008484D03*
X034066Y009484D03*
X033066Y009484D03*
X033066Y010484D03*
X034066Y010484D03*
X034066Y011484D03*
X033066Y011484D03*
X033066Y012484D03*
X034066Y012484D03*
X034066Y013484D03*
X033066Y013484D03*
X030413Y019326D03*
X029413Y019326D03*
X028413Y019326D03*
X027413Y019326D03*
X026413Y019326D03*
X025413Y019326D03*
X024413Y019326D03*
X023413Y019326D03*
X023413Y020326D03*
X024413Y020326D03*
X025413Y020326D03*
X026413Y020326D03*
X027413Y020326D03*
X028413Y020326D03*
X029413Y020326D03*
X030413Y020326D03*
X019858Y020318D03*
X018858Y020318D03*
X017858Y020318D03*
X016858Y020318D03*
X015858Y020318D03*
X015858Y019318D03*
X016858Y019318D03*
X017858Y019318D03*
X018858Y019318D03*
X019858Y019318D03*
X012696Y019326D03*
X011696Y019326D03*
X010696Y019326D03*
X009696Y019326D03*
X008696Y019326D03*
X007696Y019326D03*
X006696Y019326D03*
X005696Y019326D03*
X005696Y020326D03*
X006696Y020326D03*
X007696Y020326D03*
X008696Y020326D03*
X009696Y020326D03*
X010696Y020326D03*
X011696Y020326D03*
X012696Y020326D03*
X002649Y013484D03*
X001649Y013484D03*
X001649Y012484D03*
X002649Y012484D03*
X002649Y011484D03*
X001649Y011484D03*
X001649Y010484D03*
X002649Y010484D03*
X002649Y009484D03*
X001649Y009484D03*
X001649Y008484D03*
X002649Y008484D03*
X002649Y007484D03*
X001649Y007484D03*
X001649Y006484D03*
X002649Y006484D03*
D382*
X005279Y009196D03*
X006027Y009196D03*
D383*
X002110Y004669D03*
X005259Y004078D03*
X007621Y004078D03*
X007621Y001716D03*
X005259Y001716D03*
X004866Y015102D03*
X002110Y015102D03*
X002110Y020614D03*
X028094Y004078D03*
X030456Y004078D03*
X033606Y004669D03*
X030456Y001716D03*
X028094Y001716D03*
X033606Y020614D03*
D384*
X026519Y012326D03*
X026519Y011578D03*
X026519Y009964D03*
X026519Y009216D03*
X024944Y009216D03*
X024944Y009964D03*
X022582Y009964D03*
X022582Y009216D03*
X021007Y009216D03*
X021007Y009964D03*
X018645Y009964D03*
X018645Y009216D03*
X017070Y009216D03*
X017070Y009964D03*
X014708Y009964D03*
X014708Y009216D03*
X013133Y009216D03*
X013133Y009964D03*
X010771Y009964D03*
X010771Y009216D03*
X009196Y009216D03*
X009196Y009964D03*
X010771Y011578D03*
X010771Y012326D03*
X014708Y012326D03*
X014708Y011578D03*
X018645Y011578D03*
X018645Y012326D03*
X022582Y012326D03*
X022582Y011578D03*
X026913Y006814D03*
X026913Y006066D03*
X023173Y006421D03*
X023173Y005673D03*
X017070Y005673D03*
X017070Y006421D03*
X013133Y007247D03*
X013133Y007995D03*
D385*
X013133Y012208D03*
X009196Y012208D03*
X017070Y012208D03*
X021007Y012208D03*
X024944Y012208D03*
D386*
X024551Y010929D03*
X025338Y010929D03*
X021401Y010929D03*
X020614Y010929D03*
X017464Y010929D03*
X016677Y010929D03*
X013527Y010929D03*
X012740Y010929D03*
X009590Y010929D03*
X008803Y010929D03*
D387*
X008015Y012228D03*
X017070Y012936D03*
X020515Y012838D03*
X027306Y012228D03*
X017858Y018251D03*
X017267Y017858D03*
X017267Y017267D03*
X008803Y004866D03*
X008015Y004866D03*
X008803Y003291D03*
X009590Y003291D03*
X008015Y002503D03*
X008803Y001716D03*
X009590Y001716D03*
X011755Y001322D03*
X012149Y001322D03*
X012543Y001322D03*
X012936Y001322D03*
X013330Y001322D03*
X013724Y001322D03*
X014117Y001322D03*
X014511Y001322D03*
X014905Y001322D03*
X015299Y001322D03*
X015692Y001322D03*
X016086Y001322D03*
X016480Y001322D03*
X016873Y001322D03*
X017267Y001322D03*
X017661Y001322D03*
X018054Y001322D03*
X018448Y001322D03*
X018842Y001322D03*
X019236Y001322D03*
X019629Y001322D03*
X020023Y001322D03*
X020417Y001322D03*
X020810Y001322D03*
X021204Y001322D03*
X021598Y001322D03*
X021991Y001322D03*
X022385Y001322D03*
X022779Y001322D03*
X023173Y001322D03*
X023566Y001322D03*
X023960Y001322D03*
X026125Y001716D03*
X026913Y001716D03*
X027700Y003291D03*
X026125Y003291D03*
X023960Y004472D03*
X023566Y004472D03*
X023173Y004472D03*
X022779Y004472D03*
X022385Y004472D03*
X021991Y004472D03*
X021598Y004472D03*
X021204Y004472D03*
X020810Y004472D03*
X020417Y004472D03*
X020023Y004472D03*
X019629Y004472D03*
X019236Y004472D03*
X018842Y004472D03*
X018448Y004472D03*
X018054Y004472D03*
X017661Y004472D03*
X017267Y004472D03*
X016873Y004472D03*
X016480Y004472D03*
X016086Y004472D03*
X015692Y004472D03*
X015299Y004472D03*
X014905Y004472D03*
X014511Y004472D03*
X014117Y004472D03*
X013724Y004472D03*
X013330Y004472D03*
X012936Y004472D03*
X012543Y004472D03*
X012149Y004472D03*
X011755Y004472D03*
X026125Y004866D03*
X026913Y004866D03*
X027700Y004866D03*
D388*
X025436Y007129D03*
X011736Y006854D03*
X005653Y007976D03*
M02*
