%
M48
M72
T01C0.0118
T02C0.0236
T03C0.0400
T04C0.0551
T05C0.0630
T06C0.1299
%
T01
X8015Y2503
X8803Y1716
X9590Y1716
X11755Y1322
X12149Y1322
X12543Y1322
X12936Y1322
X13330Y1322
X13724Y1322
X14117Y1322
X14511Y1322
X14905Y1322
X15299Y1322
X15692Y1322
X16086Y1322
X16480Y1322
X16873Y1322
X17267Y1322
X17661Y1322
X18054Y1322
X18448Y1322
X18842Y1322
X19236Y1322
X19629Y1322
X20023Y1322
X20417Y1322
X20810Y1322
X21204Y1322
X21598Y1322
X21991Y1322
X22385Y1322
X22779Y1322
X23173Y1322
X23566Y1322
X23960Y1322
X26125Y1716
X26913Y1716
X27700Y3291
X26125Y3291
X23960Y4472
X23566Y4472
X23173Y4472
X22779Y4472
X22385Y4472
X21991Y4472
X21598Y4472
X21204Y4472
X20810Y4472
X20417Y4472
X20023Y4472
X19629Y4472
X19236Y4472
X18842Y4472
X18448Y4472
X18054Y4472
X17661Y4472
X17267Y4472
X16873Y4472
X16480Y4472
X16086Y4472
X15692Y4472
X15299Y4472
X14905Y4472
X14511Y4472
X14117Y4472
X13724Y4472
X13330Y4472
X12936Y4472
X12543Y4472
X12149Y4472
X11755Y4472
X9590Y3291
X8803Y3291
X8803Y4866
X8015Y4866
X8015Y12228
X17070Y13133
X20515Y12838
X27306Y12228
X17858Y18251
X17267Y17858
X17267Y17267
X26125Y4866
X26913Y4866
X27700Y4866
T02
X25436Y7129
X11736Y6854
X5653Y7976
T03
X2649Y7484
X1649Y7484
X1649Y8484
X2649Y8484
X2649Y9484
X1649Y9484
X1649Y10484
X2649Y10484
X2649Y11484
X1649Y11484
X1649Y12484
X2649Y12484
X2649Y13484
X1649Y13484
X5696Y19326
X6696Y19326
X7696Y19326
X8696Y19326
X9696Y19326
X10696Y19326
X11696Y19326
X12696Y19326
X12696Y20326
X11696Y20326
X10696Y20326
X9696Y20326
X8696Y20326
X7696Y20326
X6696Y20326
X5696Y20326
X15858Y20318
X16858Y20318
X17858Y20318
X18858Y20318
X19858Y20318
X19858Y19318
X18858Y19318
X17858Y19318
X16858Y19318
X15858Y19318
X23413Y19326
X24413Y19326
X25413Y19326
X26413Y19326
X27413Y19326
X28413Y19326
X29413Y19326
X30413Y19326
X30413Y20326
X29413Y20326
X28413Y20326
X27413Y20326
X26413Y20326
X25413Y20326
X24413Y20326
X23413Y20326
X33066Y13484
X34066Y13484
X34066Y12484
X33066Y12484
X33066Y11484
X34066Y11484
X34066Y10484
X33066Y10484
X33066Y9484
X34066Y9484
X34066Y8484
X33066Y8484
X33066Y7484
X34066Y7484
X34066Y6484
X33066Y6484
X2649Y6484
X1649Y6484
T04
X11086Y2897
X11086Y2897
X24629Y2897
X24629Y2897
T05
X28094Y1716
X30456Y1716
X30456Y4078
X28094Y4078
X33606Y4669
X33606Y20614
X7621Y4078
X5259Y4078
X2110Y4669
X5259Y1716
X7621Y1716
X4866Y15102
X2110Y15102
X2110Y20614
T06
X2110Y2110
X2110Y17858
X33606Y17858
X33606Y2110
M30
