G75*
G70*
%OFA0B0*%
%FSLAX24Y24*%
%IPPOS*%
%LPD*%
%AMOC8*
5,1,8,0,0,1.08239X$1,22.5*
%
%ADD10C,0.0060*%
%ADD11C,0.0040*%
%ADD12C,0.0080*%
%ADD13R,0.0560X0.0160*%
%ADD14R,0.0160X0.0560*%
D10*
X011594Y013163D02*
X011594Y013590D01*
X011807Y013804D01*
X012021Y013590D01*
X012021Y013163D01*
X012021Y013483D02*
X011594Y013483D01*
X012667Y013590D02*
X012880Y013163D01*
X013094Y013590D01*
X013311Y013483D02*
X013311Y013377D01*
X013738Y013377D01*
X013738Y013483D02*
X013631Y013590D01*
X013418Y013590D01*
X013311Y013483D01*
X013418Y013163D02*
X013631Y013163D01*
X013738Y013270D01*
X013738Y013483D01*
X013956Y013483D02*
X013956Y013697D01*
X014063Y013804D01*
X014383Y013804D01*
X014383Y013163D01*
X014383Y013377D02*
X014063Y013377D01*
X013956Y013483D01*
X014169Y013377D02*
X013956Y013163D01*
X015858Y013163D02*
X016178Y013163D01*
X016285Y013270D01*
X016285Y013483D01*
X016178Y013590D01*
X015858Y013590D01*
X015858Y013804D02*
X015858Y013163D01*
X016502Y013590D02*
X016609Y013590D01*
X016822Y013377D01*
X016822Y013590D02*
X016822Y013163D01*
X017040Y013163D02*
X017360Y013163D01*
X017467Y013270D01*
X017360Y013377D01*
X017040Y013377D01*
X017040Y013483D02*
X017040Y013163D01*
X017040Y013483D02*
X017147Y013590D01*
X017360Y013590D01*
X017684Y013483D02*
X017791Y013590D01*
X018005Y013590D01*
X018111Y013483D01*
X018111Y013270D01*
X018005Y013163D01*
X017791Y013163D01*
X017684Y013270D01*
X017684Y013483D01*
X018329Y013377D02*
X018329Y013270D01*
X018436Y013163D01*
X018756Y013163D01*
X018756Y013804D01*
X018436Y013804D01*
X018329Y013697D01*
X018329Y013590D01*
X018436Y013483D01*
X018756Y013483D01*
X018436Y013483D02*
X018329Y013377D01*
X019617Y013590D02*
X019830Y013590D01*
X019723Y013697D02*
X019723Y013270D01*
X019617Y013163D01*
X020048Y013163D02*
X020048Y013590D01*
X020475Y013590D02*
X020475Y013270D01*
X020368Y013163D01*
X020048Y013163D01*
X020692Y013270D02*
X020692Y013483D01*
X020799Y013590D01*
X021012Y013590D01*
X021119Y013483D01*
X021119Y013270D01*
X021012Y013163D01*
X020799Y013163D01*
X020692Y013270D01*
X021336Y013163D02*
X021656Y013377D01*
X021336Y013590D01*
X021656Y013804D02*
X021656Y013163D01*
X021874Y013163D02*
X021874Y013483D01*
X021980Y013590D01*
X022194Y013590D01*
X022194Y013377D02*
X021874Y013377D01*
X021874Y013163D02*
X022194Y013163D01*
X022301Y013270D01*
X022194Y013377D01*
X022518Y013377D02*
X022945Y013377D01*
X022945Y013483D02*
X022839Y013590D01*
X022625Y013590D01*
X022518Y013483D01*
X022518Y013377D01*
X022625Y013163D02*
X022839Y013163D01*
X022945Y013270D01*
X022945Y013483D01*
X023162Y013590D02*
X023269Y013590D01*
X023482Y013377D01*
X023482Y013590D02*
X023482Y013163D01*
X023700Y013270D02*
X023700Y013377D01*
X023807Y013483D01*
X024127Y013483D01*
X024127Y013163D02*
X023807Y013163D01*
X023700Y013270D01*
X023807Y013483D02*
X023700Y013590D01*
X023700Y013697D01*
X023807Y013804D01*
X024127Y013804D01*
X024127Y013163D01*
D11*
X022704Y011547D02*
X022781Y011470D01*
X022781Y011086D01*
X022857Y011316D02*
X022704Y011316D01*
X022550Y011316D02*
X022550Y011163D01*
X022474Y011086D01*
X022320Y011086D01*
X022244Y011163D01*
X022244Y011316D01*
X022320Y011393D01*
X022474Y011393D01*
X022550Y011316D01*
X022090Y011240D02*
X021937Y011393D01*
X021860Y011393D01*
X022090Y011393D02*
X022090Y011086D01*
X021770Y010562D02*
X022077Y010102D01*
X022230Y010102D02*
X022307Y010102D01*
X022307Y010179D01*
X022230Y010179D01*
X022230Y010102D01*
X022230Y010332D02*
X022307Y010332D01*
X022307Y010409D01*
X022230Y010409D01*
X022230Y010332D01*
X022461Y010332D02*
X022461Y010179D01*
X022537Y010102D01*
X022767Y010102D01*
X022767Y009949D02*
X022767Y010409D01*
X022537Y010409D01*
X022461Y010332D01*
X022921Y010409D02*
X023074Y010409D01*
X022998Y010486D02*
X022998Y010179D01*
X022921Y010102D01*
X023228Y010102D02*
X023305Y010179D01*
X023305Y010486D01*
X023381Y010409D02*
X023228Y010409D01*
X023535Y010332D02*
X023535Y010102D01*
X023535Y010332D02*
X023611Y010409D01*
X023765Y010409D01*
X023842Y010332D01*
X023842Y010562D02*
X023842Y010102D01*
X021617Y010102D02*
X021310Y010562D01*
X021156Y010409D02*
X021080Y010409D01*
X021003Y010332D01*
X020926Y010409D01*
X020849Y010332D01*
X020849Y010102D01*
X021003Y010102D02*
X021003Y010332D01*
X021156Y010409D02*
X021156Y010102D01*
X020696Y010179D02*
X020619Y010255D01*
X020389Y010255D01*
X020389Y010332D02*
X020389Y010102D01*
X020619Y010102D01*
X020696Y010179D01*
X020619Y010409D02*
X020466Y010409D01*
X020389Y010332D01*
X020236Y010255D02*
X020082Y010409D01*
X020005Y010409D01*
X019852Y010409D02*
X019852Y010102D01*
X019698Y010102D02*
X019698Y010332D01*
X019622Y010409D01*
X019545Y010332D01*
X019545Y010102D01*
X019392Y010179D02*
X019315Y010102D01*
X019161Y010102D01*
X019085Y010179D01*
X019085Y010332D01*
X019161Y010409D01*
X019315Y010409D01*
X019392Y010332D01*
X019392Y010179D01*
X019698Y010332D02*
X019775Y010409D01*
X019852Y010409D01*
X020236Y010409D02*
X020236Y010102D01*
X018931Y010409D02*
X018778Y010409D01*
X018854Y010486D02*
X018854Y010179D01*
X018778Y010102D01*
X018624Y010179D02*
X018624Y010332D01*
X018548Y010409D01*
X018394Y010409D01*
X018317Y010332D01*
X018317Y010255D01*
X018624Y010255D01*
X018624Y010179D02*
X018548Y010102D01*
X018394Y010102D01*
X018164Y010102D02*
X018087Y010102D01*
X018087Y010179D01*
X018164Y010179D01*
X018164Y010102D01*
X017934Y010179D02*
X017857Y010102D01*
X017627Y010102D01*
X017627Y010025D02*
X017627Y010409D01*
X017857Y010409D01*
X017934Y010332D01*
X017934Y010179D01*
X017780Y009949D02*
X017704Y009949D01*
X017627Y010025D01*
X017473Y010179D02*
X017397Y010102D01*
X017243Y010102D01*
X017167Y010179D01*
X017167Y010332D01*
X017243Y010409D01*
X017397Y010409D01*
X017473Y010332D01*
X017473Y010179D01*
X017013Y010179D02*
X017013Y010332D01*
X016936Y010409D01*
X016783Y010409D01*
X016706Y010332D01*
X016706Y010179D01*
X016783Y010102D01*
X016936Y010102D01*
X017013Y010179D01*
X016553Y010179D02*
X016553Y010332D01*
X016476Y010409D01*
X016246Y010409D01*
X016246Y010025D01*
X016323Y009949D01*
X016399Y009949D01*
X016476Y010102D02*
X016246Y010102D01*
X016092Y010102D02*
X015939Y010102D01*
X016016Y010102D02*
X016016Y010562D01*
X016092Y010562D01*
X016106Y010933D02*
X016106Y011393D01*
X015875Y011393D01*
X015799Y011316D01*
X015799Y011163D01*
X015875Y011086D01*
X016106Y011086D01*
X016719Y011240D02*
X017026Y011240D01*
X017026Y011316D02*
X016950Y011393D01*
X016796Y011393D01*
X016719Y011316D01*
X016719Y011240D01*
X016796Y011086D02*
X016950Y011086D01*
X017026Y011163D01*
X017026Y011316D01*
X017180Y011393D02*
X017333Y011393D01*
X017256Y011470D02*
X017256Y011163D01*
X017180Y011086D01*
X017487Y011163D02*
X017487Y011316D01*
X017563Y011393D01*
X017717Y011393D01*
X017793Y011316D01*
X017793Y011163D01*
X017717Y011086D01*
X017563Y011086D01*
X017487Y011163D01*
X017947Y011086D02*
X017947Y011316D01*
X018024Y011393D01*
X018100Y011316D01*
X018100Y011086D01*
X018254Y011086D02*
X018254Y011393D01*
X018177Y011393D01*
X018100Y011316D01*
X018407Y011393D02*
X018484Y011393D01*
X018637Y011240D01*
X018637Y011393D02*
X018637Y011086D01*
X018791Y011086D02*
X019021Y011086D01*
X019098Y011163D01*
X019021Y011240D01*
X018791Y011240D01*
X018791Y011316D02*
X018791Y011086D01*
X018791Y011316D02*
X018868Y011393D01*
X019021Y011393D01*
X019251Y011547D02*
X019251Y011086D01*
X019558Y011086D02*
X019558Y011547D01*
X019405Y011393D01*
X019251Y011547D01*
X019349Y011972D02*
X019502Y011972D01*
X019579Y012049D01*
X019579Y012202D01*
X019502Y012279D01*
X019349Y012279D01*
X019272Y012202D01*
X019272Y012126D01*
X019579Y012126D01*
X019732Y012202D02*
X019732Y012049D01*
X019809Y011972D01*
X020039Y011972D01*
X020039Y011819D02*
X020039Y012279D01*
X019809Y012279D01*
X019732Y012202D01*
X020193Y012279D02*
X020423Y012279D01*
X020500Y012202D01*
X020423Y012126D01*
X020269Y012126D01*
X020193Y012049D01*
X020269Y011972D01*
X020500Y011972D01*
X020653Y011972D02*
X020653Y012202D01*
X020730Y012279D01*
X020960Y012279D01*
X020960Y011972D01*
X021113Y011972D02*
X021267Y011972D01*
X021190Y011972D02*
X021190Y012432D01*
X021267Y012432D02*
X021113Y012432D01*
X020939Y011547D02*
X020939Y011086D01*
X021093Y011086D02*
X021169Y011163D01*
X021169Y011470D01*
X021246Y011393D02*
X021093Y011393D01*
X020939Y011316D02*
X020863Y011393D01*
X020709Y011393D01*
X020632Y011316D01*
X020632Y011086D01*
X020479Y011163D02*
X020479Y011316D01*
X020402Y011393D01*
X020249Y011393D01*
X020172Y011316D01*
X020172Y011240D01*
X020479Y011240D01*
X020479Y011163D02*
X020402Y011086D01*
X020249Y011086D01*
X019118Y012049D02*
X019042Y011972D01*
X018812Y011972D01*
X018581Y012049D02*
X018505Y011972D01*
X018581Y012049D02*
X018581Y012356D01*
X018658Y012279D02*
X018505Y012279D01*
X018351Y012279D02*
X018275Y012279D01*
X018275Y011972D01*
X018351Y011972D02*
X018198Y011972D01*
X018044Y012049D02*
X017968Y011972D01*
X017814Y011972D01*
X017737Y012049D01*
X017737Y012202D01*
X017814Y012279D01*
X017968Y012279D01*
X018044Y012202D01*
X018044Y012049D01*
X017584Y011972D02*
X017584Y012279D01*
X017354Y012279D01*
X017277Y012202D01*
X017277Y011972D01*
X016663Y011972D02*
X016663Y012279D01*
X016587Y012279D01*
X016510Y012202D01*
X016433Y012279D01*
X016356Y012202D01*
X016356Y011972D01*
X016510Y011972D02*
X016510Y012202D01*
X016203Y012202D02*
X016203Y012049D01*
X016126Y011972D01*
X015973Y011972D01*
X015896Y012049D01*
X015896Y012202D01*
X015973Y012279D01*
X016126Y012279D01*
X016203Y012202D01*
X015743Y012202D02*
X015743Y012049D01*
X015666Y011972D01*
X015436Y011972D01*
X015436Y012432D01*
X015436Y012279D02*
X015666Y012279D01*
X015743Y012202D01*
X015282Y012279D02*
X015282Y012049D01*
X015206Y011972D01*
X014975Y011972D01*
X014975Y012279D01*
X014822Y012432D02*
X014745Y012432D01*
X014745Y011972D01*
X014822Y011972D02*
X014668Y011972D01*
X014515Y012049D02*
X014515Y012202D01*
X014438Y012279D01*
X014285Y012279D01*
X014208Y012202D01*
X014208Y012126D01*
X014515Y012126D01*
X014515Y012049D02*
X014438Y011972D01*
X014285Y011972D01*
X014418Y011547D02*
X014494Y011470D01*
X014494Y011086D01*
X014724Y011086D02*
X014801Y011163D01*
X014801Y011470D01*
X014878Y011393D02*
X014724Y011393D01*
X014571Y011316D02*
X014418Y011316D01*
X014264Y011316D02*
X014264Y011163D01*
X014187Y011086D01*
X014034Y011086D01*
X013957Y011163D01*
X013957Y011316D01*
X014034Y011393D01*
X014187Y011393D01*
X014264Y011316D01*
X013804Y011240D02*
X013650Y011393D01*
X013574Y011393D01*
X013420Y011393D02*
X013420Y011086D01*
X013267Y011086D02*
X013267Y011316D01*
X013190Y011393D01*
X013113Y011316D01*
X013113Y011086D01*
X013267Y011316D02*
X013343Y011393D01*
X013420Y011393D01*
X013804Y011393D02*
X013804Y011086D01*
X014098Y010562D02*
X014098Y010102D01*
X014328Y010102D01*
X014404Y010179D01*
X014404Y010332D01*
X014328Y010409D01*
X014098Y010409D01*
X013944Y010332D02*
X013867Y010409D01*
X013714Y010409D01*
X013637Y010332D01*
X013637Y010255D01*
X013944Y010255D01*
X013944Y010179D02*
X013944Y010332D01*
X013944Y010179D02*
X013867Y010102D01*
X013714Y010102D01*
X013484Y010102D02*
X013407Y010102D01*
X013407Y010179D01*
X013484Y010179D01*
X013484Y010102D01*
X013254Y010179D02*
X013177Y010102D01*
X012947Y010102D01*
X012793Y010179D02*
X012793Y010332D01*
X012716Y010409D01*
X012563Y010409D01*
X012486Y010332D01*
X012486Y010179D01*
X012563Y010102D01*
X012716Y010102D01*
X012793Y010179D01*
X012947Y010409D02*
X013177Y010409D01*
X013254Y010332D01*
X013254Y010179D01*
X012333Y010102D02*
X012333Y010409D01*
X012256Y010409D01*
X012179Y010332D01*
X012103Y010409D01*
X012026Y010332D01*
X012026Y010102D01*
X012179Y010102D02*
X012179Y010332D01*
X014558Y010332D02*
X014558Y010179D01*
X014635Y010102D01*
X014788Y010102D01*
X014865Y010179D01*
X014865Y010332D01*
X014788Y010409D01*
X014635Y010409D01*
X014558Y010332D01*
X015018Y010409D02*
X015248Y010409D01*
X015325Y010332D01*
X015325Y010179D01*
X015248Y010102D01*
X015018Y010102D01*
X015479Y010255D02*
X015479Y010332D01*
X015555Y010409D01*
X015709Y010409D01*
X015785Y010332D01*
X015785Y010179D01*
X015709Y010102D01*
X015555Y010102D01*
X015479Y010255D02*
X015785Y010255D01*
X016476Y010102D02*
X016553Y010179D01*
X015645Y011086D02*
X015492Y011086D01*
X015568Y011086D02*
X015568Y011547D01*
X015645Y011547D01*
X015262Y011393D02*
X015108Y011393D01*
X015031Y011316D01*
X015031Y011086D01*
X015262Y011086D01*
X015338Y011163D01*
X015262Y011240D01*
X015031Y011240D01*
X018275Y012432D02*
X018275Y012509D01*
X018812Y012279D02*
X019042Y012279D01*
X019118Y012202D01*
X019118Y012049D01*
X025253Y003838D02*
X025483Y003608D01*
X025176Y003608D01*
X025253Y003378D02*
X025253Y003838D01*
X025637Y003838D02*
X025790Y003761D01*
X025943Y003608D01*
X025713Y003608D01*
X025637Y003531D01*
X025637Y003454D01*
X025713Y003378D01*
X025867Y003378D01*
X025943Y003454D01*
X025943Y003608D01*
X025637Y002310D02*
X025790Y002234D01*
X025943Y002080D01*
X025713Y002080D01*
X025637Y002004D01*
X025637Y001927D01*
X025713Y001850D01*
X025867Y001850D01*
X025943Y001927D01*
X025943Y002080D01*
X025483Y001927D02*
X025406Y001850D01*
X025253Y001850D01*
X025176Y001927D01*
X025176Y002004D01*
X025253Y002080D01*
X025330Y002080D01*
X025253Y002080D02*
X025176Y002157D01*
X025176Y002234D01*
X025253Y002310D01*
X025406Y002310D01*
X025483Y002234D01*
X010621Y002208D02*
X010467Y002362D01*
X010467Y001901D01*
X010314Y001901D02*
X010621Y001901D01*
X010621Y003425D02*
X010314Y003425D01*
X010621Y003425D02*
X010314Y003732D01*
X010314Y003809D01*
X010391Y003885D01*
X010544Y003885D01*
X010621Y003809D01*
D12*
X010842Y004047D02*
X011180Y004047D01*
X011180Y003881D01*
X010842Y004047D02*
X010842Y001747D01*
X011173Y001747D01*
X011173Y001913D01*
X011314Y002189D02*
X011282Y002193D01*
X011251Y002200D01*
X011221Y002211D01*
X011192Y002226D01*
X011164Y002243D01*
X011139Y002264D01*
X011117Y002287D01*
X011097Y002312D01*
X011080Y002340D01*
X011067Y002369D01*
X011056Y002400D01*
X011049Y002431D01*
X011046Y002463D01*
X011047Y002496D01*
X011047Y002495D02*
X011047Y003283D01*
X011047Y003291D02*
X011049Y003324D01*
X011055Y003357D01*
X011064Y003389D01*
X011076Y003420D01*
X011092Y003450D01*
X011110Y003478D01*
X011132Y003503D01*
X011155Y003527D01*
X011182Y003547D01*
X011210Y003565D01*
X011240Y003580D01*
X011271Y003592D01*
X011304Y003600D01*
X011337Y003605D01*
X011370Y003606D01*
X010771Y009590D02*
X010771Y014314D01*
X024944Y014314D01*
X024944Y009590D01*
X010771Y009590D01*
X024543Y004047D02*
X024543Y003881D01*
X024543Y004047D02*
X024889Y004047D01*
X024889Y001747D01*
X024535Y001747D01*
X024535Y001913D01*
X024669Y002511D02*
X024669Y003299D01*
X024668Y003298D02*
X024669Y003331D01*
X024666Y003363D01*
X024659Y003394D01*
X024648Y003425D01*
X024635Y003454D01*
X024618Y003482D01*
X024598Y003507D01*
X024576Y003530D01*
X024551Y003551D01*
X024523Y003568D01*
X024494Y003583D01*
X024464Y003594D01*
X024433Y003601D01*
X024401Y003605D01*
X024669Y002503D02*
X024667Y002470D01*
X024661Y002437D01*
X024652Y002405D01*
X024640Y002374D01*
X024624Y002344D01*
X024606Y002316D01*
X024584Y002291D01*
X024561Y002267D01*
X024534Y002247D01*
X024506Y002229D01*
X024476Y002214D01*
X024445Y002202D01*
X024412Y002194D01*
X024379Y002189D01*
X024346Y002188D01*
D13*
X020614Y016283D03*
X017858Y016283D03*
X016283Y016283D03*
X014708Y016283D03*
X013133Y016283D03*
D14*
X009196Y002503D03*
X009196Y004078D03*
X026519Y004078D03*
X026519Y002503D03*
M02*
