G75*
G70*
%OFA0B0*%
%FSLAX24Y24*%
%IPPOS*%
%LPD*%
%AMOC8*
5,1,8,0,0,1.08239X$1,22.5*
%
%ADD10R,0.0512X0.0217*%
%ADD11R,0.0079X0.0394*%
%ADD12R,0.0394X0.0079*%
%ADD13R,0.0433X0.0394*%
%ADD14R,0.0394X0.0433*%
%ADD15R,0.0591X0.0591*%
%ADD16R,0.0354X0.0354*%
%ADD17R,0.0748X0.0433*%
%ADD18R,0.0472X0.0394*%
%ADD19R,0.0157X0.0531*%
%ADD20R,0.0630X0.0748*%
%ADD21R,0.0827X0.0787*%
%ADD22R,0.0472X0.0748*%
%ADD23R,0.0276X0.0472*%
%ADD24R,0.0394X0.0472*%
%ADD25R,0.0394X0.0315*%
%ADD26R,0.0394X0.1102*%
%ADD27R,0.0512X0.0748*%
%ADD28R,0.0276X0.0098*%
%ADD29R,0.0197X0.0472*%
%ADD30R,0.0098X0.0276*%
%ADD31R,0.1181X0.0551*%
%ADD32R,0.0394X0.0217*%
%ADD33R,0.0091X0.0193*%
%ADD34R,0.0102X0.0091*%
%ADD35R,0.0217X0.0394*%
%ADD36R,0.0400X0.0500*%
%ADD37R,0.0236X0.0472*%
%ADD38R,0.1000X0.0300*%
%ADD39R,0.0630X0.1535*%
%ADD40R,0.0236X0.0906*%
%ADD41R,0.0709X0.0295*%
%ADD42R,0.0709X0.0236*%
%ADD43R,0.0354X0.0512*%
%ADD44R,0.0630X0.0394*%
D10*
X013741Y004943D03*
X013741Y005691D03*
X014725Y005691D03*
X014725Y005317D03*
X014725Y004943D03*
X014725Y006951D03*
X014725Y007325D03*
X014725Y007699D03*
X013741Y007699D03*
X013741Y006951D03*
X014489Y011794D03*
X014489Y012168D03*
X014489Y012542D03*
X015473Y012542D03*
X015473Y011794D03*
X021891Y007699D03*
X021891Y007325D03*
X021891Y006951D03*
X022875Y006951D03*
X022875Y007699D03*
X022875Y005691D03*
X022875Y004943D03*
X021891Y004943D03*
X021891Y005317D03*
X021891Y005691D03*
D11*
X010847Y009707D03*
X010650Y009707D03*
X010454Y009707D03*
X010257Y009707D03*
X010060Y009707D03*
X009863Y009707D03*
X009666Y009707D03*
X009469Y009707D03*
X009272Y009707D03*
X009076Y009707D03*
X008879Y009707D03*
X008682Y009707D03*
X008682Y013251D03*
X008879Y013251D03*
X009076Y013251D03*
X009272Y013251D03*
X009469Y013251D03*
X009666Y013251D03*
X009863Y013251D03*
X010060Y013251D03*
X010257Y013251D03*
X010454Y013251D03*
X010650Y013251D03*
X010847Y013251D03*
D12*
X011536Y012562D03*
X011536Y012365D03*
X011536Y012168D03*
X011536Y011971D03*
X011536Y011774D03*
X011536Y011577D03*
X011536Y011380D03*
X011536Y011184D03*
X011536Y010987D03*
X011536Y010790D03*
X011536Y010593D03*
X011536Y010396D03*
X007993Y010396D03*
X007993Y010593D03*
X007993Y010790D03*
X007993Y010987D03*
X007993Y011184D03*
X007993Y011380D03*
X007993Y011577D03*
X007993Y011774D03*
X007993Y011971D03*
X007993Y012168D03*
X007993Y012365D03*
X007993Y012562D03*
D13*
X005808Y011853D03*
X005808Y011184D03*
X005139Y008920D03*
X005139Y008251D03*
X007245Y008073D03*
X007245Y007404D03*
X007028Y006479D03*
X007028Y005810D03*
X006241Y005810D03*
X006241Y006479D03*
X010828Y007148D03*
X010828Y007817D03*
X013013Y007660D03*
X013013Y006991D03*
X013013Y005652D03*
X013013Y004983D03*
X012973Y010495D03*
X012973Y011164D03*
X013761Y011164D03*
X014548Y011164D03*
X015335Y011164D03*
X016123Y011754D03*
X016123Y012424D03*
X016792Y013723D03*
X016792Y014392D03*
X018406Y014589D03*
X018406Y013920D03*
X020375Y013920D03*
X020375Y014589D03*
X021969Y015475D03*
X021969Y016144D03*
X024430Y016046D03*
X024430Y015377D03*
X025611Y014629D03*
X025611Y013959D03*
X026398Y013959D03*
X026398Y014629D03*
X025414Y012798D03*
X025414Y012129D03*
X023446Y011873D03*
X022658Y011873D03*
X021871Y011676D03*
X021871Y012345D03*
X022658Y012542D03*
X023446Y012542D03*
X020611Y012069D03*
X020611Y011400D03*
X018209Y011400D03*
X018209Y012069D03*
X015335Y010495D03*
X014548Y010495D03*
X013761Y010495D03*
X013524Y012227D03*
X012737Y012227D03*
X012737Y012896D03*
X013524Y012896D03*
X014391Y013723D03*
X014391Y014392D03*
X011910Y013605D03*
X011910Y012936D03*
X009076Y016164D03*
X009076Y016833D03*
X008288Y016833D03*
X007501Y016833D03*
X007501Y016164D03*
X008288Y016164D03*
X023603Y007660D03*
X023603Y006991D03*
X023603Y005652D03*
X023603Y004983D03*
D14*
X023623Y006302D03*
X022954Y006302D03*
X022954Y008310D03*
X023623Y008310D03*
X028249Y010987D03*
X028918Y010987D03*
X010080Y007148D03*
X009410Y007148D03*
X007304Y008959D03*
X006635Y008959D03*
X006576Y010081D03*
X007245Y010081D03*
X007245Y010869D03*
X006576Y010869D03*
X007560Y013546D03*
X008229Y013546D03*
X006024Y017129D03*
X005355Y017129D03*
D15*
X005434Y021420D03*
X004056Y021420D03*
X003072Y021420D03*
X001694Y021420D03*
D16*
X002383Y021164D03*
X004745Y021164D03*
D17*
X008150Y008940D03*
X008150Y007955D03*
D18*
X009410Y007916D03*
X010080Y007916D03*
X010080Y008428D03*
X009410Y008428D03*
D19*
X008603Y020367D03*
X008347Y020367D03*
X008091Y020367D03*
X007835Y020367D03*
X007580Y020367D03*
D20*
X006477Y021420D03*
X009706Y021420D03*
D21*
X009312Y020495D03*
X006871Y020495D03*
D22*
X007757Y021420D03*
X008426Y021420D03*
D23*
X012997Y015420D03*
X013430Y015420D03*
X013863Y015420D03*
X014296Y015420D03*
X014729Y015420D03*
X015162Y015420D03*
X015595Y015420D03*
X016028Y015420D03*
X016402Y015420D03*
D24*
X016776Y017113D03*
X012387Y015420D03*
D25*
X016776Y019554D03*
D26*
X016776Y021188D03*
D27*
X011461Y021365D03*
D28*
X022885Y016095D03*
X022885Y015918D03*
X022885Y015741D03*
X022885Y015564D03*
X023613Y015564D03*
X023613Y015741D03*
X023613Y015918D03*
X023613Y016095D03*
D29*
X023249Y015829D03*
D30*
X023052Y014629D03*
X022855Y014629D03*
X022658Y014629D03*
X022461Y014629D03*
X022265Y014629D03*
X022068Y014629D03*
X021871Y014629D03*
X021871Y013487D03*
X022068Y013487D03*
X022265Y013487D03*
X022461Y013487D03*
X022658Y013487D03*
X022855Y013487D03*
X023052Y013487D03*
X028485Y010367D03*
X028682Y010367D03*
X028879Y010367D03*
X028879Y009245D03*
X028682Y009245D03*
X028485Y009245D03*
D31*
X022461Y014058D03*
D32*
X019863Y012109D03*
X019863Y011735D03*
X019863Y011361D03*
X018918Y011361D03*
X018918Y012109D03*
X016044Y013684D03*
X016044Y014058D03*
X016044Y014432D03*
X015099Y014432D03*
X015099Y013684D03*
X026339Y012936D03*
X026339Y012188D03*
X027245Y012562D03*
D33*
G36*
X017780Y013129D02*
X017717Y013192D01*
X017852Y013327D01*
X017915Y013264D01*
X017780Y013129D01*
G37*
G36*
X017527Y012875D02*
X017464Y012938D01*
X017599Y013073D01*
X017662Y013010D01*
X017527Y012875D01*
G37*
G36*
X017346Y013056D02*
X017283Y013119D01*
X017418Y013254D01*
X017481Y013191D01*
X017346Y013056D01*
G37*
G36*
X017599Y013310D02*
X017536Y013373D01*
X017671Y013508D01*
X017734Y013445D01*
X017599Y013310D01*
G37*
D34*
G36*
X017535Y013374D02*
X017464Y013445D01*
X017527Y013508D01*
X017598Y013437D01*
X017535Y013374D01*
G37*
G36*
X017354Y013193D02*
X017283Y013264D01*
X017346Y013327D01*
X017417Y013256D01*
X017354Y013193D01*
G37*
G36*
X017671Y012875D02*
X017600Y012946D01*
X017663Y013009D01*
X017734Y012938D01*
X017671Y012875D01*
G37*
G36*
X017852Y013056D02*
X017781Y013127D01*
X017844Y013190D01*
X017915Y013119D01*
X017852Y013056D01*
G37*
D35*
X019017Y013782D03*
X019391Y013782D03*
X019765Y013782D03*
X019765Y014727D03*
X019017Y014727D03*
X023662Y016597D03*
X024410Y016597D03*
X024036Y017503D03*
X024430Y014825D03*
X024804Y013920D03*
X024056Y013920D03*
X024430Y013211D03*
X024804Y012306D03*
X024056Y012306D03*
D36*
X028682Y009806D03*
D37*
X008269Y017817D03*
X007894Y017817D03*
X007520Y017817D03*
X007520Y018723D03*
X007894Y018723D03*
X008269Y018723D03*
D38*
X003808Y013365D03*
X003808Y012865D03*
X003808Y012365D03*
X003808Y011865D03*
X003808Y011365D03*
X002138Y011365D03*
X002138Y011865D03*
X002138Y012365D03*
X002138Y012865D03*
X002138Y013365D03*
D39*
X018820Y015869D03*
X019961Y015869D03*
D40*
X020099Y003644D03*
X019706Y003644D03*
X019312Y003644D03*
X018918Y003644D03*
X018524Y003644D03*
X018131Y003644D03*
X017737Y003644D03*
X017343Y003644D03*
X016950Y003644D03*
X016556Y003644D03*
X016162Y003644D03*
X015769Y003644D03*
X015375Y003644D03*
X014981Y003644D03*
X014587Y003644D03*
X014194Y003644D03*
X013800Y003644D03*
X013406Y003644D03*
X013013Y003644D03*
X012619Y003644D03*
X012225Y003644D03*
X011831Y003644D03*
X011438Y003644D03*
X011044Y003644D03*
X010650Y003644D03*
X010257Y003644D03*
X010257Y002188D03*
X010650Y002188D03*
X011044Y002188D03*
X011438Y002188D03*
X011831Y002188D03*
X012225Y002188D03*
X012619Y002188D03*
X013013Y002188D03*
X013406Y002188D03*
X013800Y002188D03*
X014194Y002188D03*
X014587Y002188D03*
X014981Y002188D03*
X015375Y002188D03*
X015769Y002188D03*
X016162Y002188D03*
X016556Y002188D03*
X016950Y002188D03*
X017343Y002188D03*
X017737Y002188D03*
X018131Y002188D03*
X018524Y002188D03*
X018918Y002188D03*
X019312Y002188D03*
X019706Y002188D03*
X020099Y002188D03*
X020493Y002188D03*
X020887Y002188D03*
X021280Y002188D03*
X021674Y002188D03*
X022068Y002188D03*
X022461Y002188D03*
X022855Y002188D03*
X023249Y002188D03*
X023643Y002188D03*
X024036Y002188D03*
X024430Y002188D03*
X024824Y002188D03*
X025217Y002188D03*
X025611Y002188D03*
X026005Y002188D03*
X026398Y002188D03*
X026398Y003644D03*
X026005Y003644D03*
X025611Y003644D03*
X025217Y003644D03*
X024824Y003644D03*
X024430Y003644D03*
X024036Y003644D03*
X023643Y003644D03*
X023249Y003644D03*
X022855Y003644D03*
X022461Y003644D03*
X022068Y003644D03*
X021674Y003644D03*
X021280Y003644D03*
X020887Y003644D03*
X020493Y003644D03*
D41*
X002245Y007552D03*
X002245Y008516D03*
D42*
X002245Y008034D03*
D43*
X001477Y007306D03*
X001477Y008762D03*
D44*
X005001Y005770D03*
X004095Y006459D03*
X005001Y007148D03*
M02*
