G75*
G70*
%OFA0B0*%
%FSLAX24Y24*%
%IPPOS*%
%LPD*%
%AMOC8*
5,1,8,0,0,1.08239X$1,22.5*
%
%ADD10C,0.0080*%
%ADD11C,0.0040*%
%ADD12C,0.0060*%
%ADD13C,0.0050*%
%ADD14R,0.0200X0.0320*%
%ADD15R,0.0320X0.0200*%
%ADD16C,0.0220*%
D10*
X012286Y006833D02*
X012286Y010770D01*
X023506Y010770D01*
X023506Y006833D01*
X012286Y006833D01*
X032247Y009609D02*
X032640Y009609D01*
X032049Y009609D02*
X032051Y009648D01*
X032057Y009687D01*
X032067Y009725D01*
X032080Y009762D01*
X032097Y009797D01*
X032117Y009831D01*
X032141Y009862D01*
X032168Y009891D01*
X032197Y009917D01*
X032229Y009940D01*
X032263Y009960D01*
X032299Y009976D01*
X032336Y009988D01*
X032375Y009997D01*
X032414Y010002D01*
X032453Y010003D01*
X032492Y010000D01*
X032531Y009993D01*
X032568Y009982D01*
X032605Y009968D01*
X032640Y009950D01*
X032673Y009929D01*
X032704Y009904D01*
X032732Y009877D01*
X032757Y009847D01*
X032779Y009814D01*
X032798Y009780D01*
X032813Y009744D01*
X032825Y009706D01*
X032833Y009668D01*
X032837Y009629D01*
X032837Y009589D01*
X032833Y009550D01*
X032825Y009512D01*
X032813Y009474D01*
X032798Y009438D01*
X032779Y009404D01*
X032757Y009371D01*
X032732Y009341D01*
X032704Y009314D01*
X032673Y009289D01*
X032640Y009268D01*
X032605Y009250D01*
X032568Y009236D01*
X032531Y009225D01*
X032492Y009218D01*
X032453Y009215D01*
X032414Y009216D01*
X032375Y009221D01*
X032336Y009230D01*
X032299Y009242D01*
X032263Y009258D01*
X032229Y009278D01*
X032197Y009301D01*
X032168Y009327D01*
X032141Y009356D01*
X032117Y009387D01*
X032097Y009421D01*
X032080Y009456D01*
X032067Y009493D01*
X032057Y009531D01*
X032051Y009570D01*
X032049Y009609D01*
X032443Y009412D02*
X032443Y009806D01*
X032443Y005081D02*
X032443Y004688D01*
X032049Y004884D02*
X032051Y004923D01*
X032057Y004962D01*
X032067Y005000D01*
X032080Y005037D01*
X032097Y005072D01*
X032117Y005106D01*
X032141Y005137D01*
X032168Y005166D01*
X032197Y005192D01*
X032229Y005215D01*
X032263Y005235D01*
X032299Y005251D01*
X032336Y005263D01*
X032375Y005272D01*
X032414Y005277D01*
X032453Y005278D01*
X032492Y005275D01*
X032531Y005268D01*
X032568Y005257D01*
X032605Y005243D01*
X032640Y005225D01*
X032673Y005204D01*
X032704Y005179D01*
X032732Y005152D01*
X032757Y005122D01*
X032779Y005089D01*
X032798Y005055D01*
X032813Y005019D01*
X032825Y004981D01*
X032833Y004943D01*
X032837Y004904D01*
X032837Y004864D01*
X032833Y004825D01*
X032825Y004787D01*
X032813Y004749D01*
X032798Y004713D01*
X032779Y004679D01*
X032757Y004646D01*
X032732Y004616D01*
X032704Y004589D01*
X032673Y004564D01*
X032640Y004543D01*
X032605Y004525D01*
X032568Y004511D01*
X032531Y004500D01*
X032492Y004493D01*
X032453Y004490D01*
X032414Y004491D01*
X032375Y004496D01*
X032336Y004505D01*
X032299Y004517D01*
X032263Y004533D01*
X032229Y004553D01*
X032197Y004576D01*
X032168Y004602D01*
X032141Y004631D01*
X032117Y004662D01*
X032097Y004696D01*
X032080Y004731D01*
X032067Y004768D01*
X032057Y004806D01*
X032051Y004845D01*
X032049Y004884D01*
D11*
X030562Y004944D02*
X030101Y004944D01*
X030101Y004791D02*
X030101Y004561D01*
X030178Y004484D01*
X030331Y004484D01*
X030408Y004561D01*
X030408Y004791D01*
X030025Y004791D01*
X029948Y004714D01*
X029948Y004637D01*
X030101Y004330D02*
X030101Y004177D01*
X030101Y004254D02*
X030408Y004254D01*
X030408Y004177D01*
X030408Y004023D02*
X030408Y003947D01*
X030255Y003793D01*
X030408Y003793D02*
X030101Y003793D01*
X030101Y003640D02*
X030101Y003410D01*
X030178Y003333D01*
X030408Y003333D01*
X030331Y003179D02*
X030408Y003103D01*
X030408Y002872D01*
X029948Y002872D01*
X030101Y002872D02*
X030101Y003103D01*
X030178Y003179D01*
X030331Y003179D01*
X029948Y003486D02*
X029948Y003563D01*
X030025Y003640D01*
X030408Y003640D01*
X030562Y004254D02*
X030638Y004254D01*
X029676Y004215D02*
X029215Y004215D01*
X029446Y004215D02*
X029522Y004292D01*
X029522Y004446D01*
X029446Y004522D01*
X029215Y004522D01*
X029292Y004753D02*
X029215Y004829D01*
X029292Y004753D02*
X029599Y004753D01*
X029522Y004676D02*
X029522Y004829D01*
X029522Y004983D02*
X029522Y005136D01*
X029599Y005059D02*
X029292Y005059D01*
X029215Y005136D01*
X029215Y005290D02*
X029215Y005520D01*
X029292Y005597D01*
X029446Y005597D01*
X029522Y005520D01*
X029522Y005290D01*
X029062Y005290D01*
X029215Y005750D02*
X029292Y005750D01*
X029292Y005827D01*
X029215Y005827D01*
X029215Y005750D01*
X029215Y005980D02*
X029676Y006287D01*
X030101Y006249D02*
X030178Y006172D01*
X030331Y006172D01*
X030408Y006249D01*
X030408Y006479D01*
X030101Y006479D02*
X030101Y006249D01*
X029676Y006748D02*
X029215Y006441D01*
X029215Y006901D02*
X029522Y006901D01*
X029522Y006978D01*
X029446Y007055D01*
X029522Y007131D01*
X029446Y007208D01*
X029215Y007208D01*
X029215Y007055D02*
X029446Y007055D01*
X029292Y007361D02*
X029369Y007438D01*
X029369Y007668D01*
X029446Y007668D02*
X029215Y007668D01*
X029215Y007438D01*
X029292Y007361D01*
X029522Y007438D02*
X029522Y007592D01*
X029446Y007668D01*
X029522Y007822D02*
X029215Y007822D01*
X029369Y007822D02*
X029522Y007975D01*
X029522Y008052D01*
X029522Y008205D02*
X029215Y008205D01*
X029215Y008359D02*
X029446Y008359D01*
X029522Y008436D01*
X029446Y008512D01*
X029215Y008512D01*
X029292Y008666D02*
X029215Y008743D01*
X029215Y008896D01*
X029292Y008973D01*
X029446Y008973D01*
X029522Y008896D01*
X029522Y008743D01*
X029446Y008666D01*
X029292Y008666D01*
X029522Y009126D02*
X029522Y009280D01*
X029599Y009203D02*
X029292Y009203D01*
X029215Y009280D01*
X029292Y009433D02*
X029446Y009433D01*
X029522Y009510D01*
X029522Y009663D01*
X029446Y009740D01*
X029369Y009740D01*
X029369Y009433D01*
X029292Y009433D02*
X029215Y009510D01*
X029215Y009663D01*
X029215Y009894D02*
X029215Y009970D01*
X029292Y009970D01*
X029292Y009894D01*
X029215Y009894D01*
X029292Y010124D02*
X029215Y010201D01*
X029215Y010431D01*
X029139Y010431D02*
X029522Y010431D01*
X029522Y010201D01*
X029446Y010124D01*
X029292Y010124D01*
X029062Y010277D02*
X029062Y010354D01*
X029139Y010431D01*
X029292Y010584D02*
X029215Y010661D01*
X029215Y010814D01*
X029292Y010891D01*
X029446Y010891D01*
X029522Y010814D01*
X029522Y010661D01*
X029446Y010584D01*
X029292Y010584D01*
X029292Y011045D02*
X029215Y011121D01*
X029215Y011275D01*
X029292Y011352D01*
X029446Y011352D01*
X029522Y011275D01*
X029522Y011121D01*
X029446Y011045D01*
X029292Y011045D01*
X029292Y011505D02*
X029215Y011582D01*
X029215Y011812D01*
X029139Y011812D02*
X029522Y011812D01*
X029522Y011582D01*
X029446Y011505D01*
X029292Y011505D01*
X029062Y011658D02*
X029062Y011735D01*
X029139Y011812D01*
X029215Y011965D02*
X029215Y012119D01*
X029215Y012042D02*
X029676Y012042D01*
X029676Y011965D01*
X030101Y011897D02*
X030101Y011744D01*
X030178Y011667D01*
X030331Y011667D01*
X030408Y011744D01*
X030408Y011897D01*
X030331Y011974D01*
X030255Y011974D01*
X030255Y011667D01*
X030408Y011514D02*
X030408Y011284D01*
X030331Y011207D01*
X030178Y011207D01*
X030101Y011284D01*
X030101Y011514D01*
X030562Y011514D01*
X030331Y011053D02*
X030101Y011053D01*
X030331Y011053D02*
X030408Y010977D01*
X030408Y010746D01*
X030101Y010746D01*
X030101Y010593D02*
X030101Y010363D01*
X030178Y010286D01*
X030255Y010363D01*
X030255Y010593D01*
X030331Y010593D02*
X030101Y010593D01*
X030331Y010593D02*
X030408Y010516D01*
X030408Y010363D01*
X030255Y010133D02*
X030562Y010133D01*
X030255Y010133D02*
X030101Y009979D01*
X030255Y009826D01*
X030562Y009826D01*
X030485Y008781D02*
X030562Y008704D01*
X030562Y008551D01*
X030485Y008474D01*
X030485Y008781D02*
X030408Y008781D01*
X030101Y008474D01*
X030101Y008781D01*
X030101Y008320D02*
X030101Y008013D01*
X030101Y008167D02*
X030562Y008167D01*
X030408Y008013D01*
X030485Y007860D02*
X030178Y007860D01*
X030101Y007783D01*
X030101Y007630D01*
X030178Y007553D01*
X030485Y007860D01*
X030562Y007783D01*
X030562Y007630D01*
X030485Y007553D01*
X030178Y007553D01*
X030101Y007400D02*
X030101Y007093D01*
X030408Y007400D01*
X030485Y007400D01*
X030562Y007323D01*
X030562Y007169D01*
X030485Y007093D01*
X029522Y008205D02*
X029522Y008282D01*
X029446Y008359D01*
X029446Y005827D02*
X029446Y005750D01*
X029522Y005750D01*
X029522Y005827D01*
X029446Y005827D01*
X030101Y005558D02*
X030178Y005481D01*
X030485Y005481D01*
X030408Y005405D02*
X030408Y005558D01*
X030331Y005251D02*
X030101Y005251D01*
X030331Y005251D02*
X030408Y005174D01*
X030408Y005021D01*
X030331Y004944D01*
X030331Y002719D02*
X030408Y002642D01*
X030408Y002489D01*
X030331Y002412D01*
X030178Y002412D01*
X030101Y002489D01*
X030101Y002642D01*
X030178Y002719D01*
X030331Y002719D01*
X030178Y002259D02*
X030101Y002182D01*
X030101Y002028D01*
X030178Y001952D01*
X030485Y001952D01*
X030562Y002028D01*
X030562Y002182D01*
X030485Y002259D01*
X022721Y007444D02*
X022721Y007827D01*
X022644Y007904D01*
X022644Y007674D02*
X022797Y007674D01*
X022491Y007674D02*
X022414Y007751D01*
X022260Y007751D01*
X022184Y007674D01*
X022184Y007521D01*
X022260Y007444D01*
X022414Y007444D01*
X022491Y007521D01*
X022491Y007674D01*
X022030Y007751D02*
X022030Y007444D01*
X022030Y007597D02*
X021877Y007751D01*
X021800Y007751D01*
X021186Y007751D02*
X021033Y007751D01*
X021109Y007827D02*
X021109Y007521D01*
X021033Y007444D01*
X020879Y007444D02*
X020879Y007904D01*
X020802Y007751D02*
X020649Y007751D01*
X020572Y007674D01*
X020572Y007444D01*
X020419Y007521D02*
X020419Y007674D01*
X020342Y007751D01*
X020189Y007751D01*
X020112Y007674D01*
X020112Y007597D01*
X020419Y007597D01*
X020419Y007521D02*
X020342Y007444D01*
X020189Y007444D01*
X020802Y007751D02*
X020879Y007674D01*
X021153Y008330D02*
X021153Y008637D01*
X021153Y008483D02*
X020999Y008637D01*
X020923Y008637D01*
X021306Y008560D02*
X021306Y008483D01*
X021613Y008483D01*
X021613Y008406D02*
X021613Y008560D01*
X021536Y008637D01*
X021383Y008637D01*
X021306Y008560D01*
X021383Y008330D02*
X021536Y008330D01*
X021613Y008406D01*
X021767Y008406D02*
X021767Y008637D01*
X021767Y008406D02*
X021843Y008330D01*
X021920Y008406D01*
X021997Y008330D01*
X022074Y008406D01*
X022074Y008637D01*
X022227Y008560D02*
X022227Y008406D01*
X022304Y008330D01*
X022457Y008330D01*
X022534Y008406D01*
X022534Y008560D01*
X022457Y008637D01*
X022304Y008637D01*
X022227Y008560D01*
X022687Y008560D02*
X022687Y008713D01*
X022764Y008790D01*
X022994Y008790D01*
X022994Y008330D01*
X022994Y008483D02*
X022764Y008483D01*
X022687Y008560D01*
X020309Y008637D02*
X020309Y008330D01*
X020155Y008330D02*
X020155Y008560D01*
X020079Y008637D01*
X020002Y008560D01*
X020002Y008330D01*
X019848Y008406D02*
X019772Y008483D01*
X019541Y008483D01*
X019541Y008560D02*
X019541Y008330D01*
X019772Y008330D01*
X019848Y008406D01*
X019772Y008637D02*
X019618Y008637D01*
X019541Y008560D01*
X019388Y008637D02*
X019158Y008637D01*
X019081Y008560D01*
X019081Y008330D01*
X018928Y008406D02*
X018851Y008483D01*
X018621Y008483D01*
X018621Y008560D02*
X018621Y008330D01*
X018851Y008330D01*
X018928Y008406D01*
X018851Y008637D02*
X018697Y008637D01*
X018621Y008560D01*
X018467Y008560D02*
X018467Y008406D01*
X018390Y008330D01*
X018160Y008330D01*
X018160Y008253D02*
X018160Y008637D01*
X018390Y008637D01*
X018467Y008560D01*
X018314Y008176D02*
X018237Y008176D01*
X018160Y008253D01*
X018007Y008406D02*
X018007Y008560D01*
X017930Y008637D01*
X017777Y008637D01*
X017700Y008560D01*
X017700Y008483D01*
X018007Y008483D01*
X018007Y008406D02*
X017930Y008330D01*
X017777Y008330D01*
X017546Y008330D02*
X017546Y008637D01*
X017470Y008637D01*
X017393Y008560D01*
X017316Y008637D01*
X017239Y008560D01*
X017239Y008330D01*
X017393Y008330D02*
X017393Y008560D01*
X017086Y008560D02*
X017086Y008406D01*
X017009Y008330D01*
X016856Y008330D01*
X016779Y008483D02*
X017086Y008483D01*
X017086Y008560D02*
X017009Y008637D01*
X016856Y008637D01*
X016779Y008560D01*
X016779Y008483D01*
X016626Y008330D02*
X016626Y008637D01*
X016395Y008637D01*
X016319Y008560D01*
X016319Y008330D01*
X016088Y008406D02*
X016012Y008330D01*
X016088Y008406D02*
X016088Y008713D01*
X016012Y008637D02*
X016165Y008637D01*
X015398Y008637D02*
X015398Y008330D01*
X015244Y008330D02*
X015244Y008560D01*
X015168Y008637D01*
X015091Y008560D01*
X015091Y008330D01*
X014937Y008406D02*
X014937Y008560D01*
X014861Y008637D01*
X014707Y008637D01*
X014631Y008560D01*
X014631Y008406D01*
X014707Y008330D01*
X014861Y008330D01*
X014937Y008406D01*
X015244Y008560D02*
X015321Y008637D01*
X015398Y008637D01*
X015508Y007904D02*
X015508Y007444D01*
X015585Y007444D02*
X015431Y007444D01*
X015278Y007521D02*
X015201Y007597D01*
X014971Y007597D01*
X014971Y007674D02*
X014971Y007444D01*
X015201Y007444D01*
X015278Y007521D01*
X015201Y007751D02*
X015048Y007751D01*
X014971Y007674D01*
X014817Y007751D02*
X014664Y007751D01*
X014741Y007827D02*
X014741Y007521D01*
X014664Y007444D01*
X014434Y007444D02*
X014434Y007827D01*
X014357Y007904D01*
X014357Y007674D02*
X014510Y007674D01*
X014203Y007674D02*
X014127Y007751D01*
X013973Y007751D01*
X013897Y007674D01*
X013897Y007521D01*
X013973Y007444D01*
X014127Y007444D01*
X014203Y007521D01*
X014203Y007674D01*
X013743Y007751D02*
X013743Y007444D01*
X013743Y007597D02*
X013590Y007751D01*
X013513Y007751D01*
X013359Y007751D02*
X013283Y007751D01*
X013206Y007674D01*
X013129Y007751D01*
X013053Y007674D01*
X013053Y007444D01*
X013206Y007444D02*
X013206Y007674D01*
X013359Y007751D02*
X013359Y007444D01*
X013403Y008330D02*
X013556Y008330D01*
X013480Y008330D02*
X013480Y008790D01*
X013556Y008790D01*
X013710Y008637D02*
X013710Y008330D01*
X013940Y008330D01*
X014017Y008406D01*
X014017Y008637D01*
X014170Y008637D02*
X014400Y008637D01*
X014477Y008560D01*
X014477Y008406D01*
X014400Y008330D01*
X014170Y008330D01*
X014170Y008790D01*
X013249Y008560D02*
X013249Y008406D01*
X013173Y008330D01*
X013019Y008330D01*
X012942Y008483D02*
X013249Y008483D01*
X013249Y008560D02*
X013173Y008637D01*
X013019Y008637D01*
X012942Y008560D01*
X012942Y008483D01*
X015508Y007904D02*
X015585Y007904D01*
X015815Y007751D02*
X015738Y007674D01*
X015738Y007521D01*
X015815Y007444D01*
X016045Y007444D01*
X016045Y007290D02*
X016045Y007751D01*
X015815Y007751D01*
X016659Y007674D02*
X016659Y007597D01*
X016966Y007597D01*
X016966Y007521D02*
X016966Y007674D01*
X016889Y007751D01*
X016736Y007751D01*
X016659Y007674D01*
X016736Y007444D02*
X016889Y007444D01*
X016966Y007521D01*
X017119Y007444D02*
X017196Y007521D01*
X017196Y007827D01*
X017273Y007751D02*
X017119Y007751D01*
X017426Y007674D02*
X017503Y007751D01*
X017656Y007751D01*
X017733Y007674D01*
X017733Y007521D01*
X017656Y007444D01*
X017503Y007444D01*
X017426Y007521D01*
X017426Y007674D01*
X017887Y007674D02*
X017887Y007444D01*
X018040Y007444D02*
X018040Y007674D01*
X017963Y007751D01*
X017887Y007674D01*
X018040Y007674D02*
X018117Y007751D01*
X018194Y007751D01*
X018194Y007444D01*
X018577Y007444D02*
X018577Y007751D01*
X018424Y007751D02*
X018347Y007751D01*
X018424Y007751D02*
X018577Y007597D01*
X018731Y007597D02*
X018961Y007597D01*
X019038Y007521D01*
X018961Y007444D01*
X018731Y007444D01*
X018731Y007674D01*
X018807Y007751D01*
X018961Y007751D01*
X019191Y007904D02*
X019191Y007444D01*
X019498Y007444D02*
X019498Y007904D01*
X019345Y007751D01*
X019191Y007904D01*
X019388Y008330D02*
X019388Y008637D01*
X020155Y008560D02*
X020232Y008637D01*
X020309Y008637D01*
X029215Y012349D02*
X029292Y012272D01*
X029446Y012272D01*
X029522Y012349D01*
X029522Y012502D01*
X029446Y012579D01*
X029369Y012579D01*
X029369Y012272D01*
X029215Y012349D02*
X029215Y012502D01*
X029292Y012733D02*
X029215Y012809D01*
X029215Y013040D01*
X029292Y013193D02*
X029215Y013270D01*
X029215Y013423D01*
X029292Y013500D01*
X029446Y013500D01*
X029522Y013423D01*
X029522Y013270D01*
X029446Y013193D01*
X029292Y013193D01*
X029522Y013040D02*
X029522Y012809D01*
X029446Y012733D01*
X029292Y012733D01*
X030101Y012741D02*
X030101Y012511D01*
X030562Y012511D01*
X030408Y012511D02*
X030408Y012741D01*
X030331Y012818D01*
X030178Y012818D01*
X030101Y012741D01*
X030101Y012972D02*
X030101Y013125D01*
X030101Y013048D02*
X030408Y013048D01*
X030408Y012972D01*
X030562Y013048D02*
X030638Y013048D01*
X030562Y013279D02*
X030562Y013355D01*
X030101Y013355D01*
X030101Y013279D02*
X030101Y013432D01*
X030178Y013662D02*
X030101Y013739D01*
X030178Y013662D02*
X030485Y013662D01*
X030408Y013586D02*
X030408Y013739D01*
X030562Y014353D02*
X030178Y014353D01*
X030101Y014430D01*
X030101Y014583D01*
X030178Y014660D01*
X030562Y014660D01*
X030408Y014813D02*
X030408Y015043D01*
X030331Y015120D01*
X030101Y015120D01*
X030101Y015274D02*
X030101Y015427D01*
X030101Y015350D02*
X030408Y015350D01*
X030408Y015274D01*
X030562Y015350D02*
X030638Y015350D01*
X030408Y015581D02*
X030101Y015734D01*
X030408Y015888D01*
X030331Y016041D02*
X030408Y016118D01*
X030408Y016271D01*
X030331Y016348D01*
X030255Y016348D01*
X030255Y016041D01*
X030331Y016041D02*
X030178Y016041D01*
X030101Y016118D01*
X030101Y016271D01*
X030101Y016501D02*
X030408Y016501D01*
X030255Y016501D02*
X030408Y016655D01*
X030408Y016732D01*
X030331Y016885D02*
X030408Y016962D01*
X030408Y017192D01*
X030408Y017345D02*
X030408Y017422D01*
X030101Y017422D01*
X030101Y017345D02*
X030101Y017499D01*
X030178Y017729D02*
X030101Y017806D01*
X030178Y017729D02*
X030485Y017729D01*
X030408Y017652D02*
X030408Y017806D01*
X030408Y017959D02*
X030178Y017959D01*
X030101Y018036D01*
X030101Y018266D01*
X030025Y018266D02*
X029948Y018189D01*
X029948Y018113D01*
X030025Y018266D02*
X030408Y018266D01*
X030178Y018496D02*
X030178Y018573D01*
X030101Y018573D01*
X030101Y018496D01*
X030178Y018496D01*
X030101Y018573D02*
X029948Y018420D01*
X030101Y019187D02*
X030101Y019340D01*
X030101Y019264D02*
X030562Y019264D01*
X030562Y019340D02*
X030562Y019187D01*
X030485Y019494D02*
X030408Y019494D01*
X030331Y019571D01*
X030331Y019724D01*
X030255Y019801D01*
X030178Y019801D01*
X030101Y019724D01*
X030101Y019571D01*
X030178Y019494D01*
X030485Y019494D02*
X030562Y019571D01*
X030562Y019724D01*
X030485Y019801D01*
X030562Y019954D02*
X030562Y020108D01*
X030562Y020031D02*
X030101Y020031D01*
X030101Y019954D02*
X030101Y020108D01*
X030178Y020261D02*
X030101Y020338D01*
X030101Y020491D01*
X030178Y020568D01*
X030255Y020568D01*
X030331Y020491D01*
X030331Y020338D01*
X030408Y020261D01*
X030485Y020261D01*
X030562Y020338D01*
X030562Y020491D01*
X030485Y020568D01*
X030562Y017422D02*
X030638Y017422D01*
X030255Y017115D02*
X030255Y016962D01*
X030331Y016885D01*
X030101Y016885D02*
X030101Y017115D01*
X030178Y017192D01*
X030255Y017115D01*
X029446Y016032D02*
X029215Y016032D01*
X029215Y015879D02*
X029446Y015879D01*
X029522Y015955D01*
X029446Y016032D01*
X029446Y015879D02*
X029522Y015802D01*
X029522Y015725D01*
X029215Y015725D01*
X029292Y015572D02*
X029446Y015572D01*
X029522Y015495D01*
X029522Y015342D01*
X029446Y015265D01*
X029292Y015265D01*
X029215Y015342D01*
X029215Y015495D01*
X029292Y015572D01*
X029215Y015111D02*
X029215Y014881D01*
X029292Y014804D01*
X029446Y014804D01*
X029522Y014881D01*
X029522Y015111D01*
X029292Y014651D02*
X029215Y014651D01*
X029215Y014574D01*
X029292Y014574D01*
X029292Y014651D01*
X029369Y014421D02*
X029369Y014114D01*
X029446Y014114D02*
X029522Y014191D01*
X029522Y014344D01*
X029446Y014421D01*
X029369Y014421D01*
X029215Y014344D02*
X029215Y014191D01*
X029292Y014114D01*
X029446Y014114D01*
X029522Y013960D02*
X029522Y013730D01*
X029446Y013653D01*
X029292Y013653D01*
X029215Y013730D01*
X029215Y013960D01*
X029676Y013960D01*
X030101Y014813D02*
X030408Y014813D01*
X031094Y014845D02*
X031094Y015306D01*
X031401Y015306D02*
X031401Y014845D01*
X031248Y014999D01*
X031094Y014845D01*
X031554Y014922D02*
X031631Y014845D01*
X031785Y014845D01*
X031861Y014922D01*
X031785Y015076D02*
X031861Y015152D01*
X031861Y015229D01*
X031785Y015306D01*
X031631Y015306D01*
X031554Y015229D01*
X031631Y015076D02*
X031554Y014999D01*
X031554Y014922D01*
X031631Y015076D02*
X031785Y015076D01*
X032475Y015076D02*
X032552Y014999D01*
X032782Y014999D01*
X032629Y014999D02*
X032475Y014845D01*
X032475Y015076D02*
X032475Y015229D01*
X032552Y015306D01*
X032782Y015306D01*
X032782Y014845D01*
X032936Y014845D02*
X033089Y014999D01*
X033243Y014845D01*
X033243Y015306D01*
X033396Y015229D02*
X033396Y015076D01*
X033473Y014999D01*
X033703Y014999D01*
X033703Y014845D02*
X033703Y015306D01*
X033473Y015306D01*
X033396Y015229D01*
X032936Y015306D02*
X032936Y014845D01*
X030408Y012358D02*
X030408Y012281D01*
X030255Y012128D01*
X030408Y012128D02*
X030101Y012128D01*
X032908Y009794D02*
X033215Y009794D01*
X033062Y009794D02*
X033062Y009334D01*
X033369Y009334D02*
X033369Y009640D01*
X033522Y009794D01*
X033676Y009640D01*
X033676Y009334D01*
X033829Y009410D02*
X033906Y009334D01*
X034136Y009334D01*
X034136Y009794D01*
X033906Y009794D01*
X033829Y009717D01*
X033829Y009640D01*
X033906Y009564D01*
X034136Y009564D01*
X033906Y009564D02*
X033829Y009487D01*
X033829Y009410D01*
X033676Y009564D02*
X033369Y009564D01*
D12*
X023083Y010251D02*
X022869Y010038D01*
X022869Y009718D01*
X022869Y010038D02*
X022656Y010251D01*
X022656Y010358D01*
X022438Y010038D02*
X022331Y010145D01*
X022118Y010145D01*
X022011Y010038D01*
X022011Y009931D01*
X022438Y009931D01*
X022438Y009824D02*
X022438Y010038D01*
X022438Y009824D02*
X022331Y009718D01*
X022118Y009718D01*
X021794Y009718D02*
X021580Y009718D01*
X021687Y009718D02*
X021687Y010358D01*
X021794Y010358D01*
X021364Y010358D02*
X021257Y010358D01*
X021257Y009718D01*
X021364Y009718D02*
X021150Y009718D01*
X020934Y009824D02*
X020934Y010038D01*
X020828Y010145D01*
X020614Y010145D01*
X020507Y010038D01*
X020507Y009824D01*
X020614Y009718D01*
X020828Y009718D01*
X020934Y009824D01*
X020290Y009824D02*
X020290Y010145D01*
X019863Y010145D02*
X019863Y009824D01*
X019969Y009718D01*
X020076Y009824D01*
X020183Y009718D01*
X020290Y009824D01*
X019645Y009718D02*
X019325Y009718D01*
X019218Y009824D01*
X019325Y009931D01*
X019538Y009931D01*
X019645Y010038D01*
X019538Y010145D01*
X019218Y010145D01*
X019001Y010145D02*
X018787Y010145D01*
X018894Y010251D02*
X018894Y009824D01*
X018787Y009718D01*
X018571Y009824D02*
X018571Y010038D01*
X018464Y010145D01*
X018251Y010145D01*
X018144Y010038D01*
X018144Y009824D01*
X018251Y009718D01*
X018464Y009718D01*
X018571Y009824D01*
X017926Y009718D02*
X017926Y010145D01*
X017606Y010145D01*
X017499Y010038D01*
X017499Y009718D01*
X017282Y009824D02*
X017282Y010038D01*
X017175Y010145D01*
X016962Y010145D01*
X016855Y010038D01*
X016855Y009931D01*
X017282Y009931D01*
X017282Y009824D02*
X017175Y009718D01*
X016962Y009718D01*
X015307Y009718D02*
X015307Y010358D01*
X014987Y010358D01*
X014880Y010251D01*
X014880Y010038D01*
X014987Y009931D01*
X015307Y009931D01*
X015094Y009931D02*
X014880Y009718D01*
X014663Y009824D02*
X014663Y010038D01*
X014556Y010145D01*
X014342Y010145D01*
X014236Y010038D01*
X014236Y009931D01*
X014663Y009931D01*
X014663Y009824D02*
X014556Y009718D01*
X014342Y009718D01*
X014018Y010145D02*
X013805Y009718D01*
X013591Y010145D01*
X013142Y010038D02*
X012822Y010038D01*
X012715Y009931D01*
X012715Y009824D01*
X012822Y009718D01*
X013142Y009718D01*
X013142Y010358D01*
X012822Y010358D01*
X012715Y010251D01*
X012715Y010145D01*
X012822Y010038D01*
X023083Y010251D02*
X023083Y010358D01*
D13*
X031459Y011203D02*
X031459Y011971D01*
X031459Y011203D02*
X032365Y011203D01*
X033821Y011814D02*
X033821Y013703D01*
X032365Y014314D02*
X031459Y014314D01*
X031459Y013546D01*
X031459Y008802D02*
X031459Y008034D01*
X031459Y008802D02*
X032365Y008802D01*
X033821Y008191D02*
X033821Y006302D01*
X032365Y005691D02*
X031459Y005691D01*
X031459Y006459D01*
X021282Y002207D02*
X021284Y002243D01*
X021290Y002279D01*
X021300Y002314D01*
X021313Y002348D01*
X021330Y002380D01*
X021350Y002410D01*
X021374Y002437D01*
X021400Y002462D01*
X021429Y002484D01*
X021460Y002503D01*
X021493Y002518D01*
X021527Y002530D01*
X021563Y002538D01*
X021599Y002542D01*
X021635Y002542D01*
X021671Y002538D01*
X021707Y002530D01*
X021741Y002518D01*
X021774Y002503D01*
X021805Y002484D01*
X021834Y002462D01*
X021860Y002437D01*
X021884Y002410D01*
X021904Y002380D01*
X021921Y002348D01*
X021934Y002314D01*
X021944Y002279D01*
X021950Y002243D01*
X021952Y002207D01*
X021950Y002171D01*
X021944Y002135D01*
X021934Y002100D01*
X021921Y002066D01*
X021904Y002034D01*
X021884Y002004D01*
X021860Y001977D01*
X021834Y001952D01*
X021805Y001930D01*
X021774Y001911D01*
X021741Y001896D01*
X021707Y001884D01*
X021671Y001876D01*
X021635Y001872D01*
X021599Y001872D01*
X021563Y001876D01*
X021527Y001884D01*
X021493Y001896D01*
X021460Y001911D01*
X021429Y001930D01*
X021400Y001952D01*
X021374Y001977D01*
X021350Y002004D01*
X021330Y002034D01*
X021313Y002066D01*
X021300Y002100D01*
X021290Y002135D01*
X021284Y002171D01*
X021282Y002207D01*
D14*
X019766Y011380D03*
X018585Y011380D03*
X018585Y012207D03*
X017168Y011302D03*
X017404Y013034D03*
X016538Y014530D03*
X014333Y014530D03*
X015947Y016223D03*
X011814Y016105D03*
X011499Y015199D03*
X009688Y013467D03*
X004688Y020239D03*
X002916Y020239D03*
X019766Y012522D03*
X022562Y012443D03*
X026932Y015790D03*
D15*
X005278Y007089D03*
X006066Y007089D03*
X007798Y007089D03*
X008940Y007089D03*
X009727Y007089D03*
X008762Y008270D03*
X007975Y008270D03*
X012877Y013191D03*
X011341Y013428D03*
X015436Y014845D03*
X017837Y014884D03*
X018940Y015436D03*
X023447Y014747D03*
X024235Y014747D03*
D16*
X021380Y012455D02*
X021380Y012431D01*
X009333Y010526D02*
X009333Y010502D01*
X009333Y009739D02*
X009333Y009715D01*
M02*
