G75*
G70*
%OFA0B0*%
%FSLAX24Y24*%
%IPPOS*%
%LPD*%
%AMOC8*
5,1,8,0,0,1.08239X$1,22.5*
%
%ADD10C,0.0040*%
%ADD11C,0.0060*%
%ADD12C,0.0080*%
%ADD13C,0.0100*%
%ADD14R,0.0320X0.0200*%
%ADD15C,0.0220*%
%ADD16R,0.0250X0.0250*%
%ADD17R,0.0200X0.0320*%
%ADD18R,0.0200X0.0060*%
%ADD19R,0.0200X0.0200*%
%ADD20C,0.0050*%
%ADD21R,0.3937X0.0011*%
%ADD22R,0.3937X0.0011*%
%ADD23R,0.0120X0.0011*%
%ADD24R,0.0120X0.0011*%
%ADD25R,0.0120X0.0011*%
%ADD26R,0.0120X0.0011*%
%ADD27R,0.2832X0.0011*%
%ADD28R,0.2843X0.0011*%
%ADD29R,0.2854X0.0011*%
%ADD30R,0.2865X0.0011*%
%ADD31R,0.0087X0.0011*%
%ADD32R,0.0077X0.0011*%
%ADD33R,0.0098X0.0011*%
%ADD34R,0.0087X0.0011*%
%ADD35R,0.0109X0.0011*%
%ADD36R,0.0131X0.0011*%
%ADD37R,0.0098X0.0011*%
%ADD38R,0.0088X0.0011*%
%ADD39R,0.0142X0.0011*%
%ADD40R,0.0131X0.0011*%
%ADD41R,0.0153X0.0011*%
%ADD42R,0.0164X0.0011*%
%ADD43R,0.0175X0.0011*%
%ADD44R,0.0186X0.0011*%
%ADD45R,0.0109X0.0011*%
%ADD46R,0.0197X0.0011*%
%ADD47R,0.0109X0.0011*%
%ADD48R,0.0208X0.0011*%
%ADD49R,0.0219X0.0011*%
%ADD50R,0.0230X0.0011*%
%ADD51R,0.0230X0.0011*%
%ADD52R,0.0241X0.0011*%
%ADD53R,0.0109X0.0011*%
%ADD54R,0.0241X0.0011*%
%ADD55R,0.0131X0.0011*%
%ADD56R,0.0252X0.0011*%
%ADD57R,0.3062X0.0011*%
%ADD58R,0.3073X0.0011*%
%ADD59R,0.3084X0.0011*%
%ADD60R,0.3106X0.0011*%
%ADD61R,0.0273X0.0011*%
%ADD62R,0.0252X0.0011*%
%ADD63R,0.0273X0.0011*%
%ADD64R,0.0142X0.0011*%
%ADD65R,0.0175X0.0011*%
%ADD66R,0.0175X0.0011*%
%ADD67R,0.0186X0.0011*%
%ADD68R,0.0164X0.0011*%
%ADD69R,0.0153X0.0011*%
%ADD70R,0.0186X0.0011*%
%ADD71R,0.0197X0.0011*%
%ADD72R,0.0219X0.0011*%
%ADD73R,0.0219X0.0011*%
%ADD74R,0.0230X0.0011*%
%ADD75R,0.0251X0.0011*%
%ADD76R,0.0262X0.0011*%
%ADD77R,0.0251X0.0011*%
%ADD78R,0.0262X0.0011*%
%ADD79R,0.0262X0.0011*%
%ADD80R,0.0284X0.0011*%
%ADD81R,0.0295X0.0011*%
%ADD82R,0.0273X0.0011*%
%ADD83R,0.0295X0.0011*%
%ADD84R,0.0273X0.0011*%
%ADD85R,0.0306X0.0011*%
%ADD86R,0.0306X0.0011*%
%ADD87R,0.0284X0.0011*%
%ADD88R,0.0317X0.0011*%
%ADD89R,0.0306X0.0011*%
%ADD90R,0.0328X0.0011*%
%ADD91R,0.0328X0.0011*%
%ADD92R,0.0306X0.0011*%
%ADD93R,0.0339X0.0011*%
%ADD94R,0.0339X0.0011*%
%ADD95R,0.0317X0.0011*%
%ADD96R,0.0350X0.0011*%
%ADD97R,0.0328X0.0011*%
%ADD98R,0.0350X0.0011*%
%ADD99R,0.0361X0.0011*%
%ADD100R,0.0361X0.0011*%
%ADD101R,0.0350X0.0011*%
%ADD102R,0.0350X0.0011*%
%ADD103R,0.0339X0.0011*%
%ADD104R,0.0339X0.0011*%
%ADD105R,0.0328X0.0011*%
%ADD106R,0.0317X0.0011*%
%ADD107R,0.0262X0.0011*%
%ADD108R,0.0230X0.0011*%
%ADD109R,0.0219X0.0011*%
%ADD110R,0.0208X0.0011*%
%ADD111R,0.0186X0.0011*%
%ADD112R,0.0175X0.0011*%
%ADD113R,0.0164X0.0011*%
%ADD114R,0.0153X0.0011*%
%ADD115R,0.1258X0.0011*%
%ADD116R,0.3182X0.0011*%
%ADD117R,0.3182X0.0011*%
%ADD118R,0.3182X0.0011*%
%ADD119R,0.2165X0.0011*%
%ADD120R,0.0131X0.0011*%
%ADD121R,0.0164X0.0011*%
%ADD122R,0.0077X0.0011*%
%ADD123R,0.0066X0.0011*%
%ADD124R,0.0088X0.0011*%
%ADD125R,0.0077X0.0011*%
%ADD126R,0.3073X0.0011*%
%ADD127R,0.3051X0.0011*%
%ADD128R,0.0744X0.0011*%
%ADD129R,0.0755X0.0011*%
%ADD130R,0.0766X0.0011*%
%ADD131R,0.0776X0.0011*%
%ADD132R,0.0787X0.0011*%
%ADD133R,0.0798X0.0011*%
%ADD134R,0.0798X0.0011*%
%ADD135R,0.0809X0.0011*%
%ADD136R,0.0820X0.0011*%
%ADD137R,0.0842X0.0011*%
%ADD138R,0.0842X0.0011*%
%ADD139R,0.0853X0.0011*%
%ADD140R,0.0864X0.0011*%
%ADD141R,0.0886X0.0011*%
%ADD142R,0.0886X0.0011*%
%ADD143R,0.0897X0.0011*%
%ADD144R,0.0908X0.0011*%
%ADD145R,0.0908X0.0011*%
%ADD146R,0.0930X0.0011*%
%ADD147R,0.0941X0.0011*%
%ADD148R,0.0951X0.0011*%
%ADD149R,0.0951X0.0011*%
%ADD150R,0.0962X0.0011*%
%ADD151R,0.0973X0.0011*%
%ADD152R,0.0995X0.0011*%
%ADD153R,0.0995X0.0011*%
%ADD154R,0.1006X0.0011*%
%ADD155R,0.1017X0.0011*%
%ADD156R,0.1039X0.0011*%
%ADD157R,0.1039X0.0011*%
%ADD158R,0.1050X0.0011*%
%ADD159R,0.1061X0.0011*%
%ADD160R,0.1061X0.0011*%
%ADD161R,0.1083X0.0011*%
%ADD162R,0.1094X0.0011*%
%ADD163R,0.1105X0.0011*%
%ADD164R,0.1105X0.0011*%
%ADD165R,0.1126X0.0011*%
%ADD166R,0.1137X0.0011*%
%ADD167R,0.1148X0.0011*%
%ADD168R,0.1148X0.0011*%
%ADD169R,0.1159X0.0011*%
%ADD170R,0.1170X0.0011*%
%ADD171R,0.1181X0.0011*%
%ADD172R,0.1192X0.0011*%
%ADD173R,0.1192X0.0011*%
%ADD174R,0.1203X0.0011*%
%ADD175R,0.1214X0.0011*%
%ADD176R,0.1214X0.0011*%
%ADD177R,0.1236X0.0011*%
%ADD178R,0.0984X0.0011*%
%ADD179R,0.0984X0.0011*%
%ADD180R,0.0208X0.0011*%
%ADD181R,0.0995X0.0011*%
%ADD182R,0.0995X0.0011*%
%ADD183R,0.1006X0.0011*%
%ADD184R,0.1006X0.0011*%
%ADD185R,0.1006X0.0011*%
%ADD186R,0.0547X0.0011*%
%ADD187R,0.0437X0.0011*%
%ADD188R,0.0536X0.0011*%
%ADD189R,0.0405X0.0011*%
%ADD190R,0.0536X0.0011*%
%ADD191R,0.0372X0.0011*%
%ADD192R,0.0547X0.0011*%
%ADD193R,0.0569X0.0011*%
%ADD194R,0.0481X0.0011*%
%ADD195R,0.0066X0.0011*%
%ADD196R,0.0459X0.0011*%
%ADD197R,0.0066X0.0011*%
%ADD198R,0.0437X0.0011*%
%ADD199R,0.0394X0.0011*%
%ADD200R,0.0383X0.0011*%
%ADD201R,0.0372X0.0011*%
%ADD202R,0.0066X0.0011*%
%ADD203R,0.0317X0.0011*%
%ADD204R,0.0011X0.0011*%
%ADD205R,0.0055X0.0011*%
%ADD206R,0.0295X0.0011*%
%ADD207R,0.0295X0.0011*%
%ADD208R,0.0142X0.0011*%
%ADD209R,0.0055X0.0011*%
%ADD210R,0.0241X0.0011*%
%ADD211R,0.0383X0.0011*%
%ADD212R,0.0416X0.0011*%
%ADD213R,0.0426X0.0011*%
%ADD214R,0.0448X0.0011*%
%ADD215R,0.0459X0.0011*%
%ADD216R,0.0470X0.0011*%
%ADD217R,0.0492X0.0011*%
%ADD218R,0.0503X0.0011*%
%ADD219R,0.0197X0.0011*%
%ADD220R,0.0197X0.0011*%
%ADD221R,0.0055X0.0011*%
%ADD222R,0.0241X0.0011*%
%ADD223R,0.0962X0.0011*%
%ADD224R,0.0536X0.0011*%
%ADD225R,0.0962X0.0011*%
%ADD226R,0.0951X0.0011*%
%ADD227R,0.0558X0.0011*%
%ADD228R,0.0930X0.0011*%
%ADD229R,0.0897X0.0011*%
%ADD230R,0.0875X0.0011*%
%ADD231R,0.0842X0.0011*%
%ADD232R,0.0558X0.0011*%
%ADD233R,0.0820X0.0011*%
%ADD234R,0.0755X0.0011*%
%ADD235R,0.0733X0.0011*%
%ADD236R,0.0525X0.0011*%
%ADD237R,0.0722X0.0011*%
%ADD238R,0.0525X0.0011*%
%ADD239R,0.0700X0.0011*%
%ADD240R,0.0689X0.0011*%
%ADD241R,0.0514X0.0011*%
%ADD242R,0.0678X0.0011*%
%ADD243R,0.0514X0.0011*%
%ADD244R,0.0656X0.0011*%
%ADD245R,0.0503X0.0011*%
%ADD246R,0.0656X0.0011*%
%ADD247R,0.0645X0.0011*%
%ADD248R,0.0634X0.0011*%
%ADD249R,0.0481X0.0011*%
%ADD250R,0.0634X0.0011*%
%ADD251R,0.0623X0.0011*%
%ADD252R,0.0470X0.0011*%
%ADD253R,0.0623X0.0011*%
%ADD254R,0.0470X0.0011*%
%ADD255R,0.0623X0.0011*%
%ADD256R,0.0612X0.0011*%
%ADD257R,0.0612X0.0011*%
%ADD258R,0.0623X0.0011*%
%ADD259R,0.0437X0.0011*%
%ADD260R,0.0427X0.0011*%
%ADD261R,0.0416X0.0011*%
%ADD262R,0.0416X0.0011*%
%ADD263R,0.0667X0.0011*%
%ADD264R,0.0689X0.0011*%
%ADD265R,0.0711X0.0011*%
%ADD266R,0.1105X0.0011*%
%ADD267R,0.1105X0.0011*%
%ADD268R,0.0426X0.0011*%
%ADD269R,0.1094X0.0011*%
%ADD270R,0.0481X0.0011*%
%ADD271R,0.1083X0.0011*%
%ADD272R,0.0492X0.0011*%
%ADD273R,0.1072X0.0011*%
%ADD274R,0.1050X0.0011*%
%ADD275R,0.0941X0.0011*%
%ADD276R,0.1039X0.0011*%
%ADD277R,0.1028X0.0011*%
%ADD278R,0.0919X0.0011*%
%ADD279R,0.1028X0.0011*%
%ADD280R,0.0919X0.0011*%
%ADD281R,0.0919X0.0011*%
%ADD282R,0.0908X0.0011*%
%ADD283R,0.0897X0.0011*%
%ADD284R,0.0940X0.0011*%
%ADD285R,0.0875X0.0011*%
%ADD286R,0.0886X0.0011*%
%ADD287R,0.0919X0.0011*%
%ADD288R,0.0875X0.0011*%
%ADD289R,0.0930X0.0011*%
%ADD290R,0.0973X0.0011*%
%ADD291R,0.1017X0.0011*%
%ADD292R,0.1061X0.0011*%
%ADD293R,0.1126X0.0011*%
%ADD294R,0.1290X0.0011*%
%ADD295R,0.1345X0.0011*%
%ADD296R,0.1498X0.0011*%
%ADD297R,0.1498X0.0011*%
%ADD298R,0.1498X0.0011*%
%ADD299R,0.1498X0.0011*%
%ADD300R,0.0416X0.0011*%
%ADD301R,0.0558X0.0011*%
%ADD302R,0.0591X0.0011*%
%ADD303R,0.0612X0.0011*%
%ADD304R,0.0634X0.0011*%
%ADD305R,0.0667X0.0011*%
%ADD306R,0.0361X0.0011*%
%ADD307R,0.0700X0.0011*%
%ADD308R,0.0722X0.0011*%
%ADD309R,0.0733X0.0011*%
%ADD310R,0.0755X0.0011*%
%ADD311R,0.0459X0.0011*%
%ADD312R,0.0766X0.0011*%
%ADD313R,0.0766X0.0011*%
%ADD314R,0.0503X0.0011*%
%ADD315R,0.0525X0.0011*%
%ADD316R,0.0514X0.0011*%
%ADD317R,0.0580X0.0011*%
%ADD318R,0.0547X0.0011*%
%ADD319R,0.0405X0.0011*%
%ADD320R,0.0405X0.0011*%
%ADD321R,0.0372X0.0011*%
%ADD322R,0.0558X0.0011*%
%ADD323R,0.0591X0.0011*%
%ADD324R,0.0601X0.0011*%
%ADD325R,0.0601X0.0011*%
%ADD326R,0.1072X0.0011*%
%ADD327R,0.0405X0.0011*%
%ADD328R,0.1531X0.0011*%
%ADD329R,0.1542X0.0011*%
%ADD330R,0.1553X0.0011*%
%ADD331R,0.1553X0.0011*%
%ADD332R,0.1564X0.0011*%
%ADD333R,0.1575X0.0011*%
%ADD334R,0.1564X0.0011*%
%ADD335R,0.1575X0.0011*%
%ADD336R,0.1564X0.0011*%
%ADD337R,0.1542X0.0011*%
%ADD338R,0.1520X0.0011*%
%ADD339R,0.1531X0.0011*%
%ADD340R,0.1531X0.0011*%
%ADD341R,0.1301X0.0011*%
%ADD342R,0.1280X0.0011*%
%ADD343R,0.1280X0.0011*%
%ADD344R,0.1269X0.0011*%
%ADD345R,0.1269X0.0011*%
%ADD346R,0.1258X0.0011*%
%ADD347R,0.1258X0.0011*%
%ADD348R,0.1247X0.0011*%
%ADD349R,0.1225X0.0011*%
%ADD350R,0.1028X0.0011*%
%ADD351R,0.0864X0.0011*%
%ADD352R,0.0831X0.0011*%
%ADD353R,0.0448X0.0011*%
%ADD354R,0.0394X0.0011*%
%ADD355R,0.0383X0.0011*%
%ADD356R,0.0033X0.0011*%
%ADD357R,0.0284X0.0011*%
%ADD358R,0.0033X0.0011*%
%ADD359R,0.0372X0.0011*%
%ADD360R,0.0077X0.0011*%
%ADD361R,0.0361X0.0011*%
%ADD362R,0.0142X0.0011*%
%ADD363R,0.1236X0.0011*%
%ADD364R,0.1323X0.0011*%
%ADD365R,0.1345X0.0011*%
%ADD366R,0.1367X0.0011*%
%ADD367R,0.1389X0.0011*%
%ADD368R,0.1389X0.0011*%
%ADD369R,0.0864X0.0011*%
%ADD370R,0.0853X0.0011*%
%ADD371R,0.0820X0.0011*%
%ADD372R,0.0776X0.0011*%
%ADD373R,0.0711X0.0011*%
%ADD374R,0.0678X0.0011*%
%ADD375R,0.0470X0.0011*%
%ADD376R,0.0580X0.0011*%
%ADD377R,0.0569X0.0011*%
%ADD378R,0.0153X0.0011*%
%ADD379R,0.0448X0.0011*%
%ADD380R,0.0284X0.0011*%
%ADD381R,0.0612X0.0011*%
%ADD382R,0.0492X0.0011*%
%ADD383R,0.0033X0.0011*%
%ADD384R,0.0569X0.0011*%
%ADD385R,0.0569X0.0011*%
%ADD386R,0.0744X0.0011*%
%ADD387R,0.0809X0.0011*%
%ADD388R,0.0842X0.0011*%
%ADD389R,0.0055X0.0011*%
D10*
X003813Y004826D02*
X003813Y005133D01*
X004044Y004979D02*
X004044Y004826D01*
X004274Y004826D02*
X003813Y004826D01*
X002301Y005532D02*
X002301Y005839D01*
X002224Y005916D01*
X001994Y005916D01*
X001994Y005456D01*
X002224Y005456D01*
X002301Y005532D01*
X001841Y005456D02*
X001841Y005916D01*
X001534Y005916D02*
X001841Y005456D01*
X001534Y005456D02*
X001534Y005916D01*
X001380Y005839D02*
X001304Y005916D01*
X001150Y005916D01*
X001073Y005839D01*
X001073Y005532D01*
X001150Y005456D01*
X001304Y005456D01*
X001380Y005532D01*
X001380Y005686D01*
X001227Y005686D01*
X000920Y005839D02*
X000843Y005916D01*
X000613Y005916D01*
X000613Y005456D01*
X000843Y005456D01*
X000920Y005532D01*
X000920Y005839D01*
X002534Y006971D02*
X002534Y007202D01*
X002611Y007278D01*
X002764Y007278D01*
X002841Y007202D01*
X002841Y006971D01*
X002994Y006971D02*
X002534Y006971D01*
X002841Y007125D02*
X002994Y007278D01*
X002994Y007432D02*
X002994Y007739D01*
X002918Y007892D02*
X002994Y007969D01*
X002994Y008122D01*
X002918Y008199D01*
X002841Y008199D01*
X002764Y008122D01*
X002764Y007969D01*
X002687Y007892D01*
X002611Y007892D01*
X002534Y007969D01*
X002534Y008122D01*
X002611Y008199D01*
X002534Y008353D02*
X002994Y008353D01*
X002994Y008659D01*
X002764Y008506D02*
X002764Y008353D01*
X002534Y008353D02*
X002534Y008659D01*
X002534Y008813D02*
X002534Y009120D01*
X002534Y008966D02*
X002994Y008966D01*
X003890Y008085D02*
X003813Y008009D01*
X003813Y007855D01*
X003890Y007778D01*
X003967Y007778D01*
X004044Y007855D01*
X004044Y008009D01*
X004120Y008085D01*
X004197Y008085D01*
X004274Y008009D01*
X004274Y007855D01*
X004197Y007778D01*
X005172Y007890D02*
X005248Y007813D01*
X005555Y007813D01*
X005632Y007890D01*
X005632Y008044D01*
X005555Y008120D01*
X005248Y008120D01*
X005172Y008044D01*
X005172Y007890D01*
X005248Y007660D02*
X005172Y007583D01*
X005172Y007430D01*
X005248Y007353D01*
X005555Y007353D01*
X005632Y007430D01*
X005632Y007583D01*
X005555Y007660D01*
X005248Y007660D01*
X005248Y007200D02*
X005325Y007200D01*
X005402Y007123D01*
X005402Y006893D01*
X005402Y007123D02*
X005479Y007200D01*
X005555Y007200D01*
X005632Y007123D01*
X005632Y006893D01*
X005172Y006893D01*
X005172Y007123D01*
X005248Y007200D01*
X005172Y008274D02*
X005172Y008581D01*
X005172Y008427D02*
X005632Y008427D01*
X005555Y008734D02*
X005248Y008734D01*
X005172Y008811D01*
X005172Y008964D01*
X005248Y009041D01*
X005555Y008734D01*
X005632Y008811D01*
X005632Y008964D01*
X005555Y009041D01*
X005248Y009041D01*
X003396Y010153D02*
X003396Y010460D01*
X003396Y010306D02*
X002936Y010306D01*
X003089Y010153D01*
X002116Y010153D02*
X001809Y010460D01*
X001733Y010460D01*
X001656Y010383D01*
X001656Y010229D01*
X001733Y010153D01*
X002116Y010153D02*
X002116Y010460D01*
X004404Y011812D02*
X004481Y011735D01*
X004557Y011735D01*
X004634Y011812D01*
X004634Y011965D01*
X004711Y012042D01*
X004788Y012042D01*
X004864Y011965D01*
X004864Y011812D01*
X004788Y011735D01*
X004404Y011812D02*
X004404Y011965D01*
X004481Y012042D01*
X004404Y012196D02*
X004864Y012196D01*
X004711Y012349D01*
X004864Y012502D01*
X004404Y012502D01*
X004404Y012656D02*
X004404Y012886D01*
X004481Y012963D01*
X004788Y012963D01*
X004864Y012886D01*
X004864Y012656D01*
X004404Y012656D01*
X004373Y014156D02*
X004603Y014156D01*
X004680Y014233D01*
X004680Y014540D01*
X004603Y014617D01*
X004373Y014617D01*
X004373Y014156D01*
X004833Y014233D02*
X004910Y014156D01*
X005064Y014156D01*
X005140Y014233D01*
X005140Y014310D01*
X005064Y014387D01*
X004987Y014387D01*
X005064Y014387D02*
X005140Y014463D01*
X005140Y014540D01*
X005064Y014617D01*
X004910Y014617D01*
X004833Y014540D01*
X005294Y014617D02*
X005294Y014310D01*
X005447Y014156D01*
X005601Y014310D01*
X005601Y014617D01*
X005754Y014540D02*
X005831Y014617D01*
X005984Y014617D01*
X006061Y014540D01*
X006061Y014463D01*
X005984Y014387D01*
X006061Y014310D01*
X006061Y014233D01*
X005984Y014156D01*
X005831Y014156D01*
X005754Y014233D01*
X005908Y014387D02*
X005984Y014387D01*
X006214Y014080D02*
X006521Y014080D01*
X006675Y014233D02*
X006752Y014156D01*
X006905Y014156D01*
X006982Y014233D01*
X006982Y014310D01*
X006905Y014387D01*
X006752Y014387D01*
X006675Y014463D01*
X006675Y014540D01*
X006752Y014617D01*
X006905Y014617D01*
X006982Y014540D01*
X007135Y014617D02*
X007442Y014617D01*
X007289Y014617D02*
X007289Y014156D01*
X007596Y014156D02*
X007596Y014617D01*
X007749Y014463D01*
X007903Y014617D01*
X007903Y014156D01*
X008979Y014156D02*
X008979Y014617D01*
X009133Y014463D01*
X009286Y014617D01*
X009286Y014156D01*
X009440Y014233D02*
X009516Y014156D01*
X009670Y014156D01*
X009747Y014233D01*
X009900Y014233D02*
X009977Y014156D01*
X010130Y014156D01*
X010207Y014233D01*
X010207Y014540D01*
X010130Y014617D01*
X009977Y014617D01*
X009900Y014540D01*
X009900Y014233D01*
X009747Y014540D02*
X009670Y014617D01*
X009516Y014617D01*
X009440Y014540D01*
X009440Y014233D01*
X006476Y017759D02*
X006323Y017759D01*
X006246Y017835D01*
X006093Y017835D02*
X006093Y018219D01*
X006246Y018142D02*
X006246Y018066D01*
X006323Y017989D01*
X006476Y017989D01*
X006553Y017912D01*
X006553Y017835D01*
X006476Y017759D01*
X006093Y017835D02*
X006016Y017759D01*
X005863Y017759D01*
X005786Y017835D01*
X005786Y018219D01*
X005632Y018142D02*
X005632Y018066D01*
X005556Y017989D01*
X005325Y017989D01*
X005172Y017912D02*
X005172Y018219D01*
X005325Y018219D02*
X005556Y018219D01*
X005632Y018142D01*
X005556Y017989D02*
X005632Y017912D01*
X005632Y017835D01*
X005556Y017759D01*
X005325Y017759D01*
X005325Y018219D01*
X005172Y017912D02*
X005019Y017759D01*
X004865Y017912D01*
X004865Y018219D01*
X006246Y018142D02*
X006323Y018219D01*
X006476Y018219D01*
X006553Y018142D01*
X005116Y020259D02*
X004809Y020259D01*
X005116Y020566D01*
X005116Y020642D01*
X005039Y020719D01*
X004886Y020719D01*
X004809Y020642D01*
X004656Y020642D02*
X004579Y020719D01*
X004349Y020719D01*
X004349Y020259D01*
X004579Y020259D01*
X004656Y020335D01*
X004656Y020642D01*
X004195Y020719D02*
X003888Y020719D01*
X003888Y020259D01*
X004195Y020259D01*
X004042Y020489D02*
X003888Y020489D01*
X003735Y020259D02*
X003428Y020259D01*
X003428Y020719D01*
X002754Y020259D02*
X002447Y020259D01*
X002600Y020259D02*
X002600Y020719D01*
X002447Y020566D01*
X002294Y020642D02*
X002217Y020719D01*
X001987Y020719D01*
X001987Y020259D01*
X002217Y020259D01*
X002294Y020335D01*
X002294Y020642D01*
X001833Y020719D02*
X001526Y020719D01*
X001526Y020259D01*
X001833Y020259D01*
X001680Y020489D02*
X001526Y020489D01*
X001373Y020259D02*
X001066Y020259D01*
X001066Y020719D01*
X001725Y015022D02*
X002032Y014715D01*
X002109Y014792D01*
X002109Y014945D01*
X002032Y015022D01*
X001725Y015022D01*
X001648Y014945D01*
X001648Y014792D01*
X001725Y014715D01*
X002032Y014715D01*
X002109Y014562D02*
X002109Y014255D01*
X002109Y014408D02*
X001648Y014408D01*
X001802Y014255D01*
X002928Y014430D02*
X003004Y014353D01*
X003081Y014353D01*
X003158Y014430D01*
X003158Y014660D01*
X003311Y014660D02*
X003004Y014660D01*
X002928Y014583D01*
X002928Y014430D01*
X003311Y014353D02*
X003388Y014430D01*
X003388Y014583D01*
X003311Y014660D01*
X002534Y007739D02*
X002534Y007432D01*
X002994Y007432D01*
X002764Y007432D02*
X002764Y007585D01*
X007070Y005601D02*
X007070Y005294D01*
X007223Y005141D01*
X007377Y005294D01*
X007377Y005601D01*
X007530Y005524D02*
X007530Y005448D01*
X007607Y005371D01*
X007760Y005371D01*
X007837Y005294D01*
X007837Y005217D01*
X007760Y005141D01*
X007607Y005141D01*
X007530Y005217D01*
X007530Y005524D02*
X007607Y005601D01*
X007760Y005601D01*
X007837Y005524D01*
X007991Y005601D02*
X007991Y005217D01*
X008067Y005141D01*
X008221Y005141D01*
X008297Y005217D01*
X008297Y005601D01*
X008451Y005601D02*
X008681Y005601D01*
X008758Y005524D01*
X008758Y005371D01*
X008681Y005294D01*
X008451Y005294D01*
X008451Y005141D02*
X008451Y005601D01*
X009782Y001428D02*
X009629Y001274D01*
X009782Y001428D02*
X009782Y000967D01*
X009629Y000967D02*
X009936Y000967D01*
X014944Y005141D02*
X015174Y005141D01*
X015251Y005217D01*
X015251Y005524D01*
X015174Y005601D01*
X014944Y005601D01*
X014944Y005141D01*
X015404Y005217D02*
X015481Y005141D01*
X015634Y005141D01*
X015711Y005217D01*
X015711Y005294D01*
X015634Y005371D01*
X015558Y005371D01*
X015634Y005371D02*
X015711Y005448D01*
X015711Y005524D01*
X015634Y005601D01*
X015481Y005601D01*
X015404Y005524D01*
X015865Y005601D02*
X015865Y005294D01*
X016018Y005141D01*
X016171Y005294D01*
X016171Y005601D01*
X016325Y005524D02*
X016402Y005601D01*
X016555Y005601D01*
X016632Y005524D01*
X016632Y005448D01*
X016555Y005371D01*
X016632Y005294D01*
X016632Y005217D01*
X016555Y005141D01*
X016402Y005141D01*
X016325Y005217D01*
X016478Y005371D02*
X016555Y005371D01*
X016555Y007149D02*
X016402Y007149D01*
X016325Y007225D01*
X016325Y007379D02*
X016478Y007455D01*
X016555Y007455D01*
X016632Y007379D01*
X016632Y007225D01*
X016555Y007149D01*
X016325Y007379D02*
X016325Y007609D01*
X016632Y007609D01*
X016171Y007609D02*
X016171Y007302D01*
X016018Y007149D01*
X015865Y007302D01*
X015865Y007609D01*
X015558Y007609D02*
X015558Y007149D01*
X015711Y007149D02*
X015404Y007149D01*
X015251Y007225D02*
X015251Y007532D01*
X015174Y007609D01*
X014944Y007609D01*
X014944Y007149D01*
X015174Y007149D01*
X015251Y007225D01*
X015404Y007455D02*
X015558Y007609D01*
X019117Y007455D02*
X019117Y007149D01*
X019117Y007379D02*
X019424Y007379D01*
X019424Y007455D02*
X019270Y007609D01*
X019117Y007455D01*
X019424Y007455D02*
X019424Y007149D01*
X019577Y007225D02*
X019654Y007149D01*
X019808Y007149D01*
X019884Y007225D01*
X019884Y007302D01*
X019808Y007379D01*
X019731Y007379D01*
X019808Y007379D02*
X019884Y007455D01*
X019884Y007532D01*
X019808Y007609D01*
X019654Y007609D01*
X019577Y007532D01*
X020038Y007609D02*
X020038Y007302D01*
X020191Y007149D01*
X020345Y007302D01*
X020345Y007609D01*
X020498Y007532D02*
X020575Y007609D01*
X020728Y007609D01*
X020805Y007532D01*
X020805Y007455D01*
X020728Y007379D01*
X020805Y007302D01*
X020805Y007225D01*
X020728Y007149D01*
X020575Y007149D01*
X020498Y007225D01*
X020652Y007379D02*
X020728Y007379D01*
X020805Y005601D02*
X020498Y005601D01*
X020498Y005371D01*
X020652Y005448D01*
X020728Y005448D01*
X020805Y005371D01*
X020805Y005217D01*
X020728Y005141D01*
X020575Y005141D01*
X020498Y005217D01*
X020345Y005294D02*
X020345Y005601D01*
X020345Y005294D02*
X020191Y005141D01*
X020038Y005294D01*
X020038Y005601D01*
X019731Y005601D02*
X019731Y005141D01*
X019884Y005141D02*
X019577Y005141D01*
X019424Y005141D02*
X019424Y005448D01*
X019270Y005601D01*
X019117Y005448D01*
X019117Y005141D01*
X019117Y005371D02*
X019424Y005371D01*
X019577Y005448D02*
X019731Y005601D01*
X025574Y001351D02*
X025574Y001274D01*
X025650Y001198D01*
X025804Y001198D01*
X025881Y001121D01*
X025881Y001044D01*
X025804Y000967D01*
X025650Y000967D01*
X025574Y001044D01*
X025574Y001121D01*
X025650Y001198D01*
X025804Y001198D02*
X025881Y001274D01*
X025881Y001351D01*
X025804Y001428D01*
X025650Y001428D01*
X025574Y001351D01*
X026034Y001351D02*
X026111Y001428D01*
X026264Y001428D01*
X026341Y001351D01*
X026341Y001274D01*
X026264Y001198D01*
X026341Y001121D01*
X026341Y001044D01*
X026264Y000967D01*
X026111Y000967D01*
X026034Y001044D01*
X026188Y001198D02*
X026264Y001198D01*
X032247Y005456D02*
X032247Y005763D01*
X032400Y005916D01*
X032554Y005763D01*
X032554Y005456D01*
X032707Y005532D02*
X032784Y005456D01*
X032938Y005456D01*
X033014Y005532D01*
X033014Y005686D01*
X032861Y005686D01*
X033014Y005839D02*
X032938Y005916D01*
X032784Y005916D01*
X032707Y005839D01*
X032707Y005532D01*
X032554Y005686D02*
X032247Y005686D01*
X033168Y005456D02*
X033168Y005916D01*
X033475Y005456D01*
X033475Y005916D01*
X033628Y005916D02*
X033858Y005916D01*
X033935Y005839D01*
X033935Y005532D01*
X033858Y005456D01*
X033628Y005456D01*
X033628Y005916D01*
X027120Y010160D02*
X026966Y010314D01*
X027043Y010314D02*
X026813Y010314D01*
X026813Y010160D02*
X026813Y010621D01*
X027043Y010621D01*
X027120Y010544D01*
X027120Y010391D01*
X027043Y010314D01*
X026659Y010084D02*
X026352Y010084D01*
X026122Y010314D02*
X025892Y010314D01*
X025892Y010160D02*
X025892Y010621D01*
X026122Y010621D01*
X026199Y010544D01*
X026199Y010391D01*
X026122Y010314D01*
X025738Y010237D02*
X025738Y010621D01*
X025431Y010621D02*
X025431Y010237D01*
X025508Y010160D01*
X025662Y010160D01*
X025738Y010237D01*
X025278Y010237D02*
X025201Y010160D01*
X025048Y010160D01*
X024971Y010237D01*
X024818Y010314D02*
X024818Y010621D01*
X024971Y010544D02*
X024971Y010467D01*
X025048Y010391D01*
X025201Y010391D01*
X025278Y010314D01*
X025278Y010237D01*
X025278Y010544D02*
X025201Y010621D01*
X025048Y010621D01*
X024971Y010544D01*
X024818Y010314D02*
X024664Y010160D01*
X024511Y010314D01*
X024511Y010621D01*
X026810Y014255D02*
X026963Y014408D01*
X026963Y014715D01*
X027117Y014715D02*
X027347Y014715D01*
X027424Y014638D01*
X027424Y014562D01*
X027347Y014485D01*
X027117Y014485D01*
X027347Y014485D02*
X027424Y014408D01*
X027424Y014332D01*
X027347Y014255D01*
X027117Y014255D01*
X027117Y014715D01*
X026656Y014715D02*
X026656Y014408D01*
X026810Y014255D01*
X027577Y014255D02*
X027577Y014562D01*
X027731Y014715D01*
X027884Y014562D01*
X027884Y014255D01*
X027884Y014485D02*
X027577Y014485D01*
X028038Y014715D02*
X028344Y014715D01*
X028191Y014715D02*
X028191Y014255D01*
X023817Y018960D02*
X023510Y018960D01*
X023510Y019420D01*
X023050Y019420D02*
X023050Y018960D01*
X023357Y018960D01*
X022896Y018960D02*
X022896Y019266D01*
X022743Y019420D01*
X022589Y019266D01*
X022589Y018960D01*
X022436Y018960D02*
X022282Y019113D01*
X022129Y018960D01*
X022129Y019420D01*
X022436Y019420D02*
X022436Y018960D01*
X022589Y019190D02*
X022896Y019190D01*
X022946Y020940D02*
X022793Y020940D01*
X022716Y021017D01*
X022716Y021324D01*
X022793Y021400D01*
X022946Y021400D01*
X023023Y021324D01*
X023023Y021017D01*
X022946Y020940D01*
X023177Y020940D02*
X023177Y021400D01*
X023483Y021400D01*
X023637Y021400D02*
X023944Y021400D01*
X023790Y021170D02*
X023637Y021170D01*
X023637Y020940D02*
X023637Y021400D01*
X023330Y021170D02*
X023177Y021170D01*
X030755Y021017D02*
X030832Y020940D01*
X030985Y020940D01*
X031062Y021017D01*
X031062Y021324D01*
X030985Y021400D01*
X030832Y021400D01*
X030755Y021324D01*
X030755Y021017D01*
X031216Y020940D02*
X031216Y021400D01*
X031523Y020940D01*
X031523Y021400D01*
X034325Y021476D02*
X034325Y021246D01*
X034786Y021246D01*
X034786Y021476D01*
X034709Y021553D01*
X034402Y021553D01*
X034325Y021476D01*
X034325Y021093D02*
X034786Y021093D01*
X034325Y020786D01*
X034786Y020786D01*
X034709Y020632D02*
X034555Y020632D01*
X034555Y020479D01*
X034402Y020632D02*
X034325Y020556D01*
X034325Y020402D01*
X034402Y020325D01*
X034709Y020325D01*
X034786Y020402D01*
X034786Y020556D01*
X034709Y020632D01*
X034709Y020172D02*
X034402Y020172D01*
X034325Y020095D01*
X034325Y019865D01*
X034786Y019865D01*
X034786Y020095D01*
X034709Y020172D01*
D11*
X032275Y017877D02*
X032277Y017950D01*
X032283Y018023D01*
X032293Y018095D01*
X032307Y018167D01*
X032324Y018238D01*
X032346Y018308D01*
X032371Y018377D01*
X032400Y018444D01*
X032432Y018509D01*
X032468Y018573D01*
X032508Y018635D01*
X032550Y018694D01*
X032596Y018751D01*
X032645Y018805D01*
X032697Y018857D01*
X032751Y018906D01*
X032808Y018952D01*
X032867Y018994D01*
X032929Y019034D01*
X032993Y019070D01*
X033058Y019102D01*
X033125Y019131D01*
X033194Y019156D01*
X033264Y019178D01*
X033335Y019195D01*
X033407Y019209D01*
X033479Y019219D01*
X033552Y019225D01*
X033625Y019227D01*
X033698Y019225D01*
X033771Y019219D01*
X033843Y019209D01*
X033915Y019195D01*
X033986Y019178D01*
X034056Y019156D01*
X034125Y019131D01*
X034192Y019102D01*
X034257Y019070D01*
X034321Y019034D01*
X034383Y018994D01*
X034442Y018952D01*
X034499Y018906D01*
X034553Y018857D01*
X034605Y018805D01*
X034654Y018751D01*
X034700Y018694D01*
X034742Y018635D01*
X034782Y018573D01*
X034818Y018509D01*
X034850Y018444D01*
X034879Y018377D01*
X034904Y018308D01*
X034926Y018238D01*
X034943Y018167D01*
X034957Y018095D01*
X034967Y018023D01*
X034973Y017950D01*
X034975Y017877D01*
X034973Y017804D01*
X034967Y017731D01*
X034957Y017659D01*
X034943Y017587D01*
X034926Y017516D01*
X034904Y017446D01*
X034879Y017377D01*
X034850Y017310D01*
X034818Y017245D01*
X034782Y017181D01*
X034742Y017119D01*
X034700Y017060D01*
X034654Y017003D01*
X034605Y016949D01*
X034553Y016897D01*
X034499Y016848D01*
X034442Y016802D01*
X034383Y016760D01*
X034321Y016720D01*
X034257Y016684D01*
X034192Y016652D01*
X034125Y016623D01*
X034056Y016598D01*
X033986Y016576D01*
X033915Y016559D01*
X033843Y016545D01*
X033771Y016535D01*
X033698Y016529D01*
X033625Y016527D01*
X033552Y016529D01*
X033479Y016535D01*
X033407Y016545D01*
X033335Y016559D01*
X033264Y016576D01*
X033194Y016598D01*
X033125Y016623D01*
X033058Y016652D01*
X032993Y016684D01*
X032929Y016720D01*
X032867Y016760D01*
X032808Y016802D01*
X032751Y016848D01*
X032697Y016897D01*
X032645Y016949D01*
X032596Y017003D01*
X032550Y017060D01*
X032508Y017119D01*
X032468Y017181D01*
X032432Y017245D01*
X032400Y017310D01*
X032371Y017377D01*
X032346Y017446D01*
X032324Y017516D01*
X032307Y017587D01*
X032293Y017659D01*
X032283Y017731D01*
X032277Y017804D01*
X032275Y017877D01*
X026497Y013132D02*
X026185Y013132D01*
X026185Y011991D01*
X026497Y011991D01*
X026497Y013132D01*
X024550Y012914D02*
X024550Y012603D01*
X023408Y012603D01*
X023408Y012914D01*
X024550Y012914D01*
X024550Y014217D02*
X023408Y014217D01*
X023408Y014529D01*
X024550Y014529D01*
X024550Y014217D01*
X024156Y016894D02*
X023014Y016894D01*
X023014Y017206D01*
X024156Y017206D01*
X024156Y016894D01*
X019499Y014564D02*
X019499Y013945D01*
X019145Y014564D02*
X018734Y014564D01*
X018380Y014564D02*
X018380Y013945D01*
X018630Y012295D02*
X019249Y012295D01*
X018630Y011940D02*
X018630Y011529D01*
X018630Y011175D02*
X019249Y011175D01*
X015430Y013498D02*
X014812Y013498D01*
X014812Y013852D02*
X014812Y014263D01*
X014812Y014617D02*
X015430Y014617D01*
X014849Y012728D02*
X014211Y012728D01*
X014849Y012365D02*
X014849Y011971D01*
X014849Y011608D02*
X014211Y011608D01*
X014101Y007885D02*
X013463Y007885D01*
X013463Y007522D02*
X013463Y007129D01*
X013463Y006766D02*
X014101Y006766D01*
X014101Y005877D02*
X013463Y005877D01*
X013463Y005514D02*
X013463Y005121D01*
X013463Y004758D02*
X014101Y004758D01*
X021613Y004758D02*
X022251Y004758D01*
X022251Y005121D02*
X022251Y005514D01*
X022251Y005877D02*
X021613Y005877D01*
X021613Y006766D02*
X022251Y006766D01*
X022251Y007129D02*
X022251Y007522D01*
X022251Y007885D02*
X021613Y007885D01*
X032275Y002129D02*
X032277Y002202D01*
X032283Y002275D01*
X032293Y002347D01*
X032307Y002419D01*
X032324Y002490D01*
X032346Y002560D01*
X032371Y002629D01*
X032400Y002696D01*
X032432Y002761D01*
X032468Y002825D01*
X032508Y002887D01*
X032550Y002946D01*
X032596Y003003D01*
X032645Y003057D01*
X032697Y003109D01*
X032751Y003158D01*
X032808Y003204D01*
X032867Y003246D01*
X032929Y003286D01*
X032993Y003322D01*
X033058Y003354D01*
X033125Y003383D01*
X033194Y003408D01*
X033264Y003430D01*
X033335Y003447D01*
X033407Y003461D01*
X033479Y003471D01*
X033552Y003477D01*
X033625Y003479D01*
X033698Y003477D01*
X033771Y003471D01*
X033843Y003461D01*
X033915Y003447D01*
X033986Y003430D01*
X034056Y003408D01*
X034125Y003383D01*
X034192Y003354D01*
X034257Y003322D01*
X034321Y003286D01*
X034383Y003246D01*
X034442Y003204D01*
X034499Y003158D01*
X034553Y003109D01*
X034605Y003057D01*
X034654Y003003D01*
X034700Y002946D01*
X034742Y002887D01*
X034782Y002825D01*
X034818Y002761D01*
X034850Y002696D01*
X034879Y002629D01*
X034904Y002560D01*
X034926Y002490D01*
X034943Y002419D01*
X034957Y002347D01*
X034967Y002275D01*
X034973Y002202D01*
X034975Y002129D01*
X034973Y002056D01*
X034967Y001983D01*
X034957Y001911D01*
X034943Y001839D01*
X034926Y001768D01*
X034904Y001698D01*
X034879Y001629D01*
X034850Y001562D01*
X034818Y001497D01*
X034782Y001433D01*
X034742Y001371D01*
X034700Y001312D01*
X034654Y001255D01*
X034605Y001201D01*
X034553Y001149D01*
X034499Y001100D01*
X034442Y001054D01*
X034383Y001012D01*
X034321Y000972D01*
X034257Y000936D01*
X034192Y000904D01*
X034125Y000875D01*
X034056Y000850D01*
X033986Y000828D01*
X033915Y000811D01*
X033843Y000797D01*
X033771Y000787D01*
X033698Y000781D01*
X033625Y000779D01*
X033552Y000781D01*
X033479Y000787D01*
X033407Y000797D01*
X033335Y000811D01*
X033264Y000828D01*
X033194Y000850D01*
X033125Y000875D01*
X033058Y000904D01*
X032993Y000936D01*
X032929Y000972D01*
X032867Y001012D01*
X032808Y001054D01*
X032751Y001100D01*
X032697Y001149D01*
X032645Y001201D01*
X032596Y001255D01*
X032550Y001312D01*
X032508Y001371D01*
X032468Y001433D01*
X032432Y001497D01*
X032400Y001562D01*
X032371Y001629D01*
X032346Y001698D01*
X032324Y001768D01*
X032307Y001839D01*
X032293Y001911D01*
X032283Y001983D01*
X032277Y002056D01*
X032275Y002129D01*
X008003Y017951D02*
X008003Y018589D01*
X006884Y018589D02*
X006884Y017951D01*
X000779Y017877D02*
X000781Y017950D01*
X000787Y018023D01*
X000797Y018095D01*
X000811Y018167D01*
X000828Y018238D01*
X000850Y018308D01*
X000875Y018377D01*
X000904Y018444D01*
X000936Y018509D01*
X000972Y018573D01*
X001012Y018635D01*
X001054Y018694D01*
X001100Y018751D01*
X001149Y018805D01*
X001201Y018857D01*
X001255Y018906D01*
X001312Y018952D01*
X001371Y018994D01*
X001433Y019034D01*
X001497Y019070D01*
X001562Y019102D01*
X001629Y019131D01*
X001698Y019156D01*
X001768Y019178D01*
X001839Y019195D01*
X001911Y019209D01*
X001983Y019219D01*
X002056Y019225D01*
X002129Y019227D01*
X002202Y019225D01*
X002275Y019219D01*
X002347Y019209D01*
X002419Y019195D01*
X002490Y019178D01*
X002560Y019156D01*
X002629Y019131D01*
X002696Y019102D01*
X002761Y019070D01*
X002825Y019034D01*
X002887Y018994D01*
X002946Y018952D01*
X003003Y018906D01*
X003057Y018857D01*
X003109Y018805D01*
X003158Y018751D01*
X003204Y018694D01*
X003246Y018635D01*
X003286Y018573D01*
X003322Y018509D01*
X003354Y018444D01*
X003383Y018377D01*
X003408Y018308D01*
X003430Y018238D01*
X003447Y018167D01*
X003461Y018095D01*
X003471Y018023D01*
X003477Y017950D01*
X003479Y017877D01*
X003477Y017804D01*
X003471Y017731D01*
X003461Y017659D01*
X003447Y017587D01*
X003430Y017516D01*
X003408Y017446D01*
X003383Y017377D01*
X003354Y017310D01*
X003322Y017245D01*
X003286Y017181D01*
X003246Y017119D01*
X003204Y017060D01*
X003158Y017003D01*
X003109Y016949D01*
X003057Y016897D01*
X003003Y016848D01*
X002946Y016802D01*
X002887Y016760D01*
X002825Y016720D01*
X002761Y016684D01*
X002696Y016652D01*
X002629Y016623D01*
X002560Y016598D01*
X002490Y016576D01*
X002419Y016559D01*
X002347Y016545D01*
X002275Y016535D01*
X002202Y016529D01*
X002129Y016527D01*
X002056Y016529D01*
X001983Y016535D01*
X001911Y016545D01*
X001839Y016559D01*
X001768Y016576D01*
X001698Y016598D01*
X001629Y016623D01*
X001562Y016652D01*
X001497Y016684D01*
X001433Y016720D01*
X001371Y016760D01*
X001312Y016802D01*
X001255Y016848D01*
X001201Y016897D01*
X001149Y016949D01*
X001100Y017003D01*
X001054Y017060D01*
X001012Y017119D01*
X000972Y017181D01*
X000936Y017245D01*
X000904Y017310D01*
X000875Y017377D01*
X000850Y017446D01*
X000828Y017516D01*
X000811Y017587D01*
X000797Y017659D01*
X000787Y017731D01*
X000781Y017804D01*
X000779Y017877D01*
X000779Y002129D02*
X000781Y002202D01*
X000787Y002275D01*
X000797Y002347D01*
X000811Y002419D01*
X000828Y002490D01*
X000850Y002560D01*
X000875Y002629D01*
X000904Y002696D01*
X000936Y002761D01*
X000972Y002825D01*
X001012Y002887D01*
X001054Y002946D01*
X001100Y003003D01*
X001149Y003057D01*
X001201Y003109D01*
X001255Y003158D01*
X001312Y003204D01*
X001371Y003246D01*
X001433Y003286D01*
X001497Y003322D01*
X001562Y003354D01*
X001629Y003383D01*
X001698Y003408D01*
X001768Y003430D01*
X001839Y003447D01*
X001911Y003461D01*
X001983Y003471D01*
X002056Y003477D01*
X002129Y003479D01*
X002202Y003477D01*
X002275Y003471D01*
X002347Y003461D01*
X002419Y003447D01*
X002490Y003430D01*
X002560Y003408D01*
X002629Y003383D01*
X002696Y003354D01*
X002761Y003322D01*
X002825Y003286D01*
X002887Y003246D01*
X002946Y003204D01*
X003003Y003158D01*
X003057Y003109D01*
X003109Y003057D01*
X003158Y003003D01*
X003204Y002946D01*
X003246Y002887D01*
X003286Y002825D01*
X003322Y002761D01*
X003354Y002696D01*
X003383Y002629D01*
X003408Y002560D01*
X003430Y002490D01*
X003447Y002419D01*
X003461Y002347D01*
X003471Y002275D01*
X003477Y002202D01*
X003479Y002129D01*
X003477Y002056D01*
X003471Y001983D01*
X003461Y001911D01*
X003447Y001839D01*
X003430Y001768D01*
X003408Y001698D01*
X003383Y001629D01*
X003354Y001562D01*
X003322Y001497D01*
X003286Y001433D01*
X003246Y001371D01*
X003204Y001312D01*
X003158Y001255D01*
X003109Y001201D01*
X003057Y001149D01*
X003003Y001100D01*
X002946Y001054D01*
X002887Y001012D01*
X002825Y000972D01*
X002761Y000936D01*
X002696Y000904D01*
X002629Y000875D01*
X002560Y000850D01*
X002490Y000828D01*
X002419Y000811D01*
X002347Y000797D01*
X002275Y000787D01*
X002202Y000781D01*
X002129Y000779D01*
X002056Y000781D01*
X001983Y000787D01*
X001911Y000797D01*
X001839Y000811D01*
X001768Y000828D01*
X001698Y000850D01*
X001629Y000875D01*
X001562Y000904D01*
X001497Y000936D01*
X001433Y000972D01*
X001371Y001012D01*
X001312Y001054D01*
X001255Y001100D01*
X001201Y001149D01*
X001149Y001201D01*
X001100Y001255D01*
X001054Y001312D01*
X001012Y001371D01*
X000972Y001433D01*
X000936Y001497D01*
X000904Y001562D01*
X000875Y001629D01*
X000850Y001698D01*
X000828Y001768D01*
X000811Y001839D01*
X000797Y001911D01*
X000787Y001983D01*
X000781Y002056D01*
X000779Y002129D01*
D12*
X001440Y002129D02*
X001442Y002181D01*
X001448Y002233D01*
X001458Y002284D01*
X001471Y002334D01*
X001489Y002384D01*
X001510Y002431D01*
X001534Y002477D01*
X001563Y002521D01*
X001594Y002563D01*
X001628Y002602D01*
X001665Y002639D01*
X001705Y002672D01*
X001748Y002703D01*
X001792Y002730D01*
X001838Y002754D01*
X001887Y002774D01*
X001936Y002790D01*
X001987Y002803D01*
X002038Y002812D01*
X002090Y002817D01*
X002142Y002818D01*
X002194Y002815D01*
X002246Y002808D01*
X002297Y002797D01*
X002347Y002783D01*
X002396Y002764D01*
X002443Y002742D01*
X002488Y002717D01*
X002532Y002688D01*
X002573Y002656D01*
X002612Y002621D01*
X002647Y002583D01*
X002680Y002542D01*
X002710Y002500D01*
X002736Y002455D01*
X002759Y002408D01*
X002778Y002359D01*
X002794Y002309D01*
X002806Y002259D01*
X002814Y002207D01*
X002818Y002155D01*
X002818Y002103D01*
X002814Y002051D01*
X002806Y001999D01*
X002794Y001949D01*
X002778Y001899D01*
X002759Y001850D01*
X002736Y001803D01*
X002710Y001758D01*
X002680Y001716D01*
X002647Y001675D01*
X002612Y001637D01*
X002573Y001602D01*
X002532Y001570D01*
X002488Y001541D01*
X002443Y001516D01*
X002396Y001494D01*
X002347Y001475D01*
X002297Y001461D01*
X002246Y001450D01*
X002194Y001443D01*
X002142Y001440D01*
X002090Y001441D01*
X002038Y001446D01*
X001987Y001455D01*
X001936Y001468D01*
X001887Y001484D01*
X001838Y001504D01*
X001792Y001528D01*
X001748Y001555D01*
X001705Y001586D01*
X001665Y001619D01*
X001628Y001656D01*
X001594Y001695D01*
X001563Y001737D01*
X001534Y001781D01*
X001510Y001827D01*
X001489Y001874D01*
X001471Y001924D01*
X001458Y001974D01*
X001448Y002025D01*
X001442Y002077D01*
X001440Y002129D01*
X008861Y001766D02*
X009199Y001766D01*
X009199Y001932D01*
X008861Y001766D02*
X008861Y004066D01*
X009191Y004066D01*
X009191Y003900D01*
X009333Y003624D02*
X009301Y003620D01*
X009270Y003613D01*
X009240Y003602D01*
X009211Y003587D01*
X009183Y003570D01*
X009158Y003549D01*
X009136Y003526D01*
X009116Y003501D01*
X009099Y003473D01*
X009086Y003444D01*
X009075Y003413D01*
X009068Y003382D01*
X009065Y003350D01*
X009066Y003317D01*
X009066Y002530D01*
X009065Y002522D02*
X009067Y002489D01*
X009073Y002456D01*
X009082Y002424D01*
X009094Y002393D01*
X009110Y002363D01*
X009128Y002335D01*
X009150Y002310D01*
X009173Y002286D01*
X009200Y002266D01*
X009228Y002248D01*
X009258Y002233D01*
X009289Y002221D01*
X009322Y002213D01*
X009355Y002208D01*
X009388Y002207D01*
X014234Y004629D02*
X014236Y004641D01*
X014242Y004653D01*
X014250Y004661D01*
X014262Y004667D01*
X014274Y004669D01*
X014286Y004667D01*
X014298Y004661D01*
X014306Y004653D01*
X014312Y004641D01*
X014314Y004629D01*
X014312Y004617D01*
X014306Y004605D01*
X014298Y004597D01*
X014286Y004591D01*
X014274Y004589D01*
X014262Y004591D01*
X014250Y004597D01*
X014242Y004605D01*
X014236Y004617D01*
X014234Y004629D01*
X014234Y006636D02*
X014236Y006648D01*
X014242Y006660D01*
X014250Y006668D01*
X014262Y006674D01*
X014274Y006676D01*
X014286Y006674D01*
X014298Y006668D01*
X014306Y006660D01*
X014312Y006648D01*
X014314Y006636D01*
X014312Y006624D01*
X014306Y006612D01*
X014298Y006604D01*
X014286Y006598D01*
X014274Y006596D01*
X014262Y006598D01*
X014250Y006604D01*
X014242Y006612D01*
X014236Y006624D01*
X014234Y006636D01*
X009964Y008762D02*
X009966Y008774D01*
X009971Y008785D01*
X009980Y008794D01*
X009991Y008799D01*
X010003Y008801D01*
X010015Y008799D01*
X010026Y008794D01*
X010035Y008785D01*
X010040Y008774D01*
X010042Y008762D01*
X010040Y008750D01*
X010035Y008739D01*
X010026Y008730D01*
X010015Y008725D01*
X010003Y008723D01*
X009991Y008725D01*
X009980Y008730D01*
X009971Y008739D01*
X009966Y008750D01*
X009964Y008762D01*
X007660Y008349D02*
X007662Y008361D01*
X007667Y008372D01*
X007676Y008381D01*
X007687Y008386D01*
X007699Y008388D01*
X007711Y008386D01*
X007722Y008381D01*
X007731Y008372D01*
X007736Y008361D01*
X007738Y008349D01*
X007736Y008337D01*
X007731Y008326D01*
X007722Y008317D01*
X007711Y008312D01*
X007699Y008310D01*
X007687Y008312D01*
X007676Y008317D01*
X007667Y008326D01*
X007662Y008337D01*
X007660Y008349D01*
X008487Y010691D02*
X008489Y010703D01*
X008494Y010714D01*
X008503Y010723D01*
X008514Y010728D01*
X008526Y010730D01*
X008538Y010728D01*
X008549Y010723D01*
X008558Y010714D01*
X008563Y010703D01*
X008565Y010691D01*
X008563Y010679D01*
X008558Y010668D01*
X008549Y010659D01*
X008538Y010654D01*
X008526Y010652D01*
X008514Y010654D01*
X008503Y010659D01*
X008494Y010668D01*
X008489Y010679D01*
X008487Y010691D01*
X003522Y010765D02*
X001522Y010765D01*
X001522Y011115D01*
X003522Y011115D02*
X003522Y010765D01*
X003522Y013615D02*
X003522Y013965D01*
X001522Y013965D01*
X001522Y013615D01*
X006714Y017680D02*
X006716Y017692D01*
X006722Y017704D01*
X006730Y017712D01*
X006742Y017718D01*
X006754Y017720D01*
X006766Y017718D01*
X006778Y017712D01*
X006786Y017704D01*
X006792Y017692D01*
X006794Y017680D01*
X006792Y017668D01*
X006786Y017656D01*
X006778Y017648D01*
X006766Y017642D01*
X006754Y017640D01*
X006742Y017642D01*
X006730Y017648D01*
X006722Y017656D01*
X006716Y017668D01*
X006714Y017680D01*
X001440Y017877D02*
X001442Y017929D01*
X001448Y017981D01*
X001458Y018032D01*
X001471Y018082D01*
X001489Y018132D01*
X001510Y018179D01*
X001534Y018225D01*
X001563Y018269D01*
X001594Y018311D01*
X001628Y018350D01*
X001665Y018387D01*
X001705Y018420D01*
X001748Y018451D01*
X001792Y018478D01*
X001838Y018502D01*
X001887Y018522D01*
X001936Y018538D01*
X001987Y018551D01*
X002038Y018560D01*
X002090Y018565D01*
X002142Y018566D01*
X002194Y018563D01*
X002246Y018556D01*
X002297Y018545D01*
X002347Y018531D01*
X002396Y018512D01*
X002443Y018490D01*
X002488Y018465D01*
X002532Y018436D01*
X002573Y018404D01*
X002612Y018369D01*
X002647Y018331D01*
X002680Y018290D01*
X002710Y018248D01*
X002736Y018203D01*
X002759Y018156D01*
X002778Y018107D01*
X002794Y018057D01*
X002806Y018007D01*
X002814Y017955D01*
X002818Y017903D01*
X002818Y017851D01*
X002814Y017799D01*
X002806Y017747D01*
X002794Y017697D01*
X002778Y017647D01*
X002759Y017598D01*
X002736Y017551D01*
X002710Y017506D01*
X002680Y017464D01*
X002647Y017423D01*
X002612Y017385D01*
X002573Y017350D01*
X002532Y017318D01*
X002488Y017289D01*
X002443Y017264D01*
X002396Y017242D01*
X002347Y017223D01*
X002297Y017209D01*
X002246Y017198D01*
X002194Y017191D01*
X002142Y017188D01*
X002090Y017189D01*
X002038Y017194D01*
X001987Y017203D01*
X001936Y017216D01*
X001887Y017232D01*
X001838Y017252D01*
X001792Y017276D01*
X001748Y017303D01*
X001705Y017334D01*
X001665Y017367D01*
X001628Y017404D01*
X001594Y017443D01*
X001563Y017485D01*
X001534Y017529D01*
X001510Y017575D01*
X001489Y017622D01*
X001471Y017672D01*
X001458Y017722D01*
X001448Y017773D01*
X001442Y017825D01*
X001440Y017877D01*
X013998Y012857D02*
X014000Y012869D01*
X014006Y012881D01*
X014014Y012889D01*
X014026Y012895D01*
X014038Y012897D01*
X014050Y012895D01*
X014062Y012889D01*
X014070Y012881D01*
X014076Y012869D01*
X014078Y012857D01*
X014076Y012845D01*
X014070Y012833D01*
X014062Y012825D01*
X014050Y012819D01*
X014038Y012817D01*
X014026Y012819D01*
X014014Y012825D01*
X014006Y012833D01*
X014000Y012845D01*
X013998Y012857D01*
X015823Y013369D02*
X015825Y013381D01*
X015831Y013393D01*
X015839Y013401D01*
X015851Y013407D01*
X015863Y013409D01*
X015875Y013407D01*
X015887Y013401D01*
X015895Y013393D01*
X015901Y013381D01*
X015903Y013369D01*
X015901Y013357D01*
X015895Y013345D01*
X015887Y013337D01*
X015875Y013331D01*
X015863Y013329D01*
X015851Y013331D01*
X015839Y013337D01*
X015831Y013345D01*
X015825Y013357D01*
X015823Y013369D01*
X017108Y013748D02*
X017110Y013760D01*
X017116Y013772D01*
X017124Y013780D01*
X017136Y013786D01*
X017148Y013788D01*
X017160Y013786D01*
X017172Y013780D01*
X017180Y013772D01*
X017186Y013760D01*
X017188Y013748D01*
X017186Y013736D01*
X017180Y013724D01*
X017172Y013716D01*
X017160Y013710D01*
X017148Y013708D01*
X017136Y013710D01*
X017124Y013716D01*
X017116Y013724D01*
X017110Y013736D01*
X017108Y013748D01*
X018211Y013512D02*
X018213Y013524D01*
X018219Y013536D01*
X018227Y013544D01*
X018239Y013550D01*
X018251Y013552D01*
X018263Y013550D01*
X018275Y013544D01*
X018283Y013536D01*
X018289Y013524D01*
X018291Y013512D01*
X018289Y013500D01*
X018283Y013488D01*
X018275Y013480D01*
X018263Y013474D01*
X018251Y013472D01*
X018239Y013474D01*
X018227Y013480D01*
X018219Y013488D01*
X018213Y013500D01*
X018211Y013512D01*
X021223Y013467D02*
X021223Y014648D01*
X022404Y015436D02*
X023191Y015436D01*
X023191Y016223D02*
X022404Y016223D01*
X022266Y016321D02*
X022268Y016333D01*
X022274Y016345D01*
X022282Y016353D01*
X022294Y016359D01*
X022306Y016361D01*
X022318Y016359D01*
X022330Y016353D01*
X022338Y016345D01*
X022344Y016333D01*
X022346Y016321D01*
X022344Y016309D01*
X022338Y016297D01*
X022330Y016289D01*
X022318Y016283D01*
X022306Y016281D01*
X022294Y016283D01*
X022282Y016289D01*
X022274Y016297D01*
X022268Y016309D01*
X022266Y016321D01*
X022798Y014648D02*
X022798Y013467D01*
X021183Y013270D02*
X021185Y013282D01*
X021191Y013294D01*
X021199Y013302D01*
X021211Y013308D01*
X021223Y013310D01*
X021235Y013308D01*
X021247Y013302D01*
X021255Y013294D01*
X021261Y013282D01*
X021263Y013270D01*
X021261Y013258D01*
X021255Y013246D01*
X021247Y013238D01*
X021235Y013232D01*
X021223Y013230D01*
X021211Y013232D01*
X021199Y013238D01*
X021191Y013246D01*
X021185Y013258D01*
X021183Y013270D01*
X019642Y011046D02*
X019644Y011058D01*
X019650Y011070D01*
X019658Y011078D01*
X019670Y011084D01*
X019682Y011086D01*
X019694Y011084D01*
X019706Y011078D01*
X019714Y011070D01*
X019720Y011058D01*
X019722Y011046D01*
X019720Y011034D01*
X019714Y011022D01*
X019706Y011014D01*
X019694Y011008D01*
X019682Y011006D01*
X019670Y011008D01*
X019658Y011014D01*
X019650Y011022D01*
X019644Y011034D01*
X019642Y011046D01*
X021400Y008014D02*
X021402Y008026D01*
X021408Y008038D01*
X021416Y008046D01*
X021428Y008052D01*
X021440Y008054D01*
X021452Y008052D01*
X021464Y008046D01*
X021472Y008038D01*
X021478Y008026D01*
X021480Y008014D01*
X021478Y008002D01*
X021472Y007990D01*
X021464Y007982D01*
X021452Y007976D01*
X021440Y007974D01*
X021428Y007976D01*
X021416Y007982D01*
X021408Y007990D01*
X021402Y008002D01*
X021400Y008014D01*
X021400Y006006D02*
X021402Y006018D01*
X021408Y006030D01*
X021416Y006038D01*
X021428Y006044D01*
X021440Y006046D01*
X021452Y006044D01*
X021464Y006038D01*
X021472Y006030D01*
X021478Y006018D01*
X021480Y006006D01*
X021478Y005994D01*
X021472Y005982D01*
X021464Y005974D01*
X021452Y005968D01*
X021440Y005966D01*
X021428Y005968D01*
X021416Y005974D01*
X021408Y005982D01*
X021402Y005994D01*
X021400Y006006D01*
X026365Y003625D02*
X026398Y003624D01*
X026431Y003619D01*
X026464Y003611D01*
X026495Y003599D01*
X026525Y003584D01*
X026553Y003566D01*
X026580Y003546D01*
X026603Y003522D01*
X026625Y003497D01*
X026643Y003469D01*
X026659Y003439D01*
X026671Y003408D01*
X026680Y003376D01*
X026686Y003343D01*
X026688Y003310D01*
X026688Y003302D02*
X026688Y002514D01*
X026687Y002515D02*
X026688Y002482D01*
X026685Y002450D01*
X026678Y002419D01*
X026667Y002388D01*
X026654Y002359D01*
X026637Y002331D01*
X026617Y002306D01*
X026595Y002283D01*
X026570Y002262D01*
X026542Y002245D01*
X026513Y002230D01*
X026483Y002219D01*
X026452Y002212D01*
X026420Y002208D01*
X026562Y001932D02*
X026562Y001766D01*
X026892Y001766D01*
X026892Y004066D01*
X026562Y004066D01*
X026562Y003900D01*
X032936Y002129D02*
X032938Y002181D01*
X032944Y002233D01*
X032954Y002284D01*
X032967Y002334D01*
X032985Y002384D01*
X033006Y002431D01*
X033030Y002477D01*
X033059Y002521D01*
X033090Y002563D01*
X033124Y002602D01*
X033161Y002639D01*
X033201Y002672D01*
X033244Y002703D01*
X033288Y002730D01*
X033334Y002754D01*
X033383Y002774D01*
X033432Y002790D01*
X033483Y002803D01*
X033534Y002812D01*
X033586Y002817D01*
X033638Y002818D01*
X033690Y002815D01*
X033742Y002808D01*
X033793Y002797D01*
X033843Y002783D01*
X033892Y002764D01*
X033939Y002742D01*
X033984Y002717D01*
X034028Y002688D01*
X034069Y002656D01*
X034108Y002621D01*
X034143Y002583D01*
X034176Y002542D01*
X034206Y002500D01*
X034232Y002455D01*
X034255Y002408D01*
X034274Y002359D01*
X034290Y002309D01*
X034302Y002259D01*
X034310Y002207D01*
X034314Y002155D01*
X034314Y002103D01*
X034310Y002051D01*
X034302Y001999D01*
X034290Y001949D01*
X034274Y001899D01*
X034255Y001850D01*
X034232Y001803D01*
X034206Y001758D01*
X034176Y001716D01*
X034143Y001675D01*
X034108Y001637D01*
X034069Y001602D01*
X034028Y001570D01*
X033984Y001541D01*
X033939Y001516D01*
X033892Y001494D01*
X033843Y001475D01*
X033793Y001461D01*
X033742Y001450D01*
X033690Y001443D01*
X033638Y001440D01*
X033586Y001441D01*
X033534Y001446D01*
X033483Y001455D01*
X033432Y001468D01*
X033383Y001484D01*
X033334Y001504D01*
X033288Y001528D01*
X033244Y001555D01*
X033201Y001586D01*
X033161Y001619D01*
X033124Y001656D01*
X033090Y001695D01*
X033059Y001737D01*
X033030Y001781D01*
X033006Y001827D01*
X032985Y001874D01*
X032967Y001924D01*
X032954Y001974D01*
X032944Y002025D01*
X032938Y002077D01*
X032936Y002129D01*
X028684Y010396D02*
X028686Y010408D01*
X028691Y010419D01*
X028700Y010428D01*
X028711Y010433D01*
X028723Y010435D01*
X028735Y010433D01*
X028746Y010428D01*
X028755Y010419D01*
X028760Y010408D01*
X028762Y010396D01*
X028760Y010384D01*
X028755Y010373D01*
X028746Y010364D01*
X028735Y010359D01*
X028723Y010357D01*
X028711Y010359D01*
X028700Y010364D01*
X028691Y010373D01*
X028686Y010384D01*
X028684Y010396D01*
X018781Y015869D02*
X018783Y015881D01*
X018789Y015893D01*
X018797Y015901D01*
X018809Y015907D01*
X018821Y015909D01*
X018833Y015907D01*
X018845Y015901D01*
X018853Y015893D01*
X018859Y015881D01*
X018861Y015869D01*
X018859Y015857D01*
X018853Y015845D01*
X018845Y015837D01*
X018833Y015831D01*
X018821Y015829D01*
X018809Y015831D01*
X018797Y015837D01*
X018789Y015845D01*
X018783Y015857D01*
X018781Y015869D01*
X032936Y017877D02*
X032938Y017929D01*
X032944Y017981D01*
X032954Y018032D01*
X032967Y018082D01*
X032985Y018132D01*
X033006Y018179D01*
X033030Y018225D01*
X033059Y018269D01*
X033090Y018311D01*
X033124Y018350D01*
X033161Y018387D01*
X033201Y018420D01*
X033244Y018451D01*
X033288Y018478D01*
X033334Y018502D01*
X033383Y018522D01*
X033432Y018538D01*
X033483Y018551D01*
X033534Y018560D01*
X033586Y018565D01*
X033638Y018566D01*
X033690Y018563D01*
X033742Y018556D01*
X033793Y018545D01*
X033843Y018531D01*
X033892Y018512D01*
X033939Y018490D01*
X033984Y018465D01*
X034028Y018436D01*
X034069Y018404D01*
X034108Y018369D01*
X034143Y018331D01*
X034176Y018290D01*
X034206Y018248D01*
X034232Y018203D01*
X034255Y018156D01*
X034274Y018107D01*
X034290Y018057D01*
X034302Y018007D01*
X034310Y017955D01*
X034314Y017903D01*
X034314Y017851D01*
X034310Y017799D01*
X034302Y017747D01*
X034290Y017697D01*
X034274Y017647D01*
X034255Y017598D01*
X034232Y017551D01*
X034206Y017506D01*
X034176Y017464D01*
X034143Y017423D01*
X034108Y017385D01*
X034069Y017350D01*
X034028Y017318D01*
X033984Y017289D01*
X033939Y017264D01*
X033892Y017242D01*
X033843Y017223D01*
X033793Y017209D01*
X033742Y017198D01*
X033690Y017191D01*
X033638Y017188D01*
X033586Y017189D01*
X033534Y017194D01*
X033483Y017203D01*
X033432Y017216D01*
X033383Y017232D01*
X033334Y017252D01*
X033288Y017276D01*
X033244Y017303D01*
X033201Y017334D01*
X033161Y017367D01*
X033124Y017404D01*
X033090Y017443D01*
X033059Y017485D01*
X033030Y017529D01*
X033006Y017575D01*
X032985Y017622D01*
X032967Y017672D01*
X032954Y017722D01*
X032944Y017773D01*
X032938Y017825D01*
X032936Y017877D01*
D13*
X029825Y018526D02*
X029825Y020239D01*
X028900Y021026D02*
X025751Y021026D01*
X024825Y020239D02*
X024825Y018526D01*
X029825Y018526D01*
X010642Y012699D02*
X010642Y010258D01*
X010534Y010150D01*
X008093Y010150D01*
X007985Y010258D01*
X007985Y012699D01*
X008093Y012808D01*
X010534Y012808D01*
X010642Y012699D01*
D14*
X012286Y012562D03*
X013073Y012562D03*
X013310Y010829D03*
X014097Y010829D03*
X014884Y010829D03*
X015672Y012089D03*
X012522Y010829D03*
X012562Y007325D03*
X012562Y005317D03*
X006577Y006144D03*
X005790Y006144D03*
X005357Y011518D03*
X007050Y016499D03*
X007837Y016499D03*
X008625Y016499D03*
X021518Y015810D03*
X023979Y015711D03*
X025947Y014294D03*
X024963Y012463D03*
X022207Y012207D03*
X023152Y007325D03*
X023152Y005317D03*
D15*
X028132Y010975D02*
X028132Y010999D01*
X025172Y014294D02*
X025148Y014294D01*
X023007Y012207D02*
X022983Y012207D01*
X021432Y012010D02*
X021408Y012010D01*
X020172Y011735D02*
X020148Y011735D01*
X017770Y011735D02*
X017746Y011735D01*
X016353Y014058D02*
X016329Y014058D01*
X017943Y014254D02*
X017967Y014254D01*
X019912Y014254D02*
X019936Y014254D01*
X013952Y014058D02*
X013928Y014058D01*
X011471Y013270D02*
X011447Y013270D01*
X007443Y013534D02*
X007443Y013558D01*
X006459Y010881D02*
X006459Y010857D01*
X006459Y010093D02*
X006459Y010069D01*
X006518Y008971D02*
X006518Y008947D01*
X006782Y007739D02*
X006806Y007739D01*
X004700Y008585D02*
X004676Y008585D01*
X009294Y007160D02*
X009294Y007136D01*
X010365Y007483D02*
X010389Y007483D01*
D16*
X004169Y021545D03*
X001807Y021545D03*
D17*
X005239Y017129D03*
D18*
X022837Y008460D03*
X022837Y008160D03*
X022837Y006452D03*
X022837Y006152D03*
D19*
X003422Y010865D03*
D20*
X004589Y005377D02*
X004688Y005278D01*
X004491Y005278D01*
X004589Y005377D01*
D21*
X006257Y004677D03*
X006257Y004655D03*
X006257Y004644D03*
X006257Y004633D03*
X006257Y004611D03*
X006257Y004600D03*
X006257Y004589D03*
X006257Y004578D03*
X006257Y000860D03*
X006257Y000849D03*
X006257Y000838D03*
X006257Y000816D03*
X006257Y000805D03*
X006257Y000794D03*
X006257Y000783D03*
X006257Y000761D03*
X006257Y000751D03*
X029485Y000751D03*
X029485Y000761D03*
X029485Y000783D03*
X029485Y000794D03*
X029485Y000805D03*
X029485Y000816D03*
X029485Y000838D03*
X029485Y000849D03*
X029485Y000860D03*
X029485Y004578D03*
X029485Y004589D03*
X029485Y004600D03*
X029485Y004611D03*
X029485Y004633D03*
X029485Y004644D03*
X029485Y004655D03*
X029485Y004677D03*
X031493Y006184D03*
X031493Y006195D03*
X031493Y006216D03*
X031493Y006227D03*
X031493Y006238D03*
X031493Y006249D03*
X031493Y006271D03*
X031493Y006282D03*
X031493Y006293D03*
X031493Y010011D03*
X031493Y010022D03*
X031493Y010033D03*
X031493Y010055D03*
X031493Y010066D03*
X031493Y010077D03*
X031493Y010088D03*
X031493Y010110D03*
X031493Y011617D03*
X031493Y011628D03*
X031493Y011649D03*
X031493Y011660D03*
X031493Y011671D03*
X031493Y011682D03*
X031493Y011704D03*
X031493Y011715D03*
X031493Y011726D03*
X031493Y015444D03*
X031493Y015455D03*
X031493Y015466D03*
X031493Y015488D03*
X031493Y015499D03*
X031493Y015510D03*
X031493Y015521D03*
X031493Y015543D03*
D22*
X031493Y015532D03*
X031493Y015477D03*
X031493Y015433D03*
X031493Y011693D03*
X031493Y011639D03*
X031493Y010099D03*
X031493Y010044D03*
X031493Y010000D03*
X031493Y006260D03*
X031493Y006205D03*
X029485Y004666D03*
X029485Y004622D03*
X029485Y004567D03*
X029485Y000827D03*
X029485Y000772D03*
X006257Y000772D03*
X006257Y000827D03*
X006257Y004567D03*
X006257Y004622D03*
X006257Y004666D03*
D23*
X004349Y004524D03*
X004349Y004469D03*
X004349Y004425D03*
X004349Y004370D03*
X004349Y004327D03*
X004349Y004272D03*
X004349Y004228D03*
X004349Y004174D03*
X004349Y004130D03*
X004349Y004075D03*
X004349Y004031D03*
X004349Y003977D03*
X004349Y003933D03*
X004349Y003878D03*
X004349Y003835D03*
X004349Y003780D03*
X004349Y003736D03*
X004349Y003681D03*
X004349Y003638D03*
X004349Y003583D03*
X004349Y003539D03*
X004349Y003485D03*
X004349Y003441D03*
X004349Y003386D03*
X004349Y003342D03*
X004349Y003288D03*
X004349Y003244D03*
X004349Y003189D03*
X004349Y003146D03*
X004349Y003091D03*
X004349Y003047D03*
X004349Y002992D03*
X004349Y002949D03*
X004349Y002894D03*
X004349Y002850D03*
X004349Y002796D03*
X004349Y002752D03*
X004349Y002697D03*
X004349Y002653D03*
X004349Y002599D03*
X004349Y002555D03*
X004349Y002500D03*
X004349Y002457D03*
X004349Y002402D03*
X004349Y002358D03*
X004349Y002303D03*
X004349Y002260D03*
X004349Y002205D03*
X004349Y002161D03*
X004349Y002107D03*
X004349Y002063D03*
X004349Y002008D03*
X004349Y001954D03*
X004349Y001910D03*
X004349Y001855D03*
X004349Y001811D03*
X004349Y001757D03*
X004349Y001713D03*
X004349Y001658D03*
X004349Y001615D03*
X004349Y001560D03*
X004349Y001516D03*
X004349Y001472D03*
X004349Y001418D03*
X004349Y001374D03*
X004349Y001319D03*
X004349Y001275D03*
X004349Y001221D03*
X004349Y001177D03*
X004349Y001122D03*
X004349Y001079D03*
X004349Y001024D03*
X004349Y000969D03*
X004349Y000926D03*
X004349Y000871D03*
X006372Y002500D03*
X027577Y002500D03*
X027577Y002457D03*
X027577Y002402D03*
X027577Y002358D03*
X027577Y002303D03*
X027577Y002260D03*
X027577Y002205D03*
X027577Y002161D03*
X027577Y002107D03*
X027577Y002063D03*
X027577Y002008D03*
X027577Y001954D03*
X027577Y001910D03*
X027577Y001855D03*
X027577Y001811D03*
X027577Y001757D03*
X027577Y001713D03*
X027577Y001658D03*
X027577Y001615D03*
X027577Y001560D03*
X027577Y001516D03*
X027577Y001472D03*
X027577Y001418D03*
X027577Y001374D03*
X027577Y001319D03*
X027577Y001275D03*
X027577Y001221D03*
X027577Y001177D03*
X027577Y001122D03*
X027577Y001079D03*
X027577Y001024D03*
X027577Y000969D03*
X027577Y000926D03*
X027577Y000871D03*
X029786Y001560D03*
X027577Y002555D03*
X027577Y002599D03*
X027577Y002653D03*
X027577Y002697D03*
X027577Y002752D03*
X027577Y002796D03*
X027577Y002850D03*
X027577Y002894D03*
X027577Y002949D03*
X027577Y002992D03*
X027577Y003047D03*
X027577Y003091D03*
X027577Y003146D03*
X027577Y003189D03*
X027577Y003244D03*
X027577Y003288D03*
X027577Y003342D03*
X027577Y003386D03*
X027577Y003441D03*
X027577Y003485D03*
X027577Y003539D03*
X027577Y003583D03*
X027577Y003638D03*
X027577Y003681D03*
X027577Y003736D03*
X027577Y003780D03*
X027577Y003835D03*
X027577Y003878D03*
X027577Y003933D03*
X027577Y003977D03*
X027577Y004031D03*
X027577Y004075D03*
X027577Y004130D03*
X027577Y004174D03*
X027577Y004228D03*
X027577Y004272D03*
X027577Y004327D03*
X027577Y004370D03*
X027577Y004425D03*
X027577Y004469D03*
X027577Y004524D03*
X029042Y003835D03*
X030978Y003835D03*
X029585Y006304D03*
X029585Y006359D03*
X029585Y006402D03*
X029585Y006457D03*
X029585Y006501D03*
X029585Y006555D03*
X029585Y006599D03*
X029585Y006654D03*
X029585Y006698D03*
X029585Y006752D03*
X029585Y006796D03*
X029585Y006851D03*
X029585Y006894D03*
X029585Y006949D03*
X029585Y006993D03*
X029585Y007048D03*
X029585Y007091D03*
X029585Y007146D03*
X029585Y007190D03*
X029585Y007244D03*
X029585Y007288D03*
X029585Y007343D03*
X029585Y007387D03*
X029585Y007441D03*
X029585Y007485D03*
X029585Y007540D03*
X029585Y007583D03*
X029585Y007638D03*
X029585Y007682D03*
X029585Y007737D03*
X029585Y007780D03*
X029585Y007835D03*
X029585Y007879D03*
X029585Y007933D03*
X029585Y007977D03*
X029585Y008032D03*
X029585Y008076D03*
X029585Y008130D03*
X029585Y008174D03*
X029585Y008229D03*
X029585Y008272D03*
X029585Y008327D03*
X029585Y008371D03*
X029585Y008426D03*
X029585Y008469D03*
X029585Y008524D03*
X029585Y008568D03*
X029585Y008622D03*
X029585Y008666D03*
X029585Y008721D03*
X029585Y008765D03*
X029585Y008819D03*
X029585Y008863D03*
X029585Y008918D03*
X029585Y008961D03*
X029585Y009016D03*
X029585Y009060D03*
X029585Y009115D03*
X029585Y009158D03*
X029585Y009213D03*
X029585Y009257D03*
X029585Y009311D03*
X029585Y009355D03*
X029585Y009410D03*
X029585Y009454D03*
X029585Y009508D03*
X029585Y009552D03*
X029585Y009607D03*
X029585Y009650D03*
X029585Y009705D03*
X029585Y009749D03*
X029585Y009803D03*
X029585Y009847D03*
X029585Y009902D03*
X029585Y009946D03*
X029585Y011737D03*
X029585Y011792D03*
X029585Y011835D03*
X029585Y011890D03*
X029585Y011934D03*
X029585Y011989D03*
X029585Y012032D03*
X029585Y012087D03*
X029585Y012131D03*
X029585Y012185D03*
X029585Y012229D03*
X029585Y012284D03*
X029585Y012328D03*
X029585Y012382D03*
X029585Y012426D03*
X029585Y012481D03*
X029585Y012524D03*
X029585Y012579D03*
X029585Y012623D03*
X029585Y012678D03*
X029585Y012721D03*
X029585Y012776D03*
X029585Y012820D03*
X029585Y012874D03*
X029585Y012918D03*
X029585Y012973D03*
X029585Y013017D03*
X029585Y013071D03*
X029585Y013115D03*
X029585Y013170D03*
X029585Y013213D03*
X029585Y013268D03*
X029585Y013312D03*
X029585Y013366D03*
X029585Y013410D03*
X029585Y013465D03*
X029585Y013509D03*
X029585Y013563D03*
X029585Y013607D03*
X029585Y013662D03*
X029585Y013705D03*
X029585Y013760D03*
X029585Y013804D03*
X029585Y013859D03*
X029585Y013902D03*
X029585Y013957D03*
X029585Y014001D03*
X029585Y014055D03*
X029585Y014099D03*
X029585Y014154D03*
X029585Y014198D03*
X029585Y014252D03*
X029585Y014296D03*
X029585Y014351D03*
X029585Y014394D03*
X029585Y014449D03*
X029585Y014493D03*
X029585Y014548D03*
X029585Y014591D03*
X029585Y014646D03*
X029585Y014690D03*
X029585Y014744D03*
X029585Y014788D03*
X029585Y014843D03*
X029585Y014887D03*
X029585Y014941D03*
X029585Y014985D03*
X029585Y015040D03*
X029585Y015083D03*
X029585Y015138D03*
X029585Y015182D03*
X029585Y015237D03*
X029585Y015280D03*
X029585Y015335D03*
X029585Y015379D03*
X031061Y012032D03*
D24*
X031531Y013071D03*
X030635Y014252D03*
X031181Y015040D03*
X033401Y015040D03*
X033401Y015083D03*
X033401Y015138D03*
X033401Y015182D03*
X033401Y015237D03*
X033401Y015280D03*
X033401Y015335D03*
X033401Y015379D03*
X033401Y014985D03*
X033401Y014941D03*
X033401Y014887D03*
X033401Y014843D03*
X033401Y014788D03*
X033401Y014744D03*
X033401Y014690D03*
X033401Y014646D03*
X033401Y014591D03*
X033401Y014548D03*
X033401Y014493D03*
X033401Y014449D03*
X033401Y014394D03*
X033401Y014351D03*
X033401Y014296D03*
X033401Y014252D03*
X033401Y014198D03*
X033401Y014154D03*
X033401Y014099D03*
X033401Y014055D03*
X033401Y014001D03*
X033401Y013957D03*
X033401Y013902D03*
X033401Y013859D03*
X033401Y013804D03*
X033401Y013760D03*
X033401Y013705D03*
X033401Y013662D03*
X033401Y013607D03*
X033401Y013563D03*
X033401Y013509D03*
X033401Y013465D03*
X033401Y013410D03*
X033401Y013366D03*
X033401Y013312D03*
X033401Y013268D03*
X033401Y013213D03*
X033401Y013170D03*
X033401Y013115D03*
X033401Y013071D03*
X033401Y013017D03*
X033401Y012973D03*
X033401Y012918D03*
X033401Y012874D03*
X033401Y012820D03*
X033401Y012776D03*
X033401Y012721D03*
X033401Y012678D03*
X033401Y012623D03*
X033401Y012579D03*
X033401Y012524D03*
X033401Y012481D03*
X033401Y012426D03*
X033401Y012382D03*
X033401Y012328D03*
X033401Y012284D03*
X033401Y012229D03*
X033401Y012185D03*
X033401Y012131D03*
X033401Y012087D03*
X033401Y012032D03*
X033401Y011989D03*
X033401Y011934D03*
X033401Y011890D03*
X033401Y011835D03*
X033401Y011792D03*
X033401Y011737D03*
X033401Y009946D03*
X033401Y009902D03*
X033401Y009847D03*
X033401Y009803D03*
X033401Y009749D03*
X033401Y009705D03*
X033401Y009650D03*
X033401Y009607D03*
X033401Y009552D03*
X033401Y009508D03*
X033401Y009454D03*
X033401Y009410D03*
X033401Y009355D03*
X033401Y009311D03*
X033401Y009257D03*
X033401Y009213D03*
X033401Y009158D03*
X033401Y009115D03*
X033401Y009060D03*
X033401Y009016D03*
X033401Y008961D03*
X033401Y008918D03*
X033401Y008863D03*
X033401Y008819D03*
X033401Y008765D03*
X033401Y008721D03*
X033401Y008666D03*
X033401Y008622D03*
X033401Y008568D03*
X033401Y008524D03*
X033401Y008469D03*
X033401Y008426D03*
X033401Y008371D03*
X033401Y008327D03*
X033401Y008272D03*
X033401Y008229D03*
X033401Y008174D03*
X033401Y008130D03*
X033401Y008076D03*
X033401Y008032D03*
X033401Y007977D03*
X033401Y007933D03*
X033401Y007879D03*
X033401Y007835D03*
X033401Y007780D03*
X033401Y007737D03*
X033401Y007682D03*
X033401Y007638D03*
X033401Y007583D03*
X033401Y007540D03*
X033401Y007485D03*
X033401Y007441D03*
X033401Y007387D03*
X033401Y007343D03*
X033401Y007288D03*
X033401Y007244D03*
X033401Y007190D03*
X033401Y007146D03*
X033401Y007091D03*
X033401Y007048D03*
X033401Y006993D03*
X033401Y006949D03*
X033401Y006894D03*
X033401Y006851D03*
X033401Y006796D03*
X033401Y006752D03*
X033401Y006698D03*
X033401Y006654D03*
X033401Y006599D03*
X033401Y006555D03*
X033401Y006501D03*
X033401Y006457D03*
X033401Y006402D03*
X033401Y006359D03*
X033401Y006304D03*
X031394Y004524D03*
X031394Y004469D03*
X031394Y004425D03*
X031394Y004370D03*
X031394Y004327D03*
X031394Y004272D03*
X031394Y004228D03*
X031394Y004174D03*
X031394Y004130D03*
X031394Y004075D03*
X031394Y004031D03*
X031394Y003977D03*
X031394Y003933D03*
X031394Y003878D03*
X031394Y003835D03*
X031394Y003780D03*
X031394Y003736D03*
X031394Y003681D03*
X031394Y003638D03*
X031394Y003583D03*
X031394Y003539D03*
X031394Y003485D03*
X031394Y003441D03*
X031394Y003386D03*
X031394Y003342D03*
X031394Y003288D03*
X031394Y003244D03*
X031394Y003189D03*
X031394Y003146D03*
X031394Y003091D03*
X031394Y003047D03*
X031394Y002992D03*
X031394Y002949D03*
X031394Y002894D03*
X031394Y002850D03*
X031394Y002796D03*
X031394Y002752D03*
X031394Y002697D03*
X031394Y002653D03*
X031394Y002599D03*
X031394Y002555D03*
X031394Y002500D03*
X031394Y002457D03*
X031394Y002402D03*
X031394Y002358D03*
X031394Y002303D03*
X031394Y002260D03*
X031394Y002205D03*
X031394Y002161D03*
X031394Y002107D03*
X031394Y002063D03*
X031394Y002008D03*
X031394Y001954D03*
X031394Y001910D03*
X031394Y001855D03*
X031394Y001811D03*
X031394Y001757D03*
X031394Y001713D03*
X031394Y001658D03*
X031394Y001615D03*
X031394Y001560D03*
X031394Y001516D03*
X031394Y001472D03*
X031394Y001418D03*
X031394Y001374D03*
X031394Y001319D03*
X031394Y001275D03*
X031394Y001221D03*
X031394Y001177D03*
X031394Y001122D03*
X031394Y001079D03*
X031394Y001024D03*
X031394Y000969D03*
X031394Y000926D03*
X031394Y000871D03*
X008165Y000871D03*
X008165Y000926D03*
X008165Y000969D03*
X008165Y001024D03*
X008165Y001079D03*
X008165Y001122D03*
X008165Y001177D03*
X008165Y001221D03*
X008165Y001275D03*
X008165Y001319D03*
X008165Y001374D03*
X008165Y001418D03*
X008165Y001472D03*
X008165Y001516D03*
X008165Y001560D03*
X008165Y001615D03*
X008165Y001658D03*
X008165Y001713D03*
X008165Y001757D03*
X008165Y001811D03*
X008165Y001855D03*
X008165Y001910D03*
X008165Y001954D03*
X008165Y002008D03*
X008165Y002063D03*
X008165Y002107D03*
X008165Y002161D03*
X008165Y002205D03*
X008165Y002260D03*
X008165Y002303D03*
X008165Y002358D03*
X008165Y002402D03*
X008165Y002457D03*
X008165Y002500D03*
X008165Y002555D03*
X008165Y002599D03*
X008165Y002653D03*
X008165Y002697D03*
X008165Y002752D03*
X008165Y002796D03*
X008165Y002850D03*
X008165Y002894D03*
X008165Y002949D03*
X008165Y002992D03*
X008165Y003047D03*
X008165Y003091D03*
X008165Y003146D03*
X008165Y003189D03*
X008165Y003244D03*
X008165Y003288D03*
X008165Y003342D03*
X008165Y003386D03*
X008165Y003441D03*
X008165Y003485D03*
X008165Y003539D03*
X008165Y003583D03*
X008165Y003638D03*
X008165Y003681D03*
X008165Y003736D03*
X008165Y003780D03*
X008165Y003835D03*
X008165Y003878D03*
X008165Y003933D03*
X008165Y003977D03*
X008165Y004031D03*
X008165Y004075D03*
X008165Y004130D03*
X008165Y004174D03*
X008165Y004228D03*
X008165Y004272D03*
X008165Y004327D03*
X008165Y004370D03*
X008165Y004425D03*
X008165Y004469D03*
X008165Y004524D03*
D25*
X006765Y002839D03*
X004349Y002839D03*
X004349Y002828D03*
X004349Y002817D03*
X004349Y002807D03*
X004349Y002785D03*
X004349Y002774D03*
X004349Y002763D03*
X004349Y002741D03*
X004349Y002730D03*
X004349Y002719D03*
X004349Y002708D03*
X004349Y002686D03*
X004349Y002675D03*
X004349Y002664D03*
X004349Y002643D03*
X004349Y002632D03*
X004349Y002621D03*
X004349Y002610D03*
X004349Y002588D03*
X004349Y002577D03*
X004349Y002566D03*
X004349Y002544D03*
X004349Y002533D03*
X004349Y002522D03*
X004349Y002511D03*
X004349Y002489D03*
X004349Y002478D03*
X004349Y002468D03*
X004349Y002446D03*
X004349Y002435D03*
X004349Y002424D03*
X004349Y002413D03*
X004349Y002391D03*
X004349Y002380D03*
X004349Y002369D03*
X004349Y002347D03*
X004349Y002336D03*
X004349Y002325D03*
X004349Y002314D03*
X004349Y002293D03*
X004349Y002282D03*
X004349Y002271D03*
X004349Y002249D03*
X004349Y002238D03*
X004349Y002227D03*
X004349Y002216D03*
X004349Y002194D03*
X004349Y002183D03*
X004349Y002172D03*
X004349Y002150D03*
X004349Y002139D03*
X004349Y002129D03*
X004349Y002118D03*
X004349Y002096D03*
X004349Y002085D03*
X004349Y002074D03*
X004349Y002052D03*
X004349Y002041D03*
X004349Y002030D03*
X004349Y002019D03*
X004349Y001997D03*
X004349Y001986D03*
X004349Y001975D03*
X004349Y001964D03*
X004349Y001943D03*
X004349Y001932D03*
X004349Y001921D03*
X004349Y001899D03*
X004349Y001888D03*
X004349Y001877D03*
X004349Y001866D03*
X004349Y001844D03*
X004349Y001833D03*
X004349Y001822D03*
X004349Y001800D03*
X004349Y001789D03*
X004349Y001779D03*
X004349Y001768D03*
X004349Y001746D03*
X004349Y001735D03*
X004349Y001724D03*
X004349Y001702D03*
X004349Y001691D03*
X004349Y001680D03*
X004349Y001669D03*
X004349Y001647D03*
X004349Y001636D03*
X004349Y001625D03*
X004349Y001604D03*
X004349Y001593D03*
X004349Y001582D03*
X004349Y001571D03*
X004349Y001549D03*
X004349Y001538D03*
X004349Y001527D03*
X004349Y001505D03*
X004349Y001494D03*
X004349Y001483D03*
X004349Y001461D03*
X004349Y001450D03*
X004349Y001440D03*
X004349Y001429D03*
X004349Y001407D03*
X004349Y001396D03*
X004349Y001385D03*
X004349Y001363D03*
X004349Y001352D03*
X004349Y001341D03*
X004349Y001330D03*
X004349Y001308D03*
X004349Y001297D03*
X004349Y001286D03*
X004349Y001265D03*
X004349Y001254D03*
X004349Y001243D03*
X004349Y001232D03*
X004349Y001210D03*
X004349Y001199D03*
X004349Y001188D03*
X004349Y001166D03*
X004349Y001155D03*
X004349Y001144D03*
X004349Y001133D03*
X004349Y001111D03*
X004349Y001101D03*
X004349Y001090D03*
X004349Y001068D03*
X004349Y001057D03*
X004349Y001046D03*
X004349Y001035D03*
X004349Y001013D03*
X004349Y001002D03*
X004349Y000991D03*
X004349Y000980D03*
X004349Y000958D03*
X004349Y000947D03*
X004349Y000936D03*
X004349Y000915D03*
X004349Y000904D03*
X004349Y000893D03*
X004349Y000882D03*
X004349Y002861D03*
X004349Y002872D03*
X004349Y002883D03*
X004349Y002905D03*
X004349Y002916D03*
X004349Y002927D03*
X004349Y002938D03*
X004349Y002960D03*
X004349Y002971D03*
X004349Y002982D03*
X004349Y003003D03*
X004349Y003014D03*
X004349Y003025D03*
X004349Y003036D03*
X004349Y003058D03*
X004349Y003069D03*
X004349Y003080D03*
X004349Y003102D03*
X004349Y003113D03*
X004349Y003124D03*
X004349Y003135D03*
X004349Y003156D03*
X004349Y003167D03*
X004349Y003178D03*
X004349Y003200D03*
X004349Y003211D03*
X004349Y003222D03*
X004349Y003233D03*
X004349Y003255D03*
X004349Y003266D03*
X004349Y003277D03*
X004349Y003299D03*
X004349Y003310D03*
X004349Y003321D03*
X004349Y003331D03*
X004349Y003353D03*
X004349Y003364D03*
X004349Y003375D03*
X004349Y003397D03*
X004349Y003408D03*
X004349Y003419D03*
X004349Y003430D03*
X004349Y003452D03*
X004349Y003463D03*
X004349Y003474D03*
X004349Y003496D03*
X004349Y003506D03*
X004349Y003517D03*
X004349Y003528D03*
X004349Y003550D03*
X004349Y003561D03*
X004349Y003572D03*
X004349Y003594D03*
X004349Y003605D03*
X004349Y003616D03*
X004349Y003627D03*
X004349Y003649D03*
X004349Y003660D03*
X004349Y003671D03*
X004349Y003692D03*
X004349Y003703D03*
X004349Y003714D03*
X004349Y003725D03*
X004349Y003747D03*
X004349Y003758D03*
X004349Y003769D03*
X004349Y003791D03*
X004349Y003802D03*
X004349Y003813D03*
X004349Y003824D03*
X004349Y003845D03*
X004349Y003856D03*
X004349Y003867D03*
X004349Y003889D03*
X004349Y003900D03*
X004349Y003911D03*
X004349Y003922D03*
X004349Y003944D03*
X004349Y003955D03*
X004349Y003966D03*
X004349Y003988D03*
X004349Y003999D03*
X004349Y004010D03*
X004349Y004020D03*
X004349Y004042D03*
X004349Y004053D03*
X004349Y004064D03*
X004349Y004086D03*
X004349Y004097D03*
X004349Y004108D03*
X004349Y004119D03*
X004349Y004141D03*
X004349Y004152D03*
X004349Y004163D03*
X004349Y004184D03*
X004349Y004195D03*
X004349Y004206D03*
X004349Y004217D03*
X004349Y004239D03*
X004349Y004250D03*
X004349Y004261D03*
X004349Y004283D03*
X004349Y004294D03*
X004349Y004305D03*
X004349Y004316D03*
X004349Y004338D03*
X004349Y004349D03*
X004349Y004359D03*
X004349Y004381D03*
X004349Y004392D03*
X004349Y004403D03*
X004349Y004414D03*
X004349Y004436D03*
X004349Y004447D03*
X004349Y004458D03*
X004349Y004480D03*
X004349Y004491D03*
X004349Y004502D03*
X004349Y004513D03*
X004349Y004534D03*
X004349Y004545D03*
X004349Y004556D03*
X027577Y004556D03*
X027577Y004545D03*
X027577Y004534D03*
X027577Y004513D03*
X027577Y004502D03*
X027577Y004491D03*
X027577Y004480D03*
X027577Y004458D03*
X027577Y004447D03*
X027577Y004436D03*
X027577Y004414D03*
X027577Y004403D03*
X027577Y004392D03*
X027577Y004381D03*
X027577Y004359D03*
X027577Y004349D03*
X027577Y004338D03*
X027577Y004316D03*
X027577Y004305D03*
X027577Y004294D03*
X027577Y004283D03*
X027577Y004261D03*
X027577Y004250D03*
X027577Y004239D03*
X027577Y004217D03*
X027577Y004206D03*
X027577Y004195D03*
X027577Y004184D03*
X027577Y004163D03*
X027577Y004152D03*
X027577Y004141D03*
X027577Y004119D03*
X027577Y004108D03*
X027577Y004097D03*
X027577Y004086D03*
X027577Y004064D03*
X027577Y004053D03*
X027577Y004042D03*
X027577Y004020D03*
X027577Y004010D03*
X027577Y003999D03*
X027577Y003988D03*
X027577Y003966D03*
X027577Y003955D03*
X027577Y003944D03*
X027577Y003922D03*
X027577Y003911D03*
X027577Y003900D03*
X027577Y003889D03*
X027577Y003867D03*
X027577Y003856D03*
X027577Y003845D03*
X027577Y003824D03*
X027577Y003813D03*
X027577Y003802D03*
X027577Y003791D03*
X027577Y003769D03*
X027577Y003758D03*
X027577Y003747D03*
X027577Y003725D03*
X027577Y003714D03*
X027577Y003703D03*
X027577Y003692D03*
X027577Y003671D03*
X027577Y003660D03*
X027577Y003649D03*
X027577Y003627D03*
X027577Y003616D03*
X027577Y003605D03*
X027577Y003594D03*
X027577Y003572D03*
X027577Y003561D03*
X027577Y003550D03*
X027577Y003528D03*
X027577Y003517D03*
X027577Y003506D03*
X027577Y003496D03*
X027577Y003474D03*
X027577Y003463D03*
X027577Y003452D03*
X027577Y003430D03*
X027577Y003419D03*
X027577Y003408D03*
X027577Y003397D03*
X027577Y003375D03*
X027577Y003364D03*
X027577Y003353D03*
X027577Y003331D03*
X027577Y003321D03*
X027577Y003310D03*
X027577Y003299D03*
X027577Y003277D03*
X027577Y003266D03*
X027577Y003255D03*
X027577Y003233D03*
X027577Y003222D03*
X027577Y003211D03*
X027577Y003200D03*
X027577Y003178D03*
X027577Y003167D03*
X027577Y003156D03*
X027577Y003135D03*
X027577Y003124D03*
X027577Y003113D03*
X027577Y003102D03*
X027577Y003080D03*
X027577Y003069D03*
X027577Y003058D03*
X027577Y003036D03*
X027577Y003025D03*
X027577Y003014D03*
X027577Y003003D03*
X027577Y002982D03*
X027577Y002971D03*
X027577Y002960D03*
X027577Y002938D03*
X027577Y002927D03*
X027577Y002916D03*
X027577Y002905D03*
X027577Y002883D03*
X027577Y002872D03*
X027577Y002861D03*
X027577Y002839D03*
X027577Y002828D03*
X027577Y002817D03*
X027577Y002807D03*
X027577Y002785D03*
X027577Y002774D03*
X027577Y002763D03*
X027577Y002741D03*
X027577Y002730D03*
X027577Y002719D03*
X027577Y002708D03*
X027577Y002686D03*
X027577Y002675D03*
X027577Y002664D03*
X027577Y002643D03*
X027577Y002632D03*
X027577Y002621D03*
X027577Y002610D03*
X027577Y002588D03*
X027577Y002577D03*
X027577Y002566D03*
X027577Y002544D03*
X027577Y002533D03*
X027577Y002522D03*
X027577Y002511D03*
X027577Y002489D03*
X027577Y002478D03*
X027577Y002468D03*
X027577Y002446D03*
X027577Y002435D03*
X027577Y002424D03*
X027577Y002413D03*
X027577Y002391D03*
X027577Y002380D03*
X027577Y002369D03*
X027577Y002347D03*
X027577Y002336D03*
X027577Y002325D03*
X027577Y002314D03*
X027577Y002293D03*
X027577Y002282D03*
X027577Y002271D03*
X027577Y002249D03*
X027577Y002238D03*
X027577Y002227D03*
X027577Y002216D03*
X027577Y002194D03*
X027577Y002183D03*
X027577Y002172D03*
X027577Y002150D03*
X027577Y002139D03*
X027577Y002129D03*
X027577Y002118D03*
X027577Y002096D03*
X027577Y002085D03*
X027577Y002074D03*
X027577Y002052D03*
X027577Y002041D03*
X027577Y002030D03*
X027577Y002019D03*
X027577Y001997D03*
X027577Y001986D03*
X027577Y001975D03*
X027577Y001964D03*
X027577Y001943D03*
X027577Y001932D03*
X027577Y001921D03*
X027577Y001899D03*
X027577Y001888D03*
X027577Y001877D03*
X027577Y001866D03*
X027577Y001844D03*
X027577Y001833D03*
X027577Y001822D03*
X027577Y001800D03*
X027577Y001789D03*
X027577Y001779D03*
X027577Y001768D03*
X027577Y001746D03*
X027577Y001735D03*
X027577Y001724D03*
X027577Y001702D03*
X027577Y001691D03*
X027577Y001680D03*
X027577Y001669D03*
X027577Y001647D03*
X027577Y001636D03*
X027577Y001625D03*
X027577Y001604D03*
X027577Y001593D03*
X027577Y001582D03*
X027577Y001571D03*
X027577Y001549D03*
X027577Y001538D03*
X027577Y001527D03*
X027577Y001505D03*
X027577Y001494D03*
X027577Y001483D03*
X027577Y001461D03*
X027577Y001450D03*
X027577Y001440D03*
X027577Y001429D03*
X027577Y001407D03*
X027577Y001396D03*
X027577Y001385D03*
X027577Y001363D03*
X027577Y001352D03*
X027577Y001341D03*
X027577Y001330D03*
X027577Y001308D03*
X027577Y001297D03*
X027577Y001286D03*
X027577Y001265D03*
X027577Y001254D03*
X027577Y001243D03*
X027577Y001232D03*
X027577Y001210D03*
X027577Y001199D03*
X027577Y001188D03*
X027577Y001166D03*
X027577Y001155D03*
X027577Y001144D03*
X027577Y001133D03*
X027577Y001111D03*
X027577Y001101D03*
X027577Y001090D03*
X027577Y001068D03*
X027577Y001057D03*
X027577Y001046D03*
X027577Y001035D03*
X027577Y001013D03*
X027577Y001002D03*
X027577Y000991D03*
X027577Y000980D03*
X027577Y000958D03*
X027577Y000947D03*
X027577Y000936D03*
X027577Y000915D03*
X027577Y000904D03*
X027577Y000893D03*
X027577Y000882D03*
X027872Y001549D03*
X028845Y001636D03*
X028003Y003867D03*
X029585Y006315D03*
X029585Y006326D03*
X029585Y006337D03*
X029585Y006348D03*
X029585Y006370D03*
X029585Y006380D03*
X029585Y006391D03*
X029585Y006413D03*
X029585Y006424D03*
X029585Y006435D03*
X029585Y006446D03*
X029585Y006468D03*
X029585Y006479D03*
X029585Y006490D03*
X029585Y006512D03*
X029585Y006523D03*
X029585Y006534D03*
X029585Y006545D03*
X029585Y006566D03*
X029585Y006577D03*
X029585Y006588D03*
X029585Y006610D03*
X029585Y006621D03*
X029585Y006632D03*
X029585Y006643D03*
X029585Y006665D03*
X029585Y006676D03*
X029585Y006687D03*
X029585Y006709D03*
X029585Y006719D03*
X029585Y006730D03*
X029585Y006741D03*
X029585Y006763D03*
X029585Y006774D03*
X029585Y006785D03*
X029585Y006807D03*
X029585Y006818D03*
X029585Y006829D03*
X029585Y006840D03*
X029585Y006862D03*
X029585Y006873D03*
X029585Y006884D03*
X029585Y006905D03*
X029585Y006916D03*
X029585Y006927D03*
X029585Y006938D03*
X029585Y006960D03*
X029585Y006971D03*
X029585Y006982D03*
X029585Y007004D03*
X029585Y007015D03*
X029585Y007026D03*
X029585Y007037D03*
X029585Y007059D03*
X029585Y007069D03*
X029585Y007080D03*
X029585Y007102D03*
X029585Y007113D03*
X029585Y007124D03*
X029585Y007135D03*
X029585Y007157D03*
X029585Y007168D03*
X029585Y007179D03*
X029585Y007201D03*
X029585Y007212D03*
X029585Y007223D03*
X029585Y007234D03*
X029585Y007255D03*
X029585Y007266D03*
X029585Y007277D03*
X029585Y007299D03*
X029585Y007310D03*
X029585Y007321D03*
X029585Y007332D03*
X029585Y007354D03*
X029585Y007365D03*
X029585Y007376D03*
X029585Y007398D03*
X029585Y007408D03*
X029585Y007419D03*
X029585Y007430D03*
X029585Y007452D03*
X029585Y007463D03*
X029585Y007474D03*
X029585Y007496D03*
X029585Y007507D03*
X029585Y007518D03*
X029585Y007529D03*
X029585Y007551D03*
X029585Y007562D03*
X029585Y007573D03*
X029585Y007594D03*
X029585Y007605D03*
X029585Y007616D03*
X029585Y007627D03*
X029585Y007649D03*
X029585Y007660D03*
X029585Y007671D03*
X029585Y007693D03*
X029585Y007704D03*
X029585Y007715D03*
X029585Y007726D03*
X029585Y007747D03*
X029585Y007758D03*
X029585Y007769D03*
X029585Y007791D03*
X029585Y007802D03*
X029585Y007813D03*
X029585Y007824D03*
X029585Y007846D03*
X029585Y007857D03*
X029585Y007868D03*
X029585Y007890D03*
X029585Y007901D03*
X029585Y007912D03*
X029585Y007922D03*
X029585Y007944D03*
X029585Y007955D03*
X029585Y007966D03*
X029585Y007988D03*
X029585Y007999D03*
X029585Y008010D03*
X029585Y008021D03*
X029585Y008043D03*
X029585Y008054D03*
X029585Y008065D03*
X029585Y008086D03*
X029585Y008097D03*
X029585Y008108D03*
X029585Y008119D03*
X029585Y008141D03*
X029585Y008152D03*
X029585Y008163D03*
X029585Y008185D03*
X029585Y008196D03*
X029585Y008207D03*
X029585Y008218D03*
X029585Y008240D03*
X029585Y008251D03*
X029585Y008261D03*
X029585Y008283D03*
X029585Y008294D03*
X029585Y008305D03*
X029585Y008316D03*
X029585Y008338D03*
X029585Y008349D03*
X029585Y008360D03*
X029585Y008382D03*
X029585Y008393D03*
X029585Y008404D03*
X029585Y008415D03*
X029585Y008436D03*
X029585Y008447D03*
X029585Y008458D03*
X029585Y008480D03*
X029585Y008491D03*
X029585Y008502D03*
X029585Y008513D03*
X029585Y008535D03*
X029585Y008546D03*
X029585Y008557D03*
X029585Y008579D03*
X029585Y008590D03*
X029585Y008601D03*
X029585Y008611D03*
X029585Y008633D03*
X029585Y008644D03*
X029585Y008655D03*
X029585Y008677D03*
X029585Y008688D03*
X029585Y008699D03*
X029585Y008710D03*
X029585Y008732D03*
X029585Y008743D03*
X029585Y008754D03*
X029585Y008775D03*
X029585Y008786D03*
X029585Y008797D03*
X029585Y008808D03*
X029585Y008830D03*
X029585Y008841D03*
X029585Y008852D03*
X029585Y008874D03*
X029585Y008885D03*
X029585Y008896D03*
X029585Y008907D03*
X029585Y008929D03*
X029585Y008940D03*
X029585Y008950D03*
X029585Y008972D03*
X029585Y008983D03*
X029585Y008994D03*
X029585Y009005D03*
X029585Y009027D03*
X029585Y009038D03*
X029585Y009049D03*
X029585Y009071D03*
X029585Y009082D03*
X029585Y009093D03*
X029585Y009104D03*
X029585Y009125D03*
X029585Y009136D03*
X029585Y009147D03*
X029585Y009169D03*
X029585Y009180D03*
X029585Y009191D03*
X029585Y009202D03*
X029585Y009224D03*
X029585Y009235D03*
X029585Y009246D03*
X029585Y009268D03*
X029585Y009279D03*
X029585Y009289D03*
X029585Y009300D03*
X029585Y009322D03*
X029585Y009333D03*
X029585Y009344D03*
X029585Y009366D03*
X029585Y009377D03*
X029585Y009388D03*
X029585Y009399D03*
X029585Y009421D03*
X029585Y009432D03*
X029585Y009443D03*
X029585Y009464D03*
X029585Y009475D03*
X029585Y009486D03*
X029585Y009497D03*
X029585Y009519D03*
X029585Y009530D03*
X029585Y009541D03*
X029585Y009563D03*
X029585Y009574D03*
X029585Y009585D03*
X029585Y009596D03*
X029585Y009618D03*
X029585Y009629D03*
X029585Y009639D03*
X029585Y009661D03*
X029585Y009672D03*
X029585Y009683D03*
X029585Y009694D03*
X029585Y009716D03*
X029585Y009727D03*
X029585Y009738D03*
X029585Y009760D03*
X029585Y009771D03*
X029585Y009782D03*
X029585Y009793D03*
X029585Y009814D03*
X029585Y009825D03*
X029585Y009836D03*
X029585Y009858D03*
X029585Y009869D03*
X029585Y009880D03*
X029585Y009891D03*
X029585Y009913D03*
X029585Y009924D03*
X029585Y009935D03*
X029585Y009957D03*
X029585Y009968D03*
X029585Y009978D03*
X029585Y009989D03*
X029585Y011748D03*
X029585Y011759D03*
X029585Y011770D03*
X029585Y011781D03*
X029585Y011803D03*
X029585Y011814D03*
X029585Y011824D03*
X029585Y011846D03*
X029585Y011857D03*
X029585Y011868D03*
X029585Y011879D03*
X029585Y011901D03*
X029585Y011912D03*
X029585Y011923D03*
X029585Y011945D03*
X029585Y011956D03*
X029585Y011967D03*
X029585Y011978D03*
X029585Y011999D03*
X029585Y012010D03*
X029585Y012021D03*
X029585Y012043D03*
X029585Y012054D03*
X029585Y012065D03*
X029585Y012076D03*
X029585Y012098D03*
X029585Y012109D03*
X029585Y012120D03*
X029585Y012142D03*
X029585Y012153D03*
X029585Y012164D03*
X029585Y012174D03*
X029585Y012196D03*
X029585Y012207D03*
X029585Y012218D03*
X029585Y012240D03*
X029585Y012251D03*
X029585Y012262D03*
X029585Y012273D03*
X029585Y012295D03*
X029585Y012306D03*
X029585Y012317D03*
X029585Y012338D03*
X029585Y012349D03*
X029585Y012360D03*
X029585Y012371D03*
X029585Y012393D03*
X029585Y012404D03*
X029585Y012415D03*
X029585Y012437D03*
X029585Y012448D03*
X029585Y012459D03*
X029585Y012470D03*
X029585Y012492D03*
X029585Y012503D03*
X029585Y012513D03*
X029585Y012535D03*
X029585Y012546D03*
X029585Y012557D03*
X029585Y012568D03*
X029585Y012590D03*
X029585Y012601D03*
X029585Y012612D03*
X029585Y012634D03*
X029585Y012645D03*
X029585Y012656D03*
X029585Y012667D03*
X029585Y012688D03*
X029585Y012699D03*
X029585Y012710D03*
X029585Y012732D03*
X029585Y012743D03*
X029585Y012754D03*
X029585Y012765D03*
X029585Y012787D03*
X029585Y012798D03*
X029585Y012809D03*
X029585Y012831D03*
X029585Y012842D03*
X029585Y012852D03*
X029585Y012863D03*
X029585Y012885D03*
X029585Y012896D03*
X029585Y012907D03*
X029585Y012929D03*
X029585Y012940D03*
X029585Y012951D03*
X029585Y012962D03*
X029585Y012984D03*
X029585Y012995D03*
X029585Y013006D03*
X029585Y013027D03*
X029585Y013038D03*
X029585Y013049D03*
X029585Y013060D03*
X029585Y013082D03*
X029585Y013093D03*
X029585Y013104D03*
X029585Y013126D03*
X029585Y013137D03*
X029585Y013148D03*
X029585Y013159D03*
X029585Y013181D03*
X029585Y013191D03*
X029585Y013202D03*
X029585Y013224D03*
X029585Y013235D03*
X029585Y013246D03*
X029585Y013257D03*
X029585Y013279D03*
X029585Y013290D03*
X029585Y013301D03*
X029585Y013323D03*
X029585Y013334D03*
X029585Y013345D03*
X029585Y013356D03*
X029585Y013377D03*
X029585Y013388D03*
X029585Y013399D03*
X029585Y013421D03*
X029585Y013432D03*
X029585Y013443D03*
X029585Y013454D03*
X029585Y013476D03*
X029585Y013487D03*
X029585Y013498D03*
X029585Y013520D03*
X029585Y013531D03*
X029585Y013541D03*
X029585Y013552D03*
X029585Y013574D03*
X029585Y013585D03*
X029585Y013596D03*
X029585Y013618D03*
X029585Y013629D03*
X029585Y013640D03*
X029585Y013651D03*
X029585Y013673D03*
X029585Y013684D03*
X029585Y013695D03*
X029585Y013716D03*
X029585Y013727D03*
X029585Y013738D03*
X029585Y013749D03*
X029585Y013771D03*
X029585Y013782D03*
X029585Y013793D03*
X029585Y013815D03*
X029585Y013826D03*
X029585Y013837D03*
X029585Y013848D03*
X029585Y013870D03*
X029585Y013880D03*
X029585Y013891D03*
X029585Y013913D03*
X029585Y013924D03*
X029585Y013935D03*
X029585Y013946D03*
X029585Y013968D03*
X029585Y013979D03*
X029585Y013990D03*
X029585Y014012D03*
X029585Y014023D03*
X029585Y014034D03*
X029585Y014045D03*
X029585Y014066D03*
X029585Y014077D03*
X029585Y014088D03*
X029585Y014110D03*
X029585Y014121D03*
X029585Y014132D03*
X029585Y014143D03*
X029585Y014165D03*
X029585Y014176D03*
X029585Y014187D03*
X029585Y014209D03*
X029585Y014219D03*
X029585Y014230D03*
X029585Y014241D03*
X029585Y014263D03*
X029585Y014274D03*
X029585Y014285D03*
X029585Y014307D03*
X029585Y014318D03*
X029585Y014329D03*
X029585Y014340D03*
X029585Y014362D03*
X029585Y014373D03*
X029585Y014384D03*
X029585Y014405D03*
X029585Y014416D03*
X029585Y014427D03*
X029585Y014438D03*
X029585Y014460D03*
X029585Y014471D03*
X029585Y014482D03*
X029585Y014504D03*
X029585Y014515D03*
X029585Y014526D03*
X029585Y014537D03*
X029585Y014559D03*
X029585Y014569D03*
X029585Y014580D03*
X029585Y014602D03*
X029585Y014613D03*
X029585Y014624D03*
X029585Y014635D03*
X029585Y014657D03*
X029585Y014668D03*
X029585Y014679D03*
X029585Y014701D03*
X029585Y014712D03*
X029585Y014723D03*
X029585Y014734D03*
X029585Y014755D03*
X029585Y014766D03*
X029585Y014777D03*
X029585Y014799D03*
X029585Y014810D03*
X029585Y014821D03*
X029585Y014832D03*
X029585Y014854D03*
X029585Y014865D03*
X029585Y014876D03*
X029585Y014898D03*
X029585Y014908D03*
X029585Y014919D03*
X029585Y014930D03*
X029585Y014952D03*
X029585Y014963D03*
X029585Y014974D03*
X029585Y014996D03*
X029585Y015007D03*
X029585Y015018D03*
X029585Y015029D03*
X029585Y015051D03*
X029585Y015062D03*
X029585Y015073D03*
X029585Y015094D03*
X029585Y015105D03*
X029585Y015116D03*
X029585Y015127D03*
X029585Y015149D03*
X029585Y015160D03*
X029585Y015171D03*
X029585Y015193D03*
X029585Y015204D03*
X029585Y015215D03*
X029585Y015226D03*
X029585Y015247D03*
X029585Y015258D03*
X029585Y015269D03*
X029585Y015291D03*
X029585Y015302D03*
X029585Y015313D03*
X029585Y015324D03*
X029585Y015346D03*
X029585Y015357D03*
X029585Y015368D03*
X029585Y015390D03*
X029585Y015401D03*
X029585Y015412D03*
X029585Y015422D03*
X031247Y013946D03*
X031783Y014219D03*
X031783Y014230D03*
X031783Y014241D03*
X031892Y015105D03*
X031892Y015116D03*
X032177Y008108D03*
X032297Y008010D03*
X032538Y007813D03*
X032592Y007769D03*
X032833Y007573D03*
X031750Y008010D03*
X031214Y008108D03*
D26*
X032417Y007912D03*
X032713Y007671D03*
X033401Y007671D03*
X033401Y007660D03*
X033401Y007649D03*
X033401Y007627D03*
X033401Y007616D03*
X033401Y007605D03*
X033401Y007594D03*
X033401Y007573D03*
X033401Y007562D03*
X033401Y007551D03*
X033401Y007529D03*
X033401Y007518D03*
X033401Y007507D03*
X033401Y007496D03*
X033401Y007474D03*
X033401Y007463D03*
X033401Y007452D03*
X033401Y007430D03*
X033401Y007419D03*
X033401Y007408D03*
X033401Y007398D03*
X033401Y007376D03*
X033401Y007365D03*
X033401Y007354D03*
X033401Y007332D03*
X033401Y007321D03*
X033401Y007310D03*
X033401Y007299D03*
X033401Y007277D03*
X033401Y007266D03*
X033401Y007255D03*
X033401Y007234D03*
X033401Y007223D03*
X033401Y007212D03*
X033401Y007201D03*
X033401Y007179D03*
X033401Y007168D03*
X033401Y007157D03*
X033401Y007135D03*
X033401Y007124D03*
X033401Y007113D03*
X033401Y007102D03*
X033401Y007080D03*
X033401Y007069D03*
X033401Y007059D03*
X033401Y007037D03*
X033401Y007026D03*
X033401Y007015D03*
X033401Y007004D03*
X033401Y006982D03*
X033401Y006971D03*
X033401Y006960D03*
X033401Y006938D03*
X033401Y006927D03*
X033401Y006916D03*
X033401Y006905D03*
X033401Y006884D03*
X033401Y006873D03*
X033401Y006862D03*
X033401Y006840D03*
X033401Y006829D03*
X033401Y006818D03*
X033401Y006807D03*
X033401Y006785D03*
X033401Y006774D03*
X033401Y006763D03*
X033401Y006741D03*
X033401Y006730D03*
X033401Y006719D03*
X033401Y006709D03*
X033401Y006687D03*
X033401Y006676D03*
X033401Y006665D03*
X033401Y006643D03*
X033401Y006632D03*
X033401Y006621D03*
X033401Y006610D03*
X033401Y006588D03*
X033401Y006577D03*
X033401Y006566D03*
X033401Y006545D03*
X033401Y006534D03*
X033401Y006523D03*
X033401Y006512D03*
X033401Y006490D03*
X033401Y006479D03*
X033401Y006468D03*
X033401Y006446D03*
X033401Y006435D03*
X033401Y006424D03*
X033401Y006413D03*
X033401Y006391D03*
X033401Y006380D03*
X033401Y006370D03*
X033401Y006348D03*
X033401Y006337D03*
X033401Y006326D03*
X033401Y006315D03*
X033401Y007693D03*
X033401Y007704D03*
X033401Y007715D03*
X033401Y007726D03*
X033401Y007747D03*
X033401Y007758D03*
X033401Y007769D03*
X033401Y007791D03*
X033401Y007802D03*
X033401Y007813D03*
X033401Y007824D03*
X033401Y007846D03*
X033401Y007857D03*
X033401Y007868D03*
X033401Y007890D03*
X033401Y007901D03*
X033401Y007912D03*
X033401Y007922D03*
X033401Y007944D03*
X033401Y007955D03*
X033401Y007966D03*
X033401Y007988D03*
X033401Y007999D03*
X033401Y008010D03*
X033401Y008021D03*
X033401Y008043D03*
X033401Y008054D03*
X033401Y008065D03*
X033401Y008086D03*
X033401Y008097D03*
X033401Y008108D03*
X033401Y008119D03*
X033401Y008141D03*
X033401Y008152D03*
X033401Y008163D03*
X033401Y008185D03*
X033401Y008196D03*
X033401Y008207D03*
X033401Y008218D03*
X033401Y008240D03*
X033401Y008251D03*
X033401Y008261D03*
X033401Y008283D03*
X033401Y008294D03*
X033401Y008305D03*
X033401Y008316D03*
X033401Y008338D03*
X033401Y008349D03*
X033401Y008360D03*
X033401Y008382D03*
X033401Y008393D03*
X033401Y008404D03*
X033401Y008415D03*
X033401Y008436D03*
X033401Y008447D03*
X033401Y008458D03*
X033401Y008480D03*
X033401Y008491D03*
X033401Y008502D03*
X033401Y008513D03*
X033401Y008535D03*
X033401Y008546D03*
X033401Y008557D03*
X033401Y008579D03*
X033401Y008590D03*
X033401Y008601D03*
X033401Y008611D03*
X033401Y008633D03*
X033401Y008644D03*
X033401Y008655D03*
X033401Y008677D03*
X033401Y008688D03*
X033401Y008699D03*
X033401Y008710D03*
X033401Y008732D03*
X033401Y008743D03*
X033401Y008754D03*
X033401Y008775D03*
X033401Y008786D03*
X033401Y008797D03*
X033401Y008808D03*
X033401Y008830D03*
X033401Y008841D03*
X033401Y008852D03*
X033401Y008874D03*
X033401Y008885D03*
X033401Y008896D03*
X033401Y008907D03*
X033401Y008929D03*
X033401Y008940D03*
X033401Y008950D03*
X033401Y008972D03*
X033401Y008983D03*
X033401Y008994D03*
X033401Y009005D03*
X033401Y009027D03*
X033401Y009038D03*
X033401Y009049D03*
X033401Y009071D03*
X033401Y009082D03*
X033401Y009093D03*
X033401Y009104D03*
X033401Y009125D03*
X033401Y009136D03*
X033401Y009147D03*
X033401Y009169D03*
X033401Y009180D03*
X033401Y009191D03*
X033401Y009202D03*
X033401Y009224D03*
X033401Y009235D03*
X033401Y009246D03*
X033401Y009268D03*
X033401Y009279D03*
X033401Y009289D03*
X033401Y009300D03*
X033401Y009322D03*
X033401Y009333D03*
X033401Y009344D03*
X033401Y009366D03*
X033401Y009377D03*
X033401Y009388D03*
X033401Y009399D03*
X033401Y009421D03*
X033401Y009432D03*
X033401Y009443D03*
X033401Y009464D03*
X033401Y009475D03*
X033401Y009486D03*
X033401Y009497D03*
X033401Y009519D03*
X033401Y009530D03*
X033401Y009541D03*
X033401Y009563D03*
X033401Y009574D03*
X033401Y009585D03*
X033401Y009596D03*
X033401Y009618D03*
X033401Y009629D03*
X033401Y009639D03*
X033401Y009661D03*
X033401Y009672D03*
X033401Y009683D03*
X033401Y009694D03*
X033401Y009716D03*
X033401Y009727D03*
X033401Y009738D03*
X033401Y009760D03*
X033401Y009771D03*
X033401Y009782D03*
X033401Y009793D03*
X033401Y009814D03*
X033401Y009825D03*
X033401Y009836D03*
X033401Y009858D03*
X033401Y009869D03*
X033401Y009880D03*
X033401Y009891D03*
X033401Y009913D03*
X033401Y009924D03*
X033401Y009935D03*
X033401Y009957D03*
X033401Y009968D03*
X033401Y009978D03*
X033401Y009989D03*
X033401Y011748D03*
X033401Y011759D03*
X033401Y011770D03*
X033401Y011781D03*
X033401Y011803D03*
X033401Y011814D03*
X033401Y011824D03*
X033401Y011846D03*
X033401Y011857D03*
X033401Y011868D03*
X033401Y011879D03*
X033401Y011901D03*
X033401Y011912D03*
X033401Y011923D03*
X033401Y011945D03*
X033401Y011956D03*
X033401Y011967D03*
X033401Y011978D03*
X033401Y011999D03*
X033401Y012010D03*
X033401Y012021D03*
X033401Y012043D03*
X033401Y012054D03*
X033401Y012065D03*
X033401Y012076D03*
X033401Y012098D03*
X033401Y012109D03*
X033401Y012120D03*
X033401Y012142D03*
X033401Y012153D03*
X033401Y012164D03*
X033401Y012174D03*
X033401Y012196D03*
X033401Y012207D03*
X033401Y012218D03*
X033401Y012240D03*
X033401Y012251D03*
X033401Y012262D03*
X033401Y012273D03*
X033401Y012295D03*
X033401Y012306D03*
X033401Y012317D03*
X033401Y012338D03*
X033401Y012349D03*
X033401Y012360D03*
X033401Y012371D03*
X033401Y012393D03*
X033401Y012404D03*
X033401Y012415D03*
X033401Y012437D03*
X033401Y012448D03*
X033401Y012459D03*
X033401Y012470D03*
X033401Y012492D03*
X033401Y012503D03*
X033401Y012513D03*
X033401Y012535D03*
X033401Y012546D03*
X033401Y012557D03*
X033401Y012568D03*
X033401Y012590D03*
X033401Y012601D03*
X033401Y012612D03*
X033401Y012634D03*
X033401Y012645D03*
X033401Y012656D03*
X033401Y012667D03*
X033401Y012688D03*
X033401Y012699D03*
X033401Y012710D03*
X033401Y012732D03*
X033401Y012743D03*
X033401Y012754D03*
X033401Y012765D03*
X033401Y012787D03*
X033401Y012798D03*
X033401Y012809D03*
X033401Y012831D03*
X033401Y012842D03*
X033401Y012852D03*
X033401Y012863D03*
X033401Y012885D03*
X033401Y012896D03*
X033401Y012907D03*
X033401Y012929D03*
X033401Y012940D03*
X033401Y012951D03*
X033401Y012962D03*
X033401Y012984D03*
X033401Y012995D03*
X033401Y013006D03*
X033401Y013027D03*
X033401Y013038D03*
X033401Y013049D03*
X033401Y013060D03*
X033401Y013082D03*
X033401Y013093D03*
X033401Y013104D03*
X033401Y013126D03*
X033401Y013137D03*
X033401Y013148D03*
X033401Y013159D03*
X033401Y013181D03*
X033401Y013191D03*
X033401Y013202D03*
X033401Y013224D03*
X033401Y013235D03*
X033401Y013246D03*
X033401Y013257D03*
X033401Y013279D03*
X033401Y013290D03*
X033401Y013301D03*
X033401Y013323D03*
X033401Y013334D03*
X033401Y013345D03*
X033401Y013356D03*
X033401Y013377D03*
X033401Y013388D03*
X033401Y013399D03*
X033401Y013421D03*
X033401Y013432D03*
X033401Y013443D03*
X033401Y013454D03*
X033401Y013476D03*
X033401Y013487D03*
X033401Y013498D03*
X033401Y013520D03*
X033401Y013531D03*
X033401Y013541D03*
X033401Y013552D03*
X033401Y013574D03*
X033401Y013585D03*
X033401Y013596D03*
X033401Y013618D03*
X033401Y013629D03*
X033401Y013640D03*
X033401Y013651D03*
X033401Y013673D03*
X033401Y013684D03*
X033401Y013695D03*
X033401Y013716D03*
X033401Y013727D03*
X033401Y013738D03*
X033401Y013749D03*
X033401Y013771D03*
X033401Y013782D03*
X033401Y013793D03*
X033401Y013815D03*
X033401Y013826D03*
X033401Y013837D03*
X033401Y013848D03*
X033401Y013870D03*
X033401Y013880D03*
X033401Y013891D03*
X033401Y013913D03*
X033401Y013924D03*
X033401Y013935D03*
X033401Y013946D03*
X033401Y013968D03*
X033401Y013979D03*
X033401Y013990D03*
X033401Y014012D03*
X033401Y014023D03*
X033401Y014034D03*
X033401Y014045D03*
X033401Y014066D03*
X033401Y014077D03*
X033401Y014088D03*
X033401Y014110D03*
X033401Y014121D03*
X033401Y014132D03*
X033401Y014143D03*
X033401Y014165D03*
X033401Y014176D03*
X033401Y014187D03*
X033401Y014209D03*
X033401Y014219D03*
X033401Y014230D03*
X033401Y014241D03*
X033401Y014263D03*
X033401Y014274D03*
X033401Y014285D03*
X033401Y014307D03*
X033401Y014318D03*
X033401Y014329D03*
X033401Y014340D03*
X033401Y014362D03*
X033401Y014373D03*
X033401Y014384D03*
X033401Y014405D03*
X033401Y014416D03*
X033401Y014427D03*
X033401Y014438D03*
X033401Y014460D03*
X033401Y014471D03*
X033401Y014482D03*
X033401Y014504D03*
X033401Y014515D03*
X033401Y014526D03*
X033401Y014537D03*
X033401Y014559D03*
X033401Y014569D03*
X033401Y014580D03*
X033401Y014602D03*
X033401Y014613D03*
X033401Y014624D03*
X033401Y014635D03*
X033401Y014657D03*
X033401Y014668D03*
X033401Y014679D03*
X033401Y014701D03*
X033401Y014712D03*
X033401Y014723D03*
X033401Y014734D03*
X033401Y014755D03*
X033401Y014766D03*
X033401Y014777D03*
X033401Y014799D03*
X033401Y014810D03*
X033401Y014821D03*
X033401Y014832D03*
X033401Y014854D03*
X033401Y014865D03*
X033401Y014876D03*
X033401Y014898D03*
X033401Y014908D03*
X033401Y014919D03*
X033401Y014930D03*
X033401Y014952D03*
X033401Y014963D03*
X033401Y014974D03*
X033401Y014996D03*
X033401Y015007D03*
X033401Y015018D03*
X033401Y015029D03*
X033401Y015051D03*
X033401Y015062D03*
X033401Y015073D03*
X033401Y015094D03*
X033401Y015105D03*
X033401Y015116D03*
X033401Y015127D03*
X033401Y015149D03*
X033401Y015160D03*
X033401Y015171D03*
X033401Y015193D03*
X033401Y015204D03*
X033401Y015215D03*
X033401Y015226D03*
X033401Y015247D03*
X033401Y015258D03*
X033401Y015269D03*
X033401Y015291D03*
X033401Y015302D03*
X033401Y015313D03*
X033401Y015324D03*
X033401Y015346D03*
X033401Y015357D03*
X033401Y015368D03*
X033401Y015390D03*
X033401Y015401D03*
X033401Y015412D03*
X033401Y015422D03*
X032614Y014537D03*
X032155Y013782D03*
X031170Y014143D03*
X030635Y014230D03*
X030635Y014241D03*
X031181Y015029D03*
X029957Y008732D03*
X031394Y004556D03*
X031394Y004545D03*
X031394Y004534D03*
X031394Y004513D03*
X031394Y004502D03*
X031394Y004491D03*
X031394Y004480D03*
X031394Y004458D03*
X031394Y004447D03*
X031394Y004436D03*
X031394Y004414D03*
X031394Y004403D03*
X031394Y004392D03*
X031394Y004381D03*
X031394Y004359D03*
X031394Y004349D03*
X031394Y004338D03*
X031394Y004316D03*
X031394Y004305D03*
X031394Y004294D03*
X031394Y004283D03*
X031394Y004261D03*
X031394Y004250D03*
X031394Y004239D03*
X031394Y004217D03*
X031394Y004206D03*
X031394Y004195D03*
X031394Y004184D03*
X031394Y004163D03*
X031394Y004152D03*
X031394Y004141D03*
X031394Y004119D03*
X031394Y004108D03*
X031394Y004097D03*
X031394Y004086D03*
X031394Y004064D03*
X031394Y004053D03*
X031394Y004042D03*
X031394Y004020D03*
X031394Y004010D03*
X031394Y003999D03*
X031394Y003988D03*
X031394Y003966D03*
X031394Y003955D03*
X031394Y003944D03*
X031394Y003922D03*
X031394Y003911D03*
X031394Y003900D03*
X031394Y003889D03*
X031394Y003867D03*
X031394Y003856D03*
X031394Y003845D03*
X031394Y003824D03*
X031394Y003813D03*
X031394Y003802D03*
X031394Y003791D03*
X031394Y003769D03*
X031394Y003758D03*
X031394Y003747D03*
X031394Y003725D03*
X031394Y003714D03*
X031394Y003703D03*
X031394Y003692D03*
X031394Y003671D03*
X031394Y003660D03*
X031394Y003649D03*
X031394Y003627D03*
X031394Y003616D03*
X031394Y003605D03*
X031394Y003594D03*
X031394Y003572D03*
X031394Y003561D03*
X031394Y003550D03*
X031394Y003528D03*
X031394Y003517D03*
X031394Y003506D03*
X031394Y003496D03*
X031394Y003474D03*
X031394Y003463D03*
X031394Y003452D03*
X031394Y003430D03*
X031394Y003419D03*
X031394Y003408D03*
X031394Y003397D03*
X031394Y003375D03*
X031394Y003364D03*
X031394Y003353D03*
X031394Y003331D03*
X031394Y003321D03*
X031394Y003310D03*
X031394Y003299D03*
X031394Y003277D03*
X031394Y003266D03*
X031394Y003255D03*
X031394Y003233D03*
X031394Y003222D03*
X031394Y003211D03*
X031394Y003200D03*
X031394Y003178D03*
X031394Y003167D03*
X031394Y003156D03*
X031394Y003135D03*
X031394Y003124D03*
X031394Y003113D03*
X031394Y003102D03*
X031394Y003080D03*
X031394Y003069D03*
X031394Y003058D03*
X031394Y003036D03*
X031394Y003025D03*
X031394Y003014D03*
X031394Y003003D03*
X031394Y002982D03*
X031394Y002971D03*
X031394Y002960D03*
X031394Y002938D03*
X031394Y002927D03*
X031394Y002916D03*
X031394Y002905D03*
X031394Y002883D03*
X031394Y002872D03*
X031394Y002861D03*
X031394Y002839D03*
X031394Y002828D03*
X031394Y002817D03*
X031394Y002807D03*
X031394Y002785D03*
X031394Y002774D03*
X031394Y002763D03*
X031394Y002741D03*
X031394Y002730D03*
X031394Y002719D03*
X031394Y002708D03*
X031394Y002686D03*
X031394Y002675D03*
X031394Y002664D03*
X031394Y002643D03*
X031394Y002632D03*
X031394Y002621D03*
X031394Y002610D03*
X031394Y002588D03*
X031394Y002577D03*
X031394Y002566D03*
X031394Y002544D03*
X031394Y002533D03*
X031394Y002522D03*
X031394Y002511D03*
X031394Y002489D03*
X031394Y002478D03*
X031394Y002468D03*
X031394Y002446D03*
X031394Y002435D03*
X031394Y002424D03*
X031394Y002413D03*
X031394Y002391D03*
X031394Y002380D03*
X031394Y002369D03*
X031394Y002347D03*
X031394Y002336D03*
X031394Y002325D03*
X031394Y002314D03*
X031394Y002293D03*
X031394Y002282D03*
X031394Y002271D03*
X031394Y002249D03*
X031394Y002238D03*
X031394Y002227D03*
X031394Y002216D03*
X031394Y002194D03*
X031394Y002183D03*
X031394Y002172D03*
X031394Y002150D03*
X031394Y002139D03*
X031394Y002129D03*
X031394Y002118D03*
X031394Y002096D03*
X031394Y002085D03*
X031394Y002074D03*
X031394Y002052D03*
X031394Y002041D03*
X031394Y002030D03*
X031394Y002019D03*
X031394Y001997D03*
X031394Y001986D03*
X031394Y001975D03*
X031394Y001964D03*
X031394Y001943D03*
X031394Y001932D03*
X031394Y001921D03*
X031394Y001899D03*
X031394Y001888D03*
X031394Y001877D03*
X031394Y001866D03*
X031394Y001844D03*
X031394Y001833D03*
X031394Y001822D03*
X031394Y001800D03*
X031394Y001789D03*
X031394Y001779D03*
X031394Y001768D03*
X031394Y001746D03*
X031394Y001735D03*
X031394Y001724D03*
X031394Y001702D03*
X031394Y001691D03*
X031394Y001680D03*
X031394Y001669D03*
X031394Y001647D03*
X031394Y001636D03*
X031394Y001625D03*
X031394Y001604D03*
X031394Y001593D03*
X031394Y001582D03*
X031394Y001571D03*
X031394Y001549D03*
X031394Y001538D03*
X031394Y001527D03*
X031394Y001505D03*
X031394Y001494D03*
X031394Y001483D03*
X031394Y001461D03*
X031394Y001450D03*
X031394Y001440D03*
X031394Y001429D03*
X031394Y001407D03*
X031394Y001396D03*
X031394Y001385D03*
X031394Y001363D03*
X031394Y001352D03*
X031394Y001341D03*
X031394Y001330D03*
X031394Y001308D03*
X031394Y001297D03*
X031394Y001286D03*
X031394Y001265D03*
X031394Y001254D03*
X031394Y001243D03*
X031394Y001232D03*
X031394Y001210D03*
X031394Y001199D03*
X031394Y001188D03*
X031394Y001166D03*
X031394Y001155D03*
X031394Y001144D03*
X031394Y001133D03*
X031394Y001111D03*
X031394Y001101D03*
X031394Y001090D03*
X031394Y001068D03*
X031394Y001057D03*
X031394Y001046D03*
X031394Y001035D03*
X031394Y001013D03*
X031394Y001002D03*
X031394Y000991D03*
X031394Y000980D03*
X031394Y000958D03*
X031394Y000947D03*
X031394Y000936D03*
X031394Y000915D03*
X031394Y000904D03*
X031394Y000893D03*
X031394Y000882D03*
X029031Y003824D03*
X030989Y003845D03*
X008165Y003845D03*
X008165Y003856D03*
X008165Y003867D03*
X008165Y003889D03*
X008165Y003900D03*
X008165Y003911D03*
X008165Y003922D03*
X008165Y003944D03*
X008165Y003955D03*
X008165Y003966D03*
X008165Y003988D03*
X008165Y003999D03*
X008165Y004010D03*
X008165Y004020D03*
X008165Y004042D03*
X008165Y004053D03*
X008165Y004064D03*
X008165Y004086D03*
X008165Y004097D03*
X008165Y004108D03*
X008165Y004119D03*
X008165Y004141D03*
X008165Y004152D03*
X008165Y004163D03*
X008165Y004184D03*
X008165Y004195D03*
X008165Y004206D03*
X008165Y004217D03*
X008165Y004239D03*
X008165Y004250D03*
X008165Y004261D03*
X008165Y004283D03*
X008165Y004294D03*
X008165Y004305D03*
X008165Y004316D03*
X008165Y004338D03*
X008165Y004349D03*
X008165Y004359D03*
X008165Y004381D03*
X008165Y004392D03*
X008165Y004403D03*
X008165Y004414D03*
X008165Y004436D03*
X008165Y004447D03*
X008165Y004458D03*
X008165Y004480D03*
X008165Y004491D03*
X008165Y004502D03*
X008165Y004513D03*
X008165Y004534D03*
X008165Y004545D03*
X008165Y004556D03*
X008165Y003824D03*
X008165Y003813D03*
X008165Y003802D03*
X008165Y003791D03*
X008165Y003769D03*
X008165Y003758D03*
X008165Y003747D03*
X008165Y003725D03*
X008165Y003714D03*
X008165Y003703D03*
X008165Y003692D03*
X008165Y003671D03*
X008165Y003660D03*
X008165Y003649D03*
X008165Y003627D03*
X008165Y003616D03*
X008165Y003605D03*
X008165Y003594D03*
X008165Y003572D03*
X008165Y003561D03*
X008165Y003550D03*
X008165Y003528D03*
X008165Y003517D03*
X008165Y003506D03*
X008165Y003496D03*
X008165Y003474D03*
X008165Y003463D03*
X008165Y003452D03*
X008165Y003430D03*
X008165Y003419D03*
X008165Y003408D03*
X008165Y003397D03*
X008165Y003375D03*
X008165Y003364D03*
X008165Y003353D03*
X008165Y003331D03*
X008165Y003321D03*
X008165Y003310D03*
X008165Y003299D03*
X008165Y003277D03*
X008165Y003266D03*
X008165Y003255D03*
X008165Y003233D03*
X008165Y003222D03*
X008165Y003211D03*
X008165Y003200D03*
X008165Y003178D03*
X008165Y003167D03*
X008165Y003156D03*
X008165Y003135D03*
X008165Y003124D03*
X008165Y003113D03*
X008165Y003102D03*
X008165Y003080D03*
X008165Y003069D03*
X008165Y003058D03*
X008165Y003036D03*
X008165Y003025D03*
X008165Y003014D03*
X008165Y003003D03*
X008165Y002982D03*
X008165Y002971D03*
X008165Y002960D03*
X008165Y002938D03*
X008165Y002927D03*
X008165Y002916D03*
X008165Y002905D03*
X008165Y002883D03*
X008165Y002872D03*
X008165Y002861D03*
X008165Y002839D03*
X008165Y002828D03*
X008165Y002817D03*
X008165Y002807D03*
X008165Y002785D03*
X008165Y002774D03*
X008165Y002763D03*
X008165Y002741D03*
X008165Y002730D03*
X008165Y002719D03*
X008165Y002708D03*
X008165Y002686D03*
X008165Y002675D03*
X008165Y002664D03*
X008165Y002643D03*
X008165Y002632D03*
X008165Y002621D03*
X008165Y002610D03*
X008165Y002588D03*
X008165Y002577D03*
X008165Y002566D03*
X008165Y002544D03*
X008165Y002533D03*
X008165Y002522D03*
X008165Y002511D03*
X008165Y002489D03*
X008165Y002478D03*
X008165Y002468D03*
X008165Y002446D03*
X008165Y002435D03*
X008165Y002424D03*
X008165Y002413D03*
X008165Y002391D03*
X008165Y002380D03*
X008165Y002369D03*
X008165Y002347D03*
X008165Y002336D03*
X008165Y002325D03*
X008165Y002314D03*
X008165Y002293D03*
X008165Y002282D03*
X008165Y002271D03*
X008165Y002249D03*
X008165Y002238D03*
X008165Y002227D03*
X008165Y002216D03*
X008165Y002194D03*
X008165Y002183D03*
X008165Y002172D03*
X008165Y002150D03*
X008165Y002139D03*
X008165Y002129D03*
X008165Y002118D03*
X008165Y002096D03*
X008165Y002085D03*
X008165Y002074D03*
X008165Y002052D03*
X008165Y002041D03*
X008165Y002030D03*
X008165Y002019D03*
X008165Y001997D03*
X008165Y001986D03*
X008165Y001975D03*
X008165Y001964D03*
X008165Y001943D03*
X008165Y001932D03*
X008165Y001921D03*
X008165Y001899D03*
X008165Y001888D03*
X008165Y001877D03*
X008165Y001866D03*
X008165Y001844D03*
X008165Y001833D03*
X008165Y001822D03*
X008165Y001800D03*
X008165Y001789D03*
X008165Y001779D03*
X008165Y001768D03*
X008165Y001746D03*
X008165Y001735D03*
X008165Y001724D03*
X008165Y001702D03*
X008165Y001691D03*
X008165Y001680D03*
X008165Y001669D03*
X008165Y001647D03*
X008165Y001636D03*
X008165Y001625D03*
X008165Y001604D03*
X008165Y001593D03*
X008165Y001582D03*
X008165Y001571D03*
X008165Y001549D03*
X008165Y001538D03*
X008165Y001527D03*
X008165Y001505D03*
X008165Y001494D03*
X008165Y001483D03*
X008165Y001461D03*
X008165Y001450D03*
X008165Y001440D03*
X008165Y001429D03*
X008165Y001407D03*
X008165Y001396D03*
X008165Y001385D03*
X008165Y001363D03*
X008165Y001352D03*
X008165Y001341D03*
X008165Y001330D03*
X008165Y001308D03*
X008165Y001297D03*
X008165Y001286D03*
X008165Y001265D03*
X008165Y001254D03*
X008165Y001243D03*
X008165Y001232D03*
X008165Y001210D03*
X008165Y001199D03*
X008165Y001188D03*
X008165Y001166D03*
X008165Y001155D03*
X008165Y001144D03*
X008165Y001133D03*
X008165Y001111D03*
X008165Y001101D03*
X008165Y001090D03*
X008165Y001068D03*
X008165Y001057D03*
X008165Y001046D03*
X008165Y001035D03*
X008165Y001013D03*
X008165Y001002D03*
X008165Y000991D03*
X008165Y000980D03*
X008165Y000958D03*
X008165Y000947D03*
X008165Y000936D03*
X008165Y000915D03*
X008165Y000904D03*
X008165Y000893D03*
X008165Y000882D03*
D27*
X029228Y001472D03*
D28*
X029234Y001483D03*
D29*
X029239Y001494D03*
D30*
X029245Y001505D03*
D31*
X027856Y001516D03*
D32*
X028736Y001516D03*
X029764Y001516D03*
X030650Y001516D03*
X031914Y015182D03*
D33*
X031903Y015160D03*
X031903Y015149D03*
X032625Y014559D03*
X031772Y014187D03*
X030624Y014285D03*
X031892Y012951D03*
X030088Y008590D03*
X030099Y008579D03*
X030121Y008557D03*
X030132Y008546D03*
X030208Y008480D03*
X030230Y008458D03*
X030241Y008447D03*
X030252Y008436D03*
X030339Y008360D03*
X030350Y008349D03*
X030361Y008338D03*
X030449Y008261D03*
X030460Y008251D03*
X030471Y008240D03*
X030492Y008218D03*
X030569Y008152D03*
X030580Y008141D03*
X030602Y008119D03*
X030613Y008108D03*
X030689Y008043D03*
X030711Y008021D03*
X030722Y008010D03*
X030733Y007999D03*
X030821Y007922D03*
X030831Y007912D03*
X030842Y007901D03*
X031225Y008097D03*
X029950Y003911D03*
X029097Y003911D03*
X029086Y003900D03*
X028014Y003889D03*
X027861Y001527D03*
X028780Y001571D03*
X028791Y001582D03*
X028802Y001593D03*
X029775Y001538D03*
X030748Y001604D03*
X030770Y001625D03*
X030781Y001636D03*
X030792Y001647D03*
X006765Y002828D03*
X006394Y002489D03*
X006295Y002413D03*
X006131Y003299D03*
D34*
X006104Y002708D03*
X028020Y003900D03*
X029102Y003922D03*
X031016Y003889D03*
X031027Y003900D03*
X030732Y001593D03*
X030721Y001582D03*
X030710Y001571D03*
X030688Y001549D03*
X030677Y001538D03*
X030666Y001527D03*
X029770Y001527D03*
X028763Y001549D03*
X028753Y001538D03*
X028742Y001527D03*
X033079Y007354D03*
X031745Y008021D03*
X031712Y014023D03*
X031777Y014176D03*
X031165Y014121D03*
X031187Y015062D03*
X031909Y015171D03*
X032630Y014569D03*
D35*
X031898Y015127D03*
X031187Y015051D03*
X030629Y014274D03*
X030629Y014263D03*
X031777Y014209D03*
X029940Y008743D03*
X030170Y008513D03*
X030181Y008502D03*
X030279Y008415D03*
X030301Y008393D03*
X030312Y008382D03*
X030399Y008305D03*
X030410Y008294D03*
X030421Y008283D03*
X030509Y008207D03*
X030520Y008196D03*
X030531Y008185D03*
X030553Y008163D03*
X030629Y008097D03*
X030662Y008065D03*
X030673Y008054D03*
X030749Y007988D03*
X030771Y007966D03*
X030793Y007944D03*
X030848Y007890D03*
X032127Y008152D03*
X032138Y008141D03*
X032193Y008097D03*
X032204Y008086D03*
X032226Y008065D03*
X032248Y008054D03*
X032281Y008021D03*
X032324Y007988D03*
X032346Y007966D03*
X032368Y007955D03*
X032379Y007944D03*
X032401Y007922D03*
X032434Y007901D03*
X032445Y007890D03*
X032466Y007868D03*
X032488Y007857D03*
X032499Y007846D03*
X032521Y007824D03*
X032565Y007791D03*
X032620Y007747D03*
X032641Y007726D03*
X032663Y007715D03*
X032674Y007704D03*
X032685Y007693D03*
X032729Y007660D03*
X032740Y007649D03*
X032762Y007627D03*
X032784Y007616D03*
X032795Y007605D03*
X032860Y007551D03*
X033068Y007365D03*
X031005Y003867D03*
X029945Y003900D03*
X029081Y003889D03*
X029059Y003856D03*
X029048Y003845D03*
X028807Y001604D03*
X027867Y001538D03*
X029781Y001549D03*
X030809Y001669D03*
D36*
X028938Y001757D03*
X028862Y001658D03*
X027878Y001560D03*
X006333Y002599D03*
X006301Y002402D03*
D37*
X028769Y001560D03*
X030759Y001615D03*
X031011Y003878D03*
X029075Y003878D03*
X030810Y007933D03*
X030700Y008032D03*
X030591Y008130D03*
X030482Y008229D03*
X030372Y008327D03*
X030328Y008371D03*
X030219Y008469D03*
X030110Y008568D03*
X031816Y012678D03*
D38*
X030699Y001560D03*
D39*
X030891Y001768D03*
X028966Y001789D03*
X028955Y001779D03*
X028933Y001746D03*
X027883Y001571D03*
X030934Y003769D03*
X027992Y003845D03*
X030864Y007868D03*
X031827Y012667D03*
X032144Y013771D03*
X032242Y013815D03*
X031717Y014012D03*
X030646Y014187D03*
X006601Y003364D03*
X006120Y003310D03*
X006284Y002708D03*
X006317Y002643D03*
X006328Y002610D03*
X006339Y002577D03*
X006350Y002544D03*
D40*
X006355Y002533D03*
X006366Y002511D03*
X006312Y002664D03*
X028851Y001647D03*
X028949Y001768D03*
X029791Y001571D03*
X030874Y001735D03*
X030874Y001746D03*
X030973Y003824D03*
X029934Y003889D03*
X031788Y014263D03*
X031788Y014274D03*
X031887Y015094D03*
D41*
X031887Y015073D03*
X031187Y014974D03*
X031187Y014963D03*
X031788Y014307D03*
X031788Y014285D03*
X031176Y014176D03*
X031176Y014165D03*
X030651Y014165D03*
X030651Y014176D03*
X032248Y013826D03*
X032598Y014515D03*
X030301Y008557D03*
X030323Y008546D03*
X030345Y008535D03*
X030389Y008513D03*
X030410Y008502D03*
X030596Y008415D03*
X030618Y008404D03*
X030640Y008393D03*
X030870Y007857D03*
X031767Y007999D03*
X032106Y008185D03*
X032368Y007715D03*
X032390Y007704D03*
X032412Y007693D03*
X032620Y007594D03*
X032663Y007573D03*
X032685Y007562D03*
X032707Y007551D03*
X029923Y003867D03*
X028971Y003725D03*
X028960Y003714D03*
X028993Y001833D03*
X028982Y001822D03*
X028971Y001800D03*
X029802Y001582D03*
X030896Y001779D03*
X030907Y001789D03*
X027889Y001582D03*
X006279Y002719D03*
D42*
X006776Y002861D03*
X027894Y001593D03*
X029010Y001866D03*
X029808Y001593D03*
X030912Y001800D03*
X028922Y003649D03*
X028933Y003671D03*
X029917Y003856D03*
X032461Y007671D03*
X032505Y007649D03*
X032548Y007627D03*
X032570Y007616D03*
X032592Y007605D03*
X032297Y007747D03*
X032275Y007758D03*
X032100Y008196D03*
X030875Y007846D03*
X030547Y008436D03*
X030525Y008447D03*
X030503Y008458D03*
X030438Y008491D03*
X030252Y008579D03*
X030230Y008590D03*
X030000Y008699D03*
X032253Y013837D03*
X032592Y014504D03*
X031181Y014187D03*
X031192Y014952D03*
D43*
X031876Y015062D03*
X032204Y013793D03*
X031526Y013082D03*
X031777Y007988D03*
X033002Y007408D03*
X030896Y003714D03*
X028928Y003660D03*
X029026Y001899D03*
X029015Y001888D03*
X029015Y001877D03*
X029813Y001604D03*
X030940Y001844D03*
X027900Y001604D03*
D44*
X027905Y001615D03*
X029031Y001910D03*
X029819Y001615D03*
X028889Y003583D03*
X031794Y007977D03*
X032122Y013760D03*
X031794Y014351D03*
X032581Y014493D03*
X006612Y003386D03*
D45*
X006596Y003342D03*
X028009Y003878D03*
X028818Y001615D03*
X032871Y007540D03*
X032816Y007583D03*
X032696Y007682D03*
X032630Y007737D03*
X032576Y007780D03*
X032390Y007933D03*
X032335Y007977D03*
X032270Y008032D03*
X032149Y008130D03*
X030760Y007977D03*
X030651Y008076D03*
X030432Y008272D03*
X030268Y008426D03*
X030159Y008524D03*
X031777Y014198D03*
X032620Y014548D03*
X031898Y015138D03*
D46*
X031187Y014919D03*
X031187Y014241D03*
X031187Y014230D03*
X031253Y013924D03*
X030673Y014121D03*
X030924Y012710D03*
X031056Y012043D03*
X032565Y014482D03*
X032084Y008218D03*
X031176Y008141D03*
X030892Y007813D03*
X032969Y007430D03*
X030841Y003627D03*
X030841Y003616D03*
X030830Y003605D03*
X030809Y003561D03*
X028873Y003561D03*
X028862Y003528D03*
X028851Y003517D03*
X028851Y003506D03*
X027965Y003802D03*
X029037Y001932D03*
X029824Y001625D03*
X030951Y001866D03*
X030962Y001888D03*
X027910Y001625D03*
X007088Y002763D03*
X007088Y002774D03*
X007066Y002719D03*
X006618Y003397D03*
D47*
X028829Y001625D03*
X029070Y003867D03*
X030994Y003856D03*
X032849Y007562D03*
X032805Y007594D03*
X032609Y007758D03*
X032554Y007802D03*
X032313Y007999D03*
X032259Y008043D03*
X032160Y008119D03*
X030782Y007955D03*
X030640Y008086D03*
X030389Y008316D03*
X030290Y008404D03*
X030192Y008491D03*
X030148Y008535D03*
X031176Y014132D03*
D48*
X031192Y014263D03*
X031192Y014274D03*
X031192Y014285D03*
X031794Y014373D03*
X031794Y014384D03*
X030777Y013531D03*
X030996Y012809D03*
X031838Y012645D03*
X030066Y008655D03*
X030897Y007802D03*
X031805Y007966D03*
X032931Y007452D03*
X029895Y003824D03*
X030781Y003506D03*
X030781Y003496D03*
X030792Y003517D03*
X030792Y003528D03*
X030814Y003572D03*
X030825Y003594D03*
X030770Y003474D03*
X030770Y003463D03*
X028845Y003496D03*
X028835Y003474D03*
X028835Y003463D03*
X027960Y003791D03*
X029053Y001975D03*
X029053Y001964D03*
X027916Y001636D03*
X030967Y001899D03*
X030978Y001921D03*
X007094Y002785D03*
X007094Y002807D03*
X007072Y002730D03*
X007061Y002708D03*
X007050Y002686D03*
X007039Y002664D03*
X006798Y002883D03*
X006809Y002074D03*
X006809Y002052D03*
D49*
X007044Y002675D03*
X007099Y002817D03*
X007099Y002828D03*
X007099Y002839D03*
X027921Y001647D03*
X029059Y001986D03*
X029059Y001997D03*
X029835Y001636D03*
X030984Y001932D03*
X030984Y001943D03*
X030765Y003452D03*
X029890Y003813D03*
X032915Y007463D03*
X031165Y008152D03*
X030903Y007791D03*
X030082Y008644D03*
X030914Y012699D03*
X030771Y013541D03*
X030673Y014110D03*
X031198Y014307D03*
X031198Y014318D03*
X031198Y014329D03*
X031799Y014405D03*
X031799Y014416D03*
X031799Y014427D03*
D50*
X031203Y014362D03*
X031203Y014340D03*
X031258Y013913D03*
X030755Y013552D03*
X031849Y012634D03*
X031149Y008163D03*
X029884Y003802D03*
X030726Y003299D03*
X030726Y003277D03*
X028802Y003353D03*
X029841Y001647D03*
X007006Y002610D03*
X006809Y002096D03*
X006809Y002085D03*
X006317Y002380D03*
D51*
X006076Y003342D03*
X027927Y001658D03*
X029064Y002008D03*
X031011Y002008D03*
X030737Y003342D03*
X028813Y003386D03*
X031805Y014449D03*
X031859Y015040D03*
D52*
X030684Y014099D03*
X030749Y013563D03*
X030721Y003244D03*
X028796Y003342D03*
X029846Y001658D03*
D53*
X030798Y001658D03*
X032751Y007638D03*
X032510Y007835D03*
X032455Y007879D03*
X032215Y008076D03*
X030542Y008174D03*
D54*
X030104Y008633D03*
X031821Y007955D03*
X032062Y008251D03*
X032860Y007496D03*
X029879Y003791D03*
X030732Y003321D03*
X030732Y003310D03*
X030721Y003266D03*
X030721Y003255D03*
X030721Y003233D03*
X031016Y002052D03*
X031016Y002041D03*
X031016Y002030D03*
X031005Y001997D03*
X029070Y002030D03*
X029070Y002041D03*
X027932Y001669D03*
X028796Y003310D03*
X028796Y003321D03*
X028796Y003331D03*
X028807Y003364D03*
X028807Y003375D03*
X030913Y012688D03*
X031898Y012984D03*
X032270Y013891D03*
X031799Y014460D03*
X031854Y015029D03*
X007011Y002621D03*
D55*
X006344Y002566D03*
X006333Y002588D03*
X006323Y002621D03*
X006323Y002632D03*
X006301Y002675D03*
X006301Y002686D03*
X006082Y002719D03*
X006596Y003353D03*
X027998Y003856D03*
X029015Y003802D03*
X029015Y003791D03*
X029026Y003813D03*
X030951Y003791D03*
X030962Y003802D03*
X030962Y003813D03*
X030863Y001724D03*
X028928Y001735D03*
X028917Y001724D03*
X028873Y001669D03*
X033057Y007376D03*
X032116Y008163D03*
X030935Y012732D03*
X030640Y014209D03*
X030640Y014219D03*
X031187Y014996D03*
X031187Y015007D03*
X031187Y015018D03*
X032609Y014526D03*
D56*
X031805Y014482D03*
X031805Y014471D03*
X031181Y014876D03*
X030689Y014088D03*
X031717Y013968D03*
X032056Y008261D03*
X032844Y007507D03*
X030919Y007769D03*
X027938Y003725D03*
X027938Y003714D03*
X027938Y003703D03*
X027938Y003692D03*
X027938Y003671D03*
X027938Y003660D03*
X027938Y003649D03*
X027938Y003627D03*
X027938Y003616D03*
X027938Y003605D03*
X027938Y003594D03*
X027938Y003572D03*
X027938Y003561D03*
X027938Y003550D03*
X027938Y003528D03*
X027938Y003517D03*
X027938Y003506D03*
X027938Y003496D03*
X027938Y003474D03*
X027938Y003463D03*
X027938Y003452D03*
X027938Y003430D03*
X027938Y003419D03*
X027938Y003408D03*
X027938Y003397D03*
X027938Y003375D03*
X027938Y003364D03*
X027938Y003353D03*
X027938Y003331D03*
X027938Y003321D03*
X027938Y003310D03*
X027938Y003299D03*
X027938Y003277D03*
X027938Y003266D03*
X027938Y003255D03*
X027938Y003233D03*
X027938Y003222D03*
X027938Y003211D03*
X027938Y003200D03*
X027938Y003178D03*
X027938Y003167D03*
X027938Y003156D03*
X027938Y003135D03*
X027938Y003124D03*
X027938Y003113D03*
X027938Y003102D03*
X027938Y003080D03*
X027938Y003069D03*
X027938Y003058D03*
X027938Y003036D03*
X027938Y003025D03*
X027938Y003014D03*
X027938Y003003D03*
X027938Y002982D03*
X027938Y002971D03*
X027938Y002960D03*
X027938Y002938D03*
X027938Y002927D03*
X027938Y002916D03*
X027938Y002905D03*
X027938Y002883D03*
X027938Y002872D03*
X027938Y002861D03*
X027938Y002839D03*
X027938Y002828D03*
X027938Y002817D03*
X027938Y002807D03*
X027938Y002785D03*
X027938Y002774D03*
X027938Y002763D03*
X027938Y002741D03*
X027938Y002730D03*
X027938Y002719D03*
X027938Y002708D03*
X027938Y002686D03*
X027938Y002675D03*
X027938Y002664D03*
X027938Y002643D03*
X027938Y002632D03*
X027938Y002621D03*
X027938Y002610D03*
X027938Y002588D03*
X027938Y002577D03*
X027938Y002566D03*
X027938Y002544D03*
X027938Y002533D03*
X027938Y002522D03*
X027938Y002511D03*
X027938Y002489D03*
X027938Y002478D03*
X027938Y002468D03*
X027938Y002446D03*
X027938Y002435D03*
X027938Y002424D03*
X027938Y002413D03*
X027938Y002391D03*
X027938Y002380D03*
X027938Y002369D03*
X027938Y002347D03*
X027938Y002336D03*
X027938Y002325D03*
X027938Y002314D03*
X027938Y002293D03*
X027938Y002282D03*
X027938Y002271D03*
X027938Y002249D03*
X027938Y002238D03*
X027938Y002227D03*
X027938Y002216D03*
X027938Y002194D03*
X027938Y002183D03*
X027938Y002172D03*
X027938Y002150D03*
X027938Y002139D03*
X027938Y002129D03*
X027938Y002118D03*
X027938Y002096D03*
X027938Y002085D03*
X027938Y002074D03*
X027938Y002052D03*
X027938Y002041D03*
X027938Y002030D03*
X027938Y002019D03*
X027938Y001997D03*
X027938Y001986D03*
X027938Y001975D03*
X027938Y001964D03*
X027938Y001943D03*
X027938Y001932D03*
X027938Y001921D03*
X027938Y001899D03*
X027938Y001888D03*
X027938Y001877D03*
X027938Y001866D03*
X027938Y001844D03*
X027938Y001833D03*
X027938Y001822D03*
X027938Y001800D03*
X027938Y001789D03*
X027938Y001779D03*
X027938Y001768D03*
X027938Y001746D03*
X027938Y001735D03*
X027938Y001724D03*
X029075Y002052D03*
X029852Y001669D03*
X028791Y003255D03*
X028791Y003266D03*
X028791Y003277D03*
X028791Y003299D03*
X007104Y002872D03*
X006995Y002588D03*
X006984Y002577D03*
X006809Y002129D03*
X006809Y002118D03*
X006645Y003430D03*
D57*
X029343Y001680D03*
X029551Y003944D03*
X029562Y003955D03*
D58*
X029349Y001691D03*
D59*
X029354Y001702D03*
D60*
X029365Y001713D03*
D61*
X029075Y002085D03*
X029075Y002096D03*
X029075Y002118D03*
X029863Y002118D03*
X029863Y002129D03*
X029863Y002139D03*
X029863Y002150D03*
X029863Y002172D03*
X029863Y002183D03*
X029863Y002194D03*
X029863Y002216D03*
X029863Y002227D03*
X029863Y002238D03*
X029863Y002249D03*
X029863Y002271D03*
X029863Y002282D03*
X029863Y002293D03*
X029863Y002314D03*
X029863Y002325D03*
X029863Y002336D03*
X029863Y002347D03*
X029863Y002369D03*
X029863Y002380D03*
X029863Y002391D03*
X029863Y002413D03*
X029863Y002424D03*
X029863Y002435D03*
X029863Y002446D03*
X029863Y002468D03*
X029863Y002478D03*
X029863Y002489D03*
X029863Y002511D03*
X029863Y002522D03*
X029863Y002533D03*
X029863Y002544D03*
X029863Y002566D03*
X029863Y002577D03*
X029863Y002588D03*
X029863Y002610D03*
X029863Y002621D03*
X029863Y002632D03*
X029863Y002643D03*
X029863Y002664D03*
X029863Y002675D03*
X029863Y002686D03*
X029863Y002708D03*
X029863Y002719D03*
X029863Y002730D03*
X029863Y002741D03*
X029863Y002763D03*
X029863Y002774D03*
X029863Y002785D03*
X029863Y002807D03*
X029863Y002817D03*
X029863Y002828D03*
X029863Y002839D03*
X029863Y002861D03*
X029863Y002872D03*
X029863Y002883D03*
X029863Y002905D03*
X029863Y002916D03*
X029863Y002927D03*
X029863Y002938D03*
X029863Y002960D03*
X029863Y002971D03*
X029863Y002982D03*
X029863Y003003D03*
X029863Y003014D03*
X029863Y003025D03*
X029863Y003036D03*
X029863Y003058D03*
X029863Y003069D03*
X029863Y003080D03*
X029863Y003102D03*
X029863Y003113D03*
X029863Y003124D03*
X029863Y003135D03*
X029863Y003156D03*
X029863Y003167D03*
X029863Y003178D03*
X029863Y003200D03*
X029863Y003211D03*
X029863Y003222D03*
X029863Y003233D03*
X029863Y003255D03*
X029863Y003266D03*
X029863Y003277D03*
X029863Y003299D03*
X029863Y003310D03*
X029863Y003321D03*
X029863Y003331D03*
X029863Y003353D03*
X029863Y003364D03*
X029863Y003375D03*
X029863Y003397D03*
X029863Y003408D03*
X029863Y003419D03*
X029863Y003430D03*
X029863Y003452D03*
X029863Y003463D03*
X029863Y003474D03*
X029863Y003496D03*
X029863Y003506D03*
X029863Y003517D03*
X029863Y003528D03*
X029863Y003550D03*
X029863Y003561D03*
X029863Y003572D03*
X029863Y003594D03*
X029863Y003605D03*
X029863Y003616D03*
X029863Y003627D03*
X029863Y003649D03*
X029863Y003660D03*
X029863Y003671D03*
X029863Y003692D03*
X029863Y003703D03*
X029863Y003714D03*
X029863Y002096D03*
X029863Y002085D03*
X029863Y002074D03*
X029863Y002052D03*
X029863Y002041D03*
X029863Y002030D03*
X029863Y002019D03*
X029863Y001997D03*
X029863Y001986D03*
X029863Y001975D03*
X029863Y001964D03*
X029863Y001943D03*
X029863Y001932D03*
X029863Y001921D03*
X029863Y001899D03*
X029863Y001888D03*
X029863Y001877D03*
X029863Y001866D03*
X029863Y001844D03*
X029863Y001833D03*
X029863Y001822D03*
X029863Y001800D03*
X029863Y001789D03*
X029863Y001779D03*
X029863Y001768D03*
X029863Y001746D03*
X029863Y001735D03*
X029863Y001724D03*
X030930Y007747D03*
X031127Y008185D03*
X030153Y008601D03*
X030689Y014066D03*
X030689Y014077D03*
X031181Y014865D03*
X032516Y014438D03*
D62*
X031805Y014493D03*
X031181Y014887D03*
X032275Y013902D03*
X031138Y008174D03*
X029873Y003780D03*
X028791Y003288D03*
X027938Y003288D03*
X027938Y003244D03*
X027938Y003189D03*
X027938Y003146D03*
X027938Y003091D03*
X027938Y003047D03*
X027938Y002992D03*
X027938Y002949D03*
X027938Y002894D03*
X027938Y002850D03*
X027938Y002796D03*
X027938Y002752D03*
X027938Y002697D03*
X027938Y002653D03*
X027938Y002599D03*
X027938Y002555D03*
X027938Y002500D03*
X027938Y002457D03*
X027938Y002402D03*
X027938Y002358D03*
X027938Y002303D03*
X027938Y002260D03*
X027938Y002205D03*
X027938Y002161D03*
X027938Y002107D03*
X027938Y002063D03*
X027938Y002008D03*
X027938Y001954D03*
X027938Y001910D03*
X027938Y001855D03*
X027938Y001811D03*
X027938Y001757D03*
X029075Y002063D03*
X027938Y003342D03*
X027938Y003386D03*
X027938Y003441D03*
X027938Y003485D03*
X027938Y003539D03*
X027938Y003583D03*
X027938Y003638D03*
X027938Y003681D03*
X006809Y002107D03*
D63*
X029075Y002107D03*
X029863Y002107D03*
X029863Y002063D03*
X029863Y002008D03*
X029863Y001954D03*
X029863Y001910D03*
X029863Y001855D03*
X029863Y001811D03*
X029863Y001757D03*
X029863Y002161D03*
X029863Y002205D03*
X029863Y002260D03*
X029863Y002303D03*
X029863Y002358D03*
X029863Y002402D03*
X029863Y002457D03*
X029863Y002500D03*
X029863Y002555D03*
X029863Y002599D03*
X029863Y002653D03*
X029863Y002697D03*
X029863Y002752D03*
X029863Y002796D03*
X029863Y002850D03*
X029863Y002894D03*
X029863Y002949D03*
X029863Y002992D03*
X029863Y003047D03*
X029863Y003091D03*
X029863Y003146D03*
X029863Y003189D03*
X029863Y003244D03*
X029863Y003288D03*
X029863Y003342D03*
X029863Y003386D03*
X029863Y003441D03*
X029863Y003485D03*
X029863Y003539D03*
X029863Y003583D03*
X029863Y003638D03*
X029863Y003681D03*
D64*
X029928Y003878D03*
X030945Y003780D03*
X030880Y001757D03*
X028977Y001811D03*
X033041Y007387D03*
X032111Y008174D03*
X029968Y008721D03*
X031170Y014154D03*
X030646Y014198D03*
X006776Y002850D03*
X006295Y002697D03*
X006350Y002555D03*
D65*
X030874Y003681D03*
X030918Y001811D03*
D66*
X030929Y001822D03*
X030885Y003703D03*
X028906Y003627D03*
X028895Y003605D03*
X027976Y003824D03*
X030017Y008688D03*
X031832Y012656D03*
X031898Y012962D03*
X030662Y014143D03*
X031788Y014329D03*
X031788Y014340D03*
X006104Y003321D03*
X006312Y002391D03*
D67*
X006809Y002041D03*
X006809Y002030D03*
X006809Y002019D03*
X006787Y002872D03*
X027971Y003813D03*
X028867Y003550D03*
X028889Y003594D03*
X028900Y003616D03*
X030858Y003649D03*
X030858Y003660D03*
X030869Y003671D03*
X030880Y003692D03*
X029042Y001943D03*
X029031Y001921D03*
X030934Y001833D03*
X030956Y001877D03*
X032986Y007419D03*
X032089Y008207D03*
X030033Y008677D03*
X032253Y013848D03*
X031794Y014362D03*
X031192Y014930D03*
X030667Y014132D03*
D68*
X031794Y014318D03*
X029978Y008710D03*
X030460Y008480D03*
X032341Y007726D03*
X032483Y007660D03*
X028955Y003703D03*
X028999Y001844D03*
X006809Y001997D03*
X006612Y003375D03*
D69*
X029004Y001855D03*
X032641Y007583D03*
X030684Y008371D03*
X031788Y014296D03*
X031187Y014985D03*
D70*
X030847Y003638D03*
X030945Y001855D03*
D71*
X030973Y001910D03*
X029048Y001954D03*
X028862Y003539D03*
X029901Y003835D03*
X030798Y003539D03*
X030819Y003583D03*
X032948Y007441D03*
X030050Y008666D03*
X032259Y013859D03*
X031187Y014252D03*
X007055Y002697D03*
D72*
X007033Y002653D03*
X028829Y003441D03*
X030743Y003386D03*
X030994Y001954D03*
D73*
X030994Y001964D03*
X030743Y003364D03*
X030743Y003375D03*
X030754Y003408D03*
X030754Y003419D03*
X030754Y003430D03*
X028829Y003452D03*
X028818Y003430D03*
X028818Y003419D03*
X032073Y008240D03*
X031187Y014908D03*
X007022Y002643D03*
X006629Y003408D03*
D74*
X006634Y003419D03*
X007017Y002632D03*
X028813Y003397D03*
X028813Y003408D03*
X030737Y003353D03*
X030737Y003331D03*
X030748Y003397D03*
X031011Y002019D03*
X031000Y001986D03*
X031000Y001975D03*
X029064Y002019D03*
X032898Y007474D03*
X032264Y013880D03*
X031717Y013979D03*
X031805Y014438D03*
X031181Y014898D03*
X032548Y014471D03*
D75*
X031203Y014394D03*
X030121Y008622D03*
X031022Y002063D03*
D76*
X029070Y002074D03*
X028785Y003222D03*
X028785Y003233D03*
X032805Y007529D03*
X031832Y007944D03*
X030924Y007758D03*
X030137Y008611D03*
X030739Y013574D03*
X030728Y013585D03*
X031854Y015018D03*
X006979Y002566D03*
X006323Y002369D03*
D77*
X030726Y003200D03*
X030726Y003211D03*
X030726Y003222D03*
X031022Y002096D03*
X031022Y002085D03*
X031022Y002074D03*
X031203Y014373D03*
X031203Y014384D03*
X031203Y014405D03*
D78*
X031253Y013902D03*
X030914Y012678D03*
X030721Y003189D03*
X030721Y003146D03*
X031027Y002107D03*
X006651Y003441D03*
D79*
X007099Y002883D03*
X030721Y003156D03*
X030721Y003167D03*
X030721Y003178D03*
X031027Y002129D03*
X031027Y002118D03*
X032827Y007518D03*
X030914Y012667D03*
X031898Y012995D03*
X032281Y013913D03*
X032291Y013924D03*
X031209Y014416D03*
D80*
X031209Y014438D03*
X031810Y014526D03*
X032302Y013946D03*
X031898Y013006D03*
X030914Y012656D03*
X030914Y012645D03*
X030717Y013618D03*
X030717Y013629D03*
X032040Y008294D03*
X028785Y003135D03*
X029081Y002129D03*
X030732Y003058D03*
X030732Y003069D03*
X030732Y003080D03*
X031016Y002194D03*
X031016Y002183D03*
X006957Y002533D03*
X006946Y002522D03*
X006815Y002172D03*
X006672Y003463D03*
D81*
X006678Y003474D03*
X006940Y002511D03*
X006809Y002183D03*
X028791Y003080D03*
X028791Y003102D03*
X028791Y003113D03*
X028791Y003124D03*
X028802Y003058D03*
X028802Y003036D03*
X029075Y002172D03*
X029075Y002150D03*
X029075Y002139D03*
X030737Y003003D03*
X030737Y003014D03*
X030737Y003025D03*
X030737Y003036D03*
X031011Y002227D03*
X031011Y002216D03*
X030941Y007726D03*
X031116Y008196D03*
X031050Y012065D03*
X031859Y012612D03*
X030711Y013640D03*
X030711Y013651D03*
X031258Y013891D03*
X031203Y014460D03*
X031181Y014854D03*
X031805Y014537D03*
X031849Y014996D03*
X032505Y014416D03*
X032319Y013979D03*
D82*
X032297Y013935D03*
X031805Y014504D03*
X031805Y014515D03*
X031203Y014427D03*
X031849Y015007D03*
X030722Y013596D03*
X032045Y008283D03*
X030726Y003135D03*
X030726Y003124D03*
X030726Y003113D03*
X030726Y003102D03*
X031022Y002172D03*
X031022Y002150D03*
X031022Y002139D03*
X028791Y003156D03*
X028791Y003167D03*
X028791Y003178D03*
X028791Y003200D03*
X028791Y003211D03*
X006962Y002544D03*
X006809Y002150D03*
X006809Y002139D03*
X006055Y003353D03*
X006656Y003452D03*
D83*
X028791Y003091D03*
X028802Y003047D03*
X029075Y002161D03*
X031903Y013017D03*
X032308Y013957D03*
X031203Y014449D03*
X031181Y014843D03*
D84*
X030722Y013607D03*
X028791Y003189D03*
X028791Y003146D03*
X030726Y003091D03*
X031022Y002161D03*
D85*
X030754Y002927D03*
X030754Y002938D03*
X030754Y002960D03*
X029070Y002194D03*
X029070Y002183D03*
X031865Y012601D03*
X006038Y003364D03*
D86*
X029070Y002205D03*
X030754Y002949D03*
D87*
X030732Y003047D03*
X031016Y002205D03*
X031843Y007933D03*
X031712Y013957D03*
X030695Y014055D03*
X006815Y002161D03*
X006323Y002358D03*
D88*
X006820Y002238D03*
X006820Y002227D03*
X028824Y002927D03*
X028824Y002938D03*
X029064Y002238D03*
X029064Y002227D03*
X029064Y002216D03*
X030759Y002905D03*
X030759Y002916D03*
X031000Y002282D03*
X031000Y002271D03*
X032024Y008316D03*
X032352Y014034D03*
D89*
X032335Y014012D03*
X032324Y013990D03*
X032499Y014405D03*
X031810Y014559D03*
X031209Y014471D03*
X031187Y014832D03*
X030695Y014045D03*
X031712Y013946D03*
X031898Y013027D03*
X030914Y012634D03*
X032029Y008305D03*
X031854Y007922D03*
X030946Y007715D03*
X030743Y002982D03*
X030743Y002971D03*
X031005Y002249D03*
X031005Y002238D03*
X028807Y003003D03*
X028807Y003014D03*
X028807Y003025D03*
X028796Y003069D03*
X006924Y002478D03*
X006913Y002468D03*
X006815Y002216D03*
X006815Y002194D03*
X006323Y002347D03*
D90*
X006826Y002271D03*
X006826Y002249D03*
X006837Y002293D03*
X006869Y002380D03*
X006880Y002413D03*
X006891Y002424D03*
X028829Y002905D03*
X028829Y002916D03*
X028840Y002872D03*
X028840Y002861D03*
X029059Y002271D03*
X029059Y002249D03*
X030787Y002807D03*
X030787Y002817D03*
X030798Y002774D03*
X030983Y002325D03*
X030983Y002314D03*
X030994Y002293D03*
X031865Y007912D03*
X031876Y011967D03*
X031045Y012076D03*
X030924Y012612D03*
X031909Y013049D03*
X031712Y013935D03*
X031263Y013880D03*
X030695Y014023D03*
X031187Y014810D03*
X031187Y014821D03*
X031810Y014580D03*
X032357Y014045D03*
D91*
X031810Y014591D03*
X032018Y008327D03*
X030765Y002894D03*
X029059Y002260D03*
X028829Y002894D03*
X028818Y002949D03*
X006880Y002402D03*
X006826Y002260D03*
D92*
X006815Y002205D03*
X028807Y002992D03*
X030743Y002992D03*
X031005Y002260D03*
X030990Y012820D03*
X032335Y014001D03*
X031810Y014548D03*
X031843Y014985D03*
D93*
X031849Y014963D03*
X031192Y014799D03*
X030700Y014012D03*
X031903Y013060D03*
X031870Y012590D03*
X032373Y014066D03*
X032013Y008338D03*
X031094Y008218D03*
X030781Y002828D03*
X030792Y002785D03*
X030803Y002763D03*
X030814Y002730D03*
X030814Y002719D03*
X030836Y002675D03*
X030836Y002664D03*
X030847Y002643D03*
X030869Y002588D03*
X030956Y002380D03*
X030967Y002369D03*
X030978Y002336D03*
X029053Y002293D03*
X029053Y002282D03*
X029042Y002314D03*
X029042Y002325D03*
X028889Y002708D03*
X028878Y002741D03*
X028867Y002763D03*
X028867Y002774D03*
X028867Y002785D03*
X028856Y002807D03*
X028856Y002817D03*
X028845Y002839D03*
X028835Y002883D03*
X006875Y002391D03*
X006864Y002369D03*
X006842Y002325D03*
X006842Y002314D03*
X006831Y002282D03*
X006317Y002336D03*
D94*
X006842Y002303D03*
X028845Y002850D03*
X028856Y002796D03*
X028911Y002653D03*
X029031Y002358D03*
X029053Y002303D03*
X030803Y002752D03*
X030792Y002796D03*
X030967Y002358D03*
X030963Y007682D03*
X032363Y014055D03*
D95*
X030989Y002303D03*
X006689Y003485D03*
D96*
X005601Y002533D03*
X005601Y002522D03*
X028884Y002719D03*
X028884Y002730D03*
X028895Y002686D03*
X028906Y002664D03*
X028917Y002643D03*
X028917Y002632D03*
X028928Y002621D03*
X028928Y002610D03*
X028938Y002588D03*
X028938Y002577D03*
X028960Y002533D03*
X028971Y002511D03*
X028982Y002478D03*
X028993Y002446D03*
X029004Y002435D03*
X029004Y002424D03*
X029015Y002391D03*
X029026Y002380D03*
X029026Y002369D03*
X029037Y002347D03*
X029037Y002336D03*
X030809Y002741D03*
X030819Y002708D03*
X030830Y002686D03*
X030852Y002632D03*
X030852Y002621D03*
X030863Y002610D03*
X030885Y002544D03*
X030896Y002533D03*
X030896Y002522D03*
X030907Y002511D03*
X030907Y002489D03*
X030918Y002478D03*
X030918Y002468D03*
X030929Y002446D03*
X030940Y002435D03*
X030940Y002424D03*
X030940Y002413D03*
X030951Y002391D03*
X030968Y007671D03*
X031876Y007901D03*
X030924Y012590D03*
X030924Y012601D03*
X030706Y013716D03*
X031198Y014537D03*
X031810Y014602D03*
X031810Y014613D03*
X032477Y014340D03*
X032379Y014077D03*
X031712Y013924D03*
D97*
X032488Y014384D03*
X030706Y013684D03*
X030957Y007693D03*
X030776Y002861D03*
X030776Y002839D03*
X030973Y002347D03*
X028851Y002828D03*
X006902Y002446D03*
X006705Y003496D03*
D98*
X005590Y002555D03*
X005612Y002500D03*
X028873Y002752D03*
X028895Y002697D03*
X028928Y002599D03*
X028971Y002500D03*
X028993Y002457D03*
X029015Y002402D03*
X030841Y002653D03*
X030863Y002599D03*
X030885Y002555D03*
X030907Y002500D03*
X030929Y002457D03*
X030951Y002402D03*
X031909Y013071D03*
X030706Y013705D03*
X030695Y014001D03*
X031187Y014788D03*
X032477Y014351D03*
D99*
X032472Y014329D03*
X032395Y014110D03*
X031816Y014624D03*
X031816Y014635D03*
X031192Y014755D03*
X031192Y014766D03*
X031192Y014777D03*
X030700Y013990D03*
X031903Y013082D03*
X032002Y008349D03*
X028966Y002522D03*
X028977Y002489D03*
X028988Y002468D03*
X029010Y002413D03*
X006722Y003506D03*
X005584Y002588D03*
X005584Y002577D03*
X005584Y002566D03*
X005595Y002544D03*
X005606Y002511D03*
D100*
X005617Y002489D03*
X005628Y002468D03*
X028955Y002544D03*
X030711Y013727D03*
X031849Y014930D03*
X032384Y014088D03*
D101*
X028949Y002555D03*
D102*
X028949Y002566D03*
X030874Y002566D03*
X030874Y002577D03*
X031449Y013093D03*
X031843Y014952D03*
X005623Y002478D03*
D103*
X006853Y002347D03*
X006853Y002336D03*
X028900Y002675D03*
X030711Y013695D03*
X031203Y014504D03*
X031203Y014515D03*
X031203Y014526D03*
X032483Y014373D03*
X032483Y014362D03*
D104*
X030825Y002697D03*
D105*
X030776Y002850D03*
X006858Y002358D03*
D106*
X006897Y002435D03*
X028813Y002960D03*
X028813Y002971D03*
X028813Y002982D03*
X030770Y002883D03*
X030770Y002872D03*
X030952Y007704D03*
X031105Y008207D03*
X031903Y013038D03*
X032341Y014023D03*
X031805Y014569D03*
X031203Y014482D03*
X030700Y014034D03*
X030711Y013673D03*
X031849Y014974D03*
D107*
X032521Y014449D03*
X031854Y012623D03*
X032051Y008272D03*
X028785Y003244D03*
X006968Y002555D03*
D108*
X007104Y002850D03*
X030726Y003288D03*
X032877Y007485D03*
X030908Y007780D03*
X031203Y014351D03*
D109*
X031198Y014296D03*
X031898Y012973D03*
X027954Y003780D03*
X028840Y003485D03*
X030765Y003441D03*
X030776Y003485D03*
D110*
X030803Y003550D03*
X030788Y013520D03*
X031717Y013990D03*
X032264Y013870D03*
X031870Y015051D03*
X006087Y003331D03*
D111*
X028878Y003572D03*
X029906Y003845D03*
X030886Y007824D03*
X031181Y014209D03*
X031181Y014219D03*
D112*
X031712Y014001D03*
X031187Y014941D03*
X030881Y007835D03*
X028917Y003638D03*
D113*
X028944Y003681D03*
X032527Y007638D03*
X030569Y008426D03*
X030274Y008568D03*
X030656Y014154D03*
X006809Y002008D03*
D114*
X006804Y001986D03*
X028949Y003692D03*
X033024Y007398D03*
X030662Y008382D03*
X031253Y013935D03*
D115*
X030355Y003725D03*
D116*
X029403Y003736D03*
D117*
X029403Y003747D03*
D118*
X029414Y003758D03*
D119*
X028917Y003769D03*
D120*
X029004Y003780D03*
X030859Y007879D03*
X031788Y014252D03*
X006312Y002653D03*
D121*
X027982Y003835D03*
X032319Y007737D03*
X031192Y008130D03*
X030482Y008469D03*
X030930Y012721D03*
X032220Y013804D03*
X031181Y014198D03*
D122*
X031192Y015073D03*
X032636Y014580D03*
X029935Y008754D03*
X031033Y003911D03*
X028025Y003911D03*
D123*
X028031Y003922D03*
X031231Y008086D03*
X030946Y012743D03*
X031537Y013060D03*
X031777Y014165D03*
X006104Y002643D03*
X006104Y002632D03*
X006093Y002577D03*
X006093Y002566D03*
X006082Y002533D03*
X006082Y002522D03*
X006049Y002446D03*
X006049Y002435D03*
X006038Y002424D03*
D124*
X029955Y003922D03*
D125*
X031044Y003922D03*
X006590Y003331D03*
X006033Y002413D03*
D126*
X029545Y003933D03*
D127*
X029567Y003966D03*
D128*
X031165Y007321D03*
X031821Y012295D03*
X031821Y012306D03*
X006257Y001341D03*
D129*
X006262Y001352D03*
X006262Y001363D03*
D130*
X006257Y001374D03*
D131*
X006262Y001385D03*
X005606Y003036D03*
X031794Y008688D03*
D132*
X031788Y008699D03*
X031187Y007277D03*
X006257Y001396D03*
X005623Y003025D03*
D133*
X006262Y001407D03*
X031192Y007266D03*
X031783Y008710D03*
D134*
X006262Y001418D03*
D135*
X006257Y001429D03*
X005634Y003014D03*
X031198Y007255D03*
D136*
X006262Y001450D03*
X006262Y001440D03*
D137*
X006262Y001461D03*
D138*
X006262Y001472D03*
D139*
X006257Y001483D03*
D140*
X006262Y001494D03*
X006262Y001505D03*
D141*
X006262Y001516D03*
X007104Y003681D03*
X007170Y003780D03*
X031236Y007190D03*
D142*
X007181Y003791D03*
X007159Y003758D03*
X007137Y003725D03*
X007115Y003692D03*
X005694Y002971D03*
X006262Y001527D03*
D143*
X006257Y001538D03*
X007088Y003660D03*
X007099Y003671D03*
X007186Y003802D03*
X031242Y007179D03*
X031734Y008786D03*
X031493Y013826D03*
X031493Y013837D03*
D144*
X031247Y007168D03*
X007192Y003813D03*
X006262Y001549D03*
D145*
X006262Y001560D03*
X005716Y002949D03*
D146*
X005377Y003769D03*
X006262Y001582D03*
X006262Y001571D03*
D147*
X006257Y001593D03*
X005732Y002927D03*
X005360Y003802D03*
X005349Y003813D03*
X007011Y003517D03*
X031712Y008830D03*
D148*
X006262Y001604D03*
D149*
X006262Y001615D03*
D150*
X006257Y001625D03*
X007208Y003845D03*
D151*
X005770Y002883D03*
X006262Y001647D03*
X006262Y001636D03*
X031488Y013782D03*
D152*
X006262Y001658D03*
X006066Y002161D03*
D153*
X006066Y002150D03*
X006076Y002139D03*
X006076Y002129D03*
X006066Y002172D03*
X006055Y002183D03*
X006055Y002194D03*
X006033Y002249D03*
X006022Y002271D03*
X006022Y002282D03*
X006098Y002074D03*
X006109Y002052D03*
X006109Y002041D03*
X006120Y002019D03*
X006131Y001986D03*
X006262Y001669D03*
X005825Y002785D03*
X005814Y002807D03*
X005803Y002828D03*
X005508Y003594D03*
D154*
X005327Y003856D03*
X005809Y002817D03*
X005830Y002774D03*
X005830Y002763D03*
X006016Y002293D03*
X006257Y001680D03*
D155*
X006262Y001691D03*
X006262Y001702D03*
D156*
X006262Y001713D03*
D157*
X006262Y001724D03*
D158*
X006257Y001735D03*
D159*
X006262Y001746D03*
X005562Y003528D03*
D160*
X005322Y003878D03*
X006262Y001757D03*
D161*
X006262Y001768D03*
X006262Y001779D03*
X005584Y003496D03*
D162*
X005612Y003452D03*
X005623Y003430D03*
X006257Y001789D03*
D163*
X006262Y001800D03*
X005628Y003408D03*
X005628Y003419D03*
D164*
X005617Y003441D03*
X006262Y001811D03*
D165*
X006262Y001822D03*
X006262Y001833D03*
D166*
X006257Y001844D03*
X005316Y003889D03*
D167*
X006262Y001855D03*
D168*
X006262Y001866D03*
D169*
X006257Y001877D03*
D170*
X006262Y001888D03*
D171*
X006257Y001899D03*
D172*
X006262Y001910D03*
D173*
X006262Y001921D03*
D174*
X006257Y001932D03*
D175*
X006262Y001943D03*
D176*
X006262Y001954D03*
D177*
X006262Y001964D03*
X006262Y001975D03*
X031597Y013738D03*
D178*
X031493Y013771D03*
X007208Y003856D03*
X005491Y003616D03*
X005480Y003627D03*
X005338Y003845D03*
X005776Y002872D03*
X005787Y002861D03*
X005798Y002839D03*
X006082Y002118D03*
X006093Y002085D03*
X006115Y002030D03*
X006126Y001997D03*
D179*
X006126Y002008D03*
X006104Y002063D03*
X005787Y002850D03*
D180*
X006809Y002063D03*
X007094Y002796D03*
X030799Y013509D03*
X031794Y014394D03*
X032078Y008229D03*
D181*
X006087Y002096D03*
X006044Y002216D03*
X006044Y002227D03*
X005497Y003605D03*
D182*
X006087Y002107D03*
D183*
X006049Y002205D03*
X005841Y002752D03*
D184*
X005841Y002741D03*
X006038Y002238D03*
D185*
X006027Y002260D03*
X005819Y002796D03*
X005513Y003583D03*
D186*
X006979Y002949D03*
X005765Y002358D03*
X005787Y002303D03*
D187*
X006290Y002303D03*
X031012Y008721D03*
X031012Y008765D03*
X031012Y008819D03*
X031023Y012131D03*
X030935Y012481D03*
D188*
X031488Y009541D03*
X031488Y009530D03*
X031488Y009519D03*
X031488Y009497D03*
X031488Y009486D03*
X031488Y009475D03*
X031488Y009464D03*
X031488Y009443D03*
X031488Y009432D03*
X031488Y009421D03*
X031969Y007813D03*
X031061Y007507D03*
X007017Y003036D03*
X005781Y002314D03*
X005606Y002730D03*
D189*
X005672Y002424D03*
X006306Y002314D03*
X030700Y013815D03*
X030700Y013826D03*
X030700Y013837D03*
X030700Y013848D03*
X030700Y013870D03*
X030700Y013880D03*
X030700Y013891D03*
X031827Y014712D03*
X031827Y014723D03*
X031827Y014734D03*
X031849Y014865D03*
X031849Y014876D03*
X031488Y009629D03*
X031980Y008393D03*
X031061Y008251D03*
X030996Y007627D03*
D190*
X005770Y002336D03*
X005770Y002325D03*
D191*
X005579Y002610D03*
X006169Y002730D03*
X006312Y002325D03*
X030706Y013738D03*
X030706Y013749D03*
X031198Y014559D03*
X031198Y014569D03*
X031198Y014580D03*
X031843Y014919D03*
X032445Y014241D03*
X032434Y014219D03*
X032434Y014209D03*
X032423Y014187D03*
X032423Y014176D03*
X031996Y008360D03*
X031887Y007890D03*
D192*
X031909Y008502D03*
X030990Y008316D03*
X031067Y007496D03*
X007011Y003025D03*
X007011Y003014D03*
X007001Y003003D03*
X006968Y002916D03*
X006968Y002905D03*
X005765Y002369D03*
X005765Y002347D03*
D193*
X005765Y002380D03*
X030946Y012929D03*
D194*
X030968Y012863D03*
X031012Y012174D03*
X031854Y012513D03*
X031941Y008447D03*
X031941Y007758D03*
X031941Y007747D03*
X031941Y007726D03*
X031941Y007715D03*
X031941Y007704D03*
X031941Y007693D03*
X031023Y008283D03*
X007099Y003156D03*
X005721Y002391D03*
D195*
X006016Y002391D03*
X006060Y002468D03*
X006060Y002478D03*
X006071Y002489D03*
D196*
X005699Y002402D03*
X007121Y003189D03*
X007219Y003441D03*
X031023Y008371D03*
X031023Y008426D03*
X031023Y008469D03*
X031952Y007343D03*
X031952Y007288D03*
X031952Y007244D03*
X031952Y007190D03*
D197*
X031734Y008032D03*
X006027Y002402D03*
D198*
X005688Y002413D03*
X007165Y003266D03*
X007219Y003408D03*
X007219Y003419D03*
X031012Y007594D03*
X031963Y008415D03*
X031012Y008699D03*
X031012Y008710D03*
X031012Y008732D03*
X031012Y008743D03*
X031012Y008754D03*
X031012Y008775D03*
X031012Y008786D03*
X031012Y008797D03*
X031012Y008808D03*
X031012Y008830D03*
D199*
X031985Y008382D03*
X031034Y012109D03*
X030924Y012535D03*
X031909Y013104D03*
X030695Y013913D03*
X030695Y013924D03*
X030695Y013935D03*
X030695Y013946D03*
X031198Y014602D03*
X031198Y014613D03*
X031198Y014624D03*
X031198Y014635D03*
X031198Y014657D03*
X031198Y014668D03*
X031198Y014679D03*
X031198Y014701D03*
X031821Y014701D03*
X031821Y014679D03*
X031843Y014898D03*
X005579Y002643D03*
X005579Y002632D03*
X005655Y002435D03*
D200*
X005650Y002446D03*
X030985Y007649D03*
X030930Y012546D03*
X030930Y012557D03*
X031870Y012568D03*
X032461Y014274D03*
X032461Y014285D03*
X031816Y014657D03*
X031816Y014668D03*
D201*
X031198Y014744D03*
X032423Y014198D03*
X030706Y013760D03*
X005579Y002599D03*
X005634Y002457D03*
D202*
X006060Y002457D03*
X006071Y002500D03*
D203*
X006908Y002457D03*
X030711Y013662D03*
X031203Y014493D03*
X032494Y014394D03*
X030919Y012623D03*
D204*
X006437Y002468D03*
D205*
X006415Y002478D03*
X006087Y002544D03*
X006076Y002511D03*
X006098Y002588D03*
X006098Y002610D03*
X006098Y002621D03*
X006109Y002664D03*
X006109Y002675D03*
X006109Y002686D03*
X030624Y014307D03*
X031914Y015193D03*
D206*
X006929Y002489D03*
D207*
X006929Y002500D03*
D208*
X006361Y002522D03*
X031203Y008119D03*
D209*
X033084Y007343D03*
X032647Y014591D03*
X031192Y015083D03*
X006109Y002697D03*
X006109Y002653D03*
X006098Y002599D03*
X006087Y002555D03*
D210*
X007001Y002599D03*
D211*
X005573Y002621D03*
X030700Y013771D03*
X030700Y013782D03*
X030700Y013793D03*
X031192Y014712D03*
X031192Y014723D03*
X031192Y014734D03*
X031849Y014908D03*
X032450Y014263D03*
X032439Y014230D03*
X031039Y012098D03*
X031072Y008240D03*
D212*
X031832Y014744D03*
X031843Y014788D03*
X031843Y014843D03*
X007197Y003342D03*
X005579Y002653D03*
D213*
X005584Y002664D03*
X007170Y003277D03*
X007181Y003299D03*
X007214Y003375D03*
X007214Y003397D03*
X031028Y012120D03*
X030974Y012842D03*
X031433Y013104D03*
X031969Y008404D03*
X031914Y007868D03*
D214*
X031925Y007857D03*
X031017Y008535D03*
X031017Y008546D03*
X031017Y008557D03*
X031017Y008579D03*
X031017Y008590D03*
X031017Y008601D03*
X031017Y008611D03*
X031017Y008633D03*
X031017Y008644D03*
X031017Y008655D03*
X031017Y008677D03*
X031017Y008688D03*
X031488Y009618D03*
X031017Y012142D03*
X030941Y012470D03*
X031859Y012535D03*
X007225Y003430D03*
X007148Y003233D03*
X007137Y003222D03*
X007126Y003200D03*
X005584Y002675D03*
D215*
X005590Y002686D03*
X007132Y003211D03*
X007219Y003452D03*
X031023Y007573D03*
X031023Y008382D03*
X031023Y008393D03*
X031023Y008404D03*
X031023Y008415D03*
X031023Y008436D03*
X031023Y008447D03*
X031023Y008458D03*
X031023Y008480D03*
X031023Y008491D03*
X031023Y008502D03*
X031023Y008513D03*
X031952Y008436D03*
X031952Y007365D03*
X031952Y007354D03*
X031952Y007332D03*
X031952Y007321D03*
X031952Y007310D03*
X031952Y007299D03*
X031952Y007277D03*
X031952Y007266D03*
X031952Y007255D03*
X031952Y007234D03*
X031952Y007223D03*
X031952Y007212D03*
X031952Y007201D03*
X031952Y007179D03*
X031952Y007168D03*
X031952Y007157D03*
X030946Y012448D03*
X030946Y012459D03*
X030968Y012852D03*
D216*
X031859Y012524D03*
X031859Y011989D03*
X005595Y002697D03*
D217*
X005595Y002708D03*
X007083Y003135D03*
X031039Y007551D03*
X031936Y008458D03*
X031488Y009596D03*
X031006Y012196D03*
X031006Y012207D03*
X030963Y012415D03*
D218*
X007077Y003124D03*
X005601Y002719D03*
D219*
X007077Y002741D03*
D220*
X007077Y002752D03*
D221*
X006754Y002817D03*
D222*
X007099Y002861D03*
X031056Y012054D03*
X032532Y014460D03*
D223*
X005765Y002894D03*
X005469Y003638D03*
D224*
X007028Y003047D03*
X006962Y002894D03*
X031488Y009454D03*
X031488Y009508D03*
X031488Y009552D03*
X031849Y012481D03*
D225*
X005754Y002905D03*
X005459Y003649D03*
D226*
X005453Y003660D03*
X005442Y003671D03*
X005344Y003824D03*
X005748Y002916D03*
X031488Y013793D03*
D227*
X031903Y008513D03*
X031980Y007802D03*
X006995Y002982D03*
X006984Y002971D03*
X006984Y002960D03*
X006973Y002938D03*
X006973Y002927D03*
D228*
X007017Y003528D03*
X007028Y003550D03*
X007039Y003572D03*
X005726Y002938D03*
X005420Y003703D03*
X005409Y003714D03*
X005366Y003791D03*
D229*
X005699Y002960D03*
D230*
X005677Y002982D03*
X007154Y003747D03*
X007165Y003769D03*
X031745Y008775D03*
X031493Y013848D03*
D231*
X005661Y002992D03*
D232*
X006995Y002992D03*
X031072Y007485D03*
D233*
X031772Y008732D03*
X005650Y003003D03*
D234*
X005595Y003047D03*
X031827Y012284D03*
D235*
X031827Y012317D03*
X031827Y012120D03*
X031816Y008655D03*
X031160Y007332D03*
X005584Y003058D03*
D236*
X007033Y003058D03*
X030990Y012262D03*
X030990Y012273D03*
X030979Y012306D03*
X030979Y012317D03*
X030979Y012338D03*
X031920Y008491D03*
D237*
X005568Y003069D03*
D238*
X007044Y003069D03*
X007044Y003080D03*
X007208Y003506D03*
X031056Y007518D03*
X031001Y008305D03*
X030957Y012885D03*
X030957Y012896D03*
D239*
X031832Y008633D03*
X031143Y007354D03*
X005557Y003080D03*
D240*
X005541Y003091D03*
X031838Y008622D03*
D241*
X007050Y003091D03*
D242*
X005535Y003102D03*
X031843Y008611D03*
D243*
X031488Y009563D03*
X031488Y009574D03*
X031488Y009585D03*
X031050Y007529D03*
X031849Y011999D03*
X031849Y012492D03*
X030996Y012251D03*
X030996Y012240D03*
X007061Y003102D03*
D244*
X005524Y003113D03*
D245*
X007066Y003113D03*
X007219Y003496D03*
X031012Y008294D03*
X031001Y012218D03*
X030968Y012393D03*
X030968Y012404D03*
X031854Y012503D03*
D246*
X031832Y012393D03*
X031854Y008590D03*
X031121Y007398D03*
X005513Y003124D03*
X005437Y003321D03*
X005437Y003331D03*
D247*
X005442Y003310D03*
X005508Y003135D03*
X031116Y007408D03*
X031838Y012054D03*
D248*
X005502Y003146D03*
X005437Y003288D03*
D249*
X007088Y003146D03*
X031012Y012185D03*
X030957Y012426D03*
X031941Y007737D03*
X031941Y007682D03*
D250*
X032018Y007769D03*
X031110Y007419D03*
X031865Y008579D03*
X031832Y012404D03*
X005491Y003156D03*
X005437Y003299D03*
D251*
X005442Y003277D03*
X005442Y003266D03*
X005453Y003233D03*
X005464Y003211D03*
X005486Y003167D03*
X030941Y008360D03*
X031827Y012415D03*
X030897Y013104D03*
D252*
X030952Y012437D03*
X031017Y012164D03*
X031936Y007846D03*
X031947Y007671D03*
X031947Y007660D03*
X031947Y007649D03*
X031947Y007627D03*
X031947Y007616D03*
X031947Y007605D03*
X031947Y007594D03*
X031947Y007573D03*
X031947Y007562D03*
X031947Y007551D03*
X031947Y007529D03*
X031947Y007518D03*
X031947Y007507D03*
X031947Y007496D03*
X031947Y007474D03*
X031947Y007463D03*
X031947Y007452D03*
X031947Y007430D03*
X031947Y007419D03*
X031947Y007408D03*
X031947Y007398D03*
X031947Y007376D03*
X007104Y003167D03*
D253*
X005475Y003178D03*
X031105Y007430D03*
D254*
X031028Y007562D03*
X007225Y003463D03*
X007115Y003178D03*
D255*
X005475Y003189D03*
D256*
X005469Y003200D03*
D257*
X005459Y003222D03*
X005448Y003255D03*
X030892Y013082D03*
X030892Y013093D03*
X031876Y008557D03*
D258*
X031870Y008568D03*
X005453Y003244D03*
D259*
X007154Y003244D03*
D260*
X007159Y003255D03*
X007192Y003321D03*
X007203Y003353D03*
X007203Y003364D03*
X031006Y007605D03*
X031050Y008261D03*
D261*
X007176Y003288D03*
D262*
X007186Y003310D03*
X007197Y003331D03*
X031001Y007616D03*
X031701Y013891D03*
X031832Y014755D03*
X031832Y014766D03*
X031832Y014777D03*
X031843Y014799D03*
X031843Y014810D03*
X031843Y014821D03*
X031843Y014832D03*
X031843Y014854D03*
D263*
X031827Y012382D03*
X031127Y007387D03*
X005442Y003342D03*
D264*
X005442Y003353D03*
X031138Y007365D03*
X031838Y012076D03*
X031827Y012360D03*
X031827Y012371D03*
D265*
X031827Y012349D03*
X031827Y012338D03*
X005453Y003364D03*
D266*
X005606Y003463D03*
X005639Y003397D03*
X005639Y003375D03*
D267*
X005639Y003386D03*
D268*
X007214Y003386D03*
D269*
X005601Y003474D03*
D270*
X007219Y003474D03*
D271*
X005595Y003485D03*
D272*
X007225Y003485D03*
D273*
X005579Y003506D03*
X005568Y003517D03*
D274*
X005557Y003539D03*
D275*
X005437Y003681D03*
X007022Y003539D03*
X007197Y003835D03*
X031493Y013804D03*
D276*
X005541Y003550D03*
D277*
X005535Y003561D03*
D278*
X005404Y003725D03*
X005393Y003747D03*
X007033Y003561D03*
X007066Y003616D03*
X031723Y008808D03*
D279*
X005524Y003572D03*
X005327Y003867D03*
D280*
X007044Y003583D03*
D281*
X007055Y003594D03*
X007055Y003605D03*
X007197Y003824D03*
X005382Y003758D03*
X031253Y007157D03*
X031493Y013815D03*
D282*
X031728Y008797D03*
X007083Y003649D03*
X007072Y003627D03*
D283*
X007077Y003638D03*
D284*
X005426Y003692D03*
D285*
X007121Y003703D03*
X031231Y007201D03*
D286*
X007126Y003714D03*
D287*
X005393Y003736D03*
D288*
X007143Y003736D03*
D289*
X005366Y003780D03*
X031717Y008819D03*
D290*
X005344Y003835D03*
D291*
X007214Y003867D03*
D292*
X007225Y003878D03*
D293*
X007225Y003889D03*
D294*
X005295Y003900D03*
X031581Y013520D03*
X031581Y013531D03*
X031581Y013541D03*
D295*
X031488Y009300D03*
X031488Y006709D03*
X007258Y003900D03*
D296*
X005333Y003911D03*
X005333Y003922D03*
X005333Y003944D03*
X005333Y003955D03*
X005333Y003966D03*
X005333Y003988D03*
X005333Y003999D03*
X005333Y004010D03*
X005333Y004020D03*
X005333Y004042D03*
X005333Y004053D03*
X005333Y004064D03*
X005333Y004086D03*
D297*
X007181Y004086D03*
X007181Y004064D03*
X007181Y004053D03*
X007181Y004042D03*
X007181Y004020D03*
X007181Y004010D03*
X007181Y003999D03*
X007181Y003988D03*
X007181Y003966D03*
X007181Y003955D03*
X007181Y003944D03*
X007181Y003922D03*
X007181Y003911D03*
D298*
X005333Y003933D03*
X005333Y003977D03*
X005333Y004031D03*
X005333Y004075D03*
D299*
X007181Y004075D03*
X007181Y004031D03*
X007181Y003977D03*
X007181Y003933D03*
D300*
X030935Y012492D03*
X031865Y012546D03*
X031865Y011978D03*
D301*
X031849Y012010D03*
X031838Y012459D03*
D302*
X031832Y012437D03*
X031843Y012021D03*
X030935Y012962D03*
X030924Y012984D03*
X030914Y013006D03*
X030903Y013038D03*
X030968Y008338D03*
X031088Y007452D03*
X031996Y007791D03*
D303*
X031099Y007441D03*
X031843Y012032D03*
X031832Y012426D03*
D304*
X031843Y012043D03*
D305*
X031838Y012065D03*
X031849Y008601D03*
D306*
X031083Y008229D03*
X031039Y012087D03*
X030930Y012579D03*
X031870Y012579D03*
X032395Y014099D03*
D307*
X031832Y012087D03*
D308*
X031832Y012098D03*
X031832Y012109D03*
X031821Y008644D03*
D309*
X031827Y012131D03*
X031827Y012328D03*
D310*
X031827Y012164D03*
X031827Y012153D03*
X031827Y012142D03*
X031805Y008677D03*
X031170Y007310D03*
D311*
X031012Y012153D03*
D312*
X031821Y012174D03*
X031821Y012196D03*
X031821Y012207D03*
X031821Y012218D03*
X031821Y012240D03*
X031821Y012251D03*
X031821Y012262D03*
X031821Y012273D03*
X031176Y007299D03*
D313*
X031821Y012185D03*
X031821Y012229D03*
D314*
X031001Y012229D03*
X030968Y012382D03*
X030968Y012874D03*
X031931Y008469D03*
X031045Y007540D03*
D315*
X030990Y012284D03*
X030979Y012328D03*
D316*
X030974Y012349D03*
X030974Y012360D03*
X030974Y012371D03*
X030985Y012295D03*
X031925Y008480D03*
X031958Y007824D03*
D317*
X031892Y008535D03*
X031838Y012448D03*
X030941Y012940D03*
X030941Y012951D03*
D318*
X030957Y012907D03*
X031843Y012470D03*
D319*
X031870Y012557D03*
X030930Y012513D03*
X030930Y012503D03*
D320*
X030930Y012524D03*
D321*
X030924Y012568D03*
X030979Y012831D03*
X031909Y013093D03*
X031712Y013913D03*
X032401Y014121D03*
X032412Y014132D03*
X032412Y014143D03*
X032412Y014165D03*
X032466Y014307D03*
X032466Y014318D03*
X030695Y013979D03*
X030695Y013968D03*
X030979Y007660D03*
D322*
X030952Y012918D03*
D323*
X030924Y012973D03*
D324*
X030919Y012995D03*
X030908Y013027D03*
X030897Y013049D03*
X030897Y013060D03*
X031881Y008546D03*
X030952Y008349D03*
D325*
X030908Y013017D03*
X030897Y013071D03*
D326*
X031121Y013115D03*
D327*
X031903Y013115D03*
X030700Y013804D03*
X030700Y013859D03*
X030700Y013902D03*
X031903Y007879D03*
D328*
X031351Y013126D03*
X031351Y013137D03*
X031449Y013432D03*
D329*
X031444Y013421D03*
X031356Y013148D03*
D330*
X031362Y013159D03*
X031438Y013399D03*
D331*
X031362Y013170D03*
D332*
X031367Y013181D03*
X031367Y013191D03*
X031433Y013377D03*
X031433Y013388D03*
D333*
X031417Y013345D03*
X031417Y013334D03*
X031417Y013323D03*
X031406Y013301D03*
X031406Y013290D03*
X031406Y013279D03*
X031395Y013257D03*
X031395Y013246D03*
X031384Y013235D03*
X031384Y013224D03*
X031373Y013202D03*
D334*
X031378Y013213D03*
X031422Y013366D03*
D335*
X031406Y013312D03*
X031395Y013268D03*
D336*
X031422Y013356D03*
D337*
X031444Y013410D03*
D338*
X031455Y013443D03*
X031455Y013454D03*
X031466Y013476D03*
X031466Y013487D03*
D339*
X031460Y013465D03*
D340*
X031460Y013498D03*
D341*
X031575Y013509D03*
D342*
X031586Y013552D03*
X031586Y013574D03*
X031586Y013585D03*
X031586Y013596D03*
X031586Y013618D03*
X031586Y013629D03*
X031586Y013640D03*
X031488Y009333D03*
X031488Y006676D03*
D343*
X031586Y013563D03*
X031586Y013607D03*
D344*
X031592Y013651D03*
X031592Y013673D03*
X031592Y013684D03*
D345*
X031592Y013662D03*
D346*
X031597Y013695D03*
X031597Y013716D03*
D347*
X031597Y013705D03*
D348*
X031602Y013727D03*
D349*
X031602Y013749D03*
D350*
X031504Y013760D03*
D351*
X031499Y013859D03*
X031750Y008765D03*
D352*
X031209Y007234D03*
X031504Y013870D03*
D353*
X031695Y013880D03*
D354*
X031712Y013902D03*
X031198Y014646D03*
X031198Y014690D03*
X031821Y014690D03*
X031843Y014887D03*
X030990Y007638D03*
D355*
X031991Y008371D03*
X030700Y013957D03*
X031192Y014591D03*
X032450Y014252D03*
D356*
X031247Y013957D03*
D357*
X032313Y013968D03*
X032510Y014427D03*
D358*
X031170Y014110D03*
D359*
X031821Y014646D03*
X032466Y014296D03*
X032412Y014154D03*
D360*
X030624Y014296D03*
D361*
X031203Y014548D03*
X031849Y014941D03*
D362*
X031892Y015083D03*
D363*
X031488Y009344D03*
X031488Y006665D03*
D364*
X031488Y006687D03*
X031488Y009322D03*
D365*
X031488Y009311D03*
X031488Y006698D03*
D366*
X031488Y006719D03*
X031488Y006730D03*
X031488Y009279D03*
X031488Y009289D03*
D367*
X031488Y009268D03*
X031488Y009246D03*
X031488Y009235D03*
X031488Y009224D03*
X031488Y009202D03*
X031488Y009191D03*
X031488Y009180D03*
X031488Y009169D03*
X031488Y009147D03*
X031488Y009136D03*
X031488Y009125D03*
X031488Y009104D03*
X031488Y009093D03*
X031488Y009082D03*
X031488Y009071D03*
X031488Y009049D03*
X031488Y009038D03*
X031488Y009027D03*
X031488Y009005D03*
X031488Y008994D03*
X031488Y008983D03*
X031488Y008972D03*
X031488Y008950D03*
X031488Y008940D03*
X031488Y008929D03*
X031488Y008907D03*
X031488Y008896D03*
X031488Y008885D03*
X031488Y008874D03*
X031488Y008852D03*
X031488Y008841D03*
X031488Y007135D03*
X031488Y007124D03*
X031488Y007113D03*
X031488Y007102D03*
X031488Y007080D03*
X031488Y007069D03*
X031488Y007059D03*
X031488Y007037D03*
X031488Y007026D03*
X031488Y007015D03*
X031488Y007004D03*
X031488Y006982D03*
X031488Y006971D03*
X031488Y006960D03*
X031488Y006938D03*
X031488Y006927D03*
X031488Y006916D03*
X031488Y006905D03*
X031488Y006884D03*
X031488Y006873D03*
X031488Y006862D03*
X031488Y006840D03*
X031488Y006829D03*
X031488Y006818D03*
X031488Y006807D03*
X031488Y006785D03*
X031488Y006774D03*
X031488Y006763D03*
X031488Y006741D03*
D368*
X031488Y006752D03*
X031488Y006796D03*
X031488Y006851D03*
X031488Y006894D03*
X031488Y006949D03*
X031488Y006993D03*
X031488Y007048D03*
X031488Y007091D03*
X031488Y007146D03*
X031488Y008863D03*
X031488Y008918D03*
X031488Y008961D03*
X031488Y009016D03*
X031488Y009060D03*
X031488Y009115D03*
X031488Y009158D03*
X031488Y009213D03*
X031488Y009257D03*
D369*
X031225Y007212D03*
D370*
X031220Y007223D03*
X031756Y008754D03*
D371*
X031203Y007244D03*
D372*
X031181Y007288D03*
D373*
X031149Y007343D03*
D374*
X031132Y007376D03*
D375*
X031947Y007387D03*
X031947Y007441D03*
X031947Y007485D03*
X031947Y007540D03*
X031947Y007583D03*
X031947Y007638D03*
X031488Y009607D03*
D376*
X031083Y007463D03*
D377*
X031078Y007474D03*
D378*
X030367Y008524D03*
X032434Y007682D03*
X032729Y007540D03*
D379*
X031958Y008426D03*
X031039Y008272D03*
X031017Y008524D03*
X031017Y008568D03*
X031017Y008622D03*
X031017Y008666D03*
X031017Y007583D03*
D380*
X030935Y007737D03*
D381*
X032007Y007780D03*
D382*
X031947Y007835D03*
D383*
X031236Y008076D03*
D384*
X030979Y008327D03*
D385*
X031898Y008524D03*
D386*
X031810Y008666D03*
D387*
X031777Y008721D03*
D388*
X031761Y008743D03*
D389*
X029924Y008765D03*
M02*
