G75*
G70*
%OFA0B0*%
%FSLAX24Y24*%
%IPPOS*%
%LPD*%
%AMOC8*
5,1,8,0,0,1.08239X$1,22.5*
%
%ADD10R,0.0394X0.0433*%
%ADD11R,0.0433X0.0394*%
%ADD12C,0.0945*%
%ADD13R,0.1339X0.0591*%
%ADD14R,0.1378X0.0394*%
%ADD15C,0.1200*%
%ADD16C,0.1005*%
%ADD17C,0.0394*%
%ADD18C,0.0354*%
%ADD19C,0.0295*%
%ADD20C,0.0172*%
%ADD21C,0.0180*%
%ADD22C,0.0200*%
%ADD23C,0.0120*%
%ADD24C,0.0240*%
%ADD25C,0.0100*%
%ADD26C,0.0080*%
%ADD27C,0.0240*%
D10*
X009450Y009727D03*
X010119Y009727D03*
X010119Y010514D03*
X009450Y010514D03*
X009804Y013467D03*
X010473Y013467D03*
X011615Y015199D03*
X012284Y015199D03*
X012599Y016105D03*
X011930Y016105D03*
X014450Y014530D03*
X015119Y014530D03*
X016654Y014530D03*
X017324Y014530D03*
X017520Y013034D03*
X018190Y013034D03*
X018702Y012207D03*
X019371Y012207D03*
X019883Y012522D03*
X020552Y012522D03*
X021497Y012443D03*
X022166Y012443D03*
X022678Y012443D03*
X023347Y012443D03*
X020552Y011380D03*
X019883Y011380D03*
X019371Y011380D03*
X018702Y011380D03*
X017954Y011302D03*
X017284Y011302D03*
X016733Y016223D03*
X016064Y016223D03*
X005473Y020239D03*
X004804Y020239D03*
X003702Y020239D03*
X003032Y020239D03*
X027048Y015790D03*
X027717Y015790D03*
D11*
X024686Y015081D03*
X023898Y015081D03*
X023898Y014412D03*
X024686Y014412D03*
X019391Y015101D03*
X019391Y015770D03*
X018288Y015219D03*
X018288Y014550D03*
X015887Y014510D03*
X015887Y015180D03*
X013328Y013526D03*
X013328Y012857D03*
X011792Y013093D03*
X011792Y013762D03*
X009213Y008605D03*
X009213Y007936D03*
X008426Y007936D03*
X008426Y008605D03*
X008249Y007424D03*
X008249Y006754D03*
X009391Y006754D03*
X009391Y007424D03*
X010178Y007424D03*
X010178Y006754D03*
X006517Y006754D03*
X006517Y007424D03*
X005729Y007424D03*
X005729Y006754D03*
D12*
X001713Y004688D03*
X009824Y005711D03*
X012107Y005711D03*
X012107Y007365D03*
X010060Y015357D03*
X006517Y015357D03*
X006517Y018900D03*
X023249Y018211D03*
X027776Y013546D03*
X026241Y011262D03*
X024548Y007365D03*
X024548Y005711D03*
X033800Y004688D03*
X034076Y020632D03*
D13*
X033603Y014077D03*
X033603Y011440D03*
X033603Y008566D03*
X033603Y005928D03*
D14*
X031418Y006853D03*
X031418Y007640D03*
X031418Y012365D03*
X031418Y013152D03*
D15*
X029627Y017274D03*
X027776Y017274D03*
X025926Y017274D03*
X020296Y017483D03*
X018446Y018664D03*
X020296Y019845D03*
D16*
X025178Y021026D03*
X030375Y021026D03*
D17*
X001398Y000947D03*
X001398Y019058D03*
X035257Y019058D03*
X035257Y000947D03*
D18*
X031517Y005869D03*
X030926Y005869D03*
X030335Y006853D03*
X032973Y006853D03*
X027776Y012562D03*
X021083Y013113D03*
X020847Y014373D03*
X017599Y015239D03*
X014391Y013270D03*
X016162Y012955D03*
X016517Y011223D03*
X019430Y008310D03*
X022422Y006302D03*
X012540Y006577D03*
X011989Y004806D03*
X007894Y017286D03*
X007894Y019254D03*
X008524Y019806D03*
X008957Y019806D03*
X007107Y019648D03*
D19*
X005139Y018388D03*
X004548Y019176D03*
X001792Y019766D03*
X006320Y016420D03*
X005139Y015239D03*
X004154Y016026D03*
X002816Y014609D03*
X001595Y016026D03*
X004745Y014058D03*
X005375Y013231D03*
X006713Y014058D03*
X007127Y013546D03*
X008249Y013979D03*
X007894Y014648D03*
X010847Y012758D03*
X012540Y013546D03*
X013879Y013349D03*
X013879Y014727D03*
X015572Y016814D03*
X017146Y015908D03*
X017894Y015632D03*
X017934Y016420D03*
X017540Y017404D03*
X019391Y016499D03*
X020887Y016420D03*
X022068Y016814D03*
X023209Y015278D03*
X024430Y013940D03*
X025611Y015436D03*
X027383Y015042D03*
X028761Y015829D03*
X030532Y015436D03*
X030139Y014451D03*
X031713Y014254D03*
X032894Y015632D03*
X032107Y016814D03*
X031320Y018782D03*
X029154Y020357D03*
X028170Y018979D03*
X026989Y018191D03*
X025611Y019176D03*
X026398Y019569D03*
X024627Y018388D03*
X022855Y019766D03*
X024233Y020554D03*
X021674Y021144D03*
X018721Y019963D03*
X017737Y020947D03*
X015572Y020751D03*
X014784Y019569D03*
X013209Y020160D03*
X011438Y019176D03*
X013013Y018585D03*
X012225Y017010D03*
X010454Y017010D03*
X009272Y018782D03*
X010454Y020554D03*
X017343Y018979D03*
X021477Y018585D03*
X029351Y012877D03*
X030139Y011695D03*
X030532Y010317D03*
X030335Y009333D03*
X031910Y010121D03*
X033682Y009924D03*
X033091Y012286D03*
X033879Y012877D03*
X027383Y011499D03*
X026320Y012562D03*
X023918Y011892D03*
X024036Y010396D03*
X022461Y009412D03*
X021674Y010199D03*
X020493Y010003D03*
X021083Y009215D03*
X019902Y007837D03*
X017934Y007837D03*
X016359Y009018D03*
X017343Y009609D03*
X016162Y010593D03*
X014587Y009215D03*
X014706Y008152D03*
X013524Y007325D03*
X014981Y006538D03*
X015965Y007443D03*
X017146Y006066D03*
X016359Y005278D03*
X015257Y005317D03*
X015769Y004294D03*
X016950Y004294D03*
X018131Y004294D03*
X019312Y004294D03*
X020493Y004294D03*
X021674Y004294D03*
X022855Y004294D03*
X024036Y004294D03*
X024430Y002916D03*
X025217Y002916D03*
X026398Y004294D03*
X026792Y005475D03*
X028957Y004884D03*
X028564Y002916D03*
X030139Y003113D03*
X031517Y003703D03*
X031910Y004884D03*
X029351Y007168D03*
X027973Y007955D03*
X027580Y007050D03*
X026202Y007247D03*
X024233Y009018D03*
X026989Y009727D03*
X021083Y006262D03*
X020296Y005672D03*
X019706Y006459D03*
X018524Y005081D03*
X018328Y002916D03*
X019312Y002916D03*
X020493Y002916D03*
X021871Y002916D03*
X022658Y002916D03*
X022855Y001538D03*
X023446Y001144D03*
X024036Y001538D03*
X025217Y001538D03*
X026398Y001538D03*
X026792Y000947D03*
X029154Y001538D03*
X031517Y001144D03*
X032107Y002129D03*
X033682Y007365D03*
X022068Y000947D03*
X021674Y001538D03*
X020493Y001538D03*
X019312Y001538D03*
X018524Y001144D03*
X018131Y001538D03*
X016950Y001538D03*
X015769Y001538D03*
X015965Y000751D03*
X015375Y000711D03*
X013013Y001499D03*
X012422Y001499D03*
X011831Y001499D03*
X008643Y000751D03*
X005926Y002050D03*
X004548Y001853D03*
X005532Y003428D03*
X003957Y004412D03*
X002973Y004215D03*
X003564Y005987D03*
X002068Y006223D03*
X005020Y007680D03*
X005926Y008743D03*
X004942Y009491D03*
X006083Y009845D03*
X006123Y010357D03*
X004587Y011341D03*
X004587Y012069D03*
X006320Y011892D03*
X008564Y010475D03*
X011753Y009845D03*
X012028Y009215D03*
X012225Y010396D03*
X012068Y011026D03*
X008800Y007247D03*
X009784Y006420D03*
X008288Y005790D03*
X008091Y004373D03*
X009076Y004018D03*
X010257Y004294D03*
X013013Y004333D03*
X013564Y005317D03*
X013721Y006066D03*
X012619Y006184D03*
X015769Y002916D03*
X016753Y002916D03*
X019036Y011774D03*
X017619Y012286D03*
X003367Y009924D03*
X003367Y008743D03*
X001398Y010514D03*
D20*
X008170Y006302D03*
X010217Y006420D03*
X011831Y002916D03*
X013013Y002916D03*
X017619Y011577D03*
X021930Y014176D03*
X022954Y014294D03*
X015139Y015829D03*
X014272Y015829D03*
X008446Y015534D03*
X008446Y014412D03*
X004253Y020239D03*
D21*
X003072Y020928D03*
X005434Y020928D03*
X006379Y017129D03*
X009076Y017188D03*
X011556Y016262D03*
X011477Y015672D03*
X012934Y015829D03*
X013406Y015829D03*
X014706Y015829D03*
X015965Y015829D03*
X016831Y015003D03*
X015454Y014373D03*
X015454Y013428D03*
X017146Y012365D03*
X018013Y013428D03*
X019076Y013428D03*
X019706Y013428D03*
X020020Y013428D03*
X020296Y013428D03*
X020887Y012601D03*
X021044Y012325D03*
X022225Y011971D03*
X021083Y011144D03*
X022658Y012995D03*
X022461Y013191D03*
X023997Y012680D03*
X024509Y011380D03*
X025965Y012916D03*
X026792Y013979D03*
X024863Y015672D03*
X023446Y014963D03*
X023446Y014530D03*
X022658Y014924D03*
X022461Y015436D03*
X022580Y015672D03*
X023249Y016321D03*
X022068Y014924D03*
X019706Y014373D03*
X019272Y014609D03*
X017107Y016380D03*
X012973Y014845D03*
X012028Y014609D03*
X010493Y014373D03*
X009863Y013861D03*
X009863Y012916D03*
X009548Y012916D03*
X009115Y012916D03*
X009784Y012443D03*
X009509Y011735D03*
X009351Y011538D03*
X009154Y011380D03*
X008682Y011774D03*
X008524Y011577D03*
X008328Y011380D03*
X008328Y011774D03*
X007540Y012562D03*
X006753Y012168D03*
X008918Y010042D03*
X008485Y009688D03*
X009469Y009018D03*
X010335Y008861D03*
X011753Y008664D03*
X011871Y008231D03*
X012973Y010160D03*
X013761Y010160D03*
X014548Y010160D03*
X015335Y010160D03*
X015335Y011499D03*
X014548Y011499D03*
X013761Y011499D03*
X012973Y011499D03*
X012068Y012207D03*
X011871Y011971D03*
X011202Y011184D03*
X010926Y010908D03*
X010650Y010908D03*
X011871Y010790D03*
X006674Y008546D03*
X005887Y007955D03*
X004351Y006932D03*
X005099Y006223D03*
X005729Y006341D03*
X009430Y006420D03*
X013406Y004294D03*
X013800Y004294D03*
X014194Y004294D03*
X014587Y004294D03*
X014981Y004294D03*
X015375Y004294D03*
X014981Y001538D03*
X014587Y001538D03*
X014194Y001538D03*
X013406Y001538D03*
X025217Y004294D03*
X028682Y008506D03*
X028879Y008821D03*
X028249Y010436D03*
X027875Y010967D03*
X004351Y009569D03*
X001398Y011380D03*
X001398Y011873D03*
X002776Y012365D03*
D22*
X010099Y010121D03*
X010414Y010121D03*
X010296Y009294D03*
X012580Y010514D03*
X013367Y010514D03*
X013367Y011144D03*
X012580Y011144D03*
X014154Y011144D03*
X014942Y011144D03*
X015729Y011144D03*
X015729Y010514D03*
X014942Y010514D03*
X014154Y010514D03*
X021635Y013270D03*
X021792Y014963D03*
X021359Y015199D03*
D23*
X021579Y015210D02*
X022113Y015210D01*
X022169Y015266D02*
X022037Y015134D01*
X021981Y015134D01*
X021957Y015110D01*
X021883Y015183D01*
X021701Y015183D01*
X021572Y015054D01*
X021572Y014872D01*
X021701Y014743D01*
X021883Y014743D01*
X021917Y014777D01*
X021981Y014714D01*
X022155Y014714D01*
X022278Y014837D01*
X022278Y014893D01*
X022414Y015029D01*
X022467Y015029D01*
X022448Y015011D01*
X022448Y014837D01*
X022488Y014797D01*
X022488Y014066D01*
X022588Y013966D01*
X023787Y012767D01*
X023787Y012767D01*
X023787Y012593D01*
X023910Y012470D01*
X024084Y012470D01*
X024207Y012593D01*
X024207Y012767D01*
X024167Y012807D01*
X024167Y012868D01*
X022828Y014207D01*
X022828Y014797D01*
X022868Y014837D01*
X022868Y014906D01*
X023000Y014775D01*
X023000Y014223D01*
X024478Y012746D01*
X025838Y012746D01*
X025878Y012706D01*
X026052Y012706D01*
X026175Y012829D01*
X026175Y013003D01*
X026052Y013126D01*
X025878Y013126D01*
X025838Y013086D01*
X024618Y013086D01*
X023384Y014320D01*
X023533Y014320D01*
X023562Y014349D01*
X023562Y014165D01*
X023632Y014095D01*
X024165Y014095D01*
X024235Y014165D01*
X024235Y014242D01*
X024349Y014242D01*
X024349Y014165D01*
X024420Y014095D01*
X024952Y014095D01*
X025022Y014165D01*
X025022Y014659D01*
X024952Y014729D01*
X024940Y014729D01*
X024964Y014735D01*
X025001Y014756D01*
X025030Y014786D01*
X025051Y014823D01*
X025062Y014863D01*
X025062Y015043D01*
X024724Y015043D01*
X024724Y015120D01*
X024647Y015120D01*
X024647Y015043D01*
X024309Y015043D01*
X024309Y014863D01*
X024320Y014823D01*
X024341Y014786D01*
X024371Y014756D01*
X024408Y014735D01*
X024432Y014729D01*
X024420Y014729D01*
X024349Y014659D01*
X024349Y014582D01*
X024235Y014582D01*
X024235Y014659D01*
X024165Y014729D01*
X023632Y014729D01*
X023603Y014700D01*
X023573Y014700D01*
X023533Y014740D01*
X023359Y014740D01*
X023340Y014721D01*
X023340Y014772D01*
X023359Y014753D01*
X023533Y014753D01*
X023573Y014793D01*
X023603Y014793D01*
X023632Y014764D01*
X024165Y014764D01*
X024235Y014835D01*
X024235Y015328D01*
X024165Y015398D01*
X023632Y015398D01*
X023562Y015328D01*
X022928Y015328D01*
X022886Y015369D02*
X022671Y015369D01*
X022671Y015467D01*
X022707Y015502D01*
X024736Y015502D01*
X024776Y015462D01*
X024950Y015462D01*
X025073Y015585D01*
X025073Y015738D01*
X026731Y015738D01*
X026731Y015524D01*
X026801Y015453D01*
X027295Y015453D01*
X027365Y015524D01*
X027365Y016056D01*
X027295Y016126D01*
X026801Y016126D01*
X026753Y016078D01*
X019666Y016078D01*
X019657Y016087D01*
X019124Y016087D01*
X019115Y016078D01*
X017509Y016078D01*
X016761Y015330D01*
X016661Y015230D01*
X016661Y015130D01*
X016621Y015090D01*
X016621Y014916D01*
X016670Y014867D01*
X016408Y014867D01*
X016337Y014796D01*
X016337Y014543D01*
X016223Y014543D01*
X016223Y014757D01*
X016153Y014827D01*
X016141Y014827D01*
X016165Y014834D01*
X016201Y014855D01*
X016231Y014885D01*
X016252Y014921D01*
X016263Y014962D01*
X016263Y015141D01*
X015925Y015141D01*
X015925Y015218D01*
X016263Y015218D01*
X016263Y015398D01*
X016252Y015438D01*
X016231Y015475D01*
X016201Y015505D01*
X016165Y015526D01*
X016124Y015537D01*
X015925Y015537D01*
X015925Y015218D01*
X015848Y015218D01*
X015848Y015141D01*
X015510Y015141D01*
X015510Y014962D01*
X015521Y014921D01*
X015542Y014885D01*
X015572Y014855D01*
X015608Y014834D01*
X015633Y014827D01*
X015620Y014827D01*
X015550Y014757D01*
X015550Y014573D01*
X015541Y014583D01*
X015436Y014583D01*
X015436Y014796D01*
X015365Y014867D01*
X014872Y014867D01*
X014802Y014796D01*
X014802Y014306D01*
X014766Y014306D01*
X014766Y014796D01*
X014696Y014867D01*
X014203Y014867D01*
X014133Y014796D01*
X014133Y014543D01*
X012238Y014543D01*
X012238Y014578D01*
X012453Y014793D01*
X012523Y014863D01*
X012531Y014863D01*
X012601Y014933D01*
X012601Y014941D01*
X013299Y015639D01*
X013319Y015619D01*
X013493Y015619D01*
X013616Y015742D01*
X013616Y015916D01*
X013493Y016039D01*
X013319Y016039D01*
X013021Y016039D01*
X012964Y016039D01*
X012916Y016088D01*
X012916Y016371D01*
X012846Y016441D01*
X012353Y016441D01*
X012282Y016371D01*
X012282Y015839D01*
X012353Y015768D01*
X012724Y015768D01*
X012724Y015742D01*
X012823Y015644D01*
X012601Y015422D01*
X012601Y015466D01*
X012531Y015536D01*
X012038Y015536D01*
X011967Y015466D01*
X011967Y014933D01*
X012038Y014863D01*
X012042Y014863D01*
X011998Y014819D01*
X011941Y014819D01*
X011818Y014696D01*
X011818Y014543D01*
X010620Y014543D01*
X010580Y014583D01*
X010406Y014583D01*
X010283Y014460D01*
X010283Y014286D01*
X010406Y014163D01*
X010580Y014163D01*
X010620Y014203D01*
X011303Y014203D01*
X010790Y013690D01*
X010790Y013733D01*
X010720Y013804D01*
X010227Y013804D01*
X010156Y013733D01*
X010156Y013201D01*
X010227Y013131D01*
X010231Y013131D01*
X010073Y012973D01*
X010073Y013003D01*
X009950Y013126D01*
X009776Y013126D01*
X009706Y013055D01*
X009635Y013126D01*
X009461Y013126D01*
X009338Y013003D01*
X009338Y012946D01*
X009325Y012933D01*
X009325Y013003D01*
X009202Y013126D01*
X009028Y013126D01*
X008988Y013086D01*
X008218Y013086D01*
X008118Y012986D01*
X007750Y012618D01*
X007750Y012649D01*
X007627Y012772D01*
X007453Y012772D01*
X007330Y012649D01*
X007330Y012592D01*
X006963Y012225D01*
X006963Y012255D01*
X006840Y012378D01*
X006783Y012378D01*
X006626Y012535D01*
X003258Y012535D01*
X003339Y012568D01*
X003520Y012749D01*
X003618Y012986D01*
X003618Y013243D01*
X003520Y013480D01*
X003339Y013662D01*
X003102Y013760D01*
X002845Y013760D01*
X002608Y013662D01*
X002426Y013480D01*
X002328Y013243D01*
X002328Y012986D01*
X002426Y012749D01*
X002608Y012568D01*
X002661Y012546D01*
X002566Y012452D01*
X002566Y012278D01*
X002661Y012183D01*
X002608Y012162D01*
X002426Y011980D01*
X002328Y011743D01*
X002328Y011486D01*
X002426Y011249D01*
X002608Y011068D01*
X002845Y010970D01*
X003102Y010970D01*
X003339Y011068D01*
X003520Y011249D01*
X003618Y011486D01*
X003618Y011743D01*
X003520Y011980D01*
X003339Y012162D01*
X003258Y012195D01*
X006485Y012195D01*
X006543Y012137D01*
X006543Y012081D01*
X006666Y011958D01*
X006696Y011958D01*
X005678Y010940D01*
X002571Y010940D01*
X001608Y011903D01*
X001608Y011960D01*
X001485Y012083D01*
X001311Y012083D01*
X001188Y011960D01*
X001188Y011786D01*
X001311Y011663D01*
X001368Y011663D01*
X001440Y011590D01*
X001311Y011590D01*
X001188Y011467D01*
X001188Y011293D01*
X001311Y011170D01*
X001368Y011170D01*
X002194Y010344D01*
X005957Y010344D01*
X007016Y011403D01*
X007016Y010669D01*
X007007Y010678D01*
X006919Y010715D01*
X006823Y010715D01*
X006735Y010678D01*
X006667Y010611D01*
X006631Y010523D01*
X006631Y010427D01*
X006667Y010339D01*
X006735Y010271D01*
X006823Y010235D01*
X006919Y010235D01*
X007007Y010271D01*
X007016Y010281D01*
X007016Y006476D01*
X006981Y006511D01*
X006853Y006639D01*
X006853Y007001D01*
X006783Y007071D01*
X006250Y007071D01*
X006180Y007001D01*
X006180Y006508D01*
X006250Y006438D01*
X006573Y006438D01*
X006740Y006271D01*
X006740Y003121D01*
X006840Y003021D01*
X008866Y000995D01*
X008966Y000896D01*
X010721Y000896D01*
X011429Y001604D01*
X013100Y001604D01*
X013196Y001508D01*
X013196Y001451D01*
X013319Y001328D01*
X013493Y001328D01*
X013616Y001451D01*
X013616Y001625D01*
X013493Y001748D01*
X013437Y001748D01*
X013344Y001840D01*
X013651Y001840D01*
X013984Y001508D01*
X013984Y001451D01*
X014107Y001328D01*
X014281Y001328D01*
X014391Y001438D01*
X014500Y001328D01*
X014674Y001328D01*
X014784Y001438D01*
X014894Y001328D01*
X015068Y001328D01*
X015191Y001451D01*
X015191Y001625D01*
X015068Y001748D01*
X015012Y001748D01*
X014206Y002553D01*
X014107Y002653D01*
X013974Y002653D01*
X015405Y004084D01*
X015462Y004084D01*
X015530Y004152D01*
X015530Y003039D01*
X015501Y002969D01*
X015501Y002863D01*
X015530Y002793D01*
X015530Y001661D01*
X015501Y001591D01*
X015501Y001485D01*
X015530Y001415D01*
X015530Y000620D01*
X003368Y000620D01*
X003652Y000784D01*
X004001Y001160D01*
X004223Y001622D01*
X004300Y002129D01*
X004300Y002129D01*
X004223Y002635D01*
X004001Y003097D01*
X004001Y003097D01*
X003652Y003473D01*
X003208Y003730D01*
X002708Y003844D01*
X002197Y003805D01*
X002197Y003805D01*
X001720Y003618D01*
X001720Y003618D01*
X001319Y003298D01*
X001071Y002935D01*
X001071Y017070D01*
X001319Y016707D01*
X001720Y016387D01*
X002197Y016200D01*
X002708Y016161D01*
X003208Y016275D01*
X003652Y016532D01*
X004001Y016908D01*
X004223Y017370D01*
X004300Y017877D01*
X004223Y018384D01*
X004001Y018845D01*
X004001Y018845D01*
X003652Y019221D01*
X003208Y019478D01*
X002708Y019592D01*
X002197Y019553D01*
X002197Y019553D01*
X001720Y019366D01*
X001720Y019366D01*
X001619Y019286D01*
X001578Y019326D01*
X001461Y019374D01*
X001335Y019374D01*
X001219Y019326D01*
X001130Y019237D01*
X001082Y019121D01*
X001082Y018995D01*
X001130Y018878D01*
X001174Y018834D01*
X001071Y018683D01*
X001071Y021747D01*
X035584Y021747D01*
X035584Y018664D01*
X035497Y018845D01*
X035497Y018845D01*
X035495Y018848D01*
X035525Y018878D01*
X035574Y018995D01*
X035574Y019121D01*
X035525Y019237D01*
X035436Y019326D01*
X035320Y019374D01*
X035194Y019374D01*
X035077Y019326D01*
X035037Y019286D01*
X034704Y019478D01*
X034204Y019592D01*
X033693Y019553D01*
X033216Y019366D01*
X032815Y019046D01*
X032526Y018623D01*
X032526Y018623D01*
X032375Y018133D01*
X032375Y017620D01*
X032526Y017130D01*
X032815Y016707D01*
X032815Y016707D01*
X033216Y016387D01*
X033693Y016200D01*
X034204Y016161D01*
X034704Y016275D01*
X035148Y016532D01*
X035497Y016908D01*
X035584Y017089D01*
X035584Y016886D01*
X034473Y015775D01*
X034403Y015606D01*
X034403Y005635D01*
X034392Y005635D01*
X034392Y006273D01*
X034322Y006343D01*
X032884Y006343D01*
X032814Y006273D01*
X032814Y005635D01*
X029536Y005635D01*
X026834Y008336D01*
X028555Y008336D01*
X028595Y008296D01*
X028769Y008296D01*
X028892Y008419D01*
X028892Y008469D01*
X029778Y007583D01*
X029845Y007516D01*
X029933Y007479D01*
X030609Y007479D01*
X030609Y007394D01*
X030679Y007323D01*
X032157Y007323D01*
X032227Y007394D01*
X032227Y007887D01*
X032157Y007957D01*
X030821Y007957D01*
X030816Y007959D01*
X030081Y007959D01*
X029015Y009025D01*
X028926Y009061D01*
X028831Y009061D01*
X028743Y009025D01*
X028675Y008957D01*
X028639Y008869D01*
X028639Y008774D01*
X028662Y008716D01*
X028595Y008716D01*
X028555Y008676D01*
X026784Y008676D01*
X025195Y010266D01*
X028122Y010266D01*
X028162Y010226D01*
X028336Y010226D01*
X028459Y010349D01*
X028459Y010523D01*
X028336Y010646D01*
X028162Y010646D01*
X028122Y010606D01*
X025248Y010606D01*
X024640Y011214D01*
X024719Y011293D01*
X024719Y011467D01*
X024596Y011590D01*
X024422Y011590D01*
X024382Y011550D01*
X021666Y011550D01*
X020957Y012259D01*
X020869Y012259D01*
X020869Y012391D01*
X020974Y012391D01*
X021097Y012514D01*
X021097Y012688D01*
X020974Y012811D01*
X020846Y012811D01*
X020799Y012859D01*
X020305Y012859D01*
X020235Y012788D01*
X020235Y012430D01*
X020200Y012465D01*
X020200Y012788D01*
X020129Y012859D01*
X019636Y012859D01*
X019566Y012788D01*
X019566Y012544D01*
X019565Y012544D01*
X019124Y012544D01*
X019054Y012473D01*
X019054Y011941D01*
X019124Y011871D01*
X019617Y011871D01*
X019688Y011941D01*
X019688Y012185D01*
X019688Y012186D01*
X019998Y012186D01*
X020233Y011951D01*
X020165Y011884D01*
X019998Y011717D01*
X019636Y011717D01*
X019627Y011708D01*
X019617Y011717D01*
X019124Y011717D01*
X019054Y011647D01*
X019054Y011114D01*
X019090Y011078D01*
X018982Y011078D01*
X019018Y011114D01*
X019018Y011647D01*
X018948Y011717D01*
X018468Y011717D01*
X018344Y011840D01*
X018516Y011840D01*
X018546Y011871D01*
X018948Y011871D01*
X019018Y011941D01*
X019018Y012473D01*
X018948Y012544D01*
X018455Y012544D01*
X018385Y012473D01*
X018385Y012190D01*
X018375Y012180D01*
X017259Y012180D01*
X017356Y012278D01*
X017356Y012334D01*
X017453Y012431D01*
X017553Y012531D01*
X017553Y012697D01*
X017767Y012697D01*
X017837Y012768D01*
X017837Y013258D01*
X017873Y013258D01*
X017873Y012768D01*
X017943Y012697D01*
X018436Y012697D01*
X018507Y012768D01*
X018507Y013021D01*
X019540Y013021D01*
X019736Y013218D01*
X019792Y013218D01*
X019916Y013341D01*
X019916Y013494D01*
X021919Y013494D01*
X022251Y013161D01*
X022251Y013105D01*
X022374Y012981D01*
X022448Y012981D01*
X022448Y012908D01*
X022571Y012785D01*
X022745Y012785D01*
X022868Y012908D01*
X022868Y013082D01*
X022828Y013122D01*
X022828Y013459D01*
X022316Y013971D01*
X022217Y014070D01*
X020077Y014070D01*
X021139Y015133D01*
X021139Y015108D01*
X021268Y014979D01*
X021450Y014979D01*
X021579Y015108D01*
X021579Y015266D01*
X022169Y015266D01*
X022357Y014973D02*
X022448Y014973D01*
X022448Y014854D02*
X022278Y014854D01*
X022176Y014736D02*
X022488Y014736D01*
X022488Y014617D02*
X021023Y014617D01*
X021016Y014625D02*
X020906Y014670D01*
X020788Y014670D01*
X020679Y014625D01*
X020595Y014541D01*
X020550Y014432D01*
X020550Y014313D01*
X020595Y014204D01*
X020679Y014121D01*
X020788Y014075D01*
X020906Y014075D01*
X021016Y014121D01*
X021099Y014204D01*
X021144Y014313D01*
X021144Y014432D01*
X021099Y014541D01*
X021016Y014625D01*
X021117Y014499D02*
X022488Y014499D01*
X022488Y014380D02*
X021144Y014380D01*
X021123Y014262D02*
X022488Y014262D01*
X022488Y014143D02*
X021038Y014143D01*
X020657Y014143D02*
X020149Y014143D01*
X020268Y014262D02*
X020572Y014262D01*
X020550Y014380D02*
X020386Y014380D01*
X020505Y014499D02*
X020578Y014499D01*
X020623Y014617D02*
X020671Y014617D01*
X020742Y014736D02*
X021959Y014736D01*
X021590Y014854D02*
X020860Y014854D01*
X020979Y014973D02*
X021572Y014973D01*
X021562Y015091D02*
X021609Y015091D01*
X021156Y015091D02*
X021097Y015091D01*
X020854Y015328D02*
X019727Y015328D01*
X019727Y015348D02*
X019657Y015418D01*
X019124Y015418D01*
X019054Y015348D01*
X019054Y014854D01*
X018567Y014854D01*
X018554Y014867D02*
X018542Y014867D01*
X018566Y014873D01*
X018603Y014894D01*
X018633Y014924D01*
X018654Y014960D01*
X018665Y015001D01*
X018665Y015181D01*
X018327Y015181D01*
X018327Y015257D01*
X018665Y015257D01*
X018665Y015437D01*
X018654Y015478D01*
X018633Y015514D01*
X018603Y015544D01*
X018566Y015565D01*
X019054Y015565D01*
X019054Y015524D02*
X019124Y015453D01*
X019657Y015453D01*
X019727Y015524D01*
X019727Y015738D01*
X022370Y015738D01*
X022370Y015641D01*
X022334Y015606D01*
X021131Y015606D01*
X019916Y014390D01*
X019916Y014460D01*
X019792Y014583D01*
X019619Y014583D01*
X019579Y014543D01*
X019482Y014543D01*
X019482Y014696D01*
X019442Y014736D01*
X019442Y014784D01*
X019657Y014784D01*
X019727Y014854D01*
X020380Y014854D01*
X020498Y014973D02*
X019727Y014973D01*
X019727Y015091D02*
X020617Y015091D01*
X020735Y015210D02*
X019727Y015210D01*
X019727Y015348D02*
X019727Y014854D01*
X019443Y014736D02*
X020261Y014736D01*
X020143Y014617D02*
X019482Y014617D01*
X019102Y014736D02*
X019062Y014696D01*
X019062Y014543D01*
X018625Y014543D01*
X018625Y014796D01*
X018554Y014867D01*
X018657Y014973D02*
X019054Y014973D01*
X019054Y015091D02*
X018665Y015091D01*
X018665Y015328D02*
X019054Y015328D01*
X019054Y015210D02*
X018327Y015210D01*
X018327Y015257D02*
X018250Y015257D01*
X018250Y015181D01*
X017912Y015181D01*
X017912Y015001D01*
X017923Y014960D01*
X017944Y014924D01*
X017973Y014894D01*
X018010Y014873D01*
X018034Y014867D01*
X018022Y014867D01*
X017952Y014796D01*
X017952Y014543D01*
X017640Y014543D01*
X017640Y014796D01*
X017570Y014867D01*
X017077Y014867D01*
X017007Y014796D01*
X017007Y014306D01*
X016971Y014306D01*
X016971Y014796D01*
X016947Y014821D01*
X017041Y014916D01*
X017041Y015090D01*
X017021Y015110D01*
X017650Y015738D01*
X019054Y015738D01*
X019054Y015524D01*
X019054Y015684D02*
X017595Y015684D01*
X017540Y015536D02*
X017431Y015491D01*
X017347Y015407D01*
X017302Y015298D01*
X017302Y015180D01*
X017347Y015070D01*
X017431Y014987D01*
X017540Y014942D01*
X017658Y014942D01*
X017768Y014987D01*
X017851Y015070D01*
X017896Y015180D01*
X017896Y015298D01*
X017851Y015407D01*
X017768Y015491D01*
X017658Y015536D01*
X017540Y015536D01*
X017477Y015565D02*
X018010Y015565D01*
X017973Y015544D01*
X017944Y015514D01*
X017923Y015478D01*
X017912Y015437D01*
X017912Y015257D01*
X018250Y015257D01*
X018250Y015576D01*
X018051Y015576D01*
X018010Y015565D01*
X017914Y015447D02*
X017812Y015447D01*
X017884Y015328D02*
X017912Y015328D01*
X017896Y015210D02*
X018250Y015210D01*
X018327Y015257D02*
X018327Y015576D01*
X018526Y015576D01*
X018566Y015565D01*
X018662Y015447D02*
X020972Y015447D01*
X021091Y015565D02*
X019727Y015565D01*
X019727Y015684D02*
X022370Y015684D01*
X022671Y015447D02*
X027685Y015447D01*
X027685Y015453D02*
X027685Y015286D01*
X027785Y015187D01*
X030609Y012362D01*
X030609Y012118D01*
X030679Y012048D01*
X032157Y012048D01*
X032227Y012118D01*
X032227Y012611D01*
X032157Y012682D01*
X030771Y012682D01*
X028025Y015427D01*
X028025Y015515D01*
X028034Y015524D01*
X028034Y016056D01*
X028025Y016065D01*
X028025Y016598D01*
X028184Y016664D01*
X028387Y016866D01*
X028496Y017131D01*
X028496Y017417D01*
X028387Y017682D01*
X028184Y017885D01*
X027920Y017994D01*
X027633Y017994D01*
X027369Y017885D01*
X027166Y017682D01*
X027056Y017417D01*
X027056Y017131D01*
X027166Y016866D01*
X027369Y016664D01*
X027633Y016554D01*
X027685Y016554D01*
X027685Y016126D01*
X027471Y016126D01*
X027400Y016056D01*
X027400Y015524D01*
X027471Y015453D01*
X027685Y015453D01*
X027685Y015328D02*
X025055Y015328D01*
X025051Y015340D02*
X025030Y015376D01*
X025001Y015406D01*
X024964Y015427D01*
X024923Y015438D01*
X024724Y015438D01*
X024724Y015120D01*
X025062Y015120D01*
X025062Y015299D01*
X025051Y015340D01*
X025062Y015210D02*
X027762Y015210D01*
X027881Y015091D02*
X024724Y015091D01*
X024647Y015091D02*
X024235Y015091D01*
X024309Y015120D02*
X024309Y015299D01*
X024320Y015340D01*
X024341Y015376D01*
X024371Y015406D01*
X024408Y015427D01*
X024448Y015438D01*
X024647Y015438D01*
X024647Y015120D01*
X024309Y015120D01*
X024309Y015210D02*
X024235Y015210D01*
X024235Y015328D02*
X024317Y015328D01*
X024647Y015328D02*
X024724Y015328D01*
X024724Y015210D02*
X024647Y015210D01*
X024309Y014973D02*
X024235Y014973D01*
X024235Y014854D02*
X024312Y014854D01*
X024407Y014736D02*
X023537Y014736D01*
X023354Y014736D02*
X023340Y014736D01*
X023236Y015020D02*
X022886Y015369D01*
X023046Y015210D02*
X023562Y015210D01*
X023533Y015173D02*
X023359Y015173D01*
X023236Y015050D01*
X023236Y015020D01*
X023277Y015091D02*
X023165Y015091D01*
X022921Y014854D02*
X022868Y014854D01*
X022828Y014736D02*
X023000Y014736D01*
X023000Y014617D02*
X022828Y014617D01*
X022828Y014499D02*
X023000Y014499D01*
X023000Y014380D02*
X022828Y014380D01*
X022828Y014262D02*
X023000Y014262D01*
X023080Y014143D02*
X022892Y014143D01*
X023011Y014025D02*
X023199Y014025D01*
X023129Y013906D02*
X023317Y013906D01*
X023248Y013788D02*
X023436Y013788D01*
X023366Y013669D02*
X023554Y013669D01*
X023485Y013551D02*
X023673Y013551D01*
X023603Y013432D02*
X023791Y013432D01*
X023722Y013314D02*
X023910Y013314D01*
X023840Y013195D02*
X024028Y013195D01*
X023959Y013077D02*
X024147Y013077D01*
X024077Y012958D02*
X024265Y012958D01*
X024167Y012840D02*
X024384Y012840D01*
X024207Y012721D02*
X025863Y012721D01*
X026067Y012721D02*
X027521Y012721D01*
X027524Y012730D02*
X027479Y012621D01*
X027479Y012502D01*
X027524Y012393D01*
X027608Y012310D01*
X027717Y012264D01*
X027835Y012264D01*
X027945Y012310D01*
X028028Y012393D01*
X028074Y012502D01*
X028074Y012621D01*
X028028Y012730D01*
X027945Y012813D01*
X027835Y012859D01*
X027717Y012859D01*
X027608Y012813D01*
X027524Y012730D01*
X027479Y012603D02*
X024207Y012603D01*
X024098Y012484D02*
X027487Y012484D01*
X027552Y012366D02*
X023704Y012366D01*
X023704Y012405D02*
X023386Y012405D01*
X023386Y012482D01*
X023704Y012482D01*
X023704Y012681D01*
X023693Y012722D01*
X023672Y012758D01*
X023642Y012788D01*
X023606Y012809D01*
X023565Y012820D01*
X023386Y012820D01*
X023386Y012482D01*
X023309Y012482D01*
X023309Y012820D01*
X023129Y012820D01*
X023089Y012809D01*
X023052Y012788D01*
X023022Y012758D01*
X023001Y012722D01*
X022995Y012698D01*
X022995Y012710D01*
X022925Y012780D01*
X022431Y012780D01*
X022422Y012771D01*
X022413Y012780D01*
X021920Y012780D01*
X021849Y012710D01*
X021849Y012177D01*
X021920Y012107D01*
X022413Y012107D01*
X022422Y012116D01*
X022431Y012107D01*
X022925Y012107D01*
X022995Y012177D01*
X022995Y012189D01*
X023001Y012165D01*
X023022Y012129D01*
X023052Y012099D01*
X023089Y012078D01*
X023129Y012067D01*
X023309Y012067D01*
X023309Y012405D01*
X023386Y012405D01*
X023386Y012067D01*
X023565Y012067D01*
X023606Y012078D01*
X023642Y012099D01*
X023672Y012129D01*
X023693Y012165D01*
X023704Y012206D01*
X023704Y012405D01*
X023704Y012484D02*
X023896Y012484D01*
X023787Y012603D02*
X023704Y012603D01*
X023693Y012721D02*
X023787Y012721D01*
X023715Y012840D02*
X022800Y012840D01*
X022868Y012958D02*
X023596Y012958D01*
X023478Y013077D02*
X022868Y013077D01*
X022828Y013195D02*
X023359Y013195D01*
X023241Y013314D02*
X022828Y013314D01*
X022828Y013432D02*
X023122Y013432D01*
X023004Y013551D02*
X022737Y013551D01*
X022618Y013669D02*
X022885Y013669D01*
X022767Y013788D02*
X022500Y013788D01*
X022381Y013906D02*
X022648Y013906D01*
X022530Y014025D02*
X022263Y014025D01*
X021726Y013490D02*
X021544Y013490D01*
X021415Y013361D01*
X021415Y013179D01*
X021465Y013129D01*
X021465Y012780D01*
X021250Y012780D01*
X021180Y012710D01*
X021180Y012177D01*
X021250Y012107D01*
X021743Y012107D01*
X021814Y012177D01*
X021814Y012710D01*
X021805Y012719D01*
X021805Y013129D01*
X021855Y013179D01*
X021855Y013361D01*
X021726Y013490D01*
X021784Y013432D02*
X021980Y013432D01*
X022099Y013314D02*
X021855Y013314D01*
X021855Y013195D02*
X022217Y013195D01*
X022279Y013077D02*
X021805Y013077D01*
X021805Y012958D02*
X022448Y012958D01*
X022516Y012840D02*
X021805Y012840D01*
X021805Y012721D02*
X021861Y012721D01*
X021849Y012603D02*
X021814Y012603D01*
X021814Y012484D02*
X021849Y012484D01*
X021849Y012366D02*
X021814Y012366D01*
X021814Y012247D02*
X021849Y012247D01*
X021898Y012129D02*
X021765Y012129D01*
X021443Y011773D02*
X025926Y011773D01*
X025905Y011765D02*
X025739Y011598D01*
X025648Y011380D01*
X025648Y011145D01*
X025739Y010927D01*
X025905Y010760D01*
X026123Y010670D01*
X026359Y010670D01*
X026577Y010760D01*
X026743Y010927D01*
X026833Y011145D01*
X026833Y011380D01*
X026743Y011598D01*
X026577Y011765D01*
X026359Y011855D01*
X026123Y011855D01*
X025905Y011765D01*
X025795Y011655D02*
X021562Y011655D01*
X021325Y011892D02*
X034403Y011892D01*
X034322Y011855D02*
X034392Y011785D01*
X034392Y011095D01*
X034322Y011024D01*
X032884Y011024D01*
X032814Y011095D01*
X032814Y011785D01*
X032884Y011855D01*
X034322Y011855D01*
X034392Y011773D02*
X034403Y011773D01*
X034392Y011655D02*
X034403Y011655D01*
X034392Y011536D02*
X034403Y011536D01*
X034392Y011418D02*
X034403Y011418D01*
X034392Y011299D02*
X034403Y011299D01*
X034392Y011181D02*
X034403Y011181D01*
X034403Y011062D02*
X034360Y011062D01*
X034403Y010944D02*
X026750Y010944D01*
X026799Y011062D02*
X032846Y011062D01*
X032814Y011181D02*
X026833Y011181D01*
X026833Y011299D02*
X032814Y011299D01*
X032814Y011418D02*
X026818Y011418D01*
X026769Y011536D02*
X032814Y011536D01*
X032814Y011655D02*
X026687Y011655D01*
X026556Y011773D02*
X032814Y011773D01*
X032227Y012129D02*
X034403Y012129D01*
X034403Y012247D02*
X032227Y012247D01*
X032227Y012366D02*
X034403Y012366D01*
X034403Y012484D02*
X032227Y012484D01*
X032227Y012603D02*
X034403Y012603D01*
X034403Y012721D02*
X030731Y012721D01*
X030708Y012795D02*
X031380Y012795D01*
X031380Y013114D01*
X031457Y013114D01*
X031457Y013191D01*
X031380Y013191D01*
X031380Y013509D01*
X030708Y013509D01*
X030667Y013498D01*
X030631Y013477D01*
X030601Y013447D01*
X030580Y013411D01*
X030569Y013370D01*
X030569Y013191D01*
X031380Y013191D01*
X031380Y013114D01*
X030569Y013114D01*
X030569Y012934D01*
X030580Y012894D01*
X030601Y012857D01*
X030631Y012827D01*
X030667Y012806D01*
X030708Y012795D01*
X030619Y012840D02*
X030613Y012840D01*
X030569Y012958D02*
X030494Y012958D01*
X030569Y013077D02*
X030376Y013077D01*
X030257Y013195D02*
X030569Y013195D01*
X030569Y013314D02*
X030139Y013314D01*
X030020Y013432D02*
X030592Y013432D01*
X029902Y013551D02*
X034403Y013551D01*
X034403Y013669D02*
X034329Y013669D01*
X034322Y013662D02*
X034392Y013732D01*
X034392Y014422D01*
X034322Y014493D01*
X032884Y014493D01*
X032814Y014422D01*
X032814Y013732D01*
X032884Y013662D01*
X034322Y013662D01*
X034392Y013788D02*
X034403Y013788D01*
X034392Y013906D02*
X034403Y013906D01*
X034392Y014025D02*
X034403Y014025D01*
X034392Y014143D02*
X034403Y014143D01*
X034392Y014262D02*
X034403Y014262D01*
X034392Y014380D02*
X034403Y014380D01*
X034403Y014499D02*
X028954Y014499D01*
X028835Y014617D02*
X034403Y014617D01*
X034403Y014736D02*
X028717Y014736D01*
X028598Y014854D02*
X034403Y014854D01*
X034403Y014973D02*
X028480Y014973D01*
X028361Y015091D02*
X034403Y015091D01*
X034403Y015210D02*
X028243Y015210D01*
X028124Y015328D02*
X034403Y015328D01*
X034403Y015447D02*
X028025Y015447D01*
X028034Y015565D02*
X034403Y015565D01*
X034435Y015684D02*
X028034Y015684D01*
X028034Y015802D02*
X034500Y015802D01*
X034619Y015921D02*
X028034Y015921D01*
X028034Y016039D02*
X034737Y016039D01*
X034856Y016158D02*
X028025Y016158D01*
X028025Y016276D02*
X033498Y016276D01*
X033693Y016200D02*
X033693Y016200D01*
X034204Y016161D02*
X034204Y016161D01*
X034704Y016275D02*
X034704Y016275D01*
X034705Y016276D02*
X034974Y016276D01*
X034910Y016395D02*
X035093Y016395D01*
X035116Y016513D02*
X035211Y016513D01*
X035148Y016532D02*
X035148Y016532D01*
X035241Y016632D02*
X035330Y016632D01*
X035350Y016750D02*
X035448Y016750D01*
X035460Y016869D02*
X035567Y016869D01*
X035497Y016908D02*
X035497Y016908D01*
X035535Y016987D02*
X035584Y016987D01*
X033216Y016387D02*
X033216Y016387D01*
X033206Y016395D02*
X028025Y016395D01*
X028025Y016513D02*
X033058Y016513D01*
X032909Y016632D02*
X029957Y016632D01*
X030035Y016664D02*
X030237Y016866D01*
X030347Y017131D01*
X030347Y017417D01*
X030237Y017682D01*
X030035Y017885D01*
X029770Y017994D01*
X029484Y017994D01*
X029219Y017885D01*
X029016Y017682D01*
X028907Y017417D01*
X028907Y017131D01*
X029016Y016866D01*
X029219Y016664D01*
X029484Y016554D01*
X029770Y016554D01*
X030035Y016664D01*
X030121Y016750D02*
X032785Y016750D01*
X032815Y016707D02*
X032815Y016707D01*
X032704Y016869D02*
X030238Y016869D01*
X030287Y016987D02*
X032624Y016987D01*
X032543Y017106D02*
X030336Y017106D01*
X030347Y017224D02*
X032497Y017224D01*
X032526Y017130D02*
X032526Y017130D01*
X032460Y017343D02*
X030347Y017343D01*
X030329Y017461D02*
X032424Y017461D01*
X032387Y017580D02*
X030280Y017580D01*
X030221Y017698D02*
X032375Y017698D01*
X032375Y017817D02*
X030103Y017817D01*
X029913Y017935D02*
X032375Y017935D01*
X032375Y018054D02*
X023825Y018054D01*
X023841Y018093D02*
X023751Y017876D01*
X023584Y017709D01*
X023367Y017619D01*
X023131Y017619D01*
X022913Y017709D01*
X022747Y017876D01*
X022656Y018093D01*
X022656Y018329D01*
X022747Y018547D01*
X022913Y018713D01*
X023131Y018804D01*
X023367Y018804D01*
X023584Y018713D01*
X023751Y018547D01*
X023841Y018329D01*
X023841Y018093D01*
X023841Y018172D02*
X032387Y018172D01*
X032423Y018291D02*
X023841Y018291D01*
X023808Y018409D02*
X032460Y018409D01*
X032497Y018528D02*
X023759Y018528D01*
X023652Y018646D02*
X032542Y018646D01*
X032623Y018765D02*
X023461Y018765D01*
X023036Y018765D02*
X019199Y018765D01*
X019204Y018724D02*
X019193Y018813D01*
X019167Y018909D01*
X019129Y019001D01*
X019079Y019087D01*
X019018Y019166D01*
X018948Y019237D01*
X018869Y019297D01*
X018783Y019347D01*
X018690Y019385D01*
X018594Y019411D01*
X018506Y019423D01*
X018506Y018724D01*
X019204Y018724D01*
X019204Y018604D02*
X018506Y018604D01*
X018506Y018724D01*
X018386Y018724D01*
X018386Y019423D01*
X018297Y019411D01*
X018201Y019385D01*
X018109Y019347D01*
X018023Y019297D01*
X017943Y019237D01*
X017873Y019166D01*
X017812Y019087D01*
X017763Y019001D01*
X017724Y018909D01*
X017699Y018813D01*
X017687Y018724D01*
X018386Y018724D01*
X018386Y018604D01*
X018506Y018604D01*
X018506Y017905D01*
X018594Y017917D01*
X018690Y017943D01*
X018783Y017981D01*
X018869Y018031D01*
X018948Y018091D01*
X019018Y018162D01*
X019079Y018241D01*
X019129Y018327D01*
X019167Y018419D01*
X019193Y018515D01*
X019204Y018604D01*
X019194Y018528D02*
X022739Y018528D01*
X022689Y018409D02*
X019163Y018409D01*
X019108Y018291D02*
X022656Y018291D01*
X022656Y018172D02*
X020514Y018172D01*
X020439Y018203D02*
X020153Y018203D01*
X019888Y018093D01*
X019686Y017891D01*
X019576Y017626D01*
X019576Y017340D01*
X019686Y017075D01*
X019888Y016872D01*
X020153Y016763D01*
X020439Y016763D01*
X020704Y016872D01*
X020906Y017075D01*
X021016Y017340D01*
X021016Y017626D01*
X020906Y017891D01*
X020704Y018093D01*
X020439Y018203D01*
X020744Y018054D02*
X022673Y018054D01*
X022722Y017935D02*
X020862Y017935D01*
X020937Y017817D02*
X022806Y017817D01*
X022939Y017698D02*
X020986Y017698D01*
X021016Y017580D02*
X025230Y017580D01*
X025243Y017611D02*
X025205Y017519D01*
X025179Y017423D01*
X025167Y017334D01*
X025866Y017334D01*
X025866Y017214D01*
X025986Y017214D01*
X025986Y016516D01*
X026075Y016527D01*
X026171Y016553D01*
X026263Y016591D01*
X026349Y016641D01*
X026428Y016702D01*
X026499Y016772D01*
X026559Y016851D01*
X026609Y016937D01*
X026647Y017029D01*
X026673Y017126D01*
X026685Y017214D01*
X025986Y017214D01*
X025986Y017334D01*
X026685Y017334D01*
X026673Y017423D01*
X026647Y017519D01*
X026609Y017611D01*
X026559Y017697D01*
X026499Y017776D01*
X026428Y017847D01*
X026349Y017907D01*
X026263Y017957D01*
X026171Y017995D01*
X026075Y018021D01*
X025986Y018033D01*
X025986Y017334D01*
X025866Y017334D01*
X025866Y018033D01*
X025777Y018021D01*
X025681Y017995D01*
X025589Y017957D01*
X025503Y017907D01*
X025424Y017847D01*
X025353Y017776D01*
X025293Y017697D01*
X025243Y017611D01*
X025293Y017698D02*
X023558Y017698D01*
X023692Y017817D02*
X025394Y017817D01*
X025551Y017935D02*
X023776Y017935D01*
X022846Y018646D02*
X018506Y018646D01*
X018506Y018528D02*
X018386Y018528D01*
X018386Y018604D02*
X018386Y017905D01*
X018297Y017917D01*
X018201Y017943D01*
X018109Y017981D01*
X018023Y018031D01*
X017943Y018091D01*
X017873Y018162D01*
X017812Y018241D01*
X017763Y018327D01*
X017724Y018419D01*
X017699Y018515D01*
X017687Y018604D01*
X018386Y018604D01*
X018386Y018646D02*
X007053Y018646D01*
X007019Y018565D02*
X007109Y018782D01*
X007109Y019018D01*
X007019Y019236D01*
X006852Y019402D01*
X006634Y019493D01*
X006399Y019493D01*
X006181Y019402D01*
X006014Y019236D01*
X005924Y019018D01*
X005924Y018782D01*
X006014Y018565D01*
X006181Y018398D01*
X006399Y018308D01*
X006634Y018308D01*
X006852Y018398D01*
X007019Y018565D01*
X006982Y018528D02*
X017697Y018528D01*
X017729Y018409D02*
X006863Y018409D01*
X006170Y018409D02*
X004211Y018409D01*
X004223Y018384D02*
X004223Y018384D01*
X004237Y018291D02*
X017784Y018291D01*
X017865Y018172D02*
X004255Y018172D01*
X004273Y018054D02*
X017993Y018054D01*
X018230Y017935D02*
X004291Y017935D01*
X004300Y017877D02*
X004300Y017877D01*
X004290Y017817D02*
X019655Y017817D01*
X019606Y017698D02*
X004273Y017698D01*
X004255Y017580D02*
X019576Y017580D01*
X019576Y017461D02*
X004237Y017461D01*
X004210Y017343D02*
X008934Y017343D01*
X008989Y017398D02*
X008866Y017275D01*
X008866Y017101D01*
X008989Y016978D01*
X009163Y016978D01*
X009286Y017101D01*
X009286Y017275D01*
X009163Y017398D01*
X008989Y017398D01*
X008866Y017224D02*
X006580Y017224D01*
X006589Y017215D02*
X006466Y017339D01*
X006292Y017339D01*
X006169Y017215D01*
X006169Y017042D01*
X006292Y016919D01*
X006466Y016919D01*
X006589Y017042D01*
X006589Y017215D01*
X006589Y017106D02*
X008866Y017106D01*
X008979Y016987D02*
X006534Y016987D01*
X006223Y016987D02*
X004039Y016987D01*
X004001Y016908D02*
X004001Y016908D01*
X003964Y016869D02*
X019898Y016869D01*
X019774Y016987D02*
X009172Y016987D01*
X009286Y017106D02*
X019673Y017106D01*
X019624Y017224D02*
X009286Y017224D01*
X009218Y017343D02*
X019576Y017343D01*
X019730Y017935D02*
X018662Y017935D01*
X018506Y017935D02*
X018386Y017935D01*
X018386Y018054D02*
X018506Y018054D01*
X018506Y018172D02*
X018386Y018172D01*
X018386Y018291D02*
X018506Y018291D01*
X018506Y018409D02*
X018386Y018409D01*
X018386Y018765D02*
X018506Y018765D01*
X018506Y018883D02*
X018386Y018883D01*
X018386Y019002D02*
X018506Y019002D01*
X018506Y019120D02*
X018386Y019120D01*
X018386Y019239D02*
X018506Y019239D01*
X018506Y019357D02*
X018386Y019357D01*
X018133Y019357D02*
X008174Y019357D01*
X008192Y019314D02*
X008146Y019423D01*
X008063Y019506D01*
X007954Y019552D01*
X007835Y019552D01*
X007726Y019506D01*
X007643Y019423D01*
X007597Y019314D01*
X007597Y019195D01*
X007643Y019086D01*
X007726Y019003D01*
X007835Y018957D01*
X007954Y018957D01*
X008063Y019003D01*
X008146Y019086D01*
X008192Y019195D01*
X008192Y019314D01*
X008192Y019239D02*
X017946Y019239D01*
X017838Y019120D02*
X008160Y019120D01*
X008060Y019002D02*
X017763Y019002D01*
X017718Y018883D02*
X007109Y018883D01*
X007109Y019002D02*
X007729Y019002D01*
X007629Y019120D02*
X007067Y019120D01*
X007016Y019239D02*
X007597Y019239D01*
X007615Y019357D02*
X007181Y019357D01*
X007166Y019351D02*
X007275Y019396D01*
X007359Y019480D01*
X007404Y019589D01*
X007404Y019707D01*
X007359Y019817D01*
X007275Y019900D01*
X007166Y019945D01*
X007048Y019945D01*
X006939Y019900D01*
X006855Y019817D01*
X006810Y019707D01*
X006810Y019589D01*
X006855Y019480D01*
X006939Y019396D01*
X007048Y019351D01*
X007166Y019351D01*
X007033Y019357D02*
X006898Y019357D01*
X006859Y019476D02*
X006676Y019476D01*
X006810Y019594D02*
X001071Y019594D01*
X001071Y019476D02*
X001998Y019476D01*
X001708Y019357D02*
X001504Y019357D01*
X001293Y019357D02*
X001071Y019357D01*
X001071Y019239D02*
X001131Y019239D01*
X001082Y019120D02*
X001071Y019120D01*
X001071Y019002D02*
X001082Y019002D01*
X001071Y018883D02*
X001128Y018883D01*
X001126Y018765D02*
X001071Y018765D01*
X001071Y019713D02*
X006812Y019713D01*
X006870Y019831D02*
X001071Y019831D01*
X001071Y019950D02*
X002738Y019950D01*
X002715Y019972D02*
X002786Y019902D01*
X003279Y019902D01*
X003349Y019972D01*
X003349Y020505D01*
X003279Y020575D01*
X003202Y020575D01*
X003202Y020761D01*
X003282Y020841D01*
X003282Y021015D01*
X003159Y021138D01*
X002985Y021138D01*
X002862Y021015D01*
X002862Y020841D01*
X002862Y020840D01*
X002862Y020575D01*
X002786Y020575D01*
X002715Y020505D01*
X002715Y019972D01*
X002715Y020068D02*
X001071Y020068D01*
X001071Y020187D02*
X002715Y020187D01*
X002715Y020305D02*
X001071Y020305D01*
X001071Y020424D02*
X002715Y020424D01*
X002752Y020542D02*
X001071Y020542D01*
X001071Y020661D02*
X002862Y020661D01*
X002862Y020779D02*
X001071Y020779D01*
X001071Y020898D02*
X002862Y020898D01*
X002863Y021016D02*
X001071Y021016D01*
X001071Y021135D02*
X002981Y021135D01*
X003162Y021135D02*
X005344Y021135D01*
X005347Y021138D02*
X005224Y021015D01*
X005224Y020841D01*
X005303Y020761D01*
X005303Y020575D01*
X005227Y020575D01*
X005156Y020505D01*
X005156Y019972D01*
X005227Y019902D01*
X005720Y019902D01*
X005790Y019972D01*
X005790Y020505D01*
X005720Y020575D01*
X005643Y020575D01*
X005643Y020840D01*
X005644Y020841D01*
X005644Y021015D01*
X005521Y021138D01*
X005347Y021138D01*
X005225Y021016D02*
X003280Y021016D01*
X003282Y020898D02*
X005224Y020898D01*
X005286Y020779D02*
X003220Y020779D01*
X003202Y020661D02*
X005303Y020661D01*
X005193Y020542D02*
X005084Y020542D01*
X005050Y020575D02*
X005121Y020505D01*
X005121Y019972D01*
X005050Y019902D01*
X004557Y019902D01*
X004487Y019972D01*
X004487Y020069D01*
X004374Y020069D01*
X004338Y020033D01*
X004167Y020033D01*
X004131Y020069D01*
X004018Y020069D01*
X004018Y019972D01*
X003948Y019902D01*
X003455Y019902D01*
X003385Y019972D01*
X003385Y020505D01*
X003455Y020575D01*
X003948Y020575D01*
X004018Y020505D01*
X004018Y020409D01*
X004131Y020409D01*
X004167Y020445D01*
X004338Y020445D01*
X004374Y020409D01*
X004487Y020409D01*
X004487Y020505D01*
X004557Y020575D01*
X005050Y020575D01*
X005121Y020424D02*
X005156Y020424D01*
X005156Y020305D02*
X005121Y020305D01*
X005121Y020187D02*
X005156Y020187D01*
X005156Y020068D02*
X005121Y020068D01*
X005098Y019950D02*
X005179Y019950D01*
X005767Y019950D02*
X019543Y019950D01*
X019549Y019994D02*
X019537Y019905D01*
X020236Y019905D01*
X020236Y019785D01*
X019537Y019785D01*
X019549Y019696D01*
X019575Y019600D01*
X019613Y019508D01*
X019663Y019422D01*
X019723Y019343D01*
X019794Y019272D01*
X019873Y019212D01*
X019959Y019162D01*
X020051Y019124D01*
X020147Y019098D01*
X020236Y019086D01*
X020236Y019785D01*
X020356Y019785D01*
X020356Y019086D01*
X020445Y019098D01*
X020541Y019124D01*
X020633Y019162D01*
X020719Y019212D01*
X020798Y019272D01*
X020869Y019343D01*
X020929Y019422D01*
X020979Y019508D01*
X021017Y019600D01*
X021043Y019696D01*
X021055Y019785D01*
X020356Y019785D01*
X020356Y019905D01*
X020236Y019905D01*
X020236Y020604D01*
X020147Y020592D01*
X020051Y020566D01*
X019959Y020528D01*
X019873Y020478D01*
X019794Y020418D01*
X019723Y020347D01*
X019663Y020268D01*
X019613Y020182D01*
X019575Y020090D01*
X019549Y019994D01*
X019569Y020068D02*
X005790Y020068D01*
X005790Y020187D02*
X019616Y020187D01*
X019691Y020305D02*
X005790Y020305D01*
X005790Y020424D02*
X019802Y020424D01*
X019993Y020542D02*
X005753Y020542D01*
X005643Y020661D02*
X024663Y020661D01*
X024650Y020674D02*
X024825Y020498D01*
X025054Y020404D01*
X025302Y020404D01*
X025531Y020498D01*
X025706Y020674D01*
X025800Y020902D01*
X025800Y021150D01*
X025706Y021379D01*
X025531Y021554D01*
X025302Y021649D01*
X025054Y021649D01*
X024825Y021554D01*
X024650Y021379D01*
X024555Y021150D01*
X024555Y020902D01*
X024650Y020674D01*
X024607Y020779D02*
X005643Y020779D01*
X005644Y020898D02*
X024557Y020898D01*
X024555Y021016D02*
X005643Y021016D01*
X005524Y021135D02*
X024555Y021135D01*
X024598Y021253D02*
X001071Y021253D01*
X001071Y021372D02*
X024647Y021372D01*
X024762Y021490D02*
X001071Y021490D01*
X001071Y021609D02*
X024957Y021609D01*
X025399Y021609D02*
X030154Y021609D01*
X030251Y021649D02*
X030022Y021554D01*
X029847Y021379D01*
X029752Y021150D01*
X029752Y020902D01*
X029847Y020674D01*
X030022Y020498D01*
X030251Y020404D01*
X030499Y020404D01*
X030727Y020498D01*
X030903Y020674D01*
X030997Y020902D01*
X030997Y021150D01*
X030903Y021379D01*
X030727Y021554D01*
X030499Y021649D01*
X030251Y021649D01*
X029958Y021490D02*
X025594Y021490D01*
X025709Y021372D02*
X029844Y021372D01*
X029795Y021253D02*
X025758Y021253D01*
X025800Y021135D02*
X029752Y021135D01*
X029752Y021016D02*
X025800Y021016D01*
X025798Y020898D02*
X029754Y020898D01*
X029803Y020779D02*
X025749Y020779D01*
X025693Y020661D02*
X029860Y020661D01*
X029979Y020542D02*
X025574Y020542D01*
X025350Y020424D02*
X030203Y020424D01*
X030547Y020424D02*
X033478Y020424D01*
X033489Y020390D02*
X033459Y020484D01*
X033445Y020572D01*
X034016Y020572D01*
X034136Y020572D01*
X034136Y020692D01*
X034706Y020692D01*
X034693Y020781D01*
X034662Y020875D01*
X034617Y020964D01*
X034558Y021044D01*
X034488Y021115D01*
X034407Y021173D01*
X034318Y021219D01*
X034224Y021249D01*
X034136Y021263D01*
X034136Y020692D01*
X034016Y020692D01*
X034016Y020572D01*
X034016Y020002D01*
X033927Y020016D01*
X033833Y020046D01*
X033744Y020091D01*
X033664Y020150D01*
X033593Y020220D01*
X033535Y020301D01*
X033489Y020390D01*
X033533Y020305D02*
X020901Y020305D01*
X020929Y020268D02*
X020869Y020347D01*
X020798Y020418D01*
X020719Y020478D01*
X020633Y020528D01*
X020541Y020566D01*
X020445Y020592D01*
X020356Y020604D01*
X020356Y019905D01*
X021055Y019905D01*
X021043Y019994D01*
X021017Y020090D01*
X020979Y020182D01*
X020929Y020268D01*
X020976Y020187D02*
X033627Y020187D01*
X033790Y020068D02*
X021023Y020068D01*
X021049Y019950D02*
X035584Y019950D01*
X035584Y020068D02*
X034361Y020068D01*
X034318Y020046D02*
X034407Y020091D01*
X034488Y020150D01*
X034558Y020220D01*
X034617Y020301D01*
X034662Y020390D01*
X034693Y020484D01*
X034706Y020572D01*
X034136Y020572D01*
X034136Y020002D01*
X034224Y020016D01*
X034318Y020046D01*
X034136Y020068D02*
X034016Y020068D01*
X034016Y020187D02*
X034136Y020187D01*
X034136Y020305D02*
X034016Y020305D01*
X034016Y020424D02*
X034136Y020424D01*
X034136Y020542D02*
X034016Y020542D01*
X034016Y020661D02*
X030890Y020661D01*
X030946Y020779D02*
X033458Y020779D01*
X033459Y020781D02*
X033445Y020692D01*
X034016Y020692D01*
X034016Y021263D01*
X033927Y021249D01*
X033833Y021219D01*
X033744Y021173D01*
X033664Y021115D01*
X033593Y021044D01*
X033535Y020964D01*
X033489Y020875D01*
X033459Y020781D01*
X033501Y020898D02*
X030995Y020898D01*
X030997Y021016D02*
X033572Y021016D01*
X033691Y021135D02*
X030997Y021135D01*
X030955Y021253D02*
X033951Y021253D01*
X034016Y021253D02*
X034136Y021253D01*
X034200Y021253D02*
X035584Y021253D01*
X035584Y021135D02*
X034461Y021135D01*
X034579Y021016D02*
X035584Y021016D01*
X035584Y020898D02*
X034650Y020898D01*
X034693Y020779D02*
X035584Y020779D01*
X035584Y020661D02*
X034136Y020661D01*
X034136Y020779D02*
X034016Y020779D01*
X034016Y020898D02*
X034136Y020898D01*
X034136Y021016D02*
X034016Y021016D01*
X034016Y021135D02*
X034136Y021135D01*
X034702Y020542D02*
X035584Y020542D01*
X035584Y020424D02*
X034673Y020424D01*
X034619Y020305D02*
X035584Y020305D01*
X035584Y020187D02*
X034524Y020187D01*
X034204Y019592D02*
X034204Y019592D01*
X034704Y019478D02*
X034704Y019478D01*
X034708Y019476D02*
X035584Y019476D01*
X035584Y019594D02*
X021015Y019594D01*
X021045Y019713D02*
X035584Y019713D01*
X035584Y019831D02*
X020356Y019831D01*
X020356Y019713D02*
X020236Y019713D01*
X020236Y019831D02*
X007344Y019831D01*
X007402Y019713D02*
X019547Y019713D01*
X019577Y019594D02*
X007404Y019594D01*
X007355Y019476D02*
X007695Y019476D01*
X008094Y019476D02*
X019632Y019476D01*
X019713Y019357D02*
X018758Y019357D01*
X018945Y019239D02*
X019838Y019239D01*
X020065Y019120D02*
X019054Y019120D01*
X019128Y019002D02*
X032784Y019002D01*
X032815Y019046D02*
X032815Y019046D01*
X032907Y019120D02*
X020527Y019120D01*
X020356Y019120D02*
X020236Y019120D01*
X020236Y019239D02*
X020356Y019239D01*
X020356Y019357D02*
X020236Y019357D01*
X020236Y019476D02*
X020356Y019476D01*
X020356Y019594D02*
X020236Y019594D01*
X020236Y019950D02*
X020356Y019950D01*
X020356Y020068D02*
X020236Y020068D01*
X020236Y020187D02*
X020356Y020187D01*
X020356Y020305D02*
X020236Y020305D01*
X020236Y020424D02*
X020356Y020424D01*
X020356Y020542D02*
X020236Y020542D01*
X020599Y020542D02*
X024782Y020542D01*
X025006Y020424D02*
X020791Y020424D01*
X020960Y019476D02*
X033494Y019476D01*
X033216Y019366D02*
X033216Y019366D01*
X033204Y019357D02*
X020880Y019357D01*
X020754Y019239D02*
X033056Y019239D01*
X032703Y018883D02*
X019174Y018883D01*
X019026Y018172D02*
X020078Y018172D01*
X019849Y018054D02*
X018899Y018054D01*
X017692Y018765D02*
X007102Y018765D01*
X006357Y019476D02*
X003212Y019476D01*
X003208Y019478D02*
X003208Y019478D01*
X003417Y019357D02*
X006135Y019357D01*
X006017Y019239D02*
X003622Y019239D01*
X003652Y019221D02*
X003652Y019221D01*
X003746Y019120D02*
X005966Y019120D01*
X005924Y019002D02*
X003856Y019002D01*
X003966Y018883D02*
X005924Y018883D01*
X005931Y018765D02*
X004040Y018765D01*
X004097Y018646D02*
X005980Y018646D01*
X006051Y018528D02*
X004154Y018528D01*
X002708Y019592D02*
X002708Y019592D01*
X003326Y019950D02*
X003408Y019950D01*
X003385Y020068D02*
X003349Y020068D01*
X003349Y020187D02*
X003385Y020187D01*
X003385Y020305D02*
X003349Y020305D01*
X003349Y020424D02*
X003385Y020424D01*
X003422Y020542D02*
X003312Y020542D01*
X003981Y020542D02*
X004524Y020542D01*
X004487Y020424D02*
X004359Y020424D01*
X004146Y020424D02*
X004018Y020424D01*
X004018Y020068D02*
X004132Y020068D01*
X003995Y019950D02*
X004510Y019950D01*
X004487Y020068D02*
X004373Y020068D01*
X001071Y021727D02*
X035584Y021727D01*
X035584Y021609D02*
X030595Y021609D01*
X030791Y021490D02*
X035584Y021490D01*
X035584Y021372D02*
X030906Y021372D01*
X030771Y020542D02*
X033450Y020542D01*
X034913Y019357D02*
X035152Y019357D01*
X035362Y019357D02*
X035584Y019357D01*
X035584Y019239D02*
X035524Y019239D01*
X035574Y019120D02*
X035584Y019120D01*
X035574Y019002D02*
X035584Y019002D01*
X035584Y018883D02*
X035527Y018883D01*
X035536Y018765D02*
X035584Y018765D01*
X029341Y017935D02*
X028062Y017935D01*
X028252Y017817D02*
X029151Y017817D01*
X029032Y017698D02*
X028371Y017698D01*
X028429Y017580D02*
X028974Y017580D01*
X028925Y017461D02*
X028478Y017461D01*
X028496Y017343D02*
X028907Y017343D01*
X028907Y017224D02*
X028496Y017224D01*
X028486Y017106D02*
X028917Y017106D01*
X028966Y016987D02*
X028437Y016987D01*
X028388Y016869D02*
X029015Y016869D01*
X029133Y016750D02*
X028270Y016750D01*
X028106Y016632D02*
X029297Y016632D01*
X027685Y016513D02*
X017272Y016513D01*
X017317Y016467D02*
X017194Y016590D01*
X017020Y016590D01*
X016984Y016555D01*
X016980Y016560D01*
X016487Y016560D01*
X016416Y016489D01*
X016416Y015957D01*
X016487Y015886D01*
X016980Y015886D01*
X017050Y015957D01*
X017050Y016170D01*
X017194Y016170D01*
X017317Y016293D01*
X017317Y016467D01*
X017317Y016395D02*
X027685Y016395D01*
X027685Y016276D02*
X017300Y016276D01*
X017050Y016158D02*
X027685Y016158D01*
X027400Y016039D02*
X027365Y016039D01*
X027365Y015921D02*
X027400Y015921D01*
X027400Y015802D02*
X027365Y015802D01*
X027365Y015684D02*
X027400Y015684D01*
X027400Y015565D02*
X027365Y015565D01*
X026731Y015565D02*
X025053Y015565D01*
X025073Y015684D02*
X026731Y015684D01*
X025866Y016516D02*
X025866Y017214D01*
X025167Y017214D01*
X025179Y017126D01*
X025205Y017029D01*
X025243Y016937D01*
X025293Y016851D01*
X025353Y016772D01*
X025424Y016702D01*
X025503Y016641D01*
X025589Y016591D01*
X025681Y016553D01*
X025777Y016527D01*
X025866Y016516D01*
X025866Y016632D02*
X025986Y016632D01*
X025986Y016750D02*
X025866Y016750D01*
X025866Y016869D02*
X025986Y016869D01*
X025986Y016987D02*
X025866Y016987D01*
X025866Y017106D02*
X025986Y017106D01*
X025986Y017224D02*
X027056Y017224D01*
X027056Y017343D02*
X026684Y017343D01*
X026663Y017461D02*
X027074Y017461D01*
X027124Y017580D02*
X026622Y017580D01*
X026559Y017698D02*
X027182Y017698D01*
X027301Y017817D02*
X026458Y017817D01*
X026301Y017935D02*
X027490Y017935D01*
X027067Y017106D02*
X026668Y017106D01*
X026630Y016987D02*
X027116Y016987D01*
X027165Y016869D02*
X026569Y016869D01*
X026477Y016750D02*
X027282Y016750D01*
X027446Y016632D02*
X026333Y016632D01*
X025866Y017224D02*
X020968Y017224D01*
X021016Y017343D02*
X025168Y017343D01*
X025189Y017461D02*
X021016Y017461D01*
X020919Y017106D02*
X025184Y017106D01*
X025222Y016987D02*
X020818Y016987D01*
X020694Y016869D02*
X025283Y016869D01*
X025375Y016750D02*
X003854Y016750D01*
X003744Y016632D02*
X025519Y016632D01*
X025866Y017343D02*
X025986Y017343D01*
X025986Y017461D02*
X025866Y017461D01*
X025866Y017580D02*
X025986Y017580D01*
X025986Y017698D02*
X025866Y017698D01*
X025866Y017817D02*
X025986Y017817D01*
X025986Y017935D02*
X025866Y017935D01*
X023562Y015328D02*
X023562Y015144D01*
X023533Y015173D01*
X024235Y014617D02*
X024349Y014617D01*
X024964Y014736D02*
X028236Y014736D01*
X028118Y014854D02*
X025060Y014854D01*
X025062Y014973D02*
X027999Y014973D01*
X028355Y014617D02*
X025022Y014617D01*
X025022Y014499D02*
X028473Y014499D01*
X028592Y014380D02*
X025022Y014380D01*
X025022Y014262D02*
X028710Y014262D01*
X028829Y014143D02*
X025000Y014143D01*
X024372Y014143D02*
X024213Y014143D01*
X023917Y013788D02*
X027235Y013788D01*
X027274Y013881D02*
X027184Y013664D01*
X027184Y013428D01*
X027274Y013210D01*
X027441Y013044D01*
X027659Y012953D01*
X027894Y012953D01*
X028112Y013044D01*
X028279Y013210D01*
X028369Y013428D01*
X028369Y013664D01*
X028279Y013881D01*
X028112Y014048D01*
X027894Y014138D01*
X027659Y014138D01*
X027441Y014048D01*
X027274Y013881D01*
X027299Y013906D02*
X023798Y013906D01*
X023680Y014025D02*
X027417Y014025D01*
X027186Y013669D02*
X024035Y013669D01*
X024154Y013551D02*
X027184Y013551D01*
X027184Y013432D02*
X024272Y013432D01*
X024391Y013314D02*
X027231Y013314D01*
X027289Y013195D02*
X024509Y013195D01*
X023386Y012721D02*
X023309Y012721D01*
X023309Y012603D02*
X023386Y012603D01*
X023386Y012484D02*
X023309Y012484D01*
X023309Y012366D02*
X023386Y012366D01*
X023386Y012247D02*
X023309Y012247D01*
X023309Y012129D02*
X023386Y012129D01*
X023672Y012129D02*
X030609Y012129D01*
X030609Y012247D02*
X023704Y012247D01*
X023023Y012129D02*
X022946Y012129D01*
X022983Y012721D02*
X023001Y012721D01*
X021465Y012840D02*
X021200Y012840D01*
X021252Y012861D02*
X021335Y012944D01*
X021381Y013054D01*
X021381Y013172D01*
X021335Y013281D01*
X021252Y013365D01*
X021143Y013410D01*
X021024Y013410D01*
X020915Y013365D01*
X020832Y013281D01*
X020786Y013172D01*
X020786Y013054D01*
X020832Y012944D01*
X020915Y012861D01*
X021024Y012816D01*
X021143Y012816D01*
X021252Y012861D01*
X021341Y012958D02*
X021465Y012958D01*
X021465Y013077D02*
X021381Y013077D01*
X021371Y013195D02*
X021415Y013195D01*
X021415Y013314D02*
X021303Y013314D01*
X021485Y013432D02*
X019916Y013432D01*
X019888Y013314D02*
X020864Y013314D01*
X020796Y013195D02*
X019713Y013195D01*
X019595Y013077D02*
X020786Y013077D01*
X020826Y012958D02*
X018507Y012958D01*
X018507Y012840D02*
X019617Y012840D01*
X019566Y012721D02*
X018460Y012721D01*
X018395Y012484D02*
X017506Y012484D01*
X017553Y012603D02*
X019566Y012603D01*
X020148Y012840D02*
X020286Y012840D01*
X020235Y012721D02*
X020200Y012721D01*
X020200Y012603D02*
X020235Y012603D01*
X020235Y012484D02*
X020200Y012484D01*
X020056Y012129D02*
X019688Y012129D01*
X019688Y012010D02*
X020174Y012010D01*
X020173Y011892D02*
X019638Y011892D01*
X020054Y011773D02*
X018412Y011773D01*
X018385Y012247D02*
X017326Y012247D01*
X017388Y012366D02*
X018385Y012366D01*
X017920Y012721D02*
X017791Y012721D01*
X017837Y012840D02*
X017873Y012840D01*
X017873Y012958D02*
X017837Y012958D01*
X017837Y013077D02*
X017873Y013077D01*
X017873Y013195D02*
X017837Y013195D01*
X017204Y013195D02*
X016343Y013195D01*
X016331Y013207D02*
X016221Y013252D01*
X016103Y013252D01*
X015994Y013207D01*
X015910Y013124D01*
X015865Y013014D01*
X015865Y012896D01*
X015910Y012787D01*
X015994Y012703D01*
X016103Y012658D01*
X016221Y012658D01*
X016331Y012703D01*
X016414Y012787D01*
X016459Y012896D01*
X016459Y013014D01*
X016414Y013124D01*
X016331Y013207D01*
X016434Y013077D02*
X017204Y013077D01*
X017204Y012958D02*
X016459Y012958D01*
X016436Y012840D02*
X017204Y012840D01*
X017204Y012768D02*
X017204Y013258D01*
X015581Y013258D01*
X015541Y013218D01*
X015367Y013218D01*
X015244Y013341D01*
X015244Y013494D01*
X014587Y013494D01*
X014642Y013439D01*
X014688Y013329D01*
X014688Y013211D01*
X014642Y013102D01*
X014559Y013018D01*
X014450Y012973D01*
X014331Y012973D01*
X014222Y013018D01*
X014139Y013102D01*
X014093Y013211D01*
X014093Y013329D01*
X014139Y013439D01*
X014194Y013494D01*
X013664Y013494D01*
X013664Y013280D01*
X013594Y013209D01*
X013582Y013209D01*
X013606Y013203D01*
X013642Y013182D01*
X013672Y013152D01*
X013693Y013115D01*
X013704Y013075D01*
X013704Y012895D01*
X013366Y012895D01*
X013366Y012818D01*
X013366Y012500D01*
X013565Y012500D01*
X013606Y012511D01*
X013642Y012532D01*
X013672Y012562D01*
X013693Y012598D01*
X013704Y012639D01*
X013704Y012818D01*
X013366Y012818D01*
X013289Y012818D01*
X013289Y012500D01*
X013090Y012500D01*
X013049Y012511D01*
X013013Y012532D01*
X012983Y012562D01*
X012962Y012598D01*
X012951Y012639D01*
X012951Y012818D01*
X013289Y012818D01*
X013289Y012895D01*
X012951Y012895D01*
X012951Y013075D01*
X012962Y013115D01*
X012983Y013152D01*
X013013Y013182D01*
X013049Y013203D01*
X013074Y013209D01*
X013061Y013209D01*
X012991Y013280D01*
X012991Y013284D01*
X012124Y012417D01*
X012155Y012417D01*
X012195Y012377D01*
X016936Y012377D01*
X016936Y012452D01*
X017059Y012575D01*
X017116Y012575D01*
X017213Y012671D01*
X017213Y012759D01*
X017204Y012768D01*
X017213Y012721D02*
X016348Y012721D01*
X015976Y012721D02*
X013704Y012721D01*
X013694Y012603D02*
X017144Y012603D01*
X016969Y012484D02*
X012191Y012484D01*
X012310Y012603D02*
X012961Y012603D01*
X012951Y012721D02*
X012428Y012721D01*
X012547Y012840D02*
X013289Y012840D01*
X013366Y012840D02*
X015888Y012840D01*
X015865Y012958D02*
X013704Y012958D01*
X013704Y013077D02*
X014164Y013077D01*
X014100Y013195D02*
X013619Y013195D01*
X013664Y013314D02*
X014093Y013314D01*
X014136Y013432D02*
X013664Y013432D01*
X013036Y013195D02*
X012902Y013195D01*
X012951Y013077D02*
X012784Y013077D01*
X012665Y012958D02*
X012951Y012958D01*
X013289Y012721D02*
X013366Y012721D01*
X013366Y012603D02*
X013289Y012603D01*
X012421Y013195D02*
X012169Y013195D01*
X012169Y013131D02*
X012169Y013311D01*
X012158Y013352D01*
X012137Y013388D01*
X012107Y013418D01*
X012070Y013439D01*
X012046Y013446D01*
X012058Y013446D01*
X012129Y013516D01*
X012129Y013730D01*
X012957Y013730D01*
X012169Y012942D01*
X012169Y013055D01*
X011831Y013055D01*
X011831Y013131D01*
X012169Y013131D01*
X012303Y013077D02*
X011831Y013077D01*
X011831Y013055D02*
X011831Y012736D01*
X011963Y012736D01*
X011367Y012141D01*
X010077Y012141D01*
X011456Y013520D01*
X011456Y013516D01*
X011526Y013446D01*
X011538Y013446D01*
X011514Y013439D01*
X011477Y013418D01*
X011448Y013388D01*
X011426Y013352D01*
X011416Y013311D01*
X011416Y013131D01*
X011754Y013131D01*
X011754Y013055D01*
X011460Y013055D01*
X011444Y013091D01*
X011377Y013159D01*
X011289Y013195D01*
X011416Y013195D01*
X011416Y013314D02*
X011249Y013314D01*
X011289Y013195D02*
X011193Y013195D01*
X011105Y013159D01*
X011037Y013091D01*
X011001Y013003D01*
X011001Y012908D01*
X011037Y012819D01*
X011105Y012752D01*
X011193Y012715D01*
X011289Y012715D01*
X011377Y012752D01*
X011439Y012814D01*
X011448Y012798D01*
X011477Y012768D01*
X011514Y012747D01*
X011555Y012736D01*
X011754Y012736D01*
X011754Y013055D01*
X011831Y013055D01*
X011754Y013077D02*
X011450Y013077D01*
X011193Y013195D02*
X011131Y013195D01*
X011031Y013077D02*
X011012Y013077D01*
X011001Y012958D02*
X010894Y012958D01*
X010775Y012840D02*
X011029Y012840D01*
X011179Y012721D02*
X010657Y012721D01*
X010538Y012603D02*
X011829Y012603D01*
X011947Y012721D02*
X011303Y012721D01*
X011592Y012366D02*
X010301Y012366D01*
X010420Y012484D02*
X011710Y012484D01*
X011473Y012247D02*
X010183Y012247D01*
X009636Y011565D02*
X016604Y011565D01*
X016967Y011201D01*
X016967Y011035D01*
X017038Y010965D01*
X017203Y010965D01*
X017297Y010871D01*
X012081Y010871D01*
X012081Y010877D01*
X011958Y011000D01*
X011784Y011000D01*
X011661Y010877D01*
X011661Y010871D01*
X011372Y010871D01*
X011372Y011057D01*
X011412Y011097D01*
X011412Y011271D01*
X011289Y011394D01*
X011115Y011394D01*
X010992Y011271D01*
X010992Y011118D01*
X010839Y011118D01*
X010788Y011067D01*
X010737Y011118D01*
X010563Y011118D01*
X010440Y010995D01*
X010440Y010871D01*
X010072Y010871D01*
X010052Y010851D01*
X009872Y010851D01*
X009802Y010781D01*
X009802Y010248D01*
X009872Y010178D01*
X009879Y010178D01*
X009879Y010063D01*
X009872Y010063D01*
X009802Y009993D01*
X009802Y009630D01*
X009766Y009663D01*
X009766Y009993D01*
X009696Y010063D01*
X009670Y010063D01*
X009670Y010178D01*
X009696Y010178D01*
X009766Y010248D01*
X009766Y010781D01*
X009696Y010851D01*
X009203Y010851D01*
X009133Y010781D01*
X009133Y010248D01*
X009190Y010191D01*
X009190Y010050D01*
X009133Y009993D01*
X009133Y009461D01*
X009203Y009390D01*
X009531Y009390D01*
X009778Y009164D01*
X009828Y009114D01*
X009832Y009114D01*
X009836Y009111D01*
X009900Y009114D01*
X009900Y009109D01*
X010018Y008991D01*
X010112Y008898D01*
X010348Y008898D01*
X010480Y008765D01*
X010480Y007704D01*
X010444Y007741D01*
X009912Y007741D01*
X009841Y007670D01*
X009841Y007177D01*
X009912Y007107D01*
X010444Y007107D01*
X010480Y007143D01*
X010480Y007035D01*
X010444Y007071D01*
X009912Y007071D01*
X009841Y007001D01*
X009841Y006508D01*
X009912Y006438D01*
X010011Y006438D01*
X010011Y006334D01*
X010113Y006233D01*
X009941Y006304D01*
X009706Y006304D01*
X009544Y006236D01*
X009640Y006333D01*
X009640Y006438D01*
X009657Y006438D01*
X009727Y006508D01*
X009727Y007001D01*
X009657Y007071D01*
X009298Y007071D01*
X009334Y007107D01*
X009657Y007107D01*
X009727Y007177D01*
X009727Y007670D01*
X009657Y007741D01*
X009550Y007741D01*
X009550Y008182D01*
X009480Y008252D01*
X008947Y008252D01*
X008877Y008182D01*
X008877Y007689D01*
X008947Y007619D01*
X009054Y007619D01*
X009054Y007308D01*
X008887Y007141D01*
X008820Y007074D01*
X008752Y007141D01*
X008585Y007308D01*
X008585Y007619D01*
X008692Y007619D01*
X008763Y007689D01*
X008763Y008182D01*
X008692Y008252D01*
X008160Y008252D01*
X008089Y008182D01*
X008089Y007741D01*
X007983Y007741D01*
X007912Y007670D01*
X007912Y007177D01*
X007983Y007107D01*
X008306Y007107D01*
X008341Y007071D01*
X007983Y007071D01*
X007912Y007001D01*
X007912Y006508D01*
X007983Y006438D01*
X008000Y006438D01*
X008000Y006423D01*
X007964Y006387D01*
X007964Y006216D01*
X008085Y006096D01*
X008255Y006096D01*
X008376Y006216D01*
X008376Y006387D01*
X008340Y006423D01*
X008340Y006438D01*
X008512Y006438D01*
X008512Y004814D01*
X008611Y004714D01*
X009674Y003651D01*
X009441Y003651D01*
X009171Y003540D01*
X008964Y003333D01*
X008852Y003062D01*
X008852Y002829D01*
X007907Y003774D01*
X007907Y009002D01*
X008089Y008819D01*
X008089Y008358D01*
X008160Y008288D01*
X008692Y008288D01*
X008763Y008358D01*
X008763Y008776D01*
X008877Y008662D01*
X008877Y008358D01*
X008947Y008288D01*
X009480Y008288D01*
X009550Y008358D01*
X009550Y008851D01*
X009480Y008922D01*
X009098Y008922D01*
X008852Y009167D01*
X008752Y009267D01*
X008740Y009267D01*
X008764Y009325D01*
X008764Y009420D01*
X008728Y009509D01*
X008660Y009576D01*
X008572Y009613D01*
X008477Y009613D01*
X008458Y009605D01*
X008458Y010877D01*
X008634Y011053D01*
X008734Y011153D01*
X008734Y011490D01*
X008734Y011490D01*
X008734Y011664D01*
X008611Y011787D01*
X008538Y011787D01*
X008538Y011861D01*
X008415Y011984D01*
X008384Y011984D01*
X008674Y012273D01*
X009059Y012273D01*
X008748Y011963D01*
X008748Y010169D01*
X008708Y010129D01*
X008708Y009955D01*
X008831Y009832D01*
X009005Y009832D01*
X009128Y009955D01*
X009128Y010129D01*
X009088Y010169D01*
X009088Y011170D01*
X009241Y011170D01*
X009364Y011293D01*
X009364Y011467D01*
X009324Y011507D01*
X009324Y011622D01*
X009422Y011525D01*
X009596Y011525D01*
X009636Y011565D01*
X009607Y011536D02*
X016632Y011536D01*
X016576Y011520D02*
X016457Y011520D01*
X016348Y011475D01*
X016265Y011391D01*
X016219Y011282D01*
X016219Y011164D01*
X016265Y011055D01*
X016348Y010971D01*
X016457Y010926D01*
X016576Y010926D01*
X016685Y010971D01*
X016768Y011055D01*
X016814Y011164D01*
X016814Y011282D01*
X016768Y011391D01*
X016685Y011475D01*
X016576Y011520D01*
X016742Y011418D02*
X016751Y011418D01*
X016807Y011299D02*
X016869Y011299D01*
X016814Y011181D02*
X016967Y011181D01*
X016967Y011062D02*
X016772Y011062D01*
X016618Y010944D02*
X017225Y010944D01*
X016415Y010944D02*
X012014Y010944D01*
X011727Y010944D02*
X011372Y010944D01*
X011377Y011062D02*
X016262Y011062D01*
X016219Y011181D02*
X011412Y011181D01*
X011383Y011299D02*
X016226Y011299D01*
X016291Y011418D02*
X009364Y011418D01*
X009364Y011299D02*
X011020Y011299D01*
X010992Y011181D02*
X009251Y011181D01*
X009088Y011062D02*
X010507Y011062D01*
X010440Y010944D02*
X009088Y010944D01*
X009088Y010825D02*
X009177Y010825D01*
X009133Y010707D02*
X009088Y010707D01*
X009088Y010588D02*
X009133Y010588D01*
X009133Y010470D02*
X009088Y010470D01*
X009088Y010351D02*
X009133Y010351D01*
X009148Y010233D02*
X009088Y010233D01*
X009128Y010114D02*
X009190Y010114D01*
X009135Y009996D02*
X009128Y009996D01*
X009133Y009877D02*
X009050Y009877D01*
X009133Y009759D02*
X008458Y009759D01*
X008458Y009877D02*
X008786Y009877D01*
X008708Y009996D02*
X008458Y009996D01*
X008458Y010114D02*
X008708Y010114D01*
X008748Y010233D02*
X008458Y010233D01*
X008458Y010351D02*
X008748Y010351D01*
X008748Y010470D02*
X008458Y010470D01*
X008458Y010588D02*
X008748Y010588D01*
X008748Y010707D02*
X008458Y010707D01*
X008458Y010825D02*
X008748Y010825D01*
X008748Y010944D02*
X008525Y010944D01*
X008643Y011062D02*
X008748Y011062D01*
X008734Y011181D02*
X008748Y011181D01*
X008734Y011299D02*
X008748Y011299D01*
X008734Y011418D02*
X008748Y011418D01*
X008734Y011536D02*
X008748Y011536D01*
X008734Y011655D02*
X008748Y011655D01*
X008748Y011773D02*
X008626Y011773D01*
X008507Y011892D02*
X008748Y011892D01*
X008795Y012010D02*
X008410Y012010D01*
X008529Y012129D02*
X008914Y012129D01*
X009032Y012247D02*
X008647Y012247D01*
X007853Y012721D02*
X007678Y012721D01*
X007403Y012721D02*
X003492Y012721D01*
X003557Y012840D02*
X007971Y012840D01*
X008090Y012958D02*
X003606Y012958D01*
X003618Y013077D02*
X008208Y013077D01*
X007330Y012603D02*
X003373Y012603D01*
X003372Y012129D02*
X006543Y012129D01*
X006614Y012010D02*
X003490Y012010D01*
X003557Y011892D02*
X006630Y011892D01*
X006511Y011773D02*
X003606Y011773D01*
X003618Y011655D02*
X006393Y011655D01*
X006274Y011536D02*
X004771Y011536D01*
X004739Y011568D02*
X004641Y011609D01*
X004534Y011609D01*
X004436Y011568D01*
X004361Y011493D01*
X004320Y011394D01*
X004320Y011288D01*
X004361Y011189D01*
X004436Y011114D01*
X004534Y011073D01*
X004641Y011073D01*
X004739Y011114D01*
X004814Y011189D01*
X004855Y011288D01*
X004855Y011394D01*
X004814Y011493D01*
X004739Y011568D01*
X004845Y011418D02*
X006156Y011418D01*
X006037Y011299D02*
X004855Y011299D01*
X004805Y011181D02*
X005919Y011181D01*
X005800Y011062D02*
X003324Y011062D01*
X003451Y011181D02*
X004369Y011181D01*
X004320Y011299D02*
X003541Y011299D01*
X003590Y011418D02*
X004329Y011418D01*
X004404Y011536D02*
X003618Y011536D01*
X002622Y011062D02*
X002449Y011062D01*
X002495Y011181D02*
X002331Y011181D01*
X002406Y011299D02*
X002212Y011299D01*
X002094Y011418D02*
X002357Y011418D01*
X002328Y011536D02*
X001975Y011536D01*
X001857Y011655D02*
X002328Y011655D01*
X002341Y011773D02*
X001738Y011773D01*
X001620Y011892D02*
X002390Y011892D01*
X002456Y012010D02*
X001558Y012010D01*
X001239Y012010D02*
X001071Y012010D01*
X001071Y011892D02*
X001188Y011892D01*
X001201Y011773D02*
X001071Y011773D01*
X001071Y011655D02*
X001376Y011655D01*
X001257Y011536D02*
X001071Y011536D01*
X001071Y011418D02*
X001188Y011418D01*
X001188Y011299D02*
X001071Y011299D01*
X001071Y011181D02*
X001301Y011181D01*
X001476Y011062D02*
X001071Y011062D01*
X001071Y010944D02*
X001595Y010944D01*
X001713Y010825D02*
X001071Y010825D01*
X001071Y010707D02*
X001832Y010707D01*
X001950Y010588D02*
X001071Y010588D01*
X001071Y010470D02*
X002069Y010470D01*
X002187Y010351D02*
X001071Y010351D01*
X001071Y010233D02*
X007016Y010233D01*
X007016Y010114D02*
X001071Y010114D01*
X001071Y009996D02*
X007016Y009996D01*
X007016Y009877D02*
X001071Y009877D01*
X001071Y009759D02*
X004243Y009759D01*
X004264Y009779D02*
X004141Y009656D01*
X004141Y009482D01*
X004181Y009442D01*
X004181Y007059D01*
X004141Y007019D01*
X004141Y006845D01*
X004264Y006722D01*
X004438Y006722D01*
X004561Y006845D01*
X004561Y007019D01*
X004521Y007059D01*
X004521Y009442D01*
X004561Y009482D01*
X004561Y009656D01*
X004438Y009779D01*
X004264Y009779D01*
X004141Y009640D02*
X001071Y009640D01*
X001071Y009522D02*
X004141Y009522D01*
X004181Y009403D02*
X002259Y009403D01*
X002251Y009411D02*
X002017Y009508D01*
X001764Y009508D01*
X001530Y009411D01*
X001350Y009232D01*
X001253Y008997D01*
X001253Y008744D01*
X001350Y008510D01*
X001530Y008330D01*
X001764Y008233D01*
X002017Y008233D01*
X002251Y008330D01*
X002431Y008510D01*
X002528Y008744D01*
X002528Y008997D01*
X002431Y009232D01*
X002251Y009411D01*
X002378Y009285D02*
X004181Y009285D01*
X004181Y009166D02*
X002458Y009166D01*
X002507Y009048D02*
X004181Y009048D01*
X004181Y008929D02*
X002528Y008929D01*
X002528Y008811D02*
X004181Y008811D01*
X004181Y008692D02*
X002506Y008692D01*
X002457Y008574D02*
X004181Y008574D01*
X004181Y008455D02*
X002376Y008455D01*
X002258Y008337D02*
X004181Y008337D01*
X004181Y008218D02*
X001071Y008218D01*
X001071Y008100D02*
X004181Y008100D01*
X004181Y007981D02*
X001071Y007981D01*
X001071Y007863D02*
X004181Y007863D01*
X004181Y007744D02*
X002236Y007744D01*
X002251Y007738D02*
X002017Y007835D01*
X001764Y007835D01*
X001530Y007738D01*
X001350Y007558D01*
X001253Y007324D01*
X001253Y007071D01*
X001350Y006836D01*
X001530Y006657D01*
X001764Y006560D01*
X002017Y006560D01*
X002251Y006657D01*
X002431Y006836D01*
X002528Y007071D01*
X002528Y007324D01*
X002431Y007558D01*
X002251Y007738D01*
X002364Y007626D02*
X004181Y007626D01*
X004181Y007507D02*
X002452Y007507D01*
X002501Y007389D02*
X004181Y007389D01*
X004181Y007270D02*
X002528Y007270D01*
X002528Y007152D02*
X004181Y007152D01*
X004156Y007033D02*
X002512Y007033D01*
X002463Y006915D02*
X004141Y006915D01*
X004190Y006796D02*
X002390Y006796D01*
X002272Y006678D02*
X005393Y006678D01*
X005393Y006796D02*
X004513Y006796D01*
X004561Y006915D02*
X005393Y006915D01*
X005393Y007001D02*
X005393Y006508D01*
X005463Y006438D01*
X005529Y006438D01*
X005519Y006428D01*
X005519Y006254D01*
X005642Y006131D01*
X005816Y006131D01*
X005939Y006254D01*
X005939Y006428D01*
X005930Y006438D01*
X005995Y006438D01*
X006066Y006508D01*
X006066Y007001D01*
X005995Y007071D01*
X005463Y007071D01*
X005393Y007001D01*
X005425Y007033D02*
X004547Y007033D01*
X004521Y007152D02*
X005418Y007152D01*
X005393Y007177D02*
X005463Y007107D01*
X005995Y007107D01*
X006066Y007177D01*
X006066Y007670D01*
X006057Y007679D01*
X006057Y007828D01*
X006097Y007868D01*
X006097Y008042D01*
X005974Y008165D01*
X005800Y008165D01*
X005677Y008042D01*
X005677Y007868D01*
X005717Y007828D01*
X005717Y007741D01*
X005463Y007741D01*
X005393Y007670D01*
X005393Y007177D01*
X005393Y007270D02*
X004521Y007270D01*
X004521Y007389D02*
X005393Y007389D01*
X005393Y007507D02*
X004521Y007507D01*
X004521Y007626D02*
X005393Y007626D01*
X005717Y007744D02*
X004521Y007744D01*
X004521Y007863D02*
X005682Y007863D01*
X005677Y007981D02*
X004521Y007981D01*
X004521Y008100D02*
X005734Y008100D01*
X006039Y008100D02*
X006504Y008100D01*
X006504Y008218D02*
X004521Y008218D01*
X004521Y008337D02*
X006504Y008337D01*
X006504Y008419D02*
X006504Y007741D01*
X006250Y007741D01*
X006180Y007670D01*
X006180Y007177D01*
X006250Y007107D01*
X006783Y007107D01*
X006853Y007177D01*
X006853Y007670D01*
X006844Y007679D01*
X006844Y008419D01*
X006884Y008459D01*
X006884Y008633D01*
X006761Y008756D01*
X006587Y008756D01*
X006464Y008633D01*
X006464Y008459D01*
X006504Y008419D01*
X006468Y008455D02*
X004521Y008455D01*
X004521Y008574D02*
X006464Y008574D01*
X006523Y008692D02*
X004521Y008692D01*
X004521Y008811D02*
X007016Y008811D01*
X007016Y008929D02*
X004521Y008929D01*
X004521Y009048D02*
X007016Y009048D01*
X007016Y009166D02*
X004521Y009166D01*
X004521Y009285D02*
X007016Y009285D01*
X007016Y009403D02*
X004521Y009403D01*
X004561Y009522D02*
X007016Y009522D01*
X007016Y009640D02*
X004561Y009640D01*
X004459Y009759D02*
X007016Y009759D01*
X006662Y010351D02*
X005964Y010351D01*
X006082Y010470D02*
X006631Y010470D01*
X006658Y010588D02*
X006201Y010588D01*
X006319Y010707D02*
X006803Y010707D01*
X006939Y010707D02*
X007016Y010707D01*
X007016Y010825D02*
X006438Y010825D01*
X006556Y010944D02*
X007016Y010944D01*
X007016Y011062D02*
X006675Y011062D01*
X006793Y011181D02*
X007016Y011181D01*
X007016Y011299D02*
X006912Y011299D01*
X006963Y012247D02*
X006985Y012247D01*
X007104Y012366D02*
X006852Y012366D01*
X006677Y012484D02*
X007222Y012484D01*
X008097Y013752D02*
X008196Y013711D01*
X008302Y013711D01*
X008400Y013752D01*
X008476Y013827D01*
X008516Y013926D01*
X008516Y014032D01*
X008476Y014131D01*
X008400Y014206D01*
X008531Y014206D01*
X008652Y014327D01*
X008652Y014497D01*
X008616Y014533D01*
X008616Y015413D01*
X008652Y015449D01*
X008652Y015619D01*
X008531Y015740D01*
X008360Y015740D01*
X008240Y015619D01*
X008240Y015449D01*
X008276Y015413D01*
X008276Y014533D01*
X008240Y014497D01*
X008240Y014327D01*
X008332Y014234D01*
X008302Y014247D01*
X008196Y014247D01*
X008097Y014206D01*
X008022Y014131D01*
X007981Y014032D01*
X007981Y013926D01*
X008022Y013827D01*
X008097Y013752D01*
X008062Y013788D02*
X001071Y013788D01*
X001071Y013906D02*
X007989Y013906D01*
X007981Y014025D02*
X001071Y014025D01*
X001071Y014143D02*
X008034Y014143D01*
X008305Y014262D02*
X001071Y014262D01*
X001071Y014380D02*
X008240Y014380D01*
X008241Y014499D02*
X001071Y014499D01*
X001071Y014617D02*
X008276Y014617D01*
X008276Y014736D02*
X001071Y014736D01*
X001071Y014854D02*
X006182Y014854D01*
X006181Y014855D02*
X006399Y014764D01*
X006634Y014764D01*
X006852Y014855D01*
X007019Y015021D01*
X007109Y015239D01*
X007109Y015475D01*
X007019Y015692D01*
X006852Y015859D01*
X006634Y015949D01*
X006399Y015949D01*
X006181Y015859D01*
X006014Y015692D01*
X005924Y015475D01*
X005924Y015239D01*
X006014Y015021D01*
X006181Y014855D01*
X006063Y014973D02*
X001071Y014973D01*
X001071Y015091D02*
X005985Y015091D01*
X005936Y015210D02*
X001071Y015210D01*
X001071Y015328D02*
X005924Y015328D01*
X005924Y015447D02*
X001071Y015447D01*
X001071Y015565D02*
X005961Y015565D01*
X006011Y015684D02*
X001071Y015684D01*
X001071Y015802D02*
X006124Y015802D01*
X006329Y015921D02*
X001071Y015921D01*
X001071Y016039D02*
X011613Y016039D01*
X011613Y016052D02*
X011613Y015839D01*
X011683Y015768D01*
X012176Y015768D01*
X012247Y015839D01*
X012247Y016371D01*
X012176Y016441D01*
X011683Y016441D01*
X011679Y016437D01*
X011643Y016472D01*
X011469Y016472D01*
X011346Y016349D01*
X011346Y016175D01*
X011469Y016052D01*
X011613Y016052D01*
X011613Y015921D02*
X010247Y015921D01*
X010178Y015949D02*
X009942Y015949D01*
X009724Y015859D01*
X009558Y015692D01*
X009467Y015475D01*
X009467Y015239D01*
X009558Y015021D01*
X009724Y014855D01*
X009942Y014764D01*
X010178Y014764D01*
X010395Y014855D01*
X010562Y015021D01*
X010652Y015239D01*
X010652Y015475D01*
X010562Y015692D01*
X010395Y015859D01*
X010178Y015949D01*
X009872Y015921D02*
X006704Y015921D01*
X006909Y015802D02*
X009667Y015802D01*
X009554Y015684D02*
X008588Y015684D01*
X008652Y015565D02*
X009505Y015565D01*
X009467Y015447D02*
X008650Y015447D01*
X008616Y015328D02*
X009467Y015328D01*
X009480Y015210D02*
X008616Y015210D01*
X008616Y015091D02*
X009529Y015091D01*
X009606Y014973D02*
X008616Y014973D01*
X008616Y014854D02*
X009725Y014854D01*
X010394Y014854D02*
X012033Y014854D01*
X011932Y014933D02*
X011932Y015466D01*
X011862Y015536D01*
X011647Y015536D01*
X011647Y015545D01*
X011687Y015585D01*
X011687Y015759D01*
X011564Y015882D01*
X011390Y015882D01*
X011267Y015759D01*
X011267Y015585D01*
X011307Y015545D01*
X011307Y015475D01*
X011298Y015466D01*
X011298Y014933D01*
X011368Y014863D01*
X011862Y014863D01*
X011932Y014933D01*
X011932Y014973D02*
X011967Y014973D01*
X011967Y015091D02*
X011932Y015091D01*
X011932Y015210D02*
X011967Y015210D01*
X011967Y015328D02*
X011932Y015328D01*
X011932Y015447D02*
X011967Y015447D01*
X011667Y015565D02*
X012744Y015565D01*
X012783Y015684D02*
X011687Y015684D01*
X011650Y015802D02*
X011644Y015802D01*
X011310Y015802D02*
X010453Y015802D01*
X010566Y015684D02*
X011267Y015684D01*
X011287Y015565D02*
X010615Y015565D01*
X010652Y015447D02*
X011298Y015447D01*
X011298Y015328D02*
X010652Y015328D01*
X010640Y015210D02*
X011298Y015210D01*
X011298Y015091D02*
X010591Y015091D01*
X010513Y014973D02*
X011298Y014973D01*
X011858Y014736D02*
X008616Y014736D01*
X008616Y014617D02*
X011818Y014617D01*
X012277Y014617D02*
X014133Y014617D01*
X014133Y014736D02*
X013161Y014736D01*
X013183Y014758D02*
X013183Y014815D01*
X013792Y015423D01*
X014540Y015423D01*
X014736Y015619D01*
X014792Y015619D01*
X014916Y015742D01*
X014916Y015916D01*
X014792Y016039D01*
X014619Y016039D01*
X014496Y015916D01*
X014496Y015860D01*
X014479Y015843D01*
X014479Y015915D01*
X014358Y016035D01*
X014187Y016035D01*
X014066Y015915D01*
X014066Y015763D01*
X013651Y015763D01*
X013551Y015663D01*
X012943Y015055D01*
X012886Y015055D01*
X012763Y014932D01*
X012763Y014758D01*
X012886Y014635D01*
X013060Y014635D01*
X013183Y014758D01*
X013223Y014854D02*
X014190Y014854D01*
X014709Y014854D02*
X014860Y014854D01*
X014802Y014736D02*
X014766Y014736D01*
X014766Y014617D02*
X014802Y014617D01*
X014802Y014499D02*
X014766Y014499D01*
X014766Y014380D02*
X014802Y014380D01*
X015436Y014617D02*
X015550Y014617D01*
X015550Y014736D02*
X015436Y014736D01*
X015378Y014854D02*
X015573Y014854D01*
X015510Y014973D02*
X013341Y014973D01*
X013460Y015091D02*
X015510Y015091D01*
X015510Y015218D02*
X015848Y015218D01*
X015848Y015537D01*
X015649Y015537D01*
X015608Y015526D01*
X015572Y015505D01*
X015542Y015475D01*
X015521Y015438D01*
X015510Y015398D01*
X015510Y015218D01*
X015510Y015328D02*
X013697Y015328D01*
X013578Y015210D02*
X015848Y015210D01*
X015925Y015210D02*
X016661Y015210D01*
X016623Y015091D02*
X016263Y015091D01*
X016263Y014973D02*
X016621Y014973D01*
X016395Y014854D02*
X016200Y014854D01*
X016223Y014736D02*
X016337Y014736D01*
X016337Y014617D02*
X016223Y014617D01*
X016971Y014617D02*
X017007Y014617D01*
X017007Y014499D02*
X016971Y014499D01*
X016971Y014380D02*
X017007Y014380D01*
X017007Y014736D02*
X016971Y014736D01*
X016980Y014854D02*
X017064Y014854D01*
X017041Y014973D02*
X017465Y014973D01*
X017583Y014854D02*
X018009Y014854D01*
X017952Y014736D02*
X017640Y014736D01*
X017640Y014617D02*
X017952Y014617D01*
X017919Y014973D02*
X017733Y014973D01*
X017860Y015091D02*
X017912Y015091D01*
X018250Y015328D02*
X018327Y015328D01*
X018327Y015447D02*
X018250Y015447D01*
X018250Y015565D02*
X018327Y015565D01*
X017387Y015447D02*
X017358Y015447D01*
X017315Y015328D02*
X017240Y015328D01*
X017302Y015210D02*
X017121Y015210D01*
X017040Y015091D02*
X017339Y015091D01*
X016759Y015328D02*
X016263Y015328D01*
X016247Y015447D02*
X016878Y015447D01*
X016996Y015565D02*
X014682Y015565D01*
X014563Y015447D02*
X015526Y015447D01*
X015848Y015447D02*
X015925Y015447D01*
X015925Y015328D02*
X015848Y015328D01*
X015878Y015619D02*
X016052Y015619D01*
X016175Y015742D01*
X016175Y015886D01*
X016310Y015886D01*
X016381Y015957D01*
X016381Y016489D01*
X016310Y016560D01*
X015817Y016560D01*
X015747Y016489D01*
X015747Y015957D01*
X015771Y015932D01*
X015755Y015916D01*
X015755Y015742D01*
X015878Y015619D01*
X015814Y015684D02*
X014857Y015684D01*
X014916Y015802D02*
X015755Y015802D01*
X015760Y015921D02*
X014911Y015921D01*
X014793Y016039D02*
X015747Y016039D01*
X015747Y016158D02*
X012916Y016158D01*
X012916Y016276D02*
X015747Y016276D01*
X015747Y016395D02*
X012893Y016395D01*
X013021Y016039D02*
X013120Y015941D01*
X013178Y015999D01*
X013279Y015999D01*
X013319Y016039D01*
X013494Y016039D02*
X014618Y016039D01*
X014500Y015921D02*
X014473Y015921D01*
X014072Y015921D02*
X013612Y015921D01*
X013616Y015802D02*
X014066Y015802D01*
X013571Y015684D02*
X013558Y015684D01*
X013453Y015565D02*
X013225Y015565D01*
X013334Y015447D02*
X013106Y015447D01*
X013216Y015328D02*
X012988Y015328D01*
X013097Y015210D02*
X012869Y015210D01*
X012979Y015091D02*
X012751Y015091D01*
X012804Y014973D02*
X012632Y014973D01*
X012514Y014854D02*
X012763Y014854D01*
X012786Y014736D02*
X012395Y014736D01*
X012601Y015447D02*
X012626Y015447D01*
X012319Y015802D02*
X012210Y015802D01*
X012247Y015921D02*
X012282Y015921D01*
X012282Y016039D02*
X012247Y016039D01*
X012247Y016158D02*
X012282Y016158D01*
X012282Y016276D02*
X012247Y016276D01*
X012223Y016395D02*
X012306Y016395D01*
X011391Y016395D02*
X003414Y016395D01*
X003619Y016513D02*
X015771Y016513D01*
X016357Y016513D02*
X016440Y016513D01*
X016416Y016395D02*
X016381Y016395D01*
X016381Y016276D02*
X016416Y016276D01*
X016416Y016158D02*
X016381Y016158D01*
X016381Y016039D02*
X016416Y016039D01*
X016452Y015921D02*
X016344Y015921D01*
X016175Y015802D02*
X017233Y015802D01*
X017115Y015684D02*
X016117Y015684D01*
X017014Y015921D02*
X017352Y015921D01*
X017470Y016039D02*
X017050Y016039D01*
X018625Y014736D02*
X019102Y014736D01*
X019102Y014806D01*
X019054Y014854D01*
X019062Y014617D02*
X018625Y014617D01*
X019877Y014499D02*
X020024Y014499D01*
X020818Y012840D02*
X020967Y012840D01*
X021064Y012721D02*
X021191Y012721D01*
X021180Y012603D02*
X021097Y012603D01*
X021067Y012484D02*
X021180Y012484D01*
X021180Y012366D02*
X020869Y012366D01*
X020969Y012247D02*
X021180Y012247D01*
X021229Y012129D02*
X021088Y012129D01*
X021206Y012010D02*
X034403Y012010D01*
X034403Y012840D02*
X032218Y012840D01*
X032205Y012827D02*
X032235Y012857D01*
X032256Y012894D01*
X032267Y012934D01*
X032267Y013114D01*
X031457Y013114D01*
X031457Y012795D01*
X032128Y012795D01*
X032169Y012806D01*
X032205Y012827D01*
X032267Y012958D02*
X034403Y012958D01*
X034403Y013077D02*
X032267Y013077D01*
X032267Y013191D02*
X032267Y013370D01*
X032256Y013411D01*
X032235Y013447D01*
X032205Y013477D01*
X032169Y013498D01*
X032128Y013509D01*
X031457Y013509D01*
X031457Y013191D01*
X032267Y013191D01*
X032267Y013195D02*
X034403Y013195D01*
X034403Y013314D02*
X032267Y013314D01*
X032244Y013432D02*
X034403Y013432D01*
X032877Y013669D02*
X029783Y013669D01*
X029665Y013788D02*
X032814Y013788D01*
X032814Y013906D02*
X029546Y013906D01*
X029428Y014025D02*
X032814Y014025D01*
X032814Y014143D02*
X029309Y014143D01*
X029191Y014262D02*
X032814Y014262D01*
X032814Y014380D02*
X029072Y014380D01*
X028947Y014025D02*
X028136Y014025D01*
X028254Y013906D02*
X029066Y013906D01*
X029184Y013788D02*
X028318Y013788D01*
X028367Y013669D02*
X029303Y013669D01*
X029421Y013551D02*
X028369Y013551D01*
X028369Y013432D02*
X029540Y013432D01*
X029658Y013314D02*
X028321Y013314D01*
X028263Y013195D02*
X029777Y013195D01*
X029895Y013077D02*
X028145Y013077D01*
X027906Y012958D02*
X030014Y012958D01*
X030132Y012840D02*
X027882Y012840D01*
X028032Y012721D02*
X030251Y012721D01*
X030369Y012603D02*
X028074Y012603D01*
X028066Y012484D02*
X030488Y012484D01*
X030606Y012366D02*
X028001Y012366D01*
X027671Y012840D02*
X026175Y012840D01*
X026175Y012958D02*
X027647Y012958D01*
X027408Y013077D02*
X026102Y013077D01*
X025713Y011536D02*
X024650Y011536D01*
X024719Y011418D02*
X025664Y011418D01*
X025648Y011299D02*
X024719Y011299D01*
X024673Y011181D02*
X025648Y011181D01*
X025683Y011062D02*
X024792Y011062D01*
X024910Y010944D02*
X025732Y010944D01*
X025840Y010825D02*
X025029Y010825D01*
X025147Y010707D02*
X026035Y010707D01*
X026447Y010707D02*
X034403Y010707D01*
X034403Y010825D02*
X026642Y010825D01*
X025346Y010114D02*
X034403Y010114D01*
X034403Y009996D02*
X025465Y009996D01*
X025583Y009877D02*
X034403Y009877D01*
X034403Y009759D02*
X025702Y009759D01*
X025820Y009640D02*
X034403Y009640D01*
X034403Y009522D02*
X025939Y009522D01*
X026057Y009403D02*
X034403Y009403D01*
X034403Y009285D02*
X026176Y009285D01*
X026294Y009166D02*
X034403Y009166D01*
X034403Y009048D02*
X028960Y009048D01*
X028797Y009048D02*
X026413Y009048D01*
X026531Y008929D02*
X028664Y008929D01*
X028639Y008811D02*
X026650Y008811D01*
X026768Y008692D02*
X028570Y008692D01*
X028892Y008455D02*
X028906Y008455D01*
X028809Y008337D02*
X029024Y008337D01*
X029143Y008218D02*
X026953Y008218D01*
X027071Y008100D02*
X029261Y008100D01*
X029380Y007981D02*
X027190Y007981D01*
X027308Y007863D02*
X029498Y007863D01*
X029617Y007744D02*
X027427Y007744D01*
X027545Y007626D02*
X029735Y007626D01*
X029866Y007507D02*
X027664Y007507D01*
X027782Y007389D02*
X030614Y007389D01*
X030667Y007199D02*
X030708Y007210D01*
X031380Y007210D01*
X031380Y006891D01*
X031380Y006814D01*
X031457Y006814D01*
X031457Y006891D01*
X032267Y006891D01*
X032267Y007071D01*
X032256Y007112D01*
X032235Y007148D01*
X032205Y007178D01*
X032169Y007199D01*
X032128Y007210D01*
X031457Y007210D01*
X031457Y006891D01*
X031380Y006891D01*
X030569Y006891D01*
X030569Y007071D01*
X030580Y007112D01*
X030601Y007148D01*
X030631Y007178D01*
X030667Y007199D01*
X030605Y007152D02*
X028019Y007152D01*
X027901Y007270D02*
X034403Y007270D01*
X034403Y007152D02*
X032232Y007152D01*
X032267Y007033D02*
X034403Y007033D01*
X034403Y006915D02*
X032267Y006915D01*
X032267Y006814D02*
X031457Y006814D01*
X031457Y006496D01*
X032128Y006496D01*
X032169Y006507D01*
X032205Y006528D01*
X032235Y006558D01*
X032256Y006594D01*
X032267Y006635D01*
X032267Y006814D01*
X032267Y006796D02*
X034403Y006796D01*
X034403Y006678D02*
X032267Y006678D01*
X032236Y006559D02*
X034403Y006559D01*
X034403Y006441D02*
X028730Y006441D01*
X028612Y006559D02*
X030600Y006559D01*
X030601Y006558D02*
X030631Y006528D01*
X030667Y006507D01*
X030708Y006496D01*
X031380Y006496D01*
X031380Y006814D01*
X030569Y006814D01*
X030569Y006635D01*
X030580Y006594D01*
X030601Y006558D01*
X030569Y006678D02*
X028493Y006678D01*
X028375Y006796D02*
X030569Y006796D01*
X030569Y006915D02*
X028256Y006915D01*
X028138Y007033D02*
X030569Y007033D01*
X031380Y007033D02*
X031457Y007033D01*
X031457Y006915D02*
X031380Y006915D01*
X031380Y006796D02*
X031457Y006796D01*
X031457Y006678D02*
X031380Y006678D01*
X031380Y006559D02*
X031457Y006559D01*
X031457Y007152D02*
X031380Y007152D01*
X032222Y007389D02*
X034403Y007389D01*
X034403Y007507D02*
X032227Y007507D01*
X032227Y007626D02*
X034403Y007626D01*
X034403Y007744D02*
X032227Y007744D01*
X032227Y007863D02*
X034403Y007863D01*
X034403Y007981D02*
X030059Y007981D01*
X029940Y008100D02*
X034403Y008100D01*
X034322Y008150D02*
X034392Y008221D01*
X034392Y008910D01*
X034322Y008981D01*
X032884Y008981D01*
X032814Y008910D01*
X032814Y008221D01*
X032884Y008150D01*
X034322Y008150D01*
X034390Y008218D02*
X034403Y008218D01*
X034392Y008337D02*
X034403Y008337D01*
X034392Y008455D02*
X034403Y008455D01*
X034392Y008574D02*
X034403Y008574D01*
X034392Y008692D02*
X034403Y008692D01*
X034392Y008811D02*
X034403Y008811D01*
X034403Y008929D02*
X034374Y008929D01*
X032832Y008929D02*
X029111Y008929D01*
X029229Y008811D02*
X032814Y008811D01*
X032814Y008692D02*
X029348Y008692D01*
X029466Y008574D02*
X032814Y008574D01*
X032814Y008455D02*
X029585Y008455D01*
X029703Y008337D02*
X032814Y008337D01*
X032816Y008218D02*
X029822Y008218D01*
X028849Y006322D02*
X032863Y006322D01*
X032814Y006204D02*
X028967Y006204D01*
X029086Y006085D02*
X032814Y006085D01*
X032814Y005967D02*
X029204Y005967D01*
X029323Y005848D02*
X032814Y005848D01*
X032814Y005730D02*
X029441Y005730D01*
X034343Y006322D02*
X034403Y006322D01*
X034392Y006204D02*
X034403Y006204D01*
X034392Y006085D02*
X034403Y006085D01*
X034392Y005967D02*
X034403Y005967D01*
X034392Y005848D02*
X034403Y005848D01*
X034392Y005730D02*
X034403Y005730D01*
X034403Y010233D02*
X028343Y010233D01*
X028459Y010351D02*
X034403Y010351D01*
X034403Y010470D02*
X028459Y010470D01*
X028393Y010588D02*
X034403Y010588D01*
X031457Y012840D02*
X031380Y012840D01*
X031380Y012958D02*
X031457Y012958D01*
X031457Y013077D02*
X031380Y013077D01*
X031380Y013195D02*
X031457Y013195D01*
X031457Y013314D02*
X031380Y013314D01*
X031380Y013432D02*
X031457Y013432D01*
X028155Y010233D02*
X025228Y010233D01*
X023584Y014143D02*
X023561Y014143D01*
X023562Y014262D02*
X023443Y014262D01*
X019065Y012484D02*
X019008Y012484D01*
X019018Y012366D02*
X019054Y012366D01*
X019054Y012247D02*
X019018Y012247D01*
X019018Y012129D02*
X019054Y012129D01*
X019054Y012010D02*
X019018Y012010D01*
X018969Y011892D02*
X019103Y011892D01*
X019062Y011655D02*
X019011Y011655D01*
X019018Y011536D02*
X019054Y011536D01*
X019054Y011418D02*
X019018Y011418D01*
X019018Y011299D02*
X019054Y011299D01*
X019054Y011181D02*
X019018Y011181D01*
X015982Y013195D02*
X014681Y013195D01*
X014688Y013314D02*
X015271Y013314D01*
X015244Y013432D02*
X014645Y013432D01*
X014617Y013077D02*
X015891Y013077D01*
X012895Y013669D02*
X012129Y013669D01*
X012129Y013551D02*
X012777Y013551D01*
X012658Y013432D02*
X012083Y013432D01*
X012168Y013314D02*
X012540Y013314D01*
X012184Y012958D02*
X012169Y012958D01*
X011831Y012958D02*
X011754Y012958D01*
X011754Y012840D02*
X011831Y012840D01*
X011502Y013432D02*
X011368Y013432D01*
X011006Y013906D02*
X010073Y013906D01*
X010073Y013948D02*
X010073Y013781D01*
X010121Y013733D01*
X010121Y013201D01*
X010050Y013131D01*
X009557Y013131D01*
X009487Y013201D01*
X009487Y013733D01*
X009557Y013804D01*
X009653Y013804D01*
X009653Y013948D01*
X009776Y014071D01*
X009950Y014071D01*
X010073Y013948D01*
X009996Y014025D02*
X011125Y014025D01*
X011243Y014143D02*
X008463Y014143D01*
X008400Y014206D02*
X008400Y014206D01*
X008587Y014262D02*
X010307Y014262D01*
X010283Y014380D02*
X008652Y014380D01*
X008651Y014499D02*
X010322Y014499D01*
X009730Y014025D02*
X008516Y014025D01*
X008508Y013906D02*
X009653Y013906D01*
X009541Y013788D02*
X008436Y013788D01*
X009487Y013669D02*
X003320Y013669D01*
X003450Y013551D02*
X009487Y013551D01*
X009487Y013432D02*
X003540Y013432D01*
X003589Y013314D02*
X009487Y013314D01*
X009493Y013195D02*
X003618Y013195D01*
X002626Y013669D02*
X001071Y013669D01*
X001071Y013551D02*
X002497Y013551D01*
X002407Y013432D02*
X001071Y013432D01*
X001071Y013314D02*
X002357Y013314D01*
X002328Y013195D02*
X001071Y013195D01*
X001071Y013077D02*
X002328Y013077D01*
X002340Y012958D02*
X001071Y012958D01*
X001071Y012840D02*
X002389Y012840D01*
X002455Y012721D02*
X001071Y012721D01*
X001071Y012603D02*
X002573Y012603D01*
X002599Y012484D02*
X001071Y012484D01*
X001071Y012366D02*
X002566Y012366D01*
X002597Y012247D02*
X001071Y012247D01*
X001071Y012129D02*
X002575Y012129D01*
X002568Y010944D02*
X005682Y010944D01*
X007907Y008929D02*
X007980Y008929D01*
X007907Y008811D02*
X008089Y008811D01*
X008089Y008692D02*
X007907Y008692D01*
X007907Y008574D02*
X008089Y008574D01*
X008089Y008455D02*
X007907Y008455D01*
X007907Y008337D02*
X008111Y008337D01*
X008125Y008218D02*
X007907Y008218D01*
X007907Y008100D02*
X008089Y008100D01*
X008089Y007981D02*
X007907Y007981D01*
X007907Y007863D02*
X008089Y007863D01*
X008089Y007744D02*
X007907Y007744D01*
X007907Y007626D02*
X007912Y007626D01*
X007907Y007507D02*
X007912Y007507D01*
X007907Y007389D02*
X007912Y007389D01*
X007907Y007270D02*
X007912Y007270D01*
X007907Y007152D02*
X007938Y007152D01*
X007944Y007033D02*
X007907Y007033D01*
X007907Y006915D02*
X007912Y006915D01*
X007907Y006796D02*
X007912Y006796D01*
X007907Y006678D02*
X007912Y006678D01*
X007907Y006559D02*
X007912Y006559D01*
X007907Y006441D02*
X007980Y006441D01*
X007964Y006322D02*
X007907Y006322D01*
X007907Y006204D02*
X007977Y006204D01*
X007907Y006085D02*
X008512Y006085D01*
X008512Y005967D02*
X007907Y005967D01*
X007907Y005848D02*
X008512Y005848D01*
X008512Y005730D02*
X007907Y005730D01*
X007907Y005611D02*
X008512Y005611D01*
X008512Y005493D02*
X007907Y005493D01*
X007907Y005374D02*
X008512Y005374D01*
X008512Y005256D02*
X007907Y005256D01*
X007907Y005137D02*
X008512Y005137D01*
X008512Y005019D02*
X007907Y005019D01*
X007907Y004900D02*
X008512Y004900D01*
X008544Y004782D02*
X007907Y004782D01*
X007907Y004663D02*
X008663Y004663D01*
X008781Y004545D02*
X007907Y004545D01*
X007907Y004426D02*
X008900Y004426D01*
X009018Y004308D02*
X007907Y004308D01*
X007907Y004189D02*
X009137Y004189D01*
X009255Y004071D02*
X007907Y004071D01*
X007907Y003952D02*
X009374Y003952D01*
X009492Y003834D02*
X007907Y003834D01*
X007966Y003715D02*
X009611Y003715D01*
X009308Y003597D02*
X008084Y003597D01*
X008203Y003478D02*
X009109Y003478D01*
X008991Y003360D02*
X008321Y003360D01*
X008440Y003241D02*
X008926Y003241D01*
X008877Y003123D02*
X008558Y003123D01*
X008677Y003004D02*
X008852Y003004D01*
X008852Y002886D02*
X008795Y002886D01*
X007687Y002175D02*
X004293Y002175D01*
X004289Y002056D02*
X007805Y002056D01*
X007924Y001938D02*
X004271Y001938D01*
X004253Y001819D02*
X008042Y001819D01*
X008161Y001701D02*
X004235Y001701D01*
X004223Y001622D02*
X004223Y001622D01*
X004204Y001582D02*
X008279Y001582D01*
X008398Y001464D02*
X004147Y001464D01*
X004090Y001345D02*
X008516Y001345D01*
X008635Y001227D02*
X004033Y001227D01*
X004001Y001160D02*
X004001Y001160D01*
X003953Y001108D02*
X008753Y001108D01*
X008866Y000995D02*
X008866Y000995D01*
X008872Y000990D02*
X003843Y000990D01*
X003733Y000871D02*
X015530Y000871D01*
X015530Y000753D02*
X003598Y000753D01*
X003652Y000784D02*
X003652Y000784D01*
X003393Y000634D02*
X015530Y000634D01*
X015530Y000990D02*
X010815Y000990D01*
X010933Y001108D02*
X015530Y001108D01*
X015530Y001227D02*
X011052Y001227D01*
X011170Y001345D02*
X013302Y001345D01*
X013196Y001464D02*
X011289Y001464D01*
X011407Y001582D02*
X013122Y001582D01*
X013366Y001819D02*
X013672Y001819D01*
X013791Y001701D02*
X013541Y001701D01*
X013616Y001582D02*
X013909Y001582D01*
X013984Y001464D02*
X013616Y001464D01*
X013510Y001345D02*
X014090Y001345D01*
X014298Y001345D02*
X014483Y001345D01*
X014691Y001345D02*
X014877Y001345D01*
X015085Y001345D02*
X015530Y001345D01*
X015510Y001464D02*
X015191Y001464D01*
X015191Y001582D02*
X015501Y001582D01*
X015530Y001701D02*
X015116Y001701D01*
X014940Y001819D02*
X015530Y001819D01*
X015530Y001938D02*
X014822Y001938D01*
X014703Y002056D02*
X015530Y002056D01*
X015530Y002175D02*
X014585Y002175D01*
X014466Y002293D02*
X015530Y002293D01*
X015530Y002412D02*
X014348Y002412D01*
X014229Y002530D02*
X015530Y002530D01*
X015530Y002649D02*
X014111Y002649D01*
X014088Y002767D02*
X015530Y002767D01*
X015501Y002886D02*
X014207Y002886D01*
X014325Y003004D02*
X015515Y003004D01*
X015530Y003123D02*
X014444Y003123D01*
X014562Y003241D02*
X015530Y003241D01*
X015530Y003360D02*
X014681Y003360D01*
X014799Y003478D02*
X015530Y003478D01*
X015530Y003597D02*
X014918Y003597D01*
X015036Y003715D02*
X015530Y003715D01*
X015530Y003834D02*
X015155Y003834D01*
X015273Y003952D02*
X015530Y003952D01*
X015530Y004071D02*
X015392Y004071D01*
X013783Y002943D02*
X013730Y002889D01*
X010918Y002889D01*
X010864Y002943D01*
X010878Y002943D01*
X013783Y002943D01*
X013100Y004228D02*
X011744Y004228D01*
X011647Y004325D01*
X011647Y005333D01*
X011771Y005209D01*
X011989Y005119D01*
X012225Y005119D01*
X012443Y005209D01*
X012609Y005376D01*
X012700Y005593D01*
X012700Y005829D01*
X012609Y006047D01*
X012443Y006213D01*
X012225Y006304D01*
X011989Y006304D01*
X011771Y006213D01*
X011647Y006089D01*
X011647Y006987D01*
X011771Y006862D01*
X011989Y006772D01*
X012225Y006772D01*
X012443Y006862D01*
X012609Y007029D01*
X012700Y007247D01*
X012700Y007483D01*
X012609Y007700D01*
X012443Y007867D01*
X012331Y007913D01*
X013064Y007913D01*
X013168Y007810D01*
X013168Y004582D01*
X013282Y004467D01*
X013196Y004381D01*
X013196Y004324D01*
X013100Y004228D01*
X013180Y004308D02*
X011665Y004308D01*
X011647Y004426D02*
X013241Y004426D01*
X013205Y004545D02*
X012135Y004545D01*
X012157Y004554D02*
X012241Y004637D01*
X012286Y004747D01*
X012286Y004865D01*
X012241Y004974D01*
X012157Y005058D01*
X012048Y005103D01*
X011930Y005103D01*
X011821Y005058D01*
X011737Y004974D01*
X011692Y004865D01*
X011692Y004747D01*
X011737Y004637D01*
X011821Y004554D01*
X011930Y004509D01*
X012048Y004509D01*
X012157Y004554D01*
X012252Y004663D02*
X013168Y004663D01*
X013168Y004782D02*
X012286Y004782D01*
X012272Y004900D02*
X013168Y004900D01*
X013168Y005019D02*
X012196Y005019D01*
X012269Y005137D02*
X013168Y005137D01*
X013168Y005256D02*
X012489Y005256D01*
X012608Y005374D02*
X013168Y005374D01*
X013168Y005493D02*
X012658Y005493D01*
X012700Y005611D02*
X013168Y005611D01*
X013168Y005730D02*
X012700Y005730D01*
X012692Y005848D02*
X013168Y005848D01*
X013168Y005967D02*
X012643Y005967D01*
X012571Y006085D02*
X013168Y006085D01*
X013168Y006204D02*
X012453Y006204D01*
X012481Y006280D02*
X012599Y006280D01*
X012708Y006325D01*
X012792Y006409D01*
X012837Y006518D01*
X012837Y006636D01*
X012792Y006746D01*
X012708Y006829D01*
X012599Y006874D01*
X012481Y006874D01*
X012372Y006829D01*
X012288Y006746D01*
X012243Y006636D01*
X012243Y006518D01*
X012288Y006409D01*
X012372Y006325D01*
X012481Y006280D01*
X012380Y006322D02*
X011647Y006322D01*
X011647Y006204D02*
X011761Y006204D01*
X011647Y006441D02*
X012275Y006441D01*
X012243Y006559D02*
X011647Y006559D01*
X011647Y006678D02*
X012260Y006678D01*
X012282Y006796D02*
X012339Y006796D01*
X012495Y006915D02*
X013168Y006915D01*
X013168Y007033D02*
X012611Y007033D01*
X012660Y007152D02*
X013168Y007152D01*
X013168Y007270D02*
X012700Y007270D01*
X012700Y007389D02*
X013168Y007389D01*
X013168Y007507D02*
X012689Y007507D01*
X012640Y007626D02*
X013168Y007626D01*
X013168Y007744D02*
X012566Y007744D01*
X012447Y007863D02*
X013115Y007863D01*
X013168Y006796D02*
X012742Y006796D01*
X012820Y006678D02*
X013168Y006678D01*
X013168Y006559D02*
X012837Y006559D01*
X012805Y006441D02*
X013168Y006441D01*
X013168Y006322D02*
X012700Y006322D01*
X011932Y006796D02*
X011647Y006796D01*
X011647Y006915D02*
X011719Y006915D01*
X010480Y006474D02*
X010480Y003908D01*
X010580Y003809D01*
X011106Y003283D01*
X010878Y003283D01*
X009127Y005034D01*
X009127Y006438D01*
X009220Y006438D01*
X009220Y006333D01*
X009343Y006210D01*
X009484Y006210D01*
X009321Y006047D01*
X009231Y005829D01*
X009231Y005593D01*
X009321Y005376D01*
X009488Y005209D01*
X009706Y005119D01*
X009941Y005119D01*
X010159Y005209D01*
X010326Y005376D01*
X010416Y005593D01*
X010416Y005829D01*
X010326Y006047D01*
X010159Y006213D01*
X010159Y006214D01*
X010303Y006214D01*
X010423Y006334D01*
X010423Y006438D01*
X010444Y006438D01*
X010480Y006474D01*
X010480Y006441D02*
X010447Y006441D01*
X010480Y006322D02*
X010411Y006322D01*
X010480Y006204D02*
X010169Y006204D01*
X010288Y006085D02*
X010480Y006085D01*
X010480Y005967D02*
X010359Y005967D01*
X010408Y005848D02*
X010480Y005848D01*
X010480Y005730D02*
X010416Y005730D01*
X010416Y005611D02*
X010480Y005611D01*
X010480Y005493D02*
X010374Y005493D01*
X010324Y005374D02*
X010480Y005374D01*
X010480Y005256D02*
X010206Y005256D01*
X009986Y005137D02*
X010480Y005137D01*
X010480Y005019D02*
X009143Y005019D01*
X009127Y005137D02*
X009662Y005137D01*
X009441Y005256D02*
X009127Y005256D01*
X009127Y005374D02*
X009323Y005374D01*
X009273Y005493D02*
X009127Y005493D01*
X009127Y005611D02*
X009231Y005611D01*
X009231Y005730D02*
X009127Y005730D01*
X009127Y005848D02*
X009239Y005848D01*
X009288Y005967D02*
X009127Y005967D01*
X009127Y006085D02*
X009360Y006085D01*
X009478Y006204D02*
X009127Y006204D01*
X009127Y006322D02*
X009231Y006322D01*
X009629Y006322D02*
X010024Y006322D01*
X009909Y006441D02*
X009660Y006441D01*
X009727Y006559D02*
X009841Y006559D01*
X009841Y006678D02*
X009727Y006678D01*
X009727Y006796D02*
X009841Y006796D01*
X009841Y006915D02*
X009727Y006915D01*
X009695Y007033D02*
X009873Y007033D01*
X009867Y007152D02*
X009701Y007152D01*
X009727Y007270D02*
X009841Y007270D01*
X009841Y007389D02*
X009727Y007389D01*
X009727Y007507D02*
X009841Y007507D01*
X009841Y007626D02*
X009727Y007626D01*
X009550Y007744D02*
X010480Y007744D01*
X010480Y007863D02*
X009550Y007863D01*
X009550Y007981D02*
X010480Y007981D01*
X010480Y008100D02*
X009550Y008100D01*
X009514Y008218D02*
X010480Y008218D01*
X010480Y008337D02*
X009528Y008337D01*
X009550Y008455D02*
X010480Y008455D01*
X010480Y008574D02*
X009550Y008574D01*
X009550Y008692D02*
X010480Y008692D01*
X010435Y008811D02*
X009550Y008811D01*
X009090Y008929D02*
X010080Y008929D01*
X009962Y009048D02*
X008972Y009048D01*
X008853Y009166D02*
X009775Y009166D01*
X009646Y009285D02*
X008748Y009285D01*
X008764Y009403D02*
X009190Y009403D01*
X009133Y009522D02*
X008715Y009522D01*
X008458Y009640D02*
X009133Y009640D01*
X009430Y009727D02*
X009902Y009294D01*
X010296Y009294D01*
X009802Y009640D02*
X009791Y009640D01*
X009802Y009759D02*
X009766Y009759D01*
X009766Y009877D02*
X009802Y009877D01*
X009804Y009996D02*
X009764Y009996D01*
X009670Y010114D02*
X009879Y010114D01*
X009818Y010233D02*
X009751Y010233D01*
X009766Y010351D02*
X009802Y010351D01*
X009802Y010470D02*
X009766Y010470D01*
X009766Y010588D02*
X009802Y010588D01*
X009802Y010707D02*
X009766Y010707D01*
X009722Y010825D02*
X009846Y010825D01*
X009410Y011536D02*
X009324Y011536D01*
X009325Y012958D02*
X009338Y012958D01*
X009412Y013077D02*
X009251Y013077D01*
X009684Y013077D02*
X009727Y013077D01*
X009999Y013077D02*
X010177Y013077D01*
X010162Y013195D02*
X010115Y013195D01*
X010121Y013314D02*
X010156Y013314D01*
X010156Y013432D02*
X010121Y013432D01*
X010121Y013551D02*
X010156Y013551D01*
X010156Y013669D02*
X010121Y013669D01*
X010073Y013788D02*
X010211Y013788D01*
X010736Y013788D02*
X010888Y013788D01*
X008276Y014854D02*
X006851Y014854D01*
X006970Y014973D02*
X008276Y014973D01*
X008276Y015091D02*
X007048Y015091D01*
X007097Y015210D02*
X008276Y015210D01*
X008276Y015328D02*
X007109Y015328D01*
X007109Y015447D02*
X008242Y015447D01*
X008240Y015565D02*
X007072Y015565D01*
X007023Y015684D02*
X008304Y015684D01*
X006169Y017106D02*
X004096Y017106D01*
X004153Y017224D02*
X006177Y017224D01*
X003652Y016532D02*
X003652Y016532D01*
X003652Y016532D01*
X003209Y016276D02*
X011346Y016276D01*
X011364Y016158D02*
X001071Y016158D01*
X001071Y016276D02*
X002002Y016276D01*
X002197Y016200D02*
X002197Y016200D01*
X002708Y016161D02*
X002708Y016161D01*
X003208Y016275D02*
X003208Y016275D01*
X001720Y016387D02*
X001720Y016387D01*
X001710Y016395D02*
X001071Y016395D01*
X001071Y016513D02*
X001561Y016513D01*
X001413Y016632D02*
X001071Y016632D01*
X001071Y016750D02*
X001289Y016750D01*
X001319Y016707D02*
X001319Y016707D01*
X001319Y016707D01*
X001208Y016869D02*
X001071Y016869D01*
X001071Y016987D02*
X001128Y016987D01*
X001071Y009403D02*
X001522Y009403D01*
X001403Y009285D02*
X001071Y009285D01*
X001071Y009166D02*
X001323Y009166D01*
X001274Y009048D02*
X001071Y009048D01*
X001071Y008929D02*
X001253Y008929D01*
X001253Y008811D02*
X001071Y008811D01*
X001071Y008692D02*
X001275Y008692D01*
X001324Y008574D02*
X001071Y008574D01*
X001071Y008455D02*
X001405Y008455D01*
X001524Y008337D02*
X001071Y008337D01*
X001071Y007744D02*
X001545Y007744D01*
X001418Y007626D02*
X001071Y007626D01*
X001071Y007507D02*
X001329Y007507D01*
X001280Y007389D02*
X001071Y007389D01*
X001071Y007270D02*
X001253Y007270D01*
X001253Y007152D02*
X001071Y007152D01*
X001071Y007033D02*
X001269Y007033D01*
X001318Y006915D02*
X001071Y006915D01*
X001071Y006796D02*
X001391Y006796D01*
X001509Y006678D02*
X001071Y006678D01*
X001071Y006559D02*
X005393Y006559D01*
X005460Y006441D02*
X001071Y006441D01*
X001071Y006322D02*
X004901Y006322D01*
X004889Y006310D02*
X004889Y006136D01*
X005012Y006013D01*
X005186Y006013D01*
X005309Y006136D01*
X005309Y006310D01*
X005186Y006433D01*
X005012Y006433D01*
X004889Y006310D01*
X004889Y006204D02*
X001071Y006204D01*
X001071Y006085D02*
X004940Y006085D01*
X005258Y006085D02*
X006740Y006085D01*
X006740Y005967D02*
X001071Y005967D01*
X001071Y005848D02*
X006740Y005848D01*
X006740Y005730D02*
X001071Y005730D01*
X001071Y005611D02*
X006740Y005611D01*
X006740Y005493D02*
X001071Y005493D01*
X001071Y005374D02*
X006740Y005374D01*
X006740Y005256D02*
X001992Y005256D01*
X001956Y005274D02*
X001861Y005304D01*
X001773Y005318D01*
X001773Y004748D01*
X001653Y004748D01*
X001653Y005318D01*
X001565Y005304D01*
X001471Y005274D01*
X001382Y005229D01*
X001301Y005170D01*
X001231Y005100D01*
X001172Y005019D01*
X001127Y004930D01*
X001096Y004836D01*
X001083Y004748D01*
X001653Y004748D01*
X001653Y004628D01*
X001083Y004628D01*
X001096Y004539D01*
X001127Y004445D01*
X001172Y004356D01*
X001231Y004276D01*
X001301Y004205D01*
X001382Y004147D01*
X001471Y004101D01*
X001565Y004071D01*
X001653Y004057D01*
X001653Y004628D01*
X001773Y004628D01*
X001773Y004748D01*
X002344Y004748D01*
X002330Y004836D01*
X002300Y004930D01*
X002254Y005019D01*
X002196Y005100D01*
X002125Y005170D01*
X002045Y005229D01*
X001956Y005274D01*
X001773Y005256D02*
X001653Y005256D01*
X001653Y005137D02*
X001773Y005137D01*
X001773Y005019D02*
X001653Y005019D01*
X001653Y004900D02*
X001773Y004900D01*
X001773Y004782D02*
X001653Y004782D01*
X001653Y004663D02*
X001071Y004663D01*
X001071Y004545D02*
X001096Y004545D01*
X001071Y004426D02*
X001137Y004426D01*
X001071Y004308D02*
X001208Y004308D01*
X001324Y004189D02*
X001071Y004189D01*
X001071Y004071D02*
X001566Y004071D01*
X001653Y004071D02*
X001773Y004071D01*
X001773Y004057D02*
X001861Y004071D01*
X006740Y004071D01*
X006740Y004189D02*
X002103Y004189D01*
X002125Y004205D02*
X002196Y004276D01*
X002254Y004356D01*
X002300Y004445D01*
X002330Y004539D01*
X002344Y004628D01*
X001773Y004628D01*
X001773Y004057D01*
X001861Y004071D02*
X001956Y004101D01*
X002045Y004147D01*
X002125Y004205D01*
X002219Y004308D02*
X006740Y004308D01*
X006740Y004426D02*
X002290Y004426D01*
X002331Y004545D02*
X006740Y004545D01*
X006740Y004663D02*
X001773Y004663D01*
X001773Y004545D02*
X001653Y004545D01*
X001653Y004426D02*
X001773Y004426D01*
X001773Y004308D02*
X001653Y004308D01*
X001653Y004189D02*
X001773Y004189D01*
X001967Y003715D02*
X001071Y003715D01*
X001071Y003597D02*
X001692Y003597D01*
X001544Y003478D02*
X001071Y003478D01*
X001071Y003360D02*
X001395Y003360D01*
X001319Y003298D02*
X001319Y003298D01*
X001319Y003298D01*
X001280Y003241D02*
X001071Y003241D01*
X001071Y003123D02*
X001199Y003123D01*
X001118Y003004D02*
X001071Y003004D01*
X001071Y003834D02*
X002572Y003834D01*
X002708Y003844D02*
X002708Y003844D01*
X002753Y003834D02*
X006740Y003834D01*
X006740Y003952D02*
X001071Y003952D01*
X001071Y004782D02*
X001088Y004782D01*
X001071Y004900D02*
X001117Y004900D01*
X001071Y005019D02*
X001172Y005019D01*
X001268Y005137D02*
X001071Y005137D01*
X001071Y005256D02*
X001435Y005256D01*
X002158Y005137D02*
X006740Y005137D01*
X006740Y005019D02*
X002255Y005019D01*
X002309Y004900D02*
X006740Y004900D01*
X006740Y004782D02*
X002339Y004782D01*
X003208Y003730D02*
X003208Y003730D01*
X003233Y003715D02*
X006740Y003715D01*
X006740Y003597D02*
X003438Y003597D01*
X003644Y003478D02*
X006740Y003478D01*
X006740Y003360D02*
X003757Y003360D01*
X003652Y003473D02*
X003652Y003473D01*
X003867Y003241D02*
X006740Y003241D01*
X006740Y003123D02*
X003977Y003123D01*
X004046Y003004D02*
X006857Y003004D01*
X006840Y003021D02*
X006840Y003021D01*
X006976Y002886D02*
X004103Y002886D01*
X004160Y002767D02*
X007094Y002767D01*
X007213Y002649D02*
X004217Y002649D01*
X004239Y002530D02*
X007331Y002530D01*
X007450Y002412D02*
X004257Y002412D01*
X004275Y002293D02*
X007568Y002293D01*
X009053Y001722D02*
X009303Y001472D01*
X010383Y001472D01*
X010634Y001722D01*
X009053Y001722D01*
X009075Y001701D02*
X010612Y001701D01*
X010493Y001582D02*
X009193Y001582D01*
X010802Y003360D02*
X011029Y003360D01*
X010911Y003478D02*
X010683Y003478D01*
X010792Y003597D02*
X010565Y003597D01*
X010674Y003715D02*
X010446Y003715D01*
X010555Y003834D02*
X010328Y003834D01*
X010209Y003952D02*
X010480Y003952D01*
X010480Y004071D02*
X010091Y004071D01*
X009972Y004189D02*
X010480Y004189D01*
X010480Y004308D02*
X009854Y004308D01*
X009735Y004426D02*
X010480Y004426D01*
X010480Y004545D02*
X009617Y004545D01*
X009498Y004663D02*
X010480Y004663D01*
X010480Y004782D02*
X009380Y004782D01*
X009261Y004900D02*
X010480Y004900D01*
X011647Y004900D02*
X011706Y004900D01*
X011692Y004782D02*
X011647Y004782D01*
X011647Y004663D02*
X011726Y004663D01*
X011647Y004545D02*
X011843Y004545D01*
X011782Y005019D02*
X011647Y005019D01*
X011647Y005137D02*
X011945Y005137D01*
X011725Y005256D02*
X011647Y005256D01*
X008898Y007152D02*
X008742Y007152D01*
X008623Y007270D02*
X009016Y007270D01*
X009054Y007389D02*
X008585Y007389D01*
X008585Y007507D02*
X009054Y007507D01*
X008940Y007626D02*
X008699Y007626D01*
X008763Y007744D02*
X008877Y007744D01*
X008877Y007863D02*
X008763Y007863D01*
X008763Y007981D02*
X008877Y007981D01*
X008877Y008100D02*
X008763Y008100D01*
X008727Y008218D02*
X008913Y008218D01*
X008899Y008337D02*
X008741Y008337D01*
X008763Y008455D02*
X008877Y008455D01*
X008877Y008574D02*
X008763Y008574D01*
X008763Y008692D02*
X008846Y008692D01*
X007016Y008692D02*
X006825Y008692D01*
X006884Y008574D02*
X007016Y008574D01*
X007016Y008455D02*
X006880Y008455D01*
X006844Y008337D02*
X007016Y008337D01*
X007016Y008218D02*
X006844Y008218D01*
X006844Y008100D02*
X007016Y008100D01*
X007016Y007981D02*
X006844Y007981D01*
X006844Y007863D02*
X007016Y007863D01*
X007016Y007744D02*
X006844Y007744D01*
X006853Y007626D02*
X007016Y007626D01*
X007016Y007507D02*
X006853Y007507D01*
X006853Y007389D02*
X007016Y007389D01*
X007016Y007270D02*
X006853Y007270D01*
X006827Y007152D02*
X007016Y007152D01*
X007016Y007033D02*
X006821Y007033D01*
X006853Y006915D02*
X007016Y006915D01*
X007016Y006796D02*
X006853Y006796D01*
X006853Y006678D02*
X007016Y006678D01*
X007016Y006559D02*
X006933Y006559D01*
X006689Y006322D02*
X005939Y006322D01*
X005889Y006204D02*
X006740Y006204D01*
X006247Y006441D02*
X005998Y006441D01*
X006066Y006559D02*
X006180Y006559D01*
X006180Y006678D02*
X006066Y006678D01*
X006066Y006796D02*
X006180Y006796D01*
X006180Y006915D02*
X006066Y006915D01*
X006034Y007033D02*
X006212Y007033D01*
X006206Y007152D02*
X006040Y007152D01*
X006066Y007270D02*
X006180Y007270D01*
X006180Y007389D02*
X006066Y007389D01*
X006066Y007507D02*
X006180Y007507D01*
X006180Y007626D02*
X006066Y007626D01*
X006057Y007744D02*
X006504Y007744D01*
X006504Y007863D02*
X006091Y007863D01*
X006097Y007981D02*
X006504Y007981D01*
X005519Y006322D02*
X005297Y006322D01*
X005309Y006204D02*
X005570Y006204D01*
X008363Y006204D02*
X008512Y006204D01*
X008512Y006322D02*
X008376Y006322D01*
D24*
X011831Y004294D03*
X010257Y001538D03*
X008524Y009373D03*
X006871Y010475D03*
X008800Y012207D03*
X011241Y012955D03*
D25*
X010670Y013329D02*
X011477Y014136D01*
X019902Y014136D01*
X021202Y015436D01*
X022461Y015436D01*
X022580Y015672D02*
X024863Y015672D01*
X023682Y014963D02*
X023446Y014963D01*
X023170Y014845D02*
X023170Y014294D01*
X024548Y012916D01*
X025965Y012916D01*
X023997Y012798D02*
X023997Y012680D01*
X023997Y012798D02*
X022658Y014136D01*
X022658Y014924D01*
X022816Y015199D02*
X022343Y015199D01*
X022068Y014924D01*
X022816Y015199D02*
X023170Y014845D01*
X023446Y014530D02*
X023721Y014530D01*
X023898Y014412D02*
X023800Y014294D01*
X023898Y014412D02*
X024686Y014412D01*
X022658Y013388D02*
X022658Y012995D01*
X022461Y013191D02*
X021989Y013664D01*
X013406Y013664D01*
X013131Y013664D01*
X011438Y011971D01*
X009351Y011971D01*
X009154Y011774D01*
X009154Y011380D01*
X009509Y011735D02*
X016674Y011735D01*
X017186Y011223D01*
X017501Y010908D01*
X024312Y010908D01*
X026713Y008506D01*
X028682Y008506D01*
X028249Y010436D02*
X025178Y010436D01*
X024469Y011144D01*
X021477Y011144D01*
X020808Y011814D01*
X020335Y011814D01*
X020020Y011499D01*
X019706Y011380D02*
X019371Y011380D01*
X019312Y011380D01*
X018564Y011380D02*
X018170Y011774D01*
X016989Y011774D01*
X016792Y011971D01*
X011871Y011971D01*
X012068Y012207D02*
X016910Y012207D01*
X017107Y012010D01*
X018446Y012010D01*
X018603Y012168D01*
X019509Y012247D02*
X019745Y012483D01*
X019981Y012443D02*
X020335Y012089D01*
X020887Y012089D01*
X021595Y011380D01*
X024509Y011380D01*
X022737Y012483D02*
X022658Y012483D01*
X022265Y012483D01*
X022107Y012483D01*
X021635Y012640D02*
X021635Y013270D01*
X022146Y013900D02*
X011831Y013900D01*
X011595Y013900D01*
X009902Y012207D01*
X009233Y012207D01*
X008918Y011892D01*
X008918Y010042D01*
X008288Y009254D02*
X008446Y009097D01*
X008682Y009097D01*
X009056Y008723D01*
X008406Y008743D02*
X008013Y009136D01*
X008013Y011066D01*
X008328Y011380D01*
X008524Y011577D02*
X008564Y011538D01*
X008564Y011223D01*
X008288Y010947D01*
X008288Y009254D01*
X006674Y008546D02*
X006674Y007640D01*
X005887Y007522D02*
X005887Y007955D01*
X005729Y006754D02*
X005729Y006341D01*
X006517Y006735D02*
X006910Y006341D01*
X006910Y003191D01*
X009036Y001066D01*
X010650Y001066D01*
X011359Y001774D01*
X013170Y001774D01*
X013406Y001538D01*
X013721Y002010D02*
X014194Y001538D01*
X014587Y001538D02*
X013879Y002247D01*
X010965Y002247D01*
X010611Y001892D01*
X009115Y001892D01*
X007461Y003546D01*
X007461Y011302D01*
X008603Y012443D01*
X009430Y012443D01*
X009863Y012877D01*
X009863Y012916D01*
X009548Y012916D02*
X009312Y012680D01*
X008446Y012680D01*
X007186Y011420D01*
X007186Y003349D01*
X009233Y001302D01*
X010454Y001302D01*
X011162Y002010D01*
X013721Y002010D01*
X014036Y002483D02*
X010532Y002483D01*
X010217Y002168D01*
X009272Y002168D01*
X007737Y003703D01*
X007737Y011184D01*
X008328Y011774D01*
X007540Y012562D02*
X005749Y010770D01*
X002501Y010770D01*
X001398Y011873D01*
X001398Y011380D02*
X002265Y010514D01*
X005887Y010514D01*
X008288Y012916D01*
X009115Y012916D01*
X009784Y012443D02*
X010670Y013329D01*
X009863Y013546D02*
X009863Y013861D01*
X010493Y014373D02*
X014391Y014373D01*
X014509Y014373D01*
X015217Y014373D02*
X015454Y014373D01*
X015965Y014373D01*
X016556Y014373D01*
X016674Y014373D01*
X017461Y014373D02*
X018328Y014373D01*
X019706Y014373D01*
X019272Y014609D02*
X019272Y015042D01*
X019312Y015908D02*
X017580Y015908D01*
X016831Y015160D01*
X016831Y015003D01*
X015965Y015829D02*
X015965Y016105D01*
X016871Y016380D02*
X017107Y016380D01*
X019312Y015908D02*
X026950Y015908D01*
X027855Y015357D02*
X027855Y017207D01*
X027776Y017286D01*
X027855Y015357D02*
X030887Y012325D01*
X022658Y013388D02*
X022146Y013900D01*
X020887Y012601D02*
X020532Y012601D01*
X019706Y013428D02*
X019469Y013191D01*
X018209Y013191D01*
X018013Y013428D02*
X015454Y013428D01*
X017146Y012365D02*
X017383Y012601D01*
X017383Y012877D01*
X018013Y013428D02*
X019076Y013428D01*
X017619Y011577D02*
X017816Y011380D01*
X020650Y011262D02*
X020965Y011262D01*
X021083Y011144D01*
X014706Y015829D02*
X014469Y015593D01*
X013721Y015593D01*
X012973Y014845D01*
X012383Y014963D02*
X013249Y015829D01*
X013406Y015829D01*
X012934Y015829D02*
X012737Y016026D01*
X011792Y016262D02*
X011556Y016262D01*
X011477Y015672D02*
X011477Y015396D01*
X012028Y014609D02*
X012383Y014963D01*
X008446Y014412D02*
X008446Y015534D01*
X006556Y012365D02*
X006753Y012168D01*
X006556Y012365D02*
X002776Y012365D01*
X004351Y009569D02*
X004351Y006932D01*
X006517Y006754D02*
X006517Y006735D01*
X008170Y006577D02*
X008170Y006302D01*
X008682Y006971D02*
X008682Y004884D01*
X010847Y002719D01*
X013800Y002719D01*
X015375Y004294D01*
X014981Y004294D02*
X013800Y003113D01*
X010808Y003113D01*
X008957Y004963D01*
X008957Y006971D01*
X009312Y007325D01*
X009272Y007601D02*
X009272Y007877D01*
X009213Y007936D01*
X008426Y007936D02*
X008367Y007877D01*
X008367Y007601D01*
X008328Y007325D02*
X008682Y006971D01*
X009430Y006695D02*
X009430Y006420D01*
X010217Y006420D02*
X010217Y006656D01*
X010217Y006774D01*
X010375Y007443D02*
X010650Y007443D01*
X010650Y010908D01*
X010926Y010908D02*
X010926Y004058D01*
X011398Y003585D01*
X013485Y003585D01*
X014194Y004294D01*
X014587Y004294D02*
X013643Y003349D01*
X011280Y003349D01*
X010650Y003979D01*
X010650Y007443D01*
X011477Y010396D02*
X011477Y004254D01*
X011674Y004058D01*
X013170Y004058D01*
X013406Y004294D01*
X013800Y004294D02*
X013328Y003821D01*
X011517Y003821D01*
X011202Y004136D01*
X011202Y011184D01*
X011871Y010790D02*
X011477Y010396D01*
X014036Y002483D02*
X014981Y001538D01*
X005473Y020239D02*
X005473Y020888D01*
X005434Y020928D01*
X004804Y020239D02*
X004253Y020239D01*
X003702Y020239D01*
X003032Y020239D02*
X003032Y020888D01*
X003072Y020928D01*
D26*
X011477Y015396D02*
X011615Y015258D01*
X011615Y015199D01*
X012284Y015199D02*
X012383Y015101D01*
X012383Y014963D01*
X012678Y016026D02*
X012737Y016026D01*
X012678Y016026D02*
X012599Y016105D01*
X011930Y016125D02*
X011930Y016105D01*
X011930Y016125D02*
X011792Y016262D01*
X014391Y014471D02*
X014391Y014373D01*
X014391Y014471D02*
X014450Y014530D01*
X015119Y014530D02*
X015217Y014432D01*
X015217Y014373D01*
X015887Y014510D02*
X015965Y014432D01*
X015965Y014373D01*
X016556Y014373D02*
X016556Y014432D01*
X016654Y014530D01*
X017324Y014530D02*
X017461Y014392D01*
X017461Y014373D01*
X018288Y014550D02*
X018328Y014510D01*
X018328Y014373D01*
X019272Y015042D02*
X019272Y015101D01*
X019391Y015101D01*
X019391Y015770D02*
X019312Y015849D01*
X019312Y015908D01*
X016871Y016361D02*
X016733Y016223D01*
X016871Y016361D02*
X016871Y016380D01*
X016064Y016223D02*
X016064Y016203D01*
X015965Y016105D01*
X013406Y013664D02*
X013406Y013605D01*
X013328Y013526D01*
X011831Y013802D02*
X011831Y013900D01*
X011831Y013802D02*
X011792Y013762D01*
X010670Y013329D02*
X010611Y013329D01*
X010473Y013467D01*
X009863Y013546D02*
X009804Y013487D01*
X009804Y013467D01*
X010456Y010711D02*
X010500Y010711D01*
X010500Y008971D01*
X010414Y009058D01*
X010178Y009058D01*
X010102Y009134D01*
X010173Y009134D01*
X010213Y009094D01*
X010379Y009094D01*
X010496Y009211D01*
X010496Y009377D01*
X010435Y009437D01*
X010446Y009456D01*
X010456Y009492D01*
X010456Y009687D01*
X010159Y009687D01*
X010159Y009767D01*
X010456Y009767D01*
X010456Y009962D01*
X010446Y009998D01*
X010428Y010029D01*
X010402Y010055D01*
X010370Y010074D01*
X010334Y010083D01*
X010159Y010083D01*
X010159Y009767D01*
X010079Y009767D01*
X010079Y010083D01*
X010060Y010083D01*
X010060Y010158D01*
X010079Y010158D01*
X010079Y010474D01*
X010159Y010474D01*
X010159Y010158D01*
X010334Y010158D01*
X010370Y010167D01*
X010402Y010186D01*
X010428Y010212D01*
X010446Y010244D01*
X010456Y010279D01*
X010456Y010474D01*
X010159Y010474D01*
X010159Y010554D01*
X010456Y010554D01*
X010456Y010711D01*
X010456Y010679D02*
X010500Y010679D01*
X010500Y010601D02*
X010456Y010601D01*
X010500Y010522D02*
X010159Y010522D01*
X010159Y010444D02*
X010079Y010444D01*
X010079Y010365D02*
X010159Y010365D01*
X010159Y010287D02*
X010079Y010287D01*
X010079Y010208D02*
X010159Y010208D01*
X010060Y010130D02*
X010500Y010130D01*
X010500Y010208D02*
X010424Y010208D01*
X010456Y010287D02*
X010500Y010287D01*
X010500Y010365D02*
X010456Y010365D01*
X010456Y010444D02*
X010500Y010444D01*
X010500Y010051D02*
X010406Y010051D01*
X010453Y009973D02*
X010500Y009973D01*
X010500Y009894D02*
X010456Y009894D01*
X010456Y009816D02*
X010500Y009816D01*
X010500Y009737D02*
X010159Y009737D01*
X010159Y009816D02*
X010079Y009816D01*
X010079Y009894D02*
X010159Y009894D01*
X010159Y009973D02*
X010079Y009973D01*
X010079Y010051D02*
X010159Y010051D01*
X010456Y009659D02*
X010500Y009659D01*
X010500Y009580D02*
X010456Y009580D01*
X010456Y009502D02*
X010500Y009502D01*
X010500Y009423D02*
X010450Y009423D01*
X010496Y009345D02*
X010500Y009345D01*
X010496Y009266D02*
X010500Y009266D01*
X010500Y009188D02*
X010473Y009188D01*
X010500Y009109D02*
X010394Y009109D01*
X010441Y009031D02*
X010500Y009031D01*
X010198Y009109D02*
X010127Y009109D01*
X009213Y008605D02*
X009174Y008605D01*
X009056Y008723D01*
X008426Y008723D02*
X008426Y008605D01*
X008426Y008723D02*
X008406Y008743D01*
X009430Y009727D02*
X009450Y009727D01*
X009430Y010396D02*
X009430Y010514D01*
X009450Y010514D01*
X011627Y010334D02*
X011893Y010600D01*
X011950Y010600D01*
X012061Y010711D01*
X024233Y010711D01*
X029469Y005475D01*
X034423Y005475D01*
X034423Y004403D01*
X034490Y004241D01*
X034614Y004118D01*
X035604Y003127D01*
X035604Y002829D01*
X035604Y002829D01*
X035480Y003086D01*
X035480Y003086D01*
X035136Y003458D01*
X035136Y003458D01*
X034697Y003711D01*
X034203Y003824D01*
X033697Y003786D01*
X033226Y003601D01*
X032829Y003285D01*
X032544Y002866D01*
X032395Y002382D01*
X032395Y001875D01*
X032544Y001391D01*
X032544Y001391D01*
X032829Y000972D01*
X032829Y000972D01*
X032829Y000972D01*
X033226Y000656D01*
X033369Y000600D01*
X015690Y000600D01*
X015690Y004299D01*
X015691Y004300D01*
X015691Y008461D01*
X015644Y008508D01*
X014857Y009295D01*
X014790Y009295D01*
X014744Y009248D01*
X014744Y009182D01*
X015531Y008395D01*
X015531Y004451D01*
X015486Y004451D01*
X015454Y004484D01*
X015296Y004484D01*
X015264Y004451D01*
X015092Y004451D01*
X015060Y004484D01*
X014902Y004484D01*
X014870Y004451D01*
X014699Y004451D01*
X014666Y004484D01*
X014509Y004484D01*
X014476Y004451D01*
X014305Y004451D01*
X014272Y004484D01*
X014115Y004484D01*
X014082Y004451D01*
X013911Y004451D01*
X013879Y004484D01*
X013721Y004484D01*
X013689Y004451D01*
X013524Y004451D01*
X013328Y004648D01*
X013328Y007877D01*
X013131Y008073D01*
X011627Y008073D01*
X011627Y010334D01*
X011658Y010365D02*
X024579Y010365D01*
X024501Y010444D02*
X011737Y010444D01*
X011815Y010522D02*
X024422Y010522D01*
X024344Y010601D02*
X011950Y010601D01*
X012029Y010679D02*
X024265Y010679D01*
X024658Y010287D02*
X011627Y010287D01*
X011627Y010208D02*
X024736Y010208D01*
X024815Y010130D02*
X011627Y010130D01*
X011627Y010051D02*
X024893Y010051D01*
X024972Y009973D02*
X011627Y009973D01*
X011627Y009894D02*
X025050Y009894D01*
X025129Y009816D02*
X011627Y009816D01*
X011627Y009737D02*
X025207Y009737D01*
X025286Y009659D02*
X011627Y009659D01*
X011627Y009580D02*
X025364Y009580D01*
X025443Y009502D02*
X011627Y009502D01*
X011627Y009423D02*
X025521Y009423D01*
X025600Y009345D02*
X011627Y009345D01*
X011627Y009266D02*
X014761Y009266D01*
X014744Y009188D02*
X011627Y009188D01*
X011627Y009109D02*
X014817Y009109D01*
X014895Y009031D02*
X011627Y009031D01*
X011627Y008952D02*
X014974Y008952D01*
X015052Y008874D02*
X011627Y008874D01*
X011627Y008795D02*
X015131Y008795D01*
X015209Y008717D02*
X011627Y008717D01*
X011627Y008638D02*
X015288Y008638D01*
X015366Y008560D02*
X011627Y008560D01*
X011627Y008481D02*
X015445Y008481D01*
X015523Y008403D02*
X011627Y008403D01*
X011627Y008324D02*
X015531Y008324D01*
X015531Y008246D02*
X011627Y008246D01*
X011627Y008167D02*
X015531Y008167D01*
X015531Y008089D02*
X011627Y008089D01*
X010375Y007443D02*
X010355Y007424D01*
X010178Y007424D01*
X010178Y006754D02*
X010178Y006656D01*
X010217Y006656D01*
X009430Y006695D02*
X009391Y006735D01*
X009391Y006754D01*
X009312Y007325D02*
X009391Y007404D01*
X009391Y007424D01*
X009391Y007483D01*
X009272Y007601D01*
X008367Y007601D02*
X008249Y007483D01*
X008249Y007424D01*
X008328Y007345D01*
X008328Y007325D01*
X008249Y006754D02*
X008249Y006656D01*
X008170Y006577D01*
X006674Y007640D02*
X006517Y007483D01*
X006517Y007424D01*
X005887Y007522D02*
X005788Y007424D01*
X005729Y007424D01*
X013194Y008010D02*
X015531Y008010D01*
X015531Y007932D02*
X013273Y007932D01*
X013328Y007853D02*
X015531Y007853D01*
X015531Y007775D02*
X013328Y007775D01*
X013328Y007696D02*
X015531Y007696D01*
X015531Y007618D02*
X013328Y007618D01*
X013328Y007539D02*
X015531Y007539D01*
X015531Y007461D02*
X013328Y007461D01*
X013328Y007382D02*
X015531Y007382D01*
X015531Y007304D02*
X013328Y007304D01*
X013328Y007225D02*
X015531Y007225D01*
X015531Y007147D02*
X013328Y007147D01*
X013328Y007068D02*
X015531Y007068D01*
X015531Y006990D02*
X013328Y006990D01*
X013328Y006911D02*
X015531Y006911D01*
X015531Y006833D02*
X013328Y006833D01*
X013328Y006754D02*
X015531Y006754D01*
X015531Y006676D02*
X013328Y006676D01*
X013328Y006597D02*
X015531Y006597D01*
X015531Y006519D02*
X013328Y006519D01*
X013328Y006440D02*
X015531Y006440D01*
X015531Y006362D02*
X013328Y006362D01*
X013328Y006283D02*
X015531Y006283D01*
X015531Y006205D02*
X013328Y006205D01*
X013328Y006126D02*
X015531Y006126D01*
X015531Y006048D02*
X013328Y006048D01*
X013328Y005969D02*
X015531Y005969D01*
X015531Y005891D02*
X013328Y005891D01*
X013328Y005812D02*
X015531Y005812D01*
X015531Y005734D02*
X013328Y005734D01*
X013328Y005655D02*
X015531Y005655D01*
X015531Y005577D02*
X013328Y005577D01*
X013328Y005498D02*
X015531Y005498D01*
X015531Y005420D02*
X013328Y005420D01*
X013328Y005341D02*
X015531Y005341D01*
X015531Y005263D02*
X013328Y005263D01*
X013328Y005184D02*
X015531Y005184D01*
X015531Y005106D02*
X013328Y005106D01*
X013328Y005027D02*
X015531Y005027D01*
X015531Y004949D02*
X013328Y004949D01*
X013328Y004870D02*
X015531Y004870D01*
X015531Y004792D02*
X013328Y004792D01*
X013328Y004713D02*
X015531Y004713D01*
X015531Y004635D02*
X013341Y004635D01*
X013420Y004556D02*
X015531Y004556D01*
X015531Y004478D02*
X015460Y004478D01*
X015290Y004478D02*
X015066Y004478D01*
X014896Y004478D02*
X014672Y004478D01*
X014502Y004478D02*
X014279Y004478D01*
X014109Y004478D02*
X013885Y004478D01*
X013715Y004478D02*
X013498Y004478D01*
X015691Y004478D02*
X033224Y004478D01*
X033232Y004452D02*
X033276Y004367D01*
X033333Y004289D01*
X033401Y004220D01*
X033479Y004164D01*
X033565Y004120D01*
X033657Y004090D01*
X033752Y004075D01*
X033760Y004075D01*
X033760Y004648D01*
X033188Y004648D01*
X033188Y004639D01*
X033203Y004544D01*
X033232Y004452D01*
X033260Y004399D02*
X015691Y004399D01*
X015691Y004321D02*
X033310Y004321D01*
X033379Y004242D02*
X015690Y004242D01*
X015690Y004164D02*
X033479Y004164D01*
X033689Y004085D02*
X015690Y004085D01*
X015690Y004007D02*
X034725Y004007D01*
X034646Y004085D02*
X033911Y004085D01*
X033943Y004090D02*
X034035Y004120D01*
X034121Y004164D01*
X034199Y004220D01*
X034267Y004289D01*
X034324Y004367D01*
X034368Y004452D01*
X034397Y004544D01*
X034412Y004639D01*
X034412Y004648D01*
X033840Y004648D01*
X033840Y004728D01*
X033760Y004728D01*
X033760Y005300D01*
X033752Y005300D01*
X033657Y005285D01*
X033565Y005255D01*
X033479Y005211D01*
X033401Y005155D01*
X033333Y005087D01*
X033276Y005009D01*
X033232Y004923D01*
X033203Y004831D01*
X033188Y004736D01*
X033188Y004728D01*
X033760Y004728D01*
X033760Y004648D01*
X033840Y004648D01*
X033840Y004075D01*
X033848Y004075D01*
X033943Y004090D01*
X033840Y004085D02*
X033760Y004085D01*
X033760Y004164D02*
X033840Y004164D01*
X033840Y004242D02*
X033760Y004242D01*
X033760Y004321D02*
X033840Y004321D01*
X033840Y004399D02*
X033760Y004399D01*
X033760Y004478D02*
X033840Y004478D01*
X033840Y004556D02*
X033760Y004556D01*
X033760Y004635D02*
X033840Y004635D01*
X033840Y004713D02*
X034423Y004713D01*
X034412Y004728D02*
X034412Y004736D01*
X034397Y004831D01*
X034368Y004923D01*
X034324Y005009D01*
X034267Y005087D01*
X034199Y005155D01*
X034121Y005211D01*
X034035Y005255D01*
X033943Y005285D01*
X033848Y005300D01*
X033840Y005300D01*
X033840Y004728D01*
X034412Y004728D01*
X034404Y004792D02*
X034423Y004792D01*
X034423Y004870D02*
X034385Y004870D01*
X034354Y004949D02*
X034423Y004949D01*
X034423Y005027D02*
X034310Y005027D01*
X034248Y005106D02*
X034423Y005106D01*
X034423Y005184D02*
X034159Y005184D01*
X034013Y005263D02*
X034423Y005263D01*
X034423Y005341D02*
X024988Y005341D01*
X025033Y005387D02*
X025121Y005597D01*
X025121Y005825D01*
X025033Y006035D01*
X024872Y006197D01*
X024662Y006284D01*
X024434Y006284D01*
X024224Y006197D01*
X024063Y006035D01*
X023976Y005825D01*
X023976Y005597D01*
X024063Y005387D01*
X024224Y005226D01*
X024434Y005139D01*
X024662Y005139D01*
X024872Y005226D01*
X025033Y005387D01*
X025047Y005420D02*
X034423Y005420D01*
X033840Y005263D02*
X033760Y005263D01*
X033760Y005184D02*
X033840Y005184D01*
X033840Y005106D02*
X033760Y005106D01*
X033760Y005027D02*
X033840Y005027D01*
X033840Y004949D02*
X033760Y004949D01*
X033760Y004870D02*
X033840Y004870D01*
X033840Y004792D02*
X033760Y004792D01*
X033760Y004713D02*
X015691Y004713D01*
X015691Y004635D02*
X033188Y004635D01*
X033201Y004556D02*
X015691Y004556D01*
X015691Y004792D02*
X033196Y004792D01*
X033215Y004870D02*
X015691Y004870D01*
X015691Y004949D02*
X033246Y004949D01*
X033290Y005027D02*
X015691Y005027D01*
X015691Y005106D02*
X033352Y005106D01*
X033441Y005184D02*
X024771Y005184D01*
X024909Y005263D02*
X033587Y005263D01*
X034412Y004635D02*
X034423Y004635D01*
X034423Y004556D02*
X034399Y004556D01*
X034376Y004478D02*
X034423Y004478D01*
X034425Y004399D02*
X034340Y004399D01*
X034290Y004321D02*
X034457Y004321D01*
X034490Y004242D02*
X034221Y004242D01*
X034121Y004164D02*
X034568Y004164D01*
X034614Y004118D02*
X034614Y004118D01*
X034803Y003928D02*
X015690Y003928D01*
X015690Y003850D02*
X034882Y003850D01*
X034960Y003771D02*
X034434Y003771D01*
X034729Y003693D02*
X035039Y003693D01*
X035117Y003614D02*
X034865Y003614D01*
X035001Y003536D02*
X035196Y003536D01*
X035136Y003457D02*
X035274Y003457D01*
X035209Y003379D02*
X035353Y003379D01*
X035282Y003300D02*
X035431Y003300D01*
X035355Y003222D02*
X035510Y003222D01*
X035588Y003143D02*
X035427Y003143D01*
X035491Y003065D02*
X035604Y003065D01*
X035604Y002986D02*
X035528Y002986D01*
X035566Y002908D02*
X035604Y002908D01*
X033659Y003771D02*
X015690Y003771D01*
X015690Y003693D02*
X033459Y003693D01*
X033259Y003614D02*
X027252Y003614D01*
X027210Y003631D02*
X026925Y003631D01*
X026662Y003523D01*
X026461Y003321D01*
X026352Y003058D01*
X026352Y002774D01*
X026461Y002511D01*
X026662Y002309D01*
X026925Y002200D01*
X027210Y002200D01*
X027473Y002309D01*
X027674Y002511D01*
X027783Y002774D01*
X027783Y003058D01*
X027674Y003321D01*
X027473Y003523D01*
X027210Y003631D01*
X027442Y003536D02*
X033144Y003536D01*
X033045Y003457D02*
X027539Y003457D01*
X027617Y003379D02*
X032947Y003379D01*
X032848Y003300D02*
X027683Y003300D01*
X027716Y003222D02*
X032786Y003222D01*
X032829Y003285D02*
X032829Y003285D01*
X032829Y003285D01*
X032733Y003143D02*
X027748Y003143D01*
X027781Y003065D02*
X032679Y003065D01*
X032626Y002986D02*
X027783Y002986D01*
X027783Y002908D02*
X032572Y002908D01*
X032544Y002866D02*
X032544Y002866D01*
X032533Y002829D02*
X027783Y002829D01*
X027774Y002751D02*
X032508Y002751D01*
X032484Y002672D02*
X027741Y002672D01*
X027709Y002594D02*
X032460Y002594D01*
X032436Y002515D02*
X027676Y002515D01*
X027600Y002437D02*
X032411Y002437D01*
X032395Y002358D02*
X027522Y002358D01*
X027401Y002280D02*
X032395Y002280D01*
X032395Y002201D02*
X027212Y002201D01*
X026924Y002201D02*
X015690Y002201D01*
X015690Y002123D02*
X032395Y002123D01*
X032395Y002044D02*
X015690Y002044D01*
X015690Y001966D02*
X032395Y001966D01*
X032395Y001887D02*
X015690Y001887D01*
X015690Y001809D02*
X032415Y001809D01*
X032439Y001730D02*
X015690Y001730D01*
X015690Y001652D02*
X032464Y001652D01*
X032488Y001573D02*
X015690Y001573D01*
X015690Y001495D02*
X032512Y001495D01*
X032536Y001416D02*
X015690Y001416D01*
X015690Y001338D02*
X032580Y001338D01*
X032634Y001259D02*
X015690Y001259D01*
X015690Y001181D02*
X032687Y001181D01*
X032741Y001102D02*
X015690Y001102D01*
X015690Y001024D02*
X032794Y001024D01*
X032864Y000945D02*
X015690Y000945D01*
X015690Y000867D02*
X032962Y000867D01*
X033060Y000788D02*
X015690Y000788D01*
X015690Y000710D02*
X033159Y000710D01*
X033226Y000656D02*
X033226Y000656D01*
X033290Y000631D02*
X015690Y000631D01*
X015690Y002280D02*
X026734Y002280D01*
X026614Y002358D02*
X015690Y002358D01*
X015690Y002437D02*
X026535Y002437D01*
X026459Y002515D02*
X015690Y002515D01*
X015690Y002594D02*
X026427Y002594D01*
X026394Y002672D02*
X015690Y002672D01*
X015690Y002751D02*
X026362Y002751D01*
X026352Y002829D02*
X015690Y002829D01*
X015690Y002908D02*
X026352Y002908D01*
X026352Y002986D02*
X015690Y002986D01*
X015690Y003065D02*
X026355Y003065D01*
X026387Y003143D02*
X015690Y003143D01*
X015690Y003222D02*
X026420Y003222D01*
X026452Y003300D02*
X015690Y003300D01*
X015690Y003379D02*
X026518Y003379D01*
X026597Y003457D02*
X015690Y003457D01*
X015690Y003536D02*
X026694Y003536D01*
X026883Y003614D02*
X015690Y003614D01*
X015691Y005184D02*
X024325Y005184D01*
X024187Y005263D02*
X015691Y005263D01*
X015691Y005341D02*
X024109Y005341D01*
X024049Y005420D02*
X015691Y005420D01*
X015691Y005498D02*
X024017Y005498D01*
X023984Y005577D02*
X015691Y005577D01*
X015691Y005655D02*
X023976Y005655D01*
X023976Y005734D02*
X015691Y005734D01*
X015691Y005812D02*
X023976Y005812D01*
X024003Y005891D02*
X015691Y005891D01*
X015691Y005969D02*
X024035Y005969D01*
X024075Y006048D02*
X022533Y006048D01*
X022579Y006067D02*
X022657Y006145D01*
X022699Y006247D01*
X022699Y006357D01*
X022657Y006459D01*
X022579Y006537D01*
X022477Y006579D01*
X022367Y006579D01*
X022265Y006537D01*
X022187Y006459D01*
X022145Y006357D01*
X022145Y006247D01*
X022187Y006145D01*
X022265Y006067D01*
X022367Y006025D01*
X022477Y006025D01*
X022579Y006067D01*
X022638Y006126D02*
X024153Y006126D01*
X024243Y006205D02*
X022682Y006205D01*
X022699Y006283D02*
X024433Y006283D01*
X024664Y006283D02*
X028661Y006283D01*
X028583Y006362D02*
X022697Y006362D01*
X022665Y006440D02*
X028504Y006440D01*
X028426Y006519D02*
X022597Y006519D01*
X022247Y006519D02*
X015691Y006519D01*
X015691Y006597D02*
X028347Y006597D01*
X028269Y006676D02*
X015691Y006676D01*
X015691Y006754D02*
X028190Y006754D01*
X028112Y006833D02*
X024759Y006833D01*
X024662Y006792D02*
X024872Y006879D01*
X025033Y007040D01*
X025121Y007251D01*
X025121Y007479D01*
X025033Y007689D01*
X024872Y007850D01*
X024662Y007937D01*
X024434Y007937D01*
X024224Y007850D01*
X024063Y007689D01*
X023976Y007479D01*
X023976Y007251D01*
X024063Y007040D01*
X024224Y006879D01*
X024434Y006792D01*
X024662Y006792D01*
X024904Y006911D02*
X028033Y006911D01*
X027955Y006990D02*
X024982Y006990D01*
X025045Y007068D02*
X027876Y007068D01*
X027798Y007147D02*
X025077Y007147D01*
X025110Y007225D02*
X027719Y007225D01*
X027641Y007304D02*
X025121Y007304D01*
X025121Y007382D02*
X027562Y007382D01*
X027484Y007461D02*
X025121Y007461D01*
X025096Y007539D02*
X027405Y007539D01*
X027327Y007618D02*
X025063Y007618D01*
X025026Y007696D02*
X027248Y007696D01*
X027170Y007775D02*
X024948Y007775D01*
X024865Y007853D02*
X027091Y007853D01*
X027013Y007932D02*
X024676Y007932D01*
X024420Y007932D02*
X015691Y007932D01*
X015691Y008010D02*
X026934Y008010D01*
X026856Y008089D02*
X019601Y008089D01*
X019587Y008075D02*
X019665Y008153D01*
X019707Y008254D01*
X019707Y008365D01*
X019665Y008467D01*
X019587Y008545D01*
X019485Y008587D01*
X019375Y008587D01*
X019273Y008545D01*
X019195Y008467D01*
X019153Y008365D01*
X019153Y008254D01*
X019195Y008153D01*
X019273Y008075D01*
X019375Y008032D01*
X019485Y008032D01*
X019587Y008075D01*
X019671Y008167D02*
X026777Y008167D01*
X026699Y008246D02*
X019703Y008246D01*
X019707Y008324D02*
X026620Y008324D01*
X026542Y008403D02*
X019691Y008403D01*
X019650Y008481D02*
X026463Y008481D01*
X026385Y008560D02*
X019551Y008560D01*
X019309Y008560D02*
X015592Y008560D01*
X015514Y008638D02*
X026306Y008638D01*
X026228Y008717D02*
X015435Y008717D01*
X015357Y008795D02*
X026149Y008795D01*
X026071Y008874D02*
X015278Y008874D01*
X015200Y008952D02*
X025992Y008952D01*
X025914Y009031D02*
X015121Y009031D01*
X015043Y009109D02*
X025835Y009109D01*
X025757Y009188D02*
X014964Y009188D01*
X014886Y009266D02*
X025678Y009266D01*
X024231Y007853D02*
X015691Y007853D01*
X015691Y007775D02*
X024148Y007775D01*
X024070Y007696D02*
X015691Y007696D01*
X015691Y007618D02*
X024033Y007618D01*
X024001Y007539D02*
X015691Y007539D01*
X015691Y007461D02*
X023976Y007461D01*
X023976Y007382D02*
X015691Y007382D01*
X015691Y007304D02*
X023976Y007304D01*
X023986Y007225D02*
X015691Y007225D01*
X015691Y007147D02*
X024019Y007147D01*
X024051Y007068D02*
X015691Y007068D01*
X015691Y006990D02*
X024114Y006990D01*
X024192Y006911D02*
X015691Y006911D01*
X015691Y006833D02*
X024337Y006833D01*
X024853Y006205D02*
X028740Y006205D01*
X028818Y006126D02*
X024943Y006126D01*
X025021Y006048D02*
X028897Y006048D01*
X028975Y005969D02*
X025061Y005969D01*
X025093Y005891D02*
X029054Y005891D01*
X029132Y005812D02*
X025121Y005812D01*
X025121Y005734D02*
X029211Y005734D01*
X029289Y005655D02*
X025121Y005655D01*
X025112Y005577D02*
X029368Y005577D01*
X029446Y005498D02*
X025079Y005498D01*
X022312Y006048D02*
X015691Y006048D01*
X015691Y006126D02*
X022206Y006126D01*
X022162Y006205D02*
X015691Y006205D01*
X015691Y006283D02*
X022145Y006283D01*
X022147Y006362D02*
X015691Y006362D01*
X015691Y006440D02*
X022179Y006440D01*
X019259Y008089D02*
X015691Y008089D01*
X015691Y008167D02*
X019189Y008167D01*
X019156Y008246D02*
X015691Y008246D01*
X015691Y008324D02*
X019153Y008324D01*
X019168Y008403D02*
X015691Y008403D01*
X015671Y008481D02*
X019209Y008481D01*
X020650Y011262D02*
X020552Y011361D01*
X020552Y011380D01*
X020020Y011499D02*
X019902Y011380D01*
X019883Y011380D01*
X019706Y011380D01*
X019469Y012207D02*
X019371Y012207D01*
X019469Y012207D02*
X019509Y012247D01*
X019745Y012483D02*
X019843Y012483D01*
X019883Y012522D01*
X019902Y012522D01*
X019981Y012443D01*
X020532Y012542D02*
X020532Y012601D01*
X020532Y012542D02*
X020552Y012522D01*
X021497Y012503D02*
X021497Y012443D01*
X021497Y012503D02*
X021635Y012640D01*
X022166Y012443D02*
X022206Y012483D01*
X022265Y012483D01*
X022658Y012463D02*
X022658Y012483D01*
X022658Y012463D02*
X022678Y012443D01*
X023839Y014412D02*
X023898Y014412D01*
X023839Y014412D02*
X023721Y014530D01*
X023682Y014963D02*
X023800Y015081D01*
X023898Y015081D01*
X026950Y015888D02*
X027048Y015790D01*
X026950Y015888D02*
X026950Y015908D01*
X027717Y015790D02*
X027855Y015652D01*
X027855Y015357D01*
X027776Y017274D02*
X027776Y017286D01*
X030926Y012365D02*
X031418Y012365D01*
X030926Y012365D02*
X030887Y012325D01*
X030769Y007719D02*
X030847Y007640D01*
X031418Y007640D01*
X018702Y011380D02*
X018564Y011380D01*
X017954Y011302D02*
X017875Y011380D01*
X017816Y011380D01*
X017284Y011302D02*
X017206Y011223D01*
X017186Y011223D01*
X018603Y012168D02*
X018662Y012168D01*
X018702Y012207D01*
X017520Y013034D02*
X017383Y012896D01*
X017383Y012877D01*
X018190Y013034D02*
X018209Y013054D01*
X018209Y013191D01*
D27*
X009430Y010396D02*
X009430Y009727D01*
X028879Y008821D02*
X029981Y007719D01*
X030769Y007719D01*
M02*
