G75*
G70*
%OFA0B0*%
%FSLAX24Y24*%
%IPPOS*%
%LPD*%
%AMOC8*
5,1,8,0,0,1.08239X$1,22.5*
%
%ADD10C,0.0040*%
%ADD11C,0.0060*%
%ADD12C,0.0080*%
%ADD13C,0.0100*%
%ADD14R,0.0320X0.0200*%
%ADD15C,0.0220*%
%ADD16R,0.0250X0.0250*%
%ADD17R,0.0200X0.0320*%
%ADD18R,0.0200X0.0060*%
%ADD19R,0.0200X0.0200*%
%ADD20C,0.0050*%
%ADD21R,0.3937X0.0011*%
%ADD22R,0.3937X0.0011*%
%ADD23R,0.0120X0.0011*%
%ADD24R,0.0120X0.0011*%
%ADD25R,0.0120X0.0011*%
%ADD26R,0.0120X0.0011*%
%ADD27R,0.2832X0.0011*%
%ADD28R,0.2843X0.0011*%
%ADD29R,0.2854X0.0011*%
%ADD30R,0.2865X0.0011*%
%ADD31R,0.0087X0.0011*%
%ADD32R,0.0077X0.0011*%
%ADD33R,0.0098X0.0011*%
%ADD34R,0.0087X0.0011*%
%ADD35R,0.0109X0.0011*%
%ADD36R,0.0131X0.0011*%
%ADD37R,0.0098X0.0011*%
%ADD38R,0.0088X0.0011*%
%ADD39R,0.0142X0.0011*%
%ADD40R,0.0131X0.0011*%
%ADD41R,0.0153X0.0011*%
%ADD42R,0.0164X0.0011*%
%ADD43R,0.0175X0.0011*%
%ADD44R,0.0186X0.0011*%
%ADD45R,0.0109X0.0011*%
%ADD46R,0.0197X0.0011*%
%ADD47R,0.0109X0.0011*%
%ADD48R,0.0208X0.0011*%
%ADD49R,0.0219X0.0011*%
%ADD50R,0.0230X0.0011*%
%ADD51R,0.0230X0.0011*%
%ADD52R,0.0241X0.0011*%
%ADD53R,0.0109X0.0011*%
%ADD54R,0.0241X0.0011*%
%ADD55R,0.0131X0.0011*%
%ADD56R,0.0252X0.0011*%
%ADD57R,0.3062X0.0011*%
%ADD58R,0.3073X0.0011*%
%ADD59R,0.3084X0.0011*%
%ADD60R,0.3106X0.0011*%
%ADD61R,0.0273X0.0011*%
%ADD62R,0.0252X0.0011*%
%ADD63R,0.0273X0.0011*%
%ADD64R,0.0142X0.0011*%
%ADD65R,0.0175X0.0011*%
%ADD66R,0.0175X0.0011*%
%ADD67R,0.0186X0.0011*%
%ADD68R,0.0164X0.0011*%
%ADD69R,0.0153X0.0011*%
%ADD70R,0.0186X0.0011*%
%ADD71R,0.0197X0.0011*%
%ADD72R,0.0219X0.0011*%
%ADD73R,0.0219X0.0011*%
%ADD74R,0.0230X0.0011*%
%ADD75R,0.0251X0.0011*%
%ADD76R,0.0262X0.0011*%
%ADD77R,0.0251X0.0011*%
%ADD78R,0.0262X0.0011*%
%ADD79R,0.0262X0.0011*%
%ADD80R,0.0284X0.0011*%
%ADD81R,0.0295X0.0011*%
%ADD82R,0.0273X0.0011*%
%ADD83R,0.0295X0.0011*%
%ADD84R,0.0273X0.0011*%
%ADD85R,0.0306X0.0011*%
%ADD86R,0.0306X0.0011*%
%ADD87R,0.0284X0.0011*%
%ADD88R,0.0317X0.0011*%
%ADD89R,0.0306X0.0011*%
%ADD90R,0.0328X0.0011*%
%ADD91R,0.0328X0.0011*%
%ADD92R,0.0306X0.0011*%
%ADD93R,0.0339X0.0011*%
%ADD94R,0.0339X0.0011*%
%ADD95R,0.0317X0.0011*%
%ADD96R,0.0350X0.0011*%
%ADD97R,0.0328X0.0011*%
%ADD98R,0.0350X0.0011*%
%ADD99R,0.0361X0.0011*%
%ADD100R,0.0361X0.0011*%
%ADD101R,0.0350X0.0011*%
%ADD102R,0.0350X0.0011*%
%ADD103R,0.0339X0.0011*%
%ADD104R,0.0339X0.0011*%
%ADD105R,0.0328X0.0011*%
%ADD106R,0.0317X0.0011*%
%ADD107R,0.0262X0.0011*%
%ADD108R,0.0230X0.0011*%
%ADD109R,0.0219X0.0011*%
%ADD110R,0.0208X0.0011*%
%ADD111R,0.0186X0.0011*%
%ADD112R,0.0175X0.0011*%
%ADD113R,0.0164X0.0011*%
%ADD114R,0.0153X0.0011*%
%ADD115R,0.1258X0.0011*%
%ADD116R,0.3182X0.0011*%
%ADD117R,0.3182X0.0011*%
%ADD118R,0.3182X0.0011*%
%ADD119R,0.2165X0.0011*%
%ADD120R,0.0131X0.0011*%
%ADD121R,0.0164X0.0011*%
%ADD122R,0.0077X0.0011*%
%ADD123R,0.0066X0.0011*%
%ADD124R,0.0088X0.0011*%
%ADD125R,0.0077X0.0011*%
%ADD126R,0.3073X0.0011*%
%ADD127R,0.3051X0.0011*%
%ADD128R,0.0744X0.0011*%
%ADD129R,0.0755X0.0011*%
%ADD130R,0.0766X0.0011*%
%ADD131R,0.0776X0.0011*%
%ADD132R,0.0787X0.0011*%
%ADD133R,0.0798X0.0011*%
%ADD134R,0.0798X0.0011*%
%ADD135R,0.0809X0.0011*%
%ADD136R,0.0820X0.0011*%
%ADD137R,0.0842X0.0011*%
%ADD138R,0.0842X0.0011*%
%ADD139R,0.0853X0.0011*%
%ADD140R,0.0864X0.0011*%
%ADD141R,0.0886X0.0011*%
%ADD142R,0.0886X0.0011*%
%ADD143R,0.0897X0.0011*%
%ADD144R,0.0908X0.0011*%
%ADD145R,0.0908X0.0011*%
%ADD146R,0.0930X0.0011*%
%ADD147R,0.0941X0.0011*%
%ADD148R,0.0951X0.0011*%
%ADD149R,0.0951X0.0011*%
%ADD150R,0.0962X0.0011*%
%ADD151R,0.0973X0.0011*%
%ADD152R,0.0995X0.0011*%
%ADD153R,0.0995X0.0011*%
%ADD154R,0.1006X0.0011*%
%ADD155R,0.1017X0.0011*%
%ADD156R,0.1039X0.0011*%
%ADD157R,0.1039X0.0011*%
%ADD158R,0.1050X0.0011*%
%ADD159R,0.1061X0.0011*%
%ADD160R,0.1061X0.0011*%
%ADD161R,0.1083X0.0011*%
%ADD162R,0.1094X0.0011*%
%ADD163R,0.1105X0.0011*%
%ADD164R,0.1105X0.0011*%
%ADD165R,0.1126X0.0011*%
%ADD166R,0.1137X0.0011*%
%ADD167R,0.1148X0.0011*%
%ADD168R,0.1148X0.0011*%
%ADD169R,0.1159X0.0011*%
%ADD170R,0.1170X0.0011*%
%ADD171R,0.1181X0.0011*%
%ADD172R,0.1192X0.0011*%
%ADD173R,0.1192X0.0011*%
%ADD174R,0.1203X0.0011*%
%ADD175R,0.1214X0.0011*%
%ADD176R,0.1214X0.0011*%
%ADD177R,0.1236X0.0011*%
%ADD178R,0.0984X0.0011*%
%ADD179R,0.0984X0.0011*%
%ADD180R,0.0208X0.0011*%
%ADD181R,0.0995X0.0011*%
%ADD182R,0.0995X0.0011*%
%ADD183R,0.1006X0.0011*%
%ADD184R,0.1006X0.0011*%
%ADD185R,0.1006X0.0011*%
%ADD186R,0.0547X0.0011*%
%ADD187R,0.0437X0.0011*%
%ADD188R,0.0536X0.0011*%
%ADD189R,0.0405X0.0011*%
%ADD190R,0.0536X0.0011*%
%ADD191R,0.0372X0.0011*%
%ADD192R,0.0547X0.0011*%
%ADD193R,0.0569X0.0011*%
%ADD194R,0.0481X0.0011*%
%ADD195R,0.0066X0.0011*%
%ADD196R,0.0459X0.0011*%
%ADD197R,0.0066X0.0011*%
%ADD198R,0.0437X0.0011*%
%ADD199R,0.0394X0.0011*%
%ADD200R,0.0383X0.0011*%
%ADD201R,0.0372X0.0011*%
%ADD202R,0.0066X0.0011*%
%ADD203R,0.0317X0.0011*%
%ADD204R,0.0011X0.0011*%
%ADD205R,0.0055X0.0011*%
%ADD206R,0.0295X0.0011*%
%ADD207R,0.0295X0.0011*%
%ADD208R,0.0142X0.0011*%
%ADD209R,0.0055X0.0011*%
%ADD210R,0.0241X0.0011*%
%ADD211R,0.0383X0.0011*%
%ADD212R,0.0416X0.0011*%
%ADD213R,0.0426X0.0011*%
%ADD214R,0.0448X0.0011*%
%ADD215R,0.0459X0.0011*%
%ADD216R,0.0470X0.0011*%
%ADD217R,0.0492X0.0011*%
%ADD218R,0.0503X0.0011*%
%ADD219R,0.0197X0.0011*%
%ADD220R,0.0197X0.0011*%
%ADD221R,0.0055X0.0011*%
%ADD222R,0.0241X0.0011*%
%ADD223R,0.0962X0.0011*%
%ADD224R,0.0536X0.0011*%
%ADD225R,0.0962X0.0011*%
%ADD226R,0.0951X0.0011*%
%ADD227R,0.0558X0.0011*%
%ADD228R,0.0930X0.0011*%
%ADD229R,0.0897X0.0011*%
%ADD230R,0.0875X0.0011*%
%ADD231R,0.0842X0.0011*%
%ADD232R,0.0558X0.0011*%
%ADD233R,0.0820X0.0011*%
%ADD234R,0.0755X0.0011*%
%ADD235R,0.0733X0.0011*%
%ADD236R,0.0525X0.0011*%
%ADD237R,0.0722X0.0011*%
%ADD238R,0.0525X0.0011*%
%ADD239R,0.0700X0.0011*%
%ADD240R,0.0689X0.0011*%
%ADD241R,0.0514X0.0011*%
%ADD242R,0.0678X0.0011*%
%ADD243R,0.0514X0.0011*%
%ADD244R,0.0656X0.0011*%
%ADD245R,0.0503X0.0011*%
%ADD246R,0.0656X0.0011*%
%ADD247R,0.0645X0.0011*%
%ADD248R,0.0634X0.0011*%
%ADD249R,0.0481X0.0011*%
%ADD250R,0.0634X0.0011*%
%ADD251R,0.0623X0.0011*%
%ADD252R,0.0470X0.0011*%
%ADD253R,0.0623X0.0011*%
%ADD254R,0.0470X0.0011*%
%ADD255R,0.0623X0.0011*%
%ADD256R,0.0612X0.0011*%
%ADD257R,0.0612X0.0011*%
%ADD258R,0.0623X0.0011*%
%ADD259R,0.0437X0.0011*%
%ADD260R,0.0427X0.0011*%
%ADD261R,0.0416X0.0011*%
%ADD262R,0.0416X0.0011*%
%ADD263R,0.0667X0.0011*%
%ADD264R,0.0689X0.0011*%
%ADD265R,0.0711X0.0011*%
%ADD266R,0.1105X0.0011*%
%ADD267R,0.1105X0.0011*%
%ADD268R,0.0426X0.0011*%
%ADD269R,0.1094X0.0011*%
%ADD270R,0.0481X0.0011*%
%ADD271R,0.1083X0.0011*%
%ADD272R,0.0492X0.0011*%
%ADD273R,0.1072X0.0011*%
%ADD274R,0.1050X0.0011*%
%ADD275R,0.0941X0.0011*%
%ADD276R,0.1039X0.0011*%
%ADD277R,0.1028X0.0011*%
%ADD278R,0.0919X0.0011*%
%ADD279R,0.1028X0.0011*%
%ADD280R,0.0919X0.0011*%
%ADD281R,0.0919X0.0011*%
%ADD282R,0.0908X0.0011*%
%ADD283R,0.0897X0.0011*%
%ADD284R,0.0940X0.0011*%
%ADD285R,0.0875X0.0011*%
%ADD286R,0.0886X0.0011*%
%ADD287R,0.0919X0.0011*%
%ADD288R,0.0875X0.0011*%
%ADD289R,0.0930X0.0011*%
%ADD290R,0.0973X0.0011*%
%ADD291R,0.1017X0.0011*%
%ADD292R,0.1061X0.0011*%
%ADD293R,0.1126X0.0011*%
%ADD294R,0.1290X0.0011*%
%ADD295R,0.1345X0.0011*%
%ADD296R,0.1498X0.0011*%
%ADD297R,0.1498X0.0011*%
%ADD298R,0.1498X0.0011*%
%ADD299R,0.1498X0.0011*%
%ADD300R,0.0416X0.0011*%
%ADD301R,0.0558X0.0011*%
%ADD302R,0.0591X0.0011*%
%ADD303R,0.0612X0.0011*%
%ADD304R,0.0634X0.0011*%
%ADD305R,0.0667X0.0011*%
%ADD306R,0.0361X0.0011*%
%ADD307R,0.0700X0.0011*%
%ADD308R,0.0722X0.0011*%
%ADD309R,0.0733X0.0011*%
%ADD310R,0.0755X0.0011*%
%ADD311R,0.0459X0.0011*%
%ADD312R,0.0766X0.0011*%
%ADD313R,0.0766X0.0011*%
%ADD314R,0.0503X0.0011*%
%ADD315R,0.0525X0.0011*%
%ADD316R,0.0514X0.0011*%
%ADD317R,0.0580X0.0011*%
%ADD318R,0.0547X0.0011*%
%ADD319R,0.0405X0.0011*%
%ADD320R,0.0405X0.0011*%
%ADD321R,0.0372X0.0011*%
%ADD322R,0.0558X0.0011*%
%ADD323R,0.0591X0.0011*%
%ADD324R,0.0601X0.0011*%
%ADD325R,0.0601X0.0011*%
%ADD326R,0.1072X0.0011*%
%ADD327R,0.0405X0.0011*%
%ADD328R,0.1531X0.0011*%
%ADD329R,0.1542X0.0011*%
%ADD330R,0.1553X0.0011*%
%ADD331R,0.1553X0.0011*%
%ADD332R,0.1564X0.0011*%
%ADD333R,0.1575X0.0011*%
%ADD334R,0.1564X0.0011*%
%ADD335R,0.1575X0.0011*%
%ADD336R,0.1564X0.0011*%
%ADD337R,0.1542X0.0011*%
%ADD338R,0.1520X0.0011*%
%ADD339R,0.1531X0.0011*%
%ADD340R,0.1531X0.0011*%
%ADD341R,0.1301X0.0011*%
%ADD342R,0.1280X0.0011*%
%ADD343R,0.1280X0.0011*%
%ADD344R,0.1269X0.0011*%
%ADD345R,0.1269X0.0011*%
%ADD346R,0.1258X0.0011*%
%ADD347R,0.1258X0.0011*%
%ADD348R,0.1247X0.0011*%
%ADD349R,0.1225X0.0011*%
%ADD350R,0.1028X0.0011*%
%ADD351R,0.0864X0.0011*%
%ADD352R,0.0831X0.0011*%
%ADD353R,0.0448X0.0011*%
%ADD354R,0.0394X0.0011*%
%ADD355R,0.0383X0.0011*%
%ADD356R,0.0033X0.0011*%
%ADD357R,0.0284X0.0011*%
%ADD358R,0.0033X0.0011*%
%ADD359R,0.0372X0.0011*%
%ADD360R,0.0077X0.0011*%
%ADD361R,0.0361X0.0011*%
%ADD362R,0.0142X0.0011*%
%ADD363R,0.1236X0.0011*%
%ADD364R,0.1323X0.0011*%
%ADD365R,0.1345X0.0011*%
%ADD366R,0.1367X0.0011*%
%ADD367R,0.1389X0.0011*%
%ADD368R,0.1389X0.0011*%
%ADD369R,0.0864X0.0011*%
%ADD370R,0.0853X0.0011*%
%ADD371R,0.0820X0.0011*%
%ADD372R,0.0776X0.0011*%
%ADD373R,0.0711X0.0011*%
%ADD374R,0.0678X0.0011*%
%ADD375R,0.0470X0.0011*%
%ADD376R,0.0580X0.0011*%
%ADD377R,0.0569X0.0011*%
%ADD378R,0.0153X0.0011*%
%ADD379R,0.0448X0.0011*%
%ADD380R,0.0284X0.0011*%
%ADD381R,0.0612X0.0011*%
%ADD382R,0.0492X0.0011*%
%ADD383R,0.0033X0.0011*%
%ADD384R,0.0569X0.0011*%
%ADD385R,0.0569X0.0011*%
%ADD386R,0.0744X0.0011*%
%ADD387R,0.0809X0.0011*%
%ADD388R,0.0842X0.0011*%
%ADD389R,0.0055X0.0011*%
D10*
X003813Y004826D02*
X003813Y005133D01*
X004044Y004979D02*
X004044Y004826D01*
X004274Y004826D02*
X003813Y004826D01*
X002301Y005532D02*
X002301Y005839D01*
X002224Y005916D01*
X001994Y005916D01*
X001994Y005456D01*
X002224Y005456D01*
X002301Y005532D01*
X001841Y005456D02*
X001841Y005916D01*
X001534Y005916D02*
X001841Y005456D01*
X001534Y005456D02*
X001534Y005916D01*
X001380Y005839D02*
X001304Y005916D01*
X001150Y005916D01*
X001073Y005839D01*
X001073Y005532D01*
X001150Y005456D01*
X001304Y005456D01*
X001380Y005532D01*
X001380Y005686D01*
X001227Y005686D01*
X000920Y005839D02*
X000843Y005916D01*
X000613Y005916D01*
X000613Y005456D01*
X000843Y005456D01*
X000920Y005532D01*
X000920Y005839D01*
X002534Y006971D02*
X002534Y007202D01*
X002611Y007278D01*
X002764Y007278D01*
X002841Y007202D01*
X002841Y006971D01*
X002994Y006971D02*
X002534Y006971D01*
X002841Y007125D02*
X002994Y007278D01*
X002994Y007432D02*
X002994Y007739D01*
X002918Y007892D02*
X002994Y007969D01*
X002994Y008122D01*
X002918Y008199D01*
X002841Y008199D01*
X002764Y008122D01*
X002764Y007969D01*
X002687Y007892D01*
X002611Y007892D01*
X002534Y007969D01*
X002534Y008122D01*
X002611Y008199D01*
X002534Y008353D02*
X002994Y008353D01*
X002994Y008659D01*
X002764Y008506D02*
X002764Y008353D01*
X002534Y008353D02*
X002534Y008659D01*
X002534Y008813D02*
X002534Y009120D01*
X002534Y008966D02*
X002994Y008966D01*
X003890Y008085D02*
X003813Y008009D01*
X003813Y007855D01*
X003890Y007778D01*
X003967Y007778D01*
X004044Y007855D01*
X004044Y008009D01*
X004120Y008085D01*
X004197Y008085D01*
X004274Y008009D01*
X004274Y007855D01*
X004197Y007778D01*
X005172Y007890D02*
X005248Y007813D01*
X005555Y007813D01*
X005632Y007890D01*
X005632Y008044D01*
X005555Y008120D01*
X005248Y008120D01*
X005172Y008044D01*
X005172Y007890D01*
X005248Y007660D02*
X005172Y007583D01*
X005172Y007430D01*
X005248Y007353D01*
X005555Y007353D01*
X005632Y007430D01*
X005632Y007583D01*
X005555Y007660D01*
X005248Y007660D01*
X005248Y007200D02*
X005325Y007200D01*
X005402Y007123D01*
X005402Y006893D01*
X005402Y007123D02*
X005479Y007200D01*
X005555Y007200D01*
X005632Y007123D01*
X005632Y006893D01*
X005172Y006893D01*
X005172Y007123D01*
X005248Y007200D01*
X005172Y008274D02*
X005172Y008581D01*
X005172Y008427D02*
X005632Y008427D01*
X005555Y008734D02*
X005248Y008734D01*
X005172Y008811D01*
X005172Y008964D01*
X005248Y009041D01*
X005555Y008734D01*
X005632Y008811D01*
X005632Y008964D01*
X005555Y009041D01*
X005248Y009041D01*
X003396Y010153D02*
X003396Y010460D01*
X003396Y010306D02*
X002936Y010306D01*
X003089Y010153D01*
X002116Y010153D02*
X001809Y010460D01*
X001733Y010460D01*
X001656Y010383D01*
X001656Y010229D01*
X001733Y010153D01*
X002116Y010153D02*
X002116Y010460D01*
X004404Y011812D02*
X004481Y011735D01*
X004557Y011735D01*
X004634Y011812D01*
X004634Y011965D01*
X004711Y012042D01*
X004788Y012042D01*
X004864Y011965D01*
X004864Y011812D01*
X004788Y011735D01*
X004404Y011812D02*
X004404Y011965D01*
X004481Y012042D01*
X004404Y012196D02*
X004864Y012196D01*
X004711Y012349D01*
X004864Y012502D01*
X004404Y012502D01*
X004404Y012656D02*
X004404Y012886D01*
X004481Y012963D01*
X004788Y012963D01*
X004864Y012886D01*
X004864Y012656D01*
X004404Y012656D01*
X004373Y014156D02*
X004603Y014156D01*
X004680Y014233D01*
X004680Y014540D01*
X004603Y014617D01*
X004373Y014617D01*
X004373Y014156D01*
X004833Y014233D02*
X004910Y014156D01*
X005064Y014156D01*
X005140Y014233D01*
X005140Y014310D01*
X005064Y014387D01*
X004987Y014387D01*
X005064Y014387D02*
X005140Y014463D01*
X005140Y014540D01*
X005064Y014617D01*
X004910Y014617D01*
X004833Y014540D01*
X005294Y014617D02*
X005294Y014310D01*
X005447Y014156D01*
X005601Y014310D01*
X005601Y014617D01*
X005754Y014540D02*
X005831Y014617D01*
X005984Y014617D01*
X006061Y014540D01*
X006061Y014463D01*
X005984Y014387D01*
X006061Y014310D01*
X006061Y014233D01*
X005984Y014156D01*
X005831Y014156D01*
X005754Y014233D01*
X005908Y014387D02*
X005984Y014387D01*
X006214Y014080D02*
X006521Y014080D01*
X006675Y014233D02*
X006752Y014156D01*
X006905Y014156D01*
X006982Y014233D01*
X006982Y014310D01*
X006905Y014387D01*
X006752Y014387D01*
X006675Y014463D01*
X006675Y014540D01*
X006752Y014617D01*
X006905Y014617D01*
X006982Y014540D01*
X007135Y014617D02*
X007442Y014617D01*
X007289Y014617D02*
X007289Y014156D01*
X007596Y014156D02*
X007596Y014617D01*
X007749Y014463D01*
X007903Y014617D01*
X007903Y014156D01*
X008979Y014156D02*
X008979Y014617D01*
X009133Y014463D01*
X009286Y014617D01*
X009286Y014156D01*
X009440Y014233D02*
X009516Y014156D01*
X009670Y014156D01*
X009747Y014233D01*
X009900Y014233D02*
X009977Y014156D01*
X010130Y014156D01*
X010207Y014233D01*
X010207Y014540D01*
X010130Y014617D01*
X009977Y014617D01*
X009900Y014540D01*
X009900Y014233D01*
X009747Y014540D02*
X009670Y014617D01*
X009516Y014617D01*
X009440Y014540D01*
X009440Y014233D01*
X006476Y017759D02*
X006323Y017759D01*
X006246Y017835D01*
X006093Y017835D02*
X006093Y018219D01*
X006246Y018142D02*
X006246Y018066D01*
X006323Y017989D01*
X006476Y017989D01*
X006553Y017912D01*
X006553Y017835D01*
X006476Y017759D01*
X006093Y017835D02*
X006016Y017759D01*
X005863Y017759D01*
X005786Y017835D01*
X005786Y018219D01*
X005632Y018142D02*
X005632Y018066D01*
X005556Y017989D01*
X005325Y017989D01*
X005172Y017912D02*
X005172Y018219D01*
X005325Y018219D02*
X005556Y018219D01*
X005632Y018142D01*
X005556Y017989D02*
X005632Y017912D01*
X005632Y017835D01*
X005556Y017759D01*
X005325Y017759D01*
X005325Y018219D01*
X005172Y017912D02*
X005019Y017759D01*
X004865Y017912D01*
X004865Y018219D01*
X006246Y018142D02*
X006323Y018219D01*
X006476Y018219D01*
X006553Y018142D01*
X005116Y020259D02*
X004809Y020259D01*
X005116Y020566D01*
X005116Y020642D01*
X005039Y020719D01*
X004886Y020719D01*
X004809Y020642D01*
X004656Y020642D02*
X004579Y020719D01*
X004349Y020719D01*
X004349Y020259D01*
X004579Y020259D01*
X004656Y020335D01*
X004656Y020642D01*
X004195Y020719D02*
X003888Y020719D01*
X003888Y020259D01*
X004195Y020259D01*
X004042Y020489D02*
X003888Y020489D01*
X003735Y020259D02*
X003428Y020259D01*
X003428Y020719D01*
X002754Y020259D02*
X002447Y020259D01*
X002600Y020259D02*
X002600Y020719D01*
X002447Y020566D01*
X002294Y020642D02*
X002217Y020719D01*
X001987Y020719D01*
X001987Y020259D01*
X002217Y020259D01*
X002294Y020335D01*
X002294Y020642D01*
X001833Y020719D02*
X001526Y020719D01*
X001526Y020259D01*
X001833Y020259D01*
X001680Y020489D02*
X001526Y020489D01*
X001373Y020259D02*
X001066Y020259D01*
X001066Y020719D01*
X001725Y015022D02*
X002032Y014715D01*
X002109Y014792D01*
X002109Y014945D01*
X002032Y015022D01*
X001725Y015022D01*
X001648Y014945D01*
X001648Y014792D01*
X001725Y014715D01*
X002032Y014715D01*
X002109Y014562D02*
X002109Y014255D01*
X002109Y014408D02*
X001648Y014408D01*
X001802Y014255D01*
X002928Y014430D02*
X003004Y014353D01*
X003081Y014353D01*
X003158Y014430D01*
X003158Y014660D01*
X003311Y014660D02*
X003004Y014660D01*
X002928Y014583D01*
X002928Y014430D01*
X003311Y014353D02*
X003388Y014430D01*
X003388Y014583D01*
X003311Y014660D01*
X002534Y007739D02*
X002534Y007432D01*
X002994Y007432D01*
X002764Y007432D02*
X002764Y007585D01*
X007070Y005601D02*
X007070Y005294D01*
X007223Y005141D01*
X007377Y005294D01*
X007377Y005601D01*
X007530Y005524D02*
X007530Y005448D01*
X007607Y005371D01*
X007760Y005371D01*
X007837Y005294D01*
X007837Y005217D01*
X007760Y005141D01*
X007607Y005141D01*
X007530Y005217D01*
X007530Y005524D02*
X007607Y005601D01*
X007760Y005601D01*
X007837Y005524D01*
X007991Y005601D02*
X007991Y005217D01*
X008067Y005141D01*
X008221Y005141D01*
X008297Y005217D01*
X008297Y005601D01*
X008451Y005601D02*
X008681Y005601D01*
X008758Y005524D01*
X008758Y005371D01*
X008681Y005294D01*
X008451Y005294D01*
X008451Y005141D02*
X008451Y005601D01*
X008450Y003888D02*
X008296Y003888D01*
X008219Y003812D01*
X008450Y003888D02*
X008526Y003812D01*
X008526Y003735D01*
X008219Y003428D01*
X008526Y003428D01*
X008373Y002412D02*
X008373Y001952D01*
X008526Y001952D02*
X008219Y001952D01*
X008219Y002259D02*
X008373Y002412D01*
X014944Y005141D02*
X015174Y005141D01*
X015251Y005217D01*
X015251Y005524D01*
X015174Y005601D01*
X014944Y005601D01*
X014944Y005141D01*
X015404Y005217D02*
X015481Y005141D01*
X015634Y005141D01*
X015711Y005217D01*
X015711Y005294D01*
X015634Y005371D01*
X015558Y005371D01*
X015634Y005371D02*
X015711Y005448D01*
X015711Y005524D01*
X015634Y005601D01*
X015481Y005601D01*
X015404Y005524D01*
X015865Y005601D02*
X015865Y005294D01*
X016018Y005141D01*
X016171Y005294D01*
X016171Y005601D01*
X016325Y005524D02*
X016402Y005601D01*
X016555Y005601D01*
X016632Y005524D01*
X016632Y005448D01*
X016555Y005371D01*
X016632Y005294D01*
X016632Y005217D01*
X016555Y005141D01*
X016402Y005141D01*
X016325Y005217D01*
X016478Y005371D02*
X016555Y005371D01*
X019117Y005371D02*
X019424Y005371D01*
X019424Y005448D02*
X019424Y005141D01*
X019577Y005141D02*
X019884Y005141D01*
X019731Y005141D02*
X019731Y005601D01*
X019577Y005448D01*
X019424Y005448D02*
X019270Y005601D01*
X019117Y005448D01*
X019117Y005141D01*
X020038Y005294D02*
X020191Y005141D01*
X020345Y005294D01*
X020345Y005601D01*
X020498Y005601D02*
X020498Y005371D01*
X020652Y005448D01*
X020728Y005448D01*
X020805Y005371D01*
X020805Y005217D01*
X020728Y005141D01*
X020575Y005141D01*
X020498Y005217D01*
X020038Y005294D02*
X020038Y005601D01*
X020498Y005601D02*
X020805Y005601D01*
X021007Y007227D02*
X021007Y007534D01*
X021160Y007688D01*
X021314Y007534D01*
X021314Y007227D01*
X021467Y007304D02*
X021544Y007227D01*
X021697Y007227D01*
X021774Y007304D01*
X021774Y007381D01*
X021697Y007457D01*
X021621Y007457D01*
X021697Y007457D02*
X021774Y007534D01*
X021774Y007611D01*
X021697Y007688D01*
X021544Y007688D01*
X021467Y007611D01*
X021314Y007457D02*
X021007Y007457D01*
X021928Y007381D02*
X022081Y007227D01*
X022234Y007381D01*
X022234Y007688D01*
X022388Y007611D02*
X022465Y007688D01*
X022618Y007688D01*
X022695Y007611D01*
X022695Y007534D01*
X022618Y007457D01*
X022695Y007381D01*
X022695Y007304D01*
X022618Y007227D01*
X022465Y007227D01*
X022388Y007304D01*
X022541Y007457D02*
X022618Y007457D01*
X021928Y007381D02*
X021928Y007688D01*
X018522Y007688D02*
X018215Y007688D01*
X018215Y007457D01*
X018368Y007534D01*
X018445Y007534D01*
X018522Y007457D01*
X018522Y007304D01*
X018445Y007227D01*
X018291Y007227D01*
X018215Y007304D01*
X018061Y007381D02*
X018061Y007688D01*
X017754Y007688D02*
X017754Y007381D01*
X017908Y007227D01*
X018061Y007381D01*
X017601Y007227D02*
X017294Y007227D01*
X017447Y007227D02*
X017447Y007688D01*
X017294Y007534D01*
X017140Y007611D02*
X017140Y007304D01*
X017064Y007227D01*
X016834Y007227D01*
X016834Y007688D01*
X017064Y007688D01*
X017140Y007611D01*
X024511Y010314D02*
X024664Y010160D01*
X024818Y010314D01*
X024818Y010621D01*
X024971Y010544D02*
X024971Y010467D01*
X025048Y010391D01*
X025201Y010391D01*
X025278Y010314D01*
X025278Y010237D01*
X025201Y010160D01*
X025048Y010160D01*
X024971Y010237D01*
X024971Y010544D02*
X025048Y010621D01*
X025201Y010621D01*
X025278Y010544D01*
X025431Y010621D02*
X025431Y010237D01*
X025508Y010160D01*
X025662Y010160D01*
X025738Y010237D01*
X025738Y010621D01*
X025892Y010621D02*
X026122Y010621D01*
X026199Y010544D01*
X026199Y010391D01*
X026122Y010314D01*
X025892Y010314D01*
X025892Y010160D02*
X025892Y010621D01*
X026813Y010621D02*
X026813Y010160D01*
X026813Y010314D02*
X027043Y010314D01*
X027120Y010391D01*
X027120Y010544D01*
X027043Y010621D01*
X026813Y010621D01*
X026966Y010314D02*
X027120Y010160D01*
X026659Y010084D02*
X026352Y010084D01*
X024511Y010314D02*
X024511Y010621D01*
X026810Y014255D02*
X026963Y014408D01*
X026963Y014715D01*
X027117Y014715D02*
X027347Y014715D01*
X027424Y014638D01*
X027424Y014562D01*
X027347Y014485D01*
X027117Y014485D01*
X027347Y014485D02*
X027424Y014408D01*
X027424Y014332D01*
X027347Y014255D01*
X027117Y014255D01*
X027117Y014715D01*
X026656Y014715D02*
X026656Y014408D01*
X026810Y014255D01*
X027577Y014255D02*
X027577Y014562D01*
X027731Y014715D01*
X027884Y014562D01*
X027884Y014255D01*
X027884Y014485D02*
X027577Y014485D01*
X028038Y014715D02*
X028344Y014715D01*
X028191Y014715D02*
X028191Y014255D01*
X023817Y018960D02*
X023510Y018960D01*
X023510Y019420D01*
X023050Y019420D02*
X023050Y018960D01*
X023357Y018960D01*
X022896Y018960D02*
X022896Y019266D01*
X022743Y019420D01*
X022589Y019266D01*
X022589Y018960D01*
X022436Y018960D02*
X022282Y019113D01*
X022129Y018960D01*
X022129Y019420D01*
X022436Y019420D02*
X022436Y018960D01*
X022589Y019190D02*
X022896Y019190D01*
X022946Y020940D02*
X022793Y020940D01*
X022716Y021017D01*
X022716Y021324D01*
X022793Y021400D01*
X022946Y021400D01*
X023023Y021324D01*
X023023Y021017D01*
X022946Y020940D01*
X023177Y020940D02*
X023177Y021400D01*
X023483Y021400D01*
X023637Y021400D02*
X023944Y021400D01*
X023790Y021170D02*
X023637Y021170D01*
X023637Y020940D02*
X023637Y021400D01*
X023330Y021170D02*
X023177Y021170D01*
X030755Y021017D02*
X030832Y020940D01*
X030985Y020940D01*
X031062Y021017D01*
X031062Y021324D01*
X030985Y021400D01*
X030832Y021400D01*
X030755Y021324D01*
X030755Y021017D01*
X031216Y020940D02*
X031216Y021400D01*
X031523Y020940D01*
X031523Y021400D01*
X034325Y021476D02*
X034325Y021246D01*
X034786Y021246D01*
X034786Y021476D01*
X034709Y021553D01*
X034402Y021553D01*
X034325Y021476D01*
X034325Y021093D02*
X034786Y021093D01*
X034325Y020786D01*
X034786Y020786D01*
X034709Y020632D02*
X034555Y020632D01*
X034555Y020479D01*
X034402Y020632D02*
X034325Y020556D01*
X034325Y020402D01*
X034402Y020325D01*
X034709Y020325D01*
X034786Y020402D01*
X034786Y020556D01*
X034709Y020632D01*
X034709Y020172D02*
X034402Y020172D01*
X034325Y020095D01*
X034325Y019865D01*
X034786Y019865D01*
X034786Y020095D01*
X034709Y020172D01*
X034134Y005916D02*
X033904Y005916D01*
X033904Y005456D01*
X034134Y005456D01*
X034211Y005532D01*
X034211Y005839D01*
X034134Y005916D01*
X033750Y005916D02*
X033750Y005456D01*
X033443Y005916D01*
X033443Y005456D01*
X033290Y005532D02*
X033290Y005686D01*
X033136Y005686D01*
X032983Y005839D02*
X032983Y005532D01*
X033060Y005456D01*
X033213Y005456D01*
X033290Y005532D01*
X033290Y005839D02*
X033213Y005916D01*
X033060Y005916D01*
X032983Y005839D01*
X032829Y005763D02*
X032829Y005456D01*
X032829Y005686D02*
X032523Y005686D01*
X032523Y005763D02*
X032676Y005916D01*
X032829Y005763D01*
X032523Y005763D02*
X032523Y005456D01*
X027934Y003881D02*
X027934Y003420D01*
X028011Y003650D02*
X027704Y003650D01*
X027934Y003881D01*
X027550Y003804D02*
X027550Y003727D01*
X027474Y003650D01*
X027320Y003650D01*
X027243Y003727D01*
X027243Y003804D01*
X027320Y003881D01*
X027474Y003881D01*
X027550Y003804D01*
X027474Y003650D02*
X027550Y003574D01*
X027550Y003497D01*
X027474Y003420D01*
X027320Y003420D01*
X027243Y003497D01*
X027243Y003574D01*
X027320Y003650D01*
X027320Y002404D02*
X027474Y002404D01*
X027550Y002327D01*
X027550Y002251D01*
X027474Y002174D01*
X027320Y002174D01*
X027243Y002251D01*
X027243Y002327D01*
X027320Y002404D01*
X027320Y002174D02*
X027243Y002097D01*
X027243Y002021D01*
X027320Y001944D01*
X027474Y001944D01*
X027550Y002021D01*
X027550Y002097D01*
X027474Y002174D01*
X027704Y002327D02*
X027781Y002404D01*
X027934Y002404D01*
X028011Y002327D01*
X028011Y002251D01*
X027934Y002174D01*
X028011Y002097D01*
X028011Y002021D01*
X027934Y001944D01*
X027781Y001944D01*
X027704Y002021D01*
X027857Y002174D02*
X027934Y002174D01*
D11*
X032275Y002129D02*
X032277Y002202D01*
X032283Y002275D01*
X032293Y002347D01*
X032307Y002419D01*
X032324Y002490D01*
X032346Y002560D01*
X032371Y002629D01*
X032400Y002696D01*
X032432Y002761D01*
X032468Y002825D01*
X032508Y002887D01*
X032550Y002946D01*
X032596Y003003D01*
X032645Y003057D01*
X032697Y003109D01*
X032751Y003158D01*
X032808Y003204D01*
X032867Y003246D01*
X032929Y003286D01*
X032993Y003322D01*
X033058Y003354D01*
X033125Y003383D01*
X033194Y003408D01*
X033264Y003430D01*
X033335Y003447D01*
X033407Y003461D01*
X033479Y003471D01*
X033552Y003477D01*
X033625Y003479D01*
X033698Y003477D01*
X033771Y003471D01*
X033843Y003461D01*
X033915Y003447D01*
X033986Y003430D01*
X034056Y003408D01*
X034125Y003383D01*
X034192Y003354D01*
X034257Y003322D01*
X034321Y003286D01*
X034383Y003246D01*
X034442Y003204D01*
X034499Y003158D01*
X034553Y003109D01*
X034605Y003057D01*
X034654Y003003D01*
X034700Y002946D01*
X034742Y002887D01*
X034782Y002825D01*
X034818Y002761D01*
X034850Y002696D01*
X034879Y002629D01*
X034904Y002560D01*
X034926Y002490D01*
X034943Y002419D01*
X034957Y002347D01*
X034967Y002275D01*
X034973Y002202D01*
X034975Y002129D01*
X034973Y002056D01*
X034967Y001983D01*
X034957Y001911D01*
X034943Y001839D01*
X034926Y001768D01*
X034904Y001698D01*
X034879Y001629D01*
X034850Y001562D01*
X034818Y001497D01*
X034782Y001433D01*
X034742Y001371D01*
X034700Y001312D01*
X034654Y001255D01*
X034605Y001201D01*
X034553Y001149D01*
X034499Y001100D01*
X034442Y001054D01*
X034383Y001012D01*
X034321Y000972D01*
X034257Y000936D01*
X034192Y000904D01*
X034125Y000875D01*
X034056Y000850D01*
X033986Y000828D01*
X033915Y000811D01*
X033843Y000797D01*
X033771Y000787D01*
X033698Y000781D01*
X033625Y000779D01*
X033552Y000781D01*
X033479Y000787D01*
X033407Y000797D01*
X033335Y000811D01*
X033264Y000828D01*
X033194Y000850D01*
X033125Y000875D01*
X033058Y000904D01*
X032993Y000936D01*
X032929Y000972D01*
X032867Y001012D01*
X032808Y001054D01*
X032751Y001100D01*
X032697Y001149D01*
X032645Y001201D01*
X032596Y001255D01*
X032550Y001312D01*
X032508Y001371D01*
X032468Y001433D01*
X032432Y001497D01*
X032400Y001562D01*
X032371Y001629D01*
X032346Y001698D01*
X032324Y001768D01*
X032307Y001839D01*
X032293Y001911D01*
X032283Y001983D01*
X032277Y002056D01*
X032275Y002129D01*
X022251Y004758D02*
X021613Y004758D01*
X022251Y005121D02*
X022251Y005514D01*
X022251Y005877D02*
X021613Y005877D01*
X021613Y006766D02*
X022251Y006766D01*
X022251Y007129D02*
X022251Y007522D01*
X022251Y007885D02*
X021613Y007885D01*
X019249Y011175D02*
X018630Y011175D01*
X018630Y011529D02*
X018630Y011940D01*
X018630Y012295D02*
X019249Y012295D01*
X019499Y013945D02*
X019499Y014564D01*
X019145Y014564D02*
X018734Y014564D01*
X018380Y014564D02*
X018380Y013945D01*
X015430Y013498D02*
X014812Y013498D01*
X014812Y013852D02*
X014812Y014263D01*
X014812Y014617D02*
X015430Y014617D01*
X014849Y012728D02*
X014211Y012728D01*
X014849Y012365D02*
X014849Y011971D01*
X014849Y011608D02*
X014211Y011608D01*
X014101Y007885D02*
X013463Y007885D01*
X013463Y007522D02*
X013463Y007129D01*
X013463Y006766D02*
X014101Y006766D01*
X014101Y005877D02*
X013463Y005877D01*
X013463Y005514D02*
X013463Y005121D01*
X013463Y004758D02*
X014101Y004758D01*
X023408Y012603D02*
X023408Y012914D01*
X024550Y012914D01*
X024550Y012603D01*
X023408Y012603D01*
X023408Y014217D02*
X023408Y014529D01*
X024550Y014529D01*
X024550Y014217D01*
X023408Y014217D01*
X026185Y013132D02*
X026497Y013132D01*
X026497Y011991D01*
X026185Y011991D01*
X026185Y013132D01*
X024156Y016894D02*
X023014Y016894D01*
X023014Y017206D01*
X024156Y017206D01*
X024156Y016894D01*
X032275Y017877D02*
X032277Y017950D01*
X032283Y018023D01*
X032293Y018095D01*
X032307Y018167D01*
X032324Y018238D01*
X032346Y018308D01*
X032371Y018377D01*
X032400Y018444D01*
X032432Y018509D01*
X032468Y018573D01*
X032508Y018635D01*
X032550Y018694D01*
X032596Y018751D01*
X032645Y018805D01*
X032697Y018857D01*
X032751Y018906D01*
X032808Y018952D01*
X032867Y018994D01*
X032929Y019034D01*
X032993Y019070D01*
X033058Y019102D01*
X033125Y019131D01*
X033194Y019156D01*
X033264Y019178D01*
X033335Y019195D01*
X033407Y019209D01*
X033479Y019219D01*
X033552Y019225D01*
X033625Y019227D01*
X033698Y019225D01*
X033771Y019219D01*
X033843Y019209D01*
X033915Y019195D01*
X033986Y019178D01*
X034056Y019156D01*
X034125Y019131D01*
X034192Y019102D01*
X034257Y019070D01*
X034321Y019034D01*
X034383Y018994D01*
X034442Y018952D01*
X034499Y018906D01*
X034553Y018857D01*
X034605Y018805D01*
X034654Y018751D01*
X034700Y018694D01*
X034742Y018635D01*
X034782Y018573D01*
X034818Y018509D01*
X034850Y018444D01*
X034879Y018377D01*
X034904Y018308D01*
X034926Y018238D01*
X034943Y018167D01*
X034957Y018095D01*
X034967Y018023D01*
X034973Y017950D01*
X034975Y017877D01*
X034973Y017804D01*
X034967Y017731D01*
X034957Y017659D01*
X034943Y017587D01*
X034926Y017516D01*
X034904Y017446D01*
X034879Y017377D01*
X034850Y017310D01*
X034818Y017245D01*
X034782Y017181D01*
X034742Y017119D01*
X034700Y017060D01*
X034654Y017003D01*
X034605Y016949D01*
X034553Y016897D01*
X034499Y016848D01*
X034442Y016802D01*
X034383Y016760D01*
X034321Y016720D01*
X034257Y016684D01*
X034192Y016652D01*
X034125Y016623D01*
X034056Y016598D01*
X033986Y016576D01*
X033915Y016559D01*
X033843Y016545D01*
X033771Y016535D01*
X033698Y016529D01*
X033625Y016527D01*
X033552Y016529D01*
X033479Y016535D01*
X033407Y016545D01*
X033335Y016559D01*
X033264Y016576D01*
X033194Y016598D01*
X033125Y016623D01*
X033058Y016652D01*
X032993Y016684D01*
X032929Y016720D01*
X032867Y016760D01*
X032808Y016802D01*
X032751Y016848D01*
X032697Y016897D01*
X032645Y016949D01*
X032596Y017003D01*
X032550Y017060D01*
X032508Y017119D01*
X032468Y017181D01*
X032432Y017245D01*
X032400Y017310D01*
X032371Y017377D01*
X032346Y017446D01*
X032324Y017516D01*
X032307Y017587D01*
X032293Y017659D01*
X032283Y017731D01*
X032277Y017804D01*
X032275Y017877D01*
X008003Y017951D02*
X008003Y018589D01*
X006884Y018589D02*
X006884Y017951D01*
X000779Y017877D02*
X000781Y017950D01*
X000787Y018023D01*
X000797Y018095D01*
X000811Y018167D01*
X000828Y018238D01*
X000850Y018308D01*
X000875Y018377D01*
X000904Y018444D01*
X000936Y018509D01*
X000972Y018573D01*
X001012Y018635D01*
X001054Y018694D01*
X001100Y018751D01*
X001149Y018805D01*
X001201Y018857D01*
X001255Y018906D01*
X001312Y018952D01*
X001371Y018994D01*
X001433Y019034D01*
X001497Y019070D01*
X001562Y019102D01*
X001629Y019131D01*
X001698Y019156D01*
X001768Y019178D01*
X001839Y019195D01*
X001911Y019209D01*
X001983Y019219D01*
X002056Y019225D01*
X002129Y019227D01*
X002202Y019225D01*
X002275Y019219D01*
X002347Y019209D01*
X002419Y019195D01*
X002490Y019178D01*
X002560Y019156D01*
X002629Y019131D01*
X002696Y019102D01*
X002761Y019070D01*
X002825Y019034D01*
X002887Y018994D01*
X002946Y018952D01*
X003003Y018906D01*
X003057Y018857D01*
X003109Y018805D01*
X003158Y018751D01*
X003204Y018694D01*
X003246Y018635D01*
X003286Y018573D01*
X003322Y018509D01*
X003354Y018444D01*
X003383Y018377D01*
X003408Y018308D01*
X003430Y018238D01*
X003447Y018167D01*
X003461Y018095D01*
X003471Y018023D01*
X003477Y017950D01*
X003479Y017877D01*
X003477Y017804D01*
X003471Y017731D01*
X003461Y017659D01*
X003447Y017587D01*
X003430Y017516D01*
X003408Y017446D01*
X003383Y017377D01*
X003354Y017310D01*
X003322Y017245D01*
X003286Y017181D01*
X003246Y017119D01*
X003204Y017060D01*
X003158Y017003D01*
X003109Y016949D01*
X003057Y016897D01*
X003003Y016848D01*
X002946Y016802D01*
X002887Y016760D01*
X002825Y016720D01*
X002761Y016684D01*
X002696Y016652D01*
X002629Y016623D01*
X002560Y016598D01*
X002490Y016576D01*
X002419Y016559D01*
X002347Y016545D01*
X002275Y016535D01*
X002202Y016529D01*
X002129Y016527D01*
X002056Y016529D01*
X001983Y016535D01*
X001911Y016545D01*
X001839Y016559D01*
X001768Y016576D01*
X001698Y016598D01*
X001629Y016623D01*
X001562Y016652D01*
X001497Y016684D01*
X001433Y016720D01*
X001371Y016760D01*
X001312Y016802D01*
X001255Y016848D01*
X001201Y016897D01*
X001149Y016949D01*
X001100Y017003D01*
X001054Y017060D01*
X001012Y017119D01*
X000972Y017181D01*
X000936Y017245D01*
X000904Y017310D01*
X000875Y017377D01*
X000850Y017446D01*
X000828Y017516D01*
X000811Y017587D01*
X000797Y017659D01*
X000787Y017731D01*
X000781Y017804D01*
X000779Y017877D01*
X000779Y002129D02*
X000781Y002202D01*
X000787Y002275D01*
X000797Y002347D01*
X000811Y002419D01*
X000828Y002490D01*
X000850Y002560D01*
X000875Y002629D01*
X000904Y002696D01*
X000936Y002761D01*
X000972Y002825D01*
X001012Y002887D01*
X001054Y002946D01*
X001100Y003003D01*
X001149Y003057D01*
X001201Y003109D01*
X001255Y003158D01*
X001312Y003204D01*
X001371Y003246D01*
X001433Y003286D01*
X001497Y003322D01*
X001562Y003354D01*
X001629Y003383D01*
X001698Y003408D01*
X001768Y003430D01*
X001839Y003447D01*
X001911Y003461D01*
X001983Y003471D01*
X002056Y003477D01*
X002129Y003479D01*
X002202Y003477D01*
X002275Y003471D01*
X002347Y003461D01*
X002419Y003447D01*
X002490Y003430D01*
X002560Y003408D01*
X002629Y003383D01*
X002696Y003354D01*
X002761Y003322D01*
X002825Y003286D01*
X002887Y003246D01*
X002946Y003204D01*
X003003Y003158D01*
X003057Y003109D01*
X003109Y003057D01*
X003158Y003003D01*
X003204Y002946D01*
X003246Y002887D01*
X003286Y002825D01*
X003322Y002761D01*
X003354Y002696D01*
X003383Y002629D01*
X003408Y002560D01*
X003430Y002490D01*
X003447Y002419D01*
X003461Y002347D01*
X003471Y002275D01*
X003477Y002202D01*
X003479Y002129D01*
X003477Y002056D01*
X003471Y001983D01*
X003461Y001911D01*
X003447Y001839D01*
X003430Y001768D01*
X003408Y001698D01*
X003383Y001629D01*
X003354Y001562D01*
X003322Y001497D01*
X003286Y001433D01*
X003246Y001371D01*
X003204Y001312D01*
X003158Y001255D01*
X003109Y001201D01*
X003057Y001149D01*
X003003Y001100D01*
X002946Y001054D01*
X002887Y001012D01*
X002825Y000972D01*
X002761Y000936D01*
X002696Y000904D01*
X002629Y000875D01*
X002560Y000850D01*
X002490Y000828D01*
X002419Y000811D01*
X002347Y000797D01*
X002275Y000787D01*
X002202Y000781D01*
X002129Y000779D01*
X002056Y000781D01*
X001983Y000787D01*
X001911Y000797D01*
X001839Y000811D01*
X001768Y000828D01*
X001698Y000850D01*
X001629Y000875D01*
X001562Y000904D01*
X001497Y000936D01*
X001433Y000972D01*
X001371Y001012D01*
X001312Y001054D01*
X001255Y001100D01*
X001201Y001149D01*
X001149Y001201D01*
X001100Y001255D01*
X001054Y001312D01*
X001012Y001371D01*
X000972Y001433D01*
X000936Y001497D01*
X000904Y001562D01*
X000875Y001629D01*
X000850Y001698D01*
X000828Y001768D01*
X000811Y001839D01*
X000797Y001911D01*
X000787Y001983D01*
X000781Y002056D01*
X000779Y002129D01*
D12*
X001440Y002129D02*
X001442Y002181D01*
X001448Y002233D01*
X001458Y002284D01*
X001471Y002334D01*
X001489Y002384D01*
X001510Y002431D01*
X001534Y002477D01*
X001563Y002521D01*
X001594Y002563D01*
X001628Y002602D01*
X001665Y002639D01*
X001705Y002672D01*
X001748Y002703D01*
X001792Y002730D01*
X001838Y002754D01*
X001887Y002774D01*
X001936Y002790D01*
X001987Y002803D01*
X002038Y002812D01*
X002090Y002817D01*
X002142Y002818D01*
X002194Y002815D01*
X002246Y002808D01*
X002297Y002797D01*
X002347Y002783D01*
X002396Y002764D01*
X002443Y002742D01*
X002488Y002717D01*
X002532Y002688D01*
X002573Y002656D01*
X002612Y002621D01*
X002647Y002583D01*
X002680Y002542D01*
X002710Y002500D01*
X002736Y002455D01*
X002759Y002408D01*
X002778Y002359D01*
X002794Y002309D01*
X002806Y002259D01*
X002814Y002207D01*
X002818Y002155D01*
X002818Y002103D01*
X002814Y002051D01*
X002806Y001999D01*
X002794Y001949D01*
X002778Y001899D01*
X002759Y001850D01*
X002736Y001803D01*
X002710Y001758D01*
X002680Y001716D01*
X002647Y001675D01*
X002612Y001637D01*
X002573Y001602D01*
X002532Y001570D01*
X002488Y001541D01*
X002443Y001516D01*
X002396Y001494D01*
X002347Y001475D01*
X002297Y001461D01*
X002246Y001450D01*
X002194Y001443D01*
X002142Y001440D01*
X002090Y001441D01*
X002038Y001446D01*
X001987Y001455D01*
X001936Y001468D01*
X001887Y001484D01*
X001838Y001504D01*
X001792Y001528D01*
X001748Y001555D01*
X001705Y001586D01*
X001665Y001619D01*
X001628Y001656D01*
X001594Y001695D01*
X001563Y001737D01*
X001534Y001781D01*
X001510Y001827D01*
X001489Y001874D01*
X001471Y001924D01*
X001458Y001974D01*
X001448Y002025D01*
X001442Y002077D01*
X001440Y002129D01*
X008861Y001766D02*
X009199Y001766D01*
X009199Y001932D01*
X008861Y001766D02*
X008861Y004066D01*
X009191Y004066D01*
X009191Y003900D01*
X009333Y003624D02*
X009301Y003620D01*
X009270Y003613D01*
X009240Y003602D01*
X009211Y003587D01*
X009183Y003570D01*
X009158Y003549D01*
X009136Y003526D01*
X009116Y003501D01*
X009099Y003473D01*
X009086Y003444D01*
X009075Y003413D01*
X009068Y003382D01*
X009065Y003350D01*
X009066Y003317D01*
X009066Y002530D01*
X009065Y002522D02*
X009067Y002489D01*
X009073Y002456D01*
X009082Y002424D01*
X009094Y002393D01*
X009110Y002363D01*
X009128Y002335D01*
X009150Y002310D01*
X009173Y002286D01*
X009200Y002266D01*
X009228Y002248D01*
X009258Y002233D01*
X009289Y002221D01*
X009322Y002213D01*
X009355Y002208D01*
X009388Y002207D01*
X014234Y004629D02*
X014236Y004641D01*
X014242Y004653D01*
X014250Y004661D01*
X014262Y004667D01*
X014274Y004669D01*
X014286Y004667D01*
X014298Y004661D01*
X014306Y004653D01*
X014312Y004641D01*
X014314Y004629D01*
X014312Y004617D01*
X014306Y004605D01*
X014298Y004597D01*
X014286Y004591D01*
X014274Y004589D01*
X014262Y004591D01*
X014250Y004597D01*
X014242Y004605D01*
X014236Y004617D01*
X014234Y004629D01*
X014234Y006636D02*
X014236Y006648D01*
X014242Y006660D01*
X014250Y006668D01*
X014262Y006674D01*
X014274Y006676D01*
X014286Y006674D01*
X014298Y006668D01*
X014306Y006660D01*
X014312Y006648D01*
X014314Y006636D01*
X014312Y006624D01*
X014306Y006612D01*
X014298Y006604D01*
X014286Y006598D01*
X014274Y006596D01*
X014262Y006598D01*
X014250Y006604D01*
X014242Y006612D01*
X014236Y006624D01*
X014234Y006636D01*
X009964Y008762D02*
X009966Y008774D01*
X009971Y008785D01*
X009980Y008794D01*
X009991Y008799D01*
X010003Y008801D01*
X010015Y008799D01*
X010026Y008794D01*
X010035Y008785D01*
X010040Y008774D01*
X010042Y008762D01*
X010040Y008750D01*
X010035Y008739D01*
X010026Y008730D01*
X010015Y008725D01*
X010003Y008723D01*
X009991Y008725D01*
X009980Y008730D01*
X009971Y008739D01*
X009966Y008750D01*
X009964Y008762D01*
X007660Y008349D02*
X007662Y008361D01*
X007667Y008372D01*
X007676Y008381D01*
X007687Y008386D01*
X007699Y008388D01*
X007711Y008386D01*
X007722Y008381D01*
X007731Y008372D01*
X007736Y008361D01*
X007738Y008349D01*
X007736Y008337D01*
X007731Y008326D01*
X007722Y008317D01*
X007711Y008312D01*
X007699Y008310D01*
X007687Y008312D01*
X007676Y008317D01*
X007667Y008326D01*
X007662Y008337D01*
X007660Y008349D01*
X008487Y010691D02*
X008489Y010703D01*
X008494Y010714D01*
X008503Y010723D01*
X008514Y010728D01*
X008526Y010730D01*
X008538Y010728D01*
X008549Y010723D01*
X008558Y010714D01*
X008563Y010703D01*
X008565Y010691D01*
X008563Y010679D01*
X008558Y010668D01*
X008549Y010659D01*
X008538Y010654D01*
X008526Y010652D01*
X008514Y010654D01*
X008503Y010659D01*
X008494Y010668D01*
X008489Y010679D01*
X008487Y010691D01*
X003522Y010765D02*
X001522Y010765D01*
X001522Y011115D01*
X003522Y011115D02*
X003522Y010765D01*
X003522Y013615D02*
X003522Y013965D01*
X001522Y013965D01*
X001522Y013615D01*
X006714Y017680D02*
X006716Y017692D01*
X006722Y017704D01*
X006730Y017712D01*
X006742Y017718D01*
X006754Y017720D01*
X006766Y017718D01*
X006778Y017712D01*
X006786Y017704D01*
X006792Y017692D01*
X006794Y017680D01*
X006792Y017668D01*
X006786Y017656D01*
X006778Y017648D01*
X006766Y017642D01*
X006754Y017640D01*
X006742Y017642D01*
X006730Y017648D01*
X006722Y017656D01*
X006716Y017668D01*
X006714Y017680D01*
X001440Y017877D02*
X001442Y017929D01*
X001448Y017981D01*
X001458Y018032D01*
X001471Y018082D01*
X001489Y018132D01*
X001510Y018179D01*
X001534Y018225D01*
X001563Y018269D01*
X001594Y018311D01*
X001628Y018350D01*
X001665Y018387D01*
X001705Y018420D01*
X001748Y018451D01*
X001792Y018478D01*
X001838Y018502D01*
X001887Y018522D01*
X001936Y018538D01*
X001987Y018551D01*
X002038Y018560D01*
X002090Y018565D01*
X002142Y018566D01*
X002194Y018563D01*
X002246Y018556D01*
X002297Y018545D01*
X002347Y018531D01*
X002396Y018512D01*
X002443Y018490D01*
X002488Y018465D01*
X002532Y018436D01*
X002573Y018404D01*
X002612Y018369D01*
X002647Y018331D01*
X002680Y018290D01*
X002710Y018248D01*
X002736Y018203D01*
X002759Y018156D01*
X002778Y018107D01*
X002794Y018057D01*
X002806Y018007D01*
X002814Y017955D01*
X002818Y017903D01*
X002818Y017851D01*
X002814Y017799D01*
X002806Y017747D01*
X002794Y017697D01*
X002778Y017647D01*
X002759Y017598D01*
X002736Y017551D01*
X002710Y017506D01*
X002680Y017464D01*
X002647Y017423D01*
X002612Y017385D01*
X002573Y017350D01*
X002532Y017318D01*
X002488Y017289D01*
X002443Y017264D01*
X002396Y017242D01*
X002347Y017223D01*
X002297Y017209D01*
X002246Y017198D01*
X002194Y017191D01*
X002142Y017188D01*
X002090Y017189D01*
X002038Y017194D01*
X001987Y017203D01*
X001936Y017216D01*
X001887Y017232D01*
X001838Y017252D01*
X001792Y017276D01*
X001748Y017303D01*
X001705Y017334D01*
X001665Y017367D01*
X001628Y017404D01*
X001594Y017443D01*
X001563Y017485D01*
X001534Y017529D01*
X001510Y017575D01*
X001489Y017622D01*
X001471Y017672D01*
X001458Y017722D01*
X001448Y017773D01*
X001442Y017825D01*
X001440Y017877D01*
X013998Y012857D02*
X014000Y012869D01*
X014006Y012881D01*
X014014Y012889D01*
X014026Y012895D01*
X014038Y012897D01*
X014050Y012895D01*
X014062Y012889D01*
X014070Y012881D01*
X014076Y012869D01*
X014078Y012857D01*
X014076Y012845D01*
X014070Y012833D01*
X014062Y012825D01*
X014050Y012819D01*
X014038Y012817D01*
X014026Y012819D01*
X014014Y012825D01*
X014006Y012833D01*
X014000Y012845D01*
X013998Y012857D01*
X015573Y013369D02*
X015575Y013381D01*
X015581Y013393D01*
X015589Y013401D01*
X015601Y013407D01*
X015613Y013409D01*
X015625Y013407D01*
X015637Y013401D01*
X015645Y013393D01*
X015651Y013381D01*
X015653Y013369D01*
X015651Y013357D01*
X015645Y013345D01*
X015637Y013337D01*
X015625Y013331D01*
X015613Y013329D01*
X015601Y013331D01*
X015589Y013337D01*
X015581Y013345D01*
X015575Y013357D01*
X015573Y013369D01*
X017108Y013748D02*
X017110Y013760D01*
X017116Y013772D01*
X017124Y013780D01*
X017136Y013786D01*
X017148Y013788D01*
X017160Y013786D01*
X017172Y013780D01*
X017180Y013772D01*
X017186Y013760D01*
X017188Y013748D01*
X017186Y013736D01*
X017180Y013724D01*
X017172Y013716D01*
X017160Y013710D01*
X017148Y013708D01*
X017136Y013710D01*
X017124Y013716D01*
X017116Y013724D01*
X017110Y013736D01*
X017108Y013748D01*
X018211Y013762D02*
X018213Y013774D01*
X018219Y013786D01*
X018227Y013794D01*
X018239Y013800D01*
X018251Y013802D01*
X018263Y013800D01*
X018275Y013794D01*
X018283Y013786D01*
X018289Y013774D01*
X018291Y013762D01*
X018289Y013750D01*
X018283Y013738D01*
X018275Y013730D01*
X018263Y013724D01*
X018251Y013722D01*
X018239Y013724D01*
X018227Y013730D01*
X018219Y013738D01*
X018213Y013750D01*
X018211Y013762D01*
X018781Y015869D02*
X018783Y015881D01*
X018789Y015893D01*
X018797Y015901D01*
X018809Y015907D01*
X018821Y015909D01*
X018833Y015907D01*
X018845Y015901D01*
X018853Y015893D01*
X018859Y015881D01*
X018861Y015869D01*
X018859Y015857D01*
X018853Y015845D01*
X018845Y015837D01*
X018833Y015831D01*
X018821Y015829D01*
X018809Y015831D01*
X018797Y015837D01*
X018789Y015845D01*
X018783Y015857D01*
X018781Y015869D01*
X021223Y014648D02*
X021223Y013467D01*
X021183Y013270D02*
X021185Y013282D01*
X021191Y013294D01*
X021199Y013302D01*
X021211Y013308D01*
X021223Y013310D01*
X021235Y013308D01*
X021247Y013302D01*
X021255Y013294D01*
X021261Y013282D01*
X021263Y013270D01*
X021261Y013258D01*
X021255Y013246D01*
X021247Y013238D01*
X021235Y013232D01*
X021223Y013230D01*
X021211Y013232D01*
X021199Y013238D01*
X021191Y013246D01*
X021185Y013258D01*
X021183Y013270D01*
X022798Y013467D02*
X022798Y014648D01*
X023191Y015436D02*
X022404Y015436D01*
X022404Y016223D02*
X023191Y016223D01*
X022266Y016321D02*
X022268Y016333D01*
X022274Y016345D01*
X022282Y016353D01*
X022294Y016359D01*
X022306Y016361D01*
X022318Y016359D01*
X022330Y016353D01*
X022338Y016345D01*
X022344Y016333D01*
X022346Y016321D01*
X022344Y016309D01*
X022338Y016297D01*
X022330Y016289D01*
X022318Y016283D01*
X022306Y016281D01*
X022294Y016283D01*
X022282Y016289D01*
X022274Y016297D01*
X022268Y016309D01*
X022266Y016321D01*
X019392Y011046D02*
X019394Y011058D01*
X019400Y011070D01*
X019408Y011078D01*
X019420Y011084D01*
X019432Y011086D01*
X019444Y011084D01*
X019456Y011078D01*
X019464Y011070D01*
X019470Y011058D01*
X019472Y011046D01*
X019470Y011034D01*
X019464Y011022D01*
X019456Y011014D01*
X019444Y011008D01*
X019432Y011006D01*
X019420Y011008D01*
X019408Y011014D01*
X019400Y011022D01*
X019394Y011034D01*
X019392Y011046D01*
X021400Y008014D02*
X021402Y008026D01*
X021408Y008038D01*
X021416Y008046D01*
X021428Y008052D01*
X021440Y008054D01*
X021452Y008052D01*
X021464Y008046D01*
X021472Y008038D01*
X021478Y008026D01*
X021480Y008014D01*
X021478Y008002D01*
X021472Y007990D01*
X021464Y007982D01*
X021452Y007976D01*
X021440Y007974D01*
X021428Y007976D01*
X021416Y007982D01*
X021408Y007990D01*
X021402Y008002D01*
X021400Y008014D01*
X021400Y006006D02*
X021402Y006018D01*
X021408Y006030D01*
X021416Y006038D01*
X021428Y006044D01*
X021440Y006046D01*
X021452Y006044D01*
X021464Y006038D01*
X021472Y006030D01*
X021478Y006018D01*
X021480Y006006D01*
X021478Y005994D01*
X021472Y005982D01*
X021464Y005974D01*
X021452Y005968D01*
X021440Y005966D01*
X021428Y005968D01*
X021416Y005974D01*
X021408Y005982D01*
X021402Y005994D01*
X021400Y006006D01*
X026365Y003625D02*
X026398Y003624D01*
X026431Y003619D01*
X026464Y003611D01*
X026495Y003599D01*
X026525Y003584D01*
X026553Y003566D01*
X026580Y003546D01*
X026603Y003522D01*
X026625Y003497D01*
X026643Y003469D01*
X026659Y003439D01*
X026671Y003408D01*
X026680Y003376D01*
X026686Y003343D01*
X026688Y003310D01*
X026688Y003302D02*
X026688Y002514D01*
X026687Y002515D02*
X026688Y002482D01*
X026685Y002450D01*
X026678Y002419D01*
X026667Y002388D01*
X026654Y002359D01*
X026637Y002331D01*
X026617Y002306D01*
X026595Y002283D01*
X026570Y002262D01*
X026542Y002245D01*
X026513Y002230D01*
X026483Y002219D01*
X026452Y002212D01*
X026420Y002208D01*
X026562Y001932D02*
X026562Y001766D01*
X026892Y001766D01*
X026892Y004066D01*
X026562Y004066D01*
X026562Y003900D01*
X032936Y002129D02*
X032938Y002181D01*
X032944Y002233D01*
X032954Y002284D01*
X032967Y002334D01*
X032985Y002384D01*
X033006Y002431D01*
X033030Y002477D01*
X033059Y002521D01*
X033090Y002563D01*
X033124Y002602D01*
X033161Y002639D01*
X033201Y002672D01*
X033244Y002703D01*
X033288Y002730D01*
X033334Y002754D01*
X033383Y002774D01*
X033432Y002790D01*
X033483Y002803D01*
X033534Y002812D01*
X033586Y002817D01*
X033638Y002818D01*
X033690Y002815D01*
X033742Y002808D01*
X033793Y002797D01*
X033843Y002783D01*
X033892Y002764D01*
X033939Y002742D01*
X033984Y002717D01*
X034028Y002688D01*
X034069Y002656D01*
X034108Y002621D01*
X034143Y002583D01*
X034176Y002542D01*
X034206Y002500D01*
X034232Y002455D01*
X034255Y002408D01*
X034274Y002359D01*
X034290Y002309D01*
X034302Y002259D01*
X034310Y002207D01*
X034314Y002155D01*
X034314Y002103D01*
X034310Y002051D01*
X034302Y001999D01*
X034290Y001949D01*
X034274Y001899D01*
X034255Y001850D01*
X034232Y001803D01*
X034206Y001758D01*
X034176Y001716D01*
X034143Y001675D01*
X034108Y001637D01*
X034069Y001602D01*
X034028Y001570D01*
X033984Y001541D01*
X033939Y001516D01*
X033892Y001494D01*
X033843Y001475D01*
X033793Y001461D01*
X033742Y001450D01*
X033690Y001443D01*
X033638Y001440D01*
X033586Y001441D01*
X033534Y001446D01*
X033483Y001455D01*
X033432Y001468D01*
X033383Y001484D01*
X033334Y001504D01*
X033288Y001528D01*
X033244Y001555D01*
X033201Y001586D01*
X033161Y001619D01*
X033124Y001656D01*
X033090Y001695D01*
X033059Y001737D01*
X033030Y001781D01*
X033006Y001827D01*
X032985Y001874D01*
X032967Y001924D01*
X032954Y001974D01*
X032944Y002025D01*
X032938Y002077D01*
X032936Y002129D01*
X028684Y010396D02*
X028686Y010408D01*
X028691Y010419D01*
X028700Y010428D01*
X028711Y010433D01*
X028723Y010435D01*
X028735Y010433D01*
X028746Y010428D01*
X028755Y010419D01*
X028760Y010408D01*
X028762Y010396D01*
X028760Y010384D01*
X028755Y010373D01*
X028746Y010364D01*
X028735Y010359D01*
X028723Y010357D01*
X028711Y010359D01*
X028700Y010364D01*
X028691Y010373D01*
X028686Y010384D01*
X028684Y010396D01*
X032936Y017877D02*
X032938Y017929D01*
X032944Y017981D01*
X032954Y018032D01*
X032967Y018082D01*
X032985Y018132D01*
X033006Y018179D01*
X033030Y018225D01*
X033059Y018269D01*
X033090Y018311D01*
X033124Y018350D01*
X033161Y018387D01*
X033201Y018420D01*
X033244Y018451D01*
X033288Y018478D01*
X033334Y018502D01*
X033383Y018522D01*
X033432Y018538D01*
X033483Y018551D01*
X033534Y018560D01*
X033586Y018565D01*
X033638Y018566D01*
X033690Y018563D01*
X033742Y018556D01*
X033793Y018545D01*
X033843Y018531D01*
X033892Y018512D01*
X033939Y018490D01*
X033984Y018465D01*
X034028Y018436D01*
X034069Y018404D01*
X034108Y018369D01*
X034143Y018331D01*
X034176Y018290D01*
X034206Y018248D01*
X034232Y018203D01*
X034255Y018156D01*
X034274Y018107D01*
X034290Y018057D01*
X034302Y018007D01*
X034310Y017955D01*
X034314Y017903D01*
X034314Y017851D01*
X034310Y017799D01*
X034302Y017747D01*
X034290Y017697D01*
X034274Y017647D01*
X034255Y017598D01*
X034232Y017551D01*
X034206Y017506D01*
X034176Y017464D01*
X034143Y017423D01*
X034108Y017385D01*
X034069Y017350D01*
X034028Y017318D01*
X033984Y017289D01*
X033939Y017264D01*
X033892Y017242D01*
X033843Y017223D01*
X033793Y017209D01*
X033742Y017198D01*
X033690Y017191D01*
X033638Y017188D01*
X033586Y017189D01*
X033534Y017194D01*
X033483Y017203D01*
X033432Y017216D01*
X033383Y017232D01*
X033334Y017252D01*
X033288Y017276D01*
X033244Y017303D01*
X033201Y017334D01*
X033161Y017367D01*
X033124Y017404D01*
X033090Y017443D01*
X033059Y017485D01*
X033030Y017529D01*
X033006Y017575D01*
X032985Y017622D01*
X032967Y017672D01*
X032954Y017722D01*
X032944Y017773D01*
X032938Y017825D01*
X032936Y017877D01*
D13*
X029825Y018526D02*
X029825Y020239D01*
X028900Y021026D02*
X025751Y021026D01*
X024825Y020239D02*
X024825Y018526D01*
X029825Y018526D01*
X010642Y012699D02*
X010642Y010258D01*
X010534Y010150D01*
X008093Y010150D01*
X007985Y010258D01*
X007985Y012699D01*
X008093Y012808D01*
X010534Y012808D01*
X010642Y012699D01*
D14*
X012286Y012562D03*
X013073Y012562D03*
X013310Y010829D03*
X014097Y010829D03*
X014884Y010829D03*
X015672Y012089D03*
X012522Y010829D03*
X012562Y007325D03*
X012562Y005317D03*
X006577Y006144D03*
X005790Y006144D03*
X005357Y011518D03*
X007050Y016499D03*
X007837Y016499D03*
X008625Y016499D03*
X021518Y015810D03*
X023979Y015711D03*
X025947Y014294D03*
X024963Y012463D03*
X022207Y012207D03*
X023152Y007325D03*
X023152Y005317D03*
D15*
X028132Y010975D02*
X028132Y010999D01*
X025172Y014294D02*
X025148Y014294D01*
X023007Y012207D02*
X022983Y012207D01*
X021432Y012010D02*
X021408Y012010D01*
X020172Y011735D02*
X020148Y011735D01*
X017770Y011735D02*
X017746Y011735D01*
X016353Y014058D02*
X016329Y014058D01*
X017943Y014254D02*
X017967Y014254D01*
X019912Y014254D02*
X019936Y014254D01*
X013952Y014058D02*
X013928Y014058D01*
X011471Y013270D02*
X011447Y013270D01*
X007443Y013534D02*
X007443Y013558D01*
X006459Y010881D02*
X006459Y010857D01*
X006459Y010093D02*
X006459Y010069D01*
X006518Y008971D02*
X006518Y008947D01*
X006782Y007739D02*
X006806Y007739D01*
X004700Y008585D02*
X004676Y008585D01*
X009294Y007160D02*
X009294Y007136D01*
X010365Y007483D02*
X010389Y007483D01*
D16*
X004169Y021545D03*
X001807Y021545D03*
D17*
X005239Y017129D03*
D18*
X022837Y008460D03*
X022837Y008160D03*
X022837Y006452D03*
X022837Y006152D03*
D19*
X003422Y010865D03*
D20*
X004589Y005377D02*
X004688Y005278D01*
X004491Y005278D01*
X004589Y005377D01*
D21*
X005666Y004677D03*
X005666Y004655D03*
X005666Y004644D03*
X005666Y004633D03*
X005666Y004611D03*
X005666Y004600D03*
X005666Y004589D03*
X005666Y004578D03*
X005666Y000860D03*
X005666Y000849D03*
X005666Y000838D03*
X005666Y000816D03*
X005666Y000805D03*
X005666Y000794D03*
X005666Y000783D03*
X005666Y000761D03*
X005666Y000751D03*
X030076Y000751D03*
X030076Y000761D03*
X030076Y000783D03*
X030076Y000794D03*
X030076Y000805D03*
X030076Y000816D03*
X030076Y000838D03*
X030076Y000849D03*
X030076Y000860D03*
X030076Y004578D03*
X030076Y004589D03*
X030076Y004600D03*
X030076Y004611D03*
X030076Y004633D03*
X030076Y004644D03*
X030076Y004655D03*
X030076Y004677D03*
X031493Y006184D03*
X031493Y006195D03*
X031493Y006216D03*
X031493Y006227D03*
X031493Y006238D03*
X031493Y006249D03*
X031493Y006271D03*
X031493Y006282D03*
X031493Y006293D03*
X031493Y010011D03*
X031493Y010022D03*
X031493Y010033D03*
X031493Y010055D03*
X031493Y010066D03*
X031493Y010077D03*
X031493Y010088D03*
X031493Y010110D03*
X031454Y011184D03*
X031454Y011195D03*
X031454Y011216D03*
X031454Y011227D03*
X031454Y011238D03*
X031454Y011249D03*
X031454Y011271D03*
X031454Y011282D03*
X031454Y011293D03*
X031454Y015011D03*
X031454Y015022D03*
X031454Y015033D03*
X031454Y015055D03*
X031454Y015066D03*
X031454Y015077D03*
X031454Y015088D03*
X031454Y015110D03*
D22*
X031454Y015099D03*
X031454Y015044D03*
X031454Y015000D03*
X031454Y011260D03*
X031454Y011205D03*
X031493Y010099D03*
X031493Y010044D03*
X031493Y010000D03*
X031493Y006260D03*
X031493Y006205D03*
X030076Y004666D03*
X030076Y004622D03*
X030076Y004567D03*
X030076Y000827D03*
X030076Y000772D03*
X005666Y000772D03*
X005666Y000827D03*
X005666Y004567D03*
X005666Y004622D03*
X005666Y004666D03*
D23*
X003758Y004524D03*
X003758Y004469D03*
X003758Y004425D03*
X003758Y004370D03*
X003758Y004327D03*
X003758Y004272D03*
X003758Y004228D03*
X003758Y004174D03*
X003758Y004130D03*
X003758Y004075D03*
X003758Y004031D03*
X003758Y003977D03*
X003758Y003933D03*
X003758Y003878D03*
X003758Y003835D03*
X003758Y003780D03*
X003758Y003736D03*
X003758Y003681D03*
X003758Y003638D03*
X003758Y003583D03*
X003758Y003539D03*
X003758Y003485D03*
X003758Y003441D03*
X003758Y003386D03*
X003758Y003342D03*
X003758Y003288D03*
X003758Y003244D03*
X003758Y003189D03*
X003758Y003146D03*
X003758Y003091D03*
X003758Y003047D03*
X003758Y002992D03*
X003758Y002949D03*
X003758Y002894D03*
X003758Y002850D03*
X003758Y002796D03*
X003758Y002752D03*
X003758Y002697D03*
X003758Y002653D03*
X003758Y002599D03*
X003758Y002555D03*
X003758Y002500D03*
X003758Y002457D03*
X003758Y002402D03*
X003758Y002358D03*
X003758Y002303D03*
X003758Y002260D03*
X003758Y002205D03*
X003758Y002161D03*
X003758Y002107D03*
X003758Y002063D03*
X003758Y002008D03*
X003758Y001954D03*
X003758Y001910D03*
X003758Y001855D03*
X003758Y001811D03*
X003758Y001757D03*
X003758Y001713D03*
X003758Y001658D03*
X003758Y001615D03*
X003758Y001560D03*
X003758Y001516D03*
X003758Y001472D03*
X003758Y001418D03*
X003758Y001374D03*
X003758Y001319D03*
X003758Y001275D03*
X003758Y001221D03*
X003758Y001177D03*
X003758Y001122D03*
X003758Y001079D03*
X003758Y001024D03*
X003758Y000969D03*
X003758Y000926D03*
X003758Y000871D03*
X005781Y002500D03*
X028167Y002500D03*
X028167Y002457D03*
X028167Y002402D03*
X028167Y002358D03*
X028167Y002303D03*
X028167Y002260D03*
X028167Y002205D03*
X028167Y002161D03*
X028167Y002107D03*
X028167Y002063D03*
X028167Y002008D03*
X028167Y001954D03*
X028167Y001910D03*
X028167Y001855D03*
X028167Y001811D03*
X028167Y001757D03*
X028167Y001713D03*
X028167Y001658D03*
X028167Y001615D03*
X028167Y001560D03*
X028167Y001516D03*
X028167Y001472D03*
X028167Y001418D03*
X028167Y001374D03*
X028167Y001319D03*
X028167Y001275D03*
X028167Y001221D03*
X028167Y001177D03*
X028167Y001122D03*
X028167Y001079D03*
X028167Y001024D03*
X028167Y000969D03*
X028167Y000926D03*
X028167Y000871D03*
X030377Y001560D03*
X028167Y002555D03*
X028167Y002599D03*
X028167Y002653D03*
X028167Y002697D03*
X028167Y002752D03*
X028167Y002796D03*
X028167Y002850D03*
X028167Y002894D03*
X028167Y002949D03*
X028167Y002992D03*
X028167Y003047D03*
X028167Y003091D03*
X028167Y003146D03*
X028167Y003189D03*
X028167Y003244D03*
X028167Y003288D03*
X028167Y003342D03*
X028167Y003386D03*
X028167Y003441D03*
X028167Y003485D03*
X028167Y003539D03*
X028167Y003583D03*
X028167Y003638D03*
X028167Y003681D03*
X028167Y003736D03*
X028167Y003780D03*
X028167Y003835D03*
X028167Y003878D03*
X028167Y003933D03*
X028167Y003977D03*
X028167Y004031D03*
X028167Y004075D03*
X028167Y004130D03*
X028167Y004174D03*
X028167Y004228D03*
X028167Y004272D03*
X028167Y004327D03*
X028167Y004370D03*
X028167Y004425D03*
X028167Y004469D03*
X028167Y004524D03*
X029633Y003835D03*
X031569Y003835D03*
X029585Y006304D03*
X029585Y006359D03*
X029585Y006402D03*
X029585Y006457D03*
X029585Y006501D03*
X029585Y006555D03*
X029585Y006599D03*
X029585Y006654D03*
X029585Y006698D03*
X029585Y006752D03*
X029585Y006796D03*
X029585Y006851D03*
X029585Y006894D03*
X029585Y006949D03*
X029585Y006993D03*
X029585Y007048D03*
X029585Y007091D03*
X029585Y007146D03*
X029585Y007190D03*
X029585Y007244D03*
X029585Y007288D03*
X029585Y007343D03*
X029585Y007387D03*
X029585Y007441D03*
X029585Y007485D03*
X029585Y007540D03*
X029585Y007583D03*
X029585Y007638D03*
X029585Y007682D03*
X029585Y007737D03*
X029585Y007780D03*
X029585Y007835D03*
X029585Y007879D03*
X029585Y007933D03*
X029585Y007977D03*
X029585Y008032D03*
X029585Y008076D03*
X029585Y008130D03*
X029585Y008174D03*
X029585Y008229D03*
X029585Y008272D03*
X029585Y008327D03*
X029585Y008371D03*
X029585Y008426D03*
X029585Y008469D03*
X029585Y008524D03*
X029585Y008568D03*
X029585Y008622D03*
X029585Y008666D03*
X029585Y008721D03*
X029585Y008765D03*
X029585Y008819D03*
X029585Y008863D03*
X029585Y008918D03*
X029585Y008961D03*
X029585Y009016D03*
X029585Y009060D03*
X029585Y009115D03*
X029585Y009158D03*
X029585Y009213D03*
X029585Y009257D03*
X029585Y009311D03*
X029585Y009355D03*
X029585Y009410D03*
X029585Y009454D03*
X029585Y009508D03*
X029585Y009552D03*
X029585Y009607D03*
X029585Y009650D03*
X029585Y009705D03*
X029585Y009749D03*
X029585Y009803D03*
X029585Y009847D03*
X029585Y009902D03*
X029585Y009946D03*
X029545Y011304D03*
X029545Y011359D03*
X029545Y011402D03*
X029545Y011457D03*
X029545Y011501D03*
X029545Y011555D03*
X029545Y011599D03*
X029545Y011654D03*
X029545Y011698D03*
X029545Y011752D03*
X029545Y011796D03*
X029545Y011851D03*
X029545Y011894D03*
X029545Y011949D03*
X029545Y011993D03*
X029545Y012048D03*
X029545Y012091D03*
X029545Y012146D03*
X029545Y012190D03*
X029545Y012244D03*
X029545Y012288D03*
X029545Y012343D03*
X029545Y012387D03*
X029545Y012441D03*
X029545Y012485D03*
X029545Y012540D03*
X029545Y012583D03*
X029545Y012638D03*
X029545Y012682D03*
X029545Y012737D03*
X029545Y012780D03*
X029545Y012835D03*
X029545Y012879D03*
X029545Y012933D03*
X029545Y012977D03*
X029545Y013032D03*
X029545Y013076D03*
X029545Y013130D03*
X029545Y013174D03*
X029545Y013229D03*
X029545Y013272D03*
X029545Y013327D03*
X029545Y013371D03*
X029545Y013426D03*
X029545Y013469D03*
X029545Y013524D03*
X029545Y013568D03*
X029545Y013622D03*
X029545Y013666D03*
X029545Y013721D03*
X029545Y013765D03*
X029545Y013819D03*
X029545Y013863D03*
X029545Y013918D03*
X029545Y013961D03*
X029545Y014016D03*
X029545Y014060D03*
X029545Y014115D03*
X029545Y014158D03*
X029545Y014213D03*
X029545Y014257D03*
X029545Y014311D03*
X029545Y014355D03*
X029545Y014410D03*
X029545Y014454D03*
X029545Y014508D03*
X029545Y014552D03*
X029545Y014607D03*
X029545Y014650D03*
X029545Y014705D03*
X029545Y014749D03*
X029545Y014803D03*
X029545Y014847D03*
X029545Y014902D03*
X029545Y014946D03*
X031022Y011599D03*
D24*
X031492Y012638D03*
X030595Y013819D03*
X031142Y014607D03*
X033362Y014607D03*
X033362Y014650D03*
X033362Y014705D03*
X033362Y014749D03*
X033362Y014803D03*
X033362Y014847D03*
X033362Y014902D03*
X033362Y014946D03*
X033362Y014552D03*
X033362Y014508D03*
X033362Y014454D03*
X033362Y014410D03*
X033362Y014355D03*
X033362Y014311D03*
X033362Y014257D03*
X033362Y014213D03*
X033362Y014158D03*
X033362Y014115D03*
X033362Y014060D03*
X033362Y014016D03*
X033362Y013961D03*
X033362Y013918D03*
X033362Y013863D03*
X033362Y013819D03*
X033362Y013765D03*
X033362Y013721D03*
X033362Y013666D03*
X033362Y013622D03*
X033362Y013568D03*
X033362Y013524D03*
X033362Y013469D03*
X033362Y013426D03*
X033362Y013371D03*
X033362Y013327D03*
X033362Y013272D03*
X033362Y013229D03*
X033362Y013174D03*
X033362Y013130D03*
X033362Y013076D03*
X033362Y013032D03*
X033362Y012977D03*
X033362Y012933D03*
X033362Y012879D03*
X033362Y012835D03*
X033362Y012780D03*
X033362Y012737D03*
X033362Y012682D03*
X033362Y012638D03*
X033362Y012583D03*
X033362Y012540D03*
X033362Y012485D03*
X033362Y012441D03*
X033362Y012387D03*
X033362Y012343D03*
X033362Y012288D03*
X033362Y012244D03*
X033362Y012190D03*
X033362Y012146D03*
X033362Y012091D03*
X033362Y012048D03*
X033362Y011993D03*
X033362Y011949D03*
X033362Y011894D03*
X033362Y011851D03*
X033362Y011796D03*
X033362Y011752D03*
X033362Y011698D03*
X033362Y011654D03*
X033362Y011599D03*
X033362Y011555D03*
X033362Y011501D03*
X033362Y011457D03*
X033362Y011402D03*
X033362Y011359D03*
X033362Y011304D03*
X033401Y009946D03*
X033401Y009902D03*
X033401Y009847D03*
X033401Y009803D03*
X033401Y009749D03*
X033401Y009705D03*
X033401Y009650D03*
X033401Y009607D03*
X033401Y009552D03*
X033401Y009508D03*
X033401Y009454D03*
X033401Y009410D03*
X033401Y009355D03*
X033401Y009311D03*
X033401Y009257D03*
X033401Y009213D03*
X033401Y009158D03*
X033401Y009115D03*
X033401Y009060D03*
X033401Y009016D03*
X033401Y008961D03*
X033401Y008918D03*
X033401Y008863D03*
X033401Y008819D03*
X033401Y008765D03*
X033401Y008721D03*
X033401Y008666D03*
X033401Y008622D03*
X033401Y008568D03*
X033401Y008524D03*
X033401Y008469D03*
X033401Y008426D03*
X033401Y008371D03*
X033401Y008327D03*
X033401Y008272D03*
X033401Y008229D03*
X033401Y008174D03*
X033401Y008130D03*
X033401Y008076D03*
X033401Y008032D03*
X033401Y007977D03*
X033401Y007933D03*
X033401Y007879D03*
X033401Y007835D03*
X033401Y007780D03*
X033401Y007737D03*
X033401Y007682D03*
X033401Y007638D03*
X033401Y007583D03*
X033401Y007540D03*
X033401Y007485D03*
X033401Y007441D03*
X033401Y007387D03*
X033401Y007343D03*
X033401Y007288D03*
X033401Y007244D03*
X033401Y007190D03*
X033401Y007146D03*
X033401Y007091D03*
X033401Y007048D03*
X033401Y006993D03*
X033401Y006949D03*
X033401Y006894D03*
X033401Y006851D03*
X033401Y006796D03*
X033401Y006752D03*
X033401Y006698D03*
X033401Y006654D03*
X033401Y006599D03*
X033401Y006555D03*
X033401Y006501D03*
X033401Y006457D03*
X033401Y006402D03*
X033401Y006359D03*
X033401Y006304D03*
X031984Y004524D03*
X031984Y004469D03*
X031984Y004425D03*
X031984Y004370D03*
X031984Y004327D03*
X031984Y004272D03*
X031984Y004228D03*
X031984Y004174D03*
X031984Y004130D03*
X031984Y004075D03*
X031984Y004031D03*
X031984Y003977D03*
X031984Y003933D03*
X031984Y003878D03*
X031984Y003835D03*
X031984Y003780D03*
X031984Y003736D03*
X031984Y003681D03*
X031984Y003638D03*
X031984Y003583D03*
X031984Y003539D03*
X031984Y003485D03*
X031984Y003441D03*
X031984Y003386D03*
X031984Y003342D03*
X031984Y003288D03*
X031984Y003244D03*
X031984Y003189D03*
X031984Y003146D03*
X031984Y003091D03*
X031984Y003047D03*
X031984Y002992D03*
X031984Y002949D03*
X031984Y002894D03*
X031984Y002850D03*
X031984Y002796D03*
X031984Y002752D03*
X031984Y002697D03*
X031984Y002653D03*
X031984Y002599D03*
X031984Y002555D03*
X031984Y002500D03*
X031984Y002457D03*
X031984Y002402D03*
X031984Y002358D03*
X031984Y002303D03*
X031984Y002260D03*
X031984Y002205D03*
X031984Y002161D03*
X031984Y002107D03*
X031984Y002063D03*
X031984Y002008D03*
X031984Y001954D03*
X031984Y001910D03*
X031984Y001855D03*
X031984Y001811D03*
X031984Y001757D03*
X031984Y001713D03*
X031984Y001658D03*
X031984Y001615D03*
X031984Y001560D03*
X031984Y001516D03*
X031984Y001472D03*
X031984Y001418D03*
X031984Y001374D03*
X031984Y001319D03*
X031984Y001275D03*
X031984Y001221D03*
X031984Y001177D03*
X031984Y001122D03*
X031984Y001079D03*
X031984Y001024D03*
X031984Y000969D03*
X031984Y000926D03*
X031984Y000871D03*
X007575Y000871D03*
X007575Y000926D03*
X007575Y000969D03*
X007575Y001024D03*
X007575Y001079D03*
X007575Y001122D03*
X007575Y001177D03*
X007575Y001221D03*
X007575Y001275D03*
X007575Y001319D03*
X007575Y001374D03*
X007575Y001418D03*
X007575Y001472D03*
X007575Y001516D03*
X007575Y001560D03*
X007575Y001615D03*
X007575Y001658D03*
X007575Y001713D03*
X007575Y001757D03*
X007575Y001811D03*
X007575Y001855D03*
X007575Y001910D03*
X007575Y001954D03*
X007575Y002008D03*
X007575Y002063D03*
X007575Y002107D03*
X007575Y002161D03*
X007575Y002205D03*
X007575Y002260D03*
X007575Y002303D03*
X007575Y002358D03*
X007575Y002402D03*
X007575Y002457D03*
X007575Y002500D03*
X007575Y002555D03*
X007575Y002599D03*
X007575Y002653D03*
X007575Y002697D03*
X007575Y002752D03*
X007575Y002796D03*
X007575Y002850D03*
X007575Y002894D03*
X007575Y002949D03*
X007575Y002992D03*
X007575Y003047D03*
X007575Y003091D03*
X007575Y003146D03*
X007575Y003189D03*
X007575Y003244D03*
X007575Y003288D03*
X007575Y003342D03*
X007575Y003386D03*
X007575Y003441D03*
X007575Y003485D03*
X007575Y003539D03*
X007575Y003583D03*
X007575Y003638D03*
X007575Y003681D03*
X007575Y003736D03*
X007575Y003780D03*
X007575Y003835D03*
X007575Y003878D03*
X007575Y003933D03*
X007575Y003977D03*
X007575Y004031D03*
X007575Y004075D03*
X007575Y004130D03*
X007575Y004174D03*
X007575Y004228D03*
X007575Y004272D03*
X007575Y004327D03*
X007575Y004370D03*
X007575Y004425D03*
X007575Y004469D03*
X007575Y004524D03*
D25*
X006175Y002839D03*
X003758Y002839D03*
X003758Y002828D03*
X003758Y002817D03*
X003758Y002807D03*
X003758Y002785D03*
X003758Y002774D03*
X003758Y002763D03*
X003758Y002741D03*
X003758Y002730D03*
X003758Y002719D03*
X003758Y002708D03*
X003758Y002686D03*
X003758Y002675D03*
X003758Y002664D03*
X003758Y002643D03*
X003758Y002632D03*
X003758Y002621D03*
X003758Y002610D03*
X003758Y002588D03*
X003758Y002577D03*
X003758Y002566D03*
X003758Y002544D03*
X003758Y002533D03*
X003758Y002522D03*
X003758Y002511D03*
X003758Y002489D03*
X003758Y002478D03*
X003758Y002468D03*
X003758Y002446D03*
X003758Y002435D03*
X003758Y002424D03*
X003758Y002413D03*
X003758Y002391D03*
X003758Y002380D03*
X003758Y002369D03*
X003758Y002347D03*
X003758Y002336D03*
X003758Y002325D03*
X003758Y002314D03*
X003758Y002293D03*
X003758Y002282D03*
X003758Y002271D03*
X003758Y002249D03*
X003758Y002238D03*
X003758Y002227D03*
X003758Y002216D03*
X003758Y002194D03*
X003758Y002183D03*
X003758Y002172D03*
X003758Y002150D03*
X003758Y002139D03*
X003758Y002129D03*
X003758Y002118D03*
X003758Y002096D03*
X003758Y002085D03*
X003758Y002074D03*
X003758Y002052D03*
X003758Y002041D03*
X003758Y002030D03*
X003758Y002019D03*
X003758Y001997D03*
X003758Y001986D03*
X003758Y001975D03*
X003758Y001964D03*
X003758Y001943D03*
X003758Y001932D03*
X003758Y001921D03*
X003758Y001899D03*
X003758Y001888D03*
X003758Y001877D03*
X003758Y001866D03*
X003758Y001844D03*
X003758Y001833D03*
X003758Y001822D03*
X003758Y001800D03*
X003758Y001789D03*
X003758Y001779D03*
X003758Y001768D03*
X003758Y001746D03*
X003758Y001735D03*
X003758Y001724D03*
X003758Y001702D03*
X003758Y001691D03*
X003758Y001680D03*
X003758Y001669D03*
X003758Y001647D03*
X003758Y001636D03*
X003758Y001625D03*
X003758Y001604D03*
X003758Y001593D03*
X003758Y001582D03*
X003758Y001571D03*
X003758Y001549D03*
X003758Y001538D03*
X003758Y001527D03*
X003758Y001505D03*
X003758Y001494D03*
X003758Y001483D03*
X003758Y001461D03*
X003758Y001450D03*
X003758Y001440D03*
X003758Y001429D03*
X003758Y001407D03*
X003758Y001396D03*
X003758Y001385D03*
X003758Y001363D03*
X003758Y001352D03*
X003758Y001341D03*
X003758Y001330D03*
X003758Y001308D03*
X003758Y001297D03*
X003758Y001286D03*
X003758Y001265D03*
X003758Y001254D03*
X003758Y001243D03*
X003758Y001232D03*
X003758Y001210D03*
X003758Y001199D03*
X003758Y001188D03*
X003758Y001166D03*
X003758Y001155D03*
X003758Y001144D03*
X003758Y001133D03*
X003758Y001111D03*
X003758Y001101D03*
X003758Y001090D03*
X003758Y001068D03*
X003758Y001057D03*
X003758Y001046D03*
X003758Y001035D03*
X003758Y001013D03*
X003758Y001002D03*
X003758Y000991D03*
X003758Y000980D03*
X003758Y000958D03*
X003758Y000947D03*
X003758Y000936D03*
X003758Y000915D03*
X003758Y000904D03*
X003758Y000893D03*
X003758Y000882D03*
X003758Y002861D03*
X003758Y002872D03*
X003758Y002883D03*
X003758Y002905D03*
X003758Y002916D03*
X003758Y002927D03*
X003758Y002938D03*
X003758Y002960D03*
X003758Y002971D03*
X003758Y002982D03*
X003758Y003003D03*
X003758Y003014D03*
X003758Y003025D03*
X003758Y003036D03*
X003758Y003058D03*
X003758Y003069D03*
X003758Y003080D03*
X003758Y003102D03*
X003758Y003113D03*
X003758Y003124D03*
X003758Y003135D03*
X003758Y003156D03*
X003758Y003167D03*
X003758Y003178D03*
X003758Y003200D03*
X003758Y003211D03*
X003758Y003222D03*
X003758Y003233D03*
X003758Y003255D03*
X003758Y003266D03*
X003758Y003277D03*
X003758Y003299D03*
X003758Y003310D03*
X003758Y003321D03*
X003758Y003331D03*
X003758Y003353D03*
X003758Y003364D03*
X003758Y003375D03*
X003758Y003397D03*
X003758Y003408D03*
X003758Y003419D03*
X003758Y003430D03*
X003758Y003452D03*
X003758Y003463D03*
X003758Y003474D03*
X003758Y003496D03*
X003758Y003506D03*
X003758Y003517D03*
X003758Y003528D03*
X003758Y003550D03*
X003758Y003561D03*
X003758Y003572D03*
X003758Y003594D03*
X003758Y003605D03*
X003758Y003616D03*
X003758Y003627D03*
X003758Y003649D03*
X003758Y003660D03*
X003758Y003671D03*
X003758Y003692D03*
X003758Y003703D03*
X003758Y003714D03*
X003758Y003725D03*
X003758Y003747D03*
X003758Y003758D03*
X003758Y003769D03*
X003758Y003791D03*
X003758Y003802D03*
X003758Y003813D03*
X003758Y003824D03*
X003758Y003845D03*
X003758Y003856D03*
X003758Y003867D03*
X003758Y003889D03*
X003758Y003900D03*
X003758Y003911D03*
X003758Y003922D03*
X003758Y003944D03*
X003758Y003955D03*
X003758Y003966D03*
X003758Y003988D03*
X003758Y003999D03*
X003758Y004010D03*
X003758Y004020D03*
X003758Y004042D03*
X003758Y004053D03*
X003758Y004064D03*
X003758Y004086D03*
X003758Y004097D03*
X003758Y004108D03*
X003758Y004119D03*
X003758Y004141D03*
X003758Y004152D03*
X003758Y004163D03*
X003758Y004184D03*
X003758Y004195D03*
X003758Y004206D03*
X003758Y004217D03*
X003758Y004239D03*
X003758Y004250D03*
X003758Y004261D03*
X003758Y004283D03*
X003758Y004294D03*
X003758Y004305D03*
X003758Y004316D03*
X003758Y004338D03*
X003758Y004349D03*
X003758Y004359D03*
X003758Y004381D03*
X003758Y004392D03*
X003758Y004403D03*
X003758Y004414D03*
X003758Y004436D03*
X003758Y004447D03*
X003758Y004458D03*
X003758Y004480D03*
X003758Y004491D03*
X003758Y004502D03*
X003758Y004513D03*
X003758Y004534D03*
X003758Y004545D03*
X003758Y004556D03*
X028167Y004556D03*
X028167Y004545D03*
X028167Y004534D03*
X028167Y004513D03*
X028167Y004502D03*
X028167Y004491D03*
X028167Y004480D03*
X028167Y004458D03*
X028167Y004447D03*
X028167Y004436D03*
X028167Y004414D03*
X028167Y004403D03*
X028167Y004392D03*
X028167Y004381D03*
X028167Y004359D03*
X028167Y004349D03*
X028167Y004338D03*
X028167Y004316D03*
X028167Y004305D03*
X028167Y004294D03*
X028167Y004283D03*
X028167Y004261D03*
X028167Y004250D03*
X028167Y004239D03*
X028167Y004217D03*
X028167Y004206D03*
X028167Y004195D03*
X028167Y004184D03*
X028167Y004163D03*
X028167Y004152D03*
X028167Y004141D03*
X028167Y004119D03*
X028167Y004108D03*
X028167Y004097D03*
X028167Y004086D03*
X028167Y004064D03*
X028167Y004053D03*
X028167Y004042D03*
X028167Y004020D03*
X028167Y004010D03*
X028167Y003999D03*
X028167Y003988D03*
X028167Y003966D03*
X028167Y003955D03*
X028167Y003944D03*
X028167Y003922D03*
X028167Y003911D03*
X028167Y003900D03*
X028167Y003889D03*
X028167Y003867D03*
X028167Y003856D03*
X028167Y003845D03*
X028167Y003824D03*
X028167Y003813D03*
X028167Y003802D03*
X028167Y003791D03*
X028167Y003769D03*
X028167Y003758D03*
X028167Y003747D03*
X028167Y003725D03*
X028167Y003714D03*
X028167Y003703D03*
X028167Y003692D03*
X028167Y003671D03*
X028167Y003660D03*
X028167Y003649D03*
X028167Y003627D03*
X028167Y003616D03*
X028167Y003605D03*
X028167Y003594D03*
X028167Y003572D03*
X028167Y003561D03*
X028167Y003550D03*
X028167Y003528D03*
X028167Y003517D03*
X028167Y003506D03*
X028167Y003496D03*
X028167Y003474D03*
X028167Y003463D03*
X028167Y003452D03*
X028167Y003430D03*
X028167Y003419D03*
X028167Y003408D03*
X028167Y003397D03*
X028167Y003375D03*
X028167Y003364D03*
X028167Y003353D03*
X028167Y003331D03*
X028167Y003321D03*
X028167Y003310D03*
X028167Y003299D03*
X028167Y003277D03*
X028167Y003266D03*
X028167Y003255D03*
X028167Y003233D03*
X028167Y003222D03*
X028167Y003211D03*
X028167Y003200D03*
X028167Y003178D03*
X028167Y003167D03*
X028167Y003156D03*
X028167Y003135D03*
X028167Y003124D03*
X028167Y003113D03*
X028167Y003102D03*
X028167Y003080D03*
X028167Y003069D03*
X028167Y003058D03*
X028167Y003036D03*
X028167Y003025D03*
X028167Y003014D03*
X028167Y003003D03*
X028167Y002982D03*
X028167Y002971D03*
X028167Y002960D03*
X028167Y002938D03*
X028167Y002927D03*
X028167Y002916D03*
X028167Y002905D03*
X028167Y002883D03*
X028167Y002872D03*
X028167Y002861D03*
X028167Y002839D03*
X028167Y002828D03*
X028167Y002817D03*
X028167Y002807D03*
X028167Y002785D03*
X028167Y002774D03*
X028167Y002763D03*
X028167Y002741D03*
X028167Y002730D03*
X028167Y002719D03*
X028167Y002708D03*
X028167Y002686D03*
X028167Y002675D03*
X028167Y002664D03*
X028167Y002643D03*
X028167Y002632D03*
X028167Y002621D03*
X028167Y002610D03*
X028167Y002588D03*
X028167Y002577D03*
X028167Y002566D03*
X028167Y002544D03*
X028167Y002533D03*
X028167Y002522D03*
X028167Y002511D03*
X028167Y002489D03*
X028167Y002478D03*
X028167Y002468D03*
X028167Y002446D03*
X028167Y002435D03*
X028167Y002424D03*
X028167Y002413D03*
X028167Y002391D03*
X028167Y002380D03*
X028167Y002369D03*
X028167Y002347D03*
X028167Y002336D03*
X028167Y002325D03*
X028167Y002314D03*
X028167Y002293D03*
X028167Y002282D03*
X028167Y002271D03*
X028167Y002249D03*
X028167Y002238D03*
X028167Y002227D03*
X028167Y002216D03*
X028167Y002194D03*
X028167Y002183D03*
X028167Y002172D03*
X028167Y002150D03*
X028167Y002139D03*
X028167Y002129D03*
X028167Y002118D03*
X028167Y002096D03*
X028167Y002085D03*
X028167Y002074D03*
X028167Y002052D03*
X028167Y002041D03*
X028167Y002030D03*
X028167Y002019D03*
X028167Y001997D03*
X028167Y001986D03*
X028167Y001975D03*
X028167Y001964D03*
X028167Y001943D03*
X028167Y001932D03*
X028167Y001921D03*
X028167Y001899D03*
X028167Y001888D03*
X028167Y001877D03*
X028167Y001866D03*
X028167Y001844D03*
X028167Y001833D03*
X028167Y001822D03*
X028167Y001800D03*
X028167Y001789D03*
X028167Y001779D03*
X028167Y001768D03*
X028167Y001746D03*
X028167Y001735D03*
X028167Y001724D03*
X028167Y001702D03*
X028167Y001691D03*
X028167Y001680D03*
X028167Y001669D03*
X028167Y001647D03*
X028167Y001636D03*
X028167Y001625D03*
X028167Y001604D03*
X028167Y001593D03*
X028167Y001582D03*
X028167Y001571D03*
X028167Y001549D03*
X028167Y001538D03*
X028167Y001527D03*
X028167Y001505D03*
X028167Y001494D03*
X028167Y001483D03*
X028167Y001461D03*
X028167Y001450D03*
X028167Y001440D03*
X028167Y001429D03*
X028167Y001407D03*
X028167Y001396D03*
X028167Y001385D03*
X028167Y001363D03*
X028167Y001352D03*
X028167Y001341D03*
X028167Y001330D03*
X028167Y001308D03*
X028167Y001297D03*
X028167Y001286D03*
X028167Y001265D03*
X028167Y001254D03*
X028167Y001243D03*
X028167Y001232D03*
X028167Y001210D03*
X028167Y001199D03*
X028167Y001188D03*
X028167Y001166D03*
X028167Y001155D03*
X028167Y001144D03*
X028167Y001133D03*
X028167Y001111D03*
X028167Y001101D03*
X028167Y001090D03*
X028167Y001068D03*
X028167Y001057D03*
X028167Y001046D03*
X028167Y001035D03*
X028167Y001013D03*
X028167Y001002D03*
X028167Y000991D03*
X028167Y000980D03*
X028167Y000958D03*
X028167Y000947D03*
X028167Y000936D03*
X028167Y000915D03*
X028167Y000904D03*
X028167Y000893D03*
X028167Y000882D03*
X028463Y001549D03*
X029436Y001636D03*
X028594Y003867D03*
X029585Y006315D03*
X029585Y006326D03*
X029585Y006337D03*
X029585Y006348D03*
X029585Y006370D03*
X029585Y006380D03*
X029585Y006391D03*
X029585Y006413D03*
X029585Y006424D03*
X029585Y006435D03*
X029585Y006446D03*
X029585Y006468D03*
X029585Y006479D03*
X029585Y006490D03*
X029585Y006512D03*
X029585Y006523D03*
X029585Y006534D03*
X029585Y006545D03*
X029585Y006566D03*
X029585Y006577D03*
X029585Y006588D03*
X029585Y006610D03*
X029585Y006621D03*
X029585Y006632D03*
X029585Y006643D03*
X029585Y006665D03*
X029585Y006676D03*
X029585Y006687D03*
X029585Y006709D03*
X029585Y006719D03*
X029585Y006730D03*
X029585Y006741D03*
X029585Y006763D03*
X029585Y006774D03*
X029585Y006785D03*
X029585Y006807D03*
X029585Y006818D03*
X029585Y006829D03*
X029585Y006840D03*
X029585Y006862D03*
X029585Y006873D03*
X029585Y006884D03*
X029585Y006905D03*
X029585Y006916D03*
X029585Y006927D03*
X029585Y006938D03*
X029585Y006960D03*
X029585Y006971D03*
X029585Y006982D03*
X029585Y007004D03*
X029585Y007015D03*
X029585Y007026D03*
X029585Y007037D03*
X029585Y007059D03*
X029585Y007069D03*
X029585Y007080D03*
X029585Y007102D03*
X029585Y007113D03*
X029585Y007124D03*
X029585Y007135D03*
X029585Y007157D03*
X029585Y007168D03*
X029585Y007179D03*
X029585Y007201D03*
X029585Y007212D03*
X029585Y007223D03*
X029585Y007234D03*
X029585Y007255D03*
X029585Y007266D03*
X029585Y007277D03*
X029585Y007299D03*
X029585Y007310D03*
X029585Y007321D03*
X029585Y007332D03*
X029585Y007354D03*
X029585Y007365D03*
X029585Y007376D03*
X029585Y007398D03*
X029585Y007408D03*
X029585Y007419D03*
X029585Y007430D03*
X029585Y007452D03*
X029585Y007463D03*
X029585Y007474D03*
X029585Y007496D03*
X029585Y007507D03*
X029585Y007518D03*
X029585Y007529D03*
X029585Y007551D03*
X029585Y007562D03*
X029585Y007573D03*
X029585Y007594D03*
X029585Y007605D03*
X029585Y007616D03*
X029585Y007627D03*
X029585Y007649D03*
X029585Y007660D03*
X029585Y007671D03*
X029585Y007693D03*
X029585Y007704D03*
X029585Y007715D03*
X029585Y007726D03*
X029585Y007747D03*
X029585Y007758D03*
X029585Y007769D03*
X029585Y007791D03*
X029585Y007802D03*
X029585Y007813D03*
X029585Y007824D03*
X029585Y007846D03*
X029585Y007857D03*
X029585Y007868D03*
X029585Y007890D03*
X029585Y007901D03*
X029585Y007912D03*
X029585Y007922D03*
X029585Y007944D03*
X029585Y007955D03*
X029585Y007966D03*
X029585Y007988D03*
X029585Y007999D03*
X029585Y008010D03*
X029585Y008021D03*
X029585Y008043D03*
X029585Y008054D03*
X029585Y008065D03*
X029585Y008086D03*
X029585Y008097D03*
X029585Y008108D03*
X029585Y008119D03*
X029585Y008141D03*
X029585Y008152D03*
X029585Y008163D03*
X029585Y008185D03*
X029585Y008196D03*
X029585Y008207D03*
X029585Y008218D03*
X029585Y008240D03*
X029585Y008251D03*
X029585Y008261D03*
X029585Y008283D03*
X029585Y008294D03*
X029585Y008305D03*
X029585Y008316D03*
X029585Y008338D03*
X029585Y008349D03*
X029585Y008360D03*
X029585Y008382D03*
X029585Y008393D03*
X029585Y008404D03*
X029585Y008415D03*
X029585Y008436D03*
X029585Y008447D03*
X029585Y008458D03*
X029585Y008480D03*
X029585Y008491D03*
X029585Y008502D03*
X029585Y008513D03*
X029585Y008535D03*
X029585Y008546D03*
X029585Y008557D03*
X029585Y008579D03*
X029585Y008590D03*
X029585Y008601D03*
X029585Y008611D03*
X029585Y008633D03*
X029585Y008644D03*
X029585Y008655D03*
X029585Y008677D03*
X029585Y008688D03*
X029585Y008699D03*
X029585Y008710D03*
X029585Y008732D03*
X029585Y008743D03*
X029585Y008754D03*
X029585Y008775D03*
X029585Y008786D03*
X029585Y008797D03*
X029585Y008808D03*
X029585Y008830D03*
X029585Y008841D03*
X029585Y008852D03*
X029585Y008874D03*
X029585Y008885D03*
X029585Y008896D03*
X029585Y008907D03*
X029585Y008929D03*
X029585Y008940D03*
X029585Y008950D03*
X029585Y008972D03*
X029585Y008983D03*
X029585Y008994D03*
X029585Y009005D03*
X029585Y009027D03*
X029585Y009038D03*
X029585Y009049D03*
X029585Y009071D03*
X029585Y009082D03*
X029585Y009093D03*
X029585Y009104D03*
X029585Y009125D03*
X029585Y009136D03*
X029585Y009147D03*
X029585Y009169D03*
X029585Y009180D03*
X029585Y009191D03*
X029585Y009202D03*
X029585Y009224D03*
X029585Y009235D03*
X029585Y009246D03*
X029585Y009268D03*
X029585Y009279D03*
X029585Y009289D03*
X029585Y009300D03*
X029585Y009322D03*
X029585Y009333D03*
X029585Y009344D03*
X029585Y009366D03*
X029585Y009377D03*
X029585Y009388D03*
X029585Y009399D03*
X029585Y009421D03*
X029585Y009432D03*
X029585Y009443D03*
X029585Y009464D03*
X029585Y009475D03*
X029585Y009486D03*
X029585Y009497D03*
X029585Y009519D03*
X029585Y009530D03*
X029585Y009541D03*
X029585Y009563D03*
X029585Y009574D03*
X029585Y009585D03*
X029585Y009596D03*
X029585Y009618D03*
X029585Y009629D03*
X029585Y009639D03*
X029585Y009661D03*
X029585Y009672D03*
X029585Y009683D03*
X029585Y009694D03*
X029585Y009716D03*
X029585Y009727D03*
X029585Y009738D03*
X029585Y009760D03*
X029585Y009771D03*
X029585Y009782D03*
X029585Y009793D03*
X029585Y009814D03*
X029585Y009825D03*
X029585Y009836D03*
X029585Y009858D03*
X029585Y009869D03*
X029585Y009880D03*
X029585Y009891D03*
X029585Y009913D03*
X029585Y009924D03*
X029585Y009935D03*
X029585Y009957D03*
X029585Y009968D03*
X029585Y009978D03*
X029585Y009989D03*
X029545Y011315D03*
X029545Y011326D03*
X029545Y011337D03*
X029545Y011348D03*
X029545Y011370D03*
X029545Y011380D03*
X029545Y011391D03*
X029545Y011413D03*
X029545Y011424D03*
X029545Y011435D03*
X029545Y011446D03*
X029545Y011468D03*
X029545Y011479D03*
X029545Y011490D03*
X029545Y011512D03*
X029545Y011523D03*
X029545Y011534D03*
X029545Y011545D03*
X029545Y011566D03*
X029545Y011577D03*
X029545Y011588D03*
X029545Y011610D03*
X029545Y011621D03*
X029545Y011632D03*
X029545Y011643D03*
X029545Y011665D03*
X029545Y011676D03*
X029545Y011687D03*
X029545Y011709D03*
X029545Y011719D03*
X029545Y011730D03*
X029545Y011741D03*
X029545Y011763D03*
X029545Y011774D03*
X029545Y011785D03*
X029545Y011807D03*
X029545Y011818D03*
X029545Y011829D03*
X029545Y011840D03*
X029545Y011862D03*
X029545Y011873D03*
X029545Y011884D03*
X029545Y011905D03*
X029545Y011916D03*
X029545Y011927D03*
X029545Y011938D03*
X029545Y011960D03*
X029545Y011971D03*
X029545Y011982D03*
X029545Y012004D03*
X029545Y012015D03*
X029545Y012026D03*
X029545Y012037D03*
X029545Y012059D03*
X029545Y012069D03*
X029545Y012080D03*
X029545Y012102D03*
X029545Y012113D03*
X029545Y012124D03*
X029545Y012135D03*
X029545Y012157D03*
X029545Y012168D03*
X029545Y012179D03*
X029545Y012201D03*
X029545Y012212D03*
X029545Y012223D03*
X029545Y012234D03*
X029545Y012255D03*
X029545Y012266D03*
X029545Y012277D03*
X029545Y012299D03*
X029545Y012310D03*
X029545Y012321D03*
X029545Y012332D03*
X029545Y012354D03*
X029545Y012365D03*
X029545Y012376D03*
X029545Y012398D03*
X029545Y012408D03*
X029545Y012419D03*
X029545Y012430D03*
X029545Y012452D03*
X029545Y012463D03*
X029545Y012474D03*
X029545Y012496D03*
X029545Y012507D03*
X029545Y012518D03*
X029545Y012529D03*
X029545Y012551D03*
X029545Y012562D03*
X029545Y012573D03*
X029545Y012594D03*
X029545Y012605D03*
X029545Y012616D03*
X029545Y012627D03*
X029545Y012649D03*
X029545Y012660D03*
X029545Y012671D03*
X029545Y012693D03*
X029545Y012704D03*
X029545Y012715D03*
X029545Y012726D03*
X029545Y012747D03*
X029545Y012758D03*
X029545Y012769D03*
X029545Y012791D03*
X029545Y012802D03*
X029545Y012813D03*
X029545Y012824D03*
X029545Y012846D03*
X029545Y012857D03*
X029545Y012868D03*
X029545Y012890D03*
X029545Y012901D03*
X029545Y012912D03*
X029545Y012922D03*
X029545Y012944D03*
X029545Y012955D03*
X029545Y012966D03*
X029545Y012988D03*
X029545Y012999D03*
X029545Y013010D03*
X029545Y013021D03*
X029545Y013043D03*
X029545Y013054D03*
X029545Y013065D03*
X029545Y013086D03*
X029545Y013097D03*
X029545Y013108D03*
X029545Y013119D03*
X029545Y013141D03*
X029545Y013152D03*
X029545Y013163D03*
X029545Y013185D03*
X029545Y013196D03*
X029545Y013207D03*
X029545Y013218D03*
X029545Y013240D03*
X029545Y013251D03*
X029545Y013261D03*
X029545Y013283D03*
X029545Y013294D03*
X029545Y013305D03*
X029545Y013316D03*
X029545Y013338D03*
X029545Y013349D03*
X029545Y013360D03*
X029545Y013382D03*
X029545Y013393D03*
X029545Y013404D03*
X029545Y013415D03*
X029545Y013436D03*
X029545Y013447D03*
X029545Y013458D03*
X029545Y013480D03*
X029545Y013491D03*
X029545Y013502D03*
X029545Y013513D03*
X029545Y013535D03*
X029545Y013546D03*
X029545Y013557D03*
X029545Y013579D03*
X029545Y013590D03*
X029545Y013601D03*
X029545Y013611D03*
X029545Y013633D03*
X029545Y013644D03*
X029545Y013655D03*
X029545Y013677D03*
X029545Y013688D03*
X029545Y013699D03*
X029545Y013710D03*
X029545Y013732D03*
X029545Y013743D03*
X029545Y013754D03*
X029545Y013775D03*
X029545Y013786D03*
X029545Y013797D03*
X029545Y013808D03*
X029545Y013830D03*
X029545Y013841D03*
X029545Y013852D03*
X029545Y013874D03*
X029545Y013885D03*
X029545Y013896D03*
X029545Y013907D03*
X029545Y013929D03*
X029545Y013940D03*
X029545Y013950D03*
X029545Y013972D03*
X029545Y013983D03*
X029545Y013994D03*
X029545Y014005D03*
X029545Y014027D03*
X029545Y014038D03*
X029545Y014049D03*
X029545Y014071D03*
X029545Y014082D03*
X029545Y014093D03*
X029545Y014104D03*
X029545Y014125D03*
X029545Y014136D03*
X029545Y014147D03*
X029545Y014169D03*
X029545Y014180D03*
X029545Y014191D03*
X029545Y014202D03*
X029545Y014224D03*
X029545Y014235D03*
X029545Y014246D03*
X029545Y014268D03*
X029545Y014279D03*
X029545Y014289D03*
X029545Y014300D03*
X029545Y014322D03*
X029545Y014333D03*
X029545Y014344D03*
X029545Y014366D03*
X029545Y014377D03*
X029545Y014388D03*
X029545Y014399D03*
X029545Y014421D03*
X029545Y014432D03*
X029545Y014443D03*
X029545Y014464D03*
X029545Y014475D03*
X029545Y014486D03*
X029545Y014497D03*
X029545Y014519D03*
X029545Y014530D03*
X029545Y014541D03*
X029545Y014563D03*
X029545Y014574D03*
X029545Y014585D03*
X029545Y014596D03*
X029545Y014618D03*
X029545Y014629D03*
X029545Y014639D03*
X029545Y014661D03*
X029545Y014672D03*
X029545Y014683D03*
X029545Y014694D03*
X029545Y014716D03*
X029545Y014727D03*
X029545Y014738D03*
X029545Y014760D03*
X029545Y014771D03*
X029545Y014782D03*
X029545Y014793D03*
X029545Y014814D03*
X029545Y014825D03*
X029545Y014836D03*
X029545Y014858D03*
X029545Y014869D03*
X029545Y014880D03*
X029545Y014891D03*
X029545Y014913D03*
X029545Y014924D03*
X029545Y014935D03*
X029545Y014957D03*
X029545Y014968D03*
X029545Y014978D03*
X029545Y014989D03*
X031208Y013513D03*
X031744Y013786D03*
X031744Y013797D03*
X031744Y013808D03*
X031853Y014672D03*
X031853Y014683D03*
X032177Y008108D03*
X032297Y008010D03*
X032538Y007813D03*
X032592Y007769D03*
X032833Y007573D03*
X031750Y008010D03*
X031214Y008108D03*
D26*
X032417Y007912D03*
X032713Y007671D03*
X033401Y007671D03*
X033401Y007660D03*
X033401Y007649D03*
X033401Y007627D03*
X033401Y007616D03*
X033401Y007605D03*
X033401Y007594D03*
X033401Y007573D03*
X033401Y007562D03*
X033401Y007551D03*
X033401Y007529D03*
X033401Y007518D03*
X033401Y007507D03*
X033401Y007496D03*
X033401Y007474D03*
X033401Y007463D03*
X033401Y007452D03*
X033401Y007430D03*
X033401Y007419D03*
X033401Y007408D03*
X033401Y007398D03*
X033401Y007376D03*
X033401Y007365D03*
X033401Y007354D03*
X033401Y007332D03*
X033401Y007321D03*
X033401Y007310D03*
X033401Y007299D03*
X033401Y007277D03*
X033401Y007266D03*
X033401Y007255D03*
X033401Y007234D03*
X033401Y007223D03*
X033401Y007212D03*
X033401Y007201D03*
X033401Y007179D03*
X033401Y007168D03*
X033401Y007157D03*
X033401Y007135D03*
X033401Y007124D03*
X033401Y007113D03*
X033401Y007102D03*
X033401Y007080D03*
X033401Y007069D03*
X033401Y007059D03*
X033401Y007037D03*
X033401Y007026D03*
X033401Y007015D03*
X033401Y007004D03*
X033401Y006982D03*
X033401Y006971D03*
X033401Y006960D03*
X033401Y006938D03*
X033401Y006927D03*
X033401Y006916D03*
X033401Y006905D03*
X033401Y006884D03*
X033401Y006873D03*
X033401Y006862D03*
X033401Y006840D03*
X033401Y006829D03*
X033401Y006818D03*
X033401Y006807D03*
X033401Y006785D03*
X033401Y006774D03*
X033401Y006763D03*
X033401Y006741D03*
X033401Y006730D03*
X033401Y006719D03*
X033401Y006709D03*
X033401Y006687D03*
X033401Y006676D03*
X033401Y006665D03*
X033401Y006643D03*
X033401Y006632D03*
X033401Y006621D03*
X033401Y006610D03*
X033401Y006588D03*
X033401Y006577D03*
X033401Y006566D03*
X033401Y006545D03*
X033401Y006534D03*
X033401Y006523D03*
X033401Y006512D03*
X033401Y006490D03*
X033401Y006479D03*
X033401Y006468D03*
X033401Y006446D03*
X033401Y006435D03*
X033401Y006424D03*
X033401Y006413D03*
X033401Y006391D03*
X033401Y006380D03*
X033401Y006370D03*
X033401Y006348D03*
X033401Y006337D03*
X033401Y006326D03*
X033401Y006315D03*
X033401Y007693D03*
X033401Y007704D03*
X033401Y007715D03*
X033401Y007726D03*
X033401Y007747D03*
X033401Y007758D03*
X033401Y007769D03*
X033401Y007791D03*
X033401Y007802D03*
X033401Y007813D03*
X033401Y007824D03*
X033401Y007846D03*
X033401Y007857D03*
X033401Y007868D03*
X033401Y007890D03*
X033401Y007901D03*
X033401Y007912D03*
X033401Y007922D03*
X033401Y007944D03*
X033401Y007955D03*
X033401Y007966D03*
X033401Y007988D03*
X033401Y007999D03*
X033401Y008010D03*
X033401Y008021D03*
X033401Y008043D03*
X033401Y008054D03*
X033401Y008065D03*
X033401Y008086D03*
X033401Y008097D03*
X033401Y008108D03*
X033401Y008119D03*
X033401Y008141D03*
X033401Y008152D03*
X033401Y008163D03*
X033401Y008185D03*
X033401Y008196D03*
X033401Y008207D03*
X033401Y008218D03*
X033401Y008240D03*
X033401Y008251D03*
X033401Y008261D03*
X033401Y008283D03*
X033401Y008294D03*
X033401Y008305D03*
X033401Y008316D03*
X033401Y008338D03*
X033401Y008349D03*
X033401Y008360D03*
X033401Y008382D03*
X033401Y008393D03*
X033401Y008404D03*
X033401Y008415D03*
X033401Y008436D03*
X033401Y008447D03*
X033401Y008458D03*
X033401Y008480D03*
X033401Y008491D03*
X033401Y008502D03*
X033401Y008513D03*
X033401Y008535D03*
X033401Y008546D03*
X033401Y008557D03*
X033401Y008579D03*
X033401Y008590D03*
X033401Y008601D03*
X033401Y008611D03*
X033401Y008633D03*
X033401Y008644D03*
X033401Y008655D03*
X033401Y008677D03*
X033401Y008688D03*
X033401Y008699D03*
X033401Y008710D03*
X033401Y008732D03*
X033401Y008743D03*
X033401Y008754D03*
X033401Y008775D03*
X033401Y008786D03*
X033401Y008797D03*
X033401Y008808D03*
X033401Y008830D03*
X033401Y008841D03*
X033401Y008852D03*
X033401Y008874D03*
X033401Y008885D03*
X033401Y008896D03*
X033401Y008907D03*
X033401Y008929D03*
X033401Y008940D03*
X033401Y008950D03*
X033401Y008972D03*
X033401Y008983D03*
X033401Y008994D03*
X033401Y009005D03*
X033401Y009027D03*
X033401Y009038D03*
X033401Y009049D03*
X033401Y009071D03*
X033401Y009082D03*
X033401Y009093D03*
X033401Y009104D03*
X033401Y009125D03*
X033401Y009136D03*
X033401Y009147D03*
X033401Y009169D03*
X033401Y009180D03*
X033401Y009191D03*
X033401Y009202D03*
X033401Y009224D03*
X033401Y009235D03*
X033401Y009246D03*
X033401Y009268D03*
X033401Y009279D03*
X033401Y009289D03*
X033401Y009300D03*
X033401Y009322D03*
X033401Y009333D03*
X033401Y009344D03*
X033401Y009366D03*
X033401Y009377D03*
X033401Y009388D03*
X033401Y009399D03*
X033401Y009421D03*
X033401Y009432D03*
X033401Y009443D03*
X033401Y009464D03*
X033401Y009475D03*
X033401Y009486D03*
X033401Y009497D03*
X033401Y009519D03*
X033401Y009530D03*
X033401Y009541D03*
X033401Y009563D03*
X033401Y009574D03*
X033401Y009585D03*
X033401Y009596D03*
X033401Y009618D03*
X033401Y009629D03*
X033401Y009639D03*
X033401Y009661D03*
X033401Y009672D03*
X033401Y009683D03*
X033401Y009694D03*
X033401Y009716D03*
X033401Y009727D03*
X033401Y009738D03*
X033401Y009760D03*
X033401Y009771D03*
X033401Y009782D03*
X033401Y009793D03*
X033401Y009814D03*
X033401Y009825D03*
X033401Y009836D03*
X033401Y009858D03*
X033401Y009869D03*
X033401Y009880D03*
X033401Y009891D03*
X033401Y009913D03*
X033401Y009924D03*
X033401Y009935D03*
X033401Y009957D03*
X033401Y009968D03*
X033401Y009978D03*
X033401Y009989D03*
X033362Y011315D03*
X033362Y011326D03*
X033362Y011337D03*
X033362Y011348D03*
X033362Y011370D03*
X033362Y011380D03*
X033362Y011391D03*
X033362Y011413D03*
X033362Y011424D03*
X033362Y011435D03*
X033362Y011446D03*
X033362Y011468D03*
X033362Y011479D03*
X033362Y011490D03*
X033362Y011512D03*
X033362Y011523D03*
X033362Y011534D03*
X033362Y011545D03*
X033362Y011566D03*
X033362Y011577D03*
X033362Y011588D03*
X033362Y011610D03*
X033362Y011621D03*
X033362Y011632D03*
X033362Y011643D03*
X033362Y011665D03*
X033362Y011676D03*
X033362Y011687D03*
X033362Y011709D03*
X033362Y011719D03*
X033362Y011730D03*
X033362Y011741D03*
X033362Y011763D03*
X033362Y011774D03*
X033362Y011785D03*
X033362Y011807D03*
X033362Y011818D03*
X033362Y011829D03*
X033362Y011840D03*
X033362Y011862D03*
X033362Y011873D03*
X033362Y011884D03*
X033362Y011905D03*
X033362Y011916D03*
X033362Y011927D03*
X033362Y011938D03*
X033362Y011960D03*
X033362Y011971D03*
X033362Y011982D03*
X033362Y012004D03*
X033362Y012015D03*
X033362Y012026D03*
X033362Y012037D03*
X033362Y012059D03*
X033362Y012069D03*
X033362Y012080D03*
X033362Y012102D03*
X033362Y012113D03*
X033362Y012124D03*
X033362Y012135D03*
X033362Y012157D03*
X033362Y012168D03*
X033362Y012179D03*
X033362Y012201D03*
X033362Y012212D03*
X033362Y012223D03*
X033362Y012234D03*
X033362Y012255D03*
X033362Y012266D03*
X033362Y012277D03*
X033362Y012299D03*
X033362Y012310D03*
X033362Y012321D03*
X033362Y012332D03*
X033362Y012354D03*
X033362Y012365D03*
X033362Y012376D03*
X033362Y012398D03*
X033362Y012408D03*
X033362Y012419D03*
X033362Y012430D03*
X033362Y012452D03*
X033362Y012463D03*
X033362Y012474D03*
X033362Y012496D03*
X033362Y012507D03*
X033362Y012518D03*
X033362Y012529D03*
X033362Y012551D03*
X033362Y012562D03*
X033362Y012573D03*
X033362Y012594D03*
X033362Y012605D03*
X033362Y012616D03*
X033362Y012627D03*
X033362Y012649D03*
X033362Y012660D03*
X033362Y012671D03*
X033362Y012693D03*
X033362Y012704D03*
X033362Y012715D03*
X033362Y012726D03*
X033362Y012747D03*
X033362Y012758D03*
X033362Y012769D03*
X033362Y012791D03*
X033362Y012802D03*
X033362Y012813D03*
X033362Y012824D03*
X033362Y012846D03*
X033362Y012857D03*
X033362Y012868D03*
X033362Y012890D03*
X033362Y012901D03*
X033362Y012912D03*
X033362Y012922D03*
X033362Y012944D03*
X033362Y012955D03*
X033362Y012966D03*
X033362Y012988D03*
X033362Y012999D03*
X033362Y013010D03*
X033362Y013021D03*
X033362Y013043D03*
X033362Y013054D03*
X033362Y013065D03*
X033362Y013086D03*
X033362Y013097D03*
X033362Y013108D03*
X033362Y013119D03*
X033362Y013141D03*
X033362Y013152D03*
X033362Y013163D03*
X033362Y013185D03*
X033362Y013196D03*
X033362Y013207D03*
X033362Y013218D03*
X033362Y013240D03*
X033362Y013251D03*
X033362Y013261D03*
X033362Y013283D03*
X033362Y013294D03*
X033362Y013305D03*
X033362Y013316D03*
X033362Y013338D03*
X033362Y013349D03*
X033362Y013360D03*
X033362Y013382D03*
X033362Y013393D03*
X033362Y013404D03*
X033362Y013415D03*
X033362Y013436D03*
X033362Y013447D03*
X033362Y013458D03*
X033362Y013480D03*
X033362Y013491D03*
X033362Y013502D03*
X033362Y013513D03*
X033362Y013535D03*
X033362Y013546D03*
X033362Y013557D03*
X033362Y013579D03*
X033362Y013590D03*
X033362Y013601D03*
X033362Y013611D03*
X033362Y013633D03*
X033362Y013644D03*
X033362Y013655D03*
X033362Y013677D03*
X033362Y013688D03*
X033362Y013699D03*
X033362Y013710D03*
X033362Y013732D03*
X033362Y013743D03*
X033362Y013754D03*
X033362Y013775D03*
X033362Y013786D03*
X033362Y013797D03*
X033362Y013808D03*
X033362Y013830D03*
X033362Y013841D03*
X033362Y013852D03*
X033362Y013874D03*
X033362Y013885D03*
X033362Y013896D03*
X033362Y013907D03*
X033362Y013929D03*
X033362Y013940D03*
X033362Y013950D03*
X033362Y013972D03*
X033362Y013983D03*
X033362Y013994D03*
X033362Y014005D03*
X033362Y014027D03*
X033362Y014038D03*
X033362Y014049D03*
X033362Y014071D03*
X033362Y014082D03*
X033362Y014093D03*
X033362Y014104D03*
X033362Y014125D03*
X033362Y014136D03*
X033362Y014147D03*
X033362Y014169D03*
X033362Y014180D03*
X033362Y014191D03*
X033362Y014202D03*
X033362Y014224D03*
X033362Y014235D03*
X033362Y014246D03*
X033362Y014268D03*
X033362Y014279D03*
X033362Y014289D03*
X033362Y014300D03*
X033362Y014322D03*
X033362Y014333D03*
X033362Y014344D03*
X033362Y014366D03*
X033362Y014377D03*
X033362Y014388D03*
X033362Y014399D03*
X033362Y014421D03*
X033362Y014432D03*
X033362Y014443D03*
X033362Y014464D03*
X033362Y014475D03*
X033362Y014486D03*
X033362Y014497D03*
X033362Y014519D03*
X033362Y014530D03*
X033362Y014541D03*
X033362Y014563D03*
X033362Y014574D03*
X033362Y014585D03*
X033362Y014596D03*
X033362Y014618D03*
X033362Y014629D03*
X033362Y014639D03*
X033362Y014661D03*
X033362Y014672D03*
X033362Y014683D03*
X033362Y014694D03*
X033362Y014716D03*
X033362Y014727D03*
X033362Y014738D03*
X033362Y014760D03*
X033362Y014771D03*
X033362Y014782D03*
X033362Y014793D03*
X033362Y014814D03*
X033362Y014825D03*
X033362Y014836D03*
X033362Y014858D03*
X033362Y014869D03*
X033362Y014880D03*
X033362Y014891D03*
X033362Y014913D03*
X033362Y014924D03*
X033362Y014935D03*
X033362Y014957D03*
X033362Y014968D03*
X033362Y014978D03*
X033362Y014989D03*
X032575Y014104D03*
X032115Y013349D03*
X031131Y013710D03*
X030595Y013797D03*
X030595Y013808D03*
X031142Y014596D03*
X029957Y008732D03*
X031984Y004556D03*
X031984Y004545D03*
X031984Y004534D03*
X031984Y004513D03*
X031984Y004502D03*
X031984Y004491D03*
X031984Y004480D03*
X031984Y004458D03*
X031984Y004447D03*
X031984Y004436D03*
X031984Y004414D03*
X031984Y004403D03*
X031984Y004392D03*
X031984Y004381D03*
X031984Y004359D03*
X031984Y004349D03*
X031984Y004338D03*
X031984Y004316D03*
X031984Y004305D03*
X031984Y004294D03*
X031984Y004283D03*
X031984Y004261D03*
X031984Y004250D03*
X031984Y004239D03*
X031984Y004217D03*
X031984Y004206D03*
X031984Y004195D03*
X031984Y004184D03*
X031984Y004163D03*
X031984Y004152D03*
X031984Y004141D03*
X031984Y004119D03*
X031984Y004108D03*
X031984Y004097D03*
X031984Y004086D03*
X031984Y004064D03*
X031984Y004053D03*
X031984Y004042D03*
X031984Y004020D03*
X031984Y004010D03*
X031984Y003999D03*
X031984Y003988D03*
X031984Y003966D03*
X031984Y003955D03*
X031984Y003944D03*
X031984Y003922D03*
X031984Y003911D03*
X031984Y003900D03*
X031984Y003889D03*
X031984Y003867D03*
X031984Y003856D03*
X031984Y003845D03*
X031984Y003824D03*
X031984Y003813D03*
X031984Y003802D03*
X031984Y003791D03*
X031984Y003769D03*
X031984Y003758D03*
X031984Y003747D03*
X031984Y003725D03*
X031984Y003714D03*
X031984Y003703D03*
X031984Y003692D03*
X031984Y003671D03*
X031984Y003660D03*
X031984Y003649D03*
X031984Y003627D03*
X031984Y003616D03*
X031984Y003605D03*
X031984Y003594D03*
X031984Y003572D03*
X031984Y003561D03*
X031984Y003550D03*
X031984Y003528D03*
X031984Y003517D03*
X031984Y003506D03*
X031984Y003496D03*
X031984Y003474D03*
X031984Y003463D03*
X031984Y003452D03*
X031984Y003430D03*
X031984Y003419D03*
X031984Y003408D03*
X031984Y003397D03*
X031984Y003375D03*
X031984Y003364D03*
X031984Y003353D03*
X031984Y003331D03*
X031984Y003321D03*
X031984Y003310D03*
X031984Y003299D03*
X031984Y003277D03*
X031984Y003266D03*
X031984Y003255D03*
X031984Y003233D03*
X031984Y003222D03*
X031984Y003211D03*
X031984Y003200D03*
X031984Y003178D03*
X031984Y003167D03*
X031984Y003156D03*
X031984Y003135D03*
X031984Y003124D03*
X031984Y003113D03*
X031984Y003102D03*
X031984Y003080D03*
X031984Y003069D03*
X031984Y003058D03*
X031984Y003036D03*
X031984Y003025D03*
X031984Y003014D03*
X031984Y003003D03*
X031984Y002982D03*
X031984Y002971D03*
X031984Y002960D03*
X031984Y002938D03*
X031984Y002927D03*
X031984Y002916D03*
X031984Y002905D03*
X031984Y002883D03*
X031984Y002872D03*
X031984Y002861D03*
X031984Y002839D03*
X031984Y002828D03*
X031984Y002817D03*
X031984Y002807D03*
X031984Y002785D03*
X031984Y002774D03*
X031984Y002763D03*
X031984Y002741D03*
X031984Y002730D03*
X031984Y002719D03*
X031984Y002708D03*
X031984Y002686D03*
X031984Y002675D03*
X031984Y002664D03*
X031984Y002643D03*
X031984Y002632D03*
X031984Y002621D03*
X031984Y002610D03*
X031984Y002588D03*
X031984Y002577D03*
X031984Y002566D03*
X031984Y002544D03*
X031984Y002533D03*
X031984Y002522D03*
X031984Y002511D03*
X031984Y002489D03*
X031984Y002478D03*
X031984Y002468D03*
X031984Y002446D03*
X031984Y002435D03*
X031984Y002424D03*
X031984Y002413D03*
X031984Y002391D03*
X031984Y002380D03*
X031984Y002369D03*
X031984Y002347D03*
X031984Y002336D03*
X031984Y002325D03*
X031984Y002314D03*
X031984Y002293D03*
X031984Y002282D03*
X031984Y002271D03*
X031984Y002249D03*
X031984Y002238D03*
X031984Y002227D03*
X031984Y002216D03*
X031984Y002194D03*
X031984Y002183D03*
X031984Y002172D03*
X031984Y002150D03*
X031984Y002139D03*
X031984Y002129D03*
X031984Y002118D03*
X031984Y002096D03*
X031984Y002085D03*
X031984Y002074D03*
X031984Y002052D03*
X031984Y002041D03*
X031984Y002030D03*
X031984Y002019D03*
X031984Y001997D03*
X031984Y001986D03*
X031984Y001975D03*
X031984Y001964D03*
X031984Y001943D03*
X031984Y001932D03*
X031984Y001921D03*
X031984Y001899D03*
X031984Y001888D03*
X031984Y001877D03*
X031984Y001866D03*
X031984Y001844D03*
X031984Y001833D03*
X031984Y001822D03*
X031984Y001800D03*
X031984Y001789D03*
X031984Y001779D03*
X031984Y001768D03*
X031984Y001746D03*
X031984Y001735D03*
X031984Y001724D03*
X031984Y001702D03*
X031984Y001691D03*
X031984Y001680D03*
X031984Y001669D03*
X031984Y001647D03*
X031984Y001636D03*
X031984Y001625D03*
X031984Y001604D03*
X031984Y001593D03*
X031984Y001582D03*
X031984Y001571D03*
X031984Y001549D03*
X031984Y001538D03*
X031984Y001527D03*
X031984Y001505D03*
X031984Y001494D03*
X031984Y001483D03*
X031984Y001461D03*
X031984Y001450D03*
X031984Y001440D03*
X031984Y001429D03*
X031984Y001407D03*
X031984Y001396D03*
X031984Y001385D03*
X031984Y001363D03*
X031984Y001352D03*
X031984Y001341D03*
X031984Y001330D03*
X031984Y001308D03*
X031984Y001297D03*
X031984Y001286D03*
X031984Y001265D03*
X031984Y001254D03*
X031984Y001243D03*
X031984Y001232D03*
X031984Y001210D03*
X031984Y001199D03*
X031984Y001188D03*
X031984Y001166D03*
X031984Y001155D03*
X031984Y001144D03*
X031984Y001133D03*
X031984Y001111D03*
X031984Y001101D03*
X031984Y001090D03*
X031984Y001068D03*
X031984Y001057D03*
X031984Y001046D03*
X031984Y001035D03*
X031984Y001013D03*
X031984Y001002D03*
X031984Y000991D03*
X031984Y000980D03*
X031984Y000958D03*
X031984Y000947D03*
X031984Y000936D03*
X031984Y000915D03*
X031984Y000904D03*
X031984Y000893D03*
X031984Y000882D03*
X029622Y003824D03*
X031580Y003845D03*
X007575Y003845D03*
X007575Y003856D03*
X007575Y003867D03*
X007575Y003889D03*
X007575Y003900D03*
X007575Y003911D03*
X007575Y003922D03*
X007575Y003944D03*
X007575Y003955D03*
X007575Y003966D03*
X007575Y003988D03*
X007575Y003999D03*
X007575Y004010D03*
X007575Y004020D03*
X007575Y004042D03*
X007575Y004053D03*
X007575Y004064D03*
X007575Y004086D03*
X007575Y004097D03*
X007575Y004108D03*
X007575Y004119D03*
X007575Y004141D03*
X007575Y004152D03*
X007575Y004163D03*
X007575Y004184D03*
X007575Y004195D03*
X007575Y004206D03*
X007575Y004217D03*
X007575Y004239D03*
X007575Y004250D03*
X007575Y004261D03*
X007575Y004283D03*
X007575Y004294D03*
X007575Y004305D03*
X007575Y004316D03*
X007575Y004338D03*
X007575Y004349D03*
X007575Y004359D03*
X007575Y004381D03*
X007575Y004392D03*
X007575Y004403D03*
X007575Y004414D03*
X007575Y004436D03*
X007575Y004447D03*
X007575Y004458D03*
X007575Y004480D03*
X007575Y004491D03*
X007575Y004502D03*
X007575Y004513D03*
X007575Y004534D03*
X007575Y004545D03*
X007575Y004556D03*
X007575Y003824D03*
X007575Y003813D03*
X007575Y003802D03*
X007575Y003791D03*
X007575Y003769D03*
X007575Y003758D03*
X007575Y003747D03*
X007575Y003725D03*
X007575Y003714D03*
X007575Y003703D03*
X007575Y003692D03*
X007575Y003671D03*
X007575Y003660D03*
X007575Y003649D03*
X007575Y003627D03*
X007575Y003616D03*
X007575Y003605D03*
X007575Y003594D03*
X007575Y003572D03*
X007575Y003561D03*
X007575Y003550D03*
X007575Y003528D03*
X007575Y003517D03*
X007575Y003506D03*
X007575Y003496D03*
X007575Y003474D03*
X007575Y003463D03*
X007575Y003452D03*
X007575Y003430D03*
X007575Y003419D03*
X007575Y003408D03*
X007575Y003397D03*
X007575Y003375D03*
X007575Y003364D03*
X007575Y003353D03*
X007575Y003331D03*
X007575Y003321D03*
X007575Y003310D03*
X007575Y003299D03*
X007575Y003277D03*
X007575Y003266D03*
X007575Y003255D03*
X007575Y003233D03*
X007575Y003222D03*
X007575Y003211D03*
X007575Y003200D03*
X007575Y003178D03*
X007575Y003167D03*
X007575Y003156D03*
X007575Y003135D03*
X007575Y003124D03*
X007575Y003113D03*
X007575Y003102D03*
X007575Y003080D03*
X007575Y003069D03*
X007575Y003058D03*
X007575Y003036D03*
X007575Y003025D03*
X007575Y003014D03*
X007575Y003003D03*
X007575Y002982D03*
X007575Y002971D03*
X007575Y002960D03*
X007575Y002938D03*
X007575Y002927D03*
X007575Y002916D03*
X007575Y002905D03*
X007575Y002883D03*
X007575Y002872D03*
X007575Y002861D03*
X007575Y002839D03*
X007575Y002828D03*
X007575Y002817D03*
X007575Y002807D03*
X007575Y002785D03*
X007575Y002774D03*
X007575Y002763D03*
X007575Y002741D03*
X007575Y002730D03*
X007575Y002719D03*
X007575Y002708D03*
X007575Y002686D03*
X007575Y002675D03*
X007575Y002664D03*
X007575Y002643D03*
X007575Y002632D03*
X007575Y002621D03*
X007575Y002610D03*
X007575Y002588D03*
X007575Y002577D03*
X007575Y002566D03*
X007575Y002544D03*
X007575Y002533D03*
X007575Y002522D03*
X007575Y002511D03*
X007575Y002489D03*
X007575Y002478D03*
X007575Y002468D03*
X007575Y002446D03*
X007575Y002435D03*
X007575Y002424D03*
X007575Y002413D03*
X007575Y002391D03*
X007575Y002380D03*
X007575Y002369D03*
X007575Y002347D03*
X007575Y002336D03*
X007575Y002325D03*
X007575Y002314D03*
X007575Y002293D03*
X007575Y002282D03*
X007575Y002271D03*
X007575Y002249D03*
X007575Y002238D03*
X007575Y002227D03*
X007575Y002216D03*
X007575Y002194D03*
X007575Y002183D03*
X007575Y002172D03*
X007575Y002150D03*
X007575Y002139D03*
X007575Y002129D03*
X007575Y002118D03*
X007575Y002096D03*
X007575Y002085D03*
X007575Y002074D03*
X007575Y002052D03*
X007575Y002041D03*
X007575Y002030D03*
X007575Y002019D03*
X007575Y001997D03*
X007575Y001986D03*
X007575Y001975D03*
X007575Y001964D03*
X007575Y001943D03*
X007575Y001932D03*
X007575Y001921D03*
X007575Y001899D03*
X007575Y001888D03*
X007575Y001877D03*
X007575Y001866D03*
X007575Y001844D03*
X007575Y001833D03*
X007575Y001822D03*
X007575Y001800D03*
X007575Y001789D03*
X007575Y001779D03*
X007575Y001768D03*
X007575Y001746D03*
X007575Y001735D03*
X007575Y001724D03*
X007575Y001702D03*
X007575Y001691D03*
X007575Y001680D03*
X007575Y001669D03*
X007575Y001647D03*
X007575Y001636D03*
X007575Y001625D03*
X007575Y001604D03*
X007575Y001593D03*
X007575Y001582D03*
X007575Y001571D03*
X007575Y001549D03*
X007575Y001538D03*
X007575Y001527D03*
X007575Y001505D03*
X007575Y001494D03*
X007575Y001483D03*
X007575Y001461D03*
X007575Y001450D03*
X007575Y001440D03*
X007575Y001429D03*
X007575Y001407D03*
X007575Y001396D03*
X007575Y001385D03*
X007575Y001363D03*
X007575Y001352D03*
X007575Y001341D03*
X007575Y001330D03*
X007575Y001308D03*
X007575Y001297D03*
X007575Y001286D03*
X007575Y001265D03*
X007575Y001254D03*
X007575Y001243D03*
X007575Y001232D03*
X007575Y001210D03*
X007575Y001199D03*
X007575Y001188D03*
X007575Y001166D03*
X007575Y001155D03*
X007575Y001144D03*
X007575Y001133D03*
X007575Y001111D03*
X007575Y001101D03*
X007575Y001090D03*
X007575Y001068D03*
X007575Y001057D03*
X007575Y001046D03*
X007575Y001035D03*
X007575Y001013D03*
X007575Y001002D03*
X007575Y000991D03*
X007575Y000980D03*
X007575Y000958D03*
X007575Y000947D03*
X007575Y000936D03*
X007575Y000915D03*
X007575Y000904D03*
X007575Y000893D03*
X007575Y000882D03*
D27*
X029819Y001472D03*
D28*
X029824Y001483D03*
D29*
X029830Y001494D03*
D30*
X029835Y001505D03*
D31*
X028446Y001516D03*
D32*
X029327Y001516D03*
X030355Y001516D03*
X031240Y001516D03*
X031875Y014749D03*
D33*
X031864Y014727D03*
X031864Y014716D03*
X032586Y014125D03*
X031733Y013754D03*
X030584Y013852D03*
X031853Y012518D03*
X030088Y008590D03*
X030099Y008579D03*
X030121Y008557D03*
X030132Y008546D03*
X030208Y008480D03*
X030230Y008458D03*
X030241Y008447D03*
X030252Y008436D03*
X030339Y008360D03*
X030350Y008349D03*
X030361Y008338D03*
X030449Y008261D03*
X030460Y008251D03*
X030471Y008240D03*
X030492Y008218D03*
X030569Y008152D03*
X030580Y008141D03*
X030602Y008119D03*
X030613Y008108D03*
X030689Y008043D03*
X030711Y008021D03*
X030722Y008010D03*
X030733Y007999D03*
X030821Y007922D03*
X030831Y007912D03*
X030842Y007901D03*
X031225Y008097D03*
X030541Y003911D03*
X029688Y003911D03*
X029677Y003900D03*
X028605Y003889D03*
X028452Y001527D03*
X029370Y001571D03*
X029381Y001582D03*
X029392Y001593D03*
X030366Y001538D03*
X031339Y001604D03*
X031361Y001625D03*
X031372Y001636D03*
X031383Y001647D03*
X006175Y002828D03*
X005803Y002489D03*
X005705Y002413D03*
X005541Y003299D03*
D34*
X005513Y002708D03*
X028610Y003900D03*
X029693Y003922D03*
X031607Y003889D03*
X031618Y003900D03*
X031323Y001593D03*
X031312Y001582D03*
X031301Y001571D03*
X031279Y001549D03*
X031268Y001538D03*
X031257Y001527D03*
X030360Y001527D03*
X029354Y001549D03*
X029343Y001538D03*
X029332Y001527D03*
X033079Y007354D03*
X031745Y008021D03*
X031672Y013590D03*
X031738Y013743D03*
X031126Y013688D03*
X031148Y014629D03*
X031869Y014738D03*
X032591Y014136D03*
D35*
X031858Y014694D03*
X031148Y014618D03*
X030590Y013841D03*
X030590Y013830D03*
X031738Y013775D03*
X029940Y008743D03*
X030170Y008513D03*
X030181Y008502D03*
X030279Y008415D03*
X030301Y008393D03*
X030312Y008382D03*
X030399Y008305D03*
X030410Y008294D03*
X030421Y008283D03*
X030509Y008207D03*
X030520Y008196D03*
X030531Y008185D03*
X030553Y008163D03*
X030629Y008097D03*
X030662Y008065D03*
X030673Y008054D03*
X030749Y007988D03*
X030771Y007966D03*
X030793Y007944D03*
X030848Y007890D03*
X032127Y008152D03*
X032138Y008141D03*
X032193Y008097D03*
X032204Y008086D03*
X032226Y008065D03*
X032248Y008054D03*
X032281Y008021D03*
X032324Y007988D03*
X032346Y007966D03*
X032368Y007955D03*
X032379Y007944D03*
X032401Y007922D03*
X032434Y007901D03*
X032445Y007890D03*
X032466Y007868D03*
X032488Y007857D03*
X032499Y007846D03*
X032521Y007824D03*
X032565Y007791D03*
X032620Y007747D03*
X032641Y007726D03*
X032663Y007715D03*
X032674Y007704D03*
X032685Y007693D03*
X032729Y007660D03*
X032740Y007649D03*
X032762Y007627D03*
X032784Y007616D03*
X032795Y007605D03*
X032860Y007551D03*
X033068Y007365D03*
X031596Y003867D03*
X030535Y003900D03*
X029671Y003889D03*
X029649Y003856D03*
X029638Y003845D03*
X029398Y001604D03*
X030371Y001549D03*
X031399Y001669D03*
X028457Y001538D03*
D36*
X028468Y001560D03*
X029452Y001658D03*
X029529Y001757D03*
X005743Y002599D03*
X005710Y002402D03*
D37*
X029359Y001560D03*
X031350Y001615D03*
X031601Y003878D03*
X029666Y003878D03*
X030810Y007933D03*
X030700Y008032D03*
X030591Y008130D03*
X030482Y008229D03*
X030372Y008327D03*
X030328Y008371D03*
X030219Y008469D03*
X030110Y008568D03*
X031776Y012244D03*
D38*
X031290Y001560D03*
D39*
X031481Y001768D03*
X029556Y001789D03*
X029545Y001779D03*
X029524Y001746D03*
X028474Y001571D03*
X031525Y003769D03*
X028583Y003845D03*
X030864Y007868D03*
X031787Y012234D03*
X032104Y013338D03*
X032203Y013382D03*
X031678Y013579D03*
X030606Y013754D03*
X006011Y003364D03*
X005530Y003310D03*
X005694Y002708D03*
X005726Y002643D03*
X005737Y002610D03*
X005748Y002577D03*
X005759Y002544D03*
D40*
X005765Y002533D03*
X005776Y002511D03*
X005721Y002664D03*
X029441Y001647D03*
X029540Y001768D03*
X030382Y001571D03*
X031465Y001735D03*
X031465Y001746D03*
X031563Y003824D03*
X030524Y003889D03*
X031749Y013830D03*
X031749Y013841D03*
X031847Y014661D03*
D41*
X031847Y014639D03*
X031148Y014541D03*
X031148Y014530D03*
X031137Y013743D03*
X031137Y013732D03*
X031749Y013852D03*
X031749Y013874D03*
X032208Y013393D03*
X032558Y014082D03*
X030612Y013743D03*
X030612Y013732D03*
X030301Y008557D03*
X030323Y008546D03*
X030345Y008535D03*
X030389Y008513D03*
X030410Y008502D03*
X030596Y008415D03*
X030618Y008404D03*
X030640Y008393D03*
X030870Y007857D03*
X031767Y007999D03*
X032106Y008185D03*
X032368Y007715D03*
X032390Y007704D03*
X032412Y007693D03*
X032620Y007594D03*
X032663Y007573D03*
X032685Y007562D03*
X032707Y007551D03*
X030513Y003867D03*
X029562Y003725D03*
X029551Y003714D03*
X029584Y001833D03*
X029573Y001822D03*
X029562Y001800D03*
X030393Y001582D03*
X031487Y001779D03*
X031498Y001789D03*
X028479Y001582D03*
X005688Y002719D03*
D42*
X006186Y002861D03*
X028485Y001593D03*
X029600Y001866D03*
X030398Y001593D03*
X031503Y001800D03*
X029513Y003649D03*
X029524Y003671D03*
X030508Y003856D03*
X032461Y007671D03*
X032505Y007649D03*
X032548Y007627D03*
X032570Y007616D03*
X032592Y007605D03*
X032297Y007747D03*
X032275Y007758D03*
X032100Y008196D03*
X030875Y007846D03*
X030547Y008436D03*
X030525Y008447D03*
X030503Y008458D03*
X030438Y008491D03*
X030252Y008579D03*
X030230Y008590D03*
X030000Y008699D03*
X032214Y013404D03*
X032553Y014071D03*
X031142Y013754D03*
X031153Y014519D03*
D43*
X031837Y014629D03*
X032165Y013360D03*
X031487Y012649D03*
X031777Y007988D03*
X033002Y007408D03*
X031487Y003714D03*
X029518Y003660D03*
X029616Y001899D03*
X029606Y001888D03*
X029606Y001877D03*
X030404Y001604D03*
X031530Y001844D03*
X028490Y001604D03*
D44*
X028496Y001615D03*
X029622Y001910D03*
X030409Y001615D03*
X029480Y003583D03*
X031794Y007977D03*
X032083Y013327D03*
X031754Y013918D03*
X032542Y014060D03*
X006022Y003386D03*
D45*
X006005Y003342D03*
X028599Y003878D03*
X029409Y001615D03*
X032871Y007540D03*
X032816Y007583D03*
X032696Y007682D03*
X032630Y007737D03*
X032576Y007780D03*
X032390Y007933D03*
X032335Y007977D03*
X032270Y008032D03*
X032149Y008130D03*
X030760Y007977D03*
X030651Y008076D03*
X030432Y008272D03*
X030268Y008426D03*
X030159Y008524D03*
X031738Y013765D03*
X032580Y014115D03*
X031858Y014705D03*
D46*
X031148Y014486D03*
X031148Y013808D03*
X031148Y013797D03*
X031213Y013491D03*
X030634Y013688D03*
X030885Y012277D03*
X031016Y011610D03*
X032525Y014049D03*
X032084Y008218D03*
X031176Y008141D03*
X030892Y007813D03*
X032969Y007430D03*
X031432Y003627D03*
X031432Y003616D03*
X031421Y003605D03*
X031399Y003561D03*
X029463Y003561D03*
X029452Y003528D03*
X029441Y003517D03*
X029441Y003506D03*
X028556Y003802D03*
X029627Y001932D03*
X030415Y001625D03*
X031541Y001866D03*
X031552Y001888D03*
X028501Y001625D03*
X006497Y002763D03*
X006497Y002774D03*
X006476Y002719D03*
X006027Y003397D03*
D47*
X029420Y001625D03*
X029660Y003867D03*
X031585Y003856D03*
X032849Y007562D03*
X032805Y007594D03*
X032609Y007758D03*
X032554Y007802D03*
X032313Y007999D03*
X032259Y008043D03*
X032160Y008119D03*
X030782Y007955D03*
X030640Y008086D03*
X030389Y008316D03*
X030290Y008404D03*
X030192Y008491D03*
X030148Y008535D03*
X031137Y013699D03*
D48*
X031153Y013830D03*
X031153Y013841D03*
X031153Y013852D03*
X031754Y013940D03*
X031754Y013950D03*
X030737Y013097D03*
X030956Y012376D03*
X031798Y012212D03*
X030066Y008655D03*
X030897Y007802D03*
X031805Y007966D03*
X032931Y007452D03*
X030486Y003824D03*
X031372Y003506D03*
X031372Y003496D03*
X031383Y003517D03*
X031383Y003528D03*
X031405Y003572D03*
X031415Y003594D03*
X031361Y003474D03*
X031361Y003463D03*
X029436Y003496D03*
X029425Y003474D03*
X029425Y003463D03*
X028550Y003791D03*
X029644Y001975D03*
X029644Y001964D03*
X028506Y001636D03*
X031558Y001899D03*
X031569Y001921D03*
X006503Y002785D03*
X006503Y002807D03*
X006481Y002730D03*
X006470Y002708D03*
X006459Y002686D03*
X006448Y002664D03*
X006208Y002883D03*
X006219Y002074D03*
X006219Y002052D03*
D49*
X006454Y002675D03*
X006508Y002817D03*
X006508Y002828D03*
X006508Y002839D03*
X028512Y001647D03*
X029649Y001986D03*
X029649Y001997D03*
X030426Y001636D03*
X031574Y001932D03*
X031574Y001943D03*
X031355Y003452D03*
X030480Y003813D03*
X032915Y007463D03*
X031165Y008152D03*
X030903Y007791D03*
X030082Y008644D03*
X030874Y012266D03*
X030732Y013108D03*
X030634Y013677D03*
X031158Y013874D03*
X031158Y013885D03*
X031158Y013896D03*
X031760Y013972D03*
X031760Y013983D03*
X031760Y013994D03*
D50*
X031164Y013929D03*
X031164Y013907D03*
X031219Y013480D03*
X030716Y013119D03*
X031809Y012201D03*
X031149Y008163D03*
X030475Y003802D03*
X031317Y003299D03*
X031317Y003277D03*
X029392Y003353D03*
X030431Y001647D03*
X006415Y002610D03*
X005726Y002380D03*
X006219Y002096D03*
X006219Y002085D03*
D51*
X005486Y003342D03*
X028517Y001658D03*
X029655Y002008D03*
X031328Y003342D03*
X031601Y002008D03*
X029403Y003386D03*
X031765Y014016D03*
X031820Y014607D03*
D52*
X030644Y013666D03*
X030710Y013130D03*
X029387Y003342D03*
X031312Y003244D03*
X030437Y001658D03*
D53*
X031388Y001658D03*
X032751Y007638D03*
X032510Y007835D03*
X032455Y007879D03*
X032215Y008076D03*
X030542Y008174D03*
D54*
X030104Y008633D03*
X031821Y007955D03*
X032062Y008251D03*
X032860Y007496D03*
X030470Y003791D03*
X031323Y003321D03*
X031323Y003310D03*
X031312Y003266D03*
X031312Y003255D03*
X031312Y003233D03*
X031607Y002052D03*
X031607Y002041D03*
X031607Y002030D03*
X031596Y001997D03*
X029660Y002030D03*
X029660Y002041D03*
X028523Y001669D03*
X029387Y003310D03*
X029387Y003321D03*
X029387Y003331D03*
X029398Y003364D03*
X029398Y003375D03*
X030874Y012255D03*
X031858Y012551D03*
X032230Y013458D03*
X031760Y014027D03*
X031815Y014596D03*
X006421Y002621D03*
D55*
X005754Y002566D03*
X005743Y002588D03*
X005732Y002621D03*
X005732Y002632D03*
X005710Y002675D03*
X005710Y002686D03*
X005491Y002719D03*
X006005Y003353D03*
X028588Y003856D03*
X029606Y003802D03*
X029606Y003791D03*
X029616Y003813D03*
X031541Y003791D03*
X031552Y003802D03*
X031552Y003813D03*
X031454Y001724D03*
X029518Y001735D03*
X029507Y001724D03*
X029463Y001669D03*
X033057Y007376D03*
X032116Y008163D03*
X030896Y012299D03*
X030601Y013775D03*
X030601Y013786D03*
X031148Y014563D03*
X031148Y014574D03*
X031148Y014585D03*
X032569Y014093D03*
D56*
X031765Y014049D03*
X031765Y014038D03*
X031678Y013535D03*
X030650Y013655D03*
X031142Y014443D03*
X032056Y008261D03*
X032844Y007507D03*
X030919Y007769D03*
X028528Y003725D03*
X028528Y003714D03*
X028528Y003703D03*
X028528Y003692D03*
X028528Y003671D03*
X028528Y003660D03*
X028528Y003649D03*
X028528Y003627D03*
X028528Y003616D03*
X028528Y003605D03*
X028528Y003594D03*
X028528Y003572D03*
X028528Y003561D03*
X028528Y003550D03*
X028528Y003528D03*
X028528Y003517D03*
X028528Y003506D03*
X028528Y003496D03*
X028528Y003474D03*
X028528Y003463D03*
X028528Y003452D03*
X028528Y003430D03*
X028528Y003419D03*
X028528Y003408D03*
X028528Y003397D03*
X028528Y003375D03*
X028528Y003364D03*
X028528Y003353D03*
X028528Y003331D03*
X028528Y003321D03*
X028528Y003310D03*
X028528Y003299D03*
X028528Y003277D03*
X028528Y003266D03*
X028528Y003255D03*
X028528Y003233D03*
X028528Y003222D03*
X028528Y003211D03*
X028528Y003200D03*
X028528Y003178D03*
X028528Y003167D03*
X028528Y003156D03*
X028528Y003135D03*
X028528Y003124D03*
X028528Y003113D03*
X028528Y003102D03*
X028528Y003080D03*
X028528Y003069D03*
X028528Y003058D03*
X028528Y003036D03*
X028528Y003025D03*
X028528Y003014D03*
X028528Y003003D03*
X028528Y002982D03*
X028528Y002971D03*
X028528Y002960D03*
X028528Y002938D03*
X028528Y002927D03*
X028528Y002916D03*
X028528Y002905D03*
X028528Y002883D03*
X028528Y002872D03*
X028528Y002861D03*
X028528Y002839D03*
X028528Y002828D03*
X028528Y002817D03*
X028528Y002807D03*
X028528Y002785D03*
X028528Y002774D03*
X028528Y002763D03*
X028528Y002741D03*
X028528Y002730D03*
X028528Y002719D03*
X028528Y002708D03*
X028528Y002686D03*
X028528Y002675D03*
X028528Y002664D03*
X028528Y002643D03*
X028528Y002632D03*
X028528Y002621D03*
X028528Y002610D03*
X028528Y002588D03*
X028528Y002577D03*
X028528Y002566D03*
X028528Y002544D03*
X028528Y002533D03*
X028528Y002522D03*
X028528Y002511D03*
X028528Y002489D03*
X028528Y002478D03*
X028528Y002468D03*
X028528Y002446D03*
X028528Y002435D03*
X028528Y002424D03*
X028528Y002413D03*
X028528Y002391D03*
X028528Y002380D03*
X028528Y002369D03*
X028528Y002347D03*
X028528Y002336D03*
X028528Y002325D03*
X028528Y002314D03*
X028528Y002293D03*
X028528Y002282D03*
X028528Y002271D03*
X028528Y002249D03*
X028528Y002238D03*
X028528Y002227D03*
X028528Y002216D03*
X028528Y002194D03*
X028528Y002183D03*
X028528Y002172D03*
X028528Y002150D03*
X028528Y002139D03*
X028528Y002129D03*
X028528Y002118D03*
X028528Y002096D03*
X028528Y002085D03*
X028528Y002074D03*
X028528Y002052D03*
X028528Y002041D03*
X028528Y002030D03*
X028528Y002019D03*
X028528Y001997D03*
X028528Y001986D03*
X028528Y001975D03*
X028528Y001964D03*
X028528Y001943D03*
X028528Y001932D03*
X028528Y001921D03*
X028528Y001899D03*
X028528Y001888D03*
X028528Y001877D03*
X028528Y001866D03*
X028528Y001844D03*
X028528Y001833D03*
X028528Y001822D03*
X028528Y001800D03*
X028528Y001789D03*
X028528Y001779D03*
X028528Y001768D03*
X028528Y001746D03*
X028528Y001735D03*
X028528Y001724D03*
X029666Y002052D03*
X030442Y001669D03*
X029381Y003255D03*
X029381Y003266D03*
X029381Y003277D03*
X029381Y003299D03*
X006514Y002872D03*
X006405Y002588D03*
X006394Y002577D03*
X006219Y002129D03*
X006219Y002118D03*
X006055Y003430D03*
D57*
X029934Y001680D03*
X030141Y003944D03*
X030152Y003955D03*
D58*
X029939Y001691D03*
D59*
X029945Y001702D03*
D60*
X029955Y001713D03*
D61*
X029666Y002085D03*
X029666Y002096D03*
X029666Y002118D03*
X030453Y002118D03*
X030453Y002129D03*
X030453Y002139D03*
X030453Y002150D03*
X030453Y002172D03*
X030453Y002183D03*
X030453Y002194D03*
X030453Y002216D03*
X030453Y002227D03*
X030453Y002238D03*
X030453Y002249D03*
X030453Y002271D03*
X030453Y002282D03*
X030453Y002293D03*
X030453Y002314D03*
X030453Y002325D03*
X030453Y002336D03*
X030453Y002347D03*
X030453Y002369D03*
X030453Y002380D03*
X030453Y002391D03*
X030453Y002413D03*
X030453Y002424D03*
X030453Y002435D03*
X030453Y002446D03*
X030453Y002468D03*
X030453Y002478D03*
X030453Y002489D03*
X030453Y002511D03*
X030453Y002522D03*
X030453Y002533D03*
X030453Y002544D03*
X030453Y002566D03*
X030453Y002577D03*
X030453Y002588D03*
X030453Y002610D03*
X030453Y002621D03*
X030453Y002632D03*
X030453Y002643D03*
X030453Y002664D03*
X030453Y002675D03*
X030453Y002686D03*
X030453Y002708D03*
X030453Y002719D03*
X030453Y002730D03*
X030453Y002741D03*
X030453Y002763D03*
X030453Y002774D03*
X030453Y002785D03*
X030453Y002807D03*
X030453Y002817D03*
X030453Y002828D03*
X030453Y002839D03*
X030453Y002861D03*
X030453Y002872D03*
X030453Y002883D03*
X030453Y002905D03*
X030453Y002916D03*
X030453Y002927D03*
X030453Y002938D03*
X030453Y002960D03*
X030453Y002971D03*
X030453Y002982D03*
X030453Y003003D03*
X030453Y003014D03*
X030453Y003025D03*
X030453Y003036D03*
X030453Y003058D03*
X030453Y003069D03*
X030453Y003080D03*
X030453Y003102D03*
X030453Y003113D03*
X030453Y003124D03*
X030453Y003135D03*
X030453Y003156D03*
X030453Y003167D03*
X030453Y003178D03*
X030453Y003200D03*
X030453Y003211D03*
X030453Y003222D03*
X030453Y003233D03*
X030453Y003255D03*
X030453Y003266D03*
X030453Y003277D03*
X030453Y003299D03*
X030453Y003310D03*
X030453Y003321D03*
X030453Y003331D03*
X030453Y003353D03*
X030453Y003364D03*
X030453Y003375D03*
X030453Y003397D03*
X030453Y003408D03*
X030453Y003419D03*
X030453Y003430D03*
X030453Y003452D03*
X030453Y003463D03*
X030453Y003474D03*
X030453Y003496D03*
X030453Y003506D03*
X030453Y003517D03*
X030453Y003528D03*
X030453Y003550D03*
X030453Y003561D03*
X030453Y003572D03*
X030453Y003594D03*
X030453Y003605D03*
X030453Y003616D03*
X030453Y003627D03*
X030453Y003649D03*
X030453Y003660D03*
X030453Y003671D03*
X030453Y003692D03*
X030453Y003703D03*
X030453Y003714D03*
X030453Y002096D03*
X030453Y002085D03*
X030453Y002074D03*
X030453Y002052D03*
X030453Y002041D03*
X030453Y002030D03*
X030453Y002019D03*
X030453Y001997D03*
X030453Y001986D03*
X030453Y001975D03*
X030453Y001964D03*
X030453Y001943D03*
X030453Y001932D03*
X030453Y001921D03*
X030453Y001899D03*
X030453Y001888D03*
X030453Y001877D03*
X030453Y001866D03*
X030453Y001844D03*
X030453Y001833D03*
X030453Y001822D03*
X030453Y001800D03*
X030453Y001789D03*
X030453Y001779D03*
X030453Y001768D03*
X030453Y001746D03*
X030453Y001735D03*
X030453Y001724D03*
X030930Y007747D03*
X031127Y008185D03*
X030153Y008601D03*
X030650Y013633D03*
X030650Y013644D03*
X031142Y014432D03*
X032476Y014005D03*
D62*
X032236Y013469D03*
X031765Y014060D03*
X031142Y014454D03*
X031138Y008174D03*
X030464Y003780D03*
X029381Y003288D03*
X028528Y003288D03*
X028528Y003244D03*
X028528Y003189D03*
X028528Y003146D03*
X028528Y003091D03*
X028528Y003047D03*
X028528Y002992D03*
X028528Y002949D03*
X028528Y002894D03*
X028528Y002850D03*
X028528Y002796D03*
X028528Y002752D03*
X028528Y002697D03*
X028528Y002653D03*
X028528Y002599D03*
X028528Y002555D03*
X028528Y002500D03*
X028528Y002457D03*
X028528Y002402D03*
X028528Y002358D03*
X028528Y002303D03*
X028528Y002260D03*
X028528Y002205D03*
X028528Y002161D03*
X028528Y002107D03*
X028528Y002063D03*
X028528Y002008D03*
X028528Y001954D03*
X028528Y001910D03*
X028528Y001855D03*
X028528Y001811D03*
X028528Y001757D03*
X029666Y002063D03*
X028528Y003342D03*
X028528Y003386D03*
X028528Y003441D03*
X028528Y003485D03*
X028528Y003539D03*
X028528Y003583D03*
X028528Y003638D03*
X028528Y003681D03*
X006219Y002107D03*
D63*
X029666Y002107D03*
X030453Y002107D03*
X030453Y002063D03*
X030453Y002008D03*
X030453Y001954D03*
X030453Y001910D03*
X030453Y001855D03*
X030453Y001811D03*
X030453Y001757D03*
X030453Y002161D03*
X030453Y002205D03*
X030453Y002260D03*
X030453Y002303D03*
X030453Y002358D03*
X030453Y002402D03*
X030453Y002457D03*
X030453Y002500D03*
X030453Y002555D03*
X030453Y002599D03*
X030453Y002653D03*
X030453Y002697D03*
X030453Y002752D03*
X030453Y002796D03*
X030453Y002850D03*
X030453Y002894D03*
X030453Y002949D03*
X030453Y002992D03*
X030453Y003047D03*
X030453Y003091D03*
X030453Y003146D03*
X030453Y003189D03*
X030453Y003244D03*
X030453Y003288D03*
X030453Y003342D03*
X030453Y003386D03*
X030453Y003441D03*
X030453Y003485D03*
X030453Y003539D03*
X030453Y003583D03*
X030453Y003638D03*
X030453Y003681D03*
D64*
X030519Y003878D03*
X031536Y003780D03*
X031470Y001757D03*
X029567Y001811D03*
X033041Y007387D03*
X032111Y008174D03*
X029968Y008721D03*
X030606Y013765D03*
X031131Y013721D03*
X006186Y002850D03*
X005759Y002555D03*
X005705Y002697D03*
D65*
X031465Y003681D03*
X031508Y001811D03*
D66*
X031519Y001822D03*
X031476Y003703D03*
X029496Y003627D03*
X029485Y003605D03*
X028567Y003824D03*
X030017Y008688D03*
X031793Y012223D03*
X031858Y012529D03*
X031749Y013896D03*
X031749Y013907D03*
X030623Y013710D03*
X005721Y002391D03*
X005513Y003321D03*
D67*
X006197Y002872D03*
X006219Y002041D03*
X006219Y002030D03*
X006219Y002019D03*
X028561Y003813D03*
X029458Y003550D03*
X029480Y003594D03*
X029491Y003616D03*
X031448Y003649D03*
X031448Y003660D03*
X031459Y003671D03*
X031470Y003692D03*
X029633Y001943D03*
X029622Y001921D03*
X031525Y001833D03*
X031547Y001877D03*
X032986Y007419D03*
X032089Y008207D03*
X030033Y008677D03*
X032214Y013415D03*
X031754Y013929D03*
X031153Y014497D03*
X030628Y013699D03*
D68*
X031754Y013885D03*
X029978Y008710D03*
X030460Y008480D03*
X032341Y007726D03*
X032483Y007660D03*
X029545Y003703D03*
X029589Y001844D03*
X006219Y001997D03*
X006022Y003375D03*
D69*
X029595Y001855D03*
X032641Y007583D03*
X030684Y008371D03*
X031749Y013863D03*
X031148Y014552D03*
D70*
X031437Y003638D03*
X031536Y001855D03*
D71*
X031563Y001910D03*
X029638Y001954D03*
X029452Y003539D03*
X030491Y003835D03*
X031388Y003539D03*
X031410Y003583D03*
X032948Y007441D03*
X030050Y008666D03*
X032219Y013426D03*
X031148Y013819D03*
X006465Y002697D03*
D72*
X006443Y002653D03*
X029420Y003441D03*
X031333Y003386D03*
X031585Y001954D03*
D73*
X031585Y001964D03*
X031333Y003364D03*
X031333Y003375D03*
X031344Y003408D03*
X031344Y003419D03*
X031344Y003430D03*
X029420Y003452D03*
X029409Y003430D03*
X029409Y003419D03*
X032073Y008240D03*
X031148Y014475D03*
X006432Y002643D03*
X006038Y003408D03*
D74*
X006044Y003419D03*
X006426Y002632D03*
X029403Y003397D03*
X029403Y003408D03*
X031328Y003353D03*
X031328Y003331D03*
X031339Y003397D03*
X031601Y002019D03*
X031590Y001986D03*
X031590Y001975D03*
X029655Y002019D03*
X032898Y007474D03*
X032225Y013447D03*
X031678Y013546D03*
X031765Y014005D03*
X032509Y014038D03*
X031142Y014464D03*
D75*
X031164Y013961D03*
X030121Y008622D03*
X031612Y002063D03*
D76*
X029660Y002074D03*
X029376Y003222D03*
X029376Y003233D03*
X032805Y007529D03*
X031832Y007944D03*
X030924Y007758D03*
X030137Y008611D03*
X030699Y013141D03*
X030688Y013152D03*
X031815Y014585D03*
X006388Y002566D03*
X005732Y002369D03*
D77*
X031317Y003200D03*
X031317Y003211D03*
X031317Y003222D03*
X031612Y002096D03*
X031612Y002085D03*
X031612Y002074D03*
X031164Y013940D03*
X031164Y013950D03*
X031164Y013972D03*
D78*
X031213Y013469D03*
X030874Y012244D03*
X031312Y003189D03*
X031312Y003146D03*
X031618Y002107D03*
X006060Y003441D03*
D79*
X006508Y002883D03*
X030874Y012234D03*
X031858Y012562D03*
X032241Y013480D03*
X032252Y013491D03*
X031169Y013983D03*
X032827Y007518D03*
X031312Y003178D03*
X031312Y003167D03*
X031312Y003156D03*
X031618Y002129D03*
X031618Y002118D03*
D80*
X031607Y002183D03*
X031607Y002194D03*
X031323Y003058D03*
X031323Y003069D03*
X031323Y003080D03*
X029671Y002129D03*
X029376Y003135D03*
X032040Y008294D03*
X030874Y012212D03*
X030874Y012223D03*
X031858Y012573D03*
X032263Y013513D03*
X031771Y014093D03*
X031169Y014005D03*
X030677Y013196D03*
X030677Y013185D03*
X006082Y003463D03*
X006366Y002533D03*
X006355Y002522D03*
X006224Y002172D03*
D81*
X006219Y002183D03*
X006350Y002511D03*
X006087Y003474D03*
X029381Y003124D03*
X029381Y003113D03*
X029381Y003102D03*
X029381Y003080D03*
X029392Y003058D03*
X029392Y003036D03*
X029666Y002172D03*
X029666Y002150D03*
X029666Y002139D03*
X031328Y003003D03*
X031328Y003014D03*
X031328Y003025D03*
X031328Y003036D03*
X031601Y002227D03*
X031601Y002216D03*
X030941Y007726D03*
X031116Y008196D03*
X031011Y011632D03*
X031820Y012179D03*
X030672Y013207D03*
X030672Y013218D03*
X031219Y013458D03*
X031164Y014027D03*
X031765Y014104D03*
X031809Y014563D03*
X031142Y014421D03*
X032465Y013983D03*
X032279Y013546D03*
D82*
X032258Y013502D03*
X031765Y014071D03*
X031765Y014082D03*
X031164Y013994D03*
X031809Y014574D03*
X030683Y013163D03*
X032045Y008283D03*
X031317Y003135D03*
X031317Y003124D03*
X031317Y003113D03*
X031317Y003102D03*
X031612Y002172D03*
X031612Y002150D03*
X031612Y002139D03*
X029381Y003156D03*
X029381Y003167D03*
X029381Y003178D03*
X029381Y003200D03*
X029381Y003211D03*
X006372Y002544D03*
X006219Y002150D03*
X006219Y002139D03*
X005464Y003353D03*
X006066Y003452D03*
D83*
X029381Y003091D03*
X029392Y003047D03*
X029666Y002161D03*
X031864Y012583D03*
X032269Y013524D03*
X031164Y014016D03*
X031142Y014410D03*
D84*
X030683Y013174D03*
X029381Y003189D03*
X029381Y003146D03*
X031317Y003091D03*
X031612Y002161D03*
D85*
X031344Y002927D03*
X031344Y002938D03*
X031344Y002960D03*
X029660Y002194D03*
X029660Y002183D03*
X031826Y012168D03*
X005448Y003364D03*
D86*
X029660Y002205D03*
X031344Y002949D03*
D87*
X031323Y003047D03*
X031607Y002205D03*
X031843Y007933D03*
X031672Y013524D03*
X030655Y013622D03*
X006224Y002161D03*
X005732Y002358D03*
D88*
X006230Y002238D03*
X006230Y002227D03*
X029414Y002927D03*
X029414Y002938D03*
X029655Y002238D03*
X029655Y002227D03*
X029655Y002216D03*
X031350Y002905D03*
X031350Y002916D03*
X031590Y002282D03*
X031590Y002271D03*
X032024Y008316D03*
X032312Y013601D03*
D89*
X032296Y013579D03*
X032285Y013557D03*
X032460Y013972D03*
X031771Y014125D03*
X031169Y014038D03*
X031148Y014399D03*
X030655Y013611D03*
X031672Y013513D03*
X031858Y012594D03*
X030874Y012201D03*
X032029Y008305D03*
X031854Y007922D03*
X030946Y007715D03*
X031333Y002982D03*
X031333Y002971D03*
X031596Y002249D03*
X031596Y002238D03*
X029398Y003003D03*
X029398Y003014D03*
X029398Y003025D03*
X029387Y003069D03*
X006333Y002478D03*
X006323Y002468D03*
X006224Y002216D03*
X006224Y002194D03*
X005732Y002347D03*
D90*
X006235Y002271D03*
X006235Y002249D03*
X006246Y002293D03*
X006279Y002380D03*
X006290Y002413D03*
X006301Y002424D03*
X029420Y002905D03*
X029420Y002916D03*
X029431Y002872D03*
X029431Y002861D03*
X029649Y002271D03*
X029649Y002249D03*
X031377Y002807D03*
X031377Y002817D03*
X031388Y002774D03*
X031574Y002325D03*
X031574Y002314D03*
X031585Y002293D03*
X031865Y007912D03*
X031837Y011534D03*
X031005Y011643D03*
X030885Y012179D03*
X031869Y012616D03*
X031224Y013447D03*
X031672Y013502D03*
X031771Y014147D03*
X031148Y014377D03*
X031148Y014388D03*
X030655Y013590D03*
X032318Y013611D03*
D91*
X031771Y014158D03*
X032018Y008327D03*
X031355Y002894D03*
X029649Y002260D03*
X029420Y002894D03*
X029409Y002949D03*
X006290Y002402D03*
X006235Y002260D03*
D92*
X006224Y002205D03*
X029398Y002992D03*
X031333Y002992D03*
X031596Y002260D03*
X030951Y012387D03*
X032296Y013568D03*
X031771Y014115D03*
X031804Y014552D03*
D93*
X031809Y014530D03*
X031153Y014366D03*
X030661Y013579D03*
X031864Y012627D03*
X031831Y012157D03*
X032334Y013633D03*
X032013Y008338D03*
X031094Y008218D03*
X031372Y002828D03*
X031383Y002785D03*
X031394Y002763D03*
X031405Y002730D03*
X031405Y002719D03*
X031426Y002675D03*
X031426Y002664D03*
X031437Y002643D03*
X031459Y002588D03*
X031547Y002380D03*
X031558Y002369D03*
X031569Y002336D03*
X029644Y002293D03*
X029644Y002282D03*
X029633Y002314D03*
X029633Y002325D03*
X029480Y002708D03*
X029469Y002741D03*
X029458Y002763D03*
X029458Y002774D03*
X029458Y002785D03*
X029447Y002807D03*
X029447Y002817D03*
X029436Y002839D03*
X029425Y002883D03*
X006284Y002391D03*
X006273Y002369D03*
X006251Y002325D03*
X006251Y002314D03*
X006240Y002282D03*
X005726Y002336D03*
D94*
X006251Y002303D03*
X029436Y002850D03*
X029447Y002796D03*
X029502Y002653D03*
X029622Y002358D03*
X029644Y002303D03*
X031394Y002752D03*
X031383Y002796D03*
X031558Y002358D03*
X030963Y007682D03*
X032323Y013622D03*
D95*
X031580Y002303D03*
X006098Y003485D03*
D96*
X005010Y002533D03*
X005010Y002522D03*
X029474Y002719D03*
X029474Y002730D03*
X029485Y002686D03*
X029496Y002664D03*
X029507Y002643D03*
X029507Y002632D03*
X029518Y002621D03*
X029518Y002610D03*
X029529Y002588D03*
X029529Y002577D03*
X029551Y002533D03*
X029562Y002511D03*
X029573Y002478D03*
X029584Y002446D03*
X029595Y002435D03*
X029595Y002424D03*
X029606Y002391D03*
X029616Y002380D03*
X029616Y002369D03*
X029627Y002347D03*
X029627Y002336D03*
X031399Y002741D03*
X031410Y002708D03*
X031421Y002686D03*
X031443Y002632D03*
X031443Y002621D03*
X031454Y002610D03*
X031476Y002544D03*
X031487Y002533D03*
X031487Y002522D03*
X031498Y002511D03*
X031498Y002489D03*
X031508Y002478D03*
X031508Y002468D03*
X031519Y002446D03*
X031530Y002435D03*
X031530Y002424D03*
X031530Y002413D03*
X031541Y002391D03*
X030968Y007671D03*
X031876Y007901D03*
X030885Y012157D03*
X030885Y012168D03*
X030666Y013283D03*
X031158Y014104D03*
X031771Y014169D03*
X031771Y014180D03*
X032438Y013907D03*
X032340Y013644D03*
X031672Y013491D03*
D97*
X032449Y013950D03*
X030666Y013251D03*
X030957Y007693D03*
X031366Y002861D03*
X031366Y002839D03*
X031563Y002347D03*
X029441Y002828D03*
X006312Y002446D03*
X006115Y003496D03*
D98*
X004999Y002555D03*
X005021Y002500D03*
X029463Y002752D03*
X029485Y002697D03*
X029518Y002599D03*
X029562Y002500D03*
X029584Y002457D03*
X029606Y002402D03*
X031432Y002653D03*
X031454Y002599D03*
X031476Y002555D03*
X031498Y002500D03*
X031519Y002457D03*
X031541Y002402D03*
X031869Y012638D03*
X030666Y013272D03*
X030655Y013568D03*
X031148Y014355D03*
X032438Y013918D03*
D99*
X032433Y013896D03*
X032356Y013677D03*
X031776Y014191D03*
X031776Y014202D03*
X031153Y014322D03*
X031153Y014333D03*
X031153Y014344D03*
X030661Y013557D03*
X031864Y012649D03*
X032002Y008349D03*
X029556Y002522D03*
X029567Y002489D03*
X029578Y002468D03*
X029600Y002413D03*
X006131Y003506D03*
X004994Y002588D03*
X004994Y002577D03*
X004994Y002566D03*
X005005Y002544D03*
X005016Y002511D03*
D100*
X005027Y002489D03*
X005038Y002468D03*
X029545Y002544D03*
X030672Y013294D03*
X031809Y014497D03*
X032345Y013655D03*
D101*
X029540Y002555D03*
D102*
X029540Y002566D03*
X031465Y002566D03*
X031465Y002577D03*
X031410Y012660D03*
X031804Y014519D03*
X005032Y002478D03*
D103*
X006262Y002347D03*
X006262Y002336D03*
X029491Y002675D03*
X030672Y013261D03*
X031164Y014071D03*
X031164Y014082D03*
X031164Y014093D03*
X032443Y013940D03*
X032443Y013929D03*
D104*
X031415Y002697D03*
D105*
X031366Y002850D03*
X006268Y002358D03*
D106*
X006306Y002435D03*
X029403Y002960D03*
X029403Y002971D03*
X029403Y002982D03*
X031361Y002883D03*
X031361Y002872D03*
X030952Y007704D03*
X031105Y008207D03*
X031864Y012605D03*
X032301Y013590D03*
X031765Y014136D03*
X031164Y014049D03*
X030661Y013601D03*
X030672Y013240D03*
X031809Y014541D03*
D107*
X032482Y014016D03*
X031815Y012190D03*
X032051Y008272D03*
X029376Y003244D03*
X006377Y002555D03*
D108*
X006514Y002850D03*
X030908Y007780D03*
X032877Y007485D03*
X031317Y003288D03*
X031164Y013918D03*
D109*
X031158Y013863D03*
X031858Y012540D03*
X028545Y003780D03*
X029431Y003485D03*
X031355Y003441D03*
X031366Y003485D03*
D110*
X031394Y003550D03*
X030748Y013086D03*
X031678Y013557D03*
X032225Y013436D03*
X031831Y014618D03*
X005497Y003331D03*
D111*
X029469Y003572D03*
X030497Y003845D03*
X030886Y007824D03*
X031142Y013775D03*
X031142Y013786D03*
D112*
X031672Y013568D03*
X031148Y014508D03*
X030881Y007835D03*
X029507Y003638D03*
D113*
X029534Y003681D03*
X032527Y007638D03*
X030569Y008426D03*
X030274Y008568D03*
X030617Y013721D03*
X006219Y002008D03*
D114*
X006213Y001986D03*
X029540Y003692D03*
X033024Y007398D03*
X030662Y008382D03*
X031213Y013502D03*
D115*
X030945Y003725D03*
D116*
X029994Y003736D03*
D117*
X029994Y003747D03*
D118*
X030005Y003758D03*
D119*
X029507Y003769D03*
D120*
X029595Y003780D03*
X030859Y007879D03*
X031749Y013819D03*
X005721Y002653D03*
D121*
X028572Y003835D03*
X032319Y007737D03*
X031192Y008130D03*
X030482Y008469D03*
X030891Y012288D03*
X032181Y013371D03*
X031142Y013765D03*
D122*
X031153Y014639D03*
X032597Y014147D03*
X029935Y008754D03*
X028616Y003911D03*
X031623Y003911D03*
D123*
X028621Y003922D03*
X031231Y008086D03*
X030907Y012310D03*
X031498Y012627D03*
X031738Y013732D03*
X005513Y002643D03*
X005513Y002632D03*
X005502Y002577D03*
X005502Y002566D03*
X005491Y002533D03*
X005491Y002522D03*
X005459Y002446D03*
X005459Y002435D03*
X005448Y002424D03*
D124*
X030546Y003922D03*
D125*
X031634Y003922D03*
X006000Y003331D03*
X005442Y002413D03*
D126*
X030136Y003933D03*
D127*
X030158Y003966D03*
D128*
X031165Y007321D03*
X031782Y011862D03*
X031782Y011873D03*
X005666Y001341D03*
D129*
X005672Y001352D03*
X005672Y001363D03*
D130*
X005666Y001374D03*
D131*
X005672Y001385D03*
X005016Y003036D03*
X031794Y008688D03*
D132*
X031788Y008699D03*
X031187Y007277D03*
X005666Y001396D03*
X005032Y003025D03*
D133*
X005672Y001407D03*
X031192Y007266D03*
X031783Y008710D03*
D134*
X005672Y001418D03*
D135*
X005666Y001429D03*
X005043Y003014D03*
X031198Y007255D03*
D136*
X005672Y001450D03*
X005672Y001440D03*
D137*
X005672Y001461D03*
D138*
X005672Y001472D03*
D139*
X005666Y001483D03*
D140*
X005672Y001494D03*
X005672Y001505D03*
D141*
X005672Y001516D03*
X006514Y003681D03*
X006580Y003780D03*
X031236Y007190D03*
D142*
X006590Y003791D03*
X006569Y003758D03*
X006547Y003725D03*
X006525Y003692D03*
X005103Y002971D03*
X005672Y001527D03*
D143*
X005666Y001538D03*
X006497Y003660D03*
X006508Y003671D03*
X006596Y003802D03*
X031242Y007179D03*
X031734Y008786D03*
X031454Y013393D03*
X031454Y013404D03*
D144*
X031247Y007168D03*
X006601Y003813D03*
X005672Y001549D03*
D145*
X005672Y001560D03*
X005125Y002949D03*
D146*
X004786Y003769D03*
X005672Y001582D03*
X005672Y001571D03*
D147*
X005666Y001593D03*
X005141Y002927D03*
X004770Y003802D03*
X004759Y003813D03*
X006421Y003517D03*
X031712Y008830D03*
D148*
X005672Y001604D03*
D149*
X005672Y001615D03*
D150*
X005666Y001625D03*
X006618Y003845D03*
D151*
X005180Y002883D03*
X005672Y001647D03*
X005672Y001636D03*
X031448Y013349D03*
D152*
X005475Y002161D03*
X005672Y001658D03*
D153*
X005672Y001669D03*
X005541Y001986D03*
X005530Y002019D03*
X005519Y002041D03*
X005519Y002052D03*
X005508Y002074D03*
X005486Y002129D03*
X005486Y002139D03*
X005475Y002150D03*
X005475Y002172D03*
X005464Y002183D03*
X005464Y002194D03*
X005442Y002249D03*
X005431Y002271D03*
X005431Y002282D03*
X005234Y002785D03*
X005223Y002807D03*
X005212Y002828D03*
X004917Y003594D03*
D154*
X004737Y003856D03*
X005218Y002817D03*
X005240Y002774D03*
X005240Y002763D03*
X005426Y002293D03*
X005666Y001680D03*
D155*
X005672Y001691D03*
X005672Y001702D03*
D156*
X005672Y001713D03*
D157*
X005672Y001724D03*
D158*
X005666Y001735D03*
D159*
X005672Y001746D03*
X004972Y003528D03*
D160*
X004731Y003878D03*
X005672Y001757D03*
D161*
X005672Y001768D03*
X005672Y001779D03*
X004994Y003496D03*
D162*
X005021Y003452D03*
X005032Y003430D03*
X005666Y001789D03*
D163*
X005672Y001800D03*
X005038Y003408D03*
X005038Y003419D03*
D164*
X005027Y003441D03*
X005672Y001811D03*
D165*
X005672Y001822D03*
X005672Y001833D03*
D166*
X005666Y001844D03*
X004726Y003889D03*
D167*
X005672Y001855D03*
D168*
X005672Y001866D03*
D169*
X005666Y001877D03*
D170*
X005672Y001888D03*
D171*
X005666Y001899D03*
D172*
X005672Y001910D03*
D173*
X005672Y001921D03*
D174*
X005666Y001932D03*
D175*
X005672Y001943D03*
D176*
X005672Y001954D03*
D177*
X005672Y001964D03*
X005672Y001975D03*
X031558Y013305D03*
D178*
X031454Y013338D03*
X006618Y003856D03*
X004901Y003616D03*
X004890Y003627D03*
X004748Y003845D03*
X005185Y002872D03*
X005196Y002861D03*
X005207Y002839D03*
X005491Y002118D03*
X005502Y002085D03*
X005524Y002030D03*
X005535Y001997D03*
D179*
X005535Y002008D03*
X005513Y002063D03*
X005196Y002850D03*
D180*
X006219Y002063D03*
X006503Y002796D03*
X030759Y013076D03*
X031754Y013961D03*
X032078Y008229D03*
D181*
X005497Y002096D03*
X005453Y002216D03*
X005453Y002227D03*
X004906Y003605D03*
D182*
X005497Y002107D03*
D183*
X005459Y002205D03*
X005251Y002752D03*
D184*
X005251Y002741D03*
X005448Y002238D03*
D185*
X005437Y002260D03*
X005229Y002796D03*
X004923Y003583D03*
D186*
X006388Y002949D03*
X005174Y002358D03*
X005196Y002303D03*
D187*
X005699Y002303D03*
X031012Y008721D03*
X031012Y008765D03*
X031012Y008819D03*
X030983Y011698D03*
X030896Y012048D03*
D188*
X031488Y009541D03*
X031488Y009530D03*
X031488Y009519D03*
X031488Y009497D03*
X031488Y009486D03*
X031488Y009475D03*
X031488Y009464D03*
X031488Y009443D03*
X031488Y009432D03*
X031488Y009421D03*
X031969Y007813D03*
X031061Y007507D03*
X006426Y003036D03*
X005191Y002314D03*
X005016Y002730D03*
D189*
X005081Y002424D03*
X005716Y002314D03*
X030661Y013382D03*
X030661Y013393D03*
X030661Y013404D03*
X030661Y013415D03*
X030661Y013436D03*
X030661Y013447D03*
X030661Y013458D03*
X031787Y014279D03*
X031787Y014289D03*
X031787Y014300D03*
X031809Y014432D03*
X031809Y014443D03*
X031488Y009629D03*
X031980Y008393D03*
X031061Y008251D03*
X030996Y007627D03*
D190*
X005180Y002336D03*
X005180Y002325D03*
D191*
X004988Y002610D03*
X005579Y002730D03*
X005721Y002325D03*
X030666Y013305D03*
X030666Y013316D03*
X031158Y014125D03*
X031158Y014136D03*
X031158Y014147D03*
X031804Y014486D03*
X032405Y013808D03*
X032394Y013786D03*
X032394Y013775D03*
X032383Y013754D03*
X032383Y013743D03*
X031996Y008360D03*
X031887Y007890D03*
D192*
X031909Y008502D03*
X030990Y008316D03*
X031067Y007496D03*
X006421Y003025D03*
X006421Y003014D03*
X006410Y003003D03*
X006377Y002916D03*
X006377Y002905D03*
X005174Y002369D03*
X005174Y002347D03*
D193*
X005174Y002380D03*
X030907Y012496D03*
D194*
X030929Y012430D03*
X031815Y012080D03*
X030973Y011741D03*
X031941Y008447D03*
X031941Y007758D03*
X031941Y007747D03*
X031941Y007726D03*
X031941Y007715D03*
X031941Y007704D03*
X031941Y007693D03*
X031023Y008283D03*
X006508Y003156D03*
X005130Y002391D03*
D195*
X005426Y002391D03*
X005469Y002468D03*
X005469Y002478D03*
X005480Y002489D03*
D196*
X005109Y002402D03*
X006530Y003189D03*
X006629Y003441D03*
X031023Y008371D03*
X031023Y008426D03*
X031023Y008469D03*
X031952Y007343D03*
X031952Y007288D03*
X031952Y007244D03*
X031952Y007190D03*
D197*
X031734Y008032D03*
X005437Y002402D03*
D198*
X005098Y002413D03*
X006574Y003266D03*
X006629Y003408D03*
X006629Y003419D03*
X031012Y007594D03*
X031963Y008415D03*
X031012Y008699D03*
X031012Y008710D03*
X031012Y008732D03*
X031012Y008743D03*
X031012Y008754D03*
X031012Y008775D03*
X031012Y008786D03*
X031012Y008797D03*
X031012Y008808D03*
X031012Y008830D03*
D199*
X031985Y008382D03*
X030994Y011676D03*
X030885Y012102D03*
X031869Y012671D03*
X030655Y013480D03*
X030655Y013491D03*
X030655Y013502D03*
X030655Y013513D03*
X031158Y014169D03*
X031158Y014180D03*
X031158Y014191D03*
X031158Y014202D03*
X031158Y014224D03*
X031158Y014235D03*
X031158Y014246D03*
X031158Y014268D03*
X031782Y014268D03*
X031782Y014246D03*
X031804Y014464D03*
X005065Y002435D03*
X004988Y002632D03*
X004988Y002643D03*
D200*
X005059Y002446D03*
X030985Y007649D03*
X030891Y012113D03*
X030891Y012124D03*
X031831Y012135D03*
X032422Y013841D03*
X032422Y013852D03*
X031776Y014224D03*
X031776Y014235D03*
D201*
X031158Y014311D03*
X032383Y013765D03*
X030666Y013327D03*
X005043Y002457D03*
X004988Y002599D03*
D202*
X005469Y002457D03*
X005480Y002500D03*
D203*
X006317Y002457D03*
X030672Y013229D03*
X031164Y014060D03*
X032454Y013961D03*
X030880Y012190D03*
D204*
X005847Y002468D03*
D205*
X005825Y002478D03*
X005497Y002544D03*
X005486Y002511D03*
X005508Y002588D03*
X005508Y002610D03*
X005508Y002621D03*
X005519Y002664D03*
X005519Y002675D03*
X005519Y002686D03*
X030584Y013874D03*
X031875Y014760D03*
D206*
X006339Y002489D03*
D207*
X006339Y002500D03*
D208*
X005770Y002522D03*
X031203Y008119D03*
D209*
X033084Y007343D03*
X032608Y014158D03*
X031153Y014650D03*
X005519Y002697D03*
X005519Y002653D03*
X005508Y002599D03*
X005497Y002555D03*
D210*
X006410Y002599D03*
D211*
X004983Y002621D03*
X030661Y013338D03*
X030661Y013349D03*
X030661Y013360D03*
X031153Y014279D03*
X031153Y014289D03*
X031153Y014300D03*
X031809Y014475D03*
X032411Y013830D03*
X032400Y013797D03*
X031000Y011665D03*
X031072Y008240D03*
D212*
X031793Y014311D03*
X031804Y014355D03*
X031804Y014410D03*
X006607Y003342D03*
X004988Y002653D03*
D213*
X004994Y002664D03*
X006580Y003277D03*
X006590Y003299D03*
X006623Y003375D03*
X006623Y003397D03*
X030989Y011687D03*
X030934Y012408D03*
X031394Y012671D03*
X031969Y008404D03*
X031914Y007868D03*
D214*
X031925Y007857D03*
X031017Y008535D03*
X031017Y008546D03*
X031017Y008557D03*
X031017Y008579D03*
X031017Y008590D03*
X031017Y008601D03*
X031017Y008611D03*
X031017Y008633D03*
X031017Y008644D03*
X031017Y008655D03*
X031017Y008677D03*
X031017Y008688D03*
X031488Y009618D03*
X030978Y011709D03*
X030901Y012037D03*
X031820Y012102D03*
X006634Y003430D03*
X006558Y003233D03*
X006547Y003222D03*
X006536Y003200D03*
X004994Y002675D03*
D215*
X004999Y002686D03*
X006541Y003211D03*
X006629Y003452D03*
X031023Y007573D03*
X031023Y008382D03*
X031023Y008393D03*
X031023Y008404D03*
X031023Y008415D03*
X031023Y008436D03*
X031023Y008447D03*
X031023Y008458D03*
X031023Y008480D03*
X031023Y008491D03*
X031023Y008502D03*
X031023Y008513D03*
X031952Y008436D03*
X031952Y007365D03*
X031952Y007354D03*
X031952Y007332D03*
X031952Y007321D03*
X031952Y007310D03*
X031952Y007299D03*
X031952Y007277D03*
X031952Y007266D03*
X031952Y007255D03*
X031952Y007234D03*
X031952Y007223D03*
X031952Y007212D03*
X031952Y007201D03*
X031952Y007179D03*
X031952Y007168D03*
X031952Y007157D03*
X030907Y012015D03*
X030907Y012026D03*
X030929Y012419D03*
D216*
X031820Y012091D03*
X031820Y011555D03*
X005005Y002697D03*
D217*
X005005Y002708D03*
X006492Y003135D03*
X031039Y007551D03*
X031936Y008458D03*
X031488Y009596D03*
X030967Y011763D03*
X030967Y011774D03*
X030923Y011982D03*
D218*
X006487Y003124D03*
X005010Y002719D03*
D219*
X006487Y002741D03*
D220*
X006487Y002752D03*
D221*
X006164Y002817D03*
D222*
X006508Y002861D03*
X031016Y011621D03*
X032493Y014027D03*
D223*
X005174Y002894D03*
X004879Y003638D03*
D224*
X006372Y002894D03*
X006437Y003047D03*
X031488Y009454D03*
X031488Y009508D03*
X031488Y009552D03*
X031809Y012048D03*
D225*
X005163Y002905D03*
X004868Y003649D03*
D226*
X004863Y003660D03*
X004852Y003671D03*
X004753Y003824D03*
X005158Y002916D03*
X031448Y013360D03*
D227*
X031903Y008513D03*
X031980Y007802D03*
X006405Y002982D03*
X006394Y002971D03*
X006394Y002960D03*
X006383Y002938D03*
X006383Y002927D03*
D228*
X006426Y003528D03*
X006437Y003550D03*
X006448Y003572D03*
X005136Y002938D03*
X004830Y003703D03*
X004819Y003714D03*
X004775Y003791D03*
D229*
X005109Y002960D03*
D230*
X005087Y002982D03*
X006563Y003747D03*
X006574Y003769D03*
X031454Y013415D03*
X031745Y008775D03*
D231*
X005070Y002992D03*
D232*
X006405Y002992D03*
X031072Y007485D03*
D233*
X031772Y008732D03*
X005059Y003003D03*
D234*
X005005Y003047D03*
X031787Y011851D03*
D235*
X031787Y011884D03*
X031787Y011687D03*
X031816Y008655D03*
X031160Y007332D03*
X004994Y003058D03*
D236*
X006443Y003058D03*
X030951Y011829D03*
X030951Y011840D03*
X030940Y011873D03*
X030940Y011884D03*
X030940Y011905D03*
X031920Y008491D03*
D237*
X004977Y003069D03*
D238*
X006454Y003069D03*
X006454Y003080D03*
X006618Y003506D03*
X031056Y007518D03*
X031001Y008305D03*
X030918Y012452D03*
X030918Y012463D03*
D239*
X031832Y008633D03*
X031143Y007354D03*
X004966Y003080D03*
D240*
X004950Y003091D03*
X031838Y008622D03*
D241*
X006459Y003091D03*
D242*
X004945Y003102D03*
X031843Y008611D03*
D243*
X031488Y009563D03*
X031488Y009574D03*
X031488Y009585D03*
X031050Y007529D03*
X031809Y011566D03*
X031809Y012059D03*
X030956Y011818D03*
X030956Y011807D03*
X006470Y003102D03*
D244*
X004934Y003113D03*
D245*
X006476Y003113D03*
X006629Y003496D03*
X031012Y008294D03*
X030962Y011785D03*
X030929Y011960D03*
X030929Y011971D03*
X031815Y012069D03*
D246*
X031793Y011960D03*
X031854Y008590D03*
X031121Y007398D03*
X004923Y003124D03*
X004846Y003321D03*
X004846Y003331D03*
D247*
X004852Y003310D03*
X004917Y003135D03*
X031116Y007408D03*
X031798Y011621D03*
D248*
X004912Y003146D03*
X004846Y003288D03*
D249*
X006497Y003146D03*
X030973Y011752D03*
X030918Y011993D03*
X031941Y007737D03*
X031941Y007682D03*
D250*
X032018Y007769D03*
X031110Y007419D03*
X031865Y008579D03*
X031793Y011971D03*
X004901Y003156D03*
X004846Y003299D03*
D251*
X004852Y003277D03*
X004852Y003266D03*
X004863Y003233D03*
X004873Y003211D03*
X004895Y003167D03*
X030941Y008360D03*
X031787Y011982D03*
X030858Y012671D03*
D252*
X030912Y012004D03*
X030978Y011730D03*
X031936Y007846D03*
X031947Y007671D03*
X031947Y007660D03*
X031947Y007649D03*
X031947Y007627D03*
X031947Y007616D03*
X031947Y007605D03*
X031947Y007594D03*
X031947Y007573D03*
X031947Y007562D03*
X031947Y007551D03*
X031947Y007529D03*
X031947Y007518D03*
X031947Y007507D03*
X031947Y007496D03*
X031947Y007474D03*
X031947Y007463D03*
X031947Y007452D03*
X031947Y007430D03*
X031947Y007419D03*
X031947Y007408D03*
X031947Y007398D03*
X031947Y007376D03*
X006514Y003167D03*
D253*
X004884Y003178D03*
X031105Y007430D03*
D254*
X031028Y007562D03*
X006634Y003463D03*
X006525Y003178D03*
D255*
X004884Y003189D03*
D256*
X004879Y003200D03*
D257*
X004868Y003222D03*
X004857Y003255D03*
X030852Y012649D03*
X030852Y012660D03*
X031876Y008557D03*
D258*
X031870Y008568D03*
X004863Y003244D03*
D259*
X006563Y003244D03*
D260*
X006569Y003255D03*
X006601Y003321D03*
X006612Y003353D03*
X006612Y003364D03*
X031006Y007605D03*
X031050Y008261D03*
D261*
X006585Y003288D03*
D262*
X006596Y003310D03*
X006607Y003331D03*
X031001Y007616D03*
X031662Y013458D03*
X031793Y014322D03*
X031793Y014333D03*
X031793Y014344D03*
X031804Y014366D03*
X031804Y014377D03*
X031804Y014388D03*
X031804Y014399D03*
X031804Y014421D03*
D263*
X031787Y011949D03*
X031127Y007387D03*
X004852Y003342D03*
D264*
X004852Y003353D03*
X031138Y007365D03*
X031798Y011643D03*
X031787Y011927D03*
X031787Y011938D03*
D265*
X031787Y011916D03*
X031787Y011905D03*
X004863Y003364D03*
D266*
X005016Y003463D03*
X005048Y003397D03*
X005048Y003375D03*
D267*
X005048Y003386D03*
D268*
X006623Y003386D03*
D269*
X005010Y003474D03*
D270*
X006629Y003474D03*
D271*
X005005Y003485D03*
D272*
X006634Y003485D03*
D273*
X004988Y003506D03*
X004977Y003517D03*
D274*
X004966Y003539D03*
D275*
X004846Y003681D03*
X006432Y003539D03*
X006607Y003835D03*
X031454Y013371D03*
D276*
X004950Y003550D03*
D277*
X004945Y003561D03*
D278*
X004813Y003725D03*
X004802Y003747D03*
X006443Y003561D03*
X006476Y003616D03*
X031723Y008808D03*
D279*
X004934Y003572D03*
X004737Y003867D03*
D280*
X006454Y003583D03*
D281*
X006465Y003594D03*
X006465Y003605D03*
X006607Y003824D03*
X004791Y003758D03*
X031253Y007157D03*
X031454Y013382D03*
D282*
X031728Y008797D03*
X006492Y003649D03*
X006481Y003627D03*
D283*
X006487Y003638D03*
D284*
X004835Y003692D03*
D285*
X006530Y003703D03*
X031231Y007201D03*
D286*
X006536Y003714D03*
D287*
X004802Y003736D03*
D288*
X006552Y003736D03*
D289*
X004775Y003780D03*
X031717Y008819D03*
D290*
X004753Y003835D03*
D291*
X006623Y003867D03*
D292*
X006634Y003878D03*
D293*
X006634Y003889D03*
D294*
X004704Y003900D03*
X031541Y013086D03*
X031541Y013097D03*
X031541Y013108D03*
D295*
X031488Y009300D03*
X031488Y006709D03*
X006667Y003900D03*
D296*
X004742Y003911D03*
X004742Y003922D03*
X004742Y003944D03*
X004742Y003955D03*
X004742Y003966D03*
X004742Y003988D03*
X004742Y003999D03*
X004742Y004010D03*
X004742Y004020D03*
X004742Y004042D03*
X004742Y004053D03*
X004742Y004064D03*
X004742Y004086D03*
D297*
X006590Y004086D03*
X006590Y004064D03*
X006590Y004053D03*
X006590Y004042D03*
X006590Y004020D03*
X006590Y004010D03*
X006590Y003999D03*
X006590Y003988D03*
X006590Y003966D03*
X006590Y003955D03*
X006590Y003944D03*
X006590Y003922D03*
X006590Y003911D03*
D298*
X004742Y003933D03*
X004742Y003977D03*
X004742Y004031D03*
X004742Y004075D03*
D299*
X006590Y004075D03*
X006590Y004031D03*
X006590Y003977D03*
X006590Y003933D03*
D300*
X030896Y012059D03*
X031826Y012113D03*
X031826Y011545D03*
D301*
X031809Y011577D03*
X031798Y012026D03*
D302*
X031793Y012004D03*
X031804Y011588D03*
X030896Y012529D03*
X030885Y012551D03*
X030874Y012573D03*
X030863Y012605D03*
X030968Y008338D03*
X031088Y007452D03*
X031996Y007791D03*
D303*
X031099Y007441D03*
X031804Y011599D03*
X031793Y011993D03*
D304*
X031804Y011610D03*
D305*
X031798Y011632D03*
X031849Y008601D03*
D306*
X031083Y008229D03*
X031000Y011654D03*
X030891Y012146D03*
X031831Y012146D03*
X032356Y013666D03*
D307*
X031793Y011654D03*
D308*
X031793Y011665D03*
X031793Y011676D03*
X031821Y008644D03*
D309*
X031787Y011698D03*
X031787Y011894D03*
D310*
X031787Y011730D03*
X031787Y011719D03*
X031787Y011709D03*
X031805Y008677D03*
X031170Y007310D03*
D311*
X030973Y011719D03*
D312*
X031782Y011741D03*
X031782Y011763D03*
X031782Y011774D03*
X031782Y011785D03*
X031782Y011807D03*
X031782Y011818D03*
X031782Y011829D03*
X031782Y011840D03*
X031176Y007299D03*
D313*
X031782Y011752D03*
X031782Y011796D03*
D314*
X030962Y011796D03*
X030929Y011949D03*
X030929Y012441D03*
X031931Y008469D03*
X031045Y007540D03*
D315*
X030951Y011851D03*
X030940Y011894D03*
D316*
X030934Y011916D03*
X030934Y011927D03*
X030934Y011938D03*
X030945Y011862D03*
X031925Y008480D03*
X031958Y007824D03*
D317*
X031892Y008535D03*
X031798Y012015D03*
X030901Y012507D03*
X030901Y012518D03*
D318*
X030918Y012474D03*
X031804Y012037D03*
D319*
X031831Y012124D03*
X030891Y012080D03*
X030891Y012069D03*
D320*
X030891Y012091D03*
D321*
X030885Y012135D03*
X030940Y012398D03*
X031869Y012660D03*
X031672Y013480D03*
X032361Y013688D03*
X032372Y013699D03*
X032372Y013710D03*
X032372Y013732D03*
X032427Y013874D03*
X032427Y013885D03*
X030655Y013546D03*
X030655Y013535D03*
X030979Y007660D03*
D322*
X030912Y012485D03*
D323*
X030885Y012540D03*
D324*
X030880Y012562D03*
X030869Y012594D03*
X030858Y012616D03*
X030858Y012627D03*
X031881Y008546D03*
X030952Y008349D03*
D325*
X030869Y012583D03*
X030858Y012638D03*
D326*
X031082Y012682D03*
D327*
X031864Y012682D03*
X030661Y013371D03*
X030661Y013426D03*
X030661Y013469D03*
X031903Y007879D03*
D328*
X031312Y012693D03*
X031312Y012704D03*
X031410Y012999D03*
D329*
X031405Y012988D03*
X031317Y012715D03*
D330*
X031323Y012726D03*
X031399Y012966D03*
D331*
X031323Y012737D03*
D332*
X031328Y012747D03*
X031328Y012758D03*
X031394Y012944D03*
X031394Y012955D03*
D333*
X031377Y012912D03*
X031377Y012901D03*
X031377Y012890D03*
X031366Y012868D03*
X031366Y012857D03*
X031366Y012846D03*
X031355Y012824D03*
X031355Y012813D03*
X031344Y012802D03*
X031344Y012791D03*
X031333Y012769D03*
D334*
X031339Y012780D03*
X031383Y012933D03*
D335*
X031366Y012879D03*
X031355Y012835D03*
D336*
X031383Y012922D03*
D337*
X031405Y012977D03*
D338*
X031415Y013010D03*
X031415Y013021D03*
X031426Y013043D03*
X031426Y013054D03*
D339*
X031421Y013032D03*
D340*
X031421Y013065D03*
D341*
X031536Y013076D03*
D342*
X031547Y013119D03*
X031547Y013141D03*
X031547Y013152D03*
X031547Y013163D03*
X031547Y013185D03*
X031547Y013196D03*
X031547Y013207D03*
X031488Y009333D03*
X031488Y006676D03*
D343*
X031547Y013130D03*
X031547Y013174D03*
D344*
X031552Y013218D03*
X031552Y013240D03*
X031552Y013251D03*
D345*
X031552Y013229D03*
D346*
X031558Y013261D03*
X031558Y013283D03*
D347*
X031558Y013272D03*
D348*
X031563Y013294D03*
D349*
X031563Y013316D03*
D350*
X031465Y013327D03*
D351*
X031459Y013426D03*
X031750Y008765D03*
D352*
X031209Y007234D03*
X031465Y013436D03*
D353*
X031656Y013447D03*
D354*
X031672Y013469D03*
X031782Y014257D03*
X031804Y014454D03*
X031158Y014257D03*
X031158Y014213D03*
X030990Y007638D03*
D355*
X031991Y008371D03*
X030661Y013524D03*
X031153Y014158D03*
X032411Y013819D03*
D356*
X031208Y013524D03*
D357*
X032274Y013535D03*
X032471Y013994D03*
D358*
X031131Y013677D03*
D359*
X031782Y014213D03*
X032427Y013863D03*
X032372Y013721D03*
D360*
X030584Y013863D03*
D361*
X031164Y014115D03*
X031809Y014508D03*
D362*
X031853Y014650D03*
D363*
X031488Y009344D03*
X031488Y006665D03*
D364*
X031488Y006687D03*
X031488Y009322D03*
D365*
X031488Y009311D03*
X031488Y006698D03*
D366*
X031488Y006719D03*
X031488Y006730D03*
X031488Y009279D03*
X031488Y009289D03*
D367*
X031488Y009268D03*
X031488Y009246D03*
X031488Y009235D03*
X031488Y009224D03*
X031488Y009202D03*
X031488Y009191D03*
X031488Y009180D03*
X031488Y009169D03*
X031488Y009147D03*
X031488Y009136D03*
X031488Y009125D03*
X031488Y009104D03*
X031488Y009093D03*
X031488Y009082D03*
X031488Y009071D03*
X031488Y009049D03*
X031488Y009038D03*
X031488Y009027D03*
X031488Y009005D03*
X031488Y008994D03*
X031488Y008983D03*
X031488Y008972D03*
X031488Y008950D03*
X031488Y008940D03*
X031488Y008929D03*
X031488Y008907D03*
X031488Y008896D03*
X031488Y008885D03*
X031488Y008874D03*
X031488Y008852D03*
X031488Y008841D03*
X031488Y007135D03*
X031488Y007124D03*
X031488Y007113D03*
X031488Y007102D03*
X031488Y007080D03*
X031488Y007069D03*
X031488Y007059D03*
X031488Y007037D03*
X031488Y007026D03*
X031488Y007015D03*
X031488Y007004D03*
X031488Y006982D03*
X031488Y006971D03*
X031488Y006960D03*
X031488Y006938D03*
X031488Y006927D03*
X031488Y006916D03*
X031488Y006905D03*
X031488Y006884D03*
X031488Y006873D03*
X031488Y006862D03*
X031488Y006840D03*
X031488Y006829D03*
X031488Y006818D03*
X031488Y006807D03*
X031488Y006785D03*
X031488Y006774D03*
X031488Y006763D03*
X031488Y006741D03*
D368*
X031488Y006752D03*
X031488Y006796D03*
X031488Y006851D03*
X031488Y006894D03*
X031488Y006949D03*
X031488Y006993D03*
X031488Y007048D03*
X031488Y007091D03*
X031488Y007146D03*
X031488Y008863D03*
X031488Y008918D03*
X031488Y008961D03*
X031488Y009016D03*
X031488Y009060D03*
X031488Y009115D03*
X031488Y009158D03*
X031488Y009213D03*
X031488Y009257D03*
D369*
X031225Y007212D03*
D370*
X031220Y007223D03*
X031756Y008754D03*
D371*
X031203Y007244D03*
D372*
X031181Y007288D03*
D373*
X031149Y007343D03*
D374*
X031132Y007376D03*
D375*
X031947Y007387D03*
X031947Y007441D03*
X031947Y007485D03*
X031947Y007540D03*
X031947Y007583D03*
X031947Y007638D03*
X031488Y009607D03*
D376*
X031083Y007463D03*
D377*
X031078Y007474D03*
D378*
X030367Y008524D03*
X032434Y007682D03*
X032729Y007540D03*
D379*
X031958Y008426D03*
X031039Y008272D03*
X031017Y008524D03*
X031017Y008568D03*
X031017Y008622D03*
X031017Y008666D03*
X031017Y007583D03*
D380*
X030935Y007737D03*
D381*
X032007Y007780D03*
D382*
X031947Y007835D03*
D383*
X031236Y008076D03*
D384*
X030979Y008327D03*
D385*
X031898Y008524D03*
D386*
X031810Y008666D03*
D387*
X031777Y008721D03*
D388*
X031761Y008743D03*
D389*
X029924Y008765D03*
M02*
