G75*
G70*
%OFA0B0*%
%FSLAX24Y24*%
%IPPOS*%
%LPD*%
%AMOC8*
5,1,8,0,0,1.08239X$1,22.5*
%
%ADD10C,0.0945*%
%ADD11C,0.1200*%
%ADD12C,0.1005*%
%ADD13C,0.0354*%
%ADD14C,0.0295*%
%ADD15C,0.0172*%
%ADD16C,0.0180*%
%ADD17C,0.0200*%
%ADD18C,0.0120*%
%ADD19C,0.0240*%
%ADD20C,0.0080*%
D10*
X001713Y004688D03*
X009824Y005711D03*
X012107Y005711D03*
X012107Y007365D03*
X010060Y015357D03*
X006517Y015357D03*
X006517Y018900D03*
X023249Y018211D03*
X027776Y013546D03*
X026241Y011262D03*
X024548Y007365D03*
X024548Y005711D03*
X033800Y004688D03*
X034076Y020632D03*
D11*
X029627Y017274D03*
X027776Y017274D03*
X025926Y017274D03*
X020296Y017483D03*
X018446Y018664D03*
X020296Y019845D03*
D12*
X025178Y021026D03*
X030375Y021026D03*
D13*
X020847Y014373D03*
X021083Y013113D03*
X017599Y015239D03*
X014391Y013270D03*
X016162Y012955D03*
X016517Y011223D03*
X019430Y008310D03*
X022422Y006302D03*
X030335Y006853D03*
X030926Y005869D03*
X031517Y005869D03*
X032973Y006853D03*
X027776Y012562D03*
X012540Y006577D03*
X011989Y004806D03*
X007894Y017286D03*
X007894Y019254D03*
X008524Y019806D03*
X008957Y019806D03*
X007107Y019648D03*
D14*
X005139Y018388D03*
X004548Y019176D03*
X001792Y019766D03*
X006320Y016420D03*
X005139Y015239D03*
X004154Y016026D03*
X002816Y014609D03*
X001595Y016026D03*
X004745Y014058D03*
X005375Y013231D03*
X006713Y014058D03*
X007127Y013546D03*
X008249Y013979D03*
X007894Y014648D03*
X010847Y012758D03*
X012540Y013546D03*
X013879Y013349D03*
X013879Y014727D03*
X015572Y016814D03*
X017146Y015908D03*
X017894Y015632D03*
X017934Y016420D03*
X017540Y017404D03*
X019391Y016499D03*
X020887Y016420D03*
X022068Y016814D03*
X023209Y015278D03*
X024430Y013940D03*
X025611Y015436D03*
X027383Y015042D03*
X028761Y015829D03*
X030532Y015436D03*
X030139Y014451D03*
X031713Y014254D03*
X032894Y015632D03*
X032107Y016814D03*
X031320Y018782D03*
X029154Y020357D03*
X028170Y018979D03*
X026989Y018191D03*
X025611Y019176D03*
X026398Y019569D03*
X024627Y018388D03*
X022855Y019766D03*
X024233Y020554D03*
X021674Y021144D03*
X018721Y019963D03*
X017737Y020947D03*
X015572Y020751D03*
X014784Y019569D03*
X013209Y020160D03*
X011438Y019176D03*
X013013Y018585D03*
X012225Y017010D03*
X010454Y017010D03*
X009272Y018782D03*
X010454Y020554D03*
X017343Y018979D03*
X021477Y018585D03*
X029351Y012877D03*
X030139Y011695D03*
X030532Y010317D03*
X030335Y009333D03*
X031910Y010121D03*
X033682Y009924D03*
X033091Y012286D03*
X033879Y012877D03*
X027383Y011499D03*
X026320Y012562D03*
X023918Y011892D03*
X024036Y010396D03*
X022461Y009412D03*
X021674Y010199D03*
X020493Y010003D03*
X021083Y009215D03*
X019902Y007837D03*
X017934Y007837D03*
X016359Y009018D03*
X017343Y009609D03*
X016162Y010593D03*
X014587Y009215D03*
X014706Y008152D03*
X013524Y007325D03*
X014981Y006538D03*
X015965Y007443D03*
X017146Y006066D03*
X016359Y005278D03*
X015257Y005317D03*
X015769Y004294D03*
X016950Y004294D03*
X018131Y004294D03*
X019312Y004294D03*
X020493Y004294D03*
X021674Y004294D03*
X022855Y004294D03*
X024036Y004294D03*
X024430Y002916D03*
X025217Y002916D03*
X026398Y004294D03*
X026792Y005475D03*
X028957Y004884D03*
X028564Y002916D03*
X030139Y003113D03*
X031517Y003703D03*
X031910Y004884D03*
X029351Y007168D03*
X027973Y007955D03*
X027580Y007050D03*
X026202Y007247D03*
X024233Y009018D03*
X026989Y009727D03*
X021083Y006262D03*
X020296Y005672D03*
X019706Y006459D03*
X018524Y005081D03*
X018328Y002916D03*
X019312Y002916D03*
X020493Y002916D03*
X021871Y002916D03*
X022658Y002916D03*
X022855Y001538D03*
X023446Y001144D03*
X024036Y001538D03*
X025217Y001538D03*
X026398Y001538D03*
X026792Y000947D03*
X029154Y001538D03*
X031517Y001144D03*
X032107Y002129D03*
X033682Y007365D03*
X022068Y000947D03*
X021674Y001538D03*
X020493Y001538D03*
X019312Y001538D03*
X018524Y001144D03*
X018131Y001538D03*
X016950Y001538D03*
X015769Y001538D03*
X015965Y000751D03*
X015375Y000711D03*
X013013Y001499D03*
X012422Y001499D03*
X011831Y001499D03*
X008643Y000751D03*
X005926Y002050D03*
X004548Y001853D03*
X005532Y003428D03*
X003957Y004412D03*
X002973Y004215D03*
X003564Y005987D03*
X002068Y006223D03*
X005020Y007680D03*
X005926Y008743D03*
X004942Y009491D03*
X006083Y009845D03*
X006123Y010357D03*
X004587Y011341D03*
X004587Y012069D03*
X006320Y011892D03*
X008564Y010475D03*
X011753Y009845D03*
X012028Y009215D03*
X012225Y010396D03*
X012068Y011026D03*
X008800Y007247D03*
X009784Y006420D03*
X008288Y005790D03*
X008091Y004373D03*
X009076Y004018D03*
X010257Y004294D03*
X013013Y004333D03*
X013564Y005317D03*
X013721Y006066D03*
X012619Y006184D03*
X015769Y002916D03*
X016753Y002916D03*
X019036Y011774D03*
X017619Y012286D03*
X003367Y009924D03*
X003367Y008743D03*
X001398Y010514D03*
D15*
X008170Y006302D03*
X010217Y006420D03*
X011831Y002916D03*
X013013Y002916D03*
X017619Y011577D03*
X021930Y014176D03*
X022954Y014294D03*
X015139Y015829D03*
X014272Y015829D03*
X008446Y015534D03*
X008446Y014412D03*
X004253Y020239D03*
D16*
X003072Y020928D03*
X005434Y020928D03*
X006379Y017129D03*
X009076Y017188D03*
X011556Y016262D03*
X011477Y015672D03*
X012934Y015829D03*
X013406Y015829D03*
X014706Y015829D03*
X015965Y015829D03*
X016831Y015003D03*
X015454Y014373D03*
X015454Y013428D03*
X017146Y012365D03*
X018013Y013428D03*
X019076Y013428D03*
X019706Y013428D03*
X020020Y013428D03*
X020296Y013428D03*
X020887Y012601D03*
X021044Y012325D03*
X022225Y011971D03*
X021083Y011144D03*
X022658Y012995D03*
X022461Y013191D03*
X023997Y012680D03*
X024509Y011380D03*
X025965Y012916D03*
X026792Y013979D03*
X024863Y015672D03*
X023446Y014963D03*
X023446Y014530D03*
X022658Y014924D03*
X022461Y015436D03*
X022580Y015672D03*
X023249Y016321D03*
X022068Y014924D03*
X019706Y014373D03*
X019272Y014609D03*
X017107Y016380D03*
X012973Y014845D03*
X012028Y014609D03*
X010493Y014373D03*
X009863Y013861D03*
X009863Y012916D03*
X009548Y012916D03*
X009115Y012916D03*
X009784Y012443D03*
X009509Y011735D03*
X009351Y011538D03*
X009154Y011380D03*
X008682Y011774D03*
X008524Y011577D03*
X008328Y011380D03*
X008328Y011774D03*
X007540Y012562D03*
X006753Y012168D03*
X008918Y010042D03*
X008485Y009688D03*
X009469Y009018D03*
X010335Y008861D03*
X011753Y008664D03*
X011871Y008231D03*
X012973Y010160D03*
X013761Y010160D03*
X014548Y010160D03*
X015335Y010160D03*
X015335Y011499D03*
X014548Y011499D03*
X013761Y011499D03*
X012973Y011499D03*
X012068Y012207D03*
X011871Y011971D03*
X011202Y011184D03*
X010926Y010908D03*
X010650Y010908D03*
X011871Y010790D03*
X006674Y008546D03*
X005887Y007955D03*
X004351Y006932D03*
X005099Y006223D03*
X005729Y006341D03*
X009430Y006420D03*
X013406Y004294D03*
X013800Y004294D03*
X014194Y004294D03*
X014587Y004294D03*
X014981Y004294D03*
X015375Y004294D03*
X014981Y001538D03*
X014587Y001538D03*
X014194Y001538D03*
X013406Y001538D03*
X025217Y004294D03*
X028682Y008506D03*
X028879Y008821D03*
X028249Y010436D03*
X027875Y010967D03*
X004351Y009569D03*
X001398Y011380D03*
X001398Y011873D03*
X002776Y012365D03*
D17*
X010099Y010121D03*
X010414Y010121D03*
X010296Y009294D03*
X012580Y010514D03*
X013367Y010514D03*
X013367Y011144D03*
X012580Y011144D03*
X014154Y011144D03*
X014942Y011144D03*
X015729Y011144D03*
X015729Y010514D03*
X014942Y010514D03*
X014154Y010514D03*
X021635Y013270D03*
X021792Y014963D03*
X021359Y015199D03*
D18*
X001071Y021747D02*
X001071Y000620D01*
X015530Y000620D01*
X015530Y001415D01*
X015501Y001485D01*
X015501Y001591D01*
X015530Y001661D01*
X015530Y002793D01*
X015501Y002863D01*
X015501Y002969D01*
X015530Y003039D01*
X015530Y004152D01*
X015462Y004084D01*
X015288Y004084D01*
X015178Y004194D01*
X015068Y004084D01*
X014894Y004084D01*
X014784Y004194D01*
X014674Y004084D01*
X014500Y004084D01*
X014391Y004194D01*
X014281Y004084D01*
X014107Y004084D01*
X013997Y004194D01*
X013887Y004084D01*
X013713Y004084D01*
X013603Y004194D01*
X013493Y004084D01*
X013319Y004084D01*
X013196Y004207D01*
X013196Y004381D01*
X013282Y004467D01*
X013168Y004582D01*
X013168Y007810D01*
X013064Y007913D01*
X012331Y007913D01*
X012443Y007867D01*
X012609Y007700D01*
X012700Y007483D01*
X012700Y007247D01*
X012609Y007029D01*
X012443Y006862D01*
X012225Y006772D01*
X011989Y006772D01*
X011771Y006862D01*
X011605Y007029D01*
X011515Y007247D01*
X011515Y007483D01*
X011605Y007700D01*
X011771Y007867D01*
X011883Y007913D01*
X011332Y007913D01*
X011238Y008007D01*
X010348Y008898D01*
X010112Y008898D01*
X010018Y008991D01*
X009900Y009109D01*
X009900Y010009D01*
X009879Y010030D01*
X009879Y010212D01*
X009900Y010232D01*
X009900Y010738D01*
X009994Y010832D01*
X010033Y010871D01*
X010440Y010871D01*
X010440Y010995D01*
X010563Y011118D01*
X010737Y011118D01*
X010788Y011067D01*
X010839Y011118D01*
X010992Y011118D01*
X010992Y011271D01*
X011115Y011394D01*
X011289Y011394D01*
X011412Y011271D01*
X011412Y011097D01*
X011289Y010974D01*
X011136Y010974D01*
X011136Y010871D01*
X011661Y010871D01*
X011661Y010877D01*
X011784Y011000D01*
X011958Y011000D01*
X012081Y010877D01*
X012081Y010871D01*
X024299Y010871D01*
X024393Y010777D01*
X029536Y005635D01*
X034403Y005635D01*
X034403Y015606D01*
X034473Y015775D01*
X035584Y016886D01*
X035584Y021747D01*
X001071Y021747D01*
X001071Y021727D02*
X035584Y021727D01*
X035584Y021609D02*
X030595Y021609D01*
X030499Y021649D02*
X030727Y021554D01*
X030903Y021379D01*
X030997Y021150D01*
X030997Y020902D01*
X030903Y020674D01*
X030727Y020498D01*
X030499Y020404D01*
X030251Y020404D01*
X030022Y020498D01*
X029847Y020674D01*
X029752Y020902D01*
X029752Y021150D01*
X029847Y021379D01*
X030022Y021554D01*
X030251Y021649D01*
X030499Y021649D01*
X030791Y021490D02*
X035584Y021490D01*
X035584Y021372D02*
X030906Y021372D01*
X030955Y021253D02*
X033951Y021253D01*
X033927Y021249D02*
X033833Y021219D01*
X033744Y021173D01*
X033664Y021115D01*
X033593Y021044D01*
X033535Y020964D01*
X033489Y020875D01*
X033459Y020781D01*
X033445Y020692D01*
X034016Y020692D01*
X034016Y020572D01*
X034136Y020572D01*
X034136Y020692D01*
X034706Y020692D01*
X034693Y020781D01*
X034662Y020875D01*
X034617Y020964D01*
X034558Y021044D01*
X034488Y021115D01*
X034407Y021173D01*
X034318Y021219D01*
X034224Y021249D01*
X034136Y021263D01*
X034136Y020692D01*
X034016Y020692D01*
X034016Y021263D01*
X033927Y021249D01*
X034016Y021253D02*
X034136Y021253D01*
X034200Y021253D02*
X035584Y021253D01*
X035584Y021135D02*
X034461Y021135D01*
X034579Y021016D02*
X035584Y021016D01*
X035584Y020898D02*
X034650Y020898D01*
X034693Y020779D02*
X035584Y020779D01*
X035584Y020661D02*
X034136Y020661D01*
X034136Y020572D02*
X034706Y020572D01*
X034693Y020484D01*
X034662Y020390D01*
X034617Y020301D01*
X034558Y020220D01*
X034488Y020150D01*
X034407Y020091D01*
X034318Y020046D01*
X034224Y020016D01*
X034136Y020002D01*
X034136Y020572D01*
X034136Y020542D02*
X034016Y020542D01*
X034016Y020572D02*
X034016Y020002D01*
X033927Y020016D01*
X033833Y020046D01*
X033744Y020091D01*
X033664Y020150D01*
X033593Y020220D01*
X033535Y020301D01*
X033489Y020390D01*
X033459Y020484D01*
X033445Y020572D01*
X034016Y020572D01*
X034016Y020661D02*
X030890Y020661D01*
X030946Y020779D02*
X033458Y020779D01*
X033501Y020898D02*
X030995Y020898D01*
X030997Y021016D02*
X033572Y021016D01*
X033691Y021135D02*
X030997Y021135D01*
X030771Y020542D02*
X033450Y020542D01*
X033478Y020424D02*
X030547Y020424D01*
X030203Y020424D02*
X025350Y020424D01*
X025302Y020404D02*
X025531Y020498D01*
X025706Y020674D01*
X025800Y020902D01*
X025800Y021150D01*
X025706Y021379D01*
X025531Y021554D01*
X025302Y021649D01*
X025054Y021649D01*
X024825Y021554D01*
X024650Y021379D01*
X024555Y021150D01*
X024555Y020902D01*
X024650Y020674D01*
X024825Y020498D01*
X025054Y020404D01*
X025302Y020404D01*
X025006Y020424D02*
X020791Y020424D01*
X020798Y020418D02*
X020719Y020478D01*
X020633Y020528D01*
X020541Y020566D01*
X020445Y020592D01*
X020356Y020604D01*
X020356Y019905D01*
X020236Y019905D01*
X020236Y019785D01*
X019537Y019785D01*
X019549Y019696D01*
X019575Y019600D01*
X019613Y019508D01*
X019663Y019422D01*
X019723Y019343D01*
X019794Y019272D01*
X019873Y019212D01*
X019959Y019162D01*
X020051Y019124D01*
X020147Y019098D01*
X020236Y019086D01*
X020236Y019785D01*
X020356Y019785D01*
X020356Y019086D01*
X020445Y019098D01*
X020541Y019124D01*
X020633Y019162D01*
X020719Y019212D01*
X020798Y019272D01*
X020869Y019343D01*
X020929Y019422D01*
X020979Y019508D01*
X021017Y019600D01*
X021043Y019696D01*
X021055Y019785D01*
X020356Y019785D01*
X020356Y019905D01*
X021055Y019905D01*
X021043Y019994D01*
X021017Y020090D01*
X020979Y020182D01*
X020929Y020268D01*
X020869Y020347D01*
X020798Y020418D01*
X020901Y020305D02*
X033533Y020305D01*
X033627Y020187D02*
X020976Y020187D01*
X021023Y020068D02*
X033790Y020068D01*
X034016Y020068D02*
X034136Y020068D01*
X034136Y020187D02*
X034016Y020187D01*
X034016Y020305D02*
X034136Y020305D01*
X034136Y020424D02*
X034016Y020424D01*
X034016Y020779D02*
X034136Y020779D01*
X034136Y020898D02*
X034016Y020898D01*
X034016Y021016D02*
X034136Y021016D01*
X034136Y021135D02*
X034016Y021135D01*
X034702Y020542D02*
X035584Y020542D01*
X035584Y020424D02*
X034673Y020424D01*
X034619Y020305D02*
X035584Y020305D01*
X035584Y020187D02*
X034524Y020187D01*
X034361Y020068D02*
X035584Y020068D01*
X035584Y019950D02*
X021049Y019950D01*
X021045Y019713D02*
X035584Y019713D01*
X035584Y019831D02*
X020356Y019831D01*
X020356Y019713D02*
X020236Y019713D01*
X020236Y019831D02*
X007344Y019831D01*
X007359Y019817D02*
X007275Y019900D01*
X007166Y019945D01*
X007048Y019945D01*
X006939Y019900D01*
X006855Y019817D01*
X006810Y019707D01*
X006810Y019589D01*
X006855Y019480D01*
X006939Y019396D01*
X007048Y019351D01*
X007166Y019351D01*
X007275Y019396D01*
X007359Y019480D01*
X007404Y019589D01*
X007404Y019707D01*
X007359Y019817D01*
X007402Y019713D02*
X019547Y019713D01*
X019577Y019594D02*
X007404Y019594D01*
X007355Y019476D02*
X007695Y019476D01*
X007726Y019506D02*
X007643Y019423D01*
X007597Y019314D01*
X007597Y019195D01*
X007643Y019086D01*
X007726Y019003D01*
X007835Y018957D01*
X007954Y018957D01*
X008063Y019003D01*
X008146Y019086D01*
X008192Y019195D01*
X008192Y019314D01*
X008146Y019423D01*
X008063Y019506D01*
X007954Y019552D01*
X007835Y019552D01*
X007726Y019506D01*
X007615Y019357D02*
X007181Y019357D01*
X007033Y019357D02*
X006898Y019357D01*
X006852Y019402D02*
X007019Y019236D01*
X007109Y019018D01*
X007109Y018782D01*
X007019Y018565D01*
X006852Y018398D01*
X006634Y018308D01*
X006399Y018308D01*
X006181Y018398D01*
X006014Y018565D01*
X005924Y018782D01*
X005924Y019018D01*
X006014Y019236D01*
X006181Y019402D01*
X006399Y019493D01*
X006634Y019493D01*
X006852Y019402D01*
X006859Y019476D02*
X006676Y019476D01*
X006810Y019594D02*
X001071Y019594D01*
X001071Y019476D02*
X006357Y019476D01*
X006135Y019357D02*
X001071Y019357D01*
X001071Y019239D02*
X006017Y019239D01*
X005966Y019120D02*
X001071Y019120D01*
X001071Y019002D02*
X005924Y019002D01*
X005924Y018883D02*
X003055Y018883D01*
X003008Y018911D02*
X002726Y018986D01*
X002433Y018986D01*
X002151Y018911D01*
X001898Y018764D01*
X001692Y018558D01*
X001546Y018305D01*
X001470Y018023D01*
X001470Y017730D01*
X001546Y017448D01*
X001692Y017195D01*
X001898Y016989D01*
X002151Y016843D01*
X002433Y016767D01*
X002726Y016767D01*
X003008Y016843D01*
X003261Y016989D01*
X003467Y017195D01*
X003614Y017448D01*
X003689Y017730D01*
X003689Y018023D01*
X003614Y018305D01*
X003467Y018558D01*
X003261Y018764D01*
X003008Y018911D01*
X003261Y018765D02*
X005931Y018765D01*
X005980Y018646D02*
X003379Y018646D01*
X003485Y018528D02*
X006051Y018528D01*
X006170Y018409D02*
X003553Y018409D01*
X003617Y018291D02*
X017784Y018291D01*
X017763Y018327D02*
X017812Y018241D01*
X017873Y018162D01*
X017943Y018091D01*
X018023Y018031D01*
X018109Y017981D01*
X018201Y017943D01*
X018297Y017917D01*
X018386Y017905D01*
X018386Y018604D01*
X018506Y018604D01*
X018506Y018724D01*
X019204Y018724D01*
X019193Y018813D01*
X019167Y018909D01*
X019129Y019001D01*
X019079Y019087D01*
X019018Y019166D01*
X018948Y019237D01*
X018869Y019297D01*
X018783Y019347D01*
X018690Y019385D01*
X018594Y019411D01*
X018506Y019423D01*
X018506Y018724D01*
X018386Y018724D01*
X018386Y019423D01*
X018297Y019411D01*
X018201Y019385D01*
X018109Y019347D01*
X018023Y019297D01*
X017943Y019237D01*
X017873Y019166D01*
X017812Y019087D01*
X017763Y019001D01*
X017724Y018909D01*
X017699Y018813D01*
X017687Y018724D01*
X018386Y018724D01*
X018386Y018604D01*
X017687Y018604D01*
X017699Y018515D01*
X017724Y018419D01*
X017763Y018327D01*
X017729Y018409D02*
X006863Y018409D01*
X006982Y018528D02*
X017697Y018528D01*
X017692Y018765D02*
X007102Y018765D01*
X007109Y018883D02*
X017718Y018883D01*
X017763Y019002D02*
X008060Y019002D01*
X008160Y019120D02*
X017838Y019120D01*
X017946Y019239D02*
X008192Y019239D01*
X008174Y019357D02*
X018133Y019357D01*
X018386Y019357D02*
X018506Y019357D01*
X018506Y019239D02*
X018386Y019239D01*
X018386Y019120D02*
X018506Y019120D01*
X018506Y019002D02*
X018386Y019002D01*
X018386Y018883D02*
X018506Y018883D01*
X018506Y018765D02*
X018386Y018765D01*
X018386Y018646D02*
X007053Y018646D01*
X007109Y019002D02*
X007729Y019002D01*
X007629Y019120D02*
X007067Y019120D01*
X007016Y019239D02*
X007597Y019239D01*
X008094Y019476D02*
X019632Y019476D01*
X019713Y019357D02*
X018758Y019357D01*
X018945Y019239D02*
X019838Y019239D01*
X020065Y019120D02*
X019054Y019120D01*
X019128Y019002D02*
X035584Y019002D01*
X035584Y019120D02*
X020527Y019120D01*
X020356Y019120D02*
X020236Y019120D01*
X020236Y019239D02*
X020356Y019239D01*
X020356Y019357D02*
X020236Y019357D01*
X020236Y019476D02*
X020356Y019476D01*
X020356Y019594D02*
X020236Y019594D01*
X020236Y019905D02*
X019537Y019905D01*
X019549Y019994D01*
X019575Y020090D01*
X019613Y020182D01*
X019663Y020268D01*
X019723Y020347D01*
X019794Y020418D01*
X019873Y020478D01*
X019959Y020528D01*
X020051Y020566D01*
X020147Y020592D01*
X020236Y020604D01*
X020236Y019905D01*
X020236Y019950D02*
X020356Y019950D01*
X020356Y020068D02*
X020236Y020068D01*
X020236Y020187D02*
X020356Y020187D01*
X020356Y020305D02*
X020236Y020305D01*
X020236Y020424D02*
X020356Y020424D01*
X020356Y020542D02*
X020236Y020542D01*
X019993Y020542D02*
X001071Y020542D01*
X001071Y020424D02*
X004146Y020424D01*
X004167Y020445D02*
X004047Y020324D01*
X004047Y020153D01*
X004167Y020033D01*
X004338Y020033D01*
X004459Y020153D01*
X004459Y020324D01*
X004338Y020445D01*
X004167Y020445D01*
X004047Y020305D02*
X001071Y020305D01*
X001071Y020187D02*
X004047Y020187D01*
X004132Y020068D02*
X001071Y020068D01*
X001071Y019950D02*
X019543Y019950D01*
X019569Y020068D02*
X004373Y020068D01*
X004459Y020187D02*
X019616Y020187D01*
X019691Y020305D02*
X004459Y020305D01*
X004359Y020424D02*
X019802Y020424D01*
X020599Y020542D02*
X024782Y020542D01*
X024663Y020661D02*
X001071Y020661D01*
X001071Y020779D02*
X002923Y020779D01*
X002985Y020718D02*
X003159Y020718D01*
X003282Y020841D01*
X003282Y021015D01*
X003159Y021138D01*
X002985Y021138D01*
X002862Y021015D01*
X002862Y020841D01*
X002985Y020718D01*
X002862Y020898D02*
X001071Y020898D01*
X001071Y021016D02*
X002863Y021016D01*
X002981Y021135D02*
X001071Y021135D01*
X001071Y021253D02*
X024598Y021253D01*
X024555Y021135D02*
X005524Y021135D01*
X005521Y021138D02*
X005347Y021138D01*
X005224Y021015D01*
X005224Y020841D01*
X005347Y020718D01*
X005521Y020718D01*
X005644Y020841D01*
X005644Y021015D01*
X005521Y021138D01*
X005643Y021016D02*
X024555Y021016D01*
X024557Y020898D02*
X005644Y020898D01*
X005582Y020779D02*
X024607Y020779D01*
X024647Y021372D02*
X001071Y021372D01*
X001071Y021490D02*
X024762Y021490D01*
X024957Y021609D02*
X001071Y021609D01*
X003162Y021135D02*
X005344Y021135D01*
X005225Y021016D02*
X003280Y021016D01*
X003282Y020898D02*
X005224Y020898D01*
X005286Y020779D02*
X003220Y020779D01*
X001071Y019831D02*
X006870Y019831D01*
X006812Y019713D02*
X001071Y019713D01*
X001071Y018883D02*
X002104Y018883D01*
X001898Y018765D02*
X001071Y018765D01*
X001071Y018646D02*
X001780Y018646D01*
X001674Y018528D02*
X001071Y018528D01*
X001071Y018409D02*
X001606Y018409D01*
X001542Y018291D02*
X001071Y018291D01*
X001071Y018172D02*
X001510Y018172D01*
X001478Y018054D02*
X001071Y018054D01*
X001071Y017935D02*
X001470Y017935D01*
X001470Y017817D02*
X001071Y017817D01*
X001071Y017698D02*
X001479Y017698D01*
X001510Y017580D02*
X001071Y017580D01*
X001071Y017461D02*
X001542Y017461D01*
X001607Y017343D02*
X001071Y017343D01*
X001071Y017224D02*
X001675Y017224D01*
X001781Y017106D02*
X001071Y017106D01*
X001071Y016987D02*
X001901Y016987D01*
X002106Y016869D02*
X001071Y016869D01*
X001071Y016750D02*
X025375Y016750D01*
X025353Y016772D02*
X025424Y016702D01*
X025503Y016641D01*
X025589Y016591D01*
X025681Y016553D01*
X025777Y016527D01*
X025866Y016516D01*
X025866Y017214D01*
X025986Y017214D01*
X025986Y016516D01*
X026075Y016527D01*
X026171Y016553D01*
X026263Y016591D01*
X026349Y016641D01*
X026428Y016702D01*
X026499Y016772D01*
X026559Y016851D01*
X026609Y016937D01*
X026647Y017029D01*
X026673Y017126D01*
X026685Y017214D01*
X025986Y017214D01*
X025986Y017334D01*
X026685Y017334D01*
X026673Y017423D01*
X026647Y017519D01*
X026609Y017611D01*
X026559Y017697D01*
X026499Y017776D01*
X026428Y017847D01*
X026349Y017907D01*
X026263Y017957D01*
X026171Y017995D01*
X026075Y018021D01*
X025986Y018033D01*
X025986Y017334D01*
X025866Y017334D01*
X025866Y017214D01*
X025167Y017214D01*
X025179Y017126D01*
X025205Y017029D01*
X025243Y016937D01*
X025293Y016851D01*
X025353Y016772D01*
X025283Y016869D02*
X020694Y016869D01*
X020704Y016872D02*
X020906Y017075D01*
X021016Y017340D01*
X021016Y017626D01*
X020906Y017891D01*
X020704Y018093D01*
X020439Y018203D01*
X020153Y018203D01*
X019888Y018093D01*
X019686Y017891D01*
X019576Y017626D01*
X019576Y017340D01*
X019686Y017075D01*
X019888Y016872D01*
X020153Y016763D01*
X020439Y016763D01*
X020704Y016872D01*
X020818Y016987D02*
X025222Y016987D01*
X025184Y017106D02*
X020919Y017106D01*
X020968Y017224D02*
X025866Y017224D01*
X025866Y017334D02*
X025167Y017334D01*
X025179Y017423D01*
X025205Y017519D01*
X025243Y017611D01*
X025293Y017697D01*
X025353Y017776D01*
X025424Y017847D01*
X025503Y017907D01*
X025589Y017957D01*
X025681Y017995D01*
X025777Y018021D01*
X025866Y018033D01*
X025866Y017334D01*
X025866Y017343D02*
X025986Y017343D01*
X025986Y017461D02*
X025866Y017461D01*
X025866Y017580D02*
X025986Y017580D01*
X025986Y017698D02*
X025866Y017698D01*
X025866Y017817D02*
X025986Y017817D01*
X025986Y017935D02*
X025866Y017935D01*
X025551Y017935D02*
X023776Y017935D01*
X023751Y017876D02*
X023841Y018093D01*
X023841Y018329D01*
X023751Y018547D01*
X023584Y018713D01*
X023367Y018804D01*
X023131Y018804D01*
X022913Y018713D01*
X022747Y018547D01*
X022656Y018329D01*
X022656Y018093D01*
X022747Y017876D01*
X022913Y017709D01*
X023131Y017619D01*
X023367Y017619D01*
X023584Y017709D01*
X023751Y017876D01*
X023692Y017817D02*
X025394Y017817D01*
X025293Y017698D02*
X023558Y017698D01*
X023825Y018054D02*
X032974Y018054D01*
X032966Y018023D02*
X032966Y017730D01*
X033042Y017448D01*
X033188Y017195D01*
X033394Y016989D01*
X033647Y016843D01*
X033930Y016767D01*
X034222Y016767D01*
X034504Y016843D01*
X034757Y016989D01*
X034963Y017195D01*
X035110Y017448D01*
X035185Y017730D01*
X035185Y018023D01*
X035110Y018305D01*
X034963Y018558D01*
X034757Y018764D01*
X034504Y018911D01*
X034222Y018986D01*
X033930Y018986D01*
X033647Y018911D01*
X033394Y018764D01*
X033188Y018558D01*
X033042Y018305D01*
X032966Y018023D01*
X032966Y017935D02*
X029913Y017935D01*
X030035Y017885D02*
X029770Y017994D01*
X029484Y017994D01*
X029219Y017885D01*
X029016Y017682D01*
X028907Y017417D01*
X028907Y017131D01*
X029016Y016866D01*
X029219Y016664D01*
X029484Y016554D01*
X029770Y016554D01*
X030035Y016664D01*
X030237Y016866D01*
X030347Y017131D01*
X030347Y017417D01*
X030237Y017682D01*
X030035Y017885D01*
X030103Y017817D02*
X032966Y017817D01*
X032975Y017698D02*
X030221Y017698D01*
X030280Y017580D02*
X033006Y017580D01*
X033038Y017461D02*
X030329Y017461D01*
X030347Y017343D02*
X033103Y017343D01*
X033171Y017224D02*
X030347Y017224D01*
X030336Y017106D02*
X033277Y017106D01*
X033397Y016987D02*
X030287Y016987D01*
X030238Y016869D02*
X033602Y016869D01*
X034549Y016869D02*
X035567Y016869D01*
X035584Y016987D02*
X034754Y016987D01*
X034874Y017106D02*
X035584Y017106D01*
X035584Y017224D02*
X034980Y017224D01*
X035049Y017343D02*
X035584Y017343D01*
X035584Y017461D02*
X035113Y017461D01*
X035145Y017580D02*
X035584Y017580D01*
X035584Y017698D02*
X035177Y017698D01*
X035185Y017817D02*
X035584Y017817D01*
X035584Y017935D02*
X035185Y017935D01*
X035177Y018054D02*
X035584Y018054D01*
X035584Y018172D02*
X035145Y018172D01*
X035113Y018291D02*
X035584Y018291D01*
X035584Y018409D02*
X035049Y018409D01*
X034981Y018528D02*
X035584Y018528D01*
X035584Y018646D02*
X034875Y018646D01*
X034757Y018765D02*
X035584Y018765D01*
X035584Y018883D02*
X034551Y018883D01*
X033600Y018883D02*
X019174Y018883D01*
X019199Y018765D02*
X023036Y018765D01*
X022846Y018646D02*
X018506Y018646D01*
X018506Y018604D02*
X019204Y018604D01*
X019193Y018515D01*
X019167Y018419D01*
X019129Y018327D01*
X019079Y018241D01*
X019018Y018162D01*
X018948Y018091D01*
X018869Y018031D01*
X018783Y017981D01*
X018690Y017943D01*
X018594Y017917D01*
X018506Y017905D01*
X018506Y018604D01*
X018506Y018528D02*
X018386Y018528D01*
X018386Y018409D02*
X018506Y018409D01*
X018506Y018291D02*
X018386Y018291D01*
X018386Y018172D02*
X018506Y018172D01*
X018506Y018054D02*
X018386Y018054D01*
X018386Y017935D02*
X018506Y017935D01*
X018662Y017935D02*
X019730Y017935D01*
X019655Y017817D02*
X003689Y017817D01*
X003689Y017935D02*
X018230Y017935D01*
X017993Y018054D02*
X003681Y018054D01*
X003649Y018172D02*
X017865Y018172D01*
X018899Y018054D02*
X019849Y018054D01*
X020078Y018172D02*
X019026Y018172D01*
X019108Y018291D02*
X022656Y018291D01*
X022656Y018172D02*
X020514Y018172D01*
X020744Y018054D02*
X022673Y018054D01*
X022722Y017935D02*
X020862Y017935D01*
X020937Y017817D02*
X022806Y017817D01*
X022939Y017698D02*
X020986Y017698D01*
X021016Y017580D02*
X025230Y017580D01*
X025189Y017461D02*
X021016Y017461D01*
X021016Y017343D02*
X025168Y017343D01*
X025866Y017106D02*
X025986Y017106D01*
X025986Y017224D02*
X027056Y017224D01*
X027056Y017131D02*
X027166Y016866D01*
X027369Y016664D01*
X027633Y016554D01*
X027920Y016554D01*
X028184Y016664D01*
X028387Y016866D01*
X028496Y017131D01*
X028496Y017417D01*
X028387Y017682D01*
X028184Y017885D01*
X027920Y017994D01*
X027633Y017994D01*
X027369Y017885D01*
X027166Y017682D01*
X027056Y017417D01*
X027056Y017131D01*
X027067Y017106D02*
X026668Y017106D01*
X026630Y016987D02*
X027116Y016987D01*
X027165Y016869D02*
X026569Y016869D01*
X026477Y016750D02*
X027282Y016750D01*
X027446Y016632D02*
X026333Y016632D01*
X025986Y016632D02*
X025866Y016632D01*
X025866Y016750D02*
X025986Y016750D01*
X025986Y016869D02*
X025866Y016869D01*
X025866Y016987D02*
X025986Y016987D01*
X025519Y016632D02*
X001071Y016632D01*
X001071Y016513D02*
X016943Y016513D01*
X016897Y016467D02*
X016897Y016293D01*
X017020Y016170D01*
X017194Y016170D01*
X017317Y016293D01*
X017317Y016467D01*
X017194Y016590D01*
X017020Y016590D01*
X016897Y016467D01*
X016897Y016395D02*
X011721Y016395D01*
X011766Y016349D02*
X011643Y016472D01*
X011469Y016472D01*
X011346Y016349D01*
X011346Y016175D01*
X011469Y016052D01*
X011643Y016052D01*
X011766Y016175D01*
X011766Y016349D01*
X011766Y016276D02*
X016915Y016276D01*
X017300Y016276D02*
X034974Y016276D01*
X034856Y016158D02*
X011748Y016158D01*
X011564Y015882D02*
X011390Y015882D01*
X011267Y015759D01*
X011267Y015585D01*
X011390Y015462D01*
X011564Y015462D01*
X011687Y015585D01*
X011687Y015759D01*
X011564Y015882D01*
X011644Y015802D02*
X012724Y015802D01*
X012724Y015742D02*
X012847Y015619D01*
X013021Y015619D01*
X013144Y015742D01*
X013144Y015916D01*
X013021Y016039D01*
X013319Y016039D01*
X013196Y015916D01*
X013196Y015742D01*
X013319Y015619D01*
X013493Y015619D01*
X013616Y015742D01*
X013616Y015916D01*
X013493Y016039D01*
X013319Y016039D01*
X013201Y015921D02*
X013140Y015921D01*
X013144Y015802D02*
X013196Y015802D01*
X013255Y015684D02*
X013085Y015684D01*
X012783Y015684D02*
X011687Y015684D01*
X011667Y015565D02*
X022294Y015565D01*
X022251Y015523D02*
X022251Y015349D01*
X022374Y015226D01*
X022548Y015226D01*
X022671Y015349D01*
X022671Y015467D01*
X022790Y015585D01*
X022790Y015759D01*
X022667Y015882D01*
X022493Y015882D01*
X022370Y015759D01*
X022370Y015641D01*
X022251Y015523D01*
X022251Y015447D02*
X017812Y015447D01*
X017851Y015407D02*
X017768Y015491D01*
X017658Y015536D01*
X017540Y015536D01*
X017431Y015491D01*
X017347Y015407D01*
X017302Y015298D01*
X017302Y015180D01*
X017347Y015070D01*
X017431Y014987D01*
X017540Y014942D01*
X017658Y014942D01*
X017768Y014987D01*
X017851Y015070D01*
X017896Y015180D01*
X017896Y015298D01*
X017851Y015407D01*
X017884Y015328D02*
X021177Y015328D01*
X021139Y015290D02*
X021139Y015108D01*
X021268Y014979D01*
X021450Y014979D01*
X021579Y015108D01*
X021579Y015290D01*
X021450Y015419D01*
X021268Y015419D01*
X021139Y015290D01*
X021139Y015210D02*
X017896Y015210D01*
X017860Y015091D02*
X021156Y015091D01*
X021562Y015091D02*
X021609Y015091D01*
X021572Y015054D02*
X021572Y014872D01*
X021701Y014743D01*
X021883Y014743D01*
X021917Y014777D01*
X021981Y014714D01*
X022155Y014714D01*
X022278Y014837D01*
X022278Y015011D01*
X022155Y015134D01*
X021981Y015134D01*
X021957Y015110D01*
X021883Y015183D01*
X021701Y015183D01*
X021572Y015054D01*
X021572Y014973D02*
X017733Y014973D01*
X017465Y014973D02*
X017041Y014973D01*
X017041Y014916D02*
X016918Y014793D01*
X016745Y014793D01*
X016621Y014916D01*
X016621Y015090D01*
X016745Y015213D01*
X016918Y015213D01*
X017041Y015090D01*
X017041Y014916D01*
X016980Y014854D02*
X021590Y014854D01*
X021959Y014736D02*
X019443Y014736D01*
X019482Y014696D02*
X019359Y014819D01*
X019185Y014819D01*
X019062Y014696D01*
X019062Y014522D01*
X019185Y014399D01*
X019359Y014399D01*
X019482Y014522D01*
X019482Y014696D01*
X019482Y014617D02*
X020671Y014617D01*
X020679Y014625D02*
X020595Y014541D01*
X020550Y014432D01*
X020550Y014313D01*
X020595Y014204D01*
X020679Y014121D01*
X020788Y014075D01*
X020906Y014075D01*
X021016Y014121D01*
X021099Y014204D01*
X021144Y014313D01*
X021144Y014432D01*
X021099Y014541D01*
X021016Y014625D01*
X020906Y014670D01*
X020788Y014670D01*
X020679Y014625D01*
X020578Y014499D02*
X019877Y014499D01*
X019916Y014460D02*
X019792Y014583D01*
X019619Y014583D01*
X019496Y014460D01*
X019496Y014286D01*
X019619Y014163D01*
X019792Y014163D01*
X019916Y014286D01*
X019916Y014460D01*
X019916Y014380D02*
X020550Y014380D01*
X020572Y014262D02*
X019891Y014262D01*
X019520Y014262D02*
X015639Y014262D01*
X015664Y014286D02*
X015541Y014163D01*
X015367Y014163D01*
X015244Y014286D01*
X015244Y014460D01*
X015367Y014583D01*
X015541Y014583D01*
X015664Y014460D01*
X015664Y014286D01*
X015664Y014380D02*
X019496Y014380D01*
X019459Y014499D02*
X019534Y014499D01*
X019086Y014499D02*
X015625Y014499D01*
X015282Y014499D02*
X012215Y014499D01*
X012238Y014522D02*
X012115Y014399D01*
X011941Y014399D01*
X011818Y014522D01*
X011818Y014696D01*
X011941Y014819D01*
X012115Y014819D01*
X012238Y014696D01*
X012238Y014522D01*
X012238Y014617D02*
X019062Y014617D01*
X019102Y014736D02*
X013161Y014736D01*
X013183Y014758D02*
X013060Y014635D01*
X012886Y014635D01*
X012763Y014758D01*
X012763Y014932D01*
X012886Y015055D01*
X013060Y015055D01*
X013183Y014932D01*
X013183Y014758D01*
X013183Y014854D02*
X016683Y014854D01*
X016621Y014973D02*
X013143Y014973D01*
X012804Y014973D02*
X010513Y014973D01*
X010562Y015021D02*
X010652Y015239D01*
X010652Y015475D01*
X010562Y015692D01*
X010395Y015859D01*
X010178Y015949D01*
X009942Y015949D01*
X009724Y015859D01*
X009558Y015692D01*
X009467Y015475D01*
X009467Y015239D01*
X009558Y015021D01*
X009724Y014855D01*
X009942Y014764D01*
X010178Y014764D01*
X010395Y014855D01*
X010562Y015021D01*
X010591Y015091D02*
X016623Y015091D01*
X016742Y015210D02*
X010640Y015210D01*
X010652Y015328D02*
X017315Y015328D01*
X017302Y015210D02*
X016921Y015210D01*
X017040Y015091D02*
X017339Y015091D01*
X017387Y015447D02*
X010652Y015447D01*
X010615Y015565D02*
X011287Y015565D01*
X011267Y015684D02*
X010566Y015684D01*
X010453Y015802D02*
X011310Y015802D01*
X011364Y016158D02*
X001071Y016158D01*
X001071Y016276D02*
X011346Y016276D01*
X011391Y016395D02*
X001071Y016395D01*
X001071Y016039D02*
X012847Y016039D01*
X012724Y015916D01*
X012724Y015742D01*
X012728Y015921D02*
X010247Y015921D01*
X009872Y015921D02*
X006704Y015921D01*
X006634Y015949D02*
X006399Y015949D01*
X006181Y015859D01*
X006014Y015692D01*
X005924Y015475D01*
X005924Y015239D01*
X006014Y015021D01*
X006181Y014855D01*
X006399Y014764D01*
X006634Y014764D01*
X006852Y014855D01*
X007019Y015021D01*
X007109Y015239D01*
X007109Y015475D01*
X007019Y015692D01*
X006852Y015859D01*
X006634Y015949D01*
X006329Y015921D02*
X001071Y015921D01*
X001071Y015802D02*
X006124Y015802D01*
X006011Y015684D02*
X001071Y015684D01*
X001071Y015565D02*
X005961Y015565D01*
X005924Y015447D02*
X001071Y015447D01*
X001071Y015328D02*
X005924Y015328D01*
X005936Y015210D02*
X001071Y015210D01*
X001071Y015091D02*
X005985Y015091D01*
X006063Y014973D02*
X001071Y014973D01*
X001071Y014854D02*
X006182Y014854D01*
X006851Y014854D02*
X009725Y014854D01*
X009606Y014973D02*
X006970Y014973D01*
X007048Y015091D02*
X009529Y015091D01*
X009480Y015210D02*
X007097Y015210D01*
X007109Y015328D02*
X008360Y015328D01*
X008531Y015328D01*
X008652Y015449D01*
X008652Y015619D01*
X008531Y015740D01*
X008360Y015740D01*
X008240Y015619D01*
X008240Y015449D01*
X008360Y015328D01*
X008242Y015447D02*
X007109Y015447D01*
X007072Y015565D02*
X008240Y015565D01*
X008304Y015684D02*
X007023Y015684D01*
X006909Y015802D02*
X009667Y015802D01*
X009554Y015684D02*
X008588Y015684D01*
X008652Y015565D02*
X009505Y015565D01*
X009467Y015447D02*
X008650Y015447D01*
X008531Y015328D02*
X009467Y015328D01*
X010394Y014854D02*
X012763Y014854D01*
X012786Y014736D02*
X012199Y014736D01*
X011858Y014736D02*
X001071Y014736D01*
X001071Y014617D02*
X008359Y014617D01*
X008360Y014618D02*
X008240Y014497D01*
X008240Y014327D01*
X008332Y014234D01*
X008302Y014247D01*
X008196Y014247D01*
X008097Y014206D01*
X008022Y014131D01*
X007981Y014032D01*
X007981Y013926D01*
X008022Y013827D01*
X008097Y013752D01*
X008196Y013711D01*
X008302Y013711D01*
X008400Y013752D01*
X008476Y013827D01*
X008516Y013926D01*
X008516Y014032D01*
X008476Y014131D01*
X008400Y014206D01*
X008531Y014206D01*
X008652Y014327D01*
X008652Y014497D01*
X008531Y014618D01*
X008360Y014618D01*
X008241Y014499D02*
X001071Y014499D01*
X001071Y014380D02*
X008240Y014380D01*
X008305Y014262D02*
X001071Y014262D01*
X001071Y014143D02*
X008034Y014143D01*
X007981Y014025D02*
X001071Y014025D01*
X001071Y013906D02*
X007989Y013906D01*
X008062Y013788D02*
X001071Y013788D01*
X001071Y013669D02*
X002626Y013669D01*
X002608Y013662D02*
X002426Y013480D01*
X002328Y013243D01*
X002328Y012986D01*
X002426Y012749D01*
X002608Y012568D01*
X002661Y012546D01*
X002566Y012452D01*
X002566Y012278D01*
X002661Y012183D01*
X002608Y012162D01*
X002426Y011980D01*
X002328Y011743D01*
X002328Y011486D01*
X002426Y011249D01*
X002608Y011068D01*
X002845Y010970D01*
X003102Y010970D01*
X003339Y011068D01*
X003520Y011249D01*
X003618Y011486D01*
X003618Y011743D01*
X003520Y011980D01*
X003339Y012162D01*
X003102Y012260D01*
X002968Y012260D01*
X002986Y012278D01*
X002986Y012452D01*
X002968Y012470D01*
X003102Y012470D01*
X003339Y012568D01*
X003520Y012749D01*
X003618Y012986D01*
X003618Y013243D01*
X003520Y013480D01*
X003339Y013662D01*
X003102Y013760D01*
X002845Y013760D01*
X002608Y013662D01*
X002497Y013551D02*
X001071Y013551D01*
X001071Y013432D02*
X002407Y013432D01*
X002357Y013314D02*
X001071Y013314D01*
X001071Y013195D02*
X002328Y013195D01*
X002328Y013077D02*
X001071Y013077D01*
X001071Y012958D02*
X002340Y012958D01*
X002389Y012840D02*
X001071Y012840D01*
X001071Y012721D02*
X002455Y012721D01*
X002573Y012603D02*
X001071Y012603D01*
X001071Y012484D02*
X002599Y012484D01*
X002566Y012366D02*
X001071Y012366D01*
X001071Y012247D02*
X002597Y012247D01*
X002575Y012129D02*
X001071Y012129D01*
X001071Y012010D02*
X001239Y012010D01*
X001188Y011960D02*
X001188Y011786D01*
X001311Y011663D01*
X001485Y011663D01*
X001608Y011786D01*
X001608Y011960D01*
X001485Y012083D01*
X001311Y012083D01*
X001188Y011960D01*
X001188Y011892D02*
X001071Y011892D01*
X001071Y011773D02*
X001201Y011773D01*
X001071Y011655D02*
X002328Y011655D01*
X002341Y011773D02*
X001596Y011773D01*
X001608Y011892D02*
X002390Y011892D01*
X002456Y012010D02*
X001558Y012010D01*
X001485Y011590D02*
X001311Y011590D01*
X001188Y011467D01*
X001188Y011293D01*
X001311Y011170D01*
X001485Y011170D01*
X001608Y011293D01*
X001608Y011467D01*
X001485Y011590D01*
X001540Y011536D02*
X002328Y011536D01*
X002357Y011418D02*
X001608Y011418D01*
X001608Y011299D02*
X002406Y011299D01*
X002495Y011181D02*
X001495Y011181D01*
X001301Y011181D02*
X001071Y011181D01*
X001071Y011299D02*
X001188Y011299D01*
X001188Y011418D02*
X001071Y011418D01*
X001071Y011536D02*
X001257Y011536D01*
X001071Y011062D02*
X002622Y011062D01*
X003324Y011062D02*
X010507Y011062D01*
X010440Y010944D02*
X001071Y010944D01*
X001071Y010825D02*
X009987Y010825D01*
X009900Y010707D02*
X006939Y010707D01*
X006919Y010715D02*
X006823Y010715D01*
X006735Y010678D01*
X006667Y010611D01*
X006631Y010523D01*
X006631Y010427D01*
X006667Y010339D01*
X006735Y010271D01*
X006823Y010235D01*
X006919Y010235D01*
X007007Y010271D01*
X007074Y010339D01*
X007111Y010427D01*
X007111Y010523D01*
X007074Y010611D01*
X007007Y010678D01*
X006919Y010715D01*
X006803Y010707D02*
X001071Y010707D01*
X001071Y010588D02*
X006658Y010588D01*
X006631Y010470D02*
X001071Y010470D01*
X001071Y010351D02*
X006662Y010351D01*
X007079Y010351D02*
X009900Y010351D01*
X009900Y010233D02*
X009024Y010233D01*
X009005Y010252D02*
X008831Y010252D01*
X008708Y010129D01*
X008708Y009955D01*
X008831Y009832D01*
X009005Y009832D01*
X009128Y009955D01*
X009128Y010129D01*
X009005Y010252D01*
X009128Y010114D02*
X009879Y010114D01*
X009900Y009996D02*
X009128Y009996D01*
X009050Y009877D02*
X009900Y009877D01*
X009900Y009759D02*
X004459Y009759D01*
X004438Y009779D02*
X004264Y009779D01*
X004141Y009656D01*
X004141Y009482D01*
X004264Y009359D01*
X004438Y009359D01*
X004561Y009482D01*
X004561Y009656D01*
X004438Y009779D01*
X004561Y009640D02*
X009900Y009640D01*
X009900Y009522D02*
X008715Y009522D01*
X008728Y009509D02*
X008660Y009576D01*
X008572Y009613D01*
X008477Y009613D01*
X008388Y009576D01*
X008321Y009509D01*
X008284Y009420D01*
X008284Y009325D01*
X008321Y009237D01*
X008388Y009169D01*
X008477Y009133D01*
X008572Y009133D01*
X008660Y009169D01*
X008728Y009237D01*
X008764Y009325D01*
X008764Y009420D01*
X008728Y009509D01*
X008764Y009403D02*
X009900Y009403D01*
X009900Y009285D02*
X008748Y009285D01*
X008653Y009166D02*
X009900Y009166D01*
X009962Y009048D02*
X002507Y009048D01*
X002528Y008997D02*
X002431Y009232D01*
X002251Y009411D01*
X002017Y009508D01*
X001764Y009508D01*
X001530Y009411D01*
X001350Y009232D01*
X001253Y008997D01*
X001253Y008744D01*
X001350Y008510D01*
X001530Y008330D01*
X001764Y008233D01*
X002017Y008233D01*
X002251Y008330D01*
X002431Y008510D01*
X002528Y008744D01*
X002528Y008997D01*
X002528Y008929D02*
X010080Y008929D01*
X010435Y008811D02*
X002528Y008811D01*
X002506Y008692D02*
X006523Y008692D01*
X006464Y008633D02*
X006587Y008756D01*
X006761Y008756D01*
X006884Y008633D01*
X006884Y008459D01*
X006761Y008336D01*
X006587Y008336D01*
X006464Y008459D01*
X006464Y008633D01*
X006464Y008574D02*
X002457Y008574D01*
X002376Y008455D02*
X006468Y008455D01*
X006586Y008337D02*
X002258Y008337D01*
X002017Y007835D02*
X001764Y007835D01*
X001530Y007738D01*
X001350Y007558D01*
X001253Y007324D01*
X001253Y007071D01*
X001350Y006836D01*
X001530Y006657D01*
X001764Y006560D01*
X002017Y006560D01*
X002251Y006657D01*
X002431Y006836D01*
X002528Y007071D01*
X002528Y007324D01*
X002431Y007558D01*
X002251Y007738D01*
X002017Y007835D01*
X002236Y007744D02*
X011648Y007744D01*
X011574Y007626D02*
X002364Y007626D01*
X002452Y007507D02*
X011525Y007507D01*
X011515Y007389D02*
X002501Y007389D01*
X002528Y007270D02*
X011515Y007270D01*
X011554Y007152D02*
X002528Y007152D01*
X002512Y007033D02*
X004156Y007033D01*
X004141Y007019D02*
X004141Y006845D01*
X004264Y006722D01*
X004438Y006722D01*
X004561Y006845D01*
X004561Y007019D01*
X004438Y007142D01*
X004264Y007142D01*
X004141Y007019D01*
X004141Y006915D02*
X002463Y006915D01*
X002390Y006796D02*
X004190Y006796D01*
X004513Y006796D02*
X011932Y006796D01*
X011719Y006915D02*
X004561Y006915D01*
X004547Y007033D02*
X011603Y007033D01*
X012282Y006796D02*
X012339Y006796D01*
X012372Y006829D02*
X012288Y006746D01*
X012243Y006636D01*
X012243Y006518D01*
X012288Y006409D01*
X012372Y006325D01*
X012481Y006280D01*
X012599Y006280D01*
X012708Y006325D01*
X012792Y006409D01*
X012837Y006518D01*
X012837Y006636D01*
X012792Y006746D01*
X012708Y006829D01*
X012599Y006874D01*
X012481Y006874D01*
X012372Y006829D01*
X012495Y006915D02*
X013168Y006915D01*
X013168Y007033D02*
X012611Y007033D01*
X012660Y007152D02*
X013168Y007152D01*
X013168Y007270D02*
X012700Y007270D01*
X012700Y007389D02*
X013168Y007389D01*
X013168Y007507D02*
X012689Y007507D01*
X012640Y007626D02*
X013168Y007626D01*
X013168Y007744D02*
X012566Y007744D01*
X012447Y007863D02*
X013115Y007863D01*
X013168Y006796D02*
X012742Y006796D01*
X012820Y006678D02*
X013168Y006678D01*
X013168Y006559D02*
X012837Y006559D01*
X012805Y006441D02*
X013168Y006441D01*
X013168Y006322D02*
X012700Y006322D01*
X012571Y006085D02*
X013168Y006085D01*
X013168Y005967D02*
X012643Y005967D01*
X012609Y006047D02*
X012443Y006213D01*
X012225Y006304D01*
X011989Y006304D01*
X011771Y006213D01*
X011605Y006047D01*
X011515Y005829D01*
X011515Y005593D01*
X011605Y005376D01*
X011771Y005209D01*
X011989Y005119D01*
X012225Y005119D01*
X012443Y005209D01*
X012609Y005376D01*
X012700Y005593D01*
X012700Y005829D01*
X012609Y006047D01*
X012692Y005848D02*
X013168Y005848D01*
X013168Y005730D02*
X012700Y005730D01*
X012700Y005611D02*
X013168Y005611D01*
X013168Y005493D02*
X012658Y005493D01*
X012608Y005374D02*
X013168Y005374D01*
X013168Y005256D02*
X012489Y005256D01*
X012269Y005137D02*
X013168Y005137D01*
X013168Y005019D02*
X012196Y005019D01*
X012157Y005058D02*
X012241Y004974D01*
X012286Y004865D01*
X012286Y004747D01*
X012241Y004637D01*
X012157Y004554D01*
X012048Y004509D01*
X011930Y004509D01*
X011821Y004554D01*
X011737Y004637D01*
X011692Y004747D01*
X011692Y004865D01*
X011737Y004974D01*
X011821Y005058D01*
X011930Y005103D01*
X012048Y005103D01*
X012157Y005058D01*
X012272Y004900D02*
X013168Y004900D01*
X013168Y004782D02*
X012286Y004782D01*
X012252Y004663D02*
X013168Y004663D01*
X013205Y004545D02*
X012135Y004545D01*
X011843Y004545D02*
X002331Y004545D01*
X002330Y004539D02*
X002344Y004628D01*
X001773Y004628D01*
X001773Y004748D01*
X001653Y004748D01*
X001653Y005318D01*
X001565Y005304D01*
X001471Y005274D01*
X001382Y005229D01*
X001301Y005170D01*
X001231Y005100D01*
X001172Y005019D01*
X001127Y004930D01*
X001096Y004836D01*
X001083Y004748D01*
X001653Y004748D01*
X001653Y004628D01*
X001083Y004628D01*
X001096Y004539D01*
X001127Y004445D01*
X001172Y004356D01*
X001231Y004276D01*
X001301Y004205D01*
X001382Y004147D01*
X001471Y004101D01*
X001565Y004071D01*
X001653Y004057D01*
X001653Y004628D01*
X001773Y004628D01*
X001773Y004057D01*
X001861Y004071D01*
X015530Y004071D01*
X015530Y003952D02*
X001071Y003952D01*
X001071Y003834D02*
X015530Y003834D01*
X015530Y003715D02*
X001071Y003715D01*
X001071Y003597D02*
X009308Y003597D01*
X009441Y003651D02*
X009171Y003540D01*
X008964Y003333D01*
X008852Y003062D01*
X008852Y002770D01*
X008964Y002499D01*
X009171Y002292D01*
X009441Y002180D01*
X009734Y002180D01*
X010004Y002292D01*
X010211Y002499D01*
X010323Y002770D01*
X010323Y003062D01*
X010211Y003333D01*
X010004Y003540D01*
X009734Y003651D01*
X009441Y003651D01*
X009109Y003478D02*
X001071Y003478D01*
X001071Y003360D02*
X008991Y003360D01*
X008926Y003241D02*
X001071Y003241D01*
X001071Y003123D02*
X002082Y003123D01*
X002151Y003162D02*
X001898Y003016D01*
X001692Y002810D01*
X001546Y002557D01*
X001470Y002275D01*
X001470Y001982D01*
X001546Y001700D01*
X001692Y001447D01*
X001898Y001241D01*
X002151Y001095D01*
X002433Y001019D01*
X002726Y001019D01*
X003008Y001095D01*
X003261Y001241D01*
X003467Y001447D01*
X003614Y001700D01*
X003689Y001982D01*
X003689Y002275D01*
X003614Y002557D01*
X003467Y002810D01*
X003261Y003016D01*
X003008Y003162D01*
X002726Y003238D01*
X002433Y003238D01*
X002151Y003162D01*
X001886Y003004D02*
X001071Y003004D01*
X001071Y002886D02*
X001767Y002886D01*
X001667Y002767D02*
X001071Y002767D01*
X001071Y002649D02*
X001598Y002649D01*
X001538Y002530D02*
X001071Y002530D01*
X001071Y002412D02*
X001507Y002412D01*
X001475Y002293D02*
X001071Y002293D01*
X001071Y002175D02*
X001470Y002175D01*
X001470Y002056D02*
X001071Y002056D01*
X001071Y001938D02*
X001482Y001938D01*
X001514Y001819D02*
X001071Y001819D01*
X001071Y001701D02*
X001545Y001701D01*
X001614Y001582D02*
X001071Y001582D01*
X001071Y001464D02*
X001682Y001464D01*
X001794Y001345D02*
X001071Y001345D01*
X001071Y001227D02*
X001923Y001227D01*
X002128Y001108D02*
X001071Y001108D01*
X001071Y000990D02*
X015530Y000990D01*
X015530Y001108D02*
X003031Y001108D01*
X003236Y001227D02*
X015530Y001227D01*
X015530Y001345D02*
X015085Y001345D01*
X015068Y001328D02*
X015191Y001451D01*
X015191Y001625D01*
X015068Y001748D01*
X014894Y001748D01*
X014784Y001638D01*
X014674Y001748D01*
X014500Y001748D01*
X014391Y001638D01*
X014281Y001748D01*
X014107Y001748D01*
X013984Y001625D01*
X013984Y001451D01*
X014107Y001328D01*
X014281Y001328D01*
X014391Y001438D01*
X014500Y001328D01*
X014674Y001328D01*
X014784Y001438D01*
X014894Y001328D01*
X015068Y001328D01*
X015191Y001464D02*
X015510Y001464D01*
X015501Y001582D02*
X015191Y001582D01*
X015116Y001701D02*
X015530Y001701D01*
X015530Y001819D02*
X003645Y001819D01*
X003614Y001701D02*
X013272Y001701D01*
X013319Y001748D02*
X013196Y001625D01*
X013196Y001451D01*
X013319Y001328D01*
X013493Y001328D01*
X013616Y001451D01*
X013616Y001625D01*
X013493Y001748D01*
X013319Y001748D01*
X013196Y001582D02*
X003545Y001582D01*
X003477Y001464D02*
X013196Y001464D01*
X013302Y001345D02*
X003365Y001345D01*
X003677Y001938D02*
X015530Y001938D01*
X015530Y002056D02*
X003689Y002056D01*
X003689Y002175D02*
X015530Y002175D01*
X015530Y002293D02*
X010005Y002293D01*
X010123Y002412D02*
X015530Y002412D01*
X015530Y002530D02*
X010224Y002530D01*
X010273Y002649D02*
X015530Y002649D01*
X015530Y002767D02*
X010322Y002767D01*
X010323Y002886D02*
X015501Y002886D01*
X015515Y003004D02*
X010323Y003004D01*
X010298Y003123D02*
X015530Y003123D01*
X015530Y003241D02*
X010249Y003241D01*
X010184Y003360D02*
X015530Y003360D01*
X015530Y003478D02*
X010066Y003478D01*
X009866Y003597D02*
X015530Y003597D01*
X015183Y004189D02*
X015173Y004189D01*
X014789Y004189D02*
X014780Y004189D01*
X014395Y004189D02*
X014386Y004189D01*
X014002Y004189D02*
X013992Y004189D01*
X013608Y004189D02*
X013598Y004189D01*
X013214Y004189D02*
X002103Y004189D01*
X002125Y004205D02*
X002196Y004276D01*
X002254Y004356D01*
X002300Y004445D01*
X002330Y004539D01*
X002290Y004426D02*
X013241Y004426D01*
X013196Y004308D02*
X002219Y004308D01*
X002125Y004205D02*
X002045Y004147D01*
X001956Y004101D01*
X001861Y004071D01*
X001773Y004071D02*
X001653Y004071D01*
X001566Y004071D02*
X001071Y004071D01*
X001071Y004189D02*
X001324Y004189D01*
X001208Y004308D02*
X001071Y004308D01*
X001071Y004426D02*
X001137Y004426D01*
X001096Y004545D02*
X001071Y004545D01*
X001071Y004663D02*
X001653Y004663D01*
X001653Y004545D02*
X001773Y004545D01*
X001773Y004663D02*
X011726Y004663D01*
X011692Y004782D02*
X002339Y004782D01*
X002344Y004748D02*
X002330Y004836D01*
X002300Y004930D01*
X002254Y005019D01*
X002196Y005100D01*
X002125Y005170D01*
X002045Y005229D01*
X001956Y005274D01*
X001861Y005304D01*
X001773Y005318D01*
X001773Y004748D01*
X002344Y004748D01*
X002309Y004900D02*
X011706Y004900D01*
X011782Y005019D02*
X002255Y005019D01*
X002158Y005137D02*
X009662Y005137D01*
X009706Y005119D02*
X009941Y005119D01*
X010159Y005209D01*
X010326Y005376D01*
X010416Y005593D01*
X010416Y005829D01*
X010326Y006047D01*
X010159Y006213D01*
X010159Y006214D01*
X010303Y006214D01*
X010423Y006334D01*
X010423Y006505D01*
X010303Y006626D01*
X010132Y006626D01*
X010011Y006505D01*
X010011Y006334D01*
X010113Y006233D01*
X009941Y006304D01*
X009706Y006304D01*
X009544Y006236D01*
X009640Y006333D01*
X009640Y006507D01*
X009517Y006630D01*
X009343Y006630D01*
X009220Y006507D01*
X009220Y006333D01*
X009343Y006210D01*
X009484Y006210D01*
X009321Y006047D01*
X009231Y005829D01*
X009231Y005593D01*
X009321Y005376D01*
X009488Y005209D01*
X009706Y005119D01*
X009986Y005137D02*
X011945Y005137D01*
X011725Y005256D02*
X010206Y005256D01*
X010324Y005374D02*
X011606Y005374D01*
X011556Y005493D02*
X010374Y005493D01*
X010416Y005611D02*
X011515Y005611D01*
X011515Y005730D02*
X010416Y005730D01*
X010408Y005848D02*
X011522Y005848D01*
X011572Y005967D02*
X010359Y005967D01*
X010288Y006085D02*
X011643Y006085D01*
X011761Y006204D02*
X010169Y006204D01*
X010024Y006322D02*
X009629Y006322D01*
X009640Y006441D02*
X010011Y006441D01*
X010065Y006559D02*
X009588Y006559D01*
X009272Y006559D02*
X001071Y006559D01*
X001071Y006441D02*
X005532Y006441D01*
X005519Y006428D02*
X005519Y006254D01*
X005642Y006131D01*
X005816Y006131D01*
X005939Y006254D01*
X005939Y006428D01*
X005816Y006551D01*
X005642Y006551D01*
X005519Y006428D01*
X005519Y006322D02*
X005297Y006322D01*
X005309Y006310D02*
X005186Y006433D01*
X005012Y006433D01*
X004889Y006310D01*
X004889Y006136D01*
X005012Y006013D01*
X005186Y006013D01*
X005309Y006136D01*
X005309Y006310D01*
X005309Y006204D02*
X005570Y006204D01*
X005889Y006204D02*
X007977Y006204D01*
X007964Y006216D02*
X008085Y006096D01*
X008255Y006096D01*
X008376Y006216D01*
X008376Y006387D01*
X008255Y006508D01*
X008085Y006508D01*
X007964Y006387D01*
X007964Y006216D01*
X007964Y006322D02*
X005939Y006322D01*
X005927Y006441D02*
X008017Y006441D01*
X008323Y006441D02*
X009220Y006441D01*
X009231Y006322D02*
X008376Y006322D01*
X008363Y006204D02*
X009478Y006204D01*
X009360Y006085D02*
X005258Y006085D01*
X004940Y006085D02*
X001071Y006085D01*
X001071Y005967D02*
X009288Y005967D01*
X009239Y005848D02*
X001071Y005848D01*
X001071Y005730D02*
X009231Y005730D01*
X009231Y005611D02*
X001071Y005611D01*
X001071Y005493D02*
X009273Y005493D01*
X009323Y005374D02*
X001071Y005374D01*
X001071Y005256D02*
X001435Y005256D01*
X001268Y005137D02*
X001071Y005137D01*
X001071Y005019D02*
X001172Y005019D01*
X001117Y004900D02*
X001071Y004900D01*
X001071Y004782D02*
X001088Y004782D01*
X001653Y004782D02*
X001773Y004782D01*
X001773Y004900D02*
X001653Y004900D01*
X001653Y005019D02*
X001773Y005019D01*
X001773Y005137D02*
X001653Y005137D01*
X001653Y005256D02*
X001773Y005256D01*
X001992Y005256D02*
X009441Y005256D01*
X010411Y006322D02*
X012380Y006322D01*
X012453Y006204D02*
X013168Y006204D01*
X012275Y006441D02*
X010423Y006441D01*
X010370Y006559D02*
X012243Y006559D01*
X012260Y006678D02*
X002272Y006678D01*
X001509Y006678D02*
X001071Y006678D01*
X001071Y006796D02*
X001391Y006796D01*
X001318Y006915D02*
X001071Y006915D01*
X001071Y007033D02*
X001269Y007033D01*
X001253Y007152D02*
X001071Y007152D01*
X001071Y007270D02*
X001253Y007270D01*
X001280Y007389D02*
X001071Y007389D01*
X001071Y007507D02*
X001329Y007507D01*
X001418Y007626D02*
X001071Y007626D01*
X001071Y007744D02*
X001545Y007744D01*
X001071Y007863D02*
X005682Y007863D01*
X005677Y007868D02*
X005800Y007745D01*
X005974Y007745D01*
X006097Y007868D01*
X006097Y008042D01*
X005974Y008165D01*
X005800Y008165D01*
X005677Y008042D01*
X005677Y007868D01*
X005677Y007981D02*
X001071Y007981D01*
X001071Y008100D02*
X005734Y008100D01*
X006039Y008100D02*
X011146Y008100D01*
X011028Y008218D02*
X001071Y008218D01*
X001071Y008337D02*
X001524Y008337D01*
X001405Y008455D02*
X001071Y008455D01*
X001071Y008574D02*
X001324Y008574D01*
X001275Y008692D02*
X001071Y008692D01*
X001071Y008811D02*
X001253Y008811D01*
X001253Y008929D02*
X001071Y008929D01*
X001071Y009048D02*
X001274Y009048D01*
X001323Y009166D02*
X001071Y009166D01*
X001071Y009285D02*
X001403Y009285D01*
X001522Y009403D02*
X001071Y009403D01*
X001071Y009522D02*
X004141Y009522D01*
X004141Y009640D02*
X001071Y009640D01*
X001071Y009759D02*
X004243Y009759D01*
X004221Y009403D02*
X002259Y009403D01*
X002378Y009285D02*
X008301Y009285D01*
X008284Y009403D02*
X004482Y009403D01*
X004561Y009522D02*
X008334Y009522D01*
X008396Y009166D02*
X002458Y009166D01*
X001071Y009877D02*
X008786Y009877D01*
X008708Y009996D02*
X001071Y009996D01*
X001071Y010114D02*
X008708Y010114D01*
X008812Y010233D02*
X001071Y010233D01*
X003451Y011181D02*
X004369Y011181D01*
X004361Y011189D02*
X004436Y011114D01*
X004534Y011073D01*
X004641Y011073D01*
X004739Y011114D01*
X004814Y011189D01*
X004855Y011288D01*
X004855Y011394D01*
X004814Y011493D01*
X004739Y011568D01*
X004641Y011609D01*
X004534Y011609D01*
X004436Y011568D01*
X004361Y011493D01*
X004320Y011394D01*
X004320Y011288D01*
X004361Y011189D01*
X004320Y011299D02*
X003541Y011299D01*
X003590Y011418D02*
X004329Y011418D01*
X004404Y011536D02*
X003618Y011536D01*
X003618Y011655D02*
X008150Y011655D01*
X008118Y011687D02*
X008227Y011577D01*
X008118Y011467D01*
X008118Y011293D01*
X008241Y011170D01*
X008415Y011170D01*
X008538Y011293D01*
X008538Y011367D01*
X008611Y011367D01*
X008734Y011490D01*
X008734Y011664D01*
X008611Y011787D01*
X008538Y011787D01*
X008538Y011861D01*
X008415Y011984D01*
X008241Y011984D01*
X008118Y011861D01*
X008118Y011687D01*
X008118Y011773D02*
X003606Y011773D01*
X003557Y011892D02*
X008148Y011892D01*
X008186Y011536D02*
X004771Y011536D01*
X004845Y011418D02*
X008118Y011418D01*
X008118Y011299D02*
X004855Y011299D01*
X004805Y011181D02*
X008231Y011181D01*
X008425Y011181D02*
X009057Y011181D01*
X009067Y011170D02*
X009241Y011170D01*
X009364Y011293D01*
X009364Y011467D01*
X009241Y011590D01*
X009067Y011590D01*
X008944Y011467D01*
X008944Y011293D01*
X009067Y011170D01*
X008944Y011299D02*
X008538Y011299D01*
X008662Y011418D02*
X008944Y011418D01*
X009013Y011536D02*
X008734Y011536D01*
X008734Y011655D02*
X009299Y011655D01*
X009299Y011648D02*
X009422Y011525D01*
X009596Y011525D01*
X009719Y011648D01*
X009719Y011822D01*
X009596Y011945D01*
X009422Y011945D01*
X009299Y011822D01*
X009299Y011648D01*
X009296Y011536D02*
X009410Y011536D01*
X009364Y011418D02*
X016291Y011418D01*
X016265Y011391D02*
X016219Y011282D01*
X016219Y011164D01*
X016265Y011055D01*
X016348Y010971D01*
X016457Y010926D01*
X016576Y010926D01*
X016685Y010971D01*
X016768Y011055D01*
X016814Y011164D01*
X016814Y011282D01*
X016768Y011391D01*
X016685Y011475D01*
X016576Y011520D01*
X016457Y011520D01*
X016348Y011475D01*
X016265Y011391D01*
X016226Y011299D02*
X011383Y011299D01*
X011412Y011181D02*
X016219Y011181D01*
X016262Y011062D02*
X011377Y011062D01*
X011136Y010944D02*
X011727Y010944D01*
X012014Y010944D02*
X016415Y010944D01*
X016618Y010944D02*
X020987Y010944D01*
X020996Y010934D02*
X021170Y010934D01*
X021293Y011057D01*
X021293Y011231D01*
X021170Y011354D01*
X020996Y011354D01*
X020873Y011231D01*
X020873Y011057D01*
X020996Y010934D01*
X020873Y011062D02*
X016772Y011062D01*
X016814Y011181D02*
X020873Y011181D01*
X020941Y011299D02*
X016807Y011299D01*
X016742Y011418D02*
X017487Y011418D01*
X017534Y011371D02*
X017704Y011371D01*
X017825Y011492D01*
X017825Y011663D01*
X017704Y011783D01*
X017534Y011783D01*
X017413Y011663D01*
X017413Y011492D01*
X017534Y011371D01*
X017413Y011536D02*
X009607Y011536D01*
X009719Y011655D02*
X017413Y011655D01*
X017523Y011773D02*
X011970Y011773D01*
X011958Y011761D02*
X012081Y011884D01*
X012081Y011997D01*
X012155Y011997D01*
X012278Y012120D01*
X012278Y012294D01*
X012155Y012417D01*
X011981Y012417D01*
X011858Y012294D01*
X011858Y012181D01*
X011784Y012181D01*
X011661Y012058D01*
X011661Y011884D01*
X011784Y011761D01*
X011958Y011761D01*
X012081Y011892D02*
X034403Y011892D01*
X034403Y012010D02*
X012167Y012010D01*
X012278Y012129D02*
X034403Y012129D01*
X034403Y012247D02*
X017326Y012247D01*
X017356Y012278D02*
X017233Y012155D01*
X017059Y012155D01*
X016936Y012278D01*
X016936Y012452D01*
X017059Y012575D01*
X017233Y012575D01*
X017356Y012452D01*
X017356Y012278D01*
X017356Y012366D02*
X027552Y012366D01*
X027524Y012393D02*
X027608Y012310D01*
X027717Y012264D01*
X027835Y012264D01*
X027945Y012310D01*
X028028Y012393D01*
X028074Y012502D01*
X028074Y012621D01*
X028028Y012730D01*
X027945Y012813D01*
X027835Y012859D01*
X027717Y012859D01*
X027608Y012813D01*
X027524Y012730D01*
X027479Y012621D01*
X027479Y012502D01*
X027524Y012393D01*
X027487Y012484D02*
X024098Y012484D01*
X024084Y012470D02*
X024207Y012593D01*
X024207Y012767D01*
X024084Y012890D01*
X023910Y012890D01*
X023787Y012767D01*
X023787Y012593D01*
X023910Y012470D01*
X024084Y012470D01*
X024207Y012603D02*
X027479Y012603D01*
X027521Y012721D02*
X026067Y012721D01*
X026052Y012706D02*
X026175Y012829D01*
X026175Y013003D01*
X026052Y013126D01*
X025878Y013126D01*
X025755Y013003D01*
X025755Y012829D01*
X025878Y012706D01*
X026052Y012706D01*
X026175Y012840D02*
X027671Y012840D01*
X027659Y012953D02*
X027894Y012953D01*
X028112Y013044D01*
X028279Y013210D01*
X028369Y013428D01*
X028369Y013664D01*
X028279Y013881D01*
X028112Y014048D01*
X027894Y014138D01*
X027659Y014138D01*
X027441Y014048D01*
X027274Y013881D01*
X027184Y013664D01*
X027184Y013428D01*
X027274Y013210D01*
X027441Y013044D01*
X027659Y012953D01*
X027647Y012958D02*
X026175Y012958D01*
X026102Y013077D02*
X027408Y013077D01*
X027289Y013195D02*
X022755Y013195D01*
X022745Y013205D02*
X022671Y013205D01*
X022671Y013278D01*
X022548Y013401D01*
X022374Y013401D01*
X022251Y013278D01*
X022251Y013105D01*
X022374Y012981D01*
X022448Y012981D01*
X022448Y012908D01*
X022571Y012785D01*
X022745Y012785D01*
X022868Y012908D01*
X022868Y013082D01*
X022745Y013205D01*
X022636Y013314D02*
X027231Y013314D01*
X027184Y013432D02*
X021784Y013432D01*
X021726Y013490D02*
X021855Y013361D01*
X021855Y013179D01*
X021726Y013050D01*
X021544Y013050D01*
X021415Y013179D01*
X021415Y013361D01*
X021544Y013490D01*
X021726Y013490D01*
X021855Y013314D02*
X022286Y013314D01*
X022251Y013195D02*
X021855Y013195D01*
X021752Y013077D02*
X022279Y013077D01*
X022448Y012958D02*
X021341Y012958D01*
X021335Y012944D02*
X021381Y013054D01*
X021381Y013172D01*
X021335Y013281D01*
X021252Y013365D01*
X021143Y013410D01*
X021024Y013410D01*
X020915Y013365D01*
X020832Y013281D01*
X020786Y013172D01*
X020786Y013054D01*
X020832Y012944D01*
X020915Y012861D01*
X021024Y012816D01*
X021143Y012816D01*
X021252Y012861D01*
X021335Y012944D01*
X021381Y013077D02*
X021517Y013077D01*
X021415Y013195D02*
X021371Y013195D01*
X021415Y013314D02*
X021303Y013314D01*
X021485Y013432D02*
X019916Y013432D01*
X019916Y013515D02*
X019916Y013341D01*
X019792Y013218D01*
X019619Y013218D01*
X019496Y013341D01*
X019496Y013515D01*
X019619Y013638D01*
X019792Y013638D01*
X019916Y013515D01*
X019880Y013551D02*
X027184Y013551D01*
X027186Y013669D02*
X009968Y013669D01*
X009950Y013651D02*
X010073Y013774D01*
X010073Y013948D01*
X009950Y014071D01*
X009776Y014071D01*
X009653Y013948D01*
X009653Y013774D01*
X009776Y013651D01*
X009950Y013651D01*
X010073Y013788D02*
X027235Y013788D01*
X027299Y013906D02*
X010073Y013906D01*
X009996Y014025D02*
X027417Y014025D01*
X028136Y014025D02*
X034403Y014025D01*
X034403Y014143D02*
X021038Y014143D01*
X021123Y014262D02*
X034403Y014262D01*
X034403Y014380D02*
X023593Y014380D01*
X023533Y014320D02*
X023656Y014443D01*
X023656Y014617D01*
X034403Y014617D01*
X034403Y014499D02*
X023656Y014499D01*
X023656Y014617D02*
X023533Y014740D01*
X023359Y014740D01*
X023236Y014617D01*
X021023Y014617D01*
X021117Y014499D02*
X023236Y014499D01*
X023236Y014443D02*
X023359Y014320D01*
X023533Y014320D01*
X023299Y014380D02*
X021144Y014380D01*
X020657Y014143D02*
X008463Y014143D01*
X008400Y014206D02*
X008400Y014206D01*
X008587Y014262D02*
X010307Y014262D01*
X010283Y014286D02*
X010406Y014163D01*
X010580Y014163D01*
X010703Y014286D01*
X010703Y014460D01*
X010580Y014583D01*
X010406Y014583D01*
X010283Y014460D01*
X010283Y014286D01*
X010283Y014380D02*
X008652Y014380D01*
X008651Y014499D02*
X010322Y014499D01*
X010664Y014499D02*
X011842Y014499D01*
X011818Y014617D02*
X008532Y014617D01*
X008516Y014025D02*
X009730Y014025D01*
X009653Y013906D02*
X008508Y013906D01*
X008436Y013788D02*
X009653Y013788D01*
X009758Y013669D02*
X003320Y013669D01*
X003450Y013551D02*
X014291Y013551D01*
X014331Y013567D02*
X014222Y013522D01*
X014139Y013439D01*
X014093Y013329D01*
X014093Y013211D01*
X014139Y013102D01*
X014222Y013018D01*
X014331Y012973D01*
X014450Y012973D01*
X014559Y013018D01*
X014642Y013102D01*
X014688Y013211D01*
X014688Y013329D01*
X014642Y013439D01*
X014559Y013522D01*
X014450Y013567D01*
X014331Y013567D01*
X014490Y013551D02*
X015279Y013551D01*
X015244Y013515D02*
X015244Y013341D01*
X015367Y013218D01*
X015541Y013218D01*
X015664Y013341D01*
X015664Y013515D01*
X015541Y013638D01*
X015367Y013638D01*
X015244Y013515D01*
X015244Y013432D02*
X014645Y013432D01*
X014688Y013314D02*
X015271Y013314D01*
X015636Y013314D02*
X017830Y013314D01*
X017803Y013341D02*
X017926Y013218D01*
X018100Y013218D01*
X018223Y013341D01*
X018223Y013515D01*
X018100Y013638D01*
X017926Y013638D01*
X017803Y013515D01*
X017803Y013341D01*
X017803Y013432D02*
X015664Y013432D01*
X015628Y013551D02*
X017838Y013551D01*
X018187Y013551D02*
X018901Y013551D01*
X018866Y013515D02*
X018866Y013341D01*
X018989Y013218D01*
X019163Y013218D01*
X019286Y013341D01*
X019286Y013515D01*
X019163Y013638D01*
X018989Y013638D01*
X018866Y013515D01*
X018866Y013432D02*
X018223Y013432D01*
X018195Y013314D02*
X018893Y013314D01*
X019258Y013314D02*
X019523Y013314D01*
X019496Y013432D02*
X019286Y013432D01*
X019250Y013551D02*
X019531Y013551D01*
X019888Y013314D02*
X020864Y013314D01*
X020796Y013195D02*
X016343Y013195D01*
X016331Y013207D02*
X016221Y013252D01*
X016103Y013252D01*
X015994Y013207D01*
X015910Y013124D01*
X015865Y013014D01*
X015865Y012896D01*
X015910Y012787D01*
X015994Y012703D01*
X016103Y012658D01*
X016221Y012658D01*
X016331Y012703D01*
X016414Y012787D01*
X016459Y012896D01*
X016459Y013014D01*
X016414Y013124D01*
X016331Y013207D01*
X016434Y013077D02*
X020786Y013077D01*
X020826Y012958D02*
X016459Y012958D01*
X016436Y012840D02*
X020967Y012840D01*
X020974Y012811D02*
X020800Y012811D01*
X020677Y012688D01*
X020677Y012514D01*
X020800Y012391D01*
X020974Y012391D01*
X021097Y012514D01*
X021097Y012688D01*
X020974Y012811D01*
X021064Y012721D02*
X023787Y012721D01*
X023787Y012603D02*
X021097Y012603D01*
X021067Y012484D02*
X023896Y012484D01*
X024207Y012721D02*
X025863Y012721D01*
X025755Y012840D02*
X024134Y012840D01*
X023860Y012840D02*
X022800Y012840D01*
X022868Y012958D02*
X025755Y012958D01*
X025829Y013077D02*
X022868Y013077D01*
X022516Y012840D02*
X021200Y012840D01*
X020710Y012721D02*
X016348Y012721D01*
X015976Y012721D02*
X011303Y012721D01*
X011289Y012715D02*
X011377Y012752D01*
X011444Y012819D01*
X011481Y012908D01*
X011481Y013003D01*
X011444Y013091D01*
X011377Y013159D01*
X011289Y013195D01*
X014100Y013195D01*
X014093Y013314D02*
X003589Y013314D01*
X003618Y013195D02*
X011193Y013195D01*
X011105Y013159D01*
X011037Y013091D01*
X011001Y013003D01*
X011001Y012908D01*
X011037Y012819D01*
X011105Y012752D01*
X011193Y012715D01*
X011289Y012715D01*
X011179Y012721D02*
X009965Y012721D01*
X009950Y012706D02*
X010073Y012829D01*
X010073Y013003D01*
X009950Y013126D01*
X009776Y013126D01*
X009706Y013055D01*
X009635Y013126D01*
X009461Y013126D01*
X009338Y013003D01*
X009338Y012829D01*
X009461Y012706D01*
X009635Y012706D01*
X009706Y012776D01*
X009776Y012706D01*
X009950Y012706D01*
X009871Y012653D02*
X009697Y012653D01*
X009574Y012530D01*
X009574Y012356D01*
X009697Y012233D01*
X009871Y012233D01*
X009994Y012356D01*
X009994Y012530D01*
X009871Y012653D01*
X009922Y012603D02*
X020677Y012603D01*
X020707Y012484D02*
X017324Y012484D01*
X016969Y012484D02*
X009994Y012484D01*
X009994Y012366D02*
X011929Y012366D01*
X011858Y012247D02*
X009885Y012247D01*
X009684Y012247D02*
X006963Y012247D01*
X006963Y012255D02*
X006963Y012081D01*
X006840Y011958D01*
X006666Y011958D01*
X006543Y012081D01*
X006543Y012255D01*
X006666Y012378D01*
X006840Y012378D01*
X006963Y012255D01*
X006963Y012129D02*
X011731Y012129D01*
X011661Y012010D02*
X006892Y012010D01*
X006614Y012010D02*
X003490Y012010D01*
X003372Y012129D02*
X006543Y012129D01*
X006543Y012247D02*
X003132Y012247D01*
X002986Y012366D02*
X006653Y012366D01*
X006852Y012366D02*
X007439Y012366D01*
X007453Y012352D02*
X007627Y012352D01*
X007750Y012475D01*
X007750Y012649D01*
X007627Y012772D01*
X007453Y012772D01*
X007330Y012649D01*
X007330Y012475D01*
X007453Y012352D01*
X007330Y012484D02*
X003136Y012484D01*
X003373Y012603D02*
X007330Y012603D01*
X007403Y012721D02*
X003492Y012721D01*
X003557Y012840D02*
X008905Y012840D01*
X008905Y012829D02*
X009028Y012706D01*
X009202Y012706D01*
X009325Y012829D01*
X009325Y013003D01*
X009202Y013126D01*
X009028Y013126D01*
X008905Y013003D01*
X008905Y012829D01*
X008905Y012958D02*
X003606Y012958D01*
X003618Y013077D02*
X008979Y013077D01*
X009251Y013077D02*
X009412Y013077D01*
X009338Y012958D02*
X009325Y012958D01*
X009325Y012840D02*
X009338Y012840D01*
X009446Y012721D02*
X009217Y012721D01*
X009013Y012721D02*
X007678Y012721D01*
X007750Y012603D02*
X009646Y012603D01*
X009650Y012721D02*
X009761Y012721D01*
X009574Y012484D02*
X007750Y012484D01*
X007641Y012366D02*
X009574Y012366D01*
X009649Y011892D02*
X011661Y011892D01*
X011772Y011773D02*
X009719Y011773D01*
X009368Y011892D02*
X008507Y011892D01*
X008626Y011773D02*
X009299Y011773D01*
X009364Y011299D02*
X011020Y011299D01*
X010992Y011181D02*
X009251Y011181D01*
X009900Y010588D02*
X007084Y010588D01*
X007111Y010470D02*
X009900Y010470D01*
X010554Y008692D02*
X006825Y008692D01*
X006884Y008574D02*
X010672Y008574D01*
X010791Y008455D02*
X006880Y008455D01*
X006762Y008337D02*
X010909Y008337D01*
X011265Y007981D02*
X006097Y007981D01*
X006091Y007863D02*
X011767Y007863D01*
X017715Y011773D02*
X025926Y011773D01*
X025905Y011765D02*
X025739Y011598D01*
X025648Y011380D01*
X025648Y011145D01*
X025739Y010927D01*
X025905Y010760D01*
X026123Y010670D01*
X026359Y010670D01*
X026577Y010760D01*
X026743Y010927D01*
X026833Y011145D01*
X026833Y011380D01*
X026743Y011598D01*
X026577Y011765D01*
X026359Y011855D01*
X026123Y011855D01*
X025905Y011765D01*
X025795Y011655D02*
X017825Y011655D01*
X017825Y011536D02*
X024367Y011536D01*
X024422Y011590D02*
X024299Y011467D01*
X024299Y011293D01*
X024422Y011170D01*
X024596Y011170D01*
X024719Y011293D01*
X024719Y011467D01*
X024596Y011590D01*
X024422Y011590D01*
X024299Y011418D02*
X017751Y011418D01*
X016967Y012247D02*
X012278Y012247D01*
X012206Y012366D02*
X016936Y012366D01*
X015888Y012840D02*
X011453Y012840D01*
X011481Y012958D02*
X015865Y012958D01*
X015891Y013077D02*
X014617Y013077D01*
X014681Y013195D02*
X015982Y013195D01*
X015268Y014262D02*
X010679Y014262D01*
X010703Y014380D02*
X015244Y014380D01*
X014136Y013432D02*
X003540Y013432D01*
X003053Y016869D02*
X019898Y016869D01*
X019774Y016987D02*
X009172Y016987D01*
X009163Y016978D02*
X009286Y017101D01*
X009286Y017275D01*
X009163Y017398D01*
X008989Y017398D01*
X008866Y017275D01*
X008866Y017101D01*
X008989Y016978D01*
X009163Y016978D01*
X009286Y017106D02*
X019673Y017106D01*
X019624Y017224D02*
X009286Y017224D01*
X009218Y017343D02*
X019576Y017343D01*
X019576Y017461D02*
X003617Y017461D01*
X003649Y017580D02*
X019576Y017580D01*
X019606Y017698D02*
X003680Y017698D01*
X003552Y017343D02*
X008934Y017343D01*
X008866Y017224D02*
X006580Y017224D01*
X006589Y017215D02*
X006466Y017339D01*
X006292Y017339D01*
X006169Y017215D01*
X006169Y017042D01*
X006292Y016919D01*
X006466Y016919D01*
X006589Y017042D01*
X006589Y017215D01*
X006589Y017106D02*
X008866Y017106D01*
X008979Y016987D02*
X006534Y016987D01*
X006223Y016987D02*
X003258Y016987D01*
X003378Y017106D02*
X006169Y017106D01*
X006177Y017224D02*
X003484Y017224D01*
X009684Y013077D02*
X009727Y013077D01*
X009999Y013077D02*
X011031Y013077D01*
X011001Y012958D02*
X010073Y012958D01*
X010073Y012840D02*
X011029Y012840D01*
X011193Y013195D02*
X011289Y013195D01*
X011450Y013077D02*
X014164Y013077D01*
X014187Y015623D02*
X014066Y015744D01*
X014066Y015915D01*
X014187Y016035D01*
X014358Y016035D01*
X014479Y015915D01*
X014479Y015744D01*
X014358Y015623D01*
X014187Y015623D01*
X014127Y015684D02*
X013558Y015684D01*
X013616Y015802D02*
X014066Y015802D01*
X014072Y015921D02*
X013612Y015921D01*
X013494Y016039D02*
X014618Y016039D01*
X014619Y016039D02*
X014496Y015916D01*
X014496Y015742D01*
X014619Y015619D01*
X014792Y015619D01*
X014916Y015742D01*
X014916Y015916D01*
X014792Y016039D01*
X014619Y016039D01*
X014500Y015921D02*
X014473Y015921D01*
X014479Y015802D02*
X014496Y015802D01*
X014554Y015684D02*
X014418Y015684D01*
X014793Y016039D02*
X015878Y016039D01*
X015755Y015916D01*
X015755Y015742D01*
X015878Y015619D01*
X016052Y015619D01*
X016175Y015742D01*
X016175Y015916D01*
X016052Y016039D01*
X015878Y016039D01*
X015760Y015921D02*
X014911Y015921D01*
X014916Y015802D02*
X015755Y015802D01*
X015814Y015684D02*
X014857Y015684D01*
X016053Y016039D02*
X034737Y016039D01*
X034619Y015921D02*
X016171Y015921D01*
X016175Y015802D02*
X022413Y015802D01*
X022370Y015684D02*
X016117Y015684D01*
X017317Y016395D02*
X035093Y016395D01*
X035211Y016513D02*
X017272Y016513D01*
X019163Y018409D02*
X022689Y018409D01*
X022739Y018528D02*
X019194Y018528D01*
X020754Y019239D02*
X035584Y019239D01*
X035584Y019357D02*
X020880Y019357D01*
X020960Y019476D02*
X035584Y019476D01*
X035584Y019594D02*
X021015Y019594D01*
X023461Y018765D02*
X033394Y018765D01*
X033276Y018646D02*
X023652Y018646D01*
X023759Y018528D02*
X033170Y018528D01*
X033102Y018409D02*
X023808Y018409D01*
X023841Y018291D02*
X033038Y018291D01*
X033006Y018172D02*
X023841Y018172D01*
X026301Y017935D02*
X027490Y017935D01*
X027301Y017817D02*
X026458Y017817D01*
X026559Y017698D02*
X027182Y017698D01*
X027124Y017580D02*
X026622Y017580D01*
X026663Y017461D02*
X027074Y017461D01*
X027056Y017343D02*
X026684Y017343D01*
X028062Y017935D02*
X029341Y017935D01*
X029151Y017817D02*
X028252Y017817D01*
X028371Y017698D02*
X029032Y017698D01*
X028974Y017580D02*
X028429Y017580D01*
X028478Y017461D02*
X028925Y017461D01*
X028907Y017343D02*
X028496Y017343D01*
X028496Y017224D02*
X028907Y017224D01*
X028917Y017106D02*
X028486Y017106D01*
X028437Y016987D02*
X028966Y016987D01*
X029015Y016869D02*
X028388Y016869D01*
X028270Y016750D02*
X029133Y016750D01*
X029297Y016632D02*
X028106Y016632D01*
X029957Y016632D02*
X035330Y016632D01*
X035448Y016750D02*
X030121Y016750D01*
X028254Y013906D02*
X034403Y013906D01*
X034403Y013788D02*
X028318Y013788D01*
X028367Y013669D02*
X034403Y013669D01*
X034403Y013551D02*
X028369Y013551D01*
X028369Y013432D02*
X034403Y013432D01*
X034403Y013314D02*
X028321Y013314D01*
X028263Y013195D02*
X034403Y013195D01*
X034403Y013077D02*
X028145Y013077D01*
X027906Y012958D02*
X034403Y012958D01*
X034403Y012840D02*
X027882Y012840D01*
X028032Y012721D02*
X034403Y012721D01*
X034403Y012603D02*
X028074Y012603D01*
X028066Y012484D02*
X034403Y012484D01*
X034403Y012366D02*
X028001Y012366D01*
X026769Y011536D02*
X034403Y011536D01*
X034403Y011418D02*
X026818Y011418D01*
X026833Y011299D02*
X034403Y011299D01*
X034403Y011181D02*
X026833Y011181D01*
X026799Y011062D02*
X034403Y011062D01*
X034403Y010944D02*
X026750Y010944D01*
X026642Y010825D02*
X034403Y010825D01*
X034403Y010707D02*
X026447Y010707D01*
X026035Y010707D02*
X024464Y010707D01*
X024346Y010825D02*
X025840Y010825D01*
X025732Y010944D02*
X021180Y010944D01*
X021293Y011062D02*
X025683Y011062D01*
X025648Y011181D02*
X024606Y011181D01*
X024719Y011299D02*
X025648Y011299D01*
X025664Y011418D02*
X024719Y011418D01*
X024650Y011536D02*
X025713Y011536D01*
X026556Y011773D02*
X034403Y011773D01*
X034403Y011655D02*
X026687Y011655D01*
X028039Y010523D02*
X028162Y010646D01*
X028336Y010646D01*
X028459Y010523D01*
X028459Y010349D01*
X028336Y010226D01*
X028162Y010226D01*
X028039Y010349D01*
X028039Y010523D01*
X028039Y010470D02*
X024701Y010470D01*
X024583Y010588D02*
X028104Y010588D01*
X028039Y010351D02*
X024820Y010351D01*
X024938Y010233D02*
X028155Y010233D01*
X028343Y010233D02*
X034403Y010233D01*
X034403Y010351D02*
X028459Y010351D01*
X028459Y010470D02*
X034403Y010470D01*
X034403Y010588D02*
X028393Y010588D01*
X028792Y009031D02*
X028669Y008908D01*
X028669Y008734D01*
X028687Y008716D01*
X028595Y008716D01*
X028472Y008593D01*
X028472Y008419D01*
X028595Y008296D01*
X028769Y008296D01*
X028892Y008419D01*
X028892Y008593D01*
X028874Y008611D01*
X028966Y008611D01*
X029089Y008734D01*
X029089Y008908D01*
X028966Y009031D01*
X028792Y009031D01*
X028689Y008929D02*
X026242Y008929D01*
X026360Y008811D02*
X028669Y008811D01*
X028570Y008692D02*
X026479Y008692D01*
X026597Y008574D02*
X028472Y008574D01*
X028472Y008455D02*
X026716Y008455D01*
X026834Y008337D02*
X028555Y008337D01*
X028809Y008337D02*
X034403Y008337D01*
X034403Y008455D02*
X028892Y008455D01*
X028892Y008574D02*
X034403Y008574D01*
X034403Y008692D02*
X029046Y008692D01*
X029089Y008811D02*
X034403Y008811D01*
X034403Y008929D02*
X029068Y008929D01*
X027427Y007744D02*
X034403Y007744D01*
X034403Y007626D02*
X027545Y007626D01*
X027664Y007507D02*
X034403Y007507D01*
X034403Y007389D02*
X027782Y007389D01*
X027901Y007270D02*
X034403Y007270D01*
X034403Y007152D02*
X028019Y007152D01*
X028138Y007033D02*
X034403Y007033D01*
X034403Y006915D02*
X028256Y006915D01*
X028375Y006796D02*
X034403Y006796D01*
X034403Y006678D02*
X028493Y006678D01*
X028612Y006559D02*
X034403Y006559D01*
X034403Y006441D02*
X028730Y006441D01*
X028849Y006322D02*
X034403Y006322D01*
X034403Y006204D02*
X028967Y006204D01*
X029086Y006085D02*
X034403Y006085D01*
X034403Y005967D02*
X029204Y005967D01*
X029323Y005848D02*
X034403Y005848D01*
X034403Y005730D02*
X029441Y005730D01*
X027308Y007863D02*
X034403Y007863D01*
X034403Y007981D02*
X027190Y007981D01*
X027071Y008100D02*
X034403Y008100D01*
X034403Y008218D02*
X026953Y008218D01*
X026123Y009048D02*
X034403Y009048D01*
X034403Y009166D02*
X026005Y009166D01*
X025886Y009285D02*
X034403Y009285D01*
X034403Y009403D02*
X025768Y009403D01*
X025649Y009522D02*
X034403Y009522D01*
X034403Y009640D02*
X025531Y009640D01*
X025412Y009759D02*
X034403Y009759D01*
X034403Y009877D02*
X025294Y009877D01*
X025175Y009996D02*
X034403Y009996D01*
X034403Y010114D02*
X025057Y010114D01*
X024412Y011181D02*
X021293Y011181D01*
X021226Y011299D02*
X024299Y011299D01*
X023236Y014443D02*
X023236Y014617D01*
X023354Y014736D02*
X022767Y014736D01*
X022745Y014714D02*
X022868Y014837D01*
X022868Y015011D01*
X022745Y015134D01*
X022571Y015134D01*
X022448Y015011D01*
X022448Y014837D01*
X022571Y014714D01*
X022745Y014714D01*
X022868Y014854D02*
X023258Y014854D01*
X023236Y014876D02*
X023359Y014753D01*
X023533Y014753D01*
X023656Y014876D01*
X023656Y015050D01*
X023533Y015173D01*
X023359Y015173D01*
X023236Y015050D01*
X023236Y014876D01*
X023236Y014973D02*
X022868Y014973D01*
X022788Y015091D02*
X023277Y015091D01*
X023615Y015091D02*
X034403Y015091D01*
X034403Y014973D02*
X023656Y014973D01*
X023634Y014854D02*
X034403Y014854D01*
X034403Y014736D02*
X023537Y014736D01*
X022550Y014736D02*
X022176Y014736D01*
X022278Y014854D02*
X022448Y014854D01*
X022448Y014973D02*
X022278Y014973D01*
X022197Y015091D02*
X022529Y015091D01*
X022651Y015328D02*
X034403Y015328D01*
X034403Y015210D02*
X021579Y015210D01*
X021542Y015328D02*
X022272Y015328D01*
X022671Y015447D02*
X034403Y015447D01*
X034403Y015565D02*
X025053Y015565D01*
X025073Y015585D02*
X024950Y015462D01*
X024776Y015462D01*
X024653Y015585D01*
X024653Y015759D01*
X024776Y015882D01*
X024950Y015882D01*
X025073Y015759D01*
X025073Y015585D01*
X025073Y015684D02*
X034435Y015684D01*
X034500Y015802D02*
X025030Y015802D01*
X024696Y015802D02*
X022746Y015802D01*
X022790Y015684D02*
X024653Y015684D01*
X024673Y015565D02*
X022770Y015565D01*
X025574Y020542D02*
X029979Y020542D01*
X029860Y020661D02*
X025693Y020661D01*
X025749Y020779D02*
X029803Y020779D01*
X029754Y020898D02*
X025798Y020898D01*
X025800Y021016D02*
X029752Y021016D01*
X029752Y021135D02*
X025800Y021135D01*
X025758Y021253D02*
X029795Y021253D01*
X029844Y021372D02*
X025709Y021372D01*
X025594Y021490D02*
X029958Y021490D01*
X030154Y021609D02*
X025399Y021609D01*
X013021Y016039D02*
X012847Y016039D01*
X004901Y006322D02*
X001071Y006322D01*
X001071Y006204D02*
X004889Y006204D01*
X001773Y004426D02*
X001653Y004426D01*
X001653Y004308D02*
X001773Y004308D01*
X001773Y004189D02*
X001653Y004189D01*
X003077Y003123D02*
X008877Y003123D01*
X008852Y003004D02*
X003273Y003004D01*
X003392Y002886D02*
X008852Y002886D01*
X008853Y002767D02*
X003492Y002767D01*
X003561Y002649D02*
X008902Y002649D01*
X008951Y002530D02*
X003621Y002530D01*
X003652Y002412D02*
X009052Y002412D01*
X009170Y002293D02*
X003684Y002293D01*
X001071Y000871D02*
X015530Y000871D01*
X015530Y000753D02*
X001071Y000753D01*
X001071Y000634D02*
X015530Y000634D01*
X014877Y001345D02*
X014691Y001345D01*
X014483Y001345D02*
X014298Y001345D01*
X014090Y001345D02*
X013510Y001345D01*
X013616Y001464D02*
X013984Y001464D01*
X013984Y001582D02*
X013616Y001582D01*
X013541Y001701D02*
X014059Y001701D01*
X014328Y001701D02*
X014453Y001701D01*
X014722Y001701D02*
X014847Y001701D01*
D19*
X011831Y004294D03*
X010257Y001538D03*
X008524Y009373D03*
X006871Y010475D03*
X008800Y012207D03*
X011241Y012955D03*
D20*
X011681Y010711D02*
X010099Y010711D01*
X010060Y010672D01*
X010060Y009176D01*
X010178Y009058D01*
X010414Y009058D01*
X011398Y008073D01*
X013131Y008073D01*
X013328Y007877D01*
X013328Y004648D01*
X013524Y004451D01*
X013689Y004451D01*
X013721Y004484D01*
X013879Y004484D01*
X013911Y004451D01*
X014082Y004451D01*
X014115Y004484D01*
X014272Y004484D01*
X014305Y004451D01*
X014476Y004451D01*
X014509Y004484D01*
X014666Y004484D01*
X014699Y004451D01*
X014870Y004451D01*
X014902Y004484D01*
X015060Y004484D01*
X015092Y004451D01*
X015264Y004451D01*
X015296Y004484D01*
X015454Y004484D01*
X015486Y004451D01*
X015531Y004451D01*
X015531Y008395D01*
X014744Y009182D01*
X014744Y009248D01*
X014790Y009295D01*
X014857Y009295D01*
X015644Y008508D01*
X015691Y008461D01*
X015691Y004300D01*
X015690Y004299D01*
X015690Y000600D01*
X035604Y000600D01*
X035604Y003127D01*
X034614Y004118D01*
X034614Y004118D01*
X034490Y004241D01*
X034423Y004403D01*
X034423Y005475D01*
X029469Y005475D01*
X024233Y010711D01*
X012061Y010711D01*
X011950Y010600D01*
X011792Y010600D01*
X011681Y010711D01*
X011713Y010679D02*
X010067Y010679D01*
X010060Y010601D02*
X011792Y010601D01*
X011950Y010601D02*
X024344Y010601D01*
X024265Y010679D02*
X012029Y010679D01*
X010496Y009377D02*
X010379Y009494D01*
X010213Y009494D01*
X010096Y009377D01*
X010096Y009211D01*
X010213Y009094D01*
X010379Y009094D01*
X010496Y009211D01*
X010496Y009377D01*
X010496Y009345D02*
X025600Y009345D01*
X025521Y009423D02*
X010450Y009423D01*
X010496Y009266D02*
X014761Y009266D01*
X014744Y009188D02*
X010473Y009188D01*
X010394Y009109D02*
X014817Y009109D01*
X014895Y009031D02*
X010441Y009031D01*
X010520Y008952D02*
X014974Y008952D01*
X015052Y008874D02*
X010598Y008874D01*
X010677Y008795D02*
X015131Y008795D01*
X015209Y008717D02*
X010755Y008717D01*
X010834Y008638D02*
X015288Y008638D01*
X015366Y008560D02*
X010912Y008560D01*
X010991Y008481D02*
X015445Y008481D01*
X015523Y008403D02*
X011069Y008403D01*
X011148Y008324D02*
X015531Y008324D01*
X015531Y008246D02*
X011226Y008246D01*
X011305Y008167D02*
X015531Y008167D01*
X015531Y008089D02*
X011383Y008089D01*
X010198Y009109D02*
X010127Y009109D01*
X010120Y009188D02*
X010060Y009188D01*
X010060Y009266D02*
X010096Y009266D01*
X010096Y009345D02*
X010060Y009345D01*
X010060Y009423D02*
X010142Y009423D01*
X010060Y009502D02*
X025443Y009502D01*
X025364Y009580D02*
X010060Y009580D01*
X010060Y009659D02*
X025286Y009659D01*
X025207Y009737D02*
X010060Y009737D01*
X010060Y009816D02*
X025129Y009816D01*
X025050Y009894D02*
X010060Y009894D01*
X010060Y009973D02*
X024972Y009973D01*
X024893Y010051D02*
X010060Y010051D01*
X010060Y010130D02*
X024815Y010130D01*
X024736Y010208D02*
X010060Y010208D01*
X010060Y010287D02*
X024658Y010287D01*
X024579Y010365D02*
X010060Y010365D01*
X010060Y010444D02*
X024501Y010444D01*
X024422Y010522D02*
X010060Y010522D01*
X013194Y008010D02*
X015531Y008010D01*
X015531Y007932D02*
X013273Y007932D01*
X013328Y007853D02*
X015531Y007853D01*
X015531Y007775D02*
X013328Y007775D01*
X013328Y007696D02*
X015531Y007696D01*
X015531Y007618D02*
X013328Y007618D01*
X013328Y007539D02*
X015531Y007539D01*
X015531Y007461D02*
X013328Y007461D01*
X013328Y007382D02*
X015531Y007382D01*
X015531Y007304D02*
X013328Y007304D01*
X013328Y007225D02*
X015531Y007225D01*
X015531Y007147D02*
X013328Y007147D01*
X013328Y007068D02*
X015531Y007068D01*
X015531Y006990D02*
X013328Y006990D01*
X013328Y006911D02*
X015531Y006911D01*
X015531Y006833D02*
X013328Y006833D01*
X013328Y006754D02*
X015531Y006754D01*
X015531Y006676D02*
X013328Y006676D01*
X013328Y006597D02*
X015531Y006597D01*
X015531Y006519D02*
X013328Y006519D01*
X013328Y006440D02*
X015531Y006440D01*
X015531Y006362D02*
X013328Y006362D01*
X013328Y006283D02*
X015531Y006283D01*
X015531Y006205D02*
X013328Y006205D01*
X013328Y006126D02*
X015531Y006126D01*
X015531Y006048D02*
X013328Y006048D01*
X013328Y005969D02*
X015531Y005969D01*
X015531Y005891D02*
X013328Y005891D01*
X013328Y005812D02*
X015531Y005812D01*
X015531Y005734D02*
X013328Y005734D01*
X013328Y005655D02*
X015531Y005655D01*
X015531Y005577D02*
X013328Y005577D01*
X013328Y005498D02*
X015531Y005498D01*
X015531Y005420D02*
X013328Y005420D01*
X013328Y005341D02*
X015531Y005341D01*
X015531Y005263D02*
X013328Y005263D01*
X013328Y005184D02*
X015531Y005184D01*
X015531Y005106D02*
X013328Y005106D01*
X013328Y005027D02*
X015531Y005027D01*
X015531Y004949D02*
X013328Y004949D01*
X013328Y004870D02*
X015531Y004870D01*
X015531Y004792D02*
X013328Y004792D01*
X013328Y004713D02*
X015531Y004713D01*
X015531Y004635D02*
X013341Y004635D01*
X013420Y004556D02*
X015531Y004556D01*
X015531Y004478D02*
X015460Y004478D01*
X015290Y004478D02*
X015066Y004478D01*
X014896Y004478D02*
X014672Y004478D01*
X014502Y004478D02*
X014279Y004478D01*
X014109Y004478D02*
X013885Y004478D01*
X013715Y004478D02*
X013498Y004478D01*
X015691Y004478D02*
X033224Y004478D01*
X033232Y004452D02*
X033276Y004367D01*
X033333Y004289D01*
X033401Y004220D01*
X033479Y004164D01*
X033565Y004120D01*
X033657Y004090D01*
X033752Y004075D01*
X033760Y004075D01*
X033760Y004648D01*
X033188Y004648D01*
X033188Y004639D01*
X033203Y004544D01*
X033232Y004452D01*
X033260Y004399D02*
X015691Y004399D01*
X015691Y004321D02*
X033310Y004321D01*
X033379Y004242D02*
X015690Y004242D01*
X015690Y004164D02*
X033479Y004164D01*
X033689Y004085D02*
X015690Y004085D01*
X015690Y004007D02*
X034725Y004007D01*
X034646Y004085D02*
X033911Y004085D01*
X033943Y004090D02*
X034035Y004120D01*
X034121Y004164D01*
X034199Y004220D01*
X034267Y004289D01*
X034324Y004367D01*
X034368Y004452D01*
X034397Y004544D01*
X034412Y004639D01*
X034412Y004648D01*
X033840Y004648D01*
X033840Y004728D01*
X033760Y004728D01*
X033760Y005300D01*
X033752Y005300D01*
X033657Y005285D01*
X033565Y005255D01*
X033479Y005211D01*
X033401Y005155D01*
X033333Y005087D01*
X033276Y005009D01*
X033232Y004923D01*
X033203Y004831D01*
X033188Y004736D01*
X033188Y004728D01*
X033760Y004728D01*
X033760Y004648D01*
X033840Y004648D01*
X033840Y004075D01*
X033848Y004075D01*
X033943Y004090D01*
X033840Y004085D02*
X033760Y004085D01*
X033760Y004164D02*
X033840Y004164D01*
X033840Y004242D02*
X033760Y004242D01*
X033760Y004321D02*
X033840Y004321D01*
X033840Y004399D02*
X033760Y004399D01*
X033760Y004478D02*
X033840Y004478D01*
X033840Y004556D02*
X033760Y004556D01*
X033760Y004635D02*
X033840Y004635D01*
X033840Y004713D02*
X034423Y004713D01*
X034412Y004728D02*
X034412Y004736D01*
X034397Y004831D01*
X034368Y004923D01*
X034324Y005009D01*
X034267Y005087D01*
X034199Y005155D01*
X034121Y005211D01*
X034035Y005255D01*
X033943Y005285D01*
X033848Y005300D01*
X033840Y005300D01*
X033840Y004728D01*
X034412Y004728D01*
X034404Y004792D02*
X034423Y004792D01*
X034423Y004870D02*
X034385Y004870D01*
X034354Y004949D02*
X034423Y004949D01*
X034423Y005027D02*
X034310Y005027D01*
X034248Y005106D02*
X034423Y005106D01*
X034423Y005184D02*
X034159Y005184D01*
X034013Y005263D02*
X034423Y005263D01*
X034423Y005341D02*
X024988Y005341D01*
X025033Y005387D02*
X025121Y005597D01*
X025121Y005825D01*
X025033Y006035D01*
X024872Y006197D01*
X024662Y006284D01*
X024434Y006284D01*
X024224Y006197D01*
X024063Y006035D01*
X023976Y005825D01*
X023976Y005597D01*
X024063Y005387D01*
X024224Y005226D01*
X024434Y005139D01*
X024662Y005139D01*
X024872Y005226D01*
X025033Y005387D01*
X025047Y005420D02*
X034423Y005420D01*
X033840Y005263D02*
X033760Y005263D01*
X033760Y005184D02*
X033840Y005184D01*
X033840Y005106D02*
X033760Y005106D01*
X033760Y005027D02*
X033840Y005027D01*
X033840Y004949D02*
X033760Y004949D01*
X033760Y004870D02*
X033840Y004870D01*
X033840Y004792D02*
X033760Y004792D01*
X033760Y004713D02*
X015691Y004713D01*
X015691Y004635D02*
X033188Y004635D01*
X033201Y004556D02*
X015691Y004556D01*
X015691Y004792D02*
X033196Y004792D01*
X033215Y004870D02*
X015691Y004870D01*
X015691Y004949D02*
X033246Y004949D01*
X033290Y005027D02*
X015691Y005027D01*
X015691Y005106D02*
X033352Y005106D01*
X033441Y005184D02*
X024771Y005184D01*
X024909Y005263D02*
X033587Y005263D01*
X034412Y004635D02*
X034423Y004635D01*
X034423Y004556D02*
X034399Y004556D01*
X034376Y004478D02*
X034423Y004478D01*
X034425Y004399D02*
X034340Y004399D01*
X034290Y004321D02*
X034457Y004321D01*
X034490Y004242D02*
X034221Y004242D01*
X034121Y004164D02*
X034568Y004164D01*
X034803Y003928D02*
X015690Y003928D01*
X015690Y003850D02*
X034882Y003850D01*
X034960Y003771D02*
X015690Y003771D01*
X015690Y003693D02*
X035039Y003693D01*
X035117Y003614D02*
X027252Y003614D01*
X027210Y003631D02*
X026925Y003631D01*
X026662Y003523D01*
X026461Y003321D01*
X026352Y003058D01*
X026352Y002774D01*
X026461Y002511D01*
X026662Y002309D01*
X026925Y002200D01*
X027210Y002200D01*
X027473Y002309D01*
X027674Y002511D01*
X027783Y002774D01*
X027783Y003058D01*
X027674Y003321D01*
X027473Y003523D01*
X027210Y003631D01*
X027442Y003536D02*
X035196Y003536D01*
X035274Y003457D02*
X027539Y003457D01*
X027617Y003379D02*
X035353Y003379D01*
X035431Y003300D02*
X027683Y003300D01*
X027716Y003222D02*
X035510Y003222D01*
X035588Y003143D02*
X034498Y003143D01*
X034496Y003144D02*
X034219Y003218D01*
X033932Y003218D01*
X033655Y003144D01*
X033407Y003000D01*
X033204Y002798D01*
X033060Y002549D01*
X032986Y002272D01*
X032986Y001985D01*
X033060Y001708D01*
X033204Y001459D01*
X033407Y001257D01*
X033655Y001113D01*
X033932Y001039D01*
X034219Y001039D01*
X034496Y001113D01*
X034745Y001257D01*
X034947Y001459D01*
X035091Y001708D01*
X035165Y001985D01*
X035165Y002272D01*
X035091Y002549D01*
X034947Y002798D01*
X034745Y003000D01*
X034496Y003144D01*
X034634Y003065D02*
X035604Y003065D01*
X035604Y002986D02*
X034759Y002986D01*
X034838Y002908D02*
X035604Y002908D01*
X035604Y002829D02*
X034916Y002829D01*
X034975Y002751D02*
X035604Y002751D01*
X035604Y002672D02*
X035020Y002672D01*
X035065Y002594D02*
X035604Y002594D01*
X035604Y002515D02*
X035100Y002515D01*
X035121Y002437D02*
X035604Y002437D01*
X035604Y002358D02*
X035142Y002358D01*
X035163Y002280D02*
X035604Y002280D01*
X035604Y002201D02*
X035165Y002201D01*
X035165Y002123D02*
X035604Y002123D01*
X035604Y002044D02*
X035165Y002044D01*
X035160Y001966D02*
X035604Y001966D01*
X035604Y001887D02*
X035139Y001887D01*
X035118Y001809D02*
X035604Y001809D01*
X035604Y001730D02*
X035097Y001730D01*
X035058Y001652D02*
X035604Y001652D01*
X035604Y001573D02*
X035013Y001573D01*
X034968Y001495D02*
X035604Y001495D01*
X035604Y001416D02*
X034904Y001416D01*
X034826Y001338D02*
X035604Y001338D01*
X035604Y001259D02*
X034747Y001259D01*
X034613Y001181D02*
X035604Y001181D01*
X035604Y001102D02*
X034455Y001102D01*
X033697Y001102D02*
X015690Y001102D01*
X015690Y001024D02*
X035604Y001024D01*
X035604Y000945D02*
X015690Y000945D01*
X015690Y000867D02*
X035604Y000867D01*
X035604Y000788D02*
X015690Y000788D01*
X015690Y000710D02*
X035604Y000710D01*
X035604Y000631D02*
X015690Y000631D01*
X015690Y001181D02*
X033538Y001181D01*
X033404Y001259D02*
X015690Y001259D01*
X015690Y001338D02*
X033326Y001338D01*
X033247Y001416D02*
X015690Y001416D01*
X015690Y001495D02*
X033183Y001495D01*
X033138Y001573D02*
X015690Y001573D01*
X015690Y001652D02*
X033093Y001652D01*
X033054Y001730D02*
X015690Y001730D01*
X015690Y001809D02*
X033033Y001809D01*
X033012Y001887D02*
X015690Y001887D01*
X015690Y001966D02*
X032991Y001966D01*
X032986Y002044D02*
X015690Y002044D01*
X015690Y002123D02*
X032986Y002123D01*
X032986Y002201D02*
X027212Y002201D01*
X027401Y002280D02*
X032988Y002280D01*
X033009Y002358D02*
X027522Y002358D01*
X027600Y002437D02*
X033030Y002437D01*
X033051Y002515D02*
X027676Y002515D01*
X027709Y002594D02*
X033086Y002594D01*
X033131Y002672D02*
X027741Y002672D01*
X027774Y002751D02*
X033177Y002751D01*
X033235Y002829D02*
X027783Y002829D01*
X027783Y002908D02*
X033314Y002908D01*
X033392Y002986D02*
X027783Y002986D01*
X027781Y003065D02*
X033518Y003065D01*
X033654Y003143D02*
X027748Y003143D01*
X026883Y003614D02*
X015690Y003614D01*
X015690Y003536D02*
X026694Y003536D01*
X026597Y003457D02*
X015690Y003457D01*
X015690Y003379D02*
X026518Y003379D01*
X026452Y003300D02*
X015690Y003300D01*
X015690Y003222D02*
X026420Y003222D01*
X026387Y003143D02*
X015690Y003143D01*
X015690Y003065D02*
X026355Y003065D01*
X026352Y002986D02*
X015690Y002986D01*
X015690Y002908D02*
X026352Y002908D01*
X026352Y002829D02*
X015690Y002829D01*
X015690Y002751D02*
X026362Y002751D01*
X026394Y002672D02*
X015690Y002672D01*
X015690Y002594D02*
X026427Y002594D01*
X026459Y002515D02*
X015690Y002515D01*
X015690Y002437D02*
X026535Y002437D01*
X026614Y002358D02*
X015690Y002358D01*
X015690Y002280D02*
X026734Y002280D01*
X026924Y002201D02*
X015690Y002201D01*
X015691Y005184D02*
X024325Y005184D01*
X024187Y005263D02*
X015691Y005263D01*
X015691Y005341D02*
X024109Y005341D01*
X024049Y005420D02*
X015691Y005420D01*
X015691Y005498D02*
X024017Y005498D01*
X023984Y005577D02*
X015691Y005577D01*
X015691Y005655D02*
X023976Y005655D01*
X023976Y005734D02*
X015691Y005734D01*
X015691Y005812D02*
X023976Y005812D01*
X024003Y005891D02*
X015691Y005891D01*
X015691Y005969D02*
X024035Y005969D01*
X024075Y006048D02*
X022533Y006048D01*
X022579Y006067D02*
X022657Y006145D01*
X022699Y006247D01*
X022699Y006357D01*
X022657Y006459D01*
X022579Y006537D01*
X022477Y006579D01*
X022367Y006579D01*
X022265Y006537D01*
X022187Y006459D01*
X022145Y006357D01*
X022145Y006247D01*
X022187Y006145D01*
X022265Y006067D01*
X022367Y006025D01*
X022477Y006025D01*
X022579Y006067D01*
X022638Y006126D02*
X024153Y006126D01*
X024243Y006205D02*
X022682Y006205D01*
X022699Y006283D02*
X024433Y006283D01*
X024664Y006283D02*
X028661Y006283D01*
X028583Y006362D02*
X022697Y006362D01*
X022665Y006440D02*
X028504Y006440D01*
X028426Y006519D02*
X022597Y006519D01*
X022247Y006519D02*
X015691Y006519D01*
X015691Y006597D02*
X028347Y006597D01*
X028269Y006676D02*
X015691Y006676D01*
X015691Y006754D02*
X028190Y006754D01*
X028112Y006833D02*
X024759Y006833D01*
X024662Y006792D02*
X024872Y006879D01*
X025033Y007040D01*
X025121Y007251D01*
X025121Y007479D01*
X025033Y007689D01*
X024872Y007850D01*
X024662Y007937D01*
X024434Y007937D01*
X024224Y007850D01*
X024063Y007689D01*
X023976Y007479D01*
X023976Y007251D01*
X024063Y007040D01*
X024224Y006879D01*
X024434Y006792D01*
X024662Y006792D01*
X024904Y006911D02*
X028033Y006911D01*
X027955Y006990D02*
X024982Y006990D01*
X025045Y007068D02*
X027876Y007068D01*
X027798Y007147D02*
X025077Y007147D01*
X025110Y007225D02*
X027719Y007225D01*
X027641Y007304D02*
X025121Y007304D01*
X025121Y007382D02*
X027562Y007382D01*
X027484Y007461D02*
X025121Y007461D01*
X025096Y007539D02*
X027405Y007539D01*
X027327Y007618D02*
X025063Y007618D01*
X025026Y007696D02*
X027248Y007696D01*
X027170Y007775D02*
X024948Y007775D01*
X024865Y007853D02*
X027091Y007853D01*
X027013Y007932D02*
X024676Y007932D01*
X024420Y007932D02*
X015691Y007932D01*
X015691Y008010D02*
X026934Y008010D01*
X026856Y008089D02*
X019601Y008089D01*
X019587Y008075D02*
X019665Y008153D01*
X019707Y008254D01*
X019707Y008365D01*
X019665Y008467D01*
X019587Y008545D01*
X019485Y008587D01*
X019375Y008587D01*
X019273Y008545D01*
X019195Y008467D01*
X019153Y008365D01*
X019153Y008254D01*
X019195Y008153D01*
X019273Y008075D01*
X019375Y008032D01*
X019485Y008032D01*
X019587Y008075D01*
X019671Y008167D02*
X026777Y008167D01*
X026699Y008246D02*
X019703Y008246D01*
X019707Y008324D02*
X026620Y008324D01*
X026542Y008403D02*
X019691Y008403D01*
X019650Y008481D02*
X026463Y008481D01*
X026385Y008560D02*
X019551Y008560D01*
X019309Y008560D02*
X015592Y008560D01*
X015514Y008638D02*
X026306Y008638D01*
X026228Y008717D02*
X015435Y008717D01*
X015357Y008795D02*
X026149Y008795D01*
X026071Y008874D02*
X015278Y008874D01*
X015200Y008952D02*
X025992Y008952D01*
X025914Y009031D02*
X015121Y009031D01*
X015043Y009109D02*
X025835Y009109D01*
X025757Y009188D02*
X014964Y009188D01*
X014886Y009266D02*
X025678Y009266D01*
X024231Y007853D02*
X015691Y007853D01*
X015691Y007775D02*
X024148Y007775D01*
X024070Y007696D02*
X015691Y007696D01*
X015691Y007618D02*
X024033Y007618D01*
X024001Y007539D02*
X015691Y007539D01*
X015691Y007461D02*
X023976Y007461D01*
X023976Y007382D02*
X015691Y007382D01*
X015691Y007304D02*
X023976Y007304D01*
X023986Y007225D02*
X015691Y007225D01*
X015691Y007147D02*
X024019Y007147D01*
X024051Y007068D02*
X015691Y007068D01*
X015691Y006990D02*
X024114Y006990D01*
X024192Y006911D02*
X015691Y006911D01*
X015691Y006833D02*
X024337Y006833D01*
X024853Y006205D02*
X028740Y006205D01*
X028818Y006126D02*
X024943Y006126D01*
X025021Y006048D02*
X028897Y006048D01*
X028975Y005969D02*
X025061Y005969D01*
X025093Y005891D02*
X029054Y005891D01*
X029132Y005812D02*
X025121Y005812D01*
X025121Y005734D02*
X029211Y005734D01*
X029289Y005655D02*
X025121Y005655D01*
X025112Y005577D02*
X029368Y005577D01*
X029446Y005498D02*
X025079Y005498D01*
X022312Y006048D02*
X015691Y006048D01*
X015691Y006126D02*
X022206Y006126D01*
X022162Y006205D02*
X015691Y006205D01*
X015691Y006283D02*
X022145Y006283D01*
X022147Y006362D02*
X015691Y006362D01*
X015691Y006440D02*
X022179Y006440D01*
X019259Y008089D02*
X015691Y008089D01*
X015691Y008167D02*
X019189Y008167D01*
X019156Y008246D02*
X015691Y008246D01*
X015691Y008324D02*
X019153Y008324D01*
X019168Y008403D02*
X015691Y008403D01*
X015671Y008481D02*
X019209Y008481D01*
M02*
