G75*
G70*
%OFA0B0*%
%FSLAX24Y24*%
%IPPOS*%
%LPD*%
%AMOC8*
5,1,8,0,0,1.08239X$1,22.5*
%
%ADD10C,0.0040*%
%ADD11C,0.0060*%
%ADD12C,0.0080*%
%ADD13C,0.0100*%
%ADD14R,0.0320X0.0200*%
%ADD15C,0.0220*%
%ADD16R,0.0250X0.0250*%
%ADD17R,0.0200X0.0320*%
%ADD18R,0.0200X0.0060*%
%ADD19R,0.0200X0.0200*%
D10*
X001059Y004709D02*
X001059Y005016D01*
X001059Y005169D02*
X001519Y005169D01*
X001519Y005476D01*
X001519Y005630D02*
X001212Y005630D01*
X001059Y005783D01*
X001212Y005936D01*
X001519Y005936D01*
X001443Y006090D02*
X001519Y006167D01*
X001519Y006320D01*
X001443Y006397D01*
X001366Y006397D01*
X001289Y006320D01*
X001289Y006167D01*
X001212Y006090D01*
X001136Y006090D01*
X001059Y006167D01*
X001059Y006320D01*
X001136Y006397D01*
X001059Y006550D02*
X001519Y006550D01*
X001289Y006550D02*
X001289Y006857D01*
X001059Y006857D02*
X001519Y006857D01*
X001443Y007563D02*
X001519Y007640D01*
X001519Y007793D01*
X001443Y007870D01*
X001366Y007870D01*
X001289Y007793D01*
X001289Y007640D01*
X001212Y007563D01*
X001136Y007563D01*
X001059Y007640D01*
X001059Y007793D01*
X001136Y007870D01*
X001059Y008024D02*
X001059Y008254D01*
X001136Y008330D01*
X001289Y008330D01*
X001366Y008254D01*
X001366Y008024D01*
X001366Y008177D02*
X001519Y008330D01*
X001519Y008484D02*
X001212Y008484D01*
X001059Y008637D01*
X001212Y008791D01*
X001519Y008791D01*
X001519Y008944D02*
X001059Y008944D01*
X001212Y009098D01*
X001059Y009251D01*
X001519Y009251D01*
X001289Y008791D02*
X001289Y008484D01*
X001519Y008024D02*
X001059Y008024D01*
X001734Y009760D02*
X001657Y009837D01*
X001657Y009990D01*
X001734Y010067D01*
X001811Y010067D01*
X002118Y009760D01*
X002118Y010067D01*
X002937Y009914D02*
X003397Y009914D01*
X003397Y010067D02*
X003397Y009760D01*
X003090Y009760D02*
X002937Y009914D01*
X004307Y011282D02*
X004384Y011205D01*
X004460Y011205D01*
X004537Y011282D01*
X004537Y011435D01*
X004614Y011512D01*
X004691Y011512D01*
X004767Y011435D01*
X004767Y011282D01*
X004691Y011205D01*
X004307Y011282D02*
X004307Y011435D01*
X004384Y011512D01*
X004307Y011665D02*
X004767Y011665D01*
X004614Y011819D01*
X004767Y011972D01*
X004307Y011972D01*
X004307Y012126D02*
X004307Y012356D01*
X004384Y012432D01*
X004691Y012432D01*
X004767Y012356D01*
X004767Y012126D01*
X004307Y012126D01*
X003313Y013862D02*
X003389Y013939D01*
X003389Y014093D01*
X003313Y014169D01*
X003006Y014169D01*
X002929Y014093D01*
X002929Y013939D01*
X003006Y013862D01*
X003082Y013862D01*
X003159Y013939D01*
X003159Y014169D01*
X002110Y014203D02*
X002033Y014126D01*
X001726Y014433D01*
X002033Y014433D01*
X002110Y014356D01*
X002110Y014203D01*
X002033Y014126D02*
X001726Y014126D01*
X001649Y014203D01*
X001649Y014356D01*
X001726Y014433D01*
X002110Y013972D02*
X002110Y013666D01*
X002110Y013819D02*
X001649Y013819D01*
X001803Y013666D01*
X008843Y016323D02*
X008843Y016783D01*
X008996Y016630D01*
X009150Y016783D01*
X009150Y016323D01*
X009303Y016400D02*
X009380Y016323D01*
X009533Y016323D01*
X009610Y016400D01*
X009763Y016400D02*
X009840Y016323D01*
X009994Y016323D01*
X010070Y016400D01*
X010070Y016707D01*
X009994Y016783D01*
X009840Y016783D01*
X009763Y016707D01*
X009763Y016400D01*
X009610Y016707D02*
X009533Y016783D01*
X009380Y016783D01*
X009303Y016707D01*
X009303Y016400D01*
X012935Y013921D02*
X013165Y013921D01*
X013242Y013844D01*
X013242Y013537D01*
X013165Y013461D01*
X012935Y013461D01*
X012935Y013921D01*
X013396Y013844D02*
X013472Y013921D01*
X013626Y013921D01*
X013702Y013844D01*
X013702Y013768D01*
X013626Y013691D01*
X013702Y013614D01*
X013702Y013537D01*
X013626Y013461D01*
X013472Y013461D01*
X013396Y013537D01*
X013549Y013691D02*
X013626Y013691D01*
X013856Y013614D02*
X014009Y013461D01*
X014163Y013614D01*
X014163Y013921D01*
X014316Y013844D02*
X014393Y013921D01*
X014546Y013921D01*
X014623Y013844D01*
X014623Y013768D01*
X014546Y013691D01*
X014623Y013614D01*
X014623Y013537D01*
X014546Y013461D01*
X014393Y013461D01*
X014316Y013537D01*
X014470Y013691D02*
X014546Y013691D01*
X014777Y013384D02*
X015083Y013384D01*
X015237Y013537D02*
X015314Y013461D01*
X015467Y013461D01*
X015544Y013537D01*
X015544Y013614D01*
X015467Y013691D01*
X015314Y013691D01*
X015237Y013768D01*
X015237Y013844D01*
X015314Y013921D01*
X015467Y013921D01*
X015544Y013844D01*
X015697Y013921D02*
X016004Y013921D01*
X015851Y013921D02*
X015851Y013461D01*
X016158Y013461D02*
X016158Y013921D01*
X016311Y013768D01*
X016465Y013921D01*
X016465Y013461D01*
X013856Y013614D02*
X013856Y013921D01*
X005117Y020260D02*
X004810Y020260D01*
X005117Y020567D01*
X005117Y020644D01*
X005041Y020720D01*
X004887Y020720D01*
X004810Y020644D01*
X004657Y020644D02*
X004580Y020720D01*
X004350Y020720D01*
X004350Y020260D01*
X004580Y020260D01*
X004657Y020337D01*
X004657Y020644D01*
X004197Y020720D02*
X003890Y020720D01*
X003890Y020260D01*
X004197Y020260D01*
X004043Y020490D02*
X003890Y020490D01*
X003736Y020260D02*
X003429Y020260D01*
X003429Y020720D01*
X002755Y020260D02*
X002448Y020260D01*
X002602Y020260D02*
X002602Y020720D01*
X002448Y020567D01*
X002295Y020644D02*
X002295Y020337D01*
X002218Y020260D01*
X001988Y020260D01*
X001988Y020720D01*
X002218Y020720D01*
X002295Y020644D01*
X001834Y020720D02*
X001527Y020720D01*
X001527Y020260D01*
X001834Y020260D01*
X001681Y020490D02*
X001527Y020490D01*
X001374Y020260D02*
X001067Y020260D01*
X001067Y020720D01*
X003498Y008038D02*
X003805Y007731D01*
X003881Y007808D01*
X003881Y007961D01*
X003805Y008038D01*
X003498Y008038D01*
X003421Y007961D01*
X003421Y007808D01*
X003498Y007731D01*
X003805Y007731D01*
X003421Y007578D02*
X003421Y007271D01*
X003421Y007424D02*
X003881Y007424D01*
X003805Y007118D02*
X003498Y007118D01*
X003421Y007041D01*
X003421Y006887D01*
X003498Y006811D01*
X003805Y006811D01*
X003881Y006887D01*
X003881Y007041D01*
X003805Y007118D01*
X003805Y006657D02*
X003498Y006657D01*
X003421Y006580D01*
X003421Y006427D01*
X003498Y006350D01*
X003805Y006350D01*
X003881Y006427D01*
X003881Y006580D01*
X003805Y006657D01*
X003805Y006197D02*
X003881Y006120D01*
X003881Y005890D01*
X003421Y005890D01*
X003421Y006120D01*
X003498Y006197D01*
X003575Y006197D01*
X003651Y006120D01*
X003651Y005890D01*
X003651Y006120D02*
X003728Y006197D01*
X003805Y006197D01*
X005783Y006197D02*
X006244Y006197D01*
X005783Y005890D01*
X006244Y005890D01*
X006244Y006350D02*
X005783Y006350D01*
X005783Y006580D01*
X005860Y006657D01*
X006013Y006657D01*
X006090Y006580D01*
X006090Y006350D01*
X006090Y006504D02*
X006244Y006657D01*
X006167Y006811D02*
X006244Y006887D01*
X006244Y007041D01*
X006167Y007118D01*
X006090Y007118D01*
X006013Y007041D01*
X006013Y006887D01*
X005937Y006811D01*
X005860Y006811D01*
X005783Y006887D01*
X005783Y007041D01*
X005860Y007118D01*
X005783Y007271D02*
X005783Y007578D01*
X005783Y007424D02*
X006244Y007424D01*
X010713Y005366D02*
X010713Y004906D01*
X010943Y004906D01*
X011020Y004982D01*
X011020Y005289D01*
X010943Y005366D01*
X010713Y005366D01*
X011173Y005289D02*
X011173Y004982D01*
X011250Y004906D01*
X011403Y004906D01*
X011480Y004982D01*
X011480Y005136D01*
X011327Y005136D01*
X011480Y005289D02*
X011403Y005366D01*
X011250Y005366D01*
X011173Y005289D01*
X011633Y005366D02*
X011940Y004906D01*
X011940Y005366D01*
X012094Y005366D02*
X012324Y005366D01*
X012401Y005289D01*
X012401Y004982D01*
X012324Y004906D01*
X012094Y004906D01*
X012094Y005366D01*
X011633Y005366D02*
X011633Y004906D01*
X010528Y003813D02*
X010451Y003890D01*
X010297Y003890D01*
X010221Y003813D01*
X010528Y003813D02*
X010528Y003736D01*
X010221Y003429D01*
X010528Y003429D01*
X010374Y002413D02*
X010221Y002260D01*
X010374Y002413D02*
X010374Y001953D01*
X010221Y001953D02*
X010528Y001953D01*
X013961Y005059D02*
X014114Y004906D01*
X014268Y005059D01*
X014268Y005366D01*
X014421Y005289D02*
X014421Y005213D01*
X014498Y005136D01*
X014651Y005136D01*
X014728Y005059D01*
X014728Y004982D01*
X014651Y004906D01*
X014498Y004906D01*
X014421Y004982D01*
X014421Y005289D02*
X014498Y005366D01*
X014651Y005366D01*
X014728Y005289D01*
X014881Y005366D02*
X014881Y004982D01*
X014958Y004906D01*
X015112Y004906D01*
X015188Y004982D01*
X015188Y005366D01*
X015342Y005366D02*
X015572Y005366D01*
X015649Y005289D01*
X015649Y005136D01*
X015572Y005059D01*
X015342Y005059D01*
X015342Y004906D02*
X015342Y005366D01*
X013961Y005366D02*
X013961Y005059D01*
X017209Y004906D02*
X017439Y004906D01*
X017516Y004982D01*
X017516Y005289D01*
X017439Y005366D01*
X017209Y005366D01*
X017209Y004906D01*
X017669Y004982D02*
X017746Y004906D01*
X017899Y004906D01*
X017976Y004982D01*
X017976Y005059D01*
X017899Y005136D01*
X017823Y005136D01*
X017899Y005136D02*
X017976Y005213D01*
X017976Y005289D01*
X017899Y005366D01*
X017746Y005366D01*
X017669Y005289D01*
X018130Y005366D02*
X018130Y005059D01*
X018283Y004906D01*
X018436Y005059D01*
X018436Y005366D01*
X018590Y005289D02*
X018667Y005366D01*
X018820Y005366D01*
X018897Y005289D01*
X018897Y005213D01*
X018820Y005136D01*
X018897Y005059D01*
X018897Y004982D01*
X018820Y004906D01*
X018667Y004906D01*
X018590Y004982D01*
X018743Y005136D02*
X018820Y005136D01*
X020358Y005366D02*
X020358Y004906D01*
X020589Y004906D01*
X020665Y004982D01*
X020665Y005289D01*
X020589Y005366D01*
X020358Y005366D01*
X020819Y005213D02*
X020972Y005366D01*
X020972Y004906D01*
X020819Y004906D02*
X021126Y004906D01*
X021279Y005059D02*
X021433Y004906D01*
X021586Y005059D01*
X021586Y005366D01*
X021739Y005366D02*
X021739Y005136D01*
X021893Y005213D01*
X021970Y005213D01*
X022046Y005136D01*
X022046Y004982D01*
X021970Y004906D01*
X021816Y004906D01*
X021739Y004982D01*
X021739Y005366D02*
X022046Y005366D01*
X021279Y005366D02*
X021279Y005059D01*
X023508Y005136D02*
X023815Y005136D01*
X023815Y005213D02*
X023815Y004906D01*
X023968Y004906D02*
X024275Y004906D01*
X024122Y004906D02*
X024122Y005366D01*
X023968Y005213D01*
X023815Y005213D02*
X023661Y005366D01*
X023508Y005213D01*
X023508Y004906D01*
X024429Y005059D02*
X024582Y004906D01*
X024736Y005059D01*
X024736Y005366D01*
X024889Y005366D02*
X024889Y005136D01*
X025043Y005213D01*
X025119Y005213D01*
X025196Y005136D01*
X025196Y004982D01*
X025119Y004906D01*
X024966Y004906D01*
X024889Y004982D01*
X024889Y005366D02*
X025196Y005366D01*
X024429Y005366D02*
X024429Y005059D01*
X025201Y003805D02*
X025048Y003652D01*
X025278Y003652D01*
X025355Y003575D01*
X025355Y003498D01*
X025278Y003421D01*
X025125Y003421D01*
X025048Y003498D01*
X025048Y003652D01*
X025201Y003805D02*
X025355Y003882D01*
X025508Y003652D02*
X025815Y003652D01*
X025738Y003882D02*
X025738Y003421D01*
X025508Y003652D02*
X025738Y003882D01*
X026658Y004906D02*
X026658Y005213D01*
X026811Y005366D01*
X026965Y005213D01*
X026965Y004906D01*
X027118Y004982D02*
X027195Y004906D01*
X027348Y004906D01*
X027425Y004982D01*
X027425Y005059D01*
X027348Y005136D01*
X027271Y005136D01*
X027348Y005136D02*
X027425Y005213D01*
X027425Y005289D01*
X027348Y005366D01*
X027195Y005366D01*
X027118Y005289D01*
X026965Y005136D02*
X026658Y005136D01*
X027578Y005059D02*
X027732Y004906D01*
X027885Y005059D01*
X027885Y005366D01*
X028039Y005289D02*
X028115Y005366D01*
X028269Y005366D01*
X028346Y005289D01*
X028346Y005213D01*
X028269Y005136D01*
X028346Y005059D01*
X028346Y004982D01*
X028269Y004906D01*
X028115Y004906D01*
X028039Y004982D01*
X028192Y005136D02*
X028269Y005136D01*
X027578Y005059D02*
X027578Y005366D01*
X025738Y002405D02*
X025815Y002329D01*
X025815Y002252D01*
X025738Y002175D01*
X025815Y002098D01*
X025815Y002022D01*
X025738Y001945D01*
X025585Y001945D01*
X025508Y002022D01*
X025355Y002022D02*
X025278Y001945D01*
X025125Y001945D01*
X025048Y002022D01*
X025048Y002175D01*
X025278Y002175D01*
X025355Y002098D01*
X025355Y002022D01*
X025508Y002329D02*
X025585Y002405D01*
X025738Y002405D01*
X025738Y002175D02*
X025662Y002175D01*
X025355Y002405D02*
X025201Y002329D01*
X025048Y002175D01*
X026559Y008941D02*
X026559Y009248D01*
X026713Y009401D01*
X026866Y009248D01*
X026866Y008941D01*
X027020Y009018D02*
X027096Y008941D01*
X027250Y008941D01*
X027326Y009018D01*
X027326Y009171D01*
X027173Y009171D01*
X027020Y009018D02*
X027020Y009325D01*
X027096Y009401D01*
X027250Y009401D01*
X027326Y009325D01*
X027480Y009401D02*
X027787Y008941D01*
X027787Y009401D01*
X027940Y009401D02*
X027940Y008941D01*
X028170Y008941D01*
X028247Y009018D01*
X028247Y009325D01*
X028170Y009401D01*
X027940Y009401D01*
X027480Y009401D02*
X027480Y008941D01*
X026866Y009171D02*
X026559Y009171D01*
X026432Y014179D02*
X026739Y014179D01*
X026892Y014256D02*
X026892Y014716D01*
X027123Y014716D01*
X027199Y014640D01*
X027199Y014486D01*
X027123Y014409D01*
X026892Y014409D01*
X027046Y014409D02*
X027199Y014256D01*
X027839Y014409D02*
X027992Y014256D01*
X028146Y014409D01*
X028146Y014716D01*
X028299Y014716D02*
X028529Y014716D01*
X028606Y014640D01*
X028606Y014563D01*
X028529Y014486D01*
X028299Y014486D01*
X028299Y014256D02*
X028529Y014256D01*
X028606Y014333D01*
X028606Y014409D01*
X028529Y014486D01*
X028759Y014486D02*
X029066Y014486D01*
X029066Y014563D02*
X029066Y014256D01*
X028759Y014256D02*
X028759Y014563D01*
X028913Y014716D01*
X029066Y014563D01*
X029220Y014716D02*
X029527Y014716D01*
X029373Y014716D02*
X029373Y014256D01*
X028299Y014256D02*
X028299Y014716D01*
X027839Y014716D02*
X027839Y014409D01*
X026279Y014486D02*
X026202Y014409D01*
X025972Y014409D01*
X025972Y014256D02*
X025972Y014716D01*
X026202Y014716D01*
X026279Y014640D01*
X026279Y014486D01*
X025818Y014333D02*
X025818Y014716D01*
X025511Y014716D02*
X025511Y014333D01*
X025588Y014256D01*
X025742Y014256D01*
X025818Y014333D01*
X025358Y014333D02*
X025281Y014256D01*
X025128Y014256D01*
X025051Y014333D01*
X024898Y014409D02*
X024898Y014716D01*
X025051Y014640D02*
X025051Y014563D01*
X025128Y014486D01*
X025281Y014486D01*
X025358Y014409D01*
X025358Y014333D01*
X025358Y014640D02*
X025281Y014716D01*
X025128Y014716D01*
X025051Y014640D01*
X024898Y014409D02*
X024744Y014256D01*
X024591Y014409D01*
X024591Y014716D01*
X024429Y018095D02*
X024736Y018095D01*
X024889Y018095D02*
X025196Y018095D01*
X024889Y018095D02*
X024889Y018555D01*
X024429Y018555D02*
X024429Y018095D01*
X024275Y018095D02*
X024275Y018402D01*
X024122Y018555D01*
X023968Y018402D01*
X023968Y018095D01*
X023815Y018095D02*
X023661Y018248D01*
X023508Y018095D01*
X023508Y018555D01*
X023815Y018555D02*
X023815Y018095D01*
X023968Y018325D02*
X024275Y018325D01*
X024199Y019473D02*
X024275Y019549D01*
X024275Y019703D01*
X024122Y019703D01*
X024275Y019856D02*
X024199Y019933D01*
X024045Y019933D01*
X023968Y019856D01*
X023968Y019549D01*
X024045Y019473D01*
X024199Y019473D01*
X024429Y019473D02*
X024429Y019933D01*
X024736Y019473D01*
X024736Y019933D01*
X024889Y019933D02*
X025119Y019933D01*
X025196Y019856D01*
X025196Y019549D01*
X025119Y019473D01*
X024889Y019473D01*
X024889Y019933D01*
X023815Y019856D02*
X023815Y019549D01*
X023738Y019473D01*
X023508Y019473D01*
X023508Y019933D01*
X023738Y019933D01*
X023815Y019856D01*
X023343Y020941D02*
X023343Y021401D01*
X023650Y021401D01*
X023496Y021171D02*
X023343Y021171D01*
X023189Y021401D02*
X022883Y021401D01*
X022883Y020941D01*
X022729Y021018D02*
X022729Y021325D01*
X022652Y021401D01*
X022499Y021401D01*
X022422Y021325D01*
X022422Y021018D01*
X022499Y020941D01*
X022652Y020941D01*
X022729Y021018D01*
X022883Y021171D02*
X023036Y021171D01*
X031052Y021018D02*
X031129Y020941D01*
X031282Y020941D01*
X031359Y021018D01*
X031359Y021325D01*
X031282Y021401D01*
X031129Y021401D01*
X031052Y021325D01*
X031052Y021018D01*
X031512Y020941D02*
X031512Y021401D01*
X031819Y020941D01*
X031819Y021401D01*
X032957Y020720D02*
X032957Y020260D01*
X033264Y020260D01*
X033417Y020260D02*
X033724Y020260D01*
X033878Y020260D02*
X034108Y020260D01*
X034184Y020337D01*
X034184Y020644D01*
X034108Y020720D01*
X033878Y020720D01*
X033878Y020260D01*
X033571Y020490D02*
X033417Y020490D01*
X033417Y020720D02*
X033417Y020260D01*
X033417Y020720D02*
X033724Y020720D01*
X034338Y020644D02*
X034338Y020337D01*
X034645Y020644D01*
X034645Y020337D01*
X034568Y020260D01*
X034415Y020260D01*
X034338Y020337D01*
X034338Y020644D02*
X034415Y020720D01*
X034568Y020720D01*
X034645Y020644D01*
X001519Y004709D02*
X001059Y004709D01*
X001289Y004709D02*
X001289Y004862D01*
X001289Y005630D02*
X001289Y005936D01*
D11*
X000780Y002130D02*
X000782Y002203D01*
X000788Y002276D01*
X000798Y002348D01*
X000812Y002420D01*
X000829Y002491D01*
X000851Y002561D01*
X000876Y002630D01*
X000905Y002697D01*
X000937Y002762D01*
X000973Y002826D01*
X001013Y002888D01*
X001055Y002947D01*
X001101Y003004D01*
X001150Y003058D01*
X001202Y003110D01*
X001256Y003159D01*
X001313Y003205D01*
X001372Y003247D01*
X001434Y003287D01*
X001498Y003323D01*
X001563Y003355D01*
X001630Y003384D01*
X001699Y003409D01*
X001769Y003431D01*
X001840Y003448D01*
X001912Y003462D01*
X001984Y003472D01*
X002057Y003478D01*
X002130Y003480D01*
X002203Y003478D01*
X002276Y003472D01*
X002348Y003462D01*
X002420Y003448D01*
X002491Y003431D01*
X002561Y003409D01*
X002630Y003384D01*
X002697Y003355D01*
X002762Y003323D01*
X002826Y003287D01*
X002888Y003247D01*
X002947Y003205D01*
X003004Y003159D01*
X003058Y003110D01*
X003110Y003058D01*
X003159Y003004D01*
X003205Y002947D01*
X003247Y002888D01*
X003287Y002826D01*
X003323Y002762D01*
X003355Y002697D01*
X003384Y002630D01*
X003409Y002561D01*
X003431Y002491D01*
X003448Y002420D01*
X003462Y002348D01*
X003472Y002276D01*
X003478Y002203D01*
X003480Y002130D01*
X003478Y002057D01*
X003472Y001984D01*
X003462Y001912D01*
X003448Y001840D01*
X003431Y001769D01*
X003409Y001699D01*
X003384Y001630D01*
X003355Y001563D01*
X003323Y001498D01*
X003287Y001434D01*
X003247Y001372D01*
X003205Y001313D01*
X003159Y001256D01*
X003110Y001202D01*
X003058Y001150D01*
X003004Y001101D01*
X002947Y001055D01*
X002888Y001013D01*
X002826Y000973D01*
X002762Y000937D01*
X002697Y000905D01*
X002630Y000876D01*
X002561Y000851D01*
X002491Y000829D01*
X002420Y000812D01*
X002348Y000798D01*
X002276Y000788D01*
X002203Y000782D01*
X002130Y000780D01*
X002057Y000782D01*
X001984Y000788D01*
X001912Y000798D01*
X001840Y000812D01*
X001769Y000829D01*
X001699Y000851D01*
X001630Y000876D01*
X001563Y000905D01*
X001498Y000937D01*
X001434Y000973D01*
X001372Y001013D01*
X001313Y001055D01*
X001256Y001101D01*
X001202Y001150D01*
X001150Y001202D01*
X001101Y001256D01*
X001055Y001313D01*
X001013Y001372D01*
X000973Y001434D01*
X000937Y001498D01*
X000905Y001563D01*
X000876Y001630D01*
X000851Y001699D01*
X000829Y001769D01*
X000812Y001840D01*
X000798Y001912D01*
X000788Y001984D01*
X000782Y002057D01*
X000780Y002130D01*
X012736Y006688D02*
X013374Y006688D01*
X013374Y007051D02*
X013374Y007445D01*
X013374Y007808D02*
X012736Y007808D01*
X015886Y007808D02*
X016523Y007808D01*
X016523Y007445D02*
X016523Y007051D01*
X016523Y006688D02*
X015886Y006688D01*
X019035Y006688D02*
X019673Y006688D01*
X019673Y007051D02*
X019673Y007445D01*
X019673Y007808D02*
X019035Y007808D01*
X022185Y007808D02*
X022823Y007808D01*
X022823Y007445D02*
X022823Y007051D01*
X022823Y006688D02*
X022185Y006688D01*
X025334Y006688D02*
X025972Y006688D01*
X025972Y007051D02*
X025972Y007445D01*
X025972Y007808D02*
X025334Y007808D01*
X025077Y009641D02*
X024459Y009641D01*
X025077Y009995D02*
X025077Y010406D01*
X025077Y010760D02*
X024459Y010760D01*
X023055Y011598D02*
X022543Y011598D01*
X022543Y012740D01*
X023055Y012740D01*
X023055Y011598D01*
X024905Y011992D02*
X025417Y011992D01*
X025417Y013134D01*
X024905Y013134D01*
X024905Y011992D01*
X023370Y013291D02*
X023370Y013803D01*
X022228Y013803D01*
X022228Y013291D01*
X023370Y013291D01*
X022976Y016047D02*
X021834Y016047D01*
X021834Y016559D01*
X022976Y016559D01*
X022976Y016047D01*
X018733Y014644D02*
X018733Y014025D01*
X018379Y014644D02*
X017968Y014644D01*
X017613Y014644D02*
X017613Y014025D01*
X017301Y012631D02*
X016683Y012631D01*
X016683Y012276D02*
X016683Y011865D01*
X016683Y011511D02*
X017301Y011511D01*
X014161Y011579D02*
X014161Y011185D01*
X014161Y010822D02*
X013523Y010822D01*
X013523Y011942D02*
X014161Y011942D01*
X008005Y017953D02*
X008005Y018590D01*
X006885Y018590D02*
X006885Y017953D01*
X000780Y017878D02*
X000782Y017951D01*
X000788Y018024D01*
X000798Y018096D01*
X000812Y018168D01*
X000829Y018239D01*
X000851Y018309D01*
X000876Y018378D01*
X000905Y018445D01*
X000937Y018510D01*
X000973Y018574D01*
X001013Y018636D01*
X001055Y018695D01*
X001101Y018752D01*
X001150Y018806D01*
X001202Y018858D01*
X001256Y018907D01*
X001313Y018953D01*
X001372Y018995D01*
X001434Y019035D01*
X001498Y019071D01*
X001563Y019103D01*
X001630Y019132D01*
X001699Y019157D01*
X001769Y019179D01*
X001840Y019196D01*
X001912Y019210D01*
X001984Y019220D01*
X002057Y019226D01*
X002130Y019228D01*
X002203Y019226D01*
X002276Y019220D01*
X002348Y019210D01*
X002420Y019196D01*
X002491Y019179D01*
X002561Y019157D01*
X002630Y019132D01*
X002697Y019103D01*
X002762Y019071D01*
X002826Y019035D01*
X002888Y018995D01*
X002947Y018953D01*
X003004Y018907D01*
X003058Y018858D01*
X003110Y018806D01*
X003159Y018752D01*
X003205Y018695D01*
X003247Y018636D01*
X003287Y018574D01*
X003323Y018510D01*
X003355Y018445D01*
X003384Y018378D01*
X003409Y018309D01*
X003431Y018239D01*
X003448Y018168D01*
X003462Y018096D01*
X003472Y018024D01*
X003478Y017951D01*
X003480Y017878D01*
X003478Y017805D01*
X003472Y017732D01*
X003462Y017660D01*
X003448Y017588D01*
X003431Y017517D01*
X003409Y017447D01*
X003384Y017378D01*
X003355Y017311D01*
X003323Y017246D01*
X003287Y017182D01*
X003247Y017120D01*
X003205Y017061D01*
X003159Y017004D01*
X003110Y016950D01*
X003058Y016898D01*
X003004Y016849D01*
X002947Y016803D01*
X002888Y016761D01*
X002826Y016721D01*
X002762Y016685D01*
X002697Y016653D01*
X002630Y016624D01*
X002561Y016599D01*
X002491Y016577D01*
X002420Y016560D01*
X002348Y016546D01*
X002276Y016536D01*
X002203Y016530D01*
X002130Y016528D01*
X002057Y016530D01*
X001984Y016536D01*
X001912Y016546D01*
X001840Y016560D01*
X001769Y016577D01*
X001699Y016599D01*
X001630Y016624D01*
X001563Y016653D01*
X001498Y016685D01*
X001434Y016721D01*
X001372Y016761D01*
X001313Y016803D01*
X001256Y016849D01*
X001202Y016898D01*
X001150Y016950D01*
X001101Y017004D01*
X001055Y017061D01*
X001013Y017120D01*
X000973Y017182D01*
X000937Y017246D01*
X000905Y017311D01*
X000876Y017378D01*
X000851Y017447D01*
X000829Y017517D01*
X000812Y017588D01*
X000798Y017660D01*
X000788Y017732D01*
X000782Y017805D01*
X000780Y017878D01*
X032276Y017878D02*
X032278Y017951D01*
X032284Y018024D01*
X032294Y018096D01*
X032308Y018168D01*
X032325Y018239D01*
X032347Y018309D01*
X032372Y018378D01*
X032401Y018445D01*
X032433Y018510D01*
X032469Y018574D01*
X032509Y018636D01*
X032551Y018695D01*
X032597Y018752D01*
X032646Y018806D01*
X032698Y018858D01*
X032752Y018907D01*
X032809Y018953D01*
X032868Y018995D01*
X032930Y019035D01*
X032994Y019071D01*
X033059Y019103D01*
X033126Y019132D01*
X033195Y019157D01*
X033265Y019179D01*
X033336Y019196D01*
X033408Y019210D01*
X033480Y019220D01*
X033553Y019226D01*
X033626Y019228D01*
X033699Y019226D01*
X033772Y019220D01*
X033844Y019210D01*
X033916Y019196D01*
X033987Y019179D01*
X034057Y019157D01*
X034126Y019132D01*
X034193Y019103D01*
X034258Y019071D01*
X034322Y019035D01*
X034384Y018995D01*
X034443Y018953D01*
X034500Y018907D01*
X034554Y018858D01*
X034606Y018806D01*
X034655Y018752D01*
X034701Y018695D01*
X034743Y018636D01*
X034783Y018574D01*
X034819Y018510D01*
X034851Y018445D01*
X034880Y018378D01*
X034905Y018309D01*
X034927Y018239D01*
X034944Y018168D01*
X034958Y018096D01*
X034968Y018024D01*
X034974Y017951D01*
X034976Y017878D01*
X034974Y017805D01*
X034968Y017732D01*
X034958Y017660D01*
X034944Y017588D01*
X034927Y017517D01*
X034905Y017447D01*
X034880Y017378D01*
X034851Y017311D01*
X034819Y017246D01*
X034783Y017182D01*
X034743Y017120D01*
X034701Y017061D01*
X034655Y017004D01*
X034606Y016950D01*
X034554Y016898D01*
X034500Y016849D01*
X034443Y016803D01*
X034384Y016761D01*
X034322Y016721D01*
X034258Y016685D01*
X034193Y016653D01*
X034126Y016624D01*
X034057Y016599D01*
X033987Y016577D01*
X033916Y016560D01*
X033844Y016546D01*
X033772Y016536D01*
X033699Y016530D01*
X033626Y016528D01*
X033553Y016530D01*
X033480Y016536D01*
X033408Y016546D01*
X033336Y016560D01*
X033265Y016577D01*
X033195Y016599D01*
X033126Y016624D01*
X033059Y016653D01*
X032994Y016685D01*
X032930Y016721D01*
X032868Y016761D01*
X032809Y016803D01*
X032752Y016849D01*
X032698Y016898D01*
X032646Y016950D01*
X032597Y017004D01*
X032551Y017061D01*
X032509Y017120D01*
X032469Y017182D01*
X032433Y017246D01*
X032401Y017311D01*
X032372Y017378D01*
X032347Y017447D01*
X032325Y017517D01*
X032308Y017588D01*
X032294Y017660D01*
X032284Y017732D01*
X032278Y017805D01*
X032276Y017878D01*
X032276Y002130D02*
X032278Y002203D01*
X032284Y002276D01*
X032294Y002348D01*
X032308Y002420D01*
X032325Y002491D01*
X032347Y002561D01*
X032372Y002630D01*
X032401Y002697D01*
X032433Y002762D01*
X032469Y002826D01*
X032509Y002888D01*
X032551Y002947D01*
X032597Y003004D01*
X032646Y003058D01*
X032698Y003110D01*
X032752Y003159D01*
X032809Y003205D01*
X032868Y003247D01*
X032930Y003287D01*
X032994Y003323D01*
X033059Y003355D01*
X033126Y003384D01*
X033195Y003409D01*
X033265Y003431D01*
X033336Y003448D01*
X033408Y003462D01*
X033480Y003472D01*
X033553Y003478D01*
X033626Y003480D01*
X033699Y003478D01*
X033772Y003472D01*
X033844Y003462D01*
X033916Y003448D01*
X033987Y003431D01*
X034057Y003409D01*
X034126Y003384D01*
X034193Y003355D01*
X034258Y003323D01*
X034322Y003287D01*
X034384Y003247D01*
X034443Y003205D01*
X034500Y003159D01*
X034554Y003110D01*
X034606Y003058D01*
X034655Y003004D01*
X034701Y002947D01*
X034743Y002888D01*
X034783Y002826D01*
X034819Y002762D01*
X034851Y002697D01*
X034880Y002630D01*
X034905Y002561D01*
X034927Y002491D01*
X034944Y002420D01*
X034958Y002348D01*
X034968Y002276D01*
X034974Y002203D01*
X034976Y002130D01*
X034974Y002057D01*
X034968Y001984D01*
X034958Y001912D01*
X034944Y001840D01*
X034927Y001769D01*
X034905Y001699D01*
X034880Y001630D01*
X034851Y001563D01*
X034819Y001498D01*
X034783Y001434D01*
X034743Y001372D01*
X034701Y001313D01*
X034655Y001256D01*
X034606Y001202D01*
X034554Y001150D01*
X034500Y001101D01*
X034443Y001055D01*
X034384Y001013D01*
X034322Y000973D01*
X034258Y000937D01*
X034193Y000905D01*
X034126Y000876D01*
X034057Y000851D01*
X033987Y000829D01*
X033916Y000812D01*
X033844Y000798D01*
X033772Y000788D01*
X033699Y000782D01*
X033626Y000780D01*
X033553Y000782D01*
X033480Y000788D01*
X033408Y000798D01*
X033336Y000812D01*
X033265Y000829D01*
X033195Y000851D01*
X033126Y000876D01*
X033059Y000905D01*
X032994Y000937D01*
X032930Y000973D01*
X032868Y001013D01*
X032809Y001055D01*
X032752Y001101D01*
X032698Y001150D01*
X032646Y001202D01*
X032597Y001256D01*
X032551Y001313D01*
X032509Y001372D01*
X032469Y001434D01*
X032433Y001498D01*
X032401Y001563D01*
X032372Y001630D01*
X032347Y001699D01*
X032325Y001769D01*
X032308Y001840D01*
X032294Y001912D01*
X032284Y001984D01*
X032278Y002057D01*
X032276Y002130D01*
D12*
X001441Y002130D02*
X001443Y002182D01*
X001449Y002234D01*
X001459Y002285D01*
X001472Y002335D01*
X001490Y002385D01*
X001511Y002432D01*
X001535Y002478D01*
X001564Y002522D01*
X001595Y002564D01*
X001629Y002603D01*
X001666Y002640D01*
X001706Y002673D01*
X001749Y002704D01*
X001793Y002731D01*
X001839Y002755D01*
X001888Y002775D01*
X001937Y002791D01*
X001988Y002804D01*
X002039Y002813D01*
X002091Y002818D01*
X002143Y002819D01*
X002195Y002816D01*
X002247Y002809D01*
X002298Y002798D01*
X002348Y002784D01*
X002397Y002765D01*
X002444Y002743D01*
X002489Y002718D01*
X002533Y002689D01*
X002574Y002657D01*
X002613Y002622D01*
X002648Y002584D01*
X002681Y002543D01*
X002711Y002501D01*
X002737Y002456D01*
X002760Y002409D01*
X002779Y002360D01*
X002795Y002310D01*
X002807Y002260D01*
X002815Y002208D01*
X002819Y002156D01*
X002819Y002104D01*
X002815Y002052D01*
X002807Y002000D01*
X002795Y001950D01*
X002779Y001900D01*
X002760Y001851D01*
X002737Y001804D01*
X002711Y001759D01*
X002681Y001717D01*
X002648Y001676D01*
X002613Y001638D01*
X002574Y001603D01*
X002533Y001571D01*
X002489Y001542D01*
X002444Y001517D01*
X002397Y001495D01*
X002348Y001476D01*
X002298Y001462D01*
X002247Y001451D01*
X002195Y001444D01*
X002143Y001441D01*
X002091Y001442D01*
X002039Y001447D01*
X001988Y001456D01*
X001937Y001469D01*
X001888Y001485D01*
X001839Y001505D01*
X001793Y001529D01*
X001749Y001556D01*
X001706Y001587D01*
X001666Y001620D01*
X001629Y001657D01*
X001595Y001696D01*
X001564Y001738D01*
X001535Y001782D01*
X001511Y001828D01*
X001490Y001875D01*
X001472Y001925D01*
X001459Y001975D01*
X001449Y002026D01*
X001443Y002078D01*
X001441Y002130D01*
X002273Y005732D02*
X002773Y005732D01*
X003023Y005982D01*
X003023Y006482D01*
X002773Y006732D01*
X003023Y006982D01*
X003023Y007482D01*
X002773Y007732D01*
X003023Y007982D01*
X003023Y008482D01*
X002773Y008732D01*
X002273Y008732D01*
X002023Y008482D01*
X002023Y007982D01*
X002273Y007732D01*
X002023Y007482D01*
X002023Y006982D01*
X002273Y006732D01*
X002023Y006482D01*
X002023Y005982D01*
X002273Y005732D01*
X004386Y005998D02*
X004636Y005748D01*
X005136Y005748D01*
X005386Y005998D01*
X005386Y006498D01*
X005136Y006748D01*
X005386Y006998D01*
X005386Y007498D01*
X005136Y007748D01*
X004636Y007748D01*
X004386Y007498D01*
X004386Y006998D01*
X004636Y006748D01*
X004386Y006498D01*
X004386Y005998D01*
X007996Y008331D02*
X007998Y008343D01*
X008003Y008354D01*
X008012Y008363D01*
X008023Y008368D01*
X008035Y008370D01*
X008047Y008368D01*
X008058Y008363D01*
X008067Y008354D01*
X008072Y008343D01*
X008074Y008331D01*
X008072Y008319D01*
X008067Y008308D01*
X008058Y008299D01*
X008047Y008294D01*
X008035Y008292D01*
X008023Y008294D01*
X008012Y008299D01*
X008003Y008308D01*
X007998Y008319D01*
X007996Y008331D01*
X010673Y008527D02*
X010675Y008539D01*
X010680Y008550D01*
X010689Y008559D01*
X010700Y008564D01*
X010712Y008566D01*
X010724Y008564D01*
X010735Y008559D01*
X010744Y008550D01*
X010749Y008539D01*
X010751Y008527D01*
X010749Y008515D01*
X010744Y008504D01*
X010735Y008495D01*
X010724Y008490D01*
X010712Y008488D01*
X010700Y008490D01*
X010689Y008495D01*
X010680Y008504D01*
X010675Y008515D01*
X010673Y008527D01*
X012523Y007937D02*
X012525Y007949D01*
X012531Y007961D01*
X012539Y007969D01*
X012551Y007975D01*
X012563Y007977D01*
X012575Y007975D01*
X012587Y007969D01*
X012595Y007961D01*
X012601Y007949D01*
X012603Y007937D01*
X012601Y007925D01*
X012595Y007913D01*
X012587Y007905D01*
X012575Y007899D01*
X012563Y007897D01*
X012551Y007899D01*
X012539Y007905D01*
X012531Y007913D01*
X012525Y007925D01*
X012523Y007937D01*
X015672Y007937D02*
X015674Y007949D01*
X015680Y007961D01*
X015688Y007969D01*
X015700Y007975D01*
X015712Y007977D01*
X015724Y007975D01*
X015736Y007969D01*
X015744Y007961D01*
X015750Y007949D01*
X015752Y007937D01*
X015750Y007925D01*
X015744Y007913D01*
X015736Y007905D01*
X015724Y007899D01*
X015712Y007897D01*
X015700Y007899D01*
X015688Y007905D01*
X015680Y007913D01*
X015674Y007925D01*
X015672Y007937D01*
X017050Y009905D02*
X017052Y009917D01*
X017058Y009929D01*
X017066Y009937D01*
X017078Y009943D01*
X017090Y009945D01*
X017102Y009943D01*
X017114Y009937D01*
X017122Y009929D01*
X017128Y009917D01*
X017130Y009905D01*
X017128Y009893D01*
X017122Y009881D01*
X017114Y009873D01*
X017102Y009867D01*
X017090Y009865D01*
X017078Y009867D01*
X017066Y009873D01*
X017058Y009881D01*
X017052Y009893D01*
X017050Y009905D01*
X017444Y011382D02*
X017446Y011394D01*
X017452Y011406D01*
X017460Y011414D01*
X017472Y011420D01*
X017484Y011422D01*
X017496Y011420D01*
X017508Y011414D01*
X017516Y011406D01*
X017522Y011394D01*
X017524Y011382D01*
X017522Y011370D01*
X017516Y011358D01*
X017508Y011350D01*
X017496Y011344D01*
X017484Y011342D01*
X017472Y011344D01*
X017460Y011350D01*
X017452Y011358D01*
X017446Y011370D01*
X017444Y011382D01*
X020200Y011972D02*
X020202Y011984D01*
X020208Y011996D01*
X020216Y012004D01*
X020228Y012010D01*
X020240Y012012D01*
X020252Y012010D01*
X020264Y012004D01*
X020272Y011996D01*
X020278Y011984D01*
X020280Y011972D01*
X020278Y011960D01*
X020272Y011948D01*
X020264Y011940D01*
X020252Y011934D01*
X020240Y011932D01*
X020228Y011934D01*
X020216Y011940D01*
X020208Y011948D01*
X020202Y011960D01*
X020200Y011972D01*
X020240Y012169D02*
X020240Y013350D01*
X021224Y014334D02*
X022012Y014334D01*
X022012Y015122D02*
X021224Y015122D01*
X021086Y015220D02*
X021088Y015232D01*
X021094Y015244D01*
X021102Y015252D01*
X021114Y015258D01*
X021126Y015260D01*
X021138Y015258D01*
X021150Y015252D01*
X021158Y015244D01*
X021164Y015232D01*
X021166Y015220D01*
X021164Y015208D01*
X021158Y015196D01*
X021150Y015188D01*
X021138Y015182D01*
X021126Y015180D01*
X021114Y015182D01*
X021102Y015188D01*
X021094Y015196D01*
X021088Y015208D01*
X021086Y015220D01*
X021815Y013350D02*
X021815Y012169D01*
X024235Y010890D02*
X024237Y010902D01*
X024243Y010914D01*
X024251Y010922D01*
X024263Y010928D01*
X024275Y010930D01*
X024287Y010928D01*
X024299Y010922D01*
X024307Y010914D01*
X024313Y010902D01*
X024315Y010890D01*
X024313Y010878D01*
X024307Y010866D01*
X024299Y010858D01*
X024287Y010852D01*
X024275Y010850D01*
X024263Y010852D01*
X024251Y010858D01*
X024243Y010866D01*
X024237Y010878D01*
X024235Y010890D01*
X027583Y011382D02*
X027585Y011394D01*
X027590Y011405D01*
X027599Y011414D01*
X027610Y011419D01*
X027622Y011421D01*
X027634Y011419D01*
X027645Y011414D01*
X027654Y011405D01*
X027659Y011394D01*
X027661Y011382D01*
X027659Y011370D01*
X027654Y011359D01*
X027645Y011350D01*
X027634Y011345D01*
X027622Y011343D01*
X027610Y011345D01*
X027599Y011350D01*
X027590Y011359D01*
X027585Y011370D01*
X027583Y011382D01*
X025121Y007937D02*
X025123Y007949D01*
X025129Y007961D01*
X025137Y007969D01*
X025149Y007975D01*
X025161Y007977D01*
X025173Y007975D01*
X025185Y007969D01*
X025193Y007961D01*
X025199Y007949D01*
X025201Y007937D01*
X025199Y007925D01*
X025193Y007913D01*
X025185Y007905D01*
X025173Y007899D01*
X025161Y007897D01*
X025149Y007899D01*
X025137Y007905D01*
X025129Y007913D01*
X025123Y007925D01*
X025121Y007937D01*
X021972Y007937D02*
X021974Y007949D01*
X021980Y007961D01*
X021988Y007969D01*
X022000Y007975D01*
X022012Y007977D01*
X022024Y007975D01*
X022036Y007969D01*
X022044Y007961D01*
X022050Y007949D01*
X022052Y007937D01*
X022050Y007925D01*
X022044Y007913D01*
X022036Y007905D01*
X022024Y007899D01*
X022012Y007897D01*
X022000Y007899D01*
X021988Y007905D01*
X021980Y007913D01*
X021974Y007925D01*
X021972Y007937D01*
X018822Y007937D02*
X018824Y007949D01*
X018830Y007961D01*
X018838Y007969D01*
X018850Y007975D01*
X018862Y007977D01*
X018874Y007975D01*
X018886Y007969D01*
X018894Y007961D01*
X018900Y007949D01*
X018902Y007937D01*
X018900Y007925D01*
X018894Y007913D01*
X018886Y007905D01*
X018874Y007899D01*
X018862Y007897D01*
X018850Y007899D01*
X018838Y007905D01*
X018830Y007913D01*
X018824Y007925D01*
X018822Y007937D01*
X024555Y004067D02*
X024555Y003901D01*
X024555Y004067D02*
X024909Y004067D01*
X024909Y001768D01*
X024563Y001768D01*
X024563Y001933D01*
X024421Y002209D02*
X024453Y002213D01*
X024484Y002220D01*
X024514Y002231D01*
X024543Y002246D01*
X024571Y002263D01*
X024596Y002284D01*
X024618Y002307D01*
X024638Y002332D01*
X024655Y002360D01*
X024668Y002389D01*
X024679Y002420D01*
X024686Y002451D01*
X024689Y002483D01*
X024688Y002516D01*
X024689Y002516D02*
X024689Y003303D01*
X024689Y003311D02*
X024687Y003344D01*
X024681Y003377D01*
X024672Y003409D01*
X024660Y003440D01*
X024644Y003470D01*
X024626Y003498D01*
X024604Y003523D01*
X024581Y003547D01*
X024554Y003567D01*
X024526Y003585D01*
X024496Y003600D01*
X024465Y003612D01*
X024432Y003620D01*
X024399Y003625D01*
X024366Y003626D01*
X032937Y002130D02*
X032939Y002182D01*
X032945Y002234D01*
X032955Y002285D01*
X032968Y002335D01*
X032986Y002385D01*
X033007Y002432D01*
X033031Y002478D01*
X033060Y002522D01*
X033091Y002564D01*
X033125Y002603D01*
X033162Y002640D01*
X033202Y002673D01*
X033245Y002704D01*
X033289Y002731D01*
X033335Y002755D01*
X033384Y002775D01*
X033433Y002791D01*
X033484Y002804D01*
X033535Y002813D01*
X033587Y002818D01*
X033639Y002819D01*
X033691Y002816D01*
X033743Y002809D01*
X033794Y002798D01*
X033844Y002784D01*
X033893Y002765D01*
X033940Y002743D01*
X033985Y002718D01*
X034029Y002689D01*
X034070Y002657D01*
X034109Y002622D01*
X034144Y002584D01*
X034177Y002543D01*
X034207Y002501D01*
X034233Y002456D01*
X034256Y002409D01*
X034275Y002360D01*
X034291Y002310D01*
X034303Y002260D01*
X034311Y002208D01*
X034315Y002156D01*
X034315Y002104D01*
X034311Y002052D01*
X034303Y002000D01*
X034291Y001950D01*
X034275Y001900D01*
X034256Y001851D01*
X034233Y001804D01*
X034207Y001759D01*
X034177Y001717D01*
X034144Y001676D01*
X034109Y001638D01*
X034070Y001603D01*
X034029Y001571D01*
X033985Y001542D01*
X033940Y001517D01*
X033893Y001495D01*
X033844Y001476D01*
X033794Y001462D01*
X033743Y001451D01*
X033691Y001444D01*
X033639Y001441D01*
X033587Y001442D01*
X033535Y001447D01*
X033484Y001456D01*
X033433Y001469D01*
X033384Y001485D01*
X033335Y001505D01*
X033289Y001529D01*
X033245Y001556D01*
X033202Y001587D01*
X033162Y001620D01*
X033125Y001657D01*
X033091Y001696D01*
X033060Y001738D01*
X033031Y001782D01*
X033007Y001828D01*
X032986Y001875D01*
X032968Y001925D01*
X032955Y001975D01*
X032945Y002026D01*
X032939Y002078D01*
X032937Y002130D01*
X017444Y013842D02*
X017446Y013854D01*
X017452Y013866D01*
X017460Y013874D01*
X017472Y013880D01*
X017484Y013882D01*
X017496Y013880D01*
X017508Y013874D01*
X017516Y013866D01*
X017522Y013854D01*
X017524Y013842D01*
X017522Y013830D01*
X017516Y013818D01*
X017508Y013810D01*
X017496Y013804D01*
X017484Y013802D01*
X017472Y013804D01*
X017460Y013810D01*
X017452Y013818D01*
X017446Y013830D01*
X017444Y013842D01*
X018015Y016008D02*
X018017Y016020D01*
X018023Y016032D01*
X018031Y016040D01*
X018043Y016046D01*
X018055Y016048D01*
X018067Y016046D01*
X018079Y016040D01*
X018087Y016032D01*
X018093Y016020D01*
X018095Y016008D01*
X018093Y015996D01*
X018087Y015984D01*
X018079Y015976D01*
X018067Y015970D01*
X018055Y015968D01*
X018043Y015970D01*
X018031Y015976D01*
X018023Y015984D01*
X018017Y015996D01*
X018015Y016008D01*
X013310Y012071D02*
X013312Y012083D01*
X013318Y012095D01*
X013326Y012103D01*
X013338Y012109D01*
X013350Y012111D01*
X013362Y012109D01*
X013374Y012103D01*
X013382Y012095D01*
X013388Y012083D01*
X013390Y012071D01*
X013388Y012059D01*
X013382Y012047D01*
X013374Y012039D01*
X013362Y012033D01*
X013350Y012031D01*
X013338Y012033D01*
X013326Y012039D01*
X013318Y012047D01*
X013312Y012059D01*
X013310Y012071D01*
X008882Y010496D02*
X008884Y010508D01*
X008889Y010519D01*
X008898Y010528D01*
X008909Y010533D01*
X008921Y010535D01*
X008933Y010533D01*
X008944Y010528D01*
X008953Y010519D01*
X008958Y010508D01*
X008960Y010496D01*
X008958Y010484D01*
X008953Y010473D01*
X008944Y010464D01*
X008933Y010459D01*
X008921Y010457D01*
X008909Y010459D01*
X008898Y010464D01*
X008889Y010473D01*
X008884Y010484D01*
X008882Y010496D01*
X003523Y010372D02*
X001523Y010372D01*
X001523Y010722D01*
X003523Y010722D02*
X003523Y010372D01*
X003523Y013222D02*
X003523Y013572D01*
X001523Y013572D01*
X001523Y013222D01*
X006716Y017681D02*
X006718Y017693D01*
X006724Y017705D01*
X006732Y017713D01*
X006744Y017719D01*
X006756Y017721D01*
X006768Y017719D01*
X006780Y017713D01*
X006788Y017705D01*
X006794Y017693D01*
X006796Y017681D01*
X006794Y017669D01*
X006788Y017657D01*
X006780Y017649D01*
X006768Y017643D01*
X006756Y017641D01*
X006744Y017643D01*
X006732Y017649D01*
X006724Y017657D01*
X006718Y017669D01*
X006716Y017681D01*
X001441Y017878D02*
X001443Y017930D01*
X001449Y017982D01*
X001459Y018033D01*
X001472Y018083D01*
X001490Y018133D01*
X001511Y018180D01*
X001535Y018226D01*
X001564Y018270D01*
X001595Y018312D01*
X001629Y018351D01*
X001666Y018388D01*
X001706Y018421D01*
X001749Y018452D01*
X001793Y018479D01*
X001839Y018503D01*
X001888Y018523D01*
X001937Y018539D01*
X001988Y018552D01*
X002039Y018561D01*
X002091Y018566D01*
X002143Y018567D01*
X002195Y018564D01*
X002247Y018557D01*
X002298Y018546D01*
X002348Y018532D01*
X002397Y018513D01*
X002444Y018491D01*
X002489Y018466D01*
X002533Y018437D01*
X002574Y018405D01*
X002613Y018370D01*
X002648Y018332D01*
X002681Y018291D01*
X002711Y018249D01*
X002737Y018204D01*
X002760Y018157D01*
X002779Y018108D01*
X002795Y018058D01*
X002807Y018008D01*
X002815Y017956D01*
X002819Y017904D01*
X002819Y017852D01*
X002815Y017800D01*
X002807Y017748D01*
X002795Y017698D01*
X002779Y017648D01*
X002760Y017599D01*
X002737Y017552D01*
X002711Y017507D01*
X002681Y017465D01*
X002648Y017424D01*
X002613Y017386D01*
X002574Y017351D01*
X002533Y017319D01*
X002489Y017290D01*
X002444Y017265D01*
X002397Y017243D01*
X002348Y017224D01*
X002298Y017210D01*
X002247Y017199D01*
X002195Y017192D01*
X002143Y017189D01*
X002091Y017190D01*
X002039Y017195D01*
X001988Y017204D01*
X001937Y017217D01*
X001888Y017233D01*
X001839Y017253D01*
X001793Y017277D01*
X001749Y017304D01*
X001706Y017335D01*
X001666Y017368D01*
X001629Y017405D01*
X001595Y017444D01*
X001564Y017486D01*
X001535Y017530D01*
X001511Y017576D01*
X001490Y017623D01*
X001472Y017673D01*
X001459Y017723D01*
X001449Y017774D01*
X001443Y017826D01*
X001441Y017878D01*
X010862Y004067D02*
X010862Y001768D01*
X011201Y001768D01*
X011201Y001933D01*
X011067Y002531D02*
X011067Y003319D01*
X011067Y003318D02*
X011066Y003351D01*
X011069Y003383D01*
X011076Y003414D01*
X011087Y003445D01*
X011100Y003474D01*
X011117Y003502D01*
X011137Y003527D01*
X011159Y003550D01*
X011184Y003571D01*
X011212Y003588D01*
X011241Y003603D01*
X011271Y003614D01*
X011302Y003621D01*
X011334Y003625D01*
X011193Y003901D02*
X011193Y004067D01*
X010862Y004067D01*
X011067Y002523D02*
X011069Y002490D01*
X011075Y002457D01*
X011084Y002425D01*
X011096Y002394D01*
X011112Y002364D01*
X011130Y002336D01*
X011152Y002311D01*
X011175Y002287D01*
X011202Y002267D01*
X011230Y002249D01*
X011260Y002234D01*
X011291Y002222D01*
X011324Y002214D01*
X011357Y002209D01*
X011390Y002208D01*
X032937Y017878D02*
X032939Y017930D01*
X032945Y017982D01*
X032955Y018033D01*
X032968Y018083D01*
X032986Y018133D01*
X033007Y018180D01*
X033031Y018226D01*
X033060Y018270D01*
X033091Y018312D01*
X033125Y018351D01*
X033162Y018388D01*
X033202Y018421D01*
X033245Y018452D01*
X033289Y018479D01*
X033335Y018503D01*
X033384Y018523D01*
X033433Y018539D01*
X033484Y018552D01*
X033535Y018561D01*
X033587Y018566D01*
X033639Y018567D01*
X033691Y018564D01*
X033743Y018557D01*
X033794Y018546D01*
X033844Y018532D01*
X033893Y018513D01*
X033940Y018491D01*
X033985Y018466D01*
X034029Y018437D01*
X034070Y018405D01*
X034109Y018370D01*
X034144Y018332D01*
X034177Y018291D01*
X034207Y018249D01*
X034233Y018204D01*
X034256Y018157D01*
X034275Y018108D01*
X034291Y018058D01*
X034303Y018008D01*
X034311Y017956D01*
X034315Y017904D01*
X034315Y017852D01*
X034311Y017800D01*
X034303Y017748D01*
X034291Y017698D01*
X034275Y017648D01*
X034256Y017599D01*
X034233Y017552D01*
X034207Y017507D01*
X034177Y017465D01*
X034144Y017424D01*
X034109Y017386D01*
X034070Y017351D01*
X034029Y017319D01*
X033985Y017290D01*
X033940Y017265D01*
X033893Y017243D01*
X033844Y017224D01*
X033794Y017210D01*
X033743Y017199D01*
X033691Y017192D01*
X033639Y017189D01*
X033587Y017190D01*
X033535Y017195D01*
X033484Y017204D01*
X033433Y017217D01*
X033384Y017233D01*
X033335Y017253D01*
X033289Y017277D01*
X033245Y017304D01*
X033202Y017335D01*
X033162Y017368D01*
X033125Y017405D01*
X033091Y017444D01*
X033060Y017486D01*
X033031Y017530D01*
X033007Y017576D01*
X032986Y017623D01*
X032968Y017673D01*
X032955Y017723D01*
X032945Y017774D01*
X032939Y017826D01*
X032937Y017878D01*
D13*
X029827Y018527D02*
X029827Y020240D01*
X028901Y021027D02*
X025752Y021027D01*
X024827Y020240D02*
X024827Y018527D01*
X029827Y018527D01*
X011037Y012504D02*
X011037Y010063D01*
X010929Y009955D01*
X008488Y009955D01*
X008380Y010063D01*
X008380Y012504D01*
X008488Y012612D01*
X010929Y012612D01*
X011037Y012504D01*
D14*
X015023Y011382D03*
X020142Y014433D03*
X022799Y014925D03*
X023980Y014728D03*
X029098Y011775D03*
X026834Y007248D03*
X023685Y007248D03*
X020535Y007248D03*
X017386Y007248D03*
X014236Y007248D03*
X005378Y015319D03*
X004590Y015319D03*
X007051Y016500D03*
X007838Y016500D03*
D15*
X008429Y013756D02*
X008429Y013732D01*
X012366Y012673D02*
X012366Y012649D01*
X015799Y012071D02*
X015823Y012071D01*
X017386Y013141D02*
X017386Y013165D01*
X018063Y011283D02*
X018087Y011283D01*
X023193Y010606D02*
X023193Y010582D01*
X025838Y010890D02*
X025862Y010890D01*
X027031Y011960D02*
X027031Y011984D01*
X023992Y013547D02*
X023968Y013547D01*
X019748Y015504D02*
X019748Y015528D01*
X011098Y007937D02*
X011074Y007937D01*
X010004Y006965D02*
X010004Y006941D01*
X008343Y006362D02*
X008319Y006362D01*
X007555Y006362D02*
X007531Y006362D01*
D16*
X004170Y021546D03*
X001808Y021546D03*
X033698Y021546D03*
D17*
X008527Y007346D03*
X007346Y007346D03*
X004984Y009118D03*
X004984Y010594D03*
X004886Y013252D03*
X004886Y014039D03*
D18*
X023291Y008382D03*
X023291Y008082D03*
X026244Y008082D03*
X026244Y008382D03*
D19*
X003423Y010472D03*
M02*
