G75*
G70*
%OFA0B0*%
%FSLAX24Y24*%
%IPPOS*%
%LPD*%
%AMOC8*
5,1,8,0,0,1.08239X$1,22.5*
%
%ADD10C,0.0000*%
D10*
X000161Y000161D02*
X035594Y000161D01*
X035594Y003311D01*
X034413Y004492D01*
X034413Y015516D01*
X035594Y016697D01*
X035594Y022209D01*
X000161Y022209D01*
X000161Y000161D01*
X001480Y002130D02*
X001482Y002180D01*
X001488Y002230D01*
X001498Y002280D01*
X001511Y002328D01*
X001528Y002376D01*
X001549Y002422D01*
X001573Y002466D01*
X001601Y002508D01*
X001632Y002548D01*
X001666Y002585D01*
X001703Y002620D01*
X001742Y002651D01*
X001783Y002680D01*
X001827Y002705D01*
X001873Y002727D01*
X001920Y002745D01*
X001968Y002759D01*
X002017Y002770D01*
X002067Y002777D01*
X002117Y002780D01*
X002168Y002779D01*
X002218Y002774D01*
X002268Y002765D01*
X002316Y002753D01*
X002364Y002736D01*
X002410Y002716D01*
X002455Y002693D01*
X002498Y002666D01*
X002538Y002636D01*
X002576Y002603D01*
X002611Y002567D01*
X002644Y002528D01*
X002673Y002487D01*
X002699Y002444D01*
X002722Y002399D01*
X002741Y002352D01*
X002756Y002304D01*
X002768Y002255D01*
X002776Y002205D01*
X002780Y002155D01*
X002780Y002105D01*
X002776Y002055D01*
X002768Y002005D01*
X002756Y001956D01*
X002741Y001908D01*
X002722Y001861D01*
X002699Y001816D01*
X002673Y001773D01*
X002644Y001732D01*
X002611Y001693D01*
X002576Y001657D01*
X002538Y001624D01*
X002498Y001594D01*
X002455Y001567D01*
X002410Y001544D01*
X002364Y001524D01*
X002316Y001507D01*
X002268Y001495D01*
X002218Y001486D01*
X002168Y001481D01*
X002117Y001480D01*
X002067Y001483D01*
X002017Y001490D01*
X001968Y001501D01*
X001920Y001515D01*
X001873Y001533D01*
X001827Y001555D01*
X001783Y001580D01*
X001742Y001609D01*
X001703Y001640D01*
X001666Y001675D01*
X001632Y001712D01*
X001601Y001752D01*
X001573Y001794D01*
X001549Y001838D01*
X001528Y001884D01*
X001511Y001932D01*
X001498Y001980D01*
X001488Y002030D01*
X001482Y002080D01*
X001480Y002130D01*
X010830Y002917D02*
X010832Y002950D01*
X010838Y002982D01*
X010847Y003013D01*
X010860Y003043D01*
X010877Y003071D01*
X010897Y003097D01*
X010920Y003121D01*
X010945Y003141D01*
X010973Y003159D01*
X011002Y003173D01*
X011033Y003183D01*
X011065Y003190D01*
X011098Y003193D01*
X011131Y003192D01*
X011163Y003187D01*
X011194Y003178D01*
X011225Y003166D01*
X011253Y003150D01*
X011280Y003131D01*
X011304Y003109D01*
X011325Y003084D01*
X011344Y003057D01*
X011359Y003028D01*
X011370Y002998D01*
X011378Y002966D01*
X011382Y002933D01*
X011382Y002901D01*
X011378Y002868D01*
X011370Y002836D01*
X011359Y002806D01*
X011344Y002777D01*
X011325Y002750D01*
X011304Y002725D01*
X011280Y002703D01*
X011253Y002684D01*
X011225Y002668D01*
X011194Y002656D01*
X011163Y002647D01*
X011131Y002642D01*
X011098Y002641D01*
X011065Y002644D01*
X011033Y002651D01*
X011002Y002661D01*
X010973Y002675D01*
X010945Y002693D01*
X010920Y002713D01*
X010897Y002737D01*
X010877Y002763D01*
X010860Y002791D01*
X010847Y002821D01*
X010838Y002852D01*
X010832Y002884D01*
X010830Y002917D01*
X002338Y011222D02*
X002340Y011249D01*
X002346Y011275D01*
X002355Y011301D01*
X002369Y011324D01*
X002385Y011345D01*
X002405Y011364D01*
X002427Y011380D01*
X002451Y011392D01*
X002476Y011401D01*
X002503Y011406D01*
X002530Y011407D01*
X002557Y011404D01*
X002583Y011397D01*
X002608Y011387D01*
X002631Y011372D01*
X002651Y011355D01*
X002669Y011335D01*
X002684Y011313D01*
X002696Y011288D01*
X002704Y011262D01*
X002708Y011236D01*
X002708Y011208D01*
X002704Y011182D01*
X002696Y011156D01*
X002684Y011131D01*
X002669Y011109D01*
X002651Y011089D01*
X002631Y011072D01*
X002608Y011057D01*
X002583Y011047D01*
X002557Y011040D01*
X002530Y011037D01*
X002503Y011038D01*
X002476Y011043D01*
X002451Y011052D01*
X002427Y011064D01*
X002405Y011080D01*
X002385Y011099D01*
X002369Y011120D01*
X002355Y011143D01*
X002346Y011169D01*
X002340Y011195D01*
X002338Y011222D01*
X002338Y012722D02*
X002340Y012749D01*
X002346Y012775D01*
X002355Y012801D01*
X002369Y012824D01*
X002385Y012845D01*
X002405Y012864D01*
X002427Y012880D01*
X002451Y012892D01*
X002476Y012901D01*
X002503Y012906D01*
X002530Y012907D01*
X002557Y012904D01*
X002583Y012897D01*
X002608Y012887D01*
X002631Y012872D01*
X002651Y012855D01*
X002669Y012835D01*
X002684Y012813D01*
X002696Y012788D01*
X002704Y012762D01*
X002708Y012736D01*
X002708Y012708D01*
X002704Y012682D01*
X002696Y012656D01*
X002684Y012631D01*
X002669Y012609D01*
X002651Y012589D01*
X002631Y012572D01*
X002608Y012557D01*
X002583Y012547D01*
X002557Y012540D01*
X002530Y012537D01*
X002503Y012538D01*
X002476Y012543D01*
X002451Y012552D01*
X002427Y012564D01*
X002405Y012580D01*
X002385Y012599D01*
X002369Y012620D01*
X002355Y012643D01*
X002346Y012669D01*
X002340Y012695D01*
X002338Y012722D01*
X001480Y017878D02*
X001482Y017928D01*
X001488Y017978D01*
X001498Y018028D01*
X001511Y018076D01*
X001528Y018124D01*
X001549Y018170D01*
X001573Y018214D01*
X001601Y018256D01*
X001632Y018296D01*
X001666Y018333D01*
X001703Y018368D01*
X001742Y018399D01*
X001783Y018428D01*
X001827Y018453D01*
X001873Y018475D01*
X001920Y018493D01*
X001968Y018507D01*
X002017Y018518D01*
X002067Y018525D01*
X002117Y018528D01*
X002168Y018527D01*
X002218Y018522D01*
X002268Y018513D01*
X002316Y018501D01*
X002364Y018484D01*
X002410Y018464D01*
X002455Y018441D01*
X002498Y018414D01*
X002538Y018384D01*
X002576Y018351D01*
X002611Y018315D01*
X002644Y018276D01*
X002673Y018235D01*
X002699Y018192D01*
X002722Y018147D01*
X002741Y018100D01*
X002756Y018052D01*
X002768Y018003D01*
X002776Y017953D01*
X002780Y017903D01*
X002780Y017853D01*
X002776Y017803D01*
X002768Y017753D01*
X002756Y017704D01*
X002741Y017656D01*
X002722Y017609D01*
X002699Y017564D01*
X002673Y017521D01*
X002644Y017480D01*
X002611Y017441D01*
X002576Y017405D01*
X002538Y017372D01*
X002498Y017342D01*
X002455Y017315D01*
X002410Y017292D01*
X002364Y017272D01*
X002316Y017255D01*
X002268Y017243D01*
X002218Y017234D01*
X002168Y017229D01*
X002117Y017228D01*
X002067Y017231D01*
X002017Y017238D01*
X001968Y017249D01*
X001920Y017263D01*
X001873Y017281D01*
X001827Y017303D01*
X001783Y017328D01*
X001742Y017357D01*
X001703Y017388D01*
X001666Y017423D01*
X001632Y017460D01*
X001601Y017500D01*
X001573Y017542D01*
X001549Y017586D01*
X001528Y017632D01*
X001511Y017680D01*
X001498Y017728D01*
X001488Y017778D01*
X001482Y017828D01*
X001480Y017878D01*
X024373Y002917D02*
X024375Y002950D01*
X024381Y002982D01*
X024390Y003013D01*
X024403Y003043D01*
X024420Y003071D01*
X024440Y003097D01*
X024463Y003121D01*
X024488Y003141D01*
X024516Y003159D01*
X024545Y003173D01*
X024576Y003183D01*
X024608Y003190D01*
X024641Y003193D01*
X024674Y003192D01*
X024706Y003187D01*
X024737Y003178D01*
X024768Y003166D01*
X024796Y003150D01*
X024823Y003131D01*
X024847Y003109D01*
X024868Y003084D01*
X024887Y003057D01*
X024902Y003028D01*
X024913Y002998D01*
X024921Y002966D01*
X024925Y002933D01*
X024925Y002901D01*
X024921Y002868D01*
X024913Y002836D01*
X024902Y002806D01*
X024887Y002777D01*
X024868Y002750D01*
X024847Y002725D01*
X024823Y002703D01*
X024796Y002684D01*
X024768Y002668D01*
X024737Y002656D01*
X024706Y002647D01*
X024674Y002642D01*
X024641Y002641D01*
X024608Y002644D01*
X024576Y002651D01*
X024545Y002661D01*
X024516Y002675D01*
X024488Y002693D01*
X024463Y002713D01*
X024440Y002737D01*
X024420Y002763D01*
X024403Y002791D01*
X024390Y002821D01*
X024381Y002852D01*
X024375Y002884D01*
X024373Y002917D01*
X032976Y002130D02*
X032978Y002180D01*
X032984Y002230D01*
X032994Y002280D01*
X033007Y002328D01*
X033024Y002376D01*
X033045Y002422D01*
X033069Y002466D01*
X033097Y002508D01*
X033128Y002548D01*
X033162Y002585D01*
X033199Y002620D01*
X033238Y002651D01*
X033279Y002680D01*
X033323Y002705D01*
X033369Y002727D01*
X033416Y002745D01*
X033464Y002759D01*
X033513Y002770D01*
X033563Y002777D01*
X033613Y002780D01*
X033664Y002779D01*
X033714Y002774D01*
X033764Y002765D01*
X033812Y002753D01*
X033860Y002736D01*
X033906Y002716D01*
X033951Y002693D01*
X033994Y002666D01*
X034034Y002636D01*
X034072Y002603D01*
X034107Y002567D01*
X034140Y002528D01*
X034169Y002487D01*
X034195Y002444D01*
X034218Y002399D01*
X034237Y002352D01*
X034252Y002304D01*
X034264Y002255D01*
X034272Y002205D01*
X034276Y002155D01*
X034276Y002105D01*
X034272Y002055D01*
X034264Y002005D01*
X034252Y001956D01*
X034237Y001908D01*
X034218Y001861D01*
X034195Y001816D01*
X034169Y001773D01*
X034140Y001732D01*
X034107Y001693D01*
X034072Y001657D01*
X034034Y001624D01*
X033994Y001594D01*
X033951Y001567D01*
X033906Y001544D01*
X033860Y001524D01*
X033812Y001507D01*
X033764Y001495D01*
X033714Y001486D01*
X033664Y001481D01*
X033613Y001480D01*
X033563Y001483D01*
X033513Y001490D01*
X033464Y001501D01*
X033416Y001515D01*
X033369Y001533D01*
X033323Y001555D01*
X033279Y001580D01*
X033238Y001609D01*
X033199Y001640D01*
X033162Y001675D01*
X033128Y001712D01*
X033097Y001752D01*
X033069Y001794D01*
X033045Y001838D01*
X033024Y001884D01*
X033007Y001932D01*
X032994Y001980D01*
X032984Y002030D01*
X032978Y002080D01*
X032976Y002130D01*
X032976Y017878D02*
X032978Y017928D01*
X032984Y017978D01*
X032994Y018028D01*
X033007Y018076D01*
X033024Y018124D01*
X033045Y018170D01*
X033069Y018214D01*
X033097Y018256D01*
X033128Y018296D01*
X033162Y018333D01*
X033199Y018368D01*
X033238Y018399D01*
X033279Y018428D01*
X033323Y018453D01*
X033369Y018475D01*
X033416Y018493D01*
X033464Y018507D01*
X033513Y018518D01*
X033563Y018525D01*
X033613Y018528D01*
X033664Y018527D01*
X033714Y018522D01*
X033764Y018513D01*
X033812Y018501D01*
X033860Y018484D01*
X033906Y018464D01*
X033951Y018441D01*
X033994Y018414D01*
X034034Y018384D01*
X034072Y018351D01*
X034107Y018315D01*
X034140Y018276D01*
X034169Y018235D01*
X034195Y018192D01*
X034218Y018147D01*
X034237Y018100D01*
X034252Y018052D01*
X034264Y018003D01*
X034272Y017953D01*
X034276Y017903D01*
X034276Y017853D01*
X034272Y017803D01*
X034264Y017753D01*
X034252Y017704D01*
X034237Y017656D01*
X034218Y017609D01*
X034195Y017564D01*
X034169Y017521D01*
X034140Y017480D01*
X034107Y017441D01*
X034072Y017405D01*
X034034Y017372D01*
X033994Y017342D01*
X033951Y017315D01*
X033906Y017292D01*
X033860Y017272D01*
X033812Y017255D01*
X033764Y017243D01*
X033714Y017234D01*
X033664Y017229D01*
X033613Y017228D01*
X033563Y017231D01*
X033513Y017238D01*
X033464Y017249D01*
X033416Y017263D01*
X033369Y017281D01*
X033323Y017303D01*
X033279Y017328D01*
X033238Y017357D01*
X033199Y017388D01*
X033162Y017423D01*
X033128Y017460D01*
X033097Y017500D01*
X033069Y017542D01*
X033045Y017586D01*
X033024Y017632D01*
X033007Y017680D01*
X032994Y017728D01*
X032984Y017778D01*
X032978Y017828D01*
X032976Y017878D01*
M02*
