G75*
G70*
%OFA0B0*%
%FSLAX24Y24*%
%IPPOS*%
%LPD*%
%AMOC8*
5,1,8,0,0,1.08239X$1,22.5*
%
%ADD10R,0.4830X0.0030*%
%ADD11R,0.4860X0.0030*%
%ADD12R,0.0090X0.0030*%
%ADD13R,0.0060X0.0030*%
%ADD14R,0.0120X0.0030*%
%ADD15R,0.0150X0.0030*%
%ADD16R,0.0180X0.0030*%
%ADD17R,0.0210X0.0030*%
%ADD18R,0.0240X0.0030*%
%ADD19R,0.0270X0.0030*%
%ADD20R,0.0300X0.0030*%
%ADD21R,0.0330X0.0030*%
%ADD22R,0.0360X0.0030*%
%ADD23R,0.0390X0.0030*%
%ADD24R,0.0420X0.0030*%
%ADD25R,0.5220X0.0030*%
%ADD26R,0.5250X0.0030*%
%ADD27R,0.0450X0.0030*%
%ADD28R,0.0480X0.0030*%
%ADD29R,0.0510X0.0030*%
%ADD30R,0.0540X0.0030*%
%ADD31R,0.0570X0.0030*%
%ADD32R,0.2130X0.0030*%
%ADD33R,0.5400X0.0030*%
%ADD34R,0.3720X0.0030*%
%ADD35R,0.5190X0.0030*%
%ADD36C,0.0040*%
%ADD37C,0.0030*%
%ADD38C,0.0060*%
%ADD39C,0.0020*%
%ADD40C,0.0050*%
%ADD41C,0.0080*%
D10*
X003736Y027912D03*
D11*
X003751Y027942D03*
D12*
X002986Y028092D03*
X002956Y028062D03*
X002926Y028032D03*
X002896Y028002D03*
X001366Y027972D03*
X004636Y027972D03*
X003466Y031992D03*
X003496Y032022D03*
X003526Y032052D03*
X003556Y032082D03*
X006796Y032022D03*
D13*
X002881Y027972D03*
D14*
X003031Y028122D03*
X001381Y028002D03*
X004651Y028002D03*
X006181Y027972D03*
X006211Y028002D03*
X006241Y028032D03*
X006271Y028062D03*
X006301Y028092D03*
X006331Y028122D03*
X006361Y028152D03*
X006751Y031962D03*
X006781Y031992D03*
X006811Y032052D03*
X006841Y032082D03*
X004981Y032082D03*
X003451Y031962D03*
X003421Y031932D03*
X001711Y032082D03*
D15*
X003376Y031872D03*
X003406Y031902D03*
X004966Y032052D03*
X006706Y031902D03*
X006736Y031932D03*
X006436Y028242D03*
X006406Y028212D03*
X006376Y028182D03*
X004666Y028032D03*
X003106Y028212D03*
X003076Y028182D03*
X003046Y028152D03*
X001396Y028032D03*
D16*
X001411Y028062D03*
X003121Y028242D03*
X004681Y028062D03*
X006511Y028332D03*
X006661Y031842D03*
X006691Y031872D03*
X004951Y032022D03*
X003361Y031842D03*
X001681Y032052D03*
D17*
X001666Y032022D03*
X003286Y031752D03*
X004936Y031992D03*
X006646Y031812D03*
X006586Y028452D03*
X006556Y028422D03*
X006556Y028392D03*
X006526Y028362D03*
X003256Y028422D03*
X003226Y028392D03*
X003226Y028362D03*
X003196Y028332D03*
X001426Y028092D03*
D18*
X003271Y028452D03*
X003301Y028482D03*
X003331Y028542D03*
X004711Y028092D03*
X006601Y028482D03*
X006541Y031662D03*
X006571Y031692D03*
X006571Y031722D03*
X004921Y031962D03*
X003271Y031722D03*
X003241Y031662D03*
X001651Y031992D03*
D19*
X001636Y031962D03*
X003196Y031602D03*
X003226Y031632D03*
X003256Y031692D03*
X004906Y031932D03*
X006496Y031572D03*
X006526Y031632D03*
X006676Y028602D03*
X006646Y028572D03*
X006646Y028542D03*
X006616Y028512D03*
X004726Y028122D03*
X003376Y028632D03*
X003346Y028572D03*
X003316Y028512D03*
X001456Y028122D03*
D20*
X001471Y028152D03*
X003361Y028602D03*
X003391Y028662D03*
X003421Y028722D03*
X004741Y028152D03*
X006691Y028632D03*
X006691Y028662D03*
X006721Y028692D03*
X006721Y028722D03*
X006451Y031482D03*
X006451Y031512D03*
X006481Y031542D03*
X006511Y031602D03*
X003181Y031572D03*
X003181Y031542D03*
X003151Y031512D03*
X001621Y031932D03*
D21*
X003106Y031422D03*
X003106Y031392D03*
X003076Y031332D03*
X003136Y031452D03*
X003136Y031482D03*
X004876Y031902D03*
X006406Y031422D03*
X006406Y031392D03*
X006436Y031452D03*
X006736Y028752D03*
X004756Y028182D03*
X003436Y028752D03*
X003436Y028782D03*
X003406Y028692D03*
X001486Y028182D03*
D22*
X001501Y028212D03*
X003451Y028812D03*
X003451Y028842D03*
X004771Y028212D03*
X006751Y028782D03*
X006751Y028812D03*
X006751Y028842D03*
X006781Y028902D03*
X006331Y031182D03*
X006361Y031272D03*
X006361Y031302D03*
X006391Y031332D03*
X006391Y031362D03*
X004861Y031872D03*
X003091Y031362D03*
X003061Y031302D03*
X003061Y031272D03*
X003031Y031212D03*
X003001Y031092D03*
X001591Y031902D03*
D23*
X001576Y031872D03*
X003016Y031182D03*
X003016Y031152D03*
X003016Y031122D03*
X002986Y031062D03*
X002986Y031032D03*
X002986Y031002D03*
X002986Y030972D03*
X002986Y030942D03*
X003046Y031242D03*
X004846Y031842D03*
X006346Y031242D03*
X006346Y031212D03*
X006316Y031152D03*
X006316Y031122D03*
X006316Y031092D03*
X006286Y031032D03*
X006286Y031002D03*
X006286Y030972D03*
X006286Y030942D03*
X006286Y030912D03*
X006796Y028932D03*
X006766Y028872D03*
X003466Y028872D03*
X003466Y028902D03*
X003466Y028932D03*
X001516Y028242D03*
D24*
X001531Y028332D03*
X001531Y028362D03*
X001531Y028392D03*
X001531Y028422D03*
X001531Y028452D03*
X001531Y028482D03*
X001531Y028512D03*
X001531Y028542D03*
X001531Y028572D03*
X001531Y028602D03*
X001531Y028632D03*
X001531Y028662D03*
X001531Y028692D03*
X001531Y028722D03*
X001531Y028752D03*
X001531Y028782D03*
X001531Y028812D03*
X001531Y028842D03*
X001531Y028872D03*
X001531Y028902D03*
X001531Y028932D03*
X001531Y028962D03*
X001531Y028992D03*
X001531Y029022D03*
X001531Y029052D03*
X001531Y029082D03*
X001531Y029112D03*
X001531Y029142D03*
X001531Y029172D03*
X001531Y029202D03*
X001531Y029232D03*
X001531Y029262D03*
X001531Y029292D03*
X001531Y029322D03*
X001531Y029352D03*
X001531Y029382D03*
X001531Y029412D03*
X001531Y029442D03*
X001531Y029472D03*
X001531Y029502D03*
X001531Y029532D03*
X001531Y029562D03*
X001531Y029592D03*
X001531Y029622D03*
X001531Y029652D03*
X001531Y029682D03*
X001531Y029712D03*
X001531Y029742D03*
X001531Y029772D03*
X001531Y029802D03*
X001531Y029832D03*
X001531Y029862D03*
X001531Y029892D03*
X001531Y029922D03*
X001531Y029952D03*
X001531Y029982D03*
X001531Y030012D03*
X001531Y030042D03*
X001531Y030072D03*
X001531Y030102D03*
X001531Y030132D03*
X001531Y030162D03*
X001531Y030192D03*
X001531Y030222D03*
X001531Y030252D03*
X001531Y030282D03*
X001531Y030312D03*
X001531Y030342D03*
X001531Y030372D03*
X001531Y030402D03*
X001531Y030432D03*
X001531Y030462D03*
X001531Y030492D03*
X001531Y030522D03*
X001531Y030552D03*
X001531Y030582D03*
X001531Y030612D03*
X001531Y030642D03*
X001531Y030672D03*
X001531Y030702D03*
X001531Y030732D03*
X001531Y030762D03*
X001531Y030792D03*
X001531Y030822D03*
X001531Y030852D03*
X001531Y030882D03*
X001531Y030912D03*
X001531Y030942D03*
X001531Y030972D03*
X001531Y031002D03*
X001531Y031032D03*
X001531Y031062D03*
X001531Y031092D03*
X001531Y031122D03*
X001531Y031152D03*
X001531Y031182D03*
X001531Y031212D03*
X001531Y031242D03*
X001531Y031272D03*
X001531Y031302D03*
X001531Y031332D03*
X001531Y031362D03*
X001531Y031392D03*
X001531Y031422D03*
X001531Y031452D03*
X001531Y031482D03*
X001531Y031512D03*
X001531Y031542D03*
X001531Y031572D03*
X001531Y031602D03*
X001531Y031632D03*
X001531Y031662D03*
X001531Y031692D03*
X001531Y031722D03*
X001531Y031752D03*
X001561Y031842D03*
X002971Y030912D03*
X002971Y030882D03*
X002971Y030852D03*
X003481Y029082D03*
X003481Y029052D03*
X003481Y029022D03*
X003481Y028992D03*
X003481Y028962D03*
X004801Y028242D03*
X006781Y028962D03*
X006781Y028992D03*
X006781Y029022D03*
X006301Y030822D03*
X006301Y030852D03*
X006301Y030882D03*
X006301Y031062D03*
D25*
X004291Y032112D03*
X003931Y028272D03*
D26*
X003946Y028302D03*
D27*
X004816Y028332D03*
X004816Y028362D03*
X004816Y028392D03*
X004816Y028422D03*
X004816Y028452D03*
X004816Y028482D03*
X004816Y028512D03*
X004816Y028542D03*
X004816Y028572D03*
X004816Y028602D03*
X004816Y028632D03*
X004816Y028662D03*
X004816Y028692D03*
X004816Y028722D03*
X004816Y028752D03*
X004816Y028782D03*
X004816Y028812D03*
X004816Y028842D03*
X004816Y028872D03*
X004816Y028902D03*
X004816Y028932D03*
X004816Y028962D03*
X004816Y028992D03*
X004816Y029022D03*
X004816Y029052D03*
X004816Y029082D03*
X004816Y029112D03*
X004816Y029142D03*
X004816Y029172D03*
X004816Y029202D03*
X004816Y029232D03*
X004816Y029262D03*
X004816Y029292D03*
X004816Y029322D03*
X004816Y029352D03*
X004816Y029382D03*
X004816Y029412D03*
X004816Y029442D03*
X004816Y029472D03*
X004816Y029502D03*
X004816Y029532D03*
X004816Y029562D03*
X004816Y029592D03*
X004816Y029622D03*
X004816Y029652D03*
X004816Y029682D03*
X004816Y029712D03*
X004816Y029742D03*
X004816Y029772D03*
X004816Y029802D03*
X004816Y029832D03*
X004816Y029862D03*
X004816Y029892D03*
X004816Y029922D03*
X004816Y029952D03*
X004816Y029982D03*
X004816Y030012D03*
X004816Y030042D03*
X004816Y030072D03*
X004816Y030102D03*
X004816Y030132D03*
X004816Y030162D03*
X004816Y030192D03*
X004816Y030222D03*
X004816Y030252D03*
X004816Y030282D03*
X004816Y030312D03*
X004816Y030342D03*
X004816Y030372D03*
X004816Y030402D03*
X004816Y030432D03*
X004816Y030462D03*
X004816Y030492D03*
X004816Y030522D03*
X004816Y030552D03*
X004816Y030582D03*
X004816Y030612D03*
X004816Y030642D03*
X004816Y030672D03*
X004816Y030702D03*
X004816Y030732D03*
X004816Y030762D03*
X004816Y030792D03*
X004816Y030822D03*
X004816Y030852D03*
X004816Y030882D03*
X004816Y030912D03*
X004816Y030942D03*
X004816Y030972D03*
X004816Y031002D03*
X004816Y031032D03*
X004816Y031062D03*
X004816Y031092D03*
X004816Y031122D03*
X004816Y031152D03*
X004816Y031182D03*
X004816Y031212D03*
X004816Y031242D03*
X004816Y031272D03*
X004816Y031302D03*
X004816Y031332D03*
X004816Y031362D03*
X004816Y031392D03*
X004816Y031422D03*
X004816Y031452D03*
X004816Y031482D03*
X004816Y031512D03*
X004816Y031542D03*
X004816Y031572D03*
X004816Y031602D03*
X004816Y031632D03*
X004816Y031662D03*
X004816Y031692D03*
X004816Y031722D03*
X006286Y030792D03*
X006286Y030762D03*
X006286Y030732D03*
X006286Y030702D03*
X006796Y029112D03*
X006796Y029082D03*
X006796Y029052D03*
X002986Y030672D03*
X002986Y030702D03*
X002986Y030732D03*
X002986Y030762D03*
X002986Y030792D03*
X002986Y030822D03*
D28*
X003001Y030642D03*
X003001Y030612D03*
X003001Y030582D03*
X003001Y030552D03*
X003031Y030432D03*
X003481Y029172D03*
X003481Y029142D03*
X003481Y029112D03*
X006331Y030462D03*
X006331Y030492D03*
X006331Y030522D03*
X006301Y030582D03*
X006301Y030612D03*
X006301Y030642D03*
X006301Y030672D03*
X006781Y029172D03*
X006781Y029142D03*
D29*
X006766Y029202D03*
X006766Y029232D03*
X006376Y030252D03*
X006376Y030282D03*
X006346Y030342D03*
X006346Y030372D03*
X006346Y030402D03*
X006346Y030432D03*
X006316Y030552D03*
X003466Y029232D03*
X003466Y029202D03*
X003436Y029292D03*
X003076Y030252D03*
X003046Y030342D03*
X003046Y030372D03*
X003046Y030402D03*
X003016Y030462D03*
X003016Y030492D03*
X003016Y030522D03*
D30*
X003061Y030312D03*
X003061Y030282D03*
X003091Y030222D03*
X003091Y030192D03*
X003091Y030162D03*
X003121Y030132D03*
X003121Y030102D03*
X003121Y030072D03*
X003151Y030012D03*
X003151Y029982D03*
X003181Y029922D03*
X003211Y029832D03*
X003241Y029772D03*
X003271Y029682D03*
X003301Y029622D03*
X003331Y029532D03*
X003361Y029472D03*
X003391Y029412D03*
X003421Y029352D03*
X003421Y029322D03*
X003451Y029262D03*
X006391Y030162D03*
X006391Y030192D03*
X006391Y030222D03*
X006421Y030132D03*
X006421Y030102D03*
X006451Y030042D03*
X006451Y030012D03*
X006481Y029952D03*
X006481Y029922D03*
X006511Y029862D03*
X006541Y029772D03*
X006571Y029712D03*
X006601Y029622D03*
X006631Y029562D03*
X006661Y029502D03*
X006691Y029412D03*
X006721Y029352D03*
X006721Y029322D03*
X006751Y029292D03*
X006751Y029262D03*
X006361Y030312D03*
D31*
X006436Y030072D03*
X006466Y029982D03*
X006496Y029892D03*
X006526Y029832D03*
X006526Y029802D03*
X006556Y029742D03*
X006586Y029682D03*
X006586Y029652D03*
X006616Y029592D03*
X006646Y029532D03*
X006676Y029472D03*
X006676Y029442D03*
X006706Y029382D03*
X003406Y029382D03*
X003376Y029442D03*
X003346Y029502D03*
X003316Y029562D03*
X003316Y029592D03*
X003286Y029652D03*
X003256Y029712D03*
X003256Y029742D03*
X003226Y029802D03*
X003196Y029862D03*
X003196Y029892D03*
X003166Y029952D03*
X003136Y030042D03*
D32*
X005656Y031752D03*
D33*
X004021Y031782D03*
D34*
X003181Y031812D03*
D35*
X004306Y032142D03*
D36*
X007266Y032083D02*
X007266Y031622D01*
X007497Y031622D01*
X007573Y031699D01*
X007573Y031776D01*
X007497Y031853D01*
X007266Y031853D01*
X007266Y032083D02*
X007497Y032083D01*
X007573Y032006D01*
X007573Y031929D01*
X007497Y031853D01*
X007727Y031853D02*
X007880Y031853D01*
X007727Y032083D02*
X007727Y031622D01*
X008034Y031622D01*
X008187Y031622D02*
X008187Y031929D01*
X008341Y032083D01*
X008494Y031929D01*
X008494Y031622D01*
X008648Y031776D02*
X008801Y031622D01*
X008954Y031776D01*
X008954Y032083D01*
X009108Y032083D02*
X009108Y031622D01*
X009415Y031622D01*
X009568Y031622D02*
X009568Y032083D01*
X009798Y032083D01*
X009875Y032006D01*
X009875Y031853D01*
X009798Y031776D01*
X009568Y031776D01*
X009722Y031776D02*
X009875Y031622D01*
X010029Y031622D02*
X010259Y031622D01*
X010335Y031699D01*
X010335Y031776D01*
X010259Y031853D01*
X010029Y031853D01*
X010259Y031853D02*
X010335Y031929D01*
X010335Y032006D01*
X010259Y032083D01*
X010029Y032083D01*
X010029Y031622D01*
X010489Y031699D02*
X010489Y032006D01*
X010566Y032083D01*
X010719Y032083D01*
X010796Y032006D01*
X010796Y031699D01*
X010719Y031622D01*
X010566Y031622D01*
X010489Y031699D01*
X010949Y031622D02*
X010949Y031929D01*
X011103Y032083D01*
X011256Y031929D01*
X011256Y031622D01*
X011410Y031622D02*
X011410Y032083D01*
X011640Y032083D01*
X011717Y032006D01*
X011717Y031853D01*
X011640Y031776D01*
X011410Y031776D01*
X011563Y031776D02*
X011717Y031622D01*
X011870Y031622D02*
X012100Y031622D01*
X012177Y031699D01*
X012177Y032006D01*
X012100Y032083D01*
X011870Y032083D01*
X011870Y031622D01*
X011256Y031853D02*
X010949Y031853D01*
X010966Y033332D02*
X010813Y033332D01*
X010736Y033409D01*
X010889Y033563D02*
X010966Y033563D01*
X011043Y033486D01*
X011043Y033409D01*
X010966Y033332D01*
X011196Y033332D02*
X011273Y033332D01*
X011273Y033409D01*
X011196Y033409D01*
X011196Y033332D01*
X011426Y033409D02*
X011503Y033332D01*
X011657Y033332D01*
X011733Y033409D01*
X011733Y033563D01*
X011657Y033639D01*
X011580Y033639D01*
X011426Y033563D01*
X011426Y033793D01*
X011733Y033793D01*
X011887Y033639D02*
X012040Y033793D01*
X012194Y033639D01*
X012194Y033332D01*
X012194Y033563D02*
X011887Y033563D01*
X011887Y033639D02*
X011887Y033332D01*
X011043Y033639D02*
X010966Y033563D01*
X011043Y033639D02*
X011043Y033716D01*
X010966Y033793D01*
X010813Y033793D01*
X010736Y033716D01*
X010582Y033563D02*
X010276Y033563D01*
X010122Y033716D02*
X009815Y033409D01*
X009892Y033332D01*
X010045Y033332D01*
X010122Y033409D01*
X010122Y033716D01*
X010045Y033793D01*
X009892Y033793D01*
X009815Y033716D01*
X009815Y033409D01*
X009923Y034082D02*
X010077Y034082D01*
X010153Y034159D01*
X010153Y034236D01*
X010077Y034313D01*
X009846Y034313D01*
X009846Y034159D01*
X009923Y034082D01*
X009846Y034313D02*
X010000Y034466D01*
X010153Y034543D01*
X010307Y034543D02*
X010307Y034236D01*
X010460Y034082D01*
X010614Y034236D01*
X010614Y034543D01*
X011228Y034543D02*
X011228Y034082D01*
X011458Y034082D01*
X011534Y034159D01*
X011534Y034466D01*
X011458Y034543D01*
X011228Y034543D01*
X011688Y034466D02*
X011688Y034159D01*
X011765Y034082D01*
X011918Y034082D01*
X011995Y034159D01*
X011995Y034466D02*
X011918Y034543D01*
X011765Y034543D01*
X011688Y034466D01*
X009415Y032083D02*
X009108Y032083D01*
X009108Y031853D02*
X009261Y031853D01*
X008648Y031776D02*
X008648Y032083D01*
X008494Y031853D02*
X008187Y031853D01*
X008034Y032083D02*
X007727Y032083D01*
X007497Y031223D02*
X007573Y031146D01*
X007573Y030993D01*
X007497Y030916D01*
X007266Y030916D01*
X007266Y030762D02*
X007266Y031223D01*
X007497Y031223D01*
X007420Y030916D02*
X007573Y030762D01*
X007727Y030839D02*
X007727Y030993D01*
X007804Y031069D01*
X007957Y031069D01*
X008034Y030993D01*
X008034Y030916D01*
X007727Y030916D01*
X007727Y030839D02*
X007804Y030762D01*
X007957Y030762D01*
X008187Y031069D02*
X008341Y030762D01*
X008494Y031069D01*
X009108Y031069D02*
X009261Y031223D01*
X009415Y031069D01*
X009415Y030762D01*
X009415Y030993D02*
X009108Y030993D01*
X009108Y031069D02*
X009108Y030762D01*
X009108Y030348D02*
X008954Y030194D01*
X009108Y030348D02*
X009108Y029887D01*
X009261Y029887D02*
X008954Y029887D01*
X008801Y029887D02*
X008494Y029887D01*
X008647Y029887D02*
X008647Y030348D01*
X008494Y030194D01*
X008341Y030271D02*
X008034Y029964D01*
X008110Y029887D01*
X008264Y029887D01*
X008341Y029964D01*
X008341Y030271D01*
X008264Y030348D01*
X008110Y030348D01*
X008034Y030271D01*
X008034Y029964D01*
X007880Y029887D02*
X007573Y029887D01*
X007880Y030194D01*
X007880Y030271D01*
X007804Y030348D01*
X007650Y030348D01*
X007573Y030271D01*
X007420Y030348D02*
X007266Y030194D01*
X007266Y030041D01*
X007420Y029887D01*
X009415Y029887D02*
X009568Y030041D01*
X009568Y030194D01*
X009415Y030348D01*
X007784Y020630D02*
X007784Y020323D01*
X007630Y020170D01*
X007477Y020323D01*
X007477Y020630D01*
X007323Y020630D02*
X007016Y020630D01*
X007016Y020400D01*
X007170Y020477D01*
X007247Y020477D01*
X007323Y020400D01*
X007323Y020247D01*
X007247Y020170D01*
X007093Y020170D01*
X007016Y020247D01*
X007093Y019630D02*
X007016Y019554D01*
X007016Y019247D01*
X007093Y019170D01*
X007247Y019170D01*
X007323Y019247D01*
X007323Y019400D01*
X007170Y019400D01*
X007323Y019554D02*
X007247Y019630D01*
X007093Y019630D01*
X007477Y019630D02*
X007784Y019170D01*
X007784Y019630D01*
X007937Y019630D02*
X008167Y019630D01*
X008244Y019554D01*
X008244Y019247D01*
X008167Y019170D01*
X007937Y019170D01*
X007937Y019630D01*
X007477Y019630D02*
X007477Y019170D01*
X007247Y018630D02*
X007323Y018554D01*
X007323Y018477D01*
X007247Y018400D01*
X007323Y018323D01*
X007323Y018247D01*
X007247Y018170D01*
X007093Y018170D01*
X007016Y018247D01*
X007170Y018400D02*
X007247Y018400D01*
X007247Y018630D02*
X007093Y018630D01*
X007016Y018554D01*
X007477Y018247D02*
X007554Y018247D01*
X007554Y018170D01*
X007477Y018170D01*
X007477Y018247D01*
X007707Y018247D02*
X007784Y018170D01*
X007937Y018170D01*
X008014Y018247D01*
X008014Y018323D01*
X007937Y018400D01*
X007860Y018400D01*
X007937Y018400D02*
X008014Y018477D01*
X008014Y018554D01*
X007937Y018630D01*
X007784Y018630D01*
X007707Y018554D01*
X008167Y018630D02*
X008167Y018323D01*
X008321Y018170D01*
X008474Y018323D01*
X008474Y018630D01*
X008167Y017630D02*
X007937Y017630D01*
X007937Y017170D01*
X008167Y017170D01*
X008244Y017247D01*
X008244Y017554D01*
X008167Y017630D01*
X007784Y017630D02*
X007784Y017170D01*
X007477Y017630D01*
X007477Y017170D01*
X007323Y017247D02*
X007323Y017400D01*
X007170Y017400D01*
X007323Y017247D02*
X007247Y017170D01*
X007093Y017170D01*
X007016Y017247D01*
X007016Y017554D01*
X007093Y017630D01*
X007247Y017630D01*
X007323Y017554D01*
X007247Y016662D02*
X007093Y016662D01*
X007016Y016585D01*
X007247Y016662D02*
X007323Y016585D01*
X007323Y016508D01*
X007016Y016201D01*
X007323Y016201D01*
X007477Y016201D02*
X007554Y016201D01*
X007554Y016278D01*
X007477Y016278D01*
X007477Y016201D01*
X007707Y016278D02*
X007784Y016201D01*
X007937Y016201D01*
X008014Y016278D01*
X008014Y016431D01*
X007937Y016508D01*
X007860Y016508D01*
X007707Y016431D01*
X007707Y016662D01*
X008014Y016662D01*
X008167Y016662D02*
X008167Y016355D01*
X008321Y016201D01*
X008474Y016355D01*
X008474Y016662D01*
X008167Y015630D02*
X007937Y015630D01*
X007937Y015170D01*
X008167Y015170D01*
X008244Y015247D01*
X008244Y015554D01*
X008167Y015630D01*
X007784Y015630D02*
X007784Y015170D01*
X007477Y015630D01*
X007477Y015170D01*
X007323Y015247D02*
X007323Y015400D01*
X007170Y015400D01*
X007323Y015247D02*
X007247Y015170D01*
X007093Y015170D01*
X007016Y015247D01*
X007016Y015554D01*
X007093Y015630D01*
X007247Y015630D01*
X007323Y015554D01*
X020596Y018582D02*
X020903Y018582D01*
X020750Y018582D02*
X020750Y019043D01*
X020596Y018889D01*
X030346Y023832D02*
X030653Y023832D01*
X030500Y023832D02*
X030500Y024293D01*
X030346Y024139D01*
X030346Y025332D02*
X030653Y025639D01*
X030653Y025716D01*
X030577Y025793D01*
X030423Y025793D01*
X030346Y025716D01*
X030346Y025332D02*
X030653Y025332D01*
X047346Y018889D02*
X047500Y019043D01*
X047500Y018582D01*
X047653Y018582D02*
X047346Y018582D01*
D37*
X012045Y032875D02*
X011858Y032875D01*
X011785Y032871D02*
X011002Y032872D01*
X011058Y032744D02*
X011037Y032730D01*
X011015Y032719D01*
X010991Y032712D01*
X010966Y032708D01*
X010941Y032708D01*
X010917Y032712D01*
X010893Y032720D01*
X010870Y032730D01*
X010850Y032744D01*
X010832Y032761D01*
X010816Y032781D01*
X010804Y032803D01*
X010794Y032826D01*
X010789Y032850D01*
X010787Y032875D01*
X010789Y032900D01*
X010794Y032924D01*
X010804Y032947D01*
X010816Y032969D01*
X010832Y032989D01*
X010850Y033006D01*
X010870Y033020D01*
X010893Y033030D01*
X010917Y033038D01*
X010941Y033042D01*
X010966Y033042D01*
X010991Y033038D01*
X011015Y033031D01*
X011037Y033020D01*
X011058Y033006D01*
X010901Y032875D02*
X010903Y032888D01*
X010908Y032901D01*
X010917Y032912D01*
X010928Y032919D01*
X010941Y032924D01*
X010954Y032925D01*
X010968Y032922D01*
X010980Y032916D01*
X010990Y032907D01*
X010997Y032895D01*
X011001Y032882D01*
X011001Y032868D01*
X010997Y032855D01*
X010990Y032843D01*
X010980Y032834D01*
X010968Y032828D01*
X010954Y032825D01*
X010941Y032826D01*
X010928Y032831D01*
X010917Y032838D01*
X010908Y032849D01*
X010903Y032862D01*
X010901Y032875D01*
X010788Y032878D02*
X010121Y032878D01*
X010045Y032875D02*
X009858Y032875D01*
X009783Y032875D02*
X009785Y032901D01*
X009791Y032926D01*
X009800Y032950D01*
X009814Y032972D01*
X009830Y032991D01*
X009849Y033009D01*
X009871Y033023D01*
X009894Y033033D01*
X009919Y033040D01*
X009945Y033043D01*
X009970Y033042D01*
X009996Y033037D01*
X010020Y033028D01*
X010042Y033016D01*
X010063Y033000D01*
X010081Y032982D01*
X010095Y032961D01*
X010107Y032938D01*
X010115Y032913D01*
X010119Y032888D01*
X010119Y032862D01*
X010115Y032837D01*
X010107Y032812D01*
X010095Y032789D01*
X010081Y032768D01*
X010063Y032750D01*
X010042Y032734D01*
X010020Y032722D01*
X009996Y032713D01*
X009970Y032708D01*
X009945Y032707D01*
X009919Y032710D01*
X009894Y032717D01*
X009871Y032727D01*
X009849Y032741D01*
X009830Y032759D01*
X009814Y032778D01*
X009800Y032800D01*
X009791Y032824D01*
X009785Y032849D01*
X009783Y032875D01*
X009785Y032901D01*
X009791Y032926D01*
X009800Y032950D01*
X009814Y032972D01*
X009830Y032991D01*
X009849Y033009D01*
X009871Y033023D01*
X009894Y033033D01*
X009919Y033040D01*
X009945Y033043D01*
X009970Y033042D01*
X009996Y033037D01*
X010020Y033028D01*
X010042Y033016D01*
X010063Y033000D01*
X010081Y032982D01*
X010095Y032961D01*
X010107Y032938D01*
X010115Y032913D01*
X010119Y032888D01*
X010119Y032862D01*
X010115Y032837D01*
X010107Y032812D01*
X010095Y032789D01*
X010081Y032768D01*
X010063Y032750D01*
X010042Y032734D01*
X010020Y032722D01*
X009996Y032713D01*
X009970Y032708D01*
X009945Y032707D01*
X009919Y032710D01*
X009894Y032717D01*
X009871Y032727D01*
X009849Y032741D01*
X009830Y032759D01*
X009814Y032778D01*
X009800Y032800D01*
X009791Y032824D01*
X009785Y032849D01*
X009783Y032875D01*
X011783Y032875D02*
X011785Y032901D01*
X011791Y032926D01*
X011800Y032950D01*
X011814Y032972D01*
X011830Y032991D01*
X011849Y033009D01*
X011871Y033023D01*
X011894Y033033D01*
X011919Y033040D01*
X011945Y033043D01*
X011970Y033042D01*
X011996Y033037D01*
X012020Y033028D01*
X012042Y033016D01*
X012063Y033000D01*
X012081Y032982D01*
X012095Y032961D01*
X012107Y032938D01*
X012115Y032913D01*
X012119Y032888D01*
X012119Y032862D01*
X012115Y032837D01*
X012107Y032812D01*
X012095Y032789D01*
X012081Y032768D01*
X012063Y032750D01*
X012042Y032734D01*
X012020Y032722D01*
X011996Y032713D01*
X011970Y032708D01*
X011945Y032707D01*
X011919Y032710D01*
X011894Y032717D01*
X011871Y032727D01*
X011849Y032741D01*
X011830Y032759D01*
X011814Y032778D01*
X011800Y032800D01*
X011791Y032824D01*
X011785Y032849D01*
X011783Y032875D01*
X011951Y032969D02*
X011951Y032781D01*
D38*
X005701Y015037D02*
X005801Y014937D01*
X006601Y014937D01*
X006701Y015037D01*
X006701Y015837D01*
X006601Y015937D01*
X006701Y016037D01*
X006701Y016837D01*
X006601Y016937D01*
X006701Y017037D01*
X006701Y017837D01*
X006601Y017937D01*
X006701Y018037D01*
X006701Y018837D01*
X006601Y018937D01*
X006701Y019037D01*
X006701Y019837D01*
X006601Y019937D01*
X006701Y020037D01*
X006701Y020837D01*
X006601Y020937D01*
X005801Y020937D01*
X005701Y020837D01*
X005701Y020037D01*
X005801Y019937D01*
X005701Y019837D01*
X005701Y019037D01*
X005801Y018937D01*
X005701Y018837D01*
X005701Y018037D01*
X005801Y017937D01*
X005701Y017837D01*
X005701Y017037D01*
X005801Y016937D01*
X005701Y016837D01*
X005701Y016037D01*
X005801Y015937D01*
X005701Y015837D01*
X005701Y015037D01*
X026826Y009312D02*
X026951Y009187D01*
X027076Y009312D01*
X026951Y009187D02*
X026951Y012187D01*
X027451Y012687D01*
X028701Y012687D01*
X028826Y013562D02*
X030326Y013562D01*
X030326Y012937D01*
X031951Y012937D01*
X031951Y011562D01*
X030326Y011562D01*
X030326Y010937D01*
X028826Y010937D01*
X028826Y013562D01*
X029178Y008802D02*
X030975Y008802D01*
X030975Y006822D01*
X029178Y006822D01*
X029178Y008802D01*
X029416Y008452D02*
X029418Y008478D01*
X029424Y008504D01*
X029433Y008528D01*
X029446Y008551D01*
X029462Y008572D01*
X029481Y008590D01*
X029502Y008606D01*
X029526Y008618D01*
X029550Y008626D01*
X029576Y008631D01*
X029603Y008632D01*
X029629Y008629D01*
X029654Y008622D01*
X029678Y008612D01*
X029701Y008598D01*
X029721Y008582D01*
X029738Y008562D01*
X029753Y008540D01*
X029764Y008516D01*
X029772Y008491D01*
X029776Y008465D01*
X029776Y008439D01*
X029772Y008413D01*
X029764Y008388D01*
X029753Y008364D01*
X029738Y008342D01*
X029721Y008322D01*
X029701Y008306D01*
X029678Y008292D01*
X029654Y008282D01*
X029629Y008275D01*
X029603Y008272D01*
X029576Y008273D01*
X029550Y008278D01*
X029526Y008286D01*
X029502Y008298D01*
X029481Y008314D01*
X029462Y008332D01*
X029446Y008353D01*
X029433Y008376D01*
X029424Y008400D01*
X029418Y008426D01*
X029416Y008452D01*
X034336Y008711D02*
X034336Y006914D01*
X036316Y006914D01*
X036316Y008711D01*
X034336Y008711D01*
X035786Y008292D02*
X035788Y008318D01*
X035794Y008344D01*
X035803Y008368D01*
X035816Y008391D01*
X035832Y008412D01*
X035851Y008430D01*
X035872Y008446D01*
X035896Y008458D01*
X035920Y008466D01*
X035946Y008471D01*
X035973Y008472D01*
X035999Y008469D01*
X036024Y008462D01*
X036048Y008452D01*
X036071Y008438D01*
X036091Y008422D01*
X036108Y008402D01*
X036123Y008380D01*
X036134Y008356D01*
X036142Y008331D01*
X036146Y008305D01*
X036146Y008279D01*
X036142Y008253D01*
X036134Y008228D01*
X036123Y008204D01*
X036108Y008182D01*
X036091Y008162D01*
X036071Y008146D01*
X036048Y008132D01*
X036024Y008122D01*
X035999Y008115D01*
X035973Y008112D01*
X035946Y008113D01*
X035920Y008118D01*
X035896Y008126D01*
X035872Y008138D01*
X035851Y008154D01*
X035832Y008172D01*
X035816Y008193D01*
X035803Y008216D01*
X035794Y008240D01*
X035788Y008266D01*
X035786Y008292D01*
X040201Y009812D02*
X040201Y010062D01*
X040201Y009812D02*
X040451Y009812D01*
X040451Y010062D02*
X040201Y009812D01*
X040451Y010062D02*
X040451Y011187D01*
X040826Y011562D01*
X040951Y011687D02*
X042451Y011687D01*
X042451Y011812D01*
X043826Y011812D01*
X043826Y014687D01*
X042451Y014687D01*
X042451Y014812D01*
X040951Y014812D01*
X040951Y011687D01*
D39*
X036226Y008621D02*
X036226Y007004D01*
X034426Y007004D01*
X034426Y008621D01*
X036226Y008621D01*
X030885Y008712D02*
X030885Y006912D01*
X029268Y006912D01*
X029268Y008712D01*
X030885Y008712D01*
D40*
X030076Y023562D02*
X056576Y023562D01*
X056576Y026062D01*
X030076Y026062D01*
X030076Y023562D01*
X006535Y033580D02*
X000826Y033580D01*
X000826Y037123D01*
X006535Y037123D01*
X006535Y033580D01*
X005641Y020455D02*
X005641Y020228D01*
X005641Y020342D02*
X005301Y020342D01*
X005415Y020228D01*
X005415Y019455D02*
X005358Y019455D01*
X005301Y019398D01*
X005301Y019285D01*
X005358Y019228D01*
X005415Y019455D02*
X005641Y019228D01*
X005641Y019455D01*
X005585Y018455D02*
X005641Y018398D01*
X005641Y018285D01*
X005585Y018228D01*
X005471Y018342D02*
X005471Y018398D01*
X005528Y018455D01*
X005585Y018455D01*
X005471Y018398D02*
X005415Y018455D01*
X005358Y018455D01*
X005301Y018398D01*
X005301Y018285D01*
X005358Y018228D01*
X005471Y017455D02*
X005471Y017228D01*
X005301Y017398D01*
X005641Y017398D01*
X005585Y016455D02*
X005641Y016398D01*
X005641Y016285D01*
X005585Y016228D01*
X005471Y016228D02*
X005415Y016342D01*
X005415Y016398D01*
X005471Y016455D01*
X005585Y016455D01*
X005471Y016228D02*
X005301Y016228D01*
X005301Y016455D01*
X005301Y015455D02*
X005358Y015342D01*
X005471Y015228D01*
X005471Y015398D01*
X005528Y015455D01*
X005585Y015455D01*
X005641Y015398D01*
X005641Y015285D01*
X005585Y015228D01*
X005471Y015228D01*
D41*
X021177Y018740D02*
X021177Y019078D01*
X023476Y019078D01*
X023476Y018747D01*
X023311Y018747D01*
X023035Y018606D02*
X023031Y018638D01*
X023024Y018669D01*
X023013Y018699D01*
X022998Y018728D01*
X022981Y018756D01*
X022960Y018781D01*
X022937Y018803D01*
X022912Y018823D01*
X022884Y018840D01*
X022855Y018853D01*
X022824Y018864D01*
X022793Y018871D01*
X022761Y018874D01*
X022728Y018873D01*
X021941Y018873D01*
X021933Y018874D02*
X021900Y018872D01*
X021867Y018866D01*
X021835Y018857D01*
X021804Y018845D01*
X021774Y018829D01*
X021746Y018811D01*
X021721Y018789D01*
X021697Y018766D01*
X021677Y018739D01*
X021659Y018711D01*
X021644Y018681D01*
X021632Y018650D01*
X021624Y018617D01*
X021619Y018584D01*
X021618Y018551D01*
X021342Y018740D02*
X021177Y018740D01*
X021618Y005519D02*
X021622Y005487D01*
X021629Y005456D01*
X021640Y005426D01*
X021655Y005397D01*
X021672Y005369D01*
X021693Y005344D01*
X021716Y005322D01*
X021741Y005302D01*
X021769Y005285D01*
X021798Y005272D01*
X021829Y005261D01*
X021860Y005254D01*
X021892Y005251D01*
X021925Y005252D01*
X021925Y005251D02*
X022712Y005251D01*
X022720Y005251D02*
X022753Y005253D01*
X022786Y005259D01*
X022818Y005268D01*
X022849Y005280D01*
X022879Y005296D01*
X022907Y005314D01*
X022932Y005336D01*
X022956Y005359D01*
X022976Y005386D01*
X022994Y005414D01*
X023009Y005444D01*
X023021Y005475D01*
X023029Y005508D01*
X023034Y005541D01*
X023035Y005574D01*
X023311Y005385D02*
X023476Y005385D01*
X023476Y005031D01*
X021177Y005031D01*
X021177Y005377D01*
X021342Y005377D01*
X047927Y005377D02*
X048092Y005377D01*
X047927Y005377D02*
X047927Y005031D01*
X050226Y005031D01*
X050226Y005385D01*
X050061Y005385D01*
X049462Y005251D02*
X048675Y005251D01*
X048675Y005252D02*
X048642Y005251D01*
X048610Y005254D01*
X048579Y005261D01*
X048548Y005272D01*
X048519Y005285D01*
X048491Y005302D01*
X048466Y005322D01*
X048443Y005344D01*
X048422Y005369D01*
X048405Y005397D01*
X048390Y005426D01*
X048379Y005456D01*
X048372Y005487D01*
X048368Y005519D01*
X049470Y005251D02*
X049503Y005253D01*
X049536Y005259D01*
X049568Y005268D01*
X049599Y005280D01*
X049629Y005296D01*
X049657Y005314D01*
X049682Y005336D01*
X049706Y005359D01*
X049726Y005386D01*
X049744Y005414D01*
X049759Y005444D01*
X049771Y005475D01*
X049779Y005508D01*
X049784Y005541D01*
X049785Y005574D01*
X049785Y018606D02*
X049781Y018638D01*
X049774Y018669D01*
X049763Y018699D01*
X049748Y018728D01*
X049731Y018756D01*
X049710Y018781D01*
X049687Y018803D01*
X049662Y018823D01*
X049634Y018840D01*
X049605Y018853D01*
X049574Y018864D01*
X049543Y018871D01*
X049511Y018874D01*
X049478Y018873D01*
X048691Y018873D01*
X048683Y018874D02*
X048650Y018872D01*
X048617Y018866D01*
X048585Y018857D01*
X048554Y018845D01*
X048524Y018829D01*
X048496Y018811D01*
X048471Y018789D01*
X048447Y018766D01*
X048427Y018739D01*
X048409Y018711D01*
X048394Y018681D01*
X048382Y018650D01*
X048374Y018617D01*
X048369Y018584D01*
X048368Y018551D01*
X048092Y018740D02*
X047927Y018740D01*
X047927Y019078D01*
X050226Y019078D01*
X050226Y018747D01*
X050061Y018747D01*
M02*
