G75*
G70*
%OFA0B0*%
%FSLAX24Y24*%
%IPPOS*%
%LPD*%
%AMOC8*
5,1,8,0,0,1.08239X$1,22.5*
%
%ADD10R,0.4830X0.0030*%
%ADD11R,0.4860X0.0030*%
%ADD12R,0.0090X0.0030*%
%ADD13R,0.0060X0.0030*%
%ADD14R,0.0120X0.0030*%
%ADD15R,0.0150X0.0030*%
%ADD16R,0.0180X0.0030*%
%ADD17R,0.0210X0.0030*%
%ADD18R,0.0240X0.0030*%
%ADD19R,0.0270X0.0030*%
%ADD20R,0.0300X0.0030*%
%ADD21R,0.0330X0.0030*%
%ADD22R,0.0360X0.0030*%
%ADD23R,0.0390X0.0030*%
%ADD24R,0.0420X0.0030*%
%ADD25R,0.5220X0.0030*%
%ADD26R,0.5250X0.0030*%
%ADD27R,0.0450X0.0030*%
%ADD28R,0.0480X0.0030*%
%ADD29R,0.0510X0.0030*%
%ADD30R,0.0540X0.0030*%
%ADD31R,0.0570X0.0030*%
%ADD32R,0.2130X0.0030*%
%ADD33R,0.5400X0.0030*%
%ADD34R,0.3720X0.0030*%
%ADD35R,0.5190X0.0030*%
%ADD36C,0.0040*%
%ADD37C,0.0030*%
%ADD38C,0.0060*%
%ADD39C,0.0020*%
%ADD40C,0.0050*%
%ADD41C,0.0080*%
D10*
X003736Y027912D03*
D11*
X003751Y027942D03*
D12*
X002986Y028092D03*
X002956Y028062D03*
X002926Y028032D03*
X002896Y028002D03*
X001366Y027972D03*
X004636Y027972D03*
X003466Y031992D03*
X003496Y032022D03*
X003526Y032052D03*
X003556Y032082D03*
X006796Y032022D03*
D13*
X002881Y027972D03*
D14*
X003031Y028122D03*
X001381Y028002D03*
X004651Y028002D03*
X006181Y027972D03*
X006211Y028002D03*
X006241Y028032D03*
X006271Y028062D03*
X006301Y028092D03*
X006331Y028122D03*
X006361Y028152D03*
X006751Y031962D03*
X006781Y031992D03*
X006811Y032052D03*
X006841Y032082D03*
X004981Y032082D03*
X003451Y031962D03*
X003421Y031932D03*
X001711Y032082D03*
D15*
X003376Y031872D03*
X003406Y031902D03*
X004966Y032052D03*
X006706Y031902D03*
X006736Y031932D03*
X006436Y028242D03*
X006406Y028212D03*
X006376Y028182D03*
X004666Y028032D03*
X003106Y028212D03*
X003076Y028182D03*
X003046Y028152D03*
X001396Y028032D03*
D16*
X001411Y028062D03*
X003121Y028242D03*
X004681Y028062D03*
X006511Y028332D03*
X006661Y031842D03*
X006691Y031872D03*
X004951Y032022D03*
X003361Y031842D03*
X001681Y032052D03*
D17*
X001666Y032022D03*
X003286Y031752D03*
X004936Y031992D03*
X006646Y031812D03*
X006586Y028452D03*
X006556Y028422D03*
X006556Y028392D03*
X006526Y028362D03*
X003256Y028422D03*
X003226Y028392D03*
X003226Y028362D03*
X003196Y028332D03*
X001426Y028092D03*
D18*
X003271Y028452D03*
X003301Y028482D03*
X003331Y028542D03*
X004711Y028092D03*
X006601Y028482D03*
X006541Y031662D03*
X006571Y031692D03*
X006571Y031722D03*
X004921Y031962D03*
X003271Y031722D03*
X003241Y031662D03*
X001651Y031992D03*
D19*
X001636Y031962D03*
X003196Y031602D03*
X003226Y031632D03*
X003256Y031692D03*
X004906Y031932D03*
X006496Y031572D03*
X006526Y031632D03*
X006676Y028602D03*
X006646Y028572D03*
X006646Y028542D03*
X006616Y028512D03*
X004726Y028122D03*
X003376Y028632D03*
X003346Y028572D03*
X003316Y028512D03*
X001456Y028122D03*
D20*
X001471Y028152D03*
X003361Y028602D03*
X003391Y028662D03*
X003421Y028722D03*
X004741Y028152D03*
X006691Y028632D03*
X006691Y028662D03*
X006721Y028692D03*
X006721Y028722D03*
X006451Y031482D03*
X006451Y031512D03*
X006481Y031542D03*
X006511Y031602D03*
X003181Y031572D03*
X003181Y031542D03*
X003151Y031512D03*
X001621Y031932D03*
D21*
X003106Y031422D03*
X003106Y031392D03*
X003076Y031332D03*
X003136Y031452D03*
X003136Y031482D03*
X004876Y031902D03*
X006406Y031422D03*
X006406Y031392D03*
X006436Y031452D03*
X006736Y028752D03*
X004756Y028182D03*
X003436Y028752D03*
X003436Y028782D03*
X003406Y028692D03*
X001486Y028182D03*
D22*
X001501Y028212D03*
X003451Y028812D03*
X003451Y028842D03*
X004771Y028212D03*
X006751Y028782D03*
X006751Y028812D03*
X006751Y028842D03*
X006781Y028902D03*
X006331Y031182D03*
X006361Y031272D03*
X006361Y031302D03*
X006391Y031332D03*
X006391Y031362D03*
X004861Y031872D03*
X003091Y031362D03*
X003061Y031302D03*
X003061Y031272D03*
X003031Y031212D03*
X003001Y031092D03*
X001591Y031902D03*
D23*
X001576Y031872D03*
X003016Y031182D03*
X003016Y031152D03*
X003016Y031122D03*
X002986Y031062D03*
X002986Y031032D03*
X002986Y031002D03*
X002986Y030972D03*
X002986Y030942D03*
X003046Y031242D03*
X004846Y031842D03*
X006346Y031242D03*
X006346Y031212D03*
X006316Y031152D03*
X006316Y031122D03*
X006316Y031092D03*
X006286Y031032D03*
X006286Y031002D03*
X006286Y030972D03*
X006286Y030942D03*
X006286Y030912D03*
X006796Y028932D03*
X006766Y028872D03*
X003466Y028872D03*
X003466Y028902D03*
X003466Y028932D03*
X001516Y028242D03*
D24*
X001531Y028332D03*
X001531Y028362D03*
X001531Y028392D03*
X001531Y028422D03*
X001531Y028452D03*
X001531Y028482D03*
X001531Y028512D03*
X001531Y028542D03*
X001531Y028572D03*
X001531Y028602D03*
X001531Y028632D03*
X001531Y028662D03*
X001531Y028692D03*
X001531Y028722D03*
X001531Y028752D03*
X001531Y028782D03*
X001531Y028812D03*
X001531Y028842D03*
X001531Y028872D03*
X001531Y028902D03*
X001531Y028932D03*
X001531Y028962D03*
X001531Y028992D03*
X001531Y029022D03*
X001531Y029052D03*
X001531Y029082D03*
X001531Y029112D03*
X001531Y029142D03*
X001531Y029172D03*
X001531Y029202D03*
X001531Y029232D03*
X001531Y029262D03*
X001531Y029292D03*
X001531Y029322D03*
X001531Y029352D03*
X001531Y029382D03*
X001531Y029412D03*
X001531Y029442D03*
X001531Y029472D03*
X001531Y029502D03*
X001531Y029532D03*
X001531Y029562D03*
X001531Y029592D03*
X001531Y029622D03*
X001531Y029652D03*
X001531Y029682D03*
X001531Y029712D03*
X001531Y029742D03*
X001531Y029772D03*
X001531Y029802D03*
X001531Y029832D03*
X001531Y029862D03*
X001531Y029892D03*
X001531Y029922D03*
X001531Y029952D03*
X001531Y029982D03*
X001531Y030012D03*
X001531Y030042D03*
X001531Y030072D03*
X001531Y030102D03*
X001531Y030132D03*
X001531Y030162D03*
X001531Y030192D03*
X001531Y030222D03*
X001531Y030252D03*
X001531Y030282D03*
X001531Y030312D03*
X001531Y030342D03*
X001531Y030372D03*
X001531Y030402D03*
X001531Y030432D03*
X001531Y030462D03*
X001531Y030492D03*
X001531Y030522D03*
X001531Y030552D03*
X001531Y030582D03*
X001531Y030612D03*
X001531Y030642D03*
X001531Y030672D03*
X001531Y030702D03*
X001531Y030732D03*
X001531Y030762D03*
X001531Y030792D03*
X001531Y030822D03*
X001531Y030852D03*
X001531Y030882D03*
X001531Y030912D03*
X001531Y030942D03*
X001531Y030972D03*
X001531Y031002D03*
X001531Y031032D03*
X001531Y031062D03*
X001531Y031092D03*
X001531Y031122D03*
X001531Y031152D03*
X001531Y031182D03*
X001531Y031212D03*
X001531Y031242D03*
X001531Y031272D03*
X001531Y031302D03*
X001531Y031332D03*
X001531Y031362D03*
X001531Y031392D03*
X001531Y031422D03*
X001531Y031452D03*
X001531Y031482D03*
X001531Y031512D03*
X001531Y031542D03*
X001531Y031572D03*
X001531Y031602D03*
X001531Y031632D03*
X001531Y031662D03*
X001531Y031692D03*
X001531Y031722D03*
X001531Y031752D03*
X001561Y031842D03*
X002971Y030912D03*
X002971Y030882D03*
X002971Y030852D03*
X003481Y029082D03*
X003481Y029052D03*
X003481Y029022D03*
X003481Y028992D03*
X003481Y028962D03*
X004801Y028242D03*
X006781Y028962D03*
X006781Y028992D03*
X006781Y029022D03*
X006301Y030822D03*
X006301Y030852D03*
X006301Y030882D03*
X006301Y031062D03*
D25*
X004291Y032112D03*
X003931Y028272D03*
D26*
X003946Y028302D03*
D27*
X004816Y028332D03*
X004816Y028362D03*
X004816Y028392D03*
X004816Y028422D03*
X004816Y028452D03*
X004816Y028482D03*
X004816Y028512D03*
X004816Y028542D03*
X004816Y028572D03*
X004816Y028602D03*
X004816Y028632D03*
X004816Y028662D03*
X004816Y028692D03*
X004816Y028722D03*
X004816Y028752D03*
X004816Y028782D03*
X004816Y028812D03*
X004816Y028842D03*
X004816Y028872D03*
X004816Y028902D03*
X004816Y028932D03*
X004816Y028962D03*
X004816Y028992D03*
X004816Y029022D03*
X004816Y029052D03*
X004816Y029082D03*
X004816Y029112D03*
X004816Y029142D03*
X004816Y029172D03*
X004816Y029202D03*
X004816Y029232D03*
X004816Y029262D03*
X004816Y029292D03*
X004816Y029322D03*
X004816Y029352D03*
X004816Y029382D03*
X004816Y029412D03*
X004816Y029442D03*
X004816Y029472D03*
X004816Y029502D03*
X004816Y029532D03*
X004816Y029562D03*
X004816Y029592D03*
X004816Y029622D03*
X004816Y029652D03*
X004816Y029682D03*
X004816Y029712D03*
X004816Y029742D03*
X004816Y029772D03*
X004816Y029802D03*
X004816Y029832D03*
X004816Y029862D03*
X004816Y029892D03*
X004816Y029922D03*
X004816Y029952D03*
X004816Y029982D03*
X004816Y030012D03*
X004816Y030042D03*
X004816Y030072D03*
X004816Y030102D03*
X004816Y030132D03*
X004816Y030162D03*
X004816Y030192D03*
X004816Y030222D03*
X004816Y030252D03*
X004816Y030282D03*
X004816Y030312D03*
X004816Y030342D03*
X004816Y030372D03*
X004816Y030402D03*
X004816Y030432D03*
X004816Y030462D03*
X004816Y030492D03*
X004816Y030522D03*
X004816Y030552D03*
X004816Y030582D03*
X004816Y030612D03*
X004816Y030642D03*
X004816Y030672D03*
X004816Y030702D03*
X004816Y030732D03*
X004816Y030762D03*
X004816Y030792D03*
X004816Y030822D03*
X004816Y030852D03*
X004816Y030882D03*
X004816Y030912D03*
X004816Y030942D03*
X004816Y030972D03*
X004816Y031002D03*
X004816Y031032D03*
X004816Y031062D03*
X004816Y031092D03*
X004816Y031122D03*
X004816Y031152D03*
X004816Y031182D03*
X004816Y031212D03*
X004816Y031242D03*
X004816Y031272D03*
X004816Y031302D03*
X004816Y031332D03*
X004816Y031362D03*
X004816Y031392D03*
X004816Y031422D03*
X004816Y031452D03*
X004816Y031482D03*
X004816Y031512D03*
X004816Y031542D03*
X004816Y031572D03*
X004816Y031602D03*
X004816Y031632D03*
X004816Y031662D03*
X004816Y031692D03*
X004816Y031722D03*
X006286Y030792D03*
X006286Y030762D03*
X006286Y030732D03*
X006286Y030702D03*
X006796Y029112D03*
X006796Y029082D03*
X006796Y029052D03*
X002986Y030672D03*
X002986Y030702D03*
X002986Y030732D03*
X002986Y030762D03*
X002986Y030792D03*
X002986Y030822D03*
D28*
X003001Y030642D03*
X003001Y030612D03*
X003001Y030582D03*
X003001Y030552D03*
X003031Y030432D03*
X003481Y029172D03*
X003481Y029142D03*
X003481Y029112D03*
X006331Y030462D03*
X006331Y030492D03*
X006331Y030522D03*
X006301Y030582D03*
X006301Y030612D03*
X006301Y030642D03*
X006301Y030672D03*
X006781Y029172D03*
X006781Y029142D03*
D29*
X006766Y029202D03*
X006766Y029232D03*
X006376Y030252D03*
X006376Y030282D03*
X006346Y030342D03*
X006346Y030372D03*
X006346Y030402D03*
X006346Y030432D03*
X006316Y030552D03*
X003466Y029232D03*
X003466Y029202D03*
X003436Y029292D03*
X003076Y030252D03*
X003046Y030342D03*
X003046Y030372D03*
X003046Y030402D03*
X003016Y030462D03*
X003016Y030492D03*
X003016Y030522D03*
D30*
X003061Y030312D03*
X003061Y030282D03*
X003091Y030222D03*
X003091Y030192D03*
X003091Y030162D03*
X003121Y030132D03*
X003121Y030102D03*
X003121Y030072D03*
X003151Y030012D03*
X003151Y029982D03*
X003181Y029922D03*
X003211Y029832D03*
X003241Y029772D03*
X003271Y029682D03*
X003301Y029622D03*
X003331Y029532D03*
X003361Y029472D03*
X003391Y029412D03*
X003421Y029352D03*
X003421Y029322D03*
X003451Y029262D03*
X006391Y030162D03*
X006391Y030192D03*
X006391Y030222D03*
X006421Y030132D03*
X006421Y030102D03*
X006451Y030042D03*
X006451Y030012D03*
X006481Y029952D03*
X006481Y029922D03*
X006511Y029862D03*
X006541Y029772D03*
X006571Y029712D03*
X006601Y029622D03*
X006631Y029562D03*
X006661Y029502D03*
X006691Y029412D03*
X006721Y029352D03*
X006721Y029322D03*
X006751Y029292D03*
X006751Y029262D03*
X006361Y030312D03*
D31*
X006436Y030072D03*
X006466Y029982D03*
X006496Y029892D03*
X006526Y029832D03*
X006526Y029802D03*
X006556Y029742D03*
X006586Y029682D03*
X006586Y029652D03*
X006616Y029592D03*
X006646Y029532D03*
X006676Y029472D03*
X006676Y029442D03*
X006706Y029382D03*
X003406Y029382D03*
X003376Y029442D03*
X003346Y029502D03*
X003316Y029562D03*
X003316Y029592D03*
X003286Y029652D03*
X003256Y029712D03*
X003256Y029742D03*
X003226Y029802D03*
X003196Y029862D03*
X003196Y029892D03*
X003166Y029952D03*
X003136Y030042D03*
D32*
X005656Y031752D03*
D33*
X004021Y031782D03*
D34*
X003181Y031812D03*
D35*
X004306Y032142D03*
D36*
X002119Y007601D02*
X001659Y007601D01*
X002119Y007601D02*
X002119Y007908D01*
X002119Y008062D02*
X002119Y008369D01*
X002119Y008522D02*
X002119Y008752D01*
X002042Y008829D01*
X001735Y008829D01*
X001659Y008752D01*
X001659Y008522D01*
X002119Y008522D01*
X001889Y008215D02*
X001889Y008062D01*
X001659Y008062D02*
X002119Y008062D01*
X001659Y008062D02*
X001659Y008369D01*
X001735Y008982D02*
X001659Y009059D01*
X001659Y009213D01*
X001735Y009289D01*
X001812Y009289D01*
X002119Y008982D01*
X002119Y009289D01*
X002119Y009443D02*
X001659Y009443D01*
X001659Y009673D01*
X001735Y009750D01*
X001889Y009750D01*
X001966Y009673D01*
X001966Y009443D01*
X002042Y009903D02*
X002119Y009980D01*
X002119Y010133D01*
X002042Y010210D01*
X001889Y010210D01*
X001812Y010133D01*
X001812Y010057D01*
X001889Y009903D01*
X001659Y009903D01*
X001659Y010210D01*
X001796Y010832D02*
X002180Y010832D01*
X002256Y010909D01*
X002256Y011063D01*
X002180Y011139D01*
X001796Y011139D01*
X001950Y011293D02*
X001796Y011446D01*
X002256Y011446D01*
X002256Y011293D02*
X002256Y011600D01*
X002256Y011753D02*
X001950Y012060D01*
X001873Y012060D01*
X001796Y011983D01*
X001796Y011830D01*
X001873Y011753D01*
X002256Y011753D02*
X002256Y012060D01*
X002273Y012907D02*
X002580Y012907D01*
X002656Y012984D01*
X002656Y013138D01*
X002580Y013214D01*
X002656Y013368D02*
X002656Y013675D01*
X002656Y013828D02*
X002350Y014135D01*
X002273Y014135D01*
X002196Y014058D01*
X002196Y013905D01*
X002273Y013828D01*
X002196Y013521D02*
X002656Y013521D01*
X002656Y013828D02*
X002656Y014135D01*
X002656Y014289D02*
X002656Y014595D01*
X002656Y014442D02*
X002196Y014442D01*
X002350Y014289D01*
X002119Y014320D02*
X002119Y014627D01*
X002119Y014781D02*
X002119Y015087D01*
X002119Y015241D02*
X002119Y015471D01*
X002042Y015548D01*
X001735Y015548D01*
X001659Y015471D01*
X001659Y015241D01*
X002119Y015241D01*
X001889Y014934D02*
X001889Y014781D01*
X001659Y014781D02*
X002119Y014781D01*
X001659Y014781D02*
X001659Y015087D01*
X001735Y015701D02*
X001659Y015778D01*
X001659Y015931D01*
X001735Y016008D01*
X001812Y016008D01*
X001889Y015931D01*
X001965Y016008D01*
X002042Y016008D01*
X002119Y015931D01*
X002119Y015778D01*
X002042Y015701D01*
X001889Y015855D02*
X001889Y015931D01*
X001965Y016162D02*
X001965Y016392D01*
X001889Y016468D01*
X001735Y016468D01*
X001659Y016392D01*
X001659Y016162D01*
X002119Y016162D01*
X002042Y016622D02*
X002119Y016699D01*
X002119Y016852D01*
X002042Y016929D01*
X001965Y016929D01*
X001889Y016852D01*
X001889Y016775D01*
X001889Y016852D02*
X001812Y016929D01*
X001735Y016929D01*
X001659Y016852D01*
X001659Y016699D01*
X001735Y016622D01*
X001796Y017332D02*
X002180Y017332D01*
X002256Y017409D01*
X002256Y017563D01*
X002180Y017639D01*
X001796Y017639D01*
X001950Y017793D02*
X001796Y017946D01*
X002256Y017946D01*
X002256Y017793D02*
X002256Y018100D01*
X002256Y018253D02*
X002256Y018560D01*
X002256Y018407D02*
X001796Y018407D01*
X001950Y018253D01*
X002273Y019407D02*
X002580Y019407D01*
X002656Y019484D01*
X002656Y019638D01*
X002580Y019714D01*
X002656Y019868D02*
X002656Y020175D01*
X002656Y020328D02*
X002656Y020635D01*
X002656Y020482D02*
X002196Y020482D01*
X002350Y020328D01*
X002196Y020021D02*
X002656Y020021D01*
X002350Y019868D02*
X002196Y020021D01*
X002273Y019714D02*
X002196Y019638D01*
X002196Y019484D01*
X002273Y019407D01*
X002971Y020364D02*
X002971Y020824D01*
X003202Y020824D01*
X003278Y020747D01*
X003278Y020594D01*
X003202Y020517D01*
X002971Y020517D01*
X003125Y020517D02*
X003278Y020364D01*
X003432Y020364D02*
X003739Y020364D01*
X003892Y020440D02*
X003969Y020364D01*
X004122Y020364D01*
X004199Y020440D01*
X004199Y020594D01*
X004122Y020671D01*
X004046Y020671D01*
X003892Y020594D01*
X003892Y020824D01*
X004199Y020824D01*
X004667Y021260D02*
X004973Y021260D01*
X005050Y021336D01*
X005050Y021490D01*
X004973Y021567D01*
X005050Y021720D02*
X005050Y022027D01*
X005050Y021873D02*
X004590Y021873D01*
X004743Y021720D01*
X004667Y021567D02*
X004590Y021490D01*
X004590Y021336D01*
X004667Y021260D01*
X004667Y022180D02*
X004590Y022257D01*
X004590Y022411D01*
X004667Y022487D01*
X004973Y022180D01*
X005050Y022257D01*
X005050Y022411D01*
X004973Y022487D01*
X004667Y022487D01*
X004667Y022641D02*
X004590Y022717D01*
X004590Y022871D01*
X004667Y022948D01*
X004743Y022948D01*
X005050Y022641D01*
X005050Y022948D01*
X004973Y022180D02*
X004667Y022180D01*
X003432Y020824D02*
X003432Y020364D01*
X002656Y020789D02*
X002656Y021095D01*
X002656Y020942D02*
X002196Y020942D01*
X002350Y020789D01*
X002088Y021272D02*
X001627Y021272D01*
X001627Y021733D02*
X002088Y021733D01*
X002088Y022039D01*
X002088Y022193D02*
X002088Y022423D01*
X002011Y022500D01*
X001704Y022500D01*
X001627Y022423D01*
X001627Y022193D01*
X002088Y022193D01*
X001858Y021886D02*
X001858Y021733D01*
X001627Y021733D02*
X001627Y022039D01*
X001627Y022653D02*
X001858Y022653D01*
X001781Y022807D01*
X001781Y022883D01*
X001858Y022960D01*
X002011Y022960D01*
X002088Y022883D01*
X002088Y022730D01*
X002011Y022653D01*
X001627Y022653D02*
X001627Y022960D01*
X001796Y023832D02*
X002180Y023832D01*
X002256Y023909D01*
X002256Y024063D01*
X002180Y024139D01*
X001796Y024139D01*
X001950Y024293D02*
X001796Y024446D01*
X002256Y024446D01*
X002256Y024293D02*
X002256Y024600D01*
X002180Y024753D02*
X001873Y025060D01*
X002180Y025060D01*
X002256Y024983D01*
X002256Y024830D01*
X002180Y024753D01*
X001873Y024753D01*
X001796Y024830D01*
X001796Y024983D01*
X001873Y025060D01*
X002273Y025907D02*
X002580Y025907D01*
X002656Y025984D01*
X002656Y026138D01*
X002580Y026214D01*
X002656Y026368D02*
X002656Y026675D01*
X002656Y026521D02*
X002196Y026521D01*
X002350Y026368D01*
X002273Y026214D02*
X002196Y026138D01*
X002196Y025984D01*
X002273Y025907D01*
X002273Y026828D02*
X002196Y026905D01*
X002196Y027058D01*
X002273Y027135D01*
X002580Y026828D01*
X002656Y026905D01*
X002656Y027058D01*
X002580Y027135D01*
X002273Y027135D01*
X002350Y027289D02*
X002196Y027442D01*
X002656Y027442D01*
X002656Y027289D02*
X002656Y027595D01*
X002580Y026828D02*
X002273Y026828D01*
X004590Y026402D02*
X004590Y026249D01*
X004667Y026172D01*
X004667Y026019D02*
X004974Y025712D01*
X005050Y025788D01*
X005050Y025942D01*
X004974Y026019D01*
X004667Y026019D01*
X004590Y025942D01*
X004590Y025788D01*
X004667Y025712D01*
X004974Y025712D01*
X005050Y025558D02*
X005050Y025251D01*
X005050Y025405D02*
X004590Y025405D01*
X004743Y025251D01*
X004667Y025098D02*
X004590Y025021D01*
X004590Y024868D01*
X004667Y024791D01*
X004974Y024791D01*
X005050Y024868D01*
X005050Y025021D01*
X004974Y025098D01*
X004974Y026172D02*
X005050Y026249D01*
X005050Y026402D01*
X004974Y026479D01*
X004897Y026479D01*
X004820Y026402D01*
X004820Y026325D01*
X004820Y026402D02*
X004743Y026479D01*
X004667Y026479D01*
X004590Y026402D01*
X007420Y029887D02*
X007266Y030041D01*
X007266Y030194D01*
X007420Y030348D01*
X007573Y030271D02*
X007650Y030348D01*
X007804Y030348D01*
X007880Y030271D01*
X007880Y030194D01*
X007573Y029887D01*
X007880Y029887D01*
X008034Y029964D02*
X008341Y030271D01*
X008341Y029964D01*
X008264Y029887D01*
X008110Y029887D01*
X008034Y029964D01*
X008034Y030271D01*
X008110Y030348D01*
X008264Y030348D01*
X008341Y030271D01*
X008494Y030194D02*
X008647Y030348D01*
X008647Y029887D01*
X008494Y029887D02*
X008801Y029887D01*
X008954Y029887D02*
X009261Y029887D01*
X009108Y029887D02*
X009108Y030348D01*
X008954Y030194D01*
X009415Y030348D02*
X009568Y030194D01*
X009568Y030041D01*
X009415Y029887D01*
X009415Y030762D02*
X009415Y031069D01*
X009261Y031223D01*
X009108Y031069D01*
X009108Y030762D01*
X009108Y030993D02*
X009415Y030993D01*
X009415Y031622D02*
X009108Y031622D01*
X009108Y032083D01*
X009415Y032083D01*
X009568Y032083D02*
X009798Y032083D01*
X009875Y032006D01*
X009875Y031853D01*
X009798Y031776D01*
X009568Y031776D01*
X009568Y031622D02*
X009568Y032083D01*
X009722Y031776D02*
X009875Y031622D01*
X010029Y031622D02*
X010259Y031622D01*
X010335Y031699D01*
X010335Y031776D01*
X010259Y031853D01*
X010029Y031853D01*
X010259Y031853D02*
X010335Y031929D01*
X010335Y032006D01*
X010259Y032083D01*
X010029Y032083D01*
X010029Y031622D01*
X010489Y031699D02*
X010489Y032006D01*
X010566Y032083D01*
X010719Y032083D01*
X010796Y032006D01*
X010796Y031699D01*
X010719Y031622D01*
X010566Y031622D01*
X010489Y031699D01*
X010949Y031622D02*
X010949Y031929D01*
X011103Y032083D01*
X011256Y031929D01*
X011256Y031622D01*
X011410Y031622D02*
X011410Y032083D01*
X011640Y032083D01*
X011717Y032006D01*
X011717Y031853D01*
X011640Y031776D01*
X011410Y031776D01*
X011563Y031776D02*
X011717Y031622D01*
X011870Y031622D02*
X012100Y031622D01*
X012177Y031699D01*
X012177Y032006D01*
X012100Y032083D01*
X011870Y032083D01*
X011870Y031622D01*
X011256Y031853D02*
X010949Y031853D01*
X010966Y033332D02*
X010813Y033332D01*
X010736Y033409D01*
X010889Y033563D02*
X010966Y033563D01*
X011043Y033486D01*
X011043Y033409D01*
X010966Y033332D01*
X011196Y033332D02*
X011273Y033332D01*
X011273Y033409D01*
X011196Y033409D01*
X011196Y033332D01*
X011426Y033409D02*
X011503Y033332D01*
X011657Y033332D01*
X011733Y033409D01*
X011733Y033563D01*
X011657Y033639D01*
X011580Y033639D01*
X011426Y033563D01*
X011426Y033793D01*
X011733Y033793D01*
X011887Y033639D02*
X012040Y033793D01*
X012194Y033639D01*
X012194Y033332D01*
X012194Y033563D02*
X011887Y033563D01*
X011887Y033639D02*
X011887Y033332D01*
X011043Y033639D02*
X010966Y033563D01*
X011043Y033639D02*
X011043Y033716D01*
X010966Y033793D01*
X010813Y033793D01*
X010736Y033716D01*
X010582Y033563D02*
X010276Y033563D01*
X010122Y033716D02*
X009815Y033409D01*
X009892Y033332D01*
X010045Y033332D01*
X010122Y033409D01*
X010122Y033716D01*
X010045Y033793D01*
X009892Y033793D01*
X009815Y033716D01*
X009815Y033409D01*
X009923Y034082D02*
X010077Y034082D01*
X010153Y034159D01*
X010153Y034236D01*
X010077Y034313D01*
X009846Y034313D01*
X009846Y034159D01*
X009923Y034082D01*
X009846Y034313D02*
X010000Y034466D01*
X010153Y034543D01*
X010307Y034543D02*
X010307Y034236D01*
X010460Y034082D01*
X010614Y034236D01*
X010614Y034543D01*
X011228Y034543D02*
X011228Y034082D01*
X011458Y034082D01*
X011534Y034159D01*
X011534Y034466D01*
X011458Y034543D01*
X011228Y034543D01*
X011688Y034466D02*
X011688Y034159D01*
X011765Y034082D01*
X011918Y034082D01*
X011995Y034159D01*
X011995Y034466D02*
X011918Y034543D01*
X011765Y034543D01*
X011688Y034466D01*
X011761Y035395D02*
X011454Y035395D01*
X011377Y035472D01*
X011377Y035625D01*
X011454Y035702D01*
X011454Y035855D02*
X011377Y035932D01*
X011377Y036085D01*
X011454Y036162D01*
X011531Y036162D01*
X011838Y035855D01*
X011838Y036162D01*
X011761Y036316D02*
X011454Y036623D01*
X011761Y036623D01*
X011838Y036546D01*
X011838Y036392D01*
X011761Y036316D01*
X011454Y036316D01*
X011377Y036392D01*
X011377Y036546D01*
X011454Y036623D01*
X011454Y036776D02*
X011377Y036853D01*
X011377Y037006D01*
X011454Y037083D01*
X011761Y036776D01*
X011838Y036853D01*
X011838Y037006D01*
X011761Y037083D01*
X011454Y037083D01*
X011454Y036776D02*
X011761Y036776D01*
X011761Y035702D02*
X011838Y035625D01*
X011838Y035472D01*
X011761Y035395D01*
X009722Y035199D02*
X009568Y035122D01*
X009415Y034969D01*
X009645Y034969D01*
X009722Y034892D01*
X009722Y034815D01*
X009645Y034739D01*
X009492Y034739D01*
X009415Y034815D01*
X009415Y034969D01*
X009262Y035122D02*
X009262Y034815D01*
X009185Y034739D01*
X008955Y034739D01*
X008955Y035199D01*
X009185Y035199D01*
X009262Y035122D01*
X008801Y035199D02*
X008494Y035199D01*
X008494Y034739D01*
X008801Y034739D01*
X008648Y034969D02*
X008494Y034969D01*
X008341Y034739D02*
X008034Y034739D01*
X008034Y035199D01*
X007980Y033866D02*
X007903Y033866D01*
X007826Y033790D01*
X007826Y033559D01*
X007980Y033559D01*
X008056Y033636D01*
X008056Y033790D01*
X007980Y033866D01*
X007673Y033713D02*
X007826Y033559D01*
X007673Y033713D02*
X007596Y033866D01*
X008056Y033406D02*
X008056Y033099D01*
X007596Y033099D01*
X007673Y032946D02*
X007826Y032946D01*
X007903Y032869D01*
X007903Y032639D01*
X007903Y032792D02*
X008056Y032946D01*
X008056Y032639D02*
X007596Y032639D01*
X007596Y032869D01*
X007673Y032946D01*
X007727Y032083D02*
X007727Y031622D01*
X008034Y031622D01*
X008187Y031622D02*
X008187Y031929D01*
X008341Y032083D01*
X008494Y031929D01*
X008494Y031622D01*
X008648Y031776D02*
X008801Y031622D01*
X008954Y031776D01*
X008954Y032083D01*
X009108Y031853D02*
X009261Y031853D01*
X008648Y031776D02*
X008648Y032083D01*
X008494Y031853D02*
X008187Y031853D01*
X008034Y032083D02*
X007727Y032083D01*
X007573Y032006D02*
X007573Y031929D01*
X007497Y031853D01*
X007266Y031853D01*
X007266Y032083D02*
X007497Y032083D01*
X007573Y032006D01*
X007497Y031853D02*
X007573Y031776D01*
X007573Y031699D01*
X007497Y031622D01*
X007266Y031622D01*
X007266Y032083D01*
X007727Y031853D02*
X007880Y031853D01*
X007497Y031223D02*
X007573Y031146D01*
X007573Y030993D01*
X007497Y030916D01*
X007266Y030916D01*
X007266Y030762D02*
X007266Y031223D01*
X007497Y031223D01*
X007420Y030916D02*
X007573Y030762D01*
X007727Y030839D02*
X007727Y030993D01*
X007804Y031069D01*
X007957Y031069D01*
X008034Y030993D01*
X008034Y030916D01*
X007727Y030916D01*
X007727Y030839D02*
X007804Y030762D01*
X007957Y030762D01*
X008187Y031069D02*
X008341Y030762D01*
X008494Y031069D01*
X003156Y032852D02*
X002849Y032852D01*
X003079Y033082D01*
X003079Y032622D01*
X002695Y032622D02*
X002388Y033082D01*
X002695Y033082D02*
X002388Y032622D01*
X013849Y024918D02*
X013849Y024457D01*
X013849Y024611D02*
X014079Y024611D01*
X014156Y024688D01*
X014156Y024841D01*
X014079Y024918D01*
X013849Y024918D01*
X014002Y024611D02*
X014156Y024457D01*
X014309Y024457D02*
X014616Y024764D01*
X014616Y024841D01*
X014539Y024918D01*
X014386Y024918D01*
X014309Y024841D01*
X014309Y024457D02*
X014616Y024457D01*
X014769Y024534D02*
X015076Y024841D01*
X015076Y024534D01*
X015000Y024457D01*
X014846Y024457D01*
X014769Y024534D01*
X014769Y024841D01*
X014846Y024918D01*
X015000Y024918D01*
X015076Y024841D01*
X015230Y024841D02*
X015306Y024918D01*
X015460Y024918D01*
X015537Y024841D01*
X015230Y024534D01*
X015306Y024457D01*
X015460Y024457D01*
X015537Y024534D01*
X015537Y024841D01*
X015230Y024841D02*
X015230Y024534D01*
X015278Y021770D02*
X015201Y021694D01*
X015201Y021464D01*
X015355Y021464D01*
X015431Y021540D01*
X015431Y021694D01*
X015355Y021770D01*
X015278Y021770D01*
X015048Y021617D02*
X015201Y021464D01*
X015048Y021617D02*
X014971Y021770D01*
X014556Y021319D02*
X014556Y021165D01*
X014480Y021089D01*
X014326Y021089D02*
X014250Y021242D01*
X014250Y021319D01*
X014326Y021395D01*
X014480Y021395D01*
X014556Y021319D01*
X014326Y021089D02*
X014096Y021089D01*
X014096Y021395D01*
X013681Y021319D02*
X013221Y021319D01*
X013451Y021089D01*
X013451Y021395D01*
X013068Y021534D02*
X012991Y021457D01*
X012838Y021457D01*
X012761Y021534D01*
X012608Y021534D02*
X012531Y021457D01*
X012301Y021457D01*
X012301Y021918D01*
X012531Y021918D01*
X012608Y021841D01*
X012608Y021764D01*
X012531Y021688D01*
X012301Y021688D01*
X012531Y021688D02*
X012608Y021611D01*
X012608Y021534D01*
X012914Y021688D02*
X012991Y021688D01*
X013068Y021611D01*
X013068Y021534D01*
X012991Y021688D02*
X013068Y021764D01*
X013068Y021841D01*
X012991Y021918D01*
X012838Y021918D01*
X012761Y021841D01*
X013221Y020782D02*
X013681Y020782D01*
X013681Y020935D02*
X013681Y020628D01*
X013681Y020475D02*
X013681Y020168D01*
X013681Y020321D02*
X013221Y020321D01*
X013375Y020168D01*
X013298Y020014D02*
X013221Y019938D01*
X013221Y019784D01*
X013298Y019707D01*
X013605Y019707D01*
X013681Y019784D01*
X013681Y019938D01*
X013605Y020014D01*
X014096Y019938D02*
X014096Y019784D01*
X014173Y019707D01*
X014480Y019707D01*
X014556Y019784D01*
X014556Y019938D01*
X014480Y020014D01*
X014556Y020168D02*
X014556Y020475D01*
X014556Y020628D02*
X014556Y020935D01*
X014556Y020782D02*
X014096Y020782D01*
X014250Y020628D01*
X014096Y020321D02*
X014556Y020321D01*
X014250Y020168D02*
X014096Y020321D01*
X014173Y020014D02*
X014096Y019938D01*
X014971Y020159D02*
X014971Y020313D01*
X015048Y020389D01*
X015125Y020543D02*
X014971Y020696D01*
X015431Y020696D01*
X015431Y020543D02*
X015431Y020850D01*
X015431Y021003D02*
X015431Y021310D01*
X015431Y021157D02*
X014971Y021157D01*
X015125Y021003D01*
X015355Y020389D02*
X015431Y020313D01*
X015431Y020159D01*
X015355Y020082D01*
X015048Y020082D01*
X014971Y020159D01*
X013375Y020628D02*
X013221Y020782D01*
X014431Y018179D02*
X014431Y017872D01*
X014431Y018025D02*
X013971Y018025D01*
X014125Y017872D01*
X014431Y017719D02*
X014431Y017412D01*
X014431Y017565D02*
X013971Y017565D01*
X014125Y017412D01*
X014431Y017258D02*
X014431Y016951D01*
X014431Y017105D02*
X013971Y017105D01*
X014125Y016951D01*
X014125Y016798D02*
X014201Y016721D01*
X014201Y016491D01*
X014431Y016491D02*
X013971Y016491D01*
X013971Y016721D01*
X014048Y016798D01*
X014125Y016798D01*
X014201Y016721D02*
X014278Y016798D01*
X014355Y016798D01*
X014431Y016721D01*
X014431Y016491D01*
X014431Y013395D02*
X014431Y013089D01*
X014125Y013395D01*
X014048Y013395D01*
X013971Y013319D01*
X013971Y013165D01*
X014048Y013089D01*
X013971Y012782D02*
X014431Y012782D01*
X014431Y012935D02*
X014431Y012628D01*
X014431Y012475D02*
X014431Y012168D01*
X014431Y012321D02*
X013971Y012321D01*
X014125Y012168D01*
X014125Y012014D02*
X014048Y012014D01*
X013971Y011938D01*
X013971Y011707D01*
X014431Y011707D01*
X014431Y011938D01*
X014355Y012014D01*
X014278Y012014D01*
X014201Y011938D01*
X014201Y011707D01*
X014201Y011938D02*
X014125Y012014D01*
X014125Y012628D02*
X013971Y012782D01*
X014173Y010304D02*
X014250Y010304D01*
X014326Y010227D01*
X014326Y010074D01*
X014250Y009997D01*
X014173Y009997D01*
X014096Y010074D01*
X014096Y010227D01*
X014173Y010304D01*
X014326Y010227D02*
X014403Y010304D01*
X014480Y010304D01*
X014556Y010227D01*
X014556Y010074D01*
X014480Y009997D01*
X014403Y009997D01*
X014326Y010074D01*
X014556Y009844D02*
X014556Y009537D01*
X014556Y009690D02*
X014096Y009690D01*
X014250Y009537D01*
X014556Y009383D02*
X014556Y009076D01*
X014556Y009230D02*
X014096Y009230D01*
X014250Y009076D01*
X014173Y008923D02*
X014096Y008846D01*
X014096Y008693D01*
X014173Y008616D01*
X014480Y008616D01*
X014556Y008693D01*
X014556Y008846D01*
X014480Y008923D01*
X014971Y008730D02*
X015431Y008730D01*
X015431Y008883D02*
X015431Y008576D01*
X015355Y008423D02*
X015431Y008346D01*
X015431Y008193D01*
X015355Y008116D01*
X015048Y008116D01*
X014971Y008193D01*
X014971Y008346D01*
X015048Y008423D01*
X015125Y008576D02*
X014971Y008730D01*
X015125Y009037D02*
X014971Y009190D01*
X015431Y009190D01*
X015431Y009037D02*
X015431Y009344D01*
X015355Y009497D02*
X015431Y009574D01*
X015431Y009727D01*
X015355Y009804D01*
X015048Y009804D01*
X014971Y009727D01*
X014971Y009574D01*
X015048Y009497D01*
X015125Y009497D01*
X015201Y009574D01*
X015201Y009804D01*
X013681Y009844D02*
X013681Y009537D01*
X013681Y009690D02*
X013221Y009690D01*
X013375Y009537D01*
X013681Y009383D02*
X013681Y009076D01*
X013681Y009230D02*
X013221Y009230D01*
X013375Y009076D01*
X013298Y008923D02*
X013221Y008846D01*
X013221Y008693D01*
X013298Y008616D01*
X013605Y008616D01*
X013681Y008693D01*
X013681Y008846D01*
X013605Y008923D01*
X013605Y009997D02*
X013298Y010304D01*
X013221Y010304D01*
X013221Y009997D01*
X013605Y009997D02*
X013681Y009997D01*
X012991Y007418D02*
X012838Y007418D01*
X012761Y007341D01*
X012608Y007341D02*
X012608Y007264D01*
X012531Y007188D01*
X012301Y007188D01*
X012301Y007418D02*
X012531Y007418D01*
X012608Y007341D01*
X012531Y007188D02*
X012608Y007111D01*
X012608Y007034D01*
X012531Y006957D01*
X012301Y006957D01*
X012301Y007418D01*
X012761Y006957D02*
X013068Y007264D01*
X013068Y007341D01*
X012991Y007418D01*
X013068Y006957D02*
X012761Y006957D01*
X005120Y007409D02*
X005043Y007332D01*
X004890Y007332D01*
X004813Y007409D01*
X004813Y007563D02*
X004966Y007639D01*
X005043Y007639D01*
X005120Y007563D01*
X005120Y007409D01*
X004813Y007563D02*
X004813Y007793D01*
X005120Y007793D01*
X004659Y007716D02*
X004659Y007563D01*
X004583Y007486D01*
X004353Y007486D01*
X004353Y007332D02*
X004353Y007793D01*
X004583Y007793D01*
X004659Y007716D01*
X004199Y007716D02*
X004199Y007639D01*
X003892Y007332D01*
X004199Y007332D01*
X004199Y007716D02*
X004122Y007793D01*
X003969Y007793D01*
X003892Y007716D01*
X003739Y007332D02*
X003432Y007332D01*
X003432Y007793D01*
X003278Y007716D02*
X003278Y007563D01*
X003202Y007486D01*
X002971Y007486D01*
X002971Y007332D02*
X002971Y007793D01*
X003202Y007793D01*
X003278Y007716D01*
X003125Y007486D02*
X003278Y007332D01*
X004590Y008336D02*
X004667Y008260D01*
X004974Y008260D01*
X005050Y008336D01*
X005050Y008490D01*
X004974Y008567D01*
X005050Y008720D02*
X005050Y009027D01*
X005050Y009180D02*
X004743Y009487D01*
X004667Y009487D01*
X004590Y009411D01*
X004590Y009257D01*
X004667Y009180D01*
X004590Y008873D02*
X005050Y008873D01*
X005050Y009180D02*
X005050Y009487D01*
X005050Y009641D02*
X004743Y009948D01*
X004667Y009948D01*
X004590Y009871D01*
X004590Y009717D01*
X004667Y009641D01*
X005050Y009641D02*
X005050Y009948D01*
X004590Y008873D02*
X004743Y008720D01*
X004667Y008567D02*
X004590Y008490D01*
X004590Y008336D01*
X004667Y011822D02*
X004974Y011822D01*
X005050Y011899D01*
X005050Y012052D01*
X004974Y012129D01*
X005050Y012283D02*
X005050Y012589D01*
X005050Y012436D02*
X004590Y012436D01*
X004743Y012283D01*
X004667Y012129D02*
X004590Y012052D01*
X004590Y011899D01*
X004667Y011822D01*
X004667Y012743D02*
X004590Y012820D01*
X004590Y012973D01*
X004667Y013050D01*
X004743Y013050D01*
X005050Y012743D01*
X005050Y013050D01*
X004974Y013203D02*
X005050Y013280D01*
X005050Y013433D01*
X004974Y013510D01*
X004897Y013510D01*
X004820Y013433D01*
X004820Y013357D01*
X004820Y013433D02*
X004743Y013510D01*
X004667Y013510D01*
X004590Y013433D01*
X004590Y013280D01*
X004667Y013203D01*
X004890Y013864D02*
X004813Y013940D01*
X004890Y013864D02*
X005043Y013864D01*
X005120Y013940D01*
X005120Y014017D01*
X005043Y014094D01*
X004966Y014094D01*
X005043Y014094D02*
X005120Y014171D01*
X005120Y014247D01*
X005043Y014324D01*
X004890Y014324D01*
X004813Y014247D01*
X004659Y014247D02*
X004659Y014094D01*
X004583Y014017D01*
X004353Y014017D01*
X004353Y013864D02*
X004353Y014324D01*
X004583Y014324D01*
X004659Y014247D01*
X004199Y014247D02*
X004122Y014324D01*
X003969Y014324D01*
X003892Y014247D01*
X004046Y014094D02*
X004122Y014094D01*
X004199Y014017D01*
X004199Y013940D01*
X004122Y013864D01*
X003969Y013864D01*
X003892Y013940D01*
X003739Y013864D02*
X003432Y013864D01*
X003432Y014324D01*
X003278Y014247D02*
X003202Y014324D01*
X002971Y014324D01*
X002971Y013864D01*
X002971Y014017D02*
X003202Y014017D01*
X003278Y014094D01*
X003278Y014247D01*
X003125Y014017D02*
X003278Y013864D01*
X004122Y014094D02*
X004199Y014171D01*
X004199Y014247D01*
X004667Y014760D02*
X004974Y014760D01*
X005050Y014836D01*
X005050Y014990D01*
X004974Y015067D01*
X005050Y015220D02*
X005050Y015527D01*
X005050Y015680D02*
X005050Y015987D01*
X005050Y015834D02*
X004590Y015834D01*
X004743Y015680D01*
X004590Y015373D02*
X005050Y015373D01*
X004743Y015220D02*
X004590Y015373D01*
X004667Y015067D02*
X004590Y014990D01*
X004590Y014836D01*
X004667Y014760D01*
X004667Y016141D02*
X004590Y016217D01*
X004590Y016371D01*
X004667Y016448D01*
X004743Y016448D01*
X005050Y016141D01*
X005050Y016448D01*
X007016Y016585D02*
X007093Y016662D01*
X007247Y016662D01*
X007323Y016585D01*
X007323Y016508D01*
X007016Y016201D01*
X007323Y016201D01*
X007477Y016201D02*
X007554Y016201D01*
X007554Y016278D01*
X007477Y016278D01*
X007477Y016201D01*
X007707Y016278D02*
X007784Y016201D01*
X007937Y016201D01*
X008014Y016278D01*
X008014Y016431D01*
X007937Y016508D01*
X007860Y016508D01*
X007707Y016431D01*
X007707Y016662D01*
X008014Y016662D01*
X008167Y016662D02*
X008167Y016355D01*
X008321Y016201D01*
X008474Y016355D01*
X008474Y016662D01*
X008167Y017170D02*
X008244Y017247D01*
X008244Y017554D01*
X008167Y017630D01*
X007937Y017630D01*
X007937Y017170D01*
X008167Y017170D01*
X007784Y017170D02*
X007784Y017630D01*
X007477Y017630D02*
X007477Y017170D01*
X007323Y017247D02*
X007323Y017400D01*
X007170Y017400D01*
X007323Y017247D02*
X007247Y017170D01*
X007093Y017170D01*
X007016Y017247D01*
X007016Y017554D01*
X007093Y017630D01*
X007247Y017630D01*
X007323Y017554D01*
X007477Y017630D02*
X007784Y017170D01*
X007784Y018170D02*
X007707Y018247D01*
X007784Y018170D02*
X007937Y018170D01*
X008014Y018247D01*
X008014Y018323D01*
X007937Y018400D01*
X007860Y018400D01*
X007937Y018400D02*
X008014Y018477D01*
X008014Y018554D01*
X007937Y018630D01*
X007784Y018630D01*
X007707Y018554D01*
X007554Y018247D02*
X007554Y018170D01*
X007477Y018170D01*
X007477Y018247D01*
X007554Y018247D01*
X007323Y018247D02*
X007247Y018170D01*
X007093Y018170D01*
X007016Y018247D01*
X007170Y018400D02*
X007247Y018400D01*
X007323Y018323D01*
X007323Y018247D01*
X007247Y018400D02*
X007323Y018477D01*
X007323Y018554D01*
X007247Y018630D01*
X007093Y018630D01*
X007016Y018554D01*
X007093Y019170D02*
X007247Y019170D01*
X007323Y019247D01*
X007323Y019400D01*
X007170Y019400D01*
X007323Y019554D02*
X007247Y019630D01*
X007093Y019630D01*
X007016Y019554D01*
X007016Y019247D01*
X007093Y019170D01*
X007477Y019170D02*
X007477Y019630D01*
X007784Y019170D01*
X007784Y019630D01*
X007937Y019630D02*
X008167Y019630D01*
X008244Y019554D01*
X008244Y019247D01*
X008167Y019170D01*
X007937Y019170D01*
X007937Y019630D01*
X007630Y020170D02*
X007784Y020323D01*
X007784Y020630D01*
X007477Y020630D02*
X007477Y020323D01*
X007630Y020170D01*
X007323Y020247D02*
X007247Y020170D01*
X007093Y020170D01*
X007016Y020247D01*
X007016Y020400D02*
X007170Y020477D01*
X007247Y020477D01*
X007323Y020400D01*
X007323Y020247D01*
X007016Y020400D02*
X007016Y020630D01*
X007323Y020630D01*
X008167Y018630D02*
X008167Y018323D01*
X008321Y018170D01*
X008474Y018323D01*
X008474Y018630D01*
X008167Y015630D02*
X007937Y015630D01*
X007937Y015170D01*
X008167Y015170D01*
X008244Y015247D01*
X008244Y015554D01*
X008167Y015630D01*
X007784Y015630D02*
X007784Y015170D01*
X007477Y015630D01*
X007477Y015170D01*
X007323Y015247D02*
X007323Y015400D01*
X007170Y015400D01*
X007323Y015247D02*
X007247Y015170D01*
X007093Y015170D01*
X007016Y015247D01*
X007016Y015554D01*
X007093Y015630D01*
X007247Y015630D01*
X007323Y015554D01*
X004974Y018322D02*
X005050Y018399D01*
X005050Y018552D01*
X004974Y018629D01*
X005050Y018782D02*
X005050Y019089D01*
X005050Y018936D02*
X004590Y018936D01*
X004743Y018782D01*
X004667Y018629D02*
X004590Y018552D01*
X004590Y018399D01*
X004667Y018322D01*
X004974Y018322D01*
X005050Y019243D02*
X005050Y019550D01*
X005050Y019396D02*
X004590Y019396D01*
X004743Y019243D01*
X004667Y019703D02*
X004590Y019780D01*
X004590Y019933D01*
X004667Y020010D01*
X004743Y020010D01*
X004820Y019933D01*
X004897Y020010D01*
X004974Y020010D01*
X005050Y019933D01*
X005050Y019780D01*
X004974Y019703D01*
X004820Y019857D02*
X004820Y019933D01*
X002088Y021272D02*
X002088Y021579D01*
X002119Y014320D02*
X001659Y014320D01*
X002196Y013521D02*
X002350Y013368D01*
X002273Y013214D02*
X002196Y013138D01*
X002196Y012984D01*
X002273Y012907D01*
X020596Y018582D02*
X020903Y018582D01*
X020750Y018582D02*
X020750Y019043D01*
X020596Y018889D01*
X021926Y019582D02*
X022233Y020043D01*
X022386Y019966D02*
X022463Y020043D01*
X022616Y020043D01*
X022693Y019966D01*
X022693Y019889D01*
X022386Y019582D01*
X022693Y019582D01*
X022233Y019582D02*
X021926Y020043D01*
X027048Y014543D02*
X026971Y014466D01*
X026971Y014159D01*
X027048Y014082D01*
X027202Y014082D01*
X027278Y014159D01*
X027432Y014082D02*
X027739Y014082D01*
X027892Y014082D02*
X028199Y014082D01*
X028046Y014082D02*
X028046Y014543D01*
X027892Y014389D01*
X027585Y014543D02*
X027585Y014082D01*
X027432Y014389D02*
X027585Y014543D01*
X027278Y014466D02*
X027202Y014543D01*
X027048Y014543D01*
X026971Y013543D02*
X027202Y013543D01*
X027278Y013466D01*
X027278Y013313D01*
X027202Y013236D01*
X026971Y013236D01*
X026971Y013082D02*
X026971Y013543D01*
X027125Y013236D02*
X027278Y013082D01*
X027432Y013082D02*
X027739Y013082D01*
X027892Y013082D02*
X028199Y013389D01*
X028199Y013466D01*
X028122Y013543D01*
X027969Y013543D01*
X027892Y013466D01*
X027585Y013543D02*
X027585Y013082D01*
X027892Y013082D02*
X028199Y013082D01*
X027585Y013543D02*
X027432Y013389D01*
X027452Y012043D02*
X027528Y011966D01*
X027528Y011813D01*
X027452Y011736D01*
X027221Y011736D01*
X027221Y011582D02*
X027221Y012043D01*
X027452Y012043D01*
X027682Y011889D02*
X027835Y012043D01*
X027835Y011582D01*
X027682Y011582D02*
X027989Y011582D01*
X028142Y011659D02*
X028219Y011582D01*
X028372Y011582D01*
X028449Y011659D01*
X028449Y011736D01*
X028372Y011813D01*
X028296Y011813D01*
X028372Y011813D02*
X028449Y011889D01*
X028449Y011966D01*
X028372Y012043D01*
X028219Y012043D01*
X028142Y011966D01*
X027528Y011582D02*
X027375Y011736D01*
X027452Y010543D02*
X027528Y010466D01*
X027528Y010313D01*
X027452Y010236D01*
X027221Y010236D01*
X027221Y010082D02*
X027221Y010543D01*
X027452Y010543D01*
X027682Y010389D02*
X027835Y010543D01*
X027835Y010082D01*
X027682Y010082D02*
X027989Y010082D01*
X028142Y010159D02*
X028219Y010082D01*
X028372Y010082D01*
X028449Y010159D01*
X028449Y010236D01*
X028372Y010313D01*
X028142Y010313D01*
X028142Y010159D01*
X028142Y010313D02*
X028296Y010466D01*
X028449Y010543D01*
X028971Y011082D02*
X028971Y011543D01*
X029202Y011543D01*
X029278Y011466D01*
X029278Y011313D01*
X029202Y011236D01*
X028971Y011236D01*
X029125Y011236D02*
X029278Y011082D01*
X029432Y011082D02*
X029739Y011389D01*
X029739Y011466D01*
X029662Y011543D01*
X029509Y011543D01*
X029432Y011466D01*
X029432Y011707D02*
X029739Y012014D01*
X029739Y012091D01*
X029662Y012168D01*
X029509Y012168D01*
X029432Y012091D01*
X029278Y012091D02*
X029202Y012168D01*
X029048Y012168D01*
X028971Y012091D01*
X028971Y011784D01*
X029048Y011707D01*
X029202Y011707D01*
X029278Y011784D01*
X029432Y011707D02*
X029739Y011707D01*
X029892Y011707D02*
X030199Y011707D01*
X030046Y011707D02*
X030046Y012168D01*
X029892Y012014D01*
X029892Y012332D02*
X030199Y012639D01*
X030199Y012716D01*
X030122Y012793D01*
X029969Y012793D01*
X029892Y012716D01*
X029969Y012957D02*
X029892Y013034D01*
X029969Y012957D02*
X030122Y012957D01*
X030199Y013034D01*
X030199Y013188D01*
X030122Y013264D01*
X030046Y013264D01*
X029892Y013188D01*
X029892Y013418D01*
X030199Y013418D01*
X029585Y013418D02*
X029585Y012957D01*
X029432Y012957D02*
X029739Y012957D01*
X029585Y012793D02*
X029585Y012332D01*
X029432Y012332D02*
X029739Y012332D01*
X029892Y012332D02*
X030199Y012332D01*
X030590Y012409D02*
X030667Y012332D01*
X030820Y012332D01*
X030897Y012409D01*
X031051Y012409D02*
X031127Y012332D01*
X031281Y012332D01*
X031358Y012409D01*
X031358Y012486D01*
X031281Y012563D01*
X031204Y012563D01*
X031281Y012563D02*
X031358Y012639D01*
X031358Y012716D01*
X031281Y012793D01*
X031127Y012793D01*
X031051Y012716D01*
X030897Y012716D02*
X030820Y012793D01*
X030667Y012793D01*
X030590Y012716D01*
X030590Y012409D01*
X030667Y012168D02*
X030590Y012091D01*
X030590Y011784D01*
X030667Y011707D01*
X030820Y011707D01*
X030897Y011784D01*
X031051Y011784D02*
X031127Y011707D01*
X031281Y011707D01*
X031358Y011784D01*
X031358Y011861D01*
X031281Y011938D01*
X031204Y011938D01*
X031281Y011938D02*
X031358Y012014D01*
X031358Y012091D01*
X031281Y012168D01*
X031127Y012168D01*
X031051Y012091D01*
X030897Y012091D02*
X030820Y012168D01*
X030667Y012168D01*
X030122Y011543D02*
X029969Y011543D01*
X029892Y011466D01*
X030122Y011543D02*
X030199Y011466D01*
X030199Y011389D01*
X029892Y011082D01*
X030199Y011082D01*
X029739Y011082D02*
X029432Y011082D01*
X029202Y012332D02*
X029278Y012409D01*
X029202Y012332D02*
X029048Y012332D01*
X028971Y012409D01*
X028971Y012716D01*
X029048Y012793D01*
X029202Y012793D01*
X029278Y012716D01*
X029432Y012639D02*
X029585Y012793D01*
X029278Y012957D02*
X029125Y013111D01*
X029202Y013111D02*
X028971Y013111D01*
X028971Y012957D02*
X028971Y013418D01*
X029202Y013418D01*
X029278Y013341D01*
X029278Y013188D01*
X029202Y013111D01*
X029432Y013264D02*
X029585Y013418D01*
X031511Y012639D02*
X031664Y012793D01*
X031664Y012332D01*
X031511Y012332D02*
X031818Y012332D01*
X031741Y012168D02*
X031588Y012168D01*
X031511Y012091D01*
X031741Y012168D02*
X031818Y012091D01*
X031818Y012014D01*
X031511Y011707D01*
X031818Y011707D01*
X031826Y010679D02*
X031980Y010679D01*
X032056Y010602D01*
X032056Y010449D01*
X031980Y010372D01*
X031980Y010219D02*
X032056Y010142D01*
X032056Y009988D01*
X031980Y009912D01*
X031980Y009758D02*
X032056Y009681D01*
X032056Y009528D01*
X031980Y009451D01*
X031673Y009451D01*
X031596Y009528D01*
X031596Y009681D01*
X031673Y009758D01*
X031673Y009912D02*
X031596Y009988D01*
X031596Y010142D01*
X031673Y010219D01*
X031750Y010219D01*
X031826Y010142D01*
X031903Y010219D01*
X031980Y010219D01*
X031826Y010142D02*
X031826Y010065D01*
X031826Y010372D02*
X031750Y010525D01*
X031750Y010602D01*
X031826Y010679D01*
X031596Y010679D02*
X031596Y010372D01*
X031826Y010372D01*
X032486Y006793D02*
X032409Y006716D01*
X032409Y006409D01*
X032486Y006332D01*
X032639Y006332D01*
X032716Y006409D01*
X032869Y006563D02*
X033176Y006563D01*
X033330Y006716D02*
X033406Y006793D01*
X033560Y006793D01*
X033637Y006716D01*
X033637Y006639D01*
X033330Y006332D01*
X033637Y006332D01*
X033099Y006332D02*
X033099Y006793D01*
X032869Y006563D01*
X032716Y006716D02*
X032639Y006793D01*
X032486Y006793D01*
X030122Y005324D02*
X029892Y005094D01*
X030199Y005094D01*
X030122Y004864D02*
X030122Y005324D01*
X029739Y005247D02*
X029739Y005171D01*
X029662Y005094D01*
X029739Y005017D01*
X029739Y004940D01*
X029662Y004864D01*
X029509Y004864D01*
X029432Y004940D01*
X029278Y004940D02*
X029202Y004864D01*
X029048Y004864D01*
X028971Y004940D01*
X028971Y005247D01*
X029048Y005324D01*
X029202Y005324D01*
X029278Y005247D01*
X029432Y005247D02*
X029509Y005324D01*
X029662Y005324D01*
X029739Y005247D01*
X029662Y005094D02*
X029585Y005094D01*
X029537Y005707D02*
X029384Y005707D01*
X029307Y005784D01*
X029153Y005784D02*
X029077Y005707D01*
X028923Y005707D01*
X028846Y005784D01*
X028846Y006091D01*
X028923Y006168D01*
X029077Y006168D01*
X029153Y006091D01*
X029307Y006091D02*
X029384Y006168D01*
X029537Y006168D01*
X029614Y006091D01*
X029614Y006014D01*
X029537Y005938D01*
X029614Y005861D01*
X029614Y005784D01*
X029537Y005707D01*
X029537Y005938D02*
X029460Y005938D01*
X029767Y006091D02*
X029844Y006168D01*
X029997Y006168D01*
X030074Y006091D01*
X030074Y006014D01*
X029997Y005938D01*
X030074Y005861D01*
X030074Y005784D01*
X029997Y005707D01*
X029844Y005707D01*
X029767Y005784D01*
X029921Y005938D02*
X029997Y005938D01*
X028449Y005466D02*
X028449Y005389D01*
X028372Y005313D01*
X028449Y005236D01*
X028449Y005159D01*
X028372Y005082D01*
X028219Y005082D01*
X028142Y005159D01*
X027989Y005082D02*
X027682Y005082D01*
X027989Y005389D01*
X027989Y005466D01*
X027912Y005543D01*
X027759Y005543D01*
X027682Y005466D01*
X027528Y005466D02*
X027452Y005543D01*
X027221Y005543D01*
X027221Y005082D01*
X027221Y005236D02*
X027452Y005236D01*
X027528Y005313D01*
X027528Y005466D01*
X027375Y005236D02*
X027528Y005082D01*
X028142Y005466D02*
X028219Y005543D01*
X028372Y005543D01*
X028449Y005466D01*
X028372Y005313D02*
X028296Y005313D01*
X028449Y004043D02*
X028296Y003966D01*
X028142Y003813D01*
X028372Y003813D01*
X028449Y003736D01*
X028449Y003659D01*
X028372Y003582D01*
X028219Y003582D01*
X028142Y003659D01*
X028142Y003813D01*
X027989Y003889D02*
X027682Y003582D01*
X027989Y003582D01*
X027989Y003889D02*
X027989Y003966D01*
X027912Y004043D01*
X027759Y004043D01*
X027682Y003966D01*
X027528Y003966D02*
X027528Y003813D01*
X027452Y003736D01*
X027221Y003736D01*
X027221Y003582D02*
X027221Y004043D01*
X027452Y004043D01*
X027528Y003966D01*
X027375Y003736D02*
X027528Y003582D01*
X027355Y002935D02*
X027431Y002858D01*
X027431Y002705D01*
X027355Y002628D01*
X027201Y002628D02*
X027125Y002782D01*
X027125Y002858D01*
X027201Y002935D01*
X027355Y002935D01*
X027201Y002628D02*
X026971Y002628D01*
X026971Y002935D01*
X027048Y002475D02*
X026971Y002398D01*
X026971Y002244D01*
X027048Y002168D01*
X027048Y002014D02*
X027201Y002014D01*
X027278Y001938D01*
X027278Y001707D01*
X027431Y001707D02*
X026971Y001707D01*
X026971Y001938D01*
X027048Y002014D01*
X027278Y001861D02*
X027431Y002014D01*
X027431Y002168D02*
X027125Y002475D01*
X027048Y002475D01*
X027431Y002475D02*
X027431Y002168D01*
X027509Y001543D02*
X027432Y001466D01*
X027509Y001543D02*
X027662Y001543D01*
X027739Y001466D01*
X027739Y001389D01*
X027432Y001082D01*
X027739Y001082D01*
X027892Y001082D02*
X028199Y001389D01*
X028199Y001466D01*
X028122Y001543D01*
X027969Y001543D01*
X027892Y001466D01*
X027892Y001082D02*
X028199Y001082D01*
X027278Y001159D02*
X027202Y001082D01*
X027048Y001082D01*
X026971Y001159D01*
X026971Y001466D01*
X027048Y001543D01*
X027202Y001543D01*
X027278Y001466D01*
X025506Y002034D02*
X025506Y002188D01*
X025430Y002264D01*
X025046Y002264D01*
X025123Y002418D02*
X025046Y002494D01*
X025046Y002648D01*
X025123Y002725D01*
X025200Y002725D01*
X025506Y002418D01*
X025506Y002725D01*
X025506Y002034D02*
X025430Y001957D01*
X025046Y001957D01*
X024556Y003451D02*
X024096Y003451D01*
X024096Y003681D01*
X024173Y003758D01*
X024326Y003758D01*
X024403Y003681D01*
X024403Y003451D01*
X024403Y003605D02*
X024556Y003758D01*
X024556Y003912D02*
X024250Y004219D01*
X024173Y004219D01*
X024096Y004142D01*
X024096Y003988D01*
X024173Y003912D01*
X024556Y003912D02*
X024556Y004219D01*
X024326Y004372D02*
X024326Y004679D01*
X024096Y004602D02*
X024326Y004372D01*
X024556Y004602D02*
X024096Y004602D01*
X024151Y006332D02*
X024457Y006639D01*
X024457Y006716D01*
X024381Y006793D01*
X024227Y006793D01*
X024151Y006716D01*
X023997Y006716D02*
X023997Y006563D01*
X023920Y006486D01*
X023690Y006486D01*
X023690Y006332D02*
X023690Y006793D01*
X023920Y006793D01*
X023997Y006716D01*
X023844Y006486D02*
X023997Y006332D01*
X024151Y006332D02*
X024457Y006332D01*
X024611Y006332D02*
X024918Y006332D01*
X024764Y006332D02*
X024764Y006793D01*
X024611Y006639D01*
X024489Y008832D02*
X024182Y008832D01*
X024335Y008832D02*
X024335Y009293D01*
X024182Y009139D01*
X024028Y009063D02*
X023952Y008986D01*
X023721Y008986D01*
X023721Y008832D02*
X023721Y009293D01*
X023952Y009293D01*
X024028Y009216D01*
X024028Y009063D01*
X023875Y008986D02*
X024028Y008832D01*
X024642Y009063D02*
X024949Y009063D01*
X024872Y009293D02*
X024642Y009063D01*
X024872Y008832D02*
X024872Y009293D01*
X024525Y010989D02*
X024065Y010989D01*
X024065Y011219D01*
X024142Y011296D01*
X024295Y011296D01*
X024372Y011219D01*
X024372Y010989D01*
X024372Y011142D02*
X024525Y011296D01*
X024525Y011449D02*
X024525Y011756D01*
X024525Y011909D02*
X024525Y012216D01*
X024525Y012063D02*
X024065Y012063D01*
X024218Y011909D01*
X024065Y011602D02*
X024525Y011602D01*
X024218Y011449D02*
X024065Y011602D01*
X025046Y012957D02*
X025430Y012957D01*
X025506Y013034D01*
X025506Y013188D01*
X025430Y013264D01*
X025046Y013264D01*
X025200Y013418D02*
X025046Y013571D01*
X025506Y013571D01*
X025506Y013418D02*
X025506Y013725D01*
X027375Y010236D02*
X027528Y010082D01*
X033042Y004418D02*
X032965Y004341D01*
X032965Y004034D01*
X033042Y003957D01*
X033195Y003957D01*
X033272Y004034D01*
X033426Y004188D02*
X033656Y004418D01*
X033656Y003957D01*
X033886Y003957D02*
X034193Y003957D01*
X034039Y003957D02*
X034039Y004418D01*
X033886Y004264D01*
X033733Y004188D02*
X033426Y004188D01*
X033272Y004341D02*
X033195Y004418D01*
X033042Y004418D01*
X030880Y003341D02*
X030880Y003034D01*
X030804Y002957D01*
X030650Y002957D01*
X030574Y003034D01*
X030880Y003341D01*
X030804Y003418D01*
X030650Y003418D01*
X030574Y003341D01*
X030574Y003034D01*
X030420Y002957D02*
X030113Y002957D01*
X029960Y002957D02*
X029806Y003111D01*
X029883Y003111D02*
X029653Y003111D01*
X029653Y002957D02*
X029653Y003418D01*
X029883Y003418D01*
X029960Y003341D01*
X029960Y003188D01*
X029883Y003111D01*
X030113Y003264D02*
X030267Y003418D01*
X030267Y002957D01*
X030042Y002554D02*
X030119Y002477D01*
X030119Y002324D01*
X030042Y002247D01*
X029735Y002554D01*
X030042Y002554D01*
X029735Y002554D02*
X029659Y002477D01*
X029659Y002324D01*
X029735Y002247D01*
X030042Y002247D01*
X030119Y002094D02*
X030119Y001787D01*
X029812Y002094D01*
X029735Y002094D01*
X029659Y002017D01*
X029659Y001863D01*
X029735Y001787D01*
X029735Y001633D02*
X029889Y001633D01*
X029966Y001556D01*
X029966Y001326D01*
X030119Y001326D02*
X029659Y001326D01*
X029659Y001556D01*
X029735Y001633D01*
X029966Y001480D02*
X030119Y001633D01*
X035471Y003707D02*
X035471Y003938D01*
X035548Y004014D01*
X035701Y004014D01*
X035778Y003938D01*
X035778Y003707D01*
X035931Y003707D02*
X035471Y003707D01*
X035778Y003861D02*
X035931Y004014D01*
X035855Y004168D02*
X035931Y004244D01*
X035931Y004398D01*
X035855Y004475D01*
X035778Y004475D01*
X035701Y004398D01*
X035701Y004168D01*
X035855Y004168D01*
X035701Y004168D02*
X035548Y004321D01*
X035471Y004475D01*
X035701Y004628D02*
X035701Y004935D01*
X035471Y004858D02*
X035701Y004628D01*
X035931Y004858D02*
X035471Y004858D01*
X035579Y005645D02*
X035733Y005645D01*
X035810Y005722D01*
X035963Y005875D02*
X036193Y006105D01*
X036193Y005645D01*
X036270Y005875D02*
X035963Y005875D01*
X035810Y006029D02*
X035733Y006105D01*
X035579Y006105D01*
X035503Y006029D01*
X035503Y005722D01*
X035579Y005645D01*
X036423Y005722D02*
X036500Y005645D01*
X036654Y005645D01*
X036730Y005722D01*
X036730Y005798D01*
X036654Y005875D01*
X036577Y005875D01*
X036654Y005875D02*
X036730Y005952D01*
X036730Y006029D01*
X036654Y006105D01*
X036500Y006105D01*
X036423Y006029D01*
X037096Y004179D02*
X037096Y003872D01*
X037326Y003872D01*
X037250Y004025D01*
X037250Y004102D01*
X037326Y004179D01*
X037480Y004179D01*
X037556Y004102D01*
X037556Y003949D01*
X037480Y003872D01*
X037480Y003719D02*
X037403Y003719D01*
X037326Y003642D01*
X037326Y003412D01*
X037480Y003412D01*
X037556Y003488D01*
X037556Y003642D01*
X037480Y003719D01*
X037173Y003565D02*
X037326Y003412D01*
X037326Y003258D02*
X037403Y003181D01*
X037403Y002951D01*
X037556Y002951D02*
X037096Y002951D01*
X037096Y003181D01*
X037173Y003258D01*
X037326Y003258D01*
X037403Y003105D02*
X037556Y003258D01*
X037173Y003565D02*
X037096Y003719D01*
X037114Y002543D02*
X036960Y002466D01*
X036807Y002313D01*
X037037Y002313D01*
X037114Y002236D01*
X037114Y002159D01*
X037037Y002082D01*
X036884Y002082D01*
X036807Y002159D01*
X036807Y002313D01*
X036653Y002313D02*
X036577Y002236D01*
X036346Y002236D01*
X036346Y002082D02*
X036346Y002543D01*
X036577Y002543D01*
X036653Y002466D01*
X036653Y002313D01*
X036500Y002236D02*
X036653Y002082D01*
X036577Y001543D02*
X036423Y001543D01*
X036346Y001466D01*
X036346Y001159D01*
X036423Y001082D01*
X036577Y001082D01*
X036653Y001159D01*
X036807Y001159D02*
X036884Y001082D01*
X037037Y001082D01*
X037114Y001159D01*
X037114Y001236D01*
X037037Y001313D01*
X036807Y001313D01*
X036807Y001159D01*
X036807Y001313D02*
X036960Y001466D01*
X037114Y001543D01*
X037267Y001466D02*
X037344Y001543D01*
X037497Y001543D01*
X037574Y001466D01*
X037574Y001389D01*
X037267Y001082D01*
X037574Y001082D01*
X036653Y001466D02*
X036577Y001543D01*
X037267Y002159D02*
X037344Y002082D01*
X037497Y002082D01*
X037574Y002159D01*
X037574Y002236D01*
X037497Y002313D01*
X037267Y002313D01*
X037267Y002159D01*
X037267Y002313D02*
X037421Y002466D01*
X037574Y002543D01*
X039921Y002832D02*
X040305Y002832D01*
X040381Y002909D01*
X040381Y003063D01*
X040305Y003139D01*
X039921Y003139D01*
X040151Y003293D02*
X040151Y003523D01*
X040228Y003600D01*
X040305Y003600D01*
X040381Y003523D01*
X040381Y003369D01*
X040305Y003293D01*
X040151Y003293D01*
X039998Y003446D01*
X039921Y003600D01*
X041096Y004582D02*
X041096Y005043D01*
X041327Y005043D01*
X041403Y004966D01*
X041403Y004813D01*
X041327Y004736D01*
X041096Y004736D01*
X041250Y004736D02*
X041403Y004582D01*
X041557Y004659D02*
X041634Y004582D01*
X041787Y004582D01*
X041864Y004659D01*
X041864Y004966D01*
X041787Y005043D01*
X041634Y005043D01*
X041557Y004966D01*
X041557Y004889D01*
X041634Y004813D01*
X041864Y004813D01*
X042017Y004966D02*
X042094Y005043D01*
X042247Y005043D01*
X042324Y004966D01*
X042324Y004889D01*
X042017Y004582D01*
X042324Y004582D01*
X043465Y004043D02*
X043695Y004043D01*
X043772Y003966D01*
X043772Y003813D01*
X043695Y003736D01*
X043465Y003736D01*
X043465Y003582D02*
X043465Y004043D01*
X043619Y003736D02*
X043772Y003582D01*
X043926Y003659D02*
X044002Y003582D01*
X044156Y003582D01*
X044233Y003659D01*
X044233Y003736D01*
X044156Y003813D01*
X043926Y003813D01*
X043926Y003659D01*
X043926Y003813D02*
X044079Y003966D01*
X044233Y004043D01*
X044386Y003966D02*
X044463Y004043D01*
X044616Y004043D01*
X044693Y003966D01*
X044386Y003659D01*
X044463Y003582D01*
X044616Y003582D01*
X044693Y003659D01*
X044693Y003966D01*
X044386Y003966D02*
X044386Y003659D01*
X044469Y003168D02*
X044622Y003168D01*
X044699Y003091D01*
X044392Y002784D01*
X044469Y002707D01*
X044622Y002707D01*
X044699Y002784D01*
X044699Y003091D01*
X044469Y003168D02*
X044392Y003091D01*
X044392Y002784D01*
X044239Y002784D02*
X044162Y002707D01*
X044009Y002707D01*
X043932Y002784D01*
X043932Y002938D02*
X044085Y003014D01*
X044162Y003014D01*
X044239Y002938D01*
X044239Y002784D01*
X043932Y002938D02*
X043932Y003168D01*
X044239Y003168D01*
X043778Y003091D02*
X043778Y002938D01*
X043702Y002861D01*
X043471Y002861D01*
X043471Y002707D02*
X043471Y003168D01*
X043702Y003168D01*
X043778Y003091D01*
X043625Y002861D02*
X043778Y002707D01*
X044332Y001668D02*
X044255Y001591D01*
X044255Y001284D01*
X044332Y001207D01*
X044485Y001207D01*
X044562Y001284D01*
X044715Y001207D02*
X045022Y001207D01*
X044869Y001207D02*
X044869Y001668D01*
X044715Y001514D01*
X044562Y001591D02*
X044485Y001668D01*
X044332Y001668D01*
X045176Y001591D02*
X045252Y001668D01*
X045406Y001668D01*
X045483Y001591D01*
X045176Y001284D01*
X045252Y001207D01*
X045406Y001207D01*
X045483Y001284D01*
X045483Y001591D01*
X045636Y001438D02*
X045866Y001438D01*
X045943Y001361D01*
X045943Y001284D01*
X045866Y001207D01*
X045713Y001207D01*
X045636Y001284D01*
X045636Y001438D01*
X045789Y001591D01*
X045943Y001668D01*
X045176Y001591D02*
X045176Y001284D01*
X046298Y003366D02*
X046605Y003366D01*
X046681Y003443D01*
X046681Y003596D01*
X046605Y003673D01*
X046681Y003826D02*
X046681Y004133D01*
X046681Y003980D02*
X046221Y003980D01*
X046375Y003826D01*
X046298Y003673D02*
X046221Y003596D01*
X046221Y003443D01*
X046298Y003366D01*
X047096Y003443D02*
X047173Y003366D01*
X047480Y003366D01*
X047556Y003443D01*
X047556Y003596D01*
X047480Y003673D01*
X047556Y003826D02*
X047556Y004133D01*
X047556Y003980D02*
X047096Y003980D01*
X047250Y003826D01*
X047173Y003673D02*
X047096Y003596D01*
X047096Y003443D01*
X047173Y004287D02*
X047096Y004363D01*
X047096Y004517D01*
X047173Y004594D01*
X047480Y004287D01*
X047556Y004363D01*
X047556Y004517D01*
X047480Y004594D01*
X047173Y004594D01*
X047326Y004747D02*
X047326Y005054D01*
X047096Y004977D02*
X047326Y004747D01*
X047556Y004977D02*
X047096Y004977D01*
X046681Y004977D02*
X046681Y004824D01*
X046605Y004747D01*
X046605Y004594D02*
X046681Y004517D01*
X046681Y004363D01*
X046605Y004287D01*
X046298Y004594D01*
X046605Y004594D01*
X046451Y004747D02*
X046375Y004900D01*
X046375Y004977D01*
X046451Y005054D01*
X046605Y005054D01*
X046681Y004977D01*
X046451Y004747D02*
X046221Y004747D01*
X046221Y005054D01*
X045818Y005013D02*
X045588Y005013D01*
X045511Y005089D01*
X045511Y005166D01*
X045588Y005243D01*
X045741Y005243D01*
X045818Y005166D01*
X045818Y004859D01*
X045741Y004782D01*
X045588Y004782D01*
X045511Y004859D01*
X045358Y004859D02*
X045358Y005243D01*
X045051Y005243D02*
X045051Y004859D01*
X045127Y004782D01*
X045281Y004782D01*
X045358Y004859D01*
X044806Y004951D02*
X044346Y004951D01*
X044346Y005181D01*
X044423Y005258D01*
X044576Y005258D01*
X044653Y005181D01*
X044653Y004951D01*
X044653Y005105D02*
X044806Y005258D01*
X044730Y005412D02*
X044806Y005488D01*
X044806Y005642D01*
X044730Y005719D01*
X044423Y005719D01*
X044346Y005642D01*
X044346Y005488D01*
X044423Y005412D01*
X044500Y005412D01*
X044576Y005488D01*
X044576Y005719D01*
X044500Y005872D02*
X044346Y006025D01*
X044806Y006025D01*
X044806Y005872D02*
X044806Y006179D01*
X044781Y007582D02*
X044858Y007659D01*
X044858Y008043D01*
X045011Y008043D02*
X045318Y008043D01*
X045318Y007966D01*
X045011Y007659D01*
X045011Y007582D01*
X044781Y007582D02*
X044627Y007582D01*
X044551Y007659D01*
X044551Y008043D01*
X044653Y009326D02*
X044653Y009556D01*
X044576Y009633D01*
X044423Y009633D01*
X044346Y009556D01*
X044346Y009326D01*
X044806Y009326D01*
X044653Y009480D02*
X044806Y009633D01*
X044730Y009787D02*
X044653Y009787D01*
X044576Y009863D01*
X044576Y010017D01*
X044653Y010094D01*
X044730Y010094D01*
X044806Y010017D01*
X044806Y009863D01*
X044730Y009787D01*
X044576Y009863D02*
X044500Y009787D01*
X044423Y009787D01*
X044346Y009863D01*
X044346Y010017D01*
X044423Y010094D01*
X044500Y010094D01*
X044576Y010017D01*
X044423Y010247D02*
X044346Y010324D01*
X044346Y010477D01*
X044423Y010554D01*
X044500Y010554D01*
X044806Y010247D01*
X044806Y010554D01*
X045051Y010484D02*
X045127Y010407D01*
X045281Y010407D01*
X045358Y010484D01*
X045358Y010868D01*
X045511Y010791D02*
X045511Y010714D01*
X045588Y010638D01*
X045741Y010638D01*
X045818Y010561D01*
X045818Y010484D01*
X045741Y010407D01*
X045588Y010407D01*
X045511Y010484D01*
X045511Y010561D01*
X045588Y010638D01*
X045741Y010638D02*
X045818Y010714D01*
X045818Y010791D01*
X045741Y010868D01*
X045588Y010868D01*
X045511Y010791D01*
X045051Y010868D02*
X045051Y010484D01*
X043622Y011957D02*
X043469Y011957D01*
X043392Y012034D01*
X043239Y012034D02*
X043239Y012111D01*
X043162Y012188D01*
X042932Y012188D01*
X042932Y012034D01*
X043009Y011957D01*
X043162Y011957D01*
X043239Y012034D01*
X043546Y012188D02*
X043622Y012188D01*
X043699Y012111D01*
X043699Y012034D01*
X043622Y011957D01*
X043622Y012188D02*
X043699Y012264D01*
X043699Y012341D01*
X043622Y012418D01*
X043469Y012418D01*
X043392Y012341D01*
X043239Y012418D02*
X043085Y012341D01*
X042932Y012188D01*
X042778Y012188D02*
X042702Y012111D01*
X042471Y012111D01*
X042471Y011957D02*
X042471Y012418D01*
X042702Y012418D01*
X042778Y012341D01*
X042778Y012188D01*
X042625Y012111D02*
X042778Y011957D01*
X042181Y011826D02*
X041721Y011826D01*
X041721Y012056D01*
X041798Y012133D01*
X041951Y012133D01*
X042028Y012056D01*
X042028Y011826D01*
X042028Y011980D02*
X042181Y012133D01*
X042105Y012287D02*
X042181Y012363D01*
X042181Y012517D01*
X042105Y012594D01*
X042028Y012594D01*
X041951Y012517D01*
X041951Y012287D01*
X042105Y012287D01*
X041951Y012287D02*
X041798Y012440D01*
X041721Y012594D01*
X041798Y012747D02*
X041721Y012824D01*
X041721Y012977D01*
X041798Y013054D01*
X041875Y013054D01*
X042181Y012747D01*
X042181Y013054D01*
X042471Y012966D02*
X042471Y012659D01*
X042548Y012582D01*
X042702Y012582D01*
X042778Y012659D01*
X042932Y012659D02*
X043009Y012582D01*
X043162Y012582D01*
X043239Y012659D01*
X043239Y012736D01*
X043162Y012813D01*
X042932Y012813D01*
X042932Y012659D01*
X042932Y012813D02*
X043085Y012966D01*
X043239Y013043D01*
X043392Y012889D02*
X043546Y013043D01*
X043546Y012582D01*
X043699Y012582D02*
X043392Y012582D01*
X042778Y012966D02*
X042702Y013043D01*
X042548Y013043D01*
X042471Y012966D01*
X042548Y013457D02*
X042702Y013457D01*
X042778Y013534D01*
X042932Y013534D02*
X043009Y013457D01*
X043162Y013457D01*
X043239Y013534D01*
X043239Y013688D01*
X043162Y013764D01*
X043085Y013764D01*
X042932Y013688D01*
X042932Y013918D01*
X043239Y013918D01*
X043392Y013841D02*
X043469Y013918D01*
X043622Y013918D01*
X043699Y013841D01*
X043699Y013764D01*
X043392Y013457D01*
X043699Y013457D01*
X043622Y014082D02*
X043469Y014082D01*
X043392Y014159D01*
X043392Y014313D01*
X043622Y014313D01*
X043699Y014236D01*
X043699Y014159D01*
X043622Y014082D01*
X043392Y014313D02*
X043546Y014466D01*
X043699Y014543D01*
X043239Y014543D02*
X042932Y014543D01*
X042932Y014313D01*
X043085Y014389D01*
X043162Y014389D01*
X043239Y014313D01*
X043239Y014159D01*
X043162Y014082D01*
X043009Y014082D01*
X042932Y014159D01*
X042778Y014082D02*
X042625Y014236D01*
X042702Y014236D02*
X042471Y014236D01*
X042471Y014082D02*
X042471Y014543D01*
X042702Y014543D01*
X042778Y014466D01*
X042778Y014313D01*
X042702Y014236D01*
X042702Y013918D02*
X042548Y013918D01*
X042471Y013841D01*
X042471Y013534D01*
X042548Y013457D01*
X042181Y013457D02*
X041721Y013457D01*
X041721Y013688D01*
X041798Y013764D01*
X041951Y013764D01*
X042028Y013688D01*
X042028Y013457D01*
X042028Y013611D02*
X042181Y013764D01*
X042105Y013918D02*
X042181Y013994D01*
X042181Y014148D01*
X042105Y014225D01*
X041951Y014225D01*
X041875Y014148D01*
X041875Y014071D01*
X041951Y013918D01*
X041721Y013918D01*
X041721Y014225D01*
X041721Y014378D02*
X041951Y014378D01*
X041875Y014532D01*
X041875Y014608D01*
X041951Y014685D01*
X042105Y014685D01*
X042181Y014608D01*
X042181Y014455D01*
X042105Y014378D01*
X041721Y014378D02*
X041721Y014685D01*
X041556Y014602D02*
X041096Y014602D01*
X041326Y014372D01*
X041326Y014679D01*
X041326Y014219D02*
X041480Y014219D01*
X041556Y014142D01*
X041556Y013988D01*
X041480Y013912D01*
X041326Y013912D02*
X041250Y014065D01*
X041250Y014142D01*
X041326Y014219D01*
X041096Y014219D02*
X041096Y013912D01*
X041326Y013912D01*
X041326Y013758D02*
X041403Y013681D01*
X041403Y013451D01*
X041556Y013451D02*
X041096Y013451D01*
X041096Y013681D01*
X041173Y013758D01*
X041326Y013758D01*
X041403Y013605D02*
X041556Y013758D01*
X041556Y013054D02*
X041556Y012747D01*
X041556Y012900D02*
X041096Y012900D01*
X041250Y012747D01*
X041403Y012594D02*
X041326Y012517D01*
X041326Y012287D01*
X041480Y012287D01*
X041556Y012363D01*
X041556Y012517D01*
X041480Y012594D01*
X041403Y012594D01*
X041173Y012440D02*
X041326Y012287D01*
X041326Y012133D02*
X041403Y012056D01*
X041403Y011826D01*
X041556Y011826D02*
X041096Y011826D01*
X041096Y012056D01*
X041173Y012133D01*
X041326Y012133D01*
X041403Y011980D02*
X041556Y012133D01*
X041173Y012440D02*
X041096Y012594D01*
X040381Y012648D02*
X040381Y012494D01*
X040305Y012418D01*
X040305Y012264D02*
X039921Y012264D01*
X039921Y012418D02*
X040151Y012418D01*
X040075Y012571D01*
X040075Y012648D01*
X040151Y012725D01*
X040305Y012725D01*
X040381Y012648D01*
X040305Y012264D02*
X040381Y012188D01*
X040381Y012034D01*
X040305Y011957D01*
X039921Y011957D01*
X039921Y012418D02*
X039921Y012725D01*
X041090Y011043D02*
X041320Y011043D01*
X041397Y010966D01*
X041397Y010813D01*
X041320Y010736D01*
X041090Y010736D01*
X041090Y010582D02*
X041090Y011043D01*
X041244Y010736D02*
X041397Y010582D01*
X041551Y010659D02*
X041551Y010736D01*
X041627Y010813D01*
X041781Y010813D01*
X041858Y010736D01*
X041858Y010659D01*
X041781Y010582D01*
X041627Y010582D01*
X041551Y010659D01*
X041627Y010813D02*
X041551Y010889D01*
X041551Y010966D01*
X041627Y011043D01*
X041781Y011043D01*
X041858Y010966D01*
X041858Y010889D01*
X041781Y010813D01*
X042011Y010889D02*
X042164Y011043D01*
X042164Y010582D01*
X042011Y010582D02*
X042318Y010582D01*
X042778Y013841D02*
X042702Y013918D01*
X038056Y015116D02*
X037596Y015116D01*
X037596Y015346D01*
X037673Y015423D01*
X037826Y015423D01*
X037903Y015346D01*
X037903Y015116D01*
X037903Y015269D02*
X038056Y015423D01*
X038056Y015576D02*
X038056Y015883D01*
X038056Y015730D02*
X037596Y015730D01*
X037750Y015576D01*
X037673Y016037D02*
X037596Y016113D01*
X037596Y016267D01*
X037673Y016344D01*
X037750Y016344D01*
X038056Y016037D01*
X038056Y016344D01*
X037826Y016497D02*
X037596Y016727D01*
X038056Y016727D01*
X037826Y016804D02*
X037826Y016497D01*
X037181Y016574D02*
X037105Y016497D01*
X037181Y016574D02*
X037181Y016727D01*
X037105Y016804D01*
X037028Y016804D01*
X036951Y016727D01*
X036951Y016650D01*
X036951Y016727D02*
X036875Y016804D01*
X036798Y016804D01*
X036721Y016727D01*
X036721Y016574D01*
X036798Y016497D01*
X036798Y016344D02*
X036721Y016267D01*
X036721Y016113D01*
X036798Y016037D01*
X036798Y016344D02*
X036875Y016344D01*
X037181Y016037D01*
X037181Y016344D01*
X037181Y015883D02*
X037181Y015576D01*
X037181Y015423D02*
X037028Y015269D01*
X037028Y015346D02*
X037028Y015116D01*
X037181Y015116D02*
X036721Y015116D01*
X036721Y015346D01*
X036798Y015423D01*
X036951Y015423D01*
X037028Y015346D01*
X036875Y015576D02*
X036721Y015730D01*
X037181Y015730D01*
X037239Y014543D02*
X036932Y014543D01*
X036932Y014313D01*
X037085Y014389D01*
X037162Y014389D01*
X037239Y014313D01*
X037239Y014159D01*
X037162Y014082D01*
X037009Y014082D01*
X036932Y014159D01*
X036778Y014159D02*
X036702Y014082D01*
X036548Y014082D01*
X036471Y014159D01*
X036471Y014466D01*
X036548Y014543D01*
X036702Y014543D01*
X036778Y014466D01*
X037392Y014389D02*
X037546Y014543D01*
X037546Y014082D01*
X037699Y014082D02*
X037392Y014082D01*
X037469Y013543D02*
X037622Y013543D01*
X037699Y013466D01*
X037699Y013389D01*
X037622Y013313D01*
X037699Y013236D01*
X037699Y013159D01*
X037622Y013082D01*
X037469Y013082D01*
X037392Y013159D01*
X037239Y013159D02*
X037162Y013082D01*
X037009Y013082D01*
X036932Y013159D01*
X036932Y013313D02*
X037085Y013389D01*
X037162Y013389D01*
X037239Y013313D01*
X037239Y013159D01*
X037546Y013313D02*
X037622Y013313D01*
X037392Y013466D02*
X037469Y013543D01*
X037239Y013543D02*
X036932Y013543D01*
X036932Y013313D01*
X036778Y013313D02*
X036702Y013236D01*
X036471Y013236D01*
X036471Y013082D02*
X036471Y013543D01*
X036702Y013543D01*
X036778Y013466D01*
X036778Y013313D01*
X036625Y013236D02*
X036778Y013082D01*
X037173Y012685D02*
X037096Y012608D01*
X037096Y012455D01*
X037173Y012378D01*
X037096Y012225D02*
X037096Y011918D01*
X037326Y011918D01*
X037250Y012071D01*
X037250Y012148D01*
X037326Y012225D01*
X037480Y012225D01*
X037556Y012148D01*
X037556Y011994D01*
X037480Y011918D01*
X037556Y011764D02*
X037403Y011611D01*
X037403Y011688D02*
X037403Y011457D01*
X037556Y011457D02*
X037096Y011457D01*
X037096Y011688D01*
X037173Y011764D01*
X037326Y011764D01*
X037403Y011688D01*
X037556Y012378D02*
X037250Y012685D01*
X037173Y012685D01*
X037556Y012685D02*
X037556Y012378D01*
X035931Y012060D02*
X035931Y011753D01*
X035931Y011907D02*
X035471Y011907D01*
X035625Y011753D01*
X035701Y011600D02*
X035855Y011600D01*
X035931Y011523D01*
X035931Y011369D01*
X035855Y011293D01*
X035701Y011293D02*
X035625Y011446D01*
X035625Y011523D01*
X035701Y011600D01*
X035471Y011600D02*
X035471Y011293D01*
X035701Y011293D01*
X035701Y011139D02*
X035778Y011063D01*
X035778Y010832D01*
X035931Y010832D02*
X035471Y010832D01*
X035471Y011063D01*
X035548Y011139D01*
X035701Y011139D01*
X035778Y010986D02*
X035931Y011139D01*
X035556Y019960D02*
X035096Y019960D01*
X035096Y020190D01*
X035173Y020267D01*
X035326Y020267D01*
X035403Y020190D01*
X035403Y019960D01*
X035403Y020113D02*
X035556Y020267D01*
X035556Y020420D02*
X035556Y020727D01*
X035556Y020880D02*
X035556Y021187D01*
X035556Y021034D02*
X035096Y021034D01*
X035250Y020880D01*
X035096Y020573D02*
X035556Y020573D01*
X035250Y020420D02*
X035096Y020573D01*
X035250Y021341D02*
X035096Y021494D01*
X035556Y021494D01*
X035556Y021341D02*
X035556Y021648D01*
X035721Y021690D02*
X035798Y021767D01*
X035951Y021767D01*
X036028Y021690D01*
X036028Y021460D01*
X036028Y021613D02*
X036181Y021767D01*
X036181Y021920D02*
X036181Y022227D01*
X036181Y022380D02*
X036181Y022687D01*
X036181Y022534D02*
X035721Y022534D01*
X035875Y022380D01*
X035721Y022073D02*
X036181Y022073D01*
X035875Y021920D02*
X035721Y022073D01*
X035721Y021690D02*
X035721Y021460D01*
X036181Y021460D01*
X036346Y021361D02*
X036577Y021361D01*
X036653Y021438D01*
X036653Y021591D01*
X036577Y021668D01*
X036346Y021668D01*
X036346Y021207D01*
X036500Y021361D02*
X036653Y021207D01*
X036807Y021207D02*
X037114Y021207D01*
X037267Y021207D02*
X037574Y021207D01*
X037421Y021207D02*
X037421Y021668D01*
X037267Y021514D01*
X036960Y021668D02*
X036960Y021207D01*
X036807Y021514D02*
X036960Y021668D01*
X037728Y021591D02*
X037804Y021668D01*
X037958Y021668D01*
X038034Y021591D01*
X038034Y021514D01*
X037958Y021438D01*
X038034Y021361D01*
X038034Y021284D01*
X037958Y021207D01*
X037804Y021207D01*
X037728Y021284D01*
X037881Y021438D02*
X037958Y021438D01*
X038221Y021460D02*
X038221Y021690D01*
X038298Y021767D01*
X038451Y021767D01*
X038528Y021690D01*
X038528Y021460D01*
X038528Y021613D02*
X038681Y021767D01*
X038681Y021920D02*
X038681Y022227D01*
X038681Y022380D02*
X038681Y022687D01*
X038681Y022534D02*
X038221Y022534D01*
X038375Y022380D01*
X038221Y022073D02*
X038681Y022073D01*
X038375Y021920D02*
X038221Y022073D01*
X038221Y021460D02*
X038681Y021460D01*
X038846Y021341D02*
X038846Y021648D01*
X039000Y021571D02*
X039076Y021648D01*
X039230Y021648D01*
X039306Y021571D01*
X039306Y021417D01*
X039230Y021341D01*
X039076Y021341D02*
X039000Y021494D01*
X039000Y021571D01*
X039076Y021341D02*
X038846Y021341D01*
X038846Y021034D02*
X039306Y021034D01*
X039306Y021187D02*
X039306Y020880D01*
X039306Y020727D02*
X039306Y020420D01*
X039306Y020573D02*
X038846Y020573D01*
X039000Y020420D01*
X039076Y020267D02*
X038923Y020267D01*
X038846Y020190D01*
X038846Y019960D01*
X039306Y019960D01*
X039153Y019960D02*
X039153Y020190D01*
X039076Y020267D01*
X039153Y020113D02*
X039306Y020267D01*
X040096Y020188D02*
X040173Y020264D01*
X040326Y020264D01*
X040403Y020188D01*
X040403Y019957D01*
X040556Y019957D02*
X040096Y019957D01*
X040096Y020188D01*
X040250Y020418D02*
X040096Y020571D01*
X040556Y020571D01*
X040556Y020418D02*
X040556Y020725D01*
X040556Y020878D02*
X040556Y021185D01*
X040556Y021032D02*
X040096Y021032D01*
X040250Y020878D01*
X040096Y021339D02*
X040096Y021645D01*
X040173Y021645D01*
X040480Y021339D01*
X040556Y021339D01*
X040971Y021415D02*
X040971Y021569D01*
X041048Y021645D01*
X041125Y021645D01*
X041201Y021569D01*
X041201Y021415D01*
X041125Y021339D01*
X041048Y021339D01*
X040971Y021415D01*
X041201Y021415D02*
X041278Y021339D01*
X041355Y021339D01*
X041431Y021415D01*
X041431Y021569D01*
X041355Y021645D01*
X041278Y021645D01*
X041201Y021569D01*
X041596Y021460D02*
X041596Y021690D01*
X041673Y021767D01*
X041826Y021767D01*
X041903Y021690D01*
X041903Y021460D01*
X041903Y021613D02*
X042056Y021767D01*
X042056Y021920D02*
X042056Y022227D01*
X042056Y022380D02*
X042056Y022687D01*
X042056Y022534D02*
X041596Y022534D01*
X041750Y022380D01*
X041596Y022073D02*
X042056Y022073D01*
X041750Y021920D02*
X041596Y022073D01*
X041596Y021460D02*
X042056Y021460D01*
X042221Y021417D02*
X042221Y021571D01*
X042298Y021648D01*
X042605Y021341D01*
X042681Y021417D01*
X042681Y021571D01*
X042605Y021648D01*
X042298Y021648D01*
X042221Y021417D02*
X042298Y021341D01*
X042605Y021341D01*
X042681Y021187D02*
X042681Y020880D01*
X042375Y021187D01*
X042298Y021187D01*
X042221Y021111D01*
X042221Y020957D01*
X042298Y020880D01*
X042221Y020573D02*
X042681Y020573D01*
X042681Y020420D02*
X042681Y020727D01*
X042375Y020420D02*
X042221Y020573D01*
X042298Y020267D02*
X042221Y020190D01*
X042221Y019960D01*
X042681Y019960D01*
X042528Y019960D02*
X042528Y020190D01*
X042451Y020267D01*
X042298Y020267D01*
X042528Y020113D02*
X042681Y020267D01*
X043471Y020707D02*
X043471Y021168D01*
X043702Y021168D01*
X043778Y021091D01*
X043778Y020938D01*
X043702Y020861D01*
X043471Y020861D01*
X043625Y020861D02*
X043778Y020707D01*
X043932Y020707D02*
X044239Y020707D01*
X044392Y020707D02*
X044699Y021014D01*
X044699Y021091D01*
X044622Y021168D01*
X044469Y021168D01*
X044392Y021091D01*
X044085Y021168D02*
X044085Y020707D01*
X044392Y020707D02*
X044699Y020707D01*
X044853Y020707D02*
X045159Y020707D01*
X045006Y020707D02*
X045006Y021168D01*
X044853Y021014D01*
X044085Y021168D02*
X043932Y021014D01*
X042056Y022917D02*
X042056Y023071D01*
X041980Y023148D01*
X041673Y023148D01*
X041596Y023071D01*
X041596Y022917D01*
X041673Y022841D01*
X041750Y022841D01*
X041826Y022917D01*
X041826Y023148D01*
X042056Y022917D02*
X041980Y022841D01*
X041431Y021185D02*
X041431Y020878D01*
X041431Y020725D02*
X041431Y020418D01*
X041431Y020571D02*
X040971Y020571D01*
X041125Y020418D01*
X041201Y020264D02*
X041278Y020188D01*
X041278Y019957D01*
X041431Y019957D02*
X040971Y019957D01*
X040971Y020188D01*
X041048Y020264D01*
X041201Y020264D01*
X041278Y020111D02*
X041431Y020264D01*
X040556Y020264D02*
X040403Y020111D01*
X041125Y020878D02*
X040971Y021032D01*
X041431Y021032D01*
X039931Y021457D02*
X039471Y021457D01*
X039471Y021688D01*
X039548Y021764D01*
X039701Y021764D01*
X039778Y021688D01*
X039778Y021457D01*
X039778Y021611D02*
X039931Y021764D01*
X039931Y021918D02*
X039931Y022225D01*
X039931Y022378D02*
X039931Y022685D01*
X039931Y022532D02*
X039471Y022532D01*
X039625Y022378D01*
X039471Y022071D02*
X039931Y022071D01*
X039625Y021918D02*
X039471Y022071D01*
X039701Y022839D02*
X039548Y022992D01*
X039471Y023145D01*
X039701Y023069D02*
X039701Y022839D01*
X039855Y022839D01*
X039931Y022915D01*
X039931Y023069D01*
X039855Y023145D01*
X039778Y023145D01*
X039701Y023069D01*
X038681Y023071D02*
X038221Y023071D01*
X038451Y022841D01*
X038451Y023148D01*
X038846Y021034D02*
X039000Y020880D01*
X036181Y022841D02*
X035875Y023148D01*
X035798Y023148D01*
X035721Y023071D01*
X035721Y022917D01*
X035798Y022841D01*
X036181Y022841D02*
X036181Y023148D01*
X034931Y023069D02*
X034931Y022915D01*
X034855Y022839D01*
X034548Y023145D01*
X034855Y023145D01*
X034931Y023069D01*
X034855Y022839D02*
X034548Y022839D01*
X034471Y022915D01*
X034471Y023069D01*
X034548Y023145D01*
X034931Y022685D02*
X034931Y022378D01*
X034931Y022225D02*
X034931Y021918D01*
X034931Y022071D02*
X034471Y022071D01*
X034625Y021918D01*
X034701Y021764D02*
X034778Y021688D01*
X034778Y021457D01*
X034931Y021457D02*
X034471Y021457D01*
X034471Y021688D01*
X034548Y021764D01*
X034701Y021764D01*
X034778Y021611D02*
X034931Y021764D01*
X034306Y021571D02*
X034230Y021648D01*
X033923Y021648D01*
X033846Y021571D01*
X033846Y021417D01*
X033923Y021341D01*
X034000Y021341D01*
X034076Y021417D01*
X034076Y021648D01*
X034306Y021571D02*
X034306Y021417D01*
X034230Y021341D01*
X034230Y021187D02*
X034306Y021111D01*
X034306Y020957D01*
X034230Y020880D01*
X033923Y021187D01*
X034230Y021187D01*
X034230Y020880D02*
X033923Y020880D01*
X033846Y020957D01*
X033846Y021111D01*
X033923Y021187D01*
X033681Y021457D02*
X033221Y021457D01*
X033221Y021688D01*
X033298Y021764D01*
X033451Y021764D01*
X033528Y021688D01*
X033528Y021457D01*
X033528Y021611D02*
X033681Y021764D01*
X033681Y021918D02*
X033681Y022225D01*
X033681Y022071D02*
X033221Y022071D01*
X033375Y021918D01*
X033298Y022378D02*
X033221Y022455D01*
X033221Y022608D01*
X033298Y022685D01*
X033605Y022378D01*
X033681Y022455D01*
X033681Y022608D01*
X033605Y022685D01*
X033298Y022685D01*
X033298Y022839D02*
X033375Y022839D01*
X033451Y022915D01*
X033451Y023069D01*
X033528Y023145D01*
X033605Y023145D01*
X033681Y023069D01*
X033681Y022915D01*
X033605Y022839D01*
X033528Y022839D01*
X033451Y022915D01*
X033451Y023069D02*
X033375Y023145D01*
X033298Y023145D01*
X033221Y023069D01*
X033221Y022915D01*
X033298Y022839D01*
X033298Y022378D02*
X033605Y022378D01*
X034471Y022532D02*
X034931Y022532D01*
X034625Y022378D02*
X034471Y022532D01*
X032980Y021339D02*
X032673Y021645D01*
X032596Y021645D01*
X032596Y021339D01*
X032673Y021185D02*
X032596Y021108D01*
X032596Y020955D01*
X032673Y020878D01*
X032980Y020878D01*
X032673Y021185D01*
X032980Y021185D01*
X033056Y021108D01*
X033056Y020955D01*
X032980Y020878D01*
X033056Y020725D02*
X033056Y020418D01*
X033056Y020571D02*
X032596Y020571D01*
X032750Y020418D01*
X032826Y020264D02*
X032903Y020188D01*
X032903Y019957D01*
X033056Y019957D02*
X032596Y019957D01*
X032596Y020188D01*
X032673Y020264D01*
X032826Y020264D01*
X032903Y020111D02*
X033056Y020264D01*
X033846Y020190D02*
X033923Y020267D01*
X034076Y020267D01*
X034153Y020190D01*
X034153Y019960D01*
X034153Y020113D02*
X034306Y020267D01*
X034306Y020420D02*
X034306Y020727D01*
X034306Y020573D02*
X033846Y020573D01*
X034000Y020420D01*
X033846Y020190D02*
X033846Y019960D01*
X034306Y019960D01*
X033056Y021339D02*
X032980Y021339D01*
X032431Y021460D02*
X031971Y021460D01*
X031971Y021690D01*
X032048Y021767D01*
X032201Y021767D01*
X032278Y021690D01*
X032278Y021460D01*
X032278Y021613D02*
X032431Y021767D01*
X032431Y021920D02*
X032431Y022227D01*
X032431Y022073D02*
X031971Y022073D01*
X032125Y021920D01*
X032048Y022380D02*
X031971Y022457D01*
X031971Y022611D01*
X032048Y022687D01*
X032355Y022380D01*
X032431Y022457D01*
X032431Y022611D01*
X032355Y022687D01*
X032048Y022687D01*
X032201Y022841D02*
X032201Y023071D01*
X032278Y023148D01*
X032355Y023148D01*
X032431Y023071D01*
X032431Y022917D01*
X032355Y022841D01*
X032201Y022841D01*
X032048Y022994D01*
X031971Y023148D01*
X031181Y023069D02*
X030721Y023069D01*
X030951Y022839D01*
X030951Y023145D01*
X030798Y022685D02*
X030721Y022608D01*
X030721Y022455D01*
X030798Y022378D01*
X031105Y022378D01*
X030798Y022685D01*
X031105Y022685D01*
X031181Y022608D01*
X031181Y022455D01*
X031105Y022378D01*
X031181Y022225D02*
X031181Y021918D01*
X031181Y022071D02*
X030721Y022071D01*
X030875Y021918D01*
X030951Y021764D02*
X031028Y021688D01*
X031028Y021457D01*
X031181Y021457D02*
X030721Y021457D01*
X030721Y021688D01*
X030798Y021764D01*
X030951Y021764D01*
X031028Y021611D02*
X031181Y021764D01*
X031346Y021648D02*
X031346Y021341D01*
X031576Y021341D01*
X031500Y021494D01*
X031500Y021571D01*
X031576Y021648D01*
X031730Y021648D01*
X031806Y021571D01*
X031806Y021417D01*
X031730Y021341D01*
X031730Y021187D02*
X031806Y021111D01*
X031806Y020957D01*
X031730Y020880D01*
X031423Y021187D01*
X031730Y021187D01*
X031730Y020880D02*
X031423Y020880D01*
X031346Y020957D01*
X031346Y021111D01*
X031423Y021187D01*
X031806Y020727D02*
X031806Y020420D01*
X031806Y020573D02*
X031346Y020573D01*
X031500Y020420D01*
X031576Y020267D02*
X031653Y020190D01*
X031653Y019960D01*
X031653Y020113D02*
X031806Y020267D01*
X031576Y020267D02*
X031423Y020267D01*
X031346Y020190D01*
X031346Y019960D01*
X031806Y019960D01*
X030556Y019960D02*
X030096Y019960D01*
X030096Y020190D01*
X030173Y020267D01*
X030326Y020267D01*
X030403Y020190D01*
X030403Y019960D01*
X030403Y020113D02*
X030556Y020267D01*
X030556Y020420D02*
X030556Y020727D01*
X030556Y020573D02*
X030096Y020573D01*
X030250Y020420D01*
X030173Y020880D02*
X030096Y020957D01*
X030096Y021111D01*
X030173Y021187D01*
X030480Y020880D01*
X030556Y020957D01*
X030556Y021111D01*
X030480Y021187D01*
X030173Y021187D01*
X030173Y021341D02*
X030096Y021417D01*
X030096Y021571D01*
X030173Y021648D01*
X030250Y021648D01*
X030326Y021571D01*
X030403Y021648D01*
X030480Y021648D01*
X030556Y021571D01*
X030556Y021417D01*
X030480Y021341D01*
X030326Y021494D02*
X030326Y021571D01*
X029931Y021457D02*
X029471Y021457D01*
X029471Y021688D01*
X029548Y021764D01*
X029701Y021764D01*
X029778Y021688D01*
X029778Y021457D01*
X029778Y021611D02*
X029931Y021764D01*
X029931Y021918D02*
X029931Y022225D01*
X029931Y022071D02*
X029471Y022071D01*
X029625Y021918D01*
X029306Y021648D02*
X029306Y021341D01*
X029306Y021494D02*
X028846Y021494D01*
X029000Y021341D01*
X028923Y021187D02*
X029230Y020880D01*
X029306Y020957D01*
X029306Y021111D01*
X029230Y021187D01*
X028923Y021187D01*
X028846Y021111D01*
X028846Y020957D01*
X028923Y020880D01*
X029230Y020880D01*
X029306Y020727D02*
X029306Y020420D01*
X029306Y020573D02*
X028846Y020573D01*
X029000Y020420D01*
X029076Y020267D02*
X029153Y020190D01*
X029153Y019960D01*
X029153Y020113D02*
X029306Y020267D01*
X029076Y020267D02*
X028923Y020267D01*
X028846Y020190D01*
X028846Y019960D01*
X029306Y019960D01*
X030173Y020880D02*
X030480Y020880D01*
X029855Y022378D02*
X029548Y022685D01*
X029855Y022685D01*
X029931Y022608D01*
X029931Y022455D01*
X029855Y022378D01*
X029548Y022378D01*
X029471Y022455D01*
X029471Y022608D01*
X029548Y022685D01*
X029548Y022839D02*
X029471Y022915D01*
X029471Y023069D01*
X029548Y023145D01*
X029625Y023145D01*
X029931Y022839D01*
X029931Y023145D01*
X030346Y023832D02*
X030653Y023832D01*
X030500Y023832D02*
X030500Y024293D01*
X030346Y024139D01*
X029739Y024582D02*
X029432Y024582D01*
X029585Y024582D02*
X029585Y025043D01*
X029432Y024889D01*
X029278Y025043D02*
X028971Y024582D01*
X029278Y024582D02*
X028971Y025043D01*
X030346Y025332D02*
X030653Y025639D01*
X030653Y025716D01*
X030577Y025793D01*
X030423Y025793D01*
X030346Y025716D01*
X030346Y025332D02*
X030653Y025332D01*
X032048Y022380D02*
X032355Y022380D01*
X047346Y018889D02*
X047500Y019043D01*
X047500Y018582D01*
X047653Y018582D02*
X047346Y018582D01*
X048676Y019582D02*
X048983Y020043D01*
X049136Y019966D02*
X049213Y020043D01*
X049366Y020043D01*
X049443Y019966D01*
X049443Y019889D01*
X049366Y019813D01*
X049443Y019736D01*
X049443Y019659D01*
X049366Y019582D01*
X049213Y019582D01*
X049136Y019659D01*
X048983Y019582D02*
X048676Y020043D01*
X049289Y019813D02*
X049366Y019813D01*
X059471Y024082D02*
X059702Y024082D01*
X059778Y024159D01*
X059778Y024236D01*
X059702Y024313D01*
X059471Y024313D01*
X059471Y024543D02*
X059702Y024543D01*
X059778Y024466D01*
X059778Y024389D01*
X059702Y024313D01*
X059932Y024313D02*
X060239Y024313D01*
X060162Y024543D02*
X060162Y024082D01*
X059932Y024313D02*
X060162Y024543D01*
X060239Y025207D02*
X059932Y025207D01*
X060085Y025207D02*
X060085Y025668D01*
X059932Y025514D01*
X059778Y025514D02*
X059702Y025438D01*
X059471Y025438D01*
X059471Y025668D02*
X059702Y025668D01*
X059778Y025591D01*
X059778Y025514D01*
X059702Y025438D02*
X059778Y025361D01*
X059778Y025284D01*
X059702Y025207D01*
X059471Y025207D01*
X059471Y025668D01*
X059471Y024543D02*
X059471Y024082D01*
X046298Y004594D02*
X046221Y004517D01*
X046221Y004363D01*
X046298Y004287D01*
X046605Y004287D01*
X047173Y004287D02*
X047480Y004287D01*
X047971Y004168D02*
X048202Y004168D01*
X048278Y004091D01*
X048278Y004014D01*
X048202Y003938D01*
X047971Y003938D01*
X047971Y004168D02*
X047971Y003707D01*
X048202Y003707D01*
X048278Y003784D01*
X048278Y003861D01*
X048202Y003938D01*
X048432Y004014D02*
X048585Y004168D01*
X048585Y003707D01*
X048432Y003707D02*
X048739Y003707D01*
X048892Y003784D02*
X049199Y004091D01*
X049199Y003784D01*
X049122Y003707D01*
X048969Y003707D01*
X048892Y003784D01*
X048892Y004091D01*
X048969Y004168D01*
X049122Y004168D01*
X049199Y004091D01*
X049353Y004014D02*
X049506Y004168D01*
X049506Y003707D01*
X049353Y003707D02*
X049659Y003707D01*
D37*
X012045Y032875D02*
X011858Y032875D01*
X011785Y032871D02*
X011002Y032872D01*
X011058Y032744D02*
X011037Y032730D01*
X011015Y032719D01*
X010991Y032712D01*
X010966Y032708D01*
X010941Y032708D01*
X010917Y032712D01*
X010893Y032720D01*
X010870Y032730D01*
X010850Y032744D01*
X010832Y032761D01*
X010816Y032781D01*
X010804Y032803D01*
X010794Y032826D01*
X010789Y032850D01*
X010787Y032875D01*
X010789Y032900D01*
X010794Y032924D01*
X010804Y032947D01*
X010816Y032969D01*
X010832Y032989D01*
X010850Y033006D01*
X010870Y033020D01*
X010893Y033030D01*
X010917Y033038D01*
X010941Y033042D01*
X010966Y033042D01*
X010991Y033038D01*
X011015Y033031D01*
X011037Y033020D01*
X011058Y033006D01*
X010901Y032875D02*
X010903Y032888D01*
X010908Y032901D01*
X010917Y032912D01*
X010928Y032919D01*
X010941Y032924D01*
X010954Y032925D01*
X010968Y032922D01*
X010980Y032916D01*
X010990Y032907D01*
X010997Y032895D01*
X011001Y032882D01*
X011001Y032868D01*
X010997Y032855D01*
X010990Y032843D01*
X010980Y032834D01*
X010968Y032828D01*
X010954Y032825D01*
X010941Y032826D01*
X010928Y032831D01*
X010917Y032838D01*
X010908Y032849D01*
X010903Y032862D01*
X010901Y032875D01*
X010788Y032878D02*
X010121Y032878D01*
X010045Y032875D02*
X009858Y032875D01*
X009783Y032875D02*
X009785Y032901D01*
X009791Y032926D01*
X009800Y032950D01*
X009814Y032972D01*
X009830Y032991D01*
X009849Y033009D01*
X009871Y033023D01*
X009894Y033033D01*
X009919Y033040D01*
X009945Y033043D01*
X009970Y033042D01*
X009996Y033037D01*
X010020Y033028D01*
X010042Y033016D01*
X010063Y033000D01*
X010081Y032982D01*
X010095Y032961D01*
X010107Y032938D01*
X010115Y032913D01*
X010119Y032888D01*
X010119Y032862D01*
X010115Y032837D01*
X010107Y032812D01*
X010095Y032789D01*
X010081Y032768D01*
X010063Y032750D01*
X010042Y032734D01*
X010020Y032722D01*
X009996Y032713D01*
X009970Y032708D01*
X009945Y032707D01*
X009919Y032710D01*
X009894Y032717D01*
X009871Y032727D01*
X009849Y032741D01*
X009830Y032759D01*
X009814Y032778D01*
X009800Y032800D01*
X009791Y032824D01*
X009785Y032849D01*
X009783Y032875D01*
X009785Y032901D01*
X009791Y032926D01*
X009800Y032950D01*
X009814Y032972D01*
X009830Y032991D01*
X009849Y033009D01*
X009871Y033023D01*
X009894Y033033D01*
X009919Y033040D01*
X009945Y033043D01*
X009970Y033042D01*
X009996Y033037D01*
X010020Y033028D01*
X010042Y033016D01*
X010063Y033000D01*
X010081Y032982D01*
X010095Y032961D01*
X010107Y032938D01*
X010115Y032913D01*
X010119Y032888D01*
X010119Y032862D01*
X010115Y032837D01*
X010107Y032812D01*
X010095Y032789D01*
X010081Y032768D01*
X010063Y032750D01*
X010042Y032734D01*
X010020Y032722D01*
X009996Y032713D01*
X009970Y032708D01*
X009945Y032707D01*
X009919Y032710D01*
X009894Y032717D01*
X009871Y032727D01*
X009849Y032741D01*
X009830Y032759D01*
X009814Y032778D01*
X009800Y032800D01*
X009791Y032824D01*
X009785Y032849D01*
X009783Y032875D01*
X011783Y032875D02*
X011785Y032901D01*
X011791Y032926D01*
X011800Y032950D01*
X011814Y032972D01*
X011830Y032991D01*
X011849Y033009D01*
X011871Y033023D01*
X011894Y033033D01*
X011919Y033040D01*
X011945Y033043D01*
X011970Y033042D01*
X011996Y033037D01*
X012020Y033028D01*
X012042Y033016D01*
X012063Y033000D01*
X012081Y032982D01*
X012095Y032961D01*
X012107Y032938D01*
X012115Y032913D01*
X012119Y032888D01*
X012119Y032862D01*
X012115Y032837D01*
X012107Y032812D01*
X012095Y032789D01*
X012081Y032768D01*
X012063Y032750D01*
X012042Y032734D01*
X012020Y032722D01*
X011996Y032713D01*
X011970Y032708D01*
X011945Y032707D01*
X011919Y032710D01*
X011894Y032717D01*
X011871Y032727D01*
X011849Y032741D01*
X011830Y032759D01*
X011814Y032778D01*
X011800Y032800D01*
X011791Y032824D01*
X011785Y032849D01*
X011783Y032875D01*
X011951Y032969D02*
X011951Y032781D01*
D38*
X006601Y020937D02*
X005801Y020937D01*
X005701Y020837D01*
X005701Y020037D01*
X005801Y019937D01*
X005701Y019837D01*
X005701Y019037D01*
X005801Y018937D01*
X005701Y018837D01*
X005701Y018037D01*
X005801Y017937D01*
X005701Y017837D01*
X005701Y017037D01*
X005801Y016937D01*
X005701Y016837D01*
X005701Y016037D01*
X005801Y015937D01*
X005701Y015837D01*
X005701Y015037D01*
X005801Y014937D01*
X006601Y014937D01*
X006701Y015037D01*
X006701Y015837D01*
X006601Y015937D01*
X006701Y016037D01*
X006701Y016837D01*
X006601Y016937D01*
X006701Y017037D01*
X006701Y017837D01*
X006601Y017937D01*
X006701Y018037D01*
X006701Y018837D01*
X006601Y018937D01*
X006701Y019037D01*
X006701Y019837D01*
X006601Y019937D01*
X006701Y020037D01*
X006701Y020837D01*
X006601Y020937D01*
X026826Y009312D02*
X026951Y009187D01*
X027076Y009312D01*
X026951Y009187D02*
X026951Y012187D01*
X027451Y012687D01*
X028701Y012687D01*
X028826Y013562D02*
X030326Y013562D01*
X030326Y012937D01*
X031951Y012937D01*
X031951Y011562D01*
X030326Y011562D01*
X030326Y010937D01*
X028826Y010937D01*
X028826Y013562D01*
X029178Y008802D02*
X030975Y008802D01*
X030975Y006822D01*
X029178Y006822D01*
X029178Y008802D01*
X029416Y008452D02*
X029418Y008478D01*
X029424Y008504D01*
X029433Y008528D01*
X029446Y008551D01*
X029462Y008572D01*
X029481Y008590D01*
X029502Y008606D01*
X029526Y008618D01*
X029550Y008626D01*
X029576Y008631D01*
X029603Y008632D01*
X029629Y008629D01*
X029654Y008622D01*
X029678Y008612D01*
X029701Y008598D01*
X029721Y008582D01*
X029738Y008562D01*
X029753Y008540D01*
X029764Y008516D01*
X029772Y008491D01*
X029776Y008465D01*
X029776Y008439D01*
X029772Y008413D01*
X029764Y008388D01*
X029753Y008364D01*
X029738Y008342D01*
X029721Y008322D01*
X029701Y008306D01*
X029678Y008292D01*
X029654Y008282D01*
X029629Y008275D01*
X029603Y008272D01*
X029576Y008273D01*
X029550Y008278D01*
X029526Y008286D01*
X029502Y008298D01*
X029481Y008314D01*
X029462Y008332D01*
X029446Y008353D01*
X029433Y008376D01*
X029424Y008400D01*
X029418Y008426D01*
X029416Y008452D01*
X034336Y008711D02*
X034336Y006914D01*
X036316Y006914D01*
X036316Y008711D01*
X034336Y008711D01*
X035786Y008292D02*
X035788Y008318D01*
X035794Y008344D01*
X035803Y008368D01*
X035816Y008391D01*
X035832Y008412D01*
X035851Y008430D01*
X035872Y008446D01*
X035896Y008458D01*
X035920Y008466D01*
X035946Y008471D01*
X035973Y008472D01*
X035999Y008469D01*
X036024Y008462D01*
X036048Y008452D01*
X036071Y008438D01*
X036091Y008422D01*
X036108Y008402D01*
X036123Y008380D01*
X036134Y008356D01*
X036142Y008331D01*
X036146Y008305D01*
X036146Y008279D01*
X036142Y008253D01*
X036134Y008228D01*
X036123Y008204D01*
X036108Y008182D01*
X036091Y008162D01*
X036071Y008146D01*
X036048Y008132D01*
X036024Y008122D01*
X035999Y008115D01*
X035973Y008112D01*
X035946Y008113D01*
X035920Y008118D01*
X035896Y008126D01*
X035872Y008138D01*
X035851Y008154D01*
X035832Y008172D01*
X035816Y008193D01*
X035803Y008216D01*
X035794Y008240D01*
X035788Y008266D01*
X035786Y008292D01*
X040201Y009812D02*
X040201Y010062D01*
X040201Y009812D02*
X040451Y009812D01*
X040451Y010062D02*
X040201Y009812D01*
X040451Y010062D02*
X040451Y011187D01*
X040826Y011562D01*
X040951Y011687D02*
X042451Y011687D01*
X042451Y011812D01*
X043826Y011812D01*
X043826Y014687D01*
X042451Y014687D01*
X042451Y014812D01*
X040951Y014812D01*
X040951Y011687D01*
D39*
X036226Y008621D02*
X036226Y007004D01*
X034426Y007004D01*
X034426Y008621D01*
X036226Y008621D01*
X030885Y008712D02*
X030885Y006912D01*
X029268Y006912D01*
X029268Y008712D01*
X030885Y008712D01*
D40*
X029917Y009052D02*
X029842Y008977D01*
X029692Y008977D01*
X029617Y009052D01*
X029457Y009052D02*
X029457Y009428D01*
X029617Y009353D02*
X029692Y009428D01*
X029842Y009428D01*
X029917Y009353D01*
X029917Y009278D01*
X029842Y009203D01*
X029917Y009128D01*
X029917Y009052D01*
X029842Y009203D02*
X029767Y009203D01*
X029457Y009052D02*
X029382Y008977D01*
X029231Y008977D01*
X029156Y009052D01*
X029156Y009428D01*
X034251Y009522D02*
X034326Y009447D01*
X034476Y009447D01*
X034551Y009522D01*
X034551Y009898D01*
X034711Y009673D02*
X035011Y009673D01*
X034936Y009898D02*
X034711Y009673D01*
X034936Y009447D02*
X034936Y009898D01*
X034251Y009898D02*
X034251Y009522D01*
X030076Y023562D02*
X056576Y023562D01*
X056576Y026062D01*
X030076Y026062D01*
X030076Y023562D01*
X006841Y021094D02*
X006541Y021094D01*
X006691Y021094D02*
X006691Y021544D01*
X006541Y021394D01*
X006381Y021469D02*
X006381Y021319D01*
X006306Y021244D01*
X006081Y021244D01*
X006081Y021094D02*
X006081Y021544D01*
X006306Y021544D01*
X006381Y021469D01*
X005921Y021544D02*
X005770Y021544D01*
X005845Y021544D02*
X005845Y021169D01*
X005770Y021094D01*
X005695Y021094D01*
X005620Y021169D01*
X005641Y020455D02*
X005641Y020228D01*
X005641Y020342D02*
X005301Y020342D01*
X005415Y020228D01*
X005415Y019455D02*
X005358Y019455D01*
X005301Y019398D01*
X005301Y019285D01*
X005358Y019228D01*
X005415Y019455D02*
X005641Y019228D01*
X005641Y019455D01*
X005585Y018455D02*
X005641Y018398D01*
X005641Y018285D01*
X005585Y018228D01*
X005471Y018342D02*
X005471Y018398D01*
X005528Y018455D01*
X005585Y018455D01*
X005471Y018398D02*
X005415Y018455D01*
X005358Y018455D01*
X005301Y018398D01*
X005301Y018285D01*
X005358Y018228D01*
X005471Y017455D02*
X005471Y017228D01*
X005301Y017398D01*
X005641Y017398D01*
X005585Y016455D02*
X005641Y016398D01*
X005641Y016285D01*
X005585Y016228D01*
X005471Y016228D02*
X005415Y016342D01*
X005415Y016398D01*
X005471Y016455D01*
X005585Y016455D01*
X005471Y016228D02*
X005301Y016228D01*
X005301Y016455D01*
X005301Y015455D02*
X005358Y015342D01*
X005471Y015228D01*
X005471Y015398D01*
X005528Y015455D01*
X005585Y015455D01*
X005641Y015398D01*
X005641Y015285D01*
X005585Y015228D01*
X005471Y015228D01*
X006535Y033580D02*
X000826Y033580D01*
X000826Y037123D01*
X006535Y037123D01*
X006535Y033580D01*
D41*
X021177Y019078D02*
X021177Y018740D01*
X021342Y018740D01*
X021177Y019078D02*
X023476Y019078D01*
X023476Y018747D01*
X023311Y018747D01*
X023035Y018606D02*
X023031Y018638D01*
X023024Y018669D01*
X023013Y018699D01*
X022998Y018728D01*
X022981Y018756D01*
X022960Y018781D01*
X022937Y018803D01*
X022912Y018823D01*
X022884Y018840D01*
X022855Y018853D01*
X022824Y018864D01*
X022793Y018871D01*
X022761Y018874D01*
X022728Y018873D01*
X021941Y018873D01*
X021933Y018874D02*
X021900Y018872D01*
X021867Y018866D01*
X021835Y018857D01*
X021804Y018845D01*
X021774Y018829D01*
X021746Y018811D01*
X021721Y018789D01*
X021697Y018766D01*
X021677Y018739D01*
X021659Y018711D01*
X021644Y018681D01*
X021632Y018650D01*
X021624Y018617D01*
X021619Y018584D01*
X021618Y018551D01*
X021618Y005519D02*
X021622Y005487D01*
X021629Y005456D01*
X021640Y005426D01*
X021655Y005397D01*
X021672Y005369D01*
X021693Y005344D01*
X021716Y005322D01*
X021741Y005302D01*
X021769Y005285D01*
X021798Y005272D01*
X021829Y005261D01*
X021860Y005254D01*
X021892Y005251D01*
X021925Y005252D01*
X021925Y005251D02*
X022712Y005251D01*
X022720Y005251D02*
X022753Y005253D01*
X022786Y005259D01*
X022818Y005268D01*
X022849Y005280D01*
X022879Y005296D01*
X022907Y005314D01*
X022932Y005336D01*
X022956Y005359D01*
X022976Y005386D01*
X022994Y005414D01*
X023009Y005444D01*
X023021Y005475D01*
X023029Y005508D01*
X023034Y005541D01*
X023035Y005574D01*
X023311Y005385D02*
X023476Y005385D01*
X023476Y005031D01*
X021177Y005031D01*
X021177Y005377D01*
X021342Y005377D01*
X047927Y005377D02*
X048092Y005377D01*
X047927Y005377D02*
X047927Y005031D01*
X050226Y005031D01*
X050226Y005385D01*
X050061Y005385D01*
X049462Y005251D02*
X048675Y005251D01*
X048675Y005252D02*
X048642Y005251D01*
X048610Y005254D01*
X048579Y005261D01*
X048548Y005272D01*
X048519Y005285D01*
X048491Y005302D01*
X048466Y005322D01*
X048443Y005344D01*
X048422Y005369D01*
X048405Y005397D01*
X048390Y005426D01*
X048379Y005456D01*
X048372Y005487D01*
X048368Y005519D01*
X049470Y005251D02*
X049503Y005253D01*
X049536Y005259D01*
X049568Y005268D01*
X049599Y005280D01*
X049629Y005296D01*
X049657Y005314D01*
X049682Y005336D01*
X049706Y005359D01*
X049726Y005386D01*
X049744Y005414D01*
X049759Y005444D01*
X049771Y005475D01*
X049779Y005508D01*
X049784Y005541D01*
X049785Y005574D01*
X049785Y018606D02*
X049781Y018638D01*
X049774Y018669D01*
X049763Y018699D01*
X049748Y018728D01*
X049731Y018756D01*
X049710Y018781D01*
X049687Y018803D01*
X049662Y018823D01*
X049634Y018840D01*
X049605Y018853D01*
X049574Y018864D01*
X049543Y018871D01*
X049511Y018874D01*
X049478Y018873D01*
X048691Y018873D01*
X048683Y018874D02*
X048650Y018872D01*
X048617Y018866D01*
X048585Y018857D01*
X048554Y018845D01*
X048524Y018829D01*
X048496Y018811D01*
X048471Y018789D01*
X048447Y018766D01*
X048427Y018739D01*
X048409Y018711D01*
X048394Y018681D01*
X048382Y018650D01*
X048374Y018617D01*
X048369Y018584D01*
X048368Y018551D01*
X048092Y018740D02*
X047927Y018740D01*
X047927Y019078D01*
X050226Y019078D01*
X050226Y018747D01*
X050061Y018747D01*
M02*
