G75*
G70*
%OFA0B0*%
%FSLAX24Y24*%
%IPPOS*%
%LPD*%
%AMOC8*
5,1,8,0,0,1.08239X$1,22.5*
%
%ADD10C,0.0000*%
D10*
X000140Y000143D02*
X035573Y000143D01*
X035573Y022190D01*
X000140Y022190D01*
X000140Y000143D01*
X001459Y002111D02*
X001461Y002161D01*
X001467Y002211D01*
X001477Y002261D01*
X001490Y002309D01*
X001507Y002357D01*
X001528Y002403D01*
X001552Y002447D01*
X001580Y002489D01*
X001611Y002529D01*
X001645Y002566D01*
X001682Y002601D01*
X001721Y002632D01*
X001762Y002661D01*
X001806Y002686D01*
X001852Y002708D01*
X001899Y002726D01*
X001947Y002740D01*
X001996Y002751D01*
X002046Y002758D01*
X002096Y002761D01*
X002147Y002760D01*
X002197Y002755D01*
X002247Y002746D01*
X002295Y002734D01*
X002343Y002717D01*
X002389Y002697D01*
X002434Y002674D01*
X002477Y002647D01*
X002517Y002617D01*
X002555Y002584D01*
X002590Y002548D01*
X002623Y002509D01*
X002652Y002468D01*
X002678Y002425D01*
X002701Y002380D01*
X002720Y002333D01*
X002735Y002285D01*
X002747Y002236D01*
X002755Y002186D01*
X002759Y002136D01*
X002759Y002086D01*
X002755Y002036D01*
X002747Y001986D01*
X002735Y001937D01*
X002720Y001889D01*
X002701Y001842D01*
X002678Y001797D01*
X002652Y001754D01*
X002623Y001713D01*
X002590Y001674D01*
X002555Y001638D01*
X002517Y001605D01*
X002477Y001575D01*
X002434Y001548D01*
X002389Y001525D01*
X002343Y001505D01*
X002295Y001488D01*
X002247Y001476D01*
X002197Y001467D01*
X002147Y001462D01*
X002096Y001461D01*
X002046Y001464D01*
X001996Y001471D01*
X001947Y001482D01*
X001899Y001496D01*
X001852Y001514D01*
X001806Y001536D01*
X001762Y001561D01*
X001721Y001590D01*
X001682Y001621D01*
X001645Y001656D01*
X001611Y001693D01*
X001580Y001733D01*
X001552Y001775D01*
X001528Y001819D01*
X001507Y001865D01*
X001490Y001913D01*
X001477Y001961D01*
X001467Y002011D01*
X001461Y002061D01*
X001459Y002111D01*
X008840Y002898D02*
X008842Y002931D01*
X008848Y002963D01*
X008857Y002994D01*
X008870Y003024D01*
X008887Y003052D01*
X008907Y003078D01*
X008930Y003102D01*
X008955Y003122D01*
X008983Y003140D01*
X009012Y003154D01*
X009043Y003164D01*
X009075Y003171D01*
X009108Y003174D01*
X009141Y003173D01*
X009173Y003168D01*
X009204Y003159D01*
X009235Y003147D01*
X009263Y003131D01*
X009290Y003112D01*
X009314Y003090D01*
X009335Y003065D01*
X009354Y003038D01*
X009369Y003009D01*
X009380Y002979D01*
X009388Y002947D01*
X009392Y002914D01*
X009392Y002882D01*
X009388Y002849D01*
X009380Y002817D01*
X009369Y002787D01*
X009354Y002758D01*
X009335Y002731D01*
X009314Y002706D01*
X009290Y002684D01*
X009263Y002665D01*
X009235Y002649D01*
X009204Y002637D01*
X009173Y002628D01*
X009141Y002623D01*
X009108Y002622D01*
X009075Y002625D01*
X009043Y002632D01*
X009012Y002642D01*
X008983Y002656D01*
X008955Y002674D01*
X008930Y002694D01*
X008907Y002718D01*
X008887Y002744D01*
X008870Y002772D01*
X008857Y002802D01*
X008848Y002833D01*
X008842Y002865D01*
X008840Y002898D01*
X008842Y002931D01*
X008848Y002963D01*
X008857Y002994D01*
X008870Y003024D01*
X008887Y003052D01*
X008907Y003078D01*
X008930Y003102D01*
X008955Y003122D01*
X008983Y003140D01*
X009012Y003154D01*
X009043Y003164D01*
X009075Y003171D01*
X009108Y003174D01*
X009141Y003173D01*
X009173Y003168D01*
X009204Y003159D01*
X009235Y003147D01*
X009263Y003131D01*
X009290Y003112D01*
X009314Y003090D01*
X009335Y003065D01*
X009354Y003038D01*
X009369Y003009D01*
X009380Y002979D01*
X009388Y002947D01*
X009392Y002914D01*
X009392Y002882D01*
X009388Y002849D01*
X009380Y002817D01*
X009369Y002787D01*
X009354Y002758D01*
X009335Y002731D01*
X009314Y002706D01*
X009290Y002684D01*
X009263Y002665D01*
X009235Y002649D01*
X009204Y002637D01*
X009173Y002628D01*
X009141Y002623D01*
X009108Y002622D01*
X009075Y002625D01*
X009043Y002632D01*
X009012Y002642D01*
X008983Y002656D01*
X008955Y002674D01*
X008930Y002694D01*
X008907Y002718D01*
X008887Y002744D01*
X008870Y002772D01*
X008857Y002802D01*
X008848Y002833D01*
X008842Y002865D01*
X008840Y002898D01*
X026321Y002898D02*
X026323Y002931D01*
X026329Y002963D01*
X026338Y002994D01*
X026351Y003024D01*
X026368Y003052D01*
X026388Y003078D01*
X026411Y003102D01*
X026436Y003122D01*
X026464Y003140D01*
X026493Y003154D01*
X026524Y003164D01*
X026556Y003171D01*
X026589Y003174D01*
X026622Y003173D01*
X026654Y003168D01*
X026685Y003159D01*
X026716Y003147D01*
X026744Y003131D01*
X026771Y003112D01*
X026795Y003090D01*
X026816Y003065D01*
X026835Y003038D01*
X026850Y003009D01*
X026861Y002979D01*
X026869Y002947D01*
X026873Y002914D01*
X026873Y002882D01*
X026869Y002849D01*
X026861Y002817D01*
X026850Y002787D01*
X026835Y002758D01*
X026816Y002731D01*
X026795Y002706D01*
X026771Y002684D01*
X026744Y002665D01*
X026716Y002649D01*
X026685Y002637D01*
X026654Y002628D01*
X026622Y002623D01*
X026589Y002622D01*
X026556Y002625D01*
X026524Y002632D01*
X026493Y002642D01*
X026464Y002656D01*
X026436Y002674D01*
X026411Y002694D01*
X026388Y002718D01*
X026368Y002744D01*
X026351Y002772D01*
X026338Y002802D01*
X026329Y002833D01*
X026323Y002865D01*
X026321Y002898D01*
X026323Y002931D01*
X026329Y002963D01*
X026338Y002994D01*
X026351Y003024D01*
X026368Y003052D01*
X026388Y003078D01*
X026411Y003102D01*
X026436Y003122D01*
X026464Y003140D01*
X026493Y003154D01*
X026524Y003164D01*
X026556Y003171D01*
X026589Y003174D01*
X026622Y003173D01*
X026654Y003168D01*
X026685Y003159D01*
X026716Y003147D01*
X026744Y003131D01*
X026771Y003112D01*
X026795Y003090D01*
X026816Y003065D01*
X026835Y003038D01*
X026850Y003009D01*
X026861Y002979D01*
X026869Y002947D01*
X026873Y002914D01*
X026873Y002882D01*
X026869Y002849D01*
X026861Y002817D01*
X026850Y002787D01*
X026835Y002758D01*
X026816Y002731D01*
X026795Y002706D01*
X026771Y002684D01*
X026744Y002665D01*
X026716Y002649D01*
X026685Y002637D01*
X026654Y002628D01*
X026622Y002623D01*
X026589Y002622D01*
X026556Y002625D01*
X026524Y002632D01*
X026493Y002642D01*
X026464Y002656D01*
X026436Y002674D01*
X026411Y002694D01*
X026388Y002718D01*
X026368Y002744D01*
X026351Y002772D01*
X026338Y002802D01*
X026329Y002833D01*
X026323Y002865D01*
X026321Y002898D01*
X032955Y002111D02*
X032957Y002161D01*
X032963Y002211D01*
X032973Y002261D01*
X032986Y002309D01*
X033003Y002357D01*
X033024Y002403D01*
X033048Y002447D01*
X033076Y002489D01*
X033107Y002529D01*
X033141Y002566D01*
X033178Y002601D01*
X033217Y002632D01*
X033258Y002661D01*
X033302Y002686D01*
X033348Y002708D01*
X033395Y002726D01*
X033443Y002740D01*
X033492Y002751D01*
X033542Y002758D01*
X033592Y002761D01*
X033643Y002760D01*
X033693Y002755D01*
X033743Y002746D01*
X033791Y002734D01*
X033839Y002717D01*
X033885Y002697D01*
X033930Y002674D01*
X033973Y002647D01*
X034013Y002617D01*
X034051Y002584D01*
X034086Y002548D01*
X034119Y002509D01*
X034148Y002468D01*
X034174Y002425D01*
X034197Y002380D01*
X034216Y002333D01*
X034231Y002285D01*
X034243Y002236D01*
X034251Y002186D01*
X034255Y002136D01*
X034255Y002086D01*
X034251Y002036D01*
X034243Y001986D01*
X034231Y001937D01*
X034216Y001889D01*
X034197Y001842D01*
X034174Y001797D01*
X034148Y001754D01*
X034119Y001713D01*
X034086Y001674D01*
X034051Y001638D01*
X034013Y001605D01*
X033973Y001575D01*
X033930Y001548D01*
X033885Y001525D01*
X033839Y001505D01*
X033791Y001488D01*
X033743Y001476D01*
X033693Y001467D01*
X033643Y001462D01*
X033592Y001461D01*
X033542Y001464D01*
X033492Y001471D01*
X033443Y001482D01*
X033395Y001496D01*
X033348Y001514D01*
X033302Y001536D01*
X033258Y001561D01*
X033217Y001590D01*
X033178Y001621D01*
X033141Y001656D01*
X033107Y001693D01*
X033076Y001733D01*
X033048Y001775D01*
X033024Y001819D01*
X033003Y001865D01*
X032986Y001913D01*
X032973Y001961D01*
X032963Y002011D01*
X032957Y002061D01*
X032955Y002111D01*
X032955Y017859D02*
X032957Y017909D01*
X032963Y017959D01*
X032973Y018009D01*
X032986Y018057D01*
X033003Y018105D01*
X033024Y018151D01*
X033048Y018195D01*
X033076Y018237D01*
X033107Y018277D01*
X033141Y018314D01*
X033178Y018349D01*
X033217Y018380D01*
X033258Y018409D01*
X033302Y018434D01*
X033348Y018456D01*
X033395Y018474D01*
X033443Y018488D01*
X033492Y018499D01*
X033542Y018506D01*
X033592Y018509D01*
X033643Y018508D01*
X033693Y018503D01*
X033743Y018494D01*
X033791Y018482D01*
X033839Y018465D01*
X033885Y018445D01*
X033930Y018422D01*
X033973Y018395D01*
X034013Y018365D01*
X034051Y018332D01*
X034086Y018296D01*
X034119Y018257D01*
X034148Y018216D01*
X034174Y018173D01*
X034197Y018128D01*
X034216Y018081D01*
X034231Y018033D01*
X034243Y017984D01*
X034251Y017934D01*
X034255Y017884D01*
X034255Y017834D01*
X034251Y017784D01*
X034243Y017734D01*
X034231Y017685D01*
X034216Y017637D01*
X034197Y017590D01*
X034174Y017545D01*
X034148Y017502D01*
X034119Y017461D01*
X034086Y017422D01*
X034051Y017386D01*
X034013Y017353D01*
X033973Y017323D01*
X033930Y017296D01*
X033885Y017273D01*
X033839Y017253D01*
X033791Y017236D01*
X033743Y017224D01*
X033693Y017215D01*
X033643Y017210D01*
X033592Y017209D01*
X033542Y017212D01*
X033492Y017219D01*
X033443Y017230D01*
X033395Y017244D01*
X033348Y017262D01*
X033302Y017284D01*
X033258Y017309D01*
X033217Y017338D01*
X033178Y017369D01*
X033141Y017404D01*
X033107Y017441D01*
X033076Y017481D01*
X033048Y017523D01*
X033024Y017567D01*
X033003Y017613D01*
X032986Y017661D01*
X032973Y017709D01*
X032963Y017759D01*
X032957Y017809D01*
X032955Y017859D01*
X001459Y017859D02*
X001461Y017909D01*
X001467Y017959D01*
X001477Y018009D01*
X001490Y018057D01*
X001507Y018105D01*
X001528Y018151D01*
X001552Y018195D01*
X001580Y018237D01*
X001611Y018277D01*
X001645Y018314D01*
X001682Y018349D01*
X001721Y018380D01*
X001762Y018409D01*
X001806Y018434D01*
X001852Y018456D01*
X001899Y018474D01*
X001947Y018488D01*
X001996Y018499D01*
X002046Y018506D01*
X002096Y018509D01*
X002147Y018508D01*
X002197Y018503D01*
X002247Y018494D01*
X002295Y018482D01*
X002343Y018465D01*
X002389Y018445D01*
X002434Y018422D01*
X002477Y018395D01*
X002517Y018365D01*
X002555Y018332D01*
X002590Y018296D01*
X002623Y018257D01*
X002652Y018216D01*
X002678Y018173D01*
X002701Y018128D01*
X002720Y018081D01*
X002735Y018033D01*
X002747Y017984D01*
X002755Y017934D01*
X002759Y017884D01*
X002759Y017834D01*
X002755Y017784D01*
X002747Y017734D01*
X002735Y017685D01*
X002720Y017637D01*
X002701Y017590D01*
X002678Y017545D01*
X002652Y017502D01*
X002623Y017461D01*
X002590Y017422D01*
X002555Y017386D01*
X002517Y017353D01*
X002477Y017323D01*
X002434Y017296D01*
X002389Y017273D01*
X002343Y017253D01*
X002295Y017236D01*
X002247Y017224D01*
X002197Y017215D01*
X002147Y017210D01*
X002096Y017209D01*
X002046Y017212D01*
X001996Y017219D01*
X001947Y017230D01*
X001899Y017244D01*
X001852Y017262D01*
X001806Y017284D01*
X001762Y017309D01*
X001721Y017338D01*
X001682Y017369D01*
X001645Y017404D01*
X001611Y017441D01*
X001580Y017481D01*
X001552Y017523D01*
X001528Y017567D01*
X001507Y017613D01*
X001490Y017661D01*
X001477Y017709D01*
X001467Y017759D01*
X001461Y017809D01*
X001459Y017859D01*
M02*
