G75*
G70*
%OFA0B0*%
%FSLAX24Y24*%
%IPPOS*%
%LPD*%
%AMOC8*
5,1,8,0,0,1.08239X$1,22.5*
%
%ADD10C,0.0080*%
%ADD11C,0.0060*%
%ADD12C,0.0040*%
%ADD13C,0.0050*%
%ADD14R,0.0160X0.0560*%
D10*
X008872Y001749D02*
X008872Y004048D01*
X009211Y004048D01*
X009211Y003883D01*
X009077Y003284D02*
X009077Y002497D01*
X009076Y002464D01*
X009079Y002432D01*
X009086Y002401D01*
X009097Y002370D01*
X009110Y002341D01*
X009127Y002313D01*
X009147Y002288D01*
X009169Y002265D01*
X009194Y002244D01*
X009222Y002227D01*
X009251Y002212D01*
X009281Y002201D01*
X009312Y002194D01*
X009344Y002190D01*
X009203Y001914D02*
X009203Y001749D01*
X008872Y001749D01*
X009077Y003292D02*
X009079Y003325D01*
X009085Y003358D01*
X009094Y003390D01*
X009106Y003421D01*
X009122Y003451D01*
X009140Y003479D01*
X009162Y003504D01*
X009185Y003528D01*
X009212Y003548D01*
X009240Y003566D01*
X009270Y003581D01*
X009301Y003593D01*
X009334Y003601D01*
X009367Y003606D01*
X009400Y003607D01*
X012345Y010379D02*
X012345Y014316D01*
X023368Y014316D01*
X023368Y010379D01*
X012345Y010379D01*
X026369Y003607D02*
X026401Y003603D01*
X026432Y003596D01*
X026462Y003585D01*
X026491Y003570D01*
X026519Y003553D01*
X026544Y003532D01*
X026566Y003509D01*
X026586Y003484D01*
X026603Y003456D01*
X026616Y003427D01*
X026627Y003396D01*
X026634Y003365D01*
X026637Y003333D01*
X026636Y003300D01*
X026636Y002513D01*
X026636Y002505D02*
X026634Y002472D01*
X026628Y002439D01*
X026619Y002407D01*
X026607Y002376D01*
X026591Y002346D01*
X026573Y002318D01*
X026551Y002293D01*
X026528Y002269D01*
X026501Y002249D01*
X026473Y002231D01*
X026443Y002216D01*
X026412Y002204D01*
X026379Y002196D01*
X026346Y002191D01*
X026313Y002190D01*
X026502Y001914D02*
X026502Y001749D01*
X026857Y001749D01*
X026857Y004048D01*
X026510Y004048D01*
X026510Y003883D01*
D11*
X019079Y012951D02*
X018972Y012951D01*
X018866Y013058D01*
X018866Y013592D01*
X019293Y013592D02*
X019293Y013271D01*
X019186Y013165D01*
X018866Y013165D01*
X019510Y013165D02*
X019830Y013378D01*
X019510Y013592D01*
X019830Y013805D02*
X019830Y013165D01*
X020047Y013271D02*
X020047Y013485D01*
X020154Y013592D01*
X020368Y013592D01*
X020474Y013485D01*
X020474Y013271D01*
X020368Y013165D01*
X020154Y013165D01*
X020047Y013271D01*
X020692Y013165D02*
X020692Y013485D01*
X020799Y013592D01*
X020905Y013485D01*
X020905Y013165D01*
X021119Y013165D02*
X021119Y013592D01*
X021012Y013592D01*
X020905Y013485D01*
X021337Y013378D02*
X021337Y013271D01*
X021443Y013165D01*
X021657Y013165D01*
X021764Y013271D01*
X021657Y013485D02*
X021443Y013485D01*
X021337Y013378D01*
X021657Y013485D02*
X021764Y013592D01*
X021764Y013698D01*
X021657Y013805D01*
X021443Y013805D01*
X021337Y013698D01*
X016744Y013805D02*
X016744Y013165D01*
X016744Y013378D02*
X016424Y013378D01*
X016317Y013485D01*
X016317Y013698D01*
X016424Y013805D01*
X016744Y013805D01*
X016099Y013485D02*
X015993Y013592D01*
X015779Y013592D01*
X015672Y013485D01*
X015672Y013378D01*
X016099Y013378D01*
X016099Y013271D02*
X016099Y013485D01*
X016099Y013271D02*
X015993Y013165D01*
X015779Y013165D01*
X016317Y013165D02*
X016530Y013378D01*
X015455Y013592D02*
X015241Y013165D01*
X015028Y013592D01*
X014382Y013485D02*
X014061Y013485D01*
X013955Y013378D01*
X013955Y013271D01*
X014061Y013165D01*
X014382Y013165D01*
X014382Y013805D01*
X014061Y013805D01*
X013955Y013698D01*
X013955Y013592D01*
X014061Y013485D01*
D12*
X014743Y012434D02*
X014743Y011974D01*
X014667Y011974D02*
X014820Y011974D01*
X014974Y011974D02*
X014974Y012280D01*
X014820Y012434D02*
X014743Y012434D01*
X014513Y012204D02*
X014437Y012280D01*
X014283Y012280D01*
X014206Y012204D01*
X014206Y012127D01*
X014513Y012127D01*
X014513Y012050D02*
X014513Y012204D01*
X014513Y012050D02*
X014437Y011974D01*
X014283Y011974D01*
X014416Y011548D02*
X014492Y011471D01*
X014492Y011088D01*
X014723Y011088D02*
X014799Y011164D01*
X014799Y011471D01*
X014723Y011395D02*
X014876Y011395D01*
X015030Y011318D02*
X015030Y011088D01*
X015260Y011088D01*
X015336Y011164D01*
X015260Y011241D01*
X015030Y011241D01*
X015030Y011318D02*
X015106Y011395D01*
X015260Y011395D01*
X015567Y011548D02*
X015567Y011088D01*
X015643Y011088D02*
X015490Y011088D01*
X015797Y011164D02*
X015797Y011318D01*
X015874Y011395D01*
X016104Y011395D01*
X016104Y010934D01*
X016104Y011088D02*
X015874Y011088D01*
X015797Y011164D01*
X015643Y011548D02*
X015567Y011548D01*
X015664Y011974D02*
X015741Y012050D01*
X015741Y012204D01*
X015664Y012280D01*
X015434Y012280D01*
X015281Y012280D02*
X015281Y012050D01*
X015204Y011974D01*
X014974Y011974D01*
X015434Y011974D02*
X015434Y012434D01*
X015894Y012204D02*
X015971Y012280D01*
X016125Y012280D01*
X016201Y012204D01*
X016201Y012050D01*
X016125Y011974D01*
X015971Y011974D01*
X015894Y012050D01*
X015894Y012204D01*
X015664Y011974D02*
X015434Y011974D01*
X016355Y011974D02*
X016355Y012204D01*
X016432Y012280D01*
X016508Y012204D01*
X016508Y011974D01*
X016662Y011974D02*
X016662Y012280D01*
X016585Y012280D01*
X016508Y012204D01*
X017276Y012204D02*
X017276Y011974D01*
X017276Y012204D02*
X017352Y012280D01*
X017583Y012280D01*
X017583Y011974D01*
X017736Y012050D02*
X017736Y012204D01*
X017813Y012280D01*
X017966Y012280D01*
X018043Y012204D01*
X018043Y012050D01*
X017966Y011974D01*
X017813Y011974D01*
X017736Y012050D01*
X018196Y011974D02*
X018350Y011974D01*
X018273Y011974D02*
X018273Y012280D01*
X018350Y012280D01*
X018503Y012280D02*
X018657Y012280D01*
X018580Y012357D02*
X018580Y012050D01*
X018503Y011974D01*
X018810Y011974D02*
X019040Y011974D01*
X019117Y012050D01*
X019117Y012204D01*
X019040Y012280D01*
X018810Y012280D01*
X019271Y012204D02*
X019271Y012127D01*
X019578Y012127D01*
X019578Y012050D02*
X019578Y012204D01*
X019501Y012280D01*
X019347Y012280D01*
X019271Y012204D01*
X019347Y011974D02*
X019501Y011974D01*
X019578Y012050D01*
X019731Y012050D02*
X019731Y012204D01*
X019808Y012280D01*
X020038Y012280D01*
X020038Y011820D01*
X020038Y011974D02*
X019808Y011974D01*
X019731Y012050D01*
X020191Y012050D02*
X020268Y012127D01*
X020422Y012127D01*
X020498Y012204D01*
X020422Y012280D01*
X020191Y012280D01*
X020191Y012050D02*
X020268Y011974D01*
X020498Y011974D01*
X020652Y011974D02*
X020652Y012204D01*
X020729Y012280D01*
X020959Y012280D01*
X020959Y011974D01*
X021112Y011974D02*
X021266Y011974D01*
X021189Y011974D02*
X021189Y012434D01*
X021266Y012434D02*
X021112Y012434D01*
X020938Y011548D02*
X020938Y011088D01*
X021091Y011088D02*
X021168Y011164D01*
X021168Y011471D01*
X021245Y011395D02*
X021091Y011395D01*
X020938Y011318D02*
X020861Y011395D01*
X020708Y011395D01*
X020631Y011318D01*
X020631Y011088D01*
X020478Y011164D02*
X020478Y011318D01*
X020401Y011395D01*
X020247Y011395D01*
X020171Y011318D01*
X020171Y011241D01*
X020478Y011241D01*
X020478Y011164D02*
X020401Y011088D01*
X020247Y011088D01*
X019557Y011088D02*
X019557Y011548D01*
X019403Y011395D01*
X019250Y011548D01*
X019250Y011088D01*
X019096Y011164D02*
X019020Y011241D01*
X018789Y011241D01*
X018789Y011318D02*
X018789Y011088D01*
X019020Y011088D01*
X019096Y011164D01*
X018866Y011395D02*
X018789Y011318D01*
X018866Y011395D02*
X019020Y011395D01*
X018636Y011395D02*
X018636Y011088D01*
X018636Y011241D02*
X018482Y011395D01*
X018406Y011395D01*
X018252Y011395D02*
X018176Y011395D01*
X018099Y011318D01*
X018022Y011395D01*
X017945Y011318D01*
X017945Y011088D01*
X018099Y011088D02*
X018099Y011318D01*
X018252Y011395D02*
X018252Y011088D01*
X017792Y011164D02*
X017715Y011088D01*
X017562Y011088D01*
X017485Y011164D01*
X017485Y011318D01*
X017562Y011395D01*
X017715Y011395D01*
X017792Y011318D01*
X017792Y011164D01*
X017255Y011164D02*
X017178Y011088D01*
X017255Y011164D02*
X017255Y011471D01*
X017332Y011395D02*
X017178Y011395D01*
X017025Y011318D02*
X016948Y011395D01*
X016794Y011395D01*
X016718Y011318D01*
X016718Y011241D01*
X017025Y011241D01*
X017025Y011164D02*
X017025Y011318D01*
X017025Y011164D02*
X016948Y011088D01*
X016794Y011088D01*
X018273Y012434D02*
X018273Y012511D01*
X021859Y011395D02*
X021935Y011395D01*
X022089Y011241D01*
X022089Y011088D02*
X022089Y011395D01*
X022242Y011318D02*
X022319Y011395D01*
X022473Y011395D01*
X022549Y011318D01*
X022549Y011164D01*
X022473Y011088D01*
X022319Y011088D01*
X022242Y011164D01*
X022242Y011318D01*
X022703Y011318D02*
X022856Y011318D01*
X022779Y011471D02*
X022779Y011088D01*
X022779Y011471D02*
X022703Y011548D01*
X022068Y008103D02*
X022144Y008026D01*
X022068Y008103D02*
X021914Y008103D01*
X021837Y008026D01*
X021837Y007950D01*
X022144Y007643D01*
X021837Y007643D01*
X021684Y007720D02*
X021684Y008026D01*
X021607Y008103D01*
X021454Y008103D01*
X021377Y008026D01*
X021684Y007720D01*
X021607Y007643D01*
X021454Y007643D01*
X021377Y007720D01*
X021377Y008026D01*
X021224Y007950D02*
X021070Y008103D01*
X021070Y007643D01*
X020917Y007643D02*
X021224Y007643D01*
X020763Y007643D02*
X020456Y007950D01*
X020456Y008026D01*
X020533Y008103D01*
X020686Y008103D01*
X020763Y008026D01*
X020763Y007643D02*
X020456Y007643D01*
X019411Y007796D02*
X019258Y007643D01*
X019104Y007796D01*
X019104Y008103D01*
X018874Y007950D02*
X018721Y007950D01*
X018644Y007873D01*
X018644Y007643D01*
X018874Y007643D01*
X018951Y007720D01*
X018874Y007796D01*
X018644Y007796D01*
X018491Y007643D02*
X018491Y007950D01*
X018260Y007950D01*
X018184Y007873D01*
X018184Y007643D01*
X018030Y007720D02*
X018030Y007873D01*
X017953Y007950D01*
X017723Y007950D01*
X017723Y008103D02*
X017723Y007643D01*
X017953Y007643D01*
X018030Y007720D01*
X017570Y007720D02*
X017570Y007873D01*
X017493Y007950D01*
X017340Y007950D01*
X017263Y007873D01*
X017263Y007796D01*
X017570Y007796D01*
X017570Y007720D02*
X017493Y007643D01*
X017340Y007643D01*
X017109Y007643D02*
X017109Y007950D01*
X016956Y007950D02*
X016879Y007950D01*
X016956Y007950D02*
X017109Y007796D01*
X016726Y007643D02*
X016496Y007643D01*
X016419Y007720D01*
X016419Y007873D01*
X016496Y007950D01*
X016726Y007950D01*
X016726Y008103D02*
X016726Y007643D01*
X016265Y007643D02*
X016112Y007643D01*
X016189Y007643D02*
X016189Y007950D01*
X016265Y007950D01*
X016189Y008103D02*
X016189Y008180D01*
X015958Y008103D02*
X015882Y008103D01*
X015882Y007643D01*
X015958Y007643D02*
X015805Y007643D01*
X015575Y007720D02*
X015575Y008026D01*
X015651Y007950D02*
X015498Y007950D01*
X015575Y007720D02*
X015498Y007643D01*
X014884Y007720D02*
X014884Y008103D01*
X014577Y008103D02*
X014577Y007720D01*
X014654Y007643D01*
X014807Y007643D01*
X014884Y007720D01*
X014424Y007643D02*
X014424Y007950D01*
X014194Y007950D01*
X014117Y007873D01*
X014117Y007643D01*
X013963Y007643D02*
X013810Y007643D01*
X013887Y007643D02*
X013887Y007950D01*
X013963Y007950D01*
X013887Y008103D02*
X013887Y008180D01*
X013656Y007950D02*
X013503Y007643D01*
X013350Y007950D01*
X013196Y007873D02*
X013196Y007720D01*
X013119Y007643D01*
X012966Y007643D01*
X012889Y007796D02*
X013196Y007796D01*
X013196Y007873D02*
X013119Y007950D01*
X012966Y007950D01*
X012889Y007873D01*
X012889Y007796D01*
X012736Y007796D02*
X012582Y007950D01*
X012505Y007950D01*
X012352Y007873D02*
X012275Y007796D01*
X012122Y007796D01*
X012045Y007720D01*
X012122Y007643D01*
X012352Y007643D01*
X012352Y007873D02*
X012275Y007950D01*
X012045Y007950D01*
X011892Y007950D02*
X011815Y007950D01*
X011815Y007643D01*
X011892Y007643D02*
X011738Y007643D01*
X011508Y007720D02*
X011431Y007643D01*
X011508Y007720D02*
X011508Y008026D01*
X011585Y007950D02*
X011431Y007950D01*
X011278Y007950D02*
X011278Y007720D01*
X011201Y007643D01*
X010971Y007643D01*
X010971Y007566D02*
X011048Y007489D01*
X011124Y007489D01*
X010971Y007566D02*
X010971Y007950D01*
X010741Y007720D02*
X010664Y007720D01*
X010664Y007643D01*
X010741Y007643D01*
X010741Y007720D01*
X010664Y007643D02*
X010817Y007489D01*
X010050Y007643D02*
X009897Y007643D01*
X009973Y007643D02*
X009973Y008103D01*
X009897Y008103D02*
X010050Y008103D01*
X009743Y008026D02*
X009743Y007950D01*
X009666Y007873D01*
X009513Y007873D01*
X009436Y007796D01*
X009436Y007720D01*
X009513Y007643D01*
X009666Y007643D01*
X009743Y007720D01*
X009743Y008026D02*
X009666Y008103D01*
X009513Y008103D01*
X009436Y008026D01*
X009283Y008103D02*
X009129Y008103D01*
X009206Y008103D02*
X009206Y007643D01*
X009283Y007643D02*
X009129Y007643D01*
X008976Y007720D02*
X008899Y007643D01*
X008746Y007643D01*
X008669Y007720D01*
X008669Y007796D01*
X008746Y007873D01*
X008899Y007873D01*
X008976Y007950D01*
X008976Y008026D01*
X008899Y008103D01*
X008746Y008103D01*
X008669Y008026D01*
X011815Y008103D02*
X011815Y008180D01*
X012736Y007950D02*
X012736Y007643D01*
X012724Y006867D02*
X012648Y006867D01*
X012571Y006790D01*
X012494Y006867D01*
X012417Y006790D01*
X012417Y006560D01*
X012571Y006560D02*
X012571Y006790D01*
X012724Y006867D02*
X012724Y006560D01*
X012878Y006637D02*
X012878Y006790D01*
X012955Y006867D01*
X013108Y006867D01*
X013185Y006790D01*
X013185Y006637D01*
X013108Y006560D01*
X012955Y006560D01*
X012878Y006637D01*
X013338Y006560D02*
X013568Y006560D01*
X013645Y006637D01*
X013645Y006790D01*
X013568Y006867D01*
X013338Y006867D01*
X013799Y006637D02*
X013799Y006560D01*
X013875Y006560D01*
X013875Y006637D01*
X013799Y006637D01*
X014029Y006714D02*
X014336Y006714D01*
X014336Y006790D02*
X014259Y006867D01*
X014106Y006867D01*
X014029Y006790D01*
X014029Y006714D01*
X014106Y006560D02*
X014259Y006560D01*
X014336Y006637D01*
X014336Y006790D01*
X014489Y006867D02*
X014719Y006867D01*
X014796Y006790D01*
X014796Y006637D01*
X014719Y006560D01*
X014489Y006560D01*
X014489Y007021D01*
X014950Y006790D02*
X015026Y006867D01*
X015180Y006867D01*
X015257Y006790D01*
X015257Y006637D01*
X015180Y006560D01*
X015026Y006560D01*
X014950Y006637D01*
X014950Y006790D01*
X015410Y006867D02*
X015640Y006867D01*
X015717Y006790D01*
X015717Y006637D01*
X015640Y006560D01*
X015410Y006560D01*
X015870Y006714D02*
X016177Y006714D01*
X016177Y006790D02*
X016101Y006867D01*
X015947Y006867D01*
X015870Y006790D01*
X015870Y006714D01*
X015947Y006560D02*
X016101Y006560D01*
X016177Y006637D01*
X016177Y006790D01*
X016331Y006560D02*
X016484Y006560D01*
X016408Y006560D02*
X016408Y007021D01*
X016484Y007021D01*
X016638Y006867D02*
X016868Y006867D01*
X016945Y006790D01*
X016945Y006637D01*
X016868Y006560D01*
X016638Y006560D01*
X016638Y006483D02*
X016638Y006867D01*
X016638Y006483D02*
X016714Y006407D01*
X016791Y006407D01*
X017098Y006637D02*
X017098Y006790D01*
X017175Y006867D01*
X017328Y006867D01*
X017405Y006790D01*
X017405Y006637D01*
X017328Y006560D01*
X017175Y006560D01*
X017098Y006637D01*
X017558Y006637D02*
X017558Y006790D01*
X017635Y006867D01*
X017789Y006867D01*
X017865Y006790D01*
X017865Y006637D01*
X017789Y006560D01*
X017635Y006560D01*
X017558Y006637D01*
X018019Y006560D02*
X018249Y006560D01*
X018326Y006637D01*
X018326Y006790D01*
X018249Y006867D01*
X018019Y006867D01*
X018019Y006483D01*
X018096Y006407D01*
X018172Y006407D01*
X018479Y006560D02*
X018556Y006560D01*
X018556Y006637D01*
X018479Y006637D01*
X018479Y006560D01*
X018709Y006714D02*
X019016Y006714D01*
X019016Y006790D02*
X018940Y006867D01*
X018786Y006867D01*
X018709Y006790D01*
X018709Y006714D01*
X018786Y006560D02*
X018940Y006560D01*
X019016Y006637D01*
X019016Y006790D01*
X019170Y006867D02*
X019323Y006867D01*
X019247Y006944D02*
X019247Y006637D01*
X019170Y006560D01*
X019477Y006637D02*
X019477Y006790D01*
X019554Y006867D01*
X019707Y006867D01*
X019784Y006790D01*
X019784Y006637D01*
X019707Y006560D01*
X019554Y006560D01*
X019477Y006637D01*
X019937Y006560D02*
X019937Y006790D01*
X020014Y006867D01*
X020091Y006790D01*
X020091Y006560D01*
X020244Y006560D02*
X020244Y006867D01*
X020167Y006867D01*
X020091Y006790D01*
X020398Y006867D02*
X020474Y006867D01*
X020628Y006714D01*
X020628Y006867D02*
X020628Y006560D01*
X020781Y006560D02*
X020781Y006790D01*
X020858Y006867D01*
X021011Y006867D01*
X021011Y006714D02*
X020781Y006714D01*
X020781Y006560D02*
X021011Y006560D01*
X021088Y006637D01*
X021011Y006714D01*
X021242Y006790D02*
X021242Y006560D01*
X021395Y006560D02*
X021395Y006790D01*
X021318Y006867D01*
X021242Y006790D01*
X021395Y006790D02*
X021472Y006867D01*
X021549Y006867D01*
X021549Y006560D01*
X022009Y006560D02*
X021702Y007021D01*
X022162Y007021D02*
X022469Y006560D01*
X022623Y006560D02*
X022700Y006560D01*
X022700Y006637D01*
X022623Y006637D01*
X022623Y006560D01*
X022623Y006790D02*
X022700Y006790D01*
X022700Y006867D01*
X022623Y006867D01*
X022623Y006790D01*
X022853Y006790D02*
X022853Y006637D01*
X022930Y006560D01*
X023160Y006560D01*
X023160Y006407D02*
X023160Y006867D01*
X022930Y006867D01*
X022853Y006790D01*
X023313Y006867D02*
X023467Y006867D01*
X023390Y006944D02*
X023390Y006637D01*
X023313Y006560D01*
X023620Y006560D02*
X023697Y006637D01*
X023697Y006944D01*
X023774Y006867D02*
X023620Y006867D01*
X023927Y006790D02*
X023927Y006560D01*
X023927Y006790D02*
X024004Y006867D01*
X024157Y006867D01*
X024234Y006790D01*
X024234Y006560D02*
X024234Y007021D01*
X024523Y007489D02*
X024446Y007566D01*
X024446Y007950D01*
X024676Y007950D01*
X024753Y007873D01*
X024753Y007720D01*
X024676Y007643D01*
X024446Y007643D01*
X024293Y007643D02*
X024293Y008103D01*
X024216Y007950D02*
X024063Y007950D01*
X023986Y007873D01*
X023986Y007643D01*
X023756Y007720D02*
X023756Y008026D01*
X023832Y007950D02*
X023679Y007950D01*
X023756Y007720D02*
X023679Y007643D01*
X024216Y007950D02*
X024293Y007873D01*
X024907Y007643D02*
X025060Y007643D01*
X024983Y007643D02*
X024983Y007950D01*
X025060Y007950D01*
X025214Y007950D02*
X025290Y007950D01*
X025444Y007796D01*
X025444Y007643D02*
X025444Y007950D01*
X025597Y007950D02*
X025597Y007566D01*
X025674Y007489D01*
X025751Y007489D01*
X025827Y007643D02*
X025597Y007643D01*
X025827Y007643D02*
X025904Y007720D01*
X025904Y007950D01*
X026058Y007873D02*
X026058Y007720D01*
X026134Y007643D01*
X026365Y007643D01*
X026365Y007489D02*
X026365Y007950D01*
X026134Y007950D01*
X026058Y007873D01*
X026518Y007873D02*
X026518Y007720D01*
X026595Y007643D01*
X026748Y007643D01*
X026825Y007720D01*
X026825Y007873D01*
X026748Y007950D01*
X026595Y007950D01*
X026518Y007873D01*
X026978Y007720D02*
X027055Y007643D01*
X027209Y007643D01*
X027285Y007720D01*
X027285Y008026D01*
X027209Y008103D01*
X027055Y008103D01*
X026978Y008026D01*
X024983Y008103D02*
X024983Y008180D01*
X024600Y007489D02*
X024523Y007489D01*
X023065Y007720D02*
X022988Y007643D01*
X022758Y007643D01*
X022758Y007950D02*
X022988Y007950D01*
X023065Y007873D01*
X023065Y007720D01*
X019411Y007796D02*
X019411Y008103D01*
X014569Y011318D02*
X014416Y011318D01*
X014262Y011318D02*
X014262Y011164D01*
X014185Y011088D01*
X014032Y011088D01*
X013955Y011164D01*
X013955Y011318D01*
X014032Y011395D01*
X014185Y011395D01*
X014262Y011318D01*
X013802Y011395D02*
X013802Y011088D01*
X013802Y011241D02*
X013648Y011395D01*
X013572Y011395D01*
X013418Y011395D02*
X013341Y011395D01*
X013265Y011318D01*
X013188Y011395D01*
X013111Y011318D01*
X013111Y011088D01*
X013265Y011088D02*
X013265Y011318D01*
X013418Y011395D02*
X013418Y011088D01*
X008575Y003887D02*
X008421Y003887D01*
X008344Y003810D01*
X008344Y003733D01*
X008651Y003426D01*
X008344Y003426D01*
X008651Y003810D02*
X008575Y003887D01*
X008498Y002363D02*
X008498Y001903D01*
X008651Y001903D02*
X008344Y001903D01*
X008651Y002210D02*
X008498Y002363D01*
X027144Y002235D02*
X027144Y002158D01*
X027220Y002082D01*
X027144Y002005D01*
X027144Y001928D01*
X027220Y001851D01*
X027374Y001851D01*
X027450Y001928D01*
X027604Y001928D02*
X027681Y001851D01*
X027834Y001851D01*
X027911Y001928D01*
X027911Y002005D01*
X027834Y002082D01*
X027681Y002082D01*
X027604Y002005D01*
X027604Y001928D01*
X027681Y002082D02*
X027604Y002158D01*
X027604Y002235D01*
X027681Y002312D01*
X027834Y002312D01*
X027911Y002235D01*
X027911Y002158D01*
X027834Y002082D01*
X027450Y002235D02*
X027374Y002312D01*
X027220Y002312D01*
X027144Y002235D01*
X027220Y002082D02*
X027297Y002082D01*
X027220Y003379D02*
X027220Y003839D01*
X027450Y003609D01*
X027144Y003609D01*
X027604Y003533D02*
X027604Y003456D01*
X027681Y003379D01*
X027834Y003379D01*
X027911Y003456D01*
X027911Y003533D01*
X027834Y003609D01*
X027681Y003609D01*
X027604Y003533D01*
X027681Y003609D02*
X027604Y003686D01*
X027604Y003763D01*
X027681Y003839D01*
X027834Y003839D01*
X027911Y003763D01*
X027911Y003686D01*
X027834Y003609D01*
D13*
X022561Y007800D02*
X022563Y007836D01*
X022569Y007872D01*
X022579Y007907D01*
X022592Y007941D01*
X022609Y007973D01*
X022629Y008003D01*
X022653Y008030D01*
X022679Y008055D01*
X022708Y008077D01*
X022739Y008096D01*
X022772Y008111D01*
X022806Y008123D01*
X022842Y008131D01*
X022878Y008135D01*
X022914Y008135D01*
X022950Y008131D01*
X022986Y008123D01*
X023020Y008111D01*
X023053Y008096D01*
X023084Y008077D01*
X023113Y008055D01*
X023139Y008030D01*
X023163Y008003D01*
X023183Y007973D01*
X023200Y007941D01*
X023213Y007907D01*
X023223Y007872D01*
X023229Y007836D01*
X023231Y007800D01*
X023229Y007764D01*
X023223Y007728D01*
X023213Y007693D01*
X023200Y007659D01*
X023183Y007627D01*
X023163Y007597D01*
X023139Y007570D01*
X023113Y007545D01*
X023084Y007523D01*
X023053Y007504D01*
X023020Y007489D01*
X022986Y007477D01*
X022950Y007469D01*
X022914Y007465D01*
X022878Y007465D01*
X022842Y007469D01*
X022806Y007477D01*
X022772Y007489D01*
X022739Y007504D01*
X022708Y007523D01*
X022679Y007545D01*
X022653Y007570D01*
X022629Y007597D01*
X022609Y007627D01*
X022592Y007659D01*
X022579Y007693D01*
X022569Y007728D01*
X022563Y007764D01*
X022561Y007800D01*
D14*
X007620Y004237D03*
X007620Y005339D03*
X028093Y005339D03*
X028093Y004237D03*
M02*
