G75*
G70*
%OFA0B0*%
%FSLAX24Y24*%
%IPPOS*%
%LPD*%
%AMOC8*
5,1,8,0,0,1.08239X$1,22.5*
%
%ADD10C,0.1339*%
%ADD11C,0.0591*%
%ADD12R,0.0158X0.0355*%
%ADD13R,0.2245X0.2245*%
%ADD14R,0.0316X0.0158*%
%ADD15R,0.0394X0.0316*%
%ADD16R,0.0316X0.0394*%
%ADD17R,0.0750X0.0670*%
%ADD18R,0.0552X0.0631*%
%ADD19R,0.0631X0.0552*%
%ADD20R,0.0512X0.0178*%
%ADD21R,0.0197X0.0473*%
%ADD22R,0.0473X0.0197*%
%ADD23R,0.0552X0.0670*%
%ADD24C,0.0721*%
%ADD25R,0.0965X0.0788*%
%ADD26R,0.0631X0.1379*%
%ADD27R,0.0788X0.0965*%
%ADD28R,0.1379X0.0631*%
%ADD29C,0.0434*%
%ADD30R,0.0276X0.0906*%
%ADD31R,0.0434X0.0473*%
D10*
X002149Y002149D03*
X002149Y017897D03*
X033645Y017897D03*
X033645Y002149D03*
D11*
X026637Y002936D03*
X009156Y002936D03*
D12*
G36*
X016612Y007915D02*
X016724Y007803D01*
X016474Y007553D01*
X016362Y007665D01*
X016612Y007915D01*
G37*
G36*
X016473Y008054D02*
X016585Y007942D01*
X016335Y007692D01*
X016223Y007804D01*
X016473Y008054D01*
G37*
G36*
X016334Y008194D02*
X016446Y008082D01*
X016196Y007832D01*
X016084Y007944D01*
X016334Y008194D01*
G37*
G36*
X016195Y008333D02*
X016307Y008221D01*
X016057Y007971D01*
X015945Y008083D01*
X016195Y008333D01*
G37*
G36*
X016055Y008472D02*
X016167Y008360D01*
X015917Y008110D01*
X015805Y008222D01*
X016055Y008472D01*
G37*
G36*
X015916Y008611D02*
X016028Y008499D01*
X015778Y008249D01*
X015666Y008361D01*
X015916Y008611D01*
G37*
G36*
X015777Y008750D02*
X015889Y008638D01*
X015639Y008388D01*
X015527Y008500D01*
X015777Y008750D01*
G37*
G36*
X015638Y008890D02*
X015750Y008778D01*
X015500Y008528D01*
X015388Y008640D01*
X015638Y008890D01*
G37*
G36*
X015499Y009029D02*
X015611Y008917D01*
X015361Y008667D01*
X015249Y008779D01*
X015499Y009029D01*
G37*
G36*
X015359Y009168D02*
X015471Y009056D01*
X015221Y008806D01*
X015109Y008918D01*
X015359Y009168D01*
G37*
G36*
X015471Y009336D02*
X015359Y009224D01*
X015109Y009474D01*
X015221Y009586D01*
X015471Y009336D01*
G37*
G36*
X015611Y009475D02*
X015499Y009363D01*
X015249Y009613D01*
X015361Y009725D01*
X015611Y009475D01*
G37*
G36*
X015750Y009614D02*
X015638Y009502D01*
X015388Y009752D01*
X015500Y009864D01*
X015750Y009614D01*
G37*
G36*
X015889Y009753D02*
X015777Y009641D01*
X015527Y009891D01*
X015639Y010003D01*
X015889Y009753D01*
G37*
G36*
X016028Y009892D02*
X015916Y009780D01*
X015666Y010030D01*
X015778Y010142D01*
X016028Y009892D01*
G37*
G36*
X016167Y010032D02*
X016055Y009920D01*
X015805Y010170D01*
X015917Y010282D01*
X016167Y010032D01*
G37*
G36*
X016307Y010171D02*
X016195Y010059D01*
X015945Y010309D01*
X016057Y010421D01*
X016307Y010171D01*
G37*
G36*
X016446Y010310D02*
X016334Y010198D01*
X016084Y010448D01*
X016196Y010560D01*
X016446Y010310D01*
G37*
G36*
X016585Y010449D02*
X016473Y010337D01*
X016223Y010587D01*
X016335Y010699D01*
X016585Y010449D01*
G37*
G36*
X016724Y010588D02*
X016612Y010476D01*
X016362Y010726D01*
X016474Y010838D01*
X016724Y010588D01*
G37*
G36*
X016863Y010727D02*
X016751Y010615D01*
X016501Y010865D01*
X016613Y010977D01*
X016863Y010727D01*
G37*
G36*
X017003Y010867D02*
X016891Y010755D01*
X016641Y011005D01*
X016753Y011117D01*
X017003Y010867D01*
G37*
G36*
X017170Y010755D02*
X017058Y010867D01*
X017308Y011117D01*
X017420Y011005D01*
X017170Y010755D01*
G37*
G36*
X017309Y010615D02*
X017197Y010727D01*
X017447Y010977D01*
X017559Y010865D01*
X017309Y010615D01*
G37*
G36*
X017449Y010476D02*
X017337Y010588D01*
X017587Y010838D01*
X017699Y010726D01*
X017449Y010476D01*
G37*
G36*
X017588Y010337D02*
X017476Y010449D01*
X017726Y010699D01*
X017838Y010587D01*
X017588Y010337D01*
G37*
G36*
X017727Y010198D02*
X017615Y010310D01*
X017865Y010560D01*
X017977Y010448D01*
X017727Y010198D01*
G37*
G36*
X017866Y010059D02*
X017754Y010171D01*
X018004Y010421D01*
X018116Y010309D01*
X017866Y010059D01*
G37*
G36*
X018005Y009920D02*
X017893Y010032D01*
X018143Y010282D01*
X018255Y010170D01*
X018005Y009920D01*
G37*
G36*
X018145Y009780D02*
X018033Y009892D01*
X018283Y010142D01*
X018395Y010030D01*
X018145Y009780D01*
G37*
G36*
X018284Y009641D02*
X018172Y009753D01*
X018422Y010003D01*
X018534Y009891D01*
X018284Y009641D01*
G37*
G36*
X018423Y009502D02*
X018311Y009614D01*
X018561Y009864D01*
X018673Y009752D01*
X018423Y009502D01*
G37*
G36*
X018562Y009363D02*
X018450Y009475D01*
X018700Y009725D01*
X018812Y009613D01*
X018562Y009363D01*
G37*
G36*
X018701Y009224D02*
X018589Y009336D01*
X018839Y009586D01*
X018951Y009474D01*
X018701Y009224D01*
G37*
G36*
X018589Y009056D02*
X018701Y009168D01*
X018951Y008918D01*
X018839Y008806D01*
X018589Y009056D01*
G37*
G36*
X018450Y008917D02*
X018562Y009029D01*
X018812Y008779D01*
X018700Y008667D01*
X018450Y008917D01*
G37*
G36*
X018311Y008778D02*
X018423Y008890D01*
X018673Y008640D01*
X018561Y008528D01*
X018311Y008778D01*
G37*
G36*
X018172Y008638D02*
X018284Y008750D01*
X018534Y008500D01*
X018422Y008388D01*
X018172Y008638D01*
G37*
G36*
X018033Y008499D02*
X018145Y008611D01*
X018395Y008361D01*
X018283Y008249D01*
X018033Y008499D01*
G37*
G36*
X017893Y008360D02*
X018005Y008472D01*
X018255Y008222D01*
X018143Y008110D01*
X017893Y008360D01*
G37*
G36*
X017754Y008221D02*
X017866Y008333D01*
X018116Y008083D01*
X018004Y007971D01*
X017754Y008221D01*
G37*
G36*
X017615Y008082D02*
X017727Y008194D01*
X017977Y007944D01*
X017865Y007832D01*
X017615Y008082D01*
G37*
G36*
X017476Y007942D02*
X017588Y008054D01*
X017838Y007804D01*
X017726Y007692D01*
X017476Y007942D01*
G37*
G36*
X017337Y007803D02*
X017449Y007915D01*
X017699Y007665D01*
X017587Y007553D01*
X017337Y007803D01*
G37*
G36*
X017197Y007664D02*
X017309Y007776D01*
X017559Y007526D01*
X017447Y007414D01*
X017197Y007664D01*
G37*
G36*
X017058Y007525D02*
X017170Y007637D01*
X017420Y007387D01*
X017308Y007275D01*
X017058Y007525D01*
G37*
G36*
X016891Y007637D02*
X017003Y007525D01*
X016753Y007275D01*
X016641Y007387D01*
X016891Y007637D01*
G37*
G36*
X016751Y007776D02*
X016863Y007664D01*
X016613Y007414D01*
X016501Y007526D01*
X016751Y007776D01*
G37*
D13*
G36*
X015444Y009196D02*
X017030Y010782D01*
X018616Y009196D01*
X017030Y007610D01*
X015444Y009196D01*
G37*
D14*
G36*
X018109Y011147D02*
X017887Y011369D01*
X017999Y011481D01*
X018221Y011259D01*
X018109Y011147D01*
G37*
G36*
X018290Y011328D02*
X018068Y011550D01*
X018180Y011662D01*
X018402Y011440D01*
X018290Y011328D01*
G37*
G36*
X018471Y011509D02*
X018249Y011731D01*
X018361Y011843D01*
X018583Y011621D01*
X018471Y011509D01*
G37*
G36*
X018109Y011871D02*
X017887Y012093D01*
X017999Y012205D01*
X018221Y011983D01*
X018109Y011871D01*
G37*
G36*
X017928Y011690D02*
X017706Y011912D01*
X017818Y012024D01*
X018040Y011802D01*
X017928Y011690D01*
G37*
G36*
X017747Y011509D02*
X017525Y011731D01*
X017637Y011843D01*
X017859Y011621D01*
X017747Y011509D01*
G37*
G36*
X019448Y010532D02*
X019226Y010754D01*
X019338Y010866D01*
X019560Y010644D01*
X019448Y010532D01*
G37*
G36*
X019267Y010351D02*
X019045Y010573D01*
X019157Y010685D01*
X019379Y010463D01*
X019267Y010351D01*
G37*
G36*
X019086Y010170D02*
X018864Y010392D01*
X018976Y010504D01*
X019198Y010282D01*
X019086Y010170D01*
G37*
G36*
X019448Y009809D02*
X019226Y010031D01*
X019338Y010143D01*
X019560Y009921D01*
X019448Y009809D01*
G37*
G36*
X019629Y009990D02*
X019407Y010212D01*
X019519Y010324D01*
X019741Y010102D01*
X019629Y009990D01*
G37*
G36*
X019810Y010170D02*
X019588Y010392D01*
X019700Y010504D01*
X019922Y010282D01*
X019810Y010170D01*
G37*
D15*
G36*
X019711Y008968D02*
X019433Y009246D01*
X019657Y009470D01*
X019935Y009192D01*
X019711Y008968D01*
G37*
G36*
X020073Y008606D02*
X019795Y008884D01*
X020019Y009108D01*
X020297Y008830D01*
X020073Y008606D01*
G37*
G36*
X019679Y007976D02*
X019401Y008254D01*
X019625Y008478D01*
X019903Y008200D01*
X019679Y007976D01*
G37*
G36*
X019317Y008338D02*
X019039Y008616D01*
X019263Y008840D01*
X019541Y008562D01*
X019317Y008338D01*
G37*
G36*
X018648Y006921D02*
X018370Y007199D01*
X018594Y007423D01*
X018872Y007145D01*
X018648Y006921D01*
G37*
G36*
X019010Y006559D02*
X018732Y006837D01*
X018956Y007061D01*
X019234Y006783D01*
X019010Y006559D01*
G37*
G36*
X018419Y006244D02*
X018141Y006522D01*
X018365Y006746D01*
X018643Y006468D01*
X018419Y006244D01*
G37*
G36*
X018058Y006606D02*
X017780Y006884D01*
X018004Y007108D01*
X018282Y006830D01*
X018058Y006606D01*
G37*
G36*
X015897Y006869D02*
X016175Y007147D01*
X016399Y006923D01*
X016121Y006645D01*
X015897Y006869D01*
G37*
G36*
X015535Y006507D02*
X015813Y006785D01*
X016037Y006561D01*
X015759Y006283D01*
X015535Y006507D01*
G37*
G36*
X015220Y007098D02*
X015498Y007376D01*
X015722Y007152D01*
X015444Y006874D01*
X015220Y007098D01*
G37*
G36*
X014598Y007302D02*
X014876Y007580D01*
X015100Y007356D01*
X014822Y007078D01*
X014598Y007302D01*
G37*
G36*
X014236Y006941D02*
X014514Y007219D01*
X014738Y006995D01*
X014460Y006717D01*
X014236Y006941D01*
G37*
X013861Y007227D03*
X013349Y007227D03*
G36*
X013764Y007885D02*
X014042Y008163D01*
X014266Y007939D01*
X013988Y007661D01*
X013764Y007885D01*
G37*
G36*
X014126Y008247D02*
X014404Y008525D01*
X014628Y008301D01*
X014350Y008023D01*
X014126Y008247D01*
G37*
G36*
X013528Y008673D02*
X013806Y008951D01*
X014030Y008727D01*
X013752Y008449D01*
X013528Y008673D01*
G37*
G36*
X013889Y009035D02*
X014167Y009313D01*
X014391Y009089D01*
X014113Y008811D01*
X013889Y009035D01*
G37*
G36*
X013016Y009342D02*
X013294Y009620D01*
X013518Y009396D01*
X013240Y009118D01*
X013016Y009342D01*
G37*
G36*
X013378Y009704D02*
X013656Y009982D01*
X013880Y009758D01*
X013602Y009480D01*
X013378Y009704D01*
G37*
G36*
X013055Y009972D02*
X013333Y010250D01*
X013557Y010026D01*
X013279Y009748D01*
X013055Y009972D01*
G37*
G36*
X013417Y010334D02*
X013695Y010612D01*
X013919Y010388D01*
X013641Y010110D01*
X013417Y010334D01*
G37*
G36*
X014160Y009716D02*
X013882Y009994D01*
X014106Y010218D01*
X014384Y009940D01*
X014160Y009716D01*
G37*
G36*
X014522Y009354D02*
X014244Y009632D01*
X014468Y009856D01*
X014746Y009578D01*
X014522Y009354D01*
G37*
G36*
X014704Y010447D02*
X014982Y010169D01*
X014758Y009945D01*
X014480Y010223D01*
X014704Y010447D01*
G37*
G36*
X014342Y010809D02*
X014620Y010531D01*
X014396Y010307D01*
X014118Y010585D01*
X014342Y010809D01*
G37*
G36*
X014775Y011281D02*
X015053Y011003D01*
X014829Y010779D01*
X014551Y011057D01*
X014775Y011281D01*
G37*
G36*
X015137Y010919D02*
X015415Y010641D01*
X015191Y010417D01*
X014913Y010695D01*
X015137Y010919D01*
G37*
G36*
X015681Y011714D02*
X015959Y011436D01*
X015735Y011212D01*
X015457Y011490D01*
X015681Y011714D01*
G37*
G36*
X016271Y012226D02*
X016549Y011948D01*
X016325Y011724D01*
X016047Y012002D01*
X016271Y012226D01*
G37*
G36*
X016633Y011864D02*
X016911Y011586D01*
X016687Y011362D01*
X016409Y011640D01*
X016633Y011864D01*
G37*
G36*
X016043Y011352D02*
X016321Y011074D01*
X016097Y010850D01*
X015819Y011128D01*
X016043Y011352D01*
G37*
X012680Y008526D03*
X012168Y008526D03*
G36*
X015582Y007460D02*
X015860Y007738D01*
X016084Y007514D01*
X015806Y007236D01*
X015582Y007460D01*
G37*
G36*
X014834Y005747D02*
X015112Y006025D01*
X015336Y005801D01*
X015058Y005523D01*
X014834Y005747D01*
G37*
G36*
X014472Y005385D02*
X014750Y005663D01*
X014974Y005439D01*
X014696Y005161D01*
X014472Y005385D01*
G37*
X006341Y005101D03*
X005830Y005101D03*
X005160Y005101D03*
X004649Y005101D03*
X004649Y005889D03*
X005160Y005889D03*
X005830Y005889D03*
X006341Y005889D03*
X006341Y006676D03*
X005830Y006676D03*
X005160Y006676D03*
X004649Y006676D03*
X004649Y004117D03*
X005160Y004117D03*
X005830Y004117D03*
X006341Y004117D03*
X026145Y005101D03*
X026656Y005101D03*
X026538Y005574D03*
X027050Y005574D03*
X028192Y005731D03*
X028192Y006125D03*
X028704Y006125D03*
X028704Y005731D03*
X029727Y006400D03*
X030239Y006400D03*
X030318Y005298D03*
X030318Y004904D03*
X030830Y004904D03*
X030830Y005298D03*
X031066Y004078D03*
X030554Y004078D03*
X029885Y004078D03*
X029373Y004078D03*
X030948Y007582D03*
X031460Y007582D03*
X031460Y008172D03*
X030948Y008172D03*
X030239Y009156D03*
X029727Y009156D03*
X029727Y009944D03*
X030239Y009944D03*
X029019Y011125D03*
X029019Y011597D03*
X028507Y011597D03*
X028507Y011125D03*
X029727Y012739D03*
X030239Y012739D03*
X030318Y013881D03*
X029806Y013881D03*
X029137Y013841D03*
X028625Y013841D03*
X028625Y014235D03*
X029137Y014235D03*
X029727Y014944D03*
X030239Y014944D03*
X029019Y016086D03*
X029019Y016558D03*
X028507Y016558D03*
X028507Y016086D03*
X029727Y017700D03*
X030239Y017700D03*
X031066Y017778D03*
X031066Y018172D03*
X031578Y018172D03*
X031578Y017778D03*
X029019Y008211D03*
X029019Y007739D03*
X028507Y007739D03*
X028507Y008211D03*
D16*
X028487Y009215D03*
X028881Y009215D03*
X028881Y009727D03*
X028487Y009727D03*
X030967Y011184D03*
X031361Y011184D03*
X031361Y011696D03*
X030967Y011696D03*
X031322Y012877D03*
X031715Y012877D03*
X031715Y013389D03*
X031322Y013389D03*
X031361Y014963D03*
X031361Y015475D03*
X031361Y016145D03*
X030967Y016145D03*
X030967Y016656D03*
X031361Y016656D03*
X031361Y010515D03*
X031361Y010003D03*
X031715Y006263D03*
X031715Y005751D03*
X031715Y005082D03*
X031715Y004570D03*
X029786Y004845D03*
X029786Y005357D03*
X028841Y004570D03*
X028841Y004058D03*
X027680Y002837D03*
X027680Y002326D03*
X027680Y001637D03*
X027680Y001125D03*
X026086Y004058D03*
X026086Y004570D03*
X021322Y008133D03*
X021322Y008645D03*
X019708Y012129D03*
X019708Y012641D03*
X012188Y012089D03*
X011794Y012089D03*
X011794Y011578D03*
X012188Y011578D03*
X010613Y009294D03*
X010219Y009294D03*
X010219Y008782D03*
X010613Y008782D03*
X008566Y008782D03*
X008172Y008782D03*
X008172Y009294D03*
X008566Y009294D03*
X007188Y003743D03*
X007188Y003231D03*
X007188Y002129D03*
X007188Y001617D03*
D17*
X019097Y012258D03*
X019097Y013378D03*
D18*
X027956Y006873D03*
X028704Y006873D03*
X032404Y012897D03*
X033152Y012897D03*
X031578Y018960D03*
X030830Y018960D03*
G36*
X014398Y006456D02*
X014788Y006846D01*
X015232Y006402D01*
X014842Y006012D01*
X014398Y006456D01*
G37*
G36*
X013869Y005927D02*
X014259Y006317D01*
X014703Y005873D01*
X014313Y005483D01*
X013869Y005927D01*
G37*
D19*
X009589Y008861D03*
X009589Y009609D03*
X007542Y009609D03*
X007542Y008861D03*
X011164Y011656D03*
X011164Y012404D03*
X022050Y008625D03*
X022050Y007877D03*
X027739Y009255D03*
X027739Y010003D03*
D20*
X006647Y003320D03*
X006647Y003064D03*
X006647Y002808D03*
X006647Y002552D03*
X004343Y002552D03*
X004343Y002808D03*
X004343Y003064D03*
X004343Y003320D03*
D21*
X029599Y006893D03*
X029855Y006893D03*
X030111Y006893D03*
X030367Y006893D03*
X030367Y008664D03*
X030111Y008664D03*
X029855Y008664D03*
X029599Y008664D03*
X029599Y010475D03*
X029855Y010475D03*
X030111Y010475D03*
X030367Y010475D03*
X030367Y012247D03*
X030111Y012247D03*
X029855Y012247D03*
X029599Y012247D03*
X029599Y015436D03*
X029855Y015436D03*
X030111Y015436D03*
X030367Y015436D03*
X030367Y017208D03*
X030111Y017208D03*
X029855Y017208D03*
X029599Y017208D03*
D22*
X028349Y004698D03*
X028349Y004442D03*
X028349Y004186D03*
X028349Y003930D03*
X026578Y003930D03*
X026578Y004186D03*
X026578Y004442D03*
X026578Y004698D03*
D23*
X012365Y009235D03*
X011381Y009235D03*
X011381Y010810D03*
X012365Y010810D03*
D24*
X012385Y018763D03*
X023408Y018763D03*
X033645Y014983D03*
X033645Y010023D03*
X033645Y005062D03*
X029708Y002149D03*
D25*
X024343Y017739D03*
X022473Y017739D03*
X022473Y019786D03*
X024343Y019786D03*
D26*
X024511Y018763D03*
X022306Y018763D03*
D27*
X013408Y019698D03*
X011361Y019698D03*
X011361Y017828D03*
X013408Y017828D03*
X032621Y015918D03*
X034668Y015918D03*
X034668Y014048D03*
X032621Y014048D03*
X032621Y010958D03*
X034668Y010958D03*
X034668Y009087D03*
X032621Y009087D03*
X032621Y005997D03*
X034668Y005997D03*
X034668Y004127D03*
X032621Y004127D03*
X030731Y003084D03*
X028684Y003084D03*
X028684Y001213D03*
X030731Y001213D03*
D28*
X029708Y001046D03*
X029708Y003251D03*
X033645Y003960D03*
X033645Y006164D03*
X033645Y008920D03*
X033645Y011125D03*
X033645Y013881D03*
X033645Y016086D03*
X012385Y017660D03*
X012385Y019865D03*
D29*
X000967Y000967D03*
X000967Y019078D03*
X034826Y019078D03*
X034826Y000967D03*
D30*
X012741Y005574D03*
X012241Y005574D03*
X011741Y005574D03*
X011241Y005574D03*
X010576Y005574D03*
X010076Y005574D03*
X009576Y005574D03*
X009076Y005574D03*
X009076Y007621D03*
X009576Y007621D03*
X010076Y007621D03*
X010576Y007621D03*
X011241Y007621D03*
X011741Y007621D03*
X012241Y007621D03*
X012741Y007621D03*
D31*
X014963Y002424D03*
X015633Y002424D03*
X015633Y001637D03*
X014963Y001637D03*
M02*
