G75*
G70*
%OFA0B0*%
%FSLAX24Y24*%
%IPPOS*%
%LPD*%
%AMOC8*
5,1,8,0,0,1.08239X$1,22.5*
%
%ADD10R,0.0118X0.0315*%
%ADD11R,0.1575X0.1575*%
%ADD12R,0.0276X0.0118*%
%ADD13R,0.0354X0.0276*%
%ADD14R,0.0276X0.0354*%
%ADD15R,0.0710X0.0630*%
%ADD16R,0.0512X0.0591*%
%ADD17R,0.0591X0.0512*%
%ADD18R,0.0472X0.0138*%
%ADD19R,0.0157X0.0433*%
%ADD20R,0.0433X0.0157*%
%ADD21R,0.0512X0.0630*%
%ADD22C,0.0681*%
%ADD23R,0.0925X0.0748*%
%ADD24R,0.0591X0.1339*%
%ADD25R,0.0748X0.0925*%
%ADD26R,0.1339X0.0591*%
%ADD27R,0.0236X0.0866*%
%ADD28R,0.0394X0.0433*%
D10*
G36*
X015359Y009139D02*
X015442Y009056D01*
X015221Y008835D01*
X015138Y008918D01*
X015359Y009139D01*
G37*
G36*
X015442Y009336D02*
X015359Y009253D01*
X015138Y009474D01*
X015221Y009557D01*
X015442Y009336D01*
G37*
G36*
X015582Y009475D02*
X015499Y009392D01*
X015278Y009613D01*
X015361Y009696D01*
X015582Y009475D01*
G37*
G36*
X015721Y009614D02*
X015638Y009531D01*
X015417Y009752D01*
X015500Y009835D01*
X015721Y009614D01*
G37*
G36*
X015860Y009753D02*
X015777Y009670D01*
X015556Y009891D01*
X015639Y009974D01*
X015860Y009753D01*
G37*
G36*
X015999Y009892D02*
X015916Y009809D01*
X015695Y010030D01*
X015778Y010113D01*
X015999Y009892D01*
G37*
G36*
X016138Y010032D02*
X016055Y009949D01*
X015834Y010170D01*
X015917Y010253D01*
X016138Y010032D01*
G37*
G36*
X016278Y010171D02*
X016195Y010088D01*
X015974Y010309D01*
X016057Y010392D01*
X016278Y010171D01*
G37*
G36*
X016417Y010310D02*
X016334Y010227D01*
X016113Y010448D01*
X016196Y010531D01*
X016417Y010310D01*
G37*
G36*
X016556Y010449D02*
X016473Y010366D01*
X016252Y010587D01*
X016335Y010670D01*
X016556Y010449D01*
G37*
G36*
X016695Y010588D02*
X016612Y010505D01*
X016391Y010726D01*
X016474Y010809D01*
X016695Y010588D01*
G37*
G36*
X016834Y010727D02*
X016751Y010644D01*
X016530Y010865D01*
X016613Y010948D01*
X016834Y010727D01*
G37*
G36*
X016974Y010867D02*
X016891Y010784D01*
X016670Y011005D01*
X016753Y011088D01*
X016974Y010867D01*
G37*
G36*
X017170Y010784D02*
X017087Y010867D01*
X017308Y011088D01*
X017391Y011005D01*
X017170Y010784D01*
G37*
G36*
X017309Y010644D02*
X017226Y010727D01*
X017447Y010948D01*
X017530Y010865D01*
X017309Y010644D01*
G37*
G36*
X017449Y010505D02*
X017366Y010588D01*
X017587Y010809D01*
X017670Y010726D01*
X017449Y010505D01*
G37*
G36*
X017588Y010366D02*
X017505Y010449D01*
X017726Y010670D01*
X017809Y010587D01*
X017588Y010366D01*
G37*
G36*
X017727Y010227D02*
X017644Y010310D01*
X017865Y010531D01*
X017948Y010448D01*
X017727Y010227D01*
G37*
G36*
X017866Y010088D02*
X017783Y010171D01*
X018004Y010392D01*
X018087Y010309D01*
X017866Y010088D01*
G37*
G36*
X018005Y009949D02*
X017922Y010032D01*
X018143Y010253D01*
X018226Y010170D01*
X018005Y009949D01*
G37*
G36*
X018145Y009809D02*
X018062Y009892D01*
X018283Y010113D01*
X018366Y010030D01*
X018145Y009809D01*
G37*
G36*
X018284Y009670D02*
X018201Y009753D01*
X018422Y009974D01*
X018505Y009891D01*
X018284Y009670D01*
G37*
G36*
X018423Y009531D02*
X018340Y009614D01*
X018561Y009835D01*
X018644Y009752D01*
X018423Y009531D01*
G37*
G36*
X018562Y009392D02*
X018479Y009475D01*
X018700Y009696D01*
X018783Y009613D01*
X018562Y009392D01*
G37*
G36*
X018701Y009253D02*
X018618Y009336D01*
X018839Y009557D01*
X018922Y009474D01*
X018701Y009253D01*
G37*
G36*
X018618Y009056D02*
X018701Y009139D01*
X018922Y008918D01*
X018839Y008835D01*
X018618Y009056D01*
G37*
G36*
X018479Y008917D02*
X018562Y009000D01*
X018783Y008779D01*
X018700Y008696D01*
X018479Y008917D01*
G37*
G36*
X018340Y008778D02*
X018423Y008861D01*
X018644Y008640D01*
X018561Y008557D01*
X018340Y008778D01*
G37*
G36*
X018201Y008638D02*
X018284Y008721D01*
X018505Y008500D01*
X018422Y008417D01*
X018201Y008638D01*
G37*
G36*
X018062Y008499D02*
X018145Y008582D01*
X018366Y008361D01*
X018283Y008278D01*
X018062Y008499D01*
G37*
G36*
X017922Y008360D02*
X018005Y008443D01*
X018226Y008222D01*
X018143Y008139D01*
X017922Y008360D01*
G37*
G36*
X017783Y008221D02*
X017866Y008304D01*
X018087Y008083D01*
X018004Y008000D01*
X017783Y008221D01*
G37*
G36*
X017644Y008082D02*
X017727Y008165D01*
X017948Y007944D01*
X017865Y007861D01*
X017644Y008082D01*
G37*
G36*
X017505Y007942D02*
X017588Y008025D01*
X017809Y007804D01*
X017726Y007721D01*
X017505Y007942D01*
G37*
G36*
X017366Y007803D02*
X017449Y007886D01*
X017670Y007665D01*
X017587Y007582D01*
X017366Y007803D01*
G37*
G36*
X017226Y007664D02*
X017309Y007747D01*
X017530Y007526D01*
X017447Y007443D01*
X017226Y007664D01*
G37*
G36*
X017087Y007525D02*
X017170Y007608D01*
X017391Y007387D01*
X017308Y007304D01*
X017087Y007525D01*
G37*
G36*
X016891Y007608D02*
X016974Y007525D01*
X016753Y007304D01*
X016670Y007387D01*
X016891Y007608D01*
G37*
G36*
X016751Y007747D02*
X016834Y007664D01*
X016613Y007443D01*
X016530Y007526D01*
X016751Y007747D01*
G37*
G36*
X016612Y007886D02*
X016695Y007803D01*
X016474Y007582D01*
X016391Y007665D01*
X016612Y007886D01*
G37*
G36*
X016473Y008025D02*
X016556Y007942D01*
X016335Y007721D01*
X016252Y007804D01*
X016473Y008025D01*
G37*
G36*
X016334Y008165D02*
X016417Y008082D01*
X016196Y007861D01*
X016113Y007944D01*
X016334Y008165D01*
G37*
G36*
X016195Y008304D02*
X016278Y008221D01*
X016057Y008000D01*
X015974Y008083D01*
X016195Y008304D01*
G37*
G36*
X016055Y008443D02*
X016138Y008360D01*
X015917Y008139D01*
X015834Y008222D01*
X016055Y008443D01*
G37*
G36*
X015916Y008582D02*
X015999Y008499D01*
X015778Y008278D01*
X015695Y008361D01*
X015916Y008582D01*
G37*
G36*
X015777Y008721D02*
X015860Y008638D01*
X015639Y008417D01*
X015556Y008500D01*
X015777Y008721D01*
G37*
G36*
X015638Y008861D02*
X015721Y008778D01*
X015500Y008557D01*
X015417Y008640D01*
X015638Y008861D01*
G37*
G36*
X015499Y009000D02*
X015582Y008917D01*
X015361Y008696D01*
X015278Y008779D01*
X015499Y009000D01*
G37*
D11*
G36*
X015918Y009196D02*
X017030Y010308D01*
X018142Y009196D01*
X017030Y008084D01*
X015918Y009196D01*
G37*
D12*
G36*
X018109Y011175D02*
X017915Y011369D01*
X017999Y011453D01*
X018193Y011259D01*
X018109Y011175D01*
G37*
G36*
X018290Y011356D02*
X018096Y011550D01*
X018180Y011634D01*
X018374Y011440D01*
X018290Y011356D01*
G37*
G36*
X018471Y011537D02*
X018277Y011731D01*
X018361Y011815D01*
X018555Y011621D01*
X018471Y011537D01*
G37*
G36*
X018109Y011899D02*
X017915Y012093D01*
X017999Y012177D01*
X018193Y011983D01*
X018109Y011899D01*
G37*
G36*
X017928Y011718D02*
X017734Y011912D01*
X017818Y011996D01*
X018012Y011802D01*
X017928Y011718D01*
G37*
G36*
X017747Y011537D02*
X017553Y011731D01*
X017637Y011815D01*
X017831Y011621D01*
X017747Y011537D01*
G37*
G36*
X019448Y010560D02*
X019254Y010754D01*
X019338Y010838D01*
X019532Y010644D01*
X019448Y010560D01*
G37*
G36*
X019267Y010379D02*
X019073Y010573D01*
X019157Y010657D01*
X019351Y010463D01*
X019267Y010379D01*
G37*
G36*
X019086Y010198D02*
X018892Y010392D01*
X018976Y010476D01*
X019170Y010282D01*
X019086Y010198D01*
G37*
G36*
X019448Y009837D02*
X019254Y010031D01*
X019338Y010115D01*
X019532Y009921D01*
X019448Y009837D01*
G37*
G36*
X019629Y010018D02*
X019435Y010212D01*
X019519Y010296D01*
X019713Y010102D01*
X019629Y010018D01*
G37*
G36*
X019810Y010198D02*
X019616Y010392D01*
X019700Y010476D01*
X019894Y010282D01*
X019810Y010198D01*
G37*
D13*
G36*
X019711Y008997D02*
X019462Y009246D01*
X019657Y009441D01*
X019906Y009192D01*
X019711Y008997D01*
G37*
G36*
X020073Y008635D02*
X019824Y008884D01*
X020019Y009079D01*
X020268Y008830D01*
X020073Y008635D01*
G37*
G36*
X019679Y008005D02*
X019430Y008254D01*
X019625Y008449D01*
X019874Y008200D01*
X019679Y008005D01*
G37*
G36*
X019317Y008367D02*
X019068Y008616D01*
X019263Y008811D01*
X019512Y008562D01*
X019317Y008367D01*
G37*
G36*
X018648Y006950D02*
X018399Y007199D01*
X018594Y007394D01*
X018843Y007145D01*
X018648Y006950D01*
G37*
G36*
X019010Y006588D02*
X018761Y006837D01*
X018956Y007032D01*
X019205Y006783D01*
X019010Y006588D01*
G37*
G36*
X018419Y006273D02*
X018170Y006522D01*
X018365Y006717D01*
X018614Y006468D01*
X018419Y006273D01*
G37*
G36*
X018058Y006635D02*
X017809Y006884D01*
X018004Y007079D01*
X018253Y006830D01*
X018058Y006635D01*
G37*
G36*
X015926Y006869D02*
X016175Y007118D01*
X016370Y006923D01*
X016121Y006674D01*
X015926Y006869D01*
G37*
G36*
X015564Y006507D02*
X015813Y006756D01*
X016008Y006561D01*
X015759Y006312D01*
X015564Y006507D01*
G37*
G36*
X015249Y007098D02*
X015498Y007347D01*
X015693Y007152D01*
X015444Y006903D01*
X015249Y007098D01*
G37*
G36*
X014627Y007302D02*
X014876Y007551D01*
X015071Y007356D01*
X014822Y007107D01*
X014627Y007302D01*
G37*
G36*
X014265Y006941D02*
X014514Y007190D01*
X014709Y006995D01*
X014460Y006746D01*
X014265Y006941D01*
G37*
X013861Y007227D03*
X013349Y007227D03*
G36*
X013793Y007885D02*
X014042Y008134D01*
X014237Y007939D01*
X013988Y007690D01*
X013793Y007885D01*
G37*
G36*
X014155Y008247D02*
X014404Y008496D01*
X014599Y008301D01*
X014350Y008052D01*
X014155Y008247D01*
G37*
G36*
X013557Y008673D02*
X013806Y008922D01*
X014001Y008727D01*
X013752Y008478D01*
X013557Y008673D01*
G37*
G36*
X013918Y009035D02*
X014167Y009284D01*
X014362Y009089D01*
X014113Y008840D01*
X013918Y009035D01*
G37*
G36*
X013045Y009342D02*
X013294Y009591D01*
X013489Y009396D01*
X013240Y009147D01*
X013045Y009342D01*
G37*
G36*
X013407Y009704D02*
X013656Y009953D01*
X013851Y009758D01*
X013602Y009509D01*
X013407Y009704D01*
G37*
G36*
X013084Y009972D02*
X013333Y010221D01*
X013528Y010026D01*
X013279Y009777D01*
X013084Y009972D01*
G37*
G36*
X013446Y010334D02*
X013695Y010583D01*
X013890Y010388D01*
X013641Y010139D01*
X013446Y010334D01*
G37*
G36*
X014160Y009745D02*
X013911Y009994D01*
X014106Y010189D01*
X014355Y009940D01*
X014160Y009745D01*
G37*
G36*
X014522Y009383D02*
X014273Y009632D01*
X014468Y009827D01*
X014717Y009578D01*
X014522Y009383D01*
G37*
G36*
X014704Y010418D02*
X014953Y010169D01*
X014758Y009974D01*
X014509Y010223D01*
X014704Y010418D01*
G37*
G36*
X014342Y010780D02*
X014591Y010531D01*
X014396Y010336D01*
X014147Y010585D01*
X014342Y010780D01*
G37*
G36*
X014775Y011252D02*
X015024Y011003D01*
X014829Y010808D01*
X014580Y011057D01*
X014775Y011252D01*
G37*
G36*
X015137Y010890D02*
X015386Y010641D01*
X015191Y010446D01*
X014942Y010695D01*
X015137Y010890D01*
G37*
G36*
X015681Y011685D02*
X015930Y011436D01*
X015735Y011241D01*
X015486Y011490D01*
X015681Y011685D01*
G37*
G36*
X016271Y012197D02*
X016520Y011948D01*
X016325Y011753D01*
X016076Y012002D01*
X016271Y012197D01*
G37*
G36*
X016633Y011835D02*
X016882Y011586D01*
X016687Y011391D01*
X016438Y011640D01*
X016633Y011835D01*
G37*
G36*
X016043Y011323D02*
X016292Y011074D01*
X016097Y010879D01*
X015848Y011128D01*
X016043Y011323D01*
G37*
X012680Y008526D03*
X012168Y008526D03*
G36*
X015611Y007460D02*
X015860Y007709D01*
X016055Y007514D01*
X015806Y007265D01*
X015611Y007460D01*
G37*
G36*
X014863Y005747D02*
X015112Y005996D01*
X015307Y005801D01*
X015058Y005552D01*
X014863Y005747D01*
G37*
G36*
X014501Y005385D02*
X014750Y005634D01*
X014945Y005439D01*
X014696Y005190D01*
X014501Y005385D01*
G37*
X006341Y005101D03*
X005830Y005101D03*
X005160Y005101D03*
X004649Y005101D03*
X004649Y005889D03*
X005160Y005889D03*
X005830Y005889D03*
X006341Y005889D03*
X006341Y006676D03*
X005830Y006676D03*
X005160Y006676D03*
X004649Y006676D03*
X004649Y004117D03*
X005160Y004117D03*
X005830Y004117D03*
X006341Y004117D03*
X026145Y005101D03*
X026656Y005101D03*
X026538Y005574D03*
X027050Y005574D03*
X028192Y005731D03*
X028192Y006125D03*
X028704Y006125D03*
X028704Y005731D03*
X029727Y006400D03*
X030239Y006400D03*
X030318Y005298D03*
X030318Y004904D03*
X030830Y004904D03*
X030830Y005298D03*
X031066Y004078D03*
X030554Y004078D03*
X029885Y004078D03*
X029373Y004078D03*
X030948Y007582D03*
X031460Y007582D03*
X031460Y008172D03*
X030948Y008172D03*
X030239Y009156D03*
X029727Y009156D03*
X029727Y009944D03*
X030239Y009944D03*
X029019Y011125D03*
X029019Y011597D03*
X028507Y011597D03*
X028507Y011125D03*
X029727Y012739D03*
X030239Y012739D03*
X030318Y013881D03*
X029806Y013881D03*
X029137Y013841D03*
X028625Y013841D03*
X028625Y014235D03*
X029137Y014235D03*
X029727Y014944D03*
X030239Y014944D03*
X029019Y016086D03*
X029019Y016558D03*
X028507Y016558D03*
X028507Y016086D03*
X029727Y017700D03*
X030239Y017700D03*
X031066Y017778D03*
X031066Y018172D03*
X031578Y018172D03*
X031578Y017778D03*
X029019Y008211D03*
X029019Y007739D03*
X028507Y007739D03*
X028507Y008211D03*
D14*
X028487Y009215D03*
X028881Y009215D03*
X028881Y009727D03*
X028487Y009727D03*
X030967Y011184D03*
X031361Y011184D03*
X031361Y011696D03*
X030967Y011696D03*
X031322Y012877D03*
X031715Y012877D03*
X031715Y013389D03*
X031322Y013389D03*
X031361Y014963D03*
X031361Y015475D03*
X031361Y016145D03*
X030967Y016145D03*
X030967Y016656D03*
X031361Y016656D03*
X031361Y010515D03*
X031361Y010003D03*
X031715Y006263D03*
X031715Y005751D03*
X031715Y005082D03*
X031715Y004570D03*
X029786Y004845D03*
X029786Y005357D03*
X028841Y004570D03*
X028841Y004058D03*
X027680Y002837D03*
X027680Y002326D03*
X027680Y001637D03*
X027680Y001125D03*
X026086Y004058D03*
X026086Y004570D03*
X021322Y008133D03*
X021322Y008645D03*
X019708Y012129D03*
X019708Y012641D03*
X012188Y012089D03*
X011794Y012089D03*
X011794Y011578D03*
X012188Y011578D03*
X010613Y009294D03*
X010219Y009294D03*
X010219Y008782D03*
X010613Y008782D03*
X008566Y008782D03*
X008172Y008782D03*
X008172Y009294D03*
X008566Y009294D03*
X007188Y003743D03*
X007188Y003231D03*
X007188Y002129D03*
X007188Y001617D03*
D15*
X019097Y012258D03*
X019097Y013378D03*
D16*
X027956Y006873D03*
X028704Y006873D03*
X032404Y012897D03*
X033152Y012897D03*
X031578Y018960D03*
X030830Y018960D03*
G36*
X014426Y006456D02*
X014788Y006818D01*
X015204Y006402D01*
X014842Y006040D01*
X014426Y006456D01*
G37*
G36*
X013897Y005927D02*
X014259Y006289D01*
X014675Y005873D01*
X014313Y005511D01*
X013897Y005927D01*
G37*
D17*
X009589Y008861D03*
X009589Y009609D03*
X007542Y009609D03*
X007542Y008861D03*
X011164Y011656D03*
X011164Y012404D03*
X022050Y008625D03*
X022050Y007877D03*
X027739Y009255D03*
X027739Y010003D03*
D18*
X004343Y002552D03*
X004343Y002808D03*
X004343Y003064D03*
X004343Y003320D03*
X006647Y003320D03*
X006647Y003064D03*
X006647Y002808D03*
X006647Y002552D03*
D19*
X029599Y006893D03*
X029855Y006893D03*
X030111Y006893D03*
X030367Y006893D03*
X030367Y008664D03*
X030111Y008664D03*
X029855Y008664D03*
X029599Y008664D03*
X029599Y010475D03*
X029855Y010475D03*
X030111Y010475D03*
X030367Y010475D03*
X030367Y012247D03*
X030111Y012247D03*
X029855Y012247D03*
X029599Y012247D03*
X029599Y015436D03*
X029855Y015436D03*
X030111Y015436D03*
X030367Y015436D03*
X030367Y017208D03*
X030111Y017208D03*
X029855Y017208D03*
X029599Y017208D03*
D20*
X028349Y004698D03*
X028349Y004442D03*
X028349Y004186D03*
X028349Y003930D03*
X026578Y003930D03*
X026578Y004186D03*
X026578Y004442D03*
X026578Y004698D03*
D21*
X012365Y009235D03*
X011381Y009235D03*
X011381Y010810D03*
X012365Y010810D03*
D22*
X012385Y018763D03*
X023408Y018763D03*
X033645Y014983D03*
X033645Y010023D03*
X033645Y005062D03*
X029708Y002149D03*
D23*
X024343Y017739D03*
X022473Y017739D03*
X022473Y019786D03*
X024343Y019786D03*
D24*
X024511Y018763D03*
X022306Y018763D03*
D25*
X013408Y019698D03*
X011361Y019698D03*
X011361Y017828D03*
X013408Y017828D03*
X032621Y015918D03*
X034668Y015918D03*
X034668Y014048D03*
X032621Y014048D03*
X032621Y010958D03*
X034668Y010958D03*
X034668Y009087D03*
X032621Y009087D03*
X032621Y005997D03*
X034668Y005997D03*
X034668Y004127D03*
X032621Y004127D03*
X030731Y003084D03*
X028684Y003084D03*
X028684Y001213D03*
X030731Y001213D03*
D26*
X029708Y001046D03*
X029708Y003251D03*
X033645Y003960D03*
X033645Y006164D03*
X033645Y008920D03*
X033645Y011125D03*
X033645Y013881D03*
X033645Y016086D03*
X012385Y017660D03*
X012385Y019865D03*
D27*
X012241Y007621D03*
X011741Y007621D03*
X011241Y007621D03*
X010576Y007621D03*
X010076Y007621D03*
X009576Y007621D03*
X009076Y007621D03*
X009076Y005574D03*
X009576Y005574D03*
X010076Y005574D03*
X010576Y005574D03*
X011241Y005574D03*
X011741Y005574D03*
X012241Y005574D03*
X012741Y005574D03*
X012741Y007621D03*
D28*
X014963Y002424D03*
X015633Y002424D03*
X015633Y001637D03*
X014963Y001637D03*
M02*
