%
M48
M72
T01C0.0100
T02C0.0197
T03C0.0551
T04C0.1299
%
T01
X4225Y1331
X5268Y1134
X5603Y1922
X4815Y2532
X4855Y2847
X4264Y2099
X3792Y2532
X4225Y4087
X4225Y5071
X4225Y5859
X4225Y6646
X2847Y6449
X1666Y6449
X937Y6056
X2453Y5071
X1922Y4874
X1272Y4087
X6272Y3575
X6764Y3615
X6764Y3851
X6764Y4087
X7965Y3496
X9441Y3654
X10268Y2985
X10583Y3024
X10583Y2788
X11056Y2945
X11489Y2867
X11961Y2788
X12355Y2945
X12748Y2788
X13142Y3024
X13536Y2867
X13930Y3063
X14323Y2906
X14717Y2788
X15229Y2807
X15544Y2768
X15898Y2768
X16528Y2965
X16961Y2807
X17670Y2926
X18575Y3004
X19087Y2886
X19363Y3024
X20229Y2945
X20780Y2807
X21331Y2886
X21804Y3044
X22197Y2926
X22985Y3044
X23693Y2886
X24166Y2807
X24481Y2965
X25544Y3024
X25544Y2788
X26351Y2059
X25957Y1390
X25544Y1449
X25544Y1213
X24835Y1469
X24166Y1193
X23496Y1430
X22985Y1548
X22433Y1469
X21764Y1548
X21174Y1469
X20898Y1469
X20150Y1449
X19756Y1292
X19126Y1469
X18693Y1469
X18044Y1331
X17689Y1449
X17276Y1449
X16725Y1548
X16115Y1567
X16115Y1252
X15563Y1567
X15170Y1528
X14835Y937
X14638Y819
X14835Y701
X14323Y898
X14205Y1134
X14126Y1528
X13733Y1528
X13339Y1528
X12945Y1528
X12552Y1528
X12158Y1528
X11764Y1528
X11331Y1449
X10819Y1528
X10583Y1528
X10347Y1528
X9894Y1469
X9500Y1469
X9126Y1134
X9008Y898
X7768Y1331
X6764Y1725
X9422Y2020
X9973Y2847
X10937Y4402
X12158Y4284
X13260Y4717
X13418Y4559
X13654Y4638
X13851Y4441
X14048Y4599
X14244Y4284
X14441Y4441
X14638Y4599
X14835Y4441
X15032Y4284
X15327Y4402
X15701Y4284
X16095Y4284
X16882Y4284
X17276Y4284
X17119Y4835
X18063Y4284
X18457Y4284
X18556Y4599
X19244Y4284
X19638Y4284
X20209Y4697
X20426Y4284
X20819Y4284
X21607Y4284
X22000Y4284
X21666Y4717
X20957Y5268
X20642Y4953
X19953Y5583
X19796Y5741
X19638Y5898
X19559Y5662
X19717Y5504
X18949Y5504
X18398Y6056
X18122Y6056
X17670Y6685
X17591Y6882
X17906Y7276
X18103Y7158
X18339Y7709
X18615Y7709
X18890Y7709
X19166Y7709
X19619Y7630
X20189Y7985
X20386Y8103
X20189Y8221
X20386Y8339
X19953Y8339
X19835Y8575
X19559Y8733
X19402Y8890
X19244Y9087
X19166Y9559
X19126Y9835
X18733Y9835
X17945Y9520
X17552Y9441
X17158Y9717
X17552Y9953
X17158Y10347
X16764Y10307
X16370Y9914
X15977Y9481
X15741Y9205
X15977Y8890
X16370Y8457
X16764Y8457
X17158Y7945
X17552Y8339
X17945Y8811
X17552Y9008
X17158Y9048
X16764Y9126
X16370Y9323
X15426Y10032
X15268Y9874
X15111Y9717
X14559Y9914
X15111Y10268
X14835Y10465
X15544Y10662
X15741Y10859
X15347Y10859
X15229Y11016
X15071Y11252
X14835Y11410
X14441Y11331
X14008Y10780
X14048Y10307
X13752Y9343
X13477Y9067
X13280Y8831
X13615Y8103
X13870Y8280
X14126Y8575
X14284Y8733
X14481Y8654
X14835Y8713
X15111Y8674
X14756Y8260
X14205Y7709
X13733Y7552
X14107Y6685
X14264Y6449
X14028Y6252
X13870Y5622
X14067Y5268
X15386Y5111
X15898Y5583
X16174Y5504
X15386Y5898
X15465Y6095
X15937Y6213
X15406Y6607
X15898Y7079
X16410Y7040
X16331Y7433
X15859Y7906
X15721Y7729
X15465Y7473
X17000Y7355
X19028Y8181
X18890Y8654
X18339Y9166
X19796Y9520
X19953Y9363
X19835Y9815
X20819Y10189
X21607Y9993
X22296Y10504
X22788Y11174
X23575Y10780
X24481Y10465
X24481Y9717
X23752Y9717
X22985Y9796
X22788Y9205
X22650Y8536
X22020Y9087
X21272Y9048
X20878Y8575
X20386Y7867
X20622Y7532
X20209Y7040
X19520Y7000
X19402Y7197
X19422Y6646
X20957Y6134
X21863Y6134
X22335Y6607
X22571Y6843
X23044Y6095
X22571Y5622
X22335Y5386
X23044Y4914
X23181Y4284
X22788Y4284
X23969Y4284
X24363Y4284
X23949Y4678
X24796Y5485
X25130Y5839
X24500Y6410
X24028Y5937
X23595Y6646
X25288Y7197
X25563Y7473
X26036Y7926
X25209Y8260
X25485Y8536
X25642Y9126
X25367Y9678
X25839Y10150
X25367Y10347
X25367Y10937
X24461Y11489
X24441Y11941
X23713Y12276
X23181Y12552
X22414Y11961
X21666Y12552
X21981Y12867
X22473Y13359
X21744Y13496
X21272Y12985
X20622Y13142
X20721Y12473
X20386Y12099
X20996Y11882
X20426Y11272
X19835Y11725
X19599Y11725
X19619Y11370
X19225Y11095
X19874Y10721
X18536Y10504
X18300Y10307
X17985Y10583
X18142Y10741
X17552Y11016
X17374Y11272
X17119Y11134
X16902Y11311
X17020Y11587
X16902Y11784
X16685Y12040
X16489Y12119
X15977Y11725
X15741Y11882
X15465Y11843
X16213Y11410
X16292Y11213
X16489Y11056
X16331Y10898
X16174Y10741
X14717Y9363
X14520Y9166
X12237Y8181
X11882Y7709
X12237Y7197
X11685Y6764
X11134Y6646
X10977Y7119
X10150Y7040
X9756Y7394
X9244Y7433
X9087Y7040
X8496Y7079
X7965Y7237
X7040Y7630
X6252Y8221
X6843Y8615
X7630Y9008
X7827Y9599
X8418Y9205
X9205Y9599
X9323Y10229
X9008Y10977
X9619Y11016
X10406Y11607
X10977Y11961
X11764Y11764
X12158Y11370
X12552Y11567
X12768Y12079
X13536Y12079
X12158Y10780
X10977Y11174
X8221Y11961
X7945Y13024
X7453Y13693
X6311Y14599
X5662Y13930
X4343Y13615
X4441Y12788
X5859Y11961
X6292Y12315
X5465Y10977
X5780Y10229
X4481Y9993
X4008Y10229
X3890Y11174
X2906Y11961
X2591Y12552
X1863Y12433
X1134Y12945
X1528Y13733
X2020Y14717
X3241Y15544
X2119Y15898
X1233Y15701
X4284Y14914
X5662Y15701
X6351Y16528
X5859Y17079
X5859Y17867
X5130Y18418
X4284Y17867
X4619Y16725
X4481Y15898
X7630Y16489
X8792Y16961
X9993Y17079
X10209Y18024
X9205Y18063
X8221Y17867
X7217Y17985
X6843Y18851
X7630Y19244
X8792Y19205
X8615Y20032
X8201Y21016
X9205Y21016
X9894Y20229
X10681Y21056
X12158Y20819
X12945Y20819
X12729Y21528
X14126Y20819
X14520Y21410
X15367Y20859
X16685Y21016
X17886Y20859
X16941Y19993
X15898Y19835
X16489Y19048
X15681Y18969
X14914Y19244
X13969Y18890
X14481Y18339
X13969Y17985
X14244Y17630
X14756Y17197
X15032Y16804
X15819Y17040
X16174Y16685
X15780Y16134
X16252Y15701
X16882Y15977
X17197Y15721
X16705Y15150
X17217Y14756
X17453Y14481
X17217Y13969
X17670Y13536
X18260Y13595
X18339Y13103
X19067Y13949
X18260Y14146
X17788Y15130
X18674Y15268
X19441Y15111
X19815Y14441
X20426Y13930
X21430Y14481
X22355Y14107
X22630Y14343
X23142Y14028
X23575Y13536
X24441Y12886
X24796Y13477
X25071Y13752
X25583Y14304
X26213Y14894
X26449Y15130
X26882Y15603
X27512Y16233
X28162Y15603
X28634Y14894
X27532Y14973
X27099Y14520
X26489Y13949
X26174Y13595
X25662Y13083
X25347Y12768
X26331Y12945
X27178Y13398
X27512Y12552
X28418Y12138
X28792Y12138
X27926Y11764
X27119Y11449
X26744Y11095
X27807Y10898
X27138Y10229
X26508Y9540
X26528Y8693
X26784Y7493
X26056Y6764
X27040Y6056
X27591Y6056
X27788Y5859
X28418Y5229
X27788Y4835
X27788Y4638
X26981Y4382
X27788Y3969
X25741Y4717
X25544Y4717
X25347Y4717
X25426Y4244
X25662Y4244
X29225Y5445
X29717Y5780
X30268Y5622
X30996Y5839
X31193Y6823
X29855Y7335
X29225Y6882
X28674Y7355
X29638Y8024
X29481Y8181
X29048Y8615
X28851Y8811
X30268Y8103
X31016Y8772
X31784Y8989
X32571Y8004
X32965Y7020
X34402Y7237
X34933Y8004
X30307Y10977
X30307Y11174
X29638Y10977
X29953Y11764
X30859Y12276
X31056Y12473
X30898Y13319
X30681Y13851
X30032Y13319
X29323Y13457
X28556Y13044
X29815Y14500
X30839Y15248
X30307Y15937
X30307Y16134
X29953Y16725
X29638Y15937
X30898Y17197
X31095Y17394
X29815Y18241
X28477Y18339
X28634Y17256
X26922Y17276
X26902Y18181
X25957Y18851
X25741Y19638
X25544Y20426
X25150Y21213
X24579Y21095
X23772Y21213
X23378Y20819
X22256Y21449
X21607Y21016
X20288Y21016
X21075Y19559
X21016Y18851
X21607Y18260
X20288Y18181
X20032Y18851
X19638Y19441
X18752Y19402
X18654Y18654
X17473Y19244
X17178Y18300
X15701Y18063
X15071Y17827
X13930Y16882
X12355Y15898
X12296Y16370
X12807Y15268
X14067Y15386
X14422Y14678
X15111Y15307
X15760Y14993
X15111Y13930
X14520Y13536
X13595Y14048
X12493Y13496
X11961Y14126
X11351Y15229
X10445Y16174
X9796Y15701
X8713Y15504
X9796Y14914
X10445Y13969
X9796Y13339
X8910Y13930
X2906Y13536
X1351Y11213
X1922Y10583
X2729Y10229
X4284Y9205
X3103Y8615
X2532Y8063
X957Y7670
X937Y8811
X957Y9835
X7552Y10229
X9323Y8339
X9323Y8103
X9323Y7867
X8418Y8221
X10662Y8142
X11134Y8142
X11725Y8733
X10859Y6213
X11095Y5622
X10662Y5307
X11843Y5819
X12197Y5819
X8260Y5347
X7985Y5071
X7178Y5465
X17040Y6016
X17670Y5583
X23595Y7867
X24304Y8615
X24500Y9087
X24619Y7670
X28851Y10189
X26331Y11981
X25327Y11922
X24481Y14343
X23654Y14540
X23063Y14815
X23063Y15445
X23654Y15642
X23693Y15130
X24363Y16095
X24855Y15937
X23693Y16390
X23752Y16725
X23063Y16430
X23063Y17059
X21902Y16410
X22197Y15504
X20898Y15485
X20485Y16410
X19244Y17079
X18457Y17473
X17886Y17197
X21016Y17276
X25347Y18063
X25544Y17079
X26390Y16449
X27315Y19048
X28674Y19678
X29658Y19678
X29264Y20465
X29284Y21213
X28044Y21370
X27178Y20189
X30524Y20622
X31508Y20898
X32807Y21567
X33201Y20662
X34008Y20032
X34619Y20780
X32571Y19815
X31587Y19619
X32138Y18870
X33634Y12886
X34402Y12748
X33359Y11941
X34737Y11744
X31075Y4500
X31784Y3044
X31390Y2335
X31784Y1115
X26863Y1115
X21213Y10977
X19697Y13063
X16685Y13536
X10189Y19048
X7040Y20426
X6036Y19559
X4185Y19520
X3103Y20032
X4087Y20426
X3044Y21134
X2059Y21134
X918Y21528
X1705Y19953
X937Y19835
X5367Y20937
X6823Y21528
T02
X25524Y6233
T03
X26607Y2906
X9126Y2906
T04
X2119Y2119
X2119Y17867
X33615Y17867
X33615Y2119
M30
