%
M48
M72
T01C0.0092
T02C0.0100
T03C0.0236
T04C0.0370
T05C0.0400
T06C0.0551
T07C0.0630
T08C0.0670
T09C0.0800
T10C0.1299
%
T01
X7937Y5968
X11579Y8232
X13055Y7642
X16205Y7642
X19354Y7642
X22504Y7642
X25653Y7642
X23783Y10201
X24768Y10594
X25063Y11382
X26047Y11874
X29098Y10988
X29492Y13153
X23980Y15516
X21618Y15220
X20535Y15516
X18173Y13252
X16795Y13646
X16106Y14728
X16795Y15712
X14728Y16008
X13842Y16008
X9216Y14531
X8134Y14138
X9216Y13449
X7248Y10397
X9610Y8626
X13842Y11775
X18567Y11086
X20732Y12563
X20732Y12957
X20142Y12760
X22405Y10496
X14925Y4590
X13744Y4295
X16894Y4295
X19256Y4295
X22405Y4295
X23980Y4295
X23980Y1539
X22405Y1539
X13744Y1539
X11775Y1539
X4098Y10988
X4098Y11480
X3803Y20240
T02
X2622Y20929
X4984Y20929
X10988Y16008
X12464Y16008
X12858Y15023
X13449Y14433
X14138Y15023
X15614Y16008
X16106Y14334
X16303Y14000
X16303Y12957
X15811Y12858
X16992Y12268
X17976Y12071
X18567Y13449
X20338Y13646
X20634Y13646
X21224Y13646
X21520Y13842
X21815Y13646
X22012Y13153
X22799Y12563
X23783Y12169
X25457Y12169
X25945Y12563
X24866Y13449
X23094Y14039
X22012Y14236
X21224Y14138
X20732Y14728
X20043Y11972
X20437Y11775
X20929Y11480
X21421Y11677
X21027Y11874
X21913Y11480
X23783Y9807
X26441Y11283
X26933Y9807
X27130Y9512
X27327Y9807
X28705Y10988
X29492Y10988
X29492Y12563
X29098Y12563
X28705Y12563
X29492Y6854
X18862Y4590
X18468Y4295
X18075Y4590
X17681Y4295
X17287Y4590
X16500Y4590
X16106Y4295
X15712Y4590
X15319Y4295
X14531Y4295
X14138Y4590
X14236Y6067
X16205Y6067
X16894Y5279
X11579Y7937
X11283Y7051
X11283Y6657
X10299Y6460
X8823Y6657
X7051Y6854
X5279Y8527
X8232Y9118
X8921Y8429
X9807Y9118
X10201Y8823
X11775Y9610
X11874Y10496
X11972Y10791
X10988Y10988
X10988Y10397
X10397Y10397
X10201Y10988
X10201Y12169
X10594Y12169
X10988Y12169
X11972Y11579
X12563Y12169
X12957Y12169
X13153Y12661
X12071Y13055
X11185Y13153
X10004Y13941
X9610Y13449
X8724Y14138
X7543Y12366
X7543Y11972
X7248Y11382
X7543Y11185
X8429Y11972
X9020Y12169
X9807Y12169
X8331Y10201
X8232Y9807
X5870Y11185
X2523Y11972
X949Y11480
X949Y10988
X5378Y14531
X5870Y15122
X11775Y14236
X16894Y10594
X17484Y10791
X18075Y10201
X32445Y20437
X32445Y21421
X34512Y20929
T03
X19453Y13941
X15023Y10397
X16205Y10102
X17386Y8232
X14236Y8232
X20535Y8626
X22307Y8626
X25457Y8232
X8626Y19649
X7445Y19256
X6657Y19649
X7445Y17287
T04
X2523Y12722
X2523Y11222
T05
X2523Y8232
X2523Y7232
X2523Y6232
X4886Y6178
X4886Y7318
T06
X11106Y2917
X24649Y2917
T07
X24374Y6067
X27523Y6067
X27523Y8331
X21224Y6067
X18075Y6067
X14925Y6067
X11775Y6067
X14925Y12760
X9610Y15614
X22799Y18173
X22799Y19543
X26441Y13547
X28508Y13547
T08
X29925Y21027
X24728Y21027
T09
X19846Y19846
X17996Y18665
X19846Y17484
X25476Y17275
X27327Y17275
X29177Y17275
T10
X2130Y2130
X2130Y17878
X33626Y17878
X33626Y2130
M30
