G75*
G70*
%OFA0B0*%
%FSLAX24Y24*%
%IPPOS*%
%LPD*%
%AMOC8*
5,1,8,0,0,1.08239X$1,22.5*
%
%ADD10C,0.0000*%
D10*
X000160Y000160D02*
X035593Y000160D01*
X035593Y003310D01*
X034412Y004491D01*
X034412Y015514D01*
X035593Y016695D01*
X035593Y022207D01*
X000160Y022207D01*
X000160Y000160D01*
X001479Y002129D02*
X001481Y002179D01*
X001487Y002229D01*
X001497Y002279D01*
X001510Y002327D01*
X001527Y002375D01*
X001548Y002421D01*
X001572Y002465D01*
X001600Y002507D01*
X001631Y002547D01*
X001665Y002584D01*
X001702Y002619D01*
X001741Y002650D01*
X001782Y002679D01*
X001826Y002704D01*
X001872Y002726D01*
X001919Y002744D01*
X001967Y002758D01*
X002016Y002769D01*
X002066Y002776D01*
X002116Y002779D01*
X002167Y002778D01*
X002217Y002773D01*
X002267Y002764D01*
X002315Y002752D01*
X002363Y002735D01*
X002409Y002715D01*
X002454Y002692D01*
X002497Y002665D01*
X002537Y002635D01*
X002575Y002602D01*
X002610Y002566D01*
X002643Y002527D01*
X002672Y002486D01*
X002698Y002443D01*
X002721Y002398D01*
X002740Y002351D01*
X002755Y002303D01*
X002767Y002254D01*
X002775Y002204D01*
X002779Y002154D01*
X002779Y002104D01*
X002775Y002054D01*
X002767Y002004D01*
X002755Y001955D01*
X002740Y001907D01*
X002721Y001860D01*
X002698Y001815D01*
X002672Y001772D01*
X002643Y001731D01*
X002610Y001692D01*
X002575Y001656D01*
X002537Y001623D01*
X002497Y001593D01*
X002454Y001566D01*
X002409Y001543D01*
X002363Y001523D01*
X002315Y001506D01*
X002267Y001494D01*
X002217Y001485D01*
X002167Y001480D01*
X002116Y001479D01*
X002066Y001482D01*
X002016Y001489D01*
X001967Y001500D01*
X001919Y001514D01*
X001872Y001532D01*
X001826Y001554D01*
X001782Y001579D01*
X001741Y001608D01*
X001702Y001639D01*
X001665Y001674D01*
X001631Y001711D01*
X001600Y001751D01*
X001572Y001793D01*
X001548Y001837D01*
X001527Y001883D01*
X001510Y001931D01*
X001497Y001979D01*
X001487Y002029D01*
X001481Y002079D01*
X001479Y002129D01*
X001263Y007197D02*
X001265Y007223D01*
X001271Y007249D01*
X001281Y007274D01*
X001294Y007297D01*
X001310Y007317D01*
X001330Y007335D01*
X001352Y007350D01*
X001375Y007362D01*
X001401Y007370D01*
X001427Y007374D01*
X001453Y007374D01*
X001479Y007370D01*
X001505Y007362D01*
X001529Y007350D01*
X001550Y007335D01*
X001570Y007317D01*
X001586Y007297D01*
X001599Y007274D01*
X001609Y007249D01*
X001615Y007223D01*
X001617Y007197D01*
X001615Y007171D01*
X001609Y007145D01*
X001599Y007120D01*
X001586Y007097D01*
X001570Y007077D01*
X001550Y007059D01*
X001528Y007044D01*
X001505Y007032D01*
X001479Y007024D01*
X001453Y007020D01*
X001427Y007020D01*
X001401Y007024D01*
X001375Y007032D01*
X001351Y007044D01*
X001330Y007059D01*
X001310Y007077D01*
X001294Y007097D01*
X001281Y007120D01*
X001271Y007145D01*
X001265Y007171D01*
X001263Y007197D01*
X001263Y008871D02*
X001265Y008897D01*
X001271Y008923D01*
X001281Y008948D01*
X001294Y008971D01*
X001310Y008991D01*
X001330Y009009D01*
X001352Y009024D01*
X001375Y009036D01*
X001401Y009044D01*
X001427Y009048D01*
X001453Y009048D01*
X001479Y009044D01*
X001505Y009036D01*
X001529Y009024D01*
X001550Y009009D01*
X001570Y008991D01*
X001586Y008971D01*
X001599Y008948D01*
X001609Y008923D01*
X001615Y008897D01*
X001617Y008871D01*
X001615Y008845D01*
X001609Y008819D01*
X001599Y008794D01*
X001586Y008771D01*
X001570Y008751D01*
X001550Y008733D01*
X001528Y008718D01*
X001505Y008706D01*
X001479Y008698D01*
X001453Y008694D01*
X001427Y008694D01*
X001401Y008698D01*
X001375Y008706D01*
X001351Y008718D01*
X001330Y008733D01*
X001310Y008751D01*
X001294Y008771D01*
X001281Y008794D01*
X001271Y008819D01*
X001265Y008845D01*
X001263Y008871D01*
X002337Y011615D02*
X002339Y011642D01*
X002345Y011668D01*
X002354Y011694D01*
X002368Y011717D01*
X002384Y011738D01*
X002404Y011757D01*
X002426Y011773D01*
X002450Y011785D01*
X002475Y011794D01*
X002502Y011799D01*
X002529Y011800D01*
X002556Y011797D01*
X002582Y011790D01*
X002607Y011780D01*
X002630Y011765D01*
X002650Y011748D01*
X002668Y011728D01*
X002683Y011706D01*
X002695Y011681D01*
X002703Y011655D01*
X002707Y011629D01*
X002707Y011601D01*
X002703Y011575D01*
X002695Y011549D01*
X002683Y011524D01*
X002668Y011502D01*
X002650Y011482D01*
X002630Y011465D01*
X002607Y011450D01*
X002582Y011440D01*
X002556Y011433D01*
X002529Y011430D01*
X002502Y011431D01*
X002475Y011436D01*
X002450Y011445D01*
X002426Y011457D01*
X002404Y011473D01*
X002384Y011492D01*
X002368Y011513D01*
X002354Y011536D01*
X002345Y011562D01*
X002339Y011588D01*
X002337Y011615D01*
X002337Y013115D02*
X002339Y013142D01*
X002345Y013168D01*
X002354Y013194D01*
X002368Y013217D01*
X002384Y013238D01*
X002404Y013257D01*
X002426Y013273D01*
X002450Y013285D01*
X002475Y013294D01*
X002502Y013299D01*
X002529Y013300D01*
X002556Y013297D01*
X002582Y013290D01*
X002607Y013280D01*
X002630Y013265D01*
X002650Y013248D01*
X002668Y013228D01*
X002683Y013206D01*
X002695Y013181D01*
X002703Y013155D01*
X002707Y013129D01*
X002707Y013101D01*
X002703Y013075D01*
X002695Y013049D01*
X002683Y013024D01*
X002668Y013002D01*
X002650Y012982D01*
X002630Y012965D01*
X002607Y012950D01*
X002582Y012940D01*
X002556Y012933D01*
X002529Y012930D01*
X002502Y012931D01*
X002475Y012936D01*
X002450Y012945D01*
X002426Y012957D01*
X002404Y012973D01*
X002384Y012992D01*
X002368Y013013D01*
X002354Y013036D01*
X002345Y013062D01*
X002339Y013088D01*
X002337Y013115D01*
X001479Y017877D02*
X001481Y017927D01*
X001487Y017977D01*
X001497Y018027D01*
X001510Y018075D01*
X001527Y018123D01*
X001548Y018169D01*
X001572Y018213D01*
X001600Y018255D01*
X001631Y018295D01*
X001665Y018332D01*
X001702Y018367D01*
X001741Y018398D01*
X001782Y018427D01*
X001826Y018452D01*
X001872Y018474D01*
X001919Y018492D01*
X001967Y018506D01*
X002016Y018517D01*
X002066Y018524D01*
X002116Y018527D01*
X002167Y018526D01*
X002217Y018521D01*
X002267Y018512D01*
X002315Y018500D01*
X002363Y018483D01*
X002409Y018463D01*
X002454Y018440D01*
X002497Y018413D01*
X002537Y018383D01*
X002575Y018350D01*
X002610Y018314D01*
X002643Y018275D01*
X002672Y018234D01*
X002698Y018191D01*
X002721Y018146D01*
X002740Y018099D01*
X002755Y018051D01*
X002767Y018002D01*
X002775Y017952D01*
X002779Y017902D01*
X002779Y017852D01*
X002775Y017802D01*
X002767Y017752D01*
X002755Y017703D01*
X002740Y017655D01*
X002721Y017608D01*
X002698Y017563D01*
X002672Y017520D01*
X002643Y017479D01*
X002610Y017440D01*
X002575Y017404D01*
X002537Y017371D01*
X002497Y017341D01*
X002454Y017314D01*
X002409Y017291D01*
X002363Y017271D01*
X002315Y017254D01*
X002267Y017242D01*
X002217Y017233D01*
X002167Y017228D01*
X002116Y017227D01*
X002066Y017230D01*
X002016Y017237D01*
X001967Y017248D01*
X001919Y017262D01*
X001872Y017280D01*
X001826Y017302D01*
X001782Y017327D01*
X001741Y017356D01*
X001702Y017387D01*
X001665Y017422D01*
X001631Y017459D01*
X001600Y017499D01*
X001572Y017541D01*
X001548Y017585D01*
X001527Y017631D01*
X001510Y017679D01*
X001497Y017727D01*
X001487Y017777D01*
X001481Y017827D01*
X001479Y017877D01*
X008860Y002916D02*
X008862Y002949D01*
X008868Y002981D01*
X008877Y003012D01*
X008890Y003042D01*
X008907Y003070D01*
X008927Y003096D01*
X008950Y003120D01*
X008975Y003140D01*
X009003Y003158D01*
X009032Y003172D01*
X009063Y003182D01*
X009095Y003189D01*
X009128Y003192D01*
X009161Y003191D01*
X009193Y003186D01*
X009224Y003177D01*
X009255Y003165D01*
X009283Y003149D01*
X009310Y003130D01*
X009334Y003108D01*
X009355Y003083D01*
X009374Y003056D01*
X009389Y003027D01*
X009400Y002997D01*
X009408Y002965D01*
X009412Y002932D01*
X009412Y002900D01*
X009408Y002867D01*
X009400Y002835D01*
X009389Y002805D01*
X009374Y002776D01*
X009355Y002749D01*
X009334Y002724D01*
X009310Y002702D01*
X009283Y002683D01*
X009255Y002667D01*
X009224Y002655D01*
X009193Y002646D01*
X009161Y002641D01*
X009128Y002640D01*
X009095Y002643D01*
X009063Y002650D01*
X009032Y002660D01*
X009003Y002674D01*
X008975Y002692D01*
X008950Y002712D01*
X008927Y002736D01*
X008907Y002762D01*
X008890Y002790D01*
X008877Y002820D01*
X008868Y002851D01*
X008862Y002883D01*
X008860Y002916D01*
X026341Y002916D02*
X026343Y002949D01*
X026349Y002981D01*
X026358Y003012D01*
X026371Y003042D01*
X026388Y003070D01*
X026408Y003096D01*
X026431Y003120D01*
X026456Y003140D01*
X026484Y003158D01*
X026513Y003172D01*
X026544Y003182D01*
X026576Y003189D01*
X026609Y003192D01*
X026642Y003191D01*
X026674Y003186D01*
X026705Y003177D01*
X026736Y003165D01*
X026764Y003149D01*
X026791Y003130D01*
X026815Y003108D01*
X026836Y003083D01*
X026855Y003056D01*
X026870Y003027D01*
X026881Y002997D01*
X026889Y002965D01*
X026893Y002932D01*
X026893Y002900D01*
X026889Y002867D01*
X026881Y002835D01*
X026870Y002805D01*
X026855Y002776D01*
X026836Y002749D01*
X026815Y002724D01*
X026791Y002702D01*
X026764Y002683D01*
X026736Y002667D01*
X026705Y002655D01*
X026674Y002646D01*
X026642Y002641D01*
X026609Y002640D01*
X026576Y002643D01*
X026544Y002650D01*
X026513Y002660D01*
X026484Y002674D01*
X026456Y002692D01*
X026431Y002712D01*
X026408Y002736D01*
X026388Y002762D01*
X026371Y002790D01*
X026358Y002820D01*
X026349Y002851D01*
X026343Y002883D01*
X026341Y002916D01*
X032975Y002129D02*
X032977Y002179D01*
X032983Y002229D01*
X032993Y002279D01*
X033006Y002327D01*
X033023Y002375D01*
X033044Y002421D01*
X033068Y002465D01*
X033096Y002507D01*
X033127Y002547D01*
X033161Y002584D01*
X033198Y002619D01*
X033237Y002650D01*
X033278Y002679D01*
X033322Y002704D01*
X033368Y002726D01*
X033415Y002744D01*
X033463Y002758D01*
X033512Y002769D01*
X033562Y002776D01*
X033612Y002779D01*
X033663Y002778D01*
X033713Y002773D01*
X033763Y002764D01*
X033811Y002752D01*
X033859Y002735D01*
X033905Y002715D01*
X033950Y002692D01*
X033993Y002665D01*
X034033Y002635D01*
X034071Y002602D01*
X034106Y002566D01*
X034139Y002527D01*
X034168Y002486D01*
X034194Y002443D01*
X034217Y002398D01*
X034236Y002351D01*
X034251Y002303D01*
X034263Y002254D01*
X034271Y002204D01*
X034275Y002154D01*
X034275Y002104D01*
X034271Y002054D01*
X034263Y002004D01*
X034251Y001955D01*
X034236Y001907D01*
X034217Y001860D01*
X034194Y001815D01*
X034168Y001772D01*
X034139Y001731D01*
X034106Y001692D01*
X034071Y001656D01*
X034033Y001623D01*
X033993Y001593D01*
X033950Y001566D01*
X033905Y001543D01*
X033859Y001523D01*
X033811Y001506D01*
X033763Y001494D01*
X033713Y001485D01*
X033663Y001480D01*
X033612Y001479D01*
X033562Y001482D01*
X033512Y001489D01*
X033463Y001500D01*
X033415Y001514D01*
X033368Y001532D01*
X033322Y001554D01*
X033278Y001579D01*
X033237Y001608D01*
X033198Y001639D01*
X033161Y001674D01*
X033127Y001711D01*
X033096Y001751D01*
X033068Y001793D01*
X033044Y001837D01*
X033023Y001883D01*
X033006Y001931D01*
X032993Y001979D01*
X032983Y002029D01*
X032977Y002079D01*
X032975Y002129D01*
X032975Y017877D02*
X032977Y017927D01*
X032983Y017977D01*
X032993Y018027D01*
X033006Y018075D01*
X033023Y018123D01*
X033044Y018169D01*
X033068Y018213D01*
X033096Y018255D01*
X033127Y018295D01*
X033161Y018332D01*
X033198Y018367D01*
X033237Y018398D01*
X033278Y018427D01*
X033322Y018452D01*
X033368Y018474D01*
X033415Y018492D01*
X033463Y018506D01*
X033512Y018517D01*
X033562Y018524D01*
X033612Y018527D01*
X033663Y018526D01*
X033713Y018521D01*
X033763Y018512D01*
X033811Y018500D01*
X033859Y018483D01*
X033905Y018463D01*
X033950Y018440D01*
X033993Y018413D01*
X034033Y018383D01*
X034071Y018350D01*
X034106Y018314D01*
X034139Y018275D01*
X034168Y018234D01*
X034194Y018191D01*
X034217Y018146D01*
X034236Y018099D01*
X034251Y018051D01*
X034263Y018002D01*
X034271Y017952D01*
X034275Y017902D01*
X034275Y017852D01*
X034271Y017802D01*
X034263Y017752D01*
X034251Y017703D01*
X034236Y017655D01*
X034217Y017608D01*
X034194Y017563D01*
X034168Y017520D01*
X034139Y017479D01*
X034106Y017440D01*
X034071Y017404D01*
X034033Y017371D01*
X033993Y017341D01*
X033950Y017314D01*
X033905Y017291D01*
X033859Y017271D01*
X033811Y017254D01*
X033763Y017242D01*
X033713Y017233D01*
X033663Y017228D01*
X033612Y017227D01*
X033562Y017230D01*
X033512Y017237D01*
X033463Y017248D01*
X033415Y017262D01*
X033368Y017280D01*
X033322Y017302D01*
X033278Y017327D01*
X033237Y017356D01*
X033198Y017387D01*
X033161Y017422D01*
X033127Y017459D01*
X033096Y017499D01*
X033068Y017541D01*
X033044Y017585D01*
X033023Y017631D01*
X033006Y017679D01*
X032993Y017727D01*
X032983Y017777D01*
X032977Y017827D01*
X032975Y017877D01*
M02*
