%
M48
M72
T01C0.0092
T02C0.0100
T03C0.0120
T04C0.0160
T05C0.0197
T06C0.0236
T07C0.0354
T08C0.0370
T09C0.0551
T10C0.0630
T11C0.0670
T12C0.0800
T13C0.1299
%
T01
X7719Y6302
X9766Y6420
X11380Y2916
X12562Y2916
X17168Y11577
X21479Y14176
X22503Y14294
X14688Y15829
X13821Y15829
X7995Y15534
X7995Y14412
X3802Y20239
T02
X4983Y20928
X2621Y20928
X5928Y17129
X8625Y17188
X11026Y15672
X11105Y16262
X12483Y15829
X12955Y15829
X14254Y15829
X15514Y15829
X16380Y15003
X15003Y14373
X15003Y13428
X16695Y12365
X17562Y13428
X18625Y13428
X19254Y13428
X19569Y13428
X19845Y13428
X20436Y12601
X20593Y12325
X21774Y11971
X20632Y11144
X22207Y12995
X22010Y13191
X23546Y12680
X24058Y11380
X25514Y12916
X26341Y13979
X24412Y15672
X22995Y14963
X22995Y14530
X22207Y14924
X22010Y15436
X22129Y15672
X22798Y16321
X21617Y14924
X19254Y14373
X18821Y14609
X16656Y16380
X12522Y14845
X11577Y14609
X10042Y14373
X9412Y13861
X9412Y12916
X9097Y12916
X8664Y12916
X9333Y12443
X9058Y11735
X8900Y11538
X8703Y11380
X8231Y11774
X8073Y11577
X7877Y11380
X7877Y11774
X7089Y12562
X6302Y12168
X8467Y10042
X8034Y9688
X9018Y9018
X9884Y8861
X11302Y8664
X11420Y8231
X12522Y10160
X13310Y10160
X14097Y10160
X14884Y10160
X14884Y11499
X14097Y11499
X13310Y11499
X12522Y11499
X11617Y12207
X11420Y11971
X10751Y11184
X10475Y10908
X10199Y10908
X11420Y10790
X6223Y8546
X5436Y7955
X3900Y6932
X4648Y6223
X5278Y6341
X8979Y6420
X12955Y4294
X13349Y4294
X13743Y4294
X14136Y4294
X14530Y4294
X14924Y4294
X14530Y1538
X14136Y1538
X13743Y1538
X12955Y1538
X3900Y9569
X947Y11380
X947Y11873
X2325Y12365
X24766Y4294
X28231Y8506
X28428Y8821
X27798Y10436
X27424Y10967
T03
X21184Y13270
X21341Y14963
X20908Y15199
X15278Y11144
X14491Y11144
X13703Y11144
X12916Y11144
X12916Y10514
X13703Y10514
X14491Y10514
X15278Y10514
X12129Y10514
X12129Y11144
X9963Y10121
X9648Y10121
X9845Y9294
T04
X8073Y9373
X6420Y10475
X8349Y12207
X10790Y12955
X11380Y4294
X9806Y1538
T05
X11380Y1499
X11971Y1499
X12562Y1499
X14924Y711
X15514Y751
X15317Y1538
X16499Y1538
X17680Y1538
X18073Y1144
X18861Y1538
X20042Y1538
X21223Y1538
X21617Y947
X22404Y1538
X22995Y1144
X23585Y1538
X24766Y1538
X25947Y1538
X26341Y947
X28703Y1538
X28113Y2916
X29688Y3113
X31066Y3703
X31459Y4884
X28506Y4884
X26341Y5475
X25947Y4294
X24766Y2916
X23979Y2916
X23585Y4294
X22404Y4294
X21223Y4294
X20042Y4294
X18861Y4294
X17680Y4294
X16499Y4294
X15908Y5278
X14806Y5317
X13270Y6066
X13113Y5317
X12168Y6184
X13073Y7325
X14254Y8152
X15514Y7443
X14530Y6538
X16695Y6066
X18073Y5081
X19254Y6459
X19845Y5672
X20632Y6262
X19451Y7837
X20632Y9215
X20042Y10003
X21223Y10199
X22010Y9412
X23585Y10396
X23782Y9018
X25751Y7247
X27129Y7050
X27522Y7955
X28900Y7168
X29884Y9333
X30081Y10317
X31459Y10121
X33231Y9924
X29688Y11695
X28900Y12877
X26932Y11499
X25869Y12562
X23979Y13940
X22758Y15278
X21617Y16814
X20436Y16420
X18940Y16499
X17483Y16420
X16695Y15908
X17443Y15632
X15121Y16814
X17089Y17404
X16892Y18979
X18270Y19963
X17286Y20947
X15121Y20751
X14333Y19569
X12758Y20160
X10987Y19176
X12562Y18585
X11774Y17010
X10003Y17010
X8821Y18782
X10003Y20554
X4688Y18388
X4097Y19176
X1341Y19766
X5869Y16420
X4688Y15239
X3703Y16026
X2365Y14609
X1144Y16026
X4294Y14058
X4924Y13231
X6262Y14058
X6676Y13546
X7798Y13979
X7443Y14648
X10396Y12758
X12089Y13546
X13428Y13349
X13428Y14727
X17168Y12286
X18585Y11774
X15711Y10593
X16892Y9609
X15908Y9018
X14136Y9215
X11577Y9215
X11302Y9845
X11774Y10396
X11617Y11026
X8113Y10475
X5869Y11892
X4136Y12069
X4136Y11341
X5672Y10357
X5632Y9845
X4491Y9491
X5475Y8743
X4569Y7680
X2916Y8743
X2916Y9924
X947Y10514
X1617Y6223
X3113Y5987
X3506Y4412
X2522Y4215
X5081Y3428
X5475Y2050
X4097Y1853
X8191Y751
X8625Y4018
X7640Y4373
X7837Y5790
X9333Y6420
X8349Y7247
X12562Y4333
X15317Y4294
X15317Y2916
X16302Y2916
X17877Y2916
X18861Y2916
X20042Y2916
X21420Y2916
X22207Y2916
X17483Y7837
X23467Y11892
X26538Y9727
X32640Y12286
X33428Y12877
X31262Y14254
X29688Y14451
X30081Y15436
X28310Y15829
X26932Y15042
X25160Y15436
X26538Y18191
X27719Y18979
X25947Y19569
X25160Y19176
X24176Y18388
X22404Y19766
X23782Y20554
X21223Y21144
X21026Y18585
X28703Y20357
X30869Y18782
X31656Y16814
X32443Y15632
X33231Y7365
X31656Y2129
X31066Y1144
X9806Y4294
T06
X11538Y4806
X12089Y6577
X16066Y11223
X15711Y12955
X13940Y13270
X17148Y15239
X20396Y14373
X20632Y13113
X27325Y12562
X18979Y8310
X21971Y6302
X29884Y6853
X30475Y5869
X31066Y5869
X32522Y6853
X8506Y19806
X8073Y19806
X7443Y19254
X6656Y19648
X7443Y17286
T07
X1440Y8871
X1440Y7197
T08
X2522Y11615
X2522Y13115
T09
X9136Y2916
X26617Y2916
T10
X24097Y5711
X24097Y7365
X25790Y11262
X27325Y13546
X22798Y18211
X33625Y20632
X11656Y7365
X11656Y5711
X9373Y5711
X1262Y4688
X6066Y15357
X9609Y15357
X6066Y18900
X33349Y4688
T11
X29924Y21026
X24727Y21026
T12
X19845Y19845
X17995Y18664
X19845Y17483
X25475Y17274
X27325Y17274
X29176Y17274
T13
X2129Y2129
X2129Y17877
X33625Y17877
X33625Y2129
M30
