G75*
G70*
%OFA0B0*%
%FSLAX24Y24*%
%IPPOS*%
%LPD*%
%AMOC8*
5,1,8,0,0,1.08239X$1,22.5*
%
%ADD10R,0.0394X0.0433*%
%ADD11C,0.0740*%
%ADD12R,0.0433X0.0394*%
%ADD13C,0.0945*%
%ADD14R,0.1339X0.0591*%
%ADD15R,0.1378X0.0394*%
%ADD16C,0.1200*%
%ADD17C,0.1005*%
%ADD18C,0.0160*%
%ADD19C,0.0172*%
%ADD20C,0.0080*%
%ADD21C,0.0120*%
%ADD22C,0.0354*%
%ADD23C,0.0100*%
%ADD24C,0.0180*%
D10*
X009472Y007346D03*
X010142Y007346D03*
X010142Y008134D03*
X009472Y008134D03*
X009256Y009118D03*
X008586Y009118D03*
X007779Y009216D03*
X007110Y009216D03*
X007110Y010004D03*
X007779Y010004D03*
X012031Y008232D03*
X012701Y008232D03*
X014295Y010988D03*
X014964Y010988D03*
X014964Y011775D03*
X014295Y011775D03*
X014000Y014039D03*
X014669Y014039D03*
X015771Y015319D03*
X016441Y015319D03*
X017838Y014630D03*
X018508Y014630D03*
X018114Y013744D03*
X017445Y013744D03*
X018921Y013055D03*
X019590Y013055D03*
X022563Y013449D03*
X023232Y013449D03*
X023744Y013449D03*
X024413Y013449D03*
X024334Y012169D03*
X025004Y012169D03*
X024315Y011382D03*
X023646Y011382D03*
X023646Y010594D03*
X024315Y010594D03*
X026401Y012563D03*
X027071Y012563D03*
X027583Y012563D03*
X028252Y012563D03*
X019590Y010594D03*
X018921Y010594D03*
X018409Y007051D03*
X017740Y007051D03*
X011126Y014531D03*
X010457Y014531D03*
X011047Y015319D03*
X011716Y015319D03*
X005023Y020240D03*
X004354Y020240D03*
X003252Y020240D03*
X002583Y020240D03*
X033094Y020437D03*
X033764Y020437D03*
D11*
X004886Y007318D03*
X004886Y006178D03*
X002523Y006232D03*
X002523Y007232D03*
X002523Y008232D03*
D12*
X010397Y009275D03*
X011185Y009275D03*
X011185Y009945D03*
X010397Y009945D03*
X010791Y008665D03*
X010791Y007996D03*
X010791Y007484D03*
X010791Y006815D03*
X015614Y010358D03*
X015614Y011027D03*
X015614Y011539D03*
X015614Y012209D03*
X017484Y011913D03*
X017484Y011244D03*
X019551Y011244D03*
X019551Y011913D03*
X020338Y011323D03*
X020338Y010653D03*
X021126Y010457D03*
X021126Y011126D03*
X021913Y011126D03*
X021913Y010457D03*
X017189Y014590D03*
X017189Y015260D03*
X015516Y014669D03*
X015516Y014000D03*
D13*
X014925Y012760D03*
X009610Y015614D03*
X022799Y018271D03*
X022799Y019641D03*
X026441Y013547D03*
X028508Y013547D03*
X027523Y008331D03*
X027523Y006067D03*
X024374Y006067D03*
X021224Y006067D03*
X018075Y006067D03*
X014925Y006067D03*
X011775Y006067D03*
D14*
X033153Y005929D03*
X033153Y008567D03*
X033153Y011441D03*
X033153Y014079D03*
D15*
X030968Y013153D03*
X030968Y012366D03*
X030968Y007642D03*
X030968Y006854D03*
D16*
X029177Y017275D03*
X027327Y017275D03*
X025476Y017275D03*
X019846Y017484D03*
X017996Y018665D03*
X019846Y019846D03*
D17*
X024728Y021027D03*
X029925Y021027D03*
D18*
X029492Y013153D02*
X030968Y013153D01*
X031756Y013153D01*
X032051Y012858D01*
X032051Y007149D01*
X031756Y006854D01*
X030968Y006854D01*
X030870Y006854D02*
X029098Y006854D01*
X029492Y007642D02*
X027327Y009807D01*
X029492Y007642D02*
X030968Y007642D01*
D19*
X029098Y010988D03*
X029492Y013153D03*
X026047Y011874D03*
X025063Y011382D03*
X024768Y010594D03*
X023783Y010201D03*
X022405Y010496D03*
X020732Y012563D03*
X020142Y012760D03*
X020732Y012957D03*
X018173Y013252D03*
X016795Y013646D03*
X016106Y014728D03*
X016795Y015712D03*
X014728Y016008D03*
X013842Y016008D03*
X009216Y014531D03*
X008134Y014138D03*
X009216Y013449D03*
X007248Y010397D03*
X009610Y008626D03*
X011579Y008232D03*
X013055Y007642D03*
X016205Y007642D03*
X019354Y007642D03*
X022504Y007642D03*
X025653Y007642D03*
X023980Y004295D03*
X022405Y004295D03*
X019256Y004295D03*
X016894Y004295D03*
X014925Y004590D03*
X013744Y004295D03*
X013744Y001539D03*
X011775Y001539D03*
X007937Y005968D03*
X004098Y010988D03*
X004098Y011480D03*
X013842Y011775D03*
X018567Y011086D03*
X021618Y015220D03*
X020535Y015516D03*
X023980Y015516D03*
X023980Y001539D03*
X022405Y001539D03*
X003803Y020240D03*
D20*
X004354Y020240D01*
X003803Y020240D02*
X003252Y020240D01*
X002583Y020240D02*
X002583Y020890D01*
X002622Y020929D01*
X004984Y020929D02*
X005023Y020890D01*
X005023Y020240D01*
X010988Y016008D02*
X010988Y015378D01*
X011047Y015319D01*
X010457Y014728D01*
X010457Y014531D01*
X011126Y014531D02*
X011480Y014531D01*
X011775Y014236D01*
X012071Y014236D01*
X012858Y015023D01*
X013449Y014433D02*
X013547Y014433D01*
X014138Y015023D01*
X014000Y014039D02*
X013901Y013941D01*
X010004Y013941D01*
X009610Y013449D02*
X009610Y011972D01*
X009807Y011775D01*
X012169Y011775D01*
X015319Y008626D01*
X015319Y008035D01*
X018468Y004886D01*
X018468Y004295D01*
X018075Y004590D02*
X018075Y004886D01*
X015023Y007937D01*
X015023Y008527D01*
X012268Y011283D01*
X009905Y011283D01*
X009020Y012169D01*
X008429Y011972D02*
X008035Y011579D01*
X005181Y011579D01*
X004000Y010397D01*
X001539Y010397D01*
X000949Y010988D01*
X000949Y011480D02*
X001834Y012366D01*
X007543Y012366D01*
X007543Y011972D02*
X002523Y011972D01*
X005870Y011185D02*
X005870Y007051D01*
X009413Y003508D01*
X020043Y003508D01*
X025358Y008823D01*
X026441Y008823D01*
X027130Y009512D01*
X026933Y009807D02*
X026342Y009216D01*
X017484Y009216D01*
X015673Y011027D01*
X015614Y011027D01*
X015004Y011027D01*
X014964Y010988D01*
X014295Y010988D02*
X013744Y010988D01*
X012563Y012169D01*
X012957Y012169D02*
X013901Y012169D01*
X014295Y011775D01*
X014964Y011775D02*
X015378Y011775D01*
X015614Y011539D01*
X015949Y011539D01*
X016303Y011185D01*
X016303Y010791D01*
X017583Y009512D01*
X024669Y009512D01*
X026441Y011283D01*
X025063Y011382D02*
X024315Y011382D01*
X023646Y011382D02*
X023646Y010594D01*
X023193Y010594D01*
X021027Y012760D01*
X020634Y012760D01*
X019945Y013449D01*
X018567Y013449D01*
X018409Y013449D01*
X018114Y013744D01*
X017445Y013744D02*
X017090Y013744D01*
X016834Y014000D01*
X016303Y014000D01*
X015516Y014000D01*
X014709Y014000D01*
X014669Y014039D01*
X015476Y013941D02*
X015516Y014000D01*
X016106Y014334D02*
X016362Y014590D01*
X017189Y014590D01*
X017189Y015260D02*
X016500Y015260D01*
X016441Y015319D01*
X016795Y015673D01*
X016795Y015712D01*
X015771Y015850D02*
X015771Y015319D01*
X015771Y015850D02*
X015614Y016008D01*
X015516Y014669D02*
X016047Y014669D01*
X016106Y014728D01*
X016401Y013646D02*
X011283Y013646D01*
X009807Y012169D01*
X010201Y012169D02*
X011185Y013153D01*
X011775Y013350D02*
X010594Y012169D01*
X010988Y012169D02*
X012169Y012169D01*
X017287Y007051D01*
X017740Y007051D01*
X018409Y007051D02*
X018862Y006598D01*
X018862Y004590D01*
X017681Y004295D02*
X017090Y003705D01*
X010201Y003705D01*
X009315Y004590D01*
X009315Y006165D01*
X008823Y006657D01*
X009118Y006854D02*
X009512Y006460D01*
X009512Y004689D01*
X010299Y003901D01*
X016894Y003901D01*
X017287Y004295D01*
X017287Y004590D01*
X016500Y004590D02*
X016500Y006067D01*
X014728Y007838D01*
X014728Y008429D01*
X012169Y010988D01*
X010988Y010988D01*
X010201Y010988D02*
X009807Y010988D01*
X005870Y014925D01*
X005870Y015122D01*
X009216Y014531D02*
X009216Y013449D01*
X011775Y013350D02*
X016303Y013350D01*
X017287Y012366D01*
X017484Y012366D01*
X017484Y011913D01*
X017484Y012366D02*
X020142Y012366D01*
X020831Y011677D01*
X021421Y011677D01*
X021027Y011874D02*
X020338Y012563D01*
X018921Y012563D01*
X017484Y012563D01*
X016401Y013646D01*
X016303Y012957D02*
X016697Y012563D01*
X016697Y010791D01*
X016894Y010594D01*
X017681Y009807D01*
X023783Y009807D01*
X024512Y010004D02*
X027071Y012563D01*
X026401Y012563D02*
X026401Y012523D01*
X026047Y012169D01*
X025457Y012169D01*
X025004Y012169D01*
X022799Y012563D02*
X022504Y012563D01*
X020142Y012760D02*
X019846Y013055D01*
X019590Y013055D01*
X018921Y013055D02*
X018921Y012563D01*
X019551Y011913D02*
X019610Y011972D01*
X020043Y011972D01*
X019551Y011244D02*
X019590Y011205D01*
X019590Y010594D01*
X018921Y010594D02*
X018921Y010929D01*
X018764Y011086D01*
X018567Y011086D01*
X017484Y011244D02*
X017484Y010791D01*
X016992Y010890D02*
X016992Y012268D01*
X015614Y012209D02*
X015063Y012760D01*
X014925Y012760D01*
X014964Y011775D02*
X015004Y011736D01*
X015023Y010397D02*
X015575Y010397D01*
X015614Y010358D01*
X016992Y010890D02*
X017878Y010004D01*
X024512Y010004D01*
X024315Y010594D02*
X024768Y010594D01*
X030083Y012366D02*
X030968Y012366D01*
X026244Y020240D02*
X020732Y014728D01*
X026244Y020240D02*
X026933Y020240D01*
X012464Y016008D02*
X012405Y016008D01*
X011716Y015319D01*
X007543Y011185D02*
X006460Y010102D01*
X006460Y008429D01*
X006756Y008134D01*
X009472Y008134D01*
X009610Y008626D02*
X009079Y008626D01*
X008586Y009118D01*
X008547Y009079D01*
X009256Y009118D02*
X008567Y009807D01*
X008232Y009807D01*
X008134Y010004D02*
X008331Y010201D01*
X008134Y010004D02*
X007779Y010004D01*
X007779Y009216D01*
X007110Y009216D02*
X007110Y010004D01*
X007110Y010260D01*
X007248Y010397D01*
X007051Y011382D02*
X006165Y010496D01*
X006165Y007937D01*
X006756Y007346D01*
X009472Y007346D01*
X009118Y006854D02*
X007051Y006854D01*
X010142Y007346D02*
X010397Y007346D01*
X010535Y007484D01*
X010791Y007484D01*
X011342Y007484D01*
X014138Y004689D01*
X014138Y004590D01*
X014531Y004689D02*
X014531Y004295D01*
X014531Y004689D02*
X011224Y007996D01*
X010791Y007996D01*
X010535Y007996D01*
X010397Y008134D01*
X010142Y008134D01*
X010791Y008665D02*
X011146Y008665D01*
X011579Y008232D01*
X012031Y008232D01*
X012701Y008232D02*
X012701Y009275D01*
X011579Y010397D01*
X010988Y010397D01*
X011185Y009945D02*
X010397Y009945D01*
X010397Y010397D01*
X010397Y009275D02*
X010397Y009020D01*
X010201Y008823D01*
X009807Y009118D02*
X009256Y009118D01*
X010397Y009275D02*
X011185Y009275D01*
X012760Y008429D02*
X012701Y008232D01*
X012701Y006913D01*
X014728Y004886D01*
X015023Y004886D01*
X015319Y004590D01*
X015319Y004295D01*
X015712Y004590D02*
X015122Y005181D01*
X014827Y005181D01*
X013350Y006657D01*
X013350Y009020D01*
X011874Y010496D01*
X011972Y010791D02*
X013744Y009020D01*
X013744Y008232D01*
X016106Y005870D01*
X016106Y004295D01*
X011283Y006657D02*
X011126Y006815D01*
X010791Y006815D01*
X007248Y011382D02*
X007051Y011382D01*
D21*
X003202Y000785D02*
X002918Y000621D01*
X032814Y000621D01*
X032766Y000640D01*
X032766Y000640D01*
X032365Y000960D01*
X032365Y000960D01*
X032076Y001383D01*
X032076Y001383D01*
X031925Y001873D01*
X031925Y002386D01*
X032076Y002876D01*
X032076Y002876D01*
X032365Y003300D01*
X032365Y003300D01*
X032766Y003619D01*
X032766Y003619D01*
X033243Y003807D01*
X033243Y003807D01*
X033754Y003845D01*
X033754Y003845D01*
X034254Y003731D01*
X034254Y003731D01*
X034698Y003474D01*
X034698Y003474D01*
X035047Y003099D01*
X035047Y003099D01*
X035134Y002917D01*
X035134Y003120D01*
X034153Y004102D01*
X034153Y004102D01*
X034023Y004231D01*
X033953Y004400D01*
X033953Y015424D01*
X033953Y015607D01*
X034023Y015776D01*
X035134Y016887D01*
X035134Y017090D01*
X035047Y016909D01*
X035047Y016909D01*
X034698Y016533D01*
X034698Y016533D01*
X034254Y016277D01*
X034254Y016277D01*
X033754Y016163D01*
X033754Y016163D01*
X033243Y016201D01*
X033243Y016201D01*
X032766Y016388D01*
X032766Y016388D01*
X032365Y016708D01*
X032365Y016708D01*
X032076Y017131D01*
X032076Y017132D01*
X031925Y017621D01*
X031925Y017621D01*
X031925Y018134D01*
X031925Y018134D01*
X032076Y018624D01*
X032076Y018624D01*
X032365Y019048D01*
X032365Y019048D01*
X032365Y019048D01*
X032766Y019367D01*
X032766Y019367D01*
X033243Y019555D01*
X033243Y019555D01*
X033754Y019593D01*
X033754Y019593D01*
X034254Y019479D01*
X034254Y019479D01*
X034698Y019223D01*
X034698Y019223D01*
X035047Y018847D01*
X035047Y018847D01*
X035134Y018665D01*
X035134Y021749D01*
X000621Y021749D01*
X000621Y018684D01*
X000869Y019048D01*
X000869Y019048D01*
X000869Y019048D01*
X001270Y019367D01*
X001270Y019367D01*
X001747Y019555D01*
X001747Y019555D01*
X002258Y019593D01*
X002258Y019593D01*
X002758Y019479D01*
X003202Y019223D01*
X003551Y018847D01*
X003551Y018847D01*
X003773Y018385D01*
X003773Y018385D01*
X003850Y017878D01*
X003773Y017371D01*
X003773Y017371D01*
X003551Y016909D01*
X003551Y016909D01*
X003202Y016533D01*
X003202Y016533D01*
X002758Y016277D01*
X002758Y016277D01*
X002258Y016163D01*
X002258Y016163D01*
X001747Y016201D01*
X001747Y016201D01*
X001270Y016388D01*
X001270Y016388D01*
X000869Y016708D01*
X000869Y016708D01*
X000869Y016708D01*
X000621Y017071D01*
X000621Y002936D01*
X000869Y003300D01*
X000869Y003300D01*
X001270Y003619D01*
X001270Y003619D01*
X001747Y003807D01*
X001747Y003807D01*
X002258Y003845D01*
X002258Y003845D01*
X002758Y003731D01*
X002758Y003731D01*
X003202Y003474D01*
X003202Y003474D01*
X003551Y003099D01*
X003551Y003099D01*
X003773Y002637D01*
X003773Y002637D01*
X003850Y002130D01*
X003773Y001623D01*
X003773Y001623D01*
X003551Y001161D01*
X003551Y001161D01*
X003202Y000785D01*
X003202Y000785D01*
X003148Y000754D02*
X032623Y000754D01*
X032474Y000873D02*
X003283Y000873D01*
X003393Y000991D02*
X032344Y000991D01*
X032263Y001110D02*
X003503Y001110D01*
X003583Y001228D02*
X032182Y001228D01*
X032101Y001347D02*
X024079Y001347D01*
X024066Y001333D02*
X024186Y001454D01*
X024186Y001625D01*
X024066Y001745D01*
X023895Y001745D01*
X023774Y001625D01*
X023774Y001454D01*
X023895Y001333D01*
X024066Y001333D01*
X024186Y001465D02*
X032051Y001465D01*
X032014Y001584D02*
X024186Y001584D01*
X024108Y001702D02*
X031978Y001702D01*
X031941Y001821D02*
X003803Y001821D01*
X003821Y001939D02*
X031925Y001939D01*
X031925Y002058D02*
X003839Y002058D01*
X003843Y002176D02*
X031925Y002176D01*
X031925Y002295D02*
X025068Y002295D01*
X025066Y002294D02*
X025273Y002500D01*
X025385Y002771D01*
X025385Y003063D01*
X025273Y003334D01*
X025066Y003541D01*
X024796Y003653D01*
X024503Y003653D01*
X024233Y003541D01*
X024026Y003334D01*
X023914Y003063D01*
X023914Y002771D01*
X024026Y002500D01*
X024233Y002294D01*
X024503Y002182D01*
X024796Y002182D01*
X025066Y002294D01*
X025186Y002414D02*
X031934Y002414D01*
X031970Y002532D02*
X025286Y002532D01*
X025335Y002651D02*
X032007Y002651D01*
X032043Y002769D02*
X025384Y002769D01*
X025385Y002888D02*
X032084Y002888D01*
X032165Y003006D02*
X025385Y003006D01*
X025360Y003125D02*
X032246Y003125D01*
X032327Y003243D02*
X025311Y003243D01*
X025245Y003362D02*
X032443Y003362D01*
X032592Y003480D02*
X025126Y003480D01*
X024925Y003599D02*
X032740Y003599D01*
X033016Y003718D02*
X020479Y003718D01*
X020598Y003836D02*
X033637Y003836D01*
X033793Y003836D02*
X034419Y003836D01*
X034537Y003718D02*
X034277Y003718D01*
X034483Y003599D02*
X034656Y003599D01*
X034688Y003480D02*
X034774Y003480D01*
X034803Y003362D02*
X034893Y003362D01*
X034913Y003243D02*
X035011Y003243D01*
X035023Y003125D02*
X035130Y003125D01*
X035134Y003006D02*
X035091Y003006D01*
X034300Y003955D02*
X020716Y003955D01*
X020835Y004073D02*
X034181Y004073D01*
X034063Y004192D02*
X024168Y004192D01*
X024186Y004210D02*
X024066Y004089D01*
X023895Y004089D01*
X023774Y004210D01*
X023774Y004380D01*
X023895Y004501D01*
X024066Y004501D01*
X024186Y004380D01*
X024186Y004210D01*
X024186Y004310D02*
X033991Y004310D01*
X033953Y004429D02*
X024138Y004429D01*
X023822Y004429D02*
X022563Y004429D01*
X022611Y004380D02*
X022491Y004501D01*
X022320Y004501D01*
X022199Y004380D01*
X022199Y004210D01*
X022320Y004089D01*
X022491Y004089D01*
X022611Y004210D01*
X022611Y004380D01*
X022611Y004310D02*
X023774Y004310D01*
X023792Y004192D02*
X022593Y004192D01*
X022217Y004192D02*
X020953Y004192D01*
X021072Y004310D02*
X022199Y004310D01*
X022248Y004429D02*
X021191Y004429D01*
X021309Y004547D02*
X033953Y004547D01*
X033953Y004666D02*
X021428Y004666D01*
X021546Y004784D02*
X033953Y004784D01*
X033953Y004903D02*
X021665Y004903D01*
X021783Y005022D02*
X033953Y005022D01*
X033953Y005140D02*
X021902Y005140D01*
X022020Y005259D02*
X033953Y005259D01*
X033953Y005377D02*
X022139Y005377D01*
X022257Y005496D02*
X024204Y005496D01*
X024256Y005474D02*
X024492Y005474D01*
X024709Y005564D01*
X024876Y005731D01*
X024966Y005949D01*
X024966Y006185D01*
X024876Y006402D01*
X024709Y006569D01*
X024492Y006659D01*
X024256Y006659D01*
X024038Y006569D01*
X023872Y006402D01*
X023781Y006185D01*
X023781Y005949D01*
X023872Y005731D01*
X024038Y005564D01*
X024256Y005474D01*
X024543Y005496D02*
X027354Y005496D01*
X027406Y005474D02*
X027641Y005474D01*
X027859Y005564D01*
X028026Y005731D01*
X028116Y005949D01*
X028116Y006185D01*
X028026Y006402D01*
X027859Y006569D01*
X027641Y006659D01*
X027406Y006659D01*
X027188Y006569D01*
X027021Y006402D01*
X026931Y006185D01*
X026931Y005949D01*
X027021Y005731D01*
X027188Y005564D01*
X027406Y005474D01*
X027693Y005496D02*
X033953Y005496D01*
X033872Y005514D02*
X033943Y005584D01*
X033943Y006274D01*
X033872Y006344D01*
X032434Y006344D01*
X032364Y006274D01*
X032364Y005584D01*
X032434Y005514D01*
X033872Y005514D01*
X033943Y005614D02*
X033953Y005614D01*
X033943Y005733D02*
X033953Y005733D01*
X033943Y005851D02*
X033953Y005851D01*
X033943Y005970D02*
X033953Y005970D01*
X033943Y006088D02*
X033953Y006088D01*
X033943Y006207D02*
X033953Y006207D01*
X033953Y006326D02*
X033891Y006326D01*
X033953Y006444D02*
X027984Y006444D01*
X028058Y006326D02*
X032416Y006326D01*
X032364Y006207D02*
X028107Y006207D01*
X028116Y006088D02*
X032364Y006088D01*
X032364Y005970D02*
X028116Y005970D01*
X028076Y005851D02*
X032364Y005851D01*
X032364Y005733D02*
X028026Y005733D01*
X027909Y005614D02*
X032364Y005614D01*
X031756Y006529D02*
X031785Y006559D01*
X031806Y006596D01*
X031817Y006636D01*
X031817Y006816D01*
X031007Y006816D01*
X031007Y006893D01*
X030930Y006893D01*
X030930Y007211D01*
X030258Y007211D01*
X030218Y007200D01*
X030181Y007179D01*
X030151Y007149D01*
X030130Y007113D01*
X030119Y007072D01*
X030119Y006893D01*
X030930Y006893D01*
X030930Y006816D01*
X030119Y006816D01*
X030119Y006636D01*
X030130Y006596D01*
X030151Y006559D01*
X030181Y006529D01*
X030218Y006508D01*
X030258Y006497D01*
X030930Y006497D01*
X030930Y006815D01*
X031007Y006815D01*
X031007Y006497D01*
X031678Y006497D01*
X031719Y006508D01*
X031756Y006529D01*
X031787Y006563D02*
X033953Y006563D01*
X033953Y006681D02*
X031817Y006681D01*
X031817Y006800D02*
X033953Y006800D01*
X033953Y006918D02*
X031817Y006918D01*
X031817Y006893D02*
X031817Y007072D01*
X031806Y007113D01*
X031785Y007149D01*
X031756Y007179D01*
X031719Y007200D01*
X031678Y007211D01*
X031007Y007211D01*
X031007Y006893D01*
X031817Y006893D01*
X031817Y007037D02*
X033953Y007037D01*
X033953Y007155D02*
X031779Y007155D01*
X031707Y007325D02*
X031777Y007395D01*
X031777Y007888D01*
X031707Y007958D01*
X030230Y007958D01*
X030159Y007888D01*
X030159Y007842D01*
X029575Y007842D01*
X027537Y009880D01*
X027537Y009894D01*
X027414Y010017D01*
X027240Y010017D01*
X027130Y009907D01*
X027020Y010017D01*
X026846Y010017D01*
X026723Y009894D01*
X026723Y009823D01*
X026276Y009376D01*
X024760Y009376D01*
X024829Y009445D01*
X026457Y011073D01*
X026528Y011073D01*
X026651Y011196D01*
X026651Y011370D01*
X026528Y011493D01*
X026354Y011493D01*
X026231Y011370D01*
X026231Y011300D01*
X024603Y009672D01*
X023945Y009672D01*
X023993Y009720D01*
X023993Y009844D01*
X024445Y009844D01*
X024578Y009844D01*
X026960Y012226D01*
X027317Y012226D01*
X027327Y012236D01*
X027336Y012226D01*
X027829Y012226D01*
X027899Y012297D01*
X027899Y012675D01*
X027935Y012639D01*
X027935Y012297D01*
X028005Y012226D01*
X028348Y012226D01*
X028377Y012197D01*
X028477Y012098D01*
X029618Y012098D01*
X029759Y012098D01*
X029858Y012196D01*
X030153Y012196D01*
X030159Y012202D01*
X030159Y012119D01*
X030230Y012049D01*
X031707Y012049D01*
X031777Y012119D01*
X031777Y012613D01*
X031707Y012683D01*
X030230Y012683D01*
X030159Y012613D01*
X030159Y012529D01*
X030153Y012536D01*
X029717Y012536D01*
X029618Y012438D01*
X028617Y012438D01*
X028569Y012486D01*
X028569Y012829D01*
X028498Y012899D01*
X028156Y012899D01*
X027497Y013558D01*
X027497Y016567D01*
X027734Y016665D01*
X027937Y016868D01*
X028047Y017132D01*
X028047Y017419D01*
X027937Y017683D01*
X027734Y017886D01*
X027470Y017995D01*
X027183Y017995D01*
X026919Y017886D01*
X026716Y017683D01*
X026611Y017429D01*
X026611Y017709D01*
X028578Y019676D01*
X031193Y019676D01*
X031334Y019676D01*
X031925Y020267D01*
X032318Y020267D01*
X032358Y020227D01*
X032532Y020227D01*
X032572Y020267D01*
X032777Y020267D01*
X032777Y020171D01*
X032848Y020100D01*
X033341Y020100D01*
X033411Y020171D01*
X033411Y020703D01*
X033341Y020773D01*
X032848Y020773D01*
X032777Y020703D01*
X032777Y020607D01*
X032572Y020607D01*
X032532Y020647D01*
X032358Y020647D01*
X032318Y020607D01*
X031784Y020607D01*
X031684Y020507D01*
X031193Y020016D01*
X028578Y020016D01*
X028437Y020016D01*
X026370Y017949D01*
X026271Y017850D01*
X026271Y014118D01*
X026105Y014049D01*
X025939Y013883D01*
X025848Y013665D01*
X025848Y013429D01*
X025939Y013211D01*
X026105Y013045D01*
X026271Y012976D01*
X026271Y012899D01*
X026155Y012899D01*
X026085Y012829D01*
X026085Y012720D01*
X026032Y012773D01*
X025858Y012773D01*
X025735Y012650D01*
X025735Y012476D01*
X025858Y012353D01*
X026005Y012353D01*
X025981Y012329D01*
X025594Y012329D01*
X025544Y012379D01*
X025370Y012379D01*
X025321Y012330D01*
X025321Y012435D01*
X025250Y012506D01*
X024757Y012506D01*
X024687Y012435D01*
X024687Y011903D01*
X024757Y011833D01*
X025250Y011833D01*
X025321Y011903D01*
X025321Y012008D01*
X025370Y011959D01*
X025544Y011959D01*
X025594Y012009D01*
X026113Y012009D01*
X026207Y012103D01*
X026330Y012226D01*
X026508Y012226D01*
X024967Y010686D01*
X024853Y010800D01*
X024682Y010800D01*
X024636Y010754D01*
X024632Y010754D01*
X024632Y010861D01*
X024561Y010931D01*
X024068Y010931D01*
X023998Y010861D01*
X023998Y010328D01*
X024068Y010258D01*
X024539Y010258D01*
X024445Y010164D01*
X022259Y010164D01*
X022279Y010198D01*
X022290Y010239D01*
X022290Y010418D01*
X021952Y010418D01*
X021952Y010495D01*
X022290Y010495D01*
X022290Y010674D01*
X022279Y010715D01*
X022258Y010752D01*
X022228Y010781D01*
X022191Y010802D01*
X022167Y010809D01*
X022179Y010809D01*
X022250Y010879D01*
X022250Y011311D01*
X023126Y010434D01*
X023259Y010434D01*
X023329Y010434D01*
X023329Y010328D01*
X023399Y010258D01*
X023892Y010258D01*
X023962Y010328D01*
X023962Y010861D01*
X023892Y010931D01*
X023805Y010931D01*
X023805Y011045D01*
X023892Y011045D01*
X023962Y011115D01*
X023962Y011128D01*
X023969Y011103D01*
X023990Y011067D01*
X024020Y011037D01*
X024056Y011016D01*
X024097Y011005D01*
X024276Y011005D01*
X024276Y011343D01*
X024353Y011343D01*
X024353Y011005D01*
X024533Y011005D01*
X024573Y011016D01*
X024610Y011037D01*
X024640Y011067D01*
X025349Y011067D01*
X025230Y010949D02*
X023805Y010949D01*
X023914Y011067D02*
X023990Y011067D01*
X023998Y010830D02*
X023962Y010830D01*
X023962Y010712D02*
X023998Y010712D01*
X023998Y010593D02*
X023962Y010593D01*
X023962Y010475D02*
X023998Y010475D01*
X023998Y010356D02*
X023962Y010356D01*
X024519Y010237D02*
X022289Y010237D01*
X022290Y010356D02*
X023329Y010356D01*
X023086Y010475D02*
X021952Y010475D01*
X021875Y010475D02*
X021164Y010475D01*
X021164Y010495D02*
X021502Y010495D01*
X021502Y010674D01*
X021491Y010715D01*
X021470Y010752D01*
X021441Y010781D01*
X021404Y010802D01*
X021380Y010809D01*
X021392Y010809D01*
X021462Y010879D01*
X021462Y011372D01*
X021392Y011443D01*
X021207Y011443D01*
X021196Y011453D01*
X021139Y011511D01*
X021139Y011517D01*
X021284Y011517D01*
X021334Y011467D01*
X021508Y011467D01*
X021631Y011590D01*
X021631Y011764D01*
X021508Y011887D01*
X021334Y011887D01*
X021284Y011837D01*
X021237Y011837D01*
X021237Y011961D01*
X021114Y012084D01*
X021044Y012084D01*
X020498Y012629D01*
X020405Y012723D01*
X019898Y012723D01*
X019915Y012740D01*
X019936Y012777D01*
X019947Y012817D01*
X019947Y013016D01*
X019629Y013016D01*
X019629Y013093D01*
X019947Y013093D01*
X019947Y013220D01*
X020474Y012693D01*
X020567Y012600D01*
X020961Y012600D01*
X021871Y011690D01*
X021826Y011690D01*
X021703Y011567D01*
X021703Y011443D01*
X021647Y011443D01*
X021577Y011372D01*
X021577Y010879D01*
X021647Y010809D01*
X021659Y010809D01*
X021635Y010802D01*
X021598Y010781D01*
X021569Y010752D01*
X021548Y010715D01*
X021537Y010674D01*
X021537Y010495D01*
X021875Y010495D01*
X021875Y010418D01*
X021537Y010418D01*
X021537Y010239D01*
X021548Y010198D01*
X021567Y010164D01*
X021472Y010164D01*
X021491Y010198D01*
X021502Y010239D01*
X021502Y010418D01*
X021164Y010418D01*
X021164Y010495D01*
X021087Y010495D02*
X021087Y010418D01*
X020749Y010418D01*
X020749Y010239D01*
X020760Y010198D01*
X020780Y010164D01*
X017944Y010164D01*
X017211Y010897D01*
X017246Y010887D01*
X017446Y010887D01*
X017446Y011205D01*
X017523Y011205D01*
X017523Y011282D01*
X017861Y011282D01*
X017861Y011462D01*
X017850Y011503D01*
X017829Y011539D01*
X017799Y011569D01*
X017762Y011590D01*
X017738Y011596D01*
X017750Y011596D01*
X017821Y011667D01*
X017821Y012160D01*
X017774Y012206D01*
X019261Y012206D01*
X019214Y012160D01*
X019214Y011667D01*
X019285Y011596D01*
X019817Y011596D01*
X019888Y011667D01*
X019888Y011812D01*
X019906Y011812D01*
X019956Y011762D01*
X020130Y011762D01*
X020227Y011859D01*
X020227Y011806D01*
X020168Y011747D01*
X020168Y011639D01*
X020072Y011639D01*
X020002Y011569D01*
X020002Y011076D01*
X020072Y011006D01*
X020085Y011006D01*
X020060Y010999D01*
X020024Y010978D01*
X019994Y010948D01*
X019973Y010912D01*
X019962Y010871D01*
X019962Y010692D01*
X020300Y010692D01*
X020300Y010615D01*
X019962Y010615D01*
X019962Y010435D01*
X019973Y010395D01*
X019994Y010358D01*
X020024Y010329D01*
X020060Y010307D01*
X020101Y010297D01*
X020300Y010297D01*
X020300Y010615D01*
X020377Y010615D01*
X020377Y010692D01*
X020715Y010692D01*
X020715Y010871D01*
X020704Y010912D01*
X020683Y010948D01*
X020653Y010978D01*
X020617Y010999D01*
X020592Y011006D01*
X020605Y011006D01*
X020675Y011076D01*
X020675Y011569D01*
X020605Y011639D01*
X020598Y011639D01*
X020620Y011661D01*
X020719Y011562D01*
X020719Y011393D01*
X020789Y011323D01*
X020789Y010879D01*
X020860Y010809D01*
X020872Y010809D01*
X020848Y010802D01*
X020811Y010781D01*
X020781Y010752D01*
X020760Y010715D01*
X020749Y010674D01*
X020749Y010495D01*
X021087Y010495D01*
X021087Y010475D02*
X020715Y010475D01*
X020715Y010435D02*
X020715Y010615D01*
X020377Y010615D01*
X020377Y010297D01*
X020576Y010297D01*
X020617Y010307D01*
X020653Y010329D01*
X020683Y010358D01*
X020704Y010395D01*
X020715Y010435D01*
X020681Y010356D02*
X020749Y010356D01*
X020750Y010237D02*
X019195Y010237D01*
X019180Y010229D02*
X019216Y010250D01*
X019246Y010280D01*
X019267Y010316D01*
X019274Y010341D01*
X019274Y010328D01*
X019344Y010258D01*
X019837Y010258D01*
X019907Y010328D01*
X019907Y010861D01*
X019837Y010931D01*
X019821Y010931D01*
X019888Y010997D01*
X019888Y011490D01*
X019817Y011561D01*
X019285Y011561D01*
X019214Y011490D01*
X019214Y010997D01*
X019285Y010927D01*
X019340Y010927D01*
X019274Y010861D01*
X019274Y010848D01*
X019267Y010873D01*
X019246Y010909D01*
X019216Y010939D01*
X019180Y010960D01*
X019139Y010971D01*
X018960Y010971D01*
X018960Y010633D01*
X018883Y010633D01*
X018883Y010971D01*
X018703Y010971D01*
X018662Y010960D01*
X018626Y010939D01*
X018596Y010909D01*
X018575Y010873D01*
X018564Y010832D01*
X018564Y010633D01*
X018882Y010633D01*
X018882Y010556D01*
X018564Y010556D01*
X018564Y010357D01*
X018575Y010316D01*
X018596Y010280D01*
X018626Y010250D01*
X018662Y010229D01*
X018703Y010218D01*
X018883Y010218D01*
X018883Y010556D01*
X018960Y010556D01*
X018960Y010218D01*
X019139Y010218D01*
X019180Y010229D01*
X018960Y010237D02*
X018883Y010237D01*
X018883Y010356D02*
X018960Y010356D01*
X018960Y010475D02*
X018883Y010475D01*
X018882Y010593D02*
X017515Y010593D01*
X017633Y010475D02*
X018564Y010475D01*
X018564Y010356D02*
X017752Y010356D01*
X017870Y010237D02*
X018647Y010237D01*
X018564Y010712D02*
X017396Y010712D01*
X017278Y010830D02*
X018564Y010830D01*
X018643Y010949D02*
X017829Y010949D01*
X017850Y010985D01*
X017861Y011026D01*
X017861Y011205D01*
X017523Y011205D01*
X017523Y010887D01*
X017722Y010887D01*
X017762Y010898D01*
X017799Y010919D01*
X017829Y010949D01*
X017861Y011067D02*
X019214Y011067D01*
X019214Y011186D02*
X017861Y011186D01*
X017861Y011304D02*
X019214Y011304D01*
X019214Y011423D02*
X017861Y011423D01*
X017826Y011541D02*
X019265Y011541D01*
X019221Y011660D02*
X017814Y011660D01*
X017821Y011779D02*
X019214Y011779D01*
X019214Y011897D02*
X017821Y011897D01*
X017821Y012016D02*
X019214Y012016D01*
X019214Y012134D02*
X017821Y012134D01*
X017550Y012723D02*
X016561Y013712D01*
X016468Y013805D01*
X016406Y013805D01*
X016440Y013840D01*
X016768Y013840D01*
X017024Y013584D01*
X017128Y013584D01*
X017128Y013478D01*
X017198Y013407D01*
X017691Y013407D01*
X017762Y013478D01*
X017762Y014010D01*
X017691Y014080D01*
X017198Y014080D01*
X017128Y014010D01*
X017128Y013933D01*
X016994Y014066D01*
X016901Y014160D01*
X016440Y014160D01*
X016390Y014210D01*
X016278Y014210D01*
X016316Y014247D01*
X016316Y014318D01*
X016428Y014430D01*
X016852Y014430D01*
X016852Y014344D01*
X016923Y014274D01*
X017455Y014274D01*
X017525Y014344D01*
X017525Y014360D01*
X017592Y014293D01*
X018085Y014293D01*
X018155Y014364D01*
X018155Y014896D01*
X018085Y014966D01*
X017592Y014966D01*
X017522Y014896D01*
X017522Y014841D01*
X017455Y014907D01*
X016923Y014907D01*
X016852Y014837D01*
X016852Y014750D01*
X016428Y014750D01*
X016296Y014750D01*
X016090Y014544D01*
X016019Y014544D01*
X015896Y014421D01*
X015896Y014247D01*
X015984Y014160D01*
X015852Y014160D01*
X015852Y014246D01*
X015782Y014317D01*
X015769Y014317D01*
X015794Y014323D01*
X015830Y014344D01*
X015860Y014374D01*
X015881Y014411D01*
X015892Y014451D01*
X015892Y014631D01*
X015554Y014631D01*
X015554Y014708D01*
X015477Y014708D01*
X015477Y015026D01*
X015278Y015026D01*
X015237Y015015D01*
X015201Y014994D01*
X015171Y014964D01*
X015150Y014928D01*
X015139Y014887D01*
X015139Y014708D01*
X015477Y014708D01*
X015477Y014631D01*
X015139Y014631D01*
X015139Y014451D01*
X015150Y014411D01*
X015171Y014374D01*
X015201Y014344D01*
X015237Y014323D01*
X015262Y014317D01*
X015249Y014317D01*
X015179Y014246D01*
X015179Y014160D01*
X014986Y014160D01*
X014986Y014305D01*
X014916Y014376D01*
X014423Y014376D01*
X014352Y014305D01*
X014352Y013805D01*
X014317Y013805D01*
X014317Y014305D01*
X014246Y014376D01*
X013753Y014376D01*
X013683Y014305D01*
X013683Y014101D01*
X012162Y014101D01*
X012874Y014813D01*
X012945Y014813D01*
X013068Y014936D01*
X013068Y015110D01*
X012945Y015233D01*
X012771Y015233D01*
X012648Y015110D01*
X012648Y015040D01*
X012004Y014396D01*
X011912Y014396D01*
X011862Y014446D01*
X011792Y014446D01*
X011546Y014691D01*
X011443Y014691D01*
X011443Y014798D01*
X011372Y014868D01*
X010879Y014868D01*
X010809Y014798D01*
X010809Y014265D01*
X010879Y014195D01*
X011372Y014195D01*
X011443Y014265D01*
X011443Y014343D01*
X011565Y014220D01*
X011565Y014149D01*
X011614Y014101D01*
X010141Y014101D01*
X010091Y014151D01*
X009917Y014151D01*
X009794Y014028D01*
X009794Y013854D01*
X009917Y013731D01*
X010091Y013731D01*
X010141Y013781D01*
X011192Y013781D01*
X009791Y012379D01*
X009770Y012379D01*
X009770Y013312D01*
X009820Y013362D01*
X009820Y013536D01*
X009697Y013659D01*
X009523Y013659D01*
X009410Y013546D01*
X009376Y013580D01*
X009376Y014400D01*
X009422Y014446D01*
X009422Y014617D01*
X009302Y014737D01*
X009131Y014737D01*
X009010Y014617D01*
X009010Y014446D01*
X009056Y014400D01*
X009056Y013580D01*
X009010Y013534D01*
X009010Y013363D01*
X009131Y013243D01*
X009302Y013243D01*
X009410Y013351D01*
X009450Y013312D01*
X009450Y011965D01*
X009229Y012185D01*
X009229Y012256D01*
X009106Y012379D01*
X008933Y012379D01*
X008810Y012256D01*
X008810Y012212D01*
X006033Y014988D01*
X006080Y015035D01*
X006080Y015209D01*
X005957Y015332D01*
X005783Y015332D01*
X005660Y015209D01*
X005660Y015035D01*
X005710Y014985D01*
X005710Y014859D01*
X005804Y014765D01*
X008386Y012182D01*
X008342Y012182D01*
X008219Y012059D01*
X008219Y011989D01*
X007969Y011739D01*
X005115Y011739D01*
X005021Y011645D01*
X004304Y010928D01*
X004304Y011073D01*
X004184Y011194D01*
X004013Y011194D01*
X003892Y011073D01*
X003892Y010903D01*
X004013Y010782D01*
X004158Y010782D01*
X003934Y010557D01*
X001605Y010557D01*
X001159Y011004D01*
X001159Y011075D01*
X001036Y011198D01*
X000862Y011198D01*
X000739Y011075D01*
X000739Y010901D01*
X000862Y010778D01*
X000932Y010778D01*
X001379Y010331D01*
X001473Y010237D01*
X004066Y010237D01*
X004160Y010331D01*
X005247Y011419D01*
X006862Y011419D01*
X006099Y010656D01*
X006030Y010587D01*
X006030Y011048D01*
X006080Y011098D01*
X006080Y011272D01*
X005957Y011395D01*
X005783Y011395D01*
X005660Y011272D01*
X005660Y011098D01*
X005710Y011048D01*
X005710Y007117D01*
X005710Y006985D01*
X009347Y003348D01*
X009479Y003348D01*
X010496Y003348D01*
X010483Y003334D01*
X010371Y003063D01*
X010371Y002771D01*
X010483Y002500D01*
X010689Y002294D01*
X010960Y002182D01*
X011252Y002182D01*
X011523Y002294D01*
X011730Y002500D01*
X011842Y002771D01*
X011842Y003063D01*
X011730Y003334D01*
X011716Y003348D01*
X020109Y003348D01*
X020203Y003441D01*
X025424Y008663D01*
X026374Y008663D01*
X026507Y008663D01*
X027146Y009302D01*
X027217Y009302D01*
X027340Y009425D01*
X027340Y009511D01*
X029409Y007442D01*
X029575Y007442D01*
X030159Y007442D01*
X030159Y007395D01*
X030230Y007325D01*
X031707Y007325D01*
X031775Y007392D02*
X033953Y007392D01*
X033953Y007274D02*
X024036Y007274D01*
X024154Y007392D02*
X030162Y007392D01*
X030157Y007155D02*
X023917Y007155D01*
X023798Y007037D02*
X030119Y007037D01*
X030119Y006918D02*
X023680Y006918D01*
X023561Y006800D02*
X030119Y006800D01*
X030119Y006681D02*
X023443Y006681D01*
X023324Y006563D02*
X024032Y006563D01*
X023913Y006444D02*
X023206Y006444D01*
X023087Y006326D02*
X023840Y006326D01*
X023791Y006207D02*
X022969Y006207D01*
X022850Y006088D02*
X023781Y006088D01*
X023781Y005970D02*
X022732Y005970D01*
X022613Y005851D02*
X023822Y005851D01*
X023871Y005733D02*
X022494Y005733D01*
X022376Y005614D02*
X023988Y005614D01*
X024759Y005614D02*
X027138Y005614D01*
X027020Y005733D02*
X024877Y005733D01*
X024926Y005851D02*
X026971Y005851D01*
X026931Y005970D02*
X024966Y005970D01*
X024966Y006088D02*
X026931Y006088D01*
X026940Y006207D02*
X024957Y006207D01*
X024908Y006326D02*
X026989Y006326D01*
X027063Y006444D02*
X024834Y006444D01*
X024716Y006563D02*
X027181Y006563D01*
X027866Y006563D02*
X030149Y006563D01*
X030930Y006563D02*
X031007Y006563D01*
X031007Y006681D02*
X030930Y006681D01*
X030930Y006800D02*
X031007Y006800D01*
X031007Y006918D02*
X030930Y006918D01*
X030930Y007037D02*
X031007Y007037D01*
X031007Y007155D02*
X030930Y007155D01*
X031777Y007511D02*
X033953Y007511D01*
X033953Y007629D02*
X031777Y007629D01*
X031777Y007748D02*
X033953Y007748D01*
X033953Y007867D02*
X031777Y007867D01*
X032364Y008222D02*
X032434Y008151D01*
X033872Y008151D01*
X033943Y008222D01*
X033953Y008222D01*
X033943Y008222D02*
X033943Y008912D01*
X033872Y008982D01*
X032434Y008982D01*
X032364Y008912D01*
X032364Y008222D01*
X029194Y008222D01*
X029313Y008104D02*
X033953Y008104D01*
X033953Y007985D02*
X029431Y007985D01*
X029550Y007867D02*
X030159Y007867D01*
X029340Y007511D02*
X025814Y007511D01*
X025859Y007556D02*
X025739Y007436D01*
X025568Y007436D01*
X025447Y007556D01*
X025447Y007727D01*
X025568Y007848D01*
X025739Y007848D01*
X025859Y007727D01*
X025859Y007556D01*
X025859Y007629D02*
X029221Y007629D01*
X029103Y007748D02*
X027665Y007748D01*
X027641Y007738D02*
X027859Y007828D01*
X028026Y007995D01*
X028116Y008213D01*
X028116Y008448D01*
X028026Y008666D01*
X027859Y008833D01*
X027641Y008923D01*
X027406Y008923D01*
X027188Y008833D01*
X027021Y008666D01*
X026931Y008448D01*
X026931Y008213D01*
X027021Y007995D01*
X027188Y007828D01*
X027406Y007738D01*
X027641Y007738D01*
X027381Y007748D02*
X025838Y007748D01*
X025625Y007980D02*
X025708Y008064D01*
X025754Y008173D01*
X025754Y008291D01*
X025708Y008400D01*
X025625Y008484D01*
X025516Y008529D01*
X025397Y008529D01*
X025288Y008484D01*
X025205Y008400D01*
X025159Y008291D01*
X025159Y008173D01*
X025205Y008064D01*
X025288Y007980D01*
X025397Y007935D01*
X025516Y007935D01*
X025625Y007980D01*
X025630Y007985D02*
X027031Y007985D01*
X026976Y008104D02*
X025725Y008104D01*
X025754Y008222D02*
X026931Y008222D01*
X026931Y008341D02*
X025733Y008341D01*
X025650Y008459D02*
X026935Y008459D01*
X026985Y008578D02*
X025340Y008578D01*
X025263Y008459D02*
X025221Y008459D01*
X025180Y008341D02*
X025102Y008341D01*
X025159Y008222D02*
X024984Y008222D01*
X024865Y008104D02*
X025188Y008104D01*
X025283Y007985D02*
X024747Y007985D01*
X024628Y007867D02*
X027149Y007867D01*
X027897Y007867D02*
X028984Y007867D01*
X028866Y007985D02*
X028016Y007985D01*
X028071Y008104D02*
X028747Y008104D01*
X028628Y008222D02*
X028116Y008222D01*
X028116Y008341D02*
X028510Y008341D01*
X028391Y008459D02*
X028111Y008459D01*
X028062Y008578D02*
X028273Y008578D01*
X028154Y008696D02*
X027996Y008696D01*
X028036Y008815D02*
X027877Y008815D01*
X027917Y008933D02*
X026778Y008933D01*
X026659Y008815D02*
X027170Y008815D01*
X027051Y008696D02*
X026541Y008696D01*
X026374Y008983D02*
X025424Y008983D01*
X025292Y008983D01*
X019977Y003668D01*
X017280Y003668D01*
X017697Y004085D01*
X017768Y004085D01*
X017891Y004208D01*
X017891Y004382D01*
X017768Y004505D01*
X017594Y004505D01*
X017471Y004382D01*
X017471Y004311D01*
X017447Y004288D01*
X017447Y004453D01*
X017497Y004503D01*
X017497Y004677D01*
X017374Y004800D01*
X017200Y004800D01*
X017077Y004677D01*
X017077Y004503D01*
X017127Y004453D01*
X017127Y004361D01*
X016827Y004061D01*
X010365Y004061D01*
X009672Y004755D01*
X009672Y006527D01*
X009578Y006620D01*
X009184Y007014D01*
X009052Y007014D01*
X007188Y007014D01*
X007138Y007064D01*
X006964Y007064D01*
X006841Y006941D01*
X006841Y006767D01*
X006964Y006644D01*
X007138Y006644D01*
X007188Y006694D01*
X008613Y006694D01*
X008613Y006570D01*
X008736Y006447D01*
X008806Y006447D01*
X009155Y006099D01*
X009155Y004657D01*
X009155Y004524D01*
X010011Y003668D01*
X009479Y003668D01*
X006030Y007117D01*
X006030Y007846D01*
X006596Y007280D01*
X006689Y007186D01*
X009155Y007186D01*
X009155Y007080D01*
X009226Y007010D01*
X009719Y007010D01*
X009789Y007080D01*
X009789Y007613D01*
X009719Y007683D01*
X009226Y007683D01*
X009155Y007613D01*
X009155Y007506D01*
X006822Y007506D01*
X006325Y008003D01*
X006325Y008338D01*
X006394Y008269D01*
X006689Y007974D01*
X006822Y007974D01*
X009155Y007974D01*
X009155Y007867D01*
X009226Y007797D01*
X009719Y007797D01*
X009789Y007867D01*
X009789Y008400D01*
X009719Y008470D01*
X009226Y008470D01*
X009155Y008400D01*
X009155Y008294D01*
X006822Y008294D01*
X006620Y008495D01*
X006620Y010036D01*
X006753Y010169D01*
X006753Y010042D01*
X007071Y010042D01*
X007071Y009965D01*
X006753Y009965D01*
X006753Y009766D01*
X006764Y009725D01*
X006785Y009689D01*
X006815Y009659D01*
X006851Y009638D01*
X006892Y009627D01*
X007072Y009627D01*
X007072Y009965D01*
X007149Y009965D01*
X007149Y009627D01*
X007328Y009627D01*
X007369Y009638D01*
X007405Y009659D01*
X007435Y009689D01*
X007456Y009725D01*
X007463Y009750D01*
X007463Y009738D01*
X007533Y009667D01*
X007619Y009667D01*
X007619Y009553D01*
X007533Y009553D01*
X007463Y009483D01*
X007463Y009470D01*
X007456Y009495D01*
X007435Y009531D01*
X007405Y009561D01*
X007369Y009582D01*
X007328Y009593D01*
X007149Y009593D01*
X007149Y009255D01*
X007072Y009255D01*
X007072Y009593D01*
X006892Y009593D01*
X006851Y009582D01*
X006815Y009561D01*
X006785Y009531D01*
X006764Y009495D01*
X006753Y009454D01*
X006753Y009255D01*
X007071Y009255D01*
X007071Y009178D01*
X006753Y009178D01*
X006753Y008979D01*
X006764Y008938D01*
X006785Y008902D01*
X006815Y008872D01*
X006851Y008851D01*
X006892Y008840D01*
X007072Y008840D01*
X007072Y009178D01*
X007149Y009178D01*
X007149Y008840D01*
X007328Y008840D01*
X007369Y008851D01*
X007405Y008872D01*
X007435Y008902D01*
X007456Y008938D01*
X007463Y008963D01*
X007463Y008950D01*
X007533Y008880D01*
X008026Y008880D01*
X008096Y008950D01*
X008096Y009483D01*
X008026Y009553D01*
X007939Y009553D01*
X007939Y009667D01*
X008026Y009667D01*
X008050Y009692D01*
X008145Y009597D01*
X008319Y009597D01*
X008369Y009647D01*
X008500Y009647D01*
X008653Y009494D01*
X008625Y009494D01*
X008625Y009157D01*
X008548Y009157D01*
X008548Y009494D01*
X008369Y009494D01*
X008328Y009484D01*
X008291Y009462D01*
X008262Y009433D01*
X008241Y009396D01*
X008230Y009356D01*
X008230Y009156D01*
X008548Y009156D01*
X008548Y009079D01*
X008625Y009079D01*
X008625Y008741D01*
X008804Y008741D01*
X008845Y008752D01*
X008882Y008773D01*
X008911Y008803D01*
X008932Y008840D01*
X008939Y008864D01*
X008939Y008852D01*
X009009Y008781D01*
X009502Y008781D01*
X009573Y008852D01*
X009573Y008958D01*
X009670Y008958D01*
X009720Y008908D01*
X009894Y008908D01*
X010017Y009031D01*
X010017Y009205D01*
X009894Y009328D01*
X009720Y009328D01*
X009670Y009278D01*
X009573Y009278D01*
X009573Y009384D01*
X009502Y009454D01*
X009145Y009454D01*
X008633Y009967D01*
X008500Y009967D01*
X008369Y009967D01*
X008346Y009990D01*
X008347Y009991D01*
X008418Y009991D01*
X008541Y010114D01*
X008541Y010288D01*
X008418Y010411D01*
X008244Y010411D01*
X008121Y010288D01*
X008121Y010217D01*
X008096Y010192D01*
X008096Y010270D01*
X008026Y010340D01*
X007533Y010340D01*
X007463Y010270D01*
X007463Y010258D01*
X007456Y010282D01*
X007435Y010319D01*
X007405Y010348D01*
X007369Y010369D01*
X007328Y010380D01*
X007149Y010380D01*
X007149Y010042D01*
X007072Y010042D01*
X007072Y010380D01*
X006965Y010380D01*
X007559Y010975D01*
X007630Y010975D01*
X007753Y011098D01*
X007753Y011272D01*
X007630Y011395D01*
X007458Y011395D01*
X007458Y011419D01*
X007969Y011419D01*
X008102Y011419D01*
X008445Y011762D01*
X008516Y011762D01*
X008639Y011885D01*
X008639Y011930D01*
X009741Y010828D01*
X009873Y010828D01*
X010064Y010828D01*
X010114Y010778D01*
X010288Y010778D01*
X010411Y010901D01*
X010411Y011075D01*
X010362Y011123D01*
X010826Y011123D01*
X010778Y011075D01*
X010778Y010901D01*
X010901Y010778D01*
X011075Y010778D01*
X011125Y010828D01*
X011762Y010828D01*
X011762Y010704D01*
X011774Y010693D01*
X011664Y010583D01*
X011664Y010538D01*
X011645Y010557D01*
X011125Y010557D01*
X011075Y010607D01*
X010901Y010607D01*
X010778Y010484D01*
X010778Y010310D01*
X010873Y010216D01*
X010848Y010191D01*
X010848Y010105D01*
X010734Y010105D01*
X010734Y010191D01*
X010664Y010262D01*
X010558Y010262D01*
X010607Y010310D01*
X010607Y010484D01*
X010484Y010607D01*
X010310Y010607D01*
X010187Y010484D01*
X010187Y010310D01*
X010236Y010262D01*
X010131Y010262D01*
X010061Y010191D01*
X010061Y009698D01*
X010131Y009628D01*
X010664Y009628D01*
X010734Y009698D01*
X010734Y009785D01*
X010848Y009785D01*
X010848Y009698D01*
X010919Y009628D01*
X011451Y009628D01*
X011521Y009698D01*
X011521Y010191D01*
X011475Y010237D01*
X011512Y010237D01*
X012541Y009209D01*
X012541Y008569D01*
X012454Y008569D01*
X012384Y008498D01*
X012384Y007966D01*
X012454Y007896D01*
X012541Y007896D01*
X012541Y006979D01*
X012541Y006906D01*
X011291Y008156D01*
X011158Y008156D01*
X011128Y008156D01*
X011128Y008242D01*
X011057Y008313D01*
X010525Y008313D01*
X010485Y008273D01*
X010464Y008294D01*
X010458Y008294D01*
X010458Y008400D01*
X010388Y008470D01*
X009895Y008470D01*
X009825Y008400D01*
X009825Y007867D01*
X009895Y007797D01*
X010388Y007797D01*
X010448Y007857D01*
X010455Y007850D01*
X010455Y007749D01*
X010464Y007740D01*
X010455Y007731D01*
X010455Y007630D01*
X010448Y007623D01*
X010388Y007683D01*
X009895Y007683D01*
X009825Y007613D01*
X009825Y007080D01*
X009895Y007010D01*
X010388Y007010D01*
X010458Y007080D01*
X010458Y007186D01*
X010464Y007186D01*
X010485Y007207D01*
X010525Y007167D01*
X011057Y007167D01*
X011128Y007238D01*
X011128Y007324D01*
X011276Y007324D01*
X011915Y006685D01*
X011835Y006698D01*
X011835Y006127D01*
X011715Y006127D01*
X011715Y006007D01*
X011145Y006007D01*
X011159Y005919D01*
X011189Y005824D01*
X011234Y005735D01*
X011293Y005655D01*
X011363Y005584D01*
X011444Y005526D01*
X011533Y005481D01*
X011627Y005450D01*
X011715Y005436D01*
X011715Y006007D01*
X011835Y006007D01*
X011835Y005436D01*
X011924Y005450D01*
X012018Y005481D01*
X012107Y005526D01*
X012187Y005584D01*
X012258Y005655D01*
X012316Y005735D01*
X012362Y005824D01*
X012392Y005919D01*
X012406Y006007D01*
X011836Y006007D01*
X011836Y006127D01*
X012406Y006127D01*
X012394Y006207D01*
X013928Y004673D01*
X013928Y004503D01*
X014051Y004380D01*
X014225Y004380D01*
X014348Y004503D01*
X014348Y004646D01*
X014371Y004623D01*
X014371Y004432D01*
X014321Y004382D01*
X014321Y004208D01*
X014444Y004085D01*
X014618Y004085D01*
X014741Y004208D01*
X014741Y004382D01*
X014691Y004432D01*
X014691Y004623D01*
X014691Y004726D01*
X014957Y004726D01*
X015159Y004524D01*
X015159Y004432D01*
X015109Y004382D01*
X015109Y004208D01*
X015232Y004085D01*
X015406Y004085D01*
X015529Y004208D01*
X015529Y004382D01*
X015479Y004432D01*
X015479Y004598D01*
X015502Y004574D01*
X015502Y004503D01*
X015625Y004380D01*
X015799Y004380D01*
X015922Y004503D01*
X015922Y004677D01*
X015799Y004800D01*
X015729Y004800D01*
X015188Y005341D01*
X015056Y005341D01*
X014893Y005341D01*
X014726Y005508D01*
X014807Y005474D01*
X015043Y005474D01*
X015261Y005564D01*
X015427Y005731D01*
X015518Y005949D01*
X015518Y006185D01*
X015484Y006266D01*
X015946Y005804D01*
X015946Y004432D01*
X015896Y004382D01*
X015896Y004208D01*
X016019Y004085D01*
X016193Y004085D01*
X016316Y004208D01*
X016316Y004382D01*
X016266Y004432D01*
X016266Y005936D01*
X016172Y006030D01*
X014267Y007935D01*
X014295Y007935D01*
X014404Y007980D01*
X014488Y008064D01*
X014533Y008173D01*
X014533Y008291D01*
X014488Y008400D01*
X014404Y008484D01*
X014295Y008529D01*
X014177Y008529D01*
X014068Y008484D01*
X013984Y008400D01*
X013939Y008291D01*
X013939Y008263D01*
X013904Y008298D01*
X013904Y008953D01*
X013904Y009027D01*
X014568Y008363D01*
X014568Y007905D01*
X014568Y007772D01*
X016340Y006000D01*
X016340Y004727D01*
X016290Y004677D01*
X016290Y004503D01*
X016413Y004380D01*
X016587Y004380D01*
X016710Y004503D01*
X016710Y004677D01*
X016660Y004727D01*
X016660Y006000D01*
X016660Y006074D01*
X017915Y004819D01*
X017915Y004727D01*
X017865Y004677D01*
X017865Y004503D01*
X017988Y004380D01*
X018162Y004380D01*
X018285Y004503D01*
X018285Y004677D01*
X018235Y004727D01*
X018235Y004819D01*
X018235Y004893D01*
X018308Y004819D01*
X018308Y004432D01*
X018258Y004382D01*
X018258Y004208D01*
X018381Y004085D01*
X018555Y004085D01*
X018678Y004208D01*
X018678Y004382D01*
X018628Y004432D01*
X018628Y004819D01*
X018628Y004952D01*
X018106Y005474D01*
X018192Y005474D01*
X018410Y005564D01*
X018577Y005731D01*
X018667Y005949D01*
X018667Y006185D01*
X018577Y006402D01*
X018410Y006569D01*
X018192Y006659D01*
X017957Y006659D01*
X017739Y006569D01*
X017572Y006402D01*
X017482Y006185D01*
X017482Y006098D01*
X016145Y007436D01*
X016290Y007436D01*
X016411Y007556D01*
X016411Y007701D01*
X017221Y006891D01*
X017354Y006891D01*
X017423Y006891D01*
X017423Y006785D01*
X017493Y006714D01*
X017987Y006714D01*
X018057Y006785D01*
X018057Y007317D01*
X017987Y007388D01*
X017493Y007388D01*
X017423Y007317D01*
X017423Y007211D01*
X017354Y007211D01*
X013736Y010828D01*
X013810Y010828D01*
X013978Y010828D01*
X013978Y010722D01*
X014049Y010651D01*
X014542Y010651D01*
X014612Y010722D01*
X014612Y011254D01*
X014542Y011325D01*
X014049Y011325D01*
X013978Y011254D01*
X013978Y011148D01*
X013810Y011148D01*
X012999Y011959D01*
X013044Y011959D01*
X013094Y012009D01*
X013835Y012009D01*
X013863Y011981D01*
X013757Y011981D01*
X013636Y011861D01*
X013636Y011690D01*
X013757Y011569D01*
X013928Y011569D01*
X013978Y011620D01*
X013978Y011509D01*
X014049Y011439D01*
X014542Y011439D01*
X014612Y011509D01*
X014612Y012042D01*
X014542Y012112D01*
X014185Y012112D01*
X013968Y012329D01*
X013835Y012329D01*
X013094Y012329D01*
X013044Y012379D01*
X012870Y012379D01*
X012760Y012269D01*
X012650Y012379D01*
X012476Y012379D01*
X012353Y012256D01*
X012353Y012212D01*
X012329Y012235D01*
X012235Y012329D01*
X011125Y012329D01*
X011075Y012379D01*
X011031Y012379D01*
X011842Y013190D01*
X011909Y013190D01*
X011861Y013142D01*
X011861Y012968D01*
X011984Y012845D01*
X012158Y012845D01*
X012281Y012968D01*
X012281Y013142D01*
X012232Y013190D01*
X014518Y013190D01*
X014423Y013095D01*
X014333Y012878D01*
X014333Y012642D01*
X014423Y012424D01*
X014589Y012257D01*
X014807Y012167D01*
X015043Y012167D01*
X015261Y012257D01*
X015277Y012274D01*
X015277Y012045D01*
X015211Y012112D01*
X014718Y012112D01*
X014648Y012042D01*
X014648Y011509D01*
X014718Y011439D01*
X015211Y011439D01*
X015277Y011505D01*
X015277Y011293D01*
X015287Y011283D01*
X015277Y011274D01*
X015277Y011258D01*
X015211Y011325D01*
X014718Y011325D01*
X014648Y011254D01*
X014648Y010722D01*
X014718Y010651D01*
X014860Y010651D01*
X014855Y010649D01*
X014772Y010566D01*
X014726Y010457D01*
X014726Y010338D01*
X014772Y010229D01*
X014855Y010146D01*
X014964Y010100D01*
X015083Y010100D01*
X015192Y010146D01*
X015275Y010229D01*
X015277Y010234D01*
X015277Y010112D01*
X015348Y010041D01*
X015880Y010041D01*
X015907Y010068D01*
X015907Y010043D01*
X015953Y009934D01*
X016036Y009850D01*
X016145Y009805D01*
X016264Y009805D01*
X016373Y009850D01*
X016456Y009934D01*
X016481Y009993D01*
X017418Y009056D01*
X017550Y009056D01*
X026409Y009056D01*
X026502Y009150D01*
X026920Y009568D01*
X026920Y009528D01*
X026374Y008983D01*
X026444Y009052D02*
X015512Y009052D01*
X015394Y009171D02*
X017304Y009171D01*
X017185Y009289D02*
X015275Y009289D01*
X015157Y009408D02*
X017067Y009408D01*
X016948Y009526D02*
X015038Y009526D01*
X014920Y009645D02*
X016829Y009645D01*
X016711Y009763D02*
X014801Y009763D01*
X014683Y009882D02*
X016005Y009882D01*
X015925Y010000D02*
X014564Y010000D01*
X014446Y010119D02*
X014919Y010119D01*
X014768Y010237D02*
X014327Y010237D01*
X014209Y010356D02*
X014726Y010356D01*
X014734Y010475D02*
X014090Y010475D01*
X013971Y010593D02*
X014799Y010593D01*
X014658Y010712D02*
X014602Y010712D01*
X014612Y010830D02*
X014648Y010830D01*
X014648Y010949D02*
X014612Y010949D01*
X014612Y011067D02*
X014648Y011067D01*
X014648Y011186D02*
X014612Y011186D01*
X014562Y011304D02*
X014698Y011304D01*
X014648Y011541D02*
X014612Y011541D01*
X014612Y011660D02*
X014648Y011660D01*
X014648Y011779D02*
X014612Y011779D01*
X014612Y011897D02*
X014648Y011897D01*
X014648Y012016D02*
X014612Y012016D01*
X014601Y012253D02*
X014044Y012253D01*
X014163Y012134D02*
X015277Y012134D01*
X015277Y012253D02*
X015249Y012253D01*
X015523Y012525D02*
X015485Y012564D01*
X015518Y012642D01*
X015518Y012878D01*
X015427Y013095D01*
X015332Y013190D01*
X016237Y013190D01*
X016260Y013166D01*
X016216Y013166D01*
X016093Y013044D01*
X016093Y012870D01*
X016216Y012747D01*
X016287Y012747D01*
X016537Y012497D01*
X016537Y010784D01*
X016463Y010857D01*
X016463Y011251D01*
X016369Y011345D01*
X016015Y011699D01*
X015951Y011699D01*
X015951Y011786D01*
X015880Y011856D01*
X015523Y011856D01*
X015488Y011892D01*
X015880Y011892D01*
X015951Y011962D01*
X015951Y012455D01*
X015880Y012525D01*
X015523Y012525D01*
X015504Y012608D02*
X016425Y012608D01*
X016537Y012490D02*
X015916Y012490D01*
X015951Y012371D02*
X016537Y012371D01*
X016537Y012253D02*
X015951Y012253D01*
X015951Y012134D02*
X016537Y012134D01*
X016537Y012016D02*
X015951Y012016D01*
X015886Y011897D02*
X016537Y011897D01*
X016537Y011779D02*
X015951Y011779D01*
X016054Y011660D02*
X016537Y011660D01*
X016537Y011541D02*
X016173Y011541D01*
X016291Y011423D02*
X016537Y011423D01*
X016537Y011304D02*
X016410Y011304D01*
X016463Y011186D02*
X016537Y011186D01*
X016537Y011067D02*
X016463Y011067D01*
X016463Y010949D02*
X016537Y010949D01*
X016537Y010830D02*
X016490Y010830D01*
X017446Y010949D02*
X017523Y010949D01*
X017523Y011067D02*
X017446Y011067D01*
X017446Y011186D02*
X017523Y011186D01*
X018883Y010949D02*
X018960Y010949D01*
X018960Y010830D02*
X018883Y010830D01*
X018883Y010712D02*
X018960Y010712D01*
X019199Y010949D02*
X019263Y010949D01*
X019839Y010949D02*
X019994Y010949D01*
X020011Y011067D02*
X019888Y011067D01*
X019888Y011186D02*
X020002Y011186D01*
X020002Y011304D02*
X019888Y011304D01*
X019888Y011423D02*
X020002Y011423D01*
X020002Y011541D02*
X019837Y011541D01*
X019881Y011660D02*
X020168Y011660D01*
X020146Y011779D02*
X020200Y011779D01*
X019940Y011779D02*
X019888Y011779D01*
X020618Y011660D02*
X020621Y011660D01*
X020675Y011541D02*
X020719Y011541D01*
X020719Y011423D02*
X020675Y011423D01*
X020675Y011304D02*
X020789Y011304D01*
X020789Y011186D02*
X020675Y011186D01*
X020666Y011067D02*
X020789Y011067D01*
X020789Y010949D02*
X020683Y010949D01*
X020715Y010830D02*
X020838Y010830D01*
X020759Y010712D02*
X020715Y010712D01*
X020715Y010593D02*
X020749Y010593D01*
X021413Y010830D02*
X021626Y010830D01*
X021577Y010949D02*
X021462Y010949D01*
X021462Y011067D02*
X021577Y011067D01*
X021577Y011186D02*
X021462Y011186D01*
X021462Y011304D02*
X021577Y011304D01*
X021627Y011423D02*
X021412Y011423D01*
X021582Y011541D02*
X021703Y011541D01*
X021631Y011660D02*
X021796Y011660D01*
X021782Y011779D02*
X021617Y011779D01*
X021664Y011897D02*
X021237Y011897D01*
X021183Y012016D02*
X021545Y012016D01*
X021427Y012134D02*
X020993Y012134D01*
X020875Y012253D02*
X021308Y012253D01*
X021190Y012371D02*
X020756Y012371D01*
X020638Y012490D02*
X021071Y012490D01*
X021286Y012727D02*
X021312Y012727D01*
X021405Y012608D02*
X021430Y012608D01*
X021524Y012490D02*
X021549Y012490D01*
X021642Y012371D02*
X021668Y012371D01*
X021761Y012253D02*
X021786Y012253D01*
X021879Y012134D02*
X021905Y012134D01*
X021998Y012016D02*
X022023Y012016D01*
X022040Y011999D02*
X022180Y011999D01*
X023656Y011999D01*
X023696Y011959D01*
X023870Y011959D01*
X023993Y012082D01*
X023993Y012256D01*
X023870Y012379D01*
X023696Y012379D01*
X023656Y012339D01*
X022180Y012339D01*
X020844Y013676D01*
X020844Y013732D01*
X020721Y013855D01*
X020547Y013855D01*
X020486Y013795D01*
X020425Y013855D01*
X020251Y013855D01*
X020128Y013732D01*
X020128Y013559D01*
X020251Y013436D01*
X020425Y013436D01*
X020486Y013496D01*
X020547Y013436D01*
X020603Y013436D01*
X022040Y011999D01*
X022116Y011897D02*
X024023Y011897D01*
X024018Y011903D02*
X024088Y011833D01*
X024581Y011833D01*
X024651Y011903D01*
X024651Y012435D01*
X024581Y012506D01*
X024238Y012506D01*
X024011Y012733D01*
X023870Y012733D01*
X022926Y012733D01*
X022886Y012773D01*
X022712Y012773D01*
X022672Y012733D01*
X022377Y012733D01*
X021478Y013632D01*
X021605Y013632D01*
X021605Y013559D01*
X021728Y013436D01*
X021784Y013436D01*
X022433Y012787D01*
X022574Y012787D01*
X022869Y012787D01*
X022969Y012886D01*
X022969Y012886D01*
X023195Y013112D01*
X023479Y013112D01*
X023488Y013121D01*
X023497Y013112D01*
X023990Y013112D01*
X024061Y013182D01*
X024061Y013195D01*
X024067Y013170D01*
X024088Y013134D01*
X024118Y013104D01*
X024155Y013083D01*
X024195Y013072D01*
X024375Y013072D01*
X024375Y013410D01*
X024452Y013410D01*
X024452Y013487D01*
X024770Y013487D01*
X024770Y013686D01*
X024759Y013727D01*
X024738Y013763D01*
X024708Y013793D01*
X024672Y013814D01*
X024631Y013825D01*
X024452Y013825D01*
X024452Y013487D01*
X024375Y013487D01*
X024375Y013825D01*
X024195Y013825D01*
X024155Y013814D01*
X024118Y013793D01*
X024088Y013763D01*
X024067Y013727D01*
X024061Y013702D01*
X024061Y013715D01*
X023990Y013785D01*
X023497Y013785D01*
X023488Y013776D01*
X023479Y013785D01*
X022986Y013785D01*
X022915Y013715D01*
X022915Y013313D01*
X022880Y013277D01*
X022880Y013715D01*
X022809Y013785D01*
X022467Y013785D01*
X022383Y013869D01*
X022967Y013869D01*
X023007Y013829D01*
X023181Y013829D01*
X023304Y013952D01*
X023304Y014126D01*
X023181Y014249D01*
X023007Y014249D01*
X022967Y014209D01*
X022222Y014209D01*
X022222Y014323D01*
X022099Y014446D01*
X022042Y014446D01*
X021984Y014504D01*
X018873Y014504D01*
X018825Y014553D01*
X018825Y014896D01*
X018754Y014966D01*
X018261Y014966D01*
X018191Y014896D01*
X018191Y014364D01*
X018261Y014293D01*
X018604Y014293D01*
X018733Y014164D01*
X018873Y014164D01*
X019256Y014164D01*
X019201Y014109D01*
X019155Y014000D01*
X019155Y013882D01*
X019201Y013772D01*
X019284Y013689D01*
X019393Y013644D01*
X019512Y013644D01*
X019621Y013689D01*
X019704Y013772D01*
X019750Y013882D01*
X019750Y014000D01*
X019704Y014109D01*
X019649Y014164D01*
X021014Y014164D01*
X021014Y014051D01*
X021137Y013928D01*
X021194Y013928D01*
X021252Y013869D01*
X021310Y013869D01*
X021310Y013855D01*
X021137Y013855D01*
X021014Y013732D01*
X021014Y013559D01*
X021137Y013436D01*
X021194Y013436D01*
X022236Y012393D01*
X022377Y012393D01*
X022672Y012393D01*
X022712Y012353D01*
X022886Y012353D01*
X022926Y012393D01*
X023870Y012393D01*
X024018Y012246D01*
X024018Y011903D01*
X024018Y012016D02*
X023927Y012016D01*
X023993Y012134D02*
X024018Y012134D01*
X024011Y012253D02*
X023993Y012253D01*
X023892Y012371D02*
X023878Y012371D01*
X023688Y012371D02*
X022904Y012371D01*
X022694Y012371D02*
X022148Y012371D01*
X022140Y012490D02*
X022030Y012490D01*
X022021Y012608D02*
X021911Y012608D01*
X021902Y012727D02*
X021793Y012727D01*
X021784Y012845D02*
X021674Y012845D01*
X021665Y012964D02*
X021556Y012964D01*
X021547Y013082D02*
X021437Y013082D01*
X021428Y013201D02*
X021319Y013201D01*
X021310Y013320D02*
X021200Y013320D01*
X021135Y013438D02*
X021081Y013438D01*
X021016Y013557D02*
X020963Y013557D01*
X021014Y013675D02*
X020844Y013675D01*
X020782Y013794D02*
X021076Y013794D01*
X021209Y013912D02*
X019750Y013912D01*
X019737Y014031D02*
X021034Y014031D01*
X021014Y014149D02*
X019664Y014149D01*
X019241Y014149D02*
X016911Y014149D01*
X017030Y014031D02*
X017149Y014031D01*
X016814Y013794D02*
X016479Y013794D01*
X016598Y013675D02*
X016933Y013675D01*
X017128Y013557D02*
X016716Y013557D01*
X016835Y013438D02*
X017167Y013438D01*
X016954Y013320D02*
X018312Y013320D01*
X018343Y013289D02*
X018430Y013289D01*
X018480Y013239D01*
X018604Y013239D01*
X018604Y012789D01*
X018670Y012723D01*
X017550Y012723D01*
X017546Y012727D02*
X018666Y012727D01*
X018604Y012845D02*
X017428Y012845D01*
X017309Y012964D02*
X018604Y012964D01*
X018604Y013082D02*
X017191Y013082D01*
X017072Y013201D02*
X018604Y013201D01*
X018343Y013289D02*
X018249Y013382D01*
X018249Y013382D01*
X018224Y013407D01*
X017867Y013407D01*
X017797Y013478D01*
X017797Y014010D01*
X017867Y014080D01*
X018361Y014080D01*
X018431Y014010D01*
X018431Y013653D01*
X018453Y013631D01*
X018480Y013659D01*
X018654Y013659D01*
X018704Y013609D01*
X020011Y013609D01*
X020105Y013515D01*
X020105Y013515D01*
X020700Y012920D01*
X021094Y012920D01*
X021187Y012826D01*
X023259Y010754D01*
X023329Y010754D01*
X023329Y010861D01*
X023399Y010931D01*
X023486Y010931D01*
X023486Y011045D01*
X023399Y011045D01*
X023329Y011115D01*
X023329Y011648D01*
X023399Y011718D01*
X023892Y011718D01*
X023962Y011648D01*
X023962Y011636D01*
X023969Y011660D01*
X023950Y011660D01*
X023969Y011660D02*
X023990Y011696D01*
X024020Y011726D01*
X024056Y011747D01*
X024097Y011758D01*
X024276Y011758D01*
X024276Y011420D01*
X024353Y011420D01*
X024353Y011758D01*
X024533Y011758D01*
X024573Y011747D01*
X024610Y011726D01*
X024640Y011696D01*
X024661Y011660D01*
X025942Y011660D01*
X026060Y011779D02*
X022235Y011779D01*
X022353Y011660D02*
X023341Y011660D01*
X023329Y011541D02*
X022472Y011541D01*
X022590Y011423D02*
X023329Y011423D01*
X023329Y011304D02*
X022709Y011304D01*
X022828Y011186D02*
X023329Y011186D01*
X023377Y011067D02*
X022946Y011067D01*
X023065Y010949D02*
X023486Y010949D01*
X023329Y010830D02*
X023183Y010830D01*
X022968Y010593D02*
X022290Y010593D01*
X022280Y010712D02*
X022849Y010712D01*
X022731Y010830D02*
X022201Y010830D01*
X022250Y010949D02*
X022612Y010949D01*
X022494Y011067D02*
X022250Y011067D01*
X022250Y011186D02*
X022375Y011186D01*
X022256Y011304D02*
X022250Y011304D01*
X021547Y010712D02*
X021492Y010712D01*
X021502Y010593D02*
X021537Y010593D01*
X021537Y010356D02*
X021502Y010356D01*
X021502Y010237D02*
X021537Y010237D01*
X020377Y010356D02*
X020300Y010356D01*
X020300Y010475D02*
X020377Y010475D01*
X020377Y010593D02*
X020300Y010593D01*
X019962Y010593D02*
X019907Y010593D01*
X019907Y010475D02*
X019962Y010475D01*
X019996Y010356D02*
X019907Y010356D01*
X019907Y010712D02*
X019962Y010712D01*
X019962Y010830D02*
X019907Y010830D01*
X020519Y012608D02*
X020559Y012608D01*
X020474Y012693D02*
X020474Y012693D01*
X020440Y012727D02*
X019902Y012727D01*
X019947Y012845D02*
X020322Y012845D01*
X020203Y012964D02*
X019947Y012964D01*
X020085Y013082D02*
X019629Y013082D01*
X019947Y013201D02*
X019966Y013201D01*
X020181Y013438D02*
X020249Y013438D01*
X020300Y013320D02*
X020719Y013320D01*
X020838Y013201D02*
X020419Y013201D01*
X020537Y013082D02*
X020956Y013082D01*
X021075Y012964D02*
X020656Y012964D01*
X020544Y013438D02*
X020428Y013438D01*
X020130Y013557D02*
X020063Y013557D01*
X020128Y013675D02*
X019588Y013675D01*
X019713Y013794D02*
X020190Y013794D01*
X019317Y013675D02*
X018431Y013675D01*
X018431Y013794D02*
X019192Y013794D01*
X019155Y013912D02*
X018431Y013912D01*
X018410Y014031D02*
X019168Y014031D01*
X018629Y014268D02*
X016316Y014268D01*
X016384Y014386D02*
X016852Y014386D01*
X016876Y014861D02*
X015892Y014861D01*
X015892Y014887D02*
X015881Y014928D01*
X015860Y014964D01*
X015842Y014982D01*
X016018Y014982D01*
X016088Y015052D01*
X016088Y015585D01*
X016018Y015655D01*
X015931Y015655D01*
X015931Y015784D01*
X015931Y015916D01*
X015824Y016024D01*
X015824Y016095D01*
X015701Y016218D01*
X015527Y016218D01*
X015404Y016095D01*
X015404Y015921D01*
X015527Y015798D01*
X015598Y015798D01*
X015611Y015784D01*
X015611Y015655D01*
X015525Y015655D01*
X015455Y015585D01*
X015455Y015052D01*
X015525Y014982D01*
X015554Y014982D01*
X015554Y014708D01*
X015892Y014708D01*
X015892Y014887D01*
X015845Y014979D02*
X016886Y014979D01*
X016852Y015013D02*
X016923Y014943D01*
X017455Y014943D01*
X017525Y015013D01*
X017525Y015506D01*
X017455Y015576D01*
X016951Y015576D01*
X017001Y015627D01*
X017001Y015798D01*
X016880Y015918D01*
X016710Y015918D01*
X016589Y015798D01*
X016589Y015693D01*
X016551Y015655D01*
X016194Y015655D01*
X016124Y015585D01*
X016124Y015052D01*
X016194Y014982D01*
X016687Y014982D01*
X016758Y015052D01*
X016758Y015100D01*
X016852Y015100D01*
X016852Y015013D01*
X016852Y015098D02*
X016758Y015098D01*
X016287Y014742D02*
X015892Y014742D01*
X015892Y014624D02*
X016169Y014624D01*
X015980Y014505D02*
X015892Y014505D01*
X015896Y014386D02*
X015867Y014386D01*
X015896Y014268D02*
X015831Y014268D01*
X015554Y014742D02*
X015477Y014742D01*
X015477Y014861D02*
X015554Y014861D01*
X015554Y014979D02*
X015477Y014979D01*
X015455Y015098D02*
X014348Y015098D01*
X014348Y015110D02*
X014225Y015233D01*
X014051Y015233D01*
X013928Y015110D01*
X013928Y015040D01*
X013531Y014643D01*
X013362Y014643D01*
X013239Y014520D01*
X013239Y014346D01*
X013362Y014223D01*
X013536Y014223D01*
X013586Y014273D01*
X013613Y014273D01*
X014154Y014813D01*
X014225Y014813D01*
X014348Y014936D01*
X014348Y015110D01*
X014348Y014979D02*
X015186Y014979D01*
X015139Y014861D02*
X014272Y014861D01*
X014083Y014742D02*
X015139Y014742D01*
X015139Y014624D02*
X013964Y014624D01*
X013845Y014505D02*
X015139Y014505D01*
X015164Y014386D02*
X013727Y014386D01*
X013683Y014268D02*
X013581Y014268D01*
X013683Y014149D02*
X012210Y014149D01*
X012329Y014268D02*
X013317Y014268D01*
X013239Y014386D02*
X012447Y014386D01*
X012566Y014505D02*
X013239Y014505D01*
X013342Y014624D02*
X012684Y014624D01*
X012803Y014742D02*
X013630Y014742D01*
X013749Y014861D02*
X012992Y014861D01*
X013068Y014979D02*
X013867Y014979D01*
X013928Y015098D02*
X013068Y015098D01*
X012962Y015216D02*
X014033Y015216D01*
X014242Y015216D02*
X015455Y015216D01*
X015455Y015335D02*
X012033Y015335D01*
X012033Y015409D02*
X012033Y015052D01*
X011963Y014982D01*
X011470Y014982D01*
X011400Y015052D01*
X011400Y015585D01*
X011470Y015655D01*
X011827Y015655D01*
X012245Y016074D01*
X012254Y016083D01*
X012254Y016095D01*
X012377Y016218D01*
X012551Y016218D01*
X012674Y016095D01*
X012674Y015921D01*
X012551Y015798D01*
X012422Y015798D01*
X012033Y015409D01*
X012077Y015453D02*
X015455Y015453D01*
X015455Y015572D02*
X012196Y015572D01*
X012314Y015690D02*
X015611Y015690D01*
X015516Y015809D02*
X013935Y015809D01*
X013928Y015802D02*
X014048Y015922D01*
X014048Y016093D01*
X013928Y016214D01*
X013757Y016214D01*
X013636Y016093D01*
X013636Y015922D01*
X013757Y015802D01*
X013928Y015802D01*
X014048Y015928D02*
X015404Y015928D01*
X015404Y016046D02*
X014048Y016046D01*
X013977Y016165D02*
X015474Y016165D01*
X015754Y016165D02*
X021942Y016165D01*
X022061Y016283D02*
X002769Y016283D01*
X002975Y016402D02*
X022179Y016402D01*
X022298Y016520D02*
X003180Y016520D01*
X003300Y016639D02*
X022416Y016639D01*
X022535Y016757D02*
X003410Y016757D01*
X003520Y016876D02*
X019436Y016876D01*
X019438Y016874D02*
X019703Y016764D01*
X019990Y016764D01*
X020254Y016874D01*
X020457Y017076D01*
X020566Y017341D01*
X020566Y017627D01*
X020457Y017892D01*
X020254Y018094D01*
X019990Y018204D01*
X019703Y018204D01*
X019438Y018094D01*
X019236Y017892D01*
X019126Y017627D01*
X019126Y017341D01*
X019236Y017076D01*
X019438Y016874D01*
X019318Y016994D02*
X003592Y016994D01*
X003649Y017113D02*
X019221Y017113D01*
X019172Y017231D02*
X003706Y017231D01*
X003763Y017350D02*
X019126Y017350D01*
X019126Y017469D02*
X003788Y017469D01*
X003806Y017587D02*
X019126Y017587D01*
X019159Y017706D02*
X003824Y017706D01*
X003842Y017824D02*
X019208Y017824D01*
X019287Y017943D02*
X018236Y017943D01*
X018241Y017944D02*
X018333Y017982D01*
X018419Y018032D01*
X018498Y018093D01*
X018569Y018163D01*
X018629Y018242D01*
X018679Y018328D01*
X018717Y018420D01*
X018743Y018517D01*
X018755Y018605D01*
X018056Y018605D01*
X018056Y017906D01*
X018144Y017918D01*
X018241Y017944D01*
X018056Y017943D02*
X017936Y017943D01*
X017936Y017906D02*
X017936Y018605D01*
X018056Y018605D01*
X018056Y018725D01*
X018755Y018725D01*
X018743Y018814D01*
X018717Y018910D01*
X018679Y019002D01*
X018629Y019088D01*
X018569Y019167D01*
X018498Y019238D01*
X018419Y019298D01*
X018333Y019348D01*
X018241Y019386D01*
X018144Y019412D01*
X018056Y019424D01*
X018056Y018725D01*
X017936Y018725D01*
X017936Y018605D01*
X017237Y018605D01*
X017249Y018517D01*
X017275Y018420D01*
X017313Y018328D01*
X017363Y018242D01*
X017423Y018163D01*
X017494Y018093D01*
X017573Y018032D01*
X017659Y017982D01*
X017751Y017944D01*
X017847Y017918D01*
X017936Y017906D01*
X017936Y018061D02*
X018056Y018061D01*
X018056Y018180D02*
X017936Y018180D01*
X017936Y018298D02*
X018056Y018298D01*
X018056Y018417D02*
X017936Y018417D01*
X017936Y018535D02*
X018056Y018535D01*
X018056Y018654D02*
X022344Y018654D01*
X022297Y018607D02*
X022463Y018774D01*
X022681Y018864D01*
X022917Y018864D01*
X023135Y018774D01*
X023301Y018607D01*
X023392Y018389D01*
X023392Y018154D01*
X023301Y017936D01*
X023135Y017769D01*
X022917Y017679D01*
X022681Y017679D01*
X022463Y017769D01*
X022297Y017936D01*
X022207Y018154D01*
X022207Y018389D01*
X022297Y018607D01*
X022267Y018535D02*
X018745Y018535D01*
X018716Y018417D02*
X022218Y018417D01*
X022207Y018298D02*
X018662Y018298D01*
X018581Y018180D02*
X019645Y018180D01*
X019405Y018061D02*
X018457Y018061D01*
X017756Y017943D02*
X003840Y017943D01*
X003822Y018061D02*
X017534Y018061D01*
X017410Y018180D02*
X003804Y018180D01*
X003786Y018298D02*
X017330Y018298D01*
X017276Y018417D02*
X003758Y018417D01*
X003701Y018535D02*
X017246Y018535D01*
X017237Y018725D02*
X017936Y018725D01*
X017936Y019424D01*
X017847Y019412D01*
X017751Y019386D01*
X017659Y019348D01*
X017573Y019298D01*
X017494Y019238D01*
X017423Y019167D01*
X017363Y019088D01*
X017313Y019002D01*
X017275Y018910D01*
X017249Y018814D01*
X017237Y018725D01*
X017243Y018773D02*
X003587Y018773D01*
X003644Y018654D02*
X017936Y018654D01*
X017936Y018773D02*
X018056Y018773D01*
X018056Y018891D02*
X017936Y018891D01*
X017936Y019010D02*
X018056Y019010D01*
X018056Y019128D02*
X017936Y019128D01*
X017936Y019247D02*
X018056Y019247D01*
X018056Y019365D02*
X017936Y019365D01*
X017700Y019365D02*
X007721Y019365D01*
X007742Y019315D02*
X007697Y019424D01*
X007613Y019508D01*
X007504Y019553D01*
X007386Y019553D01*
X007276Y019508D01*
X007193Y019424D01*
X007148Y019315D01*
X007148Y019197D01*
X007193Y019087D01*
X007276Y019004D01*
X007386Y018959D01*
X007504Y018959D01*
X007613Y019004D01*
X007697Y019087D01*
X007742Y019197D01*
X007742Y019315D01*
X007742Y019247D02*
X017505Y019247D01*
X017393Y019128D02*
X007714Y019128D01*
X007619Y019010D02*
X017317Y019010D01*
X017270Y018891D02*
X003510Y018891D01*
X003400Y019010D02*
X007271Y019010D01*
X007176Y019128D02*
X003290Y019128D01*
X003160Y019247D02*
X007148Y019247D01*
X007168Y019365D02*
X006748Y019365D01*
X006716Y019352D02*
X006826Y019398D01*
X006909Y019481D01*
X006954Y019590D01*
X006954Y019709D01*
X006909Y019818D01*
X006826Y019901D01*
X006716Y019947D01*
X006598Y019947D01*
X006489Y019901D01*
X006405Y019818D01*
X006360Y019709D01*
X006360Y019590D01*
X006405Y019481D01*
X006489Y019398D01*
X006598Y019352D01*
X006716Y019352D01*
X006567Y019365D02*
X002955Y019365D01*
X002736Y019484D02*
X006404Y019484D01*
X006360Y019602D02*
X000621Y019602D01*
X000621Y019484D02*
X001567Y019484D01*
X001267Y019365D02*
X000621Y019365D01*
X000621Y019247D02*
X001119Y019247D01*
X000970Y019128D02*
X000621Y019128D01*
X000621Y019010D02*
X000843Y019010D01*
X000762Y018891D02*
X000621Y018891D01*
X000621Y018773D02*
X000681Y018773D01*
X000621Y019721D02*
X006365Y019721D01*
X006427Y019839D02*
X000621Y019839D01*
X000621Y019958D02*
X002281Y019958D01*
X002266Y019974D02*
X002336Y019903D01*
X002829Y019903D01*
X002899Y019974D01*
X002899Y020506D01*
X002829Y020576D01*
X002742Y020576D01*
X002742Y020753D01*
X002832Y020842D01*
X002832Y021016D01*
X002709Y021139D01*
X002535Y021139D01*
X002412Y021016D01*
X002412Y020842D01*
X002423Y020831D01*
X002423Y020576D01*
X002336Y020576D01*
X002266Y020506D01*
X002266Y019974D01*
X002266Y020077D02*
X000621Y020077D01*
X000621Y020195D02*
X002266Y020195D01*
X002266Y020314D02*
X000621Y020314D01*
X000621Y020432D02*
X002266Y020432D01*
X002310Y020551D02*
X000621Y020551D01*
X000621Y020669D02*
X002423Y020669D01*
X002423Y020788D02*
X000621Y020788D01*
X000621Y020906D02*
X002412Y020906D01*
X002421Y021025D02*
X000621Y021025D01*
X000621Y021143D02*
X024106Y021143D01*
X024106Y021151D02*
X024106Y020904D01*
X024200Y020675D01*
X024376Y020500D01*
X024604Y020405D01*
X024852Y020405D01*
X025081Y020500D01*
X025256Y020675D01*
X025351Y020904D01*
X025351Y021151D01*
X025256Y021380D01*
X025081Y021555D01*
X024852Y021650D01*
X024604Y021650D01*
X024376Y021555D01*
X024200Y021380D01*
X024106Y021151D01*
X024152Y021262D02*
X000621Y021262D01*
X000621Y021381D02*
X024201Y021381D01*
X024319Y021499D02*
X000621Y021499D01*
X000621Y021618D02*
X024526Y021618D01*
X024930Y021618D02*
X029723Y021618D01*
X029801Y021650D02*
X029572Y021555D01*
X029397Y021380D01*
X029303Y021151D01*
X029303Y020904D01*
X029397Y020675D01*
X029572Y020500D01*
X029789Y020410D01*
X026862Y020410D01*
X026852Y020400D01*
X026178Y020400D01*
X026084Y020306D01*
X020716Y014938D01*
X020645Y014938D01*
X020522Y014815D01*
X020522Y014641D01*
X020645Y014518D01*
X020819Y014518D01*
X020942Y014641D01*
X020942Y014712D01*
X026310Y020080D01*
X026852Y020080D01*
X026862Y020070D01*
X030799Y020070D01*
X030940Y020070D01*
X032121Y021251D01*
X032318Y021251D01*
X032358Y021211D01*
X032532Y021211D01*
X032655Y021334D01*
X032655Y021508D01*
X032532Y021631D01*
X032358Y021631D01*
X032318Y021591D01*
X031981Y021591D01*
X031881Y021491D01*
X030799Y020410D01*
X030061Y020410D01*
X030278Y020500D01*
X030453Y020675D01*
X030548Y020904D01*
X030548Y021151D01*
X030453Y021380D01*
X030278Y021555D01*
X030049Y021650D01*
X029801Y021650D01*
X029516Y021499D02*
X025137Y021499D01*
X025255Y021381D02*
X029398Y021381D01*
X029348Y021262D02*
X025305Y021262D01*
X025351Y021143D02*
X029303Y021143D01*
X029303Y021025D02*
X025351Y021025D01*
X025351Y020906D02*
X029303Y020906D01*
X029350Y020788D02*
X025303Y020788D01*
X025250Y020669D02*
X029403Y020669D01*
X029521Y020551D02*
X025132Y020551D01*
X024918Y020432D02*
X029735Y020432D01*
X030115Y020432D02*
X030822Y020432D01*
X030940Y020551D02*
X030329Y020551D01*
X030447Y020669D02*
X031059Y020669D01*
X031177Y020788D02*
X030500Y020788D01*
X030548Y020906D02*
X031296Y020906D01*
X031414Y021025D02*
X030548Y021025D01*
X030548Y021143D02*
X031533Y021143D01*
X031651Y021262D02*
X030502Y021262D01*
X030452Y021381D02*
X031770Y021381D01*
X031889Y021499D02*
X030334Y021499D01*
X030127Y021618D02*
X032344Y021618D01*
X032545Y021618D02*
X035134Y021618D01*
X035134Y021736D02*
X000621Y021736D01*
X002823Y021025D02*
X004783Y021025D01*
X004774Y021016D02*
X004774Y020842D01*
X004863Y020753D01*
X004863Y020576D01*
X004777Y020576D01*
X004707Y020506D01*
X004707Y019974D01*
X004777Y019903D01*
X005270Y019903D01*
X005340Y019974D01*
X005340Y020506D01*
X005270Y020576D01*
X005183Y020576D01*
X005183Y020823D01*
X005183Y020831D01*
X005194Y020842D01*
X005194Y021016D01*
X005071Y021139D01*
X004897Y021139D01*
X004774Y021016D01*
X004774Y020906D02*
X002832Y020906D01*
X002778Y020788D02*
X004828Y020788D01*
X004863Y020669D02*
X002742Y020669D01*
X002855Y020551D02*
X002979Y020551D01*
X003005Y020576D02*
X002935Y020506D01*
X002935Y019974D01*
X003005Y019903D01*
X003498Y019903D01*
X003569Y019974D01*
X003569Y020080D01*
X003672Y020080D01*
X003718Y020034D01*
X003888Y020034D01*
X003934Y020080D01*
X004037Y020080D01*
X004037Y019974D01*
X004108Y019903D01*
X004601Y019903D01*
X004671Y019974D01*
X004671Y020506D01*
X004601Y020576D01*
X004108Y020576D01*
X004037Y020506D01*
X004037Y020400D01*
X003934Y020400D01*
X003888Y020446D01*
X003718Y020446D01*
X003672Y020400D01*
X003569Y020400D01*
X003569Y020506D01*
X003498Y020576D01*
X003005Y020576D01*
X002935Y020432D02*
X002899Y020432D01*
X002899Y020314D02*
X002935Y020314D01*
X002935Y020195D02*
X002899Y020195D01*
X002899Y020077D02*
X002935Y020077D01*
X002951Y019958D02*
X002884Y019958D01*
X003553Y019958D02*
X004053Y019958D01*
X004037Y020077D02*
X003931Y020077D01*
X003675Y020077D02*
X003569Y020077D01*
X003569Y020432D02*
X003704Y020432D01*
X003902Y020432D02*
X004037Y020432D01*
X004082Y020551D02*
X003524Y020551D01*
X004626Y020551D02*
X004751Y020551D01*
X004707Y020432D02*
X004671Y020432D01*
X004671Y020314D02*
X004707Y020314D01*
X004707Y020195D02*
X004671Y020195D01*
X004671Y020077D02*
X004707Y020077D01*
X004722Y019958D02*
X004655Y019958D01*
X005325Y019958D02*
X019094Y019958D01*
X019099Y019995D02*
X019088Y019906D01*
X019786Y019906D01*
X019786Y019786D01*
X019906Y019786D01*
X019906Y019088D01*
X019995Y019099D01*
X020091Y019125D01*
X020183Y019163D01*
X020269Y019213D01*
X020348Y019274D01*
X020419Y019344D01*
X020480Y019423D01*
X020529Y019509D01*
X020567Y019601D01*
X020593Y019698D01*
X020605Y019786D01*
X019906Y019786D01*
X019906Y019906D01*
X020605Y019906D01*
X020593Y019995D01*
X020567Y020091D01*
X020529Y020183D01*
X020480Y020269D01*
X020419Y020348D01*
X020348Y020419D01*
X020269Y020480D01*
X020183Y020529D01*
X020091Y020567D01*
X019995Y020593D01*
X019906Y020605D01*
X019906Y019906D01*
X019786Y019906D01*
X019786Y020605D01*
X019698Y020593D01*
X019601Y020567D01*
X019509Y020529D01*
X019423Y020480D01*
X019344Y020419D01*
X019274Y020348D01*
X019213Y020269D01*
X019163Y020183D01*
X019125Y020091D01*
X019099Y019995D01*
X019121Y020077D02*
X005340Y020077D01*
X005340Y020195D02*
X019170Y020195D01*
X019247Y020314D02*
X005340Y020314D01*
X005340Y020432D02*
X019361Y020432D01*
X019561Y020551D02*
X005296Y020551D01*
X005183Y020669D02*
X024206Y020669D01*
X024154Y020788D02*
X005183Y020788D01*
X005194Y020906D02*
X024106Y020906D01*
X024106Y021025D02*
X005185Y021025D01*
X006888Y019839D02*
X019786Y019839D01*
X019786Y019786D02*
X019088Y019786D01*
X019099Y019698D01*
X019125Y019601D01*
X019163Y019509D01*
X019213Y019423D01*
X019274Y019344D01*
X019344Y019274D01*
X019423Y019213D01*
X019509Y019163D01*
X019601Y019125D01*
X019698Y019099D01*
X019786Y019088D01*
X019786Y019786D01*
X019786Y019721D02*
X019906Y019721D01*
X019906Y019839D02*
X022198Y019839D01*
X022213Y019884D02*
X022182Y019790D01*
X022168Y019701D01*
X022739Y019701D01*
X022739Y019581D01*
X022859Y019581D01*
X022859Y019011D01*
X022947Y019025D01*
X023042Y019055D01*
X023131Y019101D01*
X023211Y019159D01*
X023281Y019229D01*
X023340Y019310D01*
X023385Y019399D01*
X023416Y019493D01*
X023430Y019581D01*
X022859Y019581D01*
X022859Y019701D01*
X023430Y019701D01*
X023416Y019790D01*
X023385Y019884D01*
X023340Y019973D01*
X023281Y020054D01*
X023211Y020124D01*
X023131Y020182D01*
X023042Y020228D01*
X022947Y020258D01*
X022859Y020272D01*
X022859Y019702D01*
X022739Y019702D01*
X022739Y020272D01*
X022651Y020258D01*
X022556Y020228D01*
X022468Y020182D01*
X022387Y020124D01*
X022317Y020054D01*
X022258Y019973D01*
X022213Y019884D01*
X022250Y019958D02*
X020598Y019958D01*
X020571Y020077D02*
X022340Y020077D01*
X022492Y020195D02*
X020522Y020195D01*
X020446Y020314D02*
X026091Y020314D01*
X025973Y020195D02*
X023106Y020195D01*
X023259Y020077D02*
X025854Y020077D01*
X025736Y019958D02*
X023348Y019958D01*
X023400Y019839D02*
X025617Y019839D01*
X025499Y019721D02*
X023427Y019721D01*
X023413Y019484D02*
X025261Y019484D01*
X025143Y019365D02*
X023368Y019365D01*
X023294Y019247D02*
X025024Y019247D01*
X024906Y019128D02*
X023169Y019128D01*
X022859Y019128D02*
X022739Y019128D01*
X022739Y019011D02*
X022739Y019581D01*
X022168Y019581D01*
X022182Y019493D01*
X022213Y019399D01*
X022258Y019310D01*
X022317Y019229D01*
X022387Y019159D01*
X022468Y019101D01*
X022556Y019055D01*
X022651Y019025D01*
X022739Y019011D01*
X022739Y019247D02*
X022859Y019247D01*
X022859Y019365D02*
X022739Y019365D01*
X022739Y019484D02*
X022859Y019484D01*
X022859Y019602D02*
X025380Y019602D01*
X025595Y019365D02*
X027786Y019365D01*
X027668Y019247D02*
X025477Y019247D01*
X025358Y019128D02*
X027549Y019128D01*
X027431Y019010D02*
X025240Y019010D01*
X025121Y018891D02*
X027312Y018891D01*
X027194Y018773D02*
X025003Y018773D01*
X024884Y018654D02*
X027075Y018654D01*
X026956Y018535D02*
X024766Y018535D01*
X024647Y018417D02*
X026838Y018417D01*
X026719Y018298D02*
X024529Y018298D01*
X024410Y018180D02*
X026601Y018180D01*
X026482Y018061D02*
X024291Y018061D01*
X024173Y017943D02*
X025112Y017943D01*
X025139Y017958D02*
X025053Y017909D01*
X024974Y017848D01*
X024904Y017778D01*
X024843Y017699D01*
X024793Y017612D01*
X024755Y017520D01*
X024729Y017424D01*
X024718Y017335D01*
X025416Y017335D01*
X025416Y017215D01*
X025536Y017215D01*
X025536Y016517D01*
X025625Y016528D01*
X025721Y016554D01*
X025813Y016592D01*
X025899Y016642D01*
X025978Y016703D01*
X026049Y016773D01*
X026109Y016852D01*
X026159Y016939D01*
X026197Y017031D01*
X026223Y017127D01*
X026235Y017215D01*
X025536Y017215D01*
X025536Y017335D01*
X026235Y017335D01*
X026223Y017424D01*
X026197Y017520D01*
X026159Y017612D01*
X026109Y017699D01*
X026049Y017778D01*
X025978Y017848D01*
X025899Y017909D01*
X025813Y017958D01*
X025721Y017997D01*
X025625Y018022D01*
X025536Y018034D01*
X025536Y017336D01*
X025416Y017336D01*
X025416Y018034D01*
X025328Y018022D01*
X025231Y017997D01*
X025139Y017958D01*
X024950Y017824D02*
X024054Y017824D01*
X023936Y017706D02*
X024848Y017706D01*
X024783Y017587D02*
X023817Y017587D01*
X023699Y017469D02*
X024741Y017469D01*
X024719Y017350D02*
X023580Y017350D01*
X023462Y017231D02*
X025416Y017231D01*
X025416Y017215D02*
X024718Y017215D01*
X024729Y017127D01*
X024755Y017031D01*
X024793Y016939D01*
X024843Y016852D01*
X024904Y016773D01*
X024974Y016703D01*
X025053Y016642D01*
X025139Y016592D01*
X025231Y016554D01*
X025328Y016528D01*
X025416Y016517D01*
X025416Y017215D01*
X025416Y017113D02*
X025536Y017113D01*
X025536Y017231D02*
X026271Y017231D01*
X026271Y017113D02*
X026219Y017113D01*
X026182Y016994D02*
X026271Y016994D01*
X026271Y016876D02*
X026123Y016876D01*
X026033Y016757D02*
X026271Y016757D01*
X026271Y016639D02*
X025893Y016639D01*
X025563Y016520D02*
X026271Y016520D01*
X026271Y016402D02*
X022632Y016402D01*
X022750Y016520D02*
X025390Y016520D01*
X025416Y016520D02*
X025536Y016520D01*
X025536Y016639D02*
X025416Y016639D01*
X025416Y016757D02*
X025536Y016757D01*
X025536Y016876D02*
X025416Y016876D01*
X025416Y016994D02*
X025536Y016994D01*
X025536Y017350D02*
X025416Y017350D01*
X025416Y017469D02*
X025536Y017469D01*
X025536Y017587D02*
X025416Y017587D01*
X025416Y017706D02*
X025536Y017706D01*
X025536Y017824D02*
X025416Y017824D01*
X025416Y017943D02*
X025536Y017943D01*
X025840Y017943D02*
X026364Y017943D01*
X026271Y017824D02*
X026002Y017824D01*
X026104Y017706D02*
X026271Y017706D01*
X026271Y017587D02*
X026170Y017587D01*
X026211Y017469D02*
X026271Y017469D01*
X026271Y017350D02*
X026233Y017350D01*
X026611Y017469D02*
X026627Y017469D01*
X026611Y017587D02*
X026676Y017587D01*
X026739Y017706D02*
X026611Y017706D01*
X026726Y017824D02*
X026857Y017824D01*
X026845Y017943D02*
X027056Y017943D01*
X026963Y018061D02*
X031925Y018061D01*
X031925Y017943D02*
X029447Y017943D01*
X029320Y017995D02*
X029034Y017995D01*
X028769Y017886D01*
X028567Y017683D01*
X028457Y017419D01*
X028457Y017132D01*
X028567Y016868D01*
X028769Y016665D01*
X029034Y016555D01*
X029320Y016555D01*
X029585Y016665D01*
X029787Y016868D01*
X029897Y017132D01*
X029897Y017419D01*
X029787Y017683D01*
X029585Y017886D01*
X029320Y017995D01*
X029646Y017824D02*
X031925Y017824D01*
X031925Y017706D02*
X029765Y017706D01*
X029827Y017587D02*
X031936Y017587D01*
X031972Y017469D02*
X029876Y017469D01*
X029897Y017350D02*
X032009Y017350D01*
X032045Y017231D02*
X029897Y017231D01*
X029889Y017113D02*
X032089Y017113D01*
X032170Y016994D02*
X029840Y016994D01*
X029791Y016876D02*
X032250Y016876D01*
X032331Y016757D02*
X029677Y016757D01*
X029521Y016639D02*
X032452Y016639D01*
X032365Y016708D02*
X032365Y016708D01*
X032600Y016520D02*
X027497Y016520D01*
X027497Y016402D02*
X032749Y016402D01*
X033034Y016283D02*
X027497Y016283D01*
X027497Y016165D02*
X033728Y016165D01*
X033763Y016165D02*
X034412Y016165D01*
X034530Y016283D02*
X034265Y016283D01*
X034471Y016402D02*
X034649Y016402D01*
X034676Y016520D02*
X034767Y016520D01*
X034698Y016533D02*
X034698Y016533D01*
X034796Y016639D02*
X034886Y016639D01*
X034906Y016757D02*
X035004Y016757D01*
X035016Y016876D02*
X035123Y016876D01*
X035134Y016994D02*
X035088Y016994D01*
X034293Y016046D02*
X027497Y016046D01*
X027497Y015928D02*
X034175Y015928D01*
X034056Y015809D02*
X027497Y015809D01*
X027497Y015690D02*
X033988Y015690D01*
X033953Y015572D02*
X027497Y015572D01*
X027497Y015453D02*
X033953Y015453D01*
X033953Y015335D02*
X027497Y015335D01*
X027497Y015216D02*
X033953Y015216D01*
X033953Y015098D02*
X027497Y015098D01*
X027497Y014979D02*
X033953Y014979D01*
X033953Y014861D02*
X027497Y014861D01*
X027497Y014742D02*
X033953Y014742D01*
X033953Y014624D02*
X027497Y014624D01*
X027497Y014505D02*
X033953Y014505D01*
X033943Y014424D02*
X033872Y014494D01*
X032434Y014494D01*
X032364Y014424D01*
X032364Y013734D01*
X032434Y013663D01*
X033872Y013663D01*
X033943Y013734D01*
X033943Y014424D01*
X033943Y014386D02*
X033953Y014386D01*
X033943Y014268D02*
X033953Y014268D01*
X033943Y014149D02*
X033953Y014149D01*
X033943Y014031D02*
X033953Y014031D01*
X033943Y013912D02*
X033953Y013912D01*
X033943Y013794D02*
X033953Y013794D01*
X033953Y013675D02*
X033884Y013675D01*
X033953Y013557D02*
X029100Y013557D01*
X029100Y013665D02*
X029100Y013429D01*
X029010Y013211D01*
X028843Y013045D01*
X028626Y012955D01*
X028390Y012955D01*
X028172Y013045D01*
X028005Y013211D01*
X027915Y013429D01*
X027915Y013665D01*
X028005Y013883D01*
X028172Y014049D01*
X028390Y014140D01*
X028626Y014140D01*
X028843Y014049D01*
X029010Y013883D01*
X029100Y013665D01*
X029096Y013675D02*
X032422Y013675D01*
X032364Y013794D02*
X029047Y013794D01*
X028980Y013912D02*
X032364Y013912D01*
X032364Y014031D02*
X028862Y014031D01*
X029100Y013438D02*
X030145Y013438D01*
X030151Y013448D02*
X030130Y013412D01*
X030119Y013371D01*
X030119Y013192D01*
X030930Y013192D01*
X030930Y013510D01*
X030258Y013510D01*
X030218Y013499D01*
X030181Y013478D01*
X030151Y013448D01*
X030119Y013320D02*
X029055Y013320D01*
X029000Y013201D02*
X030119Y013201D01*
X030119Y013115D02*
X030119Y012935D01*
X030130Y012895D01*
X030151Y012858D01*
X030181Y012829D01*
X030218Y012807D01*
X030258Y012797D01*
X030930Y012797D01*
X030930Y013115D01*
X031007Y013115D01*
X031007Y013192D01*
X031817Y013192D01*
X031817Y013371D01*
X031806Y013412D01*
X031785Y013448D01*
X031756Y013478D01*
X031719Y013499D01*
X031678Y013510D01*
X031007Y013510D01*
X031007Y013192D01*
X030930Y013192D01*
X030930Y013115D01*
X030119Y013115D01*
X030119Y013082D02*
X028881Y013082D01*
X028648Y012964D02*
X030119Y012964D01*
X030164Y012845D02*
X028552Y012845D01*
X028569Y012727D02*
X033953Y012727D01*
X033953Y012845D02*
X031772Y012845D01*
X031785Y012858D02*
X031806Y012895D01*
X031817Y012935D01*
X031817Y013115D01*
X031007Y013115D01*
X031007Y012797D01*
X031678Y012797D01*
X031719Y012807D01*
X031756Y012829D01*
X031785Y012858D01*
X031817Y012964D02*
X033953Y012964D01*
X033953Y013082D02*
X031817Y013082D01*
X031817Y013201D02*
X033953Y013201D01*
X033953Y013320D02*
X031817Y013320D01*
X031791Y013438D02*
X033953Y013438D01*
X033953Y012608D02*
X031777Y012608D01*
X031777Y012490D02*
X033953Y012490D01*
X033953Y012371D02*
X031777Y012371D01*
X031777Y012253D02*
X033953Y012253D01*
X033953Y012134D02*
X031777Y012134D01*
X032364Y011786D02*
X032364Y011096D01*
X032434Y011026D01*
X033872Y011026D01*
X033943Y011096D01*
X033943Y011786D01*
X033872Y011856D01*
X032434Y011856D01*
X032364Y011786D01*
X032364Y011779D02*
X026513Y011779D01*
X026631Y011897D02*
X033953Y011897D01*
X033943Y011779D02*
X033953Y011779D01*
X033943Y011660D02*
X033953Y011660D01*
X033943Y011541D02*
X033953Y011541D01*
X033943Y011423D02*
X033953Y011423D01*
X033943Y011304D02*
X033953Y011304D01*
X033943Y011186D02*
X033953Y011186D01*
X033953Y011067D02*
X033914Y011067D01*
X033953Y010949D02*
X029702Y010949D01*
X029702Y010901D02*
X029702Y011075D01*
X029579Y011198D01*
X029405Y011198D01*
X029292Y011085D01*
X029184Y011194D01*
X029013Y011194D01*
X028904Y011085D01*
X028792Y011198D01*
X028618Y011198D01*
X028495Y011075D01*
X028495Y010901D01*
X028618Y010778D01*
X028792Y010778D01*
X028904Y010891D01*
X029013Y010782D01*
X029184Y010782D01*
X029292Y010891D01*
X029405Y010778D01*
X029579Y010778D01*
X029702Y010901D01*
X029631Y010830D02*
X033953Y010830D01*
X033953Y010712D02*
X026095Y010712D01*
X026214Y010830D02*
X028565Y010830D01*
X028495Y010949D02*
X026332Y010949D01*
X026451Y011067D02*
X028495Y011067D01*
X028605Y011186D02*
X026640Y011186D01*
X026651Y011304D02*
X032364Y011304D01*
X032364Y011186D02*
X029591Y011186D01*
X029702Y011067D02*
X032393Y011067D01*
X032364Y011423D02*
X026598Y011423D01*
X026394Y011660D02*
X032364Y011660D01*
X032364Y011541D02*
X026276Y011541D01*
X026283Y011423D02*
X026157Y011423D01*
X026231Y011304D02*
X026038Y011304D01*
X026117Y011186D02*
X025920Y011186D01*
X025998Y011067D02*
X025801Y011067D01*
X025880Y010949D02*
X025683Y010949D01*
X025761Y010830D02*
X025564Y010830D01*
X025643Y010712D02*
X025446Y010712D01*
X025524Y010593D02*
X025327Y010593D01*
X025406Y010475D02*
X025209Y010475D01*
X025287Y010356D02*
X025090Y010356D01*
X025169Y010237D02*
X024972Y010237D01*
X025050Y010119D02*
X024853Y010119D01*
X024932Y010000D02*
X024734Y010000D01*
X024813Y009882D02*
X024616Y009882D01*
X024694Y009763D02*
X023993Y009763D01*
X024791Y009408D02*
X026307Y009408D01*
X026426Y009526D02*
X024910Y009526D01*
X025028Y009645D02*
X026544Y009645D01*
X026663Y009763D02*
X025147Y009763D01*
X025266Y009882D02*
X026723Y009882D01*
X026829Y010000D02*
X025384Y010000D01*
X025503Y010119D02*
X033953Y010119D01*
X033953Y010237D02*
X025621Y010237D01*
X025740Y010356D02*
X033953Y010356D01*
X033953Y010475D02*
X025858Y010475D01*
X025977Y010593D02*
X033953Y010593D01*
X033953Y010000D02*
X027430Y010000D01*
X027537Y009882D02*
X033953Y009882D01*
X033953Y009763D02*
X027653Y009763D01*
X027772Y009645D02*
X033953Y009645D01*
X033953Y009526D02*
X027890Y009526D01*
X028009Y009408D02*
X033953Y009408D01*
X033953Y009289D02*
X028127Y009289D01*
X028246Y009171D02*
X033953Y009171D01*
X033953Y009052D02*
X028364Y009052D01*
X028483Y008933D02*
X032386Y008933D01*
X032364Y008815D02*
X028601Y008815D01*
X028720Y008696D02*
X032364Y008696D01*
X032364Y008578D02*
X028839Y008578D01*
X028957Y008459D02*
X032364Y008459D01*
X032364Y008341D02*
X029076Y008341D01*
X027799Y009052D02*
X026896Y009052D01*
X027015Y009171D02*
X027680Y009171D01*
X027562Y009289D02*
X027133Y009289D01*
X027323Y009408D02*
X027443Y009408D01*
X026918Y009526D02*
X026878Y009526D01*
X026799Y009408D02*
X026760Y009408D01*
X026681Y009289D02*
X026641Y009289D01*
X026562Y009171D02*
X026523Y009171D01*
X026502Y009150D02*
X026502Y009150D01*
X027036Y010000D02*
X027223Y010000D01*
X028844Y010830D02*
X028965Y010830D01*
X029232Y010830D02*
X029353Y010830D01*
X029393Y011186D02*
X029192Y011186D01*
X029005Y011186D02*
X028804Y011186D01*
X028440Y012134D02*
X026868Y012134D01*
X026750Y012016D02*
X033953Y012016D01*
X031007Y012845D02*
X030930Y012845D01*
X030930Y012964D02*
X031007Y012964D01*
X031007Y013082D02*
X030930Y013082D01*
X030930Y013201D02*
X031007Y013201D01*
X031007Y013320D02*
X030930Y013320D01*
X030930Y013438D02*
X031007Y013438D01*
X030159Y012608D02*
X028569Y012608D01*
X028569Y012490D02*
X029671Y012490D01*
X029796Y012134D02*
X030159Y012134D01*
X028367Y012964D02*
X028091Y012964D01*
X028134Y013082D02*
X027973Y013082D01*
X028016Y013201D02*
X027854Y013201D01*
X027961Y013320D02*
X027735Y013320D01*
X027617Y013438D02*
X027915Y013438D01*
X027915Y013557D02*
X027498Y013557D01*
X027497Y013675D02*
X027919Y013675D01*
X027969Y013794D02*
X027497Y013794D01*
X027497Y013912D02*
X028035Y013912D01*
X028154Y014031D02*
X027497Y014031D01*
X027497Y014149D02*
X032364Y014149D01*
X032364Y014268D02*
X027497Y014268D01*
X027497Y014386D02*
X032364Y014386D01*
X028833Y016639D02*
X027671Y016639D01*
X027827Y016757D02*
X028677Y016757D01*
X028563Y016876D02*
X027940Y016876D01*
X027989Y016994D02*
X028514Y016994D01*
X028465Y017113D02*
X028039Y017113D01*
X028047Y017231D02*
X028457Y017231D01*
X028457Y017350D02*
X028047Y017350D01*
X028026Y017469D02*
X028478Y017469D01*
X028527Y017587D02*
X027977Y017587D01*
X027915Y017706D02*
X028589Y017706D01*
X028708Y017824D02*
X027796Y017824D01*
X027597Y017943D02*
X028907Y017943D01*
X027674Y018773D02*
X032177Y018773D01*
X032258Y018891D02*
X027793Y018891D01*
X027911Y019010D02*
X032339Y019010D01*
X032466Y019128D02*
X028030Y019128D01*
X028149Y019247D02*
X032615Y019247D01*
X032763Y019365D02*
X028267Y019365D01*
X028386Y019484D02*
X033063Y019484D01*
X033517Y020100D02*
X034010Y020100D01*
X034080Y020171D01*
X034080Y020267D01*
X034090Y020267D01*
X034189Y020366D01*
X034542Y020719D01*
X034599Y020719D01*
X034722Y020842D01*
X034722Y021016D01*
X034599Y021139D01*
X034425Y021139D01*
X034302Y021016D01*
X034302Y020959D01*
X034063Y020721D01*
X034010Y020773D01*
X033517Y020773D01*
X033447Y020703D01*
X033447Y020171D01*
X033517Y020100D01*
X033447Y020195D02*
X033411Y020195D01*
X033411Y020314D02*
X033447Y020314D01*
X033447Y020432D02*
X033411Y020432D01*
X033411Y020551D02*
X033447Y020551D01*
X033447Y020669D02*
X033411Y020669D01*
X032777Y020669D02*
X031540Y020669D01*
X031658Y020788D02*
X034130Y020788D01*
X034249Y020906D02*
X031777Y020906D01*
X031895Y021025D02*
X034311Y021025D01*
X034492Y020669D02*
X035134Y020669D01*
X035134Y020551D02*
X034374Y020551D01*
X034255Y020432D02*
X035134Y020432D01*
X035134Y020314D02*
X034137Y020314D01*
X034080Y020195D02*
X035134Y020195D01*
X035134Y020077D02*
X031734Y020077D01*
X031853Y020195D02*
X032777Y020195D01*
X031728Y020551D02*
X031421Y020551D01*
X031302Y020432D02*
X031609Y020432D01*
X031684Y020507D02*
X031684Y020507D01*
X031491Y020314D02*
X031184Y020314D01*
X031065Y020195D02*
X031372Y020195D01*
X031254Y020077D02*
X030947Y020077D01*
X031379Y019721D02*
X035134Y019721D01*
X035134Y019839D02*
X031497Y019839D01*
X031616Y019958D02*
X035134Y019958D01*
X035134Y019602D02*
X028504Y019602D01*
X028260Y019839D02*
X026070Y019839D01*
X025951Y019721D02*
X028142Y019721D01*
X028023Y019602D02*
X025833Y019602D01*
X025714Y019484D02*
X027905Y019484D01*
X028379Y019958D02*
X026188Y019958D01*
X026307Y020077D02*
X026856Y020077D01*
X027556Y018654D02*
X032097Y018654D01*
X032049Y018535D02*
X027437Y018535D01*
X027319Y018417D02*
X032012Y018417D01*
X031976Y018298D02*
X027200Y018298D01*
X027082Y018180D02*
X031939Y018180D01*
X034232Y019484D02*
X035134Y019484D01*
X035134Y019365D02*
X034451Y019365D01*
X034656Y019247D02*
X035134Y019247D01*
X035134Y019128D02*
X034786Y019128D01*
X034896Y019010D02*
X035134Y019010D01*
X035134Y018891D02*
X035006Y018891D01*
X035083Y018773D02*
X035134Y018773D01*
X035134Y020788D02*
X034667Y020788D01*
X034722Y020906D02*
X035134Y020906D01*
X035134Y021025D02*
X034713Y021025D01*
X035134Y021143D02*
X032014Y021143D01*
X032583Y021262D02*
X035134Y021262D01*
X035134Y021381D02*
X032655Y021381D01*
X032655Y021499D02*
X035134Y021499D01*
X026271Y016283D02*
X022513Y016283D01*
X022395Y016165D02*
X026271Y016165D01*
X026271Y016046D02*
X022276Y016046D01*
X022158Y015928D02*
X026271Y015928D01*
X026271Y015809D02*
X022039Y015809D01*
X021921Y015690D02*
X026271Y015690D01*
X026271Y015572D02*
X021802Y015572D01*
X021684Y015453D02*
X026271Y015453D01*
X026271Y015335D02*
X021565Y015335D01*
X021446Y015216D02*
X026271Y015216D01*
X026271Y015098D02*
X021328Y015098D01*
X021209Y014979D02*
X026271Y014979D01*
X026271Y014861D02*
X021091Y014861D01*
X020972Y014742D02*
X026271Y014742D01*
X026271Y014624D02*
X020924Y014624D01*
X020540Y014624D02*
X018825Y014624D01*
X018825Y014742D02*
X020522Y014742D01*
X020568Y014861D02*
X018825Y014861D01*
X018873Y014505D02*
X026271Y014505D01*
X026271Y014386D02*
X022158Y014386D01*
X022222Y014268D02*
X026271Y014268D01*
X026271Y014149D02*
X023281Y014149D01*
X023304Y014031D02*
X026087Y014031D01*
X025968Y013912D02*
X023264Y013912D01*
X022915Y013675D02*
X022880Y013675D01*
X022880Y013557D02*
X022915Y013557D01*
X022915Y013438D02*
X022880Y013438D01*
X022880Y013320D02*
X022915Y013320D01*
X023165Y013082D02*
X024157Y013082D01*
X024375Y013082D02*
X024452Y013082D01*
X024452Y013072D02*
X024631Y013072D01*
X024672Y013083D01*
X024708Y013104D01*
X024738Y013134D01*
X024759Y013170D01*
X024770Y013211D01*
X024770Y013410D01*
X024452Y013410D01*
X024452Y013072D01*
X024452Y013201D02*
X024375Y013201D01*
X024375Y013320D02*
X024452Y013320D01*
X024452Y013438D02*
X025848Y013438D01*
X025848Y013557D02*
X024770Y013557D01*
X024770Y013675D02*
X025853Y013675D01*
X025902Y013794D02*
X024707Y013794D01*
X024452Y013794D02*
X024375Y013794D01*
X024375Y013675D02*
X024452Y013675D01*
X024452Y013557D02*
X024375Y013557D01*
X024119Y013794D02*
X022458Y013794D01*
X021900Y013320D02*
X021791Y013320D01*
X021725Y013438D02*
X021672Y013438D01*
X021607Y013557D02*
X021553Y013557D01*
X021909Y013201D02*
X022019Y013201D01*
X022028Y013082D02*
X022137Y013082D01*
X022146Y012964D02*
X022256Y012964D01*
X022265Y012845D02*
X022374Y012845D01*
X022928Y012845D02*
X026101Y012845D01*
X026085Y012727D02*
X026078Y012727D01*
X025812Y012727D02*
X024017Y012727D01*
X024136Y012608D02*
X025735Y012608D01*
X025735Y012490D02*
X025266Y012490D01*
X025321Y012371D02*
X025362Y012371D01*
X025551Y012371D02*
X025840Y012371D01*
X026120Y012016D02*
X026297Y012016D01*
X026238Y012134D02*
X026416Y012134D01*
X026179Y011897D02*
X025315Y011897D01*
X025705Y011423D02*
X024672Y011423D01*
X024672Y011420D02*
X024672Y011619D01*
X024661Y011660D01*
X024672Y011541D02*
X025823Y011541D01*
X025586Y011304D02*
X024672Y011304D01*
X024672Y011343D02*
X024353Y011343D01*
X024353Y011420D01*
X024672Y011420D01*
X024672Y011343D02*
X024672Y011144D01*
X024661Y011103D01*
X024640Y011067D01*
X024672Y011186D02*
X025467Y011186D01*
X025112Y010830D02*
X024632Y010830D01*
X024942Y010712D02*
X024993Y010712D01*
X024353Y011067D02*
X024276Y011067D01*
X024276Y011186D02*
X024353Y011186D01*
X024353Y011304D02*
X024276Y011304D01*
X024276Y011423D02*
X024353Y011423D01*
X024353Y011541D02*
X024276Y011541D01*
X024276Y011660D02*
X024353Y011660D01*
X024645Y011897D02*
X024693Y011897D01*
X024687Y012016D02*
X024651Y012016D01*
X024651Y012134D02*
X024687Y012134D01*
X024687Y012253D02*
X024651Y012253D01*
X024651Y012371D02*
X024687Y012371D01*
X024741Y012490D02*
X024597Y012490D01*
X024670Y013082D02*
X026067Y013082D01*
X025949Y013201D02*
X024767Y013201D01*
X024770Y013320D02*
X025894Y013320D01*
X026271Y012964D02*
X023047Y012964D01*
X021193Y012845D02*
X021168Y012845D01*
X020757Y014979D02*
X017491Y014979D01*
X017502Y014861D02*
X017522Y014861D01*
X017525Y015098D02*
X020875Y015098D01*
X020994Y015216D02*
X017525Y015216D01*
X017525Y015335D02*
X021112Y015335D01*
X021231Y015453D02*
X017525Y015453D01*
X017460Y015572D02*
X021350Y015572D01*
X021468Y015690D02*
X017001Y015690D01*
X016990Y015809D02*
X021587Y015809D01*
X021705Y015928D02*
X015920Y015928D01*
X015931Y015809D02*
X016600Y015809D01*
X016586Y015690D02*
X015931Y015690D01*
X016088Y015572D02*
X016124Y015572D01*
X016124Y015453D02*
X016088Y015453D01*
X016088Y015335D02*
X016124Y015335D01*
X016124Y015216D02*
X016088Y015216D01*
X016088Y015098D02*
X016124Y015098D01*
X015201Y014268D02*
X014986Y014268D01*
X014352Y014268D02*
X014317Y014268D01*
X014317Y014149D02*
X014352Y014149D01*
X014352Y014031D02*
X014317Y014031D01*
X014317Y013912D02*
X014352Y013912D01*
X014417Y013082D02*
X012281Y013082D01*
X012277Y012964D02*
X014368Y012964D01*
X014333Y012845D02*
X012158Y012845D01*
X011983Y012845D02*
X011497Y012845D01*
X011378Y012727D02*
X014333Y012727D01*
X014346Y012608D02*
X011260Y012608D01*
X011141Y012490D02*
X014395Y012490D01*
X014476Y012371D02*
X013051Y012371D01*
X012862Y012371D02*
X012658Y012371D01*
X012468Y012371D02*
X011083Y012371D01*
X010257Y012845D02*
X009770Y012845D01*
X009770Y012727D02*
X010138Y012727D01*
X010020Y012608D02*
X009770Y012608D01*
X009770Y012490D02*
X009901Y012490D01*
X009450Y012490D02*
X008531Y012490D01*
X008413Y012608D02*
X009450Y012608D01*
X009450Y012727D02*
X008294Y012727D01*
X008176Y012845D02*
X009450Y012845D01*
X009450Y012964D02*
X008057Y012964D01*
X007939Y013082D02*
X009450Y013082D01*
X009450Y013201D02*
X007820Y013201D01*
X007702Y013320D02*
X009054Y013320D01*
X009010Y013438D02*
X007583Y013438D01*
X007464Y013557D02*
X009033Y013557D01*
X009056Y013675D02*
X007346Y013675D01*
X007227Y013794D02*
X009056Y013794D01*
X009056Y013912D02*
X007109Y013912D01*
X006990Y014031D02*
X007949Y014031D01*
X007928Y014052D02*
X008048Y013932D01*
X008219Y013932D01*
X008340Y014052D01*
X008340Y014223D01*
X008219Y014344D01*
X008048Y014344D01*
X007928Y014223D01*
X007928Y014052D01*
X007928Y014149D02*
X006872Y014149D01*
X006753Y014268D02*
X007973Y014268D01*
X008295Y014268D02*
X009056Y014268D01*
X009056Y014386D02*
X006635Y014386D01*
X006516Y014505D02*
X009010Y014505D01*
X009017Y014624D02*
X006398Y014624D01*
X006279Y014742D02*
X010140Y014742D01*
X010140Y014798D02*
X010140Y014265D01*
X010210Y014195D01*
X010703Y014195D01*
X010773Y014265D01*
X010773Y014798D01*
X010763Y014808D01*
X010937Y014982D01*
X011294Y014982D01*
X011364Y015052D01*
X011364Y015585D01*
X011294Y015655D01*
X011148Y015655D01*
X011148Y015871D01*
X011198Y015921D01*
X011198Y016095D01*
X011075Y016218D01*
X010901Y016218D01*
X010778Y016095D01*
X010778Y015921D01*
X010828Y015871D01*
X010828Y015655D01*
X010801Y015655D01*
X010730Y015585D01*
X010730Y015228D01*
X010370Y014868D01*
X010210Y014868D01*
X010140Y014798D01*
X010203Y014861D02*
X006161Y014861D01*
X006042Y014979D02*
X010481Y014979D01*
X010600Y015098D02*
X009912Y015098D01*
X009946Y015112D02*
X010112Y015278D01*
X010203Y015496D01*
X010203Y015732D01*
X010112Y015950D01*
X009946Y016116D01*
X009728Y016206D01*
X009492Y016206D01*
X009274Y016116D01*
X009108Y015950D01*
X009018Y015732D01*
X009018Y015496D01*
X009108Y015278D01*
X009274Y015112D01*
X009492Y015021D01*
X009728Y015021D01*
X009946Y015112D01*
X010050Y015216D02*
X010718Y015216D01*
X010730Y015335D02*
X010136Y015335D01*
X010185Y015453D02*
X010730Y015453D01*
X010730Y015572D02*
X010203Y015572D01*
X010203Y015690D02*
X010828Y015690D01*
X010828Y015809D02*
X010171Y015809D01*
X010122Y015928D02*
X010778Y015928D01*
X010778Y016046D02*
X010016Y016046D01*
X009829Y016165D02*
X010848Y016165D01*
X011128Y016165D02*
X012324Y016165D01*
X012217Y016046D02*
X011198Y016046D01*
X011198Y015928D02*
X012099Y015928D01*
X011980Y015809D02*
X011148Y015809D01*
X011148Y015690D02*
X011862Y015690D01*
X011400Y015572D02*
X011364Y015572D01*
X011364Y015453D02*
X011400Y015453D01*
X011400Y015335D02*
X011364Y015335D01*
X011364Y015216D02*
X011400Y015216D01*
X011400Y015098D02*
X011364Y015098D01*
X011380Y014861D02*
X012469Y014861D01*
X012588Y014979D02*
X010934Y014979D01*
X010872Y014861D02*
X010815Y014861D01*
X010809Y014742D02*
X010773Y014742D01*
X010773Y014624D02*
X010809Y014624D01*
X010809Y014505D02*
X010773Y014505D01*
X010773Y014386D02*
X010809Y014386D01*
X010809Y014268D02*
X010773Y014268D01*
X010140Y014268D02*
X009376Y014268D01*
X009376Y014386D02*
X010140Y014386D01*
X010140Y014505D02*
X009422Y014505D01*
X009416Y014624D02*
X010140Y014624D01*
X010092Y014149D02*
X011565Y014149D01*
X011517Y014268D02*
X011443Y014268D01*
X011733Y014505D02*
X012113Y014505D01*
X012232Y014624D02*
X011614Y014624D01*
X011443Y014742D02*
X012350Y014742D01*
X012648Y015098D02*
X012033Y015098D01*
X012033Y015216D02*
X012754Y015216D01*
X012563Y015809D02*
X013750Y015809D01*
X013636Y015928D02*
X012674Y015928D01*
X012674Y016046D02*
X013636Y016046D01*
X013708Y016165D02*
X012604Y016165D01*
X009915Y014149D02*
X009376Y014149D01*
X009376Y014031D02*
X009797Y014031D01*
X009794Y013912D02*
X009376Y013912D01*
X009376Y013794D02*
X009854Y013794D01*
X009799Y013557D02*
X010968Y013557D01*
X011087Y013675D02*
X009376Y013675D01*
X009400Y013557D02*
X009421Y013557D01*
X009442Y013320D02*
X009379Y013320D01*
X009778Y013320D02*
X010731Y013320D01*
X010850Y013438D02*
X009820Y013438D01*
X009770Y013201D02*
X010613Y013201D01*
X010494Y013082D02*
X009770Y013082D01*
X009770Y012964D02*
X010376Y012964D01*
X009450Y012371D02*
X009114Y012371D01*
X009229Y012253D02*
X009450Y012253D01*
X009450Y012134D02*
X009281Y012134D01*
X009399Y012016D02*
X009450Y012016D01*
X008925Y012371D02*
X008650Y012371D01*
X008768Y012253D02*
X008810Y012253D01*
X008316Y012253D02*
X007727Y012253D01*
X007753Y012279D02*
X007643Y012169D01*
X007753Y012059D01*
X007753Y011885D01*
X007630Y011762D01*
X007456Y011762D01*
X007406Y011812D01*
X002784Y011812D01*
X002889Y011769D01*
X003070Y011588D01*
X003168Y011351D01*
X003168Y011094D01*
X003070Y010857D01*
X002889Y010675D01*
X002652Y010577D01*
X002395Y010577D01*
X002158Y010675D01*
X001977Y010857D01*
X001878Y011094D01*
X001878Y011351D01*
X001977Y011588D01*
X002158Y011769D01*
X002350Y011849D01*
X002313Y011885D01*
X002313Y012059D01*
X002350Y012096D01*
X002158Y012175D01*
X002128Y012206D01*
X001901Y012206D01*
X001159Y011464D01*
X001159Y011393D01*
X001036Y011270D01*
X000862Y011270D01*
X000739Y011393D01*
X000739Y011567D01*
X000862Y011690D01*
X000932Y011690D01*
X001768Y012526D01*
X001901Y012526D01*
X001907Y012526D01*
X001878Y012594D01*
X001878Y012851D01*
X001977Y013088D01*
X002158Y013269D01*
X002395Y013367D01*
X002652Y013367D01*
X002889Y013269D01*
X003070Y013088D01*
X003168Y012851D01*
X003168Y012594D01*
X003140Y012526D01*
X007406Y012526D01*
X007456Y012576D01*
X007630Y012576D01*
X007753Y012453D01*
X007753Y012279D01*
X007753Y012371D02*
X008197Y012371D01*
X008079Y012490D02*
X007716Y012490D01*
X007842Y012727D02*
X003168Y012727D01*
X003168Y012845D02*
X007723Y012845D01*
X007605Y012964D02*
X003121Y012964D01*
X003072Y013082D02*
X007486Y013082D01*
X007368Y013201D02*
X002957Y013201D01*
X002767Y013320D02*
X007249Y013320D01*
X007131Y013438D02*
X000621Y013438D01*
X000621Y013320D02*
X002280Y013320D01*
X002090Y013201D02*
X000621Y013201D01*
X000621Y013082D02*
X001975Y013082D01*
X001925Y012964D02*
X000621Y012964D01*
X000621Y012845D02*
X001878Y012845D01*
X001878Y012727D02*
X000621Y012727D01*
X000621Y012608D02*
X001878Y012608D01*
X001732Y012490D02*
X000621Y012490D01*
X000621Y012371D02*
X001613Y012371D01*
X001495Y012253D02*
X000621Y012253D01*
X000621Y012134D02*
X001376Y012134D01*
X001258Y012016D02*
X000621Y012016D01*
X000621Y011897D02*
X001139Y011897D01*
X001021Y011779D02*
X000621Y011779D01*
X000621Y011660D02*
X000831Y011660D01*
X000739Y011541D02*
X000621Y011541D01*
X000621Y011423D02*
X000739Y011423D01*
X000827Y011304D02*
X000621Y011304D01*
X000621Y011186D02*
X000849Y011186D01*
X000739Y011067D02*
X000621Y011067D01*
X000621Y010949D02*
X000739Y010949D01*
X000810Y010830D02*
X000621Y010830D01*
X000621Y010712D02*
X000999Y010712D01*
X001117Y010593D02*
X000621Y010593D01*
X000621Y010475D02*
X001236Y010475D01*
X001354Y010356D02*
X000621Y010356D01*
X000621Y010237D02*
X005710Y010237D01*
X005710Y010119D02*
X000621Y010119D01*
X000621Y010000D02*
X005710Y010000D01*
X005710Y009882D02*
X000621Y009882D01*
X000621Y009763D02*
X005710Y009763D01*
X005710Y009645D02*
X000621Y009645D01*
X000621Y009526D02*
X005710Y009526D01*
X005710Y009408D02*
X000621Y009408D01*
X000621Y009289D02*
X005710Y009289D01*
X005710Y009171D02*
X000621Y009171D01*
X000621Y009052D02*
X005710Y009052D01*
X005710Y008933D02*
X000621Y008933D01*
X000621Y008815D02*
X005710Y008815D01*
X005710Y008696D02*
X002683Y008696D01*
X002621Y008722D02*
X002426Y008722D01*
X002246Y008647D01*
X002108Y008510D01*
X002033Y008330D01*
X002033Y008135D01*
X002108Y007955D01*
X002246Y007817D01*
X002426Y007742D01*
X002621Y007742D01*
X002801Y007817D01*
X002939Y007955D01*
X003013Y008135D01*
X003013Y008330D01*
X002939Y008510D01*
X002801Y008647D01*
X002621Y008722D01*
X002364Y008696D02*
X000621Y008696D01*
X000621Y008578D02*
X002176Y008578D01*
X002087Y008459D02*
X000621Y008459D01*
X000621Y008341D02*
X002038Y008341D01*
X002033Y008222D02*
X000621Y008222D01*
X000621Y008104D02*
X002046Y008104D01*
X002095Y007985D02*
X000621Y007985D01*
X000621Y007867D02*
X002196Y007867D01*
X002246Y007647D02*
X002426Y007722D01*
X002621Y007722D01*
X002801Y007647D01*
X002939Y007510D01*
X003013Y007330D01*
X003013Y007135D01*
X002939Y006955D01*
X002801Y006817D01*
X002640Y006750D01*
X002648Y006749D01*
X002727Y006723D01*
X002801Y006685D01*
X002869Y006636D01*
X002928Y006577D01*
X002977Y006510D01*
X003015Y006436D01*
X003040Y006356D01*
X003053Y006274D01*
X003053Y006272D01*
X002564Y006272D01*
X002564Y006192D01*
X003053Y006192D01*
X003053Y006190D01*
X003040Y006108D01*
X003015Y006029D01*
X002977Y005954D01*
X002928Y005887D01*
X002869Y005828D01*
X002801Y005779D01*
X002727Y005741D01*
X002648Y005715D01*
X002565Y005702D01*
X002563Y005702D01*
X002563Y006192D01*
X002483Y006192D01*
X001993Y006192D01*
X001993Y006190D01*
X002006Y006108D01*
X002032Y006029D01*
X002070Y005954D01*
X002119Y005887D01*
X002178Y005828D01*
X002246Y005779D01*
X002320Y005741D01*
X002399Y005715D01*
X002482Y005702D01*
X002483Y005702D01*
X002483Y006192D01*
X002483Y006272D01*
X001993Y006272D01*
X001993Y006274D01*
X002006Y006356D01*
X002032Y006436D01*
X002070Y006510D01*
X002119Y006577D01*
X002178Y006636D01*
X002246Y006685D01*
X002320Y006723D01*
X002399Y006749D01*
X002407Y006750D01*
X002246Y006817D01*
X002108Y006955D01*
X002033Y007135D01*
X002033Y007330D01*
X002108Y007510D01*
X002246Y007647D01*
X002228Y007629D02*
X000621Y007629D01*
X000621Y007511D02*
X002109Y007511D01*
X002060Y007392D02*
X000621Y007392D01*
X000621Y007274D02*
X002033Y007274D01*
X002033Y007155D02*
X000621Y007155D01*
X000621Y007037D02*
X002074Y007037D01*
X002144Y006918D02*
X000621Y006918D01*
X000621Y006800D02*
X002287Y006800D01*
X002240Y006681D02*
X000621Y006681D01*
X000621Y006563D02*
X002109Y006563D01*
X002037Y006444D02*
X000621Y006444D01*
X000621Y006326D02*
X002002Y006326D01*
X002013Y006088D02*
X000621Y006088D01*
X000621Y005970D02*
X002062Y005970D01*
X002155Y005851D02*
X000621Y005851D01*
X000621Y005733D02*
X002345Y005733D01*
X002483Y005733D02*
X002563Y005733D01*
X002563Y005851D02*
X002483Y005851D01*
X002483Y005970D02*
X002563Y005970D01*
X002563Y006088D02*
X002483Y006088D01*
X002483Y006207D02*
X000621Y006207D01*
X000621Y005614D02*
X007080Y005614D01*
X006962Y005733D02*
X005175Y005733D01*
X005163Y005725D02*
X005231Y005774D01*
X005290Y005833D01*
X005339Y005900D01*
X005377Y005974D01*
X005403Y006054D01*
X005416Y006136D01*
X005416Y006138D01*
X004926Y006138D01*
X004926Y006218D01*
X005416Y006218D01*
X005416Y006220D01*
X005403Y006302D01*
X005377Y006381D01*
X005339Y006456D01*
X005290Y006523D01*
X005231Y006582D01*
X005163Y006631D01*
X005089Y006669D01*
X005010Y006695D01*
X004927Y006708D01*
X004926Y006708D01*
X004926Y006218D01*
X004846Y006218D01*
X004846Y006708D01*
X004844Y006708D01*
X004762Y006695D01*
X004682Y006669D01*
X004608Y006631D01*
X004540Y006582D01*
X004481Y006523D01*
X004432Y006456D01*
X004394Y006381D01*
X004369Y006302D01*
X004356Y006220D01*
X004356Y006218D01*
X004845Y006218D01*
X004845Y006138D01*
X004356Y006138D01*
X004356Y006136D01*
X004369Y006054D01*
X004394Y005974D01*
X004432Y005900D01*
X004481Y005833D01*
X004540Y005774D01*
X004608Y005725D01*
X004682Y005687D01*
X004762Y005661D01*
X004844Y005648D01*
X004846Y005648D01*
X004846Y006138D01*
X004926Y006138D01*
X004926Y005648D01*
X004927Y005648D01*
X005010Y005661D01*
X005089Y005687D01*
X005163Y005725D01*
X005304Y005851D02*
X006843Y005851D01*
X006725Y005970D02*
X005374Y005970D01*
X005408Y006088D02*
X006606Y006088D01*
X006488Y006207D02*
X004926Y006207D01*
X004845Y006207D02*
X002564Y006207D01*
X002985Y005970D02*
X004397Y005970D01*
X004363Y006088D02*
X003034Y006088D01*
X003045Y006326D02*
X004376Y006326D01*
X004426Y006444D02*
X003010Y006444D01*
X002938Y006563D02*
X004521Y006563D01*
X004720Y006681D02*
X002807Y006681D01*
X002760Y006800D02*
X005895Y006800D01*
X005776Y006918D02*
X005179Y006918D01*
X005163Y006902D02*
X005301Y007040D01*
X005376Y007220D01*
X005376Y007415D01*
X005301Y007595D01*
X005163Y007733D01*
X004983Y007808D01*
X004788Y007808D01*
X004608Y007733D01*
X004470Y007595D01*
X004396Y007415D01*
X004396Y007220D01*
X004470Y007040D01*
X004608Y006902D01*
X004788Y006828D01*
X004983Y006828D01*
X005163Y006902D01*
X005298Y007037D02*
X005710Y007037D01*
X005710Y007155D02*
X005349Y007155D01*
X005376Y007274D02*
X005710Y007274D01*
X005710Y007392D02*
X005376Y007392D01*
X005336Y007511D02*
X005710Y007511D01*
X005710Y007629D02*
X005267Y007629D01*
X005128Y007748D02*
X005710Y007748D01*
X005710Y007867D02*
X002851Y007867D01*
X002951Y007985D02*
X005710Y007985D01*
X005710Y008104D02*
X003001Y008104D01*
X003013Y008222D02*
X005710Y008222D01*
X005710Y008341D02*
X003009Y008341D01*
X002960Y008459D02*
X005710Y008459D01*
X005710Y008578D02*
X002871Y008578D01*
X002635Y007748D02*
X004644Y007748D01*
X004504Y007629D02*
X002819Y007629D01*
X002938Y007511D02*
X004435Y007511D01*
X004396Y007392D02*
X002987Y007392D01*
X003013Y007274D02*
X004396Y007274D01*
X004423Y007155D02*
X003013Y007155D01*
X002973Y007037D02*
X004474Y007037D01*
X004592Y006918D02*
X002903Y006918D01*
X002412Y007748D02*
X000621Y007748D01*
X002702Y005733D02*
X004597Y005733D01*
X004468Y005851D02*
X002892Y005851D01*
X004846Y005851D02*
X004926Y005851D01*
X004926Y005733D02*
X004846Y005733D01*
X004846Y005970D02*
X004926Y005970D01*
X004926Y006088D02*
X004846Y006088D01*
X004846Y006326D02*
X004926Y006326D01*
X004926Y006444D02*
X004846Y006444D01*
X004846Y006563D02*
X004926Y006563D01*
X004926Y006681D02*
X004846Y006681D01*
X005052Y006681D02*
X006014Y006681D01*
X006132Y006563D02*
X005250Y006563D01*
X005345Y006444D02*
X006251Y006444D01*
X006369Y006326D02*
X005395Y006326D01*
X006229Y006918D02*
X006841Y006918D01*
X006841Y006800D02*
X006347Y006800D01*
X006466Y006681D02*
X006927Y006681D01*
X007175Y006681D02*
X008613Y006681D01*
X008620Y006563D02*
X006585Y006563D01*
X006703Y006444D02*
X008810Y006444D01*
X008928Y006326D02*
X006822Y006326D01*
X006940Y006207D02*
X009047Y006207D01*
X009155Y006088D02*
X007059Y006088D01*
X007177Y005970D02*
X009155Y005970D01*
X009155Y005851D02*
X007296Y005851D01*
X007414Y005733D02*
X009155Y005733D01*
X009155Y005614D02*
X007533Y005614D01*
X007651Y005496D02*
X009155Y005496D01*
X009155Y005377D02*
X007770Y005377D01*
X007889Y005259D02*
X009155Y005259D01*
X009155Y005140D02*
X008007Y005140D01*
X008126Y005022D02*
X009155Y005022D01*
X009155Y004903D02*
X008244Y004903D01*
X008363Y004784D02*
X009155Y004784D01*
X009155Y004666D02*
X008481Y004666D01*
X008600Y004547D02*
X009155Y004547D01*
X009250Y004429D02*
X008718Y004429D01*
X008837Y004310D02*
X009369Y004310D01*
X009487Y004192D02*
X008955Y004192D01*
X009074Y004073D02*
X009606Y004073D01*
X009724Y003955D02*
X009193Y003955D01*
X009311Y003836D02*
X009843Y003836D01*
X009961Y003718D02*
X009430Y003718D01*
X009214Y003480D02*
X003192Y003480D01*
X003307Y003362D02*
X009333Y003362D01*
X009096Y003599D02*
X002986Y003599D01*
X002781Y003718D02*
X008977Y003718D01*
X008859Y003836D02*
X002297Y003836D01*
X002141Y003836D02*
X000621Y003836D01*
X000621Y003718D02*
X001520Y003718D01*
X001244Y003599D02*
X000621Y003599D01*
X000621Y003480D02*
X001096Y003480D01*
X000947Y003362D02*
X000621Y003362D01*
X000621Y003243D02*
X000831Y003243D01*
X000750Y003125D02*
X000621Y003125D01*
X000621Y003006D02*
X000669Y003006D01*
X000621Y003955D02*
X008740Y003955D01*
X008621Y004073D02*
X000621Y004073D01*
X000621Y004192D02*
X008503Y004192D01*
X008384Y004310D02*
X000621Y004310D01*
X000621Y004429D02*
X008266Y004429D01*
X008147Y004547D02*
X000621Y004547D01*
X000621Y004666D02*
X008029Y004666D01*
X007910Y004784D02*
X000621Y004784D01*
X000621Y004903D02*
X007792Y004903D01*
X007673Y005022D02*
X000621Y005022D01*
X000621Y005140D02*
X007555Y005140D01*
X007436Y005259D02*
X000621Y005259D01*
X000621Y005377D02*
X007317Y005377D01*
X007199Y005496D02*
X000621Y005496D01*
X003417Y003243D02*
X010445Y003243D01*
X010396Y003125D02*
X003527Y003125D01*
X003595Y003006D02*
X010371Y003006D01*
X010371Y002888D02*
X003652Y002888D01*
X003710Y002769D02*
X010371Y002769D01*
X010420Y002651D02*
X003767Y002651D01*
X003789Y002532D02*
X010469Y002532D01*
X010569Y002414D02*
X003807Y002414D01*
X003825Y002295D02*
X010688Y002295D01*
X011524Y002295D02*
X024231Y002295D01*
X024113Y002414D02*
X011643Y002414D01*
X011743Y002532D02*
X024013Y002532D01*
X023964Y002651D02*
X011792Y002651D01*
X011841Y002769D02*
X023914Y002769D01*
X023914Y002888D02*
X011842Y002888D01*
X011842Y003006D02*
X023914Y003006D01*
X023939Y003125D02*
X011816Y003125D01*
X011767Y003243D02*
X023988Y003243D01*
X024054Y003362D02*
X020124Y003362D01*
X020242Y003480D02*
X024172Y003480D01*
X024373Y003599D02*
X020361Y003599D01*
X020145Y003836D02*
X017448Y003836D01*
X017330Y003718D02*
X020027Y003718D01*
X020264Y003955D02*
X017567Y003955D01*
X017685Y004073D02*
X020382Y004073D01*
X020501Y004192D02*
X018662Y004192D01*
X018678Y004310D02*
X020619Y004310D01*
X020738Y004429D02*
X018997Y004429D01*
X018949Y004380D02*
X019072Y004503D01*
X019072Y004677D01*
X019022Y004727D01*
X019022Y006532D01*
X019022Y006665D01*
X018726Y006960D01*
X018726Y007317D01*
X018656Y007388D01*
X018163Y007388D01*
X018092Y007317D01*
X018092Y006785D01*
X018163Y006714D01*
X018520Y006714D01*
X018702Y006532D01*
X018702Y004727D01*
X018652Y004677D01*
X018652Y004503D01*
X018775Y004380D01*
X018949Y004380D01*
X019072Y004547D02*
X020857Y004547D01*
X020975Y004666D02*
X019072Y004666D01*
X019022Y004784D02*
X021094Y004784D01*
X021212Y004903D02*
X019022Y004903D01*
X019022Y005022D02*
X021331Y005022D01*
X021449Y005140D02*
X019022Y005140D01*
X019022Y005259D02*
X021568Y005259D01*
X021686Y005377D02*
X019022Y005377D01*
X019022Y005496D02*
X021055Y005496D01*
X021106Y005474D02*
X020889Y005564D01*
X020722Y005731D01*
X020632Y005949D01*
X020632Y006185D01*
X020722Y006402D01*
X020889Y006569D01*
X021106Y006659D01*
X021342Y006659D01*
X021560Y006569D01*
X021727Y006402D01*
X021817Y006185D01*
X021817Y005949D01*
X021727Y005731D01*
X021560Y005564D01*
X021342Y005474D01*
X021106Y005474D01*
X021394Y005496D02*
X021805Y005496D01*
X021923Y005614D02*
X021610Y005614D01*
X021727Y005733D02*
X022042Y005733D01*
X022161Y005851D02*
X021776Y005851D01*
X021817Y005970D02*
X022279Y005970D01*
X022398Y006088D02*
X021817Y006088D01*
X021807Y006207D02*
X022516Y006207D01*
X022635Y006326D02*
X021758Y006326D01*
X021685Y006444D02*
X022753Y006444D01*
X022872Y006563D02*
X021566Y006563D01*
X020882Y006563D02*
X019022Y006563D01*
X019022Y006444D02*
X020764Y006444D01*
X020690Y006326D02*
X019022Y006326D01*
X019022Y006207D02*
X020641Y006207D01*
X020632Y006088D02*
X019022Y006088D01*
X019022Y005970D02*
X020632Y005970D01*
X020672Y005851D02*
X019022Y005851D01*
X019022Y005733D02*
X020721Y005733D01*
X020839Y005614D02*
X019022Y005614D01*
X018702Y005614D02*
X018460Y005614D01*
X018578Y005733D02*
X018702Y005733D01*
X018702Y005851D02*
X018627Y005851D01*
X018667Y005970D02*
X018702Y005970D01*
X018702Y006088D02*
X018667Y006088D01*
X018658Y006207D02*
X018702Y006207D01*
X018702Y006326D02*
X018609Y006326D01*
X018535Y006444D02*
X018702Y006444D01*
X018671Y006563D02*
X018417Y006563D01*
X018553Y006681D02*
X016899Y006681D01*
X017018Y006563D02*
X017733Y006563D01*
X017614Y006444D02*
X017136Y006444D01*
X017255Y006326D02*
X017541Y006326D01*
X017491Y006207D02*
X017373Y006207D01*
X017423Y006800D02*
X016781Y006800D01*
X016662Y006918D02*
X017194Y006918D01*
X017075Y007037D02*
X016543Y007037D01*
X016425Y007155D02*
X016957Y007155D01*
X016838Y007274D02*
X016306Y007274D01*
X016188Y007392D02*
X016720Y007392D01*
X016601Y007511D02*
X016365Y007511D01*
X016411Y007629D02*
X016482Y007629D01*
X016698Y007867D02*
X024176Y007867D01*
X024294Y007985D02*
X017559Y007985D01*
X017554Y007980D02*
X017638Y008064D01*
X017683Y008173D01*
X017683Y008291D01*
X017638Y008400D01*
X017554Y008484D01*
X017445Y008529D01*
X017327Y008529D01*
X017217Y008484D01*
X017134Y008400D01*
X017089Y008291D01*
X017089Y008173D01*
X017134Y008064D01*
X017217Y007980D01*
X017327Y007935D01*
X017445Y007935D01*
X017554Y007980D01*
X017654Y008104D02*
X024413Y008104D01*
X024531Y008222D02*
X017683Y008222D01*
X017662Y008341D02*
X020447Y008341D01*
X020476Y008329D02*
X020594Y008329D01*
X020704Y008374D01*
X020787Y008457D01*
X020832Y008567D01*
X020832Y008685D01*
X020787Y008794D01*
X020704Y008878D01*
X020594Y008923D01*
X020476Y008923D01*
X020367Y008878D01*
X020283Y008794D01*
X020238Y008685D01*
X020238Y008567D01*
X020283Y008457D01*
X020367Y008374D01*
X020476Y008329D01*
X020624Y008341D02*
X022219Y008341D01*
X022248Y008329D02*
X022366Y008329D01*
X022475Y008374D01*
X022559Y008457D01*
X022604Y008567D01*
X022604Y008685D01*
X022559Y008794D01*
X022475Y008878D01*
X022366Y008923D01*
X022248Y008923D01*
X022139Y008878D01*
X022055Y008794D01*
X022010Y008685D01*
X022010Y008567D01*
X022055Y008457D01*
X022139Y008374D01*
X022248Y008329D01*
X022395Y008341D02*
X024650Y008341D01*
X024768Y008459D02*
X022560Y008459D01*
X022604Y008578D02*
X024887Y008578D01*
X025006Y008696D02*
X022599Y008696D01*
X022538Y008815D02*
X025124Y008815D01*
X025243Y008933D02*
X015631Y008933D01*
X015750Y008815D02*
X020304Y008815D01*
X020243Y008696D02*
X015868Y008696D01*
X015987Y008578D02*
X020238Y008578D01*
X020283Y008459D02*
X017579Y008459D01*
X017193Y008459D02*
X016105Y008459D01*
X016224Y008341D02*
X017109Y008341D01*
X017089Y008222D02*
X016342Y008222D01*
X016461Y008104D02*
X017117Y008104D01*
X017212Y007985D02*
X016579Y007985D01*
X016816Y007748D02*
X019169Y007748D01*
X019148Y007727D02*
X019148Y007556D01*
X019269Y007436D01*
X019440Y007436D01*
X019560Y007556D01*
X019560Y007727D01*
X019440Y007848D01*
X019269Y007848D01*
X019148Y007727D01*
X019148Y007629D02*
X016935Y007629D01*
X017054Y007511D02*
X019193Y007511D01*
X019515Y007511D02*
X022343Y007511D01*
X022298Y007556D02*
X022418Y007436D01*
X022589Y007436D01*
X022710Y007556D01*
X022710Y007727D01*
X022589Y007848D01*
X022418Y007848D01*
X022298Y007727D01*
X022298Y007556D01*
X022298Y007629D02*
X019560Y007629D01*
X019539Y007748D02*
X022319Y007748D01*
X022689Y007748D02*
X024057Y007748D01*
X023939Y007629D02*
X022710Y007629D01*
X022665Y007511D02*
X023820Y007511D01*
X023702Y007392D02*
X017172Y007392D01*
X017291Y007274D02*
X017423Y007274D01*
X018057Y007274D02*
X018092Y007274D01*
X018092Y007155D02*
X018057Y007155D01*
X018057Y007037D02*
X018092Y007037D01*
X018092Y006918D02*
X018057Y006918D01*
X018057Y006800D02*
X018092Y006800D01*
X018726Y007037D02*
X023346Y007037D01*
X023464Y007155D02*
X018726Y007155D01*
X018726Y007274D02*
X023583Y007274D01*
X023227Y006918D02*
X018768Y006918D01*
X018887Y006800D02*
X023109Y006800D01*
X022990Y006681D02*
X019005Y006681D01*
X018702Y005496D02*
X018244Y005496D01*
X018203Y005377D02*
X018702Y005377D01*
X018702Y005259D02*
X018322Y005259D01*
X018440Y005140D02*
X018702Y005140D01*
X018702Y005022D02*
X018559Y005022D01*
X018628Y004903D02*
X018702Y004903D01*
X018702Y004784D02*
X018628Y004784D01*
X018628Y004666D02*
X018652Y004666D01*
X018652Y004547D02*
X018628Y004547D01*
X018632Y004429D02*
X018727Y004429D01*
X018305Y004429D02*
X018210Y004429D01*
X018258Y004310D02*
X017891Y004310D01*
X017875Y004192D02*
X018275Y004192D01*
X017939Y004429D02*
X017844Y004429D01*
X017865Y004547D02*
X017497Y004547D01*
X017497Y004666D02*
X017865Y004666D01*
X017915Y004784D02*
X017390Y004784D01*
X017184Y004784D02*
X016660Y004784D01*
X016660Y004903D02*
X017831Y004903D01*
X017712Y005022D02*
X016660Y005022D01*
X016660Y005140D02*
X017594Y005140D01*
X017475Y005259D02*
X016660Y005259D01*
X016660Y005377D02*
X017357Y005377D01*
X017238Y005496D02*
X016660Y005496D01*
X016660Y005614D02*
X017120Y005614D01*
X017001Y005733D02*
X016660Y005733D01*
X016660Y005851D02*
X016883Y005851D01*
X016764Y005970D02*
X016660Y005970D01*
X016340Y005970D02*
X016232Y005970D01*
X016252Y006088D02*
X016114Y006088D01*
X016133Y006207D02*
X015995Y006207D01*
X016015Y006326D02*
X015877Y006326D01*
X015896Y006444D02*
X015758Y006444D01*
X015778Y006563D02*
X015640Y006563D01*
X015659Y006681D02*
X015521Y006681D01*
X015541Y006800D02*
X015403Y006800D01*
X015422Y006918D02*
X015284Y006918D01*
X015304Y007037D02*
X015166Y007037D01*
X015185Y007155D02*
X015047Y007155D01*
X015066Y007274D02*
X014928Y007274D01*
X014948Y007392D02*
X014810Y007392D01*
X014829Y007511D02*
X014691Y007511D01*
X014711Y007629D02*
X014573Y007629D01*
X014592Y007748D02*
X014454Y007748D01*
X014568Y007867D02*
X014336Y007867D01*
X014409Y007985D02*
X014568Y007985D01*
X014568Y008104D02*
X014504Y008104D01*
X014533Y008222D02*
X014568Y008222D01*
X014568Y008341D02*
X014513Y008341D01*
X014472Y008459D02*
X014429Y008459D01*
X014353Y008578D02*
X013904Y008578D01*
X013904Y008696D02*
X014234Y008696D01*
X014116Y008815D02*
X013904Y008815D01*
X013904Y008933D02*
X013997Y008933D01*
X014043Y008459D02*
X013904Y008459D01*
X013904Y008341D02*
X013959Y008341D01*
X013646Y008104D02*
X013510Y008104D01*
X013584Y008166D02*
X015124Y006626D01*
X015043Y006659D01*
X014807Y006659D01*
X014589Y006569D01*
X014423Y006402D01*
X014333Y006185D01*
X014333Y005949D01*
X014366Y005868D01*
X013510Y006724D01*
X013510Y008953D01*
X013510Y009027D01*
X013584Y008953D01*
X013584Y008298D01*
X013584Y008166D01*
X013584Y008222D02*
X013510Y008222D01*
X013510Y008341D02*
X013584Y008341D01*
X013584Y008459D02*
X013510Y008459D01*
X013510Y008578D02*
X013584Y008578D01*
X013584Y008696D02*
X013510Y008696D01*
X013510Y008815D02*
X013584Y008815D01*
X013584Y008933D02*
X013510Y008933D01*
X012541Y008933D02*
X011106Y008933D01*
X011128Y008912D02*
X011081Y008959D01*
X011451Y008959D01*
X011521Y009029D01*
X011521Y009522D01*
X011451Y009592D01*
X010919Y009592D01*
X010848Y009522D01*
X010848Y009435D01*
X010734Y009435D01*
X010734Y009522D01*
X010664Y009592D01*
X010131Y009592D01*
X010061Y009522D01*
X010061Y009029D01*
X010085Y009004D01*
X009991Y008910D01*
X009991Y008736D01*
X010114Y008613D01*
X010288Y008613D01*
X010411Y008736D01*
X010411Y008806D01*
X010455Y008850D01*
X010455Y008419D01*
X010525Y008348D01*
X011057Y008348D01*
X011128Y008419D01*
X011128Y008457D01*
X011373Y008212D01*
X011373Y008147D01*
X011493Y008026D01*
X011664Y008026D01*
X011710Y008072D01*
X011714Y008072D01*
X011714Y007966D01*
X011785Y007896D01*
X012278Y007896D01*
X012348Y007966D01*
X012348Y008498D01*
X012278Y008569D01*
X011785Y008569D01*
X011714Y008498D01*
X011714Y008392D01*
X011710Y008392D01*
X011664Y008438D01*
X011599Y008438D01*
X011212Y008825D01*
X011128Y008825D01*
X011128Y008912D01*
X011222Y008815D02*
X012541Y008815D01*
X012541Y008696D02*
X011341Y008696D01*
X011459Y008578D02*
X012541Y008578D01*
X012384Y008459D02*
X012348Y008459D01*
X012348Y008341D02*
X012384Y008341D01*
X012384Y008222D02*
X012348Y008222D01*
X012348Y008104D02*
X012384Y008104D01*
X012384Y007985D02*
X012348Y007985D01*
X012541Y007867D02*
X011580Y007867D01*
X011461Y007985D02*
X011714Y007985D01*
X011698Y007748D02*
X012541Y007748D01*
X012541Y007629D02*
X011817Y007629D01*
X011935Y007511D02*
X012541Y007511D01*
X012541Y007392D02*
X012054Y007392D01*
X012173Y007274D02*
X012541Y007274D01*
X012541Y007155D02*
X012291Y007155D01*
X012410Y007037D02*
X012541Y007037D01*
X012528Y006918D02*
X012541Y006918D01*
X011835Y006681D02*
X011715Y006681D01*
X011715Y006698D02*
X011627Y006684D01*
X011533Y006653D01*
X011493Y006633D01*
X011493Y006744D01*
X011370Y006867D01*
X011300Y006867D01*
X011192Y006975D01*
X011128Y006975D01*
X011128Y007061D01*
X011057Y007132D01*
X010525Y007132D01*
X010455Y007061D01*
X010455Y006568D01*
X010525Y006498D01*
X011057Y006498D01*
X011102Y006542D01*
X011196Y006447D01*
X011270Y006447D01*
X011234Y006398D01*
X011189Y006310D01*
X011159Y006215D01*
X011145Y006127D01*
X011715Y006127D01*
X011715Y006698D01*
X011620Y006681D02*
X011493Y006681D01*
X011438Y006800D02*
X011800Y006800D01*
X011682Y006918D02*
X011249Y006918D01*
X011128Y007037D02*
X011563Y007037D01*
X011445Y007155D02*
X010458Y007155D01*
X010455Y007037D02*
X010415Y007037D01*
X010455Y006918D02*
X009280Y006918D01*
X009199Y007037D02*
X007165Y007037D01*
X006937Y007037D02*
X006110Y007037D01*
X006030Y007155D02*
X009155Y007155D01*
X009399Y006800D02*
X010455Y006800D01*
X010455Y006681D02*
X009517Y006681D01*
X009578Y006620D02*
X009578Y006620D01*
X009636Y006563D02*
X010460Y006563D01*
X009868Y007037D02*
X009746Y007037D01*
X009789Y007155D02*
X009825Y007155D01*
X009825Y007274D02*
X009789Y007274D01*
X009789Y007392D02*
X009825Y007392D01*
X009825Y007511D02*
X009789Y007511D01*
X009772Y007629D02*
X009842Y007629D01*
X009826Y007867D02*
X009788Y007867D01*
X009789Y007985D02*
X009825Y007985D01*
X009825Y008104D02*
X009789Y008104D01*
X009789Y008222D02*
X009825Y008222D01*
X009825Y008341D02*
X009789Y008341D01*
X009730Y008459D02*
X009884Y008459D01*
X010030Y008696D02*
X006620Y008696D01*
X006620Y008578D02*
X010455Y008578D01*
X010455Y008696D02*
X010371Y008696D01*
X010419Y008815D02*
X010455Y008815D01*
X010455Y008459D02*
X010399Y008459D01*
X010458Y008341D02*
X011244Y008341D01*
X011128Y008222D02*
X011362Y008222D01*
X011343Y008104D02*
X011416Y008104D01*
X011578Y008459D02*
X011714Y008459D01*
X011521Y009052D02*
X012541Y009052D01*
X012541Y009171D02*
X011521Y009171D01*
X011521Y009289D02*
X012461Y009289D01*
X012342Y009408D02*
X011870Y009408D01*
X011862Y009400D02*
X011985Y009523D01*
X011985Y009697D01*
X011862Y009820D01*
X011688Y009820D01*
X011565Y009697D01*
X011565Y009523D01*
X011688Y009400D01*
X011862Y009400D01*
X011985Y009526D02*
X012224Y009526D01*
X012105Y009645D02*
X011985Y009645D01*
X011986Y009763D02*
X011919Y009763D01*
X011868Y009882D02*
X011521Y009882D01*
X011521Y010000D02*
X011749Y010000D01*
X011631Y010119D02*
X011521Y010119D01*
X011512Y010237D02*
X011475Y010237D01*
X011674Y010593D02*
X011089Y010593D01*
X010887Y010593D02*
X010499Y010593D01*
X010607Y010475D02*
X010778Y010475D01*
X010778Y010356D02*
X010607Y010356D01*
X010688Y010237D02*
X010851Y010237D01*
X010848Y010119D02*
X010734Y010119D01*
X010734Y009763D02*
X010848Y009763D01*
X010902Y009645D02*
X010681Y009645D01*
X010730Y009526D02*
X010853Y009526D01*
X011468Y009645D02*
X011565Y009645D01*
X011565Y009526D02*
X011517Y009526D01*
X011521Y009408D02*
X011681Y009408D01*
X011632Y009763D02*
X011521Y009763D01*
X011762Y010712D02*
X007296Y010712D01*
X007415Y010830D02*
X009739Y010830D01*
X009620Y010949D02*
X007533Y010949D01*
X007722Y011067D02*
X009501Y011067D01*
X009383Y011186D02*
X007753Y011186D01*
X007721Y011304D02*
X009264Y011304D01*
X009146Y011423D02*
X008106Y011423D01*
X008224Y011541D02*
X009027Y011541D01*
X008909Y011660D02*
X008343Y011660D01*
X008532Y011779D02*
X008790Y011779D01*
X008672Y011897D02*
X008639Y011897D01*
X008294Y012134D02*
X007678Y012134D01*
X007753Y012016D02*
X008219Y012016D01*
X008127Y011897D02*
X007753Y011897D01*
X007646Y011779D02*
X008009Y011779D01*
X007440Y011779D02*
X002866Y011779D01*
X002998Y011660D02*
X005036Y011660D01*
X004918Y011541D02*
X003089Y011541D01*
X003139Y011423D02*
X004799Y011423D01*
X004680Y011304D02*
X003168Y011304D01*
X003168Y011186D02*
X004005Y011186D01*
X003892Y011067D02*
X003157Y011067D01*
X003108Y010949D02*
X003892Y010949D01*
X003965Y010830D02*
X003044Y010830D01*
X002925Y010712D02*
X004088Y010712D01*
X003969Y010593D02*
X002690Y010593D01*
X002357Y010593D02*
X001570Y010593D01*
X001451Y010712D02*
X002122Y010712D01*
X002003Y010830D02*
X001333Y010830D01*
X001214Y010949D02*
X001939Y010949D01*
X001889Y011067D02*
X001159Y011067D01*
X001048Y011186D02*
X001878Y011186D01*
X001878Y011304D02*
X001070Y011304D01*
X001159Y011423D02*
X001908Y011423D01*
X001958Y011541D02*
X001236Y011541D01*
X001355Y011660D02*
X002049Y011660D01*
X002181Y011779D02*
X001473Y011779D01*
X001592Y011897D02*
X002313Y011897D01*
X002313Y012016D02*
X001710Y012016D01*
X001829Y012134D02*
X002258Y012134D01*
X003168Y012608D02*
X007960Y012608D01*
X007012Y013557D02*
X000621Y013557D01*
X000621Y013675D02*
X006893Y013675D01*
X006775Y013794D02*
X000621Y013794D01*
X000621Y013912D02*
X006656Y013912D01*
X006538Y014031D02*
X000621Y014031D01*
X000621Y014149D02*
X006419Y014149D01*
X006301Y014268D02*
X000621Y014268D01*
X000621Y014386D02*
X005226Y014386D01*
X005168Y014444D02*
X005291Y014321D01*
X005465Y014321D01*
X005588Y014444D01*
X005588Y014618D01*
X005465Y014741D01*
X005291Y014741D01*
X005168Y014618D01*
X005168Y014444D01*
X005168Y014505D02*
X000621Y014505D01*
X000621Y014624D02*
X005173Y014624D01*
X005583Y014624D02*
X005945Y014624D01*
X005827Y014742D02*
X000621Y014742D01*
X000621Y014861D02*
X005710Y014861D01*
X005710Y014979D02*
X000621Y014979D01*
X000621Y015098D02*
X005660Y015098D01*
X005667Y015216D02*
X000621Y015216D01*
X000621Y015335D02*
X009084Y015335D01*
X009035Y015453D02*
X000621Y015453D01*
X000621Y015572D02*
X009018Y015572D01*
X009018Y015690D02*
X000621Y015690D01*
X000621Y015809D02*
X009050Y015809D01*
X009099Y015928D02*
X000621Y015928D01*
X000621Y016046D02*
X009204Y016046D01*
X009391Y016165D02*
X002267Y016165D01*
X002231Y016165D02*
X000621Y016165D01*
X000621Y016283D02*
X001537Y016283D01*
X001253Y016402D02*
X000621Y016402D01*
X000621Y016520D02*
X001104Y016520D01*
X000956Y016639D02*
X000621Y016639D01*
X000621Y016757D02*
X000835Y016757D01*
X000754Y016876D02*
X000621Y016876D01*
X000621Y016994D02*
X000674Y016994D01*
X005588Y014505D02*
X006064Y014505D01*
X006182Y014386D02*
X005530Y014386D01*
X006080Y015098D02*
X009308Y015098D01*
X009170Y015216D02*
X006072Y015216D01*
X008340Y014149D02*
X009056Y014149D01*
X009056Y014031D02*
X008318Y014031D01*
X011615Y012964D02*
X011865Y012964D01*
X011861Y013082D02*
X011734Y013082D01*
X012312Y012253D02*
X012353Y012253D01*
X013061Y011897D02*
X013673Y011897D01*
X013636Y011779D02*
X013180Y011779D01*
X013298Y011660D02*
X013666Y011660D01*
X013535Y011423D02*
X015277Y011423D01*
X015277Y011304D02*
X015231Y011304D01*
X014028Y011304D02*
X013654Y011304D01*
X013772Y011186D02*
X013978Y011186D01*
X013978Y011541D02*
X013417Y011541D01*
X013853Y010712D02*
X013988Y010712D01*
X015127Y010119D02*
X015277Y010119D01*
X016404Y009882D02*
X016592Y009882D01*
X014002Y007748D02*
X013510Y007748D01*
X013510Y007629D02*
X014120Y007629D01*
X014239Y007511D02*
X013510Y007511D01*
X013510Y007392D02*
X014357Y007392D01*
X014476Y007274D02*
X013510Y007274D01*
X013510Y007155D02*
X014594Y007155D01*
X014713Y007037D02*
X013510Y007037D01*
X013510Y006918D02*
X014832Y006918D01*
X014950Y006800D02*
X013510Y006800D01*
X013553Y006681D02*
X015069Y006681D01*
X015508Y006207D02*
X015543Y006207D01*
X015518Y006088D02*
X015661Y006088D01*
X015780Y005970D02*
X015518Y005970D01*
X015477Y005851D02*
X015898Y005851D01*
X015946Y005733D02*
X015428Y005733D01*
X015310Y005614D02*
X015946Y005614D01*
X015946Y005496D02*
X015095Y005496D01*
X014857Y005377D02*
X015946Y005377D01*
X015946Y005259D02*
X015270Y005259D01*
X015389Y005140D02*
X015946Y005140D01*
X015946Y005022D02*
X015508Y005022D01*
X015626Y004903D02*
X015946Y004903D01*
X015946Y004784D02*
X015815Y004784D01*
X015922Y004666D02*
X015946Y004666D01*
X015946Y004547D02*
X015922Y004547D01*
X015943Y004429D02*
X015848Y004429D01*
X015896Y004310D02*
X015529Y004310D01*
X015512Y004192D02*
X015913Y004192D01*
X016300Y004192D02*
X016958Y004192D01*
X017076Y004310D02*
X016316Y004310D01*
X016269Y004429D02*
X016364Y004429D01*
X016290Y004547D02*
X016266Y004547D01*
X016266Y004666D02*
X016290Y004666D01*
X016266Y004784D02*
X016340Y004784D01*
X016340Y004903D02*
X016266Y004903D01*
X016266Y005022D02*
X016340Y005022D01*
X016340Y005140D02*
X016266Y005140D01*
X016266Y005259D02*
X016340Y005259D01*
X016340Y005377D02*
X016266Y005377D01*
X016266Y005496D02*
X016340Y005496D01*
X016340Y005614D02*
X016266Y005614D01*
X016266Y005733D02*
X016340Y005733D01*
X016340Y005851D02*
X016266Y005851D01*
X014755Y005496D02*
X014738Y005496D01*
X014333Y005970D02*
X014264Y005970D01*
X014333Y006088D02*
X014145Y006088D01*
X014027Y006207D02*
X014342Y006207D01*
X014391Y006326D02*
X013908Y006326D01*
X013790Y006444D02*
X014464Y006444D01*
X014583Y006563D02*
X013671Y006563D01*
X012867Y005733D02*
X012315Y005733D01*
X012370Y005851D02*
X012749Y005851D01*
X012630Y005970D02*
X012400Y005970D01*
X012512Y006088D02*
X011836Y006088D01*
X011835Y005970D02*
X011715Y005970D01*
X011715Y006088D02*
X009672Y006088D01*
X009672Y005970D02*
X011150Y005970D01*
X011180Y005851D02*
X009672Y005851D01*
X009672Y005733D02*
X011236Y005733D01*
X011333Y005614D02*
X009672Y005614D01*
X009672Y005496D02*
X011503Y005496D01*
X011715Y005496D02*
X011835Y005496D01*
X011835Y005614D02*
X011715Y005614D01*
X011715Y005733D02*
X011835Y005733D01*
X011835Y005851D02*
X011715Y005851D01*
X012048Y005496D02*
X013104Y005496D01*
X012986Y005614D02*
X012217Y005614D01*
X013223Y005377D02*
X009672Y005377D01*
X009672Y005259D02*
X013342Y005259D01*
X013460Y005140D02*
X009672Y005140D01*
X009672Y005022D02*
X013579Y005022D01*
X013697Y004903D02*
X009672Y004903D01*
X009672Y004784D02*
X013816Y004784D01*
X013928Y004666D02*
X009761Y004666D01*
X009879Y004547D02*
X013928Y004547D01*
X014002Y004429D02*
X009998Y004429D01*
X010116Y004310D02*
X014321Y004310D01*
X014338Y004192D02*
X010235Y004192D01*
X010354Y004073D02*
X016839Y004073D01*
X016635Y004429D02*
X017127Y004429D01*
X017077Y004547D02*
X016710Y004547D01*
X016710Y004666D02*
X017077Y004666D01*
X017447Y004429D02*
X017518Y004429D01*
X017470Y004310D02*
X017447Y004310D01*
X018235Y004784D02*
X018308Y004784D01*
X018308Y004666D02*
X018285Y004666D01*
X018285Y004547D02*
X018308Y004547D01*
X015577Y004429D02*
X015482Y004429D01*
X015479Y004547D02*
X015502Y004547D01*
X015156Y004429D02*
X014695Y004429D01*
X014691Y004547D02*
X015135Y004547D01*
X015017Y004666D02*
X014691Y004666D01*
X014371Y004547D02*
X014348Y004547D01*
X014368Y004429D02*
X014273Y004429D01*
X014741Y004310D02*
X015109Y004310D01*
X015125Y004192D02*
X014725Y004192D01*
X011835Y006207D02*
X011715Y006207D01*
X011715Y006326D02*
X011835Y006326D01*
X011835Y006444D02*
X011715Y006444D01*
X011715Y006563D02*
X011835Y006563D01*
X011268Y006444D02*
X009672Y006444D01*
X009672Y006326D02*
X011197Y006326D01*
X011157Y006207D02*
X009672Y006207D01*
X011128Y007274D02*
X011326Y007274D01*
X010454Y007629D02*
X010441Y007629D01*
X010456Y007748D02*
X006580Y007748D01*
X006462Y007867D02*
X009156Y007867D01*
X009172Y007629D02*
X006699Y007629D01*
X006817Y007511D02*
X009155Y007511D01*
X009155Y008341D02*
X006775Y008341D01*
X006656Y008459D02*
X009215Y008459D01*
X008976Y008815D02*
X008918Y008815D01*
X008625Y008815D02*
X008548Y008815D01*
X008548Y008741D02*
X008548Y009079D01*
X008230Y009079D01*
X008230Y008880D01*
X008241Y008840D01*
X008262Y008803D01*
X008291Y008773D01*
X008328Y008752D01*
X008369Y008741D01*
X008548Y008741D01*
X008548Y008933D02*
X008625Y008933D01*
X008625Y009052D02*
X008548Y009052D01*
X008548Y009171D02*
X008625Y009171D01*
X008625Y009289D02*
X008548Y009289D01*
X008548Y009408D02*
X008625Y009408D01*
X008621Y009526D02*
X008053Y009526D01*
X008096Y009408D02*
X008247Y009408D01*
X008230Y009289D02*
X008096Y009289D01*
X008096Y009171D02*
X008230Y009171D01*
X008230Y009052D02*
X008096Y009052D01*
X008080Y008933D02*
X008230Y008933D01*
X008255Y008815D02*
X006620Y008815D01*
X006620Y008933D02*
X006767Y008933D01*
X006753Y009052D02*
X006620Y009052D01*
X006620Y009171D02*
X006753Y009171D01*
X006753Y009289D02*
X006620Y009289D01*
X006620Y009408D02*
X006753Y009408D01*
X006782Y009526D02*
X006620Y009526D01*
X006620Y009645D02*
X006840Y009645D01*
X006754Y009763D02*
X006620Y009763D01*
X006620Y009882D02*
X006753Y009882D01*
X006620Y010000D02*
X007071Y010000D01*
X007072Y009882D02*
X007149Y009882D01*
X007149Y009763D02*
X007072Y009763D01*
X007072Y009645D02*
X007149Y009645D01*
X007149Y009526D02*
X007072Y009526D01*
X007072Y009408D02*
X007149Y009408D01*
X007149Y009289D02*
X007072Y009289D01*
X007072Y009171D02*
X007149Y009171D01*
X007149Y009052D02*
X007072Y009052D01*
X007072Y008933D02*
X007149Y008933D01*
X007453Y008933D02*
X007479Y008933D01*
X006441Y008222D02*
X006325Y008222D01*
X006325Y008104D02*
X006559Y008104D01*
X006678Y007985D02*
X006343Y007985D01*
X006128Y007748D02*
X006030Y007748D01*
X006030Y007629D02*
X006246Y007629D01*
X006365Y007511D02*
X006030Y007511D01*
X006030Y007392D02*
X006483Y007392D01*
X006602Y007274D02*
X006030Y007274D01*
X007438Y009526D02*
X007506Y009526D01*
X007619Y009645D02*
X007380Y009645D01*
X007149Y010119D02*
X007072Y010119D01*
X007072Y010237D02*
X007149Y010237D01*
X007149Y010356D02*
X007072Y010356D01*
X007059Y010475D02*
X010187Y010475D01*
X010187Y010356D02*
X008472Y010356D01*
X008541Y010237D02*
X010107Y010237D01*
X010061Y010119D02*
X008541Y010119D01*
X008427Y010000D02*
X010061Y010000D01*
X010061Y009882D02*
X008718Y009882D01*
X008837Y009763D02*
X010061Y009763D01*
X010114Y009645D02*
X008955Y009645D01*
X009074Y009526D02*
X010065Y009526D01*
X010061Y009408D02*
X009549Y009408D01*
X009573Y009289D02*
X009681Y009289D01*
X009933Y009289D02*
X010061Y009289D01*
X010061Y009171D02*
X010017Y009171D01*
X010017Y009052D02*
X010061Y009052D01*
X010014Y008933D02*
X009919Y008933D01*
X009991Y008815D02*
X009536Y008815D01*
X009573Y008933D02*
X009694Y008933D01*
X008503Y009645D02*
X008367Y009645D01*
X008097Y009645D02*
X007939Y009645D01*
X008096Y010237D02*
X008121Y010237D01*
X008189Y010356D02*
X007392Y010356D01*
X007178Y010593D02*
X010296Y010593D01*
X010340Y010830D02*
X010849Y010830D01*
X010778Y010949D02*
X010411Y010949D01*
X010411Y011067D02*
X010778Y011067D01*
X006747Y011304D02*
X006047Y011304D01*
X006080Y011186D02*
X006629Y011186D01*
X006510Y011067D02*
X006049Y011067D01*
X006030Y010949D02*
X006392Y010949D01*
X006273Y010830D02*
X006030Y010830D01*
X006030Y010712D02*
X006155Y010712D01*
X006036Y010593D02*
X006030Y010593D01*
X005710Y010593D02*
X004422Y010593D01*
X004540Y010712D02*
X005710Y010712D01*
X005710Y010830D02*
X004659Y010830D01*
X004777Y010949D02*
X005710Y010949D01*
X005691Y011067D02*
X004896Y011067D01*
X005014Y011186D02*
X005660Y011186D01*
X005692Y011304D02*
X005133Y011304D01*
X004562Y011186D02*
X004192Y011186D01*
X004304Y011067D02*
X004443Y011067D01*
X004325Y010949D02*
X004304Y010949D01*
X004303Y010475D02*
X005710Y010475D01*
X005710Y010356D02*
X004185Y010356D01*
X006703Y010119D02*
X006753Y010119D01*
X013510Y007985D02*
X013765Y007985D01*
X013883Y007867D02*
X013510Y007867D01*
X015518Y012727D02*
X016306Y012727D01*
X016117Y012845D02*
X015518Y012845D01*
X015482Y012964D02*
X016093Y012964D01*
X016132Y013082D02*
X015433Y013082D01*
X017722Y013438D02*
X017837Y013438D01*
X017797Y013557D02*
X017762Y013557D01*
X017762Y013675D02*
X017797Y013675D01*
X017797Y013794D02*
X017762Y013794D01*
X017762Y013912D02*
X017797Y013912D01*
X017818Y014031D02*
X017741Y014031D01*
X018155Y014386D02*
X018191Y014386D01*
X018191Y014505D02*
X018155Y014505D01*
X018155Y014624D02*
X018191Y014624D01*
X018191Y014742D02*
X018155Y014742D01*
X018155Y014861D02*
X018191Y014861D01*
X015824Y016046D02*
X021824Y016046D01*
X022654Y016876D02*
X020256Y016876D01*
X020375Y016994D02*
X022772Y016994D01*
X022891Y017113D02*
X020472Y017113D01*
X020521Y017231D02*
X023009Y017231D01*
X023128Y017350D02*
X020566Y017350D01*
X020566Y017469D02*
X023246Y017469D01*
X023365Y017587D02*
X020566Y017587D01*
X020534Y017706D02*
X022617Y017706D01*
X022408Y017824D02*
X020485Y017824D01*
X020406Y017943D02*
X022294Y017943D01*
X022245Y018061D02*
X020287Y018061D01*
X020048Y018180D02*
X022207Y018180D01*
X022462Y018773D02*
X018748Y018773D01*
X018722Y018891D02*
X024669Y018891D01*
X024787Y019010D02*
X018675Y019010D01*
X018599Y019128D02*
X019594Y019128D01*
X019786Y019128D02*
X019906Y019128D01*
X019906Y019247D02*
X019786Y019247D01*
X019786Y019365D02*
X019906Y019365D01*
X019906Y019484D02*
X019786Y019484D01*
X019786Y019602D02*
X019906Y019602D01*
X020099Y019128D02*
X022429Y019128D01*
X022304Y019247D02*
X020313Y019247D01*
X020435Y019365D02*
X022230Y019365D01*
X022185Y019484D02*
X020515Y019484D01*
X020568Y019602D02*
X022739Y019602D01*
X022739Y019721D02*
X022859Y019721D01*
X022859Y019839D02*
X022739Y019839D01*
X022739Y019958D02*
X022859Y019958D01*
X022859Y020077D02*
X022739Y020077D01*
X022739Y020195D02*
X022859Y020195D01*
X022171Y019721D02*
X020596Y019721D01*
X019906Y019958D02*
X019786Y019958D01*
X019786Y020077D02*
X019906Y020077D01*
X019906Y020195D02*
X019786Y020195D01*
X019786Y020314D02*
X019906Y020314D01*
X019906Y020432D02*
X019786Y020432D01*
X019786Y020551D02*
X019906Y020551D01*
X020132Y020551D02*
X024324Y020551D01*
X024538Y020432D02*
X020331Y020432D01*
X019096Y019721D02*
X006949Y019721D01*
X006954Y019602D02*
X019125Y019602D01*
X019178Y019484D02*
X007637Y019484D01*
X007253Y019484D02*
X006910Y019484D01*
X018292Y019365D02*
X019257Y019365D01*
X019379Y019247D02*
X018486Y019247D01*
X022869Y016639D02*
X025059Y016639D01*
X024919Y016757D02*
X022988Y016757D01*
X023106Y016876D02*
X024829Y016876D01*
X024770Y016994D02*
X023225Y016994D01*
X023343Y017113D02*
X024733Y017113D01*
X023602Y017824D02*
X023190Y017824D01*
X023304Y017943D02*
X023720Y017943D01*
X023839Y018061D02*
X023353Y018061D01*
X023392Y018180D02*
X023958Y018180D01*
X024076Y018298D02*
X023392Y018298D01*
X023380Y018417D02*
X024195Y018417D01*
X024313Y018535D02*
X023331Y018535D01*
X023254Y018654D02*
X024432Y018654D01*
X024550Y018773D02*
X023136Y018773D01*
X022981Y017706D02*
X023483Y017706D01*
X027899Y012608D02*
X027935Y012608D01*
X027935Y012490D02*
X027899Y012490D01*
X027899Y012371D02*
X027935Y012371D01*
X027979Y012253D02*
X027855Y012253D01*
X022076Y008815D02*
X020766Y008815D01*
X020828Y008696D02*
X022015Y008696D01*
X022010Y008578D02*
X020832Y008578D01*
X020788Y008459D02*
X022054Y008459D01*
X024273Y007511D02*
X025493Y007511D01*
X025447Y007629D02*
X024391Y007629D01*
X024510Y007748D02*
X025468Y007748D01*
X033943Y008341D02*
X033953Y008341D01*
X033943Y008459D02*
X033953Y008459D01*
X033943Y008578D02*
X033953Y008578D01*
X033943Y008696D02*
X033953Y008696D01*
X033943Y008815D02*
X033953Y008815D01*
X033953Y008933D02*
X033921Y008933D01*
X023852Y001702D02*
X022534Y001702D01*
X022491Y001745D02*
X022611Y001625D01*
X022611Y001454D01*
X022491Y001333D01*
X022320Y001333D01*
X022199Y001454D01*
X022199Y001625D01*
X022320Y001745D01*
X022491Y001745D01*
X022611Y001584D02*
X023774Y001584D01*
X023774Y001465D02*
X022611Y001465D01*
X022504Y001347D02*
X023881Y001347D01*
X022306Y001347D02*
X003640Y001347D01*
X003697Y001465D02*
X022199Y001465D01*
X022199Y001584D02*
X003755Y001584D01*
X003785Y001702D02*
X022277Y001702D01*
X032778Y000635D02*
X002943Y000635D01*
D22*
X014236Y008232D03*
X016205Y010102D03*
X015023Y010397D03*
X017386Y008232D03*
X020535Y008626D03*
X022307Y008626D03*
X025457Y008232D03*
X019453Y013941D03*
X008626Y019649D03*
X007445Y019256D03*
X006657Y019649D03*
X007445Y017287D03*
D23*
X017189Y014590D02*
X017228Y014630D01*
X017838Y014630D01*
X018508Y014630D02*
X018803Y014334D01*
X021913Y014334D01*
X022012Y014236D01*
X022169Y013842D02*
X021520Y013842D01*
X021323Y014039D02*
X023094Y014039D01*
X023232Y013449D02*
X023744Y013449D01*
X023232Y013449D02*
X023232Y013390D01*
X022799Y012957D01*
X022504Y012957D01*
X021815Y013646D01*
X022169Y013842D02*
X022563Y013449D01*
X022799Y012563D02*
X022307Y012563D01*
X021224Y013646D01*
X021323Y014039D02*
X021224Y014138D01*
X020634Y013646D02*
X022110Y012169D01*
X023783Y012169D01*
X023941Y012563D02*
X024334Y012169D01*
X023941Y012563D02*
X022799Y012563D01*
X021913Y011480D02*
X021913Y011126D01*
X021913Y010457D02*
X021126Y010457D01*
X020929Y010653D01*
X020338Y010653D01*
X020338Y011323D02*
X020338Y011677D01*
X020437Y011775D01*
X020929Y011480D02*
X021126Y011283D01*
X021126Y011126D01*
X021913Y010457D02*
X022366Y010457D01*
X022405Y010496D01*
X026401Y012563D02*
X026441Y012602D01*
X026441Y013547D01*
X026441Y017779D01*
X028508Y019846D01*
X031264Y019846D01*
X031854Y020437D01*
X032445Y020437D01*
X033094Y020437D01*
X033764Y020437D02*
X034020Y020437D01*
X034512Y020929D01*
X032445Y021421D02*
X032051Y021421D01*
X030870Y020240D01*
X026933Y020240D01*
X027327Y017275D02*
X027327Y013488D01*
X028252Y012563D01*
X028547Y012268D01*
X029689Y012268D01*
X029787Y012366D01*
X030083Y012366D01*
X027583Y012563D02*
X027071Y012563D01*
X024866Y013449D02*
X024413Y013449D01*
D24*
X024866Y013449D03*
X025945Y012563D03*
X025457Y012169D03*
X026441Y011283D03*
X026933Y009807D03*
X027130Y009512D03*
X027327Y009807D03*
X028705Y010988D03*
X029492Y010988D03*
X029492Y012563D03*
X029098Y012563D03*
X028705Y012563D03*
X023783Y012169D03*
X022799Y012563D03*
X022012Y013153D03*
X021815Y013646D03*
X021520Y013842D03*
X021224Y013646D03*
X021224Y014138D03*
X020634Y013646D03*
X020338Y013646D03*
X020732Y014728D03*
X022012Y014236D03*
X023094Y014039D03*
X020043Y011972D03*
X020437Y011775D03*
X020929Y011480D03*
X021027Y011874D03*
X021421Y011677D03*
X021913Y011480D03*
X023783Y009807D03*
X029098Y006854D03*
X018862Y004590D03*
X018468Y004295D03*
X018075Y004590D03*
X017681Y004295D03*
X017287Y004590D03*
X016500Y004590D03*
X016106Y004295D03*
X015712Y004590D03*
X015319Y004295D03*
X014531Y004295D03*
X014138Y004590D03*
X014236Y006067D03*
X016205Y006067D03*
X016894Y005279D03*
X011579Y007937D03*
X011283Y007051D03*
X011283Y006657D03*
X010299Y006460D03*
X008823Y006657D03*
X007051Y006854D03*
X008921Y008429D03*
X008232Y009118D03*
X008232Y009807D03*
X008331Y010201D03*
X007543Y011185D03*
X007248Y011382D03*
X007543Y011972D03*
X007543Y012366D03*
X008429Y011972D03*
X009020Y012169D03*
X009807Y012169D03*
X010201Y012169D03*
X010594Y012169D03*
X010988Y012169D03*
X011185Y013153D03*
X012071Y013055D03*
X012563Y012169D03*
X012957Y012169D03*
X013153Y012661D03*
X011972Y011579D03*
X011972Y010791D03*
X011874Y010496D03*
X010988Y010397D03*
X010397Y010397D03*
X010201Y010988D03*
X010988Y010988D03*
X011775Y009610D03*
X010201Y008823D03*
X009807Y009118D03*
X005870Y011185D03*
X002523Y011972D03*
X000949Y011480D03*
X000949Y010988D03*
X005279Y008527D03*
X009610Y013449D03*
X010004Y013941D03*
X008724Y014138D03*
X010988Y016008D03*
X012464Y016008D03*
X012858Y015023D03*
X013449Y014433D03*
X014138Y015023D03*
X015614Y016008D03*
X016106Y014334D03*
X016303Y014000D03*
X016303Y012957D03*
X015811Y012858D03*
X016992Y012268D03*
X017976Y012071D03*
X017484Y010791D03*
X016894Y010594D03*
X018075Y010201D03*
X018567Y013449D03*
X011775Y014236D03*
X005870Y015122D03*
X005378Y014531D03*
X004984Y020929D03*
X002622Y020929D03*
X032445Y020437D03*
X032445Y021421D03*
X034512Y020929D03*
M02*
