G75*
G70*
%OFA0B0*%
%FSLAX24Y24*%
%IPPOS*%
%LPD*%
%AMOC8*
5,1,8,0,0,1.08239X$1,22.5*
%
%ADD10R,0.0552X0.0257*%
%ADD11R,0.0119X0.0434*%
%ADD12R,0.0434X0.0119*%
%ADD13R,0.0473X0.0434*%
%ADD14R,0.0434X0.0473*%
%ADD15R,0.0631X0.0631*%
%ADD16R,0.0394X0.0394*%
%ADD17C,0.0780*%
%ADD18R,0.0473X0.0788*%
%ADD19R,0.0512X0.0434*%
%ADD20C,0.0985*%
%ADD21R,0.0197X0.0571*%
%ADD22R,0.0670X0.0788*%
%ADD23R,0.0867X0.0827*%
%ADD24R,0.0512X0.0788*%
%ADD25R,0.0316X0.0512*%
%ADD26R,0.0434X0.0512*%
%ADD27R,0.0434X0.0355*%
%ADD28R,0.0434X0.1142*%
%ADD29R,0.0552X0.0788*%
%ADD30C,0.0591*%
%ADD31R,0.0276X0.0946*%
%ADD32R,0.0316X0.0138*%
%ADD33R,0.0292X0.0579*%
%ADD34R,0.0138X0.0316*%
%ADD35R,0.1339X0.0709*%
%ADD36R,0.0434X0.0257*%
%ADD37R,0.0233X0.0233*%
%ADD38R,0.0257X0.0434*%
%ADD39R,0.0571X0.0690*%
%ADD40R,0.0276X0.0512*%
%ADD41R,0.1040X0.0340*%
%ADD42C,0.0410*%
%ADD43C,0.1339*%
%ADD44R,0.0670X0.1575*%
%ADD45C,0.1240*%
%ADD46C,0.1045*%
%ADD47C,0.0434*%
%ADD48C,0.0212*%
%ADD49C,0.0394*%
%ADD50C,0.0220*%
D10*
X012563Y006874D03*
X012563Y007248D03*
X012563Y007622D03*
X013547Y007622D03*
X013547Y006874D03*
X015712Y006874D03*
X015712Y007248D03*
X015712Y007622D03*
X016697Y007622D03*
X016697Y006874D03*
X018862Y006874D03*
X018862Y007248D03*
X018862Y007622D03*
X019846Y007622D03*
X019846Y006874D03*
X022012Y006874D03*
X022012Y007248D03*
X022012Y007622D03*
X022996Y007622D03*
X022996Y006874D03*
X025161Y006874D03*
X025161Y007248D03*
X025161Y007622D03*
X026146Y007622D03*
X026146Y006874D03*
X014334Y011008D03*
X014334Y011756D03*
X013350Y011756D03*
X013350Y011382D03*
X013350Y011008D03*
D11*
X010791Y009512D03*
X010594Y009512D03*
X010397Y009512D03*
X010201Y009512D03*
X010004Y009512D03*
X009807Y009512D03*
X009610Y009512D03*
X009413Y009512D03*
X009216Y009512D03*
X009020Y009512D03*
X008823Y009512D03*
X008626Y009512D03*
X008626Y013055D03*
X008823Y013055D03*
X009020Y013055D03*
X009216Y013055D03*
X009413Y013055D03*
X009610Y013055D03*
X009807Y013055D03*
X010004Y013055D03*
X010201Y013055D03*
X010397Y013055D03*
X010594Y013055D03*
X010791Y013055D03*
D12*
X011480Y012366D03*
X011480Y012169D03*
X011480Y011972D03*
X011480Y011775D03*
X011480Y011579D03*
X011480Y011382D03*
X011480Y011185D03*
X011480Y010988D03*
X011480Y010791D03*
X011480Y010594D03*
X011480Y010397D03*
X011480Y010201D03*
X007937Y010201D03*
X007937Y010397D03*
X007937Y010594D03*
X007937Y010791D03*
X007937Y010988D03*
X007937Y011185D03*
X007937Y011382D03*
X007937Y011579D03*
X007937Y011775D03*
X007937Y011972D03*
X007937Y012169D03*
X007937Y012366D03*
D13*
X005378Y014984D03*
X005378Y015653D03*
X004590Y015653D03*
X004590Y014984D03*
X007051Y016165D03*
X007838Y016165D03*
X007838Y016834D03*
X007051Y016834D03*
X015023Y011716D03*
X015811Y011736D03*
X015811Y012405D03*
X015023Y011047D03*
X018075Y010949D03*
X018075Y011618D03*
X020142Y014098D03*
X020142Y014768D03*
X022799Y014590D03*
X022799Y015260D03*
X023980Y015063D03*
X023980Y014394D03*
X023980Y013882D03*
X023980Y013212D03*
X025850Y011224D03*
X025850Y010555D03*
X029098Y011441D03*
X029098Y012110D03*
X026834Y007583D03*
X026834Y006913D03*
X023685Y006913D03*
X023685Y007583D03*
X020535Y007583D03*
X020535Y006913D03*
X017386Y006913D03*
X017386Y007583D03*
X014236Y007583D03*
X014236Y006913D03*
X011086Y007602D03*
X011086Y008271D03*
X008331Y006697D03*
X008331Y006027D03*
X007543Y006027D03*
X007543Y006697D03*
D14*
X007681Y007346D03*
X008193Y007346D03*
X008862Y007346D03*
X009669Y006953D03*
X010338Y006953D03*
X007012Y007346D03*
X005319Y009118D03*
X004649Y009118D03*
X004649Y010594D03*
X005319Y010594D03*
X005220Y013252D03*
X004551Y013252D03*
X004551Y014039D03*
X005220Y014039D03*
X008094Y013744D03*
X008764Y013744D03*
X012031Y012661D03*
X012701Y012661D03*
X017051Y013153D03*
X017720Y013153D03*
X019413Y015516D03*
X020083Y015516D03*
X026697Y011972D03*
X027366Y011972D03*
X023527Y010594D03*
X022858Y010594D03*
X022957Y008232D03*
X023626Y008232D03*
X025909Y008232D03*
X026579Y008232D03*
D15*
X033134Y021421D03*
X034512Y021421D03*
X004984Y021421D03*
X003606Y021421D03*
X002622Y021421D03*
X001244Y021421D03*
D16*
X001933Y021165D03*
X004295Y021165D03*
X033823Y021165D03*
D17*
X004886Y007318D03*
X004886Y006178D03*
X002523Y006232D03*
X002523Y007232D03*
X002523Y008232D03*
D18*
X007445Y008331D03*
X008429Y008331D03*
D19*
X009669Y008193D03*
X010338Y008193D03*
X010338Y007681D03*
X009669Y007681D03*
D20*
X011775Y006067D03*
X014925Y006067D03*
X018075Y006067D03*
X021224Y006067D03*
X024374Y006067D03*
X027523Y006067D03*
X027523Y008331D03*
X028508Y013547D03*
X026441Y013547D03*
X022799Y018173D03*
X022799Y019543D03*
X014925Y012760D03*
X009610Y015614D03*
D21*
X008153Y020368D03*
X007897Y020368D03*
X007642Y020368D03*
X007386Y020368D03*
X007130Y020368D03*
D22*
X006027Y021421D03*
X009256Y021421D03*
D23*
X008862Y020496D03*
X006421Y020496D03*
D24*
X007307Y021421D03*
X007976Y021421D03*
D25*
X012547Y015421D03*
X012980Y015421D03*
X013413Y015421D03*
X013846Y015421D03*
X014279Y015421D03*
X014712Y015421D03*
X015146Y015421D03*
X015579Y015421D03*
X015953Y015421D03*
D26*
X016327Y017114D03*
X011937Y015421D03*
D27*
X016327Y019555D03*
D28*
X016327Y021189D03*
D29*
X011012Y021366D03*
D30*
X011106Y002917D03*
X024649Y002917D03*
D31*
X023980Y002189D03*
X023586Y002189D03*
X023193Y002189D03*
X022799Y002189D03*
X022405Y002189D03*
X022012Y002189D03*
X021618Y002189D03*
X021224Y002189D03*
X020831Y002189D03*
X020437Y002189D03*
X020043Y002189D03*
X019649Y002189D03*
X019256Y002189D03*
X018862Y002189D03*
X018468Y002189D03*
X018075Y002189D03*
X017681Y002189D03*
X017287Y002189D03*
X016894Y002189D03*
X016500Y002189D03*
X016106Y002189D03*
X015712Y002189D03*
X015319Y002189D03*
X014925Y002189D03*
X014531Y002189D03*
X014138Y002189D03*
X013744Y002189D03*
X013350Y002189D03*
X012957Y002189D03*
X012563Y002189D03*
X012169Y002189D03*
X011775Y002189D03*
X011775Y003646D03*
X012169Y003646D03*
X012563Y003646D03*
X012957Y003646D03*
X013350Y003646D03*
X013744Y003646D03*
X014138Y003646D03*
X014531Y003646D03*
X014925Y003646D03*
X015319Y003646D03*
X015712Y003646D03*
X016106Y003646D03*
X016500Y003646D03*
X016894Y003646D03*
X017287Y003646D03*
X017681Y003646D03*
X018075Y003646D03*
X018468Y003646D03*
X018862Y003646D03*
X019256Y003646D03*
X019649Y003646D03*
X020043Y003646D03*
X020437Y003646D03*
X020831Y003646D03*
X021224Y003646D03*
X021618Y003646D03*
X022012Y003646D03*
X022405Y003646D03*
X022799Y003646D03*
X023193Y003646D03*
X023586Y003646D03*
X023980Y003646D03*
D32*
X021982Y014462D03*
X021982Y014640D03*
X021982Y014817D03*
X021982Y014994D03*
X021254Y014994D03*
X021254Y014817D03*
X021254Y014640D03*
X021254Y014462D03*
D33*
X021618Y014728D03*
D34*
X021618Y013331D03*
X021421Y013331D03*
X021224Y013331D03*
X021027Y013331D03*
X020831Y013331D03*
X020634Y013331D03*
X020437Y013331D03*
X020437Y012189D03*
X020634Y012189D03*
X020831Y012189D03*
X021027Y012189D03*
X021224Y012189D03*
X021421Y012189D03*
X021618Y012189D03*
X026933Y011352D03*
X027130Y011352D03*
X027327Y011352D03*
X027327Y010230D03*
X027130Y010230D03*
X026933Y010230D03*
D35*
X021027Y012760D03*
D36*
X022346Y012543D03*
X022346Y011795D03*
X023252Y012169D03*
X024709Y012189D03*
X025614Y012563D03*
X024709Y012937D03*
X024295Y010575D03*
X024295Y010201D03*
X024295Y009827D03*
X025240Y009827D03*
X025240Y010575D03*
X017464Y011697D03*
X017464Y012071D03*
X017464Y012445D03*
X016520Y012445D03*
X016520Y011697D03*
D37*
X017305Y010478D03*
X017305Y010120D03*
X017663Y010120D03*
X017663Y010478D03*
D38*
X022425Y013094D03*
X023173Y013094D03*
X022799Y014000D03*
X022779Y015850D03*
X022031Y015850D03*
X022405Y016756D03*
X018547Y014807D03*
X017799Y014807D03*
X017799Y013862D03*
X018173Y013862D03*
X018547Y013862D03*
D39*
X027130Y010791D03*
D40*
X007819Y017819D03*
X007445Y017819D03*
X007071Y017819D03*
X007071Y018724D03*
X007445Y018724D03*
X007819Y018724D03*
D41*
X003358Y012972D03*
X003358Y012472D03*
X003358Y011972D03*
X003358Y011472D03*
X003358Y010972D03*
X001688Y010972D03*
X001688Y011472D03*
X001688Y011972D03*
X001688Y012472D03*
X001688Y012972D03*
D42*
X002523Y012722D03*
X002523Y011222D03*
D43*
X002130Y017878D03*
X002130Y002130D03*
X033626Y002130D03*
X033626Y017878D03*
D44*
X018744Y016008D03*
X017602Y016008D03*
D45*
X019846Y017484D03*
X017996Y018665D03*
X019846Y019846D03*
X025476Y017275D03*
X027327Y017275D03*
X029177Y017275D03*
D46*
X029925Y021027D03*
X024728Y021027D03*
D47*
X000949Y000949D03*
X000949Y019059D03*
X034807Y019059D03*
X034807Y000949D03*
D48*
X025653Y007642D03*
X022504Y007642D03*
X019354Y007642D03*
X016205Y007642D03*
X013055Y007642D03*
X011579Y008232D03*
X009610Y008626D03*
X007248Y010397D03*
X004098Y010988D03*
X004098Y011480D03*
X008134Y014138D03*
X009216Y014531D03*
X009216Y013449D03*
X013842Y011775D03*
X016795Y013646D03*
X018173Y013252D03*
X020142Y012760D03*
X020732Y012957D03*
X020732Y012563D03*
X018567Y011086D03*
X022405Y010496D03*
X023783Y010201D03*
X024768Y010594D03*
X025063Y011382D03*
X026047Y011874D03*
X029098Y010988D03*
X029492Y013153D03*
X023980Y015516D03*
X021618Y015220D03*
X020535Y015516D03*
X016795Y015712D03*
X016106Y014728D03*
X014728Y016008D03*
X013842Y016008D03*
X003803Y020240D03*
X007937Y005968D03*
X013744Y004295D03*
X014925Y004590D03*
X016894Y004295D03*
X019256Y004295D03*
X022405Y004295D03*
X023980Y004295D03*
X023980Y001539D03*
X022405Y001539D03*
X013744Y001539D03*
X011775Y001539D03*
D49*
X014236Y008232D03*
X016205Y010102D03*
X015023Y010397D03*
X017386Y008232D03*
X020535Y008626D03*
X022307Y008626D03*
X025457Y008232D03*
X019453Y013941D03*
X008626Y019649D03*
X007445Y019256D03*
X006657Y019649D03*
X007445Y017287D03*
D50*
X005870Y015122D03*
X005378Y014531D03*
X007543Y012366D03*
X007543Y011972D03*
X007248Y011382D03*
X007543Y011185D03*
X008429Y011972D03*
X009020Y012169D03*
X009807Y012169D03*
X010201Y012169D03*
X010594Y012169D03*
X010988Y012169D03*
X011972Y011579D03*
X012563Y012169D03*
X012957Y012169D03*
X013153Y012661D03*
X012071Y013055D03*
X011185Y013153D03*
X010004Y013941D03*
X009610Y013449D03*
X008724Y014138D03*
X010988Y016008D03*
X012464Y016008D03*
X012858Y015023D03*
X013449Y014433D03*
X014138Y015023D03*
X015614Y016008D03*
X016106Y014334D03*
X016303Y014000D03*
X016303Y012957D03*
X015811Y012858D03*
X016992Y012268D03*
X017976Y012071D03*
X018567Y013449D03*
X020338Y013646D03*
X020634Y013646D03*
X021224Y013646D03*
X021520Y013842D03*
X021815Y013646D03*
X022012Y013153D03*
X022799Y012563D03*
X023783Y012169D03*
X025457Y012169D03*
X025945Y012563D03*
X024866Y013449D03*
X023094Y014039D03*
X022012Y014236D03*
X021224Y014138D03*
X020732Y014728D03*
X020043Y011972D03*
X020437Y011775D03*
X020929Y011480D03*
X021421Y011677D03*
X021027Y011874D03*
X021913Y011480D03*
X023783Y009807D03*
X026441Y011283D03*
X026933Y009807D03*
X027130Y009512D03*
X027327Y009807D03*
X028705Y010988D03*
X029492Y010988D03*
X029492Y012563D03*
X029098Y012563D03*
X028705Y012563D03*
X029492Y006854D03*
X018862Y004590D03*
X018468Y004295D03*
X018075Y004590D03*
X017681Y004295D03*
X017287Y004590D03*
X016500Y004590D03*
X016106Y004295D03*
X015712Y004590D03*
X015319Y004295D03*
X014531Y004295D03*
X014138Y004590D03*
X014236Y006067D03*
X016205Y006067D03*
X016894Y005279D03*
X011579Y007937D03*
X011283Y007051D03*
X011283Y006657D03*
X010299Y006460D03*
X008823Y006657D03*
X007051Y006854D03*
X005279Y008527D03*
X008232Y009118D03*
X008921Y008429D03*
X009807Y009118D03*
X010201Y008823D03*
X011775Y009610D03*
X011874Y010496D03*
X011972Y010791D03*
X010988Y010988D03*
X010988Y010397D03*
X010397Y010397D03*
X010201Y010988D03*
X008331Y010201D03*
X008232Y009807D03*
X005870Y011185D03*
X002523Y011972D03*
X000949Y011480D03*
X000949Y010988D03*
X011775Y014236D03*
X016894Y010594D03*
X017484Y010791D03*
X018075Y010201D03*
X032445Y020437D03*
X032445Y021421D03*
X034512Y020929D03*
X004984Y020929D03*
X002622Y020929D03*
M02*
