%
M48
M72
T01C0.0092
T02C0.0100
T03C0.0120
T04C0.0160
T05C0.0197
T06C0.0236
T07C0.0354
T08C0.0370
T09C0.0551
T10C0.0630
T11C0.0670
T12C0.0800
T13C0.1299
%
T01
X8170Y6302
X10217Y6420
X11831Y2916
X13013Y2916
X17619Y11577
X21930Y14176
X22954Y14294
X15139Y15829
X14272Y15829
X8446Y15534
X8446Y14412
X4253Y20239
T02
X3072Y20928
X5434Y20928
X6379Y17129
X9076Y17188
X11556Y16262
X11477Y15672
X12934Y15829
X13406Y15829
X14706Y15829
X15965Y15829
X16831Y15003
X15454Y14373
X15454Y13428
X17146Y12365
X18013Y13428
X19076Y13428
X19706Y13428
X20020Y13428
X20296Y13428
X20887Y12601
X21044Y12325
X22225Y11971
X21083Y11144
X22658Y12995
X22461Y13191
X23997Y12680
X24509Y11380
X25965Y12916
X26792Y13979
X24863Y15672
X23446Y14963
X23446Y14530
X22658Y14924
X22461Y15436
X22580Y15672
X23249Y16321
X22068Y14924
X19706Y14373
X19272Y14609
X17107Y16380
X12973Y14845
X12028Y14609
X10493Y14373
X9863Y13861
X9863Y12916
X9548Y12916
X9115Y12916
X9784Y12443
X9509Y11735
X9351Y11538
X9154Y11380
X8682Y11774
X8524Y11577
X8328Y11380
X8328Y11774
X7540Y12562
X6753Y12168
X8918Y10042
X8485Y9688
X9469Y9018
X10335Y8861
X11753Y8664
X11871Y8231
X12973Y10160
X13761Y10160
X14548Y10160
X15335Y10160
X15335Y11499
X14548Y11499
X13761Y11499
X12973Y11499
X12068Y12207
X11871Y11971
X11202Y11184
X10926Y10908
X10650Y10908
X11871Y10790
X6674Y8546
X5887Y7955
X4351Y6932
X5099Y6223
X5729Y6341
X9430Y6420
X13406Y4294
X13800Y4294
X14194Y4294
X14587Y4294
X14981Y4294
X15375Y4294
X14981Y1538
X14587Y1538
X14194Y1538
X13406Y1538
X25217Y4294
X28682Y8506
X28879Y8821
X28249Y10436
X27875Y10967
X4351Y9569
X1398Y11380
X1398Y11873
X2776Y12365
T03
X10099Y10121
X10414Y10121
X10296Y9294
X12580Y10514
X13367Y10514
X13367Y11144
X12580Y11144
X14154Y11144
X14942Y11144
X15729Y11144
X15729Y10514
X14942Y10514
X14154Y10514
X21635Y13270
X21792Y14963
X21359Y15199
T04
X11241Y12955
X8800Y12207
X6871Y10475
X8524Y9373
X11831Y4294
X10257Y1538
T05
X11831Y1499
X12422Y1499
X13013Y1499
X15375Y711
X15965Y751
X15769Y1538
X16950Y1538
X18131Y1538
X18524Y1144
X19312Y1538
X20493Y1538
X21674Y1538
X22068Y947
X22855Y1538
X23446Y1144
X24036Y1538
X25217Y1538
X26398Y1538
X26792Y947
X29154Y1538
X28564Y2916
X30139Y3113
X31517Y3703
X31910Y4884
X28957Y4884
X26792Y5475
X26398Y4294
X25217Y2916
X24430Y2916
X24036Y4294
X22855Y4294
X21674Y4294
X20493Y4294
X19312Y4294
X18131Y4294
X18524Y5081
X17146Y6066
X16359Y5278
X15257Y5317
X15769Y4294
X16950Y4294
X16753Y2916
X15769Y2916
X18328Y2916
X19312Y2916
X20493Y2916
X21871Y2916
X22658Y2916
X20296Y5672
X19706Y6459
X21083Y6262
X19902Y7837
X17934Y7837
X16359Y9018
X17343Y9609
X16162Y10593
X14587Y9215
X14706Y8152
X13524Y7325
X14981Y6538
X15965Y7443
X13721Y6066
X13564Y5317
X12619Y6184
X13013Y4333
X10257Y4294
X9076Y4018
X8091Y4373
X8288Y5790
X9784Y6420
X8800Y7247
X5926Y8743
X4942Y9491
X6083Y9845
X6123Y10357
X4587Y11341
X4587Y12069
X5375Y13231
X4745Y14058
X5139Y15239
X4154Y16026
X2816Y14609
X1595Y16026
X5139Y18388
X4548Y19176
X1792Y19766
X6320Y16420
X7894Y14648
X8249Y13979
X7127Y13546
X6713Y14058
X6320Y11892
X8564Y10475
X11753Y9845
X12028Y9215
X12225Y10396
X12068Y11026
X10847Y12758
X12540Y13546
X13879Y13349
X13879Y14727
X15572Y16814
X17146Y15908
X17894Y15632
X17934Y16420
X17540Y17404
X19391Y16499
X20887Y16420
X22068Y16814
X23209Y15278
X24430Y13940
X25611Y15436
X27383Y15042
X28761Y15829
X30532Y15436
X30139Y14451
X31713Y14254
X32894Y15632
X32107Y16814
X31320Y18782
X29154Y20357
X28170Y18979
X26989Y18191
X25611Y19176
X26398Y19569
X24627Y18388
X22855Y19766
X24233Y20554
X21674Y21144
X18721Y19963
X17737Y20947
X15572Y20751
X14784Y19569
X13209Y20160
X11438Y19176
X13013Y18585
X12225Y17010
X10454Y17010
X9272Y18782
X10454Y20554
X17343Y18979
X21477Y18585
X29351Y12877
X30139Y11695
X30532Y10317
X30335Y9333
X31910Y10121
X33682Y9924
X33091Y12286
X33879Y12877
X27383Y11499
X26320Y12562
X23918Y11892
X24036Y10396
X22461Y9412
X21674Y10199
X20493Y10003
X21083Y9215
X24233Y9018
X26202Y7247
X27580Y7050
X27973Y7955
X29351Y7168
X26989Y9727
X33682Y7365
X32107Y2129
X31517Y1144
X19036Y11774
X17619Y12286
X5020Y7680
X3367Y8743
X3367Y9924
X1398Y10514
X2068Y6223
X3564Y5987
X3957Y4412
X2973Y4215
X5532Y3428
X5926Y2050
X4548Y1853
X8643Y751
T06
X11989Y4806
X12540Y6577
X16517Y11223
X16162Y12955
X14391Y13270
X17599Y15239
X20847Y14373
X21083Y13113
X27776Y12562
X19430Y8310
X22422Y6302
X30335Y6853
X30926Y5869
X31517Y5869
X32973Y6853
X8957Y19806
X8524Y19806
X7894Y19254
X7107Y19648
X7894Y17286
T07
X1891Y8871
X1891Y7197
T08
X2973Y11615
X2973Y13115
T09
X9587Y2916
X27068Y2916
T10
X24548Y5711
X24548Y7365
X26241Y11262
X27776Y13546
X23249Y18211
X34076Y20632
X12107Y7365
X12107Y5711
X9824Y5711
X1713Y4688
X6517Y15357
X10060Y15357
X6517Y18900
X33800Y4688
T11
X30375Y21026
X25178Y21026
T12
X20296Y19845
X18446Y18664
X20296Y17483
X25926Y17274
X27776Y17274
X29627Y17274
T13
X2580Y2129
X2580Y17877
X34076Y17877
X34076Y2129
M30
