G75*
G70*
%OFA0B0*%
%FSLAX24Y24*%
%IPPOS*%
%LPD*%
%AMOC8*
5,1,8,0,0,1.08239X$1,22.5*
%
%ADD10C,0.0080*%
%ADD11C,0.0040*%
%ADD12C,0.0060*%
%ADD13C,0.0050*%
%ADD14R,0.0200X0.0320*%
%ADD15R,0.0320X0.0200*%
%ADD16C,0.0220*%
D10*
X012286Y006833D02*
X012286Y010770D01*
X023506Y010770D01*
X023506Y006833D01*
X012286Y006833D01*
X032247Y009609D02*
X032640Y009609D01*
X032049Y009609D02*
X032051Y009648D01*
X032057Y009687D01*
X032067Y009725D01*
X032080Y009762D01*
X032097Y009797D01*
X032117Y009831D01*
X032141Y009862D01*
X032168Y009891D01*
X032197Y009917D01*
X032229Y009940D01*
X032263Y009960D01*
X032299Y009976D01*
X032336Y009988D01*
X032375Y009997D01*
X032414Y010002D01*
X032453Y010003D01*
X032492Y010000D01*
X032531Y009993D01*
X032568Y009982D01*
X032605Y009968D01*
X032640Y009950D01*
X032673Y009929D01*
X032704Y009904D01*
X032732Y009877D01*
X032757Y009847D01*
X032779Y009814D01*
X032798Y009780D01*
X032813Y009744D01*
X032825Y009706D01*
X032833Y009668D01*
X032837Y009629D01*
X032837Y009589D01*
X032833Y009550D01*
X032825Y009512D01*
X032813Y009474D01*
X032798Y009438D01*
X032779Y009404D01*
X032757Y009371D01*
X032732Y009341D01*
X032704Y009314D01*
X032673Y009289D01*
X032640Y009268D01*
X032605Y009250D01*
X032568Y009236D01*
X032531Y009225D01*
X032492Y009218D01*
X032453Y009215D01*
X032414Y009216D01*
X032375Y009221D01*
X032336Y009230D01*
X032299Y009242D01*
X032263Y009258D01*
X032229Y009278D01*
X032197Y009301D01*
X032168Y009327D01*
X032141Y009356D01*
X032117Y009387D01*
X032097Y009421D01*
X032080Y009456D01*
X032067Y009493D01*
X032057Y009531D01*
X032051Y009570D01*
X032049Y009609D01*
X032443Y009412D02*
X032443Y009806D01*
X032443Y005081D02*
X032443Y004688D01*
X032049Y004884D02*
X032051Y004923D01*
X032057Y004962D01*
X032067Y005000D01*
X032080Y005037D01*
X032097Y005072D01*
X032117Y005106D01*
X032141Y005137D01*
X032168Y005166D01*
X032197Y005192D01*
X032229Y005215D01*
X032263Y005235D01*
X032299Y005251D01*
X032336Y005263D01*
X032375Y005272D01*
X032414Y005277D01*
X032453Y005278D01*
X032492Y005275D01*
X032531Y005268D01*
X032568Y005257D01*
X032605Y005243D01*
X032640Y005225D01*
X032673Y005204D01*
X032704Y005179D01*
X032732Y005152D01*
X032757Y005122D01*
X032779Y005089D01*
X032798Y005055D01*
X032813Y005019D01*
X032825Y004981D01*
X032833Y004943D01*
X032837Y004904D01*
X032837Y004864D01*
X032833Y004825D01*
X032825Y004787D01*
X032813Y004749D01*
X032798Y004713D01*
X032779Y004679D01*
X032757Y004646D01*
X032732Y004616D01*
X032704Y004589D01*
X032673Y004564D01*
X032640Y004543D01*
X032605Y004525D01*
X032568Y004511D01*
X032531Y004500D01*
X032492Y004493D01*
X032453Y004490D01*
X032414Y004491D01*
X032375Y004496D01*
X032336Y004505D01*
X032299Y004517D01*
X032263Y004533D01*
X032229Y004553D01*
X032197Y004576D01*
X032168Y004602D01*
X032141Y004631D01*
X032117Y004662D01*
X032097Y004696D01*
X032080Y004731D01*
X032067Y004768D01*
X032057Y004806D01*
X032051Y004845D01*
X032049Y004884D01*
D11*
X008569Y001361D02*
X008492Y001438D01*
X008492Y001515D01*
X008569Y001591D01*
X008722Y001591D01*
X008799Y001668D01*
X008799Y001745D01*
X008722Y001821D01*
X008569Y001821D01*
X008492Y001745D01*
X008569Y001361D02*
X008722Y001361D01*
X008799Y001438D01*
X008952Y001361D02*
X009106Y001361D01*
X009029Y001361D02*
X009029Y001821D01*
X009106Y001821D02*
X008952Y001821D01*
X009259Y001745D02*
X009336Y001821D01*
X009490Y001821D01*
X009566Y001745D01*
X009566Y001668D01*
X009490Y001591D01*
X009336Y001591D01*
X009259Y001515D01*
X009259Y001438D01*
X009336Y001361D01*
X009490Y001361D01*
X009566Y001438D01*
X009720Y001361D02*
X009873Y001361D01*
X009796Y001361D02*
X009796Y001821D01*
X009720Y001821D02*
X009873Y001821D01*
X010487Y001438D02*
X010564Y001438D01*
X010564Y001361D01*
X010487Y001361D01*
X010487Y001438D01*
X010487Y001361D02*
X010640Y001208D01*
X010794Y001284D02*
X010794Y001668D01*
X011101Y001668D02*
X011101Y001438D01*
X011024Y001361D01*
X010794Y001361D01*
X010794Y001284D02*
X010871Y001208D01*
X010947Y001208D01*
X011254Y001361D02*
X011331Y001438D01*
X011331Y001745D01*
X011408Y001668D02*
X011254Y001668D01*
X011638Y001668D02*
X011638Y001361D01*
X011715Y001361D02*
X011561Y001361D01*
X011638Y001668D02*
X011715Y001668D01*
X011868Y001668D02*
X012098Y001668D01*
X012175Y001591D01*
X012098Y001515D01*
X011945Y001515D01*
X011868Y001438D01*
X011945Y001361D01*
X012175Y001361D01*
X012329Y001668D02*
X012405Y001668D01*
X012559Y001515D01*
X012559Y001668D02*
X012559Y001361D01*
X012712Y001515D02*
X013019Y001515D01*
X013019Y001591D02*
X012942Y001668D01*
X012789Y001668D01*
X012712Y001591D01*
X012712Y001515D01*
X012789Y001361D02*
X012942Y001361D01*
X013019Y001438D01*
X013019Y001591D01*
X013173Y001668D02*
X013326Y001361D01*
X013480Y001668D01*
X013710Y001668D02*
X013710Y001361D01*
X013787Y001361D02*
X013633Y001361D01*
X013940Y001361D02*
X013940Y001591D01*
X014017Y001668D01*
X014247Y001668D01*
X014247Y001361D01*
X014400Y001438D02*
X014400Y001821D01*
X014707Y001821D02*
X014707Y001438D01*
X014631Y001361D01*
X014477Y001361D01*
X014400Y001438D01*
X014116Y000936D02*
X014116Y000475D01*
X014346Y000475D01*
X014422Y000552D01*
X014422Y000705D01*
X014346Y000782D01*
X014116Y000782D01*
X013962Y000705D02*
X013885Y000782D01*
X013732Y000782D01*
X013655Y000705D01*
X013655Y000629D01*
X013962Y000629D01*
X013962Y000705D02*
X013962Y000552D01*
X013885Y000475D01*
X013732Y000475D01*
X013502Y000475D02*
X013502Y000552D01*
X013425Y000552D01*
X013425Y000475D01*
X013502Y000475D01*
X013271Y000552D02*
X013195Y000475D01*
X012965Y000475D01*
X012811Y000552D02*
X012734Y000475D01*
X012581Y000475D01*
X012504Y000552D01*
X012504Y000705D01*
X012581Y000782D01*
X012734Y000782D01*
X012811Y000705D01*
X012811Y000552D01*
X012965Y000782D02*
X013195Y000782D01*
X013271Y000705D01*
X013271Y000552D01*
X012351Y000475D02*
X012351Y000782D01*
X012274Y000782D01*
X012197Y000705D01*
X012120Y000782D01*
X012044Y000705D01*
X012044Y000475D01*
X012197Y000475D02*
X012197Y000705D01*
X013710Y001668D02*
X013787Y001668D01*
X013710Y001821D02*
X013710Y001898D01*
X014653Y000782D02*
X014806Y000782D01*
X014883Y000705D01*
X014883Y000552D01*
X014806Y000475D01*
X014653Y000475D01*
X014576Y000552D01*
X014576Y000705D01*
X014653Y000782D01*
X015036Y000782D02*
X015266Y000782D01*
X015343Y000705D01*
X015343Y000552D01*
X015266Y000475D01*
X015036Y000475D01*
X015497Y000629D02*
X015804Y000629D01*
X015804Y000705D02*
X015727Y000782D01*
X015573Y000782D01*
X015497Y000705D01*
X015497Y000629D01*
X015573Y000475D02*
X015727Y000475D01*
X015804Y000552D01*
X015804Y000705D01*
X015957Y000475D02*
X016111Y000475D01*
X016034Y000475D02*
X016034Y000936D01*
X016111Y000936D01*
X016264Y000782D02*
X016494Y000782D01*
X016571Y000705D01*
X016571Y000552D01*
X016494Y000475D01*
X016264Y000475D01*
X016264Y000399D02*
X016264Y000782D01*
X016724Y000705D02*
X016801Y000782D01*
X016955Y000782D01*
X017031Y000705D01*
X017031Y000552D01*
X016955Y000475D01*
X016801Y000475D01*
X016724Y000552D01*
X016724Y000705D01*
X016417Y000322D02*
X016341Y000322D01*
X016264Y000399D01*
X017185Y000552D02*
X017262Y000475D01*
X017415Y000475D01*
X017492Y000552D01*
X017492Y000705D01*
X017415Y000782D01*
X017262Y000782D01*
X017185Y000705D01*
X017185Y000552D01*
X017645Y000475D02*
X017875Y000475D01*
X017952Y000552D01*
X017952Y000705D01*
X017875Y000782D01*
X017645Y000782D01*
X017645Y000399D01*
X017722Y000322D01*
X017799Y000322D01*
X018106Y000475D02*
X018106Y000552D01*
X018182Y000552D01*
X018182Y000475D01*
X018106Y000475D01*
X018336Y000629D02*
X018643Y000629D01*
X018643Y000705D02*
X018566Y000782D01*
X018412Y000782D01*
X018336Y000705D01*
X018336Y000629D01*
X018412Y000475D02*
X018566Y000475D01*
X018643Y000552D01*
X018643Y000705D01*
X018796Y000782D02*
X018950Y000782D01*
X018873Y000859D02*
X018873Y000552D01*
X018796Y000475D01*
X019103Y000552D02*
X019103Y000705D01*
X019180Y000782D01*
X019333Y000782D01*
X019410Y000705D01*
X019410Y000552D01*
X019333Y000475D01*
X019180Y000475D01*
X019103Y000552D01*
X019563Y000475D02*
X019563Y000705D01*
X019640Y000782D01*
X019717Y000705D01*
X019717Y000475D01*
X019870Y000475D02*
X019870Y000782D01*
X019794Y000782D01*
X019717Y000705D01*
X020024Y000782D02*
X020101Y000782D01*
X020254Y000629D01*
X020254Y000782D02*
X020254Y000475D01*
X020408Y000475D02*
X020408Y000705D01*
X020484Y000782D01*
X020638Y000782D01*
X020638Y000629D02*
X020408Y000629D01*
X020408Y000475D02*
X020638Y000475D01*
X020714Y000552D01*
X020638Y000629D01*
X020868Y000705D02*
X020868Y000475D01*
X021021Y000475D02*
X021021Y000705D01*
X020945Y000782D01*
X020868Y000705D01*
X021021Y000705D02*
X021098Y000782D01*
X021175Y000782D01*
X021175Y000475D01*
X021635Y000475D02*
X021328Y000936D01*
X021789Y000936D02*
X022096Y000475D01*
X022249Y000475D02*
X022249Y000552D01*
X022326Y000552D01*
X022326Y000475D01*
X022249Y000475D01*
X022249Y000705D02*
X022326Y000705D01*
X022326Y000782D01*
X022249Y000782D01*
X022249Y000705D01*
X022479Y000705D02*
X022479Y000552D01*
X022556Y000475D01*
X022786Y000475D01*
X022786Y000322D02*
X022786Y000782D01*
X022556Y000782D01*
X022479Y000705D01*
X022940Y000782D02*
X023093Y000782D01*
X023016Y000859D02*
X023016Y000552D01*
X022940Y000475D01*
X023247Y000475D02*
X023323Y000552D01*
X023323Y000859D01*
X023400Y000782D02*
X023247Y000782D01*
X023554Y000705D02*
X023554Y000475D01*
X023554Y000705D02*
X023630Y000782D01*
X023784Y000782D01*
X023860Y000705D01*
X023860Y000475D02*
X023860Y000936D01*
X023809Y001361D02*
X023809Y001591D01*
X023886Y001668D01*
X024039Y001668D01*
X024116Y001591D01*
X024269Y001668D02*
X024500Y001668D01*
X024576Y001591D01*
X024576Y001438D01*
X024500Y001361D01*
X024269Y001361D01*
X024269Y001284D02*
X024269Y001668D01*
X024116Y001821D02*
X024116Y001361D01*
X024269Y001284D02*
X024346Y001208D01*
X024423Y001208D01*
X024730Y001361D02*
X024883Y001361D01*
X024807Y001361D02*
X024807Y001668D01*
X024883Y001668D01*
X025037Y001668D02*
X025113Y001668D01*
X025267Y001515D01*
X025267Y001668D02*
X025267Y001361D01*
X025420Y001361D02*
X025651Y001361D01*
X025727Y001438D01*
X025727Y001668D01*
X025881Y001591D02*
X025881Y001438D01*
X025958Y001361D01*
X026188Y001361D01*
X026188Y001208D02*
X026188Y001668D01*
X025958Y001668D01*
X025881Y001591D01*
X026341Y001591D02*
X026341Y001438D01*
X026418Y001361D01*
X026571Y001361D01*
X026648Y001438D01*
X026648Y001591D01*
X026571Y001668D01*
X026418Y001668D01*
X026341Y001591D01*
X026802Y001438D02*
X026878Y001361D01*
X027032Y001361D01*
X027109Y001438D01*
X027109Y001745D01*
X027032Y001821D01*
X026878Y001821D01*
X026802Y001745D01*
X025574Y001208D02*
X025497Y001208D01*
X025420Y001284D01*
X025420Y001668D01*
X024807Y001821D02*
X024807Y001898D01*
X023656Y001668D02*
X023502Y001668D01*
X023579Y001745D02*
X023579Y001438D01*
X023502Y001361D01*
X022888Y001438D02*
X022888Y001591D01*
X022812Y001668D01*
X022581Y001668D01*
X022581Y001361D02*
X022812Y001361D01*
X022888Y001438D01*
X021967Y001361D02*
X021661Y001668D01*
X021661Y001745D01*
X021737Y001821D01*
X021891Y001821D01*
X021967Y001745D01*
X021507Y001745D02*
X021430Y001821D01*
X021277Y001821D01*
X021200Y001745D01*
X021507Y001438D01*
X021430Y001361D01*
X021277Y001361D01*
X021200Y001438D01*
X021200Y001745D01*
X021047Y001668D02*
X020893Y001821D01*
X020893Y001361D01*
X020740Y001361D02*
X021047Y001361D01*
X020586Y001361D02*
X020279Y001668D01*
X020279Y001745D01*
X020356Y001821D01*
X020510Y001821D01*
X020586Y001745D01*
X020586Y001361D02*
X020279Y001361D01*
X019234Y001515D02*
X019081Y001361D01*
X018928Y001515D01*
X018928Y001821D01*
X018697Y001668D02*
X018544Y001668D01*
X018467Y001591D01*
X018467Y001361D01*
X018697Y001361D01*
X018774Y001438D01*
X018697Y001515D01*
X018467Y001515D01*
X018314Y001668D02*
X018084Y001668D01*
X018007Y001591D01*
X018007Y001361D01*
X017853Y001438D02*
X017853Y001591D01*
X017777Y001668D01*
X017546Y001668D01*
X017546Y001821D02*
X017546Y001361D01*
X017777Y001361D01*
X017853Y001438D01*
X017393Y001438D02*
X017393Y001591D01*
X017316Y001668D01*
X017163Y001668D01*
X017086Y001591D01*
X017086Y001515D01*
X017393Y001515D01*
X017393Y001438D02*
X017316Y001361D01*
X017163Y001361D01*
X016933Y001361D02*
X016933Y001668D01*
X016933Y001515D02*
X016779Y001668D01*
X016702Y001668D01*
X016549Y001668D02*
X016319Y001668D01*
X016242Y001591D01*
X016242Y001438D01*
X016319Y001361D01*
X016549Y001361D01*
X016549Y001821D01*
X016088Y001668D02*
X016012Y001668D01*
X016012Y001361D01*
X016088Y001361D02*
X015935Y001361D01*
X015782Y001361D02*
X015628Y001361D01*
X015705Y001361D02*
X015705Y001821D01*
X015782Y001821D01*
X016012Y001821D02*
X016012Y001898D01*
X015475Y001668D02*
X015321Y001668D01*
X015398Y001745D02*
X015398Y001438D01*
X015321Y001361D01*
X018314Y001361D02*
X018314Y001668D01*
X019234Y001821D02*
X019234Y001515D01*
X021507Y001438D02*
X021507Y001745D01*
X021661Y001361D02*
X021967Y001361D01*
X022030Y007444D02*
X022030Y007751D01*
X021877Y007751D02*
X021800Y007751D01*
X021877Y007751D02*
X022030Y007597D01*
X022184Y007521D02*
X022260Y007444D01*
X022414Y007444D01*
X022491Y007521D01*
X022491Y007674D01*
X022414Y007751D01*
X022260Y007751D01*
X022184Y007674D01*
X022184Y007521D01*
X022644Y007674D02*
X022797Y007674D01*
X022721Y007827D02*
X022721Y007444D01*
X022721Y007827D02*
X022644Y007904D01*
X022457Y008526D02*
X022534Y008603D01*
X022534Y008757D01*
X022457Y008833D01*
X022304Y008833D01*
X022227Y008757D01*
X022227Y008603D01*
X022304Y008526D01*
X022457Y008526D01*
X022687Y008757D02*
X022764Y008680D01*
X022994Y008680D01*
X022994Y008526D02*
X022994Y008987D01*
X022764Y008987D01*
X022687Y008910D01*
X022687Y008757D01*
X022074Y008833D02*
X022074Y008603D01*
X021997Y008526D01*
X021920Y008603D01*
X021843Y008526D01*
X021767Y008603D01*
X021767Y008833D01*
X021613Y008757D02*
X021536Y008833D01*
X021383Y008833D01*
X021306Y008757D01*
X021306Y008680D01*
X021613Y008680D01*
X021613Y008603D02*
X021613Y008757D01*
X021613Y008603D02*
X021536Y008526D01*
X021383Y008526D01*
X021153Y008526D02*
X021153Y008833D01*
X021153Y008680D02*
X020999Y008833D01*
X020923Y008833D01*
X020309Y008833D02*
X020309Y008526D01*
X020155Y008526D02*
X020155Y008757D01*
X020079Y008833D01*
X020002Y008757D01*
X020002Y008526D01*
X019848Y008603D02*
X019772Y008680D01*
X019541Y008680D01*
X019541Y008757D02*
X019541Y008526D01*
X019772Y008526D01*
X019848Y008603D01*
X019772Y008833D02*
X019618Y008833D01*
X019541Y008757D01*
X019388Y008833D02*
X019158Y008833D01*
X019081Y008757D01*
X019081Y008526D01*
X018928Y008603D02*
X018851Y008680D01*
X018621Y008680D01*
X018621Y008757D02*
X018621Y008526D01*
X018851Y008526D01*
X018928Y008603D01*
X018851Y008833D02*
X018697Y008833D01*
X018621Y008757D01*
X018467Y008757D02*
X018467Y008603D01*
X018390Y008526D01*
X018160Y008526D01*
X018160Y008450D02*
X018160Y008833D01*
X018390Y008833D01*
X018467Y008757D01*
X018160Y008450D02*
X018237Y008373D01*
X018314Y008373D01*
X018007Y008603D02*
X018007Y008757D01*
X017930Y008833D01*
X017777Y008833D01*
X017700Y008757D01*
X017700Y008680D01*
X018007Y008680D01*
X018007Y008603D02*
X017930Y008526D01*
X017777Y008526D01*
X017546Y008526D02*
X017546Y008833D01*
X017470Y008833D01*
X017393Y008757D01*
X017316Y008833D01*
X017239Y008757D01*
X017239Y008526D01*
X017393Y008526D02*
X017393Y008757D01*
X017086Y008757D02*
X017086Y008603D01*
X017009Y008526D01*
X016856Y008526D01*
X016779Y008680D02*
X017086Y008680D01*
X017086Y008757D02*
X017009Y008833D01*
X016856Y008833D01*
X016779Y008757D01*
X016779Y008680D01*
X016626Y008833D02*
X016395Y008833D01*
X016319Y008757D01*
X016319Y008526D01*
X016088Y008603D02*
X016012Y008526D01*
X016088Y008603D02*
X016088Y008910D01*
X016165Y008833D02*
X016012Y008833D01*
X015398Y008833D02*
X015398Y008526D01*
X015244Y008526D02*
X015244Y008757D01*
X015168Y008833D01*
X015091Y008757D01*
X015091Y008526D01*
X014937Y008603D02*
X014937Y008757D01*
X014861Y008833D01*
X014707Y008833D01*
X014631Y008757D01*
X014631Y008603D01*
X014707Y008526D01*
X014861Y008526D01*
X014937Y008603D01*
X015244Y008757D02*
X015321Y008833D01*
X015398Y008833D01*
X014477Y008757D02*
X014477Y008603D01*
X014400Y008526D01*
X014170Y008526D01*
X014170Y008987D01*
X014170Y008833D02*
X014400Y008833D01*
X014477Y008757D01*
X014017Y008833D02*
X014017Y008603D01*
X013940Y008526D01*
X013710Y008526D01*
X013710Y008833D01*
X013556Y008987D02*
X013480Y008987D01*
X013480Y008526D01*
X013556Y008526D02*
X013403Y008526D01*
X013249Y008603D02*
X013249Y008757D01*
X013173Y008833D01*
X013019Y008833D01*
X012942Y008757D01*
X012942Y008680D01*
X013249Y008680D01*
X013249Y008603D02*
X013173Y008526D01*
X013019Y008526D01*
X013129Y007751D02*
X013053Y007674D01*
X013053Y007444D01*
X013206Y007444D02*
X013206Y007674D01*
X013129Y007751D01*
X013206Y007674D02*
X013283Y007751D01*
X013359Y007751D01*
X013359Y007444D01*
X013590Y007751D02*
X013743Y007597D01*
X013743Y007444D02*
X013743Y007751D01*
X013590Y007751D02*
X013513Y007751D01*
X013897Y007674D02*
X013973Y007751D01*
X014127Y007751D01*
X014203Y007674D01*
X014203Y007521D01*
X014127Y007444D01*
X013973Y007444D01*
X013897Y007521D01*
X013897Y007674D01*
X014357Y007674D02*
X014510Y007674D01*
X014434Y007827D02*
X014434Y007444D01*
X014664Y007444D02*
X014741Y007521D01*
X014741Y007827D01*
X014817Y007751D02*
X014664Y007751D01*
X014434Y007827D02*
X014357Y007904D01*
X014971Y007674D02*
X014971Y007444D01*
X015201Y007444D01*
X015278Y007521D01*
X015201Y007597D01*
X014971Y007597D01*
X014971Y007674D02*
X015048Y007751D01*
X015201Y007751D01*
X015508Y007904D02*
X015508Y007444D01*
X015585Y007444D02*
X015431Y007444D01*
X015738Y007521D02*
X015815Y007444D01*
X016045Y007444D01*
X016045Y007290D02*
X016045Y007751D01*
X015815Y007751D01*
X015738Y007674D01*
X015738Y007521D01*
X015585Y007904D02*
X015508Y007904D01*
X016659Y007674D02*
X016659Y007597D01*
X016966Y007597D01*
X016966Y007521D02*
X016966Y007674D01*
X016889Y007751D01*
X016736Y007751D01*
X016659Y007674D01*
X016736Y007444D02*
X016889Y007444D01*
X016966Y007521D01*
X017119Y007444D02*
X017196Y007521D01*
X017196Y007827D01*
X017273Y007751D02*
X017119Y007751D01*
X017426Y007674D02*
X017503Y007751D01*
X017656Y007751D01*
X017733Y007674D01*
X017733Y007521D01*
X017656Y007444D01*
X017503Y007444D01*
X017426Y007521D01*
X017426Y007674D01*
X017887Y007674D02*
X017887Y007444D01*
X018040Y007444D02*
X018040Y007674D01*
X017963Y007751D01*
X017887Y007674D01*
X018040Y007674D02*
X018117Y007751D01*
X018194Y007751D01*
X018194Y007444D01*
X018577Y007444D02*
X018577Y007751D01*
X018424Y007751D02*
X018347Y007751D01*
X018424Y007751D02*
X018577Y007597D01*
X018731Y007597D02*
X018961Y007597D01*
X019038Y007521D01*
X018961Y007444D01*
X018731Y007444D01*
X018731Y007674D01*
X018807Y007751D01*
X018961Y007751D01*
X019191Y007904D02*
X019191Y007444D01*
X019498Y007444D02*
X019498Y007904D01*
X019345Y007751D01*
X019191Y007904D01*
X019388Y008526D02*
X019388Y008833D01*
X020155Y008757D02*
X020232Y008833D01*
X020309Y008833D01*
X020342Y007751D02*
X020189Y007751D01*
X020112Y007674D01*
X020112Y007597D01*
X020419Y007597D01*
X020419Y007521D02*
X020419Y007674D01*
X020342Y007751D01*
X020572Y007674D02*
X020572Y007444D01*
X020419Y007521D02*
X020342Y007444D01*
X020189Y007444D01*
X020572Y007674D02*
X020649Y007751D01*
X020802Y007751D01*
X020879Y007674D01*
X021033Y007751D02*
X021186Y007751D01*
X021109Y007827D02*
X021109Y007521D01*
X021033Y007444D01*
X020879Y007444D02*
X020879Y007904D01*
X016626Y008526D02*
X016626Y008833D01*
X011638Y001898D02*
X011638Y001821D01*
X030700Y009334D02*
X030700Y009794D01*
X030853Y009794D02*
X030546Y009794D01*
X031007Y009640D02*
X031007Y009334D01*
X031007Y009564D02*
X031313Y009564D01*
X031313Y009640D02*
X031313Y009334D01*
X031467Y009410D02*
X031544Y009334D01*
X031774Y009334D01*
X031774Y009794D01*
X031544Y009794D01*
X031467Y009717D01*
X031467Y009640D01*
X031544Y009564D01*
X031774Y009564D01*
X031544Y009564D02*
X031467Y009487D01*
X031467Y009410D01*
X031313Y009640D02*
X031160Y009794D01*
X031007Y009640D01*
X031094Y014845D02*
X031094Y015306D01*
X031401Y015306D02*
X031401Y014845D01*
X031248Y014999D01*
X031094Y014845D01*
X031554Y014922D02*
X031631Y014845D01*
X031785Y014845D01*
X031861Y014922D01*
X031785Y015076D02*
X031861Y015152D01*
X031861Y015229D01*
X031785Y015306D01*
X031631Y015306D01*
X031554Y015229D01*
X031631Y015076D02*
X031554Y014999D01*
X031554Y014922D01*
X031631Y015076D02*
X031785Y015076D01*
X032475Y015076D02*
X032552Y014999D01*
X032782Y014999D01*
X032629Y014999D02*
X032475Y014845D01*
X032475Y015076D02*
X032475Y015229D01*
X032552Y015306D01*
X032782Y015306D01*
X032782Y014845D01*
X032936Y014845D02*
X033089Y014999D01*
X033243Y014845D01*
X033243Y015306D01*
X033396Y015229D02*
X033396Y015076D01*
X033473Y014999D01*
X033703Y014999D01*
X033703Y014845D02*
X033703Y015306D01*
X033473Y015306D01*
X033396Y015229D01*
X032936Y015306D02*
X032936Y014845D01*
D12*
X023083Y010358D02*
X023083Y010251D01*
X022869Y010038D01*
X022869Y009718D01*
X022869Y010038D02*
X022656Y010251D01*
X022656Y010358D01*
X022438Y010038D02*
X022331Y010145D01*
X022118Y010145D01*
X022011Y010038D01*
X022011Y009931D01*
X022438Y009931D01*
X022438Y009824D02*
X022438Y010038D01*
X022438Y009824D02*
X022331Y009718D01*
X022118Y009718D01*
X021794Y009718D02*
X021580Y009718D01*
X021687Y009718D02*
X021687Y010358D01*
X021794Y010358D01*
X021364Y010358D02*
X021257Y010358D01*
X021257Y009718D01*
X021364Y009718D02*
X021150Y009718D01*
X020934Y009824D02*
X020934Y010038D01*
X020828Y010145D01*
X020614Y010145D01*
X020507Y010038D01*
X020507Y009824D01*
X020614Y009718D01*
X020828Y009718D01*
X020934Y009824D01*
X020290Y009824D02*
X020290Y010145D01*
X019863Y010145D02*
X019863Y009824D01*
X019969Y009718D01*
X020076Y009824D01*
X020183Y009718D01*
X020290Y009824D01*
X019645Y009718D02*
X019325Y009718D01*
X019218Y009824D01*
X019325Y009931D01*
X019538Y009931D01*
X019645Y010038D01*
X019538Y010145D01*
X019218Y010145D01*
X019001Y010145D02*
X018787Y010145D01*
X018894Y010251D02*
X018894Y009824D01*
X018787Y009718D01*
X018571Y009824D02*
X018571Y010038D01*
X018464Y010145D01*
X018251Y010145D01*
X018144Y010038D01*
X018144Y009824D01*
X018251Y009718D01*
X018464Y009718D01*
X018571Y009824D01*
X017926Y009718D02*
X017926Y010145D01*
X017606Y010145D01*
X017499Y010038D01*
X017499Y009718D01*
X017282Y009824D02*
X017282Y010038D01*
X017175Y010145D01*
X016962Y010145D01*
X016855Y010038D01*
X016855Y009931D01*
X017282Y009931D01*
X017282Y009824D02*
X017175Y009718D01*
X016962Y009718D01*
X015307Y009718D02*
X015307Y010358D01*
X014987Y010358D01*
X014880Y010251D01*
X014880Y010038D01*
X014987Y009931D01*
X015307Y009931D01*
X015094Y009931D02*
X014880Y009718D01*
X014663Y009824D02*
X014663Y010038D01*
X014556Y010145D01*
X014342Y010145D01*
X014236Y010038D01*
X014236Y009931D01*
X014663Y009931D01*
X014663Y009824D02*
X014556Y009718D01*
X014342Y009718D01*
X014018Y010145D02*
X013805Y009718D01*
X013591Y010145D01*
X013142Y010038D02*
X012822Y010038D01*
X012715Y009931D01*
X012715Y009824D01*
X012822Y009718D01*
X013142Y009718D01*
X013142Y010358D01*
X012822Y010358D01*
X012715Y010251D01*
X012715Y010145D01*
X012822Y010038D01*
D13*
X022384Y001538D02*
X022386Y001574D01*
X022392Y001610D01*
X022402Y001645D01*
X022415Y001679D01*
X022432Y001711D01*
X022452Y001741D01*
X022476Y001768D01*
X022502Y001793D01*
X022531Y001815D01*
X022562Y001834D01*
X022595Y001849D01*
X022629Y001861D01*
X022665Y001869D01*
X022701Y001873D01*
X022737Y001873D01*
X022773Y001869D01*
X022809Y001861D01*
X022843Y001849D01*
X022876Y001834D01*
X022907Y001815D01*
X022936Y001793D01*
X022962Y001768D01*
X022986Y001741D01*
X023006Y001711D01*
X023023Y001679D01*
X023036Y001645D01*
X023046Y001610D01*
X023052Y001574D01*
X023054Y001538D01*
X023052Y001502D01*
X023046Y001466D01*
X023036Y001431D01*
X023023Y001397D01*
X023006Y001365D01*
X022986Y001335D01*
X022962Y001308D01*
X022936Y001283D01*
X022907Y001261D01*
X022876Y001242D01*
X022843Y001227D01*
X022809Y001215D01*
X022773Y001207D01*
X022737Y001203D01*
X022701Y001203D01*
X022665Y001207D01*
X022629Y001215D01*
X022595Y001227D01*
X022562Y001242D01*
X022531Y001261D01*
X022502Y001283D01*
X022476Y001308D01*
X022452Y001335D01*
X022432Y001365D01*
X022415Y001397D01*
X022402Y001431D01*
X022392Y001466D01*
X022386Y001502D01*
X022384Y001538D01*
X031459Y005691D02*
X031459Y006459D01*
X031459Y005691D02*
X032365Y005691D01*
X033821Y006302D02*
X033821Y008191D01*
X032365Y008802D02*
X031459Y008802D01*
X031459Y008034D01*
X031459Y011203D02*
X031459Y011971D01*
X031459Y011203D02*
X032365Y011203D01*
X033821Y011814D02*
X033821Y013703D01*
X032365Y014314D02*
X031459Y014314D01*
X031459Y013546D01*
D14*
X026932Y015790D03*
X022562Y012443D03*
X019766Y012522D03*
X018585Y012207D03*
X018585Y011380D03*
X017168Y011302D03*
X017404Y013034D03*
X016538Y014530D03*
X014333Y014530D03*
X015947Y016223D03*
X011814Y016105D03*
X011499Y015199D03*
X009688Y013467D03*
X004688Y020239D03*
X002916Y020239D03*
X019766Y011380D03*
D15*
X017837Y014884D03*
X018940Y015436D03*
X015436Y014845D03*
X012877Y013191D03*
X011341Y013428D03*
X008762Y008270D03*
X007975Y008270D03*
X007798Y007089D03*
X008940Y007089D03*
X009727Y007089D03*
X006066Y007089D03*
X005278Y007089D03*
X023447Y014747D03*
X024235Y014747D03*
D16*
X021380Y012455D02*
X021380Y012431D01*
X009333Y010526D02*
X009333Y010502D01*
X009333Y009739D02*
X009333Y009715D01*
M02*
