G75*
G70*
%OFA0B0*%
%FSLAX24Y24*%
%IPPOS*%
%LPD*%
%AMOC8*
5,1,8,0,0,1.08239X$1,22.5*
%
%ADD10R,0.0434X0.0473*%
%ADD11R,0.0473X0.0434*%
%ADD12C,0.0985*%
%ADD13R,0.1379X0.0631*%
%ADD14R,0.1418X0.0434*%
%ADD15C,0.0410*%
%ADD16C,0.1339*%
%ADD17C,0.1240*%
%ADD18C,0.1045*%
%ADD19C,0.0591*%
%ADD20C,0.0394*%
D10*
X008999Y009727D03*
X009668Y009727D03*
X009668Y010514D03*
X008999Y010514D03*
X009353Y013467D03*
X010022Y013467D03*
X011164Y015199D03*
X011833Y015199D03*
X012148Y016105D03*
X011479Y016105D03*
X013999Y014530D03*
X014668Y014530D03*
X016203Y014530D03*
X016873Y014530D03*
X017069Y013034D03*
X017739Y013034D03*
X018251Y012207D03*
X018920Y012207D03*
X019432Y012522D03*
X020101Y012522D03*
X021046Y012443D03*
X021715Y012443D03*
X022227Y012443D03*
X022896Y012443D03*
X020101Y011380D03*
X019432Y011380D03*
X018920Y011380D03*
X018251Y011380D03*
X017503Y011302D03*
X016833Y011302D03*
X016282Y016223D03*
X015613Y016223D03*
X005022Y020239D03*
X004353Y020239D03*
X003251Y020239D03*
X002581Y020239D03*
X026597Y015790D03*
X027266Y015790D03*
D11*
X024235Y015081D03*
X023447Y015081D03*
X023447Y014412D03*
X024235Y014412D03*
X018940Y015101D03*
X018940Y015770D03*
X017837Y015219D03*
X017837Y014550D03*
X015436Y014510D03*
X015436Y015180D03*
X012877Y013526D03*
X012877Y012857D03*
X011341Y013093D03*
X011341Y013762D03*
X008762Y008605D03*
X008762Y007936D03*
X007975Y007936D03*
X007975Y008605D03*
X007798Y007424D03*
X007798Y006754D03*
X008940Y006754D03*
X008940Y007424D03*
X009727Y007424D03*
X009727Y006754D03*
X006066Y006754D03*
X006066Y007424D03*
X005278Y007424D03*
X005278Y006754D03*
D12*
X001262Y004688D03*
X009373Y005711D03*
X011656Y005711D03*
X011656Y007365D03*
X009609Y015357D03*
X006066Y015357D03*
X006066Y018900D03*
X022798Y018211D03*
X027325Y013546D03*
X025790Y011262D03*
X024097Y007365D03*
X024097Y005711D03*
X033349Y004688D03*
X033625Y020632D03*
D13*
X033152Y014077D03*
X033152Y011440D03*
X033152Y008566D03*
X033152Y005928D03*
D14*
X030967Y006853D03*
X030967Y007640D03*
X030967Y012365D03*
X030967Y013152D03*
D15*
X002522Y013115D03*
X002522Y011615D03*
D16*
X002129Y002129D03*
X002129Y017877D03*
X033625Y017877D03*
X033625Y002129D03*
D17*
X029176Y017274D03*
X027325Y017274D03*
X025475Y017274D03*
X019845Y017483D03*
X017995Y018664D03*
X019845Y019845D03*
D18*
X024727Y021026D03*
X029924Y021026D03*
D19*
X026617Y002916D03*
X009136Y002916D03*
D20*
X011538Y004806D03*
X012089Y006577D03*
X016066Y011223D03*
X015711Y012955D03*
X013940Y013270D03*
X017148Y015239D03*
X020396Y014373D03*
X020632Y013113D03*
X027325Y012562D03*
X018979Y008310D03*
X021971Y006302D03*
X029884Y006853D03*
X030475Y005869D03*
X031066Y005869D03*
X032522Y006853D03*
X008506Y019806D03*
X008073Y019806D03*
X007443Y019254D03*
X006656Y019648D03*
X007443Y017286D03*
X001440Y008871D03*
X001440Y007197D03*
M02*
