G75*
G70*
%OFA0B0*%
%FSLAX24Y24*%
%IPPOS*%
%LPD*%
%AMOC8*
5,1,8,0,0,1.08239X$1,22.5*
%
%ADD10R,0.0394X0.0433*%
%ADD11R,0.0433X0.0394*%
%ADD12R,0.1339X0.0591*%
%ADD13R,0.1378X0.0394*%
D10*
X009472Y007346D03*
X010142Y007346D03*
X010142Y008134D03*
X009472Y008134D03*
X009256Y009118D03*
X008586Y009118D03*
X007779Y009216D03*
X007110Y009216D03*
X007110Y010004D03*
X007779Y010004D03*
X012031Y008232D03*
X012701Y008232D03*
X014295Y010988D03*
X014964Y010988D03*
X014964Y011775D03*
X014295Y011775D03*
X017445Y013744D03*
X018114Y013744D03*
X017838Y014630D03*
X018508Y014630D03*
X018921Y013055D03*
X019590Y013055D03*
X022563Y013449D03*
X023232Y013449D03*
X023744Y013449D03*
X024413Y013449D03*
X024334Y012169D03*
X025004Y012169D03*
X024315Y011382D03*
X023646Y011382D03*
X023646Y010594D03*
X024315Y010594D03*
X026401Y012563D03*
X027071Y012563D03*
X027583Y012563D03*
X028252Y012563D03*
X019590Y010594D03*
X018921Y010594D03*
X014669Y014039D03*
X014000Y014039D03*
X015771Y015319D03*
X016441Y015319D03*
X011716Y015319D03*
X011047Y015319D03*
X011126Y014531D03*
X010457Y014531D03*
X005023Y020240D03*
X004354Y020240D03*
X003252Y020240D03*
X002583Y020240D03*
X017740Y007051D03*
X018409Y007051D03*
X033094Y020437D03*
X033764Y020437D03*
D11*
X020338Y011323D03*
X019551Y011244D03*
X020338Y010653D03*
X021126Y010457D03*
X021913Y010457D03*
X021913Y011126D03*
X021126Y011126D03*
X019551Y011913D03*
X017484Y011913D03*
X017484Y011244D03*
X015614Y011027D03*
X015614Y010358D03*
X015614Y011539D03*
X015614Y012209D03*
X015516Y014000D03*
X015516Y014669D03*
X017189Y014590D03*
X017189Y015260D03*
X011185Y009945D03*
X010397Y009945D03*
X010397Y009275D03*
X010791Y008665D03*
X011185Y009275D03*
X010791Y007996D03*
X010791Y007484D03*
X010791Y006815D03*
D12*
X033153Y005929D03*
X033153Y008567D03*
X033153Y011441D03*
X033153Y014079D03*
D13*
X030968Y013153D03*
X030968Y012366D03*
X030968Y007642D03*
X030968Y006854D03*
M02*
