G75*
G70*
%OFA0B0*%
%FSLAX24Y24*%
%IPPOS*%
%LPD*%
%AMOC8*
5,1,8,0,0,1.08239X$1,22.5*
%
%ADD10R,0.0236X0.0906*%
%ADD11C,0.0394*%
%ADD12C,0.0100*%
%ADD13C,0.0180*%
%ADD14C,0.0240*%
%ADD15C,0.0295*%
%ADD16C,0.0080*%
D10*
X009796Y002178D03*
X010189Y002178D03*
X010583Y002178D03*
X010977Y002178D03*
X011370Y002178D03*
X011764Y002178D03*
X012158Y002178D03*
X012552Y002178D03*
X012945Y002178D03*
X013339Y002178D03*
X013733Y002178D03*
X014126Y002178D03*
X014520Y002178D03*
X014914Y002178D03*
X015307Y002178D03*
X015701Y002178D03*
X016095Y002178D03*
X016489Y002178D03*
X016882Y002178D03*
X017276Y002178D03*
X017670Y002178D03*
X018063Y002178D03*
X018457Y002178D03*
X018851Y002178D03*
X019244Y002178D03*
X019638Y002178D03*
X020032Y002178D03*
X020426Y002178D03*
X020819Y002178D03*
X021213Y002178D03*
X021607Y002178D03*
X022000Y002178D03*
X022394Y002178D03*
X022788Y002178D03*
X023181Y002178D03*
X023575Y002178D03*
X023969Y002178D03*
X024363Y002178D03*
X024756Y002178D03*
X025150Y002178D03*
X025544Y002178D03*
X025937Y002178D03*
X025937Y003634D03*
X025544Y003634D03*
X025150Y003634D03*
X024756Y003634D03*
X024363Y003634D03*
X023969Y003634D03*
X023575Y003634D03*
X023181Y003634D03*
X022788Y003634D03*
X022394Y003634D03*
X022000Y003634D03*
X021607Y003634D03*
X021213Y003634D03*
X020819Y003634D03*
X020426Y003634D03*
X020032Y003634D03*
X019638Y003634D03*
X019244Y003634D03*
X018851Y003634D03*
X018457Y003634D03*
X018063Y003634D03*
X017670Y003634D03*
X017276Y003634D03*
X016882Y003634D03*
X016489Y003634D03*
X016095Y003634D03*
X015701Y003634D03*
X015307Y003634D03*
X014914Y003634D03*
X014520Y003634D03*
X014126Y003634D03*
X013733Y003634D03*
X013339Y003634D03*
X012945Y003634D03*
X012552Y003634D03*
X012158Y003634D03*
X011764Y003634D03*
X011370Y003634D03*
X010977Y003634D03*
X010583Y003634D03*
X010189Y003634D03*
X009796Y003634D03*
D11*
X000937Y000937D03*
X000937Y019048D03*
X034796Y019048D03*
X034796Y000937D03*
D12*
X032890Y000650D02*
X015093Y000650D01*
X015093Y001609D01*
X015097Y001605D01*
X015131Y001585D01*
X015170Y001575D01*
X015298Y001575D01*
X015298Y002168D01*
X015317Y002168D01*
X015317Y001575D01*
X015445Y001575D01*
X015483Y001585D01*
X015518Y001605D01*
X015546Y001633D01*
X015547Y001635D01*
X015857Y001635D01*
X015898Y001676D01*
X015939Y001635D01*
X016249Y001635D01*
X016250Y001633D01*
X016278Y001605D01*
X016313Y001585D01*
X016351Y001575D01*
X016480Y001575D01*
X016480Y002168D01*
X016498Y002168D01*
X016498Y001575D01*
X016626Y001575D01*
X016665Y001585D01*
X016699Y001605D01*
X016727Y001633D01*
X016728Y001635D01*
X017038Y001635D01*
X017066Y001663D01*
X017066Y001362D01*
X017189Y001239D01*
X017363Y001239D01*
X017486Y001362D01*
X017486Y001589D01*
X017494Y001585D01*
X017532Y001575D01*
X017661Y001575D01*
X017661Y002168D01*
X017679Y002168D01*
X017679Y001575D01*
X017808Y001575D01*
X017846Y001585D01*
X017880Y001605D01*
X017908Y001633D01*
X017909Y001635D01*
X018219Y001635D01*
X018260Y001676D01*
X018302Y001635D01*
X018611Y001635D01*
X018613Y001633D01*
X018641Y001605D01*
X018675Y001585D01*
X018713Y001575D01*
X018842Y001575D01*
X018842Y002168D01*
X018860Y002168D01*
X018860Y001575D01*
X018989Y001575D01*
X019027Y001585D01*
X019061Y001605D01*
X019089Y001633D01*
X019090Y001635D01*
X019400Y001635D01*
X019441Y001676D01*
X019483Y001635D01*
X019793Y001635D01*
X019794Y001633D01*
X019822Y001605D01*
X019856Y001585D01*
X019894Y001575D01*
X020023Y001575D01*
X020023Y002168D01*
X020041Y002168D01*
X020041Y001575D01*
X020170Y001575D01*
X020208Y001585D01*
X020242Y001605D01*
X020270Y001633D01*
X020271Y001635D01*
X020581Y001635D01*
X020622Y001676D01*
X020664Y001635D01*
X020974Y001635D01*
X020975Y001633D01*
X021003Y001605D01*
X021037Y001585D01*
X021075Y001575D01*
X021204Y001575D01*
X021204Y002168D01*
X021222Y002168D01*
X021222Y001575D01*
X021351Y001575D01*
X021389Y001585D01*
X021423Y001605D01*
X021451Y001633D01*
X021452Y001635D01*
X021762Y001635D01*
X021804Y001676D01*
X021845Y001635D01*
X022155Y001635D01*
X022156Y001633D01*
X022184Y001605D01*
X022218Y001585D01*
X022256Y001575D01*
X022385Y001575D01*
X022385Y002168D01*
X022403Y002168D01*
X022403Y001575D01*
X022532Y001575D01*
X022570Y001585D01*
X022604Y001605D01*
X022632Y001633D01*
X022633Y001635D01*
X022943Y001635D01*
X022985Y001676D01*
X023026Y001635D01*
X023336Y001635D01*
X023337Y001633D01*
X023365Y001605D01*
X023399Y001585D01*
X023437Y001575D01*
X023566Y001575D01*
X023566Y002168D01*
X023584Y002168D01*
X023584Y001575D01*
X023713Y001575D01*
X023751Y001585D01*
X023785Y001605D01*
X023813Y001633D01*
X023815Y001635D01*
X024124Y001635D01*
X024166Y001676D01*
X024207Y001635D01*
X024517Y001635D01*
X024518Y001633D01*
X024546Y001605D01*
X024580Y001585D01*
X024618Y001575D01*
X024747Y001575D01*
X024747Y002168D01*
X024765Y002168D01*
X024765Y001575D01*
X024894Y001575D01*
X024932Y001585D01*
X024967Y001605D01*
X024994Y001633D01*
X024996Y001635D01*
X025305Y001635D01*
X025334Y001663D01*
X025334Y001126D01*
X025457Y001003D01*
X025631Y001003D01*
X025754Y001126D01*
X025754Y001589D01*
X025761Y001585D01*
X025800Y001575D01*
X025928Y001575D01*
X025928Y002168D01*
X025946Y002168D01*
X025946Y001575D01*
X026075Y001575D01*
X026113Y001585D01*
X026148Y001605D01*
X026176Y001633D01*
X026195Y001667D01*
X026206Y001705D01*
X026206Y002169D01*
X025946Y002169D01*
X025946Y002187D01*
X026206Y002187D01*
X026206Y002287D01*
X026462Y002180D01*
X026751Y002180D01*
X027018Y002291D01*
X027222Y002495D01*
X027332Y002762D01*
X027332Y003050D01*
X027222Y003317D01*
X027018Y003521D01*
X026751Y003631D01*
X026462Y003631D01*
X026206Y003525D01*
X026206Y003625D01*
X025946Y003625D01*
X025946Y003643D01*
X025928Y003643D01*
X025928Y004237D01*
X025872Y004237D01*
X025872Y004331D01*
X025749Y004454D01*
X025339Y004454D01*
X025216Y004331D01*
X025216Y004177D01*
X024996Y004177D01*
X024994Y004179D01*
X024967Y004207D01*
X024932Y004227D01*
X024894Y004237D01*
X024765Y004237D01*
X024765Y003643D01*
X024747Y003643D01*
X024747Y004237D01*
X024618Y004237D01*
X024580Y004227D01*
X024573Y004222D01*
X024573Y004371D01*
X024450Y004494D01*
X024276Y004494D01*
X024166Y004384D01*
X024056Y004494D01*
X023882Y004494D01*
X023759Y004371D01*
X023759Y004222D01*
X023751Y004227D01*
X023713Y004237D01*
X023584Y004237D01*
X023584Y003643D01*
X023566Y003643D01*
X023566Y004237D01*
X023437Y004237D01*
X023399Y004227D01*
X023391Y004222D01*
X023391Y004371D01*
X023268Y004494D01*
X023095Y004494D01*
X022985Y004384D01*
X022875Y004494D01*
X022701Y004494D01*
X022578Y004371D01*
X022578Y004222D01*
X022570Y004227D01*
X022532Y004237D01*
X022403Y004237D01*
X022403Y003643D01*
X022385Y003643D01*
X022385Y004237D01*
X022256Y004237D01*
X022218Y004227D01*
X022210Y004222D01*
X022210Y004371D01*
X022087Y004494D01*
X021913Y004494D01*
X021804Y004384D01*
X021694Y004494D01*
X021520Y004494D01*
X021397Y004371D01*
X021397Y004222D01*
X021389Y004227D01*
X021351Y004237D01*
X021222Y004237D01*
X021222Y003643D01*
X021204Y003643D01*
X021204Y004237D01*
X021075Y004237D01*
X021037Y004227D01*
X021029Y004222D01*
X021029Y004371D01*
X020906Y004494D01*
X020732Y004494D01*
X020622Y004384D01*
X020513Y004494D01*
X020339Y004494D01*
X020216Y004371D01*
X020216Y004222D01*
X020208Y004227D01*
X020170Y004237D01*
X020041Y004237D01*
X020041Y003643D01*
X020023Y003643D01*
X020023Y004237D01*
X019894Y004237D01*
X019856Y004227D01*
X019848Y004222D01*
X019848Y004371D01*
X019725Y004494D01*
X019551Y004494D01*
X019441Y004384D01*
X019331Y004494D01*
X019158Y004494D01*
X019034Y004371D01*
X019034Y004222D01*
X019027Y004227D01*
X018989Y004237D01*
X018860Y004237D01*
X018860Y003643D01*
X018842Y003643D01*
X018842Y004237D01*
X018713Y004237D01*
X018675Y004227D01*
X018667Y004222D01*
X018667Y004371D01*
X018544Y004494D01*
X018370Y004494D01*
X018260Y004384D01*
X018150Y004494D01*
X017976Y004494D01*
X017853Y004371D01*
X017853Y004222D01*
X017846Y004227D01*
X017808Y004237D01*
X017679Y004237D01*
X017679Y003643D01*
X017661Y003643D01*
X017661Y004237D01*
X017532Y004237D01*
X017494Y004227D01*
X017486Y004222D01*
X017486Y004371D01*
X017363Y004494D01*
X017189Y004494D01*
X017079Y004384D01*
X016969Y004494D01*
X016795Y004494D01*
X016672Y004371D01*
X016672Y004222D01*
X016665Y004227D01*
X016626Y004237D01*
X016498Y004237D01*
X016498Y003643D01*
X016480Y003643D01*
X016480Y004237D01*
X016351Y004237D01*
X016313Y004227D01*
X016305Y004222D01*
X016305Y004371D01*
X016182Y004494D01*
X016008Y004494D01*
X015898Y004384D01*
X015788Y004494D01*
X015614Y004494D01*
X015491Y004371D01*
X015491Y004222D01*
X015483Y004227D01*
X015445Y004237D01*
X015317Y004237D01*
X015317Y003643D01*
X015298Y003643D01*
X015298Y004237D01*
X015212Y004237D01*
X015212Y004358D01*
X015106Y004464D01*
X015050Y004464D01*
X015015Y004499D01*
X015015Y004508D01*
X017290Y004508D01*
X017367Y004584D01*
X019256Y006474D01*
X019256Y007088D01*
X019327Y007017D01*
X019340Y007017D01*
X019340Y006926D01*
X019446Y006820D01*
X019595Y006820D01*
X019700Y006926D01*
X019700Y007075D01*
X019595Y007180D01*
X019582Y007180D01*
X019582Y007272D01*
X019477Y007377D01*
X019411Y007377D01*
X019571Y007537D01*
X019571Y008275D01*
X019495Y008351D01*
X019335Y008511D01*
X019335Y008710D01*
X019379Y008710D01*
X019379Y008658D01*
X019485Y008553D01*
X019634Y008553D01*
X019739Y008658D01*
X019739Y008807D01*
X019634Y008913D01*
X019582Y008913D01*
X019582Y008965D01*
X019477Y009070D01*
X019424Y009070D01*
X019424Y009162D01*
X019319Y009267D01*
X019170Y009267D01*
X019064Y009162D01*
X019064Y009012D01*
X019075Y009002D01*
X019075Y008403D01*
X019311Y008167D01*
X019311Y007818D01*
X019240Y007889D01*
X019091Y007889D01*
X019028Y007826D01*
X018965Y007889D01*
X018816Y007889D01*
X018752Y007826D01*
X018689Y007889D01*
X018540Y007889D01*
X018477Y007826D01*
X018414Y007889D01*
X018272Y007889D01*
X018272Y010127D01*
X018374Y010127D01*
X018480Y010233D01*
X018480Y010382D01*
X018469Y010393D01*
X018469Y011017D01*
X018603Y010884D01*
X018603Y009960D01*
X018553Y009910D01*
X018553Y009760D01*
X018658Y009655D01*
X018800Y009655D01*
X018800Y008818D01*
X018272Y008818D01*
X018272Y008720D02*
X018710Y008720D01*
X018710Y008728D02*
X018710Y008579D01*
X018816Y008474D01*
X018965Y008474D01*
X019070Y008579D01*
X019070Y008728D01*
X019060Y008739D01*
X019060Y011002D01*
X019060Y011109D01*
X017091Y013078D01*
X017015Y013154D01*
X008070Y013154D01*
X008020Y013204D01*
X007871Y013204D01*
X007765Y013099D01*
X007765Y012949D01*
X007797Y012918D01*
X004566Y012918D01*
X004516Y012968D01*
X004367Y012968D01*
X004261Y012862D01*
X004261Y012713D01*
X004293Y012682D01*
X002716Y012682D01*
X002666Y012732D01*
X002516Y012732D01*
X002411Y012626D01*
X002411Y012477D01*
X002516Y012372D01*
X002666Y012372D01*
X002716Y012422D01*
X006143Y012422D01*
X006112Y012390D01*
X006112Y012298D01*
X000650Y012298D01*
X000650Y017124D01*
X000909Y016744D01*
X001294Y016438D01*
X001751Y016258D01*
X001751Y016258D01*
X002242Y016221D01*
X002721Y016331D01*
X002721Y016331D01*
X003147Y016577D01*
X003482Y016937D01*
X003695Y017380D01*
X003769Y017867D01*
X003695Y018353D01*
X003482Y018796D01*
X003147Y019157D01*
X002721Y019402D01*
X002242Y019512D01*
X001751Y019475D01*
X001294Y019295D01*
X001294Y019295D01*
X001182Y019207D01*
X001181Y019210D01*
X001100Y019291D01*
X000994Y019334D01*
X000880Y019334D01*
X000775Y019291D01*
X000694Y019210D01*
X000651Y019105D01*
X000651Y018991D01*
X000694Y018885D01*
X000775Y018804D01*
X000781Y018802D01*
X000650Y018609D01*
X000650Y021697D01*
X030916Y021697D01*
X030916Y020349D01*
X023987Y013420D01*
X023987Y009010D01*
X019893Y004916D01*
X019893Y004833D01*
X019951Y004774D01*
X019961Y004764D01*
X019990Y004735D01*
X019990Y004735D01*
X019990Y004735D01*
X020032Y004735D01*
X020073Y004735D01*
X020073Y004735D01*
X020073Y004735D01*
X020102Y004764D01*
X024207Y008830D01*
X024207Y008830D01*
X024236Y008859D01*
X024266Y008888D01*
X024266Y008929D01*
X024266Y008970D01*
X024266Y008971D01*
X024266Y013298D01*
X031156Y020187D01*
X031156Y021697D01*
X035083Y021697D01*
X035083Y018578D01*
X034978Y018796D01*
X034964Y018811D01*
X035039Y018885D01*
X035083Y018991D01*
X035083Y019105D01*
X035039Y019210D01*
X034958Y019291D01*
X034853Y019334D01*
X034739Y019334D01*
X034633Y019291D01*
X034552Y019210D01*
X034552Y019209D01*
X034217Y019402D01*
X033738Y019512D01*
X033738Y019512D01*
X033247Y019475D01*
X032790Y019295D01*
X032405Y018989D01*
X032405Y018989D01*
X032128Y018582D01*
X031983Y018112D01*
X031983Y017621D01*
X032128Y017151D01*
X032128Y017151D01*
X032405Y016744D01*
X032790Y016438D01*
X033247Y016258D01*
X033247Y016258D01*
X033738Y016221D01*
X034217Y016331D01*
X034217Y016331D01*
X034643Y016577D01*
X034978Y016937D01*
X035083Y017156D01*
X035083Y002830D01*
X034978Y003048D01*
X034643Y003409D01*
X034217Y003654D01*
X033738Y003764D01*
X033738Y003764D01*
X033247Y003727D01*
X032790Y003547D01*
X032405Y003241D01*
X032405Y003241D01*
X032128Y002834D01*
X031983Y002364D01*
X031983Y001873D01*
X032128Y001403D01*
X032128Y001403D01*
X032405Y000996D01*
X032790Y000690D01*
X032890Y000650D01*
X032790Y000690D02*
X032790Y000690D01*
X032725Y000741D02*
X015093Y000741D01*
X015093Y000840D02*
X032602Y000840D01*
X032478Y000938D02*
X015093Y000938D01*
X015093Y001037D02*
X025423Y001037D01*
X025334Y001135D02*
X015093Y001135D01*
X015093Y001234D02*
X025334Y001234D01*
X025334Y001332D02*
X017456Y001332D01*
X017486Y001431D02*
X025334Y001431D01*
X025334Y001529D02*
X017486Y001529D01*
X017661Y001628D02*
X017679Y001628D01*
X017679Y001726D02*
X017661Y001726D01*
X017661Y001825D02*
X017679Y001825D01*
X017679Y001923D02*
X017661Y001923D01*
X017661Y002022D02*
X017679Y002022D01*
X017679Y002120D02*
X017661Y002120D01*
X017661Y002187D02*
X017661Y002780D01*
X017532Y002780D01*
X017494Y002770D01*
X017459Y002750D01*
X017432Y002722D01*
X017430Y002720D01*
X017121Y002720D01*
X017079Y002679D01*
X017038Y002720D01*
X016728Y002720D01*
X016727Y002722D01*
X016699Y002750D01*
X016665Y002770D01*
X016626Y002780D01*
X016498Y002780D01*
X016498Y002187D01*
X016480Y002187D01*
X016480Y002780D01*
X016351Y002780D01*
X016313Y002770D01*
X016278Y002750D01*
X016250Y002722D01*
X016249Y002720D01*
X015939Y002720D01*
X015898Y002679D01*
X015857Y002720D01*
X015547Y002720D01*
X015546Y002722D01*
X015518Y002750D01*
X015483Y002770D01*
X015445Y002780D01*
X015317Y002780D01*
X015317Y002187D01*
X015298Y002187D01*
X015298Y002780D01*
X015170Y002780D01*
X015131Y002770D01*
X015097Y002750D01*
X015093Y002746D01*
X015093Y003066D01*
X015097Y003061D01*
X015131Y003042D01*
X015170Y003031D01*
X015298Y003031D01*
X015298Y003625D01*
X015317Y003625D01*
X015317Y003031D01*
X015445Y003031D01*
X015483Y003042D01*
X015518Y003061D01*
X015546Y003089D01*
X015547Y003091D01*
X015857Y003091D01*
X015898Y003133D01*
X015939Y003091D01*
X016249Y003091D01*
X016250Y003089D01*
X016278Y003061D01*
X016313Y003042D01*
X016351Y003031D01*
X016480Y003031D01*
X016480Y003625D01*
X016498Y003625D01*
X016498Y003031D01*
X016626Y003031D01*
X016665Y003042D01*
X016699Y003061D01*
X016727Y003089D01*
X016728Y003091D01*
X017038Y003091D01*
X017079Y003133D01*
X017121Y003091D01*
X017430Y003091D01*
X017432Y003089D01*
X017459Y003061D01*
X017494Y003042D01*
X017532Y003031D01*
X017661Y003031D01*
X017661Y003625D01*
X017679Y003625D01*
X017679Y003031D01*
X017808Y003031D01*
X017846Y003042D01*
X017880Y003061D01*
X017908Y003089D01*
X017909Y003091D01*
X018219Y003091D01*
X018260Y003133D01*
X018302Y003091D01*
X018611Y003091D01*
X018613Y003089D01*
X018641Y003061D01*
X018675Y003042D01*
X018713Y003031D01*
X018842Y003031D01*
X018842Y003625D01*
X018860Y003625D01*
X018860Y003031D01*
X018989Y003031D01*
X019027Y003042D01*
X019061Y003061D01*
X019089Y003089D01*
X019090Y003091D01*
X019400Y003091D01*
X019441Y003133D01*
X019483Y003091D01*
X019793Y003091D01*
X019794Y003089D01*
X019822Y003061D01*
X019856Y003042D01*
X019894Y003031D01*
X020023Y003031D01*
X020023Y003625D01*
X020041Y003625D01*
X020041Y003031D01*
X020170Y003031D01*
X020208Y003042D01*
X020242Y003061D01*
X020270Y003089D01*
X020271Y003091D01*
X020581Y003091D01*
X020622Y003133D01*
X020664Y003091D01*
X020974Y003091D01*
X020975Y003089D01*
X021003Y003061D01*
X021037Y003042D01*
X021075Y003031D01*
X021204Y003031D01*
X021204Y003625D01*
X021222Y003625D01*
X021222Y003031D01*
X021351Y003031D01*
X021389Y003042D01*
X021423Y003061D01*
X021451Y003089D01*
X021452Y003091D01*
X021762Y003091D01*
X021804Y003133D01*
X021845Y003091D01*
X022155Y003091D01*
X022156Y003089D01*
X022184Y003061D01*
X022218Y003042D01*
X022256Y003031D01*
X022385Y003031D01*
X022385Y003625D01*
X022403Y003625D01*
X022403Y003031D01*
X022532Y003031D01*
X022570Y003042D01*
X022604Y003061D01*
X022632Y003089D01*
X022633Y003091D01*
X022943Y003091D01*
X022985Y003133D01*
X023026Y003091D01*
X023336Y003091D01*
X023337Y003089D01*
X023365Y003061D01*
X023399Y003042D01*
X023437Y003031D01*
X023566Y003031D01*
X023566Y003625D01*
X023584Y003625D01*
X023584Y003031D01*
X023713Y003031D01*
X023751Y003042D01*
X023785Y003061D01*
X023813Y003089D01*
X023815Y003091D01*
X024124Y003091D01*
X024166Y003133D01*
X024207Y003091D01*
X024517Y003091D01*
X024518Y003089D01*
X024546Y003061D01*
X024580Y003042D01*
X024618Y003031D01*
X024747Y003031D01*
X024747Y003625D01*
X024765Y003625D01*
X024765Y003031D01*
X024894Y003031D01*
X024932Y003042D01*
X024967Y003061D01*
X024994Y003089D01*
X024996Y003091D01*
X025305Y003091D01*
X025334Y003120D01*
X025334Y002692D01*
X025305Y002720D01*
X024996Y002720D01*
X024994Y002722D01*
X024967Y002750D01*
X024932Y002770D01*
X024894Y002780D01*
X024765Y002780D01*
X024765Y002187D01*
X024747Y002187D01*
X024747Y002780D01*
X024618Y002780D01*
X024580Y002770D01*
X024546Y002750D01*
X024518Y002722D01*
X024517Y002720D01*
X024207Y002720D01*
X024166Y002679D01*
X024124Y002720D01*
X023815Y002720D01*
X023813Y002722D01*
X023785Y002750D01*
X023751Y002770D01*
X023713Y002780D01*
X023584Y002780D01*
X023584Y002187D01*
X023566Y002187D01*
X023566Y002780D01*
X023437Y002780D01*
X023399Y002770D01*
X023365Y002750D01*
X023337Y002722D01*
X023336Y002720D01*
X023026Y002720D01*
X022985Y002679D01*
X022943Y002720D01*
X022633Y002720D01*
X022632Y002722D01*
X022604Y002750D01*
X022570Y002770D01*
X022532Y002780D01*
X022403Y002780D01*
X022403Y002187D01*
X022385Y002187D01*
X022385Y002780D01*
X022256Y002780D01*
X022218Y002770D01*
X022184Y002750D01*
X022156Y002722D01*
X022155Y002720D01*
X021845Y002720D01*
X021804Y002679D01*
X021762Y002720D01*
X021452Y002720D01*
X021451Y002722D01*
X021423Y002750D01*
X021389Y002770D01*
X021351Y002780D01*
X021222Y002780D01*
X021222Y002187D01*
X021204Y002187D01*
X021204Y002780D01*
X021075Y002780D01*
X021037Y002770D01*
X021003Y002750D01*
X020975Y002722D01*
X020974Y002720D01*
X020664Y002720D01*
X020622Y002679D01*
X020581Y002720D01*
X020271Y002720D01*
X020270Y002722D01*
X020242Y002750D01*
X020208Y002770D01*
X020170Y002780D01*
X020041Y002780D01*
X020041Y002187D01*
X020023Y002187D01*
X020023Y002780D01*
X019894Y002780D01*
X019856Y002770D01*
X019822Y002750D01*
X019794Y002722D01*
X019793Y002720D01*
X019483Y002720D01*
X019441Y002679D01*
X019400Y002720D01*
X019090Y002720D01*
X019089Y002722D01*
X019061Y002750D01*
X019027Y002770D01*
X018989Y002780D01*
X018860Y002780D01*
X018860Y002187D01*
X018842Y002187D01*
X018842Y002780D01*
X018713Y002780D01*
X018675Y002770D01*
X018641Y002750D01*
X018613Y002722D01*
X018611Y002720D01*
X018302Y002720D01*
X018260Y002679D01*
X018219Y002720D01*
X017909Y002720D01*
X017908Y002722D01*
X017880Y002750D01*
X017846Y002770D01*
X017808Y002780D01*
X017679Y002780D01*
X017679Y002187D01*
X017661Y002187D01*
X017661Y002219D02*
X017679Y002219D01*
X017679Y002317D02*
X017661Y002317D01*
X017661Y002416D02*
X017679Y002416D01*
X017679Y002514D02*
X017661Y002514D01*
X017661Y002613D02*
X017679Y002613D01*
X017679Y002711D02*
X017661Y002711D01*
X017661Y003105D02*
X017679Y003105D01*
X017679Y003204D02*
X017661Y003204D01*
X017661Y003302D02*
X017679Y003302D01*
X017679Y003401D02*
X017661Y003401D01*
X017661Y003499D02*
X017679Y003499D01*
X017679Y003598D02*
X017661Y003598D01*
X017661Y003696D02*
X017679Y003696D01*
X017679Y003795D02*
X017661Y003795D01*
X017661Y003893D02*
X017679Y003893D01*
X017679Y003992D02*
X017661Y003992D01*
X017661Y004090D02*
X017679Y004090D01*
X017679Y004189D02*
X017661Y004189D01*
X017486Y004287D02*
X017853Y004287D01*
X017868Y004386D02*
X017471Y004386D01*
X017373Y004484D02*
X017967Y004484D01*
X018160Y004484D02*
X018360Y004484D01*
X018262Y004386D02*
X018259Y004386D01*
X018554Y004484D02*
X019148Y004484D01*
X019049Y004386D02*
X018652Y004386D01*
X018667Y004287D02*
X019034Y004287D01*
X018860Y004189D02*
X018842Y004189D01*
X018842Y004090D02*
X018860Y004090D01*
X018860Y003992D02*
X018842Y003992D01*
X018842Y003893D02*
X018860Y003893D01*
X018860Y003795D02*
X018842Y003795D01*
X018842Y003696D02*
X018860Y003696D01*
X018860Y003598D02*
X018842Y003598D01*
X018842Y003499D02*
X018860Y003499D01*
X018860Y003401D02*
X018842Y003401D01*
X018842Y003302D02*
X018860Y003302D01*
X018860Y003204D02*
X018842Y003204D01*
X018842Y003105D02*
X018860Y003105D01*
X018842Y002711D02*
X018860Y002711D01*
X018860Y002613D02*
X018842Y002613D01*
X018842Y002514D02*
X018860Y002514D01*
X018860Y002416D02*
X018842Y002416D01*
X018842Y002317D02*
X018860Y002317D01*
X018860Y002219D02*
X018842Y002219D01*
X018842Y002120D02*
X018860Y002120D01*
X018860Y002022D02*
X018842Y002022D01*
X018842Y001923D02*
X018860Y001923D01*
X018860Y001825D02*
X018842Y001825D01*
X018842Y001726D02*
X018860Y001726D01*
X018860Y001628D02*
X018842Y001628D01*
X018618Y001628D02*
X017903Y001628D01*
X017066Y001628D02*
X016722Y001628D01*
X016498Y001628D02*
X016480Y001628D01*
X016480Y001726D02*
X016498Y001726D01*
X016498Y001825D02*
X016480Y001825D01*
X016480Y001923D02*
X016498Y001923D01*
X016498Y002022D02*
X016480Y002022D01*
X016480Y002120D02*
X016498Y002120D01*
X016498Y002219D02*
X016480Y002219D01*
X016480Y002317D02*
X016498Y002317D01*
X016498Y002416D02*
X016480Y002416D01*
X016480Y002514D02*
X016498Y002514D01*
X016498Y002613D02*
X016480Y002613D01*
X016480Y002711D02*
X016498Y002711D01*
X016480Y003105D02*
X016498Y003105D01*
X016498Y003204D02*
X016480Y003204D01*
X016480Y003302D02*
X016498Y003302D01*
X016498Y003401D02*
X016480Y003401D01*
X016480Y003499D02*
X016498Y003499D01*
X016498Y003598D02*
X016480Y003598D01*
X016480Y003696D02*
X016498Y003696D01*
X016498Y003795D02*
X016480Y003795D01*
X016480Y003893D02*
X016498Y003893D01*
X016498Y003992D02*
X016480Y003992D01*
X016480Y004090D02*
X016498Y004090D01*
X016498Y004189D02*
X016480Y004189D01*
X016305Y004287D02*
X016672Y004287D01*
X016687Y004386D02*
X016290Y004386D01*
X016192Y004484D02*
X016785Y004484D01*
X016979Y004484D02*
X017179Y004484D01*
X017081Y004386D02*
X017078Y004386D01*
X017365Y004583D02*
X025227Y004583D01*
X025272Y004537D02*
X025421Y004537D01*
X025445Y004561D01*
X025469Y004537D01*
X025618Y004537D01*
X025642Y004561D01*
X025666Y004537D01*
X025815Y004537D01*
X025921Y004642D01*
X025921Y004791D01*
X025815Y004897D01*
X025666Y004897D01*
X025642Y004873D01*
X025618Y004897D01*
X025469Y004897D01*
X025445Y004873D01*
X025421Y004897D01*
X025272Y004897D01*
X025167Y004791D01*
X025167Y004642D01*
X025272Y004537D01*
X025270Y004386D02*
X024558Y004386D01*
X024573Y004287D02*
X025216Y004287D01*
X025216Y004189D02*
X024985Y004189D01*
X024765Y004189D02*
X024747Y004189D01*
X024747Y004090D02*
X024765Y004090D01*
X024765Y003992D02*
X024747Y003992D01*
X024747Y003893D02*
X024765Y003893D01*
X024765Y003795D02*
X024747Y003795D01*
X024747Y003696D02*
X024765Y003696D01*
X024765Y003598D02*
X024747Y003598D01*
X024747Y003499D02*
X024765Y003499D01*
X024765Y003401D02*
X024747Y003401D01*
X024747Y003302D02*
X024765Y003302D01*
X024765Y003204D02*
X024747Y003204D01*
X024747Y003105D02*
X024765Y003105D01*
X024747Y002711D02*
X024765Y002711D01*
X024765Y002613D02*
X024747Y002613D01*
X024747Y002514D02*
X024765Y002514D01*
X024765Y002416D02*
X024747Y002416D01*
X024747Y002317D02*
X024765Y002317D01*
X024765Y002219D02*
X024747Y002219D01*
X024747Y002120D02*
X024765Y002120D01*
X024765Y002022D02*
X024747Y002022D01*
X024747Y001923D02*
X024765Y001923D01*
X024765Y001825D02*
X024747Y001825D01*
X024747Y001726D02*
X024765Y001726D01*
X024765Y001628D02*
X024747Y001628D01*
X024523Y001628D02*
X023808Y001628D01*
X023584Y001628D02*
X023566Y001628D01*
X023566Y001726D02*
X023584Y001726D01*
X023584Y001825D02*
X023566Y001825D01*
X023566Y001923D02*
X023584Y001923D01*
X023584Y002022D02*
X023566Y002022D01*
X023566Y002120D02*
X023584Y002120D01*
X023584Y002219D02*
X023566Y002219D01*
X023566Y002317D02*
X023584Y002317D01*
X023584Y002416D02*
X023566Y002416D01*
X023566Y002514D02*
X023584Y002514D01*
X023584Y002613D02*
X023566Y002613D01*
X023566Y002711D02*
X023584Y002711D01*
X023566Y003105D02*
X023584Y003105D01*
X023584Y003204D02*
X023566Y003204D01*
X023566Y003302D02*
X023584Y003302D01*
X023584Y003401D02*
X023566Y003401D01*
X023566Y003499D02*
X023584Y003499D01*
X023584Y003598D02*
X023566Y003598D01*
X023566Y003696D02*
X023584Y003696D01*
X023584Y003795D02*
X023566Y003795D01*
X023566Y003893D02*
X023584Y003893D01*
X023584Y003992D02*
X023566Y003992D01*
X023566Y004090D02*
X023584Y004090D01*
X023584Y004189D02*
X023566Y004189D01*
X023391Y004287D02*
X023759Y004287D01*
X023774Y004386D02*
X023377Y004386D01*
X023278Y004484D02*
X023872Y004484D01*
X024066Y004484D02*
X024266Y004484D01*
X024167Y004386D02*
X024164Y004386D01*
X024459Y004484D02*
X027687Y004484D01*
X027713Y004458D02*
X027608Y004564D01*
X027608Y004713D01*
X027632Y004737D01*
X027608Y004760D01*
X027608Y004910D01*
X027713Y005015D01*
X027862Y005015D01*
X027968Y004910D01*
X027968Y004760D01*
X027944Y004737D01*
X027968Y004713D01*
X027968Y004564D01*
X027862Y004458D01*
X027713Y004458D01*
X027608Y004583D02*
X025861Y004583D01*
X025921Y004681D02*
X027608Y004681D01*
X027608Y004780D02*
X025921Y004780D01*
X025834Y004878D02*
X027608Y004878D01*
X027675Y004977D02*
X020317Y004977D01*
X020416Y005075D02*
X035083Y005075D01*
X035083Y004977D02*
X027901Y004977D01*
X027968Y004878D02*
X035083Y004878D01*
X035083Y004780D02*
X027968Y004780D01*
X027968Y004681D02*
X035083Y004681D01*
X035083Y004583D02*
X027968Y004583D01*
X027888Y004484D02*
X035083Y004484D01*
X035083Y004386D02*
X025818Y004386D01*
X025872Y004287D02*
X035083Y004287D01*
X035083Y004189D02*
X026166Y004189D01*
X026176Y004179D02*
X026148Y004207D01*
X026113Y004227D01*
X026075Y004237D01*
X025946Y004237D01*
X025946Y003643D01*
X026206Y003643D01*
X026206Y004107D01*
X026195Y004145D01*
X026176Y004179D01*
X026206Y004090D02*
X027654Y004090D01*
X027608Y004043D02*
X027608Y003894D01*
X027713Y003789D01*
X027862Y003789D01*
X027968Y003894D01*
X027968Y004043D01*
X027862Y004149D01*
X027713Y004149D01*
X027608Y004043D01*
X027608Y003992D02*
X026206Y003992D01*
X026206Y003893D02*
X027609Y003893D01*
X027708Y003795D02*
X026206Y003795D01*
X026206Y003696D02*
X033168Y003696D01*
X033247Y003727D02*
X033247Y003727D01*
X032917Y003598D02*
X026833Y003598D01*
X027040Y003499D02*
X032729Y003499D01*
X032790Y003547D02*
X032790Y003547D01*
X032605Y003401D02*
X027138Y003401D01*
X027228Y003302D02*
X032482Y003302D01*
X032380Y003204D02*
X027269Y003204D01*
X027310Y003105D02*
X032312Y003105D01*
X032245Y003007D02*
X027332Y003007D01*
X027332Y002908D02*
X032178Y002908D01*
X032128Y002834D02*
X032128Y002834D01*
X032120Y002810D02*
X027332Y002810D01*
X027311Y002711D02*
X032090Y002711D01*
X032060Y002613D02*
X027271Y002613D01*
X027230Y002514D02*
X032029Y002514D01*
X031999Y002416D02*
X027142Y002416D01*
X027044Y002317D02*
X031983Y002317D01*
X031983Y002219D02*
X026843Y002219D01*
X026370Y002219D02*
X026206Y002219D01*
X026206Y002120D02*
X031983Y002120D01*
X031983Y002022D02*
X026206Y002022D01*
X026206Y001923D02*
X031983Y001923D01*
X031998Y001825D02*
X026206Y001825D01*
X026206Y001726D02*
X032028Y001726D01*
X032059Y001628D02*
X026170Y001628D01*
X025946Y001628D02*
X025928Y001628D01*
X025928Y001726D02*
X025946Y001726D01*
X025946Y001825D02*
X025928Y001825D01*
X025928Y001923D02*
X025946Y001923D01*
X025946Y002022D02*
X025928Y002022D01*
X025928Y002120D02*
X025946Y002120D01*
X025334Y001628D02*
X024989Y001628D01*
X025754Y001529D02*
X032089Y001529D01*
X032119Y001431D02*
X025754Y001431D01*
X025754Y001332D02*
X032176Y001332D01*
X032243Y001234D02*
X025754Y001234D01*
X025754Y001135D02*
X032310Y001135D01*
X032378Y001037D02*
X025664Y001037D01*
X023342Y001628D02*
X022627Y001628D01*
X022403Y001628D02*
X022385Y001628D01*
X022385Y001726D02*
X022403Y001726D01*
X022403Y001825D02*
X022385Y001825D01*
X022385Y001923D02*
X022403Y001923D01*
X022403Y002022D02*
X022385Y002022D01*
X022385Y002120D02*
X022403Y002120D01*
X022403Y002219D02*
X022385Y002219D01*
X022385Y002317D02*
X022403Y002317D01*
X022403Y002416D02*
X022385Y002416D01*
X022385Y002514D02*
X022403Y002514D01*
X022403Y002613D02*
X022385Y002613D01*
X022385Y002711D02*
X022403Y002711D01*
X022385Y003105D02*
X022403Y003105D01*
X022403Y003204D02*
X022385Y003204D01*
X022385Y003302D02*
X022403Y003302D01*
X022403Y003401D02*
X022385Y003401D01*
X022385Y003499D02*
X022403Y003499D01*
X022403Y003598D02*
X022385Y003598D01*
X022385Y003696D02*
X022403Y003696D01*
X022403Y003795D02*
X022385Y003795D01*
X022385Y003893D02*
X022403Y003893D01*
X022403Y003992D02*
X022385Y003992D01*
X022385Y004090D02*
X022403Y004090D01*
X022403Y004189D02*
X022385Y004189D01*
X022210Y004287D02*
X022578Y004287D01*
X022592Y004386D02*
X022196Y004386D01*
X022097Y004484D02*
X022691Y004484D01*
X022885Y004484D02*
X023085Y004484D01*
X022986Y004386D02*
X022983Y004386D01*
X021904Y004484D02*
X021704Y004484D01*
X021802Y004386D02*
X021805Y004386D01*
X021510Y004484D02*
X020916Y004484D01*
X021015Y004386D02*
X021411Y004386D01*
X021397Y004287D02*
X021029Y004287D01*
X021204Y004189D02*
X021222Y004189D01*
X021222Y004090D02*
X021204Y004090D01*
X021204Y003992D02*
X021222Y003992D01*
X021222Y003893D02*
X021204Y003893D01*
X021204Y003795D02*
X021222Y003795D01*
X021222Y003696D02*
X021204Y003696D01*
X021204Y003598D02*
X021222Y003598D01*
X021222Y003499D02*
X021204Y003499D01*
X021204Y003401D02*
X021222Y003401D01*
X021222Y003302D02*
X021204Y003302D01*
X021204Y003204D02*
X021222Y003204D01*
X021222Y003105D02*
X021204Y003105D01*
X021204Y002711D02*
X021222Y002711D01*
X021222Y002613D02*
X021204Y002613D01*
X021204Y002514D02*
X021222Y002514D01*
X021222Y002416D02*
X021204Y002416D01*
X021204Y002317D02*
X021222Y002317D01*
X021222Y002219D02*
X021204Y002219D01*
X021204Y002120D02*
X021222Y002120D01*
X021222Y002022D02*
X021204Y002022D01*
X021204Y001923D02*
X021222Y001923D01*
X021222Y001825D02*
X021204Y001825D01*
X021204Y001726D02*
X021222Y001726D01*
X021222Y001628D02*
X021204Y001628D01*
X020980Y001628D02*
X020265Y001628D01*
X020041Y001628D02*
X020023Y001628D01*
X020023Y001726D02*
X020041Y001726D01*
X020041Y001825D02*
X020023Y001825D01*
X020023Y001923D02*
X020041Y001923D01*
X020041Y002022D02*
X020023Y002022D01*
X020023Y002120D02*
X020041Y002120D01*
X020041Y002219D02*
X020023Y002219D01*
X020023Y002317D02*
X020041Y002317D01*
X020041Y002416D02*
X020023Y002416D01*
X020023Y002514D02*
X020041Y002514D01*
X020041Y002613D02*
X020023Y002613D01*
X020023Y002711D02*
X020041Y002711D01*
X020023Y003105D02*
X020041Y003105D01*
X020041Y003204D02*
X020023Y003204D01*
X020023Y003302D02*
X020041Y003302D01*
X020041Y003401D02*
X020023Y003401D01*
X020023Y003499D02*
X020041Y003499D01*
X020041Y003598D02*
X020023Y003598D01*
X020023Y003696D02*
X020041Y003696D01*
X020041Y003795D02*
X020023Y003795D01*
X020023Y003893D02*
X020041Y003893D01*
X020041Y003992D02*
X020023Y003992D01*
X020023Y004090D02*
X020041Y004090D01*
X020041Y004189D02*
X020023Y004189D01*
X019848Y004287D02*
X020216Y004287D01*
X020230Y004386D02*
X019834Y004386D01*
X019735Y004484D02*
X020329Y004484D01*
X020522Y004484D02*
X020722Y004484D01*
X020624Y004386D02*
X020621Y004386D01*
X020217Y004878D02*
X025253Y004878D01*
X025167Y004780D02*
X020118Y004780D01*
X019946Y004780D02*
X017562Y004780D01*
X017660Y004878D02*
X019893Y004878D01*
X019953Y004977D02*
X017759Y004977D01*
X017857Y005075D02*
X020052Y005075D01*
X020150Y005174D02*
X017956Y005174D01*
X018054Y005272D02*
X020249Y005272D01*
X020347Y005371D02*
X019838Y005371D01*
X019874Y005407D02*
X019791Y005324D01*
X019642Y005324D01*
X019537Y005430D01*
X019537Y005482D01*
X019485Y005482D01*
X019379Y005587D01*
X019379Y005736D01*
X019462Y005819D01*
X019458Y005823D01*
X019458Y005973D01*
X019564Y006078D01*
X019713Y006078D01*
X019818Y005973D01*
X019818Y005921D01*
X019870Y005921D01*
X019976Y005815D01*
X019976Y005763D01*
X020028Y005763D01*
X020133Y005658D01*
X020133Y005509D01*
X020028Y005403D01*
X019879Y005403D01*
X019874Y005407D01*
X020094Y005469D02*
X020446Y005469D01*
X020544Y005568D02*
X020133Y005568D01*
X020125Y005666D02*
X020643Y005666D01*
X020741Y005765D02*
X019976Y005765D01*
X019928Y005863D02*
X020840Y005863D01*
X020938Y005962D02*
X019818Y005962D01*
X019731Y006060D02*
X021037Y006060D01*
X021135Y006159D02*
X018941Y006159D01*
X019039Y006257D02*
X021234Y006257D01*
X021332Y006356D02*
X019138Y006356D01*
X019236Y006454D02*
X021431Y006454D01*
X021529Y006553D02*
X019256Y006553D01*
X019256Y006651D02*
X021628Y006651D01*
X021726Y006750D02*
X019256Y006750D01*
X019256Y006848D02*
X019418Y006848D01*
X019340Y006947D02*
X019256Y006947D01*
X019256Y007045D02*
X019300Y007045D01*
X018996Y007045D02*
X018469Y007045D01*
X018469Y006947D02*
X018996Y006947D01*
X018996Y006848D02*
X018469Y006848D01*
X018469Y006750D02*
X018996Y006750D01*
X018996Y006651D02*
X018469Y006651D01*
X018469Y006553D02*
X018967Y006553D01*
X018996Y006582D02*
X017183Y004768D01*
X014746Y004768D01*
X014730Y004784D01*
X016779Y004784D01*
X016855Y004860D01*
X018469Y006474D01*
X018469Y007369D01*
X018393Y007445D01*
X018309Y007529D01*
X018414Y007529D01*
X018477Y007592D01*
X018540Y007529D01*
X018689Y007529D01*
X018752Y007592D01*
X018816Y007529D01*
X018965Y007529D01*
X019028Y007592D01*
X019091Y007529D01*
X019196Y007529D01*
X019073Y007406D01*
X018996Y007330D01*
X018996Y006582D01*
X018869Y006454D02*
X018449Y006454D01*
X018350Y006356D02*
X018770Y006356D01*
X018672Y006257D02*
X018252Y006257D01*
X018153Y006159D02*
X018573Y006159D01*
X018475Y006060D02*
X018055Y006060D01*
X017956Y005962D02*
X018376Y005962D01*
X018278Y005863D02*
X017858Y005863D01*
X017759Y005765D02*
X018179Y005765D01*
X018081Y005666D02*
X017661Y005666D01*
X017562Y005568D02*
X017982Y005568D01*
X017884Y005469D02*
X017464Y005469D01*
X017365Y005371D02*
X017785Y005371D01*
X017687Y005272D02*
X017267Y005272D01*
X017168Y005174D02*
X017588Y005174D01*
X017490Y005075D02*
X017070Y005075D01*
X016971Y004977D02*
X017391Y004977D01*
X017293Y004878D02*
X016873Y004878D01*
X016702Y005075D02*
X015259Y005075D01*
X015243Y005059D02*
X015319Y005136D01*
X017485Y007301D01*
X017485Y010765D01*
X017555Y010836D01*
X017621Y010836D01*
X017618Y010834D01*
X017618Y007380D01*
X017695Y007303D01*
X017726Y007272D01*
X017726Y007201D01*
X017831Y007096D01*
X017980Y007096D01*
X018086Y007201D01*
X018086Y007351D01*
X017980Y007456D01*
X017910Y007456D01*
X017878Y007487D01*
X017878Y010269D01*
X017931Y010217D01*
X018012Y010136D01*
X018012Y007458D01*
X018209Y007262D01*
X018209Y006582D01*
X016671Y005044D01*
X014637Y005044D01*
X014653Y005059D01*
X015243Y005059D01*
X015357Y005174D02*
X016801Y005174D01*
X016899Y005272D02*
X015456Y005272D01*
X015554Y005371D02*
X016053Y005371D01*
X016099Y005324D02*
X016248Y005324D01*
X016354Y005430D01*
X016354Y005579D01*
X016248Y005684D01*
X016099Y005684D01*
X015994Y005579D01*
X015994Y005430D01*
X016099Y005324D01*
X015994Y005469D02*
X015653Y005469D01*
X015751Y005568D02*
X015994Y005568D01*
X016081Y005666D02*
X015850Y005666D01*
X015948Y005765D02*
X017392Y005765D01*
X017490Y005863D02*
X016047Y005863D01*
X016145Y005962D02*
X017589Y005962D01*
X017687Y006060D02*
X016244Y006060D01*
X016342Y006159D02*
X017786Y006159D01*
X017884Y006257D02*
X016441Y006257D01*
X016539Y006356D02*
X017983Y006356D01*
X018081Y006454D02*
X016638Y006454D01*
X016736Y006553D02*
X017548Y006553D01*
X017595Y006505D02*
X017744Y006505D01*
X017850Y006611D01*
X017850Y006760D01*
X017771Y006839D01*
X017771Y006957D01*
X017666Y007062D01*
X017516Y007062D01*
X017411Y006957D01*
X017411Y006808D01*
X017490Y006729D01*
X017490Y006611D01*
X017595Y006505D01*
X017490Y006651D02*
X016835Y006651D01*
X016933Y006750D02*
X017469Y006750D01*
X017411Y006848D02*
X017032Y006848D01*
X017130Y006947D02*
X017411Y006947D01*
X017499Y007045D02*
X017229Y007045D01*
X017327Y007144D02*
X017784Y007144D01*
X017726Y007242D02*
X017426Y007242D01*
X017485Y007341D02*
X017658Y007341D01*
X017618Y007439D02*
X017485Y007439D01*
X017485Y007538D02*
X017618Y007538D01*
X017618Y007636D02*
X017485Y007636D01*
X017485Y007735D02*
X017618Y007735D01*
X017618Y007833D02*
X017485Y007833D01*
X017485Y007932D02*
X017618Y007932D01*
X017618Y008030D02*
X017485Y008030D01*
X017485Y008129D02*
X017618Y008129D01*
X017618Y008227D02*
X017485Y008227D01*
X017485Y008326D02*
X017618Y008326D01*
X017618Y008424D02*
X017485Y008424D01*
X017485Y008523D02*
X017618Y008523D01*
X017618Y008621D02*
X017485Y008621D01*
X017485Y008720D02*
X017618Y008720D01*
X017618Y008818D02*
X017485Y008818D01*
X017485Y008917D02*
X017618Y008917D01*
X017618Y009015D02*
X017485Y009015D01*
X017485Y009114D02*
X017618Y009114D01*
X017618Y009212D02*
X017485Y009212D01*
X017485Y009311D02*
X017618Y009311D01*
X017618Y009409D02*
X017485Y009409D01*
X017485Y009508D02*
X017618Y009508D01*
X017618Y009606D02*
X017485Y009606D01*
X017485Y009705D02*
X017618Y009705D01*
X017618Y009803D02*
X017485Y009803D01*
X017485Y009902D02*
X017618Y009902D01*
X017618Y010000D02*
X017485Y010000D01*
X017485Y010099D02*
X017618Y010099D01*
X017618Y010197D02*
X017485Y010197D01*
X017485Y010296D02*
X017618Y010296D01*
X017618Y010394D02*
X017485Y010394D01*
X017485Y010493D02*
X017618Y010493D01*
X017618Y010591D02*
X017485Y010591D01*
X017485Y010690D02*
X017618Y010690D01*
X017618Y010788D02*
X017507Y010788D01*
X017337Y010985D02*
X017224Y010985D01*
X017193Y010954D02*
X017299Y011060D01*
X017299Y011209D01*
X017193Y011314D01*
X017044Y011314D01*
X016939Y011209D01*
X016939Y011138D01*
X016907Y011107D01*
X016831Y011031D01*
X016831Y007802D01*
X016511Y007482D01*
X016511Y007508D01*
X016406Y007613D01*
X016257Y007613D01*
X016207Y007563D01*
X015923Y007563D01*
X013797Y005437D01*
X013784Y005424D01*
X013784Y006553D01*
X015674Y008443D01*
X015674Y009653D01*
X015598Y009729D01*
X015598Y009729D01*
X015474Y009852D01*
X015500Y009852D01*
X015606Y009957D01*
X015606Y010106D01*
X015500Y010212D01*
X015351Y010212D01*
X015340Y010201D01*
X015096Y010201D01*
X013326Y008431D01*
X013193Y008564D01*
X013193Y010214D01*
X013905Y010926D01*
X014702Y010926D01*
X015293Y010335D01*
X015676Y010335D01*
X015752Y010411D01*
X016000Y010659D01*
X016099Y010561D01*
X016248Y010561D01*
X016354Y010666D01*
X016354Y010718D01*
X016406Y010718D01*
X016511Y010823D01*
X016511Y010876D01*
X016563Y010876D01*
X016669Y010981D01*
X016669Y011130D01*
X016619Y011180D01*
X016619Y011542D01*
X016542Y011619D01*
X015976Y012185D01*
X016671Y012185D01*
X016892Y011964D01*
X016827Y011964D01*
X016722Y011858D01*
X016722Y011709D01*
X016827Y011604D01*
X016840Y011604D01*
X016840Y011512D01*
X016946Y011407D01*
X017095Y011407D01*
X017200Y011512D01*
X017200Y011656D01*
X017697Y011159D01*
X017697Y011125D01*
X017626Y011196D01*
X017477Y011196D01*
X017372Y011091D01*
X017372Y011020D01*
X017225Y010873D01*
X017225Y007409D01*
X015136Y005319D01*
X014598Y005319D01*
X015206Y005928D01*
X015206Y005823D01*
X015312Y005718D01*
X015461Y005718D01*
X015566Y005823D01*
X015566Y005942D01*
X015645Y006020D01*
X015645Y006169D01*
X015546Y006268D01*
X016385Y007107D01*
X016503Y007107D01*
X016579Y007183D01*
X017015Y007618D01*
X017091Y007695D01*
X017091Y010923D01*
X017122Y010954D01*
X017193Y010954D01*
X017238Y010887D02*
X017091Y010887D01*
X017091Y010788D02*
X017225Y010788D01*
X017225Y010690D02*
X017091Y010690D01*
X017091Y010591D02*
X017225Y010591D01*
X017225Y010493D02*
X017091Y010493D01*
X017091Y010394D02*
X017225Y010394D01*
X017225Y010296D02*
X017091Y010296D01*
X017091Y010197D02*
X017225Y010197D01*
X017225Y010099D02*
X017091Y010099D01*
X017091Y010000D02*
X017225Y010000D01*
X017225Y009902D02*
X017091Y009902D01*
X017091Y009803D02*
X017225Y009803D01*
X017225Y009705D02*
X017091Y009705D01*
X017091Y009606D02*
X017225Y009606D01*
X017225Y009508D02*
X017091Y009508D01*
X017091Y009409D02*
X017225Y009409D01*
X017225Y009311D02*
X017091Y009311D01*
X017091Y009212D02*
X017225Y009212D01*
X017225Y009114D02*
X017091Y009114D01*
X017091Y009015D02*
X017225Y009015D01*
X017225Y008917D02*
X017091Y008917D01*
X017091Y008818D02*
X017225Y008818D01*
X017225Y008720D02*
X017091Y008720D01*
X017091Y008621D02*
X017225Y008621D01*
X017225Y008523D02*
X017091Y008523D01*
X017091Y008424D02*
X017225Y008424D01*
X017225Y008326D02*
X017091Y008326D01*
X017091Y008227D02*
X017225Y008227D01*
X017225Y008129D02*
X017091Y008129D01*
X017091Y008030D02*
X017225Y008030D01*
X017225Y007932D02*
X017091Y007932D01*
X017091Y007833D02*
X017225Y007833D01*
X017225Y007735D02*
X017091Y007735D01*
X017032Y007636D02*
X017225Y007636D01*
X017225Y007538D02*
X016934Y007538D01*
X017015Y007618D02*
X017015Y007618D01*
X016835Y007439D02*
X017225Y007439D01*
X017157Y007341D02*
X016737Y007341D01*
X016638Y007242D02*
X017058Y007242D01*
X016960Y007144D02*
X016540Y007144D01*
X016579Y007183D02*
X016579Y007183D01*
X016323Y007045D02*
X016861Y007045D01*
X016763Y006947D02*
X016225Y006947D01*
X016126Y006848D02*
X016664Y006848D01*
X016566Y006750D02*
X016028Y006750D01*
X015929Y006651D02*
X016467Y006651D01*
X016369Y006553D02*
X015831Y006553D01*
X015732Y006454D02*
X016270Y006454D01*
X016172Y006356D02*
X015634Y006356D01*
X015557Y006257D02*
X016073Y006257D01*
X015975Y006159D02*
X015645Y006159D01*
X015645Y006060D02*
X015876Y006060D01*
X015778Y005962D02*
X015586Y005962D01*
X015566Y005863D02*
X015679Y005863D01*
X015581Y005765D02*
X015507Y005765D01*
X015482Y005666D02*
X014944Y005666D01*
X014846Y005568D02*
X015384Y005568D01*
X015285Y005469D02*
X014747Y005469D01*
X014649Y005371D02*
X015187Y005371D01*
X014478Y005568D02*
X014295Y005568D01*
X014380Y005469D02*
X014196Y005469D01*
X014281Y005371D02*
X014098Y005371D01*
X014183Y005272D02*
X013999Y005272D01*
X013981Y005254D02*
X016031Y007303D01*
X016207Y007303D01*
X016210Y007300D01*
X013994Y005083D01*
X013981Y005070D01*
X013981Y005254D01*
X013981Y005174D02*
X014084Y005174D01*
X013986Y005075D02*
X013981Y005075D01*
X013828Y005469D02*
X013784Y005469D01*
X013784Y005568D02*
X013927Y005568D01*
X014025Y005666D02*
X013784Y005666D01*
X013784Y005765D02*
X014124Y005765D01*
X014222Y005863D02*
X013784Y005863D01*
X013784Y005962D02*
X014321Y005962D01*
X014419Y006060D02*
X013784Y006060D01*
X013784Y006159D02*
X014518Y006159D01*
X014616Y006257D02*
X013784Y006257D01*
X013784Y006356D02*
X014715Y006356D01*
X014813Y006454D02*
X013784Y006454D01*
X013784Y006553D02*
X014912Y006553D01*
X015010Y006651D02*
X013882Y006651D01*
X013981Y006750D02*
X015109Y006750D01*
X015207Y006848D02*
X014079Y006848D01*
X014178Y006947D02*
X015306Y006947D01*
X015404Y007045D02*
X014276Y007045D01*
X014375Y007144D02*
X015503Y007144D01*
X015601Y007242D02*
X014473Y007242D01*
X014572Y007341D02*
X015343Y007341D01*
X015390Y007293D02*
X015540Y007293D01*
X015645Y007398D01*
X015645Y007547D01*
X015540Y007653D01*
X015390Y007653D01*
X015285Y007547D01*
X015285Y007398D01*
X015390Y007293D01*
X015285Y007439D02*
X014670Y007439D01*
X014769Y007538D02*
X015285Y007538D01*
X015374Y007636D02*
X014867Y007636D01*
X014966Y007735D02*
X016763Y007735D01*
X016831Y007833D02*
X015064Y007833D01*
X015163Y007932D02*
X016831Y007932D01*
X016831Y008030D02*
X015261Y008030D01*
X015360Y008129D02*
X016831Y008129D01*
X016831Y008227D02*
X015458Y008227D01*
X015557Y008326D02*
X016831Y008326D01*
X016831Y008424D02*
X015655Y008424D01*
X015674Y008523D02*
X016831Y008523D01*
X016831Y008621D02*
X015674Y008621D01*
X015674Y008720D02*
X016831Y008720D01*
X016831Y008818D02*
X015674Y008818D01*
X015674Y008917D02*
X016831Y008917D01*
X016831Y009015D02*
X015674Y009015D01*
X015674Y009114D02*
X016831Y009114D01*
X016831Y009212D02*
X015674Y009212D01*
X015674Y009311D02*
X016831Y009311D01*
X016831Y009409D02*
X015674Y009409D01*
X015674Y009508D02*
X016831Y009508D01*
X016831Y009606D02*
X015674Y009606D01*
X015622Y009705D02*
X016831Y009705D01*
X016831Y009803D02*
X015523Y009803D01*
X015550Y009902D02*
X016831Y009902D01*
X016831Y010000D02*
X015606Y010000D01*
X015606Y010099D02*
X016831Y010099D01*
X016831Y010197D02*
X015515Y010197D01*
X015735Y010394D02*
X016831Y010394D01*
X016831Y010296D02*
X013275Y010296D01*
X013193Y010197D02*
X015092Y010197D01*
X014993Y010099D02*
X013193Y010099D01*
X013193Y010000D02*
X014895Y010000D01*
X014796Y009902D02*
X013193Y009902D01*
X013193Y009803D02*
X014698Y009803D01*
X014599Y009705D02*
X013193Y009705D01*
X013193Y009606D02*
X014501Y009606D01*
X014402Y009508D02*
X013193Y009508D01*
X013193Y009409D02*
X014304Y009409D01*
X014205Y009311D02*
X013193Y009311D01*
X013193Y009212D02*
X014107Y009212D01*
X014008Y009114D02*
X013193Y009114D01*
X013193Y009015D02*
X013910Y009015D01*
X013811Y008917D02*
X013193Y008917D01*
X013193Y008818D02*
X013713Y008818D01*
X013614Y008720D02*
X013193Y008720D01*
X013193Y008621D02*
X013516Y008621D01*
X013417Y008523D02*
X013235Y008523D01*
X013588Y008326D02*
X014913Y008326D01*
X015012Y008424D02*
X014230Y008424D01*
X014201Y008395D02*
X014306Y008501D01*
X014306Y008553D01*
X014327Y008553D01*
X014406Y008474D01*
X014555Y008474D01*
X014661Y008579D01*
X014661Y008728D01*
X014555Y008834D01*
X014437Y008834D01*
X014358Y008913D01*
X014209Y008913D01*
X014104Y008807D01*
X014104Y008755D01*
X014052Y008755D01*
X013946Y008650D01*
X013946Y008501D01*
X014052Y008395D01*
X014201Y008395D01*
X014306Y008523D02*
X014358Y008523D01*
X014604Y008523D02*
X015110Y008523D01*
X015177Y008590D02*
X013479Y006891D01*
X013479Y008216D01*
X014544Y009281D01*
X014642Y009183D01*
X014791Y009183D01*
X014897Y009288D01*
X014897Y009437D01*
X014798Y009536D01*
X014931Y009668D01*
X014931Y009642D01*
X015036Y009537D01*
X015107Y009537D01*
X015177Y009466D01*
X015177Y008590D01*
X015177Y008621D02*
X014661Y008621D01*
X014661Y008720D02*
X015177Y008720D01*
X015177Y008818D02*
X014571Y008818D01*
X014278Y009015D02*
X015177Y009015D01*
X015177Y008917D02*
X014179Y008917D01*
X014115Y008818D02*
X014081Y008818D01*
X014016Y008720D02*
X013982Y008720D01*
X013946Y008621D02*
X013884Y008621D01*
X013946Y008523D02*
X013785Y008523D01*
X013687Y008424D02*
X014023Y008424D01*
X013490Y008227D02*
X014815Y008227D01*
X014716Y008129D02*
X013479Y008129D01*
X013479Y008030D02*
X014618Y008030D01*
X014519Y007932D02*
X013479Y007932D01*
X013479Y007833D02*
X014421Y007833D01*
X014322Y007735D02*
X013479Y007735D01*
X013479Y007636D02*
X014224Y007636D01*
X014125Y007538D02*
X013479Y007538D01*
X013479Y007439D02*
X014027Y007439D01*
X013928Y007341D02*
X013479Y007341D01*
X013479Y007242D02*
X013830Y007242D01*
X013731Y007144D02*
X013479Y007144D01*
X013479Y007045D02*
X013633Y007045D01*
X013534Y006947D02*
X013479Y006947D01*
X012343Y006947D02*
X007038Y006947D01*
X006940Y007045D02*
X012343Y007045D01*
X012343Y007144D02*
X006841Y007144D01*
X006743Y007242D02*
X012343Y007242D01*
X012343Y007341D02*
X006644Y007341D01*
X006546Y007439D02*
X012343Y007439D01*
X012343Y007538D02*
X007202Y007538D01*
X007220Y007556D02*
X007114Y007450D01*
X006965Y007450D01*
X006860Y007556D01*
X006860Y007705D01*
X006965Y007810D01*
X007114Y007810D01*
X007220Y007705D01*
X007220Y007556D01*
X007220Y007636D02*
X012343Y007636D01*
X012343Y007735D02*
X009446Y007735D01*
X009398Y007687D02*
X009503Y007792D01*
X009503Y007941D01*
X009460Y007985D01*
X009503Y008028D01*
X009503Y008177D01*
X009460Y008221D01*
X009503Y008264D01*
X009503Y008414D01*
X009398Y008519D01*
X009249Y008519D01*
X009143Y008414D01*
X009143Y008264D01*
X009187Y008221D01*
X009143Y008177D01*
X009143Y008028D01*
X009187Y007985D01*
X009143Y007941D01*
X009143Y007792D01*
X009249Y007687D01*
X009398Y007687D01*
X009503Y007833D02*
X012343Y007833D01*
X012343Y007932D02*
X009503Y007932D01*
X009503Y008030D02*
X012343Y008030D01*
X012343Y008129D02*
X009503Y008129D01*
X009466Y008227D02*
X012343Y008227D01*
X012343Y008326D02*
X009503Y008326D01*
X009493Y008424D02*
X012343Y008424D01*
X012343Y008523D02*
X007005Y008523D01*
X007023Y008540D02*
X006917Y008435D01*
X006768Y008435D01*
X006663Y008540D01*
X006663Y008689D01*
X006768Y008795D01*
X006917Y008795D01*
X007023Y008689D01*
X007023Y008540D01*
X007023Y008621D02*
X012343Y008621D01*
X012343Y008720D02*
X006993Y008720D01*
X006693Y008720D02*
X003252Y008720D01*
X003283Y008689D02*
X003177Y008795D01*
X003028Y008795D01*
X002923Y008689D01*
X002923Y008540D01*
X003028Y008435D01*
X003177Y008435D01*
X003283Y008540D01*
X003283Y008689D01*
X003283Y008621D02*
X006663Y008621D01*
X006680Y008523D02*
X003265Y008523D01*
X002940Y008523D02*
X000650Y008523D01*
X000650Y008621D02*
X002923Y008621D01*
X002953Y008720D02*
X001100Y008720D01*
X001117Y008737D02*
X001012Y008631D01*
X000863Y008631D01*
X000757Y008737D01*
X000757Y008886D01*
X000863Y008991D01*
X001012Y008991D01*
X001117Y008886D01*
X001117Y008737D01*
X001117Y008818D02*
X012343Y008818D01*
X012343Y008917D02*
X007793Y008917D01*
X007810Y008934D02*
X007705Y008828D01*
X007556Y008828D01*
X007450Y008934D01*
X007450Y009083D01*
X007556Y009188D01*
X007705Y009188D01*
X007810Y009083D01*
X007810Y008934D01*
X007810Y009015D02*
X012343Y009015D01*
X012343Y009114D02*
X008581Y009114D01*
X008598Y009131D02*
X008492Y009025D01*
X008343Y009025D01*
X008238Y009131D01*
X008238Y009280D01*
X008343Y009385D01*
X008492Y009385D01*
X008598Y009280D01*
X008598Y009131D01*
X008598Y009212D02*
X012343Y009212D01*
X012343Y009311D02*
X008567Y009311D01*
X008269Y009311D02*
X004433Y009311D01*
X004464Y009280D02*
X004358Y009385D01*
X004209Y009385D01*
X004104Y009280D01*
X004104Y009131D01*
X004209Y009025D01*
X004358Y009025D01*
X004464Y009131D01*
X004464Y009280D01*
X004464Y009212D02*
X008238Y009212D01*
X008255Y009114D02*
X007780Y009114D01*
X007481Y009114D02*
X004447Y009114D01*
X004121Y009114D02*
X000650Y009114D01*
X000650Y009212D02*
X004104Y009212D01*
X004135Y009311D02*
X000650Y009311D01*
X000650Y009409D02*
X012343Y009409D01*
X012343Y009508D02*
X009368Y009508D01*
X009385Y009524D02*
X009280Y009419D01*
X009131Y009419D01*
X009025Y009524D01*
X009025Y009673D01*
X009131Y009779D01*
X009280Y009779D01*
X009385Y009673D01*
X009385Y009524D01*
X009385Y009606D02*
X012343Y009606D01*
X012343Y009705D02*
X009354Y009705D01*
X009056Y009705D02*
X007976Y009705D01*
X008007Y009673D02*
X007902Y009779D01*
X007753Y009779D01*
X007647Y009673D01*
X007647Y009524D01*
X007753Y009419D01*
X007902Y009419D01*
X008007Y009524D01*
X008007Y009673D01*
X008007Y009606D02*
X009025Y009606D01*
X009042Y009508D02*
X007990Y009508D01*
X007664Y009508D02*
X000650Y009508D01*
X000650Y009606D02*
X007647Y009606D01*
X007678Y009705D02*
X000650Y009705D01*
X000650Y009803D02*
X012343Y009803D01*
X012343Y009902D02*
X004644Y009902D01*
X004661Y009918D02*
X004555Y009813D01*
X004406Y009813D01*
X004301Y009918D01*
X004301Y010067D01*
X004406Y010173D01*
X004555Y010173D01*
X004661Y010067D01*
X004661Y009918D01*
X004661Y010000D02*
X012343Y010000D01*
X012343Y010099D02*
X009448Y010099D01*
X009398Y010049D02*
X009503Y010154D01*
X009503Y010303D01*
X009398Y010409D01*
X009249Y010409D01*
X009143Y010303D01*
X009143Y010154D01*
X009249Y010049D01*
X009398Y010049D01*
X009503Y010197D02*
X012343Y010197D01*
X012343Y010201D02*
X012343Y004191D01*
X012376Y004157D01*
X012355Y004136D01*
X012313Y004177D01*
X012306Y004177D01*
X012338Y004209D01*
X012338Y004358D01*
X012232Y004464D01*
X012083Y004464D01*
X011978Y004358D01*
X011978Y004209D01*
X012010Y004177D01*
X012002Y004177D01*
X011961Y004136D01*
X011920Y004177D01*
X011904Y004177D01*
X011904Y004263D01*
X010842Y005325D01*
X010842Y005382D01*
X010736Y005487D01*
X010587Y005487D01*
X010482Y005382D01*
X010482Y005233D01*
X010587Y005127D01*
X010644Y005127D01*
X011544Y004228D01*
X011508Y004237D01*
X011380Y004237D01*
X011380Y003643D01*
X011361Y003643D01*
X011361Y004237D01*
X011233Y004237D01*
X011194Y004227D01*
X011160Y004207D01*
X011132Y004179D01*
X011131Y004177D01*
X010821Y004177D01*
X010780Y004136D01*
X010738Y004177D01*
X010428Y004177D01*
X010386Y004136D01*
X010345Y004177D01*
X010035Y004177D01*
X010034Y004179D01*
X010006Y004207D01*
X009972Y004227D01*
X009934Y004237D01*
X009805Y004237D01*
X009805Y003643D01*
X009787Y003643D01*
X009787Y003625D01*
X009528Y003625D01*
X009528Y003525D01*
X009271Y003631D01*
X008982Y003631D01*
X008715Y003521D01*
X008511Y003317D01*
X008401Y003050D01*
X008401Y002762D01*
X008511Y002495D01*
X008715Y002291D01*
X008982Y002180D01*
X009271Y002180D01*
X009528Y002287D01*
X009528Y002187D01*
X009787Y002187D01*
X009787Y002169D01*
X009528Y002169D01*
X009528Y001705D01*
X009538Y001667D01*
X009558Y001633D01*
X009585Y001605D01*
X009620Y001585D01*
X009658Y001575D01*
X009787Y001575D01*
X009787Y002168D01*
X009805Y002168D01*
X009805Y001575D01*
X009934Y001575D01*
X009972Y001585D01*
X010006Y001605D01*
X010034Y001633D01*
X010035Y001635D01*
X010157Y001635D01*
X010137Y001615D01*
X010137Y001441D01*
X010260Y001318D01*
X010906Y001318D01*
X011029Y001441D01*
X011029Y001615D01*
X011009Y001635D01*
X011131Y001635D01*
X011132Y001633D01*
X011160Y001605D01*
X011194Y001585D01*
X011233Y001575D01*
X011361Y001575D01*
X011361Y002168D01*
X011380Y002168D01*
X011380Y001575D01*
X011508Y001575D01*
X011546Y001585D01*
X011581Y001605D01*
X011609Y001633D01*
X011610Y001635D01*
X011616Y001635D01*
X011584Y001603D01*
X011584Y001453D01*
X011690Y001348D01*
X011839Y001348D01*
X011944Y001453D01*
X011944Y001603D01*
X011912Y001635D01*
X011920Y001635D01*
X011961Y001676D01*
X012002Y001635D01*
X012010Y001635D01*
X011978Y001603D01*
X011978Y001453D01*
X012083Y001348D01*
X012232Y001348D01*
X012338Y001453D01*
X012338Y001603D01*
X012306Y001635D01*
X012313Y001635D01*
X012355Y001676D01*
X012396Y001635D01*
X012404Y001635D01*
X012372Y001603D01*
X012372Y001453D01*
X012477Y001348D01*
X012626Y001348D01*
X012732Y001453D01*
X012732Y001603D01*
X012699Y001635D01*
X012707Y001635D01*
X012748Y001676D01*
X012790Y001635D01*
X012798Y001635D01*
X012765Y001603D01*
X012765Y001453D01*
X012871Y001348D01*
X013020Y001348D01*
X013125Y001453D01*
X013125Y001603D01*
X013093Y001635D01*
X013101Y001635D01*
X013142Y001676D01*
X013184Y001635D01*
X013191Y001635D01*
X013159Y001603D01*
X013159Y001453D01*
X013264Y001348D01*
X013414Y001348D01*
X013519Y001453D01*
X013519Y001603D01*
X013487Y001635D01*
X013494Y001635D01*
X013536Y001676D01*
X013577Y001635D01*
X013585Y001635D01*
X013553Y001603D01*
X013553Y001453D01*
X013658Y001348D01*
X013807Y001348D01*
X013913Y001453D01*
X013913Y001603D01*
X013880Y001635D01*
X013888Y001635D01*
X013930Y001676D01*
X013971Y001635D01*
X013979Y001635D01*
X013946Y001603D01*
X013946Y001453D01*
X014052Y001348D01*
X014201Y001348D01*
X014306Y001453D01*
X014306Y001603D01*
X014274Y001635D01*
X014282Y001635D01*
X014323Y001676D01*
X014365Y001635D01*
X014675Y001635D01*
X014717Y001676D01*
X014758Y001635D01*
X014953Y001635D01*
X014953Y000650D01*
X002838Y000650D01*
X003147Y000828D01*
X003147Y000828D01*
X003147Y000828D01*
X003482Y001189D01*
X003695Y001632D01*
X003769Y002119D01*
X003695Y002605D01*
X003482Y003048D01*
X003147Y003409D01*
X002721Y003654D01*
X002242Y003764D01*
X001751Y003727D01*
X001294Y003547D01*
X000909Y003241D01*
X000909Y003241D01*
X000909Y003241D01*
X000650Y002861D01*
X000650Y007215D01*
X006408Y007215D01*
X007570Y006053D01*
X007570Y004479D01*
X007628Y004420D01*
X007750Y004420D01*
X007809Y004479D01*
X007809Y006176D01*
X007750Y006234D01*
X006530Y007455D01*
X000650Y007455D01*
X000650Y012158D01*
X006195Y012158D01*
X006217Y012135D01*
X006366Y012135D01*
X006389Y012158D01*
X010386Y012158D01*
X012343Y010201D01*
X012249Y010296D02*
X009503Y010296D01*
X009413Y010394D02*
X012150Y010394D01*
X012052Y010493D02*
X002086Y010493D01*
X002102Y010509D02*
X001996Y010403D01*
X001847Y010403D01*
X001742Y010509D01*
X001742Y010658D01*
X001847Y010763D01*
X001996Y010763D01*
X002102Y010658D01*
X002102Y010509D01*
X002102Y010591D02*
X011953Y010591D01*
X011855Y010690D02*
X002070Y010690D01*
X001774Y010690D02*
X000650Y010690D01*
X000650Y010788D02*
X011756Y010788D01*
X011658Y010887D02*
X009173Y010887D01*
X009188Y010902D02*
X009083Y010797D01*
X008934Y010797D01*
X008828Y010902D01*
X008828Y011051D01*
X008934Y011157D01*
X009083Y011157D01*
X009188Y011051D01*
X009188Y010902D01*
X009188Y010985D02*
X011559Y010985D01*
X011461Y011084D02*
X011141Y011084D01*
X011157Y011099D02*
X011051Y010994D01*
X010902Y010994D01*
X010797Y011099D01*
X010797Y011248D01*
X010902Y011354D01*
X011051Y011354D01*
X011157Y011248D01*
X011157Y011099D01*
X011157Y011182D02*
X011362Y011182D01*
X011264Y011281D02*
X011124Y011281D01*
X011165Y011379D02*
X000650Y011379D01*
X000650Y011281D02*
X003743Y011281D01*
X003710Y011248D02*
X003710Y011099D01*
X003816Y010994D01*
X003965Y010994D01*
X004070Y011099D01*
X004070Y011248D01*
X003965Y011354D01*
X003816Y011354D01*
X003710Y011248D01*
X003710Y011182D02*
X000650Y011182D01*
X000650Y011084D02*
X003726Y011084D01*
X004055Y011084D02*
X005317Y011084D01*
X005285Y011051D02*
X005285Y010902D01*
X005390Y010797D01*
X005540Y010797D01*
X005645Y010902D01*
X005645Y011051D01*
X005540Y011157D01*
X005390Y011157D01*
X005285Y011051D01*
X005285Y010985D02*
X000650Y010985D01*
X000650Y010887D02*
X005301Y010887D01*
X005629Y010887D02*
X008844Y010887D01*
X008828Y010985D02*
X005645Y010985D01*
X005613Y011084D02*
X008860Y011084D01*
X009156Y011084D02*
X010812Y011084D01*
X010797Y011182D02*
X004070Y011182D01*
X004038Y011281D02*
X010829Y011281D01*
X011067Y011478D02*
X000650Y011478D01*
X000650Y011576D02*
X010968Y011576D01*
X010870Y011675D02*
X000650Y011675D01*
X000650Y011773D02*
X010771Y011773D01*
X010673Y011872D02*
X008386Y011872D01*
X008401Y011886D02*
X008295Y011781D01*
X008146Y011781D01*
X008041Y011886D01*
X008041Y012036D01*
X008146Y012141D01*
X008295Y012141D01*
X008401Y012036D01*
X008401Y011886D01*
X008401Y011970D02*
X010574Y011970D01*
X010476Y012069D02*
X008368Y012069D01*
X008074Y012069D02*
X006006Y012069D01*
X006039Y012036D02*
X005933Y012141D01*
X005784Y012141D01*
X005679Y012036D01*
X005679Y011886D01*
X005784Y011781D01*
X005933Y011781D01*
X006039Y011886D01*
X006039Y012036D01*
X006039Y011970D02*
X008041Y011970D01*
X008056Y011872D02*
X006024Y011872D01*
X005694Y011872D02*
X003071Y011872D01*
X003086Y011886D02*
X002980Y011781D01*
X002831Y011781D01*
X002726Y011886D01*
X002726Y012036D01*
X002831Y012141D01*
X002980Y012141D01*
X003086Y012036D01*
X003086Y011886D01*
X003086Y011970D02*
X005679Y011970D01*
X005712Y012069D02*
X003053Y012069D01*
X002759Y012069D02*
X000650Y012069D01*
X000650Y011970D02*
X002726Y011970D01*
X002741Y011872D02*
X000650Y011872D01*
X000650Y012364D02*
X006112Y012364D01*
X004529Y012955D02*
X007765Y012955D01*
X007765Y013054D02*
X001281Y013054D01*
X001314Y013020D02*
X001209Y013125D01*
X001060Y013125D01*
X000954Y013020D01*
X000954Y012871D01*
X001060Y012765D01*
X001209Y012765D01*
X001314Y012871D01*
X001314Y013020D01*
X001314Y012955D02*
X004354Y012955D01*
X004261Y012857D02*
X001300Y012857D01*
X000968Y012857D02*
X000650Y012857D01*
X000650Y012955D02*
X000954Y012955D01*
X000988Y013054D02*
X000650Y013054D01*
X000650Y013152D02*
X007819Y013152D01*
X009616Y013264D02*
X009721Y013159D01*
X009870Y013159D01*
X009976Y013264D01*
X009976Y013414D01*
X009870Y013519D01*
X009721Y013519D01*
X009616Y013414D01*
X009616Y013264D01*
X009630Y013251D02*
X000650Y013251D01*
X000650Y013349D02*
X009616Y013349D01*
X009650Y013448D02*
X003072Y013448D01*
X003086Y013461D02*
X002980Y013356D01*
X002831Y013356D01*
X002726Y013461D01*
X002726Y013610D01*
X002831Y013716D01*
X002980Y013716D01*
X003086Y013610D01*
X003086Y013461D01*
X003086Y013546D02*
X014340Y013546D01*
X014340Y013610D02*
X014340Y013461D01*
X014446Y013356D01*
X014595Y013356D01*
X014700Y013461D01*
X014700Y013610D01*
X014595Y013716D01*
X014446Y013716D01*
X014340Y013610D01*
X014374Y013645D02*
X003052Y013645D01*
X002760Y013645D02*
X001694Y013645D01*
X001708Y013658D02*
X001603Y013553D01*
X001453Y013553D01*
X001348Y013658D01*
X001348Y013807D01*
X001453Y013913D01*
X001603Y013913D01*
X001708Y013807D01*
X001708Y013658D01*
X001708Y013743D02*
X024310Y013743D01*
X024212Y013645D02*
X023721Y013645D01*
X023755Y013610D02*
X023650Y013716D01*
X023501Y013716D01*
X023395Y013610D01*
X023395Y013461D01*
X023501Y013356D01*
X023650Y013356D01*
X023755Y013461D01*
X023755Y013610D01*
X023755Y013546D02*
X024113Y013546D01*
X024015Y013448D02*
X023741Y013448D01*
X023987Y013349D02*
X009976Y013349D01*
X009962Y013251D02*
X020476Y013251D01*
X020442Y013217D02*
X020442Y013068D01*
X020548Y012962D01*
X020697Y012962D01*
X020802Y013068D01*
X020802Y013217D01*
X020697Y013322D01*
X020548Y013322D01*
X020442Y013217D01*
X020442Y013152D02*
X017017Y013152D01*
X017115Y013054D02*
X020456Y013054D01*
X020788Y013054D02*
X023987Y013054D01*
X023987Y013152D02*
X020802Y013152D01*
X020769Y013251D02*
X023987Y013251D01*
X024266Y013251D02*
X035083Y013251D01*
X035083Y013349D02*
X029470Y013349D01*
X029503Y013383D02*
X029398Y013277D01*
X029249Y013277D01*
X029143Y013383D01*
X029143Y013532D01*
X029249Y013637D01*
X029398Y013637D01*
X029503Y013532D01*
X029503Y013383D01*
X029503Y013448D02*
X035083Y013448D01*
X035083Y013546D02*
X029489Y013546D01*
X029158Y013546D02*
X024514Y013546D01*
X024416Y013448D02*
X029143Y013448D01*
X029177Y013349D02*
X024317Y013349D01*
X024266Y013152D02*
X035083Y013152D01*
X035083Y013054D02*
X026477Y013054D01*
X026511Y013020D02*
X026406Y013125D01*
X026257Y013125D01*
X026151Y013020D01*
X026151Y012871D01*
X026257Y012765D01*
X026406Y012765D01*
X026511Y012871D01*
X026511Y013020D01*
X026511Y012955D02*
X035083Y012955D01*
X035083Y012857D02*
X034548Y012857D01*
X034582Y012823D02*
X034477Y012928D01*
X034327Y012928D01*
X034222Y012823D01*
X034222Y012674D01*
X034327Y012568D01*
X034477Y012568D01*
X034582Y012674D01*
X034582Y012823D01*
X034582Y012758D02*
X035083Y012758D01*
X035083Y012660D02*
X034568Y012660D01*
X034236Y012660D02*
X027659Y012660D01*
X027692Y012626D02*
X027587Y012732D01*
X027438Y012732D01*
X027332Y012626D01*
X027332Y012477D01*
X027438Y012372D01*
X027587Y012372D01*
X027692Y012477D01*
X027692Y012626D01*
X027692Y012561D02*
X030889Y012561D01*
X030876Y012547D02*
X030876Y012456D01*
X030784Y012456D01*
X030679Y012351D01*
X030679Y012201D01*
X030784Y012096D01*
X030933Y012096D01*
X031039Y012201D01*
X031039Y012293D01*
X031130Y012293D01*
X031236Y012398D01*
X031236Y012547D01*
X031130Y012653D01*
X030981Y012653D01*
X030876Y012547D01*
X030876Y012463D02*
X027678Y012463D01*
X027347Y012463D02*
X024266Y012463D01*
X024266Y012561D02*
X027332Y012561D01*
X027366Y012660D02*
X024266Y012660D01*
X024266Y012758D02*
X034222Y012758D01*
X034256Y012857D02*
X026497Y012857D01*
X026165Y012857D02*
X024266Y012857D01*
X024266Y012955D02*
X026151Y012955D01*
X026185Y013054D02*
X024266Y013054D01*
X023987Y012955D02*
X017214Y012955D01*
X017312Y012857D02*
X023987Y012857D01*
X023987Y012758D02*
X017411Y012758D01*
X017509Y012660D02*
X023035Y012660D01*
X023001Y012626D02*
X023001Y012477D01*
X023107Y012372D01*
X023256Y012372D01*
X023361Y012477D01*
X023361Y012626D01*
X023256Y012732D01*
X023107Y012732D01*
X023001Y012626D01*
X023001Y012561D02*
X017608Y012561D01*
X017706Y012463D02*
X023016Y012463D01*
X023347Y012463D02*
X023987Y012463D01*
X023987Y012561D02*
X023361Y012561D01*
X023328Y012660D02*
X023987Y012660D01*
X023987Y012364D02*
X017805Y012364D01*
X017903Y012266D02*
X023987Y012266D01*
X023987Y012167D02*
X018002Y012167D01*
X018100Y012069D02*
X023987Y012069D01*
X023987Y011970D02*
X018199Y011970D01*
X018297Y011872D02*
X019491Y011872D01*
X019524Y011905D02*
X019419Y011799D01*
X019419Y011650D01*
X019524Y011545D01*
X019673Y011545D01*
X019717Y011588D01*
X019760Y011545D01*
X019910Y011545D01*
X020015Y011650D01*
X020015Y011799D01*
X019910Y011905D01*
X019760Y011905D01*
X019717Y011861D01*
X019673Y011905D01*
X019524Y011905D01*
X019419Y011773D02*
X018396Y011773D01*
X018494Y011675D02*
X019419Y011675D01*
X019493Y011576D02*
X018593Y011576D01*
X018691Y011478D02*
X023987Y011478D01*
X023987Y011576D02*
X019941Y011576D01*
X020015Y011675D02*
X023987Y011675D01*
X023987Y011773D02*
X020015Y011773D01*
X019943Y011872D02*
X023987Y011872D01*
X024266Y011872D02*
X035083Y011872D01*
X035083Y011970D02*
X024266Y011970D01*
X024266Y012069D02*
X035083Y012069D01*
X035083Y012167D02*
X031004Y012167D01*
X031039Y012266D02*
X035083Y012266D01*
X035083Y012364D02*
X031201Y012364D01*
X031236Y012463D02*
X035083Y012463D01*
X035083Y012561D02*
X031222Y012561D01*
X030692Y012364D02*
X024266Y012364D01*
X024266Y012266D02*
X030679Y012266D01*
X030713Y012167D02*
X024266Y012167D01*
X024266Y011773D02*
X035083Y011773D01*
X035083Y011675D02*
X024266Y011675D01*
X024266Y011576D02*
X035083Y011576D01*
X035083Y011478D02*
X024266Y011478D01*
X024266Y011379D02*
X035083Y011379D01*
X035083Y011281D02*
X030455Y011281D01*
X030487Y011248D02*
X030382Y011354D01*
X030233Y011354D01*
X030127Y011248D01*
X030127Y011099D01*
X030151Y011075D01*
X030127Y011051D01*
X030127Y010902D01*
X030233Y010797D01*
X030382Y010797D01*
X030487Y010902D01*
X030487Y011051D01*
X030464Y011075D01*
X030487Y011099D01*
X030487Y011248D01*
X030487Y011182D02*
X035083Y011182D01*
X035083Y011084D02*
X030472Y011084D01*
X030487Y010985D02*
X035083Y010985D01*
X035083Y010887D02*
X030472Y010887D01*
X030143Y010887D02*
X029803Y010887D01*
X029818Y010902D02*
X029713Y010797D01*
X029564Y010797D01*
X029458Y010902D01*
X029458Y011051D01*
X029564Y011157D01*
X029713Y011157D01*
X029818Y011051D01*
X029818Y010902D01*
X029818Y010985D02*
X030127Y010985D01*
X030143Y011084D02*
X029786Y011084D01*
X029490Y011084D02*
X024266Y011084D01*
X024266Y011182D02*
X030127Y011182D01*
X030160Y011281D02*
X024266Y011281D01*
X023987Y011281D02*
X022935Y011281D01*
X022968Y011248D02*
X022862Y011354D01*
X022713Y011354D01*
X022608Y011248D01*
X022608Y011099D01*
X022713Y010994D01*
X022862Y010994D01*
X022968Y011099D01*
X022968Y011248D01*
X022968Y011182D02*
X023987Y011182D01*
X023987Y011084D02*
X022952Y011084D01*
X022623Y011084D02*
X021361Y011084D01*
X021393Y011051D02*
X021288Y011157D01*
X021138Y011157D01*
X021033Y011051D01*
X021033Y010902D01*
X021138Y010797D01*
X021288Y010797D01*
X021393Y010902D01*
X021393Y011051D01*
X021393Y010985D02*
X023987Y010985D01*
X023987Y010887D02*
X023723Y010887D01*
X023755Y010854D02*
X023650Y010960D01*
X023501Y010960D01*
X023395Y010854D01*
X023395Y010705D01*
X023501Y010600D01*
X023650Y010600D01*
X023755Y010705D01*
X023755Y010854D01*
X023755Y010788D02*
X023987Y010788D01*
X023987Y010690D02*
X023739Y010690D01*
X023987Y010591D02*
X019060Y010591D01*
X019060Y010493D02*
X023987Y010493D01*
X023987Y010394D02*
X019060Y010394D01*
X019060Y010296D02*
X020671Y010296D01*
X020639Y010264D02*
X020639Y010115D01*
X020745Y010009D01*
X020894Y010009D01*
X020999Y010115D01*
X020999Y010264D01*
X020894Y010369D01*
X020745Y010369D01*
X020639Y010264D01*
X020639Y010197D02*
X019060Y010197D01*
X019060Y010099D02*
X020656Y010099D01*
X020983Y010099D02*
X021458Y010099D01*
X021427Y010067D02*
X021532Y010173D01*
X021681Y010173D01*
X021787Y010067D01*
X021787Y009918D01*
X021681Y009813D01*
X021532Y009813D01*
X021427Y009918D01*
X021427Y010067D01*
X021427Y010000D02*
X019060Y010000D01*
X019060Y009902D02*
X021443Y009902D01*
X021770Y009902D02*
X022836Y009902D01*
X022805Y009870D02*
X022805Y009721D01*
X022910Y009616D01*
X023059Y009616D01*
X023165Y009721D01*
X023165Y009870D01*
X023059Y009976D01*
X022910Y009976D01*
X022805Y009870D01*
X022805Y009803D02*
X019060Y009803D01*
X019060Y009705D02*
X022821Y009705D01*
X023148Y009705D02*
X023987Y009705D01*
X023987Y009803D02*
X023165Y009803D01*
X023133Y009902D02*
X023987Y009902D01*
X023987Y010000D02*
X021787Y010000D01*
X021755Y010099D02*
X023987Y010099D01*
X023987Y010197D02*
X020999Y010197D01*
X020968Y010296D02*
X023987Y010296D01*
X024266Y010296D02*
X035083Y010296D01*
X035083Y010394D02*
X024266Y010394D01*
X024266Y010493D02*
X035083Y010493D01*
X035083Y010591D02*
X024266Y010591D01*
X024266Y010690D02*
X035083Y010690D01*
X035083Y010788D02*
X024266Y010788D01*
X024266Y010887D02*
X029474Y010887D01*
X029458Y010985D02*
X024266Y010985D01*
X023987Y011379D02*
X018790Y011379D01*
X018888Y011281D02*
X022640Y011281D01*
X022608Y011182D02*
X018987Y011182D01*
X019060Y011084D02*
X021065Y011084D01*
X021033Y010985D02*
X019060Y010985D01*
X019060Y010887D02*
X021049Y010887D01*
X021377Y010887D02*
X023427Y010887D01*
X023395Y010788D02*
X019060Y010788D01*
X019060Y010690D02*
X023411Y010690D01*
X024266Y010197D02*
X035083Y010197D01*
X035083Y010099D02*
X024266Y010099D01*
X024266Y010000D02*
X035083Y010000D01*
X035083Y009902D02*
X024266Y009902D01*
X024266Y009803D02*
X035083Y009803D01*
X035083Y009705D02*
X024266Y009705D01*
X024266Y009606D02*
X035083Y009606D01*
X035083Y009508D02*
X024266Y009508D01*
X024266Y009409D02*
X035083Y009409D01*
X035083Y009311D02*
X024266Y009311D01*
X024266Y009212D02*
X035083Y009212D01*
X035083Y009114D02*
X024266Y009114D01*
X024266Y009015D02*
X035083Y009015D01*
X035083Y008917D02*
X029000Y008917D01*
X029031Y008886D02*
X029031Y008795D01*
X029122Y008795D01*
X029228Y008689D01*
X029228Y008540D01*
X029122Y008435D01*
X028973Y008435D01*
X028868Y008540D01*
X028868Y008631D01*
X028776Y008631D01*
X028671Y008737D01*
X028671Y008886D01*
X028776Y008991D01*
X028925Y008991D01*
X029031Y008886D01*
X029031Y008818D02*
X035083Y008818D01*
X035083Y008720D02*
X029197Y008720D01*
X029228Y008621D02*
X035083Y008621D01*
X035083Y008523D02*
X029210Y008523D01*
X029406Y008361D02*
X029301Y008256D01*
X029301Y008107D01*
X029406Y008001D01*
X029458Y008001D01*
X029458Y007949D01*
X029564Y007844D01*
X029713Y007844D01*
X029818Y007949D01*
X029818Y008099D01*
X029713Y008204D01*
X029661Y008204D01*
X029661Y008256D01*
X029555Y008361D01*
X029406Y008361D01*
X029370Y008326D02*
X023698Y008326D01*
X023797Y008424D02*
X035083Y008424D01*
X035083Y008326D02*
X029591Y008326D01*
X029661Y008227D02*
X030138Y008227D01*
X030088Y008177D02*
X030088Y008028D01*
X030194Y007923D01*
X030343Y007923D01*
X030448Y008028D01*
X030448Y008177D01*
X030343Y008283D01*
X030194Y008283D01*
X030088Y008177D01*
X030088Y008129D02*
X029788Y008129D01*
X029818Y008030D02*
X030088Y008030D01*
X030185Y007932D02*
X029800Y007932D01*
X029476Y007932D02*
X023300Y007932D01*
X023400Y008030D02*
X029378Y008030D01*
X029301Y008129D02*
X023499Y008129D01*
X023599Y008227D02*
X029301Y008227D01*
X028885Y008523D02*
X023897Y008523D01*
X023996Y008621D02*
X028868Y008621D01*
X028688Y008720D02*
X024096Y008720D01*
X024195Y008818D02*
X028671Y008818D01*
X028701Y008917D02*
X024266Y008917D01*
X024266Y008888D02*
X024266Y008888D01*
X024266Y008888D01*
X023987Y009015D02*
X019532Y009015D01*
X019582Y008917D02*
X023893Y008917D01*
X023795Y008818D02*
X019729Y008818D01*
X019739Y008720D02*
X023696Y008720D01*
X023598Y008621D02*
X019702Y008621D01*
X019417Y008621D02*
X019335Y008621D01*
X019335Y008523D02*
X023499Y008523D01*
X023401Y008424D02*
X020556Y008424D01*
X020566Y008414D02*
X020461Y008519D01*
X020312Y008519D01*
X020206Y008414D01*
X020206Y008401D01*
X020115Y008401D01*
X020009Y008295D01*
X020009Y008146D01*
X020053Y008103D01*
X020009Y008059D01*
X020009Y007910D01*
X020115Y007805D01*
X020206Y007805D01*
X020206Y007792D01*
X020312Y007687D01*
X020461Y007687D01*
X020566Y007792D01*
X020566Y007941D01*
X020523Y007985D01*
X020566Y008028D01*
X020566Y008177D01*
X020523Y008221D01*
X020566Y008264D01*
X020566Y008414D01*
X020566Y008326D02*
X023302Y008326D01*
X023204Y008227D02*
X020529Y008227D01*
X020566Y008129D02*
X023105Y008129D01*
X023007Y008030D02*
X020566Y008030D01*
X020566Y007932D02*
X022908Y007932D01*
X022810Y007833D02*
X020566Y007833D01*
X020509Y007735D02*
X022711Y007735D01*
X022613Y007636D02*
X019571Y007636D01*
X019571Y007538D02*
X022514Y007538D01*
X022416Y007439D02*
X019473Y007439D01*
X019513Y007341D02*
X022317Y007341D01*
X022219Y007242D02*
X019582Y007242D01*
X019632Y007144D02*
X022120Y007144D01*
X022022Y007045D02*
X019700Y007045D01*
X019700Y006947D02*
X021923Y006947D01*
X021825Y006848D02*
X019622Y006848D01*
X018996Y007144D02*
X018469Y007144D01*
X018469Y007242D02*
X018996Y007242D01*
X019007Y007341D02*
X018469Y007341D01*
X018399Y007439D02*
X019106Y007439D01*
X019083Y007538D02*
X018973Y007538D01*
X018807Y007538D02*
X018698Y007538D01*
X018532Y007538D02*
X018422Y007538D01*
X018470Y007833D02*
X018484Y007833D01*
X018272Y007932D02*
X019311Y007932D01*
X019311Y008030D02*
X018272Y008030D01*
X018272Y008129D02*
X019311Y008129D01*
X019251Y008227D02*
X018272Y008227D01*
X018272Y008326D02*
X019153Y008326D01*
X019075Y008424D02*
X018272Y008424D01*
X018272Y008523D02*
X018767Y008523D01*
X018710Y008621D02*
X018272Y008621D01*
X018012Y008621D02*
X017878Y008621D01*
X017878Y008523D02*
X018012Y008523D01*
X018012Y008424D02*
X017878Y008424D01*
X017878Y008326D02*
X018012Y008326D01*
X018012Y008227D02*
X017878Y008227D01*
X017878Y008129D02*
X018012Y008129D01*
X018012Y008030D02*
X017878Y008030D01*
X017878Y007932D02*
X018012Y007932D01*
X018012Y007833D02*
X017878Y007833D01*
X017878Y007735D02*
X018012Y007735D01*
X018012Y007636D02*
X017878Y007636D01*
X017878Y007538D02*
X018012Y007538D01*
X017997Y007439D02*
X018031Y007439D01*
X018086Y007341D02*
X018130Y007341D01*
X018086Y007242D02*
X018209Y007242D01*
X018209Y007144D02*
X018028Y007144D01*
X018209Y007045D02*
X017683Y007045D01*
X017771Y006947D02*
X018209Y006947D01*
X018209Y006848D02*
X017771Y006848D01*
X017850Y006750D02*
X018209Y006750D01*
X018209Y006651D02*
X017850Y006651D01*
X017791Y006553D02*
X018180Y006553D01*
X018842Y006060D02*
X019546Y006060D01*
X019458Y005962D02*
X018744Y005962D01*
X018645Y005863D02*
X019458Y005863D01*
X019408Y005765D02*
X018547Y005765D01*
X018448Y005666D02*
X019379Y005666D01*
X019399Y005568D02*
X018350Y005568D01*
X018251Y005469D02*
X019537Y005469D01*
X019596Y005371D02*
X018153Y005371D01*
X017293Y005666D02*
X016266Y005666D01*
X016354Y005568D02*
X017195Y005568D01*
X017096Y005469D02*
X016354Y005469D01*
X016294Y005371D02*
X016998Y005371D01*
X017194Y004780D02*
X014734Y004780D01*
X015030Y004484D02*
X015604Y004484D01*
X015506Y004386D02*
X015185Y004386D01*
X015212Y004287D02*
X015491Y004287D01*
X015317Y004189D02*
X015298Y004189D01*
X015298Y004090D02*
X015317Y004090D01*
X015317Y003992D02*
X015298Y003992D01*
X015298Y003893D02*
X015317Y003893D01*
X015317Y003795D02*
X015298Y003795D01*
X015298Y003696D02*
X015317Y003696D01*
X015317Y003598D02*
X015298Y003598D01*
X015298Y003499D02*
X015317Y003499D01*
X015317Y003401D02*
X015298Y003401D01*
X015298Y003302D02*
X015317Y003302D01*
X015317Y003204D02*
X015298Y003204D01*
X015298Y003105D02*
X015317Y003105D01*
X015093Y003007D02*
X025334Y003007D01*
X025334Y003105D02*
X025319Y003105D01*
X025334Y002908D02*
X015093Y002908D01*
X015093Y002810D02*
X025334Y002810D01*
X025334Y002711D02*
X025315Y002711D01*
X024198Y002711D02*
X024134Y002711D01*
X024138Y003105D02*
X024194Y003105D01*
X023013Y003105D02*
X022957Y003105D01*
X022952Y002711D02*
X023017Y002711D01*
X021836Y002711D02*
X021771Y002711D01*
X021776Y003105D02*
X021831Y003105D01*
X020650Y003105D02*
X020594Y003105D01*
X020590Y002711D02*
X020655Y002711D01*
X019473Y002711D02*
X019409Y002711D01*
X019413Y003105D02*
X019469Y003105D01*
X018288Y003105D02*
X018232Y003105D01*
X018228Y002711D02*
X018292Y002711D01*
X017111Y002711D02*
X017047Y002711D01*
X017051Y003105D02*
X017107Y003105D01*
X015926Y003105D02*
X015870Y003105D01*
X015866Y002711D02*
X015930Y002711D01*
X015317Y002711D02*
X015298Y002711D01*
X015298Y002613D02*
X015317Y002613D01*
X015317Y002514D02*
X015298Y002514D01*
X015298Y002416D02*
X015317Y002416D01*
X015317Y002317D02*
X015298Y002317D01*
X015298Y002219D02*
X015317Y002219D01*
X015317Y002120D02*
X015298Y002120D01*
X015298Y002022D02*
X015317Y002022D01*
X015317Y001923D02*
X015298Y001923D01*
X015298Y001825D02*
X015317Y001825D01*
X015317Y001726D02*
X015298Y001726D01*
X015298Y001628D02*
X015317Y001628D01*
X015540Y001628D02*
X016256Y001628D01*
X017066Y001529D02*
X015093Y001529D01*
X015093Y001431D02*
X017066Y001431D01*
X017096Y001332D02*
X015093Y001332D01*
X014953Y001332D02*
X010920Y001332D01*
X011019Y001431D02*
X011607Y001431D01*
X011584Y001529D02*
X011029Y001529D01*
X011017Y001628D02*
X011138Y001628D01*
X011361Y001628D02*
X011380Y001628D01*
X011380Y001726D02*
X011361Y001726D01*
X011361Y001825D02*
X011380Y001825D01*
X011380Y001923D02*
X011361Y001923D01*
X011361Y002022D02*
X011380Y002022D01*
X011380Y002120D02*
X011361Y002120D01*
X011361Y002187D02*
X011361Y002780D01*
X011233Y002780D01*
X011194Y002770D01*
X011160Y002750D01*
X011132Y002722D01*
X011131Y002720D01*
X010821Y002720D01*
X010793Y002692D01*
X010793Y003120D01*
X010821Y003091D01*
X011131Y003091D01*
X011132Y003089D01*
X011160Y003061D01*
X011194Y003042D01*
X011233Y003031D01*
X011361Y003031D01*
X011361Y003625D01*
X011380Y003625D01*
X011380Y003031D01*
X011508Y003031D01*
X011546Y003042D01*
X011581Y003061D01*
X011609Y003089D01*
X011610Y003091D01*
X011920Y003091D01*
X011961Y003133D01*
X012002Y003091D01*
X012313Y003091D01*
X012355Y003133D01*
X012396Y003091D01*
X012707Y003091D01*
X012748Y003133D01*
X012790Y003091D01*
X013101Y003091D01*
X013142Y003133D01*
X013184Y003091D01*
X013494Y003091D01*
X013536Y003133D01*
X013577Y003091D01*
X013888Y003091D01*
X013930Y003133D01*
X013971Y003091D01*
X014282Y003091D01*
X014323Y003133D01*
X014365Y003091D01*
X014675Y003091D01*
X014717Y003133D01*
X014758Y003091D01*
X014953Y003091D01*
X014953Y002720D01*
X014758Y002720D01*
X014717Y002679D01*
X014675Y002720D01*
X014365Y002720D01*
X014323Y002679D01*
X014282Y002720D01*
X013971Y002720D01*
X013930Y002679D01*
X013888Y002720D01*
X013577Y002720D01*
X013536Y002679D01*
X013494Y002720D01*
X013184Y002720D01*
X013142Y002679D01*
X013101Y002720D01*
X012790Y002720D01*
X012748Y002679D01*
X012707Y002720D01*
X012396Y002720D01*
X012355Y002679D01*
X012313Y002720D01*
X012002Y002720D01*
X011961Y002679D01*
X011920Y002720D01*
X011610Y002720D01*
X011609Y002722D01*
X011581Y002750D01*
X011546Y002770D01*
X011508Y002780D01*
X011380Y002780D01*
X011380Y002187D01*
X011361Y002187D01*
X011361Y002219D02*
X011380Y002219D01*
X011380Y002317D02*
X011361Y002317D01*
X011361Y002416D02*
X011380Y002416D01*
X011380Y002514D02*
X011361Y002514D01*
X011361Y002613D02*
X011380Y002613D01*
X011380Y002711D02*
X011361Y002711D01*
X011361Y003105D02*
X011380Y003105D01*
X011380Y003204D02*
X011361Y003204D01*
X011361Y003302D02*
X011380Y003302D01*
X011380Y003401D02*
X011361Y003401D01*
X011361Y003499D02*
X011380Y003499D01*
X011380Y003598D02*
X011361Y003598D01*
X011361Y003696D02*
X011380Y003696D01*
X011380Y003795D02*
X011361Y003795D01*
X011361Y003893D02*
X011380Y003893D01*
X011380Y003992D02*
X011361Y003992D01*
X011361Y004090D02*
X011380Y004090D01*
X011380Y004189D02*
X011361Y004189D01*
X011484Y004287D02*
X000650Y004287D01*
X000650Y004189D02*
X006611Y004189D01*
X006584Y004162D02*
X006584Y004012D01*
X006628Y003969D01*
X006584Y003925D01*
X006584Y003776D01*
X006628Y003733D01*
X006584Y003689D01*
X006584Y003540D01*
X006690Y003435D01*
X006839Y003435D01*
X006944Y003540D01*
X006944Y003689D01*
X006901Y003733D01*
X006944Y003776D01*
X006944Y003925D01*
X006901Y003969D01*
X006944Y004012D01*
X006944Y004162D01*
X006839Y004267D01*
X006690Y004267D01*
X006584Y004162D01*
X006584Y004090D02*
X000650Y004090D01*
X000650Y003992D02*
X006605Y003992D01*
X006584Y003893D02*
X000650Y003893D01*
X000650Y003795D02*
X006584Y003795D01*
X006591Y003696D02*
X002539Y003696D01*
X002721Y003654D02*
X002721Y003654D01*
X002820Y003598D02*
X006584Y003598D01*
X006625Y003499D02*
X002991Y003499D01*
X003147Y003409D02*
X003147Y003409D01*
X003155Y003401D02*
X008595Y003401D01*
X008505Y003302D02*
X003246Y003302D01*
X003337Y003204D02*
X008464Y003204D01*
X008423Y003105D02*
X003429Y003105D01*
X003482Y003048D02*
X003482Y003048D01*
X003502Y003007D02*
X008401Y003007D01*
X008401Y002908D02*
X003549Y002908D01*
X003597Y002810D02*
X008401Y002810D01*
X008422Y002711D02*
X003644Y002711D01*
X003692Y002613D02*
X008463Y002613D01*
X008503Y002514D02*
X003709Y002514D01*
X003695Y002605D02*
X003695Y002605D01*
X003724Y002416D02*
X008591Y002416D01*
X008689Y002317D02*
X003739Y002317D01*
X003753Y002219D02*
X008890Y002219D01*
X009363Y002219D02*
X009528Y002219D01*
X009528Y002120D02*
X003768Y002120D01*
X003754Y002022D02*
X009528Y002022D01*
X009528Y001923D02*
X003739Y001923D01*
X003724Y001825D02*
X006609Y001825D01*
X006584Y001799D02*
X006584Y001650D01*
X006690Y001545D01*
X006839Y001545D01*
X006944Y001650D01*
X006944Y001799D01*
X006839Y001905D01*
X006690Y001905D01*
X006584Y001799D01*
X006584Y001726D02*
X003709Y001726D01*
X003695Y001632D02*
X003695Y001632D01*
X003693Y001628D02*
X006607Y001628D01*
X006921Y001628D02*
X009563Y001628D01*
X009528Y001726D02*
X006944Y001726D01*
X006919Y001825D02*
X009528Y001825D01*
X009787Y001825D02*
X009805Y001825D01*
X009805Y001923D02*
X009787Y001923D01*
X009787Y002022D02*
X009805Y002022D01*
X009805Y002120D02*
X009787Y002120D01*
X009787Y001726D02*
X009805Y001726D01*
X009805Y001628D02*
X009787Y001628D01*
X010029Y001628D02*
X010149Y001628D01*
X010137Y001529D02*
X003646Y001529D01*
X003598Y001431D02*
X010147Y001431D01*
X010246Y001332D02*
X003551Y001332D01*
X003503Y001234D02*
X005113Y001234D01*
X005088Y001209D02*
X005088Y001060D01*
X005194Y000954D01*
X005343Y000954D01*
X005448Y001060D01*
X005448Y001209D01*
X005343Y001314D01*
X005194Y001314D01*
X005088Y001209D01*
X005088Y001135D02*
X003432Y001135D01*
X003482Y001189D02*
X003482Y001189D01*
X003340Y001037D02*
X005111Y001037D01*
X005425Y001037D02*
X008892Y001037D01*
X008934Y001078D02*
X008828Y000973D01*
X008828Y000823D01*
X008934Y000718D01*
X009083Y000718D01*
X009133Y000768D01*
X014199Y000768D01*
X014249Y000718D01*
X014398Y000718D01*
X014503Y000823D01*
X014503Y000973D01*
X014398Y001078D01*
X014385Y001078D01*
X014385Y001209D01*
X014280Y001314D01*
X014131Y001314D01*
X014081Y001264D01*
X009251Y001264D01*
X009201Y001314D01*
X009052Y001314D01*
X008946Y001209D01*
X008946Y001078D01*
X008934Y001078D01*
X008946Y001135D02*
X005448Y001135D01*
X005423Y001234D02*
X008971Y001234D01*
X008828Y000938D02*
X003249Y000938D01*
X003157Y000840D02*
X008828Y000840D01*
X008911Y000741D02*
X002996Y000741D01*
X000682Y002908D02*
X000650Y002908D01*
X000650Y003007D02*
X000749Y003007D01*
X000816Y003105D02*
X000650Y003105D01*
X000650Y003204D02*
X000884Y003204D01*
X000986Y003302D02*
X000650Y003302D01*
X000650Y003401D02*
X001109Y003401D01*
X001233Y003499D02*
X000650Y003499D01*
X000650Y003598D02*
X001421Y003598D01*
X001294Y003547D02*
X001294Y003547D01*
X001672Y003696D02*
X000650Y003696D01*
X000650Y004386D02*
X011386Y004386D01*
X011287Y004484D02*
X007809Y004484D01*
X007809Y004583D02*
X011189Y004583D01*
X011090Y004681D02*
X007809Y004681D01*
X007809Y004780D02*
X010992Y004780D01*
X010893Y004878D02*
X007809Y004878D01*
X007809Y004977D02*
X010795Y004977D01*
X010696Y005075D02*
X007809Y005075D01*
X007809Y005174D02*
X010541Y005174D01*
X010482Y005272D02*
X007809Y005272D01*
X007809Y005371D02*
X010482Y005371D01*
X010569Y005469D02*
X007809Y005469D01*
X007809Y005568D02*
X012343Y005568D01*
X012343Y005666D02*
X007809Y005666D01*
X007809Y005765D02*
X012343Y005765D01*
X012343Y005863D02*
X007809Y005863D01*
X007809Y005962D02*
X012343Y005962D01*
X012343Y006060D02*
X007809Y006060D01*
X007809Y006159D02*
X012343Y006159D01*
X012343Y006257D02*
X007728Y006257D01*
X007629Y006356D02*
X012343Y006356D01*
X012343Y006454D02*
X007531Y006454D01*
X007432Y006553D02*
X012343Y006553D01*
X012343Y006651D02*
X007334Y006651D01*
X007235Y006750D02*
X012343Y006750D01*
X012343Y006848D02*
X007137Y006848D01*
X006972Y006651D02*
X000650Y006651D01*
X000650Y006553D02*
X007071Y006553D01*
X007169Y006454D02*
X000650Y006454D01*
X000650Y006356D02*
X007268Y006356D01*
X007366Y006257D02*
X000650Y006257D01*
X000650Y006159D02*
X000786Y006159D01*
X000757Y006130D02*
X000757Y005981D01*
X000863Y005876D01*
X001012Y005876D01*
X001117Y005981D01*
X001117Y006130D01*
X001012Y006236D01*
X000863Y006236D01*
X000757Y006130D01*
X000757Y006060D02*
X000650Y006060D01*
X000650Y005962D02*
X000777Y005962D01*
X000650Y005863D02*
X007570Y005863D01*
X007570Y005765D02*
X000650Y005765D01*
X000650Y005666D02*
X007570Y005666D01*
X007570Y005568D02*
X000650Y005568D01*
X000650Y005469D02*
X007570Y005469D01*
X007570Y005371D02*
X000650Y005371D01*
X000650Y005272D02*
X007570Y005272D01*
X007570Y005174D02*
X000650Y005174D01*
X000650Y005075D02*
X007570Y005075D01*
X007570Y004977D02*
X002074Y004977D01*
X002102Y004949D02*
X001996Y005054D01*
X001847Y005054D01*
X001742Y004949D01*
X001742Y004800D01*
X001847Y004694D01*
X001996Y004694D01*
X002102Y004800D01*
X002102Y004949D01*
X002102Y004878D02*
X007570Y004878D01*
X007570Y004780D02*
X002081Y004780D01*
X001762Y004780D02*
X000650Y004780D01*
X000650Y004878D02*
X001742Y004878D01*
X001769Y004977D02*
X000650Y004977D01*
X000650Y004681D02*
X007570Y004681D01*
X007570Y004583D02*
X000650Y004583D01*
X000650Y004484D02*
X007570Y004484D01*
X006917Y004189D02*
X009567Y004189D01*
X009558Y004179D02*
X009538Y004145D01*
X009528Y004107D01*
X009528Y003643D01*
X009787Y003643D01*
X009787Y004237D01*
X009658Y004237D01*
X009620Y004227D01*
X009585Y004207D01*
X009558Y004179D01*
X009528Y004090D02*
X006944Y004090D01*
X006923Y003992D02*
X009528Y003992D01*
X009528Y003893D02*
X006944Y003893D01*
X006944Y003795D02*
X009528Y003795D01*
X009528Y003696D02*
X006937Y003696D01*
X006944Y003598D02*
X008900Y003598D01*
X008693Y003499D02*
X006903Y003499D01*
X009353Y003598D02*
X009528Y003598D01*
X009787Y003696D02*
X009805Y003696D01*
X009805Y003795D02*
X009787Y003795D01*
X009787Y003893D02*
X009805Y003893D01*
X009805Y003992D02*
X009787Y003992D01*
X009787Y004090D02*
X009805Y004090D01*
X009805Y004189D02*
X009787Y004189D01*
X010024Y004189D02*
X011142Y004189D01*
X011585Y004583D02*
X012343Y004583D01*
X012343Y004681D02*
X011486Y004681D01*
X011388Y004780D02*
X012343Y004780D01*
X012343Y004878D02*
X011289Y004878D01*
X011191Y004977D02*
X012343Y004977D01*
X012343Y005075D02*
X011092Y005075D01*
X010994Y005174D02*
X012343Y005174D01*
X012343Y005272D02*
X010895Y005272D01*
X010842Y005371D02*
X012343Y005371D01*
X012343Y005469D02*
X010755Y005469D01*
X010662Y005307D02*
X011764Y004205D01*
X011764Y003634D01*
X012158Y003634D02*
X012158Y004284D01*
X012338Y004287D02*
X012343Y004287D01*
X012345Y004189D02*
X012317Y004189D01*
X012311Y004386D02*
X012343Y004386D01*
X012343Y004484D02*
X011683Y004484D01*
X011782Y004386D02*
X012005Y004386D01*
X011978Y004287D02*
X011880Y004287D01*
X011904Y004189D02*
X011999Y004189D01*
X011989Y003105D02*
X011933Y003105D01*
X011929Y002711D02*
X011993Y002711D01*
X012323Y002711D02*
X012387Y002711D01*
X012716Y002711D02*
X012781Y002711D01*
X013110Y002711D02*
X013174Y002711D01*
X013504Y002711D02*
X013568Y002711D01*
X013897Y002711D02*
X013962Y002711D01*
X014291Y002711D02*
X014355Y002711D01*
X014685Y002711D02*
X014749Y002711D01*
X014953Y002810D02*
X010793Y002810D01*
X010793Y002908D02*
X014953Y002908D01*
X014953Y003007D02*
X010793Y003007D01*
X010793Y003105D02*
X010808Y003105D01*
X010793Y002711D02*
X010812Y002711D01*
X010373Y002711D02*
X010354Y002711D01*
X010345Y002720D02*
X010035Y002720D01*
X010034Y002722D01*
X010006Y002750D01*
X009972Y002770D01*
X009934Y002780D01*
X009852Y002780D01*
X009852Y003031D01*
X009934Y003031D01*
X009972Y003042D01*
X010006Y003061D01*
X010034Y003089D01*
X010035Y003091D01*
X010345Y003091D01*
X010373Y003120D01*
X010373Y002692D01*
X010345Y002720D01*
X010373Y002810D02*
X009852Y002810D01*
X009852Y002908D02*
X010373Y002908D01*
X010373Y003007D02*
X009852Y003007D01*
X010358Y003105D02*
X010373Y003105D01*
X011603Y001628D02*
X011609Y001628D01*
X011919Y001628D02*
X012003Y001628D01*
X011978Y001529D02*
X011944Y001529D01*
X011921Y001431D02*
X012001Y001431D01*
X012315Y001431D02*
X012394Y001431D01*
X012372Y001529D02*
X012338Y001529D01*
X012313Y001628D02*
X012397Y001628D01*
X012707Y001628D02*
X012790Y001628D01*
X012765Y001529D02*
X012732Y001529D01*
X012709Y001431D02*
X012788Y001431D01*
X013102Y001431D02*
X013182Y001431D01*
X013159Y001529D02*
X013125Y001529D01*
X013100Y001628D02*
X013184Y001628D01*
X013494Y001628D02*
X013578Y001628D01*
X013553Y001529D02*
X013519Y001529D01*
X013496Y001431D02*
X013576Y001431D01*
X013890Y001431D02*
X013969Y001431D01*
X013946Y001529D02*
X013913Y001529D01*
X013888Y001628D02*
X013971Y001628D01*
X014281Y001628D02*
X014953Y001628D01*
X014953Y001529D02*
X014306Y001529D01*
X014283Y001431D02*
X014953Y001431D01*
X014953Y001234D02*
X014360Y001234D01*
X014385Y001135D02*
X014953Y001135D01*
X014953Y001037D02*
X014439Y001037D01*
X014503Y000938D02*
X014953Y000938D01*
X014953Y000840D02*
X014503Y000840D01*
X014421Y000741D02*
X014953Y000741D01*
X014226Y000741D02*
X009106Y000741D01*
X012327Y003105D02*
X012383Y003105D01*
X012720Y003105D02*
X012776Y003105D01*
X013114Y003105D02*
X013170Y003105D01*
X013508Y003105D02*
X013564Y003105D01*
X013902Y003105D02*
X013957Y003105D01*
X014295Y003105D02*
X014351Y003105D01*
X014689Y003105D02*
X014745Y003105D01*
X015897Y004386D02*
X015900Y004386D01*
X015998Y004484D02*
X015798Y004484D01*
X015265Y005765D02*
X015043Y005765D01*
X015141Y005863D02*
X015206Y005863D01*
X014971Y006060D02*
X014787Y006060D01*
X014872Y005962D02*
X014689Y005962D01*
X014774Y005863D02*
X014590Y005863D01*
X014675Y005765D02*
X014492Y005765D01*
X014577Y005666D02*
X014393Y005666D01*
X014886Y006159D02*
X015069Y006159D01*
X014984Y006257D02*
X015168Y006257D01*
X015083Y006356D02*
X015266Y006356D01*
X015181Y006454D02*
X015365Y006454D01*
X015280Y006553D02*
X015463Y006553D01*
X015378Y006651D02*
X015562Y006651D01*
X015477Y006750D02*
X015660Y006750D01*
X015575Y006848D02*
X015759Y006848D01*
X015674Y006947D02*
X015857Y006947D01*
X015772Y007045D02*
X015956Y007045D01*
X015871Y007144D02*
X016054Y007144D01*
X015969Y007242D02*
X016153Y007242D01*
X015897Y007538D02*
X015645Y007538D01*
X015645Y007439D02*
X015798Y007439D01*
X015700Y007341D02*
X015587Y007341D01*
X015556Y007636D02*
X016665Y007636D01*
X016566Y007538D02*
X016482Y007538D01*
X017878Y008720D02*
X018012Y008720D01*
X018012Y008818D02*
X017878Y008818D01*
X017878Y008917D02*
X018012Y008917D01*
X018012Y009015D02*
X017878Y009015D01*
X017878Y009114D02*
X018012Y009114D01*
X018012Y009212D02*
X017878Y009212D01*
X017878Y009311D02*
X018012Y009311D01*
X018012Y009409D02*
X017878Y009409D01*
X017878Y009508D02*
X018012Y009508D01*
X018012Y009606D02*
X017878Y009606D01*
X017878Y009705D02*
X018012Y009705D01*
X018012Y009803D02*
X017878Y009803D01*
X017878Y009902D02*
X018012Y009902D01*
X018012Y010000D02*
X017878Y010000D01*
X017878Y010099D02*
X018012Y010099D01*
X017951Y010197D02*
X017878Y010197D01*
X018115Y010401D02*
X018115Y010459D01*
X018165Y010509D01*
X018165Y010658D01*
X018059Y010763D01*
X017915Y010763D01*
X017957Y010805D01*
X017957Y011214D01*
X018209Y010962D01*
X018209Y010471D01*
X018126Y010389D01*
X018115Y010401D01*
X018121Y010394D02*
X018132Y010394D01*
X018149Y010493D02*
X018209Y010493D01*
X018209Y010591D02*
X018165Y010591D01*
X018133Y010690D02*
X018209Y010690D01*
X018209Y010788D02*
X017940Y010788D01*
X017957Y010887D02*
X018209Y010887D01*
X018186Y010985D02*
X017957Y010985D01*
X017957Y011084D02*
X018088Y011084D01*
X017989Y011182D02*
X017957Y011182D01*
X017674Y011182D02*
X017640Y011182D01*
X017576Y011281D02*
X017227Y011281D01*
X017299Y011182D02*
X017463Y011182D01*
X017372Y011084D02*
X017299Y011084D01*
X017477Y011379D02*
X016619Y011379D01*
X016619Y011281D02*
X017010Y011281D01*
X016939Y011182D02*
X016619Y011182D01*
X016669Y011084D02*
X016884Y011084D01*
X016831Y010985D02*
X016669Y010985D01*
X016574Y010887D02*
X016831Y010887D01*
X016831Y010788D02*
X016476Y010788D01*
X016354Y010690D02*
X016831Y010690D01*
X016831Y010591D02*
X016279Y010591D01*
X016069Y010591D02*
X015932Y010591D01*
X015834Y010493D02*
X016831Y010493D01*
X016041Y011067D02*
X015914Y010940D01*
X015871Y010983D01*
X015871Y011227D01*
X015201Y011897D01*
X015149Y011949D01*
X015844Y011949D01*
X016203Y011590D01*
X016138Y011590D01*
X016033Y011484D01*
X016033Y011335D01*
X016112Y011257D01*
X016112Y011138D01*
X016183Y011067D01*
X016149Y011067D01*
X016041Y011067D01*
X015959Y010985D02*
X015871Y010985D01*
X015871Y011084D02*
X016167Y011084D01*
X016112Y011182D02*
X015871Y011182D01*
X015817Y011281D02*
X016088Y011281D01*
X016033Y011379D02*
X015719Y011379D01*
X015620Y011478D02*
X016033Y011478D01*
X016125Y011576D02*
X015522Y011576D01*
X015423Y011675D02*
X016119Y011675D01*
X016020Y011773D02*
X015325Y011773D01*
X015226Y011872D02*
X015922Y011872D01*
X016092Y012069D02*
X016788Y012069D01*
X016689Y012167D02*
X015994Y012167D01*
X016191Y011970D02*
X016886Y011970D01*
X016735Y011872D02*
X016289Y011872D01*
X016388Y011773D02*
X016722Y011773D01*
X016757Y011675D02*
X016486Y011675D01*
X016585Y011576D02*
X016840Y011576D01*
X016875Y011478D02*
X016619Y011478D01*
X017165Y011478D02*
X017379Y011478D01*
X017280Y011576D02*
X017200Y011576D01*
X018469Y010985D02*
X018501Y010985D01*
X018469Y010887D02*
X018600Y010887D01*
X018603Y010788D02*
X018469Y010788D01*
X018469Y010690D02*
X018603Y010690D01*
X018603Y010591D02*
X018469Y010591D01*
X018469Y010493D02*
X018603Y010493D01*
X018603Y010394D02*
X018469Y010394D01*
X018480Y010296D02*
X018603Y010296D01*
X018603Y010197D02*
X018444Y010197D01*
X018603Y010099D02*
X018272Y010099D01*
X018272Y010000D02*
X018603Y010000D01*
X018553Y009902D02*
X018272Y009902D01*
X018272Y009803D02*
X018553Y009803D01*
X018609Y009705D02*
X018272Y009705D01*
X018272Y009606D02*
X018800Y009606D01*
X018800Y009508D02*
X018272Y009508D01*
X018272Y009409D02*
X018800Y009409D01*
X018800Y009311D02*
X018272Y009311D01*
X018272Y009212D02*
X018800Y009212D01*
X018800Y009114D02*
X018272Y009114D01*
X018272Y009015D02*
X018800Y009015D01*
X018800Y008917D02*
X018272Y008917D01*
X018710Y008728D02*
X018800Y008818D01*
X019060Y008818D02*
X019075Y008818D01*
X019070Y008720D02*
X019075Y008720D01*
X019070Y008621D02*
X019075Y008621D01*
X019075Y008523D02*
X019013Y008523D01*
X019060Y008917D02*
X019075Y008917D01*
X019064Y009015D02*
X019060Y009015D01*
X019060Y009114D02*
X019064Y009114D01*
X019060Y009212D02*
X019115Y009212D01*
X019060Y009311D02*
X019773Y009311D01*
X019773Y009288D02*
X019879Y009183D01*
X020028Y009183D01*
X020133Y009288D01*
X020133Y009437D01*
X020028Y009543D01*
X019976Y009543D01*
X019976Y009595D01*
X019870Y009700D01*
X019721Y009700D01*
X019616Y009595D01*
X019616Y009446D01*
X019721Y009340D01*
X019773Y009340D01*
X019773Y009288D01*
X019849Y009212D02*
X019374Y009212D01*
X019424Y009114D02*
X022625Y009114D01*
X022608Y009131D02*
X022713Y009025D01*
X022862Y009025D01*
X022968Y009131D01*
X022968Y009280D01*
X022862Y009385D01*
X022713Y009385D01*
X022608Y009280D01*
X022608Y009131D01*
X022608Y009212D02*
X020057Y009212D01*
X020133Y009311D02*
X022639Y009311D01*
X022937Y009311D02*
X023987Y009311D01*
X023987Y009409D02*
X020133Y009409D01*
X020063Y009508D02*
X023987Y009508D01*
X023987Y009606D02*
X019964Y009606D01*
X019627Y009606D02*
X019060Y009606D01*
X019060Y009508D02*
X019616Y009508D01*
X019652Y009409D02*
X019060Y009409D01*
X019422Y008424D02*
X020217Y008424D01*
X020039Y008326D02*
X019521Y008326D01*
X019571Y008227D02*
X020009Y008227D01*
X020027Y008129D02*
X019571Y008129D01*
X019571Y008030D02*
X020009Y008030D01*
X020009Y007932D02*
X019571Y007932D01*
X019571Y007833D02*
X020086Y007833D01*
X020264Y007735D02*
X019571Y007735D01*
X019311Y007833D02*
X019296Y007833D01*
X019035Y007833D02*
X019021Y007833D01*
X018760Y007833D02*
X018745Y007833D01*
X021212Y005863D02*
X027608Y005863D01*
X027608Y005876D02*
X027608Y005784D01*
X027713Y005679D01*
X027862Y005679D01*
X027968Y005784D01*
X027968Y005933D01*
X027862Y006039D01*
X027771Y006039D01*
X027771Y006130D01*
X027666Y006236D01*
X027516Y006236D01*
X027411Y006130D01*
X027411Y005981D01*
X027516Y005876D01*
X027608Y005876D01*
X027627Y005765D02*
X021112Y005765D01*
X021013Y005666D02*
X029576Y005666D01*
X029537Y005705D02*
X029642Y005600D01*
X029791Y005600D01*
X029897Y005705D01*
X029897Y005854D01*
X029791Y005960D01*
X029642Y005960D01*
X029537Y005854D01*
X029537Y005705D01*
X029537Y005765D02*
X027948Y005765D01*
X027968Y005863D02*
X029545Y005863D01*
X029888Y005863D02*
X035083Y005863D01*
X035083Y005765D02*
X030381Y005765D01*
X030343Y005802D02*
X030448Y005697D01*
X030448Y005548D01*
X030343Y005442D01*
X030194Y005442D01*
X030088Y005548D01*
X030088Y005697D01*
X030194Y005802D01*
X030343Y005802D01*
X030448Y005666D02*
X035083Y005666D01*
X035083Y005568D02*
X030448Y005568D01*
X030369Y005469D02*
X035083Y005469D01*
X035083Y005371D02*
X020715Y005371D01*
X020814Y005469D02*
X030167Y005469D01*
X030088Y005568D02*
X020914Y005568D01*
X020615Y005272D02*
X035083Y005272D01*
X035083Y005174D02*
X020516Y005174D01*
X021311Y005962D02*
X027430Y005962D01*
X027411Y006060D02*
X021411Y006060D01*
X021510Y006159D02*
X027439Y006159D01*
X027742Y006159D02*
X035083Y006159D01*
X035083Y006257D02*
X021610Y006257D01*
X021709Y006356D02*
X035083Y006356D01*
X035083Y006454D02*
X021809Y006454D01*
X021908Y006553D02*
X035083Y006553D01*
X035083Y006651D02*
X022007Y006651D01*
X022107Y006750D02*
X035083Y006750D01*
X035083Y006848D02*
X022206Y006848D01*
X022306Y006947D02*
X035083Y006947D01*
X035083Y007045D02*
X022405Y007045D01*
X022505Y007144D02*
X034241Y007144D01*
X034222Y007162D02*
X034327Y007057D01*
X034477Y007057D01*
X034582Y007162D01*
X034582Y007311D01*
X034477Y007417D01*
X034327Y007417D01*
X034222Y007311D01*
X034222Y007162D01*
X034222Y007242D02*
X022604Y007242D01*
X022704Y007341D02*
X034251Y007341D01*
X034553Y007341D02*
X035083Y007341D01*
X035083Y007439D02*
X022803Y007439D01*
X022902Y007538D02*
X035083Y007538D01*
X035083Y007636D02*
X023002Y007636D01*
X023101Y007735D02*
X035083Y007735D01*
X035083Y007833D02*
X023201Y007833D01*
X022951Y009114D02*
X023987Y009114D01*
X023987Y009212D02*
X022968Y009212D01*
X019729Y011576D02*
X019705Y011576D01*
X019707Y011872D02*
X019727Y011872D01*
X020351Y013750D02*
X020246Y013855D01*
X020246Y014004D01*
X020351Y014110D01*
X020500Y014110D01*
X020606Y014004D01*
X020606Y013855D01*
X020500Y013750D01*
X020351Y013750D01*
X020259Y013842D02*
X015277Y013842D01*
X015291Y013855D02*
X015185Y013750D01*
X015036Y013750D01*
X014931Y013855D01*
X014931Y014004D01*
X015036Y014110D01*
X015185Y014110D01*
X015291Y014004D01*
X015291Y013855D01*
X015291Y013940D02*
X020246Y013940D01*
X020280Y014039D02*
X015256Y014039D01*
X014965Y014039D02*
X012128Y014039D01*
X012141Y014052D02*
X012036Y013946D01*
X011886Y013946D01*
X011781Y014052D01*
X011781Y014201D01*
X011886Y014306D01*
X012036Y014306D01*
X012141Y014201D01*
X012141Y014052D01*
X012141Y014137D02*
X024704Y014137D01*
X024606Y014039D02*
X020571Y014039D01*
X020606Y013940D02*
X024507Y013940D01*
X024409Y013842D02*
X020592Y013842D01*
X019516Y014931D02*
X019621Y015036D01*
X019621Y015185D01*
X019516Y015291D01*
X019367Y015291D01*
X019261Y015185D01*
X019261Y015036D01*
X019367Y014931D01*
X019516Y014931D01*
X019609Y015024D02*
X025591Y015024D01*
X025689Y015122D02*
X019621Y015122D01*
X019586Y015221D02*
X025788Y015221D01*
X025886Y015319D02*
X015291Y015319D01*
X015291Y015382D02*
X015185Y015487D01*
X015036Y015487D01*
X014931Y015382D01*
X014931Y015233D01*
X015036Y015127D01*
X015185Y015127D01*
X015291Y015233D01*
X015291Y015382D01*
X015255Y015418D02*
X022029Y015418D01*
X022017Y015430D02*
X022123Y015324D01*
X022272Y015324D01*
X022377Y015430D01*
X022377Y015579D01*
X022272Y015684D01*
X022123Y015684D01*
X022017Y015579D01*
X022017Y015430D01*
X022017Y015516D02*
X000650Y015516D01*
X000650Y015418D02*
X014966Y015418D01*
X014931Y015319D02*
X000650Y015319D01*
X000650Y015221D02*
X014943Y015221D01*
X015278Y015221D02*
X019297Y015221D01*
X019261Y015122D02*
X000650Y015122D01*
X000650Y015024D02*
X004139Y015024D01*
X004104Y014988D02*
X004209Y015094D01*
X004358Y015094D01*
X004464Y014988D01*
X004464Y014839D01*
X004358Y014734D01*
X004209Y014734D01*
X004104Y014839D01*
X004104Y014988D01*
X004104Y014925D02*
X000650Y014925D01*
X000650Y014827D02*
X004117Y014827D01*
X004451Y014827D02*
X009628Y014827D01*
X009616Y014839D02*
X009721Y014734D01*
X009870Y014734D01*
X009976Y014839D01*
X009976Y014988D01*
X009870Y015094D01*
X009721Y015094D01*
X009616Y014988D01*
X009616Y014839D01*
X009616Y014925D02*
X004464Y014925D01*
X004429Y015024D02*
X009651Y015024D01*
X009940Y015024D02*
X019274Y015024D01*
X016865Y013610D02*
X016760Y013716D01*
X016611Y013716D01*
X016505Y013610D01*
X016505Y013461D01*
X016611Y013356D01*
X016760Y013356D01*
X016865Y013461D01*
X016865Y013610D01*
X016831Y013645D02*
X023429Y013645D01*
X023395Y013546D02*
X016865Y013546D01*
X016852Y013448D02*
X023409Y013448D01*
X024613Y013645D02*
X035083Y013645D01*
X035083Y013743D02*
X030828Y013743D01*
X030861Y013776D02*
X030756Y013671D01*
X030607Y013671D01*
X030501Y013776D01*
X030501Y013925D01*
X030607Y014031D01*
X030756Y014031D01*
X030861Y013925D01*
X030861Y013776D01*
X030861Y013842D02*
X035083Y013842D01*
X035083Y013940D02*
X030847Y013940D01*
X030516Y013940D02*
X024908Y013940D01*
X024810Y013842D02*
X030501Y013842D01*
X030535Y013743D02*
X024711Y013743D01*
X025007Y014039D02*
X035083Y014039D01*
X035083Y014137D02*
X025105Y014137D01*
X025204Y014236D02*
X035083Y014236D01*
X035083Y014334D02*
X025302Y014334D01*
X025401Y014433D02*
X035083Y014433D01*
X035083Y014531D02*
X025499Y014531D01*
X025598Y014630D02*
X035083Y014630D01*
X035083Y014728D02*
X025696Y014728D01*
X025795Y014827D02*
X035083Y014827D01*
X035083Y014925D02*
X025893Y014925D01*
X025992Y015024D02*
X035083Y015024D01*
X035083Y015122D02*
X026090Y015122D01*
X026189Y015221D02*
X035083Y015221D01*
X035083Y015319D02*
X026287Y015319D01*
X026386Y015418D02*
X035083Y015418D01*
X035083Y015516D02*
X026484Y015516D01*
X026583Y015615D02*
X035083Y015615D01*
X035083Y015713D02*
X026681Y015713D01*
X026780Y015812D02*
X029509Y015812D01*
X029458Y015863D02*
X029564Y015757D01*
X029713Y015757D01*
X029818Y015863D01*
X029818Y016012D01*
X029713Y016117D01*
X029564Y016117D01*
X029458Y016012D01*
X029458Y015863D01*
X029458Y015910D02*
X026878Y015910D01*
X026977Y016009D02*
X029458Y016009D01*
X029553Y016107D02*
X027075Y016107D01*
X027174Y016206D02*
X030127Y016206D01*
X030127Y016209D02*
X030127Y016060D01*
X030151Y016036D01*
X030127Y016012D01*
X030127Y015863D01*
X030233Y015757D01*
X030382Y015757D01*
X030487Y015863D01*
X030487Y016012D01*
X030464Y016036D01*
X030487Y016060D01*
X030487Y016209D01*
X030382Y016314D01*
X030233Y016314D01*
X030127Y016209D01*
X030127Y016107D02*
X029723Y016107D01*
X029818Y016009D02*
X030127Y016009D01*
X030127Y015910D02*
X029818Y015910D01*
X029767Y015812D02*
X030179Y015812D01*
X030436Y015812D02*
X035083Y015812D01*
X035083Y015910D02*
X030487Y015910D01*
X030487Y016009D02*
X035083Y016009D01*
X035083Y016107D02*
X030487Y016107D01*
X030487Y016206D02*
X035083Y016206D01*
X035083Y016304D02*
X034101Y016304D01*
X034342Y016403D02*
X035083Y016403D01*
X035083Y016501D02*
X034513Y016501D01*
X034643Y016577D02*
X034643Y016577D01*
X034665Y016600D02*
X035083Y016600D01*
X035083Y016698D02*
X034756Y016698D01*
X034847Y016797D02*
X035083Y016797D01*
X035083Y016895D02*
X034939Y016895D01*
X034978Y016937D02*
X034978Y016937D01*
X035005Y016994D02*
X035083Y016994D01*
X035083Y017092D02*
X035052Y017092D01*
X033738Y016221D02*
X033738Y016221D01*
X033130Y016304D02*
X030392Y016304D01*
X030223Y016304D02*
X027272Y016304D01*
X027371Y016403D02*
X032879Y016403D01*
X032790Y016438D02*
X032790Y016438D01*
X032710Y016501D02*
X027469Y016501D01*
X027568Y016600D02*
X032586Y016600D01*
X032463Y016698D02*
X027666Y016698D01*
X027765Y016797D02*
X032369Y016797D01*
X032405Y016744D02*
X032405Y016744D01*
X032405Y016744D01*
X032302Y016895D02*
X027863Y016895D01*
X027962Y016994D02*
X032235Y016994D01*
X032168Y017092D02*
X031047Y017092D01*
X031078Y017123D02*
X031078Y017214D01*
X031169Y017214D01*
X031275Y017320D01*
X031275Y017469D01*
X031169Y017574D01*
X031020Y017574D01*
X030915Y017469D01*
X030915Y017377D01*
X030823Y017377D01*
X030718Y017272D01*
X030718Y017123D01*
X030823Y017017D01*
X030973Y017017D01*
X031078Y017123D01*
X031078Y017191D02*
X032116Y017191D01*
X032085Y017289D02*
X031244Y017289D01*
X031275Y017388D02*
X032055Y017388D01*
X032025Y017486D02*
X031257Y017486D01*
X030932Y017486D02*
X028454Y017486D01*
X028356Y017388D02*
X030915Y017388D01*
X030735Y017289D02*
X028257Y017289D01*
X028159Y017191D02*
X030718Y017191D01*
X030749Y017092D02*
X028060Y017092D01*
X027856Y017289D02*
X027102Y017289D01*
X027102Y017351D02*
X026996Y017456D01*
X026847Y017456D01*
X026742Y017351D01*
X026742Y017201D01*
X026847Y017096D01*
X026996Y017096D01*
X027102Y017201D01*
X027102Y017351D01*
X027065Y017388D02*
X027955Y017388D01*
X028053Y017486D02*
X018637Y017486D01*
X018637Y017547D02*
X018532Y017653D01*
X018383Y017653D01*
X018277Y017547D01*
X018277Y017398D01*
X018383Y017293D01*
X018532Y017293D01*
X018637Y017398D01*
X018637Y017547D01*
X018600Y017585D02*
X028152Y017585D01*
X028250Y017683D02*
X003741Y017683D01*
X003726Y017585D02*
X018314Y017585D01*
X018277Y017486D02*
X003711Y017486D01*
X003696Y017388D02*
X018288Y017388D01*
X018626Y017388D02*
X020873Y017388D01*
X020836Y017351D02*
X020836Y017201D01*
X020942Y017096D01*
X021091Y017096D01*
X021196Y017201D01*
X021196Y017351D01*
X021091Y017456D01*
X020942Y017456D01*
X020836Y017351D01*
X020836Y017289D02*
X003651Y017289D01*
X003695Y017380D02*
X003695Y017380D01*
X003604Y017191D02*
X005716Y017191D01*
X005679Y017154D02*
X005679Y017005D01*
X005784Y016899D01*
X005933Y016899D01*
X006039Y017005D01*
X006039Y017154D01*
X005933Y017259D01*
X005784Y017259D01*
X005679Y017154D01*
X005679Y017092D02*
X003556Y017092D01*
X003509Y016994D02*
X005690Y016994D01*
X006028Y016994D02*
X009824Y016994D01*
X009813Y017005D02*
X009918Y016899D01*
X010067Y016899D01*
X010173Y017005D01*
X010173Y017154D01*
X010067Y017259D01*
X009918Y017259D01*
X009813Y017154D01*
X009813Y017005D01*
X009813Y017092D02*
X006039Y017092D01*
X006002Y017191D02*
X009849Y017191D01*
X010136Y017191D02*
X019101Y017191D01*
X019064Y017154D02*
X019064Y017005D01*
X019170Y016899D01*
X019319Y016899D01*
X019424Y017005D01*
X019424Y017154D01*
X019319Y017259D01*
X019170Y017259D01*
X019064Y017154D01*
X019064Y017092D02*
X010173Y017092D01*
X010161Y016994D02*
X013786Y016994D01*
X013750Y016957D02*
X013750Y016808D01*
X013855Y016702D01*
X014004Y016702D01*
X014110Y016808D01*
X014110Y016957D01*
X014004Y017062D01*
X013855Y017062D01*
X013750Y016957D01*
X013750Y016895D02*
X003443Y016895D01*
X003482Y016937D02*
X003482Y016937D01*
X003351Y016797D02*
X013761Y016797D01*
X014098Y016797D02*
X027364Y016797D01*
X027462Y016895D02*
X014110Y016895D01*
X014073Y016994D02*
X019076Y016994D01*
X019413Y016994D02*
X025375Y016994D01*
X025364Y017005D02*
X025469Y016899D01*
X025618Y016899D01*
X025724Y017005D01*
X025724Y017154D01*
X025618Y017259D01*
X025469Y017259D01*
X025364Y017154D01*
X025364Y017005D01*
X025364Y017092D02*
X019424Y017092D01*
X019388Y017191D02*
X020847Y017191D01*
X021185Y017191D02*
X025401Y017191D01*
X025687Y017191D02*
X026753Y017191D01*
X026742Y017289D02*
X021196Y017289D01*
X021159Y017388D02*
X026779Y017388D01*
X027091Y017191D02*
X027758Y017191D01*
X027659Y017092D02*
X025724Y017092D01*
X025713Y016994D02*
X027561Y016994D01*
X027265Y016698D02*
X003260Y016698D01*
X003169Y016600D02*
X007487Y016600D01*
X007450Y016563D02*
X007556Y016669D01*
X007705Y016669D01*
X007810Y016563D01*
X007810Y016414D01*
X007705Y016309D01*
X007556Y016309D01*
X007450Y016414D01*
X007450Y016563D01*
X007450Y016501D02*
X003017Y016501D01*
X003147Y016577D02*
X003147Y016577D01*
X003147Y016577D01*
X002846Y016403D02*
X007462Y016403D01*
X007799Y016403D02*
X026970Y016403D01*
X027068Y016501D02*
X007810Y016501D01*
X007774Y016600D02*
X027167Y016600D01*
X026871Y016304D02*
X002605Y016304D01*
X002242Y016221D02*
X002242Y016221D01*
X002193Y016078D02*
X002044Y016078D01*
X001939Y015973D01*
X001939Y015823D01*
X002044Y015718D01*
X002193Y015718D01*
X002299Y015823D01*
X002299Y015973D01*
X002193Y016078D01*
X002263Y016009D02*
X004337Y016009D01*
X004301Y015973D02*
X004301Y015823D01*
X004406Y015718D01*
X004555Y015718D01*
X004661Y015823D01*
X004661Y015973D01*
X004555Y016078D01*
X004406Y016078D01*
X004301Y015973D01*
X004301Y015910D02*
X002299Y015910D01*
X002287Y015812D02*
X004313Y015812D01*
X004649Y015812D02*
X005518Y015812D01*
X005482Y015776D02*
X005482Y015627D01*
X005587Y015521D01*
X005736Y015521D01*
X005842Y015627D01*
X005842Y015776D01*
X005736Y015881D01*
X005587Y015881D01*
X005482Y015776D01*
X005482Y015713D02*
X000650Y015713D01*
X000650Y015615D02*
X005494Y015615D01*
X005830Y015615D02*
X009628Y015615D01*
X009616Y015627D02*
X009721Y015521D01*
X009870Y015521D01*
X009976Y015627D01*
X009976Y015776D01*
X009870Y015881D01*
X009721Y015881D01*
X009616Y015776D01*
X009616Y015627D01*
X009616Y015713D02*
X005842Y015713D01*
X005806Y015812D02*
X009651Y015812D01*
X009940Y015812D02*
X012187Y015812D01*
X012175Y015823D02*
X012280Y015718D01*
X012429Y015718D01*
X012535Y015823D01*
X012535Y015973D01*
X012429Y016078D01*
X012280Y016078D01*
X012175Y015973D01*
X012175Y015823D01*
X012175Y015910D02*
X004661Y015910D01*
X004625Y016009D02*
X012211Y016009D01*
X012499Y016009D02*
X024194Y016009D01*
X024183Y016020D02*
X024288Y015915D01*
X024437Y015915D01*
X024543Y016020D01*
X024543Y016169D01*
X024437Y016275D01*
X024288Y016275D01*
X024183Y016169D01*
X024183Y016020D01*
X024183Y016107D02*
X000650Y016107D01*
X000650Y016009D02*
X001974Y016009D01*
X001939Y015910D02*
X000650Y015910D01*
X000650Y015812D02*
X001950Y015812D01*
X001634Y016304D02*
X000650Y016304D01*
X000650Y016206D02*
X024219Y016206D01*
X024506Y016206D02*
X026773Y016206D01*
X026674Y016107D02*
X024543Y016107D01*
X024531Y016009D02*
X026576Y016009D01*
X026477Y015910D02*
X012535Y015910D01*
X012523Y015812D02*
X026379Y015812D01*
X026280Y015713D02*
X009976Y015713D01*
X009964Y015615D02*
X022053Y015615D01*
X022342Y015615D02*
X026182Y015615D01*
X026083Y015516D02*
X022377Y015516D01*
X022365Y015418D02*
X025985Y015418D01*
X025492Y014925D02*
X009976Y014925D01*
X009963Y014827D02*
X025394Y014827D01*
X025295Y014728D02*
X000650Y014728D01*
X000650Y014630D02*
X025197Y014630D01*
X025098Y014531D02*
X000650Y014531D01*
X000650Y014433D02*
X025000Y014433D01*
X024901Y014334D02*
X000650Y014334D01*
X000650Y014236D02*
X011816Y014236D01*
X011781Y014137D02*
X000650Y014137D01*
X000650Y014039D02*
X005516Y014039D01*
X005482Y014004D02*
X005482Y013855D01*
X005587Y013750D01*
X005736Y013750D01*
X005842Y013855D01*
X005842Y014004D01*
X005736Y014110D01*
X005587Y014110D01*
X005482Y014004D01*
X005482Y013940D02*
X000650Y013940D01*
X000650Y013842D02*
X001382Y013842D01*
X001348Y013743D02*
X000650Y013743D01*
X000650Y013645D02*
X001362Y013645D01*
X001674Y013842D02*
X005495Y013842D01*
X005828Y013842D02*
X014944Y013842D01*
X014931Y013940D02*
X005842Y013940D01*
X005807Y014039D02*
X011794Y014039D01*
X012106Y014236D02*
X024803Y014236D01*
X028553Y017585D02*
X031994Y017585D01*
X031983Y017683D02*
X028651Y017683D01*
X028750Y017782D02*
X031983Y017782D01*
X031983Y017880D02*
X028848Y017880D01*
X028947Y017979D02*
X031983Y017979D01*
X031983Y018077D02*
X029045Y018077D01*
X029144Y018176D02*
X032002Y018176D01*
X031983Y018112D02*
X031983Y018112D01*
X032033Y018274D02*
X029242Y018274D01*
X029341Y018373D02*
X032063Y018373D01*
X032094Y018471D02*
X029439Y018471D01*
X029538Y018570D02*
X032124Y018570D01*
X032186Y018668D02*
X029636Y018668D01*
X029735Y018767D02*
X032253Y018767D01*
X032321Y018865D02*
X029833Y018865D01*
X029932Y018964D02*
X032388Y018964D01*
X032497Y019062D02*
X030030Y019062D01*
X030129Y019161D02*
X032620Y019161D01*
X032744Y019259D02*
X030227Y019259D01*
X030326Y019358D02*
X032948Y019358D01*
X033199Y019456D02*
X030424Y019456D01*
X030523Y019555D02*
X035083Y019555D01*
X035083Y019653D02*
X030621Y019653D01*
X030720Y019752D02*
X035083Y019752D01*
X035083Y019850D02*
X030818Y019850D01*
X030917Y019949D02*
X033837Y019949D01*
X033828Y019957D02*
X033934Y019852D01*
X034083Y019852D01*
X034188Y019957D01*
X034188Y020106D01*
X034083Y020212D01*
X033934Y020212D01*
X033828Y020106D01*
X033828Y019957D01*
X033828Y020047D02*
X031015Y020047D01*
X031114Y020146D02*
X033867Y020146D01*
X034149Y020146D02*
X035083Y020146D01*
X035083Y020244D02*
X031156Y020244D01*
X031156Y020343D02*
X035083Y020343D01*
X035083Y020441D02*
X031156Y020441D01*
X031156Y020540D02*
X035083Y020540D01*
X035083Y020638D02*
X031156Y020638D01*
X031156Y020737D02*
X035083Y020737D01*
X035083Y020835D02*
X031156Y020835D01*
X031156Y020934D02*
X035083Y020934D01*
X035083Y021032D02*
X031156Y021032D01*
X031156Y021131D02*
X035083Y021131D01*
X035083Y021229D02*
X031156Y021229D01*
X031156Y021328D02*
X035083Y021328D01*
X035083Y021426D02*
X031156Y021426D01*
X031156Y021525D02*
X035083Y021525D01*
X035083Y021623D02*
X031156Y021623D01*
X030916Y021623D02*
X000650Y021623D01*
X000650Y021525D02*
X014380Y021525D01*
X014340Y021484D02*
X014446Y021590D01*
X014595Y021590D01*
X014700Y021484D01*
X014700Y021335D01*
X014595Y021230D01*
X014446Y021230D01*
X014340Y021335D01*
X014340Y021484D01*
X014340Y021426D02*
X000650Y021426D01*
X000650Y021328D02*
X014348Y021328D01*
X014692Y021328D02*
X023632Y021328D01*
X023592Y021288D02*
X023592Y021138D01*
X023697Y021033D01*
X023847Y021033D01*
X023952Y021138D01*
X023952Y021288D01*
X023847Y021393D01*
X023697Y021393D01*
X023592Y021288D01*
X023592Y021229D02*
X000650Y021229D01*
X000650Y021131D02*
X009065Y021131D01*
X009025Y021091D02*
X009131Y021196D01*
X009280Y021196D01*
X009385Y021091D01*
X009385Y020942D01*
X009280Y020836D01*
X009131Y020836D01*
X009025Y020942D01*
X009025Y021091D01*
X009025Y021032D02*
X000650Y021032D01*
X000650Y020934D02*
X009033Y020934D01*
X009377Y020934D02*
X012018Y020934D01*
X011978Y020894D02*
X011978Y020745D01*
X012083Y020639D01*
X012232Y020639D01*
X012338Y020745D01*
X012338Y020894D01*
X012232Y020999D01*
X012083Y020999D01*
X011978Y020894D01*
X011978Y020835D02*
X000650Y020835D01*
X000650Y020737D02*
X011986Y020737D01*
X012330Y020737D02*
X012773Y020737D01*
X012765Y020745D02*
X012871Y020639D01*
X013020Y020639D01*
X013125Y020745D01*
X013125Y020894D01*
X013020Y020999D01*
X012871Y020999D01*
X012765Y020894D01*
X012765Y020745D01*
X012765Y020835D02*
X012338Y020835D01*
X012298Y020934D02*
X012805Y020934D01*
X013086Y020934D02*
X013986Y020934D01*
X013946Y020894D02*
X013946Y020745D01*
X014052Y020639D01*
X014201Y020639D01*
X014306Y020745D01*
X014306Y020894D01*
X014201Y020999D01*
X014052Y020999D01*
X013946Y020894D01*
X013946Y020835D02*
X013125Y020835D01*
X013117Y020737D02*
X013955Y020737D01*
X014298Y020737D02*
X023207Y020737D01*
X023198Y020745D02*
X023304Y020639D01*
X023453Y020639D01*
X023558Y020745D01*
X023558Y020894D01*
X023453Y020999D01*
X023304Y020999D01*
X023198Y020894D01*
X023198Y020745D01*
X023198Y020835D02*
X014306Y020835D01*
X014267Y020934D02*
X016513Y020934D01*
X016505Y020942D02*
X016611Y020836D01*
X016760Y020836D01*
X016865Y020942D01*
X016865Y021091D01*
X016760Y021196D01*
X016611Y021196D01*
X016505Y021091D01*
X016505Y020942D01*
X016505Y021032D02*
X009385Y021032D01*
X009345Y021131D02*
X016545Y021131D01*
X016826Y021131D02*
X021467Y021131D01*
X021427Y021091D02*
X021427Y020942D01*
X021532Y020836D01*
X021681Y020836D01*
X021787Y020942D01*
X021787Y021091D01*
X021681Y021196D01*
X021532Y021196D01*
X021427Y021091D01*
X021427Y021032D02*
X016865Y021032D01*
X016857Y020934D02*
X021435Y020934D01*
X021779Y020934D02*
X023238Y020934D01*
X023519Y020934D02*
X030916Y020934D01*
X030916Y021032D02*
X021787Y021032D01*
X021747Y021131D02*
X023600Y021131D01*
X023558Y020835D02*
X030916Y020835D01*
X030916Y020737D02*
X023550Y020737D01*
X023944Y021131D02*
X024978Y021131D01*
X024970Y021138D02*
X025075Y021033D01*
X025225Y021033D01*
X025330Y021138D01*
X025330Y021288D01*
X025225Y021393D01*
X025075Y021393D01*
X024970Y021288D01*
X024970Y021138D01*
X024970Y021229D02*
X023952Y021229D01*
X023912Y021328D02*
X025010Y021328D01*
X025290Y021328D02*
X029144Y021328D01*
X029104Y021288D02*
X029104Y021138D01*
X029209Y021033D01*
X029358Y021033D01*
X029464Y021138D01*
X029464Y021288D01*
X029358Y021393D01*
X029209Y021393D01*
X029104Y021288D01*
X029104Y021229D02*
X025330Y021229D01*
X025322Y021131D02*
X029112Y021131D01*
X029456Y021131D02*
X030916Y021131D01*
X030916Y021229D02*
X029464Y021229D01*
X029424Y021328D02*
X030916Y021328D01*
X030916Y021426D02*
X014700Y021426D01*
X014660Y021525D02*
X030916Y021525D01*
X030916Y020638D02*
X000650Y020638D01*
X000650Y020540D02*
X003946Y020540D01*
X003907Y020500D02*
X003907Y020351D01*
X004012Y020246D01*
X004162Y020246D01*
X004267Y020351D01*
X004267Y020500D01*
X004162Y020606D01*
X004012Y020606D01*
X003907Y020500D01*
X003907Y020441D02*
X000650Y020441D01*
X000650Y020343D02*
X003915Y020343D01*
X004259Y020343D02*
X006868Y020343D01*
X006860Y020351D02*
X006965Y020246D01*
X007114Y020246D01*
X007220Y020351D01*
X007220Y020500D01*
X007114Y020606D01*
X006965Y020606D01*
X006860Y020500D01*
X006860Y020351D01*
X006860Y020441D02*
X004267Y020441D01*
X004228Y020540D02*
X006899Y020540D01*
X007180Y020540D02*
X025403Y020540D01*
X025364Y020500D02*
X025364Y020351D01*
X025469Y020246D01*
X025618Y020246D01*
X025724Y020351D01*
X025724Y020500D01*
X025618Y020606D01*
X025469Y020606D01*
X025364Y020500D01*
X025364Y020441D02*
X007220Y020441D01*
X007211Y020343D02*
X025372Y020343D01*
X025715Y020343D02*
X030910Y020343D01*
X030916Y020441D02*
X025724Y020441D01*
X025684Y020540D02*
X030916Y020540D01*
X030811Y020244D02*
X000650Y020244D01*
X000650Y020146D02*
X002962Y020146D01*
X002923Y020106D02*
X002923Y019957D01*
X003028Y019852D01*
X003177Y019852D01*
X003283Y019957D01*
X003283Y020106D01*
X003177Y020212D01*
X003028Y020212D01*
X002923Y020106D01*
X002923Y020047D02*
X000650Y020047D01*
X000650Y019949D02*
X000796Y019949D01*
X000757Y019910D02*
X000863Y020015D01*
X001012Y020015D01*
X001117Y019910D01*
X001117Y019760D01*
X001012Y019655D01*
X000863Y019655D01*
X000757Y019760D01*
X000757Y019910D01*
X000757Y019850D02*
X000650Y019850D01*
X000650Y019752D02*
X000766Y019752D01*
X000650Y019653D02*
X025561Y019653D01*
X025561Y019713D02*
X025561Y019564D01*
X025666Y019458D01*
X025815Y019458D01*
X025921Y019564D01*
X025921Y019713D01*
X025815Y019818D01*
X025666Y019818D01*
X025561Y019713D01*
X025599Y019752D02*
X016069Y019752D01*
X016078Y019760D02*
X015973Y019655D01*
X015823Y019655D01*
X015718Y019760D01*
X015718Y019910D01*
X015823Y020015D01*
X015973Y020015D01*
X016078Y019910D01*
X016078Y019760D01*
X016078Y019850D02*
X030417Y019850D01*
X030319Y019752D02*
X025882Y019752D01*
X025921Y019653D02*
X030220Y019653D01*
X030122Y019555D02*
X025911Y019555D01*
X025570Y019555D02*
X019780Y019555D01*
X019818Y019516D02*
X019713Y019621D01*
X019564Y019621D01*
X019458Y019516D01*
X019458Y019367D01*
X019564Y019261D01*
X019713Y019261D01*
X019818Y019367D01*
X019818Y019516D01*
X019818Y019456D02*
X030023Y019456D01*
X029925Y019358D02*
X019809Y019358D01*
X019467Y019358D02*
X017614Y019358D01*
X017653Y019319D02*
X017547Y019424D01*
X017398Y019424D01*
X017293Y019319D01*
X017293Y019170D01*
X017398Y019064D01*
X017547Y019064D01*
X017653Y019170D01*
X017653Y019319D01*
X017653Y019259D02*
X029826Y019259D01*
X029728Y019161D02*
X027457Y019161D01*
X027495Y019122D02*
X027390Y019228D01*
X027241Y019228D01*
X027135Y019122D01*
X027135Y018973D01*
X027241Y018868D01*
X027390Y018868D01*
X027495Y018973D01*
X027495Y019122D01*
X027495Y019062D02*
X029629Y019062D01*
X029531Y018964D02*
X027486Y018964D01*
X027145Y018964D02*
X021158Y018964D01*
X021196Y018925D02*
X021091Y019031D01*
X020942Y019031D01*
X020836Y018925D01*
X020836Y018776D01*
X020942Y018671D01*
X021091Y018671D01*
X021196Y018776D01*
X021196Y018925D01*
X021196Y018865D02*
X029432Y018865D01*
X029334Y018767D02*
X021186Y018767D01*
X020846Y018767D02*
X020202Y018767D01*
X020212Y018776D02*
X020106Y018671D01*
X019957Y018671D01*
X019852Y018776D01*
X019852Y018925D01*
X019957Y019031D01*
X020106Y019031D01*
X020212Y018925D01*
X020212Y018776D01*
X020212Y018865D02*
X020836Y018865D01*
X020874Y018964D02*
X020174Y018964D01*
X019890Y018964D02*
X016659Y018964D01*
X016669Y018973D02*
X016563Y018868D01*
X016414Y018868D01*
X016309Y018973D01*
X016309Y019122D01*
X016414Y019228D01*
X016563Y019228D01*
X016669Y019122D01*
X016669Y018973D01*
X016669Y019062D02*
X027135Y019062D01*
X027174Y019161D02*
X017643Y019161D01*
X017302Y019161D02*
X016630Y019161D01*
X016347Y019161D02*
X015084Y019161D01*
X015094Y019170D02*
X014988Y019064D01*
X014839Y019064D01*
X014734Y019170D01*
X014734Y019319D01*
X014839Y019424D01*
X014988Y019424D01*
X015094Y019319D01*
X015094Y019170D01*
X015094Y019259D02*
X017293Y019259D01*
X017331Y019358D02*
X015055Y019358D01*
X014772Y019358D02*
X007772Y019358D01*
X007810Y019319D02*
X007705Y019424D01*
X007556Y019424D01*
X007450Y019319D01*
X007450Y019170D01*
X007556Y019064D01*
X007705Y019064D01*
X007810Y019170D01*
X007810Y019319D01*
X007810Y019259D02*
X014734Y019259D01*
X014743Y019161D02*
X010331Y019161D01*
X010369Y019122D02*
X010264Y019228D01*
X010115Y019228D01*
X010009Y019122D01*
X010009Y018973D01*
X010115Y018868D01*
X010264Y018868D01*
X010369Y018973D01*
X010369Y019122D01*
X010369Y019062D02*
X016309Y019062D01*
X016318Y018964D02*
X010360Y018964D01*
X010019Y018964D02*
X006985Y018964D01*
X007023Y018925D02*
X006917Y019031D01*
X006768Y019031D01*
X006663Y018925D01*
X006663Y018776D01*
X006768Y018671D01*
X006917Y018671D01*
X007023Y018776D01*
X007023Y018925D01*
X007023Y018865D02*
X019852Y018865D01*
X019862Y018767D02*
X018796Y018767D01*
X018834Y018728D02*
X018728Y018834D01*
X018579Y018834D01*
X018474Y018728D01*
X018474Y018579D01*
X018579Y018474D01*
X018728Y018474D01*
X018834Y018579D01*
X018834Y018728D01*
X018834Y018668D02*
X029235Y018668D01*
X029137Y018570D02*
X018824Y018570D01*
X018484Y018570D02*
X003591Y018570D01*
X003543Y018668D02*
X018474Y018668D01*
X018512Y018767D02*
X007013Y018767D01*
X006673Y018767D02*
X003496Y018767D01*
X003482Y018796D02*
X003482Y018796D01*
X003418Y018865D02*
X006663Y018865D01*
X006701Y018964D02*
X003326Y018964D01*
X003235Y019062D02*
X010009Y019062D01*
X010048Y019161D02*
X007801Y019161D01*
X007460Y019161D02*
X003140Y019161D01*
X003147Y019157D02*
X003147Y019157D01*
X002970Y019259D02*
X007450Y019259D01*
X007489Y019358D02*
X002799Y019358D01*
X002721Y019402D02*
X002721Y019402D01*
X002487Y019456D02*
X019458Y019456D01*
X019497Y019555D02*
X000650Y019555D01*
X000650Y019456D02*
X001703Y019456D01*
X001751Y019475D02*
X001751Y019475D01*
X001452Y019358D02*
X000650Y019358D01*
X000650Y019259D02*
X000743Y019259D01*
X000674Y019161D02*
X000650Y019161D01*
X000650Y019062D02*
X000651Y019062D01*
X000650Y018964D02*
X000662Y018964D01*
X000650Y018865D02*
X000714Y018865D01*
X000757Y018767D02*
X000650Y018767D01*
X000650Y018668D02*
X000690Y018668D01*
X001132Y019259D02*
X001248Y019259D01*
X001108Y019752D02*
X015727Y019752D01*
X015718Y019850D02*
X001117Y019850D01*
X001078Y019949D02*
X002932Y019949D01*
X003274Y019949D02*
X008443Y019949D01*
X008435Y019957D02*
X008540Y019852D01*
X008689Y019852D01*
X008795Y019957D01*
X008795Y020106D01*
X008689Y020212D01*
X008540Y020212D01*
X008435Y020106D01*
X008435Y019957D01*
X008435Y020047D02*
X003283Y020047D01*
X003244Y020146D02*
X008474Y020146D01*
X008755Y020146D02*
X030713Y020146D01*
X030614Y020047D02*
X008795Y020047D01*
X008786Y019949D02*
X015757Y019949D01*
X016039Y019949D02*
X030516Y019949D01*
X029038Y018471D02*
X003638Y018471D01*
X003686Y018373D02*
X021464Y018373D01*
X021427Y018335D02*
X021532Y018440D01*
X021681Y018440D01*
X021787Y018335D01*
X021787Y018186D01*
X021681Y018080D01*
X021532Y018080D01*
X021427Y018186D01*
X021427Y018335D01*
X021427Y018274D02*
X003707Y018274D01*
X003695Y018353D02*
X003695Y018353D01*
X003722Y018176D02*
X009063Y018176D01*
X009025Y018138D02*
X009131Y018243D01*
X009280Y018243D01*
X009385Y018138D01*
X009385Y017989D01*
X009280Y017883D01*
X009131Y017883D01*
X009025Y017989D01*
X009025Y018138D01*
X009025Y018077D02*
X003737Y018077D01*
X003752Y017979D02*
X004141Y017979D01*
X004104Y017941D02*
X004104Y017792D01*
X004209Y017687D01*
X004358Y017687D01*
X004464Y017792D01*
X004464Y017941D01*
X004358Y018047D01*
X004209Y018047D01*
X004104Y017941D01*
X004104Y017880D02*
X003766Y017880D01*
X003756Y017782D02*
X004114Y017782D01*
X004453Y017782D02*
X005689Y017782D01*
X005679Y017792D02*
X005784Y017687D01*
X005933Y017687D01*
X006039Y017792D01*
X006039Y017941D01*
X005933Y018047D01*
X005784Y018047D01*
X005679Y017941D01*
X005679Y017792D01*
X005679Y017880D02*
X004464Y017880D01*
X004426Y017979D02*
X005716Y017979D01*
X006001Y017979D02*
X008078Y017979D01*
X008041Y017941D02*
X008041Y017792D01*
X008146Y017687D01*
X008295Y017687D01*
X008401Y017792D01*
X008401Y017941D01*
X008295Y018047D01*
X008146Y018047D01*
X008041Y017941D01*
X008041Y017880D02*
X006039Y017880D01*
X006028Y017782D02*
X008051Y017782D01*
X008390Y017782D02*
X028349Y017782D01*
X028447Y017880D02*
X008401Y017880D01*
X008363Y017979D02*
X009035Y017979D01*
X009375Y017979D02*
X015531Y017979D01*
X015521Y017989D02*
X015627Y017883D01*
X015776Y017883D01*
X015881Y017989D01*
X015881Y018138D01*
X015776Y018243D01*
X015627Y018243D01*
X015521Y018138D01*
X015521Y017989D01*
X015521Y018077D02*
X009385Y018077D01*
X009348Y018176D02*
X015559Y018176D01*
X015844Y018176D02*
X021437Y018176D01*
X021777Y018176D02*
X025204Y018176D01*
X025167Y018138D02*
X025167Y017989D01*
X025272Y017883D01*
X025421Y017883D01*
X025527Y017989D01*
X025527Y018138D01*
X025421Y018243D01*
X025272Y018243D01*
X025167Y018138D01*
X025167Y018077D02*
X015881Y018077D01*
X015871Y017979D02*
X025177Y017979D01*
X025517Y017979D02*
X028546Y017979D01*
X028644Y018077D02*
X025527Y018077D01*
X025489Y018176D02*
X028743Y018176D01*
X028841Y018274D02*
X021787Y018274D01*
X021749Y018373D02*
X028940Y018373D01*
X033247Y019475D02*
X033247Y019475D01*
X033983Y019456D02*
X035083Y019456D01*
X035083Y019358D02*
X034295Y019358D01*
X034217Y019402D02*
X034217Y019402D01*
X034466Y019259D02*
X034601Y019259D01*
X034990Y019259D02*
X035083Y019259D01*
X035083Y019161D02*
X035059Y019161D01*
X035083Y019062D02*
X035083Y019062D01*
X035071Y018964D02*
X035083Y018964D01*
X035083Y018865D02*
X035019Y018865D01*
X034978Y018796D02*
X034978Y018796D01*
X034992Y018767D02*
X035083Y018767D01*
X035083Y018668D02*
X035039Y018668D01*
X035083Y019949D02*
X034179Y019949D01*
X034188Y020047D02*
X035083Y020047D01*
X016540Y013645D02*
X014666Y013645D01*
X014700Y013546D02*
X016505Y013546D01*
X016519Y013448D02*
X014686Y013448D01*
X014354Y013448D02*
X009942Y013448D01*
X010557Y012185D02*
X010797Y011945D01*
X010797Y012036D01*
X010902Y012141D01*
X011051Y012141D01*
X011157Y012036D01*
X011157Y011886D01*
X011051Y011781D01*
X010961Y011781D01*
X011978Y010764D01*
X011978Y010854D01*
X012083Y010960D01*
X012232Y010960D01*
X012338Y010854D01*
X012338Y010705D01*
X012232Y010600D01*
X012142Y010600D01*
X012343Y010399D01*
X012343Y010676D01*
X012419Y010752D01*
X012419Y010752D01*
X013566Y011899D01*
X013461Y011899D01*
X013356Y012005D01*
X013356Y012154D01*
X013387Y012185D01*
X010557Y012185D01*
X010575Y012167D02*
X013369Y012167D01*
X013356Y012069D02*
X011124Y012069D01*
X011157Y011970D02*
X013390Y011970D01*
X013538Y011872D02*
X011911Y011872D01*
X011944Y011839D02*
X011839Y011944D01*
X011690Y011944D01*
X011584Y011839D01*
X011584Y011690D01*
X011690Y011584D01*
X011839Y011584D01*
X011944Y011690D01*
X011944Y011839D01*
X011944Y011773D02*
X013440Y011773D01*
X013341Y011675D02*
X012699Y011675D01*
X012732Y011642D02*
X012626Y011747D01*
X012477Y011747D01*
X012372Y011642D01*
X012372Y011493D01*
X012477Y011387D01*
X012626Y011387D01*
X012732Y011493D01*
X012732Y011642D01*
X012732Y011576D02*
X013243Y011576D01*
X013144Y011478D02*
X012716Y011478D01*
X012947Y011281D02*
X012322Y011281D01*
X012338Y011296D02*
X012232Y011190D01*
X012083Y011190D01*
X011978Y011296D01*
X011978Y011445D01*
X012083Y011550D01*
X012232Y011550D01*
X012338Y011445D01*
X012338Y011296D01*
X012338Y011379D02*
X013046Y011379D01*
X012849Y011182D02*
X011560Y011182D01*
X011462Y011281D02*
X011993Y011281D01*
X011978Y011379D02*
X011363Y011379D01*
X011265Y011478D02*
X012010Y011478D01*
X011929Y011675D02*
X012404Y011675D01*
X012372Y011576D02*
X011166Y011576D01*
X011068Y011675D02*
X011599Y011675D01*
X011584Y011773D02*
X010969Y011773D01*
X011142Y011872D02*
X011617Y011872D01*
X012305Y011478D02*
X012387Y011478D01*
X012750Y011084D02*
X011659Y011084D01*
X011757Y010985D02*
X012652Y010985D01*
X012553Y010887D02*
X012306Y010887D01*
X012338Y010788D02*
X012455Y010788D01*
X012356Y010690D02*
X012322Y010690D01*
X012343Y010591D02*
X012151Y010591D01*
X012250Y010493D02*
X012343Y010493D01*
X011978Y010788D02*
X011954Y010788D01*
X012010Y010887D02*
X011856Y010887D01*
X013373Y010394D02*
X015234Y010394D01*
X015135Y010493D02*
X013472Y010493D01*
X013570Y010591D02*
X015037Y010591D01*
X014938Y010690D02*
X013669Y010690D01*
X013767Y010788D02*
X014840Y010788D01*
X014741Y010887D02*
X013866Y010887D01*
X013850Y011186D02*
X014141Y011477D01*
X014978Y011477D01*
X015259Y011196D01*
X015154Y011196D01*
X015049Y011091D01*
X015049Y010947D01*
X014886Y011109D01*
X014810Y011186D01*
X013850Y011186D01*
X013945Y011281D02*
X015174Y011281D01*
X015140Y011182D02*
X014814Y011182D01*
X014912Y011084D02*
X015049Y011084D01*
X015049Y010985D02*
X015011Y010985D01*
X015076Y011379D02*
X014043Y011379D01*
X014869Y009606D02*
X014967Y009606D01*
X014827Y009508D02*
X015136Y009508D01*
X015177Y009409D02*
X014897Y009409D01*
X014897Y009311D02*
X015177Y009311D01*
X015177Y009212D02*
X014821Y009212D01*
X014613Y009212D02*
X014475Y009212D01*
X014376Y009114D02*
X015177Y009114D01*
X010797Y011970D02*
X010772Y011970D01*
X010830Y012069D02*
X010674Y012069D01*
X009234Y010394D02*
X007641Y010394D01*
X007626Y010409D02*
X007477Y010409D01*
X007372Y010303D01*
X007372Y010154D01*
X007477Y010049D01*
X007626Y010049D01*
X007732Y010154D01*
X007732Y010303D01*
X007626Y010409D01*
X007732Y010296D02*
X009143Y010296D01*
X009143Y010197D02*
X007732Y010197D01*
X007676Y010099D02*
X009199Y010099D01*
X007462Y010394D02*
X005869Y010394D01*
X005854Y010409D02*
X005705Y010409D01*
X005600Y010303D01*
X005600Y010154D01*
X005705Y010049D01*
X005854Y010049D01*
X005960Y010154D01*
X005960Y010303D01*
X005854Y010409D01*
X005960Y010296D02*
X007372Y010296D01*
X007372Y010197D02*
X005960Y010197D01*
X005904Y010099D02*
X007427Y010099D01*
X007450Y009015D02*
X000650Y009015D01*
X000650Y008917D02*
X000788Y008917D01*
X000757Y008818D02*
X000650Y008818D01*
X000650Y008720D02*
X000775Y008720D01*
X000650Y008424D02*
X009154Y008424D01*
X009143Y008326D02*
X008568Y008326D01*
X008598Y008295D02*
X008492Y008401D01*
X008343Y008401D01*
X008238Y008295D01*
X008238Y008146D01*
X008343Y008041D01*
X008492Y008041D01*
X008598Y008146D01*
X008598Y008295D01*
X008598Y008227D02*
X009181Y008227D01*
X009143Y008129D02*
X008580Y008129D01*
X008256Y008129D02*
X006415Y008129D01*
X006432Y008146D02*
X006327Y008041D01*
X006178Y008041D01*
X006072Y008146D01*
X006072Y008295D01*
X006178Y008401D01*
X006327Y008401D01*
X006432Y008295D01*
X006432Y008146D01*
X006432Y008227D02*
X008238Y008227D01*
X008268Y008326D02*
X006402Y008326D01*
X006102Y008326D02*
X000650Y008326D01*
X000650Y008227D02*
X006072Y008227D01*
X006090Y008129D02*
X000650Y008129D01*
X000650Y008030D02*
X009143Y008030D01*
X009143Y007932D02*
X000650Y007932D01*
X000650Y007833D02*
X009143Y007833D01*
X009201Y007735D02*
X007190Y007735D01*
X006889Y007735D02*
X000650Y007735D01*
X000650Y007636D02*
X006860Y007636D01*
X006878Y007538D02*
X000650Y007538D01*
X000650Y007144D02*
X006480Y007144D01*
X006578Y007045D02*
X000650Y007045D01*
X000650Y006947D02*
X006677Y006947D01*
X006775Y006848D02*
X000650Y006848D01*
X000650Y006750D02*
X006874Y006750D01*
X007465Y006159D02*
X001089Y006159D01*
X001117Y006060D02*
X007563Y006060D01*
X007570Y005962D02*
X001098Y005962D01*
X001751Y003727D02*
X001751Y003727D01*
X002242Y003764D02*
X002242Y003764D01*
X001087Y008917D02*
X007468Y008917D01*
X005656Y010099D02*
X004629Y010099D01*
X004332Y010099D02*
X004133Y010099D01*
X004083Y010049D02*
X004188Y010154D01*
X004188Y010303D01*
X004083Y010409D01*
X003934Y010409D01*
X003828Y010303D01*
X003828Y010154D01*
X003934Y010049D01*
X004083Y010049D01*
X004188Y010197D02*
X005600Y010197D01*
X005600Y010296D02*
X004188Y010296D01*
X004098Y010394D02*
X005691Y010394D01*
X004301Y010000D02*
X000650Y010000D01*
X000650Y009902D02*
X004317Y009902D01*
X003884Y010099D02*
X000650Y010099D01*
X000650Y010197D02*
X003828Y010197D01*
X003828Y010296D02*
X000650Y010296D01*
X000650Y010394D02*
X003919Y010394D01*
X001758Y010493D02*
X000650Y010493D01*
X000650Y010591D02*
X001742Y010591D01*
X002425Y012463D02*
X000650Y012463D01*
X000650Y012561D02*
X002411Y012561D01*
X002444Y012660D02*
X000650Y012660D01*
X000650Y012758D02*
X004261Y012758D01*
X002740Y013448D02*
X000650Y013448D01*
X000650Y013546D02*
X002726Y013546D01*
X001383Y016403D02*
X000650Y016403D01*
X000650Y016501D02*
X001214Y016501D01*
X001294Y016438D02*
X001294Y016438D01*
X001090Y016600D02*
X000650Y016600D01*
X000650Y016698D02*
X000967Y016698D01*
X000909Y016744D02*
X000909Y016744D01*
X000909Y016744D01*
X000873Y016797D02*
X000650Y016797D01*
X000650Y016895D02*
X000806Y016895D01*
X000739Y016994D02*
X000650Y016994D01*
X000650Y017092D02*
X000672Y017092D01*
X002242Y019512D02*
X002242Y019512D01*
X025440Y004878D02*
X025450Y004878D01*
X025637Y004878D02*
X025647Y004878D01*
X025167Y004681D02*
X017463Y004681D01*
X019341Y004484D02*
X019541Y004484D01*
X019443Y004386D02*
X019440Y004386D01*
X019084Y001628D02*
X019799Y001628D01*
X021446Y001628D02*
X022161Y001628D01*
X025928Y003696D02*
X025946Y003696D01*
X025946Y003795D02*
X025928Y003795D01*
X025928Y003893D02*
X025946Y003893D01*
X025946Y003992D02*
X025928Y003992D01*
X025928Y004090D02*
X025946Y004090D01*
X025946Y004189D02*
X025928Y004189D01*
X026206Y003598D02*
X026380Y003598D01*
X027868Y003795D02*
X035083Y003795D01*
X035083Y003893D02*
X027966Y003893D01*
X027968Y003992D02*
X035083Y003992D01*
X035083Y004090D02*
X027921Y004090D01*
X029858Y005666D02*
X030088Y005666D01*
X030156Y005765D02*
X029897Y005765D01*
X027939Y005962D02*
X035083Y005962D01*
X035083Y006060D02*
X027771Y006060D01*
X030351Y007932D02*
X035083Y007932D01*
X035083Y008030D02*
X030448Y008030D01*
X030448Y008129D02*
X035083Y008129D01*
X035083Y008227D02*
X030398Y008227D01*
X034582Y007242D02*
X035083Y007242D01*
X035083Y007144D02*
X034563Y007144D01*
X035083Y003696D02*
X034035Y003696D01*
X034217Y003654D02*
X034217Y003654D01*
X034316Y003598D02*
X035083Y003598D01*
X035083Y003499D02*
X034487Y003499D01*
X034643Y003409D02*
X034643Y003409D01*
X034651Y003401D02*
X035083Y003401D01*
X035083Y003302D02*
X034742Y003302D01*
X034834Y003204D02*
X035083Y003204D01*
X035083Y003105D02*
X034925Y003105D01*
X034978Y003048D02*
X034978Y003048D01*
X034998Y003007D02*
X035083Y003007D01*
X035083Y002908D02*
X035045Y002908D01*
X032405Y000996D02*
X032405Y000996D01*
X032405Y000996D01*
D13*
X031784Y001115D03*
X031390Y002335D03*
X031784Y003044D03*
X031075Y004500D03*
X030268Y005622D03*
X029717Y005780D03*
X029225Y005445D03*
X028418Y005229D03*
X027788Y004835D03*
X027788Y004638D03*
X026981Y004382D03*
X027788Y003969D03*
X025741Y004717D03*
X025544Y004717D03*
X025347Y004717D03*
X025426Y004244D03*
X025662Y004244D03*
X024363Y004284D03*
X023969Y004284D03*
X023949Y004678D03*
X023181Y004284D03*
X022788Y004284D03*
X023044Y004914D03*
X022335Y005386D03*
X022571Y005622D03*
X023044Y006095D03*
X023595Y006646D03*
X024500Y006410D03*
X024028Y005937D03*
X024796Y005485D03*
X025130Y005839D03*
X026056Y006764D03*
X025563Y007473D03*
X025288Y007197D03*
X024619Y007670D03*
X025209Y008260D03*
X025485Y008536D03*
X025642Y009126D03*
X025367Y009678D03*
X025839Y010150D03*
X025367Y010347D03*
X025367Y010937D03*
X024481Y010465D03*
X023575Y010780D03*
X022788Y011174D03*
X022296Y010504D03*
X021607Y009993D03*
X020819Y010189D03*
X019835Y009815D03*
X019796Y009520D03*
X019953Y009363D03*
X019402Y008890D03*
X019559Y008733D03*
X019835Y008575D03*
X019953Y008339D03*
X020189Y008221D03*
X020386Y008339D03*
X020386Y008103D03*
X020189Y007985D03*
X020386Y007867D03*
X020622Y007532D03*
X020209Y007040D03*
X019520Y007000D03*
X019402Y007197D03*
X019619Y007630D03*
X019166Y007709D03*
X018890Y007709D03*
X018615Y007709D03*
X018339Y007709D03*
X017906Y007276D03*
X018103Y007158D03*
X017591Y006882D03*
X017670Y006685D03*
X018122Y006056D03*
X018398Y006056D03*
X018949Y005504D03*
X019559Y005662D03*
X019717Y005504D03*
X019953Y005583D03*
X019796Y005741D03*
X019638Y005898D03*
X019422Y006646D03*
X020957Y006134D03*
X021863Y006134D03*
X022335Y006607D03*
X022571Y006843D03*
X023595Y007867D03*
X024304Y008615D03*
X024500Y009087D03*
X024481Y009717D03*
X023752Y009717D03*
X022985Y009796D03*
X022788Y009205D03*
X022650Y008536D03*
X022020Y009087D03*
X021272Y009048D03*
X020878Y008575D03*
X019244Y009087D03*
X019166Y009559D03*
X019126Y009835D03*
X018733Y009835D03*
X017945Y009520D03*
X017552Y009441D03*
X017158Y009717D03*
X017552Y009953D03*
X017158Y010347D03*
X016764Y010307D03*
X016370Y009914D03*
X015977Y009481D03*
X015741Y009205D03*
X015977Y008890D03*
X016370Y008457D03*
X016764Y008457D03*
X017158Y007945D03*
X017552Y008339D03*
X017945Y008811D03*
X017552Y009008D03*
X017158Y009048D03*
X016764Y009126D03*
X016370Y009323D03*
X015426Y010032D03*
X015268Y009874D03*
X015111Y009717D03*
X014559Y009914D03*
X015111Y010268D03*
X014835Y010465D03*
X015544Y010662D03*
X015741Y010859D03*
X015347Y010859D03*
X015229Y011016D03*
X015071Y011252D03*
X014835Y011410D03*
X014441Y011331D03*
X014008Y010780D03*
X014048Y010307D03*
X013752Y009343D03*
X013477Y009067D03*
X013280Y008831D03*
X013615Y008103D03*
X013870Y008280D03*
X014126Y008575D03*
X014284Y008733D03*
X014481Y008654D03*
X014835Y008713D03*
X015111Y008674D03*
X014756Y008260D03*
X014205Y007709D03*
X013733Y007552D03*
X014107Y006685D03*
X014264Y006449D03*
X014028Y006252D03*
X013870Y005622D03*
X014067Y005268D03*
X013260Y004717D03*
X013418Y004559D03*
X013654Y004638D03*
X013851Y004441D03*
X014048Y004599D03*
X014244Y004284D03*
X014441Y004441D03*
X014638Y004599D03*
X014835Y004441D03*
X015032Y004284D03*
X015327Y004402D03*
X015701Y004284D03*
X016095Y004284D03*
X016882Y004284D03*
X017276Y004284D03*
X017119Y004835D03*
X018063Y004284D03*
X018457Y004284D03*
X018556Y004599D03*
X019244Y004284D03*
X019638Y004284D03*
X020209Y004697D03*
X020426Y004284D03*
X020819Y004284D03*
X021607Y004284D03*
X022000Y004284D03*
X021666Y004717D03*
X020957Y005268D03*
X020642Y004953D03*
X020229Y002945D03*
X020780Y002807D03*
X021331Y002886D03*
X021804Y003044D03*
X022197Y002926D03*
X022985Y003044D03*
X023693Y002886D03*
X024166Y002807D03*
X024481Y002965D03*
X025544Y003024D03*
X025544Y002788D03*
X026351Y002059D03*
X025957Y001390D03*
X025544Y001449D03*
X025544Y001213D03*
X024835Y001469D03*
X024166Y001193D03*
X023496Y001430D03*
X022985Y001548D03*
X022433Y001469D03*
X021764Y001548D03*
X021174Y001469D03*
X020898Y001469D03*
X020150Y001449D03*
X019756Y001292D03*
X019126Y001469D03*
X018693Y001469D03*
X018044Y001331D03*
X017689Y001449D03*
X017276Y001449D03*
X016725Y001548D03*
X016115Y001567D03*
X016115Y001252D03*
X015563Y001567D03*
X015170Y001528D03*
X014835Y000937D03*
X014638Y000819D03*
X014835Y000701D03*
X014323Y000898D03*
X014205Y001134D03*
X014126Y001528D03*
X013733Y001528D03*
X013339Y001528D03*
X012945Y001528D03*
X012552Y001528D03*
X012158Y001528D03*
X011764Y001528D03*
X011331Y001449D03*
X010819Y001528D03*
X010583Y001528D03*
X010347Y001528D03*
X009894Y001469D03*
X009500Y001469D03*
X009126Y001134D03*
X009008Y000898D03*
X007768Y001331D03*
X006764Y001725D03*
X005603Y001922D03*
X005268Y001134D03*
X004225Y001331D03*
X004264Y002099D03*
X003792Y002532D03*
X004815Y002532D03*
X004855Y002847D03*
X006272Y003575D03*
X006764Y003615D03*
X006764Y003851D03*
X006764Y004087D03*
X007965Y003496D03*
X009441Y003654D03*
X010268Y002985D03*
X010583Y003024D03*
X010583Y002788D03*
X011056Y002945D03*
X011489Y002867D03*
X011961Y002788D03*
X012355Y002945D03*
X012748Y002788D03*
X013142Y003024D03*
X013536Y002867D03*
X013930Y003063D03*
X014323Y002906D03*
X014717Y002788D03*
X015229Y002807D03*
X015544Y002768D03*
X015898Y002768D03*
X016528Y002965D03*
X016961Y002807D03*
X017670Y002926D03*
X018575Y003004D03*
X019087Y002886D03*
X019363Y003024D03*
X017670Y005583D03*
X017040Y006016D03*
X016174Y005504D03*
X015898Y005583D03*
X015386Y005898D03*
X015465Y006095D03*
X015937Y006213D03*
X015406Y006607D03*
X015898Y007079D03*
X016410Y007040D03*
X016331Y007433D03*
X015859Y007906D03*
X015721Y007729D03*
X015465Y007473D03*
X017000Y007355D03*
X019028Y008181D03*
X018890Y008654D03*
X018339Y009166D03*
X018300Y010307D03*
X018536Y010504D03*
X018142Y010741D03*
X017985Y010583D03*
X017552Y011016D03*
X017374Y011272D03*
X017119Y011134D03*
X016902Y011311D03*
X017020Y011587D03*
X016902Y011784D03*
X016685Y012040D03*
X016489Y012119D03*
X015977Y011725D03*
X015741Y011882D03*
X015465Y011843D03*
X016213Y011410D03*
X016292Y011213D03*
X016489Y011056D03*
X016331Y010898D03*
X016174Y010741D03*
X014717Y009363D03*
X014520Y009166D03*
X012237Y008181D03*
X011882Y007709D03*
X012237Y007197D03*
X011685Y006764D03*
X011134Y006646D03*
X010977Y007119D03*
X010150Y007040D03*
X009756Y007394D03*
X009244Y007433D03*
X009087Y007040D03*
X008496Y007079D03*
X007965Y007237D03*
X007040Y007630D03*
X006252Y008221D03*
X006843Y008615D03*
X007630Y009008D03*
X007827Y009599D03*
X008418Y009205D03*
X009205Y009599D03*
X009323Y010229D03*
X009008Y010977D03*
X009619Y011016D03*
X010406Y011607D03*
X010977Y011961D03*
X011764Y011764D03*
X012158Y011370D03*
X012552Y011567D03*
X012768Y012079D03*
X013536Y012079D03*
X012158Y010780D03*
X010977Y011174D03*
X008221Y011961D03*
X007945Y013024D03*
X007453Y013693D03*
X006311Y014599D03*
X005662Y013930D03*
X004343Y013615D03*
X004441Y012788D03*
X005859Y011961D03*
X006292Y012315D03*
X005465Y010977D03*
X005780Y010229D03*
X004481Y009993D03*
X004008Y010229D03*
X003890Y011174D03*
X002906Y011961D03*
X002591Y012552D03*
X001863Y012433D03*
X001134Y012945D03*
X001528Y013733D03*
X002020Y014717D03*
X003241Y015544D03*
X002119Y015898D03*
X001233Y015701D03*
X004284Y014914D03*
X005662Y015701D03*
X006351Y016528D03*
X005859Y017079D03*
X005859Y017867D03*
X005130Y018418D03*
X004284Y017867D03*
X004619Y016725D03*
X004481Y015898D03*
X007630Y016489D03*
X008792Y016961D03*
X009993Y017079D03*
X010209Y018024D03*
X009205Y018063D03*
X008221Y017867D03*
X007217Y017985D03*
X006843Y018851D03*
X007630Y019244D03*
X008792Y019205D03*
X008615Y020032D03*
X008201Y021016D03*
X009205Y021016D03*
X009894Y020229D03*
X010681Y021056D03*
X012158Y020819D03*
X012945Y020819D03*
X012729Y021528D03*
X014126Y020819D03*
X014520Y021410D03*
X015367Y020859D03*
X016685Y021016D03*
X017886Y020859D03*
X016941Y019993D03*
X015898Y019835D03*
X016489Y019048D03*
X015681Y018969D03*
X014914Y019244D03*
X013969Y018890D03*
X014481Y018339D03*
X013969Y017985D03*
X014244Y017630D03*
X014756Y017197D03*
X015032Y016804D03*
X015819Y017040D03*
X016174Y016685D03*
X015780Y016134D03*
X016252Y015701D03*
X016882Y015977D03*
X017197Y015721D03*
X016705Y015150D03*
X017217Y014756D03*
X017453Y014481D03*
X017217Y013969D03*
X017670Y013536D03*
X018260Y013595D03*
X018339Y013103D03*
X019067Y013949D03*
X018260Y014146D03*
X017788Y015130D03*
X018674Y015268D03*
X019441Y015111D03*
X019815Y014441D03*
X020426Y013930D03*
X021430Y014481D03*
X022355Y014107D03*
X022630Y014343D03*
X023142Y014028D03*
X023575Y013536D03*
X024441Y012886D03*
X024796Y013477D03*
X025071Y013752D03*
X025583Y014304D03*
X026213Y014894D03*
X026449Y015130D03*
X026882Y015603D03*
X027512Y016233D03*
X028162Y015603D03*
X028634Y014894D03*
X027532Y014973D03*
X027099Y014520D03*
X026489Y013949D03*
X026174Y013595D03*
X025662Y013083D03*
X025347Y012768D03*
X026331Y012945D03*
X027178Y013398D03*
X027512Y012552D03*
X028418Y012138D03*
X028792Y012138D03*
X027926Y011764D03*
X027119Y011449D03*
X026744Y011095D03*
X027807Y010898D03*
X027138Y010229D03*
X026508Y009540D03*
X026528Y008693D03*
X026036Y007926D03*
X026784Y007493D03*
X028674Y007355D03*
X029225Y006882D03*
X029855Y007335D03*
X029638Y008024D03*
X029481Y008181D03*
X029048Y008615D03*
X028851Y008811D03*
X030268Y008103D03*
X031016Y008772D03*
X031784Y008989D03*
X032571Y008004D03*
X032965Y007020D03*
X034402Y007237D03*
X034933Y008004D03*
X031193Y006823D03*
X030996Y005839D03*
X027788Y005859D03*
X027591Y006056D03*
X027040Y006056D03*
X028851Y010189D03*
X029638Y010977D03*
X030307Y010977D03*
X030307Y011174D03*
X029953Y011764D03*
X030859Y012276D03*
X031056Y012473D03*
X030898Y013319D03*
X030681Y013851D03*
X030032Y013319D03*
X029323Y013457D03*
X028556Y013044D03*
X029815Y014500D03*
X030839Y015248D03*
X030307Y015937D03*
X030307Y016134D03*
X029953Y016725D03*
X029638Y015937D03*
X030898Y017197D03*
X031095Y017394D03*
X029815Y018241D03*
X028477Y018339D03*
X028634Y017256D03*
X026922Y017276D03*
X026902Y018181D03*
X025957Y018851D03*
X025741Y019638D03*
X025544Y020426D03*
X025150Y021213D03*
X024579Y021095D03*
X023772Y021213D03*
X023378Y020819D03*
X022256Y021449D03*
X021607Y021016D03*
X020288Y021016D03*
X021075Y019559D03*
X021016Y018851D03*
X021607Y018260D03*
X020288Y018181D03*
X020032Y018851D03*
X019638Y019441D03*
X018752Y019402D03*
X018654Y018654D03*
X017473Y019244D03*
X017178Y018300D03*
X015701Y018063D03*
X015071Y017827D03*
X013930Y016882D03*
X012355Y015898D03*
X012296Y016370D03*
X012807Y015268D03*
X014067Y015386D03*
X014422Y014678D03*
X015111Y015307D03*
X015760Y014993D03*
X015111Y013930D03*
X014520Y013536D03*
X013595Y014048D03*
X012493Y013496D03*
X011961Y014126D03*
X011351Y015229D03*
X010445Y016174D03*
X009796Y015701D03*
X008713Y015504D03*
X009796Y014914D03*
X010445Y013969D03*
X009796Y013339D03*
X008910Y013930D03*
X002906Y013536D03*
X001351Y011213D03*
X001922Y010583D03*
X002729Y010229D03*
X004284Y009205D03*
X003103Y008615D03*
X002532Y008063D03*
X000957Y007670D03*
X000937Y008811D03*
X000957Y009835D03*
X004225Y006646D03*
X004225Y005859D03*
X004225Y005071D03*
X004225Y004087D03*
X002453Y005071D03*
X001922Y004874D03*
X001272Y004087D03*
X000937Y006056D03*
X001666Y006449D03*
X002847Y006449D03*
X007178Y005465D03*
X007985Y005071D03*
X008260Y005347D03*
X010662Y005307D03*
X011095Y005622D03*
X010859Y006213D03*
X011843Y005819D03*
X012197Y005819D03*
X012158Y004284D03*
X010937Y004402D03*
X009973Y002847D03*
X009422Y002020D03*
X015386Y005111D03*
X011134Y008142D03*
X010662Y008142D03*
X011725Y008733D03*
X009323Y008339D03*
X009323Y008103D03*
X009323Y007867D03*
X008418Y008221D03*
X007552Y010229D03*
X016685Y013536D03*
X019697Y013063D03*
X020622Y013142D03*
X021272Y012985D03*
X021666Y012552D03*
X021981Y012867D03*
X022473Y013359D03*
X021744Y013496D03*
X023181Y012552D03*
X023713Y012276D03*
X024441Y011941D03*
X024461Y011489D03*
X025327Y011922D03*
X026331Y011981D03*
X024481Y014343D03*
X023654Y014540D03*
X023063Y014815D03*
X023063Y015445D03*
X023654Y015642D03*
X023693Y015130D03*
X024363Y016095D03*
X024855Y015937D03*
X023693Y016390D03*
X023752Y016725D03*
X023063Y016430D03*
X023063Y017059D03*
X021902Y016410D03*
X022197Y015504D03*
X020898Y015485D03*
X020485Y016410D03*
X019244Y017079D03*
X018457Y017473D03*
X017886Y017197D03*
X021016Y017276D03*
X025347Y018063D03*
X025544Y017079D03*
X026390Y016449D03*
X027315Y019048D03*
X028674Y019678D03*
X029658Y019678D03*
X029264Y020465D03*
X029284Y021213D03*
X028044Y021370D03*
X027178Y020189D03*
X030524Y020622D03*
X031508Y020898D03*
X032807Y021567D03*
X033201Y020662D03*
X034008Y020032D03*
X034619Y020780D03*
X032571Y019815D03*
X031587Y019619D03*
X032138Y018870D03*
X033634Y012886D03*
X034402Y012748D03*
X033359Y011941D03*
X034737Y011744D03*
X022414Y011961D03*
X020996Y011882D03*
X020386Y012099D03*
X020721Y012473D03*
X019835Y011725D03*
X019599Y011725D03*
X019619Y011370D03*
X019225Y011095D03*
X019874Y010721D03*
X020426Y011272D03*
X021213Y010977D03*
X010189Y019048D03*
X007040Y020426D03*
X006036Y019559D03*
X004185Y019520D03*
X003103Y020032D03*
X004087Y020426D03*
X003044Y021134D03*
X002059Y021134D03*
X000918Y021528D03*
X001705Y019953D03*
X000937Y019835D03*
X005367Y020937D03*
X006823Y021528D03*
X026863Y001115D03*
D14*
X025937Y001646D02*
X025937Y004166D01*
X025662Y004244D02*
X025544Y004244D01*
X025544Y004028D01*
X025426Y004244D02*
X025662Y004244D01*
X025544Y003634D02*
X025544Y002178D01*
X025544Y001449D01*
X025544Y001213D01*
X024756Y001646D02*
X024756Y004166D01*
X024363Y004284D02*
X024363Y003634D01*
X023969Y003634D02*
X023969Y004284D01*
X023575Y004166D02*
X023575Y001646D01*
X022394Y001646D02*
X022394Y004166D01*
X022000Y004284D02*
X022000Y003634D01*
X021607Y003634D02*
X021607Y004284D01*
X021213Y004166D02*
X021213Y001646D01*
X020032Y001646D02*
X020032Y004166D01*
X020426Y004284D02*
X020426Y003634D01*
X020819Y003634D02*
X020819Y004284D01*
X019638Y004284D02*
X019638Y003634D01*
X019244Y003634D02*
X019244Y004284D01*
X018851Y004166D02*
X018851Y001646D01*
X017670Y001646D02*
X017670Y004166D01*
X018063Y004284D02*
X018063Y003634D01*
X018457Y003634D02*
X018457Y004284D01*
X017276Y004284D02*
X017276Y003634D01*
X016882Y003634D02*
X016882Y004284D01*
X016489Y004166D02*
X016489Y001646D01*
X017276Y001449D02*
X017276Y002178D01*
X015307Y001646D02*
X015307Y004166D01*
X015701Y004284D02*
X015701Y003634D01*
X016095Y003634D02*
X016095Y004284D01*
X011370Y004244D02*
X011370Y001528D01*
X010819Y001528D02*
X010583Y001528D01*
X010347Y001528D01*
X010819Y001528D01*
X010583Y001528D02*
X010583Y002178D01*
X010583Y003634D01*
X009796Y004244D02*
X009796Y001528D01*
X022788Y003634D02*
X022788Y004284D01*
X023181Y004284D02*
X023181Y003634D01*
D15*
X025524Y006233D03*
D16*
X019441Y007591D02*
X019126Y007276D01*
X019126Y006528D01*
X017237Y004638D01*
X014678Y004638D01*
X014638Y004599D01*
X014441Y004717D02*
X014441Y004441D01*
X014244Y004284D02*
X014244Y004835D01*
X014599Y005189D01*
X015189Y005189D01*
X017355Y007355D01*
X017355Y010819D01*
X017552Y011016D01*
X017748Y010780D02*
X017827Y010859D01*
X017827Y011213D01*
X016725Y012315D01*
X006292Y012315D01*
X007945Y013024D02*
X016961Y013024D01*
X018930Y011056D01*
X018930Y008693D01*
X018890Y008654D01*
X019205Y008457D02*
X019441Y008221D01*
X019441Y007591D01*
X018339Y007315D02*
X018339Y006528D01*
X016725Y004914D01*
X014638Y004914D01*
X014441Y004717D01*
X014048Y004599D02*
X014048Y004953D01*
X016331Y007237D01*
X016449Y007237D01*
X016961Y007748D01*
X016961Y010977D01*
X017119Y011134D01*
X016489Y011056D02*
X016489Y011489D01*
X015898Y012079D01*
X013930Y012079D01*
X012473Y010622D01*
X012473Y004244D01*
X012552Y004166D01*
X012552Y003634D01*
X012945Y003634D02*
X012945Y004087D01*
X012670Y004363D01*
X012670Y010504D01*
X014008Y011843D01*
X015071Y011843D01*
X015741Y011174D01*
X015741Y010859D01*
X015544Y010662D02*
X015544Y011095D01*
X015032Y011607D01*
X014087Y011607D01*
X012867Y010386D01*
X012867Y004481D01*
X013339Y004008D01*
X013339Y003634D01*
X013418Y004244D02*
X013063Y004599D01*
X013063Y010268D01*
X013851Y011056D01*
X014756Y011056D01*
X015347Y010465D01*
X015622Y010465D01*
X016095Y010937D01*
X016292Y010937D01*
X016331Y010898D01*
X015426Y010032D02*
X015386Y010071D01*
X015150Y010071D01*
X013260Y008181D01*
X013260Y004717D01*
X013418Y004559D02*
X013457Y004599D01*
X013457Y006685D01*
X015307Y008536D01*
X015307Y009520D01*
X015111Y009717D01*
X015268Y009874D02*
X015544Y009599D01*
X015544Y008496D01*
X013654Y006607D01*
X013654Y004638D01*
X013851Y004441D02*
X013851Y005307D01*
X015977Y007433D01*
X016331Y007433D01*
X017748Y007433D02*
X017906Y007276D01*
X017748Y007433D02*
X017748Y010780D01*
X017985Y010583D02*
X017985Y010347D01*
X018142Y010189D01*
X018142Y007512D01*
X018339Y007315D01*
X019205Y008457D02*
X019205Y009048D01*
X019244Y009087D01*
X018733Y009835D02*
X018733Y010937D01*
X016882Y012788D01*
X004441Y012788D01*
X002591Y012552D02*
X016804Y012552D01*
X018339Y011016D01*
X018339Y010347D01*
X018300Y010307D01*
X014835Y004441D02*
X014520Y004126D01*
X014520Y003634D01*
X014126Y003634D02*
X014126Y004087D01*
X013969Y004244D01*
X013418Y004244D01*
X014914Y004166D02*
X014914Y003634D01*
X014914Y004166D02*
X015032Y004284D01*
X014126Y002178D02*
X014126Y001528D01*
X014205Y001134D02*
X009126Y001134D01*
X009008Y000898D02*
X014323Y000898D01*
X013733Y001528D02*
X013733Y002178D01*
X013339Y002178D02*
X013339Y001528D01*
X012945Y001528D02*
X012945Y002178D01*
X012552Y002178D02*
X012552Y001528D01*
X012158Y001528D02*
X012158Y002178D01*
X011764Y002178D02*
X011764Y001528D01*
M02*
