G75*
G70*
%OFA0B0*%
%FSLAX24Y24*%
%IPPOS*%
%LPD*%
%AMOC8*
5,1,8,0,0,1.08239X$1,22.5*
%
%ADD10C,0.0180*%
%ADD11C,0.0100*%
%ADD12C,0.0295*%
D10*
X004225Y001331D03*
X005268Y001134D03*
X005603Y001922D03*
X004815Y002532D03*
X004855Y002847D03*
X004264Y002099D03*
X003792Y002532D03*
X004225Y004087D03*
X004225Y005071D03*
X004225Y005859D03*
X004225Y006646D03*
X002847Y006449D03*
X001666Y006449D03*
X000937Y006056D03*
X002453Y005071D03*
X001922Y004874D03*
X001272Y004087D03*
X006272Y003575D03*
X006764Y003615D03*
X006764Y003851D03*
X006764Y004087D03*
X007965Y003496D03*
X009441Y003654D03*
X010268Y002985D03*
X010583Y003024D03*
X010583Y002788D03*
X011056Y002945D03*
X011489Y002867D03*
X011961Y002788D03*
X012355Y002945D03*
X012748Y002788D03*
X013142Y003024D03*
X013536Y002867D03*
X013930Y003063D03*
X014323Y002906D03*
X014717Y002788D03*
X015229Y002807D03*
X015544Y002768D03*
X015898Y002768D03*
X016528Y002965D03*
X016961Y002807D03*
X017670Y002926D03*
X018575Y003004D03*
X019087Y002886D03*
X019363Y003024D03*
X020229Y002945D03*
X020780Y002807D03*
X021331Y002886D03*
X021804Y003044D03*
X022197Y002926D03*
X022985Y003044D03*
X023693Y002886D03*
X024166Y002807D03*
X024481Y002965D03*
X025544Y003024D03*
X025544Y002788D03*
X026351Y002059D03*
X025957Y001390D03*
X025544Y001449D03*
X025544Y001213D03*
X024835Y001469D03*
X024166Y001193D03*
X023496Y001430D03*
X022985Y001548D03*
X022433Y001469D03*
X021764Y001548D03*
X021174Y001469D03*
X020898Y001469D03*
X020150Y001449D03*
X019756Y001292D03*
X019126Y001469D03*
X018693Y001469D03*
X018044Y001331D03*
X017689Y001449D03*
X017276Y001449D03*
X016725Y001548D03*
X016115Y001567D03*
X016115Y001252D03*
X015563Y001567D03*
X015170Y001528D03*
X014835Y000937D03*
X014638Y000819D03*
X014835Y000701D03*
X014323Y000898D03*
X014205Y001134D03*
X014126Y001528D03*
X013733Y001528D03*
X013339Y001528D03*
X012945Y001528D03*
X012552Y001528D03*
X012158Y001528D03*
X011764Y001528D03*
X011331Y001449D03*
X010819Y001528D03*
X010583Y001528D03*
X010347Y001528D03*
X009894Y001469D03*
X009500Y001469D03*
X009126Y001134D03*
X009008Y000898D03*
X007768Y001331D03*
X006764Y001725D03*
X009422Y002020D03*
X009973Y002847D03*
X010937Y004402D03*
X012158Y004284D03*
X013260Y004717D03*
X013418Y004559D03*
X013654Y004638D03*
X013851Y004441D03*
X014048Y004599D03*
X014244Y004284D03*
X014441Y004441D03*
X014638Y004599D03*
X014835Y004441D03*
X015032Y004284D03*
X015327Y004402D03*
X015701Y004284D03*
X016095Y004284D03*
X016882Y004284D03*
X017276Y004284D03*
X017119Y004835D03*
X018063Y004284D03*
X018457Y004284D03*
X018556Y004599D03*
X019244Y004284D03*
X019638Y004284D03*
X020209Y004697D03*
X020426Y004284D03*
X020819Y004284D03*
X021607Y004284D03*
X022000Y004284D03*
X021666Y004717D03*
X020957Y005268D03*
X020642Y004953D03*
X019953Y005583D03*
X019796Y005741D03*
X019638Y005898D03*
X019559Y005662D03*
X019717Y005504D03*
X018949Y005504D03*
X018398Y006056D03*
X018122Y006056D03*
X017670Y006685D03*
X017591Y006882D03*
X017906Y007276D03*
X018103Y007158D03*
X018339Y007709D03*
X018615Y007709D03*
X018890Y007709D03*
X019166Y007709D03*
X019619Y007630D03*
X020189Y007985D03*
X020386Y008103D03*
X020189Y008221D03*
X020386Y008339D03*
X019953Y008339D03*
X019835Y008575D03*
X019559Y008733D03*
X019402Y008890D03*
X019244Y009087D03*
X019166Y009559D03*
X019126Y009835D03*
X018733Y009835D03*
X017945Y009520D03*
X017552Y009441D03*
X017158Y009717D03*
X017552Y009953D03*
X017158Y010347D03*
X016764Y010307D03*
X016370Y009914D03*
X015977Y009481D03*
X015741Y009205D03*
X015977Y008890D03*
X016370Y008457D03*
X016764Y008457D03*
X017158Y007945D03*
X017552Y008339D03*
X017945Y008811D03*
X017552Y009008D03*
X017158Y009048D03*
X016764Y009126D03*
X016370Y009323D03*
X015426Y010032D03*
X015268Y009874D03*
X015111Y009717D03*
X014559Y009914D03*
X015111Y010268D03*
X014835Y010465D03*
X015544Y010662D03*
X015741Y010859D03*
X015347Y010859D03*
X015229Y011016D03*
X015071Y011252D03*
X014835Y011410D03*
X014441Y011331D03*
X014008Y010780D03*
X014048Y010307D03*
X013752Y009343D03*
X013477Y009067D03*
X013280Y008831D03*
X013615Y008103D03*
X013870Y008280D03*
X014126Y008575D03*
X014284Y008733D03*
X014481Y008654D03*
X014835Y008713D03*
X015111Y008674D03*
X014756Y008260D03*
X014205Y007709D03*
X013733Y007552D03*
X014107Y006685D03*
X014264Y006449D03*
X014028Y006252D03*
X013870Y005622D03*
X014067Y005268D03*
X015386Y005111D03*
X015898Y005583D03*
X016174Y005504D03*
X015386Y005898D03*
X015465Y006095D03*
X015937Y006213D03*
X015406Y006607D03*
X015898Y007079D03*
X016410Y007040D03*
X016331Y007433D03*
X015859Y007906D03*
X015721Y007729D03*
X015465Y007473D03*
X017000Y007355D03*
X019028Y008181D03*
X018890Y008654D03*
X018339Y009166D03*
X019796Y009520D03*
X019953Y009363D03*
X019835Y009815D03*
X020819Y010189D03*
X021607Y009993D03*
X022296Y010504D03*
X022788Y011174D03*
X023575Y010780D03*
X024481Y010465D03*
X024481Y009717D03*
X023752Y009717D03*
X022985Y009796D03*
X022788Y009205D03*
X022650Y008536D03*
X022020Y009087D03*
X021272Y009048D03*
X020878Y008575D03*
X020386Y007867D03*
X020622Y007532D03*
X020209Y007040D03*
X019520Y007000D03*
X019402Y007197D03*
X019422Y006646D03*
X020957Y006134D03*
X021863Y006134D03*
X022335Y006607D03*
X022571Y006843D03*
X023044Y006095D03*
X022571Y005622D03*
X022335Y005386D03*
X023044Y004914D03*
X023181Y004284D03*
X022788Y004284D03*
X023969Y004284D03*
X024363Y004284D03*
X023949Y004678D03*
X024796Y005485D03*
X025130Y005839D03*
X024500Y006410D03*
X024028Y005937D03*
X023595Y006646D03*
X025288Y007197D03*
X025563Y007473D03*
X026036Y007926D03*
X025209Y008260D03*
X025485Y008536D03*
X025642Y009126D03*
X025367Y009678D03*
X025839Y010150D03*
X025367Y010347D03*
X025367Y010937D03*
X024461Y011489D03*
X024441Y011941D03*
X023713Y012276D03*
X023181Y012552D03*
X022414Y011961D03*
X021666Y012552D03*
X021981Y012867D03*
X022473Y013359D03*
X021744Y013496D03*
X021272Y012985D03*
X020622Y013142D03*
X020721Y012473D03*
X020386Y012099D03*
X020996Y011882D03*
X020426Y011272D03*
X019835Y011725D03*
X019599Y011725D03*
X019619Y011370D03*
X019225Y011095D03*
X019874Y010721D03*
X018536Y010504D03*
X018300Y010307D03*
X017985Y010583D03*
X018142Y010741D03*
X017552Y011016D03*
X017374Y011272D03*
X017119Y011134D03*
X016902Y011311D03*
X017020Y011587D03*
X016902Y011784D03*
X016685Y012040D03*
X016489Y012119D03*
X015977Y011725D03*
X015741Y011882D03*
X015465Y011843D03*
X016213Y011410D03*
X016292Y011213D03*
X016489Y011056D03*
X016331Y010898D03*
X016174Y010741D03*
X014717Y009363D03*
X014520Y009166D03*
X012237Y008181D03*
X011882Y007709D03*
X012237Y007197D03*
X011685Y006764D03*
X011134Y006646D03*
X010977Y007119D03*
X010150Y007040D03*
X009756Y007394D03*
X009244Y007433D03*
X009087Y007040D03*
X008496Y007079D03*
X007965Y007237D03*
X007040Y007630D03*
X006252Y008221D03*
X006843Y008615D03*
X007630Y009008D03*
X007827Y009599D03*
X008418Y009205D03*
X009205Y009599D03*
X009323Y010229D03*
X009008Y010977D03*
X009619Y011016D03*
X010406Y011607D03*
X010977Y011961D03*
X011764Y011764D03*
X012158Y011370D03*
X012552Y011567D03*
X012768Y012079D03*
X013536Y012079D03*
X012158Y010780D03*
X010977Y011174D03*
X008221Y011961D03*
X007945Y013024D03*
X007453Y013693D03*
X006311Y014599D03*
X005662Y013930D03*
X004343Y013615D03*
X004441Y012788D03*
X005859Y011961D03*
X006292Y012315D03*
X005465Y010977D03*
X005780Y010229D03*
X004481Y009993D03*
X004008Y010229D03*
X003890Y011174D03*
X002906Y011961D03*
X002591Y012552D03*
X001863Y012433D03*
X001134Y012945D03*
X001528Y013733D03*
X002020Y014717D03*
X003241Y015544D03*
X002119Y015898D03*
X001233Y015701D03*
X004284Y014914D03*
X005662Y015701D03*
X006351Y016528D03*
X005859Y017079D03*
X005859Y017867D03*
X005130Y018418D03*
X004284Y017867D03*
X004619Y016725D03*
X004481Y015898D03*
X007630Y016489D03*
X008792Y016961D03*
X009993Y017079D03*
X010209Y018024D03*
X009205Y018063D03*
X008221Y017867D03*
X007217Y017985D03*
X006843Y018851D03*
X007630Y019244D03*
X008792Y019205D03*
X008615Y020032D03*
X008201Y021016D03*
X009205Y021016D03*
X009894Y020229D03*
X010681Y021056D03*
X012158Y020819D03*
X012945Y020819D03*
X012729Y021528D03*
X014126Y020819D03*
X014520Y021410D03*
X015367Y020859D03*
X016685Y021016D03*
X017886Y020859D03*
X016941Y019993D03*
X015898Y019835D03*
X016489Y019048D03*
X015681Y018969D03*
X014914Y019244D03*
X013969Y018890D03*
X014481Y018339D03*
X013969Y017985D03*
X014244Y017630D03*
X014756Y017197D03*
X015032Y016804D03*
X015819Y017040D03*
X016174Y016685D03*
X015780Y016134D03*
X016252Y015701D03*
X016882Y015977D03*
X017197Y015721D03*
X016705Y015150D03*
X017217Y014756D03*
X017453Y014481D03*
X017217Y013969D03*
X017670Y013536D03*
X018260Y013595D03*
X018339Y013103D03*
X019067Y013949D03*
X018260Y014146D03*
X017788Y015130D03*
X018674Y015268D03*
X019441Y015111D03*
X019815Y014441D03*
X020426Y013930D03*
X021430Y014481D03*
X022355Y014107D03*
X022630Y014343D03*
X023142Y014028D03*
X023575Y013536D03*
X024441Y012886D03*
X024796Y013477D03*
X025071Y013752D03*
X025583Y014304D03*
X026213Y014894D03*
X026449Y015130D03*
X026882Y015603D03*
X027512Y016233D03*
X028162Y015603D03*
X028634Y014894D03*
X027532Y014973D03*
X027099Y014520D03*
X026489Y013949D03*
X026174Y013595D03*
X025662Y013083D03*
X025347Y012768D03*
X026331Y012945D03*
X027178Y013398D03*
X027512Y012552D03*
X028418Y012138D03*
X028792Y012138D03*
X027926Y011764D03*
X027119Y011449D03*
X026744Y011095D03*
X027807Y010898D03*
X027138Y010229D03*
X026508Y009540D03*
X026528Y008693D03*
X026784Y007493D03*
X026056Y006764D03*
X027040Y006056D03*
X027591Y006056D03*
X027788Y005859D03*
X028418Y005229D03*
X027788Y004835D03*
X027788Y004638D03*
X026981Y004382D03*
X027788Y003969D03*
X025741Y004717D03*
X025544Y004717D03*
X025347Y004717D03*
X025426Y004244D03*
X025662Y004244D03*
X029225Y005445D03*
X029717Y005780D03*
X030268Y005622D03*
X030996Y005839D03*
X031193Y006823D03*
X029855Y007335D03*
X029225Y006882D03*
X028674Y007355D03*
X029638Y008024D03*
X029481Y008181D03*
X029048Y008615D03*
X028851Y008811D03*
X030268Y008103D03*
X031016Y008772D03*
X031784Y008989D03*
X032571Y008004D03*
X032965Y007020D03*
X034402Y007237D03*
X034933Y008004D03*
X030307Y010977D03*
X030307Y011174D03*
X029638Y010977D03*
X029953Y011764D03*
X030859Y012276D03*
X031056Y012473D03*
X030898Y013319D03*
X030681Y013851D03*
X030032Y013319D03*
X029323Y013457D03*
X028556Y013044D03*
X029815Y014500D03*
X030839Y015248D03*
X030307Y015937D03*
X030307Y016134D03*
X029953Y016725D03*
X029638Y015937D03*
X030898Y017197D03*
X031095Y017394D03*
X029815Y018241D03*
X028477Y018339D03*
X028634Y017256D03*
X026922Y017276D03*
X026902Y018181D03*
X025957Y018851D03*
X025741Y019638D03*
X025544Y020426D03*
X025150Y021213D03*
X024579Y021095D03*
X023772Y021213D03*
X023378Y020819D03*
X022256Y021449D03*
X021607Y021016D03*
X020288Y021016D03*
X021075Y019559D03*
X021016Y018851D03*
X021607Y018260D03*
X020288Y018181D03*
X020032Y018851D03*
X019638Y019441D03*
X018752Y019402D03*
X018654Y018654D03*
X017473Y019244D03*
X017178Y018300D03*
X015701Y018063D03*
X015071Y017827D03*
X013930Y016882D03*
X012355Y015898D03*
X012296Y016370D03*
X012807Y015268D03*
X014067Y015386D03*
X014422Y014678D03*
X015111Y015307D03*
X015760Y014993D03*
X015111Y013930D03*
X014520Y013536D03*
X013595Y014048D03*
X012493Y013496D03*
X011961Y014126D03*
X011351Y015229D03*
X010445Y016174D03*
X009796Y015701D03*
X008713Y015504D03*
X009796Y014914D03*
X010445Y013969D03*
X009796Y013339D03*
X008910Y013930D03*
X002906Y013536D03*
X001351Y011213D03*
X001922Y010583D03*
X002729Y010229D03*
X004284Y009205D03*
X003103Y008615D03*
X002532Y008063D03*
X000957Y007670D03*
X000937Y008811D03*
X000957Y009835D03*
X007552Y010229D03*
X009323Y008339D03*
X009323Y008103D03*
X009323Y007867D03*
X008418Y008221D03*
X010662Y008142D03*
X011134Y008142D03*
X011725Y008733D03*
X010859Y006213D03*
X011095Y005622D03*
X010662Y005307D03*
X011843Y005819D03*
X012197Y005819D03*
X008260Y005347D03*
X007985Y005071D03*
X007178Y005465D03*
X017040Y006016D03*
X017670Y005583D03*
X023595Y007867D03*
X024304Y008615D03*
X024500Y009087D03*
X024619Y007670D03*
X028851Y010189D03*
X026331Y011981D03*
X025327Y011922D03*
X024481Y014343D03*
X023654Y014540D03*
X023063Y014815D03*
X023063Y015445D03*
X023654Y015642D03*
X023693Y015130D03*
X024363Y016095D03*
X024855Y015937D03*
X023693Y016390D03*
X023752Y016725D03*
X023063Y016430D03*
X023063Y017059D03*
X021902Y016410D03*
X022197Y015504D03*
X020898Y015485D03*
X020485Y016410D03*
X019244Y017079D03*
X018457Y017473D03*
X017886Y017197D03*
X021016Y017276D03*
X025347Y018063D03*
X025544Y017079D03*
X026390Y016449D03*
X027315Y019048D03*
X028674Y019678D03*
X029658Y019678D03*
X029264Y020465D03*
X029284Y021213D03*
X028044Y021370D03*
X027178Y020189D03*
X030524Y020622D03*
X031508Y020898D03*
X032807Y021567D03*
X033201Y020662D03*
X034008Y020032D03*
X034619Y020780D03*
X032571Y019815D03*
X031587Y019619D03*
X032138Y018870D03*
X033634Y012886D03*
X034402Y012748D03*
X033359Y011941D03*
X034737Y011744D03*
X031075Y004500D03*
X031784Y003044D03*
X031390Y002335D03*
X031784Y001115D03*
X026863Y001115D03*
X021213Y010977D03*
X019697Y013063D03*
X016685Y013536D03*
X010189Y019048D03*
X007040Y020426D03*
X006036Y019559D03*
X004185Y019520D03*
X003103Y020032D03*
X004087Y020426D03*
X003044Y021134D03*
X002059Y021134D03*
X000918Y021528D03*
X001705Y019953D03*
X000937Y019835D03*
X005367Y020937D03*
X006823Y021528D03*
D11*
X000650Y007215D02*
X000650Y000650D01*
X014953Y000650D01*
X014953Y004108D01*
X014852Y004209D01*
X014852Y004261D01*
X014760Y004261D01*
X014655Y004367D01*
X014655Y004419D01*
X014621Y004419D01*
X014621Y004367D01*
X014516Y004261D01*
X014424Y004261D01*
X014424Y004209D01*
X014319Y004104D01*
X014170Y004104D01*
X014064Y004209D01*
X014064Y004358D01*
X014170Y004464D01*
X014261Y004464D01*
X014261Y004516D01*
X014367Y004621D01*
X014458Y004621D01*
X014458Y004673D01*
X014550Y004765D01*
X014481Y004835D01*
X013969Y004835D01*
X013339Y005465D01*
X013339Y008221D01*
X012670Y008890D01*
X012670Y009874D01*
X010386Y012158D01*
X006389Y012158D01*
X006366Y012135D01*
X006217Y012135D01*
X006195Y012158D01*
X000650Y012158D01*
X000650Y007455D01*
X006530Y007455D01*
X006589Y007396D01*
X007750Y006234D01*
X007809Y006176D01*
X007809Y004479D01*
X007750Y004420D01*
X007628Y004420D01*
X007570Y004479D01*
X007570Y006053D01*
X006408Y007215D01*
X000650Y007215D01*
X000650Y007144D02*
X006480Y007144D01*
X006578Y007045D02*
X000650Y007045D01*
X000650Y006947D02*
X006677Y006947D01*
X006775Y006848D02*
X000650Y006848D01*
X000650Y006750D02*
X006874Y006750D01*
X006972Y006651D02*
X000650Y006651D01*
X000650Y006553D02*
X007071Y006553D01*
X007169Y006454D02*
X000650Y006454D01*
X000650Y006356D02*
X007268Y006356D01*
X007366Y006257D02*
X000650Y006257D01*
X000650Y006159D02*
X000786Y006159D01*
X000757Y006130D02*
X000757Y005981D01*
X000863Y005876D01*
X001012Y005876D01*
X001117Y005981D01*
X001117Y006130D01*
X001012Y006236D01*
X000863Y006236D01*
X000757Y006130D01*
X000757Y006060D02*
X000650Y006060D01*
X000650Y005962D02*
X000777Y005962D01*
X000650Y005863D02*
X007570Y005863D01*
X007570Y005765D02*
X000650Y005765D01*
X000650Y005666D02*
X007570Y005666D01*
X007570Y005568D02*
X000650Y005568D01*
X000650Y005469D02*
X007570Y005469D01*
X007570Y005371D02*
X000650Y005371D01*
X000650Y005272D02*
X007570Y005272D01*
X007570Y005174D02*
X000650Y005174D01*
X000650Y005075D02*
X007570Y005075D01*
X007570Y004977D02*
X002074Y004977D01*
X002102Y004949D02*
X001996Y005054D01*
X001847Y005054D01*
X001742Y004949D01*
X001742Y004800D01*
X001847Y004694D01*
X001996Y004694D01*
X002102Y004800D01*
X002102Y004949D01*
X002102Y004878D02*
X007570Y004878D01*
X007570Y004780D02*
X002081Y004780D01*
X001762Y004780D02*
X000650Y004780D01*
X000650Y004878D02*
X001742Y004878D01*
X001769Y004977D02*
X000650Y004977D01*
X000650Y004681D02*
X007570Y004681D01*
X007570Y004583D02*
X000650Y004583D01*
X000650Y004484D02*
X007570Y004484D01*
X007809Y004484D02*
X013239Y004484D01*
X013238Y004485D02*
X013343Y004379D01*
X013492Y004379D01*
X013575Y004462D01*
X013579Y004458D01*
X013671Y004458D01*
X013671Y004367D01*
X013776Y004261D01*
X013925Y004261D01*
X014031Y004367D01*
X014031Y004419D01*
X014122Y004419D01*
X014228Y004524D01*
X014228Y004673D01*
X014122Y004779D01*
X013973Y004779D01*
X013868Y004673D01*
X013868Y004621D01*
X013834Y004621D01*
X013834Y004713D01*
X013728Y004818D01*
X013579Y004818D01*
X013496Y004735D01*
X013492Y004739D01*
X013440Y004739D01*
X013440Y004791D01*
X013335Y004897D01*
X013186Y004897D01*
X013080Y004791D01*
X013080Y004642D01*
X013186Y004537D01*
X013238Y004537D01*
X013238Y004485D01*
X013140Y004583D02*
X007809Y004583D01*
X007809Y004681D02*
X013080Y004681D01*
X013080Y004780D02*
X007809Y004780D01*
X007809Y004878D02*
X013167Y004878D01*
X013354Y004878D02*
X013926Y004878D01*
X013827Y004977D02*
X007809Y004977D01*
X007809Y005075D02*
X013729Y005075D01*
X013630Y005174D02*
X010782Y005174D01*
X010736Y005127D02*
X010842Y005233D01*
X010842Y005382D01*
X010736Y005487D01*
X010587Y005487D01*
X010482Y005382D01*
X010482Y005233D01*
X010587Y005127D01*
X010736Y005127D01*
X010842Y005272D02*
X013532Y005272D01*
X013433Y005371D02*
X010842Y005371D01*
X010755Y005469D02*
X013339Y005469D01*
X013339Y005568D02*
X007809Y005568D01*
X007809Y005666D02*
X013339Y005666D01*
X013339Y005765D02*
X007809Y005765D01*
X007809Y005863D02*
X013339Y005863D01*
X013339Y005962D02*
X007809Y005962D01*
X007809Y006060D02*
X013339Y006060D01*
X013339Y006159D02*
X007809Y006159D01*
X007728Y006257D02*
X013339Y006257D01*
X013339Y006356D02*
X007629Y006356D01*
X007531Y006454D02*
X013339Y006454D01*
X013339Y006553D02*
X007432Y006553D01*
X007334Y006651D02*
X013339Y006651D01*
X013339Y006750D02*
X007235Y006750D01*
X007137Y006848D02*
X013339Y006848D01*
X013339Y006947D02*
X007038Y006947D01*
X006940Y007045D02*
X013339Y007045D01*
X013339Y007144D02*
X006841Y007144D01*
X006743Y007242D02*
X013339Y007242D01*
X013339Y007341D02*
X006644Y007341D01*
X006546Y007439D02*
X013339Y007439D01*
X013339Y007538D02*
X007202Y007538D01*
X007220Y007556D02*
X007114Y007450D01*
X006965Y007450D01*
X006860Y007556D01*
X006860Y007705D01*
X006965Y007810D01*
X007114Y007810D01*
X007220Y007705D01*
X007220Y007556D01*
X007220Y007636D02*
X013339Y007636D01*
X013339Y007735D02*
X009446Y007735D01*
X009398Y007687D02*
X009503Y007792D01*
X009503Y007941D01*
X009460Y007985D01*
X009503Y008028D01*
X009503Y008177D01*
X009460Y008221D01*
X009503Y008264D01*
X009503Y008414D01*
X009398Y008519D01*
X009249Y008519D01*
X009143Y008414D01*
X009143Y008264D01*
X009187Y008221D01*
X009143Y008177D01*
X009143Y008028D01*
X009187Y007985D01*
X009143Y007941D01*
X009143Y007792D01*
X009249Y007687D01*
X009398Y007687D01*
X009503Y007833D02*
X013339Y007833D01*
X013339Y007932D02*
X009503Y007932D01*
X009503Y008030D02*
X013339Y008030D01*
X013339Y008129D02*
X009503Y008129D01*
X009466Y008227D02*
X013333Y008227D01*
X013234Y008326D02*
X009503Y008326D01*
X009493Y008424D02*
X013136Y008424D01*
X013037Y008523D02*
X007005Y008523D01*
X007023Y008540D02*
X006917Y008435D01*
X006768Y008435D01*
X006663Y008540D01*
X006663Y008689D01*
X006768Y008795D01*
X006917Y008795D01*
X007023Y008689D01*
X007023Y008540D01*
X007023Y008621D02*
X012939Y008621D01*
X012840Y008720D02*
X006993Y008720D01*
X006693Y008720D02*
X003252Y008720D01*
X003283Y008689D02*
X003177Y008795D01*
X003028Y008795D01*
X002923Y008689D01*
X002923Y008540D01*
X003028Y008435D01*
X003177Y008435D01*
X003283Y008540D01*
X003283Y008689D01*
X003283Y008621D02*
X006663Y008621D01*
X006680Y008523D02*
X003265Y008523D01*
X002940Y008523D02*
X000650Y008523D01*
X000650Y008621D02*
X002923Y008621D01*
X002953Y008720D02*
X001100Y008720D01*
X001117Y008737D02*
X001012Y008631D01*
X000863Y008631D01*
X000757Y008737D01*
X000757Y008886D01*
X000863Y008991D01*
X001012Y008991D01*
X001117Y008886D01*
X001117Y008737D01*
X001117Y008818D02*
X012742Y008818D01*
X012670Y008917D02*
X007793Y008917D01*
X007810Y008934D02*
X007705Y008828D01*
X007556Y008828D01*
X007450Y008934D01*
X007450Y009083D01*
X007556Y009188D01*
X007705Y009188D01*
X007810Y009083D01*
X007810Y008934D01*
X007810Y009015D02*
X012670Y009015D01*
X012670Y009114D02*
X008581Y009114D01*
X008598Y009131D02*
X008492Y009025D01*
X008343Y009025D01*
X008238Y009131D01*
X008238Y009280D01*
X008343Y009385D01*
X008492Y009385D01*
X008598Y009280D01*
X008598Y009131D01*
X008598Y009212D02*
X012670Y009212D01*
X012670Y009311D02*
X008567Y009311D01*
X008269Y009311D02*
X004433Y009311D01*
X004464Y009280D02*
X004358Y009385D01*
X004209Y009385D01*
X004104Y009280D01*
X004104Y009131D01*
X004209Y009025D01*
X004358Y009025D01*
X004464Y009131D01*
X004464Y009280D01*
X004464Y009212D02*
X008238Y009212D01*
X008255Y009114D02*
X007780Y009114D01*
X007481Y009114D02*
X004447Y009114D01*
X004121Y009114D02*
X000650Y009114D01*
X000650Y009212D02*
X004104Y009212D01*
X004135Y009311D02*
X000650Y009311D01*
X000650Y009409D02*
X012670Y009409D01*
X012670Y009508D02*
X009368Y009508D01*
X009385Y009524D02*
X009280Y009419D01*
X009131Y009419D01*
X009025Y009524D01*
X009025Y009673D01*
X009131Y009779D01*
X009280Y009779D01*
X009385Y009673D01*
X009385Y009524D01*
X009385Y009606D02*
X012670Y009606D01*
X012670Y009705D02*
X009354Y009705D01*
X009056Y009705D02*
X007976Y009705D01*
X008007Y009673D02*
X007902Y009779D01*
X007753Y009779D01*
X007647Y009673D01*
X007647Y009524D01*
X007753Y009419D01*
X007902Y009419D01*
X008007Y009524D01*
X008007Y009673D01*
X008007Y009606D02*
X009025Y009606D01*
X009042Y009508D02*
X007990Y009508D01*
X007664Y009508D02*
X000650Y009508D01*
X000650Y009606D02*
X007647Y009606D01*
X007678Y009705D02*
X000650Y009705D01*
X000650Y009803D02*
X012670Y009803D01*
X012643Y009902D02*
X004644Y009902D01*
X004661Y009918D02*
X004555Y009813D01*
X004406Y009813D01*
X004301Y009918D01*
X004301Y010067D01*
X004406Y010173D01*
X004555Y010173D01*
X004661Y010067D01*
X004661Y009918D01*
X004661Y010000D02*
X012544Y010000D01*
X012446Y010099D02*
X009448Y010099D01*
X009398Y010049D02*
X009503Y010154D01*
X009503Y010303D01*
X009398Y010409D01*
X009249Y010409D01*
X009143Y010303D01*
X009143Y010154D01*
X009249Y010049D01*
X009398Y010049D01*
X009503Y010197D02*
X012347Y010197D01*
X012249Y010296D02*
X009503Y010296D01*
X009413Y010394D02*
X012150Y010394D01*
X012052Y010493D02*
X002086Y010493D01*
X002102Y010509D02*
X001996Y010403D01*
X001847Y010403D01*
X001742Y010509D01*
X001742Y010658D01*
X001847Y010763D01*
X001996Y010763D01*
X002102Y010658D01*
X002102Y010509D01*
X002102Y010591D02*
X011953Y010591D01*
X011855Y010690D02*
X002070Y010690D01*
X001774Y010690D02*
X000650Y010690D01*
X000650Y010788D02*
X011756Y010788D01*
X011658Y010887D02*
X009173Y010887D01*
X009188Y010902D02*
X009083Y010797D01*
X008934Y010797D01*
X008828Y010902D01*
X008828Y011051D01*
X008934Y011157D01*
X009083Y011157D01*
X009188Y011051D01*
X009188Y010902D01*
X009188Y010985D02*
X011559Y010985D01*
X011461Y011084D02*
X011141Y011084D01*
X011157Y011099D02*
X011051Y010994D01*
X010902Y010994D01*
X010797Y011099D01*
X010797Y011248D01*
X010902Y011354D01*
X011051Y011354D01*
X011157Y011248D01*
X011157Y011099D01*
X011157Y011182D02*
X011362Y011182D01*
X011264Y011281D02*
X011124Y011281D01*
X011165Y011379D02*
X000650Y011379D01*
X000650Y011281D02*
X003743Y011281D01*
X003710Y011248D02*
X003710Y011099D01*
X003816Y010994D01*
X003965Y010994D01*
X004070Y011099D01*
X004070Y011248D01*
X003965Y011354D01*
X003816Y011354D01*
X003710Y011248D01*
X003710Y011182D02*
X000650Y011182D01*
X000650Y011084D02*
X003726Y011084D01*
X004055Y011084D02*
X005317Y011084D01*
X005285Y011051D02*
X005285Y010902D01*
X005390Y010797D01*
X005540Y010797D01*
X005645Y010902D01*
X005645Y011051D01*
X005540Y011157D01*
X005390Y011157D01*
X005285Y011051D01*
X005285Y010985D02*
X000650Y010985D01*
X000650Y010887D02*
X005301Y010887D01*
X005629Y010887D02*
X008844Y010887D01*
X008828Y010985D02*
X005645Y010985D01*
X005613Y011084D02*
X008860Y011084D01*
X009156Y011084D02*
X010812Y011084D01*
X010797Y011182D02*
X004070Y011182D01*
X004038Y011281D02*
X010829Y011281D01*
X011067Y011478D02*
X000650Y011478D01*
X000650Y011576D02*
X010968Y011576D01*
X010870Y011675D02*
X000650Y011675D01*
X000650Y011773D02*
X010771Y011773D01*
X010673Y011872D02*
X008386Y011872D01*
X008401Y011886D02*
X008295Y011781D01*
X008146Y011781D01*
X008041Y011886D01*
X008041Y012036D01*
X008146Y012141D01*
X008295Y012141D01*
X008401Y012036D01*
X008401Y011886D01*
X008401Y011970D02*
X010574Y011970D01*
X010476Y012069D02*
X008368Y012069D01*
X008074Y012069D02*
X006006Y012069D01*
X006039Y012036D02*
X005933Y012141D01*
X005784Y012141D01*
X005679Y012036D01*
X005679Y011886D01*
X005784Y011781D01*
X005933Y011781D01*
X006039Y011886D01*
X006039Y012036D01*
X006039Y011970D02*
X008041Y011970D01*
X008056Y011872D02*
X006024Y011872D01*
X005694Y011872D02*
X003071Y011872D01*
X003086Y011886D02*
X002980Y011781D01*
X002831Y011781D01*
X002726Y011886D01*
X002726Y012036D01*
X002831Y012141D01*
X002980Y012141D01*
X003086Y012036D01*
X003086Y011886D01*
X003086Y011970D02*
X005679Y011970D01*
X005712Y012069D02*
X003053Y012069D01*
X002759Y012069D02*
X000650Y012069D01*
X000650Y011970D02*
X002726Y011970D01*
X002741Y011872D02*
X000650Y011872D01*
X000650Y012298D02*
X000650Y021697D01*
X030916Y021697D01*
X030916Y020349D01*
X023987Y013420D01*
X023987Y009010D01*
X019893Y004916D01*
X019893Y004833D01*
X019951Y004774D01*
X019990Y004735D01*
X020073Y004735D01*
X020132Y004794D01*
X024266Y008927D01*
X024266Y013298D01*
X031156Y020187D01*
X031156Y021697D01*
X035083Y021697D01*
X035083Y000650D01*
X015093Y000650D01*
X015093Y004104D01*
X015106Y004104D01*
X015212Y004209D01*
X015212Y004358D01*
X015106Y004464D01*
X015050Y004464D01*
X015015Y004499D01*
X015015Y004516D01*
X014910Y004621D01*
X014892Y004621D01*
X014621Y004893D01*
X014539Y004975D01*
X014027Y004975D01*
X013479Y005523D01*
X013479Y008279D01*
X012810Y008948D01*
X012810Y009932D01*
X012142Y010600D01*
X012232Y010600D01*
X012338Y010705D01*
X012338Y010854D01*
X012232Y010960D01*
X012083Y010960D01*
X011978Y010854D01*
X011978Y010764D01*
X010961Y011781D01*
X011051Y011781D01*
X011157Y011886D01*
X011157Y012036D01*
X011051Y012141D01*
X010902Y012141D01*
X010797Y012036D01*
X010797Y011945D01*
X010526Y012216D01*
X010444Y012298D01*
X006472Y012298D01*
X006472Y012390D01*
X006366Y012495D01*
X006217Y012495D01*
X006112Y012390D01*
X006112Y012298D01*
X000650Y012298D01*
X000650Y012364D02*
X006112Y012364D01*
X006184Y012463D02*
X002756Y012463D01*
X002771Y012477D02*
X002666Y012372D01*
X002516Y012372D01*
X002411Y012477D01*
X002411Y012626D01*
X002516Y012732D01*
X002666Y012732D01*
X002771Y012626D01*
X002771Y012477D01*
X002771Y012561D02*
X023001Y012561D01*
X023001Y012626D02*
X023001Y012477D01*
X023107Y012372D01*
X023256Y012372D01*
X023361Y012477D01*
X023361Y012626D01*
X023256Y012732D01*
X023107Y012732D01*
X023001Y012626D01*
X023035Y012660D02*
X004568Y012660D01*
X004516Y012608D02*
X004621Y012713D01*
X004621Y012862D01*
X004516Y012968D01*
X004367Y012968D01*
X004261Y012862D01*
X004261Y012713D01*
X004367Y012608D01*
X004516Y012608D01*
X004621Y012758D02*
X023987Y012758D01*
X023987Y012660D02*
X023328Y012660D01*
X023361Y012561D02*
X023987Y012561D01*
X023987Y012463D02*
X023347Y012463D01*
X023016Y012463D02*
X006399Y012463D01*
X006472Y012364D02*
X023987Y012364D01*
X023987Y012266D02*
X010477Y012266D01*
X010575Y012167D02*
X013369Y012167D01*
X013356Y012154D02*
X013356Y012005D01*
X013461Y011899D01*
X013610Y011899D01*
X013716Y012005D01*
X013716Y012154D01*
X013610Y012259D01*
X013461Y012259D01*
X013356Y012154D01*
X013356Y012069D02*
X011124Y012069D01*
X011157Y011970D02*
X013390Y011970D01*
X013681Y011970D02*
X023987Y011970D01*
X023987Y011872D02*
X019943Y011872D01*
X019910Y011905D02*
X019760Y011905D01*
X019717Y011861D01*
X019673Y011905D01*
X019524Y011905D01*
X019419Y011799D01*
X019419Y011650D01*
X019524Y011545D01*
X019673Y011545D01*
X019717Y011588D01*
X019760Y011545D01*
X019910Y011545D01*
X020015Y011650D01*
X020015Y011799D01*
X019910Y011905D01*
X020015Y011773D02*
X023987Y011773D01*
X023987Y011675D02*
X020015Y011675D01*
X019941Y011576D02*
X023987Y011576D01*
X023987Y011478D02*
X017165Y011478D01*
X017200Y011512D02*
X017200Y011662D01*
X017095Y011767D01*
X017082Y011767D01*
X017082Y011858D01*
X016977Y011964D01*
X016827Y011964D01*
X016722Y011858D01*
X016722Y011709D01*
X016827Y011604D01*
X016840Y011604D01*
X016840Y011512D01*
X016946Y011407D01*
X017095Y011407D01*
X017200Y011512D01*
X017200Y011576D02*
X019493Y011576D01*
X019419Y011675D02*
X017187Y011675D01*
X017082Y011773D02*
X019419Y011773D01*
X019491Y011872D02*
X017069Y011872D01*
X016735Y011872D02*
X011911Y011872D01*
X011944Y011839D02*
X011839Y011944D01*
X011690Y011944D01*
X011584Y011839D01*
X011584Y011690D01*
X011690Y011584D01*
X011839Y011584D01*
X011944Y011690D01*
X011944Y011839D01*
X011944Y011773D02*
X016722Y011773D01*
X016757Y011675D02*
X012699Y011675D01*
X012732Y011642D02*
X012626Y011747D01*
X012477Y011747D01*
X012372Y011642D01*
X012372Y011493D01*
X012477Y011387D01*
X012626Y011387D01*
X012732Y011493D01*
X012732Y011642D01*
X012732Y011576D02*
X016125Y011576D01*
X016138Y011590D02*
X016033Y011484D01*
X016033Y011335D01*
X016112Y011257D01*
X016112Y011138D01*
X016214Y011036D01*
X016151Y010973D01*
X016151Y010921D01*
X016099Y010921D01*
X015994Y010815D01*
X015994Y010666D01*
X016099Y010561D01*
X016248Y010561D01*
X016354Y010666D01*
X016354Y010718D01*
X016406Y010718D01*
X016511Y010823D01*
X016511Y010876D01*
X016563Y010876D01*
X016669Y010981D01*
X016669Y011130D01*
X016563Y011236D01*
X016472Y011236D01*
X016472Y011288D01*
X016393Y011366D01*
X016393Y011484D01*
X016288Y011590D01*
X016138Y011590D01*
X016033Y011478D02*
X012716Y011478D01*
X012387Y011478D02*
X012305Y011478D01*
X012338Y011445D02*
X012232Y011550D01*
X012083Y011550D01*
X011978Y011445D01*
X011978Y011296D01*
X012083Y011190D01*
X012232Y011190D01*
X012338Y011296D01*
X012338Y011445D01*
X012338Y011379D02*
X016033Y011379D01*
X016088Y011281D02*
X012322Y011281D01*
X012372Y011576D02*
X011166Y011576D01*
X011068Y011675D02*
X011599Y011675D01*
X011584Y011773D02*
X010969Y011773D01*
X011142Y011872D02*
X011617Y011872D01*
X011929Y011675D02*
X012404Y011675D01*
X012010Y011478D02*
X011265Y011478D01*
X011363Y011379D02*
X011978Y011379D01*
X011993Y011281D02*
X011462Y011281D01*
X011560Y011182D02*
X015140Y011182D01*
X015154Y011196D02*
X015049Y011091D01*
X015049Y010942D01*
X015154Y010836D01*
X015167Y010836D01*
X015167Y010784D01*
X015272Y010679D01*
X015364Y010679D01*
X015364Y010587D01*
X015469Y010482D01*
X015618Y010482D01*
X015724Y010587D01*
X015724Y010679D01*
X015815Y010679D01*
X015921Y010784D01*
X015921Y010933D01*
X015815Y011039D01*
X015666Y011039D01*
X015561Y010933D01*
X015561Y010842D01*
X015527Y010842D01*
X015527Y010933D01*
X015421Y011039D01*
X015409Y011039D01*
X015409Y011091D01*
X015303Y011196D01*
X015154Y011196D01*
X015049Y011084D02*
X011659Y011084D01*
X011757Y010985D02*
X015049Y010985D01*
X015104Y010887D02*
X012306Y010887D01*
X012338Y010788D02*
X015167Y010788D01*
X015261Y010690D02*
X012322Y010690D01*
X012151Y010591D02*
X015364Y010591D01*
X015458Y010493D02*
X012250Y010493D01*
X012348Y010394D02*
X018132Y010394D01*
X018120Y010382D02*
X018120Y010233D01*
X018225Y010127D01*
X018374Y010127D01*
X018480Y010233D01*
X018480Y010382D01*
X018374Y010487D01*
X018225Y010487D01*
X018120Y010382D01*
X018059Y010403D02*
X018165Y010509D01*
X018165Y010658D01*
X018059Y010763D01*
X017910Y010763D01*
X017805Y010658D01*
X017805Y010509D01*
X017910Y010403D01*
X018059Y010403D01*
X018120Y010296D02*
X012447Y010296D01*
X012545Y010197D02*
X015336Y010197D01*
X015351Y010212D02*
X015246Y010106D01*
X015246Y010054D01*
X015194Y010054D01*
X015088Y009949D01*
X015088Y009897D01*
X015036Y009897D01*
X014931Y009791D01*
X014931Y009642D01*
X015036Y009537D01*
X015185Y009537D01*
X015291Y009642D01*
X015291Y009694D01*
X015343Y009694D01*
X015448Y009800D01*
X015448Y009852D01*
X015500Y009852D01*
X015606Y009957D01*
X015606Y010106D01*
X015500Y010212D01*
X015351Y010212D01*
X015246Y010099D02*
X012644Y010099D01*
X012742Y010000D02*
X015139Y010000D01*
X015088Y009902D02*
X012810Y009902D01*
X012810Y009803D02*
X014942Y009803D01*
X014931Y009705D02*
X012810Y009705D01*
X012810Y009606D02*
X014967Y009606D01*
X014827Y009508D02*
X019616Y009508D01*
X019616Y009446D02*
X019721Y009340D01*
X019773Y009340D01*
X019773Y009288D01*
X019879Y009183D01*
X020028Y009183D01*
X020133Y009288D01*
X020133Y009437D01*
X020028Y009543D01*
X019976Y009543D01*
X019976Y009595D01*
X019870Y009700D01*
X019721Y009700D01*
X019616Y009595D01*
X019616Y009446D01*
X019652Y009409D02*
X014897Y009409D01*
X014897Y009437D02*
X014791Y009543D01*
X014642Y009543D01*
X014537Y009437D01*
X014537Y009288D01*
X014642Y009183D01*
X014791Y009183D01*
X014897Y009288D01*
X014897Y009437D01*
X014897Y009311D02*
X019773Y009311D01*
X019849Y009212D02*
X019374Y009212D01*
X019424Y009162D02*
X019319Y009267D01*
X019170Y009267D01*
X019064Y009162D01*
X019064Y009012D01*
X019170Y008907D01*
X019222Y008907D01*
X019222Y008816D01*
X019327Y008710D01*
X019379Y008710D01*
X019379Y008658D01*
X019485Y008553D01*
X019634Y008553D01*
X019739Y008658D01*
X019739Y008807D01*
X019634Y008913D01*
X019582Y008913D01*
X019582Y008965D01*
X019477Y009070D01*
X019424Y009070D01*
X019424Y009162D01*
X019424Y009114D02*
X022625Y009114D01*
X022608Y009131D02*
X022713Y009025D01*
X022862Y009025D01*
X022968Y009131D01*
X022968Y009280D01*
X022862Y009385D01*
X022713Y009385D01*
X022608Y009280D01*
X022608Y009131D01*
X022608Y009212D02*
X020057Y009212D01*
X020133Y009311D02*
X022639Y009311D01*
X022937Y009311D02*
X023987Y009311D01*
X023987Y009409D02*
X020133Y009409D01*
X020063Y009508D02*
X023987Y009508D01*
X023987Y009606D02*
X019964Y009606D01*
X019627Y009606D02*
X015254Y009606D01*
X015353Y009705D02*
X018609Y009705D01*
X018658Y009655D02*
X018807Y009655D01*
X018913Y009760D01*
X018913Y009910D01*
X018807Y010015D01*
X018658Y010015D01*
X018553Y009910D01*
X018553Y009760D01*
X018658Y009655D01*
X018553Y009803D02*
X015448Y009803D01*
X015550Y009902D02*
X018553Y009902D01*
X018643Y010000D02*
X015606Y010000D01*
X015606Y010099D02*
X020656Y010099D01*
X020639Y010115D02*
X020745Y010009D01*
X020894Y010009D01*
X020999Y010115D01*
X020999Y010264D01*
X020894Y010369D01*
X020745Y010369D01*
X020639Y010264D01*
X020639Y010115D01*
X020639Y010197D02*
X018444Y010197D01*
X018480Y010296D02*
X020671Y010296D01*
X020968Y010296D02*
X023987Y010296D01*
X023987Y010394D02*
X018468Y010394D01*
X018149Y010493D02*
X023987Y010493D01*
X023987Y010591D02*
X018165Y010591D01*
X018133Y010690D02*
X023411Y010690D01*
X023395Y010705D02*
X023501Y010600D01*
X023650Y010600D01*
X023755Y010705D01*
X023755Y010854D01*
X023650Y010960D01*
X023501Y010960D01*
X023395Y010854D01*
X023395Y010705D01*
X023395Y010788D02*
X016476Y010788D01*
X016574Y010887D02*
X017427Y010887D01*
X017477Y010836D02*
X017626Y010836D01*
X017732Y010942D01*
X017732Y011091D01*
X017626Y011196D01*
X017477Y011196D01*
X017372Y011091D01*
X017372Y010942D01*
X017477Y010836D01*
X017372Y010985D02*
X017224Y010985D01*
X017193Y010954D02*
X017299Y011060D01*
X017299Y011209D01*
X017193Y011314D01*
X017044Y011314D01*
X016939Y011209D01*
X016939Y011060D01*
X017044Y010954D01*
X017193Y010954D01*
X017299Y011084D02*
X017372Y011084D01*
X017299Y011182D02*
X017463Y011182D01*
X017640Y011182D02*
X022608Y011182D01*
X022608Y011248D02*
X022608Y011099D01*
X022713Y010994D01*
X022862Y010994D01*
X022968Y011099D01*
X022968Y011248D01*
X022862Y011354D01*
X022713Y011354D01*
X022608Y011248D01*
X022640Y011281D02*
X017227Y011281D01*
X017010Y011281D02*
X016472Y011281D01*
X016393Y011379D02*
X023987Y011379D01*
X023987Y011281D02*
X022935Y011281D01*
X022968Y011182D02*
X023987Y011182D01*
X023987Y011084D02*
X022952Y011084D01*
X022623Y011084D02*
X021361Y011084D01*
X021393Y011051D02*
X021288Y011157D01*
X021138Y011157D01*
X021033Y011051D01*
X021033Y010902D01*
X021138Y010797D01*
X021288Y010797D01*
X021393Y010902D01*
X021393Y011051D01*
X021393Y010985D02*
X023987Y010985D01*
X023987Y010887D02*
X023723Y010887D01*
X023755Y010788D02*
X023987Y010788D01*
X023987Y010690D02*
X023739Y010690D01*
X023427Y010887D02*
X021377Y010887D01*
X021049Y010887D02*
X017677Y010887D01*
X017732Y010985D02*
X021033Y010985D01*
X021065Y011084D02*
X017732Y011084D01*
X017837Y010690D02*
X016354Y010690D01*
X016279Y010591D02*
X017805Y010591D01*
X017821Y010493D02*
X015629Y010493D01*
X015724Y010591D02*
X016069Y010591D01*
X015994Y010690D02*
X015826Y010690D01*
X015921Y010788D02*
X015994Y010788D01*
X016065Y010887D02*
X015921Y010887D01*
X015869Y010985D02*
X016164Y010985D01*
X016167Y011084D02*
X015409Y011084D01*
X015475Y010985D02*
X015612Y010985D01*
X015561Y010887D02*
X015527Y010887D01*
X015317Y011182D02*
X016112Y011182D01*
X016617Y011182D02*
X016939Y011182D01*
X016939Y011084D02*
X016669Y011084D01*
X016669Y010985D02*
X017013Y010985D01*
X016875Y011478D02*
X016393Y011478D01*
X016301Y011576D02*
X016840Y011576D01*
X018156Y010197D02*
X015515Y010197D01*
X014607Y009508D02*
X012810Y009508D01*
X012810Y009409D02*
X014537Y009409D01*
X014537Y009311D02*
X012810Y009311D01*
X012810Y009212D02*
X014613Y009212D01*
X014821Y009212D02*
X019115Y009212D01*
X019064Y009114D02*
X012810Y009114D01*
X012810Y009015D02*
X019064Y009015D01*
X019160Y008917D02*
X012841Y008917D01*
X012940Y008818D02*
X014115Y008818D01*
X014104Y008807D02*
X014209Y008913D01*
X014358Y008913D01*
X014437Y008834D01*
X014555Y008834D01*
X014661Y008728D01*
X014661Y008579D01*
X014555Y008474D01*
X014406Y008474D01*
X014327Y008553D01*
X014306Y008553D01*
X014306Y008501D01*
X014201Y008395D01*
X014052Y008395D01*
X013946Y008501D01*
X013946Y008650D01*
X014052Y008755D01*
X014104Y008755D01*
X014104Y008807D01*
X014016Y008720D02*
X013038Y008720D01*
X013137Y008621D02*
X013946Y008621D01*
X013946Y008523D02*
X013235Y008523D01*
X013334Y008424D02*
X014023Y008424D01*
X014230Y008424D02*
X020217Y008424D01*
X020206Y008414D02*
X020206Y008401D01*
X020115Y008401D01*
X020009Y008295D01*
X020009Y008146D01*
X020053Y008103D01*
X020009Y008059D01*
X020009Y007910D01*
X020115Y007805D01*
X020206Y007805D01*
X020206Y007792D01*
X020312Y007687D01*
X020461Y007687D01*
X020566Y007792D01*
X020566Y007941D01*
X020523Y007985D01*
X020566Y008028D01*
X020566Y008177D01*
X020523Y008221D01*
X020566Y008264D01*
X020566Y008414D01*
X020461Y008519D01*
X020312Y008519D01*
X020206Y008414D01*
X020039Y008326D02*
X013432Y008326D01*
X013479Y008227D02*
X020009Y008227D01*
X020027Y008129D02*
X013479Y008129D01*
X013479Y008030D02*
X020009Y008030D01*
X020009Y007932D02*
X013479Y007932D01*
X013479Y007833D02*
X018208Y007833D01*
X018159Y007784D02*
X018159Y007634D01*
X018264Y007529D01*
X018414Y007529D01*
X018477Y007592D01*
X018540Y007529D01*
X018689Y007529D01*
X018752Y007592D01*
X018816Y007529D01*
X018965Y007529D01*
X019028Y007592D01*
X019091Y007529D01*
X019240Y007529D01*
X019346Y007634D01*
X019346Y007784D01*
X019240Y007889D01*
X019091Y007889D01*
X019028Y007826D01*
X018965Y007889D01*
X018816Y007889D01*
X018752Y007826D01*
X018689Y007889D01*
X018540Y007889D01*
X018477Y007826D01*
X018414Y007889D01*
X018264Y007889D01*
X018159Y007784D01*
X018159Y007735D02*
X013479Y007735D01*
X013479Y007636D02*
X015374Y007636D01*
X015390Y007653D02*
X015285Y007547D01*
X015285Y007398D01*
X015390Y007293D01*
X015540Y007293D01*
X015645Y007398D01*
X015645Y007547D01*
X015540Y007653D01*
X015390Y007653D01*
X015285Y007538D02*
X013479Y007538D01*
X013479Y007439D02*
X015285Y007439D01*
X015343Y007341D02*
X013479Y007341D01*
X013479Y007242D02*
X017726Y007242D01*
X017726Y007201D02*
X017831Y007096D01*
X017980Y007096D01*
X018086Y007201D01*
X018086Y007351D01*
X017980Y007456D01*
X017831Y007456D01*
X017726Y007351D01*
X017726Y007201D01*
X017784Y007144D02*
X013479Y007144D01*
X013479Y007045D02*
X017499Y007045D01*
X017516Y007062D02*
X017411Y006957D01*
X017411Y006808D01*
X017490Y006729D01*
X017490Y006611D01*
X017595Y006505D01*
X017744Y006505D01*
X017850Y006611D01*
X017850Y006760D01*
X017771Y006839D01*
X017771Y006957D01*
X017666Y007062D01*
X017516Y007062D01*
X017411Y006947D02*
X013479Y006947D01*
X013479Y006848D02*
X017411Y006848D01*
X017469Y006750D02*
X013479Y006750D01*
X013479Y006651D02*
X017490Y006651D01*
X017548Y006553D02*
X013479Y006553D01*
X013479Y006454D02*
X021431Y006454D01*
X021529Y006553D02*
X017791Y006553D01*
X017850Y006651D02*
X021628Y006651D01*
X021726Y006750D02*
X017850Y006750D01*
X017771Y006848D02*
X019418Y006848D01*
X019446Y006820D02*
X019595Y006820D01*
X019700Y006926D01*
X019700Y007075D01*
X019595Y007180D01*
X019582Y007180D01*
X019582Y007272D01*
X019477Y007377D01*
X019327Y007377D01*
X019222Y007272D01*
X019222Y007123D01*
X019327Y007017D01*
X019340Y007017D01*
X019340Y006926D01*
X019446Y006820D01*
X019340Y006947D02*
X017771Y006947D01*
X017683Y007045D02*
X019300Y007045D01*
X019222Y007144D02*
X018028Y007144D01*
X018086Y007242D02*
X019222Y007242D01*
X019291Y007341D02*
X018086Y007341D01*
X017997Y007439D02*
X022416Y007439D01*
X022514Y007538D02*
X019249Y007538D01*
X019346Y007636D02*
X022613Y007636D01*
X022711Y007735D02*
X020509Y007735D01*
X020566Y007833D02*
X022810Y007833D01*
X022908Y007932D02*
X020566Y007932D01*
X020566Y008030D02*
X023007Y008030D01*
X023105Y008129D02*
X020566Y008129D01*
X020529Y008227D02*
X023204Y008227D01*
X023302Y008326D02*
X020566Y008326D01*
X020556Y008424D02*
X023401Y008424D01*
X023499Y008523D02*
X019013Y008523D01*
X018965Y008474D02*
X019070Y008579D01*
X019070Y008728D01*
X018965Y008834D01*
X018816Y008834D01*
X018710Y008728D01*
X018710Y008579D01*
X018816Y008474D01*
X018965Y008474D01*
X019070Y008621D02*
X019417Y008621D01*
X019318Y008720D02*
X019070Y008720D01*
X018981Y008818D02*
X019222Y008818D01*
X019532Y009015D02*
X023987Y009015D01*
X023987Y009114D02*
X022951Y009114D01*
X022968Y009212D02*
X023987Y009212D01*
X024266Y009212D02*
X035083Y009212D01*
X035083Y009114D02*
X024266Y009114D01*
X024266Y009015D02*
X035083Y009015D01*
X035083Y008917D02*
X029000Y008917D01*
X029031Y008886D02*
X029031Y008795D01*
X029122Y008795D01*
X029228Y008689D01*
X029228Y008540D01*
X029122Y008435D01*
X028973Y008435D01*
X028868Y008540D01*
X028868Y008631D01*
X028776Y008631D01*
X028671Y008737D01*
X028671Y008886D01*
X028776Y008991D01*
X028925Y008991D01*
X029031Y008886D01*
X029031Y008818D02*
X035083Y008818D01*
X035083Y008720D02*
X029197Y008720D01*
X029228Y008621D02*
X035083Y008621D01*
X035083Y008523D02*
X029210Y008523D01*
X029406Y008361D02*
X029301Y008256D01*
X029301Y008107D01*
X029406Y008001D01*
X029458Y008001D01*
X029458Y007949D01*
X029564Y007844D01*
X029713Y007844D01*
X029818Y007949D01*
X029818Y008099D01*
X029713Y008204D01*
X029661Y008204D01*
X029661Y008256D01*
X029555Y008361D01*
X029406Y008361D01*
X029370Y008326D02*
X023664Y008326D01*
X023762Y008424D02*
X035083Y008424D01*
X035083Y008326D02*
X029591Y008326D01*
X029661Y008227D02*
X030138Y008227D01*
X030088Y008177D02*
X030088Y008028D01*
X030194Y007923D01*
X030343Y007923D01*
X030448Y008028D01*
X030448Y008177D01*
X030343Y008283D01*
X030194Y008283D01*
X030088Y008177D01*
X030088Y008129D02*
X029788Y008129D01*
X029818Y008030D02*
X030088Y008030D01*
X030185Y007932D02*
X029800Y007932D01*
X029476Y007932D02*
X023270Y007932D01*
X023368Y008030D02*
X029378Y008030D01*
X029301Y008129D02*
X023467Y008129D01*
X023565Y008227D02*
X029301Y008227D01*
X028885Y008523D02*
X023861Y008523D01*
X023959Y008621D02*
X028868Y008621D01*
X028688Y008720D02*
X024058Y008720D01*
X024156Y008818D02*
X028671Y008818D01*
X028701Y008917D02*
X024255Y008917D01*
X023893Y008917D02*
X019582Y008917D01*
X019729Y008818D02*
X023795Y008818D01*
X023696Y008720D02*
X019739Y008720D01*
X019702Y008621D02*
X023598Y008621D01*
X024266Y009311D02*
X035083Y009311D01*
X035083Y009409D02*
X024266Y009409D01*
X024266Y009508D02*
X035083Y009508D01*
X035083Y009606D02*
X024266Y009606D01*
X024266Y009705D02*
X035083Y009705D01*
X035083Y009803D02*
X024266Y009803D01*
X024266Y009902D02*
X035083Y009902D01*
X035083Y010000D02*
X024266Y010000D01*
X024266Y010099D02*
X035083Y010099D01*
X035083Y010197D02*
X024266Y010197D01*
X024266Y010296D02*
X035083Y010296D01*
X035083Y010394D02*
X024266Y010394D01*
X024266Y010493D02*
X035083Y010493D01*
X035083Y010591D02*
X024266Y010591D01*
X024266Y010690D02*
X035083Y010690D01*
X035083Y010788D02*
X024266Y010788D01*
X024266Y010887D02*
X029474Y010887D01*
X029458Y010902D02*
X029564Y010797D01*
X029713Y010797D01*
X029818Y010902D01*
X029818Y011051D01*
X029713Y011157D01*
X029564Y011157D01*
X029458Y011051D01*
X029458Y010902D01*
X029458Y010985D02*
X024266Y010985D01*
X024266Y011084D02*
X029490Y011084D01*
X029786Y011084D02*
X030143Y011084D01*
X030151Y011075D02*
X030127Y011051D01*
X030127Y010902D01*
X030233Y010797D01*
X030382Y010797D01*
X030487Y010902D01*
X030487Y011051D01*
X030464Y011075D01*
X030487Y011099D01*
X030487Y011248D01*
X030382Y011354D01*
X030233Y011354D01*
X030127Y011248D01*
X030127Y011099D01*
X030151Y011075D01*
X030127Y010985D02*
X029818Y010985D01*
X029803Y010887D02*
X030143Y010887D01*
X030127Y011182D02*
X024266Y011182D01*
X024266Y011281D02*
X030160Y011281D01*
X030455Y011281D02*
X035083Y011281D01*
X035083Y011379D02*
X024266Y011379D01*
X024266Y011478D02*
X035083Y011478D01*
X035083Y011576D02*
X024266Y011576D01*
X024266Y011675D02*
X035083Y011675D01*
X035083Y011773D02*
X024266Y011773D01*
X024266Y011872D02*
X035083Y011872D01*
X035083Y011970D02*
X024266Y011970D01*
X024266Y012069D02*
X035083Y012069D01*
X035083Y012167D02*
X031004Y012167D01*
X031039Y012201D02*
X031039Y012293D01*
X031130Y012293D01*
X031236Y012398D01*
X031236Y012547D01*
X031130Y012653D01*
X030981Y012653D01*
X030876Y012547D01*
X030876Y012456D01*
X030784Y012456D01*
X030679Y012351D01*
X030679Y012201D01*
X030784Y012096D01*
X030933Y012096D01*
X031039Y012201D01*
X031039Y012266D02*
X035083Y012266D01*
X035083Y012364D02*
X031201Y012364D01*
X031236Y012463D02*
X035083Y012463D01*
X035083Y012561D02*
X031222Y012561D01*
X030889Y012561D02*
X027692Y012561D01*
X027692Y012626D02*
X027587Y012732D01*
X027438Y012732D01*
X027332Y012626D01*
X027332Y012477D01*
X027438Y012372D01*
X027587Y012372D01*
X027692Y012477D01*
X027692Y012626D01*
X027659Y012660D02*
X034236Y012660D01*
X034222Y012674D02*
X034327Y012568D01*
X034477Y012568D01*
X034582Y012674D01*
X034582Y012823D01*
X034477Y012928D01*
X034327Y012928D01*
X034222Y012823D01*
X034222Y012674D01*
X034222Y012758D02*
X024266Y012758D01*
X024266Y012660D02*
X027366Y012660D01*
X027332Y012561D02*
X024266Y012561D01*
X024266Y012463D02*
X027347Y012463D01*
X027678Y012463D02*
X030876Y012463D01*
X030692Y012364D02*
X024266Y012364D01*
X024266Y012266D02*
X030679Y012266D01*
X030713Y012167D02*
X024266Y012167D01*
X023987Y012167D02*
X013702Y012167D01*
X013716Y012069D02*
X023987Y012069D01*
X023987Y012857D02*
X008032Y012857D01*
X008020Y012844D02*
X008125Y012949D01*
X008125Y013099D01*
X008020Y013204D01*
X007871Y013204D01*
X007765Y013099D01*
X007765Y012949D01*
X007871Y012844D01*
X008020Y012844D01*
X008125Y012955D02*
X023987Y012955D01*
X023987Y013054D02*
X020788Y013054D01*
X020802Y013068D02*
X020697Y012962D01*
X020548Y012962D01*
X020442Y013068D01*
X020442Y013217D01*
X020548Y013322D01*
X020697Y013322D01*
X020802Y013217D01*
X020802Y013068D01*
X020802Y013152D02*
X023987Y013152D01*
X023987Y013251D02*
X020769Y013251D01*
X020476Y013251D02*
X009962Y013251D01*
X009976Y013264D02*
X009870Y013159D01*
X009721Y013159D01*
X009616Y013264D01*
X009616Y013414D01*
X009721Y013519D01*
X009870Y013519D01*
X009976Y013414D01*
X009976Y013264D01*
X009976Y013349D02*
X023987Y013349D01*
X024015Y013448D02*
X023741Y013448D01*
X023755Y013461D02*
X023650Y013356D01*
X023501Y013356D01*
X023395Y013461D01*
X023395Y013610D01*
X023501Y013716D01*
X023650Y013716D01*
X023755Y013610D01*
X023755Y013461D01*
X023755Y013546D02*
X024113Y013546D01*
X024212Y013645D02*
X023721Y013645D01*
X023429Y013645D02*
X016831Y013645D01*
X016865Y013610D02*
X016760Y013716D01*
X016611Y013716D01*
X016505Y013610D01*
X016505Y013461D01*
X016611Y013356D01*
X016760Y013356D01*
X016865Y013461D01*
X016865Y013610D01*
X016865Y013546D02*
X023395Y013546D01*
X023409Y013448D02*
X016852Y013448D01*
X016519Y013448D02*
X014686Y013448D01*
X014700Y013461D02*
X014595Y013356D01*
X014446Y013356D01*
X014340Y013461D01*
X014340Y013610D01*
X014446Y013716D01*
X014595Y013716D01*
X014700Y013610D01*
X014700Y013461D01*
X014700Y013546D02*
X016505Y013546D01*
X016540Y013645D02*
X014666Y013645D01*
X014374Y013645D02*
X003052Y013645D01*
X003086Y013610D02*
X002980Y013716D01*
X002831Y013716D01*
X002726Y013610D01*
X002726Y013461D01*
X002831Y013356D01*
X002980Y013356D01*
X003086Y013461D01*
X003086Y013610D01*
X003086Y013546D02*
X014340Y013546D01*
X014354Y013448D02*
X009942Y013448D01*
X009650Y013448D02*
X003072Y013448D01*
X002740Y013448D02*
X000650Y013448D01*
X000650Y013546D02*
X002726Y013546D01*
X002760Y013645D02*
X001694Y013645D01*
X001708Y013658D02*
X001603Y013553D01*
X001453Y013553D01*
X001348Y013658D01*
X001348Y013807D01*
X001453Y013913D01*
X001603Y013913D01*
X001708Y013807D01*
X001708Y013658D01*
X001708Y013743D02*
X024310Y013743D01*
X024409Y013842D02*
X020592Y013842D01*
X020606Y013855D02*
X020500Y013750D01*
X020351Y013750D01*
X020246Y013855D01*
X020246Y014004D01*
X020351Y014110D01*
X020500Y014110D01*
X020606Y014004D01*
X020606Y013855D01*
X020606Y013940D02*
X024507Y013940D01*
X024606Y014039D02*
X020571Y014039D01*
X020280Y014039D02*
X015256Y014039D01*
X015291Y014004D02*
X015185Y014110D01*
X015036Y014110D01*
X014931Y014004D01*
X014931Y013855D01*
X015036Y013750D01*
X015185Y013750D01*
X015291Y013855D01*
X015291Y014004D01*
X015291Y013940D02*
X020246Y013940D01*
X020259Y013842D02*
X015277Y013842D01*
X014944Y013842D02*
X005828Y013842D01*
X005842Y013855D02*
X005736Y013750D01*
X005587Y013750D01*
X005482Y013855D01*
X005482Y014004D01*
X005587Y014110D01*
X005736Y014110D01*
X005842Y014004D01*
X005842Y013855D01*
X005842Y013940D02*
X014931Y013940D01*
X014965Y014039D02*
X012128Y014039D01*
X012141Y014052D02*
X012036Y013946D01*
X011886Y013946D01*
X011781Y014052D01*
X011781Y014201D01*
X011886Y014306D01*
X012036Y014306D01*
X012141Y014201D01*
X012141Y014052D01*
X012141Y014137D02*
X024704Y014137D01*
X024803Y014236D02*
X012106Y014236D01*
X011816Y014236D02*
X000650Y014236D01*
X000650Y014334D02*
X024901Y014334D01*
X025000Y014433D02*
X000650Y014433D01*
X000650Y014531D02*
X025098Y014531D01*
X025197Y014630D02*
X000650Y014630D01*
X000650Y014728D02*
X025295Y014728D01*
X025394Y014827D02*
X009963Y014827D01*
X009976Y014839D02*
X009870Y014734D01*
X009721Y014734D01*
X009616Y014839D01*
X009616Y014988D01*
X009721Y015094D01*
X009870Y015094D01*
X009976Y014988D01*
X009976Y014839D01*
X009976Y014925D02*
X025492Y014925D01*
X025591Y015024D02*
X019609Y015024D01*
X019621Y015036D02*
X019516Y014931D01*
X019367Y014931D01*
X019261Y015036D01*
X019261Y015185D01*
X019367Y015291D01*
X019516Y015291D01*
X019621Y015185D01*
X019621Y015036D01*
X019621Y015122D02*
X025689Y015122D01*
X025788Y015221D02*
X019586Y015221D01*
X019297Y015221D02*
X015278Y015221D01*
X015291Y015233D02*
X015185Y015127D01*
X015036Y015127D01*
X014931Y015233D01*
X014931Y015382D01*
X015036Y015487D01*
X015185Y015487D01*
X015291Y015382D01*
X015291Y015233D01*
X015291Y015319D02*
X025886Y015319D01*
X025985Y015418D02*
X022365Y015418D01*
X022377Y015430D02*
X022272Y015324D01*
X022123Y015324D01*
X022017Y015430D01*
X022017Y015579D01*
X022123Y015684D01*
X022272Y015684D01*
X022377Y015579D01*
X022377Y015430D01*
X022377Y015516D02*
X026083Y015516D01*
X026182Y015615D02*
X022342Y015615D01*
X022053Y015615D02*
X009964Y015615D01*
X009976Y015627D02*
X009870Y015521D01*
X009721Y015521D01*
X009616Y015627D01*
X009616Y015776D01*
X009721Y015881D01*
X009870Y015881D01*
X009976Y015776D01*
X009976Y015627D01*
X009976Y015713D02*
X026280Y015713D01*
X026379Y015812D02*
X012523Y015812D01*
X012535Y015823D02*
X012429Y015718D01*
X012280Y015718D01*
X012175Y015823D01*
X012175Y015973D01*
X012280Y016078D01*
X012429Y016078D01*
X012535Y015973D01*
X012535Y015823D01*
X012535Y015910D02*
X026477Y015910D01*
X026576Y016009D02*
X024531Y016009D01*
X024543Y016020D02*
X024437Y015915D01*
X024288Y015915D01*
X024183Y016020D01*
X024183Y016169D01*
X024288Y016275D01*
X024437Y016275D01*
X024543Y016169D01*
X024543Y016020D01*
X024543Y016107D02*
X026674Y016107D01*
X026773Y016206D02*
X024506Y016206D01*
X024219Y016206D02*
X000650Y016206D01*
X000650Y016304D02*
X026871Y016304D01*
X026970Y016403D02*
X007799Y016403D01*
X007810Y016414D02*
X007705Y016309D01*
X007556Y016309D01*
X007450Y016414D01*
X007450Y016563D01*
X007556Y016669D01*
X007705Y016669D01*
X007810Y016563D01*
X007810Y016414D01*
X007810Y016501D02*
X027068Y016501D01*
X027167Y016600D02*
X007774Y016600D01*
X007487Y016600D02*
X000650Y016600D01*
X000650Y016698D02*
X027265Y016698D01*
X027364Y016797D02*
X014098Y016797D01*
X014110Y016808D02*
X014004Y016702D01*
X013855Y016702D01*
X013750Y016808D01*
X013750Y016957D01*
X013855Y017062D01*
X014004Y017062D01*
X014110Y016957D01*
X014110Y016808D01*
X014110Y016895D02*
X027462Y016895D01*
X027561Y016994D02*
X025713Y016994D01*
X025724Y017005D02*
X025618Y016899D01*
X025469Y016899D01*
X025364Y017005D01*
X025364Y017154D01*
X025469Y017259D01*
X025618Y017259D01*
X025724Y017154D01*
X025724Y017005D01*
X025724Y017092D02*
X027659Y017092D01*
X027758Y017191D02*
X027091Y017191D01*
X027102Y017201D02*
X026996Y017096D01*
X026847Y017096D01*
X026742Y017201D01*
X026742Y017351D01*
X026847Y017456D01*
X026996Y017456D01*
X027102Y017351D01*
X027102Y017201D01*
X027102Y017289D02*
X027856Y017289D01*
X027955Y017388D02*
X027065Y017388D01*
X026779Y017388D02*
X021159Y017388D01*
X021196Y017351D02*
X021091Y017456D01*
X020942Y017456D01*
X020836Y017351D01*
X020836Y017201D01*
X020942Y017096D01*
X021091Y017096D01*
X021196Y017201D01*
X021196Y017351D01*
X021196Y017289D02*
X026742Y017289D01*
X026753Y017191D02*
X025687Y017191D01*
X025401Y017191D02*
X021185Y017191D01*
X020847Y017191D02*
X019388Y017191D01*
X019424Y017154D02*
X019319Y017259D01*
X019170Y017259D01*
X019064Y017154D01*
X019064Y017005D01*
X019170Y016899D01*
X019319Y016899D01*
X019424Y017005D01*
X019424Y017154D01*
X019424Y017092D02*
X025364Y017092D01*
X025375Y016994D02*
X019413Y016994D01*
X019076Y016994D02*
X014073Y016994D01*
X013786Y016994D02*
X010161Y016994D01*
X010173Y017005D02*
X010067Y016899D01*
X009918Y016899D01*
X009813Y017005D01*
X009813Y017154D01*
X009918Y017259D01*
X010067Y017259D01*
X010173Y017154D01*
X010173Y017005D01*
X010173Y017092D02*
X019064Y017092D01*
X019101Y017191D02*
X010136Y017191D01*
X009849Y017191D02*
X006002Y017191D01*
X006039Y017154D02*
X005933Y017259D01*
X005784Y017259D01*
X005679Y017154D01*
X005679Y017005D01*
X005784Y016899D01*
X005933Y016899D01*
X006039Y017005D01*
X006039Y017154D01*
X006039Y017092D02*
X009813Y017092D01*
X009824Y016994D02*
X006028Y016994D01*
X005690Y016994D02*
X002801Y016994D01*
X002794Y016987D02*
X002998Y017191D01*
X003143Y017442D01*
X003218Y017722D01*
X003218Y018011D01*
X003143Y018291D01*
X002998Y018542D01*
X002794Y018746D01*
X002543Y018891D01*
X002263Y018966D01*
X001974Y018966D01*
X001694Y018891D01*
X001443Y018746D01*
X001239Y018542D01*
X001094Y018291D01*
X001019Y018011D01*
X001019Y017722D01*
X001094Y017442D01*
X001239Y017191D01*
X001443Y016987D01*
X001694Y016842D01*
X001974Y016767D01*
X002263Y016767D01*
X002543Y016842D01*
X002794Y016987D01*
X002899Y017092D02*
X005679Y017092D01*
X005716Y017191D02*
X002998Y017191D01*
X003055Y017289D02*
X020836Y017289D01*
X020873Y017388D02*
X018626Y017388D01*
X018637Y017398D02*
X018532Y017293D01*
X018383Y017293D01*
X018277Y017398D01*
X018277Y017547D01*
X018383Y017653D01*
X018532Y017653D01*
X018637Y017547D01*
X018637Y017398D01*
X018637Y017486D02*
X028053Y017486D01*
X028152Y017585D02*
X018600Y017585D01*
X018314Y017585D02*
X003181Y017585D01*
X003208Y017683D02*
X028250Y017683D01*
X028349Y017782D02*
X008390Y017782D01*
X008401Y017792D02*
X008295Y017687D01*
X008146Y017687D01*
X008041Y017792D01*
X008041Y017941D01*
X008146Y018047D01*
X008295Y018047D01*
X008401Y017941D01*
X008401Y017792D01*
X008401Y017880D02*
X028447Y017880D01*
X028546Y017979D02*
X025517Y017979D01*
X025527Y017989D02*
X025421Y017883D01*
X025272Y017883D01*
X025167Y017989D01*
X025167Y018138D01*
X025272Y018243D01*
X025421Y018243D01*
X025527Y018138D01*
X025527Y017989D01*
X025527Y018077D02*
X028644Y018077D01*
X028743Y018176D02*
X025489Y018176D01*
X025204Y018176D02*
X021777Y018176D01*
X021787Y018186D02*
X021681Y018080D01*
X021532Y018080D01*
X021427Y018186D01*
X021427Y018335D01*
X021532Y018440D01*
X021681Y018440D01*
X021787Y018335D01*
X021787Y018186D01*
X021787Y018274D02*
X028841Y018274D01*
X028940Y018373D02*
X021749Y018373D01*
X021464Y018373D02*
X003096Y018373D01*
X003148Y018274D02*
X021427Y018274D01*
X021437Y018176D02*
X015844Y018176D01*
X015881Y018138D02*
X015776Y018243D01*
X015627Y018243D01*
X015521Y018138D01*
X015521Y017989D01*
X015627Y017883D01*
X015776Y017883D01*
X015881Y017989D01*
X015881Y018138D01*
X015881Y018077D02*
X025167Y018077D01*
X025177Y017979D02*
X015871Y017979D01*
X015531Y017979D02*
X009375Y017979D01*
X009385Y017989D02*
X009280Y017883D01*
X009131Y017883D01*
X009025Y017989D01*
X009025Y018138D01*
X009131Y018243D01*
X009280Y018243D01*
X009385Y018138D01*
X009385Y017989D01*
X009385Y018077D02*
X015521Y018077D01*
X015559Y018176D02*
X009348Y018176D01*
X009063Y018176D02*
X003174Y018176D01*
X003200Y018077D02*
X009025Y018077D01*
X009035Y017979D02*
X008363Y017979D01*
X008078Y017979D02*
X006001Y017979D01*
X006039Y017941D02*
X005933Y018047D01*
X005784Y018047D01*
X005679Y017941D01*
X005679Y017792D01*
X005784Y017687D01*
X005933Y017687D01*
X006039Y017792D01*
X006039Y017941D01*
X006039Y017880D02*
X008041Y017880D01*
X008051Y017782D02*
X006028Y017782D01*
X005689Y017782D02*
X004453Y017782D01*
X004464Y017792D02*
X004358Y017687D01*
X004209Y017687D01*
X004104Y017792D01*
X004104Y017941D01*
X004209Y018047D01*
X004358Y018047D01*
X004464Y017941D01*
X004464Y017792D01*
X004464Y017880D02*
X005679Y017880D01*
X005716Y017979D02*
X004426Y017979D01*
X004141Y017979D02*
X003218Y017979D01*
X003218Y017880D02*
X004104Y017880D01*
X004114Y017782D02*
X003218Y017782D01*
X003155Y017486D02*
X018277Y017486D01*
X018288Y017388D02*
X003112Y017388D01*
X002635Y016895D02*
X013750Y016895D01*
X013761Y016797D02*
X002374Y016797D01*
X001863Y016797D02*
X000650Y016797D01*
X000650Y016895D02*
X001602Y016895D01*
X001436Y016994D02*
X000650Y016994D01*
X000650Y017092D02*
X001338Y017092D01*
X001239Y017191D02*
X000650Y017191D01*
X000650Y017289D02*
X001182Y017289D01*
X001125Y017388D02*
X000650Y017388D01*
X000650Y017486D02*
X001082Y017486D01*
X001056Y017585D02*
X000650Y017585D01*
X000650Y017683D02*
X001029Y017683D01*
X001019Y017782D02*
X000650Y017782D01*
X000650Y017880D02*
X001019Y017880D01*
X001019Y017979D02*
X000650Y017979D01*
X000650Y018077D02*
X001037Y018077D01*
X001063Y018176D02*
X000650Y018176D01*
X000650Y018274D02*
X001089Y018274D01*
X001141Y018373D02*
X000650Y018373D01*
X000650Y018471D02*
X001198Y018471D01*
X001266Y018570D02*
X000650Y018570D01*
X000650Y018668D02*
X001365Y018668D01*
X001478Y018767D02*
X000650Y018767D01*
X000650Y018865D02*
X001649Y018865D01*
X001964Y018964D02*
X000650Y018964D01*
X000650Y019062D02*
X010009Y019062D01*
X010009Y019122D02*
X010009Y018973D01*
X010115Y018868D01*
X010264Y018868D01*
X010369Y018973D01*
X010369Y019122D01*
X010264Y019228D01*
X010115Y019228D01*
X010009Y019122D01*
X010048Y019161D02*
X007801Y019161D01*
X007810Y019170D02*
X007705Y019064D01*
X007556Y019064D01*
X007450Y019170D01*
X007450Y019319D01*
X007556Y019424D01*
X007705Y019424D01*
X007810Y019319D01*
X007810Y019170D01*
X007810Y019259D02*
X014734Y019259D01*
X014734Y019319D02*
X014734Y019170D01*
X014839Y019064D01*
X014988Y019064D01*
X015094Y019170D01*
X015094Y019319D01*
X014988Y019424D01*
X014839Y019424D01*
X014734Y019319D01*
X014772Y019358D02*
X007772Y019358D01*
X007489Y019358D02*
X000650Y019358D01*
X000650Y019456D02*
X019458Y019456D01*
X019458Y019516D02*
X019458Y019367D01*
X019564Y019261D01*
X019713Y019261D01*
X019818Y019367D01*
X019818Y019516D01*
X019713Y019621D01*
X019564Y019621D01*
X019458Y019516D01*
X019497Y019555D02*
X000650Y019555D01*
X000650Y019653D02*
X025561Y019653D01*
X025561Y019713D02*
X025561Y019564D01*
X025666Y019458D01*
X025815Y019458D01*
X025921Y019564D01*
X025921Y019713D01*
X025815Y019818D01*
X025666Y019818D01*
X025561Y019713D01*
X025599Y019752D02*
X016069Y019752D01*
X016078Y019760D02*
X015973Y019655D01*
X015823Y019655D01*
X015718Y019760D01*
X015718Y019910D01*
X015823Y020015D01*
X015973Y020015D01*
X016078Y019910D01*
X016078Y019760D01*
X016078Y019850D02*
X030417Y019850D01*
X030319Y019752D02*
X025882Y019752D01*
X025921Y019653D02*
X030220Y019653D01*
X030122Y019555D02*
X025911Y019555D01*
X025570Y019555D02*
X019780Y019555D01*
X019818Y019456D02*
X030023Y019456D01*
X029925Y019358D02*
X019809Y019358D01*
X019467Y019358D02*
X017614Y019358D01*
X017653Y019319D02*
X017547Y019424D01*
X017398Y019424D01*
X017293Y019319D01*
X017293Y019170D01*
X017398Y019064D01*
X017547Y019064D01*
X017653Y019170D01*
X017653Y019319D01*
X017653Y019259D02*
X029826Y019259D01*
X029728Y019161D02*
X027457Y019161D01*
X027495Y019122D02*
X027390Y019228D01*
X027241Y019228D01*
X027135Y019122D01*
X027135Y018973D01*
X027241Y018868D01*
X027390Y018868D01*
X027495Y018973D01*
X027495Y019122D01*
X027495Y019062D02*
X029629Y019062D01*
X029531Y018964D02*
X027486Y018964D01*
X027145Y018964D02*
X021158Y018964D01*
X021196Y018925D02*
X021091Y019031D01*
X020942Y019031D01*
X020836Y018925D01*
X020836Y018776D01*
X020942Y018671D01*
X021091Y018671D01*
X021196Y018776D01*
X021196Y018925D01*
X021196Y018865D02*
X029432Y018865D01*
X029334Y018767D02*
X021186Y018767D01*
X020846Y018767D02*
X020202Y018767D01*
X020212Y018776D02*
X020106Y018671D01*
X019957Y018671D01*
X019852Y018776D01*
X019852Y018925D01*
X019957Y019031D01*
X020106Y019031D01*
X020212Y018925D01*
X020212Y018776D01*
X020212Y018865D02*
X020836Y018865D01*
X020874Y018964D02*
X020174Y018964D01*
X019890Y018964D02*
X016659Y018964D01*
X016669Y018973D02*
X016563Y018868D01*
X016414Y018868D01*
X016309Y018973D01*
X016309Y019122D01*
X016414Y019228D01*
X016563Y019228D01*
X016669Y019122D01*
X016669Y018973D01*
X016669Y019062D02*
X027135Y019062D01*
X027174Y019161D02*
X017643Y019161D01*
X017302Y019161D02*
X016630Y019161D01*
X016347Y019161D02*
X015084Y019161D01*
X015094Y019259D02*
X017293Y019259D01*
X017331Y019358D02*
X015055Y019358D01*
X014743Y019161D02*
X010331Y019161D01*
X010369Y019062D02*
X016309Y019062D01*
X016318Y018964D02*
X010360Y018964D01*
X010019Y018964D02*
X006985Y018964D01*
X007023Y018925D02*
X006917Y019031D01*
X006768Y019031D01*
X006663Y018925D01*
X006663Y018776D01*
X006768Y018671D01*
X006917Y018671D01*
X007023Y018776D01*
X007023Y018925D01*
X007023Y018865D02*
X019852Y018865D01*
X019862Y018767D02*
X018796Y018767D01*
X018834Y018728D02*
X018728Y018834D01*
X018579Y018834D01*
X018474Y018728D01*
X018474Y018579D01*
X018579Y018474D01*
X018728Y018474D01*
X018834Y018579D01*
X018834Y018728D01*
X018834Y018668D02*
X029235Y018668D01*
X029137Y018570D02*
X018824Y018570D01*
X018484Y018570D02*
X002971Y018570D01*
X003039Y018471D02*
X029038Y018471D01*
X029242Y018274D02*
X032585Y018274D01*
X032590Y018291D02*
X032515Y018011D01*
X032515Y017722D01*
X032590Y017442D01*
X032735Y017191D01*
X032939Y016987D01*
X033190Y016842D01*
X033470Y016767D01*
X033759Y016767D01*
X034039Y016842D01*
X034290Y016987D01*
X034494Y017191D01*
X035083Y017191D01*
X035083Y017289D02*
X034551Y017289D01*
X034494Y017191D02*
X034639Y017442D01*
X034714Y017722D01*
X034714Y018011D01*
X034639Y018291D01*
X034494Y018542D01*
X034290Y018746D01*
X034039Y018891D01*
X033759Y018966D01*
X033470Y018966D01*
X033190Y018891D01*
X032939Y018746D01*
X032735Y018542D01*
X032590Y018291D01*
X032637Y018373D02*
X029341Y018373D01*
X029439Y018471D02*
X032694Y018471D01*
X032763Y018570D02*
X029538Y018570D01*
X029636Y018668D02*
X032861Y018668D01*
X032974Y018767D02*
X029735Y018767D01*
X029833Y018865D02*
X033145Y018865D01*
X033460Y018964D02*
X029932Y018964D01*
X030030Y019062D02*
X035083Y019062D01*
X035083Y018964D02*
X033769Y018964D01*
X034084Y018865D02*
X035083Y018865D01*
X035083Y018767D02*
X034255Y018767D01*
X034368Y018668D02*
X035083Y018668D01*
X035083Y018570D02*
X034467Y018570D01*
X034535Y018471D02*
X035083Y018471D01*
X035083Y018373D02*
X034592Y018373D01*
X034644Y018274D02*
X035083Y018274D01*
X035083Y018176D02*
X034670Y018176D01*
X034697Y018077D02*
X035083Y018077D01*
X035083Y017979D02*
X034714Y017979D01*
X034714Y017880D02*
X035083Y017880D01*
X035083Y017782D02*
X034714Y017782D01*
X034704Y017683D02*
X035083Y017683D01*
X035083Y017585D02*
X034677Y017585D01*
X034651Y017486D02*
X035083Y017486D01*
X035083Y017388D02*
X034608Y017388D01*
X034395Y017092D02*
X035083Y017092D01*
X035083Y016994D02*
X034297Y016994D01*
X034131Y016895D02*
X035083Y016895D01*
X035083Y016797D02*
X033870Y016797D01*
X033359Y016797D02*
X027765Y016797D01*
X027863Y016895D02*
X033098Y016895D01*
X032932Y016994D02*
X027962Y016994D01*
X028060Y017092D02*
X030749Y017092D01*
X030718Y017123D02*
X030823Y017017D01*
X030973Y017017D01*
X031078Y017123D01*
X031078Y017214D01*
X031169Y017214D01*
X031275Y017320D01*
X031275Y017469D01*
X031169Y017574D01*
X031020Y017574D01*
X030915Y017469D01*
X030915Y017377D01*
X030823Y017377D01*
X030718Y017272D01*
X030718Y017123D01*
X030718Y017191D02*
X028159Y017191D01*
X028257Y017289D02*
X030735Y017289D01*
X030915Y017388D02*
X028356Y017388D01*
X028454Y017486D02*
X030932Y017486D01*
X031257Y017486D02*
X032578Y017486D01*
X032552Y017585D02*
X028553Y017585D01*
X028651Y017683D02*
X032525Y017683D01*
X032515Y017782D02*
X028750Y017782D01*
X028848Y017880D02*
X032515Y017880D01*
X032515Y017979D02*
X028947Y017979D01*
X029045Y018077D02*
X032533Y018077D01*
X032559Y018176D02*
X029144Y018176D01*
X030129Y019161D02*
X035083Y019161D01*
X035083Y019259D02*
X030227Y019259D01*
X030326Y019358D02*
X035083Y019358D01*
X035083Y019456D02*
X030424Y019456D01*
X030523Y019555D02*
X035083Y019555D01*
X035083Y019653D02*
X030621Y019653D01*
X030720Y019752D02*
X035083Y019752D01*
X035083Y019850D02*
X030818Y019850D01*
X030917Y019949D02*
X033837Y019949D01*
X033828Y019957D02*
X033934Y019852D01*
X034083Y019852D01*
X034188Y019957D01*
X034188Y020106D01*
X034083Y020212D01*
X033934Y020212D01*
X033828Y020106D01*
X033828Y019957D01*
X033828Y020047D02*
X031015Y020047D01*
X031114Y020146D02*
X033867Y020146D01*
X034149Y020146D02*
X035083Y020146D01*
X035083Y020244D02*
X031156Y020244D01*
X031156Y020343D02*
X035083Y020343D01*
X035083Y020441D02*
X031156Y020441D01*
X031156Y020540D02*
X035083Y020540D01*
X035083Y020638D02*
X031156Y020638D01*
X031156Y020737D02*
X035083Y020737D01*
X035083Y020835D02*
X031156Y020835D01*
X031156Y020934D02*
X035083Y020934D01*
X035083Y021032D02*
X031156Y021032D01*
X031156Y021131D02*
X035083Y021131D01*
X035083Y021229D02*
X031156Y021229D01*
X031156Y021328D02*
X035083Y021328D01*
X035083Y021426D02*
X031156Y021426D01*
X031156Y021525D02*
X035083Y021525D01*
X035083Y021623D02*
X031156Y021623D01*
X030916Y021623D02*
X000650Y021623D01*
X000650Y021525D02*
X014380Y021525D01*
X014340Y021484D02*
X014446Y021590D01*
X014595Y021590D01*
X014700Y021484D01*
X014700Y021335D01*
X014595Y021230D01*
X014446Y021230D01*
X014340Y021335D01*
X014340Y021484D01*
X014340Y021426D02*
X000650Y021426D01*
X000650Y021328D02*
X014348Y021328D01*
X014692Y021328D02*
X023632Y021328D01*
X023592Y021288D02*
X023592Y021138D01*
X023697Y021033D01*
X023847Y021033D01*
X023952Y021138D01*
X023952Y021288D01*
X023847Y021393D01*
X023697Y021393D01*
X023592Y021288D01*
X023592Y021229D02*
X000650Y021229D01*
X000650Y021131D02*
X009065Y021131D01*
X009025Y021091D02*
X009131Y021196D01*
X009280Y021196D01*
X009385Y021091D01*
X009385Y020942D01*
X009280Y020836D01*
X009131Y020836D01*
X009025Y020942D01*
X009025Y021091D01*
X009025Y021032D02*
X000650Y021032D01*
X000650Y020934D02*
X009033Y020934D01*
X009377Y020934D02*
X012018Y020934D01*
X011978Y020894D02*
X011978Y020745D01*
X012083Y020639D01*
X012232Y020639D01*
X012338Y020745D01*
X012338Y020894D01*
X012232Y020999D01*
X012083Y020999D01*
X011978Y020894D01*
X011978Y020835D02*
X000650Y020835D01*
X000650Y020737D02*
X011986Y020737D01*
X012330Y020737D02*
X012773Y020737D01*
X012765Y020745D02*
X012871Y020639D01*
X013020Y020639D01*
X013125Y020745D01*
X013125Y020894D01*
X013020Y020999D01*
X012871Y020999D01*
X012765Y020894D01*
X012765Y020745D01*
X012765Y020835D02*
X012338Y020835D01*
X012298Y020934D02*
X012805Y020934D01*
X013086Y020934D02*
X013986Y020934D01*
X013946Y020894D02*
X013946Y020745D01*
X014052Y020639D01*
X014201Y020639D01*
X014306Y020745D01*
X014306Y020894D01*
X014201Y020999D01*
X014052Y020999D01*
X013946Y020894D01*
X013946Y020835D02*
X013125Y020835D01*
X013117Y020737D02*
X013955Y020737D01*
X014298Y020737D02*
X023207Y020737D01*
X023198Y020745D02*
X023304Y020639D01*
X023453Y020639D01*
X023558Y020745D01*
X023558Y020894D01*
X023453Y020999D01*
X023304Y020999D01*
X023198Y020894D01*
X023198Y020745D01*
X023198Y020835D02*
X014306Y020835D01*
X014267Y020934D02*
X016513Y020934D01*
X016505Y020942D02*
X016611Y020836D01*
X016760Y020836D01*
X016865Y020942D01*
X016865Y021091D01*
X016760Y021196D01*
X016611Y021196D01*
X016505Y021091D01*
X016505Y020942D01*
X016505Y021032D02*
X009385Y021032D01*
X009345Y021131D02*
X016545Y021131D01*
X016826Y021131D02*
X021467Y021131D01*
X021427Y021091D02*
X021427Y020942D01*
X021532Y020836D01*
X021681Y020836D01*
X021787Y020942D01*
X021787Y021091D01*
X021681Y021196D01*
X021532Y021196D01*
X021427Y021091D01*
X021427Y021032D02*
X016865Y021032D01*
X016857Y020934D02*
X021435Y020934D01*
X021779Y020934D02*
X023238Y020934D01*
X023519Y020934D02*
X030916Y020934D01*
X030916Y021032D02*
X021787Y021032D01*
X021747Y021131D02*
X023600Y021131D01*
X023558Y020835D02*
X030916Y020835D01*
X030916Y020737D02*
X023550Y020737D01*
X023944Y021131D02*
X024978Y021131D01*
X024970Y021138D02*
X025075Y021033D01*
X025225Y021033D01*
X025330Y021138D01*
X025330Y021288D01*
X025225Y021393D01*
X025075Y021393D01*
X024970Y021288D01*
X024970Y021138D01*
X024970Y021229D02*
X023952Y021229D01*
X023912Y021328D02*
X025010Y021328D01*
X025290Y021328D02*
X029144Y021328D01*
X029104Y021288D02*
X029104Y021138D01*
X029209Y021033D01*
X029358Y021033D01*
X029464Y021138D01*
X029464Y021288D01*
X029358Y021393D01*
X029209Y021393D01*
X029104Y021288D01*
X029104Y021229D02*
X025330Y021229D01*
X025322Y021131D02*
X029112Y021131D01*
X029456Y021131D02*
X030916Y021131D01*
X030916Y021229D02*
X029464Y021229D01*
X029424Y021328D02*
X030916Y021328D01*
X030916Y021426D02*
X014700Y021426D01*
X014660Y021525D02*
X030916Y021525D01*
X030916Y020638D02*
X000650Y020638D01*
X000650Y020540D02*
X003946Y020540D01*
X003907Y020500D02*
X003907Y020351D01*
X004012Y020246D01*
X004162Y020246D01*
X004267Y020351D01*
X004267Y020500D01*
X004162Y020606D01*
X004012Y020606D01*
X003907Y020500D01*
X003907Y020441D02*
X000650Y020441D01*
X000650Y020343D02*
X003915Y020343D01*
X004259Y020343D02*
X006868Y020343D01*
X006860Y020351D02*
X006965Y020246D01*
X007114Y020246D01*
X007220Y020351D01*
X007220Y020500D01*
X007114Y020606D01*
X006965Y020606D01*
X006860Y020500D01*
X006860Y020351D01*
X006860Y020441D02*
X004267Y020441D01*
X004228Y020540D02*
X006899Y020540D01*
X007180Y020540D02*
X025403Y020540D01*
X025364Y020500D02*
X025364Y020351D01*
X025469Y020246D01*
X025618Y020246D01*
X025724Y020351D01*
X025724Y020500D01*
X025618Y020606D01*
X025469Y020606D01*
X025364Y020500D01*
X025364Y020441D02*
X007220Y020441D01*
X007211Y020343D02*
X025372Y020343D01*
X025715Y020343D02*
X030910Y020343D01*
X030916Y020441D02*
X025724Y020441D01*
X025684Y020540D02*
X030916Y020540D01*
X030811Y020244D02*
X000650Y020244D01*
X000650Y020146D02*
X002962Y020146D01*
X002923Y020106D02*
X002923Y019957D01*
X003028Y019852D01*
X003177Y019852D01*
X003283Y019957D01*
X003283Y020106D01*
X003177Y020212D01*
X003028Y020212D01*
X002923Y020106D01*
X002923Y020047D02*
X000650Y020047D01*
X000650Y019949D02*
X000796Y019949D01*
X000757Y019910D02*
X000863Y020015D01*
X001012Y020015D01*
X001117Y019910D01*
X001117Y019760D01*
X001012Y019655D01*
X000863Y019655D01*
X000757Y019760D01*
X000757Y019910D01*
X000757Y019850D02*
X000650Y019850D01*
X000650Y019752D02*
X000766Y019752D01*
X001108Y019752D02*
X015727Y019752D01*
X015718Y019850D02*
X001117Y019850D01*
X001078Y019949D02*
X002932Y019949D01*
X003274Y019949D02*
X008443Y019949D01*
X008435Y019957D02*
X008540Y019852D01*
X008689Y019852D01*
X008795Y019957D01*
X008795Y020106D01*
X008689Y020212D01*
X008540Y020212D01*
X008435Y020106D01*
X008435Y019957D01*
X008435Y020047D02*
X003283Y020047D01*
X003244Y020146D02*
X008474Y020146D01*
X008755Y020146D02*
X030713Y020146D01*
X030614Y020047D02*
X008795Y020047D01*
X008786Y019949D02*
X015757Y019949D01*
X016039Y019949D02*
X030516Y019949D01*
X034179Y019949D02*
X035083Y019949D01*
X035083Y020047D02*
X034188Y020047D01*
X032621Y017388D02*
X031275Y017388D01*
X031244Y017289D02*
X032678Y017289D01*
X032735Y017191D02*
X031078Y017191D01*
X031047Y017092D02*
X032834Y017092D01*
X035083Y016304D02*
X030392Y016304D01*
X030382Y016314D02*
X030233Y016314D01*
X030127Y016209D01*
X030127Y016060D01*
X030151Y016036D01*
X030127Y016012D01*
X030127Y015863D01*
X030233Y015757D01*
X030382Y015757D01*
X030487Y015863D01*
X030487Y016012D01*
X030464Y016036D01*
X030487Y016060D01*
X030487Y016209D01*
X030382Y016314D01*
X030487Y016206D02*
X035083Y016206D01*
X035083Y016107D02*
X030487Y016107D01*
X030487Y016009D02*
X035083Y016009D01*
X035083Y015910D02*
X030487Y015910D01*
X030436Y015812D02*
X035083Y015812D01*
X035083Y015713D02*
X026681Y015713D01*
X026583Y015615D02*
X035083Y015615D01*
X035083Y015516D02*
X026484Y015516D01*
X026386Y015418D02*
X035083Y015418D01*
X035083Y015319D02*
X026287Y015319D01*
X026189Y015221D02*
X035083Y015221D01*
X035083Y015122D02*
X026090Y015122D01*
X025992Y015024D02*
X035083Y015024D01*
X035083Y014925D02*
X025893Y014925D01*
X025795Y014827D02*
X035083Y014827D01*
X035083Y014728D02*
X025696Y014728D01*
X025598Y014630D02*
X035083Y014630D01*
X035083Y014531D02*
X025499Y014531D01*
X025401Y014433D02*
X035083Y014433D01*
X035083Y014334D02*
X025302Y014334D01*
X025204Y014236D02*
X035083Y014236D01*
X035083Y014137D02*
X025105Y014137D01*
X025007Y014039D02*
X035083Y014039D01*
X035083Y013940D02*
X030847Y013940D01*
X030861Y013925D02*
X030756Y014031D01*
X030607Y014031D01*
X030501Y013925D01*
X030501Y013776D01*
X030607Y013671D01*
X030756Y013671D01*
X030861Y013776D01*
X030861Y013925D01*
X030861Y013842D02*
X035083Y013842D01*
X035083Y013743D02*
X030828Y013743D01*
X030535Y013743D02*
X024711Y013743D01*
X024613Y013645D02*
X035083Y013645D01*
X035083Y013546D02*
X029489Y013546D01*
X029503Y013532D02*
X029398Y013637D01*
X029249Y013637D01*
X029143Y013532D01*
X029143Y013383D01*
X029249Y013277D01*
X029398Y013277D01*
X029503Y013383D01*
X029503Y013532D01*
X029503Y013448D02*
X035083Y013448D01*
X035083Y013349D02*
X029470Y013349D01*
X029177Y013349D02*
X024317Y013349D01*
X024266Y013251D02*
X035083Y013251D01*
X035083Y013152D02*
X024266Y013152D01*
X024266Y013054D02*
X026185Y013054D01*
X026151Y013020D02*
X026151Y012871D01*
X026257Y012765D01*
X026406Y012765D01*
X026511Y012871D01*
X026511Y013020D01*
X026406Y013125D01*
X026257Y013125D01*
X026151Y013020D01*
X026151Y012955D02*
X024266Y012955D01*
X024266Y012857D02*
X026165Y012857D01*
X026497Y012857D02*
X034256Y012857D01*
X034548Y012857D02*
X035083Y012857D01*
X035083Y012955D02*
X026511Y012955D01*
X026477Y013054D02*
X035083Y013054D01*
X035083Y012758D02*
X034582Y012758D01*
X034568Y012660D02*
X035083Y012660D01*
X035083Y011182D02*
X030487Y011182D01*
X030472Y011084D02*
X035083Y011084D01*
X035083Y010985D02*
X030487Y010985D01*
X030472Y010887D02*
X035083Y010887D01*
X035083Y008227D02*
X030398Y008227D01*
X030448Y008129D02*
X035083Y008129D01*
X035083Y008030D02*
X030448Y008030D01*
X030351Y007932D02*
X035083Y007932D01*
X035083Y007833D02*
X023171Y007833D01*
X023073Y007735D02*
X035083Y007735D01*
X035083Y007636D02*
X022974Y007636D01*
X022876Y007538D02*
X035083Y007538D01*
X035083Y007439D02*
X022777Y007439D01*
X022679Y007341D02*
X034251Y007341D01*
X034222Y007311D02*
X034222Y007162D01*
X034327Y007057D01*
X034477Y007057D01*
X034582Y007162D01*
X034582Y007311D01*
X034477Y007417D01*
X034327Y007417D01*
X034222Y007311D01*
X034222Y007242D02*
X022580Y007242D01*
X022482Y007144D02*
X034241Y007144D01*
X034563Y007144D02*
X035083Y007144D01*
X035083Y007242D02*
X034582Y007242D01*
X034553Y007341D02*
X035083Y007341D01*
X035083Y007045D02*
X022383Y007045D01*
X022285Y006947D02*
X035083Y006947D01*
X035083Y006848D02*
X022186Y006848D01*
X022088Y006750D02*
X035083Y006750D01*
X035083Y006651D02*
X021989Y006651D01*
X021891Y006553D02*
X035083Y006553D01*
X035083Y006454D02*
X021792Y006454D01*
X021694Y006356D02*
X035083Y006356D01*
X035083Y006257D02*
X021595Y006257D01*
X021497Y006159D02*
X027439Y006159D01*
X027411Y006130D02*
X027411Y005981D01*
X027516Y005876D01*
X027608Y005876D01*
X027608Y005784D01*
X027713Y005679D01*
X027862Y005679D01*
X027968Y005784D01*
X027968Y005933D01*
X027862Y006039D01*
X027771Y006039D01*
X027771Y006130D01*
X027666Y006236D01*
X027516Y006236D01*
X027411Y006130D01*
X027411Y006060D02*
X021398Y006060D01*
X021300Y005962D02*
X027430Y005962D01*
X027608Y005863D02*
X021201Y005863D01*
X021103Y005765D02*
X027627Y005765D01*
X027948Y005765D02*
X029537Y005765D01*
X029537Y005705D02*
X029642Y005600D01*
X029791Y005600D01*
X029897Y005705D01*
X029897Y005854D01*
X029791Y005960D01*
X029642Y005960D01*
X029537Y005854D01*
X029537Y005705D01*
X029576Y005666D02*
X021004Y005666D01*
X020906Y005568D02*
X030088Y005568D01*
X030088Y005548D02*
X030194Y005442D01*
X030343Y005442D01*
X030448Y005548D01*
X030448Y005697D01*
X030343Y005802D01*
X030194Y005802D01*
X030088Y005697D01*
X030088Y005548D01*
X030167Y005469D02*
X020807Y005469D01*
X020709Y005371D02*
X035083Y005371D01*
X035083Y005469D02*
X030369Y005469D01*
X030448Y005568D02*
X035083Y005568D01*
X035083Y005666D02*
X030448Y005666D01*
X030381Y005765D02*
X035083Y005765D01*
X035083Y005863D02*
X029888Y005863D01*
X029897Y005765D02*
X030156Y005765D01*
X030088Y005666D02*
X029858Y005666D01*
X029545Y005863D02*
X027968Y005863D01*
X027939Y005962D02*
X035083Y005962D01*
X035083Y006060D02*
X027771Y006060D01*
X027742Y006159D02*
X035083Y006159D01*
X035083Y005272D02*
X020610Y005272D01*
X020512Y005174D02*
X035083Y005174D01*
X035083Y005075D02*
X020413Y005075D01*
X020315Y004977D02*
X027675Y004977D01*
X027713Y005015D02*
X027608Y004910D01*
X027608Y004760D01*
X027632Y004737D01*
X027608Y004713D01*
X027608Y004564D01*
X027713Y004458D01*
X027862Y004458D01*
X027968Y004564D01*
X027968Y004713D01*
X027944Y004737D01*
X027968Y004760D01*
X027968Y004910D01*
X027862Y005015D01*
X027713Y005015D01*
X027608Y004878D02*
X025834Y004878D01*
X025815Y004897D02*
X025666Y004897D01*
X025642Y004873D01*
X025618Y004897D01*
X025469Y004897D01*
X025445Y004873D01*
X025421Y004897D01*
X025272Y004897D01*
X025167Y004791D01*
X025167Y004642D01*
X025272Y004537D01*
X025421Y004537D01*
X025445Y004561D01*
X025469Y004537D01*
X025618Y004537D01*
X025642Y004561D01*
X025666Y004537D01*
X025815Y004537D01*
X025921Y004642D01*
X025921Y004791D01*
X025815Y004897D01*
X025921Y004780D02*
X027608Y004780D01*
X027608Y004681D02*
X025921Y004681D01*
X025861Y004583D02*
X027608Y004583D01*
X027687Y004484D02*
X015030Y004484D01*
X014948Y004583D02*
X025227Y004583D01*
X025167Y004681D02*
X014833Y004681D01*
X014734Y004780D02*
X019946Y004780D01*
X019893Y004878D02*
X014636Y004878D01*
X014536Y004780D02*
X013767Y004780D01*
X013834Y004681D02*
X013875Y004681D01*
X014031Y004386D02*
X014092Y004386D01*
X014064Y004287D02*
X013951Y004287D01*
X014085Y004189D02*
X012317Y004189D01*
X012338Y004209D02*
X012232Y004104D01*
X012083Y004104D01*
X011978Y004209D01*
X011978Y004358D01*
X012083Y004464D01*
X012232Y004464D01*
X012338Y004358D01*
X012338Y004209D01*
X012338Y004287D02*
X013751Y004287D01*
X013671Y004386D02*
X013498Y004386D01*
X013337Y004386D02*
X012311Y004386D01*
X012005Y004386D02*
X000650Y004386D01*
X000650Y004287D02*
X011978Y004287D01*
X011999Y004189D02*
X006917Y004189D01*
X006944Y004162D02*
X006839Y004267D01*
X006690Y004267D01*
X006584Y004162D01*
X006584Y004012D01*
X006628Y003969D01*
X006584Y003925D01*
X006584Y003776D01*
X006628Y003733D01*
X006584Y003689D01*
X006584Y003540D01*
X006690Y003435D01*
X006839Y003435D01*
X006944Y003540D01*
X006944Y003689D01*
X006901Y003733D01*
X006944Y003776D01*
X006944Y003925D01*
X006901Y003969D01*
X006944Y004012D01*
X006944Y004162D01*
X006944Y004090D02*
X014953Y004090D01*
X014953Y003992D02*
X006923Y003992D01*
X006944Y003893D02*
X014953Y003893D01*
X014953Y003795D02*
X006944Y003795D01*
X006937Y003696D02*
X014953Y003696D01*
X014953Y003598D02*
X009353Y003598D01*
X009271Y003631D02*
X008982Y003631D01*
X008715Y003521D01*
X008511Y003317D01*
X008401Y003050D01*
X008401Y002762D01*
X008511Y002495D01*
X008715Y002291D01*
X008982Y002180D01*
X009271Y002180D01*
X009537Y002291D01*
X009742Y002495D01*
X009852Y002762D01*
X009852Y003050D01*
X009742Y003317D01*
X009537Y003521D01*
X009271Y003631D01*
X009559Y003499D02*
X014953Y003499D01*
X014953Y003401D02*
X009658Y003401D01*
X009748Y003302D02*
X014953Y003302D01*
X014953Y003204D02*
X010658Y003204D01*
X010509Y003204D01*
X010403Y003099D01*
X010403Y002949D01*
X010447Y002906D01*
X010403Y002862D01*
X010403Y002713D01*
X010509Y002608D01*
X010658Y002608D01*
X010763Y002713D01*
X010763Y002862D01*
X010720Y002906D01*
X010763Y002949D01*
X010763Y003099D01*
X010658Y003204D01*
X010757Y003105D02*
X014953Y003105D01*
X014953Y003007D02*
X010763Y003007D01*
X010722Y002908D02*
X014953Y002908D01*
X014953Y002810D02*
X010763Y002810D01*
X010761Y002711D02*
X014953Y002711D01*
X014953Y002613D02*
X010662Y002613D01*
X010504Y002613D02*
X009790Y002613D01*
X009831Y002711D02*
X010405Y002711D01*
X010403Y002810D02*
X009852Y002810D01*
X009852Y002908D02*
X010445Y002908D01*
X010403Y003007D02*
X009852Y003007D01*
X009829Y003105D02*
X010410Y003105D01*
X010508Y003204D02*
X009788Y003204D01*
X009749Y002514D02*
X014953Y002514D01*
X014953Y002416D02*
X009662Y002416D01*
X009564Y002317D02*
X014953Y002317D01*
X014953Y002219D02*
X009363Y002219D01*
X008890Y002219D02*
X003218Y002219D01*
X003218Y002263D02*
X003218Y001974D01*
X003143Y001694D01*
X002998Y001443D01*
X002794Y001239D01*
X002543Y001094D01*
X002263Y001019D01*
X001974Y001019D01*
X001694Y001094D01*
X001443Y001239D01*
X001239Y001443D01*
X001094Y001694D01*
X001019Y001974D01*
X001019Y002263D01*
X001094Y002543D01*
X001239Y002794D01*
X001443Y002998D01*
X001694Y003143D01*
X001974Y003218D01*
X002263Y003218D01*
X002543Y003143D01*
X002794Y002998D01*
X002998Y002794D01*
X003143Y002543D01*
X003218Y002263D01*
X003204Y002317D02*
X008689Y002317D01*
X008591Y002416D02*
X003177Y002416D01*
X003151Y002514D02*
X008503Y002514D01*
X008463Y002613D02*
X003103Y002613D01*
X003046Y002711D02*
X008422Y002711D01*
X008401Y002810D02*
X002983Y002810D01*
X002884Y002908D02*
X008401Y002908D01*
X008401Y003007D02*
X002780Y003007D01*
X002609Y003105D02*
X008423Y003105D01*
X008464Y003204D02*
X002318Y003204D01*
X001919Y003204D02*
X000650Y003204D01*
X000650Y003302D02*
X008505Y003302D01*
X008595Y003401D02*
X000650Y003401D01*
X000650Y003499D02*
X006625Y003499D01*
X006584Y003598D02*
X000650Y003598D01*
X000650Y003696D02*
X006591Y003696D01*
X006584Y003795D02*
X000650Y003795D01*
X000650Y003893D02*
X006584Y003893D01*
X006605Y003992D02*
X000650Y003992D01*
X000650Y004090D02*
X006584Y004090D01*
X006611Y004189D02*
X000650Y004189D01*
X000650Y003105D02*
X001628Y003105D01*
X001457Y003007D02*
X000650Y003007D01*
X000650Y002908D02*
X001353Y002908D01*
X001254Y002810D02*
X000650Y002810D01*
X000650Y002711D02*
X001191Y002711D01*
X001134Y002613D02*
X000650Y002613D01*
X000650Y002514D02*
X001086Y002514D01*
X001060Y002416D02*
X000650Y002416D01*
X000650Y002317D02*
X001033Y002317D01*
X001019Y002219D02*
X000650Y002219D01*
X000650Y002120D02*
X001019Y002120D01*
X001019Y002022D02*
X000650Y002022D01*
X000650Y001923D02*
X001032Y001923D01*
X001059Y001825D02*
X000650Y001825D01*
X000650Y001726D02*
X001085Y001726D01*
X001132Y001628D02*
X000650Y001628D01*
X000650Y001529D02*
X001189Y001529D01*
X001251Y001431D02*
X000650Y001431D01*
X000650Y001332D02*
X001350Y001332D01*
X001452Y001234D02*
X000650Y001234D01*
X000650Y001135D02*
X001623Y001135D01*
X001908Y001037D02*
X000650Y001037D01*
X000650Y000938D02*
X008828Y000938D01*
X008828Y000973D02*
X008828Y000823D01*
X008934Y000718D01*
X009083Y000718D01*
X009188Y000823D01*
X009188Y000954D01*
X009201Y000954D01*
X009306Y001060D01*
X009306Y001209D01*
X009201Y001314D01*
X009052Y001314D01*
X008946Y001209D01*
X008946Y001078D01*
X008934Y001078D01*
X008828Y000973D01*
X008892Y001037D02*
X005425Y001037D01*
X005448Y001060D02*
X005343Y000954D01*
X005194Y000954D01*
X005088Y001060D01*
X005088Y001209D01*
X005194Y001314D01*
X005343Y001314D01*
X005448Y001209D01*
X005448Y001060D01*
X005448Y001135D02*
X008946Y001135D01*
X008971Y001234D02*
X005423Y001234D01*
X005113Y001234D02*
X002785Y001234D01*
X002887Y001332D02*
X014953Y001332D01*
X014953Y001234D02*
X014360Y001234D01*
X014385Y001209D02*
X014385Y001078D01*
X014398Y001078D01*
X014503Y000973D01*
X014503Y000823D01*
X014398Y000718D01*
X014249Y000718D01*
X014143Y000823D01*
X014143Y000954D01*
X014131Y000954D01*
X014025Y001060D01*
X014025Y001209D01*
X014131Y001314D01*
X014280Y001314D01*
X014385Y001209D01*
X014385Y001135D02*
X014953Y001135D01*
X014953Y001037D02*
X014439Y001037D01*
X014503Y000938D02*
X014953Y000938D01*
X014953Y000840D02*
X014503Y000840D01*
X014421Y000741D02*
X014953Y000741D01*
X015093Y000741D02*
X035083Y000741D01*
X035083Y000840D02*
X015093Y000840D01*
X015093Y000938D02*
X035083Y000938D01*
X035083Y001037D02*
X033825Y001037D01*
X033759Y001019D02*
X034039Y001094D01*
X034290Y001239D01*
X034494Y001443D01*
X034639Y001694D01*
X034714Y001974D01*
X034714Y002263D01*
X034639Y002543D01*
X034494Y002794D01*
X034290Y002998D01*
X034039Y003143D01*
X033759Y003218D01*
X033470Y003218D01*
X033190Y003143D01*
X032939Y002998D01*
X032735Y002794D01*
X032590Y002543D01*
X032515Y002263D01*
X032515Y001974D01*
X032590Y001694D01*
X032735Y001443D01*
X032939Y001239D01*
X033190Y001094D01*
X033470Y001019D01*
X033759Y001019D01*
X033404Y001037D02*
X025622Y001037D01*
X025618Y001033D02*
X025724Y001138D01*
X025724Y001288D01*
X025680Y001331D01*
X025724Y001375D01*
X025724Y001524D01*
X025618Y001629D01*
X025469Y001629D01*
X025364Y001524D01*
X025364Y001375D01*
X025407Y001331D01*
X025364Y001288D01*
X025364Y001138D01*
X025469Y001033D01*
X025618Y001033D01*
X025720Y001135D02*
X033119Y001135D01*
X032948Y001234D02*
X025724Y001234D01*
X025681Y001332D02*
X032846Y001332D01*
X032747Y001431D02*
X025724Y001431D01*
X025718Y001529D02*
X032685Y001529D01*
X032628Y001628D02*
X025620Y001628D01*
X025467Y001628D02*
X017352Y001628D01*
X017351Y001629D02*
X017201Y001629D01*
X017096Y001524D01*
X017096Y001375D01*
X017201Y001269D01*
X017351Y001269D01*
X017456Y001375D01*
X017456Y001524D01*
X017351Y001629D01*
X017451Y001529D02*
X025369Y001529D01*
X025364Y001431D02*
X017456Y001431D01*
X017413Y001332D02*
X025406Y001332D01*
X025364Y001234D02*
X015093Y001234D01*
X015093Y001332D02*
X017139Y001332D01*
X017096Y001431D02*
X015093Y001431D01*
X015093Y001529D02*
X017101Y001529D01*
X017200Y001628D02*
X015093Y001628D01*
X015093Y001726D02*
X032581Y001726D01*
X032555Y001825D02*
X015093Y001825D01*
X015093Y001923D02*
X032529Y001923D01*
X032515Y002022D02*
X015093Y002022D01*
X015093Y002120D02*
X032515Y002120D01*
X032515Y002219D02*
X026843Y002219D01*
X026751Y002180D02*
X027018Y002291D01*
X027222Y002495D01*
X027332Y002762D01*
X027332Y003050D01*
X027222Y003317D01*
X027018Y003521D01*
X026751Y003631D01*
X026462Y003631D01*
X026196Y003521D01*
X025992Y003317D01*
X025881Y003050D01*
X025881Y002762D01*
X025992Y002495D01*
X026196Y002291D01*
X026462Y002180D01*
X026751Y002180D01*
X027044Y002317D02*
X032529Y002317D01*
X032556Y002416D02*
X027142Y002416D01*
X027230Y002514D02*
X032582Y002514D01*
X032630Y002613D02*
X027271Y002613D01*
X027311Y002711D02*
X032687Y002711D01*
X032750Y002810D02*
X027332Y002810D01*
X027332Y002908D02*
X032849Y002908D01*
X032953Y003007D02*
X027332Y003007D01*
X027310Y003105D02*
X033124Y003105D01*
X033415Y003204D02*
X027269Y003204D01*
X027228Y003302D02*
X035083Y003302D01*
X035083Y003204D02*
X033814Y003204D01*
X034105Y003105D02*
X035083Y003105D01*
X035083Y003007D02*
X034276Y003007D01*
X034380Y002908D02*
X035083Y002908D01*
X035083Y002810D02*
X034479Y002810D01*
X034542Y002711D02*
X035083Y002711D01*
X035083Y002613D02*
X034599Y002613D01*
X034647Y002514D02*
X035083Y002514D01*
X035083Y002416D02*
X034673Y002416D01*
X034700Y002317D02*
X035083Y002317D01*
X035083Y002219D02*
X034714Y002219D01*
X034714Y002120D02*
X035083Y002120D01*
X035083Y002022D02*
X034714Y002022D01*
X034701Y001923D02*
X035083Y001923D01*
X035083Y001825D02*
X034674Y001825D01*
X034648Y001726D02*
X035083Y001726D01*
X035083Y001628D02*
X034601Y001628D01*
X034544Y001529D02*
X035083Y001529D01*
X035083Y001431D02*
X034482Y001431D01*
X034383Y001332D02*
X035083Y001332D01*
X035083Y001234D02*
X034281Y001234D01*
X034110Y001135D02*
X035083Y001135D01*
X035083Y003401D02*
X027138Y003401D01*
X027040Y003499D02*
X035083Y003499D01*
X035083Y003598D02*
X026833Y003598D01*
X026380Y003598D02*
X015093Y003598D01*
X015093Y003696D02*
X035083Y003696D01*
X035083Y003795D02*
X027868Y003795D01*
X027862Y003789D02*
X027968Y003894D01*
X027968Y004043D01*
X027862Y004149D01*
X027713Y004149D01*
X027608Y004043D01*
X027608Y003894D01*
X027713Y003789D01*
X027862Y003789D01*
X027966Y003893D02*
X035083Y003893D01*
X035083Y003992D02*
X027968Y003992D01*
X027921Y004090D02*
X035083Y004090D01*
X035083Y004189D02*
X025842Y004189D01*
X025842Y004170D02*
X025842Y004319D01*
X025736Y004424D01*
X025587Y004424D01*
X025544Y004381D01*
X025500Y004424D01*
X025351Y004424D01*
X025246Y004319D01*
X025246Y004170D01*
X025351Y004064D01*
X025500Y004064D01*
X025544Y004108D01*
X025587Y004064D01*
X025736Y004064D01*
X025842Y004170D01*
X025762Y004090D02*
X027654Y004090D01*
X027608Y003992D02*
X015093Y003992D01*
X015093Y004090D02*
X025326Y004090D01*
X025246Y004189D02*
X024522Y004189D01*
X024543Y004209D02*
X024437Y004104D01*
X024288Y004104D01*
X024183Y004209D01*
X024183Y004358D01*
X024288Y004464D01*
X024437Y004464D01*
X024543Y004358D01*
X024543Y004209D01*
X024543Y004287D02*
X025246Y004287D01*
X025312Y004386D02*
X024516Y004386D01*
X024210Y004386D02*
X024122Y004386D01*
X024149Y004358D02*
X024043Y004464D01*
X023894Y004464D01*
X023789Y004358D01*
X023789Y004209D01*
X023894Y004104D01*
X024043Y004104D01*
X024149Y004209D01*
X024149Y004358D01*
X024149Y004287D02*
X024183Y004287D01*
X024203Y004189D02*
X024128Y004189D01*
X023810Y004189D02*
X023341Y004189D01*
X023361Y004209D02*
X023256Y004104D01*
X023107Y004104D01*
X023001Y004209D01*
X023001Y004358D01*
X023107Y004464D01*
X023256Y004464D01*
X023361Y004358D01*
X023361Y004209D01*
X023361Y004287D02*
X023789Y004287D01*
X023816Y004386D02*
X023334Y004386D01*
X023029Y004386D02*
X022941Y004386D01*
X022968Y004358D02*
X022862Y004464D01*
X022713Y004464D01*
X022608Y004358D01*
X022608Y004209D01*
X022713Y004104D01*
X022862Y004104D01*
X022968Y004209D01*
X022968Y004358D01*
X022968Y004287D02*
X023001Y004287D01*
X023022Y004189D02*
X022947Y004189D01*
X022629Y004189D02*
X022160Y004189D01*
X022180Y004209D02*
X022075Y004104D01*
X021926Y004104D01*
X021820Y004209D01*
X021820Y004358D01*
X021926Y004464D01*
X022075Y004464D01*
X022180Y004358D01*
X022180Y004209D01*
X022180Y004287D02*
X022608Y004287D01*
X022635Y004386D02*
X022153Y004386D01*
X021847Y004386D02*
X021760Y004386D01*
X021787Y004358D02*
X021681Y004464D01*
X021532Y004464D01*
X021427Y004358D01*
X021427Y004209D01*
X021532Y004104D01*
X021681Y004104D01*
X021787Y004209D01*
X021787Y004358D01*
X021787Y004287D02*
X021820Y004287D01*
X021841Y004189D02*
X021766Y004189D01*
X021447Y004189D02*
X020979Y004189D01*
X020999Y004209D02*
X020894Y004104D01*
X020745Y004104D01*
X020639Y004209D01*
X020639Y004358D01*
X020745Y004464D01*
X020894Y004464D01*
X020999Y004358D01*
X020999Y004209D01*
X020999Y004287D02*
X021427Y004287D01*
X021454Y004386D02*
X020972Y004386D01*
X020666Y004386D02*
X020578Y004386D01*
X020606Y004358D02*
X020500Y004464D01*
X020351Y004464D01*
X020246Y004358D01*
X020246Y004209D01*
X020351Y004104D01*
X020500Y004104D01*
X020606Y004209D01*
X020606Y004358D01*
X020606Y004287D02*
X020639Y004287D01*
X020660Y004189D02*
X020585Y004189D01*
X020266Y004189D02*
X019797Y004189D01*
X019818Y004209D02*
X019713Y004104D01*
X019564Y004104D01*
X019458Y004209D01*
X019458Y004358D01*
X019564Y004464D01*
X019713Y004464D01*
X019818Y004358D01*
X019818Y004209D01*
X019818Y004287D02*
X020246Y004287D01*
X020273Y004386D02*
X019791Y004386D01*
X019485Y004386D02*
X019397Y004386D01*
X019424Y004358D02*
X019319Y004464D01*
X019170Y004464D01*
X019064Y004358D01*
X019064Y004209D01*
X019170Y004104D01*
X019319Y004104D01*
X019424Y004209D01*
X019424Y004358D01*
X019424Y004287D02*
X019458Y004287D01*
X019479Y004189D02*
X019404Y004189D01*
X019085Y004189D02*
X018616Y004189D01*
X018637Y004209D02*
X018532Y004104D01*
X018383Y004104D01*
X018277Y004209D01*
X018277Y004358D01*
X018383Y004464D01*
X018532Y004464D01*
X018637Y004358D01*
X018637Y004209D01*
X018637Y004287D02*
X019064Y004287D01*
X019092Y004386D02*
X018610Y004386D01*
X018304Y004386D02*
X018216Y004386D01*
X018243Y004358D02*
X018138Y004464D01*
X017989Y004464D01*
X017883Y004358D01*
X017883Y004209D01*
X017989Y004104D01*
X018138Y004104D01*
X018243Y004209D01*
X018243Y004358D01*
X018243Y004287D02*
X018277Y004287D01*
X018298Y004189D02*
X018223Y004189D01*
X017904Y004189D02*
X017435Y004189D01*
X017456Y004209D02*
X017351Y004104D01*
X017201Y004104D01*
X017096Y004209D01*
X017096Y004358D01*
X017201Y004464D01*
X017351Y004464D01*
X017456Y004358D01*
X017456Y004209D01*
X017456Y004287D02*
X017883Y004287D01*
X017910Y004386D02*
X017429Y004386D01*
X017123Y004386D02*
X017035Y004386D01*
X017062Y004358D02*
X016957Y004464D01*
X016808Y004464D01*
X016702Y004358D01*
X016702Y004209D01*
X016808Y004104D01*
X016957Y004104D01*
X017062Y004209D01*
X017062Y004358D01*
X017062Y004287D02*
X017096Y004287D01*
X017117Y004189D02*
X017041Y004189D01*
X016723Y004189D02*
X016254Y004189D01*
X016275Y004209D02*
X016169Y004104D01*
X016020Y004104D01*
X015915Y004209D01*
X015915Y004358D01*
X016020Y004464D01*
X016169Y004464D01*
X016275Y004358D01*
X016275Y004209D01*
X016275Y004287D02*
X016702Y004287D01*
X016729Y004386D02*
X016248Y004386D01*
X015942Y004386D02*
X015854Y004386D01*
X015881Y004358D02*
X015776Y004464D01*
X015627Y004464D01*
X015521Y004358D01*
X015521Y004209D01*
X015627Y004104D01*
X015776Y004104D01*
X015881Y004209D01*
X015881Y004358D01*
X015881Y004287D02*
X015915Y004287D01*
X015936Y004189D02*
X015860Y004189D01*
X015542Y004189D02*
X015191Y004189D01*
X015212Y004287D02*
X015521Y004287D01*
X015548Y004386D02*
X015185Y004386D01*
X014873Y004189D02*
X014404Y004189D01*
X014542Y004287D02*
X014735Y004287D01*
X014655Y004386D02*
X014621Y004386D01*
X014466Y004681D02*
X014220Y004681D01*
X014228Y004583D02*
X014328Y004583D01*
X014261Y004484D02*
X014187Y004484D01*
X014025Y004977D02*
X019953Y004977D01*
X020052Y005075D02*
X013927Y005075D01*
X013828Y005174D02*
X020150Y005174D01*
X020249Y005272D02*
X013730Y005272D01*
X013631Y005371D02*
X016053Y005371D01*
X016099Y005324D02*
X016248Y005324D01*
X016354Y005430D01*
X016354Y005579D01*
X016248Y005684D01*
X016099Y005684D01*
X015994Y005579D01*
X015994Y005430D01*
X016099Y005324D01*
X015994Y005469D02*
X013533Y005469D01*
X013479Y005568D02*
X015994Y005568D01*
X016081Y005666D02*
X013479Y005666D01*
X013479Y005765D02*
X015265Y005765D01*
X015312Y005718D02*
X015461Y005718D01*
X015566Y005823D01*
X015566Y005942D01*
X015645Y006020D01*
X015645Y006169D01*
X015540Y006275D01*
X015390Y006275D01*
X015285Y006169D01*
X015285Y006051D01*
X015206Y005973D01*
X015206Y005823D01*
X015312Y005718D01*
X015206Y005863D02*
X013479Y005863D01*
X013479Y005962D02*
X015206Y005962D01*
X015285Y006060D02*
X013479Y006060D01*
X013479Y006159D02*
X015285Y006159D01*
X015373Y006257D02*
X013479Y006257D01*
X013479Y006356D02*
X021332Y006356D01*
X021234Y006257D02*
X015557Y006257D01*
X015645Y006159D02*
X021135Y006159D01*
X021037Y006060D02*
X019731Y006060D01*
X019713Y006078D02*
X019564Y006078D01*
X019458Y005973D01*
X019458Y005823D01*
X019462Y005819D01*
X019379Y005736D01*
X019379Y005587D01*
X019485Y005482D01*
X019537Y005482D01*
X019537Y005430D01*
X019642Y005324D01*
X019791Y005324D01*
X019874Y005407D01*
X019879Y005403D01*
X020028Y005403D01*
X020133Y005509D01*
X020133Y005658D01*
X020028Y005763D01*
X019976Y005763D01*
X019976Y005815D01*
X019870Y005921D01*
X019818Y005921D01*
X019818Y005973D01*
X019713Y006078D01*
X019818Y005962D02*
X020938Y005962D01*
X020840Y005863D02*
X019928Y005863D01*
X019976Y005765D02*
X020741Y005765D01*
X020643Y005666D02*
X020125Y005666D01*
X020133Y005568D02*
X020544Y005568D01*
X020446Y005469D02*
X020094Y005469D01*
X020347Y005371D02*
X019838Y005371D01*
X019596Y005371D02*
X016294Y005371D01*
X016354Y005469D02*
X019537Y005469D01*
X019399Y005568D02*
X016354Y005568D01*
X016266Y005666D02*
X019379Y005666D01*
X019408Y005765D02*
X015507Y005765D01*
X015566Y005863D02*
X019458Y005863D01*
X019458Y005962D02*
X015586Y005962D01*
X015645Y006060D02*
X019546Y006060D01*
X019622Y006848D02*
X021825Y006848D01*
X021923Y006947D02*
X019700Y006947D01*
X019700Y007045D02*
X022022Y007045D01*
X022120Y007144D02*
X019632Y007144D01*
X019582Y007242D02*
X022219Y007242D01*
X022317Y007341D02*
X019513Y007341D01*
X019083Y007538D02*
X018973Y007538D01*
X018807Y007538D02*
X018698Y007538D01*
X018532Y007538D02*
X018422Y007538D01*
X018256Y007538D02*
X016482Y007538D01*
X016511Y007508D02*
X016406Y007613D01*
X016257Y007613D01*
X016151Y007508D01*
X016151Y007359D01*
X016257Y007253D01*
X016406Y007253D01*
X016511Y007359D01*
X016511Y007508D01*
X016511Y007439D02*
X017814Y007439D01*
X017726Y007341D02*
X016493Y007341D01*
X016169Y007341D02*
X015587Y007341D01*
X015645Y007439D02*
X016151Y007439D01*
X016181Y007538D02*
X015645Y007538D01*
X015556Y007636D02*
X018159Y007636D01*
X018470Y007833D02*
X018484Y007833D01*
X018745Y007833D02*
X018760Y007833D01*
X019021Y007833D02*
X019035Y007833D01*
X019296Y007833D02*
X020086Y007833D01*
X020264Y007735D02*
X019346Y007735D01*
X018767Y008523D02*
X014604Y008523D01*
X014661Y008621D02*
X018710Y008621D01*
X018710Y008720D02*
X014661Y008720D01*
X014571Y008818D02*
X018800Y008818D01*
X018857Y009705D02*
X022821Y009705D01*
X022805Y009721D02*
X022910Y009616D01*
X023059Y009616D01*
X023165Y009721D01*
X023165Y009870D01*
X023059Y009976D01*
X022910Y009976D01*
X022805Y009870D01*
X022805Y009721D01*
X022805Y009803D02*
X018913Y009803D01*
X018913Y009902D02*
X021443Y009902D01*
X021427Y009918D02*
X021532Y009813D01*
X021681Y009813D01*
X021787Y009918D01*
X021787Y010067D01*
X021681Y010173D01*
X021532Y010173D01*
X021427Y010067D01*
X021427Y009918D01*
X021427Y010000D02*
X018822Y010000D01*
X020983Y010099D02*
X021458Y010099D01*
X021755Y010099D02*
X023987Y010099D01*
X023987Y010197D02*
X020999Y010197D01*
X021787Y010000D02*
X023987Y010000D01*
X023987Y009902D02*
X023133Y009902D01*
X023165Y009803D02*
X023987Y009803D01*
X023987Y009705D02*
X023148Y009705D01*
X022836Y009902D02*
X021770Y009902D01*
X019729Y011576D02*
X019705Y011576D01*
X019707Y011872D02*
X019727Y011872D01*
X020456Y013054D02*
X008125Y013054D01*
X008072Y013152D02*
X020442Y013152D01*
X019274Y015024D02*
X009940Y015024D01*
X009651Y015024D02*
X004429Y015024D01*
X004464Y014988D02*
X004358Y015094D01*
X004209Y015094D01*
X004104Y014988D01*
X004104Y014839D01*
X004209Y014734D01*
X004358Y014734D01*
X004464Y014839D01*
X004464Y014988D01*
X004464Y014925D02*
X009616Y014925D01*
X009628Y014827D02*
X004451Y014827D01*
X004117Y014827D02*
X000650Y014827D01*
X000650Y014925D02*
X004104Y014925D01*
X004139Y015024D02*
X000650Y015024D01*
X000650Y015122D02*
X019261Y015122D01*
X022029Y015418D02*
X015255Y015418D01*
X014966Y015418D02*
X000650Y015418D01*
X000650Y015516D02*
X022017Y015516D01*
X024194Y016009D02*
X012499Y016009D01*
X012211Y016009D02*
X004625Y016009D01*
X004661Y015973D02*
X004555Y016078D01*
X004406Y016078D01*
X004301Y015973D01*
X004301Y015823D01*
X004406Y015718D01*
X004555Y015718D01*
X004661Y015823D01*
X004661Y015973D01*
X004661Y015910D02*
X012175Y015910D01*
X012187Y015812D02*
X009940Y015812D01*
X009651Y015812D02*
X005806Y015812D01*
X005842Y015776D02*
X005736Y015881D01*
X005587Y015881D01*
X005482Y015776D01*
X005482Y015627D01*
X005587Y015521D01*
X005736Y015521D01*
X005842Y015627D01*
X005842Y015776D01*
X005842Y015713D02*
X009616Y015713D01*
X009628Y015615D02*
X005830Y015615D01*
X005494Y015615D02*
X000650Y015615D01*
X000650Y015713D02*
X005482Y015713D01*
X005518Y015812D02*
X004649Y015812D01*
X004313Y015812D02*
X002287Y015812D01*
X002299Y015823D02*
X002193Y015718D01*
X002044Y015718D01*
X001939Y015823D01*
X001939Y015973D01*
X002044Y016078D01*
X002193Y016078D01*
X002299Y015973D01*
X002299Y015823D01*
X002299Y015910D02*
X004301Y015910D01*
X004337Y016009D02*
X002263Y016009D01*
X001974Y016009D02*
X000650Y016009D01*
X000650Y016107D02*
X024183Y016107D01*
X026780Y015812D02*
X029509Y015812D01*
X029458Y015863D02*
X029564Y015757D01*
X029713Y015757D01*
X029818Y015863D01*
X029818Y016012D01*
X029713Y016117D01*
X029564Y016117D01*
X029458Y016012D01*
X029458Y015863D01*
X029458Y015910D02*
X026878Y015910D01*
X026977Y016009D02*
X029458Y016009D01*
X029553Y016107D02*
X027075Y016107D01*
X027174Y016206D02*
X030127Y016206D01*
X030127Y016107D02*
X029723Y016107D01*
X029818Y016009D02*
X030127Y016009D01*
X030127Y015910D02*
X029818Y015910D01*
X029767Y015812D02*
X030179Y015812D01*
X030223Y016304D02*
X027272Y016304D01*
X027371Y016403D02*
X035083Y016403D01*
X035083Y016501D02*
X027469Y016501D01*
X027568Y016600D02*
X035083Y016600D01*
X035083Y016698D02*
X027666Y016698D01*
X024908Y013940D02*
X030516Y013940D01*
X030501Y013842D02*
X024810Y013842D01*
X024514Y013546D02*
X029158Y013546D01*
X029143Y013448D02*
X024416Y013448D01*
X018474Y018668D02*
X002872Y018668D01*
X002759Y018767D02*
X006673Y018767D01*
X006663Y018865D02*
X002588Y018865D01*
X002273Y018964D02*
X006701Y018964D01*
X007013Y018767D02*
X018512Y018767D01*
X014931Y015319D02*
X000650Y015319D01*
X000650Y015221D02*
X014943Y015221D01*
X011781Y014137D02*
X000650Y014137D01*
X000650Y014039D02*
X005516Y014039D01*
X005482Y013940D02*
X000650Y013940D01*
X000650Y013842D02*
X001382Y013842D01*
X001348Y013743D02*
X000650Y013743D01*
X000650Y013645D02*
X001362Y013645D01*
X001674Y013842D02*
X005495Y013842D01*
X005807Y014039D02*
X011794Y014039D01*
X009616Y013349D02*
X000650Y013349D01*
X000650Y013251D02*
X009630Y013251D01*
X007819Y013152D02*
X000650Y013152D01*
X000650Y013054D02*
X000988Y013054D01*
X000954Y013020D02*
X000954Y012871D01*
X001060Y012765D01*
X001209Y012765D01*
X001314Y012871D01*
X001314Y013020D01*
X001209Y013125D01*
X001060Y013125D01*
X000954Y013020D01*
X000954Y012955D02*
X000650Y012955D01*
X000650Y012857D02*
X000968Y012857D01*
X001300Y012857D02*
X004261Y012857D01*
X004261Y012758D02*
X000650Y012758D01*
X000650Y012660D02*
X002444Y012660D01*
X002411Y012561D02*
X000650Y012561D01*
X000650Y012463D02*
X002425Y012463D01*
X002738Y012660D02*
X004315Y012660D01*
X004354Y012955D02*
X001314Y012955D01*
X001281Y013054D02*
X007765Y013054D01*
X007765Y012955D02*
X004529Y012955D01*
X004621Y012857D02*
X007858Y012857D01*
X010674Y012069D02*
X010830Y012069D01*
X010797Y011970D02*
X010772Y011970D01*
X011856Y010887D02*
X012010Y010887D01*
X011978Y010788D02*
X011954Y010788D01*
X009234Y010394D02*
X007641Y010394D01*
X007626Y010409D02*
X007477Y010409D01*
X007372Y010303D01*
X007372Y010154D01*
X007477Y010049D01*
X007626Y010049D01*
X007732Y010154D01*
X007732Y010303D01*
X007626Y010409D01*
X007732Y010296D02*
X009143Y010296D01*
X009143Y010197D02*
X007732Y010197D01*
X007676Y010099D02*
X009199Y010099D01*
X007462Y010394D02*
X005869Y010394D01*
X005854Y010409D02*
X005705Y010409D01*
X005600Y010303D01*
X005600Y010154D01*
X005705Y010049D01*
X005854Y010049D01*
X005960Y010154D01*
X005960Y010303D01*
X005854Y010409D01*
X005960Y010296D02*
X007372Y010296D01*
X007372Y010197D02*
X005960Y010197D01*
X005904Y010099D02*
X007427Y010099D01*
X007450Y009015D02*
X000650Y009015D01*
X000650Y008917D02*
X000788Y008917D01*
X000757Y008818D02*
X000650Y008818D01*
X000650Y008720D02*
X000775Y008720D01*
X000650Y008424D02*
X009154Y008424D01*
X009143Y008326D02*
X008568Y008326D01*
X008598Y008295D02*
X008492Y008401D01*
X008343Y008401D01*
X008238Y008295D01*
X008238Y008146D01*
X008343Y008041D01*
X008492Y008041D01*
X008598Y008146D01*
X008598Y008295D01*
X008598Y008227D02*
X009181Y008227D01*
X009143Y008129D02*
X008580Y008129D01*
X008256Y008129D02*
X006415Y008129D01*
X006432Y008146D02*
X006327Y008041D01*
X006178Y008041D01*
X006072Y008146D01*
X006072Y008295D01*
X006178Y008401D01*
X006327Y008401D01*
X006432Y008295D01*
X006432Y008146D01*
X006432Y008227D02*
X008238Y008227D01*
X008268Y008326D02*
X006402Y008326D01*
X006102Y008326D02*
X000650Y008326D01*
X000650Y008227D02*
X006072Y008227D01*
X006090Y008129D02*
X000650Y008129D01*
X000650Y008030D02*
X009143Y008030D01*
X009143Y007932D02*
X000650Y007932D01*
X000650Y007833D02*
X009143Y007833D01*
X009201Y007735D02*
X007190Y007735D01*
X006889Y007735D02*
X000650Y007735D01*
X000650Y007636D02*
X006860Y007636D01*
X006878Y007538D02*
X000650Y007538D01*
X001087Y008917D02*
X007468Y008917D01*
X005656Y010099D02*
X004629Y010099D01*
X004332Y010099D02*
X004133Y010099D01*
X004083Y010049D02*
X004188Y010154D01*
X004188Y010303D01*
X004083Y010409D01*
X003934Y010409D01*
X003828Y010303D01*
X003828Y010154D01*
X003934Y010049D01*
X004083Y010049D01*
X004188Y010197D02*
X005600Y010197D01*
X005600Y010296D02*
X004188Y010296D01*
X004098Y010394D02*
X005691Y010394D01*
X004301Y010000D02*
X000650Y010000D01*
X000650Y009902D02*
X004317Y009902D01*
X003884Y010099D02*
X000650Y010099D01*
X000650Y010197D02*
X003828Y010197D01*
X003828Y010296D02*
X000650Y010296D01*
X000650Y010394D02*
X003919Y010394D01*
X001758Y010493D02*
X000650Y010493D01*
X000650Y010591D02*
X001742Y010591D01*
X001089Y006159D02*
X007465Y006159D01*
X007563Y006060D02*
X001117Y006060D01*
X001098Y005962D02*
X007570Y005962D01*
X007809Y005469D02*
X010569Y005469D01*
X010482Y005371D02*
X007809Y005371D01*
X007809Y005272D02*
X010482Y005272D01*
X010541Y005174D02*
X007809Y005174D01*
X006944Y003598D02*
X008900Y003598D01*
X008693Y003499D02*
X006903Y003499D01*
X006839Y001905D02*
X006690Y001905D01*
X006584Y001799D01*
X006584Y001650D01*
X006690Y001545D01*
X006839Y001545D01*
X006944Y001650D01*
X006944Y001799D01*
X006839Y001905D01*
X006919Y001825D02*
X014953Y001825D01*
X014953Y001923D02*
X003205Y001923D01*
X003218Y002022D02*
X014953Y002022D01*
X014953Y002120D02*
X003218Y002120D01*
X003178Y001825D02*
X006609Y001825D01*
X006584Y001726D02*
X003152Y001726D01*
X003105Y001628D02*
X006607Y001628D01*
X006921Y001628D02*
X010192Y001628D01*
X010167Y001603D02*
X010167Y001453D01*
X010272Y001348D01*
X010421Y001348D01*
X010465Y001392D01*
X010509Y001348D01*
X010658Y001348D01*
X010701Y001392D01*
X010745Y001348D01*
X010894Y001348D01*
X010999Y001453D01*
X010999Y001603D01*
X010894Y001708D01*
X010745Y001708D01*
X010701Y001664D01*
X010658Y001708D01*
X010509Y001708D01*
X010465Y001664D01*
X010421Y001708D01*
X010272Y001708D01*
X010167Y001603D01*
X010167Y001529D02*
X003048Y001529D01*
X002986Y001431D02*
X010190Y001431D01*
X010976Y001431D02*
X011607Y001431D01*
X011584Y001453D02*
X011690Y001348D01*
X011839Y001348D01*
X011944Y001453D01*
X011944Y001603D01*
X011839Y001708D01*
X011690Y001708D01*
X011584Y001603D01*
X011584Y001453D01*
X011584Y001529D02*
X010999Y001529D01*
X010974Y001628D02*
X011609Y001628D01*
X011919Y001628D02*
X012003Y001628D01*
X011978Y001603D02*
X011978Y001453D01*
X012083Y001348D01*
X012232Y001348D01*
X012338Y001453D01*
X012338Y001603D01*
X012232Y001708D01*
X012083Y001708D01*
X011978Y001603D01*
X011978Y001529D02*
X011944Y001529D01*
X011921Y001431D02*
X012001Y001431D01*
X012315Y001431D02*
X012394Y001431D01*
X012372Y001453D02*
X012477Y001348D01*
X012626Y001348D01*
X012732Y001453D01*
X012732Y001603D01*
X012626Y001708D01*
X012477Y001708D01*
X012372Y001603D01*
X012372Y001453D01*
X012372Y001529D02*
X012338Y001529D01*
X012313Y001628D02*
X012397Y001628D01*
X012707Y001628D02*
X012790Y001628D01*
X012765Y001603D02*
X012765Y001453D01*
X012871Y001348D01*
X013020Y001348D01*
X013125Y001453D01*
X013125Y001603D01*
X013020Y001708D01*
X012871Y001708D01*
X012765Y001603D01*
X012765Y001529D02*
X012732Y001529D01*
X012709Y001431D02*
X012788Y001431D01*
X013102Y001431D02*
X013182Y001431D01*
X013159Y001453D02*
X013264Y001348D01*
X013414Y001348D01*
X013519Y001453D01*
X013519Y001603D01*
X013414Y001708D01*
X013264Y001708D01*
X013159Y001603D01*
X013159Y001453D01*
X013159Y001529D02*
X013125Y001529D01*
X013100Y001628D02*
X013184Y001628D01*
X013494Y001628D02*
X013578Y001628D01*
X013553Y001603D02*
X013553Y001453D01*
X013658Y001348D01*
X013807Y001348D01*
X013913Y001453D01*
X013913Y001603D01*
X013807Y001708D01*
X013658Y001708D01*
X013553Y001603D01*
X013553Y001529D02*
X013519Y001529D01*
X013496Y001431D02*
X013576Y001431D01*
X013890Y001431D02*
X013969Y001431D01*
X013946Y001453D02*
X014052Y001348D01*
X014201Y001348D01*
X014306Y001453D01*
X014306Y001603D01*
X014201Y001708D01*
X014052Y001708D01*
X013946Y001603D01*
X013946Y001453D01*
X013946Y001529D02*
X013913Y001529D01*
X013888Y001628D02*
X013971Y001628D01*
X014281Y001628D02*
X014953Y001628D01*
X014953Y001726D02*
X006944Y001726D01*
X005088Y001135D02*
X002614Y001135D01*
X002329Y001037D02*
X005111Y001037D01*
X008828Y000840D02*
X000650Y000840D01*
X000650Y000741D02*
X008911Y000741D01*
X009106Y000741D02*
X014226Y000741D01*
X014143Y000840D02*
X009188Y000840D01*
X009188Y000938D02*
X014143Y000938D01*
X014048Y001037D02*
X009283Y001037D01*
X009306Y001135D02*
X014025Y001135D01*
X014050Y001234D02*
X009282Y001234D01*
X014283Y001431D02*
X014953Y001431D01*
X014953Y001529D02*
X014306Y001529D01*
X015093Y001135D02*
X025367Y001135D01*
X025466Y001037D02*
X015093Y001037D01*
X015093Y002219D02*
X026370Y002219D01*
X026169Y002317D02*
X015093Y002317D01*
X015093Y002416D02*
X026071Y002416D01*
X025984Y002514D02*
X015093Y002514D01*
X015093Y002613D02*
X025464Y002613D01*
X025469Y002608D02*
X025618Y002608D01*
X025724Y002713D01*
X025724Y002862D01*
X025680Y002906D01*
X025724Y002949D01*
X025724Y003099D01*
X025618Y003204D01*
X025469Y003204D01*
X025364Y003099D01*
X025364Y002949D01*
X025407Y002906D01*
X025364Y002862D01*
X025364Y002713D01*
X025469Y002608D01*
X025366Y002711D02*
X015093Y002711D01*
X015093Y002810D02*
X025364Y002810D01*
X025405Y002908D02*
X015093Y002908D01*
X015093Y003007D02*
X025364Y003007D01*
X025370Y003105D02*
X015093Y003105D01*
X015093Y003204D02*
X025469Y003204D01*
X025619Y003204D02*
X025945Y003204D01*
X025985Y003302D02*
X015093Y003302D01*
X015093Y003401D02*
X026075Y003401D01*
X026174Y003499D02*
X015093Y003499D01*
X015093Y003795D02*
X027708Y003795D01*
X027609Y003893D02*
X015093Y003893D01*
X013541Y004780D02*
X013440Y004780D01*
X014306Y008523D02*
X014358Y008523D01*
X020118Y004780D02*
X025167Y004780D01*
X025253Y004878D02*
X020216Y004878D01*
X025440Y004878D02*
X025450Y004878D01*
X025637Y004878D02*
X025647Y004878D01*
X025548Y004386D02*
X025539Y004386D01*
X025775Y004386D02*
X035083Y004386D01*
X035083Y004484D02*
X027888Y004484D01*
X027968Y004583D02*
X035083Y004583D01*
X035083Y004681D02*
X027968Y004681D01*
X027968Y004780D02*
X035083Y004780D01*
X035083Y004878D02*
X027968Y004878D01*
X027901Y004977D02*
X035083Y004977D01*
X035083Y004287D02*
X025842Y004287D01*
X025562Y004090D02*
X025526Y004090D01*
X025717Y003105D02*
X025904Y003105D01*
X025881Y003007D02*
X025724Y003007D01*
X025682Y002908D02*
X025881Y002908D01*
X025881Y002810D02*
X025724Y002810D01*
X025721Y002711D02*
X025902Y002711D01*
X025943Y002613D02*
X025623Y002613D01*
X007462Y016403D02*
X000650Y016403D01*
X000650Y016501D02*
X007450Y016501D01*
X007460Y019161D02*
X000650Y019161D01*
X000650Y019259D02*
X007450Y019259D01*
X001939Y015910D02*
X000650Y015910D01*
X000650Y015812D02*
X001950Y015812D01*
D12*
X025524Y006233D03*
M02*
