G75*
G70*
%OFA0B0*%
%FSLAX24Y24*%
%IPPOS*%
%LPD*%
%AMOC8*
5,1,8,0,0,1.08239X$1,22.5*
%
%ADD10R,0.0118X0.0315*%
%ADD11R,0.1575X0.1575*%
%ADD12R,0.0276X0.0118*%
%ADD13R,0.0354X0.0276*%
%ADD14R,0.0276X0.0354*%
%ADD15R,0.0710X0.0630*%
%ADD16R,0.0512X0.0591*%
%ADD17R,0.0591X0.0512*%
%ADD18R,0.0472X0.0138*%
%ADD19R,0.0157X0.0433*%
%ADD20R,0.0433X0.0157*%
%ADD21R,0.0512X0.0630*%
%ADD22C,0.0681*%
%ADD23R,0.0925X0.0748*%
%ADD24R,0.0591X0.1339*%
%ADD25R,0.0748X0.0925*%
%ADD26R,0.1339X0.0591*%
%ADD27R,0.0236X0.0866*%
%ADD28R,0.0394X0.0433*%
D10*
G36*
X015329Y009109D02*
X015412Y009026D01*
X015191Y008805D01*
X015108Y008888D01*
X015329Y009109D01*
G37*
G36*
X015412Y009306D02*
X015329Y009223D01*
X015108Y009444D01*
X015191Y009527D01*
X015412Y009306D01*
G37*
G36*
X015552Y009445D02*
X015469Y009362D01*
X015248Y009583D01*
X015331Y009666D01*
X015552Y009445D01*
G37*
G36*
X015691Y009584D02*
X015608Y009501D01*
X015387Y009722D01*
X015470Y009805D01*
X015691Y009584D01*
G37*
G36*
X015830Y009723D02*
X015747Y009640D01*
X015526Y009861D01*
X015609Y009944D01*
X015830Y009723D01*
G37*
G36*
X015969Y009862D02*
X015886Y009779D01*
X015665Y010000D01*
X015748Y010083D01*
X015969Y009862D01*
G37*
G36*
X016108Y010002D02*
X016025Y009919D01*
X015804Y010140D01*
X015887Y010223D01*
X016108Y010002D01*
G37*
G36*
X016248Y010141D02*
X016165Y010058D01*
X015944Y010279D01*
X016027Y010362D01*
X016248Y010141D01*
G37*
G36*
X016387Y010280D02*
X016304Y010197D01*
X016083Y010418D01*
X016166Y010501D01*
X016387Y010280D01*
G37*
G36*
X016526Y010419D02*
X016443Y010336D01*
X016222Y010557D01*
X016305Y010640D01*
X016526Y010419D01*
G37*
G36*
X016665Y010558D02*
X016582Y010475D01*
X016361Y010696D01*
X016444Y010779D01*
X016665Y010558D01*
G37*
G36*
X016804Y010697D02*
X016721Y010614D01*
X016500Y010835D01*
X016583Y010918D01*
X016804Y010697D01*
G37*
G36*
X016944Y010837D02*
X016861Y010754D01*
X016640Y010975D01*
X016723Y011058D01*
X016944Y010837D01*
G37*
G36*
X017140Y010754D02*
X017057Y010837D01*
X017278Y011058D01*
X017361Y010975D01*
X017140Y010754D01*
G37*
G36*
X017279Y010614D02*
X017196Y010697D01*
X017417Y010918D01*
X017500Y010835D01*
X017279Y010614D01*
G37*
G36*
X017419Y010475D02*
X017336Y010558D01*
X017557Y010779D01*
X017640Y010696D01*
X017419Y010475D01*
G37*
G36*
X017558Y010336D02*
X017475Y010419D01*
X017696Y010640D01*
X017779Y010557D01*
X017558Y010336D01*
G37*
G36*
X017697Y010197D02*
X017614Y010280D01*
X017835Y010501D01*
X017918Y010418D01*
X017697Y010197D01*
G37*
G36*
X017836Y010058D02*
X017753Y010141D01*
X017974Y010362D01*
X018057Y010279D01*
X017836Y010058D01*
G37*
G36*
X017975Y009919D02*
X017892Y010002D01*
X018113Y010223D01*
X018196Y010140D01*
X017975Y009919D01*
G37*
G36*
X018115Y009779D02*
X018032Y009862D01*
X018253Y010083D01*
X018336Y010000D01*
X018115Y009779D01*
G37*
G36*
X018254Y009640D02*
X018171Y009723D01*
X018392Y009944D01*
X018475Y009861D01*
X018254Y009640D01*
G37*
G36*
X018393Y009501D02*
X018310Y009584D01*
X018531Y009805D01*
X018614Y009722D01*
X018393Y009501D01*
G37*
G36*
X018532Y009362D02*
X018449Y009445D01*
X018670Y009666D01*
X018753Y009583D01*
X018532Y009362D01*
G37*
G36*
X018671Y009223D02*
X018588Y009306D01*
X018809Y009527D01*
X018892Y009444D01*
X018671Y009223D01*
G37*
G36*
X018588Y009026D02*
X018671Y009109D01*
X018892Y008888D01*
X018809Y008805D01*
X018588Y009026D01*
G37*
G36*
X018449Y008887D02*
X018532Y008970D01*
X018753Y008749D01*
X018670Y008666D01*
X018449Y008887D01*
G37*
G36*
X018310Y008748D02*
X018393Y008831D01*
X018614Y008610D01*
X018531Y008527D01*
X018310Y008748D01*
G37*
G36*
X018171Y008608D02*
X018254Y008691D01*
X018475Y008470D01*
X018392Y008387D01*
X018171Y008608D01*
G37*
G36*
X018032Y008469D02*
X018115Y008552D01*
X018336Y008331D01*
X018253Y008248D01*
X018032Y008469D01*
G37*
G36*
X017892Y008330D02*
X017975Y008413D01*
X018196Y008192D01*
X018113Y008109D01*
X017892Y008330D01*
G37*
G36*
X017753Y008191D02*
X017836Y008274D01*
X018057Y008053D01*
X017974Y007970D01*
X017753Y008191D01*
G37*
G36*
X017614Y008052D02*
X017697Y008135D01*
X017918Y007914D01*
X017835Y007831D01*
X017614Y008052D01*
G37*
G36*
X017475Y007912D02*
X017558Y007995D01*
X017779Y007774D01*
X017696Y007691D01*
X017475Y007912D01*
G37*
G36*
X017336Y007773D02*
X017419Y007856D01*
X017640Y007635D01*
X017557Y007552D01*
X017336Y007773D01*
G37*
G36*
X017196Y007634D02*
X017279Y007717D01*
X017500Y007496D01*
X017417Y007413D01*
X017196Y007634D01*
G37*
G36*
X017057Y007495D02*
X017140Y007578D01*
X017361Y007357D01*
X017278Y007274D01*
X017057Y007495D01*
G37*
G36*
X016861Y007578D02*
X016944Y007495D01*
X016723Y007274D01*
X016640Y007357D01*
X016861Y007578D01*
G37*
G36*
X016721Y007717D02*
X016804Y007634D01*
X016583Y007413D01*
X016500Y007496D01*
X016721Y007717D01*
G37*
G36*
X016582Y007856D02*
X016665Y007773D01*
X016444Y007552D01*
X016361Y007635D01*
X016582Y007856D01*
G37*
G36*
X016443Y007995D02*
X016526Y007912D01*
X016305Y007691D01*
X016222Y007774D01*
X016443Y007995D01*
G37*
G36*
X016304Y008135D02*
X016387Y008052D01*
X016166Y007831D01*
X016083Y007914D01*
X016304Y008135D01*
G37*
G36*
X016165Y008274D02*
X016248Y008191D01*
X016027Y007970D01*
X015944Y008053D01*
X016165Y008274D01*
G37*
G36*
X016025Y008413D02*
X016108Y008330D01*
X015887Y008109D01*
X015804Y008192D01*
X016025Y008413D01*
G37*
G36*
X015886Y008552D02*
X015969Y008469D01*
X015748Y008248D01*
X015665Y008331D01*
X015886Y008552D01*
G37*
G36*
X015747Y008691D02*
X015830Y008608D01*
X015609Y008387D01*
X015526Y008470D01*
X015747Y008691D01*
G37*
G36*
X015608Y008831D02*
X015691Y008748D01*
X015470Y008527D01*
X015387Y008610D01*
X015608Y008831D01*
G37*
G36*
X015469Y008970D02*
X015552Y008887D01*
X015331Y008666D01*
X015248Y008749D01*
X015469Y008970D01*
G37*
D11*
G36*
X015888Y009166D02*
X017000Y010278D01*
X018112Y009166D01*
X017000Y008054D01*
X015888Y009166D01*
G37*
D12*
G36*
X018079Y011145D02*
X017885Y011339D01*
X017969Y011423D01*
X018163Y011229D01*
X018079Y011145D01*
G37*
G36*
X018260Y011326D02*
X018066Y011520D01*
X018150Y011604D01*
X018344Y011410D01*
X018260Y011326D01*
G37*
G36*
X018441Y011507D02*
X018247Y011701D01*
X018331Y011785D01*
X018525Y011591D01*
X018441Y011507D01*
G37*
G36*
X017898Y011688D02*
X017704Y011882D01*
X017788Y011966D01*
X017982Y011772D01*
X017898Y011688D01*
G37*
G36*
X017717Y011507D02*
X017523Y011701D01*
X017607Y011785D01*
X017801Y011591D01*
X017717Y011507D01*
G37*
G36*
X018079Y011869D02*
X017885Y012063D01*
X017969Y012147D01*
X018163Y011953D01*
X018079Y011869D01*
G37*
G36*
X019418Y010530D02*
X019224Y010724D01*
X019308Y010808D01*
X019502Y010614D01*
X019418Y010530D01*
G37*
G36*
X019237Y010349D02*
X019043Y010543D01*
X019127Y010627D01*
X019321Y010433D01*
X019237Y010349D01*
G37*
G36*
X019056Y010168D02*
X018862Y010362D01*
X018946Y010446D01*
X019140Y010252D01*
X019056Y010168D01*
G37*
G36*
X019418Y009807D02*
X019224Y010001D01*
X019308Y010085D01*
X019502Y009891D01*
X019418Y009807D01*
G37*
G36*
X019599Y009988D02*
X019405Y010182D01*
X019489Y010266D01*
X019683Y010072D01*
X019599Y009988D01*
G37*
G36*
X019780Y010168D02*
X019586Y010362D01*
X019670Y010446D01*
X019864Y010252D01*
X019780Y010168D01*
G37*
D13*
G36*
X019681Y008967D02*
X019432Y009216D01*
X019627Y009411D01*
X019876Y009162D01*
X019681Y008967D01*
G37*
G36*
X020043Y008605D02*
X019794Y008854D01*
X019989Y009049D01*
X020238Y008800D01*
X020043Y008605D01*
G37*
G36*
X019649Y007975D02*
X019400Y008224D01*
X019595Y008419D01*
X019844Y008170D01*
X019649Y007975D01*
G37*
G36*
X019287Y008337D02*
X019038Y008586D01*
X019233Y008781D01*
X019482Y008532D01*
X019287Y008337D01*
G37*
G36*
X018618Y006920D02*
X018369Y007169D01*
X018564Y007364D01*
X018813Y007115D01*
X018618Y006920D01*
G37*
G36*
X018980Y006558D02*
X018731Y006807D01*
X018926Y007002D01*
X019175Y006753D01*
X018980Y006558D01*
G37*
G36*
X018389Y006243D02*
X018140Y006492D01*
X018335Y006687D01*
X018584Y006438D01*
X018389Y006243D01*
G37*
G36*
X018028Y006605D02*
X017779Y006854D01*
X017974Y007049D01*
X018223Y006800D01*
X018028Y006605D01*
G37*
G36*
X015896Y006839D02*
X016145Y007088D01*
X016340Y006893D01*
X016091Y006644D01*
X015896Y006839D01*
G37*
G36*
X015534Y006477D02*
X015783Y006726D01*
X015978Y006531D01*
X015729Y006282D01*
X015534Y006477D01*
G37*
G36*
X015219Y007068D02*
X015468Y007317D01*
X015663Y007122D01*
X015414Y006873D01*
X015219Y007068D01*
G37*
G36*
X014597Y007272D02*
X014846Y007521D01*
X015041Y007326D01*
X014792Y007077D01*
X014597Y007272D01*
G37*
G36*
X014235Y006911D02*
X014484Y007160D01*
X014679Y006965D01*
X014430Y006716D01*
X014235Y006911D01*
G37*
X013752Y007119D03*
X013241Y007119D03*
X012059Y007119D03*
X011548Y007119D03*
X010603Y007237D03*
X010603Y007630D03*
X010091Y007630D03*
X010091Y007237D03*
X008910Y007237D03*
X008398Y007237D03*
X008398Y007630D03*
X008910Y007630D03*
X006311Y006646D03*
X005800Y006646D03*
X005130Y006646D03*
X004619Y006646D03*
X004619Y005859D03*
X005130Y005859D03*
X005800Y005859D03*
X006311Y005859D03*
X006311Y005071D03*
X005800Y005071D03*
X005130Y005071D03*
X004619Y005071D03*
X004619Y004087D03*
X005130Y004087D03*
X005800Y004087D03*
X006311Y004087D03*
G36*
X013763Y007855D02*
X014012Y008104D01*
X014207Y007909D01*
X013958Y007660D01*
X013763Y007855D01*
G37*
G36*
X014125Y008217D02*
X014374Y008466D01*
X014569Y008271D01*
X014320Y008022D01*
X014125Y008217D01*
G37*
G36*
X013527Y008643D02*
X013776Y008892D01*
X013971Y008697D01*
X013722Y008448D01*
X013527Y008643D01*
G37*
G36*
X013888Y009005D02*
X014137Y009254D01*
X014332Y009059D01*
X014083Y008810D01*
X013888Y009005D01*
G37*
G36*
X013015Y009312D02*
X013264Y009561D01*
X013459Y009366D01*
X013210Y009117D01*
X013015Y009312D01*
G37*
G36*
X013377Y009674D02*
X013626Y009923D01*
X013821Y009728D01*
X013572Y009479D01*
X013377Y009674D01*
G37*
G36*
X013054Y009942D02*
X013303Y010191D01*
X013498Y009996D01*
X013249Y009747D01*
X013054Y009942D01*
G37*
G36*
X013416Y010304D02*
X013665Y010553D01*
X013860Y010358D01*
X013611Y010109D01*
X013416Y010304D01*
G37*
G36*
X014130Y009715D02*
X013881Y009964D01*
X014076Y010159D01*
X014325Y009910D01*
X014130Y009715D01*
G37*
G36*
X014492Y009353D02*
X014243Y009602D01*
X014438Y009797D01*
X014687Y009548D01*
X014492Y009353D01*
G37*
G36*
X014674Y010388D02*
X014923Y010139D01*
X014728Y009944D01*
X014479Y010193D01*
X014674Y010388D01*
G37*
G36*
X014312Y010750D02*
X014561Y010501D01*
X014366Y010306D01*
X014117Y010555D01*
X014312Y010750D01*
G37*
G36*
X014745Y011222D02*
X014994Y010973D01*
X014799Y010778D01*
X014550Y011027D01*
X014745Y011222D01*
G37*
G36*
X015107Y010860D02*
X015356Y010611D01*
X015161Y010416D01*
X014912Y010665D01*
X015107Y010860D01*
G37*
G36*
X015651Y011655D02*
X015900Y011406D01*
X015705Y011211D01*
X015456Y011460D01*
X015651Y011655D01*
G37*
G36*
X016241Y012167D02*
X016490Y011918D01*
X016295Y011723D01*
X016046Y011972D01*
X016241Y012167D01*
G37*
G36*
X016603Y011805D02*
X016852Y011556D01*
X016657Y011361D01*
X016408Y011610D01*
X016603Y011805D01*
G37*
G36*
X016013Y011293D02*
X016262Y011044D01*
X016067Y010849D01*
X015818Y011098D01*
X016013Y011293D01*
G37*
G36*
X015581Y007430D02*
X015830Y007679D01*
X016025Y007484D01*
X015776Y007235D01*
X015581Y007430D01*
G37*
G36*
X014833Y005717D02*
X015082Y005966D01*
X015277Y005771D01*
X015028Y005522D01*
X014833Y005717D01*
G37*
G36*
X014471Y005355D02*
X014720Y005604D01*
X014915Y005409D01*
X014666Y005160D01*
X014471Y005355D01*
G37*
X026115Y005111D03*
X026626Y005111D03*
X026508Y005504D03*
X027020Y005504D03*
X028162Y005701D03*
X028162Y006095D03*
X028674Y006095D03*
X028674Y005701D03*
X029697Y006370D03*
X030209Y006370D03*
X030288Y005268D03*
X030288Y004874D03*
X030800Y004874D03*
X030800Y005268D03*
X031036Y004048D03*
X030524Y004048D03*
X029855Y004048D03*
X029343Y004048D03*
X030918Y007552D03*
X031430Y007552D03*
X031430Y008142D03*
X030918Y008142D03*
X030209Y009126D03*
X029697Y009126D03*
X029697Y009914D03*
X030209Y009914D03*
X028989Y011134D03*
X028989Y011528D03*
X028477Y011528D03*
X028477Y011134D03*
X029697Y012709D03*
X030209Y012709D03*
X030288Y013851D03*
X029776Y013851D03*
X029107Y013811D03*
X028595Y013811D03*
X028595Y014205D03*
X029107Y014205D03*
X029697Y014914D03*
X030209Y014914D03*
X028989Y016095D03*
X028989Y016489D03*
X028477Y016489D03*
X028477Y016095D03*
X029697Y017670D03*
X030209Y017670D03*
X031036Y017748D03*
X031036Y018142D03*
X031548Y018142D03*
X031548Y017748D03*
X028989Y008142D03*
X028989Y007748D03*
X028477Y007748D03*
X028477Y008142D03*
D14*
X028457Y009185D03*
X028851Y009185D03*
X028851Y009697D03*
X028457Y009697D03*
X030937Y011154D03*
X031331Y011154D03*
X031331Y011666D03*
X030937Y011666D03*
X031292Y012847D03*
X031685Y012847D03*
X031685Y013359D03*
X031292Y013359D03*
X031331Y014933D03*
X031331Y015445D03*
X031331Y016115D03*
X030937Y016115D03*
X030937Y016626D03*
X031331Y016626D03*
X031331Y010485D03*
X031331Y009973D03*
X031685Y006233D03*
X031685Y005721D03*
X031685Y005052D03*
X031685Y004540D03*
X029756Y004815D03*
X029756Y005327D03*
X028811Y004540D03*
X028811Y004028D03*
X027650Y002807D03*
X027650Y002296D03*
X027650Y001607D03*
X027650Y001095D03*
X026056Y004028D03*
X026056Y004540D03*
X021292Y008103D03*
X021292Y008615D03*
X019678Y012099D03*
X019678Y012611D03*
X012197Y010800D03*
X011804Y010800D03*
X011804Y010288D03*
X012197Y010288D03*
X007158Y003713D03*
X007158Y003201D03*
X007158Y002099D03*
X007158Y001587D03*
D15*
X019067Y012228D03*
X019067Y013348D03*
D16*
X010524Y008260D03*
X009776Y008260D03*
X008831Y008260D03*
X008083Y008260D03*
G36*
X013867Y005897D02*
X014229Y006259D01*
X014645Y005843D01*
X014283Y005481D01*
X013867Y005897D01*
G37*
G36*
X014396Y006426D02*
X014758Y006788D01*
X015174Y006372D01*
X014812Y006010D01*
X014396Y006426D01*
G37*
X027926Y006843D03*
X028674Y006843D03*
X032374Y012867D03*
X033122Y012867D03*
X031548Y018930D03*
X030800Y018930D03*
D17*
X027709Y009973D03*
X027709Y009225D03*
X022020Y008595D03*
X022020Y007847D03*
X011174Y010367D03*
X011174Y011115D03*
D18*
X004313Y002522D03*
X004313Y002778D03*
X004313Y003034D03*
X004313Y003290D03*
X006617Y003290D03*
X006617Y003034D03*
X006617Y002778D03*
X006617Y002522D03*
D19*
X029569Y006863D03*
X029825Y006863D03*
X030081Y006863D03*
X030337Y006863D03*
X030337Y008634D03*
X030081Y008634D03*
X029825Y008634D03*
X029569Y008634D03*
X029569Y010445D03*
X029825Y010445D03*
X030081Y010445D03*
X030337Y010445D03*
X030337Y012217D03*
X030081Y012217D03*
X029825Y012217D03*
X029569Y012217D03*
X029569Y015406D03*
X029825Y015406D03*
X030081Y015406D03*
X030337Y015406D03*
X030337Y017178D03*
X030081Y017178D03*
X029825Y017178D03*
X029569Y017178D03*
D20*
X028319Y004668D03*
X028319Y004412D03*
X028319Y004156D03*
X028319Y003900D03*
X026548Y003900D03*
X026548Y004156D03*
X026548Y004412D03*
X026548Y004668D03*
D21*
X012296Y007906D03*
X011311Y007906D03*
X011311Y009481D03*
X012296Y009481D03*
D22*
X012355Y018733D03*
X023378Y018733D03*
X033615Y014953D03*
X033615Y009993D03*
X033615Y005032D03*
X029678Y002119D03*
D23*
X024313Y017709D03*
X022443Y017709D03*
X022443Y019756D03*
X024313Y019756D03*
D24*
X024481Y018733D03*
X022276Y018733D03*
D25*
X013378Y019668D03*
X011331Y019668D03*
X011331Y017798D03*
X013378Y017798D03*
X032591Y015888D03*
X034638Y015888D03*
X034638Y014018D03*
X032591Y014018D03*
X032591Y010928D03*
X034638Y010928D03*
X034638Y009057D03*
X032591Y009057D03*
X032591Y005967D03*
X034638Y005967D03*
X034638Y004097D03*
X032591Y004097D03*
X030701Y003054D03*
X028654Y003054D03*
X028654Y001183D03*
X030701Y001183D03*
D26*
X029678Y001016D03*
X029678Y003221D03*
X033615Y003930D03*
X033615Y006134D03*
X033615Y008890D03*
X033615Y011095D03*
X033615Y013851D03*
X033615Y016056D03*
X012355Y017630D03*
X012355Y019835D03*
D27*
X012514Y006292D03*
X012014Y006292D03*
X011514Y006292D03*
X011014Y006292D03*
X010349Y006292D03*
X009849Y006292D03*
X009349Y006292D03*
X008849Y006292D03*
X008849Y004244D03*
X009349Y004244D03*
X009849Y004244D03*
X010349Y004244D03*
X011014Y004244D03*
X011514Y004244D03*
X012014Y004244D03*
X012514Y004244D03*
D28*
X014933Y002394D03*
X015603Y002394D03*
X015603Y001607D03*
X014933Y001607D03*
M02*
