%
M48
M72
T01C0.0100
T02C0.0160
T03C0.0197
T04C0.0551
T05C0.1299
%
T01
X9461Y3634
X11489Y4874
X12000Y4874
X13339Y4756
X13575Y4638
X13811Y4520
X14087Y4520
X14363Y4520
X14520Y4284
X14678Y4520
X14914Y4284
X15701Y4284
X16095Y4284
X16882Y4284
X17276Y4284
X18063Y4284
X18457Y4284
X19244Y4284
X19638Y4284
X20426Y4284
X20819Y4284
X21607Y4284
X22000Y4284
X22788Y4284
X23181Y4284
X23969Y4284
X24363Y4284
X20347Y7611
X19914Y8418
X19796Y8615
X19048Y8811
X18969Y9048
X18024Y8890
X17630Y8969
X17867Y9363
X17473Y9756
X17119Y9874
X17433Y10150
X17119Y10347
X16370Y9914
X16607Y9638
X15977Y9481
X15701Y9244
X15977Y8890
X16567Y8969
X17119Y8575
X17512Y8496
X17079Y7906
X16370Y8457
X15859Y7906
X15426Y7473
X15977Y7237
X16410Y7040
X17000Y7079
X17906Y7276
X18103Y7158
X18339Y7709
X18615Y7709
X18890Y7709
X19166Y7709
X17276Y9363
X18260Y10268
X17985Y10583
X17119Y11134
X16449Y11016
X16174Y10741
X15741Y10859
X15544Y10662
X15347Y9914
X14559Y9874
X14717Y9363
X15111Y8634
X14756Y8221
X15071Y7985
X14205Y7670
X14244Y7158
X13300Y6764
X15111Y5386
X15898Y5937
X15977Y6292
X16213Y5406
X17276Y1449
X13733Y1528
X13339Y1528
X12945Y1528
X12158Y1528
X11764Y1528
T02
X10583Y1528
T03
X9894Y1469
X9422Y2020
X9973Y2847
X10268Y2985
X11489Y2867
X12433Y2985
X10662Y4323
X12355Y5111
X13831Y6252
X14146Y6646
X15130Y6804
X15347Y5977
X17670Y5465
X18241Y6016
X17670Y6685
X19422Y6646
X19481Y7178
X18989Y8221
X19520Y8772
X19953Y9363
X19835Y9815
X18969Y9717
X19874Y10721
X19225Y11095
X19619Y11370
X19599Y11725
X20386Y12099
X20721Y12473
X20996Y11882
X20426Y11272
X18831Y10741
X18477Y11213
X18752Y11646
X18339Y12237
X17414Y12276
X16784Y11902
X15977Y12237
X15465Y11843
X16213Y11370
X15229Y11016
X14441Y11331
X14008Y10780
X12965Y11292
X11784Y12000
X10406Y11607
X8831Y11607
X10662Y10347
X10012Y9441
X10622Y8772
X11351Y8536
X11981Y8654
X11784Y7906
X13713Y8162
X14126Y8575
X14481Y8693
X14835Y8713
X15603Y7729
X13595Y9146
X15150Y10150
X17453Y11233
X17670Y12867
X18339Y13103
X18260Y13595
X17670Y13536
X16823Y13575
X17453Y14481
X17217Y14756
X16705Y15150
X16252Y15701
X15780Y16134
X16174Y16685
X15819Y17040
X15032Y16804
X14756Y17197
X14244Y17630
X13969Y17985
X14481Y18339
X13969Y18890
X15071Y17827
X15681Y18969
X17178Y18300
X17886Y17197
X16882Y15977
X17197Y15721
X17788Y15130
X18674Y15268
X19815Y14441
X19067Y13949
X18260Y14146
X19697Y13063
X21272Y12985
X21666Y12552
X21981Y12867
X22473Y13359
X21744Y13496
X22355Y14107
X22630Y14343
X23142Y14028
X23654Y14540
X23693Y15130
X23654Y15642
X23063Y15445
X23063Y14815
X24481Y14343
X25071Y13752
X24796Y13477
X25662Y13083
X25347Y12768
X24441Y12886
X23713Y12276
X24441Y11941
X24461Y11489
X25327Y11922
X26331Y11981
X27119Y11449
X26744Y11095
X27807Y10898
X27138Y10229
X26508Y9540
X25839Y10150
X25367Y10347
X25367Y10937
X24481Y10465
X24481Y9717
X23752Y9717
X24500Y9087
X24304Y8615
X25209Y8260
X25485Y8536
X25642Y9126
X25367Y9678
X26528Y8693
X26036Y7926
X25563Y7473
X25288Y7197
X24619Y7670
X23595Y7867
X22650Y8536
X22020Y9087
X21272Y9048
X20878Y8575
X20741Y7985
X20681Y7670
X20977Y7748
X22571Y6843
X22335Y6607
X21863Y6134
X22571Y5622
X22335Y5386
X23044Y4914
X23949Y4678
X24874Y4363
X25544Y4323
X26981Y4382
X27788Y4638
X27788Y3969
X28418Y5229
X29225Y5445
X29717Y5780
X30268Y5622
X30996Y5839
X31193Y6823
X29855Y7335
X29225Y6882
X28674Y7355
X29599Y8103
X30268Y8103
X31016Y8772
X31784Y8989
X32571Y8004
X32965Y7020
X34933Y8004
X30307Y10977
X29638Y10977
X29953Y11764
X30819Y12276
X31056Y12473
X30898Y13319
X30681Y13851
X30032Y13319
X29323Y13457
X28556Y13044
X27178Y13398
X26489Y13949
X26174Y13595
X25583Y14304
X26213Y14894
X26449Y15130
X26882Y15603
X27532Y14973
X28162Y15603
X28634Y14894
X29815Y14500
X30839Y15248
X30307Y15937
X29638Y15937
X29953Y16725
X30859Y17197
X31095Y17394
X29815Y18241
X28477Y18339
X26902Y18181
X25957Y18851
X27178Y20189
X28674Y19678
X29264Y20465
X29658Y19678
X30524Y20622
X31508Y20898
X32807Y21567
X33201Y20662
X32571Y19815
X31587Y19619
X32138Y18870
X34619Y20780
X28634Y17256
X27512Y16233
X26390Y16449
X24855Y15937
X23693Y16390
X23752Y16725
X23063Y16430
X23063Y17059
X21902Y16410
X20898Y15485
X20485Y16410
X20288Y18181
X18752Y19402
X16941Y19993
X17886Y20859
X20288Y21016
X22256Y21449
X24579Y21095
X21075Y19559
X15367Y20859
X12729Y21528
X10681Y21056
X9894Y20229
X8792Y19205
X10209Y18024
X8792Y16961
X10445Y16174
X11351Y15229
X12807Y15268
X14067Y15386
X15760Y14993
X15209Y13693
X13595Y14048
X12689Y13300
X14579Y12276
X10445Y13969
X8516Y12748
X7453Y13693
X6311Y14599
X4343Y13615
X2020Y14717
X3241Y15544
X4619Y16725
X6351Y16528
X7217Y17985
X5130Y18418
X4185Y19520
X6036Y19559
X5367Y20937
X6823Y21528
X8201Y21016
X3044Y21134
X1705Y19953
X918Y21528
X1233Y15701
X1863Y12433
X1351Y11213
X2729Y10229
X957Y9835
X2926Y8260
X957Y7670
X1666Y6449
X2847Y6449
X4225Y6646
X4225Y5859
X4225Y5071
X4225Y4087
X2453Y5071
X1272Y4087
X4815Y2532
X5603Y1922
X6764Y1607
X7768Y1331
X6272Y3575
X6764Y4087
X7965Y3693
X7178Y5465
X7965Y6056
X7926Y7433
X6863Y8260
X7847Y9441
X8851Y8772
X9304Y8221
X9619Y7433
X9028Y10032
X6469Y10229
X4894Y9835
X5288Y11410
X8713Y15504
X12296Y16370
X21430Y14481
X22414Y11961
X22296Y10504
X26784Y7493
X26056Y6764
X25524Y6233
X25130Y5839
X24796Y5485
X24028Y5937
X24500Y6410
X23595Y6646
X23044Y6095
X21666Y4717
X20957Y5268
X20642Y4953
X20209Y4697
X18556Y4599
X20052Y5878
X20898Y6233
X16587Y4402
X16528Y2965
X17670Y2926
X19087Y2886
X20229Y2945
X21331Y2886
X22197Y2926
X23693Y2886
X24638Y2926
X25544Y2906
X26351Y2059
X25957Y1390
X25544Y1449
X25544Y1095
X24835Y1469
X23496Y1430
X22433Y1469
X21174Y1469
X20150Y1449
X18693Y1469
X17689Y1449
X16233Y1449
X15248Y1213
X14835Y1095
X12591Y1449
X11331Y1449
X14835Y2945
X15268Y2847
X4225Y1331
X26863Y1115
X31390Y2335
X31784Y3044
X31075Y4500
X27788Y5859
X27591Y6095
X27040Y6056
X29087Y8615
X28851Y8811
X28851Y10189
X27926Y11764
X28418Y12138
X28792Y12138
X27099Y14520
X33359Y11941
X33634Y12886
X34737Y11744
X28044Y21370
X31784Y1115
T04
X26607Y2906
X9126Y2906
T05
X2119Y2119
X2119Y17867
X33615Y17867
X33615Y2119
M30
