G75*
G70*
%OFA0B0*%
%FSLAX24Y24*%
%IPPOS*%
%LPD*%
%AMOC8*
5,1,8,0,0,1.08239X$1,22.5*
%
%ADD10C,0.0080*%
%ADD11C,0.0060*%
%ADD12C,0.0040*%
%ADD13C,0.0050*%
%ADD14C,0.0220*%
%ADD15R,0.0200X0.0320*%
D10*
X010861Y001766D02*
X010861Y004066D01*
X011199Y004066D01*
X011199Y003900D01*
X011066Y003302D02*
X011066Y002514D01*
X011066Y002515D02*
X011065Y002482D01*
X011068Y002450D01*
X011075Y002419D01*
X011086Y002388D01*
X011099Y002359D01*
X011116Y002331D01*
X011136Y002306D01*
X011158Y002283D01*
X011183Y002262D01*
X011211Y002245D01*
X011240Y002230D01*
X011270Y002219D01*
X011301Y002212D01*
X011333Y002208D01*
X011191Y001932D02*
X011191Y001766D01*
X010861Y001766D01*
X011065Y003310D02*
X011067Y003343D01*
X011073Y003376D01*
X011082Y003408D01*
X011094Y003439D01*
X011110Y003469D01*
X011128Y003497D01*
X011150Y003522D01*
X011173Y003546D01*
X011200Y003566D01*
X011228Y003584D01*
X011258Y003599D01*
X011289Y003611D01*
X011322Y003619D01*
X011355Y003624D01*
X011388Y003625D01*
X005869Y011971D02*
X005869Y020436D01*
X029884Y020436D01*
X029884Y011971D01*
X005869Y011971D01*
X024562Y004066D02*
X024562Y003900D01*
X024562Y004066D02*
X024908Y004066D01*
X024908Y001766D01*
X024554Y001766D01*
X024554Y001932D01*
X024688Y002530D02*
X024688Y003317D01*
X024687Y003317D02*
X024688Y003350D01*
X024685Y003382D01*
X024678Y003413D01*
X024667Y003444D01*
X024654Y003473D01*
X024637Y003501D01*
X024617Y003526D01*
X024595Y003549D01*
X024570Y003570D01*
X024542Y003587D01*
X024513Y003602D01*
X024483Y003613D01*
X024452Y003620D01*
X024420Y003624D01*
X024688Y002522D02*
X024686Y002489D01*
X024680Y002456D01*
X024671Y002424D01*
X024659Y002393D01*
X024643Y002363D01*
X024625Y002335D01*
X024603Y002310D01*
X024580Y002286D01*
X024553Y002266D01*
X024525Y002248D01*
X024495Y002233D01*
X024464Y002221D01*
X024431Y002213D01*
X024398Y002208D01*
X024365Y002207D01*
D11*
X024343Y018989D02*
X024343Y019630D01*
X024129Y019416D01*
X023916Y019630D01*
X023916Y018989D01*
X023698Y019096D02*
X023591Y018989D01*
X023378Y018989D01*
X023271Y019096D01*
X023271Y019203D01*
X023378Y019309D01*
X023698Y019309D01*
X023698Y019096D01*
X023698Y019309D02*
X023485Y019523D01*
X023271Y019630D01*
X023053Y019309D02*
X022626Y019309D01*
X022409Y019203D02*
X022089Y019203D01*
X021982Y019309D01*
X021982Y019523D01*
X022089Y019630D01*
X022409Y019630D01*
X022409Y018989D01*
X022195Y019203D02*
X021982Y018989D01*
X021764Y018989D02*
X021764Y019630D01*
X021337Y019630D01*
X021120Y019523D02*
X021013Y019630D01*
X020800Y019630D01*
X020693Y019523D01*
X020693Y019416D01*
X020800Y019309D01*
X020693Y019203D01*
X020693Y019096D01*
X020800Y018989D01*
X021013Y018989D01*
X021120Y019096D01*
X020906Y019309D02*
X020800Y019309D01*
X020475Y019416D02*
X020262Y019630D01*
X020262Y018989D01*
X020475Y018989D02*
X020048Y018989D01*
X019831Y019096D02*
X019724Y018989D01*
X019510Y018989D01*
X019404Y019096D01*
X019404Y019309D01*
X019510Y019416D01*
X019617Y019416D01*
X019831Y019309D01*
X019831Y019630D01*
X019404Y019630D01*
X021551Y019309D02*
X021764Y019309D01*
X014402Y019203D02*
X014081Y019203D01*
X013975Y019309D01*
X013975Y019523D01*
X014081Y019630D01*
X014402Y019630D01*
X014402Y018989D01*
X014188Y019203D02*
X013975Y018989D01*
X013757Y019096D02*
X013757Y019309D01*
X013650Y019416D01*
X013437Y019416D01*
X013330Y019309D01*
X013330Y019203D01*
X013757Y019203D01*
X013757Y019096D02*
X013650Y018989D01*
X013437Y018989D01*
X013113Y019416D02*
X012899Y018989D01*
X012686Y019416D01*
X012039Y019416D02*
X012039Y018989D01*
X011612Y018989D02*
X011612Y019416D01*
X011826Y019630D01*
X012039Y019416D01*
X012039Y019309D02*
X011612Y019309D01*
D12*
X010640Y001920D02*
X010333Y001920D01*
X010486Y001920D02*
X010486Y002381D01*
X010640Y002227D01*
X010640Y003444D02*
X010333Y003444D01*
X010333Y003751D02*
X010333Y003827D01*
X010410Y003904D01*
X010563Y003904D01*
X010640Y003827D01*
X010333Y003751D02*
X010640Y003444D01*
X010936Y012625D02*
X010782Y012778D01*
X010859Y012778D01*
X010859Y012855D01*
X010782Y012855D01*
X010782Y012778D01*
X011089Y012778D02*
X011319Y012778D01*
X011396Y012855D01*
X011396Y013085D01*
X011550Y013085D02*
X011703Y013085D01*
X011626Y013162D02*
X011626Y012855D01*
X011550Y012778D01*
X011857Y012778D02*
X012010Y012778D01*
X011933Y012778D02*
X011933Y013085D01*
X012010Y013085D01*
X012163Y013085D02*
X012394Y013085D01*
X012470Y013009D01*
X012394Y012932D01*
X012240Y012932D01*
X012163Y012855D01*
X012240Y012778D01*
X012470Y012778D01*
X012624Y013085D02*
X012701Y013085D01*
X012854Y012932D01*
X012854Y013085D02*
X012854Y012778D01*
X013008Y012932D02*
X013008Y013009D01*
X013084Y013085D01*
X013238Y013085D01*
X013314Y013009D01*
X013314Y012855D01*
X013238Y012778D01*
X013084Y012778D01*
X013008Y012932D02*
X013314Y012932D01*
X013468Y013085D02*
X013621Y012778D01*
X013775Y013085D01*
X014005Y013085D02*
X014005Y012778D01*
X014082Y012778D02*
X013928Y012778D01*
X014235Y012778D02*
X014235Y013009D01*
X014312Y013085D01*
X014542Y013085D01*
X014542Y012778D01*
X014696Y012855D02*
X014696Y013239D01*
X015003Y013239D02*
X015003Y012855D01*
X014926Y012778D01*
X014772Y012778D01*
X014696Y012855D01*
X014082Y013085D02*
X014005Y013085D01*
X014005Y013239D02*
X014005Y013316D01*
X014116Y013763D02*
X014346Y013763D01*
X014422Y013839D01*
X014422Y013993D01*
X014346Y014070D01*
X014116Y014070D01*
X014116Y014223D02*
X014116Y013763D01*
X013962Y013839D02*
X013962Y013993D01*
X013885Y014070D01*
X013732Y014070D01*
X013655Y013993D01*
X013655Y013916D01*
X013962Y013916D01*
X013962Y013839D02*
X013885Y013763D01*
X013732Y013763D01*
X013502Y013763D02*
X013425Y013763D01*
X013425Y013839D01*
X013502Y013839D01*
X013502Y013763D01*
X013271Y013839D02*
X013195Y013763D01*
X012965Y013763D01*
X012811Y013839D02*
X012811Y013993D01*
X012734Y014070D01*
X012581Y014070D01*
X012504Y013993D01*
X012504Y013839D01*
X012581Y013763D01*
X012734Y013763D01*
X012811Y013839D01*
X012965Y014070D02*
X013195Y014070D01*
X013271Y013993D01*
X013271Y013839D01*
X012351Y013763D02*
X012351Y014070D01*
X012274Y014070D01*
X012197Y013993D01*
X012120Y014070D01*
X012044Y013993D01*
X012044Y013763D01*
X012197Y013763D02*
X012197Y013993D01*
X011933Y013316D02*
X011933Y013239D01*
X011089Y013085D02*
X011089Y012702D01*
X011166Y012625D01*
X011243Y012625D01*
X010168Y012778D02*
X010015Y012778D01*
X010092Y012778D02*
X010092Y013239D01*
X010168Y013239D02*
X010015Y013239D01*
X009862Y013162D02*
X009862Y013085D01*
X009785Y013009D01*
X009631Y013009D01*
X009555Y012932D01*
X009555Y012855D01*
X009631Y012778D01*
X009785Y012778D01*
X009862Y012855D01*
X009862Y013162D02*
X009785Y013239D01*
X009631Y013239D01*
X009555Y013162D01*
X009401Y013239D02*
X009248Y013239D01*
X009324Y013239D02*
X009324Y012778D01*
X009248Y012778D02*
X009401Y012778D01*
X009094Y012855D02*
X009017Y012778D01*
X008864Y012778D01*
X008787Y012855D01*
X008787Y012932D01*
X008864Y013009D01*
X009017Y013009D01*
X009094Y013085D01*
X009094Y013162D01*
X009017Y013239D01*
X008864Y013239D01*
X008787Y013162D01*
X014576Y013839D02*
X014576Y013993D01*
X014653Y014070D01*
X014806Y014070D01*
X014883Y013993D01*
X014883Y013839D01*
X014806Y013763D01*
X014653Y013763D01*
X014576Y013839D01*
X015036Y013763D02*
X015266Y013763D01*
X015343Y013839D01*
X015343Y013993D01*
X015266Y014070D01*
X015036Y014070D01*
X015497Y013993D02*
X015497Y013916D01*
X015804Y013916D01*
X015804Y013839D02*
X015804Y013993D01*
X015727Y014070D01*
X015573Y014070D01*
X015497Y013993D01*
X015573Y013763D02*
X015727Y013763D01*
X015804Y013839D01*
X015957Y013763D02*
X016111Y013763D01*
X016034Y013763D02*
X016034Y014223D01*
X016111Y014223D01*
X016264Y014070D02*
X016494Y014070D01*
X016571Y013993D01*
X016571Y013839D01*
X016494Y013763D01*
X016264Y013763D01*
X016264Y013686D02*
X016264Y014070D01*
X016264Y013686D02*
X016341Y013609D01*
X016417Y013609D01*
X016307Y013316D02*
X016307Y013239D01*
X016307Y013085D02*
X016307Y012778D01*
X016384Y012778D02*
X016230Y012778D01*
X016077Y012778D02*
X015923Y012778D01*
X016000Y012778D02*
X016000Y013239D01*
X016077Y013239D01*
X016307Y013085D02*
X016384Y013085D01*
X016537Y013009D02*
X016537Y012855D01*
X016614Y012778D01*
X016844Y012778D01*
X016844Y013239D01*
X016844Y013085D02*
X016614Y013085D01*
X016537Y013009D01*
X016998Y013085D02*
X017074Y013085D01*
X017228Y012932D01*
X017381Y012932D02*
X017688Y012932D01*
X017688Y012855D02*
X017688Y013009D01*
X017611Y013085D01*
X017458Y013085D01*
X017381Y013009D01*
X017381Y012932D01*
X017458Y012778D02*
X017611Y012778D01*
X017688Y012855D01*
X017842Y012778D02*
X018072Y012778D01*
X018149Y012855D01*
X018149Y013009D01*
X018072Y013085D01*
X017842Y013085D01*
X017842Y013239D02*
X017842Y012778D01*
X017228Y012778D02*
X017228Y013085D01*
X017722Y013609D02*
X017645Y013686D01*
X017645Y014070D01*
X017875Y014070D01*
X017952Y013993D01*
X017952Y013839D01*
X017875Y013763D01*
X017645Y013763D01*
X017492Y013839D02*
X017492Y013993D01*
X017415Y014070D01*
X017262Y014070D01*
X017185Y013993D01*
X017185Y013839D01*
X017262Y013763D01*
X017415Y013763D01*
X017492Y013839D01*
X017722Y013609D02*
X017799Y013609D01*
X018106Y013763D02*
X018182Y013763D01*
X018182Y013839D01*
X018106Y013839D01*
X018106Y013763D01*
X018336Y013916D02*
X018643Y013916D01*
X018643Y013839D02*
X018643Y013993D01*
X018566Y014070D01*
X018412Y014070D01*
X018336Y013993D01*
X018336Y013916D01*
X018412Y013763D02*
X018566Y013763D01*
X018643Y013839D01*
X018796Y013763D02*
X018873Y013839D01*
X018873Y014146D01*
X018950Y014070D02*
X018796Y014070D01*
X019103Y013993D02*
X019103Y013839D01*
X019180Y013763D01*
X019333Y013763D01*
X019410Y013839D01*
X019410Y013993D01*
X019333Y014070D01*
X019180Y014070D01*
X019103Y013993D01*
X019563Y013993D02*
X019563Y013763D01*
X019717Y013763D02*
X019717Y013993D01*
X019640Y014070D01*
X019563Y013993D01*
X019717Y013993D02*
X019794Y014070D01*
X019870Y014070D01*
X019870Y013763D01*
X020024Y014070D02*
X020101Y014070D01*
X020254Y013916D01*
X020254Y013763D02*
X020254Y014070D01*
X020408Y013993D02*
X020408Y013763D01*
X020638Y013763D01*
X020714Y013839D01*
X020638Y013916D01*
X020408Y013916D01*
X020408Y013993D02*
X020484Y014070D01*
X020638Y014070D01*
X020868Y013993D02*
X020868Y013763D01*
X021021Y013763D02*
X021021Y013993D01*
X020945Y014070D01*
X020868Y013993D01*
X021021Y013993D02*
X021098Y014070D01*
X021175Y014070D01*
X021175Y013763D01*
X021635Y013763D02*
X021328Y014223D01*
X021789Y014223D02*
X022096Y013763D01*
X022249Y013763D02*
X022326Y013763D01*
X022326Y013839D01*
X022249Y013839D01*
X022249Y013763D01*
X022249Y013993D02*
X022326Y013993D01*
X022326Y014070D01*
X022249Y014070D01*
X022249Y013993D01*
X022479Y013993D02*
X022479Y013839D01*
X022556Y013763D01*
X022786Y013763D01*
X022940Y013763D02*
X023016Y013839D01*
X023016Y014146D01*
X022940Y014070D02*
X023093Y014070D01*
X023247Y014070D02*
X023400Y014070D01*
X023323Y014146D02*
X023323Y013839D01*
X023247Y013763D01*
X023554Y013763D02*
X023554Y013993D01*
X023630Y014070D01*
X023784Y014070D01*
X023860Y013993D01*
X023860Y014223D02*
X023860Y013763D01*
X024018Y013239D02*
X024018Y012778D01*
X024171Y012778D02*
X024401Y012778D01*
X024478Y012855D01*
X024478Y013009D01*
X024401Y013085D01*
X024171Y013085D01*
X024171Y012702D01*
X024248Y012625D01*
X024324Y012625D01*
X024631Y012778D02*
X024785Y012778D01*
X024708Y012778D02*
X024708Y013085D01*
X024785Y013085D01*
X024938Y013085D02*
X025015Y013085D01*
X025169Y012932D01*
X025169Y013085D02*
X025169Y012778D01*
X025322Y012778D02*
X025552Y012778D01*
X025629Y012855D01*
X025629Y013085D01*
X025782Y013009D02*
X025782Y012855D01*
X025859Y012778D01*
X026089Y012778D01*
X026089Y012625D02*
X026089Y013085D01*
X025859Y013085D01*
X025782Y013009D01*
X026243Y013009D02*
X026243Y012855D01*
X026319Y012778D01*
X026473Y012778D01*
X026550Y012855D01*
X026550Y013009D01*
X026473Y013085D01*
X026319Y013085D01*
X026243Y013009D01*
X026703Y013162D02*
X026780Y013239D01*
X026933Y013239D01*
X027010Y013162D01*
X027010Y012855D01*
X026933Y012778D01*
X026780Y012778D01*
X026703Y012855D01*
X025475Y012625D02*
X025399Y012625D01*
X025322Y012702D01*
X025322Y013085D01*
X024708Y013239D02*
X024708Y013316D01*
X024018Y013009D02*
X023941Y013085D01*
X023787Y013085D01*
X023711Y013009D01*
X023711Y012778D01*
X023480Y012855D02*
X023480Y013162D01*
X023557Y013085D02*
X023404Y013085D01*
X023480Y012855D02*
X023404Y012778D01*
X022790Y012855D02*
X022713Y012778D01*
X022483Y012778D01*
X022483Y013085D02*
X022713Y013085D01*
X022790Y013009D01*
X022790Y012855D01*
X021869Y012778D02*
X021562Y013085D01*
X021562Y013162D01*
X021639Y013239D01*
X021792Y013239D01*
X021869Y013162D01*
X021869Y012778D02*
X021562Y012778D01*
X021409Y012855D02*
X021102Y013162D01*
X021102Y012855D01*
X021178Y012778D01*
X021332Y012778D01*
X021409Y012855D01*
X021409Y013162D01*
X021332Y013239D01*
X021178Y013239D01*
X021102Y013162D01*
X020948Y013085D02*
X020795Y013239D01*
X020795Y012778D01*
X020948Y012778D02*
X020641Y012778D01*
X020488Y012778D02*
X020181Y013085D01*
X020181Y013162D01*
X020258Y013239D01*
X020411Y013239D01*
X020488Y013162D01*
X020488Y012778D02*
X020181Y012778D01*
X019530Y012932D02*
X019530Y013239D01*
X019223Y013239D02*
X019223Y012932D01*
X019376Y012778D01*
X019530Y012932D01*
X019069Y012855D02*
X018993Y012932D01*
X018762Y012932D01*
X018762Y013009D02*
X018762Y012778D01*
X018993Y012778D01*
X019069Y012855D01*
X018993Y013085D02*
X018839Y013085D01*
X018762Y013009D01*
X018609Y013085D02*
X018379Y013085D01*
X018302Y013009D01*
X018302Y012778D01*
X018609Y012778D02*
X018609Y013085D01*
X017031Y013839D02*
X016955Y013763D01*
X016801Y013763D01*
X016724Y013839D01*
X016724Y013993D01*
X016801Y014070D01*
X016955Y014070D01*
X017031Y013993D01*
X017031Y013839D01*
X015770Y013085D02*
X015616Y013085D01*
X015693Y013162D02*
X015693Y012855D01*
X015616Y012778D01*
X022479Y013993D02*
X022556Y014070D01*
X022786Y014070D01*
X022786Y013609D01*
X022753Y017798D02*
X022523Y017798D01*
X022370Y017875D02*
X022370Y018028D01*
X022293Y018105D01*
X022139Y018105D01*
X022063Y018028D01*
X022063Y017952D01*
X022370Y017952D01*
X022370Y017875D02*
X022293Y017798D01*
X022139Y017798D01*
X021909Y017798D02*
X021756Y017798D01*
X021832Y017798D02*
X021832Y018105D01*
X021909Y018105D01*
X021832Y018259D02*
X021832Y018335D01*
X021602Y018105D02*
X021449Y017798D01*
X021295Y018105D01*
X021142Y018028D02*
X021065Y018105D01*
X020912Y018105D01*
X020835Y018028D01*
X020835Y017952D01*
X021142Y017952D01*
X021142Y018028D02*
X021142Y017875D01*
X021065Y017798D01*
X020912Y017798D01*
X020681Y017798D02*
X020681Y018105D01*
X020528Y018105D02*
X020451Y018105D01*
X020528Y018105D02*
X020681Y017952D01*
X019837Y017798D02*
X019837Y018105D01*
X019761Y018105D01*
X019684Y018028D01*
X019607Y018105D01*
X019530Y018028D01*
X019530Y017798D01*
X019684Y017798D02*
X019684Y018028D01*
X019377Y018028D02*
X019377Y017875D01*
X019300Y017798D01*
X019147Y017798D01*
X019070Y017875D01*
X019070Y018028D01*
X019147Y018105D01*
X019300Y018105D01*
X019377Y018028D01*
X018917Y018028D02*
X018917Y017875D01*
X018840Y017798D01*
X018610Y017798D01*
X018610Y018259D01*
X018610Y018105D02*
X018840Y018105D01*
X018917Y018028D01*
X018456Y018105D02*
X018456Y017875D01*
X018380Y017798D01*
X018149Y017798D01*
X018149Y018105D01*
X017996Y018259D02*
X017919Y018259D01*
X017919Y017798D01*
X017996Y017798D02*
X017842Y017798D01*
X017689Y017875D02*
X017689Y018028D01*
X017612Y018105D01*
X017459Y018105D01*
X017382Y018028D01*
X017382Y017952D01*
X017689Y017952D01*
X017689Y017875D02*
X017612Y017798D01*
X017459Y017798D01*
X016774Y018028D02*
X016620Y018028D01*
X016467Y018028D02*
X016467Y017875D01*
X016390Y017798D01*
X016237Y017798D01*
X016160Y017875D01*
X016160Y018028D01*
X016237Y018105D01*
X016390Y018105D01*
X016467Y018028D01*
X016697Y018182D02*
X016697Y017798D01*
X016697Y018182D02*
X016620Y018259D01*
X016007Y018105D02*
X016007Y017798D01*
X016007Y017952D02*
X015853Y018105D01*
X015776Y018105D01*
X015162Y018105D02*
X015009Y018105D01*
X015086Y018182D02*
X015086Y017875D01*
X015009Y017798D01*
X014856Y017798D02*
X014856Y018259D01*
X014779Y018105D02*
X014625Y018105D01*
X014549Y018028D01*
X014549Y017798D01*
X014395Y017875D02*
X014395Y018028D01*
X014318Y018105D01*
X014165Y018105D01*
X014088Y018028D01*
X014088Y017952D01*
X014395Y017952D01*
X014395Y017875D02*
X014318Y017798D01*
X014165Y017798D01*
X014779Y018105D02*
X014856Y018028D01*
X013474Y017798D02*
X013474Y018259D01*
X013321Y018105D01*
X013167Y018259D01*
X013167Y017798D01*
X013014Y017875D02*
X012937Y017952D01*
X012707Y017952D01*
X012707Y018028D02*
X012707Y017798D01*
X012937Y017798D01*
X013014Y017875D01*
X012937Y018105D02*
X012784Y018105D01*
X012707Y018028D01*
X012554Y017952D02*
X012400Y018105D01*
X012323Y018105D01*
X012170Y018105D02*
X012093Y018105D01*
X012016Y018028D01*
X011940Y018105D01*
X011863Y018028D01*
X011863Y017798D01*
X012016Y017798D02*
X012016Y018028D01*
X012170Y018105D02*
X012170Y017798D01*
X012554Y017798D02*
X012554Y018105D01*
X011710Y018028D02*
X011710Y017875D01*
X011633Y017798D01*
X011479Y017798D01*
X011403Y017875D01*
X011403Y018028D01*
X011479Y018105D01*
X011633Y018105D01*
X011710Y018028D01*
X011249Y018105D02*
X011096Y018105D01*
X011172Y018182D02*
X011172Y017875D01*
X011096Y017798D01*
X010942Y017875D02*
X010942Y018028D01*
X010865Y018105D01*
X010712Y018105D01*
X010635Y018028D01*
X010635Y017952D01*
X010942Y017952D01*
X010942Y017875D02*
X010865Y017798D01*
X010712Y017798D01*
X010021Y017798D02*
X009791Y017798D01*
X009715Y017875D01*
X009715Y018028D01*
X009791Y018105D01*
X010021Y018105D01*
X010021Y017645D01*
X009561Y017798D02*
X009408Y017798D01*
X009484Y017798D02*
X009484Y018259D01*
X009561Y018259D01*
X009177Y018105D02*
X009024Y018105D01*
X008947Y018028D01*
X008947Y017798D01*
X009177Y017798D01*
X009254Y017875D01*
X009177Y017952D01*
X008947Y017952D01*
X008794Y018105D02*
X008640Y018105D01*
X008717Y018182D02*
X008717Y017875D01*
X008640Y017798D01*
X008410Y017798D02*
X008410Y018182D01*
X008333Y018259D01*
X008333Y018028D02*
X008487Y018028D01*
X008180Y018028D02*
X008180Y017875D01*
X008103Y017798D01*
X007950Y017798D01*
X007873Y017875D01*
X007873Y018028D01*
X007950Y018105D01*
X008103Y018105D01*
X008180Y018028D01*
X007719Y017952D02*
X007566Y018105D01*
X007489Y018105D01*
X007336Y018105D02*
X007259Y018105D01*
X007182Y018028D01*
X007106Y018105D01*
X007029Y018028D01*
X007029Y017798D01*
X007182Y017798D02*
X007182Y018028D01*
X007336Y018105D02*
X007336Y017798D01*
X007719Y017798D02*
X007719Y018105D01*
X022523Y018105D02*
X022753Y018105D01*
X022830Y018028D01*
X022830Y017875D01*
X022753Y017798D01*
X022983Y017875D02*
X023060Y017952D01*
X023214Y017952D01*
X023290Y018028D01*
X023214Y018105D01*
X022983Y018105D01*
X022983Y017875D02*
X023060Y017798D01*
X023290Y017798D01*
X023444Y017798D02*
X023444Y018028D01*
X023521Y018105D01*
X023751Y018105D01*
X023751Y017798D01*
X023904Y017798D02*
X024134Y017798D01*
X024211Y017875D01*
X024134Y017952D01*
X023904Y017952D01*
X023904Y018028D02*
X023904Y017798D01*
X023904Y018028D02*
X023981Y018105D01*
X024134Y018105D01*
X024365Y018105D02*
X024441Y018105D01*
X024595Y017952D01*
X024595Y018105D02*
X024595Y017798D01*
X024748Y017798D02*
X024825Y017875D01*
X024825Y018182D01*
X024902Y018105D02*
X024748Y018105D01*
X025516Y018105D02*
X025823Y017798D01*
X025516Y017798D01*
X025516Y018105D02*
X025823Y018105D01*
X025976Y018028D02*
X026283Y018028D01*
X026283Y017798D02*
X026283Y018259D01*
X026436Y018259D02*
X026436Y017798D01*
X026743Y017798D02*
X026743Y018259D01*
X026590Y018105D01*
X026436Y018259D01*
X025976Y018259D02*
X025976Y017798D01*
X027357Y017875D02*
X027434Y017798D01*
X027587Y017798D01*
X027664Y017875D01*
X027664Y018028D02*
X027511Y018105D01*
X027434Y018105D01*
X027357Y018028D01*
X027357Y017875D01*
X027664Y018028D02*
X027664Y018259D01*
X027357Y018259D01*
X027971Y018259D02*
X027971Y017798D01*
X028124Y017798D02*
X027818Y017798D01*
X028124Y018105D02*
X027971Y018259D01*
X028278Y018182D02*
X028278Y018105D01*
X028355Y018028D01*
X028278Y017952D01*
X028278Y017875D01*
X028355Y017798D01*
X028508Y017798D01*
X028585Y017875D01*
X028431Y018028D02*
X028355Y018028D01*
X028278Y018182D02*
X028355Y018259D01*
X028508Y018259D01*
X028585Y018182D01*
X025655Y003857D02*
X025809Y003780D01*
X025962Y003627D01*
X025732Y003627D01*
X025655Y003550D01*
X025655Y003473D01*
X025732Y003397D01*
X025886Y003397D01*
X025962Y003473D01*
X025962Y003627D01*
X025502Y003627D02*
X025195Y003627D01*
X025272Y003397D02*
X025272Y003857D01*
X025502Y003627D01*
X025425Y002329D02*
X025272Y002329D01*
X025195Y002253D01*
X025195Y002176D01*
X025272Y002099D01*
X025195Y002022D01*
X025195Y001946D01*
X025272Y001869D01*
X025425Y001869D01*
X025502Y001946D01*
X025655Y001946D02*
X025655Y002022D01*
X025732Y002099D01*
X025962Y002099D01*
X025962Y001946D01*
X025886Y001869D01*
X025732Y001869D01*
X025655Y001946D01*
X025349Y002099D02*
X025272Y002099D01*
X025502Y002253D02*
X025425Y002329D01*
X025655Y002329D02*
X025809Y002253D01*
X025962Y002099D01*
D13*
X022266Y012936D02*
X022268Y012972D01*
X022274Y013008D01*
X022284Y013043D01*
X022297Y013077D01*
X022314Y013109D01*
X022334Y013139D01*
X022358Y013166D01*
X022384Y013191D01*
X022413Y013213D01*
X022444Y013232D01*
X022477Y013247D01*
X022511Y013259D01*
X022547Y013267D01*
X022583Y013271D01*
X022619Y013271D01*
X022655Y013267D01*
X022691Y013259D01*
X022725Y013247D01*
X022758Y013232D01*
X022789Y013213D01*
X022818Y013191D01*
X022844Y013166D01*
X022868Y013139D01*
X022888Y013109D01*
X022905Y013077D01*
X022918Y013043D01*
X022928Y013008D01*
X022934Y012972D01*
X022936Y012936D01*
X022934Y012900D01*
X022928Y012864D01*
X022918Y012829D01*
X022905Y012795D01*
X022888Y012763D01*
X022868Y012733D01*
X022844Y012706D01*
X022818Y012681D01*
X022789Y012659D01*
X022758Y012640D01*
X022725Y012625D01*
X022691Y012613D01*
X022655Y012605D01*
X022619Y012601D01*
X022583Y012601D01*
X022547Y012605D01*
X022511Y012613D01*
X022477Y012625D01*
X022444Y012640D01*
X022413Y012659D01*
X022384Y012681D01*
X022358Y012706D01*
X022334Y012733D01*
X022314Y012763D01*
X022297Y012795D01*
X022284Y012829D01*
X022274Y012864D01*
X022268Y012900D01*
X022266Y012936D01*
D14*
X017495Y009707D02*
X017471Y009707D01*
X016707Y009215D02*
X016683Y009215D01*
X019451Y008833D02*
X019451Y008809D01*
X020042Y007652D02*
X020042Y007628D01*
D15*
X005573Y010790D03*
X005573Y011577D03*
M02*
