G75*
G70*
%OFA0B0*%
%FSLAX24Y24*%
%IPPOS*%
%LPD*%
%AMOC8*
5,1,8,0,0,1.08239X$1,22.5*
%
%ADD10R,0.3696X0.0011*%
%ADD11R,0.3696X0.0011*%
%ADD12R,0.0175X0.0011*%
%ADD13R,0.0689X0.0011*%
%ADD14R,0.0175X0.0011*%
%ADD15R,0.0678X0.0011*%
%ADD16R,0.0667X0.0011*%
%ADD17R,0.0656X0.0011*%
%ADD18R,0.0798X0.0011*%
%ADD19R,0.0951X0.0011*%
%ADD20R,0.0809X0.0011*%
%ADD21R,0.0645X0.0011*%
%ADD22R,0.0787X0.0011*%
%ADD23R,0.0941X0.0011*%
%ADD24R,0.0809X0.0011*%
%ADD25R,0.0623X0.0011*%
%ADD26R,0.0930X0.0011*%
%ADD27R,0.0612X0.0011*%
%ADD28R,0.0919X0.0011*%
%ADD29R,0.0601X0.0011*%
%ADD30R,0.0776X0.0011*%
%ADD31R,0.0908X0.0011*%
%ADD32R,0.0591X0.0011*%
%ADD33R,0.0776X0.0011*%
%ADD34R,0.0897X0.0011*%
%ADD35R,0.0809X0.0011*%
%ADD36R,0.0580X0.0011*%
%ADD37R,0.0886X0.0011*%
%ADD38R,0.0798X0.0011*%
%ADD39R,0.0569X0.0011*%
%ADD40R,0.0875X0.0011*%
%ADD41R,0.0558X0.0011*%
%ADD42R,0.0766X0.0011*%
%ADD43R,0.0864X0.0011*%
%ADD44R,0.0536X0.0011*%
%ADD45R,0.0766X0.0011*%
%ADD46R,0.0853X0.0011*%
%ADD47R,0.0525X0.0011*%
%ADD48R,0.0766X0.0011*%
%ADD49R,0.0842X0.0011*%
%ADD50R,0.0514X0.0011*%
%ADD51R,0.0820X0.0011*%
%ADD52R,0.0503X0.0011*%
%ADD53R,0.0755X0.0011*%
%ADD54R,0.0492X0.0011*%
%ADD55R,0.0755X0.0011*%
%ADD56R,0.0481X0.0011*%
%ADD57R,0.0755X0.0011*%
%ADD58R,0.0470X0.0011*%
%ADD59R,0.0459X0.0011*%
%ADD60R,0.0448X0.0011*%
%ADD61R,0.0437X0.0011*%
%ADD62R,0.0416X0.0011*%
%ADD63R,0.0744X0.0011*%
%ADD64R,0.0405X0.0011*%
%ADD65R,0.0733X0.0011*%
%ADD66R,0.0394X0.0011*%
%ADD67R,0.0722X0.0011*%
%ADD68R,0.0809X0.0011*%
%ADD69R,0.0722X0.0011*%
%ADD70R,0.0383X0.0011*%
%ADD71R,0.0711X0.0011*%
%ADD72R,0.0372X0.0011*%
%ADD73R,0.0700X0.0011*%
%ADD74R,0.0361X0.0011*%
%ADD75R,0.0831X0.0011*%
%ADD76R,0.0689X0.0011*%
%ADD77R,0.0350X0.0011*%
%ADD78R,0.0678X0.0011*%
%ADD79R,0.0339X0.0011*%
%ADD80R,0.0842X0.0011*%
%ADD81R,0.0678X0.0011*%
%ADD82R,0.0831X0.0011*%
%ADD83R,0.0328X0.0011*%
%ADD84R,0.0667X0.0011*%
%ADD85R,0.0317X0.0011*%
%ADD86R,0.0853X0.0011*%
%ADD87R,0.0656X0.0011*%
%ADD88R,0.0306X0.0011*%
%ADD89R,0.0645X0.0011*%
%ADD90R,0.0853X0.0011*%
%ADD91R,0.0864X0.0011*%
%ADD92R,0.0295X0.0011*%
%ADD93R,0.0634X0.0011*%
%ADD94R,0.0284X0.0011*%
%ADD95R,0.0623X0.0011*%
%ADD96R,0.0273X0.0011*%
%ADD97R,0.0612X0.0011*%
%ADD98R,0.0262X0.0011*%
%ADD99R,0.0875X0.0011*%
%ADD100R,0.0601X0.0011*%
%ADD101R,0.0262X0.0011*%
%ADD102R,0.0252X0.0011*%
%ADD103R,0.0591X0.0011*%
%ADD104R,0.0241X0.0011*%
%ADD105R,0.0886X0.0011*%
%ADD106R,0.0580X0.0011*%
%ADD107R,0.0230X0.0011*%
%ADD108R,0.0569X0.0011*%
%ADD109R,0.0230X0.0011*%
%ADD110R,0.0219X0.0011*%
%ADD111R,0.0558X0.0011*%
%ADD112R,0.0208X0.0011*%
%ADD113R,0.0547X0.0011*%
%ADD114R,0.0897X0.0011*%
%ADD115R,0.0208X0.0011*%
%ADD116R,0.0547X0.0011*%
%ADD117R,0.0197X0.0011*%
%ADD118R,0.0525X0.0011*%
%ADD119R,0.0525X0.0011*%
%ADD120R,0.0186X0.0011*%
%ADD121R,0.0186X0.0011*%
%ADD122R,0.0514X0.0011*%
%ADD123R,0.0514X0.0011*%
%ADD124R,0.0175X0.0011*%
%ADD125R,0.0175X0.0011*%
%ADD126R,0.0503X0.0011*%
%ADD127R,0.0853X0.0011*%
%ADD128R,0.0820X0.0011*%
%ADD129R,0.0197X0.0011*%
%ADD130R,0.0776X0.0011*%
%ADD131R,0.0536X0.0011*%
%ADD132R,0.0558X0.0011*%
%ADD133R,0.0755X0.0011*%
%ADD134R,0.0733X0.0011*%
%ADD135R,0.0252X0.0011*%
%ADD136R,0.0580X0.0011*%
%ADD137R,0.0711X0.0011*%
%ADD138R,0.0711X0.0011*%
%ADD139R,0.0711X0.0011*%
%ADD140R,0.0273X0.0011*%
%ADD141R,0.0295X0.0011*%
%ADD142R,0.0623X0.0011*%
%ADD143R,0.0667X0.0011*%
%ADD144R,0.0317X0.0011*%
%ADD145R,0.0328X0.0011*%
%ADD146R,0.0656X0.0011*%
%ADD147R,0.0656X0.0011*%
%ADD148R,0.0339X0.0011*%
%ADD149R,0.0634X0.0011*%
%ADD150R,0.0361X0.0011*%
%ADD151R,0.0700X0.0011*%
%ADD152R,0.0372X0.0011*%
%ADD153R,0.0383X0.0011*%
%ADD154R,0.0612X0.0011*%
%ADD155R,0.0612X0.0011*%
%ADD156R,0.0394X0.0011*%
%ADD157R,0.0405X0.0011*%
%ADD158R,0.0416X0.0011*%
%ADD159R,0.0427X0.0011*%
%ADD160R,0.0744X0.0011*%
%ADD161R,0.0427X0.0011*%
%ADD162R,0.0766X0.0011*%
%ADD163R,0.0437X0.0011*%
%ADD164R,0.0459X0.0011*%
%ADD165R,0.0787X0.0011*%
%ADD166R,0.0470X0.0011*%
%ADD167R,0.0481X0.0011*%
%ADD168R,0.0492X0.0011*%
%ADD169R,0.0448X0.0011*%
%ADD170R,0.0186X0.0011*%
%ADD171R,0.0208X0.0011*%
%ADD172R,0.0219X0.0011*%
%ADD173R,0.0230X0.0011*%
%ADD174R,0.0908X0.0011*%
%ADD175R,0.0908X0.0011*%
%ADD176R,0.0262X0.0011*%
%ADD177R,0.0919X0.0011*%
%ADD178R,0.0284X0.0011*%
%ADD179R,0.0306X0.0011*%
%ADD180R,0.0951X0.0011*%
%ADD181R,0.0722X0.0011*%
%ADD182R,0.0951X0.0011*%
%ADD183R,0.0317X0.0011*%
%ADD184R,0.0962X0.0011*%
%ADD185R,0.0733X0.0011*%
%ADD186R,0.0328X0.0011*%
%ADD187R,0.0962X0.0011*%
%ADD188R,0.0973X0.0011*%
%ADD189R,0.0984X0.0011*%
%ADD190R,0.0995X0.0011*%
%ADD191R,0.0361X0.0011*%
%ADD192R,0.1006X0.0011*%
%ADD193R,0.0372X0.0011*%
%ADD194R,0.0383X0.0011*%
%ADD195R,0.0405X0.0011*%
%ADD196R,0.2067X0.0011*%
%ADD197R,0.1301X0.0011*%
%ADD198R,0.2012X0.0011*%
%ADD199R,0.1269X0.0011*%
%ADD200R,0.1979X0.0011*%
%ADD201R,0.1247X0.0011*%
%ADD202R,0.1947X0.0011*%
%ADD203R,0.1236X0.0011*%
%ADD204R,0.1925X0.0011*%
%ADD205R,0.1214X0.0011*%
%ADD206R,0.1903X0.0011*%
%ADD207R,0.1203X0.0011*%
%ADD208R,0.1356X0.0011*%
%ADD209R,0.0416X0.0011*%
%ADD210R,0.1192X0.0011*%
%ADD211R,0.1312X0.0011*%
%ADD212R,0.0372X0.0011*%
%ADD213R,0.1181X0.0011*%
%ADD214R,0.1290X0.0011*%
%ADD215R,0.1258X0.0011*%
%ADD216R,0.1170X0.0011*%
%ADD217R,0.1159X0.0011*%
%ADD218R,0.1214X0.0011*%
%ADD219R,0.1159X0.0011*%
%ADD220R,0.1203X0.0011*%
%ADD221R,0.0241X0.0011*%
%ADD222R,0.1148X0.0011*%
%ADD223R,0.1192X0.0011*%
%ADD224R,0.1170X0.0011*%
%ADD225R,0.1159X0.0011*%
%ADD226R,0.0219X0.0011*%
%ADD227R,0.1148X0.0011*%
%ADD228R,0.1148X0.0011*%
%ADD229R,0.1137X0.0011*%
%ADD230R,0.1126X0.0011*%
%ADD231R,0.1126X0.0011*%
%ADD232R,0.0186X0.0011*%
%ADD233R,0.1137X0.0011*%
%ADD234R,0.1115X0.0011*%
%ADD235R,0.1105X0.0011*%
%ADD236R,0.1105X0.0011*%
%ADD237R,0.1094X0.0011*%
%ADD238R,0.1083X0.0011*%
%ADD239R,0.1083X0.0011*%
%ADD240R,0.1072X0.0011*%
%ADD241R,0.1072X0.0011*%
%ADD242R,0.0273X0.0011*%
%ADD243R,0.1181X0.0011*%
%ADD244R,0.1192X0.0011*%
%ADD245R,0.0328X0.0011*%
%ADD246R,0.1203X0.0011*%
%ADD247R,0.1225X0.0011*%
%ADD248R,0.0426X0.0011*%
%ADD249R,0.1225X0.0011*%
%ADD250R,0.1247X0.0011*%
%ADD251R,0.1258X0.0011*%
%ADD252R,0.1280X0.0011*%
%ADD253R,0.1290X0.0011*%
%ADD254R,0.1323X0.0011*%
%ADD255R,0.1334X0.0011*%
%ADD256R,0.1115X0.0011*%
%ADD257R,0.0645X0.0011*%
%ADD258R,0.1356X0.0011*%
%ADD259R,0.1378X0.0011*%
%ADD260R,0.1400X0.0011*%
%ADD261R,0.1422X0.0011*%
%ADD262R,0.1444X0.0011*%
%ADD263R,0.0722X0.0011*%
%ADD264R,0.1476X0.0011*%
%ADD265R,0.2308X0.0011*%
%ADD266R,0.1159X0.0011*%
%ADD267R,0.2318X0.0011*%
%ADD268R,0.1203X0.0011*%
%ADD269R,0.2329X0.0011*%
%ADD270R,0.1225X0.0011*%
%ADD271R,0.2340X0.0011*%
%ADD272R,0.1269X0.0011*%
%ADD273R,0.2362X0.0011*%
%ADD274R,0.1247X0.0011*%
%ADD275R,0.2242X0.0011*%
%ADD276R,0.1192X0.0011*%
%ADD277R,0.2198X0.0011*%
%ADD278R,0.2176X0.0011*%
%ADD279R,0.2154X0.0011*%
%ADD280R,0.2144X0.0011*%
%ADD281R,0.2133X0.0011*%
%ADD282R,0.2122X0.0011*%
%ADD283R,0.1050X0.0011*%
%ADD284R,0.2122X0.0011*%
%ADD285R,0.1039X0.0011*%
%ADD286R,0.2111X0.0011*%
%ADD287R,0.1028X0.0011*%
%ADD288R,0.2111X0.0011*%
%ADD289R,0.1017X0.0011*%
%ADD290R,0.0995X0.0011*%
%ADD291R,0.1356X0.0011*%
%ADD292R,0.0984X0.0011*%
%ADD293R,0.0569X0.0011*%
%ADD294R,0.1334X0.0011*%
%ADD295R,0.1312X0.0011*%
%ADD296R,0.1290X0.0011*%
%ADD297R,0.0164X0.0011*%
%ADD298R,0.0142X0.0011*%
%ADD299R,0.1258X0.0011*%
%ADD300R,0.0109X0.0011*%
%ADD301R,0.0077X0.0011*%
%ADD302R,0.0098X0.0011*%
%ADD303R,0.0011X0.0011*%
%ADD304R,0.0066X0.0011*%
%ADD305R,0.0941X0.0011*%
%ADD306R,0.0044X0.0011*%
%ADD307R,0.1236X0.0011*%
%ADD308R,0.0973X0.0011*%
%ADD309R,0.0995X0.0011*%
%ADD310R,0.1126X0.0011*%
%ADD311R,0.1126X0.0011*%
%ADD312R,0.1028X0.0011*%
%ADD313R,0.1050X0.0011*%
%ADD314R,0.1116X0.0011*%
%ADD315R,0.1061X0.0011*%
%ADD316R,0.1116X0.0011*%
%ADD317R,0.0022X0.0011*%
%ADD318R,0.0044X0.0011*%
%ADD319R,0.0055X0.0011*%
%ADD320R,0.0077X0.0011*%
%ADD321R,0.0077X0.0011*%
%ADD322R,0.0087X0.0011*%
%ADD323R,0.0087X0.0011*%
%ADD324R,0.0897X0.0011*%
%ADD325R,0.0088X0.0011*%
%ADD326R,0.0098X0.0011*%
%ADD327R,0.0011X0.0011*%
%ADD328R,0.0109X0.0011*%
%ADD329R,0.0120X0.0011*%
%ADD330R,0.0153X0.0011*%
%ADD331R,0.1050X0.0011*%
%ADD332R,0.0120X0.0011*%
%ADD333R,0.1039X0.0011*%
%ADD334R,0.0131X0.0011*%
%ADD335R,0.1028X0.0011*%
%ADD336R,0.0142X0.0011*%
%ADD337R,0.1017X0.0011*%
%ADD338R,0.1006X0.0011*%
%ADD339R,0.0153X0.0011*%
%ADD340R,0.0164X0.0011*%
%ADD341R,0.0973X0.0011*%
%ADD342R,0.0044X0.0011*%
%ADD343R,0.0962X0.0011*%
%ADD344R,0.0131X0.0011*%
%ADD345R,0.0241X0.0011*%
%ADD346R,0.0930X0.0011*%
%ADD347R,0.0919X0.0011*%
%ADD348R,0.0306X0.0011*%
%ADD349R,0.0875X0.0011*%
%ADD350R,0.0864X0.0011*%
%ADD351R,0.0383X0.0011*%
%ADD352R,0.0426X0.0011*%
%ADD353R,0.0831X0.0011*%
%ADD354R,0.1345X0.0011*%
%ADD355R,0.0820X0.0011*%
%ADD356R,0.1389X0.0011*%
%ADD357R,0.0776X0.0011*%
%ADD358R,0.1411X0.0011*%
%ADD359R,0.0930X0.0011*%
%ADD360R,0.0416X0.0011*%
%ADD361R,0.0481X0.0011*%
%ADD362R,0.0733X0.0011*%
%ADD363R,0.0459X0.0011*%
%ADD364R,0.0459X0.0011*%
%ADD365R,0.0448X0.0011*%
%ADD366R,0.1444X0.0011*%
%ADD367R,0.1444X0.0011*%
%ADD368R,0.1433X0.0011*%
%ADD369R,0.1433X0.0011*%
%ADD370R,0.1422X0.0011*%
%ADD371R,0.1411X0.0011*%
%ADD372R,0.0317X0.0011*%
%ADD373R,0.1400X0.0011*%
%ADD374R,0.1400X0.0011*%
%ADD375R,0.0558X0.0011*%
%ADD376R,0.0667X0.0011*%
%ADD377R,0.1389X0.0011*%
%ADD378R,0.1378X0.0011*%
%ADD379R,0.0601X0.0011*%
%ADD380R,0.1367X0.0011*%
%ADD381R,0.1356X0.0011*%
%ADD382R,0.0230X0.0011*%
%ADD383R,0.1323X0.0011*%
%ADD384R,0.1367X0.0011*%
%ADD385R,0.1301X0.0011*%
%ADD386R,0.0251X0.0011*%
%ADD387R,0.0273X0.0011*%
%ADD388R,0.1389X0.0011*%
%ADD389R,0.1454X0.0011*%
%ADD390R,0.1454X0.0011*%
%ADD391R,0.1312X0.0011*%
%ADD392R,0.1465X0.0011*%
%ADD393R,0.1465X0.0011*%
%ADD394R,0.1345X0.0011*%
%ADD395R,0.1476X0.0011*%
%ADD396R,0.0470X0.0011*%
%ADD397R,0.1367X0.0011*%
%ADD398R,0.1367X0.0011*%
%ADD399R,0.1487X0.0011*%
%ADD400R,0.0525X0.0011*%
%ADD401R,0.1498X0.0011*%
%ADD402R,0.1509X0.0011*%
%ADD403R,0.1520X0.0011*%
%ADD404R,0.2176X0.0011*%
%ADD405R,0.2187X0.0011*%
%ADD406R,0.2198X0.0011*%
%ADD407R,0.2198X0.0011*%
%ADD408R,0.1389X0.0011*%
%ADD409R,0.2209X0.0011*%
%ADD410R,0.2220X0.0011*%
%ADD411R,0.2231X0.0011*%
%ADD412R,0.2242X0.0011*%
%ADD413R,0.1465X0.0011*%
%ADD414R,0.1465X0.0011*%
%ADD415R,0.1455X0.0011*%
%ADD416R,0.1444X0.0011*%
%ADD417R,0.1422X0.0011*%
%ADD418R,0.1411X0.0011*%
%ADD419R,0.1400X0.0011*%
%ADD420R,0.1345X0.0011*%
%ADD421R,0.1323X0.0011*%
%ADD422R,0.1323X0.0011*%
%ADD423R,0.1301X0.0011*%
%ADD424R,0.1301X0.0011*%
%ADD425R,0.1280X0.0011*%
%ADD426R,0.1269X0.0011*%
%ADD427R,0.1258X0.0011*%
%ADD428R,0.1247X0.0011*%
%ADD429R,0.1225X0.0011*%
%ADD430R,0.0109X0.0011*%
%ADD431R,0.1214X0.0011*%
%ADD432R,0.1214X0.0011*%
%ADD433R,0.1170X0.0011*%
%ADD434R,0.0131X0.0011*%
%ADD435R,0.1105X0.0011*%
%ADD436R,0.1094X0.0011*%
%ADD437R,0.0055X0.0011*%
%ADD438R,0.0164X0.0011*%
%ADD439R,0.1094X0.0011*%
%ADD440R,0.0208X0.0011*%
%ADD441R,0.1072X0.0011*%
%ADD442R,0.0022X0.0011*%
%ADD443R,0.1061X0.0011*%
%ADD444R,0.1061X0.0011*%
%ADD445R,0.0066X0.0011*%
%ADD446R,0.0350X0.0011*%
%ADD447R,0.1061X0.0011*%
%ADD448R,0.0339X0.0011*%
%ADD449R,0.0350X0.0011*%
%ADD450R,0.0262X0.0011*%
%ADD451R,0.1006X0.0011*%
%ADD452R,0.1006X0.0011*%
%ADD453R,0.0481X0.0011*%
%ADD454R,0.0120X0.0011*%
%ADD455R,0.0109X0.0011*%
%ADD456R,0.0962X0.0011*%
%ADD457R,0.0951X0.0011*%
%ADD458R,0.0908X0.0011*%
%ADD459R,0.0875X0.0011*%
%ADD460R,0.0700X0.0011*%
%ADD461R,0.0798X0.0011*%
%ADD462R,0.1170X0.0011*%
%ADD463R,0.0700X0.0011*%
%ADD464R,0.0678X0.0011*%
%ADD465R,0.0470X0.0011*%
%ADD466R,0.0601X0.0011*%
%ADD467R,0.0580X0.0011*%
%ADD468R,0.0503X0.0011*%
%ADD469R,0.0645X0.0011*%
%ADD470C,0.0394*%
%ADD471C,0.0886*%
%ADD472R,0.0110X0.0413*%
%ADD473R,0.0413X0.0110*%
%ADD474R,0.0709X0.0709*%
%ADD475R,0.0433X0.0394*%
%ADD476R,0.0394X0.0433*%
%ADD477C,0.0945*%
%ADD478R,0.0354X0.0276*%
%ADD479R,0.3686X0.0011*%
%ADD480R,0.1145X0.0011*%
%ADD481R,0.0600X0.0011*%
%ADD482R,0.0589X0.0011*%
%ADD483R,0.1156X0.0011*%
%ADD484R,0.0578X0.0011*%
%ADD485R,0.1167X0.0011*%
%ADD486R,0.1167X0.0011*%
%ADD487R,0.0567X0.0011*%
%ADD488R,0.1178X0.0011*%
%ADD489R,0.0556X0.0011*%
%ADD490R,0.1189X0.0011*%
%ADD491R,0.0545X0.0011*%
%ADD492R,0.0534X0.0011*%
%ADD493R,0.1200X0.0011*%
%ADD494R,0.0523X0.0011*%
%ADD495R,0.0513X0.0011*%
%ADD496R,0.1211X0.0011*%
%ADD497R,0.0491X0.0011*%
%ADD498R,0.0480X0.0011*%
%ADD499R,0.1221X0.0011*%
%ADD500R,0.1221X0.0011*%
%ADD501R,0.0458X0.0011*%
%ADD502R,0.0436X0.0011*%
%ADD503R,0.1232X0.0011*%
%ADD504R,0.0414X0.0011*%
%ADD505R,0.0393X0.0011*%
%ADD506R,0.1243X0.0011*%
%ADD507R,0.0360X0.0011*%
%ADD508R,0.0327X0.0011*%
%ADD509R,0.1254X0.0011*%
%ADD510R,0.1254X0.0011*%
%ADD511R,0.0294X0.0011*%
%ADD512R,0.0240X0.0011*%
%ADD513R,0.1265X0.0011*%
%ADD514R,0.0164X0.0011*%
%ADD515R,0.1276X0.0011*%
%ADD516R,0.1287X0.0011*%
%ADD517R,0.1287X0.0011*%
%ADD518R,0.1298X0.0011*%
%ADD519R,0.1309X0.0011*%
%ADD520R,0.1320X0.0011*%
%ADD521R,0.1320X0.0011*%
%ADD522R,0.1330X0.0011*%
%ADD523R,0.1341X0.0011*%
%ADD524R,0.1341X0.0011*%
%ADD525R,0.1352X0.0011*%
%ADD526R,0.1363X0.0011*%
%ADD527R,0.1374X0.0011*%
%ADD528R,0.1374X0.0011*%
%ADD529R,0.1385X0.0011*%
%ADD530R,0.1396X0.0011*%
%ADD531R,0.1407X0.0011*%
%ADD532R,0.1396X0.0011*%
%ADD533R,0.1418X0.0011*%
%ADD534R,0.1429X0.0011*%
%ADD535R,0.1440X0.0011*%
%ADD536R,0.1429X0.0011*%
%ADD537R,0.1450X0.0011*%
%ADD538R,0.1461X0.0011*%
%ADD539R,0.1472X0.0011*%
%ADD540R,0.1461X0.0011*%
%ADD541R,0.1483X0.0011*%
%ADD542R,0.1494X0.0011*%
%ADD543R,0.1505X0.0011*%
%ADD544R,0.1494X0.0011*%
%ADD545R,0.1516X0.0011*%
%ADD546R,0.1505X0.0011*%
%ADD547R,0.1527X0.0011*%
%ADD548R,0.1538X0.0011*%
%ADD549R,0.1527X0.0011*%
%ADD550R,0.1549X0.0011*%
%ADD551R,0.1538X0.0011*%
%ADD552R,0.1559X0.0011*%
%ADD553R,0.1570X0.0011*%
%ADD554R,0.1581X0.0011*%
%ADD555R,0.0578X0.0011*%
%ADD556R,0.0971X0.0011*%
%ADD557R,0.0960X0.0011*%
%ADD558R,0.0992X0.0011*%
%ADD559R,0.0960X0.0011*%
%ADD560R,0.0578X0.0011*%
%ADD561R,0.0938X0.0011*%
%ADD562R,0.0971X0.0011*%
%ADD563R,0.0927X0.0011*%
%ADD564R,0.0927X0.0011*%
%ADD565R,0.0949X0.0011*%
%ADD566R,0.0556X0.0011*%
%ADD567R,0.0534X0.0011*%
%ADD568R,0.0523X0.0011*%
%ADD569R,0.0971X0.0011*%
%ADD570R,0.0981X0.0011*%
%ADD571R,0.0981X0.0011*%
%ADD572R,0.0502X0.0011*%
%ADD573R,0.0992X0.0011*%
%ADD574R,0.1003X0.0011*%
%ADD575R,0.1014X0.0011*%
%ADD576R,0.1025X0.0011*%
%ADD577R,0.1036X0.0011*%
%ADD578R,0.1047X0.0011*%
%ADD579R,0.0491X0.0011*%
%ADD580R,0.0469X0.0011*%
%ADD581R,0.1058X0.0011*%
%ADD582R,0.1069X0.0011*%
%ADD583R,0.0458X0.0011*%
%ADD584R,0.1080X0.0011*%
%ADD585R,0.1091X0.0011*%
%ADD586R,0.0447X0.0011*%
%ADD587R,0.1091X0.0011*%
%ADD588R,0.1101X0.0011*%
%ADD589R,0.1112X0.0011*%
%ADD590R,0.1112X0.0011*%
%ADD591R,0.0436X0.0011*%
%ADD592R,0.1123X0.0011*%
%ADD593R,0.0425X0.0011*%
%ADD594R,0.0349X0.0011*%
%ADD595R,0.0774X0.0011*%
%ADD596R,0.1134X0.0011*%
%ADD597R,0.0338X0.0011*%
%ADD598R,0.0763X0.0011*%
%ADD599R,0.0785X0.0011*%
%ADD600R,0.0349X0.0011*%
%ADD601R,0.0414X0.0011*%
%ADD602R,0.0763X0.0011*%
%ADD603R,0.0785X0.0011*%
%ADD604R,0.0742X0.0011*%
%ADD605R,0.0425X0.0011*%
%ADD606R,0.0404X0.0011*%
%ADD607R,0.0742X0.0011*%
%ADD608R,0.0338X0.0011*%
%ADD609R,0.0731X0.0011*%
%ADD610R,0.0752X0.0011*%
%ADD611R,0.0393X0.0011*%
%ADD612R,0.0327X0.0011*%
%ADD613R,0.0742X0.0011*%
%ADD614R,0.0338X0.0011*%
%ADD615R,0.0382X0.0011*%
%ADD616R,0.0327X0.0011*%
%ADD617R,0.0796X0.0011*%
%ADD618R,0.0371X0.0011*%
%ADD619R,0.0807X0.0011*%
%ADD620R,0.0818X0.0011*%
%ADD621R,0.0829X0.0011*%
%ADD622R,0.0829X0.0011*%
%ADD623R,0.0851X0.0011*%
%ADD624R,0.0316X0.0011*%
%ADD625R,0.0316X0.0011*%
%ADD626R,0.0371X0.0011*%
%ADD627R,0.0872X0.0011*%
%ADD628R,0.0316X0.0011*%
%ADD629R,0.0894X0.0011*%
%ADD630R,0.0894X0.0011*%
%ADD631R,0.0905X0.0011*%
%ADD632R,0.0916X0.0011*%
%ADD633R,0.0916X0.0011*%
%ADD634R,0.0305X0.0011*%
%ADD635R,0.0927X0.0011*%
%ADD636R,0.0545X0.0011*%
%ADD637R,0.0382X0.0011*%
%ADD638R,0.0513X0.0011*%
%ADD639R,0.0371X0.0011*%
%ADD640R,0.0502X0.0011*%
%ADD641R,0.0480X0.0011*%
%ADD642R,0.0305X0.0011*%
%ADD643R,0.0469X0.0011*%
%ADD644R,0.0360X0.0011*%
%ADD645R,0.0294X0.0011*%
%ADD646R,0.0305X0.0011*%
%ADD647R,0.0284X0.0011*%
%ADD648R,0.0273X0.0011*%
%ADD649R,0.0284X0.0011*%
%ADD650R,0.0556X0.0011*%
%ADD651R,0.0262X0.0011*%
%ADD652R,0.0567X0.0011*%
%ADD653R,0.0273X0.0011*%
%ADD654R,0.0207X0.0011*%
%ADD655R,0.0218X0.0011*%
%ADD656R,0.0185X0.0011*%
%ADD657R,0.0294X0.0011*%
%ADD658R,0.0174X0.0011*%
%ADD659R,0.0196X0.0011*%
%ADD660R,0.0251X0.0011*%
%ADD661R,0.0164X0.0011*%
%ADD662R,0.0142X0.0011*%
%ADD663R,0.0131X0.0011*%
%ADD664R,0.0153X0.0011*%
%ADD665R,0.0153X0.0011*%
%ADD666R,0.0185X0.0011*%
%ADD667R,0.0175X0.0011*%
%ADD668R,0.0164X0.0011*%
%ADD669R,0.0153X0.0011*%
%ADD670R,0.0142X0.0011*%
%ADD671R,0.0131X0.0011*%
%ADD672R,0.0131X0.0011*%
%ADD673R,0.0196X0.0011*%
%ADD674R,0.0469X0.0011*%
%ADD675R,0.0403X0.0011*%
%ADD676R,0.0458X0.0011*%
%ADD677R,0.0491X0.0011*%
%ADD678R,0.1200X0.0011*%
%ADD679R,0.1189X0.0011*%
%ADD680R,0.1167X0.0011*%
%ADD681R,0.1156X0.0011*%
%ADD682R,0.1134X0.0011*%
%ADD683R,0.1123X0.0011*%
%ADD684R,0.1101X0.0011*%
%ADD685R,0.1080X0.0011*%
%ADD686R,0.1069X0.0011*%
%ADD687R,0.1058X0.0011*%
%ADD688R,0.1036X0.0011*%
%ADD689R,0.1047X0.0011*%
%ADD690R,0.1069X0.0011*%
%ADD691R,0.1134X0.0011*%
%ADD692R,0.1952X0.0011*%
%ADD693R,0.1941X0.0011*%
%ADD694R,0.1930X0.0011*%
%ADD695R,0.1908X0.0011*%
%ADD696R,0.1887X0.0011*%
%ADD697R,0.1876X0.0011*%
%ADD698R,0.1865X0.0011*%
%ADD699R,0.1843X0.0011*%
%ADD700R,0.1832X0.0011*%
%ADD701R,0.1821X0.0011*%
%ADD702R,0.1799X0.0011*%
%ADD703R,0.1789X0.0011*%
%ADD704R,0.1778X0.0011*%
%ADD705R,0.1756X0.0011*%
%ADD706R,0.1734X0.0011*%
%ADD707R,0.1723X0.0011*%
%ADD708R,0.1701X0.0011*%
%ADD709R,0.1712X0.0011*%
%ADD710R,0.1745X0.0011*%
%ADD711R,0.0349X0.0011*%
%ADD712R,0.1767X0.0011*%
%ADD713R,0.1832X0.0011*%
%ADD714R,0.2203X0.0011*%
%ADD715R,0.2541X0.0011*%
%ADD716R,0.2530X0.0011*%
%ADD717R,0.2519X0.0011*%
%ADD718R,0.2508X0.0011*%
%ADD719R,0.2486X0.0011*%
%ADD720R,0.2476X0.0011*%
%ADD721R,0.2454X0.0011*%
%ADD722R,0.2443X0.0011*%
%ADD723R,0.2432X0.0011*%
%ADD724R,0.2410X0.0011*%
%ADD725R,0.2399X0.0011*%
%ADD726R,0.2377X0.0011*%
%ADD727R,0.2367X0.0011*%
%ADD728R,0.2345X0.0011*%
%ADD729R,0.2323X0.0011*%
%ADD730R,0.2312X0.0011*%
%ADD731R,0.2356X0.0011*%
%ADD732R,0.2377X0.0011*%
%ADD733R,0.0589X0.0011*%
%ADD734R,0.2432X0.0011*%
%ADD735R,0.0611X0.0011*%
%ADD736R,0.3075X0.0011*%
%ADD737R,0.0472X0.0551*%
%ADD738R,0.0315X0.0315*%
%ADD739C,0.0120*%
%ADD740C,0.0360*%
%ADD741C,0.0110*%
D10*
X007635Y005398D03*
X007635Y005453D03*
X007635Y005497D03*
X007635Y005552D03*
X007635Y005606D03*
X007635Y005650D03*
X007635Y005705D03*
X007635Y005748D03*
X007635Y005803D03*
X007635Y005847D03*
X007635Y008657D03*
X007635Y008701D03*
X007635Y008756D03*
X007635Y008800D03*
X007635Y008854D03*
X007635Y008898D03*
X007635Y008953D03*
X007635Y008996D03*
X007635Y009051D03*
X028107Y009040D03*
X028107Y008996D03*
X028107Y008942D03*
X028107Y008898D03*
X028107Y006437D03*
X028107Y005595D03*
X028107Y005552D03*
X028107Y005497D03*
X028107Y005453D03*
X028107Y005398D03*
X028107Y013666D03*
X028107Y013721D03*
X028107Y013765D03*
X028107Y013819D03*
X028107Y013874D03*
X028107Y013918D03*
X028107Y013972D03*
X028107Y014016D03*
X028107Y014071D03*
X028107Y014115D03*
X028107Y014169D03*
X028107Y014213D03*
X028107Y016772D03*
X028107Y016827D03*
X028107Y016870D03*
X028107Y016925D03*
X028107Y016969D03*
X028107Y017024D03*
X028107Y017067D03*
X028107Y017122D03*
X028107Y017166D03*
X028107Y017220D03*
X028107Y017264D03*
X028107Y017319D03*
D11*
X028107Y017330D03*
X028107Y017341D03*
X028107Y017352D03*
X028107Y017308D03*
X028107Y017297D03*
X028107Y017286D03*
X028107Y017275D03*
X028107Y017253D03*
X028107Y017242D03*
X028107Y017231D03*
X028107Y017209D03*
X028107Y017199D03*
X028107Y017188D03*
X028107Y017177D03*
X028107Y017155D03*
X028107Y017144D03*
X028107Y017133D03*
X028107Y017111D03*
X028107Y017100D03*
X028107Y017089D03*
X028107Y017078D03*
X028107Y017056D03*
X028107Y017045D03*
X028107Y017034D03*
X028107Y017013D03*
X028107Y017002D03*
X028107Y016991D03*
X028107Y016980D03*
X028107Y016958D03*
X028107Y016947D03*
X028107Y016936D03*
X028107Y016914D03*
X028107Y016903D03*
X028107Y016892D03*
X028107Y016881D03*
X028107Y016859D03*
X028107Y016849D03*
X028107Y016838D03*
X028107Y016816D03*
X028107Y016805D03*
X028107Y016794D03*
X028107Y016783D03*
X028107Y014257D03*
X028107Y014246D03*
X028107Y014235D03*
X028107Y014224D03*
X028107Y014202D03*
X028107Y014191D03*
X028107Y014180D03*
X028107Y014158D03*
X028107Y014147D03*
X028107Y014136D03*
X028107Y014125D03*
X028107Y014104D03*
X028107Y014093D03*
X028107Y014082D03*
X028107Y014060D03*
X028107Y014049D03*
X028107Y014038D03*
X028107Y014027D03*
X028107Y014005D03*
X028107Y013994D03*
X028107Y013983D03*
X028107Y013961D03*
X028107Y013950D03*
X028107Y013940D03*
X028107Y013929D03*
X028107Y013907D03*
X028107Y013896D03*
X028107Y013885D03*
X028107Y013863D03*
X028107Y013852D03*
X028107Y013841D03*
X028107Y013830D03*
X028107Y013808D03*
X028107Y013797D03*
X028107Y013786D03*
X028107Y013775D03*
X028107Y013754D03*
X028107Y013743D03*
X028107Y013732D03*
X028107Y013710D03*
X028107Y013699D03*
X028107Y013688D03*
X028107Y013677D03*
X028107Y009084D03*
X028107Y009073D03*
X028107Y009062D03*
X028107Y009051D03*
X028107Y009029D03*
X028107Y009018D03*
X028107Y009007D03*
X028107Y008985D03*
X028107Y008975D03*
X028107Y008964D03*
X028107Y008953D03*
X028107Y008931D03*
X028107Y008920D03*
X028107Y008909D03*
X028107Y008887D03*
X028107Y008876D03*
X028107Y008865D03*
X028107Y006459D03*
X028107Y006448D03*
X028107Y006426D03*
X028107Y006415D03*
X028107Y005617D03*
X028107Y005606D03*
X028107Y005584D03*
X028107Y005573D03*
X028107Y005562D03*
X028107Y005541D03*
X028107Y005530D03*
X028107Y005519D03*
X028107Y005508D03*
X028107Y005486D03*
X028107Y005475D03*
X028107Y005464D03*
X028107Y005442D03*
X028107Y005431D03*
X028107Y005420D03*
X028107Y005409D03*
X007635Y005409D03*
X007635Y005420D03*
X007635Y005431D03*
X007635Y005442D03*
X007635Y005464D03*
X007635Y005475D03*
X007635Y005486D03*
X007635Y005508D03*
X007635Y005519D03*
X007635Y005530D03*
X007635Y005541D03*
X007635Y005562D03*
X007635Y005573D03*
X007635Y005584D03*
X007635Y005595D03*
X007635Y005617D03*
X007635Y005628D03*
X007635Y005639D03*
X007635Y005661D03*
X007635Y005672D03*
X007635Y005683D03*
X007635Y005694D03*
X007635Y005716D03*
X007635Y005726D03*
X007635Y005737D03*
X007635Y005759D03*
X007635Y005770D03*
X007635Y005781D03*
X007635Y005792D03*
X007635Y005814D03*
X007635Y005825D03*
X007635Y005836D03*
X007635Y005858D03*
X007635Y008625D03*
X007635Y008636D03*
X007635Y008646D03*
X007635Y008668D03*
X007635Y008679D03*
X007635Y008690D03*
X007635Y008712D03*
X007635Y008723D03*
X007635Y008734D03*
X007635Y008745D03*
X007635Y008767D03*
X007635Y008778D03*
X007635Y008789D03*
X007635Y008810D03*
X007635Y008821D03*
X007635Y008832D03*
X007635Y008843D03*
X007635Y008865D03*
X007635Y008876D03*
X007635Y008887D03*
X007635Y008909D03*
X007635Y008920D03*
X007635Y008931D03*
X007635Y008942D03*
X007635Y008964D03*
X007635Y008975D03*
X007635Y008985D03*
X007635Y009007D03*
X007635Y009018D03*
X007635Y009029D03*
X007635Y009040D03*
X007635Y009062D03*
X007635Y009073D03*
X007635Y009084D03*
D12*
X005874Y008603D03*
X005874Y008559D03*
X005874Y008504D03*
X005874Y008461D03*
X026347Y014268D03*
X026347Y014311D03*
X026347Y014355D03*
X026347Y014410D03*
X026347Y014454D03*
X026347Y014508D03*
X026347Y014552D03*
X026347Y014607D03*
X026347Y014650D03*
X026347Y014705D03*
X026347Y014749D03*
X026347Y014803D03*
X026347Y014858D03*
X026347Y014902D03*
X026347Y014957D03*
X026347Y015000D03*
X026347Y015055D03*
X026347Y015099D03*
X026347Y015153D03*
X026347Y015197D03*
X026347Y015252D03*
X026347Y015296D03*
X026347Y015350D03*
X026347Y015394D03*
X026347Y015449D03*
X026347Y015492D03*
X026347Y015547D03*
X026347Y015591D03*
X026347Y015646D03*
X026347Y015689D03*
X026347Y015744D03*
X026347Y015788D03*
X026347Y015842D03*
X026347Y015886D03*
X026347Y015941D03*
X026347Y015985D03*
X026347Y016039D03*
X026347Y016083D03*
X026347Y016138D03*
X026347Y016181D03*
X026347Y016236D03*
X026347Y016280D03*
X026347Y016335D03*
X026347Y016378D03*
X026347Y016433D03*
X026347Y016477D03*
X026347Y016531D03*
X028665Y007465D03*
D13*
X029611Y007957D03*
X029611Y008012D03*
X029611Y008056D03*
X029611Y008111D03*
X029611Y014268D03*
X028966Y015394D03*
X027030Y015394D03*
D14*
X026347Y015383D03*
X026347Y015372D03*
X026347Y015361D03*
X026347Y015339D03*
X026347Y015328D03*
X026347Y015317D03*
X026347Y015307D03*
X026347Y015285D03*
X026347Y015274D03*
X026347Y015263D03*
X026347Y015241D03*
X026347Y015230D03*
X026347Y015219D03*
X026347Y015208D03*
X026347Y015186D03*
X026347Y015175D03*
X026347Y015164D03*
X026347Y015143D03*
X026347Y015132D03*
X026347Y015121D03*
X026347Y015110D03*
X026347Y015088D03*
X026347Y015077D03*
X026347Y015066D03*
X026347Y015044D03*
X026347Y015033D03*
X026347Y015022D03*
X026347Y015011D03*
X026347Y014989D03*
X026347Y014978D03*
X026347Y014968D03*
X026347Y014946D03*
X026347Y014935D03*
X026347Y014924D03*
X026347Y014913D03*
X026347Y014891D03*
X026347Y014880D03*
X026347Y014869D03*
X026347Y014847D03*
X026347Y014836D03*
X026347Y014825D03*
X026347Y014814D03*
X026347Y014793D03*
X026347Y014782D03*
X026347Y014771D03*
X026347Y014760D03*
X026347Y014738D03*
X026347Y014727D03*
X026347Y014716D03*
X026347Y014694D03*
X026347Y014683D03*
X026347Y014672D03*
X026347Y014661D03*
X026347Y014639D03*
X026347Y014629D03*
X026347Y014618D03*
X026347Y014596D03*
X026347Y014585D03*
X026347Y014574D03*
X026347Y014563D03*
X026347Y014541D03*
X026347Y014530D03*
X026347Y014519D03*
X026347Y014497D03*
X026347Y014486D03*
X026347Y014475D03*
X026347Y014464D03*
X026347Y014443D03*
X026347Y014432D03*
X026347Y014421D03*
X026347Y014399D03*
X026347Y014388D03*
X026347Y014377D03*
X026347Y014366D03*
X026347Y014344D03*
X026347Y014333D03*
X026347Y014322D03*
X026347Y014300D03*
X026347Y014289D03*
X026347Y014279D03*
X026347Y015405D03*
X026347Y015416D03*
X026347Y015427D03*
X026347Y015438D03*
X026347Y015460D03*
X026347Y015471D03*
X026347Y015482D03*
X026347Y015503D03*
X026347Y015514D03*
X026347Y015525D03*
X026347Y015536D03*
X026347Y015558D03*
X026347Y015569D03*
X026347Y015580D03*
X026347Y015602D03*
X026347Y015613D03*
X026347Y015624D03*
X026347Y015635D03*
X026347Y015656D03*
X026347Y015667D03*
X026347Y015678D03*
X026347Y015700D03*
X026347Y015711D03*
X026347Y015722D03*
X026347Y015733D03*
X026347Y015755D03*
X026347Y015766D03*
X026347Y015777D03*
X026347Y015799D03*
X026347Y015810D03*
X026347Y015821D03*
X026347Y015831D03*
X026347Y015853D03*
X026347Y015864D03*
X026347Y015875D03*
X026347Y015897D03*
X026347Y015908D03*
X026347Y015919D03*
X026347Y015930D03*
X026347Y015952D03*
X026347Y015963D03*
X026347Y015974D03*
X026347Y015996D03*
X026347Y016006D03*
X026347Y016017D03*
X026347Y016028D03*
X026347Y016050D03*
X026347Y016061D03*
X026347Y016072D03*
X026347Y016094D03*
X026347Y016105D03*
X026347Y016116D03*
X026347Y016127D03*
X026347Y016149D03*
X026347Y016160D03*
X026347Y016171D03*
X026347Y016192D03*
X026347Y016203D03*
X026347Y016214D03*
X026347Y016225D03*
X026347Y016247D03*
X026347Y016258D03*
X026347Y016269D03*
X026347Y016291D03*
X026347Y016302D03*
X026347Y016313D03*
X026347Y016324D03*
X026347Y016345D03*
X026347Y016356D03*
X026347Y016367D03*
X026347Y016389D03*
X026347Y016400D03*
X026347Y016411D03*
X026347Y016422D03*
X026347Y016444D03*
X026347Y016455D03*
X026347Y016466D03*
X026347Y016488D03*
X026347Y016499D03*
X026347Y016510D03*
X026347Y016520D03*
X026347Y016542D03*
X008280Y007990D03*
X008280Y007356D03*
X007580Y007061D03*
X007580Y007050D03*
X007536Y006940D03*
X007307Y006973D03*
X005874Y008439D03*
X005874Y008450D03*
X005874Y008471D03*
X005874Y008482D03*
X005874Y008493D03*
X005874Y008515D03*
X005874Y008526D03*
X005874Y008537D03*
X005874Y008548D03*
X005874Y008570D03*
X005874Y008581D03*
X005874Y008592D03*
X005874Y008614D03*
D15*
X009144Y007925D03*
X009144Y007903D03*
X028042Y016586D03*
X029616Y014279D03*
X029616Y008143D03*
X029616Y008132D03*
D16*
X029622Y008165D03*
X029622Y008176D03*
X029622Y008187D03*
X029622Y008198D03*
X029622Y008220D03*
X029622Y008231D03*
X029622Y008242D03*
X029622Y014289D03*
X009150Y007947D03*
X009150Y007936D03*
X007772Y007531D03*
D17*
X007777Y006951D03*
X009155Y007957D03*
X009155Y007979D03*
X027014Y015482D03*
X027014Y015503D03*
X027014Y016247D03*
X029627Y014300D03*
D18*
X028933Y014410D03*
X027949Y014454D03*
X026921Y014311D03*
X027085Y015153D03*
X027949Y015941D03*
X027949Y015985D03*
X027949Y016181D03*
X027085Y016477D03*
X029020Y015153D03*
X009084Y007618D03*
D19*
X006262Y007225D03*
X026735Y006875D03*
X026735Y006733D03*
X027872Y014311D03*
D20*
X028829Y014311D03*
X028873Y014355D03*
X029026Y014552D03*
X027943Y016039D03*
X027943Y016083D03*
X027943Y016138D03*
X006191Y007575D03*
D21*
X006109Y008012D03*
X028025Y014650D03*
X028025Y015449D03*
X029633Y014311D03*
X028911Y008253D03*
D22*
X029562Y007739D03*
X028960Y014432D03*
X028971Y014443D03*
X029015Y015175D03*
X027954Y015875D03*
X027954Y015897D03*
X027954Y015908D03*
X027954Y015919D03*
X027954Y016247D03*
X027954Y016258D03*
X027954Y016269D03*
X027079Y016466D03*
X027079Y015175D03*
X027079Y015164D03*
X027079Y014519D03*
X026948Y014344D03*
X026937Y014333D03*
X026926Y014322D03*
X027954Y014464D03*
X029015Y016488D03*
X009089Y007640D03*
X009089Y007629D03*
X007963Y007837D03*
X007963Y007848D03*
X007952Y007826D03*
X006180Y007640D03*
X006180Y007629D03*
D23*
X006257Y007247D03*
X006257Y007236D03*
X009013Y007236D03*
X009013Y007247D03*
X026729Y007258D03*
X026729Y006864D03*
X026729Y006853D03*
X026729Y006842D03*
X026729Y006820D03*
X026729Y006809D03*
X026729Y006798D03*
X026729Y006787D03*
X026729Y006765D03*
X026729Y006754D03*
X026729Y006744D03*
X027878Y014322D03*
X027156Y016652D03*
X029092Y016652D03*
D24*
X027090Y016499D03*
X027090Y016488D03*
X027090Y015121D03*
X027090Y015110D03*
X028840Y014322D03*
X028851Y014333D03*
X028862Y014344D03*
X027878Y007684D03*
X009078Y007586D03*
D25*
X009171Y008045D03*
X009171Y008056D03*
X028014Y006273D03*
X028900Y008242D03*
X029644Y014322D03*
D26*
X027883Y014333D03*
X027150Y016641D03*
X029086Y016641D03*
X026724Y007947D03*
X026724Y007936D03*
X026724Y007925D03*
X026724Y007903D03*
X026724Y007892D03*
X026724Y007881D03*
X026724Y007870D03*
X026724Y007848D03*
X026724Y007837D03*
X026724Y007826D03*
X026724Y007804D03*
X026724Y007793D03*
X026724Y007782D03*
X026724Y007290D03*
X026724Y007279D03*
X009018Y007269D03*
X009018Y007258D03*
X007717Y007629D03*
X006251Y007269D03*
X006251Y007258D03*
D27*
X008039Y007258D03*
X008039Y007247D03*
X009177Y008078D03*
X009177Y008089D03*
X026992Y015635D03*
X026992Y015656D03*
X026992Y015667D03*
X026992Y016105D03*
X026992Y016116D03*
X026992Y016127D03*
X029649Y014333D03*
X028151Y006612D03*
X028020Y006262D03*
D28*
X026718Y007301D03*
X026718Y007312D03*
X026718Y007750D03*
X026718Y007772D03*
X027889Y014344D03*
X007657Y008351D03*
X007657Y008340D03*
X006246Y007312D03*
X006246Y007301D03*
X006246Y007290D03*
D29*
X007793Y007509D03*
X008034Y007236D03*
X007673Y008132D03*
X009182Y008100D03*
X026986Y015678D03*
X026986Y015700D03*
X026986Y015711D03*
X026986Y015722D03*
X026986Y015733D03*
X026986Y016050D03*
X026986Y016061D03*
X026986Y016072D03*
X026986Y016094D03*
X028047Y015361D03*
X028922Y015700D03*
X028922Y015711D03*
X028922Y015722D03*
X028922Y015733D03*
X028922Y015755D03*
X028922Y015996D03*
X028922Y016006D03*
X028922Y016017D03*
X028922Y016028D03*
X028922Y016050D03*
X028922Y016061D03*
X028047Y014716D03*
X029655Y014344D03*
X028867Y008198D03*
X028014Y006251D03*
D30*
X026954Y014355D03*
X028977Y014454D03*
X009095Y007673D03*
D31*
X007717Y007618D03*
X006240Y007323D03*
X026713Y007323D03*
X026713Y007717D03*
X027894Y014355D03*
D32*
X029660Y014355D03*
X028917Y015788D03*
X028917Y015842D03*
X028917Y015886D03*
X028917Y015941D03*
X028917Y015985D03*
X026981Y015985D03*
X026981Y015941D03*
X026981Y016039D03*
X026981Y015842D03*
X026981Y015788D03*
X026981Y015744D03*
X008039Y007225D03*
D33*
X007651Y008417D03*
X006175Y007662D03*
X006175Y007651D03*
X026964Y014366D03*
X026975Y014377D03*
X026986Y014388D03*
X027074Y015186D03*
X027960Y015831D03*
X027960Y015853D03*
X027960Y015864D03*
X027960Y016291D03*
X027960Y016302D03*
X027960Y016313D03*
X027074Y016444D03*
X027074Y016455D03*
X029010Y016466D03*
X029010Y015186D03*
X028988Y014464D03*
X027872Y007673D03*
D34*
X029507Y007608D03*
X027899Y014366D03*
X029070Y014814D03*
X029070Y014825D03*
X029070Y014836D03*
X029070Y014847D03*
X029070Y014869D03*
X029070Y014880D03*
X029070Y014891D03*
X029070Y014913D03*
X029070Y014924D03*
X029070Y016597D03*
X029070Y016608D03*
X027134Y016608D03*
X009035Y007367D03*
X009035Y007356D03*
X009035Y007345D03*
X007657Y008373D03*
D35*
X007657Y008242D03*
X006191Y007586D03*
X006191Y007564D03*
X027943Y014443D03*
X028884Y014366D03*
X029026Y014530D03*
X029026Y014541D03*
X029026Y015132D03*
X029026Y015143D03*
X027943Y016017D03*
X027943Y016028D03*
X027943Y016050D03*
X027943Y016061D03*
X027943Y016072D03*
X027943Y016094D03*
X027943Y016105D03*
X027943Y016116D03*
X027943Y016127D03*
X027943Y016149D03*
X029026Y016510D03*
D36*
X029666Y014366D03*
X028135Y008734D03*
X028135Y006623D03*
X009193Y008143D03*
X009193Y008154D03*
D37*
X009040Y007389D03*
X007662Y008296D03*
X007651Y008384D03*
X006230Y007389D03*
X026702Y007389D03*
X026702Y007378D03*
X026702Y007673D03*
X026702Y007684D03*
X029513Y007629D03*
X027905Y014377D03*
X027129Y014738D03*
X027129Y014760D03*
X027129Y014771D03*
X027129Y014782D03*
X027129Y014793D03*
X027129Y014814D03*
X027129Y014825D03*
X027129Y014836D03*
X027129Y014847D03*
X029064Y014793D03*
X029064Y014782D03*
X029064Y014771D03*
X029064Y014760D03*
X029064Y014935D03*
X029064Y014946D03*
X029064Y014968D03*
X029064Y016586D03*
X027129Y016586D03*
X027129Y016597D03*
D38*
X027949Y016225D03*
X027949Y016214D03*
X027949Y016203D03*
X027949Y016192D03*
X027949Y016171D03*
X027949Y016160D03*
X027949Y016006D03*
X027949Y015996D03*
X027949Y015974D03*
X027949Y015963D03*
X027949Y015952D03*
X027949Y015930D03*
X029020Y016499D03*
X029020Y015164D03*
X029020Y014519D03*
X028944Y014421D03*
X028922Y014399D03*
X028911Y014388D03*
X028900Y014377D03*
X027085Y014530D03*
X027085Y014541D03*
X027085Y015132D03*
X027085Y015143D03*
X029556Y007728D03*
X009084Y007608D03*
X009084Y007597D03*
D39*
X009199Y008176D03*
X009199Y008187D03*
X029671Y014377D03*
D40*
X029059Y014716D03*
X029059Y014727D03*
X029059Y014738D03*
X029059Y014978D03*
X029059Y014989D03*
X027910Y014388D03*
X027123Y014694D03*
X027123Y014716D03*
X027123Y014727D03*
X027123Y014869D03*
X027123Y014880D03*
X027123Y014891D03*
X027123Y014913D03*
X027123Y014924D03*
X026697Y007651D03*
X026697Y007411D03*
X026697Y007400D03*
X007722Y007608D03*
X007657Y008286D03*
X006224Y007411D03*
X006224Y007400D03*
D41*
X007804Y007487D03*
X009204Y008198D03*
X028124Y008723D03*
X029677Y014388D03*
D42*
X029004Y015208D03*
X029004Y015219D03*
X029004Y015230D03*
X027965Y015799D03*
X027965Y015810D03*
X027965Y015821D03*
X027965Y016324D03*
X027965Y016345D03*
X028151Y016717D03*
X029004Y016455D03*
X029004Y016444D03*
X027068Y015230D03*
X027068Y015219D03*
X027068Y015208D03*
X027025Y014432D03*
X026992Y014399D03*
X006169Y007695D03*
X006169Y007684D03*
D43*
X006219Y007443D03*
X006219Y007433D03*
X007651Y008395D03*
X026691Y007640D03*
X026691Y007629D03*
X026691Y007454D03*
X026691Y007443D03*
X026691Y007433D03*
X027916Y014399D03*
X027118Y014661D03*
X027118Y014672D03*
X027118Y014683D03*
X027118Y014935D03*
X027118Y014946D03*
X027118Y014968D03*
X029053Y015011D03*
X029053Y015022D03*
X029053Y014694D03*
X029053Y014683D03*
X029053Y014672D03*
X029053Y016564D03*
D44*
X028080Y015208D03*
X028080Y015186D03*
X028080Y014836D03*
X028080Y014825D03*
X029688Y014399D03*
X028813Y008143D03*
X028091Y006689D03*
X028003Y006208D03*
X009215Y008242D03*
X007684Y008100D03*
X006055Y008242D03*
X006055Y008253D03*
D45*
X027003Y014410D03*
X029573Y007761D03*
D46*
X026686Y007564D03*
X026686Y007520D03*
X026686Y007465D03*
X027921Y014410D03*
X029048Y014650D03*
X029048Y015055D03*
X006213Y007476D03*
D47*
X009221Y008264D03*
X029693Y014410D03*
D48*
X027014Y014421D03*
X029573Y007772D03*
X009100Y007695D03*
X009100Y007684D03*
D49*
X009062Y007498D03*
X009062Y007487D03*
X006208Y007487D03*
X006208Y007498D03*
X027107Y014618D03*
X027107Y015011D03*
X027107Y015022D03*
X027107Y015033D03*
X027927Y014421D03*
X029042Y014618D03*
X029042Y014629D03*
X029042Y015066D03*
X029042Y015077D03*
X029534Y007684D03*
D50*
X029699Y014421D03*
X009226Y008275D03*
X008023Y007159D03*
D51*
X006197Y007542D03*
X006197Y007553D03*
X027096Y014563D03*
X027096Y014574D03*
X027096Y015077D03*
X027096Y015088D03*
X027938Y014432D03*
X029031Y014563D03*
X029031Y014574D03*
X029031Y015110D03*
X029031Y015121D03*
X027096Y016510D03*
D52*
X028096Y015088D03*
X028096Y015077D03*
X028096Y015066D03*
X028096Y015044D03*
X028096Y015033D03*
X028096Y015022D03*
X028096Y015011D03*
X028096Y014989D03*
X028096Y014978D03*
X028096Y014968D03*
X028096Y014946D03*
X028096Y014935D03*
X028096Y014924D03*
X029704Y014432D03*
X028796Y008132D03*
X009232Y008286D03*
X009232Y008296D03*
X007690Y008078D03*
X007821Y007465D03*
X008018Y007148D03*
D53*
X006164Y007706D03*
X006164Y007728D03*
X027030Y014443D03*
X027971Y015755D03*
X027971Y015766D03*
X027971Y015777D03*
X027971Y016356D03*
X027971Y016367D03*
X028999Y015241D03*
D54*
X029709Y016028D03*
X029709Y016050D03*
X029709Y016061D03*
X029709Y016072D03*
X029709Y016094D03*
X029709Y014443D03*
X028102Y008690D03*
X028780Y008121D03*
X028113Y007826D03*
X008023Y007137D03*
X007826Y007454D03*
X006033Y008318D03*
D55*
X007662Y008209D03*
X009106Y007717D03*
X027041Y014454D03*
X027063Y015252D03*
D56*
X029715Y015941D03*
X029715Y015985D03*
X029715Y016138D03*
X029715Y016181D03*
X029715Y014454D03*
D57*
X027052Y014464D03*
X027063Y015241D03*
X027063Y016422D03*
X028135Y016695D03*
X028146Y016706D03*
X029578Y007782D03*
X009106Y007728D03*
X009106Y007706D03*
X007750Y007564D03*
D58*
X008012Y007115D03*
X009248Y008329D03*
X027982Y006164D03*
X029720Y014464D03*
X029720Y015897D03*
X029720Y015908D03*
X029720Y015919D03*
X029720Y015930D03*
X029720Y016192D03*
X029720Y016203D03*
X029720Y016214D03*
X029720Y016225D03*
D59*
X029726Y016247D03*
X029726Y016258D03*
X029726Y016269D03*
X029726Y015875D03*
X029726Y015864D03*
X029726Y015853D03*
X029726Y014475D03*
X028096Y008668D03*
X028763Y008100D03*
X009253Y008340D03*
X007700Y008056D03*
D60*
X009259Y008351D03*
X008012Y007104D03*
X027982Y006153D03*
X028747Y008078D03*
X028091Y008657D03*
X029731Y014486D03*
X029731Y015799D03*
X029731Y015810D03*
X029731Y015821D03*
X029731Y015831D03*
X029731Y016291D03*
X029731Y016302D03*
D61*
X029737Y016313D03*
X029737Y016324D03*
X029737Y015777D03*
X029737Y015766D03*
X029737Y014497D03*
X028742Y008067D03*
X028118Y007903D03*
X028118Y007892D03*
X027484Y007968D03*
X008007Y007094D03*
X007854Y007411D03*
X007700Y008045D03*
X006005Y008373D03*
D62*
X028709Y008012D03*
X029748Y014508D03*
X029748Y016378D03*
D63*
X028993Y016411D03*
X028993Y016422D03*
X027976Y016400D03*
X027976Y016389D03*
X027976Y015733D03*
X027976Y015722D03*
X027057Y015274D03*
X027057Y015263D03*
X027976Y014519D03*
X028993Y015263D03*
X028993Y015274D03*
X027057Y016400D03*
X027057Y016411D03*
X029584Y007826D03*
X029584Y007804D03*
X029584Y007793D03*
X009111Y007750D03*
X009111Y007739D03*
X006158Y007739D03*
X006158Y007750D03*
D64*
X008001Y007072D03*
X009281Y008384D03*
X027982Y006131D03*
X028124Y007968D03*
X028124Y007979D03*
X028660Y007892D03*
X028660Y007881D03*
X028671Y007925D03*
X028692Y007979D03*
X029753Y014519D03*
X029753Y015667D03*
X029753Y015678D03*
X029753Y016389D03*
X029753Y016400D03*
D65*
X028988Y016400D03*
X028124Y016684D03*
X027982Y016422D03*
X027982Y016411D03*
X027982Y015711D03*
X027982Y015700D03*
X027052Y015307D03*
X027052Y015285D03*
X027982Y014530D03*
X028988Y015285D03*
X028988Y015307D03*
X027052Y016389D03*
X027861Y007651D03*
X009117Y007761D03*
X009117Y007782D03*
X007662Y008198D03*
X006153Y007782D03*
X006153Y007761D03*
D66*
X007996Y007061D03*
X026456Y016750D03*
X029759Y016422D03*
X029759Y016411D03*
X029759Y015656D03*
X029759Y015635D03*
X029759Y014541D03*
X029759Y014530D03*
X028085Y008614D03*
X028118Y007990D03*
X028599Y007673D03*
X027506Y007892D03*
X027506Y007903D03*
D67*
X027856Y007640D03*
X027987Y014541D03*
X027046Y015317D03*
X027046Y015328D03*
X027987Y015656D03*
X027987Y015667D03*
X027987Y015678D03*
X027987Y016444D03*
X028096Y016652D03*
X028982Y016389D03*
X028982Y015328D03*
X028982Y015317D03*
X027046Y016367D03*
X007755Y007553D03*
X006148Y007793D03*
X006148Y007804D03*
D68*
X009078Y007575D03*
X027090Y014552D03*
X029551Y007717D03*
D69*
X027987Y014552D03*
X027987Y016433D03*
X028982Y016378D03*
D70*
X029764Y014552D03*
D71*
X028977Y015339D03*
X027992Y015624D03*
X027992Y015635D03*
X027992Y016455D03*
X027992Y016466D03*
X028080Y016641D03*
X028977Y016367D03*
X028977Y016356D03*
X027992Y014563D03*
X027850Y007629D03*
X007662Y008187D03*
X006142Y007837D03*
X006142Y007826D03*
D72*
X007722Y007990D03*
X007908Y006940D03*
X028085Y008581D03*
X029770Y014563D03*
X029770Y015569D03*
X029770Y015580D03*
X029770Y016466D03*
D73*
X028971Y016345D03*
X028064Y016619D03*
X027998Y016488D03*
X027036Y016324D03*
X027998Y015613D03*
X027998Y015602D03*
X027036Y015383D03*
X027036Y015372D03*
X027998Y014574D03*
X028971Y015361D03*
X028971Y015372D03*
X028971Y015383D03*
X029606Y007925D03*
X009133Y007859D03*
X009133Y007848D03*
D74*
X007750Y007859D03*
X007717Y007979D03*
X027544Y007804D03*
X027555Y007793D03*
X028124Y008034D03*
X028124Y008045D03*
X028124Y008067D03*
X028091Y008570D03*
X029775Y014574D03*
X029775Y015558D03*
X029775Y016488D03*
X029775Y016499D03*
D75*
X029037Y015088D03*
X029037Y014596D03*
X029037Y014585D03*
X027101Y014585D03*
X027101Y014596D03*
X027101Y015044D03*
X027101Y015066D03*
X027101Y016520D03*
X009068Y007531D03*
X009068Y007509D03*
X007657Y008253D03*
X006202Y007531D03*
X006202Y007509D03*
D76*
X006131Y007881D03*
X006131Y007892D03*
X007662Y008176D03*
X009139Y007892D03*
X009139Y007881D03*
X027030Y015405D03*
X027030Y015416D03*
X028003Y015558D03*
X028003Y015569D03*
X028003Y015580D03*
X028966Y015405D03*
X028003Y014585D03*
X027030Y016302D03*
X027030Y016313D03*
X028003Y016499D03*
X028003Y016510D03*
X028047Y016597D03*
X028058Y016608D03*
X028966Y016324D03*
X028966Y016313D03*
X029611Y008121D03*
X029611Y008100D03*
X029611Y008089D03*
X029611Y008078D03*
X029611Y008067D03*
X029611Y008045D03*
X029611Y008034D03*
X029611Y008023D03*
X029611Y008001D03*
X029611Y007990D03*
X029611Y007979D03*
X029611Y007968D03*
X029611Y007947D03*
X029611Y007936D03*
X028014Y006317D03*
D77*
X027976Y006098D03*
X028610Y007651D03*
X028129Y008078D03*
X028129Y008089D03*
X028085Y008559D03*
X027560Y007782D03*
X029781Y014585D03*
X029781Y015514D03*
X029781Y015525D03*
X029781Y015536D03*
X029781Y016510D03*
X029781Y016520D03*
X026434Y016706D03*
X007635Y008614D03*
X007635Y008592D03*
X007635Y008581D03*
X007635Y008570D03*
X007635Y008548D03*
X007635Y008537D03*
X007635Y008526D03*
X007635Y008515D03*
X007635Y008493D03*
X007635Y008482D03*
X007635Y008471D03*
X007635Y008450D03*
X007635Y008439D03*
X007722Y007957D03*
D78*
X008029Y007334D03*
X006126Y007903D03*
X006126Y007925D03*
X027025Y015427D03*
X027025Y015438D03*
X027025Y016291D03*
X028009Y016520D03*
X028960Y016302D03*
X028960Y016291D03*
X028960Y015438D03*
X028960Y015427D03*
X028960Y015416D03*
X028009Y015536D03*
X028009Y014596D03*
X028009Y006306D03*
D79*
X027960Y005716D03*
X028616Y007640D03*
X028135Y008100D03*
X028091Y008537D03*
X029786Y014596D03*
X029786Y015503D03*
X029786Y016542D03*
X026429Y016695D03*
X007990Y007017D03*
X007728Y007936D03*
X007728Y007947D03*
X005956Y008417D03*
D80*
X007651Y008406D03*
X027107Y014607D03*
D81*
X028009Y014607D03*
X028009Y015547D03*
X027025Y015449D03*
X028031Y016575D03*
X006126Y007914D03*
D82*
X006202Y007520D03*
X009068Y007520D03*
X027101Y015055D03*
X029037Y015099D03*
X029037Y014607D03*
D83*
X029791Y014607D03*
X007733Y007914D03*
D84*
X008034Y007312D03*
X006120Y007936D03*
X006120Y007947D03*
X006120Y007957D03*
X027019Y015460D03*
X027019Y015471D03*
X027019Y016258D03*
X027019Y016269D03*
X028014Y015525D03*
X028014Y015514D03*
X028014Y015503D03*
X028955Y015471D03*
X028955Y015460D03*
X028955Y016258D03*
X028955Y016269D03*
X028014Y014618D03*
X028014Y006295D03*
D85*
X029797Y014618D03*
X029797Y015438D03*
X029797Y016586D03*
X009324Y008417D03*
X007979Y006995D03*
D86*
X009057Y007454D03*
X009057Y007465D03*
X027112Y014629D03*
X027112Y014639D03*
X027112Y014978D03*
X027112Y014989D03*
X029529Y007673D03*
D87*
X028020Y014629D03*
X028020Y015471D03*
X028020Y015482D03*
X028949Y015482D03*
X028949Y016247D03*
X008039Y007301D03*
X008039Y007290D03*
X007788Y006973D03*
X007788Y006962D03*
X006115Y007979D03*
D88*
X007296Y007148D03*
X007296Y007137D03*
X007296Y007115D03*
X007930Y006919D03*
X008225Y007903D03*
X027965Y006722D03*
X027976Y006076D03*
X027965Y005726D03*
X028096Y008515D03*
X029802Y014629D03*
X029802Y014639D03*
X029802Y015416D03*
X029802Y015427D03*
X029802Y016597D03*
X029802Y016608D03*
D89*
X028944Y016225D03*
X028944Y016214D03*
X028944Y016203D03*
X028944Y015525D03*
X028944Y015514D03*
X028944Y015503D03*
X028025Y015460D03*
X027008Y015514D03*
X027008Y015525D03*
X027008Y015536D03*
X027008Y016214D03*
X027008Y016225D03*
X028025Y014639D03*
X009160Y008001D03*
X009160Y007990D03*
X007673Y008154D03*
X006109Y008001D03*
X006109Y007990D03*
D90*
X006213Y007465D03*
X006213Y007454D03*
X007733Y007597D03*
X026686Y007597D03*
X026686Y007608D03*
X026686Y007586D03*
X026686Y007575D03*
X026686Y007553D03*
X026686Y007542D03*
X026686Y007531D03*
X026686Y007509D03*
X026686Y007498D03*
X026686Y007487D03*
X026686Y007476D03*
X029048Y014639D03*
X029048Y014661D03*
X029048Y015033D03*
X029048Y015044D03*
D91*
X027118Y014957D03*
X027118Y014650D03*
X026691Y007618D03*
D92*
X029808Y014650D03*
X029808Y015394D03*
X029808Y016630D03*
X008231Y007914D03*
X007312Y007181D03*
X007290Y007083D03*
D93*
X008039Y007269D03*
X009166Y008023D03*
X009166Y008034D03*
X006104Y008034D03*
X006104Y008023D03*
X027003Y015558D03*
X027003Y015569D03*
X027003Y015580D03*
X027003Y016192D03*
X027003Y016203D03*
X028031Y015438D03*
X028031Y015427D03*
X028938Y015536D03*
X028938Y015558D03*
X028938Y015569D03*
X028938Y016160D03*
X028938Y016171D03*
X028938Y016192D03*
X028031Y014661D03*
D94*
X029813Y014661D03*
X029813Y014672D03*
X029813Y015361D03*
X029813Y015372D03*
X029813Y016641D03*
X029813Y016652D03*
X028632Y007597D03*
X027648Y007597D03*
X007318Y007192D03*
D95*
X006098Y008045D03*
X006098Y008056D03*
X007673Y008143D03*
X026997Y015602D03*
X026997Y015613D03*
X026997Y015624D03*
X026997Y016149D03*
X026997Y016160D03*
X026997Y016171D03*
X028036Y015416D03*
X028036Y015405D03*
X028933Y015580D03*
X028933Y015602D03*
X028933Y015613D03*
X028933Y016127D03*
X028933Y016149D03*
X028036Y014683D03*
X028036Y014672D03*
X028889Y008231D03*
D96*
X028135Y008220D03*
X028638Y007586D03*
X029819Y014683D03*
X029819Y015339D03*
X029819Y016663D03*
X029819Y016684D03*
X007323Y007203D03*
D97*
X006093Y008078D03*
X006093Y008089D03*
X028042Y014694D03*
X028042Y015372D03*
X028042Y015383D03*
X028928Y015624D03*
X028928Y015635D03*
X028928Y015656D03*
X028928Y015667D03*
X028928Y015678D03*
X028928Y016072D03*
X028928Y016094D03*
X028928Y016105D03*
X028928Y016116D03*
X028884Y008220D03*
D98*
X028129Y008231D03*
X028129Y008242D03*
X027637Y007586D03*
X029824Y014694D03*
X029824Y015317D03*
X029824Y015328D03*
X029824Y016695D03*
X029824Y016706D03*
X008247Y007936D03*
X007329Y007214D03*
D99*
X006224Y007422D03*
X026697Y007422D03*
X026697Y007662D03*
X027123Y014705D03*
X027123Y014902D03*
X029059Y015000D03*
X029059Y014705D03*
X029059Y016575D03*
X027123Y016575D03*
D100*
X026986Y016083D03*
X026986Y015689D03*
X028047Y015350D03*
X028922Y015689D03*
X028922Y015744D03*
X028922Y016039D03*
X028047Y014705D03*
X009182Y008111D03*
D101*
X028129Y008253D03*
X029824Y014705D03*
D102*
X029830Y014716D03*
X029830Y015285D03*
X029830Y015307D03*
X029830Y016717D03*
X029830Y016739D03*
X026385Y016619D03*
X028047Y007608D03*
X027632Y007575D03*
X028638Y007575D03*
X027971Y006033D03*
X027971Y006022D03*
X008253Y007947D03*
X007268Y007848D03*
D103*
X007679Y008121D03*
X009188Y008121D03*
X009188Y008132D03*
X006082Y008132D03*
X006082Y008143D03*
X026981Y015755D03*
X026981Y015766D03*
X026981Y015777D03*
X026981Y015799D03*
X026981Y015810D03*
X026981Y015821D03*
X026981Y015831D03*
X026981Y015853D03*
X026981Y015952D03*
X026981Y015963D03*
X026981Y015974D03*
X026981Y015996D03*
X026981Y016006D03*
X026981Y016017D03*
X026981Y016028D03*
X028053Y015339D03*
X028053Y015328D03*
X028917Y015766D03*
X028917Y015777D03*
X028917Y015799D03*
X028917Y015810D03*
X028917Y015821D03*
X028917Y015831D03*
X028917Y015853D03*
X028917Y015864D03*
X028917Y015875D03*
X028917Y015897D03*
X028917Y015908D03*
X028917Y015919D03*
X028917Y015930D03*
X028917Y015952D03*
X028917Y015963D03*
X028917Y015974D03*
X028053Y014738D03*
X028053Y014727D03*
X028862Y008187D03*
D104*
X028129Y008264D03*
X028129Y008275D03*
X028129Y008286D03*
X028129Y008296D03*
X028118Y008373D03*
X028118Y008384D03*
X028118Y008395D03*
X028643Y007553D03*
X027932Y006744D03*
X029835Y014727D03*
X029835Y014738D03*
X029835Y015263D03*
X029835Y015274D03*
X029835Y016750D03*
X029835Y016761D03*
X026379Y016608D03*
X007952Y006897D03*
X007602Y007017D03*
X005907Y008428D03*
D105*
X006230Y007378D03*
X009040Y007378D03*
X026702Y007367D03*
X029513Y007618D03*
X029064Y014749D03*
X029064Y014957D03*
X027129Y014858D03*
X027129Y014803D03*
X027129Y014749D03*
D106*
X028058Y014749D03*
X028058Y015296D03*
X026975Y015886D03*
X028014Y006240D03*
X006076Y008165D03*
D107*
X028660Y007520D03*
X029841Y014749D03*
X029841Y015252D03*
D108*
X028064Y015274D03*
X028064Y015285D03*
X028064Y014771D03*
X028064Y014760D03*
X028840Y008165D03*
X028009Y006230D03*
X008029Y007203D03*
X007799Y007498D03*
X006071Y008176D03*
X006071Y008187D03*
D109*
X007290Y007006D03*
X027971Y006000D03*
X028660Y007509D03*
X028649Y007542D03*
X029841Y014760D03*
X029841Y015241D03*
D110*
X029846Y015230D03*
X029846Y015219D03*
X029846Y015208D03*
X029846Y014782D03*
X029846Y014771D03*
X028053Y007597D03*
X027965Y005978D03*
X027965Y005781D03*
X007296Y006995D03*
X007252Y007859D03*
D111*
X008034Y007192D03*
X006066Y008198D03*
X028113Y006645D03*
X028069Y014782D03*
X028069Y014793D03*
X028069Y015241D03*
X028069Y015263D03*
D112*
X029852Y015186D03*
X029852Y015175D03*
X029852Y014814D03*
X029852Y014793D03*
X027621Y007553D03*
X027960Y005967D03*
X027960Y005956D03*
X027960Y005814D03*
X027960Y005803D03*
X008264Y007345D03*
D113*
X008029Y007181D03*
X028096Y006678D03*
X028074Y014803D03*
D114*
X029070Y014803D03*
X029070Y014858D03*
X029070Y014902D03*
X007657Y008362D03*
X007657Y008307D03*
D115*
X008264Y007968D03*
X007586Y007028D03*
X007301Y006984D03*
X029852Y014803D03*
X029852Y015197D03*
D116*
X028074Y015219D03*
X028074Y015230D03*
X028074Y014814D03*
X028085Y006711D03*
X028085Y006700D03*
X028096Y006667D03*
X028107Y006656D03*
X028009Y006219D03*
X009210Y008220D03*
X009210Y008231D03*
X006060Y008231D03*
X006060Y008220D03*
D117*
X007580Y007039D03*
X007963Y006864D03*
X008269Y007979D03*
X026358Y016564D03*
X029857Y015164D03*
X029857Y015143D03*
X029857Y014847D03*
X029857Y014836D03*
X029857Y014825D03*
X027615Y007542D03*
X027965Y005825D03*
D118*
X028085Y014847D03*
X028085Y014869D03*
X028085Y015164D03*
X028085Y015175D03*
X006049Y008275D03*
D119*
X006049Y008264D03*
X028085Y014858D03*
X028085Y015153D03*
D120*
X029863Y015099D03*
X029863Y014858D03*
D121*
X029863Y014869D03*
X029863Y014880D03*
X029863Y014891D03*
X029863Y015110D03*
X029863Y015121D03*
X029863Y015132D03*
D122*
X028091Y015132D03*
X028091Y015143D03*
X028091Y015121D03*
X028091Y015110D03*
X028091Y014913D03*
X028091Y014891D03*
X028091Y014880D03*
X027992Y006197D03*
X006044Y008286D03*
D123*
X028091Y014902D03*
D124*
X029868Y014902D03*
X029868Y014957D03*
X029868Y015000D03*
X029868Y015055D03*
X009396Y008603D03*
X009396Y008559D03*
X009396Y008504D03*
X009396Y008461D03*
X007525Y006929D03*
D125*
X007515Y006919D03*
X007963Y006853D03*
X009396Y008428D03*
X009396Y008439D03*
X009396Y008450D03*
X009396Y008471D03*
X009396Y008482D03*
X009396Y008493D03*
X009396Y008515D03*
X009396Y008526D03*
X009396Y008537D03*
X009396Y008548D03*
X009396Y008570D03*
X009396Y008581D03*
X009396Y008592D03*
X009396Y008614D03*
X029868Y014913D03*
X029868Y014924D03*
X029868Y014935D03*
X029868Y014946D03*
X029868Y014968D03*
X029868Y014978D03*
X029868Y014989D03*
X029868Y015011D03*
X029868Y015022D03*
X029868Y015033D03*
X029868Y015044D03*
X029868Y015066D03*
X029868Y015077D03*
X029868Y015088D03*
D126*
X028096Y015099D03*
X028096Y015055D03*
X028096Y015000D03*
X028096Y014957D03*
X028107Y008701D03*
D127*
X029529Y007662D03*
X027112Y015000D03*
X009057Y007476D03*
X007657Y008264D03*
D128*
X027096Y015099D03*
D129*
X029857Y015153D03*
X027965Y005945D03*
D130*
X027074Y015197D03*
X027960Y015842D03*
X027960Y016280D03*
X029010Y015197D03*
X006175Y007673D03*
D131*
X007815Y007476D03*
X028080Y015197D03*
D132*
X028069Y015252D03*
X006066Y008209D03*
D133*
X006164Y007717D03*
X027861Y007662D03*
X028999Y015252D03*
X028999Y016433D03*
D134*
X027982Y015689D03*
X027052Y015296D03*
X027052Y016378D03*
X028988Y015296D03*
X009117Y007772D03*
X006153Y007772D03*
D135*
X007334Y007225D03*
X007290Y007028D03*
X029830Y015296D03*
X029830Y016728D03*
D136*
X028058Y015317D03*
X028058Y015307D03*
X026975Y015864D03*
X026975Y015875D03*
X026975Y015897D03*
X026975Y015908D03*
X026975Y015919D03*
X026975Y015930D03*
X028845Y008176D03*
X008034Y007214D03*
X006076Y008154D03*
D137*
X009128Y007837D03*
X009128Y007826D03*
X027041Y015339D03*
X027041Y015361D03*
X027041Y016345D03*
X027041Y016356D03*
X029600Y007903D03*
X029600Y007892D03*
X028014Y006328D03*
D138*
X027041Y015350D03*
D139*
X027992Y015646D03*
X028977Y015350D03*
X006142Y007815D03*
D140*
X027949Y006733D03*
X028135Y008209D03*
X029819Y015350D03*
X029819Y016674D03*
D141*
X029808Y016619D03*
X029808Y015405D03*
X029808Y015383D03*
X026407Y016652D03*
X028102Y008493D03*
X028135Y008187D03*
X028135Y008176D03*
X028135Y008165D03*
X027653Y007608D03*
X028627Y007608D03*
X027982Y006066D03*
X007618Y007006D03*
X007290Y007094D03*
X007290Y007104D03*
X007301Y007159D03*
X007301Y007170D03*
D142*
X006098Y008067D03*
X026997Y015591D03*
X028036Y015394D03*
X028933Y015591D03*
X028933Y016138D03*
D143*
X028955Y016280D03*
X028955Y015449D03*
X027019Y016280D03*
X008034Y007323D03*
D144*
X029797Y015449D03*
X029797Y016575D03*
D145*
X029791Y016564D03*
X029791Y016553D03*
X029791Y015482D03*
X029791Y015471D03*
X029791Y015460D03*
X007985Y007006D03*
X007296Y007826D03*
X007733Y007925D03*
D146*
X007799Y006984D03*
X009155Y007968D03*
X027014Y015492D03*
X027014Y016236D03*
D147*
X028020Y015492D03*
X028949Y015492D03*
X028949Y016236D03*
X006115Y007968D03*
D148*
X008198Y007870D03*
X027675Y007618D03*
X028135Y008111D03*
X028091Y008548D03*
X029786Y015492D03*
X029786Y016531D03*
D149*
X028938Y016181D03*
X028938Y015547D03*
X027003Y015547D03*
X027003Y016181D03*
X009166Y008012D03*
X008039Y007279D03*
X007777Y007520D03*
D150*
X027533Y007815D03*
X028124Y008056D03*
X029775Y015547D03*
D151*
X028971Y016335D03*
X028074Y016630D03*
X027998Y016477D03*
X027036Y016335D03*
X027998Y015591D03*
X029606Y007914D03*
X009133Y007870D03*
D152*
X029770Y015591D03*
X029770Y016477D03*
D153*
X029764Y016455D03*
X029764Y016444D03*
X029764Y015624D03*
X029764Y015613D03*
X029764Y015602D03*
X028091Y008592D03*
X009292Y008395D03*
X007717Y008001D03*
D154*
X009177Y008067D03*
X026992Y015646D03*
X026992Y016138D03*
D155*
X028928Y016083D03*
X028928Y015646D03*
D156*
X029759Y015646D03*
X029759Y016433D03*
X028085Y008603D03*
X027506Y007914D03*
X007711Y008012D03*
D157*
X028124Y007957D03*
X028649Y007859D03*
X028671Y007914D03*
X029753Y015689D03*
D158*
X029748Y015700D03*
X029748Y015711D03*
X029748Y016367D03*
X028698Y007990D03*
X028665Y007903D03*
X028654Y007870D03*
X028643Y007848D03*
X028643Y007837D03*
X028118Y007947D03*
X009275Y008373D03*
X007897Y007345D03*
X007886Y007356D03*
X007875Y007367D03*
D159*
X028703Y008001D03*
X029742Y015722D03*
X029742Y015733D03*
X029742Y015755D03*
X029742Y016345D03*
X029742Y016356D03*
D160*
X027976Y016378D03*
X027976Y015744D03*
X029584Y007815D03*
D161*
X029742Y015744D03*
D162*
X027965Y015788D03*
X027965Y016335D03*
X027068Y016433D03*
D163*
X029737Y016335D03*
X029737Y015788D03*
X028731Y008056D03*
X028118Y007914D03*
X009264Y008362D03*
D164*
X029726Y015842D03*
X029726Y016236D03*
D165*
X029015Y016477D03*
X027954Y016236D03*
X027954Y015886D03*
X007744Y007575D03*
X006180Y007618D03*
D166*
X028769Y008111D03*
X029720Y015886D03*
D167*
X029715Y015952D03*
X029715Y015963D03*
X029715Y015974D03*
X029715Y015996D03*
X029715Y016006D03*
X029715Y016017D03*
X029715Y016105D03*
X029715Y016116D03*
X029715Y016127D03*
X029715Y016149D03*
X029715Y016160D03*
X029715Y016171D03*
X027987Y006175D03*
X009242Y008318D03*
D168*
X009237Y008307D03*
X006033Y008307D03*
X027992Y006186D03*
X029709Y016039D03*
X029709Y016083D03*
D169*
X029731Y016280D03*
X007848Y007422D03*
X006011Y008362D03*
D170*
X026352Y016553D03*
X027610Y007531D03*
X028058Y007586D03*
X027960Y005934D03*
X027960Y005923D03*
X027960Y005912D03*
X027960Y005901D03*
X027960Y005880D03*
X027960Y005869D03*
X027960Y005858D03*
X027960Y005836D03*
D171*
X026363Y016575D03*
D172*
X026368Y016586D03*
X028676Y007476D03*
X007329Y007236D03*
D173*
X008264Y007957D03*
X026374Y016597D03*
X028124Y008362D03*
X028124Y008340D03*
X028124Y008329D03*
X028124Y008318D03*
X028670Y007498D03*
X028670Y007487D03*
D174*
X029502Y007597D03*
X027139Y016619D03*
X009029Y007334D03*
X009029Y007312D03*
D175*
X007662Y008318D03*
X007662Y008329D03*
X006240Y007334D03*
X026713Y007334D03*
X026713Y007728D03*
X026713Y007739D03*
X029075Y016619D03*
D176*
X026390Y016630D03*
X027965Y005748D03*
D177*
X026718Y007761D03*
X027145Y016630D03*
X029081Y016630D03*
D178*
X026401Y016641D03*
X028107Y008482D03*
X028107Y008471D03*
X028129Y008198D03*
X027976Y006055D03*
X027965Y005737D03*
X008236Y007925D03*
X007285Y007837D03*
X007296Y007072D03*
D179*
X026412Y016663D03*
D180*
X027161Y016663D03*
X029480Y007553D03*
X009007Y007214D03*
X009007Y007203D03*
D181*
X009122Y007793D03*
X009122Y007804D03*
X028107Y016663D03*
X029595Y007881D03*
X029595Y007870D03*
D182*
X026735Y007968D03*
X026735Y007247D03*
X026735Y006897D03*
X026735Y006886D03*
X026735Y006722D03*
X026735Y006711D03*
X029097Y016663D03*
X006262Y007214D03*
X006262Y007203D03*
D183*
X026418Y016674D03*
X028135Y008154D03*
D184*
X026740Y006929D03*
X026740Y006678D03*
X027167Y016674D03*
X029102Y016674D03*
X006268Y007181D03*
D185*
X028113Y016674D03*
X029589Y007859D03*
D186*
X028621Y007629D03*
X028129Y008121D03*
X028096Y008526D03*
X026423Y016684D03*
X008204Y007881D03*
D187*
X006268Y007192D03*
X026740Y007236D03*
X026740Y006919D03*
X026740Y006908D03*
X026740Y006700D03*
X026740Y006689D03*
X027167Y016684D03*
D188*
X027172Y016695D03*
X029108Y016684D03*
X026746Y006962D03*
X026746Y006951D03*
X026746Y006940D03*
X026746Y006667D03*
X026746Y006656D03*
X006273Y007148D03*
X006273Y007159D03*
X006273Y007170D03*
D189*
X006279Y007137D03*
X007711Y007651D03*
X008991Y007137D03*
X008991Y007115D03*
X026751Y007006D03*
X026751Y006995D03*
X026751Y006984D03*
X026751Y006645D03*
X027178Y016706D03*
X029113Y016695D03*
D190*
X029119Y016706D03*
X027183Y016717D03*
X028342Y007804D03*
X028342Y007793D03*
X029458Y007509D03*
X008985Y007104D03*
X008985Y007094D03*
D191*
X007990Y007039D03*
X008187Y007859D03*
X026440Y016717D03*
D192*
X029124Y016717D03*
X028326Y007782D03*
X026762Y007050D03*
X026762Y007039D03*
X026762Y006612D03*
X026762Y006601D03*
X007711Y007662D03*
X006290Y007072D03*
D193*
X026445Y016728D03*
D194*
X026450Y016739D03*
X028124Y008023D03*
X028124Y008001D03*
X027522Y007848D03*
X027511Y007870D03*
X027511Y007881D03*
X027982Y006120D03*
D195*
X027500Y007925D03*
X027500Y007936D03*
X028681Y007947D03*
X026461Y016761D03*
X005989Y008395D03*
D196*
X027293Y005628D03*
D197*
X029305Y005628D03*
X029305Y006251D03*
X029305Y006667D03*
X029305Y008417D03*
X029305Y008428D03*
X029305Y008439D03*
X029305Y008559D03*
X029305Y008570D03*
X008832Y006317D03*
X008832Y006306D03*
X008832Y006295D03*
D198*
X027265Y005639D03*
D199*
X029321Y005639D03*
X029321Y006208D03*
X029321Y006219D03*
X029321Y006711D03*
X029321Y006722D03*
X008849Y006405D03*
X008849Y006394D03*
D200*
X027249Y005650D03*
D201*
X029332Y005650D03*
X029332Y006186D03*
X008860Y006437D03*
D202*
X027232Y005661D03*
D203*
X026877Y005737D03*
X029338Y005661D03*
X029338Y006153D03*
X029338Y006164D03*
X029338Y006765D03*
X008865Y006470D03*
X006405Y006492D03*
X006405Y006503D03*
D204*
X027221Y005672D03*
D205*
X029349Y005672D03*
X029349Y006098D03*
X029349Y006109D03*
X029349Y006809D03*
X008876Y006525D03*
D206*
X027211Y005683D03*
D207*
X029354Y005683D03*
X029354Y006076D03*
X029354Y006820D03*
X008882Y006569D03*
X008882Y006558D03*
X008882Y006547D03*
X007733Y007804D03*
D208*
X006465Y006186D03*
X026937Y005694D03*
X026937Y008253D03*
X026937Y008307D03*
X026937Y008351D03*
D209*
X028687Y007957D03*
X027943Y005694D03*
X008007Y007083D03*
D210*
X008887Y006590D03*
X029359Y005694D03*
D211*
X026915Y005705D03*
X006443Y006295D03*
X006443Y006306D03*
D212*
X007996Y007050D03*
X027528Y007826D03*
X027528Y007837D03*
X027582Y007772D03*
X027976Y006109D03*
X027954Y005705D03*
D213*
X026850Y006372D03*
X029365Y006055D03*
X029365Y005716D03*
X029365Y005705D03*
X029365Y006864D03*
X008893Y006623D03*
X008893Y006612D03*
X006377Y006623D03*
X006377Y006645D03*
D214*
X006432Y006361D03*
X006432Y006350D03*
X026904Y005716D03*
D215*
X026888Y005726D03*
X006415Y006426D03*
X006415Y006448D03*
D216*
X008898Y006645D03*
X008898Y006656D03*
X029370Y006886D03*
X029370Y006897D03*
X029370Y006033D03*
X029370Y006022D03*
X029370Y005726D03*
D217*
X029376Y005737D03*
X029376Y006000D03*
X029376Y006011D03*
X029376Y006908D03*
X029376Y006919D03*
X008903Y006678D03*
X008903Y006667D03*
X007722Y007761D03*
D218*
X026866Y005748D03*
D219*
X029376Y005748D03*
X029376Y006929D03*
D220*
X026861Y005759D03*
X006388Y006569D03*
X006388Y006580D03*
D221*
X007296Y007017D03*
X027965Y006011D03*
X027965Y005770D03*
X027965Y005759D03*
X028654Y007531D03*
D222*
X029381Y006962D03*
X029381Y006951D03*
X029381Y006940D03*
X029381Y005978D03*
X029381Y005967D03*
X029381Y005956D03*
X029381Y005781D03*
X029381Y005770D03*
X029381Y005759D03*
X008909Y006700D03*
X008909Y006711D03*
X007717Y007750D03*
D223*
X006383Y006612D03*
X006383Y006601D03*
X026855Y005770D03*
D224*
X026844Y005781D03*
X006372Y006656D03*
X006372Y006667D03*
D225*
X006366Y006689D03*
X026839Y005792D03*
D226*
X027965Y005792D03*
X027965Y005989D03*
X027626Y007564D03*
D227*
X029381Y006973D03*
X029381Y005989D03*
X029381Y005792D03*
X008909Y006689D03*
D228*
X006361Y006711D03*
X006361Y006722D03*
X026833Y006492D03*
X026833Y006350D03*
X026833Y005803D03*
D229*
X026828Y005814D03*
X026828Y005825D03*
X026828Y006328D03*
X029387Y005934D03*
X029387Y005923D03*
X029387Y005912D03*
X029387Y005901D03*
X029387Y005880D03*
X029387Y005869D03*
X029387Y005858D03*
X029387Y005836D03*
X029387Y005825D03*
X029387Y005814D03*
X029387Y005803D03*
X029387Y006984D03*
X029387Y006995D03*
X029387Y007006D03*
X029387Y007017D03*
X008914Y006744D03*
X008914Y006722D03*
X006355Y006744D03*
X006355Y006754D03*
D230*
X006350Y006765D03*
X006350Y006776D03*
X007717Y007728D03*
X007717Y007739D03*
X026822Y006317D03*
X026822Y006306D03*
X026822Y005836D03*
D231*
X026822Y005847D03*
D232*
X027960Y005847D03*
X027960Y005891D03*
X007247Y007870D03*
D233*
X006355Y006733D03*
X008914Y006733D03*
X026828Y006339D03*
X029387Y005945D03*
X029387Y005891D03*
X029387Y005847D03*
X029387Y007028D03*
D234*
X026817Y006503D03*
X026817Y006295D03*
X026817Y006273D03*
X026817Y005869D03*
X026817Y005858D03*
X006344Y006798D03*
X006344Y006809D03*
D235*
X006339Y006820D03*
X006339Y006842D03*
X026811Y006262D03*
X026811Y006251D03*
X026811Y005880D03*
D236*
X026811Y005891D03*
X026811Y006240D03*
X007717Y007717D03*
X006339Y006831D03*
D237*
X006333Y006853D03*
X006333Y006864D03*
X007711Y007706D03*
X026806Y006514D03*
X026806Y006230D03*
X026806Y006219D03*
X026806Y006208D03*
X026806Y005912D03*
X026806Y005901D03*
D238*
X026800Y005923D03*
X026800Y005934D03*
X026800Y005956D03*
X026800Y006153D03*
X026800Y006164D03*
X026800Y006175D03*
X026800Y006197D03*
X026800Y006525D03*
X008942Y006864D03*
X008942Y006875D03*
X006328Y006875D03*
X006328Y006897D03*
D239*
X006328Y006886D03*
X008942Y006886D03*
X026800Y006186D03*
X026800Y005945D03*
D240*
X026795Y005967D03*
X026795Y005978D03*
X026795Y006000D03*
X026795Y006011D03*
X026795Y006022D03*
X026795Y006033D03*
X026795Y006055D03*
X026795Y006066D03*
X026795Y006076D03*
X026795Y006098D03*
X026795Y006109D03*
X026795Y006120D03*
X026795Y006131D03*
X006323Y006908D03*
X006323Y006919D03*
D241*
X026795Y006536D03*
X026795Y006142D03*
X026795Y006087D03*
X026795Y006044D03*
X026795Y005989D03*
D242*
X027971Y006044D03*
X028113Y008450D03*
D243*
X029365Y006875D03*
X029365Y006044D03*
X006377Y006634D03*
D244*
X007728Y007782D03*
X007728Y007793D03*
X008887Y006601D03*
X008887Y006580D03*
X029359Y006842D03*
X029359Y006853D03*
X029359Y006066D03*
D245*
X027976Y006087D03*
D246*
X029354Y006087D03*
X029354Y006831D03*
D247*
X029343Y006798D03*
X029343Y006787D03*
X029343Y006131D03*
X029343Y006120D03*
X008871Y006492D03*
X008871Y006503D03*
X008871Y006514D03*
D248*
X007870Y007378D03*
X027489Y007957D03*
X028091Y008646D03*
X027982Y006142D03*
D249*
X029343Y006142D03*
D250*
X029332Y006175D03*
X029332Y006754D03*
X008860Y006459D03*
X008860Y006448D03*
D251*
X008854Y006426D03*
X008854Y006415D03*
X029327Y006197D03*
X029327Y006744D03*
D252*
X029316Y006700D03*
X029316Y006230D03*
X008843Y006350D03*
X008843Y006361D03*
X008843Y006372D03*
X006426Y006372D03*
X006426Y006394D03*
D253*
X008838Y006339D03*
X029310Y006240D03*
X029310Y006678D03*
X029310Y008450D03*
X029310Y008504D03*
D254*
X029294Y008614D03*
X029294Y008625D03*
X029294Y008362D03*
X029294Y008340D03*
X029294Y006645D03*
X029294Y006262D03*
X008821Y006262D03*
X008821Y006251D03*
D255*
X008816Y006230D03*
X008816Y006219D03*
X006454Y006251D03*
X028140Y007695D03*
X029288Y008318D03*
X029288Y008329D03*
X029288Y008636D03*
X029288Y006273D03*
D256*
X026817Y006284D03*
X006344Y006787D03*
D257*
X028014Y006284D03*
D258*
X029277Y006284D03*
X028129Y007717D03*
D259*
X028129Y007728D03*
X028129Y007739D03*
X026948Y008198D03*
X026948Y008461D03*
X026948Y008471D03*
X026948Y008482D03*
X029267Y008723D03*
X029267Y008734D03*
X029267Y006295D03*
X008794Y006120D03*
X008794Y006109D03*
X008794Y006098D03*
X006476Y006120D03*
X006476Y006131D03*
D260*
X008783Y006066D03*
X008783Y006055D03*
X029256Y006306D03*
X029256Y006612D03*
X029256Y008854D03*
D261*
X029245Y006317D03*
X008772Y006011D03*
X008772Y005989D03*
D262*
X008761Y005956D03*
X008761Y005934D03*
X029234Y006328D03*
D263*
X028020Y006339D03*
X009122Y007815D03*
D264*
X026997Y008701D03*
X029217Y006339D03*
D265*
X028802Y006350D03*
D266*
X026839Y006361D03*
X006366Y006678D03*
X006366Y006700D03*
D267*
X028796Y006372D03*
X028796Y006361D03*
D268*
X026861Y006383D03*
X006388Y006590D03*
D269*
X028791Y006383D03*
D270*
X026872Y006394D03*
X006399Y006514D03*
X006399Y006525D03*
D271*
X028785Y006394D03*
D272*
X026893Y006405D03*
X006421Y006405D03*
X006421Y006415D03*
D273*
X028774Y006405D03*
D274*
X026882Y006470D03*
X006410Y006470D03*
X006410Y006459D03*
D275*
X028835Y006470D03*
D276*
X026855Y006481D03*
D277*
X028856Y006481D03*
D278*
X028867Y006492D03*
D279*
X028878Y006503D03*
D280*
X028884Y006514D03*
D281*
X028889Y006525D03*
D282*
X028895Y006536D03*
D283*
X026784Y006547D03*
X026784Y006558D03*
X026784Y007104D03*
X026784Y007115D03*
X026784Y007159D03*
X006312Y006973D03*
X006312Y006962D03*
D284*
X028895Y006558D03*
X028895Y006547D03*
D285*
X026779Y006569D03*
X026779Y007094D03*
X026779Y007181D03*
X008964Y006995D03*
X008964Y006973D03*
X006306Y006995D03*
X006306Y007006D03*
D286*
X028900Y006601D03*
X028900Y006590D03*
X028900Y006569D03*
D287*
X026773Y006580D03*
X026773Y007072D03*
X008969Y007028D03*
X007711Y007673D03*
X006301Y007028D03*
D288*
X028900Y006580D03*
D289*
X026768Y006590D03*
X026768Y007061D03*
X026768Y007203D03*
X006295Y007061D03*
X006295Y007050D03*
X006295Y007039D03*
D290*
X006284Y007094D03*
X006284Y007104D03*
X006284Y007115D03*
X026757Y007017D03*
X026757Y007214D03*
X026757Y006623D03*
D291*
X029277Y006623D03*
X029277Y008264D03*
X029277Y008275D03*
X029277Y008668D03*
X029277Y008679D03*
X008805Y006175D03*
X008805Y006164D03*
D292*
X008991Y007126D03*
X006279Y007126D03*
X026751Y007225D03*
X026751Y006634D03*
X028348Y007815D03*
X029463Y007520D03*
D293*
X028118Y006634D03*
X007679Y008111D03*
D294*
X006454Y006240D03*
X029288Y006634D03*
X029288Y008307D03*
D295*
X029299Y008373D03*
X029299Y008384D03*
X029299Y008395D03*
X029299Y008581D03*
X029299Y008592D03*
X029299Y006656D03*
X008827Y006273D03*
D296*
X008838Y006328D03*
X029310Y006689D03*
X029310Y008461D03*
X029310Y008471D03*
X029310Y008482D03*
X029310Y008493D03*
X029310Y008515D03*
X029310Y008526D03*
X029310Y008537D03*
D297*
X028266Y006722D03*
X008286Y007367D03*
D298*
X008296Y007378D03*
X007575Y007126D03*
X007487Y006886D03*
X028277Y006733D03*
D299*
X029327Y006733D03*
D300*
X028282Y006744D03*
X008007Y006656D03*
X008007Y006645D03*
X007471Y006864D03*
X007569Y007170D03*
X007569Y007192D03*
D301*
X007225Y007892D03*
X027850Y006754D03*
D302*
X028288Y006754D03*
X027522Y007312D03*
X027555Y007411D03*
X008307Y007400D03*
X008296Y008023D03*
X007564Y007214D03*
X007564Y007203D03*
X008001Y006667D03*
X008034Y006580D03*
X008045Y006547D03*
X008056Y006514D03*
D303*
X027828Y006765D03*
D304*
X028293Y006765D03*
X008313Y007411D03*
X007558Y007236D03*
D305*
X026729Y007268D03*
X026729Y006831D03*
X026729Y006776D03*
X026729Y007957D03*
X029485Y007564D03*
D306*
X028293Y006776D03*
D307*
X029338Y006776D03*
X008865Y006481D03*
D308*
X026746Y006973D03*
D309*
X026757Y007028D03*
D310*
X029392Y007039D03*
X029392Y007050D03*
X029392Y007061D03*
X029392Y007083D03*
X029392Y007094D03*
X029392Y007104D03*
X029392Y007115D03*
X029392Y007400D03*
X029392Y007411D03*
X029392Y007433D03*
X029392Y007443D03*
X008920Y006765D03*
X008920Y006754D03*
D311*
X029392Y007072D03*
X029392Y007422D03*
D312*
X028315Y007772D03*
X026773Y007192D03*
X026773Y007083D03*
X008969Y007017D03*
X008969Y007006D03*
X006301Y007017D03*
D313*
X026784Y007126D03*
X026784Y007170D03*
D314*
X029398Y007170D03*
X029398Y007126D03*
X029398Y007225D03*
X029398Y007268D03*
X029398Y007323D03*
X029398Y007367D03*
X008925Y006787D03*
D315*
X006317Y006940D03*
X006317Y006951D03*
X026789Y007137D03*
X026789Y007148D03*
D316*
X029398Y007148D03*
X029398Y007137D03*
X029398Y007159D03*
X029398Y007181D03*
X029398Y007192D03*
X029398Y007203D03*
X029398Y007214D03*
X029398Y007236D03*
X029398Y007247D03*
X029398Y007258D03*
X029398Y007279D03*
X029398Y007290D03*
X029398Y007301D03*
X029398Y007312D03*
X029398Y007334D03*
X029398Y007345D03*
X029398Y007356D03*
X029398Y007378D03*
X029398Y007389D03*
X008925Y006798D03*
X008925Y006776D03*
D317*
X027528Y007170D03*
D318*
X027528Y007181D03*
X008302Y008034D03*
D319*
X027522Y007203D03*
X027522Y007192D03*
D320*
X027522Y007214D03*
X027522Y007236D03*
D321*
X027522Y007225D03*
D322*
X027517Y007247D03*
X027517Y007258D03*
X027517Y007279D03*
X027517Y007290D03*
X027517Y007301D03*
X027528Y007334D03*
X027528Y007345D03*
X027539Y007356D03*
X027539Y007378D03*
X028064Y007553D03*
X028643Y007433D03*
X007460Y006853D03*
X007329Y006940D03*
D323*
X007558Y007225D03*
X027517Y007268D03*
X027528Y007323D03*
X027539Y007367D03*
D324*
X026707Y007356D03*
X026707Y007345D03*
X026707Y007695D03*
X026707Y007706D03*
X006235Y007367D03*
X006235Y007356D03*
X006235Y007345D03*
D325*
X027550Y007389D03*
X027550Y007400D03*
D326*
X027555Y007422D03*
X008012Y006634D03*
D327*
X007443Y006831D03*
X028638Y007422D03*
D328*
X027560Y007433D03*
X027560Y007443D03*
X008050Y006525D03*
X008039Y006558D03*
X008039Y006569D03*
X008029Y006601D03*
X008018Y006612D03*
X008018Y006623D03*
X007996Y006678D03*
X007996Y006700D03*
X007985Y006711D03*
X007985Y006722D03*
X007307Y007258D03*
D329*
X007979Y006765D03*
X007979Y006754D03*
X007979Y006744D03*
X027566Y007454D03*
X028649Y007443D03*
D330*
X028654Y007454D03*
X028064Y007575D03*
X008280Y008001D03*
X007493Y006897D03*
D331*
X007711Y007684D03*
X008958Y006962D03*
X008958Y006951D03*
X029431Y007454D03*
D332*
X027577Y007465D03*
D333*
X029436Y007465D03*
X008964Y006984D03*
X006306Y006984D03*
D334*
X007318Y006951D03*
X007482Y006875D03*
X007569Y007137D03*
X007569Y007148D03*
X007974Y006776D03*
X007230Y007881D03*
X027582Y007476D03*
D335*
X029441Y007476D03*
D336*
X027588Y007487D03*
X027588Y007498D03*
X007968Y006809D03*
X007968Y006798D03*
X007575Y007104D03*
X007575Y007115D03*
D337*
X008975Y007050D03*
X008975Y007039D03*
X029447Y007487D03*
D338*
X029452Y007498D03*
X008980Y007072D03*
X008980Y007061D03*
D339*
X007974Y006820D03*
X007580Y007094D03*
X007504Y006908D03*
X027593Y007509D03*
D340*
X027599Y007520D03*
X007968Y006831D03*
X007575Y007083D03*
D341*
X008996Y007148D03*
X008996Y007159D03*
X008996Y007170D03*
X029469Y007531D03*
D342*
X028064Y007542D03*
D343*
X029474Y007542D03*
X009002Y007192D03*
X007711Y007640D03*
D344*
X028064Y007564D03*
D345*
X028643Y007564D03*
X028129Y008307D03*
X028118Y008406D03*
D346*
X029491Y007575D03*
D347*
X029496Y007586D03*
X009024Y007301D03*
X009024Y007290D03*
D348*
X007296Y007126D03*
X028031Y007618D03*
X028621Y007618D03*
X028096Y008504D03*
D349*
X029518Y007640D03*
X009046Y007411D03*
X009046Y007400D03*
D350*
X009051Y007433D03*
X009051Y007443D03*
X007662Y008275D03*
X029524Y007651D03*
D351*
X028605Y007662D03*
X028124Y008012D03*
X027522Y007859D03*
X005978Y008406D03*
D352*
X007706Y008034D03*
X007859Y007400D03*
X028091Y008636D03*
X028124Y007936D03*
X028124Y007925D03*
X028583Y007684D03*
X028714Y008023D03*
X028725Y008045D03*
D353*
X029540Y007695D03*
D354*
X029283Y008286D03*
X029283Y008296D03*
X029283Y008657D03*
X028135Y007706D03*
X008810Y006208D03*
X008810Y006197D03*
D355*
X009073Y007542D03*
X009073Y007553D03*
X009073Y007564D03*
X007739Y007586D03*
X029545Y007706D03*
D356*
X028124Y007750D03*
X029261Y008756D03*
X029261Y008767D03*
X029261Y008778D03*
X029261Y008789D03*
X029261Y008810D03*
X029261Y008821D03*
X029261Y008832D03*
X008789Y006076D03*
D357*
X009095Y007651D03*
X009095Y007662D03*
X007662Y008220D03*
X029567Y007750D03*
D358*
X028124Y007761D03*
X026964Y008111D03*
X026964Y008548D03*
X006492Y006044D03*
D359*
X006251Y007279D03*
X009018Y007279D03*
X026724Y007815D03*
X026724Y007859D03*
X026724Y007914D03*
D360*
X027495Y007947D03*
X028085Y008625D03*
X028720Y008034D03*
X028687Y007968D03*
X028676Y007936D03*
X028632Y007826D03*
X007865Y007389D03*
X007711Y008023D03*
X005994Y008384D03*
D361*
X006027Y008329D03*
X028107Y007837D03*
D362*
X029589Y007837D03*
X029589Y007848D03*
D363*
X028753Y008089D03*
X028107Y007848D03*
X007843Y007433D03*
X006016Y008351D03*
D364*
X028107Y007859D03*
D365*
X028113Y007870D03*
X028113Y007881D03*
D366*
X026981Y007979D03*
X026981Y007990D03*
X026981Y008001D03*
X026981Y008023D03*
X026981Y008581D03*
X006508Y005978D03*
X006508Y005967D03*
X006508Y005956D03*
D367*
X026981Y008012D03*
D368*
X026975Y008034D03*
X026975Y008045D03*
X026975Y008067D03*
X026975Y008078D03*
X026975Y008570D03*
X008767Y005978D03*
X008767Y005967D03*
X006503Y005989D03*
D369*
X006503Y006000D03*
X026975Y008056D03*
D370*
X026970Y008089D03*
X026970Y008100D03*
X026970Y008559D03*
X006498Y006033D03*
X006498Y006022D03*
X006498Y006011D03*
D371*
X006492Y006055D03*
X026964Y008121D03*
X026964Y008132D03*
X026964Y008537D03*
D372*
X028135Y008143D03*
X028135Y008132D03*
X008209Y007892D03*
D373*
X006487Y006076D03*
X006487Y006066D03*
X026959Y008143D03*
X026959Y008526D03*
D374*
X026959Y008154D03*
X006487Y006087D03*
D375*
X009204Y008209D03*
X028824Y008154D03*
D376*
X029622Y008154D03*
X029622Y008209D03*
X029622Y008253D03*
D377*
X026954Y008187D03*
X026954Y008176D03*
X026954Y008165D03*
X026954Y008493D03*
X026954Y008515D03*
X006481Y006109D03*
X006481Y006098D03*
D378*
X006476Y006142D03*
X026948Y008209D03*
X029267Y008745D03*
D379*
X028878Y008209D03*
X028135Y008745D03*
X006087Y008111D03*
D380*
X006470Y006175D03*
X006470Y006164D03*
X006470Y006153D03*
X026943Y008220D03*
X026943Y008231D03*
X026943Y008242D03*
X026943Y008417D03*
X026943Y008428D03*
X026943Y008439D03*
D381*
X026937Y008395D03*
X026937Y008384D03*
X026937Y008373D03*
X026937Y008362D03*
X026937Y008340D03*
X026937Y008329D03*
X026937Y008318D03*
X026937Y008296D03*
X026937Y008286D03*
X026937Y008275D03*
X026937Y008264D03*
X006465Y006197D03*
D382*
X007957Y006886D03*
X028124Y008351D03*
D383*
X029294Y008351D03*
X008821Y006240D03*
D384*
X026943Y008406D03*
X026943Y008450D03*
D385*
X029305Y008406D03*
X029305Y008548D03*
D386*
X028113Y008439D03*
X028113Y008428D03*
X028113Y008417D03*
D387*
X028113Y008461D03*
X007947Y006908D03*
X007290Y007050D03*
X007290Y007061D03*
D388*
X026954Y008504D03*
D389*
X026986Y008592D03*
X006514Y005934D03*
X006514Y005923D03*
D390*
X006514Y005945D03*
X026986Y008603D03*
D391*
X029299Y008603D03*
X008827Y006284D03*
D392*
X006519Y005912D03*
X026992Y008614D03*
X026992Y008625D03*
X026992Y008636D03*
D393*
X026992Y008646D03*
X006519Y005901D03*
D394*
X008810Y006186D03*
X029283Y008646D03*
D395*
X026997Y008657D03*
X026997Y008668D03*
X026997Y008679D03*
X026997Y008690D03*
X008745Y005869D03*
X006525Y005869D03*
X006525Y005880D03*
X006525Y005891D03*
D396*
X007837Y007443D03*
X006022Y008340D03*
X028102Y008679D03*
D397*
X029272Y008690D03*
X029272Y008712D03*
X008800Y006153D03*
X008800Y006131D03*
D398*
X008800Y006142D03*
X029272Y008701D03*
D399*
X027003Y008712D03*
D400*
X028118Y008712D03*
X009221Y008253D03*
X007690Y008089D03*
X008029Y007170D03*
D401*
X027008Y008723D03*
D402*
X027014Y008734D03*
D403*
X027019Y008745D03*
D404*
X027347Y008756D03*
D405*
X027353Y008767D03*
X027353Y008778D03*
D406*
X027358Y008789D03*
D407*
X027358Y008800D03*
D408*
X029261Y008800D03*
X029261Y008843D03*
X008789Y006087D03*
D409*
X027364Y008810D03*
X027364Y008821D03*
D410*
X027369Y008832D03*
D411*
X027375Y008843D03*
D412*
X027380Y008854D03*
D413*
X008750Y005891D03*
X008750Y005880D03*
D414*
X008750Y005901D03*
D415*
X008756Y005912D03*
X008756Y005923D03*
D416*
X008761Y005945D03*
D417*
X008772Y006000D03*
D418*
X008778Y006022D03*
X008778Y006033D03*
D419*
X008783Y006044D03*
D420*
X006459Y006208D03*
X006459Y006219D03*
X006459Y006230D03*
D421*
X006448Y006262D03*
X006448Y006273D03*
D422*
X006448Y006284D03*
D423*
X006437Y006317D03*
X006437Y006328D03*
D424*
X006437Y006339D03*
D425*
X006426Y006383D03*
D426*
X008849Y006383D03*
D427*
X006415Y006437D03*
D428*
X006410Y006481D03*
D429*
X006399Y006536D03*
D430*
X007985Y006733D03*
X007996Y006689D03*
X008029Y006590D03*
X008050Y006536D03*
D431*
X008876Y006536D03*
X007739Y007815D03*
D432*
X006394Y006558D03*
X006394Y006547D03*
D433*
X008898Y006634D03*
D434*
X007974Y006787D03*
X008291Y008012D03*
D435*
X008931Y006820D03*
X008931Y006809D03*
D436*
X008936Y006831D03*
D437*
X007553Y007247D03*
X007454Y006842D03*
D438*
X007312Y006962D03*
X007312Y007247D03*
X007575Y007072D03*
X007968Y006842D03*
D439*
X008936Y006842D03*
X008936Y006853D03*
D440*
X007957Y006875D03*
D441*
X008947Y006897D03*
X008947Y006908D03*
X007711Y007695D03*
D442*
X007351Y006919D03*
D443*
X008953Y006919D03*
X008953Y006940D03*
D444*
X006317Y006929D03*
D445*
X007340Y006929D03*
D446*
X007919Y006929D03*
X007744Y007870D03*
X007722Y007968D03*
X007635Y008461D03*
X007635Y008504D03*
X007635Y008559D03*
X007635Y008603D03*
X009308Y008406D03*
D447*
X008953Y006929D03*
D448*
X007640Y006995D03*
X007739Y007881D03*
X007739Y007892D03*
X007739Y007903D03*
D449*
X007985Y007028D03*
D450*
X007296Y007039D03*
D451*
X006290Y007083D03*
D452*
X008980Y007083D03*
D453*
X008018Y007126D03*
D454*
X007575Y007159D03*
X008296Y007389D03*
D455*
X007569Y007181D03*
D456*
X009002Y007181D03*
D457*
X009007Y007225D03*
D458*
X009029Y007323D03*
D459*
X009046Y007422D03*
D460*
X007766Y007542D03*
X006137Y007848D03*
X006137Y007859D03*
D461*
X006186Y007608D03*
X006186Y007597D03*
X007662Y008231D03*
D462*
X007728Y007772D03*
D463*
X006137Y007870D03*
D464*
X007668Y008165D03*
X009144Y007914D03*
D465*
X007695Y008067D03*
D466*
X006087Y008100D03*
X006087Y008121D03*
D467*
X009193Y008165D03*
D468*
X006038Y008296D03*
D469*
X007640Y008428D03*
D470*
X000947Y000947D03*
X000947Y019058D03*
X034806Y019058D03*
X034806Y000947D03*
D471*
X018877Y014908D03*
X017877Y015908D03*
X018877Y016908D03*
X016877Y016908D03*
X016877Y014908D03*
D472*
X017483Y008369D03*
X017680Y008369D03*
X017877Y008369D03*
X018073Y008369D03*
X018270Y008369D03*
X018270Y006912D03*
X018073Y006912D03*
X017877Y006912D03*
X017680Y006912D03*
X017483Y006912D03*
D473*
X017148Y007247D03*
X017148Y007443D03*
X017148Y007640D03*
X017148Y007837D03*
X017148Y008034D03*
X018605Y008034D03*
X018605Y007837D03*
X018605Y007640D03*
X018605Y007443D03*
X018605Y007247D03*
D474*
X017877Y007640D03*
D475*
X018467Y006105D03*
X019254Y006105D03*
X019254Y005436D03*
X018467Y005436D03*
X015613Y006912D03*
X015613Y007581D03*
X015219Y008093D03*
X015219Y008762D03*
X018762Y009668D03*
X018762Y010337D03*
X017975Y012719D03*
X017975Y013388D03*
D476*
X018625Y012266D03*
X019294Y012266D03*
X019294Y011479D03*
X018625Y011479D03*
X020199Y010790D03*
X020869Y010790D03*
X020573Y008821D03*
X019904Y008821D03*
X016538Y009707D03*
X015869Y009707D03*
X020337Y006459D03*
X021006Y006459D03*
D477*
X026932Y011184D03*
X029294Y011184D03*
D478*
X019550Y010258D03*
X019550Y009747D03*
X017975Y010436D03*
X017975Y010947D03*
X017975Y011617D03*
X017975Y012129D03*
X017188Y010258D03*
X017188Y009747D03*
D479*
X007629Y013666D03*
X007629Y013677D03*
X007629Y013688D03*
X007629Y013699D03*
X007629Y013709D03*
X007629Y013720D03*
X007629Y013731D03*
X007629Y013742D03*
X007629Y013753D03*
X007629Y013764D03*
X007629Y013775D03*
X007629Y013786D03*
X007629Y013797D03*
X007629Y013808D03*
X007629Y013818D03*
X007629Y013829D03*
X007629Y013840D03*
X007629Y013851D03*
X007629Y013862D03*
X007629Y013873D03*
X007629Y013884D03*
X007629Y013895D03*
X007629Y013906D03*
X007629Y013917D03*
X007629Y013928D03*
X007629Y013938D03*
X007629Y013949D03*
X007629Y013960D03*
X007629Y013971D03*
X007629Y013982D03*
X007629Y013993D03*
X007629Y014004D03*
X007629Y014015D03*
X007629Y014026D03*
X007629Y014037D03*
X007629Y014047D03*
X007629Y014058D03*
X007629Y014069D03*
X007629Y016937D03*
X007629Y016948D03*
X007629Y016959D03*
X007629Y016970D03*
X007629Y016981D03*
X007629Y016992D03*
X007629Y017003D03*
X007629Y017014D03*
X007629Y017025D03*
X007629Y017036D03*
X007629Y017046D03*
X007629Y017057D03*
X007629Y017068D03*
X007629Y017079D03*
X007629Y017090D03*
X007629Y017101D03*
X007629Y017112D03*
X007629Y017123D03*
X007629Y017134D03*
X007629Y017145D03*
X007629Y017156D03*
X007629Y017166D03*
X007629Y017177D03*
X007629Y017188D03*
X007629Y017199D03*
X007629Y017210D03*
X007629Y017221D03*
X007629Y017232D03*
X007629Y017243D03*
X007629Y017254D03*
X007629Y017265D03*
X007629Y017276D03*
X007629Y017286D03*
X007629Y017297D03*
X007629Y017308D03*
X007629Y017319D03*
X007629Y017330D03*
X007629Y017341D03*
D480*
X007624Y016283D03*
X006359Y014091D03*
X006359Y014080D03*
X008900Y014080D03*
D481*
X007613Y014080D03*
X009172Y016905D03*
X006086Y016927D03*
D482*
X009178Y016894D03*
X009178Y014953D03*
X007618Y014102D03*
X007618Y014091D03*
D483*
X008894Y014091D03*
X008894Y014102D03*
X006364Y014102D03*
X006364Y014113D03*
X007629Y016414D03*
D484*
X007613Y014124D03*
X007613Y014113D03*
D485*
X008889Y014113D03*
X008889Y014124D03*
D486*
X006370Y014124D03*
X006370Y014135D03*
D487*
X006070Y014964D03*
X007618Y014146D03*
X007618Y014135D03*
X009189Y014974D03*
X009189Y014985D03*
X007956Y015640D03*
X007956Y015651D03*
X009189Y016861D03*
X006070Y016883D03*
D488*
X006375Y014157D03*
X006375Y014146D03*
X008883Y014146D03*
X008883Y014135D03*
D489*
X007613Y014157D03*
X006064Y014974D03*
X007951Y015618D03*
X007951Y015629D03*
X006064Y016872D03*
D490*
X006381Y014178D03*
X006381Y014167D03*
X008878Y014167D03*
X008878Y014157D03*
D491*
X007618Y014167D03*
X009200Y015007D03*
X009200Y015018D03*
X009200Y016828D03*
X009200Y016839D03*
X006059Y016850D03*
X006059Y016861D03*
X006059Y014996D03*
X006059Y014985D03*
D492*
X007613Y014178D03*
X009205Y015029D03*
X007940Y015443D03*
X007940Y015574D03*
X007940Y015585D03*
X009205Y016817D03*
D493*
X008873Y014189D03*
X008873Y014178D03*
X006386Y014189D03*
X006386Y014200D03*
D494*
X007618Y014189D03*
X009211Y015040D03*
X009211Y016796D03*
X009211Y016807D03*
D495*
X009216Y016785D03*
X007624Y016163D03*
X006043Y016807D03*
X006043Y015040D03*
X006043Y015029D03*
X007613Y014200D03*
X009216Y015051D03*
X009216Y015062D03*
D496*
X008867Y014211D03*
X008867Y014200D03*
X006392Y014211D03*
X006392Y014222D03*
X007624Y016229D03*
D497*
X007319Y015531D03*
X007319Y015520D03*
X007918Y015520D03*
X007918Y015476D03*
X007613Y014211D03*
X006032Y015062D03*
X006032Y015073D03*
X006032Y016774D03*
D498*
X006026Y016763D03*
X006026Y016752D03*
X006026Y015094D03*
X006026Y015084D03*
X007618Y014222D03*
X009232Y015105D03*
X009232Y015116D03*
X009232Y016730D03*
X009232Y016741D03*
D499*
X008862Y014233D03*
X008862Y014222D03*
D500*
X006397Y014233D03*
X006397Y014244D03*
X007618Y016218D03*
D501*
X009243Y016698D03*
X009243Y015149D03*
X007618Y014233D03*
D502*
X007618Y014244D03*
X007618Y016087D03*
D503*
X007624Y016196D03*
X007624Y016207D03*
X006402Y014266D03*
X006402Y014255D03*
X008856Y014255D03*
X008856Y014244D03*
D504*
X007618Y014255D03*
X009265Y015225D03*
X009265Y015236D03*
X007618Y016098D03*
X009265Y016610D03*
X009265Y016621D03*
D505*
X007618Y014266D03*
D506*
X008851Y014266D03*
X008851Y014276D03*
X006408Y014276D03*
X006408Y014287D03*
D507*
X007613Y014276D03*
X005966Y015313D03*
X005966Y015323D03*
X006762Y015542D03*
X006773Y015531D03*
X006773Y015520D03*
X006784Y015509D03*
X006784Y015498D03*
X006762Y016294D03*
X006762Y016305D03*
X006773Y016316D03*
X006773Y016327D03*
X006784Y016338D03*
X006784Y016349D03*
X005966Y016512D03*
X005966Y016523D03*
X005966Y016534D03*
X008464Y016338D03*
X008464Y016327D03*
X008475Y016316D03*
X009292Y016479D03*
X009292Y016490D03*
X009292Y016501D03*
X008475Y015531D03*
X008464Y015509D03*
X009292Y015367D03*
X009292Y015356D03*
X009292Y015345D03*
D508*
X008829Y015323D03*
X008796Y015269D03*
X008796Y015258D03*
X008556Y015781D03*
X008556Y015792D03*
X008556Y015803D03*
X008556Y015814D03*
X008556Y015825D03*
X008556Y015836D03*
X008556Y015847D03*
X008556Y015858D03*
X008556Y015869D03*
X008556Y015978D03*
X008556Y015989D03*
X008556Y016000D03*
X008556Y016010D03*
X008556Y016021D03*
X008556Y016032D03*
X008556Y016043D03*
X008556Y016054D03*
X008109Y016109D03*
X008109Y016120D03*
X008109Y015738D03*
X008109Y015727D03*
X008829Y016523D03*
X008796Y016578D03*
X007618Y014287D03*
D509*
X008845Y014287D03*
X008845Y014298D03*
D510*
X006413Y014298D03*
X006413Y014309D03*
X007624Y016185D03*
D511*
X008922Y016283D03*
X008933Y016250D03*
X008933Y016239D03*
X008933Y016229D03*
X008943Y016207D03*
X008943Y016196D03*
X008943Y016185D03*
X008943Y016174D03*
X008965Y016087D03*
X008965Y016076D03*
X008965Y016065D03*
X008965Y016054D03*
X008965Y016043D03*
X008965Y016032D03*
X008965Y016021D03*
X008965Y016010D03*
X008965Y016000D03*
X008965Y015989D03*
X008965Y015858D03*
X008965Y015847D03*
X008965Y015836D03*
X008965Y015825D03*
X008965Y015814D03*
X008965Y015803D03*
X008965Y015792D03*
X008965Y015781D03*
X008965Y015771D03*
X008965Y015760D03*
X008965Y015749D03*
X008943Y015672D03*
X008943Y015661D03*
X008943Y015651D03*
X008943Y015640D03*
X008933Y015607D03*
X008933Y015596D03*
X008922Y015563D03*
X009325Y015563D03*
X009325Y015552D03*
X009325Y015574D03*
X009325Y015585D03*
X009325Y015596D03*
X009325Y016250D03*
X009325Y016261D03*
X009325Y016272D03*
X009325Y016283D03*
X009325Y016294D03*
X007613Y014298D03*
X006326Y015552D03*
X006315Y015585D03*
X006315Y015596D03*
X006304Y015618D03*
X006304Y015629D03*
X006304Y015640D03*
X006304Y015651D03*
X006293Y015672D03*
X006293Y015683D03*
X006293Y015694D03*
X006293Y015705D03*
X006293Y015716D03*
X006283Y015727D03*
X006283Y015738D03*
X006283Y015749D03*
X006283Y015760D03*
X006283Y015771D03*
X006283Y015781D03*
X006283Y015792D03*
X006283Y015803D03*
X006272Y015825D03*
X006272Y015836D03*
X006272Y015847D03*
X006272Y015858D03*
X006272Y015869D03*
X006272Y015880D03*
X006272Y015891D03*
X006272Y015901D03*
X006272Y015912D03*
X006272Y015923D03*
X006272Y015934D03*
X006272Y015945D03*
X006272Y015956D03*
X006272Y015967D03*
X006272Y015978D03*
X006272Y015989D03*
X006272Y016000D03*
X006272Y016010D03*
X006272Y016021D03*
X006283Y016043D03*
X006283Y016054D03*
X006283Y016065D03*
X006283Y016076D03*
X006283Y016087D03*
X006283Y016098D03*
X006283Y016109D03*
X006283Y016120D03*
X006293Y016130D03*
X006293Y016141D03*
X006293Y016152D03*
X006293Y016163D03*
X006293Y016174D03*
X006304Y016196D03*
X006304Y016207D03*
X006304Y016218D03*
X006315Y016250D03*
X006315Y016261D03*
X006326Y016294D03*
D512*
X005906Y016032D03*
X005906Y016021D03*
X005906Y016010D03*
X005906Y016000D03*
X005906Y015989D03*
X005906Y015978D03*
X005906Y015967D03*
X005906Y015956D03*
X005906Y015945D03*
X005906Y015934D03*
X005906Y015923D03*
X005906Y015912D03*
X005906Y015901D03*
X005906Y015891D03*
X005906Y015880D03*
X005906Y015869D03*
X005906Y015858D03*
X005906Y015847D03*
X005906Y015836D03*
X005906Y015825D03*
X005906Y015814D03*
X007618Y014309D03*
D513*
X008840Y014309D03*
X008840Y014320D03*
X006419Y014320D03*
X006419Y014331D03*
D514*
X007613Y014320D03*
X007439Y015836D03*
D515*
X006424Y014353D03*
X006424Y014342D03*
X008834Y014342D03*
X008834Y014331D03*
D516*
X008829Y014353D03*
X008829Y014364D03*
D517*
X006430Y014364D03*
X006430Y014375D03*
D518*
X006435Y014386D03*
X006435Y014396D03*
X008823Y014386D03*
X008823Y014375D03*
D519*
X008818Y014396D03*
X008818Y014407D03*
X006441Y014407D03*
X006441Y014418D03*
D520*
X008813Y014418D03*
X008813Y014429D03*
D521*
X006446Y014429D03*
X006446Y014440D03*
D522*
X006452Y014451D03*
X006452Y014462D03*
X008807Y014451D03*
X008807Y014440D03*
D523*
X008802Y014462D03*
X008802Y014473D03*
D524*
X006457Y014473D03*
X006457Y014484D03*
X006457Y014495D03*
D525*
X006462Y014506D03*
X006462Y014516D03*
X008796Y014495D03*
X008796Y014484D03*
D526*
X008791Y014506D03*
X008791Y014516D03*
X006468Y014527D03*
X006468Y014538D03*
D527*
X008785Y014538D03*
X008785Y014527D03*
D528*
X006473Y014549D03*
X006473Y014560D03*
D529*
X006479Y014571D03*
X006479Y014582D03*
X008780Y014560D03*
X008780Y014549D03*
D530*
X008774Y014571D03*
D531*
X008769Y014582D03*
X008769Y014593D03*
X006490Y014615D03*
X006490Y014625D03*
D532*
X006484Y014604D03*
X006484Y014593D03*
D533*
X006495Y014636D03*
X006495Y014647D03*
X008764Y014615D03*
X008764Y014604D03*
D534*
X008758Y014625D03*
X008758Y014636D03*
D535*
X008753Y014647D03*
X008753Y014658D03*
X006506Y014680D03*
X006506Y014691D03*
D536*
X006501Y014669D03*
X006501Y014658D03*
D537*
X006512Y014702D03*
X006512Y014713D03*
X008747Y014680D03*
X008747Y014669D03*
D538*
X008742Y014691D03*
X008742Y014702D03*
D539*
X008736Y014713D03*
X008736Y014724D03*
X006522Y014745D03*
X006522Y014756D03*
D540*
X006517Y014735D03*
X006517Y014724D03*
D541*
X006528Y014767D03*
X006528Y014778D03*
X008731Y014745D03*
X008731Y014735D03*
D542*
X008725Y014756D03*
X008725Y014767D03*
D543*
X008720Y014778D03*
X008720Y014789D03*
D544*
X006533Y014789D03*
X006533Y014800D03*
D545*
X006544Y014833D03*
X006544Y014844D03*
X008714Y014811D03*
X008714Y014800D03*
D546*
X006539Y014811D03*
X006539Y014822D03*
D547*
X008709Y014822D03*
X008709Y014833D03*
D548*
X008704Y014844D03*
X008704Y014854D03*
D549*
X006550Y014854D03*
X006550Y014865D03*
D550*
X006561Y014898D03*
X006561Y014909D03*
X008698Y014876D03*
X008698Y014865D03*
D551*
X006555Y014876D03*
X006555Y014887D03*
D552*
X006566Y014920D03*
X006566Y014931D03*
X008693Y014898D03*
X008693Y014887D03*
X007820Y016425D03*
D553*
X008687Y014920D03*
X008687Y014909D03*
D554*
X008682Y014931D03*
X008682Y014942D03*
D555*
X007962Y015661D03*
X006075Y014953D03*
X006075Y014942D03*
X006075Y016894D03*
D556*
X006871Y014942D03*
X008365Y014964D03*
D557*
X008327Y015018D03*
X006910Y015029D03*
X006877Y014953D03*
D558*
X008376Y014953D03*
D559*
X008349Y014985D03*
X006888Y014964D03*
D560*
X009183Y014964D03*
X009183Y016872D03*
X009183Y016883D03*
D561*
X008327Y015007D03*
X006899Y014974D03*
D562*
X008355Y014974D03*
D563*
X006904Y014985D03*
D564*
X006915Y014996D03*
X006915Y015007D03*
D565*
X006915Y015018D03*
X008333Y014996D03*
D566*
X009194Y014996D03*
X009194Y016850D03*
D567*
X007297Y015596D03*
X007297Y015585D03*
X006054Y015007D03*
X006054Y016839D03*
D568*
X006048Y016828D03*
X006048Y016817D03*
X007302Y015574D03*
X007302Y015432D03*
X007935Y015563D03*
X006048Y015018D03*
D569*
X008333Y015029D03*
D570*
X006910Y015040D03*
X006910Y015051D03*
D571*
X008327Y015040D03*
D572*
X007924Y015465D03*
X007924Y015531D03*
X009222Y015084D03*
X009222Y015073D03*
X009222Y016763D03*
X009222Y016774D03*
X006037Y016785D03*
X006037Y016796D03*
X006037Y015051D03*
D573*
X008333Y015051D03*
D574*
X006910Y015062D03*
D575*
X006904Y015073D03*
X008333Y015062D03*
D576*
X008338Y015073D03*
D577*
X008333Y015084D03*
X006904Y015084D03*
X006904Y015094D03*
D578*
X008338Y015094D03*
D579*
X009227Y015094D03*
X009227Y016752D03*
D580*
X009238Y016719D03*
X009238Y016708D03*
X007907Y015487D03*
X009238Y015138D03*
X009238Y015127D03*
X006021Y015105D03*
X006021Y016741D03*
D581*
X006904Y015105D03*
D582*
X006899Y015116D03*
X008338Y015116D03*
X008338Y015105D03*
D583*
X007335Y015487D03*
X006015Y015127D03*
X006015Y015116D03*
X006015Y016719D03*
X006015Y016730D03*
D584*
X006904Y015127D03*
D585*
X008338Y015127D03*
D586*
X009249Y015160D03*
X009249Y015171D03*
X007624Y016076D03*
X009249Y016676D03*
X009249Y016687D03*
X006010Y016698D03*
X006010Y016708D03*
X006010Y015149D03*
X006010Y015138D03*
D587*
X006899Y015138D03*
D588*
X008344Y015138D03*
D589*
X006899Y015149D03*
X006899Y015160D03*
D590*
X008338Y015149D03*
D591*
X009254Y015182D03*
X009254Y015193D03*
X007629Y016130D03*
X009254Y016654D03*
X009254Y016665D03*
X006004Y016676D03*
X006004Y016687D03*
X006004Y015160D03*
D592*
X008344Y015160D03*
D593*
X005999Y015171D03*
X005999Y015182D03*
X005999Y016654D03*
X005999Y016665D03*
D594*
X005961Y016501D03*
X005961Y016490D03*
X006506Y016676D03*
X006517Y016687D03*
X006757Y016283D03*
X006746Y016272D03*
X006746Y016261D03*
X006746Y016250D03*
X006735Y016239D03*
X006735Y016229D03*
X007160Y016163D03*
X007171Y016174D03*
X007160Y015683D03*
X007171Y015672D03*
X006757Y015563D03*
X006757Y015552D03*
X006746Y015574D03*
X006746Y015585D03*
X006735Y015607D03*
X006735Y015618D03*
X006506Y015171D03*
X005961Y015334D03*
X005961Y015345D03*
X005961Y015356D03*
X008469Y015520D03*
X008480Y015542D03*
X008502Y015585D03*
X008502Y015596D03*
X008513Y015618D03*
X008753Y015193D03*
X009298Y015378D03*
X009298Y015389D03*
X009298Y015400D03*
X008513Y016218D03*
X008513Y016229D03*
X008502Y016250D03*
X008502Y016261D03*
X008480Y016305D03*
X009298Y016447D03*
X009298Y016458D03*
X009298Y016469D03*
D595*
X008115Y015258D03*
X008147Y015203D03*
X007122Y015269D03*
X007079Y015171D03*
D596*
X008338Y015171D03*
D597*
X008758Y015203D03*
X008507Y015607D03*
X008518Y015629D03*
X008518Y015640D03*
X008518Y015651D03*
X008540Y015705D03*
X008540Y015716D03*
X008540Y015727D03*
X008551Y015771D03*
X008551Y016065D03*
X008551Y016076D03*
X008540Y016120D03*
X008540Y016130D03*
X008540Y016141D03*
X008518Y016196D03*
X008518Y016207D03*
X008507Y016239D03*
X008093Y016152D03*
X008093Y016141D03*
X008104Y015716D03*
X008093Y015705D03*
X008093Y015694D03*
X007144Y015705D03*
X007144Y015716D03*
X006730Y015640D03*
X006730Y015629D03*
X006719Y015651D03*
X006719Y015661D03*
X006719Y015672D03*
X006686Y015825D03*
X006686Y016021D03*
X006719Y016174D03*
X006719Y016185D03*
X006719Y016196D03*
X006730Y016207D03*
X006730Y016218D03*
X007144Y016130D03*
X006446Y016578D03*
X006468Y016610D03*
X006468Y016621D03*
X006479Y016632D03*
X006490Y016643D03*
X006501Y016665D03*
X005955Y016479D03*
X005955Y016469D03*
X005955Y016458D03*
X005955Y015389D03*
X005955Y015378D03*
X005955Y015367D03*
X006468Y015225D03*
X006479Y015214D03*
X006490Y015193D03*
X006501Y015182D03*
X008791Y016588D03*
X008758Y016643D03*
X008736Y016676D03*
D598*
X008109Y015247D03*
X008131Y015214D03*
X007084Y015182D03*
D599*
X008164Y015182D03*
D600*
X008491Y015563D03*
X008491Y015574D03*
X008076Y015672D03*
X008491Y016272D03*
X008491Y016283D03*
X008742Y016665D03*
X008742Y015182D03*
X006484Y015203D03*
D601*
X005994Y015203D03*
X005994Y015193D03*
X005994Y016643D03*
D602*
X007128Y015258D03*
X007095Y015193D03*
D603*
X008153Y015193D03*
D604*
X007106Y015203D03*
D605*
X009260Y015203D03*
X009260Y015214D03*
X009260Y016632D03*
X009260Y016643D03*
D606*
X009271Y016599D03*
X009271Y016588D03*
X009271Y015258D03*
X009271Y015247D03*
X005988Y015225D03*
X005988Y015214D03*
X005988Y016610D03*
X005988Y016621D03*
X005988Y016632D03*
D607*
X007117Y015214D03*
X008109Y015236D03*
D608*
X008529Y015661D03*
X008529Y015672D03*
X008529Y015683D03*
X008529Y016163D03*
X008529Y016174D03*
X008529Y016185D03*
X008769Y016621D03*
X008769Y016632D03*
X009303Y016436D03*
X009303Y016425D03*
X009303Y016414D03*
X009303Y015432D03*
X009303Y015422D03*
X009303Y015411D03*
X008769Y015225D03*
X008769Y015214D03*
X006741Y015596D03*
X006708Y015694D03*
X006708Y015705D03*
X006708Y016130D03*
X006708Y016141D03*
X006708Y016152D03*
D609*
X007122Y015225D03*
D610*
X007122Y015247D03*
X008126Y015225D03*
D611*
X009276Y015269D03*
X009276Y015280D03*
X009276Y016556D03*
X009276Y016567D03*
X009276Y016578D03*
X006833Y016425D03*
X005983Y016588D03*
X005983Y016599D03*
X005983Y015247D03*
X005983Y015236D03*
D612*
X005950Y015400D03*
X005950Y015411D03*
X006430Y015302D03*
X006430Y015291D03*
X006462Y015236D03*
X007128Y015738D03*
X007128Y015749D03*
X007128Y016098D03*
X006430Y016545D03*
X006430Y016556D03*
X005950Y016447D03*
X005950Y016436D03*
X005950Y016425D03*
X008785Y016599D03*
X008818Y016545D03*
X008818Y015302D03*
X008785Y015247D03*
D613*
X007128Y015236D03*
D614*
X006457Y015247D03*
X006697Y015749D03*
X006697Y015760D03*
X006697Y016087D03*
X006697Y016098D03*
X007155Y016152D03*
X007155Y015694D03*
X008082Y015683D03*
X008082Y016163D03*
X008747Y016654D03*
X008780Y016610D03*
X008780Y015236D03*
X006457Y016599D03*
D615*
X006806Y016381D03*
X006828Y016414D03*
X005977Y016567D03*
X005977Y016578D03*
X005977Y015280D03*
X005977Y015269D03*
X005977Y015258D03*
X006828Y015432D03*
X008420Y015432D03*
X009282Y015313D03*
X009282Y015302D03*
X009282Y015291D03*
X009282Y016534D03*
X009282Y016545D03*
X008431Y016392D03*
X008420Y016414D03*
D616*
X008534Y016152D03*
X008545Y016109D03*
X008545Y016098D03*
X008545Y016087D03*
X008567Y015967D03*
X008567Y015956D03*
X008567Y015945D03*
X008567Y015934D03*
X008567Y015923D03*
X008567Y015912D03*
X008567Y015901D03*
X008567Y015891D03*
X008567Y015880D03*
X008545Y015760D03*
X008545Y015749D03*
X008545Y015738D03*
X008534Y015694D03*
X008120Y015760D03*
X008120Y016087D03*
X008098Y016130D03*
X008807Y016556D03*
X008807Y016567D03*
X008840Y016501D03*
X009309Y016403D03*
X009309Y016392D03*
X009309Y016381D03*
X009309Y015465D03*
X009309Y015454D03*
X009309Y015443D03*
X008840Y015345D03*
X008807Y015291D03*
X008807Y015280D03*
X007139Y015727D03*
X006713Y015683D03*
X006702Y015716D03*
X006702Y015727D03*
X006702Y015738D03*
X006691Y015771D03*
X006691Y015781D03*
X006691Y015792D03*
X006691Y015803D03*
X006691Y015814D03*
X006681Y015836D03*
X006681Y015847D03*
X006681Y015858D03*
X006681Y015869D03*
X006681Y015880D03*
X006681Y015891D03*
X006681Y015901D03*
X006681Y015912D03*
X006681Y015923D03*
X006681Y015934D03*
X006681Y015945D03*
X006681Y015956D03*
X006681Y015967D03*
X006681Y015978D03*
X006681Y015989D03*
X006681Y016000D03*
X006681Y016010D03*
X006691Y016032D03*
X006691Y016043D03*
X006691Y016054D03*
X006691Y016065D03*
X006691Y016076D03*
X006702Y016109D03*
X006702Y016120D03*
X006713Y016163D03*
X007139Y016120D03*
X007149Y016141D03*
X006419Y016523D03*
X006419Y016534D03*
X006441Y016567D03*
X006452Y016588D03*
X006408Y015334D03*
X006419Y015313D03*
X006441Y015280D03*
X006441Y015269D03*
X006452Y015258D03*
D617*
X007122Y015280D03*
X008115Y015280D03*
X008115Y015269D03*
D618*
X008447Y015476D03*
X008447Y016370D03*
X005972Y016545D03*
X005972Y016556D03*
X005972Y015302D03*
X005972Y015291D03*
D619*
X007117Y015291D03*
D620*
X007122Y015302D03*
X008115Y015291D03*
D621*
X008120Y015302D03*
D622*
X007117Y015313D03*
D623*
X007117Y015323D03*
X007117Y015334D03*
X008120Y015323D03*
X008120Y015313D03*
D624*
X008115Y015749D03*
X008126Y015771D03*
X008126Y015781D03*
X008147Y015891D03*
X008147Y015956D03*
X008126Y016065D03*
X008126Y016076D03*
X008115Y016098D03*
X008845Y016479D03*
X008845Y016490D03*
X008834Y016512D03*
X008824Y016534D03*
X008867Y016447D03*
X008867Y016436D03*
X008878Y016414D03*
X009314Y016370D03*
X009314Y016359D03*
X009314Y016349D03*
X009314Y015498D03*
X009314Y015487D03*
X009314Y015476D03*
X008878Y015432D03*
X008867Y015411D03*
X008867Y015400D03*
X008845Y015367D03*
X008845Y015356D03*
X008834Y015334D03*
X008824Y015313D03*
X007122Y015760D03*
X007122Y015771D03*
X007100Y015847D03*
X007100Y015858D03*
X007100Y015989D03*
X007122Y016065D03*
X007122Y016076D03*
X007122Y016087D03*
X006392Y016469D03*
X006392Y016479D03*
X006370Y016425D03*
X005944Y016414D03*
X005944Y016403D03*
X005944Y016392D03*
X005944Y015454D03*
X005944Y015443D03*
X005944Y015432D03*
X005944Y015422D03*
X006370Y015422D03*
X006392Y015378D03*
X006392Y015367D03*
D625*
X006381Y015389D03*
X006381Y015400D03*
X006413Y015323D03*
X007133Y016109D03*
X006381Y016447D03*
X006381Y016458D03*
X006413Y016512D03*
X008856Y016469D03*
X008856Y016458D03*
X008889Y016381D03*
X008856Y015389D03*
X008856Y015378D03*
D626*
X008458Y015498D03*
X008425Y015443D03*
X009287Y015334D03*
X009287Y015323D03*
X009287Y016512D03*
X009287Y016523D03*
X008458Y016349D03*
X008425Y016403D03*
X006801Y016370D03*
X006790Y016359D03*
X006790Y015487D03*
X006801Y015476D03*
X006801Y015465D03*
D627*
X007117Y015356D03*
X007117Y015345D03*
X008120Y015345D03*
X008120Y015334D03*
D628*
X008136Y015803D03*
X008136Y015814D03*
X008136Y016021D03*
X008136Y016032D03*
X008136Y016043D03*
X007111Y016043D03*
X007111Y016054D03*
X007111Y015803D03*
X007111Y015792D03*
X007111Y015781D03*
X006359Y015454D03*
X006402Y015356D03*
X006402Y015345D03*
X006359Y016392D03*
X006402Y016490D03*
X006402Y016501D03*
D629*
X007804Y016174D03*
X008120Y015356D03*
D630*
X007117Y015367D03*
D631*
X007111Y015378D03*
X007111Y015389D03*
X008126Y015378D03*
X008126Y015367D03*
D632*
X008131Y015389D03*
X008131Y015400D03*
D633*
X007106Y015400D03*
X007106Y015411D03*
D634*
X006375Y015411D03*
X006364Y015432D03*
X006364Y015443D03*
X006353Y015465D03*
X006353Y015476D03*
X006342Y015487D03*
X006342Y015498D03*
X006342Y015509D03*
X006332Y015520D03*
X006332Y015531D03*
X006332Y015542D03*
X006321Y015563D03*
X006321Y015574D03*
X005939Y015487D03*
X005939Y015476D03*
X005939Y015465D03*
X006321Y016272D03*
X006321Y016283D03*
X006332Y016305D03*
X006332Y016316D03*
X006332Y016327D03*
X006342Y016338D03*
X006342Y016349D03*
X006342Y016359D03*
X006353Y016370D03*
X006353Y016381D03*
X006364Y016403D03*
X006364Y016414D03*
X006375Y016436D03*
X005939Y016381D03*
X005939Y016370D03*
X005939Y016359D03*
X008142Y016010D03*
X008142Y016000D03*
X008142Y015989D03*
X008142Y015978D03*
X008142Y015967D03*
X008153Y015945D03*
X008153Y015934D03*
X008153Y015923D03*
X008153Y015912D03*
X008153Y015901D03*
X008142Y015880D03*
X008142Y015869D03*
X008142Y015858D03*
X008142Y015847D03*
X008142Y015836D03*
X008142Y015825D03*
X008938Y015629D03*
X008938Y015618D03*
X008927Y015585D03*
X008927Y015574D03*
X008916Y015552D03*
X008916Y015542D03*
X008916Y015531D03*
X008905Y015520D03*
X008905Y015509D03*
X008905Y015498D03*
X008883Y015454D03*
X008883Y015443D03*
X008873Y015422D03*
X008949Y016163D03*
X008938Y016218D03*
X008927Y016261D03*
X008927Y016272D03*
X008916Y016294D03*
X008916Y016305D03*
X008916Y016316D03*
X008905Y016327D03*
X008905Y016338D03*
X008905Y016349D03*
X008883Y016392D03*
X008883Y016403D03*
X008873Y016425D03*
D635*
X008136Y015422D03*
X008136Y015411D03*
X007100Y015422D03*
D636*
X007291Y015607D03*
X007291Y015618D03*
X007946Y015607D03*
X007946Y015596D03*
X007946Y015432D03*
D637*
X006817Y015443D03*
X006817Y016403D03*
D638*
X007308Y015563D03*
X007308Y015552D03*
X007308Y015443D03*
X007929Y015454D03*
X007929Y015542D03*
X007929Y015552D03*
D639*
X008436Y015465D03*
X008436Y015454D03*
X008436Y016381D03*
X006811Y016392D03*
X006811Y015454D03*
D640*
X007313Y015454D03*
X007313Y015542D03*
D641*
X007324Y015509D03*
X007324Y015465D03*
X007913Y015498D03*
X007913Y015509D03*
D642*
X008894Y015487D03*
X008894Y015476D03*
X008894Y015465D03*
X008894Y016359D03*
X008894Y016370D03*
X007095Y015978D03*
X007095Y015967D03*
X007095Y015956D03*
X007095Y015945D03*
X007095Y015934D03*
X007095Y015923D03*
X007095Y015912D03*
X007095Y015901D03*
X007095Y015891D03*
X007095Y015880D03*
X007095Y015869D03*
X006299Y015661D03*
X006299Y016185D03*
D643*
X007329Y015498D03*
X007329Y015476D03*
D644*
X008453Y015487D03*
X008485Y015552D03*
X008485Y016294D03*
X008453Y016359D03*
D645*
X005934Y016349D03*
X005934Y016338D03*
X005934Y016327D03*
X005934Y016316D03*
X005934Y015531D03*
X005934Y015520D03*
X005934Y015509D03*
X005934Y015498D03*
D646*
X006310Y015607D03*
X007106Y015814D03*
X007106Y015825D03*
X007106Y015836D03*
X007106Y016000D03*
X007106Y016010D03*
X007106Y016021D03*
X007106Y016032D03*
X006310Y016229D03*
X006310Y016239D03*
X008131Y016054D03*
X008131Y015792D03*
X009320Y015542D03*
X009320Y015531D03*
X009320Y015520D03*
X009320Y015509D03*
X009320Y016305D03*
X009320Y016316D03*
X009320Y016327D03*
X009320Y016338D03*
D647*
X005928Y016305D03*
X005928Y016294D03*
X005928Y016283D03*
X005928Y016272D03*
X005928Y015574D03*
X005928Y015563D03*
X005928Y015552D03*
X005928Y015542D03*
D648*
X005923Y015585D03*
X005923Y015596D03*
X005923Y015607D03*
X005923Y015618D03*
X005923Y015629D03*
X005923Y016218D03*
X005923Y016229D03*
X005923Y016239D03*
X005923Y016250D03*
X005923Y016261D03*
D649*
X006277Y016032D03*
X006277Y015814D03*
X008971Y015869D03*
X008971Y015880D03*
X008971Y015891D03*
X008971Y015901D03*
X008971Y015912D03*
X008971Y015923D03*
X008971Y015934D03*
X008971Y015945D03*
X008971Y015956D03*
X008971Y015967D03*
X008971Y015978D03*
X008960Y016098D03*
X009331Y016196D03*
X009331Y016207D03*
X009331Y016218D03*
X009331Y016229D03*
X009331Y016239D03*
X009331Y015651D03*
X009331Y015640D03*
X009331Y015629D03*
X009331Y015618D03*
X009331Y015607D03*
D650*
X007286Y015629D03*
X007286Y015640D03*
D651*
X005917Y015640D03*
X005917Y015651D03*
X005917Y015661D03*
X005917Y015672D03*
X005917Y015683D03*
X005917Y015694D03*
X005917Y016152D03*
X005917Y016163D03*
X005917Y016174D03*
X005917Y016185D03*
X005917Y016196D03*
X005917Y016207D03*
X009341Y016109D03*
X009341Y016098D03*
X009341Y016087D03*
X009341Y016076D03*
X009341Y016065D03*
X009341Y016054D03*
X009341Y016043D03*
X009341Y016032D03*
X009341Y016021D03*
X009341Y016010D03*
X009341Y016000D03*
X009341Y015989D03*
X009341Y015978D03*
X009341Y015967D03*
X009341Y015956D03*
X009341Y015945D03*
X009341Y015934D03*
X009341Y015923D03*
X009341Y015912D03*
X009341Y015901D03*
X009341Y015891D03*
X009341Y015880D03*
X009341Y015869D03*
X009341Y015858D03*
X009341Y015847D03*
X009341Y015836D03*
X009341Y015825D03*
X009341Y015814D03*
X009341Y015803D03*
X009341Y015792D03*
X009341Y015781D03*
X009341Y015771D03*
X009341Y015760D03*
X009341Y015749D03*
X009341Y015738D03*
D652*
X007280Y015661D03*
X007280Y015651D03*
D653*
X009336Y015661D03*
X009336Y015672D03*
X009336Y015683D03*
X009336Y015694D03*
X009336Y015705D03*
X009336Y015716D03*
X009336Y015727D03*
X009336Y016120D03*
X009336Y016130D03*
X009336Y016141D03*
X009336Y016152D03*
X009336Y016163D03*
X009336Y016174D03*
X009336Y016185D03*
D654*
X007777Y015683D03*
X007460Y015672D03*
X007482Y016054D03*
D655*
X007782Y015672D03*
D656*
X007471Y015683D03*
X007471Y015792D03*
X007777Y016043D03*
D657*
X008954Y016109D03*
X008954Y016120D03*
X008954Y016130D03*
X008954Y016141D03*
X008954Y016152D03*
X008954Y015738D03*
X008954Y015727D03*
X008954Y015716D03*
X008954Y015705D03*
X008954Y015694D03*
X008954Y015683D03*
D658*
X007760Y015705D03*
X007760Y015771D03*
X007477Y015781D03*
X007466Y015803D03*
X007455Y015814D03*
X007477Y015694D03*
X007455Y016032D03*
X007466Y016043D03*
D659*
X007771Y015694D03*
D660*
X005912Y015705D03*
X005912Y015716D03*
X005912Y015727D03*
X005912Y015738D03*
X005912Y015749D03*
X005912Y015760D03*
X005912Y015771D03*
X005912Y015781D03*
X005912Y015792D03*
X005912Y015803D03*
X005912Y016043D03*
X005912Y016054D03*
X005912Y016065D03*
X005912Y016076D03*
X005912Y016087D03*
X005912Y016098D03*
X005912Y016109D03*
X005912Y016120D03*
X005912Y016130D03*
X005912Y016141D03*
D661*
X007449Y016021D03*
X007482Y015771D03*
X007482Y015760D03*
X007482Y015705D03*
X007755Y015716D03*
X007755Y015749D03*
X007755Y015760D03*
X007787Y015814D03*
X007787Y016032D03*
D662*
X007820Y015978D03*
X007820Y015967D03*
X007820Y015956D03*
X007831Y015934D03*
X007831Y015923D03*
X007831Y015912D03*
X007820Y015880D03*
X007820Y015869D03*
X007493Y015738D03*
X007493Y015716D03*
X007428Y015858D03*
X007428Y015869D03*
X007417Y015880D03*
X007417Y015891D03*
X007417Y015901D03*
X007417Y015912D03*
X007417Y015923D03*
X007417Y015934D03*
X007417Y015945D03*
X007417Y015956D03*
X007428Y015978D03*
X007428Y015989D03*
D663*
X007498Y015727D03*
D664*
X007444Y015825D03*
X007444Y016010D03*
X007804Y016010D03*
X007804Y015836D03*
X007749Y015738D03*
X007749Y015727D03*
D665*
X007488Y015749D03*
D666*
X007766Y015781D03*
X007766Y015792D03*
D667*
X007782Y015803D03*
D668*
X007798Y015825D03*
X007798Y016021D03*
D669*
X007815Y015989D03*
X007815Y015858D03*
X007433Y015847D03*
X007433Y016000D03*
D670*
X007809Y016000D03*
X007809Y015847D03*
D671*
X007826Y015891D03*
X007826Y015901D03*
X007826Y015945D03*
D672*
X007422Y015967D03*
D673*
X007760Y016054D03*
D674*
X007624Y016065D03*
D675*
X007624Y016109D03*
X007624Y016120D03*
D676*
X007629Y016141D03*
D677*
X007624Y016152D03*
D678*
X007618Y016239D03*
D679*
X007624Y016250D03*
D680*
X007624Y016261D03*
D681*
X007618Y016272D03*
D682*
X007618Y016294D03*
D683*
X007624Y016305D03*
D684*
X007624Y016316D03*
X007624Y016392D03*
D685*
X007624Y016327D03*
D686*
X007618Y016338D03*
D687*
X007624Y016349D03*
D688*
X007624Y016359D03*
D689*
X007629Y016370D03*
D690*
X007629Y016381D03*
D691*
X007629Y016403D03*
D692*
X007624Y016436D03*
D693*
X007618Y016447D03*
D694*
X007624Y016458D03*
D695*
X007624Y016469D03*
X007624Y016479D03*
D696*
X007624Y016490D03*
D697*
X007618Y016501D03*
D698*
X007624Y016512D03*
D699*
X007624Y016523D03*
D700*
X007618Y016534D03*
D701*
X007624Y016545D03*
D702*
X007624Y016556D03*
D703*
X007618Y016567D03*
X007629Y016665D03*
D704*
X007624Y016578D03*
D705*
X007624Y016588D03*
D706*
X007624Y016599D03*
D707*
X007618Y016610D03*
D708*
X007618Y016621D03*
D709*
X007635Y016632D03*
D710*
X007629Y016643D03*
D711*
X006495Y016654D03*
D712*
X007629Y016654D03*
D713*
X007629Y016676D03*
D714*
X007804Y016687D03*
D715*
X007624Y016698D03*
D716*
X007618Y016708D03*
D717*
X007624Y016719D03*
D718*
X007618Y016730D03*
D719*
X007618Y016741D03*
D720*
X007624Y016752D03*
D721*
X007624Y016763D03*
D722*
X007618Y016774D03*
D723*
X007624Y016785D03*
D724*
X007624Y016796D03*
X007635Y016905D03*
D725*
X007618Y016807D03*
D726*
X007618Y016817D03*
D727*
X007624Y016828D03*
D728*
X007624Y016839D03*
D729*
X007624Y016850D03*
X007635Y016872D03*
D730*
X007618Y016861D03*
D731*
X007629Y016883D03*
D732*
X007629Y016894D03*
D733*
X006081Y016905D03*
X006081Y016916D03*
D734*
X007635Y016916D03*
D735*
X009167Y016916D03*
D736*
X007935Y016927D03*
D737*
X019609Y008073D03*
X020239Y008073D03*
X020239Y007207D03*
X019609Y007207D03*
D738*
X008821Y010888D03*
X008821Y011479D03*
X006459Y011479D03*
X006459Y010888D03*
D739*
X000420Y012758D02*
X000420Y000420D01*
X021420Y000420D01*
X021420Y004602D01*
X021109Y004291D01*
X019113Y004291D01*
X019042Y004219D01*
X018924Y004171D01*
X018797Y004171D01*
X018680Y004219D01*
X018603Y004296D01*
X018189Y004296D01*
X017402Y005083D01*
X017288Y005197D01*
X017288Y005792D01*
X016300Y004804D01*
X016300Y004748D01*
X016376Y004672D01*
X016425Y004554D01*
X016425Y004427D01*
X016376Y004309D01*
X016286Y004219D01*
X016169Y004171D01*
X016041Y004171D01*
X015924Y004219D01*
X015834Y004309D01*
X015785Y004427D01*
X015785Y004554D01*
X015792Y004572D01*
X015775Y004564D01*
X015648Y004564D01*
X015530Y004613D01*
X015440Y004703D01*
X015391Y004821D01*
X015391Y004948D01*
X015440Y005066D01*
X015530Y005156D01*
X015648Y005204D01*
X015755Y005204D01*
X016493Y005942D01*
X016435Y005942D01*
X016317Y005991D01*
X016227Y006081D01*
X016179Y006199D01*
X016179Y006326D01*
X016227Y006444D01*
X016304Y006520D01*
X016304Y007032D01*
X016418Y007146D01*
X016713Y007442D01*
X016781Y007442D01*
X016781Y007443D01*
X017148Y007443D01*
X017148Y007443D01*
X016781Y007443D01*
X016781Y007445D01*
X015969Y007445D01*
X015969Y007326D01*
X015889Y007247D01*
X015969Y007167D01*
X015969Y006657D01*
X015887Y006575D01*
X015813Y006575D01*
X015813Y006220D01*
X015884Y006148D01*
X015933Y006031D01*
X015933Y005903D01*
X015884Y005786D01*
X015794Y005696D01*
X015676Y005647D01*
X015549Y005647D01*
X015431Y005696D01*
X015341Y005786D01*
X015293Y005903D01*
X015293Y006031D01*
X015341Y006148D01*
X015413Y006220D01*
X015413Y006575D01*
X015338Y006575D01*
X015256Y006657D01*
X015256Y007167D01*
X015336Y007247D01*
X015271Y007311D01*
X012882Y004922D01*
X012882Y004821D01*
X012833Y004703D01*
X012743Y004613D01*
X012625Y004564D01*
X012498Y004564D01*
X012380Y004613D01*
X012290Y004703D01*
X012242Y004821D01*
X012242Y004948D01*
X012290Y005066D01*
X012380Y005156D01*
X012498Y005204D01*
X012599Y005204D01*
X015058Y007664D01*
X015078Y007683D01*
X015005Y007756D01*
X014945Y007756D01*
X014863Y007838D01*
X014863Y007898D01*
X010003Y012758D01*
X000420Y012758D01*
X000420Y012721D02*
X010040Y012721D01*
X010158Y012603D02*
X000420Y012603D01*
X000420Y012484D02*
X006386Y012484D01*
X006396Y012488D02*
X006278Y012439D01*
X006188Y012349D01*
X006139Y012232D01*
X006139Y012104D01*
X006188Y011987D01*
X006259Y011915D01*
X006259Y011776D01*
X006244Y011776D01*
X006162Y011694D01*
X006162Y011263D01*
X006242Y011184D01*
X006162Y011104D01*
X006162Y010673D01*
X006244Y010591D01*
X006259Y010591D01*
X006259Y010452D01*
X006188Y010381D01*
X006139Y010263D01*
X006139Y010136D01*
X006188Y010018D01*
X006278Y009928D01*
X006396Y009879D01*
X006523Y009879D01*
X006640Y009928D01*
X006730Y010018D01*
X006779Y010136D01*
X006779Y010263D01*
X006730Y010381D01*
X006659Y010452D01*
X006659Y010591D01*
X006675Y010591D01*
X006757Y010673D01*
X006757Y011104D01*
X006677Y011184D01*
X006757Y011263D01*
X006757Y011694D01*
X006675Y011776D01*
X006659Y011776D01*
X006659Y011915D01*
X006730Y011987D01*
X006779Y012104D01*
X006779Y012232D01*
X006730Y012349D01*
X006640Y012439D01*
X006523Y012488D01*
X006396Y012488D01*
X006532Y012484D02*
X008748Y012484D01*
X008758Y012488D02*
X008640Y012439D01*
X008550Y012349D01*
X008501Y012232D01*
X008501Y012104D01*
X008550Y011987D01*
X008621Y011915D01*
X008621Y011776D01*
X008606Y011776D01*
X008524Y011694D01*
X008524Y011263D01*
X008604Y011184D01*
X008524Y011104D01*
X008524Y010673D01*
X008606Y010591D01*
X008621Y010591D01*
X008621Y010452D01*
X008550Y010381D01*
X008501Y010263D01*
X008501Y010136D01*
X008550Y010018D01*
X008640Y009928D01*
X008758Y009879D01*
X008885Y009879D01*
X009003Y009928D01*
X009093Y010018D01*
X009141Y010136D01*
X009141Y010263D01*
X009093Y010381D01*
X009021Y010452D01*
X009021Y010591D01*
X009037Y010591D01*
X009119Y010673D01*
X009119Y011104D01*
X009039Y011184D01*
X009119Y011263D01*
X009119Y011694D01*
X009037Y011776D01*
X009021Y011776D01*
X009021Y011915D01*
X009093Y011987D01*
X009141Y012104D01*
X009141Y012232D01*
X009093Y012349D01*
X009003Y012439D01*
X008885Y012488D01*
X008758Y012488D01*
X008894Y012484D02*
X010277Y012484D01*
X010395Y012366D02*
X009076Y012366D01*
X009135Y012247D02*
X010514Y012247D01*
X010632Y012129D02*
X009141Y012129D01*
X009102Y012010D02*
X010751Y012010D01*
X010869Y011892D02*
X009021Y011892D01*
X009040Y011773D02*
X010988Y011773D01*
X011106Y011655D02*
X009119Y011655D01*
X009119Y011536D02*
X011225Y011536D01*
X011343Y011418D02*
X009119Y011418D01*
X009119Y011299D02*
X011462Y011299D01*
X011580Y011181D02*
X009042Y011181D01*
X009119Y011062D02*
X011699Y011062D01*
X011817Y010944D02*
X009119Y010944D01*
X009119Y010825D02*
X011936Y010825D01*
X012054Y010707D02*
X009119Y010707D01*
X009021Y010588D02*
X012173Y010588D01*
X012291Y010470D02*
X009021Y010470D01*
X009105Y010351D02*
X012410Y010351D01*
X012528Y010233D02*
X009141Y010233D01*
X009132Y010114D02*
X012647Y010114D01*
X012765Y009996D02*
X009070Y009996D01*
X008821Y010199D02*
X008821Y010888D01*
X008524Y010944D02*
X006757Y010944D01*
X006757Y011062D02*
X008524Y011062D01*
X008601Y011181D02*
X006680Y011181D01*
X006757Y011299D02*
X008524Y011299D01*
X008524Y011418D02*
X006757Y011418D01*
X006757Y011536D02*
X008524Y011536D01*
X008524Y011655D02*
X006757Y011655D01*
X006678Y011773D02*
X008603Y011773D01*
X008621Y011892D02*
X006659Y011892D01*
X006740Y012010D02*
X008540Y012010D01*
X008501Y012129D02*
X006779Y012129D01*
X006773Y012247D02*
X008508Y012247D01*
X008567Y012366D02*
X006714Y012366D01*
X006459Y012168D02*
X006459Y011479D01*
X006162Y011536D02*
X000420Y011536D01*
X000420Y011418D02*
X006162Y011418D01*
X006162Y011299D02*
X000420Y011299D01*
X000420Y011181D02*
X006238Y011181D01*
X006162Y011062D02*
X000420Y011062D01*
X000420Y010944D02*
X006162Y010944D01*
X006162Y010825D02*
X000420Y010825D01*
X000420Y010707D02*
X006162Y010707D01*
X006259Y010588D02*
X000420Y010588D01*
X000420Y010470D02*
X006259Y010470D01*
X006176Y010351D02*
X000420Y010351D01*
X000420Y010233D02*
X006139Y010233D01*
X006148Y010114D02*
X000420Y010114D01*
X000420Y009996D02*
X006211Y009996D01*
X006459Y010199D02*
X006459Y010888D01*
X006757Y010825D02*
X008524Y010825D01*
X008524Y010707D02*
X006757Y010707D01*
X006659Y010588D02*
X008621Y010588D01*
X008621Y010470D02*
X006659Y010470D01*
X006743Y010351D02*
X008538Y010351D01*
X008501Y010233D02*
X006779Y010233D01*
X006770Y010114D02*
X008510Y010114D01*
X008573Y009996D02*
X006708Y009996D01*
X005637Y009300D02*
X005587Y009250D01*
X005587Y005243D01*
X005637Y005193D01*
X005707Y005193D01*
X009574Y005193D01*
X009644Y005193D01*
X009694Y005243D01*
X009694Y009250D01*
X009644Y009300D01*
X005637Y009300D01*
X005621Y009285D02*
X000420Y009285D01*
X000420Y009403D02*
X013358Y009403D01*
X013476Y009285D02*
X009660Y009285D01*
X009694Y009166D02*
X013595Y009166D01*
X013713Y009048D02*
X009694Y009048D01*
X009694Y008929D02*
X013832Y008929D01*
X013950Y008811D02*
X009694Y008811D01*
X009694Y008692D02*
X014069Y008692D01*
X014187Y008574D02*
X009694Y008574D01*
X009694Y008455D02*
X014306Y008455D01*
X014424Y008337D02*
X009694Y008337D01*
X009694Y008218D02*
X014543Y008218D01*
X014661Y008100D02*
X009694Y008100D01*
X009694Y007981D02*
X014780Y007981D01*
X014863Y007863D02*
X009694Y007863D01*
X009694Y007744D02*
X015017Y007744D01*
X015020Y007626D02*
X009694Y007626D01*
X009694Y007507D02*
X014901Y007507D01*
X014783Y007389D02*
X009694Y007389D01*
X009694Y007270D02*
X014664Y007270D01*
X014546Y007152D02*
X009694Y007152D01*
X009694Y007033D02*
X014427Y007033D01*
X014309Y006915D02*
X009694Y006915D01*
X009694Y006796D02*
X014190Y006796D01*
X014072Y006678D02*
X009694Y006678D01*
X009694Y006559D02*
X013953Y006559D01*
X013835Y006441D02*
X009694Y006441D01*
X009694Y006322D02*
X013716Y006322D01*
X013598Y006204D02*
X009694Y006204D01*
X009694Y006085D02*
X013479Y006085D01*
X013361Y005967D02*
X009694Y005967D01*
X009694Y005848D02*
X013242Y005848D01*
X013124Y005730D02*
X009694Y005730D01*
X009694Y005611D02*
X013005Y005611D01*
X012887Y005493D02*
X009694Y005493D01*
X009694Y005374D02*
X012768Y005374D01*
X012650Y005256D02*
X009694Y005256D01*
X012242Y004900D02*
X000420Y004900D01*
X000420Y004782D02*
X012258Y004782D01*
X012330Y004663D02*
X000420Y004663D01*
X000420Y004545D02*
X015785Y004545D01*
X015785Y004426D02*
X000420Y004426D01*
X000420Y004308D02*
X015836Y004308D01*
X015997Y004189D02*
X000420Y004189D01*
X000420Y004071D02*
X016780Y004071D01*
X016898Y004189D02*
X016213Y004189D01*
X016374Y004308D02*
X017017Y004308D01*
X017135Y004426D02*
X016424Y004426D01*
X016425Y004545D02*
X017163Y004545D01*
X017163Y004554D02*
X017163Y004454D01*
X015825Y003116D01*
X012814Y003116D01*
X012743Y003187D01*
X012625Y003236D01*
X012498Y003236D01*
X012380Y003187D01*
X012290Y003097D01*
X012242Y002980D01*
X012242Y002852D01*
X012290Y002735D01*
X012380Y002645D01*
X012498Y002596D01*
X012625Y002596D01*
X012743Y002645D01*
X012814Y002716D01*
X015991Y002716D01*
X017446Y004171D01*
X017546Y004171D01*
X017664Y004219D01*
X017754Y004309D01*
X017803Y004427D01*
X017803Y004554D01*
X017754Y004672D01*
X017664Y004762D01*
X017546Y004811D01*
X017419Y004811D01*
X017302Y004762D01*
X017212Y004672D01*
X017163Y004554D01*
X017208Y004663D02*
X016380Y004663D01*
X016300Y004782D02*
X017349Y004782D01*
X017585Y004900D02*
X016396Y004900D01*
X016515Y005019D02*
X017467Y005019D01*
X017348Y005137D02*
X016633Y005137D01*
X016752Y005256D02*
X017288Y005256D01*
X017288Y005374D02*
X016870Y005374D01*
X016989Y005493D02*
X017288Y005493D01*
X017288Y005611D02*
X017107Y005611D01*
X017226Y005730D02*
X017288Y005730D01*
X017877Y005573D02*
X017936Y005573D01*
X018467Y006105D01*
X018467Y005967D01*
X018467Y006105D02*
X018467Y006125D01*
X018824Y006085D02*
X018898Y006085D01*
X018898Y006186D02*
X018898Y005850D01*
X018970Y005778D01*
X018940Y005760D01*
X018910Y005731D01*
X018889Y005694D01*
X018878Y005654D01*
X018878Y005474D01*
X019216Y005474D01*
X019216Y005397D01*
X019293Y005397D01*
X019293Y005079D01*
X019492Y005079D01*
X019533Y005090D01*
X019569Y005111D01*
X019599Y005140D01*
X019620Y005177D01*
X019631Y005218D01*
X019631Y005397D01*
X019293Y005397D01*
X019293Y005474D01*
X019631Y005474D01*
X019631Y005654D01*
X019620Y005694D01*
X019599Y005731D01*
X019569Y005760D01*
X019539Y005778D01*
X019611Y005850D01*
X019611Y006115D01*
X019959Y005767D01*
X021420Y005767D01*
X021420Y005167D01*
X020943Y004691D01*
X019113Y004691D01*
X019042Y004762D01*
X018924Y004811D01*
X018797Y004811D01*
X018680Y004762D01*
X018603Y004686D01*
X018351Y004686D01*
X017762Y005274D01*
X017813Y005253D01*
X017940Y005253D01*
X018058Y005302D01*
X018091Y005335D01*
X018091Y005218D01*
X018101Y005177D01*
X018123Y005140D01*
X018152Y005111D01*
X018189Y005090D01*
X018229Y005079D01*
X018429Y005079D01*
X018429Y005397D01*
X018506Y005397D01*
X018506Y005474D01*
X018844Y005474D01*
X018844Y005654D01*
X018833Y005694D01*
X018812Y005731D01*
X018782Y005760D01*
X018752Y005778D01*
X018824Y005850D01*
X018824Y006260D01*
X018898Y006186D01*
X018880Y006204D02*
X018824Y006204D01*
X018824Y005967D02*
X018898Y005967D01*
X018900Y005848D02*
X018822Y005848D01*
X018812Y005730D02*
X018909Y005730D01*
X018878Y005611D02*
X018844Y005611D01*
X018844Y005493D02*
X018878Y005493D01*
X018878Y005397D02*
X018878Y005218D01*
X018889Y005177D01*
X018910Y005140D01*
X018940Y005111D01*
X018976Y005090D01*
X019017Y005079D01*
X019216Y005079D01*
X019216Y005397D01*
X018878Y005397D01*
X018878Y005374D02*
X018844Y005374D01*
X018844Y005397D02*
X018506Y005397D01*
X018506Y005079D01*
X018705Y005079D01*
X018745Y005090D01*
X018782Y005111D01*
X018812Y005140D01*
X018833Y005177D01*
X018844Y005218D01*
X018844Y005397D01*
X018844Y005256D02*
X018878Y005256D01*
X018913Y005137D02*
X018808Y005137D01*
X018506Y005137D02*
X018429Y005137D01*
X018429Y005256D02*
X018506Y005256D01*
X018506Y005374D02*
X018429Y005374D01*
X018467Y005436D02*
X019254Y005436D01*
X019254Y004884D01*
X019216Y005137D02*
X019293Y005137D01*
X019293Y005256D02*
X019216Y005256D01*
X019216Y005374D02*
X019293Y005374D01*
X019631Y005374D02*
X021420Y005374D01*
X021420Y005256D02*
X019631Y005256D01*
X019596Y005137D02*
X021390Y005137D01*
X021271Y005019D02*
X018018Y005019D01*
X018126Y005137D02*
X017900Y005137D01*
X017945Y005256D02*
X018091Y005256D01*
X017808Y005256D02*
X017781Y005256D01*
X017704Y004782D02*
X017617Y004782D01*
X017758Y004663D02*
X017822Y004663D01*
X017803Y004545D02*
X017941Y004545D01*
X018059Y004426D02*
X017802Y004426D01*
X017752Y004308D02*
X018178Y004308D01*
X018753Y004189D02*
X017591Y004189D01*
X017345Y004071D02*
X021420Y004071D01*
X021420Y004189D02*
X018969Y004189D01*
X018861Y004491D02*
X021026Y004491D01*
X023782Y007247D01*
X023782Y008034D01*
X023582Y007781D02*
X023582Y007329D01*
X021814Y005561D01*
X021814Y005783D01*
X021915Y005884D01*
X022957Y006927D01*
X023058Y006927D01*
X023176Y006975D01*
X023266Y007065D01*
X023315Y007183D01*
X023315Y007310D01*
X023266Y007428D01*
X023176Y007518D01*
X023058Y007567D01*
X022931Y007567D01*
X022813Y007518D01*
X022723Y007428D01*
X022675Y007310D01*
X022675Y007209D01*
X021814Y006348D01*
X021814Y006853D01*
X021226Y007440D01*
X021226Y007625D01*
X021109Y007742D01*
X021109Y007742D01*
X020773Y008077D01*
X020773Y008465D01*
X020828Y008465D01*
X020910Y008547D01*
X020910Y009096D01*
X020828Y009178D01*
X020319Y009178D01*
X020239Y009098D01*
X020159Y009178D01*
X019649Y009178D01*
X019567Y009096D01*
X019567Y008826D01*
X019409Y008668D01*
X019409Y008544D01*
X018701Y008544D01*
X018587Y008430D01*
X018465Y008308D01*
X018465Y008501D01*
X018531Y008501D01*
X018648Y008550D01*
X018738Y008640D01*
X018787Y008758D01*
X018787Y008885D01*
X018738Y009003D01*
X018648Y009093D01*
X018531Y009141D01*
X018512Y009141D01*
X018701Y009331D01*
X019037Y009331D01*
X019119Y009413D01*
X019119Y009547D01*
X019237Y009547D01*
X019315Y009469D01*
X019785Y009469D01*
X019867Y009551D01*
X019867Y009942D01*
X019807Y010003D01*
X019867Y010063D01*
X019867Y010454D01*
X019830Y010492D01*
X019863Y010525D01*
X019863Y010515D01*
X019945Y010433D01*
X020454Y010433D01*
X020526Y010505D01*
X020544Y010475D01*
X020574Y010445D01*
X020610Y010424D01*
X020651Y010413D01*
X020830Y010413D01*
X020830Y010751D01*
X020907Y010751D01*
X020907Y010413D01*
X021087Y010413D01*
X021127Y010424D01*
X021164Y010445D01*
X021194Y010475D01*
X021215Y010512D01*
X021226Y010552D01*
X021226Y010751D01*
X020907Y010751D01*
X020907Y010828D01*
X021226Y010828D01*
X021226Y011028D01*
X021215Y011068D01*
X021194Y011105D01*
X021164Y011134D01*
X021127Y011156D01*
X021087Y011166D01*
X020907Y011166D01*
X020907Y010828D01*
X020830Y010828D01*
X020830Y011166D01*
X020651Y011166D01*
X020610Y011156D01*
X020574Y011134D01*
X020544Y011105D01*
X020526Y011074D01*
X020454Y011146D01*
X019945Y011146D01*
X019863Y011064D01*
X019863Y010990D01*
X019762Y010990D01*
X019645Y010873D01*
X019350Y010577D01*
X019350Y010536D01*
X019315Y010536D01*
X019233Y010454D01*
X019233Y010063D01*
X019293Y010003D01*
X019237Y009947D01*
X019095Y009947D01*
X019039Y010003D01*
X019119Y010082D01*
X019119Y010592D01*
X019037Y010674D01*
X018488Y010674D01*
X018449Y010636D01*
X018288Y010636D01*
X018232Y010691D01*
X018292Y010752D01*
X018292Y011143D01*
X018210Y011225D01*
X018175Y011225D01*
X018175Y011339D01*
X018210Y011339D01*
X018288Y011416D01*
X018288Y011204D01*
X018370Y011122D01*
X018879Y011122D01*
X018951Y011194D01*
X018969Y011164D01*
X018999Y011134D01*
X019035Y011113D01*
X019076Y011102D01*
X019255Y011102D01*
X019255Y011440D01*
X019332Y011440D01*
X019332Y011102D01*
X019512Y011102D01*
X019552Y011113D01*
X019589Y011134D01*
X019619Y011164D01*
X019640Y011201D01*
X019651Y011241D01*
X019651Y011440D01*
X019332Y011440D01*
X019332Y011517D01*
X019651Y011517D01*
X019651Y011716D01*
X019640Y011757D01*
X019619Y011794D01*
X019589Y011823D01*
X019552Y011845D01*
X019512Y011855D01*
X019332Y011855D01*
X019332Y011517D01*
X019255Y011517D01*
X019255Y011855D01*
X019076Y011855D01*
X019035Y011845D01*
X018999Y011823D01*
X018969Y011794D01*
X018951Y011763D01*
X018879Y011835D01*
X018370Y011835D01*
X018351Y011817D01*
X018288Y011817D01*
X018232Y011873D01*
X018288Y011929D01*
X018351Y011929D01*
X018370Y011910D01*
X018879Y011910D01*
X018951Y011982D01*
X018969Y011952D01*
X018999Y011922D01*
X019035Y011901D01*
X019076Y011890D01*
X019255Y011890D01*
X019255Y012228D01*
X019332Y012228D01*
X019332Y011890D01*
X019512Y011890D01*
X019552Y011901D01*
X019589Y011922D01*
X019619Y011952D01*
X019640Y011988D01*
X019651Y012029D01*
X019651Y012228D01*
X019332Y012228D01*
X019332Y012305D01*
X019255Y012305D01*
X019255Y012643D01*
X019076Y012643D01*
X019035Y012632D01*
X018999Y012611D01*
X018969Y012581D01*
X018951Y012551D01*
X018879Y012623D01*
X018370Y012623D01*
X018331Y012585D01*
X018331Y012974D01*
X018252Y013054D01*
X018331Y013134D01*
X018331Y013643D01*
X018249Y013725D01*
X018077Y013725D01*
X018077Y015360D01*
X018207Y015414D01*
X018371Y015578D01*
X018459Y015792D01*
X018459Y016024D01*
X018371Y016238D01*
X018207Y016402D01*
X017992Y016491D01*
X017761Y016491D01*
X017546Y016402D01*
X017382Y016238D01*
X017294Y016024D01*
X017294Y015792D01*
X017382Y015578D01*
X017546Y015414D01*
X017677Y015360D01*
X017677Y013701D01*
X017618Y013643D01*
X017618Y013134D01*
X017698Y013054D01*
X017618Y012974D01*
X017618Y012464D01*
X017700Y012382D01*
X017716Y012382D01*
X017658Y012324D01*
X017658Y011933D01*
X017718Y011873D01*
X017658Y011812D01*
X017658Y011421D01*
X017740Y011339D01*
X017775Y011339D01*
X017775Y011225D01*
X017740Y011225D01*
X017658Y011143D01*
X017658Y010752D01*
X017718Y010691D01*
X017662Y010636D01*
X017282Y010636D01*
X017183Y010536D01*
X016952Y010536D01*
X016870Y010454D01*
X016870Y010063D01*
X016931Y010003D01*
X016875Y009947D01*
X016875Y009982D01*
X016793Y010064D01*
X016283Y010064D01*
X016211Y009992D01*
X016194Y010022D01*
X016164Y010052D01*
X016127Y010073D01*
X016087Y010084D01*
X015907Y010084D01*
X015907Y009746D01*
X015830Y009746D01*
X015830Y010084D01*
X015651Y010084D01*
X015610Y010073D01*
X015574Y010052D01*
X015544Y010022D01*
X015523Y009986D01*
X015512Y009945D01*
X015512Y009746D01*
X015830Y009746D01*
X015830Y009669D01*
X015512Y009669D01*
X015512Y009470D01*
X015523Y009429D01*
X015544Y009392D01*
X015574Y009363D01*
X015610Y009342D01*
X015651Y009331D01*
X015830Y009331D01*
X015830Y009669D01*
X015907Y009669D01*
X015907Y009331D01*
X016087Y009331D01*
X016127Y009342D01*
X016164Y009363D01*
X016194Y009392D01*
X016211Y009423D01*
X016283Y009351D01*
X016793Y009351D01*
X016875Y009433D01*
X016875Y009507D01*
X016914Y009507D01*
X016952Y009469D01*
X017190Y009469D01*
X017478Y009181D01*
X017419Y009181D01*
X017302Y009132D01*
X017212Y009042D01*
X017163Y008924D01*
X017163Y008797D01*
X017190Y008732D01*
X017153Y008748D01*
X017025Y008748D01*
X016908Y008699D01*
X016818Y008609D01*
X016769Y008491D01*
X016769Y008364D01*
X016818Y008246D01*
X016846Y008219D01*
X016843Y008217D01*
X016813Y008187D01*
X016792Y008151D01*
X016781Y008110D01*
X016781Y008034D01*
X017148Y008034D01*
X016381Y008034D01*
X016300Y008115D01*
X016186Y008229D01*
X015576Y008229D01*
X015576Y008348D01*
X015504Y008420D01*
X015534Y008437D01*
X015564Y008467D01*
X015585Y008504D01*
X015596Y008544D01*
X015596Y008724D01*
X015257Y008724D01*
X015257Y008801D01*
X015181Y008801D01*
X015181Y009119D01*
X014981Y009119D01*
X014941Y009108D01*
X014904Y009087D01*
X014874Y009057D01*
X014853Y009021D01*
X014843Y008980D01*
X014843Y008801D01*
X015181Y008801D01*
X015181Y008724D01*
X014843Y008724D01*
X014843Y008544D01*
X014853Y008504D01*
X014874Y008467D01*
X014904Y008437D01*
X014935Y008420D01*
X014863Y008348D01*
X014863Y008292D01*
X010003Y013152D01*
X000420Y013152D01*
X000420Y021947D01*
X035333Y021947D01*
X035333Y000420D01*
X021814Y000420D01*
X021814Y004995D01*
X023865Y007047D01*
X023982Y007164D01*
X023982Y007781D01*
X024053Y007853D01*
X024102Y007970D01*
X024102Y008098D01*
X024053Y008215D01*
X023963Y008305D01*
X023846Y008354D01*
X023718Y008354D01*
X023601Y008305D01*
X023511Y008215D01*
X023462Y008098D01*
X023462Y007970D01*
X023511Y007853D01*
X023582Y007781D01*
X023582Y007744D02*
X021107Y007744D01*
X021225Y007626D02*
X023582Y007626D01*
X023582Y007507D02*
X023187Y007507D01*
X023282Y007389D02*
X023582Y007389D01*
X023523Y007270D02*
X023315Y007270D01*
X023302Y007152D02*
X023404Y007152D01*
X023286Y007033D02*
X023234Y007033D01*
X023167Y006915D02*
X022945Y006915D01*
X023049Y006796D02*
X022827Y006796D01*
X022930Y006678D02*
X022708Y006678D01*
X022812Y006559D02*
X022590Y006559D01*
X022693Y006441D02*
X022471Y006441D01*
X022575Y006322D02*
X022353Y006322D01*
X022456Y006204D02*
X022234Y006204D01*
X022338Y006085D02*
X022116Y006085D01*
X022219Y005967D02*
X021997Y005967D01*
X022101Y005848D02*
X021879Y005848D01*
X021814Y005730D02*
X021982Y005730D01*
X021864Y005611D02*
X021814Y005611D01*
X021715Y005967D02*
X020042Y005967D01*
X019156Y006853D01*
X018664Y006853D01*
X018605Y006912D01*
X019520Y006772D02*
X019551Y006772D01*
X019551Y007149D01*
X019667Y007149D01*
X019667Y006772D01*
X019866Y006772D01*
X019907Y006783D01*
X019936Y006800D01*
X019945Y006792D01*
X020058Y006792D01*
X020000Y006734D01*
X020000Y006292D01*
X019520Y006772D01*
X019551Y006796D02*
X019667Y006796D01*
X019667Y006915D02*
X019551Y006915D01*
X019530Y006971D02*
X019845Y006656D01*
X019733Y006559D02*
X020000Y006559D01*
X020000Y006441D02*
X019851Y006441D01*
X019970Y006322D02*
X020000Y006322D01*
X020000Y006678D02*
X019614Y006678D01*
X019930Y006796D02*
X019940Y006796D01*
X019667Y007033D02*
X019551Y007033D01*
X019530Y006971D02*
X019609Y007207D01*
X020199Y007247D02*
X020239Y007207D01*
X020337Y007109D01*
X020337Y006459D01*
X020557Y006816D02*
X020615Y006874D01*
X020615Y007541D01*
X020533Y007623D01*
X020178Y007623D01*
X020163Y007638D01*
X020181Y007638D01*
X020181Y007640D01*
X020297Y007640D01*
X020297Y007638D01*
X020496Y007638D01*
X020505Y007640D01*
X020632Y007640D01*
X021420Y006853D01*
X021420Y006167D01*
X021344Y006167D01*
X021352Y006181D01*
X021363Y006222D01*
X021363Y006421D01*
X021045Y006421D01*
X021045Y006498D01*
X020968Y006498D01*
X020968Y006836D01*
X020789Y006836D01*
X020748Y006825D01*
X020711Y006804D01*
X020682Y006774D01*
X020664Y006744D01*
X020592Y006816D01*
X020557Y006816D01*
X020612Y006796D02*
X020704Y006796D01*
X020615Y006915D02*
X021358Y006915D01*
X021302Y006804D02*
X021265Y006825D01*
X021224Y006836D01*
X021045Y006836D01*
X021045Y006498D01*
X021363Y006498D01*
X021363Y006697D01*
X021352Y006738D01*
X021331Y006774D01*
X021302Y006804D01*
X021309Y006796D02*
X021420Y006796D01*
X021420Y006678D02*
X021363Y006678D01*
X021363Y006559D02*
X021420Y006559D01*
X021420Y006441D02*
X021045Y006441D01*
X021026Y006479D02*
X021006Y006459D01*
X021026Y006479D02*
X021026Y007050D01*
X021026Y007542D01*
X020573Y007995D01*
X020239Y007995D01*
X020239Y008073D01*
X020573Y007995D02*
X020573Y008821D01*
X020910Y008811D02*
X026059Y008811D01*
X026059Y008929D02*
X020910Y008929D01*
X020910Y009048D02*
X026059Y009048D01*
X026059Y009166D02*
X020840Y009166D01*
X020910Y008692D02*
X026059Y008692D01*
X026059Y008574D02*
X020910Y008574D01*
X020773Y008455D02*
X026059Y008455D01*
X026059Y008337D02*
X023888Y008337D01*
X024051Y008218D02*
X026059Y008218D01*
X026059Y008100D02*
X024101Y008100D01*
X024102Y007981D02*
X026059Y007981D01*
X026059Y007863D02*
X024057Y007863D01*
X023982Y007744D02*
X026059Y007744D01*
X026059Y007626D02*
X023982Y007626D01*
X023982Y007507D02*
X026059Y007507D01*
X026059Y007389D02*
X023982Y007389D01*
X023982Y007270D02*
X026059Y007270D01*
X026059Y007152D02*
X023970Y007152D01*
X023851Y007033D02*
X026059Y007033D01*
X026059Y006915D02*
X023733Y006915D01*
X023614Y006796D02*
X026059Y006796D01*
X026059Y006678D02*
X023496Y006678D01*
X023377Y006559D02*
X026059Y006559D01*
X026059Y006441D02*
X023259Y006441D01*
X023140Y006322D02*
X026059Y006322D01*
X026059Y006204D02*
X023022Y006204D01*
X022903Y006085D02*
X026059Y006085D01*
X026059Y005967D02*
X022785Y005967D01*
X022666Y005848D02*
X026059Y005848D01*
X026059Y005730D02*
X022548Y005730D01*
X022429Y005611D02*
X026059Y005611D01*
X026059Y005493D02*
X022311Y005493D01*
X022192Y005374D02*
X026059Y005374D01*
X026059Y005256D02*
X022074Y005256D01*
X021955Y005137D02*
X035333Y005137D01*
X035333Y005019D02*
X021837Y005019D01*
X021814Y004900D02*
X035333Y004900D01*
X035333Y004782D02*
X021814Y004782D01*
X021814Y004663D02*
X035333Y004663D01*
X035333Y004545D02*
X021814Y004545D01*
X021814Y004426D02*
X035333Y004426D01*
X035333Y004308D02*
X021814Y004308D01*
X021814Y004189D02*
X035333Y004189D01*
X035333Y004071D02*
X021814Y004071D01*
X021814Y003952D02*
X035333Y003952D01*
X035333Y003834D02*
X021814Y003834D01*
X021814Y003715D02*
X033174Y003715D01*
X033255Y003747D02*
X032795Y003566D01*
X032795Y003566D01*
X032408Y003258D01*
X032408Y003258D01*
X032408Y003258D01*
X032129Y002849D01*
X032129Y002849D01*
X031983Y002376D01*
X031983Y001881D01*
X032129Y001408D01*
X032408Y000999D01*
X032795Y000691D01*
X033255Y000510D01*
X033255Y000510D01*
X033749Y000473D01*
X034231Y000583D01*
X034524Y000753D01*
X034615Y000662D01*
X034739Y000611D01*
X034873Y000611D01*
X034996Y000662D01*
X035091Y000757D01*
X035143Y000880D01*
X035143Y001014D01*
X035091Y001138D01*
X035009Y001220D01*
X035211Y001639D01*
X035285Y002129D01*
X035211Y002618D01*
X034996Y003064D01*
X034660Y003426D01*
X034231Y003674D01*
X033749Y003784D01*
X033255Y003747D01*
X032872Y003597D02*
X021814Y003597D01*
X021814Y003478D02*
X032684Y003478D01*
X032536Y003360D02*
X024962Y003360D01*
X024952Y003370D02*
X024755Y003451D01*
X024542Y003451D01*
X024345Y003370D01*
X024194Y003219D01*
X024113Y003022D01*
X024113Y002809D01*
X024194Y002613D01*
X024345Y002462D01*
X024542Y002380D01*
X024755Y002380D01*
X024952Y002462D01*
X025102Y002613D01*
X025184Y002809D01*
X025184Y003022D01*
X025102Y003219D01*
X024952Y003370D01*
X025081Y003241D02*
X032396Y003241D01*
X032316Y003123D02*
X025142Y003123D01*
X025184Y003004D02*
X032235Y003004D01*
X032154Y002886D02*
X025184Y002886D01*
X025166Y002767D02*
X032104Y002767D01*
X032067Y002649D02*
X025117Y002649D01*
X025020Y002530D02*
X032031Y002530D01*
X031994Y002412D02*
X024830Y002412D01*
X024466Y002412D02*
X021814Y002412D01*
X021814Y002530D02*
X024277Y002530D01*
X024179Y002649D02*
X021814Y002649D01*
X021814Y002767D02*
X024130Y002767D01*
X024113Y002886D02*
X021814Y002886D01*
X021814Y003004D02*
X024113Y003004D01*
X024154Y003123D02*
X021814Y003123D01*
X021814Y003241D02*
X024216Y003241D01*
X024334Y003360D02*
X021814Y003360D01*
X021420Y003360D02*
X016634Y003360D01*
X016753Y003478D02*
X021420Y003478D01*
X021420Y003597D02*
X016871Y003597D01*
X016990Y003715D02*
X021420Y003715D01*
X021420Y003834D02*
X017108Y003834D01*
X017227Y003952D02*
X021420Y003952D01*
X021420Y004308D02*
X021126Y004308D01*
X021244Y004426D02*
X021420Y004426D01*
X021420Y004545D02*
X021363Y004545D01*
X021034Y004782D02*
X018995Y004782D01*
X018727Y004782D02*
X018255Y004782D01*
X018137Y004900D02*
X021153Y004900D01*
X021420Y005493D02*
X019631Y005493D01*
X019631Y005611D02*
X021420Y005611D01*
X021420Y005730D02*
X019600Y005730D01*
X019609Y005848D02*
X019878Y005848D01*
X019760Y005967D02*
X019611Y005967D01*
X019611Y006085D02*
X019641Y006085D01*
X020298Y007069D02*
X020239Y007207D01*
X020239Y007129D01*
X020239Y007247D02*
X020199Y007247D01*
X020615Y007270D02*
X021003Y007270D01*
X021121Y007152D02*
X020615Y007152D01*
X020615Y007033D02*
X021240Y007033D01*
X021396Y007270D02*
X022675Y007270D01*
X022707Y007389D02*
X021278Y007389D01*
X021226Y007507D02*
X022802Y007507D01*
X022995Y007247D02*
X021715Y005967D01*
X021420Y006204D02*
X021358Y006204D01*
X021363Y006322D02*
X021420Y006322D01*
X021045Y006559D02*
X020968Y006559D01*
X020968Y006678D02*
X021045Y006678D01*
X021045Y006796D02*
X020968Y006796D01*
X021515Y007152D02*
X022617Y007152D01*
X022498Y007033D02*
X021633Y007033D01*
X021752Y006915D02*
X022380Y006915D01*
X022261Y006796D02*
X021814Y006796D01*
X021814Y006678D02*
X022143Y006678D01*
X022024Y006559D02*
X021814Y006559D01*
X021814Y006441D02*
X021906Y006441D01*
X020884Y007389D02*
X020615Y007389D01*
X020615Y007507D02*
X020766Y007507D01*
X020647Y007626D02*
X020175Y007626D01*
X019609Y008073D02*
X019609Y008585D01*
X019845Y008821D01*
X019904Y008821D01*
X019551Y008811D02*
X018787Y008811D01*
X018769Y008929D02*
X019567Y008929D01*
X019567Y009048D02*
X018694Y009048D01*
X018536Y009166D02*
X019637Y009166D01*
X019838Y009522D02*
X035333Y009522D01*
X035333Y009640D02*
X019867Y009640D01*
X019867Y009759D02*
X035333Y009759D01*
X035333Y009877D02*
X019867Y009877D01*
X019814Y009996D02*
X035333Y009996D01*
X035333Y010114D02*
X019867Y010114D01*
X019867Y010233D02*
X035333Y010233D01*
X035333Y010351D02*
X019867Y010351D01*
X019852Y010470D02*
X019908Y010470D01*
X019845Y010790D02*
X019550Y010495D01*
X019550Y010258D01*
X019233Y010233D02*
X019119Y010233D01*
X019119Y010351D02*
X019233Y010351D01*
X019248Y010470D02*
X019119Y010470D01*
X019119Y010588D02*
X019360Y010588D01*
X019479Y010707D02*
X018247Y010707D01*
X018292Y010825D02*
X019597Y010825D01*
X019716Y010944D02*
X018292Y010944D01*
X018292Y011062D02*
X019863Y011062D01*
X019628Y011181D02*
X026319Y011181D01*
X026319Y011299D02*
X019651Y011299D01*
X019651Y011418D02*
X026366Y011418D01*
X026412Y011531D02*
X026319Y011305D01*
X026319Y011062D01*
X021216Y011062D01*
X021226Y010944D02*
X026368Y010944D01*
X026412Y010837D02*
X026585Y010664D01*
X026810Y010571D01*
X027053Y010571D01*
X027279Y010664D01*
X027451Y010837D01*
X027544Y011062D01*
X028681Y011062D01*
X028775Y010837D01*
X028947Y010664D01*
X029172Y010571D01*
X029416Y010571D01*
X029641Y010664D01*
X029813Y010837D01*
X029906Y011062D01*
X035333Y011062D01*
X035333Y010944D02*
X029857Y010944D01*
X029906Y011062D02*
X029906Y011305D01*
X029813Y011531D01*
X029641Y011703D01*
X029416Y011796D01*
X029172Y011796D01*
X028947Y011703D01*
X028775Y011531D01*
X028681Y011305D01*
X028681Y011062D01*
X028681Y011181D02*
X027544Y011181D01*
X027544Y011299D02*
X028681Y011299D01*
X028728Y011418D02*
X027498Y011418D01*
X027544Y011305D02*
X027451Y011531D01*
X027279Y011703D01*
X027053Y011796D01*
X026810Y011796D01*
X026585Y011703D01*
X026412Y011531D01*
X026418Y011536D02*
X019651Y011536D01*
X019651Y011655D02*
X026536Y011655D01*
X026754Y011773D02*
X019631Y011773D01*
X019518Y011892D02*
X035333Y011892D01*
X035333Y012010D02*
X019646Y012010D01*
X019651Y012129D02*
X035333Y012129D01*
X035333Y012247D02*
X019332Y012247D01*
X019294Y012266D02*
X019294Y014491D01*
X018877Y014908D01*
X018877Y016908D01*
X016877Y016908D01*
X016877Y014908D01*
X016937Y014854D02*
X017677Y014854D01*
X017677Y014736D02*
X017454Y014736D01*
X017465Y014767D02*
X017435Y014677D01*
X017392Y014592D01*
X017336Y014515D01*
X017269Y014448D01*
X017193Y014392D01*
X017108Y014349D01*
X017018Y014320D01*
X016937Y014307D01*
X016937Y014848D01*
X016937Y014968D01*
X017477Y014968D01*
X017465Y015049D01*
X017435Y015139D01*
X017392Y015224D01*
X017336Y015301D01*
X017269Y015368D01*
X017193Y015424D01*
X017108Y015467D01*
X017018Y015496D01*
X016937Y015509D01*
X016937Y014968D01*
X016817Y014968D01*
X016817Y015509D01*
X016735Y015496D01*
X016645Y015467D01*
X016561Y015424D01*
X016484Y015368D01*
X016417Y015301D01*
X016361Y015224D01*
X016318Y015139D01*
X016288Y015049D01*
X016276Y014968D01*
X016817Y014968D01*
X016817Y014848D01*
X016937Y014848D01*
X017477Y014848D01*
X017465Y014767D01*
X017405Y014617D02*
X017677Y014617D01*
X017677Y014499D02*
X017320Y014499D01*
X017168Y014380D02*
X017677Y014380D01*
X017677Y014262D02*
X009694Y014262D01*
X009694Y014380D02*
X016585Y014380D01*
X016561Y014392D02*
X016645Y014349D01*
X016735Y014320D01*
X016817Y014307D01*
X016817Y014848D01*
X016276Y014848D01*
X016288Y014767D01*
X016318Y014677D01*
X016361Y014592D01*
X016417Y014515D01*
X016484Y014448D01*
X016561Y014392D01*
X016433Y014499D02*
X009694Y014499D01*
X009694Y014617D02*
X016348Y014617D01*
X016299Y014736D02*
X009694Y014736D01*
X009694Y014854D02*
X016817Y014854D01*
X016817Y014736D02*
X016937Y014736D01*
X016937Y014617D02*
X016817Y014617D01*
X016817Y014499D02*
X016937Y014499D01*
X016937Y014380D02*
X016817Y014380D01*
X016817Y014973D02*
X016937Y014973D01*
X016937Y015091D02*
X016817Y015091D01*
X016817Y015210D02*
X016937Y015210D01*
X016937Y015328D02*
X016817Y015328D01*
X016817Y015447D02*
X016937Y015447D01*
X017148Y015447D02*
X017514Y015447D01*
X017395Y015565D02*
X009694Y015565D01*
X009694Y015447D02*
X016605Y015447D01*
X016444Y015328D02*
X009694Y015328D01*
X009694Y015210D02*
X016353Y015210D01*
X016302Y015091D02*
X009694Y015091D01*
X009694Y014973D02*
X016276Y014973D01*
X017309Y015328D02*
X017677Y015328D01*
X017677Y015210D02*
X017400Y015210D01*
X017451Y015091D02*
X017677Y015091D01*
X017677Y014973D02*
X017477Y014973D01*
X018077Y014973D02*
X018276Y014973D01*
X018276Y014968D02*
X018817Y014968D01*
X018817Y015509D01*
X018735Y015496D01*
X018645Y015467D01*
X018561Y015424D01*
X018484Y015368D01*
X018417Y015301D01*
X018361Y015224D01*
X018318Y015139D01*
X018288Y015049D01*
X018276Y014968D01*
X018276Y014848D02*
X018288Y014767D01*
X018318Y014677D01*
X018361Y014592D01*
X018417Y014515D01*
X018484Y014448D01*
X018561Y014392D01*
X018645Y014349D01*
X018735Y014320D01*
X018817Y014307D01*
X018817Y014848D01*
X018937Y014848D01*
X018937Y014968D01*
X019477Y014968D01*
X019465Y015049D01*
X019435Y015139D01*
X019392Y015224D01*
X019336Y015301D01*
X019269Y015368D01*
X019193Y015424D01*
X019108Y015467D01*
X019018Y015496D01*
X018937Y015509D01*
X018937Y014968D01*
X018817Y014968D01*
X018817Y014848D01*
X018276Y014848D01*
X018299Y014736D02*
X018077Y014736D01*
X018077Y014854D02*
X018817Y014854D01*
X018817Y014736D02*
X018937Y014736D01*
X018937Y014848D02*
X018937Y014307D01*
X019018Y014320D01*
X019108Y014349D01*
X019193Y014392D01*
X019269Y014448D01*
X019336Y014515D01*
X019392Y014592D01*
X019435Y014677D01*
X019465Y014767D01*
X019477Y014848D01*
X018937Y014848D01*
X018937Y014854D02*
X026059Y014854D01*
X026059Y014736D02*
X019454Y014736D01*
X019405Y014617D02*
X026059Y014617D01*
X026059Y014499D02*
X019320Y014499D01*
X019168Y014380D02*
X026059Y014380D01*
X026059Y014262D02*
X018077Y014262D01*
X018077Y014380D02*
X018585Y014380D01*
X018433Y014499D02*
X018077Y014499D01*
X018077Y014617D02*
X018348Y014617D01*
X018817Y014617D02*
X018937Y014617D01*
X018937Y014499D02*
X018817Y014499D01*
X018817Y014380D02*
X018937Y014380D01*
X018937Y014973D02*
X018817Y014973D01*
X018817Y015091D02*
X018937Y015091D01*
X018937Y015210D02*
X018817Y015210D01*
X018817Y015328D02*
X018937Y015328D01*
X018937Y015447D02*
X018817Y015447D01*
X018605Y015447D02*
X018239Y015447D01*
X018358Y015565D02*
X026059Y015565D01*
X026059Y015447D02*
X019148Y015447D01*
X019309Y015328D02*
X026059Y015328D01*
X026059Y015210D02*
X019400Y015210D01*
X019451Y015091D02*
X026059Y015091D01*
X026059Y014973D02*
X019477Y014973D01*
X018444Y015328D02*
X018077Y015328D01*
X018077Y015210D02*
X018353Y015210D01*
X018302Y015091D02*
X018077Y015091D01*
X018414Y015684D02*
X026059Y015684D01*
X026059Y015802D02*
X018459Y015802D01*
X018459Y015921D02*
X026059Y015921D01*
X026059Y016039D02*
X018453Y016039D01*
X018404Y016158D02*
X026059Y016158D01*
X026059Y016276D02*
X018333Y016276D01*
X018214Y016395D02*
X018558Y016395D01*
X018561Y016392D02*
X018645Y016349D01*
X018735Y016320D01*
X018817Y016307D01*
X018817Y016848D01*
X018937Y016848D01*
X018937Y016968D01*
X019477Y016968D01*
X019465Y017049D01*
X019435Y017139D01*
X019392Y017224D01*
X026059Y017224D01*
X026059Y017106D02*
X019446Y017106D01*
X019474Y016987D02*
X026059Y016987D01*
X026059Y016869D02*
X018937Y016869D01*
X018937Y016848D02*
X019477Y016848D01*
X019465Y016767D01*
X019435Y016677D01*
X019392Y016592D01*
X019336Y016515D01*
X019269Y016448D01*
X019193Y016392D01*
X019108Y016349D01*
X019018Y016320D01*
X018937Y016307D01*
X018937Y016848D01*
X018937Y016750D02*
X018817Y016750D01*
X018817Y016848D02*
X018276Y016848D01*
X018288Y016767D01*
X018318Y016677D01*
X018361Y016592D01*
X018417Y016515D01*
X018484Y016448D01*
X018561Y016392D01*
X018419Y016513D02*
X017334Y016513D01*
X017336Y016515D02*
X017392Y016592D01*
X017435Y016677D01*
X017465Y016767D01*
X017477Y016848D01*
X016937Y016848D01*
X016937Y016968D01*
X017477Y016968D01*
X017465Y017049D01*
X017435Y017139D01*
X017392Y017224D01*
X018361Y017224D01*
X018318Y017139D01*
X018288Y017049D01*
X018276Y016968D01*
X018817Y016968D01*
X018817Y017509D01*
X018735Y017496D01*
X018645Y017467D01*
X018561Y017424D01*
X018484Y017368D01*
X018417Y017301D01*
X018361Y017224D01*
X018307Y017106D02*
X017446Y017106D01*
X017474Y016987D02*
X018279Y016987D01*
X018294Y016750D02*
X017459Y016750D01*
X017412Y016632D02*
X018341Y016632D01*
X018817Y016632D02*
X018937Y016632D01*
X018937Y016513D02*
X018817Y016513D01*
X018817Y016395D02*
X018937Y016395D01*
X019196Y016395D02*
X026059Y016395D01*
X026059Y016513D02*
X019334Y016513D01*
X019412Y016632D02*
X026059Y016632D01*
X026059Y016750D02*
X019459Y016750D01*
X018937Y016968D02*
X018817Y016968D01*
X018817Y016848D01*
X018817Y016869D02*
X016937Y016869D01*
X016937Y016848D02*
X016937Y016307D01*
X017018Y016320D01*
X017108Y016349D01*
X017193Y016392D01*
X017269Y016448D01*
X017336Y016515D01*
X017196Y016395D02*
X017539Y016395D01*
X017420Y016276D02*
X009694Y016276D01*
X009694Y016158D02*
X017349Y016158D01*
X017300Y016039D02*
X009694Y016039D01*
X009694Y015921D02*
X017294Y015921D01*
X017294Y015802D02*
X009694Y015802D01*
X009694Y015684D02*
X017339Y015684D01*
X017877Y015908D02*
X017877Y013487D01*
X017975Y013388D01*
X018331Y013432D02*
X035333Y013432D01*
X035333Y013314D02*
X018331Y013314D01*
X018331Y013195D02*
X035333Y013195D01*
X035333Y013077D02*
X018275Y013077D01*
X018331Y012958D02*
X035333Y012958D01*
X035333Y012840D02*
X018331Y012840D01*
X018331Y012721D02*
X035333Y012721D01*
X035333Y012603D02*
X019597Y012603D01*
X019589Y012611D02*
X019552Y012632D01*
X019512Y012643D01*
X019332Y012643D01*
X019332Y012305D01*
X019651Y012305D01*
X019651Y012504D01*
X019640Y012545D01*
X019619Y012581D01*
X019589Y012611D01*
X019651Y012484D02*
X035333Y012484D01*
X035333Y012366D02*
X019651Y012366D01*
X019332Y012366D02*
X019255Y012366D01*
X019294Y012266D02*
X019294Y011479D01*
X020180Y011479D01*
X020869Y010790D01*
X020829Y010751D01*
X020829Y009806D01*
X020830Y010470D02*
X020907Y010470D01*
X020907Y010588D02*
X020830Y010588D01*
X020830Y010707D02*
X020907Y010707D01*
X020907Y010825D02*
X026424Y010825D01*
X026412Y010837D02*
X026319Y011062D01*
X026543Y010707D02*
X021226Y010707D01*
X021226Y010588D02*
X026769Y010588D01*
X027094Y010588D02*
X029131Y010588D01*
X028905Y010707D02*
X027321Y010707D01*
X027439Y010825D02*
X028786Y010825D01*
X028730Y010944D02*
X027495Y010944D01*
X027544Y011062D02*
X027544Y011305D01*
X027445Y011536D02*
X028780Y011536D01*
X028899Y011655D02*
X027327Y011655D01*
X027109Y011773D02*
X029116Y011773D01*
X029471Y011773D02*
X035333Y011773D01*
X035333Y011655D02*
X029689Y011655D01*
X029808Y011536D02*
X035333Y011536D01*
X035333Y011418D02*
X029860Y011418D01*
X029906Y011299D02*
X035333Y011299D01*
X035333Y011181D02*
X029906Y011181D01*
X029801Y010825D02*
X035333Y010825D01*
X035333Y010707D02*
X029683Y010707D01*
X029456Y010588D02*
X035333Y010588D01*
X035333Y010470D02*
X021188Y010470D01*
X020907Y010944D02*
X020830Y010944D01*
X020830Y011062D02*
X020907Y011062D01*
X020239Y010790D02*
X020199Y010790D01*
X019845Y010790D01*
X019332Y011181D02*
X019255Y011181D01*
X019255Y011299D02*
X019332Y011299D01*
X019332Y011418D02*
X019255Y011418D01*
X019255Y011536D02*
X019332Y011536D01*
X019332Y011655D02*
X019255Y011655D01*
X019255Y011773D02*
X019332Y011773D01*
X019332Y011892D02*
X019255Y011892D01*
X019255Y012010D02*
X019332Y012010D01*
X019332Y012129D02*
X019255Y012129D01*
X019069Y011892D02*
X018251Y011892D01*
X018487Y012129D02*
X017975Y012129D01*
X017975Y012719D01*
X017618Y012721D02*
X010434Y012721D01*
X010552Y012603D02*
X017618Y012603D01*
X017618Y012484D02*
X010671Y012484D01*
X010789Y012366D02*
X017699Y012366D01*
X017658Y012247D02*
X010908Y012247D01*
X011026Y012129D02*
X017658Y012129D01*
X017658Y012010D02*
X011145Y012010D01*
X011263Y011892D02*
X017699Y011892D01*
X017658Y011773D02*
X011382Y011773D01*
X011500Y011655D02*
X017658Y011655D01*
X017658Y011536D02*
X011619Y011536D01*
X011737Y011418D02*
X017661Y011418D01*
X017775Y011299D02*
X011856Y011299D01*
X011974Y011181D02*
X017695Y011181D01*
X017658Y011062D02*
X012093Y011062D01*
X012211Y010944D02*
X017658Y010944D01*
X017658Y010825D02*
X012330Y010825D01*
X012448Y010707D02*
X017703Y010707D01*
X017975Y010947D02*
X017975Y011617D01*
X018487Y011617D01*
X018625Y011479D01*
X018288Y011299D02*
X018175Y011299D01*
X018255Y011181D02*
X018312Y011181D01*
X018938Y011181D02*
X018960Y011181D01*
X018942Y011773D02*
X018957Y011773D01*
X018487Y012129D02*
X018625Y012266D01*
X019255Y012484D02*
X019332Y012484D01*
X019332Y012603D02*
X019255Y012603D01*
X018990Y012603D02*
X018900Y012603D01*
X018349Y012603D02*
X018331Y012603D01*
X017618Y012840D02*
X010315Y012840D01*
X010197Y012958D02*
X017618Y012958D01*
X017675Y013077D02*
X010078Y013077D01*
X009644Y013461D02*
X009694Y013511D01*
X009694Y017518D01*
X009644Y017568D01*
X005637Y017568D01*
X005587Y017518D01*
X005587Y013511D01*
X005637Y013461D01*
X005707Y013461D01*
X009574Y013461D01*
X009644Y013461D01*
X009694Y013551D02*
X017618Y013551D01*
X017618Y013432D02*
X000420Y013432D01*
X000420Y013314D02*
X017618Y013314D01*
X017618Y013195D02*
X000420Y013195D01*
X000420Y013551D02*
X005587Y013551D01*
X005587Y013669D02*
X000420Y013669D01*
X000420Y013788D02*
X005587Y013788D01*
X005587Y013906D02*
X000420Y013906D01*
X000420Y014025D02*
X005587Y014025D01*
X005587Y014143D02*
X000420Y014143D01*
X000420Y014262D02*
X005587Y014262D01*
X005587Y014380D02*
X000420Y014380D01*
X000420Y014499D02*
X005587Y014499D01*
X005587Y014617D02*
X000420Y014617D01*
X000420Y014736D02*
X005587Y014736D01*
X005587Y014854D02*
X000420Y014854D01*
X000420Y014973D02*
X005587Y014973D01*
X005587Y015091D02*
X000420Y015091D01*
X000420Y015210D02*
X005587Y015210D01*
X005587Y015328D02*
X000420Y015328D01*
X000420Y015447D02*
X005587Y015447D01*
X005587Y015565D02*
X000420Y015565D01*
X000420Y015684D02*
X005587Y015684D01*
X005587Y015802D02*
X000420Y015802D01*
X000420Y015921D02*
X005587Y015921D01*
X005587Y016039D02*
X000420Y016039D01*
X000420Y016158D02*
X005587Y016158D01*
X005587Y016276D02*
X002493Y016276D01*
X002253Y016221D02*
X002735Y016331D01*
X003163Y016579D01*
X003163Y016579D01*
X003500Y016941D01*
X003500Y016941D01*
X003715Y017387D01*
X003715Y017387D01*
X003789Y017877D01*
X003715Y018366D01*
X003500Y018812D01*
X003163Y019174D01*
X002735Y019422D01*
X002253Y019532D01*
X002253Y019532D01*
X001759Y019495D01*
X001299Y019314D01*
X001225Y019256D01*
X001138Y019343D01*
X001014Y019394D01*
X000880Y019394D01*
X000757Y019343D01*
X000662Y019248D01*
X000611Y019125D01*
X000611Y018991D01*
X000662Y018867D01*
X000754Y018775D01*
X000633Y018597D01*
X000633Y018597D01*
X000487Y018124D01*
X000487Y017629D01*
X000633Y017156D01*
X000912Y016747D01*
X001299Y016439D01*
X001759Y016258D01*
X001759Y016258D01*
X002253Y016221D01*
X002253Y016221D01*
X002735Y016331D02*
X002735Y016331D01*
X002845Y016395D02*
X005587Y016395D01*
X005587Y016513D02*
X003050Y016513D01*
X003213Y016632D02*
X005587Y016632D01*
X005587Y016750D02*
X003322Y016750D01*
X003432Y016869D02*
X005587Y016869D01*
X005587Y016987D02*
X003522Y016987D01*
X003579Y017106D02*
X005587Y017106D01*
X005587Y017224D02*
X003636Y017224D01*
X003693Y017343D02*
X005587Y017343D01*
X005587Y017461D02*
X003726Y017461D01*
X003744Y017580D02*
X031998Y017580D01*
X031983Y017629D02*
X032129Y017156D01*
X032408Y016747D01*
X032795Y016439D01*
X033255Y016258D01*
X033255Y016258D01*
X033749Y016221D01*
X034231Y016331D01*
X034660Y016579D01*
X034996Y016941D01*
X035211Y017387D01*
X035285Y017877D01*
X035211Y018366D01*
X035009Y018785D01*
X035091Y018867D01*
X035143Y018991D01*
X035143Y019125D01*
X035091Y019248D01*
X034996Y019343D01*
X034873Y019394D01*
X034739Y019394D01*
X034615Y019343D01*
X034524Y019253D01*
X034231Y019422D01*
X033749Y019532D01*
X033749Y019532D01*
X033255Y019495D01*
X032795Y019314D01*
X032795Y019314D01*
X032408Y019006D01*
X032408Y019006D01*
X032129Y018597D01*
X032129Y018597D01*
X031983Y018124D01*
X031983Y017629D01*
X031983Y017698D02*
X003762Y017698D01*
X003779Y017817D02*
X031983Y017817D01*
X031983Y017935D02*
X003780Y017935D01*
X003762Y018054D02*
X031983Y018054D01*
X031998Y018172D02*
X003744Y018172D01*
X003726Y018291D02*
X032034Y018291D01*
X032071Y018409D02*
X003694Y018409D01*
X003715Y018366D02*
X003715Y018366D01*
X003637Y018528D02*
X032108Y018528D01*
X032163Y018646D02*
X003580Y018646D01*
X003523Y018765D02*
X032243Y018765D01*
X032324Y018883D02*
X003434Y018883D01*
X003500Y018812D02*
X003500Y018812D01*
X003324Y019002D02*
X032405Y019002D01*
X032551Y019120D02*
X003214Y019120D01*
X003163Y019174D02*
X003163Y019174D01*
X003052Y019239D02*
X032700Y019239D01*
X032904Y019357D02*
X002847Y019357D01*
X002735Y019422D02*
X002735Y019422D01*
X002499Y019476D02*
X033206Y019476D01*
X033255Y019495D02*
X033255Y019495D01*
X033996Y019476D02*
X035333Y019476D01*
X035333Y019594D02*
X000420Y019594D01*
X000420Y019476D02*
X001710Y019476D01*
X001759Y019495D02*
X001759Y019495D01*
X001408Y019357D02*
X001105Y019357D01*
X001299Y019314D02*
X001299Y019314D01*
X000790Y019357D02*
X000420Y019357D01*
X000420Y019239D02*
X000658Y019239D01*
X000611Y019120D02*
X000420Y019120D01*
X000420Y019002D02*
X000611Y019002D01*
X000655Y018883D02*
X000420Y018883D01*
X000420Y018765D02*
X000747Y018765D01*
X000666Y018646D02*
X000420Y018646D01*
X000420Y018528D02*
X000612Y018528D01*
X000575Y018409D02*
X000420Y018409D01*
X000420Y018291D02*
X000538Y018291D01*
X000502Y018172D02*
X000420Y018172D01*
X000420Y018054D02*
X000487Y018054D01*
X000487Y017935D02*
X000420Y017935D01*
X000420Y017817D02*
X000487Y017817D01*
X000487Y017698D02*
X000420Y017698D01*
X000420Y017580D02*
X000502Y017580D01*
X000539Y017461D02*
X000420Y017461D01*
X000420Y017343D02*
X000575Y017343D01*
X000612Y017224D02*
X000420Y017224D01*
X000420Y017106D02*
X000667Y017106D01*
X000633Y017156D02*
X000633Y017156D01*
X000748Y016987D02*
X000420Y016987D01*
X000420Y016869D02*
X000829Y016869D01*
X000910Y016750D02*
X000420Y016750D01*
X000420Y016632D02*
X001057Y016632D01*
X000912Y016747D02*
X000912Y016747D01*
X000912Y016747D01*
X001206Y016513D02*
X000420Y016513D01*
X000420Y016395D02*
X001412Y016395D01*
X001299Y016439D02*
X001299Y016439D01*
X001714Y016276D02*
X000420Y016276D01*
X000420Y019713D02*
X035333Y019713D01*
X035333Y019831D02*
X000420Y019831D01*
X000420Y019950D02*
X035333Y019950D01*
X035333Y020068D02*
X000420Y020068D01*
X000420Y020187D02*
X035333Y020187D01*
X035333Y020305D02*
X000420Y020305D01*
X000420Y020424D02*
X035333Y020424D01*
X035333Y020542D02*
X000420Y020542D01*
X000420Y020661D02*
X035333Y020661D01*
X035333Y020779D02*
X000420Y020779D01*
X000420Y020898D02*
X035333Y020898D01*
X035333Y021016D02*
X000420Y021016D01*
X000420Y021135D02*
X035333Y021135D01*
X035333Y021253D02*
X000420Y021253D01*
X000420Y021372D02*
X035333Y021372D01*
X035333Y021490D02*
X000420Y021490D01*
X000420Y021609D02*
X035333Y021609D01*
X035333Y021727D02*
X000420Y021727D01*
X000420Y021846D02*
X035333Y021846D01*
X035333Y019357D02*
X034963Y019357D01*
X035095Y019239D02*
X035333Y019239D01*
X035333Y019120D02*
X035143Y019120D01*
X035143Y019002D02*
X035333Y019002D01*
X035333Y018883D02*
X035098Y018883D01*
X035019Y018765D02*
X035333Y018765D01*
X035333Y018646D02*
X035076Y018646D01*
X035133Y018528D02*
X035333Y018528D01*
X035333Y018409D02*
X035190Y018409D01*
X035211Y018366D02*
X035211Y018366D01*
X035222Y018291D02*
X035333Y018291D01*
X035333Y018172D02*
X035240Y018172D01*
X035258Y018054D02*
X035333Y018054D01*
X035333Y017935D02*
X035276Y017935D01*
X035276Y017817D02*
X035333Y017817D01*
X035333Y017698D02*
X035258Y017698D01*
X035240Y017580D02*
X035333Y017580D01*
X035333Y017461D02*
X035222Y017461D01*
X035211Y017387D02*
X035211Y017387D01*
X035189Y017343D02*
X035333Y017343D01*
X035333Y017224D02*
X035132Y017224D01*
X035075Y017106D02*
X035333Y017106D01*
X035333Y016987D02*
X035018Y016987D01*
X034928Y016869D02*
X035333Y016869D01*
X035333Y016750D02*
X034819Y016750D01*
X034709Y016632D02*
X035333Y016632D01*
X035333Y016513D02*
X034546Y016513D01*
X034660Y016579D02*
X034660Y016579D01*
X034341Y016395D02*
X035333Y016395D01*
X035333Y016276D02*
X033989Y016276D01*
X033749Y016221D02*
X033749Y016221D01*
X033210Y016276D02*
X030166Y016276D01*
X030166Y016158D02*
X035333Y016158D01*
X035333Y016039D02*
X030166Y016039D01*
X030166Y015921D02*
X035333Y015921D01*
X035333Y015802D02*
X030166Y015802D01*
X030166Y015684D02*
X035333Y015684D01*
X035333Y015565D02*
X030166Y015565D01*
X030166Y015447D02*
X035333Y015447D01*
X035333Y015328D02*
X030166Y015328D01*
X030166Y015210D02*
X035333Y015210D01*
X035333Y015091D02*
X030166Y015091D01*
X030166Y014973D02*
X035333Y014973D01*
X035333Y014854D02*
X030166Y014854D01*
X030166Y014736D02*
X035333Y014736D01*
X035333Y014617D02*
X030166Y014617D01*
X030166Y014499D02*
X035333Y014499D01*
X035333Y014380D02*
X030166Y014380D01*
X030166Y014262D02*
X035333Y014262D01*
X035333Y014143D02*
X030166Y014143D01*
X030166Y014025D02*
X035333Y014025D01*
X035333Y013906D02*
X030166Y013906D01*
X030166Y013788D02*
X035333Y013788D01*
X035333Y013669D02*
X030166Y013669D01*
X030166Y013551D02*
X035333Y013551D01*
X032908Y016395D02*
X030166Y016395D01*
X030166Y016513D02*
X032702Y016513D01*
X032795Y016439D02*
X032795Y016439D01*
X032553Y016632D02*
X030166Y016632D01*
X030166Y016750D02*
X032406Y016750D01*
X032408Y016747D02*
X032408Y016747D01*
X032408Y016747D01*
X032325Y016869D02*
X030166Y016869D01*
X030166Y016987D02*
X032244Y016987D01*
X032164Y017106D02*
X030166Y017106D01*
X030166Y017224D02*
X032108Y017224D01*
X032129Y017156D02*
X032129Y017156D01*
X032072Y017343D02*
X030166Y017343D01*
X030166Y017461D02*
X032035Y017461D01*
X030166Y017518D02*
X030116Y017568D01*
X026109Y017568D01*
X026059Y017518D01*
X026059Y013511D01*
X026109Y013461D01*
X026179Y013461D01*
X030046Y013461D01*
X030116Y013461D01*
X030166Y013511D01*
X030166Y017518D01*
X034231Y019422D02*
X034231Y019422D01*
X034343Y019357D02*
X034648Y019357D01*
X026059Y017461D02*
X019119Y017461D01*
X019108Y017467D02*
X019018Y017496D01*
X018937Y017509D01*
X018937Y016968D01*
X018937Y016987D02*
X018817Y016987D01*
X018817Y017106D02*
X018937Y017106D01*
X018937Y017224D02*
X018817Y017224D01*
X018817Y017343D02*
X018937Y017343D01*
X018937Y017461D02*
X018817Y017461D01*
X018634Y017461D02*
X017119Y017461D01*
X017108Y017467D02*
X017018Y017496D01*
X016937Y017509D01*
X016937Y016968D01*
X016817Y016968D01*
X016817Y017509D01*
X016735Y017496D01*
X016645Y017467D01*
X016561Y017424D01*
X016484Y017368D01*
X016417Y017301D01*
X016361Y017224D01*
X009694Y017224D01*
X009694Y017106D02*
X016307Y017106D01*
X016318Y017139D02*
X016288Y017049D01*
X016276Y016968D01*
X016817Y016968D01*
X016817Y016848D01*
X016937Y016848D01*
X016937Y016750D02*
X016817Y016750D01*
X016817Y016848D02*
X016817Y016307D01*
X016735Y016320D01*
X016645Y016349D01*
X016561Y016392D01*
X016484Y016448D01*
X016417Y016515D01*
X016361Y016592D01*
X016318Y016677D01*
X016288Y016767D01*
X016276Y016848D01*
X016817Y016848D01*
X016817Y016869D02*
X009694Y016869D01*
X009694Y016987D02*
X016279Y016987D01*
X016318Y017139D02*
X016361Y017224D01*
X016458Y017343D02*
X009694Y017343D01*
X009694Y017461D02*
X016634Y017461D01*
X016817Y017461D02*
X016937Y017461D01*
X016937Y017343D02*
X016817Y017343D01*
X016817Y017224D02*
X016937Y017224D01*
X016937Y017106D02*
X016817Y017106D01*
X016817Y016987D02*
X016937Y016987D01*
X016937Y016632D02*
X016817Y016632D01*
X016817Y016513D02*
X016937Y016513D01*
X016937Y016395D02*
X016817Y016395D01*
X016558Y016395D02*
X009694Y016395D01*
X009694Y016513D02*
X016419Y016513D01*
X016341Y016632D02*
X009694Y016632D01*
X009694Y016750D02*
X016294Y016750D01*
X017108Y017467D02*
X017193Y017424D01*
X017269Y017368D01*
X017336Y017301D01*
X017392Y017224D01*
X017295Y017343D02*
X018458Y017343D01*
X019108Y017467D02*
X019193Y017424D01*
X019269Y017368D01*
X019336Y017301D01*
X019392Y017224D01*
X019295Y017343D02*
X026059Y017343D01*
X026059Y014143D02*
X018077Y014143D01*
X018077Y014025D02*
X026059Y014025D01*
X026059Y013906D02*
X018077Y013906D01*
X018077Y013788D02*
X026059Y013788D01*
X026059Y013669D02*
X018306Y013669D01*
X018331Y013551D02*
X026059Y013551D01*
X020549Y010470D02*
X020490Y010470D01*
X019550Y009747D02*
X018841Y009747D01*
X018762Y009668D01*
X019119Y009522D02*
X019262Y009522D01*
X019109Y009403D02*
X035333Y009403D01*
X035333Y009285D02*
X030132Y009285D01*
X030116Y009300D02*
X026109Y009300D01*
X026059Y009250D01*
X026059Y005243D01*
X026109Y005193D01*
X026179Y005193D01*
X030046Y005193D01*
X030116Y005193D01*
X030166Y005243D01*
X030166Y009250D01*
X030116Y009300D01*
X030166Y009166D02*
X035333Y009166D01*
X035333Y009048D02*
X030166Y009048D01*
X030166Y008929D02*
X035333Y008929D01*
X035333Y008811D02*
X030166Y008811D01*
X030166Y008692D02*
X035333Y008692D01*
X035333Y008574D02*
X030166Y008574D01*
X030166Y008455D02*
X035333Y008455D01*
X035333Y008337D02*
X030166Y008337D01*
X030166Y008218D02*
X035333Y008218D01*
X035333Y008100D02*
X030166Y008100D01*
X030166Y007981D02*
X035333Y007981D01*
X035333Y007863D02*
X030166Y007863D01*
X030166Y007744D02*
X035333Y007744D01*
X035333Y007626D02*
X030166Y007626D01*
X030166Y007507D02*
X035333Y007507D01*
X035333Y007389D02*
X030166Y007389D01*
X030166Y007270D02*
X035333Y007270D01*
X035333Y007152D02*
X030166Y007152D01*
X030166Y007033D02*
X035333Y007033D01*
X035333Y006915D02*
X030166Y006915D01*
X030166Y006796D02*
X035333Y006796D01*
X035333Y006678D02*
X030166Y006678D01*
X030166Y006559D02*
X035333Y006559D01*
X035333Y006441D02*
X030166Y006441D01*
X030166Y006322D02*
X035333Y006322D01*
X035333Y006204D02*
X030166Y006204D01*
X030166Y006085D02*
X035333Y006085D01*
X035333Y005967D02*
X030166Y005967D01*
X030166Y005848D02*
X035333Y005848D01*
X035333Y005730D02*
X030166Y005730D01*
X030166Y005611D02*
X035333Y005611D01*
X035333Y005493D02*
X030166Y005493D01*
X030166Y005374D02*
X035333Y005374D01*
X035333Y005256D02*
X030166Y005256D01*
X034050Y003715D02*
X035333Y003715D01*
X035333Y003597D02*
X034365Y003597D01*
X034570Y003478D02*
X035333Y003478D01*
X035333Y003360D02*
X034722Y003360D01*
X034832Y003241D02*
X035333Y003241D01*
X035333Y003123D02*
X034941Y003123D01*
X034996Y003064D02*
X034996Y003064D01*
X034996Y003064D01*
X035025Y003004D02*
X035333Y003004D01*
X035333Y002886D02*
X035082Y002886D01*
X035139Y002767D02*
X035333Y002767D01*
X035333Y002649D02*
X035196Y002649D01*
X035211Y002618D02*
X035211Y002618D01*
X035224Y002530D02*
X035333Y002530D01*
X035333Y002412D02*
X035242Y002412D01*
X035260Y002293D02*
X035333Y002293D01*
X035333Y002175D02*
X035278Y002175D01*
X035274Y002056D02*
X035333Y002056D01*
X035333Y001938D02*
X035256Y001938D01*
X035238Y001819D02*
X035333Y001819D01*
X035333Y001701D02*
X035220Y001701D01*
X035211Y001639D02*
X035211Y001639D01*
X035183Y001582D02*
X035333Y001582D01*
X035333Y001464D02*
X035126Y001464D01*
X035069Y001345D02*
X035333Y001345D01*
X035333Y001227D02*
X035012Y001227D01*
X035104Y001108D02*
X035333Y001108D01*
X035333Y000990D02*
X035143Y000990D01*
X035139Y000871D02*
X035333Y000871D01*
X035333Y000753D02*
X035087Y000753D01*
X034929Y000634D02*
X035333Y000634D01*
X035333Y000516D02*
X033934Y000516D01*
X033749Y000473D02*
X033749Y000473D01*
X034231Y000583D02*
X034231Y000583D01*
X034319Y000634D02*
X034682Y000634D01*
X034524Y000753D02*
X034524Y000753D01*
X033241Y000516D02*
X021814Y000516D01*
X021814Y000634D02*
X032940Y000634D01*
X032795Y000691D02*
X032795Y000691D01*
X032717Y000753D02*
X021814Y000753D01*
X021814Y000871D02*
X032569Y000871D01*
X032420Y000990D02*
X021814Y000990D01*
X021814Y001108D02*
X032334Y001108D01*
X032408Y000999D02*
X032408Y000999D01*
X032408Y000999D01*
X032253Y001227D02*
X021814Y001227D01*
X021814Y001345D02*
X032172Y001345D01*
X032129Y001408D02*
X032129Y001408D01*
X032112Y001464D02*
X021814Y001464D01*
X021814Y001582D02*
X032075Y001582D01*
X032039Y001701D02*
X021814Y001701D01*
X021814Y001819D02*
X032002Y001819D01*
X031983Y001938D02*
X021814Y001938D01*
X021814Y002056D02*
X031983Y002056D01*
X031983Y002175D02*
X021814Y002175D01*
X021814Y002293D02*
X031983Y002293D01*
X023507Y007863D02*
X020988Y007863D01*
X020870Y007981D02*
X023462Y007981D01*
X023463Y008100D02*
X020773Y008100D01*
X020773Y008218D02*
X023514Y008218D01*
X023676Y008337D02*
X020773Y008337D01*
X020307Y009166D02*
X020171Y009166D01*
X019433Y008692D02*
X018760Y008692D01*
X018672Y008574D02*
X019409Y008574D01*
X019609Y008073D02*
X019491Y008034D01*
X018612Y008455D02*
X018465Y008455D01*
X018465Y008337D02*
X018494Y008337D01*
X017877Y008821D02*
X017877Y008979D01*
X017877Y009058D01*
X017384Y009166D02*
X013989Y009166D01*
X014107Y009048D02*
X014869Y009048D01*
X014843Y008929D02*
X014226Y008929D01*
X014344Y008811D02*
X014843Y008811D01*
X014843Y008692D02*
X014463Y008692D01*
X014581Y008574D02*
X014843Y008574D01*
X014887Y008455D02*
X014700Y008455D01*
X014818Y008337D02*
X014863Y008337D01*
X015219Y008093D02*
X015278Y008034D01*
X015672Y007640D02*
X015613Y007581D01*
X015258Y007581D01*
X012562Y004884D01*
X012793Y004663D02*
X015480Y004663D01*
X015407Y004782D02*
X012865Y004782D01*
X012882Y004900D02*
X015391Y004900D01*
X015420Y005019D02*
X012979Y005019D01*
X013097Y005137D02*
X015511Y005137D01*
X015807Y005256D02*
X013216Y005256D01*
X013334Y005374D02*
X015925Y005374D01*
X016044Y005493D02*
X013453Y005493D01*
X013571Y005611D02*
X016162Y005611D01*
X016281Y005730D02*
X015828Y005730D01*
X015910Y005848D02*
X016399Y005848D01*
X016377Y005967D02*
X015933Y005967D01*
X015910Y006085D02*
X016226Y006085D01*
X016179Y006204D02*
X015829Y006204D01*
X015813Y006322D02*
X016179Y006322D01*
X016226Y006441D02*
X015813Y006441D01*
X015813Y006559D02*
X016304Y006559D01*
X016304Y006678D02*
X015969Y006678D01*
X015969Y006796D02*
X016304Y006796D01*
X016304Y006915D02*
X015969Y006915D01*
X015969Y007033D02*
X016304Y007033D01*
X016423Y007152D02*
X015969Y007152D01*
X015913Y007270D02*
X016541Y007270D01*
X016660Y007389D02*
X015969Y007389D01*
X015313Y007270D02*
X015230Y007270D01*
X015256Y007152D02*
X015112Y007152D01*
X014993Y007033D02*
X015256Y007033D01*
X015256Y006915D02*
X014875Y006915D01*
X014756Y006796D02*
X015256Y006796D01*
X015256Y006678D02*
X014638Y006678D01*
X014519Y006559D02*
X015413Y006559D01*
X015413Y006441D02*
X014401Y006441D01*
X014282Y006322D02*
X015413Y006322D01*
X015397Y006204D02*
X014164Y006204D01*
X014045Y006085D02*
X015315Y006085D01*
X015293Y005967D02*
X013927Y005967D01*
X013808Y005848D02*
X015316Y005848D01*
X015398Y005730D02*
X013690Y005730D01*
X012362Y005137D02*
X000420Y005137D01*
X000420Y005019D02*
X012271Y005019D01*
X011408Y003370D02*
X011211Y003451D01*
X010998Y003451D01*
X010801Y003370D01*
X010651Y003219D01*
X010569Y003022D01*
X010569Y002809D01*
X010651Y002613D01*
X010801Y002462D01*
X010998Y002380D01*
X011211Y002380D01*
X011408Y002462D01*
X011559Y002613D01*
X011640Y002809D01*
X011640Y003022D01*
X011559Y003219D01*
X011408Y003370D01*
X011419Y003360D02*
X016069Y003360D01*
X016187Y003478D02*
X003074Y003478D01*
X003163Y003426D02*
X002735Y003674D01*
X002253Y003784D01*
X002253Y003784D01*
X001759Y003747D01*
X001299Y003566D01*
X001299Y003566D01*
X000912Y003258D01*
X000912Y003258D01*
X000633Y002849D01*
X000487Y002376D01*
X000487Y001881D01*
X000633Y001408D01*
X000754Y001230D01*
X000662Y001138D01*
X000611Y001014D01*
X000611Y000880D01*
X000662Y000757D01*
X000757Y000662D01*
X000880Y000611D01*
X001014Y000611D01*
X001138Y000662D01*
X001225Y000749D01*
X001299Y000691D01*
X001759Y000510D01*
X001759Y000510D01*
X002253Y000473D01*
X002735Y000583D01*
X003163Y000831D01*
X003163Y000831D01*
X003500Y001193D01*
X003500Y001193D01*
X003715Y001639D01*
X003715Y001639D01*
X003789Y002129D01*
X003715Y002618D01*
X003500Y003064D01*
X003163Y003426D01*
X003163Y003426D01*
X003226Y003360D02*
X010791Y003360D01*
X010673Y003241D02*
X003335Y003241D01*
X003445Y003123D02*
X010611Y003123D01*
X010569Y003004D02*
X003529Y003004D01*
X003500Y003064D02*
X003500Y003064D01*
X003586Y002886D02*
X010569Y002886D01*
X010587Y002767D02*
X003643Y002767D01*
X003700Y002649D02*
X010636Y002649D01*
X010733Y002530D02*
X003728Y002530D01*
X003715Y002618D02*
X003715Y002618D01*
X003746Y002412D02*
X010923Y002412D01*
X011287Y002412D02*
X021420Y002412D01*
X021420Y002530D02*
X011476Y002530D01*
X011574Y002649D02*
X012376Y002649D01*
X012277Y002767D02*
X011623Y002767D01*
X011640Y002886D02*
X012242Y002886D01*
X012252Y003004D02*
X011640Y003004D01*
X011599Y003123D02*
X012316Y003123D01*
X012562Y002916D02*
X015908Y002916D01*
X017483Y004491D01*
X016661Y003952D02*
X000420Y003952D01*
X000420Y003834D02*
X016543Y003834D01*
X016424Y003715D02*
X002554Y003715D01*
X002735Y003674D02*
X002735Y003674D01*
X002869Y003597D02*
X016306Y003597D01*
X016516Y003241D02*
X021420Y003241D01*
X021420Y003123D02*
X016397Y003123D01*
X016279Y003004D02*
X021420Y003004D01*
X021420Y002886D02*
X016160Y002886D01*
X016042Y002767D02*
X021420Y002767D01*
X021420Y002649D02*
X012747Y002649D01*
X012808Y003123D02*
X015832Y003123D01*
X015950Y003241D02*
X011537Y003241D01*
X015613Y005967D02*
X015613Y006912D01*
X017148Y008034D02*
X017148Y008034D01*
X016845Y008218D02*
X016197Y008218D01*
X016315Y008100D02*
X016781Y008100D01*
X016781Y008337D02*
X015576Y008337D01*
X015551Y008455D02*
X016769Y008455D01*
X016803Y008574D02*
X015596Y008574D01*
X015596Y008692D02*
X016901Y008692D01*
X017163Y008811D02*
X015596Y008811D01*
X015596Y008801D02*
X015596Y008980D01*
X015585Y009021D01*
X015564Y009057D01*
X015534Y009087D01*
X015497Y009108D01*
X015457Y009119D01*
X015257Y009119D01*
X015257Y008801D01*
X015596Y008801D01*
X015596Y008929D02*
X017165Y008929D01*
X017217Y009048D02*
X015569Y009048D01*
X015257Y009048D02*
X015181Y009048D01*
X015181Y008929D02*
X015257Y008929D01*
X015257Y008811D02*
X015181Y008811D01*
X015219Y008762D02*
X015219Y009609D01*
X015317Y009707D01*
X015869Y009707D01*
X015907Y009759D02*
X015830Y009759D01*
X015830Y009877D02*
X015907Y009877D01*
X015907Y009996D02*
X015830Y009996D01*
X015528Y009996D02*
X013159Y009996D01*
X013041Y010114D02*
X016870Y010114D01*
X016870Y010233D02*
X012922Y010233D01*
X012804Y010351D02*
X016870Y010351D01*
X016886Y010470D02*
X012685Y010470D01*
X012567Y010588D02*
X017234Y010588D01*
X017365Y010436D02*
X017188Y010258D01*
X017365Y010436D02*
X017975Y010436D01*
X018664Y010436D01*
X018762Y010337D01*
X019119Y010114D02*
X019233Y010114D01*
X019286Y009996D02*
X019046Y009996D01*
X018655Y009285D02*
X026093Y009285D01*
X017644Y013669D02*
X009694Y013669D01*
X009694Y013788D02*
X017677Y013788D01*
X017677Y013906D02*
X009694Y013906D01*
X009694Y014025D02*
X017677Y014025D01*
X017677Y014143D02*
X009694Y014143D01*
X008821Y012168D02*
X008821Y011479D01*
X006259Y011892D02*
X000420Y011892D01*
X000420Y012010D02*
X006178Y012010D01*
X006139Y012129D02*
X000420Y012129D01*
X000420Y012247D02*
X006146Y012247D01*
X006204Y012366D02*
X000420Y012366D01*
X000420Y011773D02*
X006240Y011773D01*
X006162Y011655D02*
X000420Y011655D01*
X000420Y009877D02*
X012884Y009877D01*
X013002Y009759D02*
X000420Y009759D01*
X000420Y009640D02*
X013121Y009640D01*
X013239Y009522D02*
X000420Y009522D01*
X000420Y009166D02*
X005587Y009166D01*
X005587Y009048D02*
X000420Y009048D01*
X000420Y008929D02*
X005587Y008929D01*
X005587Y008811D02*
X000420Y008811D01*
X000420Y008692D02*
X005587Y008692D01*
X005587Y008574D02*
X000420Y008574D01*
X000420Y008455D02*
X005587Y008455D01*
X005587Y008337D02*
X000420Y008337D01*
X000420Y008218D02*
X005587Y008218D01*
X005587Y008100D02*
X000420Y008100D01*
X000420Y007981D02*
X005587Y007981D01*
X005587Y007863D02*
X000420Y007863D01*
X000420Y007744D02*
X005587Y007744D01*
X005587Y007626D02*
X000420Y007626D01*
X000420Y007507D02*
X005587Y007507D01*
X005587Y007389D02*
X000420Y007389D01*
X000420Y007270D02*
X005587Y007270D01*
X005587Y007152D02*
X000420Y007152D01*
X000420Y007033D02*
X005587Y007033D01*
X005587Y006915D02*
X000420Y006915D01*
X000420Y006796D02*
X005587Y006796D01*
X005587Y006678D02*
X000420Y006678D01*
X000420Y006559D02*
X005587Y006559D01*
X005587Y006441D02*
X000420Y006441D01*
X000420Y006322D02*
X005587Y006322D01*
X005587Y006204D02*
X000420Y006204D01*
X000420Y006085D02*
X005587Y006085D01*
X005587Y005967D02*
X000420Y005967D01*
X000420Y005848D02*
X005587Y005848D01*
X005587Y005730D02*
X000420Y005730D01*
X000420Y005611D02*
X005587Y005611D01*
X005587Y005493D02*
X000420Y005493D01*
X000420Y005374D02*
X005587Y005374D01*
X005587Y005256D02*
X000420Y005256D01*
X000420Y003715D02*
X001678Y003715D01*
X001759Y003747D02*
X001759Y003747D01*
X001376Y003597D02*
X000420Y003597D01*
X000420Y003478D02*
X001188Y003478D01*
X001039Y003360D02*
X000420Y003360D01*
X000420Y003241D02*
X000900Y003241D01*
X000820Y003123D02*
X000420Y003123D01*
X000420Y003004D02*
X000739Y003004D01*
X000658Y002886D02*
X000420Y002886D01*
X000420Y002767D02*
X000608Y002767D01*
X000571Y002649D02*
X000420Y002649D01*
X000420Y002530D02*
X000535Y002530D01*
X000498Y002412D02*
X000420Y002412D01*
X000420Y002293D02*
X000487Y002293D01*
X000487Y002175D02*
X000420Y002175D01*
X000420Y002056D02*
X000487Y002056D01*
X000487Y001938D02*
X000420Y001938D01*
X000420Y001819D02*
X000506Y001819D01*
X000543Y001701D02*
X000420Y001701D01*
X000420Y001582D02*
X000579Y001582D01*
X000616Y001464D02*
X000420Y001464D01*
X000420Y001345D02*
X000676Y001345D01*
X000750Y001227D02*
X000420Y001227D01*
X000420Y001108D02*
X000649Y001108D01*
X000611Y000990D02*
X000420Y000990D01*
X000420Y000871D02*
X000614Y000871D01*
X000666Y000753D02*
X000420Y000753D01*
X000420Y000634D02*
X000824Y000634D01*
X001071Y000634D02*
X001443Y000634D01*
X001299Y000691D02*
X001299Y000691D01*
X001745Y000516D02*
X000420Y000516D01*
X002253Y000473D02*
X002253Y000473D01*
X002438Y000516D02*
X021420Y000516D01*
X021420Y000634D02*
X002823Y000634D01*
X002735Y000583D02*
X002735Y000583D01*
X003028Y000753D02*
X021420Y000753D01*
X021420Y000871D02*
X003201Y000871D01*
X003311Y000990D02*
X021420Y000990D01*
X021420Y001108D02*
X003421Y001108D01*
X003516Y001227D02*
X021420Y001227D01*
X021420Y001345D02*
X003573Y001345D01*
X003630Y001464D02*
X021420Y001464D01*
X021420Y001582D02*
X003687Y001582D01*
X003724Y001701D02*
X021420Y001701D01*
X021420Y001819D02*
X003742Y001819D01*
X003760Y001938D02*
X021420Y001938D01*
X021420Y002056D02*
X003778Y002056D01*
X003782Y002175D02*
X021420Y002175D01*
X021420Y002293D02*
X003764Y002293D01*
X013870Y009285D02*
X017374Y009285D01*
X017255Y009403D02*
X016845Y009403D01*
X017148Y009707D02*
X016538Y009707D01*
X016231Y009403D02*
X016200Y009403D01*
X015907Y009403D02*
X015830Y009403D01*
X015830Y009522D02*
X015907Y009522D01*
X015907Y009640D02*
X015830Y009640D01*
X015512Y009640D02*
X013515Y009640D01*
X013633Y009522D02*
X015512Y009522D01*
X015538Y009403D02*
X013752Y009403D01*
X013396Y009759D02*
X015512Y009759D01*
X015512Y009877D02*
X013278Y009877D01*
X016209Y009996D02*
X016215Y009996D01*
X016861Y009996D02*
X016924Y009996D01*
X017188Y009747D02*
X017148Y009707D01*
D740*
X017483Y008861D03*
X017089Y008428D03*
X018467Y008821D03*
X019097Y007975D03*
X019097Y007247D03*
X018664Y006853D03*
X019845Y006656D03*
X021026Y007050D03*
X021558Y007640D03*
X022995Y007247D03*
X023782Y008034D03*
X020829Y009806D03*
X016302Y007247D03*
X016499Y006262D03*
X015613Y005967D03*
X015711Y004884D03*
X016105Y004491D03*
X016892Y004491D03*
X017483Y004491D03*
X017877Y005573D03*
X019254Y004884D03*
X018861Y004491D03*
X022404Y004491D03*
X023979Y004491D03*
X015317Y009707D03*
X008821Y010199D03*
X006459Y010199D03*
X006459Y012168D03*
X008821Y012168D03*
X012562Y004884D03*
X011774Y004491D03*
X013743Y004491D03*
X014924Y004491D03*
X012562Y002916D03*
D741*
X015711Y004884D02*
X017483Y006656D01*
X017483Y006912D01*
X017680Y006912D02*
X017680Y006459D01*
X016105Y004884D01*
X016105Y004491D01*
X017483Y005278D02*
X017483Y005869D01*
X017877Y006262D01*
X017877Y006912D01*
X018073Y006912D02*
X018073Y006518D01*
X018467Y006125D01*
X018467Y006459D02*
X018900Y006459D01*
X019254Y006105D01*
X018467Y006459D02*
X018270Y006656D01*
X018270Y006912D01*
X018605Y006912D02*
X018605Y007247D01*
X018605Y007443D02*
X018900Y007443D01*
X019097Y007247D01*
X018605Y007640D02*
X019884Y007640D01*
X020239Y007286D01*
X020239Y007247D01*
X019097Y007975D02*
X018959Y007837D01*
X018605Y007837D01*
X018605Y008034D02*
X018605Y008172D01*
X018782Y008349D01*
X019333Y008349D01*
X019609Y008073D01*
X018467Y008821D02*
X018270Y008625D01*
X018270Y008369D01*
X018073Y008369D02*
X018073Y008979D01*
X018762Y009668D01*
X017877Y009058D02*
X017188Y009747D01*
X017483Y008861D02*
X017680Y008664D01*
X017680Y008369D01*
X017877Y008369D02*
X017877Y008821D01*
X017483Y008369D02*
X017148Y008369D01*
X017089Y008428D01*
X017148Y008034D02*
X016597Y008034D01*
X015869Y008762D01*
X015869Y009707D01*
X016105Y008034D02*
X015278Y008034D01*
X015672Y007640D02*
X017148Y007640D01*
X017148Y007443D02*
X016499Y007443D01*
X016302Y007247D01*
X016499Y006951D02*
X016499Y006262D01*
X016499Y006951D02*
X016794Y007247D01*
X017148Y007247D01*
X017148Y007837D02*
X016302Y007837D01*
X016105Y008034D01*
X017148Y008034D02*
X017483Y008034D01*
X017877Y007640D01*
X017483Y005278D02*
X018270Y004491D01*
X018861Y004491D01*
M02*
