%
M48
M72
T01C0.0200
T02C0.0551
T03C0.0591
T04C0.0630
T05C0.1299
%
T01
X11774Y4491
X12562Y4884
X13743Y4491
X14924Y4491
X15711Y4884
X16105Y4491
X16892Y4491
X17483Y4491
X17877Y5573
X19254Y4884
X18861Y4491
X16499Y6262
X15613Y5967
X16302Y7247
X17089Y8428
X17483Y8861
X18467Y8821
X19097Y7975
X19097Y7247
X18664Y6853
X19845Y6656
X21026Y7050
X21558Y7640
X22995Y7247
X23782Y8034
X20829Y9806
X15317Y9707
X8821Y10199
X6459Y10199
X6459Y12168
X8821Y12168
X22404Y4491
X23979Y4491
X12562Y2916
T02
X11105Y2916
X24648Y2916
T03
X18877Y14908
X17877Y15908
X18877Y16908
X16877Y16908
X16877Y14908
T04
X26932Y11184
X29294Y11184
T05
X2129Y2129
X2129Y17877
X33625Y17877
X33625Y2129
M30
