G75*
G70*
%OFA0B0*%
%FSLAX24Y24*%
%IPPOS*%
%LPD*%
%AMOC8*
5,1,8,0,0,1.08239X$1,22.5*
%
%ADD10C,0.0060*%
%ADD11C,0.0080*%
%ADD12C,0.0050*%
%ADD13C,0.0220*%
%ADD14R,0.0320X0.0200*%
%ADD15R,0.0060X0.0160*%
%ADD16R,0.0098X0.0098*%
D10*
X000779Y002129D02*
X000781Y002202D01*
X000787Y002275D01*
X000797Y002347D01*
X000811Y002419D01*
X000828Y002490D01*
X000850Y002560D01*
X000875Y002629D01*
X000904Y002696D01*
X000936Y002761D01*
X000972Y002825D01*
X001012Y002887D01*
X001054Y002946D01*
X001100Y003003D01*
X001149Y003057D01*
X001201Y003109D01*
X001255Y003158D01*
X001312Y003204D01*
X001371Y003246D01*
X001433Y003286D01*
X001497Y003322D01*
X001562Y003354D01*
X001629Y003383D01*
X001698Y003408D01*
X001768Y003430D01*
X001839Y003447D01*
X001911Y003461D01*
X001983Y003471D01*
X002056Y003477D01*
X002129Y003479D01*
X002202Y003477D01*
X002275Y003471D01*
X002347Y003461D01*
X002419Y003447D01*
X002490Y003430D01*
X002560Y003408D01*
X002629Y003383D01*
X002696Y003354D01*
X002761Y003322D01*
X002825Y003286D01*
X002887Y003246D01*
X002946Y003204D01*
X003003Y003158D01*
X003057Y003109D01*
X003109Y003057D01*
X003158Y003003D01*
X003204Y002946D01*
X003246Y002887D01*
X003286Y002825D01*
X003322Y002761D01*
X003354Y002696D01*
X003383Y002629D01*
X003408Y002560D01*
X003430Y002490D01*
X003447Y002419D01*
X003461Y002347D01*
X003471Y002275D01*
X003477Y002202D01*
X003479Y002129D01*
X003477Y002056D01*
X003471Y001983D01*
X003461Y001911D01*
X003447Y001839D01*
X003430Y001768D01*
X003408Y001698D01*
X003383Y001629D01*
X003354Y001562D01*
X003322Y001497D01*
X003286Y001433D01*
X003246Y001371D01*
X003204Y001312D01*
X003158Y001255D01*
X003109Y001201D01*
X003057Y001149D01*
X003003Y001100D01*
X002946Y001054D01*
X002887Y001012D01*
X002825Y000972D01*
X002761Y000936D01*
X002696Y000904D01*
X002629Y000875D01*
X002560Y000850D01*
X002490Y000828D01*
X002419Y000811D01*
X002347Y000797D01*
X002275Y000787D01*
X002202Y000781D01*
X002129Y000779D01*
X002056Y000781D01*
X001983Y000787D01*
X001911Y000797D01*
X001839Y000811D01*
X001768Y000828D01*
X001698Y000850D01*
X001629Y000875D01*
X001562Y000904D01*
X001497Y000936D01*
X001433Y000972D01*
X001371Y001012D01*
X001312Y001054D01*
X001255Y001100D01*
X001201Y001149D01*
X001149Y001201D01*
X001100Y001255D01*
X001054Y001312D01*
X001012Y001371D01*
X000972Y001433D01*
X000936Y001497D01*
X000904Y001562D01*
X000875Y001629D01*
X000850Y001698D01*
X000828Y001768D01*
X000811Y001839D01*
X000797Y001911D01*
X000787Y001983D01*
X000781Y002056D01*
X000779Y002129D01*
X004324Y010820D02*
X004324Y011460D01*
X004644Y011460D01*
X004751Y011354D01*
X004751Y011140D01*
X004644Y011033D01*
X004324Y011033D01*
X004537Y011033D02*
X004751Y010820D01*
X004968Y010820D02*
X005395Y011460D01*
X004968Y011460D02*
X005395Y010820D01*
X009639Y011460D02*
X010066Y011460D01*
X009852Y011460D02*
X009852Y010820D01*
X010283Y010820D02*
X010710Y011460D01*
X010283Y011460D02*
X010710Y010820D01*
X000779Y017877D02*
X000781Y017950D01*
X000787Y018023D01*
X000797Y018095D01*
X000811Y018167D01*
X000828Y018238D01*
X000850Y018308D01*
X000875Y018377D01*
X000904Y018444D01*
X000936Y018509D01*
X000972Y018573D01*
X001012Y018635D01*
X001054Y018694D01*
X001100Y018751D01*
X001149Y018805D01*
X001201Y018857D01*
X001255Y018906D01*
X001312Y018952D01*
X001371Y018994D01*
X001433Y019034D01*
X001497Y019070D01*
X001562Y019102D01*
X001629Y019131D01*
X001698Y019156D01*
X001768Y019178D01*
X001839Y019195D01*
X001911Y019209D01*
X001983Y019219D01*
X002056Y019225D01*
X002129Y019227D01*
X002202Y019225D01*
X002275Y019219D01*
X002347Y019209D01*
X002419Y019195D01*
X002490Y019178D01*
X002560Y019156D01*
X002629Y019131D01*
X002696Y019102D01*
X002761Y019070D01*
X002825Y019034D01*
X002887Y018994D01*
X002946Y018952D01*
X003003Y018906D01*
X003057Y018857D01*
X003109Y018805D01*
X003158Y018751D01*
X003204Y018694D01*
X003246Y018635D01*
X003286Y018573D01*
X003322Y018509D01*
X003354Y018444D01*
X003383Y018377D01*
X003408Y018308D01*
X003430Y018238D01*
X003447Y018167D01*
X003461Y018095D01*
X003471Y018023D01*
X003477Y017950D01*
X003479Y017877D01*
X003477Y017804D01*
X003471Y017731D01*
X003461Y017659D01*
X003447Y017587D01*
X003430Y017516D01*
X003408Y017446D01*
X003383Y017377D01*
X003354Y017310D01*
X003322Y017245D01*
X003286Y017181D01*
X003246Y017119D01*
X003204Y017060D01*
X003158Y017003D01*
X003109Y016949D01*
X003057Y016897D01*
X003003Y016848D01*
X002946Y016802D01*
X002887Y016760D01*
X002825Y016720D01*
X002761Y016684D01*
X002696Y016652D01*
X002629Y016623D01*
X002560Y016598D01*
X002490Y016576D01*
X002419Y016559D01*
X002347Y016545D01*
X002275Y016535D01*
X002202Y016529D01*
X002129Y016527D01*
X002056Y016529D01*
X001983Y016535D01*
X001911Y016545D01*
X001839Y016559D01*
X001768Y016576D01*
X001698Y016598D01*
X001629Y016623D01*
X001562Y016652D01*
X001497Y016684D01*
X001433Y016720D01*
X001371Y016760D01*
X001312Y016802D01*
X001255Y016848D01*
X001201Y016897D01*
X001149Y016949D01*
X001100Y017003D01*
X001054Y017060D01*
X001012Y017119D01*
X000972Y017181D01*
X000936Y017245D01*
X000904Y017310D01*
X000875Y017377D01*
X000850Y017446D01*
X000828Y017516D01*
X000811Y017587D01*
X000797Y017659D01*
X000787Y017731D01*
X000781Y017804D01*
X000779Y017877D01*
X024796Y011460D02*
X024796Y010820D01*
X024796Y011033D02*
X025117Y011033D01*
X025223Y011140D01*
X025223Y011354D01*
X025117Y011460D01*
X024796Y011460D01*
X025010Y011033D02*
X025223Y010820D01*
X025441Y010820D02*
X025868Y011460D01*
X025441Y011460D02*
X025868Y010820D01*
X030111Y011460D02*
X030538Y011460D01*
X030325Y011460D02*
X030325Y010820D01*
X030756Y010820D02*
X031183Y011460D01*
X030756Y011460D02*
X031183Y010820D01*
X032275Y017877D02*
X032277Y017950D01*
X032283Y018023D01*
X032293Y018095D01*
X032307Y018167D01*
X032324Y018238D01*
X032346Y018308D01*
X032371Y018377D01*
X032400Y018444D01*
X032432Y018509D01*
X032468Y018573D01*
X032508Y018635D01*
X032550Y018694D01*
X032596Y018751D01*
X032645Y018805D01*
X032697Y018857D01*
X032751Y018906D01*
X032808Y018952D01*
X032867Y018994D01*
X032929Y019034D01*
X032993Y019070D01*
X033058Y019102D01*
X033125Y019131D01*
X033194Y019156D01*
X033264Y019178D01*
X033335Y019195D01*
X033407Y019209D01*
X033479Y019219D01*
X033552Y019225D01*
X033625Y019227D01*
X033698Y019225D01*
X033771Y019219D01*
X033843Y019209D01*
X033915Y019195D01*
X033986Y019178D01*
X034056Y019156D01*
X034125Y019131D01*
X034192Y019102D01*
X034257Y019070D01*
X034321Y019034D01*
X034383Y018994D01*
X034442Y018952D01*
X034499Y018906D01*
X034553Y018857D01*
X034605Y018805D01*
X034654Y018751D01*
X034700Y018694D01*
X034742Y018635D01*
X034782Y018573D01*
X034818Y018509D01*
X034850Y018444D01*
X034879Y018377D01*
X034904Y018308D01*
X034926Y018238D01*
X034943Y018167D01*
X034957Y018095D01*
X034967Y018023D01*
X034973Y017950D01*
X034975Y017877D01*
X034973Y017804D01*
X034967Y017731D01*
X034957Y017659D01*
X034943Y017587D01*
X034926Y017516D01*
X034904Y017446D01*
X034879Y017377D01*
X034850Y017310D01*
X034818Y017245D01*
X034782Y017181D01*
X034742Y017119D01*
X034700Y017060D01*
X034654Y017003D01*
X034605Y016949D01*
X034553Y016897D01*
X034499Y016848D01*
X034442Y016802D01*
X034383Y016760D01*
X034321Y016720D01*
X034257Y016684D01*
X034192Y016652D01*
X034125Y016623D01*
X034056Y016598D01*
X033986Y016576D01*
X033915Y016559D01*
X033843Y016545D01*
X033771Y016535D01*
X033698Y016529D01*
X033625Y016527D01*
X033552Y016529D01*
X033479Y016535D01*
X033407Y016545D01*
X033335Y016559D01*
X033264Y016576D01*
X033194Y016598D01*
X033125Y016623D01*
X033058Y016652D01*
X032993Y016684D01*
X032929Y016720D01*
X032867Y016760D01*
X032808Y016802D01*
X032751Y016848D01*
X032697Y016897D01*
X032645Y016949D01*
X032596Y017003D01*
X032550Y017060D01*
X032508Y017119D01*
X032468Y017181D01*
X032432Y017245D01*
X032400Y017310D01*
X032371Y017377D01*
X032346Y017446D01*
X032324Y017516D01*
X032307Y017587D01*
X032293Y017659D01*
X032283Y017731D01*
X032277Y017804D01*
X032275Y017877D01*
X032275Y002129D02*
X032277Y002202D01*
X032283Y002275D01*
X032293Y002347D01*
X032307Y002419D01*
X032324Y002490D01*
X032346Y002560D01*
X032371Y002629D01*
X032400Y002696D01*
X032432Y002761D01*
X032468Y002825D01*
X032508Y002887D01*
X032550Y002946D01*
X032596Y003003D01*
X032645Y003057D01*
X032697Y003109D01*
X032751Y003158D01*
X032808Y003204D01*
X032867Y003246D01*
X032929Y003286D01*
X032993Y003322D01*
X033058Y003354D01*
X033125Y003383D01*
X033194Y003408D01*
X033264Y003430D01*
X033335Y003447D01*
X033407Y003461D01*
X033479Y003471D01*
X033552Y003477D01*
X033625Y003479D01*
X033698Y003477D01*
X033771Y003471D01*
X033843Y003461D01*
X033915Y003447D01*
X033986Y003430D01*
X034056Y003408D01*
X034125Y003383D01*
X034192Y003354D01*
X034257Y003322D01*
X034321Y003286D01*
X034383Y003246D01*
X034442Y003204D01*
X034499Y003158D01*
X034553Y003109D01*
X034605Y003057D01*
X034654Y003003D01*
X034700Y002946D01*
X034742Y002887D01*
X034782Y002825D01*
X034818Y002761D01*
X034850Y002696D01*
X034879Y002629D01*
X034904Y002560D01*
X034926Y002490D01*
X034943Y002419D01*
X034957Y002347D01*
X034967Y002275D01*
X034973Y002202D01*
X034975Y002129D01*
X034973Y002056D01*
X034967Y001983D01*
X034957Y001911D01*
X034943Y001839D01*
X034926Y001768D01*
X034904Y001698D01*
X034879Y001629D01*
X034850Y001562D01*
X034818Y001497D01*
X034782Y001433D01*
X034742Y001371D01*
X034700Y001312D01*
X034654Y001255D01*
X034605Y001201D01*
X034553Y001149D01*
X034499Y001100D01*
X034442Y001054D01*
X034383Y001012D01*
X034321Y000972D01*
X034257Y000936D01*
X034192Y000904D01*
X034125Y000875D01*
X034056Y000850D01*
X033986Y000828D01*
X033915Y000811D01*
X033843Y000797D01*
X033771Y000787D01*
X033698Y000781D01*
X033625Y000779D01*
X033552Y000781D01*
X033479Y000787D01*
X033407Y000797D01*
X033335Y000811D01*
X033264Y000828D01*
X033194Y000850D01*
X033125Y000875D01*
X033058Y000904D01*
X032993Y000936D01*
X032929Y000972D01*
X032867Y001012D01*
X032808Y001054D01*
X032751Y001100D01*
X032697Y001149D01*
X032645Y001201D01*
X032596Y001255D01*
X032550Y001312D01*
X032508Y001371D01*
X032468Y001433D01*
X032432Y001497D01*
X032400Y001562D01*
X032371Y001629D01*
X032346Y001698D01*
X032324Y001768D01*
X032307Y001839D01*
X032293Y001911D01*
X032283Y001983D01*
X032277Y002056D01*
X032275Y002129D01*
D11*
X001440Y002129D02*
X001442Y002181D01*
X001448Y002233D01*
X001458Y002284D01*
X001471Y002334D01*
X001489Y002384D01*
X001510Y002431D01*
X001534Y002477D01*
X001563Y002521D01*
X001594Y002563D01*
X001628Y002602D01*
X001665Y002639D01*
X001705Y002672D01*
X001748Y002703D01*
X001792Y002730D01*
X001838Y002754D01*
X001887Y002774D01*
X001936Y002790D01*
X001987Y002803D01*
X002038Y002812D01*
X002090Y002817D01*
X002142Y002818D01*
X002194Y002815D01*
X002246Y002808D01*
X002297Y002797D01*
X002347Y002783D01*
X002396Y002764D01*
X002443Y002742D01*
X002488Y002717D01*
X002532Y002688D01*
X002573Y002656D01*
X002612Y002621D01*
X002647Y002583D01*
X002680Y002542D01*
X002710Y002500D01*
X002736Y002455D01*
X002759Y002408D01*
X002778Y002359D01*
X002794Y002309D01*
X002806Y002259D01*
X002814Y002207D01*
X002818Y002155D01*
X002818Y002103D01*
X002814Y002051D01*
X002806Y001999D01*
X002794Y001949D01*
X002778Y001899D01*
X002759Y001850D01*
X002736Y001803D01*
X002710Y001758D01*
X002680Y001716D01*
X002647Y001675D01*
X002612Y001637D01*
X002573Y001602D01*
X002532Y001570D01*
X002488Y001541D01*
X002443Y001516D01*
X002396Y001494D01*
X002347Y001475D01*
X002297Y001461D01*
X002246Y001450D01*
X002194Y001443D01*
X002142Y001440D01*
X002090Y001441D01*
X002038Y001446D01*
X001987Y001455D01*
X001936Y001468D01*
X001887Y001484D01*
X001838Y001504D01*
X001792Y001528D01*
X001748Y001555D01*
X001705Y001586D01*
X001665Y001619D01*
X001628Y001656D01*
X001594Y001695D01*
X001563Y001737D01*
X001534Y001781D01*
X001510Y001827D01*
X001489Y001874D01*
X001471Y001924D01*
X001458Y001974D01*
X001448Y002025D01*
X001442Y002077D01*
X001440Y002129D01*
X017443Y014697D02*
X018310Y014697D01*
X019087Y015475D02*
X019087Y016341D01*
X018310Y017119D02*
X017443Y017119D01*
X016666Y016341D02*
X016666Y015475D01*
X017208Y015908D02*
X017210Y015959D01*
X017216Y016010D01*
X017226Y016060D01*
X017239Y016110D01*
X017257Y016158D01*
X017277Y016205D01*
X017302Y016250D01*
X017330Y016293D01*
X017361Y016334D01*
X017395Y016372D01*
X017432Y016407D01*
X017471Y016440D01*
X017513Y016470D01*
X017557Y016496D01*
X017603Y016518D01*
X017651Y016538D01*
X017700Y016553D01*
X017750Y016565D01*
X017800Y016573D01*
X017851Y016577D01*
X017903Y016577D01*
X017954Y016573D01*
X018004Y016565D01*
X018054Y016553D01*
X018103Y016538D01*
X018151Y016518D01*
X018197Y016496D01*
X018241Y016470D01*
X018283Y016440D01*
X018322Y016407D01*
X018359Y016372D01*
X018393Y016334D01*
X018424Y016293D01*
X018452Y016250D01*
X018477Y016205D01*
X018497Y016158D01*
X018515Y016110D01*
X018528Y016060D01*
X018538Y016010D01*
X018544Y015959D01*
X018546Y015908D01*
X018544Y015857D01*
X018538Y015806D01*
X018528Y015756D01*
X018515Y015706D01*
X018497Y015658D01*
X018477Y015611D01*
X018452Y015566D01*
X018424Y015523D01*
X018393Y015482D01*
X018359Y015444D01*
X018322Y015409D01*
X018283Y015376D01*
X018241Y015346D01*
X018197Y015320D01*
X018151Y015298D01*
X018103Y015278D01*
X018054Y015263D01*
X018004Y015251D01*
X017954Y015243D01*
X017903Y015239D01*
X017851Y015239D01*
X017800Y015243D01*
X017750Y015251D01*
X017700Y015263D01*
X017651Y015278D01*
X017603Y015298D01*
X017557Y015320D01*
X017513Y015346D01*
X017471Y015376D01*
X017432Y015409D01*
X017395Y015444D01*
X017361Y015482D01*
X017330Y015523D01*
X017302Y015566D01*
X017277Y015611D01*
X017257Y015658D01*
X017239Y015706D01*
X017226Y015756D01*
X017216Y015806D01*
X017210Y015857D01*
X017208Y015908D01*
X001440Y017877D02*
X001442Y017929D01*
X001448Y017981D01*
X001458Y018032D01*
X001471Y018082D01*
X001489Y018132D01*
X001510Y018179D01*
X001534Y018225D01*
X001563Y018269D01*
X001594Y018311D01*
X001628Y018350D01*
X001665Y018387D01*
X001705Y018420D01*
X001748Y018451D01*
X001792Y018478D01*
X001838Y018502D01*
X001887Y018522D01*
X001936Y018538D01*
X001987Y018551D01*
X002038Y018560D01*
X002090Y018565D01*
X002142Y018566D01*
X002194Y018563D01*
X002246Y018556D01*
X002297Y018545D01*
X002347Y018531D01*
X002396Y018512D01*
X002443Y018490D01*
X002488Y018465D01*
X002532Y018436D01*
X002573Y018404D01*
X002612Y018369D01*
X002647Y018331D01*
X002680Y018290D01*
X002710Y018248D01*
X002736Y018203D01*
X002759Y018156D01*
X002778Y018107D01*
X002794Y018057D01*
X002806Y018007D01*
X002814Y017955D01*
X002818Y017903D01*
X002818Y017851D01*
X002814Y017799D01*
X002806Y017747D01*
X002794Y017697D01*
X002778Y017647D01*
X002759Y017598D01*
X002736Y017551D01*
X002710Y017506D01*
X002680Y017464D01*
X002647Y017423D01*
X002612Y017385D01*
X002573Y017350D01*
X002532Y017318D01*
X002488Y017289D01*
X002443Y017264D01*
X002396Y017242D01*
X002347Y017223D01*
X002297Y017209D01*
X002246Y017198D01*
X002194Y017191D01*
X002142Y017188D01*
X002090Y017189D01*
X002038Y017194D01*
X001987Y017203D01*
X001936Y017216D01*
X001887Y017232D01*
X001838Y017252D01*
X001792Y017276D01*
X001748Y017303D01*
X001705Y017334D01*
X001665Y017367D01*
X001628Y017404D01*
X001594Y017443D01*
X001563Y017485D01*
X001534Y017529D01*
X001510Y017575D01*
X001489Y017622D01*
X001471Y017672D01*
X001458Y017722D01*
X001448Y017773D01*
X001442Y017825D01*
X001440Y017877D01*
X032936Y017877D02*
X032938Y017929D01*
X032944Y017981D01*
X032954Y018032D01*
X032967Y018082D01*
X032985Y018132D01*
X033006Y018179D01*
X033030Y018225D01*
X033059Y018269D01*
X033090Y018311D01*
X033124Y018350D01*
X033161Y018387D01*
X033201Y018420D01*
X033244Y018451D01*
X033288Y018478D01*
X033334Y018502D01*
X033383Y018522D01*
X033432Y018538D01*
X033483Y018551D01*
X033534Y018560D01*
X033586Y018565D01*
X033638Y018566D01*
X033690Y018563D01*
X033742Y018556D01*
X033793Y018545D01*
X033843Y018531D01*
X033892Y018512D01*
X033939Y018490D01*
X033984Y018465D01*
X034028Y018436D01*
X034069Y018404D01*
X034108Y018369D01*
X034143Y018331D01*
X034176Y018290D01*
X034206Y018248D01*
X034232Y018203D01*
X034255Y018156D01*
X034274Y018107D01*
X034290Y018057D01*
X034302Y018007D01*
X034310Y017955D01*
X034314Y017903D01*
X034314Y017851D01*
X034310Y017799D01*
X034302Y017747D01*
X034290Y017697D01*
X034274Y017647D01*
X034255Y017598D01*
X034232Y017551D01*
X034206Y017506D01*
X034176Y017464D01*
X034143Y017423D01*
X034108Y017385D01*
X034069Y017350D01*
X034028Y017318D01*
X033984Y017289D01*
X033939Y017264D01*
X033892Y017242D01*
X033843Y017223D01*
X033793Y017209D01*
X033742Y017198D01*
X033690Y017191D01*
X033638Y017188D01*
X033586Y017189D01*
X033534Y017194D01*
X033483Y017203D01*
X033432Y017216D01*
X033383Y017232D01*
X033334Y017252D01*
X033288Y017276D01*
X033244Y017303D01*
X033201Y017334D01*
X033161Y017367D01*
X033124Y017404D01*
X033090Y017443D01*
X033059Y017485D01*
X033030Y017529D01*
X033006Y017575D01*
X032985Y017622D01*
X032967Y017672D01*
X032954Y017722D01*
X032944Y017773D01*
X032938Y017825D01*
X032936Y017877D01*
X032936Y002129D02*
X032938Y002181D01*
X032944Y002233D01*
X032954Y002284D01*
X032967Y002334D01*
X032985Y002384D01*
X033006Y002431D01*
X033030Y002477D01*
X033059Y002521D01*
X033090Y002563D01*
X033124Y002602D01*
X033161Y002639D01*
X033201Y002672D01*
X033244Y002703D01*
X033288Y002730D01*
X033334Y002754D01*
X033383Y002774D01*
X033432Y002790D01*
X033483Y002803D01*
X033534Y002812D01*
X033586Y002817D01*
X033638Y002818D01*
X033690Y002815D01*
X033742Y002808D01*
X033793Y002797D01*
X033843Y002783D01*
X033892Y002764D01*
X033939Y002742D01*
X033984Y002717D01*
X034028Y002688D01*
X034069Y002656D01*
X034108Y002621D01*
X034143Y002583D01*
X034176Y002542D01*
X034206Y002500D01*
X034232Y002455D01*
X034255Y002408D01*
X034274Y002359D01*
X034290Y002309D01*
X034302Y002259D01*
X034310Y002207D01*
X034314Y002155D01*
X034314Y002103D01*
X034310Y002051D01*
X034302Y001999D01*
X034290Y001949D01*
X034274Y001899D01*
X034255Y001850D01*
X034232Y001803D01*
X034206Y001758D01*
X034176Y001716D01*
X034143Y001675D01*
X034108Y001637D01*
X034069Y001602D01*
X034028Y001570D01*
X033984Y001541D01*
X033939Y001516D01*
X033892Y001494D01*
X033843Y001475D01*
X033793Y001461D01*
X033742Y001450D01*
X033690Y001443D01*
X033638Y001440D01*
X033586Y001441D01*
X033534Y001446D01*
X033483Y001455D01*
X033432Y001468D01*
X033383Y001484D01*
X033334Y001504D01*
X033288Y001528D01*
X033244Y001555D01*
X033201Y001586D01*
X033161Y001619D01*
X033124Y001656D01*
X033090Y001695D01*
X033059Y001737D01*
X033030Y001781D01*
X033006Y001827D01*
X032985Y001874D01*
X032967Y001924D01*
X032954Y001974D01*
X032944Y002025D01*
X032938Y002077D01*
X032936Y002129D01*
D12*
X019235Y008132D02*
X019136Y008034D01*
X019136Y008231D01*
X019235Y008132D01*
X017286Y006656D02*
X017188Y006754D01*
X017188Y006558D01*
X017286Y006656D01*
D13*
X018455Y005770D02*
X018479Y005770D01*
X019242Y005770D02*
X019266Y005770D01*
X020672Y006447D02*
X020672Y006471D01*
X020239Y008809D02*
X020239Y008833D01*
X018774Y010003D02*
X018750Y010003D01*
X020534Y010778D02*
X020534Y010802D01*
X018959Y011467D02*
X018959Y011491D01*
X018959Y012254D02*
X018959Y012278D01*
X017987Y013054D02*
X017963Y013054D01*
X016203Y009719D02*
X016203Y009695D01*
D14*
X015219Y008428D03*
X015613Y007247D03*
D15*
X017098Y010003D03*
X017278Y010003D03*
X017885Y010691D03*
X018065Y010691D03*
X019460Y010003D03*
X019640Y010003D03*
X018065Y011873D03*
X017885Y011873D03*
D16*
X008821Y011134D03*
X006459Y011134D03*
M02*
