G75*
G70*
%OFA0B0*%
%FSLAX24Y24*%
%IPPOS*%
%LPD*%
%AMOC8*
5,1,8,0,0,1.08239X$1,22.5*
%
%ADD10R,0.0434X0.0473*%
%ADD11C,0.0780*%
%ADD12R,0.0473X0.0434*%
%ADD13C,0.0985*%
%ADD14C,0.0591*%
%ADD15R,0.1379X0.0631*%
%ADD16R,0.1418X0.0434*%
%ADD17C,0.0410*%
%ADD18C,0.1339*%
%ADD19C,0.1240*%
%ADD20C,0.1045*%
%ADD21C,0.0212*%
%ADD22C,0.0394*%
%ADD23C,0.0220*%
D10*
X009472Y007346D03*
X010142Y007346D03*
X010142Y008134D03*
X009472Y008134D03*
X009256Y009118D03*
X008586Y009118D03*
X007779Y009216D03*
X007110Y009216D03*
X007110Y010004D03*
X007779Y010004D03*
X012031Y008232D03*
X012701Y008232D03*
X014295Y010988D03*
X014964Y010988D03*
X014964Y011775D03*
X014295Y011775D03*
X017445Y013744D03*
X018114Y013744D03*
X017838Y014630D03*
X018508Y014630D03*
X018921Y013055D03*
X019590Y013055D03*
X022563Y013449D03*
X023232Y013449D03*
X023744Y013449D03*
X024413Y013449D03*
X024334Y012169D03*
X025004Y012169D03*
X024315Y011382D03*
X023646Y011382D03*
X023646Y010594D03*
X024315Y010594D03*
X026401Y012563D03*
X027071Y012563D03*
X027583Y012563D03*
X028252Y012563D03*
X019590Y010594D03*
X018921Y010594D03*
X014669Y014039D03*
X014000Y014039D03*
X015771Y015319D03*
X016441Y015319D03*
X011716Y015319D03*
X011047Y015319D03*
X011126Y014531D03*
X010457Y014531D03*
X005023Y020240D03*
X004354Y020240D03*
X003252Y020240D03*
X002583Y020240D03*
X017740Y007051D03*
X018409Y007051D03*
X033094Y020437D03*
X033764Y020437D03*
D11*
X004886Y007318D03*
X004886Y006178D03*
X002523Y006232D03*
X002523Y007232D03*
X002523Y008232D03*
D12*
X010397Y009275D03*
X010791Y008665D03*
X011185Y009275D03*
X011185Y009945D03*
X010397Y009945D03*
X010791Y007996D03*
X010791Y007484D03*
X010791Y006815D03*
X015614Y010358D03*
X015614Y011027D03*
X015614Y011539D03*
X015614Y012209D03*
X017484Y011913D03*
X017484Y011244D03*
X019551Y011244D03*
X020338Y011323D03*
X019551Y011913D03*
X020338Y010653D03*
X021126Y010457D03*
X021913Y010457D03*
X021913Y011126D03*
X021126Y011126D03*
X017189Y014590D03*
X017189Y015260D03*
X015516Y014669D03*
X015516Y014000D03*
D13*
X014925Y012760D03*
X009610Y015614D03*
X022799Y018173D03*
X022799Y019543D03*
X026441Y013547D03*
X028508Y013547D03*
X027523Y008331D03*
X027523Y006067D03*
X024374Y006067D03*
X021224Y006067D03*
X018075Y006067D03*
X014925Y006067D03*
X011775Y006067D03*
D14*
X011106Y002917D03*
X024649Y002917D03*
D15*
X033153Y005929D03*
X033153Y008567D03*
X033153Y011441D03*
X033153Y014079D03*
D16*
X030968Y013153D03*
X030968Y012366D03*
X030968Y007642D03*
X030968Y006854D03*
D17*
X002523Y011222D03*
X002523Y012722D03*
D18*
X002130Y002130D03*
X002130Y017878D03*
X033626Y017878D03*
X033626Y002130D03*
D19*
X029177Y017275D03*
X027327Y017275D03*
X025476Y017275D03*
X019846Y017484D03*
X017996Y018665D03*
X019846Y019846D03*
D20*
X024728Y021027D03*
X029925Y021027D03*
D21*
X023980Y015516D03*
X021618Y015220D03*
X020535Y015516D03*
X018173Y013252D03*
X016795Y013646D03*
X016106Y014728D03*
X016795Y015712D03*
X014728Y016008D03*
X013842Y016008D03*
X009216Y014531D03*
X008134Y014138D03*
X009216Y013449D03*
X007248Y010397D03*
X009610Y008626D03*
X011579Y008232D03*
X013055Y007642D03*
X016205Y007642D03*
X019354Y007642D03*
X022504Y007642D03*
X025653Y007642D03*
X023783Y010201D03*
X024768Y010594D03*
X025063Y011382D03*
X026047Y011874D03*
X029098Y010988D03*
X029492Y013153D03*
X022405Y010496D03*
X020732Y012563D03*
X020732Y012957D03*
X020142Y012760D03*
X018567Y011086D03*
X013842Y011775D03*
X007937Y005968D03*
X013744Y004295D03*
X014925Y004590D03*
X016894Y004295D03*
X019256Y004295D03*
X022405Y004295D03*
X023980Y004295D03*
X023980Y001539D03*
X022405Y001539D03*
X013744Y001539D03*
X011775Y001539D03*
X004098Y010988D03*
X004098Y011480D03*
X003803Y020240D03*
D22*
X006657Y019649D03*
X007445Y019256D03*
X008626Y019649D03*
X007445Y017287D03*
X015023Y010397D03*
X016205Y010102D03*
X017386Y008232D03*
X014236Y008232D03*
X020535Y008626D03*
X022307Y008626D03*
X025457Y008232D03*
X019453Y013941D03*
D23*
X020338Y013646D03*
X020634Y013646D03*
X021224Y013646D03*
X021520Y013842D03*
X021815Y013646D03*
X022012Y013153D03*
X022799Y012563D03*
X023783Y012169D03*
X025457Y012169D03*
X025945Y012563D03*
X024866Y013449D03*
X023094Y014039D03*
X022012Y014236D03*
X021224Y014138D03*
X020732Y014728D03*
X018567Y013449D03*
X016992Y012268D03*
X016303Y012957D03*
X015811Y012858D03*
X016303Y014000D03*
X016106Y014334D03*
X014138Y015023D03*
X013449Y014433D03*
X012858Y015023D03*
X011775Y014236D03*
X012071Y013055D03*
X011185Y013153D03*
X010988Y012169D03*
X010594Y012169D03*
X010201Y012169D03*
X009807Y012169D03*
X009020Y012169D03*
X008429Y011972D03*
X007543Y011972D03*
X007543Y012366D03*
X007248Y011382D03*
X007543Y011185D03*
X008331Y010201D03*
X008232Y009807D03*
X008232Y009118D03*
X008921Y008429D03*
X009807Y009118D03*
X010201Y008823D03*
X011579Y007937D03*
X011283Y007051D03*
X011283Y006657D03*
X010299Y006460D03*
X008823Y006657D03*
X007051Y006854D03*
X005279Y008527D03*
X005870Y011185D03*
X002523Y011972D03*
X000949Y011480D03*
X000949Y010988D03*
X005378Y014531D03*
X005870Y015122D03*
X008724Y014138D03*
X009610Y013449D03*
X010004Y013941D03*
X010988Y016008D03*
X012464Y016008D03*
X015614Y016008D03*
X013153Y012661D03*
X012957Y012169D03*
X012563Y012169D03*
X011972Y011579D03*
X010988Y010988D03*
X010988Y010397D03*
X010397Y010397D03*
X010201Y010988D03*
X011874Y010496D03*
X011972Y010791D03*
X011775Y009610D03*
X014236Y006067D03*
X014138Y004590D03*
X014531Y004295D03*
X015319Y004295D03*
X015712Y004590D03*
X016106Y004295D03*
X016500Y004590D03*
X017287Y004590D03*
X017681Y004295D03*
X018075Y004590D03*
X018468Y004295D03*
X018862Y004590D03*
X016894Y005279D03*
X016205Y006067D03*
X018075Y010201D03*
X017484Y010791D03*
X016894Y010594D03*
X017976Y012071D03*
X020043Y011972D03*
X020437Y011775D03*
X020929Y011480D03*
X021421Y011677D03*
X021027Y011874D03*
X021913Y011480D03*
X023783Y009807D03*
X026441Y011283D03*
X026933Y009807D03*
X027130Y009512D03*
X027327Y009807D03*
X028705Y010988D03*
X029492Y010988D03*
X029492Y012563D03*
X029098Y012563D03*
X028705Y012563D03*
X029492Y006854D03*
X032445Y020437D03*
X032445Y021421D03*
X034512Y020929D03*
X004984Y020929D03*
X002622Y020929D03*
M02*
