G75*
G70*
%OFA0B0*%
%FSLAX24Y24*%
%IPPOS*%
%LPD*%
%AMOC8*
5,1,8,0,0,1.08239X$1,22.5*
%
%ADD10C,0.0080*%
%ADD11C,0.0040*%
%ADD12C,0.0060*%
%ADD13R,0.0200X0.0320*%
%ADD14C,0.0220*%
%ADD15R,0.0320X0.0200*%
%ADD16C,0.0050*%
D10*
X005476Y016303D02*
X005476Y021027D01*
X019059Y021027D01*
X019059Y016303D01*
X005476Y016303D01*
X033232Y009610D02*
X033626Y009610D01*
X033035Y009610D02*
X033037Y009649D01*
X033043Y009688D01*
X033053Y009726D01*
X033066Y009763D01*
X033083Y009798D01*
X033103Y009832D01*
X033127Y009863D01*
X033154Y009892D01*
X033183Y009918D01*
X033215Y009941D01*
X033249Y009961D01*
X033285Y009977D01*
X033322Y009989D01*
X033361Y009998D01*
X033400Y010003D01*
X033439Y010004D01*
X033478Y010001D01*
X033517Y009994D01*
X033554Y009983D01*
X033591Y009969D01*
X033626Y009951D01*
X033659Y009930D01*
X033690Y009905D01*
X033718Y009878D01*
X033743Y009848D01*
X033765Y009815D01*
X033784Y009781D01*
X033799Y009745D01*
X033811Y009707D01*
X033819Y009669D01*
X033823Y009630D01*
X033823Y009590D01*
X033819Y009551D01*
X033811Y009513D01*
X033799Y009475D01*
X033784Y009439D01*
X033765Y009405D01*
X033743Y009372D01*
X033718Y009342D01*
X033690Y009315D01*
X033659Y009290D01*
X033626Y009269D01*
X033591Y009251D01*
X033554Y009237D01*
X033517Y009226D01*
X033478Y009219D01*
X033439Y009216D01*
X033400Y009217D01*
X033361Y009222D01*
X033322Y009231D01*
X033285Y009243D01*
X033249Y009259D01*
X033215Y009279D01*
X033183Y009302D01*
X033154Y009328D01*
X033127Y009357D01*
X033103Y009388D01*
X033083Y009422D01*
X033066Y009457D01*
X033053Y009494D01*
X033043Y009532D01*
X033037Y009571D01*
X033035Y009610D01*
X033429Y009413D02*
X033429Y009807D01*
X033429Y005083D02*
X033429Y004689D01*
X033035Y004886D02*
X033037Y004925D01*
X033043Y004964D01*
X033053Y005002D01*
X033066Y005039D01*
X033083Y005074D01*
X033103Y005108D01*
X033127Y005139D01*
X033154Y005168D01*
X033183Y005194D01*
X033215Y005217D01*
X033249Y005237D01*
X033285Y005253D01*
X033322Y005265D01*
X033361Y005274D01*
X033400Y005279D01*
X033439Y005280D01*
X033478Y005277D01*
X033517Y005270D01*
X033554Y005259D01*
X033591Y005245D01*
X033626Y005227D01*
X033659Y005206D01*
X033690Y005181D01*
X033718Y005154D01*
X033743Y005124D01*
X033765Y005091D01*
X033784Y005057D01*
X033799Y005021D01*
X033811Y004983D01*
X033819Y004945D01*
X033823Y004906D01*
X033823Y004866D01*
X033819Y004827D01*
X033811Y004789D01*
X033799Y004751D01*
X033784Y004715D01*
X033765Y004681D01*
X033743Y004648D01*
X033718Y004618D01*
X033690Y004591D01*
X033659Y004566D01*
X033626Y004545D01*
X033591Y004527D01*
X033554Y004513D01*
X033517Y004502D01*
X033478Y004495D01*
X033439Y004492D01*
X033400Y004493D01*
X033361Y004498D01*
X033322Y004507D01*
X033285Y004519D01*
X033249Y004535D01*
X033215Y004555D01*
X033183Y004578D01*
X033154Y004604D01*
X033127Y004633D01*
X033103Y004664D01*
X033083Y004698D01*
X033066Y004733D01*
X033053Y004770D01*
X033043Y004808D01*
X033037Y004847D01*
X033035Y004886D01*
D11*
X032523Y009335D02*
X032293Y009335D01*
X032216Y009411D01*
X032216Y009488D01*
X032293Y009565D01*
X032523Y009565D01*
X032293Y009565D02*
X032216Y009642D01*
X032216Y009718D01*
X032293Y009795D01*
X032523Y009795D01*
X032523Y009335D01*
X032063Y009335D02*
X032063Y009642D01*
X031909Y009795D01*
X031756Y009642D01*
X031756Y009335D01*
X031756Y009565D02*
X032063Y009565D01*
X031602Y009795D02*
X031296Y009795D01*
X031449Y009795D02*
X031449Y009335D01*
X031402Y014847D02*
X031249Y015000D01*
X031096Y014847D01*
X031096Y015307D01*
X031402Y015307D02*
X031402Y014847D01*
X031556Y014923D02*
X031633Y014847D01*
X031786Y014847D01*
X031863Y014923D01*
X031786Y015077D02*
X031863Y015154D01*
X031863Y015230D01*
X031786Y015307D01*
X031633Y015307D01*
X031556Y015230D01*
X031633Y015077D02*
X031556Y015000D01*
X031556Y014923D01*
X031633Y015077D02*
X031786Y015077D01*
X032477Y015077D02*
X032553Y015000D01*
X032784Y015000D01*
X032784Y014847D02*
X032784Y015307D01*
X032553Y015307D01*
X032477Y015230D01*
X032477Y015077D01*
X032630Y015000D02*
X032477Y014847D01*
X032937Y014847D02*
X032937Y015307D01*
X033244Y015307D02*
X033244Y014847D01*
X033090Y015000D01*
X032937Y014847D01*
X033397Y015077D02*
X033474Y015000D01*
X033704Y015000D01*
X033704Y014847D02*
X033704Y015307D01*
X033474Y015307D01*
X033397Y015230D01*
X033397Y015077D01*
X018153Y016815D02*
X018153Y017275D01*
X018076Y017122D02*
X017923Y017122D01*
X017846Y017045D01*
X017846Y016815D01*
X017616Y016892D02*
X017539Y016815D01*
X017616Y016892D02*
X017616Y017199D01*
X017693Y017122D02*
X017539Y017122D01*
X017386Y017122D02*
X017232Y017122D01*
X017309Y017199D02*
X017309Y016892D01*
X017232Y016815D01*
X017079Y016815D02*
X016849Y016815D01*
X016772Y016892D01*
X016772Y017045D01*
X016849Y017122D01*
X017079Y017122D01*
X017079Y016662D01*
X016619Y016815D02*
X016619Y016892D01*
X016542Y016892D01*
X016542Y016815D01*
X016619Y016815D01*
X016619Y017045D02*
X016619Y017122D01*
X016542Y017122D01*
X016542Y017045D01*
X016619Y017045D01*
X016388Y016815D02*
X016082Y017275D01*
X015621Y017275D02*
X015928Y016815D01*
X015468Y016815D02*
X015468Y017122D01*
X015391Y017122D01*
X015314Y017045D01*
X015238Y017122D01*
X015161Y017045D01*
X015161Y016815D01*
X015314Y016815D02*
X015314Y017045D01*
X015007Y016892D02*
X014931Y016815D01*
X014700Y016815D01*
X014700Y017045D01*
X014777Y017122D01*
X014931Y017122D01*
X014931Y016969D02*
X014700Y016969D01*
X014547Y016969D02*
X014394Y017122D01*
X014317Y017122D01*
X014163Y017122D02*
X014087Y017122D01*
X014010Y017045D01*
X013933Y017122D01*
X013856Y017045D01*
X013856Y016815D01*
X014010Y016815D02*
X014010Y017045D01*
X014163Y017122D02*
X014163Y016815D01*
X014547Y016815D02*
X014547Y017122D01*
X014931Y016969D02*
X015007Y016892D01*
X013703Y016892D02*
X013626Y016815D01*
X013473Y016815D01*
X013396Y016892D01*
X013396Y017045D01*
X013473Y017122D01*
X013626Y017122D01*
X013703Y017045D01*
X013703Y016892D01*
X013243Y017122D02*
X013089Y017122D01*
X013166Y017199D02*
X013166Y016892D01*
X013089Y016815D01*
X012936Y016892D02*
X012936Y017045D01*
X012859Y017122D01*
X012706Y017122D01*
X012629Y017045D01*
X012629Y016969D01*
X012936Y016969D01*
X012936Y016892D02*
X012859Y016815D01*
X012706Y016815D01*
X012475Y016815D02*
X012475Y016892D01*
X012399Y016892D01*
X012399Y016815D01*
X012475Y016815D01*
X012245Y016892D02*
X012169Y016815D01*
X011938Y016815D01*
X011938Y016738D02*
X011938Y017122D01*
X012169Y017122D01*
X012245Y017045D01*
X012245Y016892D01*
X012092Y016662D02*
X012015Y016662D01*
X011938Y016738D01*
X011785Y016892D02*
X011708Y016815D01*
X011555Y016815D01*
X011478Y016892D01*
X011478Y017045D01*
X011555Y017122D01*
X011708Y017122D01*
X011785Y017045D01*
X011785Y016892D01*
X011325Y016892D02*
X011248Y016815D01*
X011094Y016815D01*
X011018Y016892D01*
X011018Y017045D01*
X011094Y017122D01*
X011248Y017122D01*
X011325Y017045D01*
X011325Y016892D01*
X010864Y016892D02*
X010788Y016815D01*
X010557Y016815D01*
X010557Y016738D02*
X010557Y017122D01*
X010788Y017122D01*
X010864Y017045D01*
X010864Y016892D01*
X010711Y016662D02*
X010634Y016662D01*
X010557Y016738D01*
X010404Y016815D02*
X010250Y016815D01*
X010327Y016815D02*
X010327Y017275D01*
X010404Y017275D01*
X010097Y017045D02*
X010020Y017122D01*
X009867Y017122D01*
X009790Y017045D01*
X009790Y016969D01*
X010097Y016969D01*
X010097Y017045D02*
X010097Y016892D01*
X010020Y016815D01*
X009867Y016815D01*
X009637Y016892D02*
X009560Y016815D01*
X009330Y016815D01*
X009176Y016892D02*
X009100Y016815D01*
X008946Y016815D01*
X008869Y016892D01*
X008869Y017045D01*
X008946Y017122D01*
X009100Y017122D01*
X009176Y017045D01*
X009176Y016892D01*
X009330Y017122D02*
X009560Y017122D01*
X009637Y017045D01*
X009637Y016892D01*
X008716Y016892D02*
X008639Y016815D01*
X008409Y016815D01*
X008409Y017275D01*
X008409Y017122D02*
X008639Y017122D01*
X008716Y017045D01*
X008716Y016892D01*
X008256Y016892D02*
X008256Y017045D01*
X008179Y017122D01*
X008025Y017122D01*
X007949Y017045D01*
X007949Y016969D01*
X008256Y016969D01*
X008256Y016892D02*
X008179Y016815D01*
X008025Y016815D01*
X007795Y016815D02*
X007795Y016892D01*
X007719Y016892D01*
X007719Y016815D01*
X007795Y016815D01*
X007565Y016892D02*
X007488Y016815D01*
X007258Y016815D01*
X007105Y016892D02*
X007028Y016815D01*
X006875Y016815D01*
X006798Y016892D01*
X006798Y017045D01*
X006875Y017122D01*
X007028Y017122D01*
X007105Y017045D01*
X007105Y016892D01*
X007258Y017122D02*
X007488Y017122D01*
X007565Y017045D01*
X007565Y016892D01*
X006644Y016815D02*
X006644Y017122D01*
X006568Y017122D01*
X006491Y017045D01*
X006414Y017122D01*
X006337Y017045D01*
X006337Y016815D01*
X006491Y016815D02*
X006491Y017045D01*
X007425Y017799D02*
X007425Y018030D01*
X007501Y018106D01*
X007578Y018030D01*
X007578Y017799D01*
X007732Y017799D02*
X007732Y018106D01*
X007655Y018106D01*
X007578Y018030D01*
X007885Y018106D02*
X007962Y018106D01*
X008115Y017953D01*
X008115Y018106D02*
X008115Y017799D01*
X008269Y017876D02*
X008269Y018030D01*
X008345Y018106D01*
X008499Y018106D01*
X008576Y018030D01*
X008576Y017876D01*
X008499Y017799D01*
X008345Y017799D01*
X008269Y017876D01*
X008729Y018030D02*
X008883Y018030D01*
X009036Y018106D02*
X009189Y018106D01*
X009113Y018183D02*
X009113Y017876D01*
X009036Y017799D01*
X008806Y017799D02*
X008806Y018183D01*
X008729Y018260D01*
X008772Y018685D02*
X008542Y018685D01*
X008542Y019146D01*
X008542Y018992D02*
X008772Y018992D01*
X008849Y018915D01*
X008849Y018762D01*
X008772Y018685D01*
X009003Y018762D02*
X009003Y018915D01*
X009079Y018992D01*
X009233Y018992D01*
X009309Y018915D01*
X009309Y018762D01*
X009233Y018685D01*
X009079Y018685D01*
X009003Y018762D01*
X009463Y018685D02*
X009463Y018915D01*
X009540Y018992D01*
X009616Y018915D01*
X009616Y018685D01*
X009770Y018685D02*
X009770Y018992D01*
X009693Y018992D01*
X009616Y018915D01*
X009880Y018260D02*
X009880Y017799D01*
X009957Y017799D02*
X009803Y017799D01*
X009650Y017876D02*
X009573Y017953D01*
X009343Y017953D01*
X009343Y018030D02*
X009343Y017799D01*
X009573Y017799D01*
X009650Y017876D01*
X009573Y018106D02*
X009420Y018106D01*
X009343Y018030D01*
X009880Y018260D02*
X009957Y018260D01*
X010187Y018106D02*
X010110Y018030D01*
X010110Y017876D01*
X010187Y017799D01*
X010417Y017799D01*
X010417Y017646D02*
X010417Y018106D01*
X010187Y018106D01*
X010384Y018685D02*
X010460Y018762D01*
X010460Y019069D01*
X010537Y018992D02*
X010384Y018992D01*
X010691Y018915D02*
X010691Y018685D01*
X010691Y018915D02*
X010767Y018992D01*
X010997Y018992D01*
X010997Y018685D01*
X011151Y018839D02*
X011458Y018839D01*
X011458Y018915D02*
X011381Y018992D01*
X011228Y018992D01*
X011151Y018915D01*
X011151Y018839D01*
X011228Y018685D02*
X011381Y018685D01*
X011458Y018762D01*
X011458Y018915D01*
X011611Y018915D02*
X011611Y018685D01*
X011765Y018685D02*
X011765Y018915D01*
X011688Y018992D01*
X011611Y018915D01*
X011765Y018915D02*
X011841Y018992D01*
X011918Y018992D01*
X011918Y018685D01*
X012072Y018839D02*
X012379Y018839D01*
X012379Y018915D02*
X012302Y018992D01*
X012148Y018992D01*
X012072Y018915D01*
X012072Y018839D01*
X012148Y018685D02*
X012302Y018685D01*
X012379Y018762D01*
X012379Y018915D01*
X012532Y018992D02*
X012532Y018609D01*
X012609Y018532D01*
X012685Y018532D01*
X012762Y018685D02*
X012532Y018685D01*
X012762Y018685D02*
X012839Y018762D01*
X012839Y018915D01*
X012762Y018992D01*
X012532Y018992D01*
X012992Y018915D02*
X012992Y018685D01*
X013223Y018685D01*
X013299Y018762D01*
X013223Y018839D01*
X012992Y018839D01*
X012992Y018915D02*
X013069Y018992D01*
X013223Y018992D01*
X013453Y018915D02*
X013453Y018685D01*
X013453Y018915D02*
X013529Y018992D01*
X013760Y018992D01*
X013760Y018685D01*
X013913Y018685D02*
X014143Y018685D01*
X014220Y018762D01*
X014143Y018839D01*
X013913Y018839D01*
X013913Y018915D02*
X013913Y018685D01*
X013913Y018915D02*
X013990Y018992D01*
X014143Y018992D01*
X014373Y018915D02*
X014373Y018685D01*
X014527Y018685D02*
X014527Y018915D01*
X014450Y018992D01*
X014373Y018915D01*
X014527Y018915D02*
X014604Y018992D01*
X014680Y018992D01*
X014680Y018685D01*
X014714Y018106D02*
X014560Y018106D01*
X014483Y018030D01*
X014483Y017953D01*
X014790Y017953D01*
X014790Y017876D02*
X014790Y018030D01*
X014714Y018106D01*
X014944Y018030D02*
X014944Y017799D01*
X014790Y017876D02*
X014714Y017799D01*
X014560Y017799D01*
X014944Y018030D02*
X015021Y018106D01*
X015174Y018106D01*
X015251Y018030D01*
X015404Y018106D02*
X015558Y018106D01*
X015481Y018183D02*
X015481Y017876D01*
X015404Y017799D01*
X015251Y017799D02*
X015251Y018260D01*
X015524Y018685D02*
X015524Y018992D01*
X015524Y018839D02*
X015371Y018992D01*
X015294Y018992D01*
X015678Y018915D02*
X015678Y018839D01*
X015985Y018839D01*
X015985Y018915D02*
X015908Y018992D01*
X015754Y018992D01*
X015678Y018915D01*
X015754Y018685D02*
X015908Y018685D01*
X015985Y018762D01*
X015985Y018915D01*
X016138Y018992D02*
X016138Y018762D01*
X016215Y018685D01*
X016292Y018762D01*
X016368Y018685D01*
X016445Y018762D01*
X016445Y018992D01*
X016598Y018915D02*
X016675Y018992D01*
X016829Y018992D01*
X016905Y018915D01*
X016905Y018762D01*
X016829Y018685D01*
X016675Y018685D01*
X016598Y018762D01*
X016598Y018915D01*
X017059Y018915D02*
X017059Y019069D01*
X017136Y019146D01*
X017366Y019146D01*
X017366Y018685D01*
X017366Y018839D02*
X017136Y018839D01*
X017059Y018915D01*
X017015Y018260D02*
X017092Y018183D01*
X017092Y017799D01*
X016862Y017876D02*
X016785Y017799D01*
X016632Y017799D01*
X016555Y017876D01*
X016555Y018030D01*
X016632Y018106D01*
X016785Y018106D01*
X016862Y018030D01*
X016862Y017876D01*
X017015Y018030D02*
X017169Y018030D01*
X016402Y018106D02*
X016402Y017799D01*
X016402Y017953D02*
X016248Y018106D01*
X016171Y018106D01*
X018076Y017122D02*
X018153Y017045D01*
X013870Y017799D02*
X013870Y018260D01*
X013716Y018106D01*
X013563Y018260D01*
X013563Y017799D01*
X013409Y017876D02*
X013333Y017953D01*
X013102Y017953D01*
X013102Y018030D02*
X013102Y017799D01*
X013333Y017799D01*
X013409Y017876D01*
X013333Y018106D02*
X013179Y018106D01*
X013102Y018030D01*
X012949Y018106D02*
X012949Y017799D01*
X012949Y017953D02*
X012796Y018106D01*
X012719Y018106D01*
X012565Y018106D02*
X012489Y018106D01*
X012412Y018030D01*
X012335Y018106D01*
X012258Y018030D01*
X012258Y017799D01*
X012412Y017799D02*
X012412Y018030D01*
X012565Y018106D02*
X012565Y017799D01*
X012105Y017876D02*
X012028Y017799D01*
X011875Y017799D01*
X011798Y017876D01*
X011798Y018030D01*
X011875Y018106D01*
X012028Y018106D01*
X012105Y018030D01*
X012105Y017876D01*
X011645Y018106D02*
X011491Y018106D01*
X011568Y018183D02*
X011568Y017876D01*
X011491Y017799D01*
X011338Y017876D02*
X011338Y018030D01*
X011261Y018106D01*
X011108Y018106D01*
X011031Y018030D01*
X011031Y017953D01*
X011338Y017953D01*
X011338Y017876D02*
X011261Y017799D01*
X011108Y017799D01*
X008389Y018762D02*
X008312Y018685D01*
X008082Y018685D01*
X008082Y018992D01*
X007928Y019146D02*
X007852Y019146D01*
X007852Y018685D01*
X007928Y018685D02*
X007775Y018685D01*
X007622Y018762D02*
X007545Y018685D01*
X007391Y018685D01*
X007315Y018839D02*
X007622Y018839D01*
X007622Y018915D02*
X007545Y018992D01*
X007391Y018992D01*
X007315Y018915D01*
X007315Y018839D01*
X007622Y018762D02*
X007622Y018915D01*
X008389Y018992D02*
X008389Y018762D01*
D12*
X008337Y019876D02*
X008123Y019876D01*
X008337Y019876D02*
X008443Y019983D01*
X008443Y020197D01*
X008337Y020303D01*
X008123Y020303D01*
X008016Y020197D01*
X008016Y020090D01*
X008443Y020090D01*
X008661Y020197D02*
X008768Y020090D01*
X009088Y020090D01*
X008874Y020090D02*
X008661Y019876D01*
X009088Y019876D02*
X009088Y020517D01*
X008768Y020517D01*
X008661Y020410D01*
X008661Y020197D01*
X007799Y020303D02*
X007585Y019876D01*
X007372Y020303D01*
X006726Y020303D02*
X006726Y019876D01*
X006299Y019876D02*
X006299Y020303D01*
X006512Y020517D01*
X006726Y020303D01*
X006726Y020197D02*
X006299Y020197D01*
X011584Y020303D02*
X011904Y020303D01*
X012011Y020197D01*
X012011Y019983D01*
X011904Y019876D01*
X011584Y019876D01*
X011584Y020517D01*
X012228Y020303D02*
X012335Y020303D01*
X012548Y020090D01*
X012548Y020303D02*
X012548Y019876D01*
X012766Y019876D02*
X013086Y019876D01*
X013193Y019983D01*
X013086Y020090D01*
X012766Y020090D01*
X012766Y020197D02*
X012766Y019876D01*
X012766Y020197D02*
X012872Y020303D01*
X013086Y020303D01*
X013410Y020197D02*
X013410Y019983D01*
X013517Y019876D01*
X013731Y019876D01*
X013837Y019983D01*
X013837Y020197D01*
X013731Y020303D01*
X013517Y020303D01*
X013410Y020197D01*
X014055Y020303D02*
X014162Y020197D01*
X014482Y020197D01*
X014482Y020517D02*
X014162Y020517D01*
X014055Y020410D01*
X014055Y020303D01*
X014162Y020197D02*
X014055Y020090D01*
X014055Y019983D01*
X014162Y019876D01*
X014482Y019876D01*
X014482Y020517D01*
X015343Y020303D02*
X015450Y020303D01*
X015663Y020090D01*
X015663Y020303D02*
X015663Y019876D01*
X015881Y020090D02*
X016308Y020090D01*
X016308Y019983D02*
X016308Y020197D01*
X016201Y020303D01*
X015988Y020303D01*
X015881Y020197D01*
X015881Y020090D01*
X015988Y019876D02*
X016201Y019876D01*
X016308Y019983D01*
X016525Y019983D02*
X016632Y019876D01*
X016739Y019983D01*
X016846Y019876D01*
X016952Y019983D01*
X016952Y020303D01*
X017170Y020197D02*
X017170Y019983D01*
X017277Y019876D01*
X017490Y019876D01*
X017597Y019983D01*
X017597Y020197D01*
X017490Y020303D01*
X017277Y020303D01*
X017170Y020197D01*
X017814Y020197D02*
X017921Y020090D01*
X018241Y020090D01*
X018241Y019876D02*
X018241Y020517D01*
X017921Y020517D01*
X017814Y020410D01*
X017814Y020197D01*
X016525Y020303D02*
X016525Y019983D01*
D13*
X009807Y007346D03*
X009807Y008134D03*
X012366Y008232D03*
X014630Y010988D03*
X014630Y011775D03*
X017779Y013744D03*
X018173Y014630D03*
X016106Y015319D03*
X014334Y014039D03*
X011382Y015319D03*
X010791Y014531D03*
X019256Y013055D03*
X019256Y010594D03*
X022897Y013449D03*
X024079Y013449D03*
X024669Y012169D03*
X023980Y011382D03*
X023980Y010594D03*
X026736Y012563D03*
X027917Y012563D03*
X018075Y007051D03*
X004689Y020240D03*
X002917Y020240D03*
X033429Y020437D03*
D14*
X019563Y011579D02*
X019539Y011579D01*
X020326Y010988D02*
X020350Y010988D01*
X021901Y010791D02*
X021925Y010791D01*
X011197Y009610D02*
X011173Y009610D01*
X010409Y009610D02*
X010385Y009610D01*
X008921Y009130D02*
X008921Y009106D01*
X007445Y009204D02*
X007445Y009228D01*
X007445Y009992D02*
X007445Y010016D01*
D15*
X010791Y008331D03*
X010791Y007149D03*
X015614Y010693D03*
X015614Y011874D03*
X017484Y011579D03*
X015516Y014334D03*
X017189Y014925D03*
X021126Y010791D03*
D16*
X031460Y011205D02*
X031460Y011972D01*
X031460Y011205D02*
X032366Y011205D01*
X033823Y011815D02*
X033823Y013705D01*
X032366Y014315D02*
X031460Y014315D01*
X031460Y013547D01*
X031460Y008803D02*
X031460Y008035D01*
X031460Y008803D02*
X032366Y008803D01*
X033823Y008193D02*
X033823Y006303D01*
X032366Y005693D02*
X031460Y005693D01*
X031460Y006460D01*
M02*
