G75*
G70*
%OFA0B0*%
%FSLAX24Y24*%
%IPPOS*%
%LPD*%
%AMOC8*
5,1,8,0,0,1.08239X$1,22.5*
%
%ADD10C,0.0080*%
%ADD11C,0.0000*%
D10*
X000764Y000312D02*
X000764Y037808D01*
X012639Y037808D01*
X012639Y026250D01*
X063819Y026245D01*
X063819Y000312D01*
X000764Y000312D01*
D11*
X008617Y001812D02*
X008619Y001865D01*
X008625Y001918D01*
X008635Y001970D01*
X008648Y002021D01*
X008666Y002071D01*
X008687Y002120D01*
X008712Y002167D01*
X008740Y002211D01*
X008772Y002254D01*
X008806Y002294D01*
X008844Y002332D01*
X008884Y002366D01*
X008927Y002398D01*
X008972Y002426D01*
X009018Y002451D01*
X009067Y002472D01*
X009117Y002490D01*
X009168Y002503D01*
X009220Y002513D01*
X009273Y002519D01*
X009326Y002521D01*
X009379Y002519D01*
X009432Y002513D01*
X009484Y002503D01*
X009535Y002490D01*
X009585Y002472D01*
X009634Y002451D01*
X009681Y002426D01*
X009725Y002398D01*
X009768Y002366D01*
X009808Y002332D01*
X009846Y002294D01*
X009880Y002254D01*
X009912Y002211D01*
X009940Y002166D01*
X009965Y002120D01*
X009986Y002071D01*
X010004Y002021D01*
X010017Y001970D01*
X010027Y001918D01*
X010033Y001865D01*
X010035Y001812D01*
X010033Y001759D01*
X010027Y001706D01*
X010017Y001654D01*
X010004Y001603D01*
X009986Y001553D01*
X009965Y001504D01*
X009940Y001457D01*
X009912Y001413D01*
X009880Y001370D01*
X009846Y001330D01*
X009808Y001292D01*
X009768Y001258D01*
X009725Y001226D01*
X009680Y001198D01*
X009634Y001173D01*
X009585Y001152D01*
X009535Y001134D01*
X009484Y001121D01*
X009432Y001111D01*
X009379Y001105D01*
X009326Y001103D01*
X009273Y001105D01*
X009220Y001111D01*
X009168Y001121D01*
X009117Y001134D01*
X009067Y001152D01*
X009018Y001173D01*
X008971Y001198D01*
X008927Y001226D01*
X008884Y001258D01*
X008844Y001292D01*
X008806Y001330D01*
X008772Y001370D01*
X008740Y001413D01*
X008712Y001458D01*
X008687Y001504D01*
X008666Y001553D01*
X008648Y001603D01*
X008635Y001654D01*
X008625Y001706D01*
X008619Y001759D01*
X008617Y001812D01*
X022050Y005291D02*
X022052Y005324D01*
X022058Y005356D01*
X022067Y005387D01*
X022080Y005417D01*
X022097Y005445D01*
X022117Y005471D01*
X022140Y005495D01*
X022165Y005515D01*
X022193Y005533D01*
X022222Y005547D01*
X022253Y005557D01*
X022285Y005564D01*
X022318Y005567D01*
X022351Y005566D01*
X022383Y005561D01*
X022414Y005552D01*
X022445Y005540D01*
X022473Y005524D01*
X022500Y005505D01*
X022524Y005483D01*
X022545Y005458D01*
X022564Y005431D01*
X022579Y005402D01*
X022590Y005372D01*
X022598Y005340D01*
X022602Y005307D01*
X022602Y005275D01*
X022598Y005242D01*
X022590Y005210D01*
X022579Y005180D01*
X022564Y005151D01*
X022545Y005124D01*
X022524Y005099D01*
X022500Y005077D01*
X022473Y005058D01*
X022445Y005042D01*
X022414Y005030D01*
X022383Y005021D01*
X022351Y005016D01*
X022318Y005015D01*
X022285Y005018D01*
X022253Y005025D01*
X022222Y005035D01*
X022193Y005049D01*
X022165Y005067D01*
X022140Y005087D01*
X022117Y005111D01*
X022097Y005137D01*
X022080Y005165D01*
X022067Y005195D01*
X022058Y005226D01*
X022052Y005258D01*
X022050Y005291D01*
X030617Y001812D02*
X030619Y001865D01*
X030625Y001918D01*
X030635Y001970D01*
X030648Y002021D01*
X030666Y002071D01*
X030687Y002120D01*
X030712Y002167D01*
X030740Y002211D01*
X030772Y002254D01*
X030806Y002294D01*
X030844Y002332D01*
X030884Y002366D01*
X030927Y002398D01*
X030972Y002426D01*
X031018Y002451D01*
X031067Y002472D01*
X031117Y002490D01*
X031168Y002503D01*
X031220Y002513D01*
X031273Y002519D01*
X031326Y002521D01*
X031379Y002519D01*
X031432Y002513D01*
X031484Y002503D01*
X031535Y002490D01*
X031585Y002472D01*
X031634Y002451D01*
X031681Y002426D01*
X031725Y002398D01*
X031768Y002366D01*
X031808Y002332D01*
X031846Y002294D01*
X031880Y002254D01*
X031912Y002211D01*
X031940Y002166D01*
X031965Y002120D01*
X031986Y002071D01*
X032004Y002021D01*
X032017Y001970D01*
X032027Y001918D01*
X032033Y001865D01*
X032035Y001812D01*
X032033Y001759D01*
X032027Y001706D01*
X032017Y001654D01*
X032004Y001603D01*
X031986Y001553D01*
X031965Y001504D01*
X031940Y001457D01*
X031912Y001413D01*
X031880Y001370D01*
X031846Y001330D01*
X031808Y001292D01*
X031768Y001258D01*
X031725Y001226D01*
X031680Y001198D01*
X031634Y001173D01*
X031585Y001152D01*
X031535Y001134D01*
X031484Y001121D01*
X031432Y001111D01*
X031379Y001105D01*
X031326Y001103D01*
X031273Y001105D01*
X031220Y001111D01*
X031168Y001121D01*
X031117Y001134D01*
X031067Y001152D01*
X031018Y001173D01*
X030971Y001198D01*
X030927Y001226D01*
X030884Y001258D01*
X030844Y001292D01*
X030806Y001330D01*
X030772Y001370D01*
X030740Y001413D01*
X030712Y001458D01*
X030687Y001504D01*
X030666Y001553D01*
X030648Y001603D01*
X030635Y001654D01*
X030625Y001706D01*
X030619Y001759D01*
X030617Y001812D01*
X039617Y001812D02*
X039619Y001865D01*
X039625Y001918D01*
X039635Y001970D01*
X039648Y002021D01*
X039666Y002071D01*
X039687Y002120D01*
X039712Y002167D01*
X039740Y002211D01*
X039772Y002254D01*
X039806Y002294D01*
X039844Y002332D01*
X039884Y002366D01*
X039927Y002398D01*
X039972Y002426D01*
X040018Y002451D01*
X040067Y002472D01*
X040117Y002490D01*
X040168Y002503D01*
X040220Y002513D01*
X040273Y002519D01*
X040326Y002521D01*
X040379Y002519D01*
X040432Y002513D01*
X040484Y002503D01*
X040535Y002490D01*
X040585Y002472D01*
X040634Y002451D01*
X040681Y002426D01*
X040725Y002398D01*
X040768Y002366D01*
X040808Y002332D01*
X040846Y002294D01*
X040880Y002254D01*
X040912Y002211D01*
X040940Y002166D01*
X040965Y002120D01*
X040986Y002071D01*
X041004Y002021D01*
X041017Y001970D01*
X041027Y001918D01*
X041033Y001865D01*
X041035Y001812D01*
X041033Y001759D01*
X041027Y001706D01*
X041017Y001654D01*
X041004Y001603D01*
X040986Y001553D01*
X040965Y001504D01*
X040940Y001457D01*
X040912Y001413D01*
X040880Y001370D01*
X040846Y001330D01*
X040808Y001292D01*
X040768Y001258D01*
X040725Y001226D01*
X040680Y001198D01*
X040634Y001173D01*
X040585Y001152D01*
X040535Y001134D01*
X040484Y001121D01*
X040432Y001111D01*
X040379Y001105D01*
X040326Y001103D01*
X040273Y001105D01*
X040220Y001111D01*
X040168Y001121D01*
X040117Y001134D01*
X040067Y001152D01*
X040018Y001173D01*
X039971Y001198D01*
X039927Y001226D01*
X039884Y001258D01*
X039844Y001292D01*
X039806Y001330D01*
X039772Y001370D01*
X039740Y001413D01*
X039712Y001458D01*
X039687Y001504D01*
X039666Y001553D01*
X039648Y001603D01*
X039635Y001654D01*
X039625Y001706D01*
X039619Y001759D01*
X039617Y001812D01*
X048800Y005291D02*
X048802Y005324D01*
X048808Y005356D01*
X048817Y005387D01*
X048830Y005417D01*
X048847Y005445D01*
X048867Y005471D01*
X048890Y005495D01*
X048915Y005515D01*
X048943Y005533D01*
X048972Y005547D01*
X049003Y005557D01*
X049035Y005564D01*
X049068Y005567D01*
X049101Y005566D01*
X049133Y005561D01*
X049164Y005552D01*
X049195Y005540D01*
X049223Y005524D01*
X049250Y005505D01*
X049274Y005483D01*
X049295Y005458D01*
X049314Y005431D01*
X049329Y005402D01*
X049340Y005372D01*
X049348Y005340D01*
X049352Y005307D01*
X049352Y005275D01*
X049348Y005242D01*
X049340Y005210D01*
X049329Y005180D01*
X049314Y005151D01*
X049295Y005124D01*
X049274Y005099D01*
X049250Y005077D01*
X049223Y005058D01*
X049195Y005042D01*
X049164Y005030D01*
X049133Y005021D01*
X049101Y005016D01*
X049068Y005015D01*
X049035Y005018D01*
X049003Y005025D01*
X048972Y005035D01*
X048943Y005049D01*
X048915Y005067D01*
X048890Y005087D01*
X048867Y005111D01*
X048847Y005137D01*
X048830Y005165D01*
X048817Y005195D01*
X048808Y005226D01*
X048802Y005258D01*
X048800Y005291D01*
X061617Y001812D02*
X061619Y001865D01*
X061625Y001918D01*
X061635Y001970D01*
X061648Y002021D01*
X061666Y002071D01*
X061687Y002120D01*
X061712Y002167D01*
X061740Y002211D01*
X061772Y002254D01*
X061806Y002294D01*
X061844Y002332D01*
X061884Y002366D01*
X061927Y002398D01*
X061972Y002426D01*
X062018Y002451D01*
X062067Y002472D01*
X062117Y002490D01*
X062168Y002503D01*
X062220Y002513D01*
X062273Y002519D01*
X062326Y002521D01*
X062379Y002519D01*
X062432Y002513D01*
X062484Y002503D01*
X062535Y002490D01*
X062585Y002472D01*
X062634Y002451D01*
X062681Y002426D01*
X062725Y002398D01*
X062768Y002366D01*
X062808Y002332D01*
X062846Y002294D01*
X062880Y002254D01*
X062912Y002211D01*
X062940Y002166D01*
X062965Y002120D01*
X062986Y002071D01*
X063004Y002021D01*
X063017Y001970D01*
X063027Y001918D01*
X063033Y001865D01*
X063035Y001812D01*
X063033Y001759D01*
X063027Y001706D01*
X063017Y001654D01*
X063004Y001603D01*
X062986Y001553D01*
X062965Y001504D01*
X062940Y001457D01*
X062912Y001413D01*
X062880Y001370D01*
X062846Y001330D01*
X062808Y001292D01*
X062768Y001258D01*
X062725Y001226D01*
X062680Y001198D01*
X062634Y001173D01*
X062585Y001152D01*
X062535Y001134D01*
X062484Y001121D01*
X062432Y001111D01*
X062379Y001105D01*
X062326Y001103D01*
X062273Y001105D01*
X062220Y001111D01*
X062168Y001121D01*
X062117Y001134D01*
X062067Y001152D01*
X062018Y001173D01*
X061971Y001198D01*
X061927Y001226D01*
X061884Y001258D01*
X061844Y001292D01*
X061806Y001330D01*
X061772Y001370D01*
X061740Y001413D01*
X061712Y001458D01*
X061687Y001504D01*
X061666Y001553D01*
X061648Y001603D01*
X061635Y001654D01*
X061625Y001706D01*
X061619Y001759D01*
X061617Y001812D01*
X048800Y018834D02*
X048802Y018867D01*
X048808Y018899D01*
X048817Y018930D01*
X048830Y018960D01*
X048847Y018988D01*
X048867Y019014D01*
X048890Y019038D01*
X048915Y019058D01*
X048943Y019076D01*
X048972Y019090D01*
X049003Y019100D01*
X049035Y019107D01*
X049068Y019110D01*
X049101Y019109D01*
X049133Y019104D01*
X049164Y019095D01*
X049195Y019083D01*
X049223Y019067D01*
X049250Y019048D01*
X049274Y019026D01*
X049295Y019001D01*
X049314Y018974D01*
X049329Y018945D01*
X049340Y018915D01*
X049348Y018883D01*
X049352Y018850D01*
X049352Y018818D01*
X049348Y018785D01*
X049340Y018753D01*
X049329Y018723D01*
X049314Y018694D01*
X049295Y018667D01*
X049274Y018642D01*
X049250Y018620D01*
X049223Y018601D01*
X049195Y018585D01*
X049164Y018573D01*
X049133Y018564D01*
X049101Y018559D01*
X049068Y018558D01*
X049035Y018561D01*
X049003Y018568D01*
X048972Y018578D01*
X048943Y018592D01*
X048915Y018610D01*
X048890Y018630D01*
X048867Y018654D01*
X048847Y018680D01*
X048830Y018708D01*
X048817Y018738D01*
X048808Y018769D01*
X048802Y018801D01*
X048800Y018834D01*
X043617Y022312D02*
X043619Y022365D01*
X043625Y022418D01*
X043635Y022470D01*
X043648Y022521D01*
X043666Y022571D01*
X043687Y022620D01*
X043712Y022667D01*
X043740Y022711D01*
X043772Y022754D01*
X043806Y022794D01*
X043844Y022832D01*
X043884Y022866D01*
X043927Y022898D01*
X043972Y022926D01*
X044018Y022951D01*
X044067Y022972D01*
X044117Y022990D01*
X044168Y023003D01*
X044220Y023013D01*
X044273Y023019D01*
X044326Y023021D01*
X044379Y023019D01*
X044432Y023013D01*
X044484Y023003D01*
X044535Y022990D01*
X044585Y022972D01*
X044634Y022951D01*
X044681Y022926D01*
X044725Y022898D01*
X044768Y022866D01*
X044808Y022832D01*
X044846Y022794D01*
X044880Y022754D01*
X044912Y022711D01*
X044940Y022666D01*
X044965Y022620D01*
X044986Y022571D01*
X045004Y022521D01*
X045017Y022470D01*
X045027Y022418D01*
X045033Y022365D01*
X045035Y022312D01*
X045033Y022259D01*
X045027Y022206D01*
X045017Y022154D01*
X045004Y022103D01*
X044986Y022053D01*
X044965Y022004D01*
X044940Y021957D01*
X044912Y021913D01*
X044880Y021870D01*
X044846Y021830D01*
X044808Y021792D01*
X044768Y021758D01*
X044725Y021726D01*
X044680Y021698D01*
X044634Y021673D01*
X044585Y021652D01*
X044535Y021634D01*
X044484Y021621D01*
X044432Y021611D01*
X044379Y021605D01*
X044326Y021603D01*
X044273Y021605D01*
X044220Y021611D01*
X044168Y021621D01*
X044117Y021634D01*
X044067Y021652D01*
X044018Y021673D01*
X043971Y021698D01*
X043927Y021726D01*
X043884Y021758D01*
X043844Y021792D01*
X043806Y021830D01*
X043772Y021870D01*
X043740Y021913D01*
X043712Y021958D01*
X043687Y022004D01*
X043666Y022053D01*
X043648Y022103D01*
X043635Y022154D01*
X043625Y022206D01*
X043619Y022259D01*
X043617Y022312D01*
X026617Y022312D02*
X026619Y022365D01*
X026625Y022418D01*
X026635Y022470D01*
X026648Y022521D01*
X026666Y022571D01*
X026687Y022620D01*
X026712Y022667D01*
X026740Y022711D01*
X026772Y022754D01*
X026806Y022794D01*
X026844Y022832D01*
X026884Y022866D01*
X026927Y022898D01*
X026972Y022926D01*
X027018Y022951D01*
X027067Y022972D01*
X027117Y022990D01*
X027168Y023003D01*
X027220Y023013D01*
X027273Y023019D01*
X027326Y023021D01*
X027379Y023019D01*
X027432Y023013D01*
X027484Y023003D01*
X027535Y022990D01*
X027585Y022972D01*
X027634Y022951D01*
X027681Y022926D01*
X027725Y022898D01*
X027768Y022866D01*
X027808Y022832D01*
X027846Y022794D01*
X027880Y022754D01*
X027912Y022711D01*
X027940Y022666D01*
X027965Y022620D01*
X027986Y022571D01*
X028004Y022521D01*
X028017Y022470D01*
X028027Y022418D01*
X028033Y022365D01*
X028035Y022312D01*
X028033Y022259D01*
X028027Y022206D01*
X028017Y022154D01*
X028004Y022103D01*
X027986Y022053D01*
X027965Y022004D01*
X027940Y021957D01*
X027912Y021913D01*
X027880Y021870D01*
X027846Y021830D01*
X027808Y021792D01*
X027768Y021758D01*
X027725Y021726D01*
X027680Y021698D01*
X027634Y021673D01*
X027585Y021652D01*
X027535Y021634D01*
X027484Y021621D01*
X027432Y021611D01*
X027379Y021605D01*
X027326Y021603D01*
X027273Y021605D01*
X027220Y021611D01*
X027168Y021621D01*
X027117Y021634D01*
X027067Y021652D01*
X027018Y021673D01*
X026971Y021698D01*
X026927Y021726D01*
X026884Y021758D01*
X026844Y021792D01*
X026806Y021830D01*
X026772Y021870D01*
X026740Y021913D01*
X026712Y021958D01*
X026687Y022004D01*
X026666Y022053D01*
X026648Y022103D01*
X026635Y022154D01*
X026625Y022206D01*
X026619Y022259D01*
X026617Y022312D01*
X022050Y018834D02*
X022052Y018867D01*
X022058Y018899D01*
X022067Y018930D01*
X022080Y018960D01*
X022097Y018988D01*
X022117Y019014D01*
X022140Y019038D01*
X022165Y019058D01*
X022193Y019076D01*
X022222Y019090D01*
X022253Y019100D01*
X022285Y019107D01*
X022318Y019110D01*
X022351Y019109D01*
X022383Y019104D01*
X022414Y019095D01*
X022445Y019083D01*
X022473Y019067D01*
X022500Y019048D01*
X022524Y019026D01*
X022545Y019001D01*
X022564Y018974D01*
X022579Y018945D01*
X022590Y018915D01*
X022598Y018883D01*
X022602Y018850D01*
X022602Y018818D01*
X022598Y018785D01*
X022590Y018753D01*
X022579Y018723D01*
X022564Y018694D01*
X022545Y018667D01*
X022524Y018642D01*
X022500Y018620D01*
X022473Y018601D01*
X022445Y018585D01*
X022414Y018573D01*
X022383Y018564D01*
X022351Y018559D01*
X022318Y018558D01*
X022285Y018561D01*
X022253Y018568D01*
X022222Y018578D01*
X022193Y018592D01*
X022165Y018610D01*
X022140Y018630D01*
X022117Y018654D01*
X022097Y018680D01*
X022080Y018708D01*
X022067Y018738D01*
X022058Y018769D01*
X022052Y018801D01*
X022050Y018834D01*
X008617Y026312D02*
X008619Y026365D01*
X008625Y026418D01*
X008635Y026470D01*
X008648Y026521D01*
X008666Y026571D01*
X008687Y026620D01*
X008712Y026667D01*
X008740Y026711D01*
X008772Y026754D01*
X008806Y026794D01*
X008844Y026832D01*
X008884Y026866D01*
X008927Y026898D01*
X008972Y026926D01*
X009018Y026951D01*
X009067Y026972D01*
X009117Y026990D01*
X009168Y027003D01*
X009220Y027013D01*
X009273Y027019D01*
X009326Y027021D01*
X009379Y027019D01*
X009432Y027013D01*
X009484Y027003D01*
X009535Y026990D01*
X009585Y026972D01*
X009634Y026951D01*
X009681Y026926D01*
X009725Y026898D01*
X009768Y026866D01*
X009808Y026832D01*
X009846Y026794D01*
X009880Y026754D01*
X009912Y026711D01*
X009940Y026666D01*
X009965Y026620D01*
X009986Y026571D01*
X010004Y026521D01*
X010017Y026470D01*
X010027Y026418D01*
X010033Y026365D01*
X010035Y026312D01*
X010033Y026259D01*
X010027Y026206D01*
X010017Y026154D01*
X010004Y026103D01*
X009986Y026053D01*
X009965Y026004D01*
X009940Y025957D01*
X009912Y025913D01*
X009880Y025870D01*
X009846Y025830D01*
X009808Y025792D01*
X009768Y025758D01*
X009725Y025726D01*
X009680Y025698D01*
X009634Y025673D01*
X009585Y025652D01*
X009535Y025634D01*
X009484Y025621D01*
X009432Y025611D01*
X009379Y025605D01*
X009326Y025603D01*
X009273Y025605D01*
X009220Y025611D01*
X009168Y025621D01*
X009117Y025634D01*
X009067Y025652D01*
X009018Y025673D01*
X008971Y025698D01*
X008927Y025726D01*
X008884Y025758D01*
X008844Y025792D01*
X008806Y025830D01*
X008772Y025870D01*
X008740Y025913D01*
X008712Y025958D01*
X008687Y026004D01*
X008666Y026053D01*
X008648Y026103D01*
X008635Y026154D01*
X008625Y026206D01*
X008619Y026259D01*
X008617Y026312D01*
X001595Y035352D02*
X001597Y035392D01*
X001603Y035433D01*
X001613Y035472D01*
X001626Y035510D01*
X001644Y035547D01*
X001665Y035581D01*
X001689Y035614D01*
X001716Y035644D01*
X001746Y035671D01*
X001779Y035695D01*
X001813Y035716D01*
X001850Y035734D01*
X001888Y035747D01*
X001927Y035757D01*
X001968Y035763D01*
X002008Y035765D01*
X002048Y035763D01*
X002089Y035757D01*
X002128Y035747D01*
X002166Y035734D01*
X002203Y035716D01*
X002237Y035695D01*
X002270Y035671D01*
X002300Y035644D01*
X002327Y035614D01*
X002351Y035581D01*
X002372Y035547D01*
X002390Y035510D01*
X002403Y035472D01*
X002413Y035433D01*
X002419Y035392D01*
X002421Y035352D01*
X002419Y035312D01*
X002413Y035271D01*
X002403Y035232D01*
X002390Y035194D01*
X002372Y035157D01*
X002351Y035123D01*
X002327Y035090D01*
X002300Y035060D01*
X002270Y035033D01*
X002237Y035009D01*
X002203Y034988D01*
X002166Y034970D01*
X002128Y034957D01*
X002089Y034947D01*
X002048Y034941D01*
X002008Y034939D01*
X001968Y034941D01*
X001927Y034947D01*
X001888Y034957D01*
X001850Y034970D01*
X001813Y034988D01*
X001779Y035009D01*
X001746Y035033D01*
X001716Y035060D01*
X001689Y035090D01*
X001665Y035123D01*
X001644Y035157D01*
X001626Y035194D01*
X001613Y035232D01*
X001603Y035271D01*
X001597Y035312D01*
X001595Y035352D01*
M02*
