%
M48
M72
T01C0.0197
T02C0.0236
T03C0.0360
T04C0.0551
T05C0.0827
T06C0.1220
T07C0.1417
%
T01
X31076Y24562
X31076Y25062
X31576Y25062
X31576Y24562
X32076Y24562
X32076Y25062
X32576Y25062
X32576Y24562
X33076Y24562
X33076Y25062
X33576Y25062
X33576Y24562
X34076Y24562
X34076Y25062
X34576Y25062
X34576Y24562
X35076Y24562
X35076Y25062
X35576Y25062
X35576Y24562
X36076Y24562
X36076Y25062
X36576Y25062
X36576Y24562
X37076Y24562
X37076Y25062
X37576Y25062
X37576Y24562
X38076Y24562
X38076Y25062
X38576Y25062
X38576Y24562
X39076Y24562
X39076Y25062
X39576Y25062
X39576Y24562
X40076Y24562
X40076Y25062
X40576Y25062
X40576Y24562
X41076Y24562
X41076Y25062
X41576Y25062
X41576Y24562
X42076Y24562
X42076Y25062
X42576Y25062
X42576Y24562
X43076Y24562
X43076Y25062
X43576Y25062
X43576Y24562
X44076Y24562
X44076Y25062
X44576Y25062
X44576Y24562
X45076Y24562
X45076Y25062
X45576Y25062
X45576Y24562
X46076Y24562
X46076Y25062
X46576Y25062
X46576Y24562
X47076Y24562
X47076Y25062
X47576Y25062
X47576Y24562
X48076Y24562
X48076Y25062
X48576Y25062
X48576Y24562
X49076Y24562
X49076Y25062
X49576Y25062
X49576Y24562
X50076Y24562
X50076Y25062
X50576Y25062
X50576Y24562
X51076Y24562
X51076Y25062
X51576Y25062
X51576Y24562
X52076Y24562
X52076Y25062
X52576Y25062
X52576Y24562
X53076Y24562
X53076Y25062
X53576Y25062
X53576Y24562
X54076Y24562
X54076Y25062
X54576Y25062
X54576Y24562
X55076Y24562
X55076Y25062
X55576Y25062
X55576Y24562
T02
X56639Y24875
X54576Y23187
X59139Y24312
X59139Y25437
X50576Y18187
X50576Y17562
X50576Y16812
X50576Y16187
X50576Y15531
X50576Y15000
X50576Y14406
X50576Y12656
X50576Y12000
X50576Y11469
X51201Y11437
X50576Y10281
X50576Y9687
X50576Y9125
X50576Y5969
X50139Y3187
X45576Y4000
X44826Y2125
X43170Y2937
X43170Y3812
X42733Y5437
X42451Y6062
X39076Y4562
X39076Y4062
X38576Y4062
X37076Y5844
X36326Y3844
X35170Y4625
X33951Y6562
X35451Y7250
X35576Y8375
X34858Y8375
X37076Y9781
X38576Y11062
X39076Y11062
X39076Y11562
X36326Y11781
X35451Y12750
X34764Y13875
X34139Y15125
X33514Y16312
X32889Y17500
X36951Y17094
X37826Y17094
X39076Y18437
X38451Y18812
X37826Y19187
X37201Y19562
X36576Y19937
X39701Y18062
X40326Y18062
X40076Y15187
X44326Y14781
X44920Y15375
X45514Y15969
X46264Y16719
X48076Y19937
X48076Y21812
X42733Y10187
X42451Y9562
X41233Y2937
X32326Y6000
X31764Y7531
X30264Y7219
X29514Y7687
X31076Y9219
X31076Y10906
X28826Y14812
X27576Y14812
X26076Y11594
X26076Y11062
X25576Y11062
X20826Y11469
X20826Y12000
X20201Y11437
X20826Y10312
X20826Y9719
X20826Y9125
X20826Y5969
X25576Y4062
X26076Y4062
X26076Y4594
X27608Y3187
X29295Y3187
X29295Y2312
X29889Y6437
X20826Y12656
X20826Y14437
X20826Y15000
X20826Y15531
X20826Y16187
X20826Y16812
X20826Y17562
X20826Y18187
X23326Y19937
X23326Y21687
X15858Y19625
X15858Y18500
X14014Y22437
X14670Y23937
X13451Y24562
X11389Y22437
X5451Y25312
X4295Y26312
X4795Y23250
X4295Y19812
X5451Y18844
X4795Y16750
X4295Y13312
X5420Y12344
X4795Y10219
X11389Y7937
X14014Y7937
X15951Y10375
X15951Y11500
X9639Y36312
T03
X6201Y20437
X6201Y19437
X6201Y18437
X6201Y17437
X6201Y16437
X6201Y15437
T04
X22326Y18834
X22326Y5291
X49076Y5291
X49076Y18834
T05
X2008Y35352
T06
X3779Y35352
X5039Y33462
T07
X9326Y1812
X31326Y1812
X40326Y1812
X62326Y1812
X44326Y22312
X27326Y22312
X9326Y26312
X6260Y35352
M30
