G75*
G70*
%OFA0B0*%
%FSLAX24Y24*%
%IPPOS*%
%LPD*%
%AMOC8*
5,1,8,0,0,1.08239X$1,22.5*
%
%ADD10C,0.1817*%
%ADD11C,0.1620*%
%ADD12C,0.0317*%
%ADD13C,0.0540*%
%ADD14C,0.0436*%
%ADD15C,0.0160*%
D10*
X006260Y035352D03*
D11*
X005039Y033462D03*
X003779Y035352D03*
D12*
X031076Y025062D03*
X031076Y024562D03*
X031576Y024562D03*
X031576Y025062D03*
X032076Y025062D03*
X032076Y024562D03*
X032576Y024562D03*
X032576Y025062D03*
X033076Y025062D03*
X033076Y024562D03*
X033576Y024562D03*
X033576Y025062D03*
X034076Y025062D03*
X034076Y024562D03*
X034576Y024562D03*
X034576Y025062D03*
X035076Y025062D03*
X035076Y024562D03*
X035576Y024562D03*
X035576Y025062D03*
X036076Y025062D03*
X036076Y024562D03*
X036576Y024562D03*
X036576Y025062D03*
X037076Y025062D03*
X037076Y024562D03*
X037576Y024562D03*
X037576Y025062D03*
X038076Y025062D03*
X038076Y024562D03*
X038576Y024562D03*
X038576Y025062D03*
X039076Y025062D03*
X039076Y024562D03*
X039576Y024562D03*
X039576Y025062D03*
X040076Y025062D03*
X040076Y024562D03*
X040576Y024562D03*
X040576Y025062D03*
X041076Y025062D03*
X041076Y024562D03*
X041576Y024562D03*
X041576Y025062D03*
X042076Y025062D03*
X042076Y024562D03*
X042576Y024562D03*
X042576Y025062D03*
X043076Y025062D03*
X043076Y024562D03*
X043576Y024562D03*
X043576Y025062D03*
X044076Y025062D03*
X044076Y024562D03*
X044576Y024562D03*
X044576Y025062D03*
X045076Y025062D03*
X045076Y024562D03*
X045576Y024562D03*
X045576Y025062D03*
X046076Y025062D03*
X046076Y024562D03*
X046576Y024562D03*
X046576Y025062D03*
X047076Y025062D03*
X047076Y024562D03*
X047576Y024562D03*
X047576Y025062D03*
X048076Y025062D03*
X048076Y024562D03*
X048576Y024562D03*
X048576Y025062D03*
X049076Y025062D03*
X049076Y024562D03*
X049576Y024562D03*
X049576Y025062D03*
X050076Y025062D03*
X050076Y024562D03*
X050576Y024562D03*
X050576Y025062D03*
X051076Y025062D03*
X051076Y024562D03*
X051576Y024562D03*
X051576Y025062D03*
X052076Y025062D03*
X052076Y024562D03*
X052576Y024562D03*
X052576Y025062D03*
X053076Y025062D03*
X053076Y024562D03*
X053576Y024562D03*
X053576Y025062D03*
X054076Y025062D03*
X054076Y024562D03*
X054576Y024562D03*
X054576Y025062D03*
X055076Y025062D03*
X055076Y024562D03*
X055576Y024562D03*
X055576Y025062D03*
D13*
X006201Y020437D03*
X006201Y019437D03*
X006201Y018437D03*
X006201Y017437D03*
X006201Y016437D03*
X006201Y015437D03*
D14*
X011389Y007937D03*
X014014Y007937D03*
X015951Y010375D03*
X015951Y011500D03*
X020201Y011437D03*
X020826Y011469D03*
X020826Y012000D03*
X020826Y012656D03*
X020826Y014437D03*
X020826Y015000D03*
X020826Y015531D03*
X020826Y016187D03*
X020826Y016812D03*
X020826Y017562D03*
X020826Y018187D03*
X023326Y019937D03*
X023326Y021687D03*
X015858Y019625D03*
X015858Y018500D03*
X014014Y022437D03*
X014670Y023937D03*
X013451Y024562D03*
X011389Y022437D03*
X005451Y025312D03*
X004295Y026312D03*
X004795Y023250D03*
X004295Y019812D03*
X005451Y018844D03*
X004795Y016750D03*
X004295Y013312D03*
X005420Y012344D03*
X004795Y010219D03*
X020826Y010312D03*
X020826Y009719D03*
X020826Y009125D03*
X020826Y005969D03*
X025576Y004062D03*
X026076Y004062D03*
X026076Y004594D03*
X027608Y003187D03*
X029295Y003187D03*
X029295Y002312D03*
X032326Y006000D03*
X031764Y007531D03*
X030264Y007219D03*
X029514Y007687D03*
X031076Y009219D03*
X031076Y010906D03*
X034858Y008375D03*
X035576Y008375D03*
X035451Y007250D03*
X033951Y006562D03*
X035170Y004625D03*
X036326Y003844D03*
X037076Y005844D03*
X038576Y004062D03*
X039076Y004062D03*
X039076Y004562D03*
X041233Y002937D03*
X043170Y002937D03*
X043170Y003812D03*
X042733Y005437D03*
X042451Y006062D03*
X045576Y004000D03*
X044826Y002125D03*
X050139Y003187D03*
X050576Y005969D03*
X050576Y009125D03*
X050576Y009687D03*
X050576Y010281D03*
X050576Y011469D03*
X050576Y012000D03*
X051201Y011437D03*
X050576Y012656D03*
X050576Y014406D03*
X050576Y015000D03*
X050576Y015531D03*
X050576Y016187D03*
X050576Y016812D03*
X050576Y017562D03*
X050576Y018187D03*
X048076Y019937D03*
X048076Y021812D03*
X046264Y016719D03*
X045514Y015969D03*
X044920Y015375D03*
X044326Y014781D03*
X040076Y015187D03*
X037826Y017094D03*
X036951Y017094D03*
X037826Y019187D03*
X037201Y019562D03*
X036576Y019937D03*
X038451Y018812D03*
X039076Y018437D03*
X039701Y018062D03*
X040326Y018062D03*
X034764Y013875D03*
X035451Y012750D03*
X036326Y011781D03*
X037076Y009781D03*
X038576Y011062D03*
X039076Y011062D03*
X039076Y011562D03*
X042733Y010187D03*
X042451Y009562D03*
X034139Y015125D03*
X033514Y016312D03*
X032889Y017500D03*
X028826Y014812D03*
X027576Y014812D03*
X026076Y011594D03*
X026076Y011062D03*
X025576Y011062D03*
X029889Y006437D03*
X054576Y023187D03*
X056639Y024875D03*
X059139Y024312D03*
X059139Y025437D03*
X009639Y036312D03*
D15*
X015576Y018812D02*
X021571Y018812D01*
X021571Y018684D01*
X021686Y018406D01*
X021898Y018194D01*
X022176Y018079D01*
X022477Y018079D01*
X022754Y018194D01*
X022967Y018406D01*
X023082Y018684D01*
X023082Y018812D01*
X037639Y018812D01*
X037743Y018769D01*
X037910Y018769D01*
X038014Y018812D01*
X038033Y018812D01*
X038033Y018729D01*
X038097Y018576D01*
X038201Y018471D01*
X038201Y017312D01*
X050235Y017312D01*
X050340Y017208D01*
X050493Y017144D01*
X050660Y017144D01*
X050701Y017162D01*
X050701Y016588D01*
X050660Y016606D01*
X050493Y016606D01*
X050340Y016542D01*
X050235Y016437D01*
X047826Y016437D01*
X047826Y016687D01*
X046682Y016687D01*
X046682Y016802D01*
X046618Y016956D01*
X046501Y017073D01*
X046347Y017137D01*
X046181Y017137D01*
X046027Y017073D01*
X045910Y016956D01*
X045846Y016802D01*
X045846Y016687D01*
X034826Y016687D01*
X034826Y014293D01*
X034681Y014293D01*
X034527Y014229D01*
X034410Y014112D01*
X034346Y013958D01*
X034346Y013792D01*
X034410Y013638D01*
X034527Y013521D01*
X034681Y013457D01*
X034826Y013457D01*
X034826Y008793D01*
X034775Y008793D01*
X034621Y008729D01*
X034503Y008612D01*
X034440Y008458D01*
X034440Y008292D01*
X034503Y008138D01*
X034621Y008021D01*
X034775Y007957D01*
X034826Y007957D01*
X034826Y006062D01*
X032745Y006062D01*
X032745Y006083D01*
X032681Y006237D01*
X032563Y006354D01*
X032410Y006418D01*
X032243Y006418D01*
X032090Y006354D01*
X031972Y006237D01*
X031908Y006083D01*
X031908Y006062D01*
X030826Y006062D01*
X030826Y010565D01*
X030840Y010552D01*
X030993Y010488D01*
X031160Y010488D01*
X031313Y010552D01*
X031431Y010669D01*
X031495Y010823D01*
X031495Y010989D01*
X031431Y011143D01*
X031313Y011261D01*
X031160Y011324D01*
X030993Y011324D01*
X030840Y011261D01*
X030826Y011247D01*
X030826Y016312D01*
X021227Y016312D01*
X021181Y016424D01*
X021063Y016542D01*
X020910Y016606D01*
X020743Y016606D01*
X020590Y016542D01*
X020472Y016424D01*
X020426Y016312D01*
X015576Y016312D01*
X015576Y018812D01*
X015576Y018703D02*
X021571Y018703D01*
X021628Y018545D02*
X021056Y018545D01*
X021063Y018542D02*
X020910Y018606D01*
X020743Y018606D01*
X020590Y018542D01*
X020472Y018424D01*
X020408Y018271D01*
X020408Y018104D01*
X020472Y017951D01*
X020548Y017875D01*
X020472Y017799D01*
X020408Y017646D01*
X020408Y017479D01*
X020472Y017326D01*
X020590Y017208D01*
X020743Y017144D01*
X020910Y017144D01*
X021063Y017208D01*
X021181Y017326D01*
X021245Y017479D01*
X021245Y017646D01*
X021181Y017799D01*
X021105Y017875D01*
X021181Y017951D01*
X021245Y018104D01*
X021245Y018271D01*
X021181Y018424D01*
X021063Y018542D01*
X021197Y018386D02*
X021706Y018386D01*
X021864Y018228D02*
X021245Y018228D01*
X021230Y018069D02*
X038201Y018069D01*
X038201Y017911D02*
X032990Y017911D01*
X032972Y017918D02*
X032806Y017918D01*
X032652Y017854D01*
X032535Y017737D01*
X032471Y017583D01*
X032471Y017417D01*
X032535Y017263D01*
X032652Y017146D01*
X032806Y017082D01*
X032972Y017082D01*
X033126Y017146D01*
X033243Y017263D01*
X033307Y017417D01*
X033307Y017583D01*
X033243Y017737D01*
X033126Y017854D01*
X032972Y017918D01*
X032788Y017911D02*
X021141Y017911D01*
X021200Y017752D02*
X032550Y017752D01*
X032475Y017594D02*
X021245Y017594D01*
X021226Y017435D02*
X032471Y017435D01*
X032529Y017277D02*
X021132Y017277D01*
X020521Y017277D02*
X015576Y017277D01*
X015576Y017435D02*
X020427Y017435D01*
X020408Y017594D02*
X015576Y017594D01*
X015576Y017752D02*
X020453Y017752D01*
X020512Y017911D02*
X015576Y017911D01*
X015576Y018069D02*
X020423Y018069D01*
X020408Y018228D02*
X015576Y018228D01*
X015576Y018386D02*
X020456Y018386D01*
X020597Y018545D02*
X015576Y018545D01*
X015576Y017118D02*
X032718Y017118D01*
X033059Y017118D02*
X046136Y017118D01*
X046392Y017118D02*
X050701Y017118D01*
X050701Y016959D02*
X046614Y016959D01*
X046682Y016801D02*
X050701Y016801D01*
X050701Y016642D02*
X047826Y016642D01*
X047826Y016484D02*
X050282Y016484D01*
X050271Y017277D02*
X033249Y017277D01*
X033307Y017435D02*
X038201Y017435D01*
X038201Y017594D02*
X033303Y017594D01*
X033228Y017752D02*
X038201Y017752D01*
X038201Y018228D02*
X022789Y018228D01*
X022947Y018386D02*
X038201Y018386D01*
X038128Y018545D02*
X023024Y018545D01*
X023082Y018703D02*
X038044Y018703D01*
X035201Y016312D02*
X045266Y016312D01*
X045160Y016206D01*
X045096Y016052D01*
X045096Y015886D01*
X045160Y015732D01*
X045277Y015614D01*
X045431Y015551D01*
X045597Y015551D01*
X045751Y015614D01*
X045868Y015732D01*
X045932Y015886D01*
X045932Y016052D01*
X045868Y016206D01*
X045761Y016312D01*
X046152Y016312D01*
X046181Y016301D01*
X046347Y016301D01*
X046376Y016312D01*
X047451Y016312D01*
X047451Y010062D01*
X050215Y010062D01*
X050222Y010044D01*
X050340Y009927D01*
X050493Y009863D01*
X050660Y009863D01*
X050813Y009927D01*
X050931Y010044D01*
X050938Y010062D01*
X050951Y010062D01*
X050951Y009344D01*
X050938Y009344D01*
X050931Y009362D01*
X050813Y009479D01*
X050660Y009543D01*
X050493Y009543D01*
X050340Y009479D01*
X050222Y009362D01*
X050215Y009344D01*
X047451Y009344D01*
X047451Y004937D01*
X040951Y004937D01*
X040951Y013187D01*
X037451Y013187D01*
X037451Y009968D01*
X037431Y010018D01*
X037313Y010136D01*
X037160Y010199D01*
X036993Y010199D01*
X036840Y010136D01*
X036722Y010018D01*
X036658Y009864D01*
X036658Y009698D01*
X036722Y009544D01*
X036840Y009427D01*
X036993Y009363D01*
X037160Y009363D01*
X037313Y009427D01*
X037431Y009544D01*
X037451Y009594D01*
X037451Y006031D01*
X037431Y006081D01*
X037313Y006198D01*
X037160Y006262D01*
X036993Y006262D01*
X036840Y006198D01*
X036722Y006081D01*
X036658Y005927D01*
X036658Y005761D01*
X036722Y005607D01*
X036840Y005489D01*
X036993Y005426D01*
X037160Y005426D01*
X037313Y005489D01*
X037431Y005607D01*
X037451Y005657D01*
X037451Y002812D01*
X031972Y002812D01*
X031785Y002920D01*
X031483Y003001D01*
X031170Y003001D01*
X030868Y002920D01*
X030681Y002812D01*
X027795Y002812D01*
X027845Y002833D01*
X027962Y002951D01*
X028026Y003104D01*
X028026Y003271D01*
X027962Y003424D01*
X027845Y003542D01*
X027691Y003606D01*
X027525Y003606D01*
X027371Y003542D01*
X027253Y003424D01*
X027190Y003271D01*
X027190Y003104D01*
X027253Y002951D01*
X027371Y002833D01*
X027421Y002812D01*
X024826Y002812D01*
X024701Y009312D01*
X021201Y009312D01*
X021181Y009362D01*
X021063Y009479D01*
X020910Y009543D01*
X020743Y009543D01*
X020590Y009479D01*
X020472Y009362D01*
X020452Y009312D01*
X020451Y009312D01*
X020451Y010125D01*
X020472Y010076D01*
X020590Y009958D01*
X020743Y009894D01*
X020910Y009894D01*
X021063Y009958D01*
X021181Y010076D01*
X021245Y010229D01*
X021245Y010396D01*
X021181Y010549D01*
X021063Y010667D01*
X020910Y010731D01*
X020743Y010731D01*
X020590Y010667D01*
X020472Y010549D01*
X020451Y010500D01*
X020451Y011096D01*
X020530Y011174D01*
X020590Y011114D01*
X020743Y011051D01*
X020910Y011051D01*
X021063Y011114D01*
X021181Y011232D01*
X021245Y011386D01*
X021245Y011552D01*
X021181Y011706D01*
X021152Y011734D01*
X021181Y011763D01*
X021245Y011917D01*
X021245Y012083D01*
X021181Y012237D01*
X021090Y012328D01*
X021181Y012419D01*
X021245Y012573D01*
X021245Y012739D01*
X021181Y012893D01*
X021063Y013011D01*
X020910Y013074D01*
X020743Y013074D01*
X020590Y013011D01*
X020472Y012893D01*
X020408Y012739D01*
X020408Y012573D01*
X020472Y012419D01*
X020563Y012328D01*
X020472Y012237D01*
X020408Y012083D01*
X020408Y011917D01*
X020472Y011763D01*
X020501Y011734D01*
X020498Y011732D01*
X020438Y011792D01*
X020285Y011856D01*
X020118Y011856D01*
X019965Y011792D01*
X019847Y011674D01*
X019783Y011521D01*
X019783Y011354D01*
X019801Y011312D01*
X015576Y011312D01*
X015576Y013312D01*
X026826Y013312D01*
X026826Y005562D01*
X035201Y005562D01*
X035201Y008127D01*
X035212Y008138D01*
X035276Y008292D01*
X035276Y008458D01*
X035212Y008612D01*
X035201Y008622D01*
X035201Y012409D01*
X035215Y012396D01*
X035368Y012332D01*
X035535Y012332D01*
X035688Y012396D01*
X035806Y012513D01*
X035870Y012667D01*
X035870Y012833D01*
X035806Y012987D01*
X035688Y013104D01*
X035535Y013168D01*
X035368Y013168D01*
X035215Y013104D01*
X035201Y013091D01*
X035201Y016312D01*
X035201Y016167D02*
X045144Y016167D01*
X045096Y016008D02*
X035201Y016008D01*
X035201Y015850D02*
X045111Y015850D01*
X045003Y015793D02*
X044837Y015793D01*
X044683Y015729D01*
X044566Y015612D01*
X044502Y015458D01*
X044502Y015292D01*
X044566Y015138D01*
X044683Y015021D01*
X044837Y014957D01*
X045003Y014957D01*
X045157Y015021D01*
X045275Y015138D01*
X045338Y015292D01*
X045338Y015458D01*
X045275Y015612D01*
X045157Y015729D01*
X045003Y015793D01*
X045195Y015691D02*
X045200Y015691D01*
X045307Y015533D02*
X047451Y015533D01*
X047451Y015691D02*
X045828Y015691D01*
X045917Y015850D02*
X047451Y015850D01*
X047451Y016008D02*
X045932Y016008D01*
X045884Y016167D02*
X047451Y016167D01*
X047451Y015374D02*
X045338Y015374D01*
X045307Y015216D02*
X047451Y015216D01*
X047451Y015057D02*
X045194Y015057D01*
X044745Y014864D02*
X044745Y014698D01*
X044681Y014544D01*
X044563Y014427D01*
X044410Y014363D01*
X044243Y014363D01*
X044090Y014427D01*
X043972Y014544D01*
X043908Y014698D01*
X043908Y014864D01*
X043972Y015018D01*
X044090Y015136D01*
X044243Y015199D01*
X044410Y015199D01*
X044563Y015136D01*
X044681Y015018D01*
X044745Y014864D01*
X044730Y014898D02*
X047451Y014898D01*
X047451Y014740D02*
X044745Y014740D01*
X044696Y014581D02*
X047451Y014581D01*
X047451Y014423D02*
X044554Y014423D01*
X044099Y014423D02*
X035201Y014423D01*
X035201Y014581D02*
X043957Y014581D01*
X043908Y014740D02*
X035201Y014740D01*
X035201Y014898D02*
X039774Y014898D01*
X039722Y014951D02*
X039840Y014833D01*
X039993Y014769D01*
X040160Y014769D01*
X040313Y014833D01*
X040431Y014951D01*
X040495Y015104D01*
X040495Y015271D01*
X040431Y015424D01*
X040313Y015542D01*
X040160Y015606D01*
X039993Y015606D01*
X039840Y015542D01*
X039722Y015424D01*
X039658Y015271D01*
X039658Y015104D01*
X039722Y014951D01*
X039678Y015057D02*
X035201Y015057D01*
X035201Y015216D02*
X039658Y015216D01*
X039701Y015374D02*
X035201Y015374D01*
X035201Y015533D02*
X039830Y015533D01*
X040323Y015533D02*
X044533Y015533D01*
X044502Y015374D02*
X040452Y015374D01*
X040495Y015216D02*
X044534Y015216D01*
X044642Y015057D02*
X044647Y015057D01*
X044645Y015691D02*
X035201Y015691D01*
X034826Y015691D02*
X030826Y015691D01*
X030826Y015533D02*
X034031Y015533D01*
X034056Y015543D02*
X033902Y015479D01*
X033785Y015362D01*
X033721Y015208D01*
X033721Y015042D01*
X033785Y014888D01*
X033902Y014771D01*
X034056Y014707D01*
X034222Y014707D01*
X034376Y014771D01*
X034493Y014888D01*
X034557Y015042D01*
X034557Y015208D01*
X034493Y015362D01*
X034376Y015479D01*
X034222Y015543D01*
X034056Y015543D01*
X034247Y015533D02*
X034826Y015533D01*
X034826Y015374D02*
X034481Y015374D01*
X034554Y015216D02*
X034826Y015216D01*
X034826Y015057D02*
X034557Y015057D01*
X034498Y014898D02*
X034826Y014898D01*
X034826Y014740D02*
X034302Y014740D01*
X033976Y014740D02*
X030826Y014740D01*
X030826Y014898D02*
X033780Y014898D01*
X033721Y015057D02*
X030826Y015057D01*
X030826Y015216D02*
X033724Y015216D01*
X033797Y015374D02*
X030826Y015374D01*
X030451Y015374D02*
X021214Y015374D01*
X021245Y015448D02*
X021245Y015614D01*
X021181Y015768D01*
X021136Y015812D01*
X030451Y015812D01*
X030451Y007594D01*
X030347Y007637D01*
X030181Y007637D01*
X030027Y007573D01*
X029910Y007456D01*
X029846Y007302D01*
X029846Y007136D01*
X029910Y006982D01*
X030027Y006864D01*
X030181Y006801D01*
X030347Y006801D01*
X030451Y006844D01*
X030451Y006062D01*
X028451Y006062D01*
X028451Y013812D01*
X007076Y013812D01*
X007076Y015937D01*
X005701Y015937D01*
X005701Y016937D01*
X009701Y016937D01*
X009701Y015812D01*
X020516Y015812D01*
X020472Y015768D01*
X020408Y015614D01*
X020408Y015448D01*
X020472Y015294D01*
X020501Y015266D01*
X020472Y015237D01*
X020408Y015083D01*
X020408Y014917D01*
X020472Y014763D01*
X020516Y014719D01*
X020472Y014674D01*
X020408Y014521D01*
X020408Y014354D01*
X020472Y014201D01*
X020590Y014083D01*
X020743Y014019D01*
X020910Y014019D01*
X021063Y014083D01*
X021181Y014201D01*
X021245Y014354D01*
X021245Y014521D01*
X021181Y014674D01*
X021136Y014719D01*
X021181Y014763D01*
X021245Y014917D01*
X021245Y015083D01*
X021181Y015237D01*
X021152Y015266D01*
X021181Y015294D01*
X021245Y015448D01*
X021245Y015533D02*
X030451Y015533D01*
X030451Y015691D02*
X021213Y015691D01*
X021190Y015216D02*
X027457Y015216D01*
X027493Y015231D02*
X027340Y015167D01*
X027222Y015049D01*
X027158Y014896D01*
X027158Y014729D01*
X027222Y014576D01*
X027340Y014458D01*
X027493Y014394D01*
X027660Y014394D01*
X027813Y014458D01*
X027931Y014576D01*
X027995Y014729D01*
X027995Y014896D01*
X027931Y015049D01*
X027813Y015167D01*
X027660Y015231D01*
X027493Y015231D01*
X027696Y015216D02*
X028707Y015216D01*
X028743Y015231D02*
X028590Y015167D01*
X028472Y015049D01*
X028408Y014896D01*
X028408Y014729D01*
X028472Y014576D01*
X028590Y014458D01*
X028743Y014394D01*
X028910Y014394D01*
X029063Y014458D01*
X029181Y014576D01*
X029245Y014729D01*
X029245Y014896D01*
X029181Y015049D01*
X029063Y015167D01*
X028910Y015231D01*
X028743Y015231D01*
X028946Y015216D02*
X030451Y015216D01*
X030451Y015057D02*
X029173Y015057D01*
X029243Y014898D02*
X030451Y014898D01*
X030451Y014740D02*
X029245Y014740D01*
X029183Y014581D02*
X030451Y014581D01*
X030451Y014423D02*
X028978Y014423D01*
X028675Y014423D02*
X027728Y014423D01*
X027933Y014581D02*
X028470Y014581D01*
X028408Y014740D02*
X027995Y014740D01*
X027993Y014898D02*
X028410Y014898D01*
X028480Y015057D02*
X027923Y015057D01*
X027230Y015057D02*
X021245Y015057D01*
X021237Y014898D02*
X027160Y014898D01*
X027158Y014740D02*
X021158Y014740D01*
X021219Y014581D02*
X027220Y014581D01*
X027425Y014423D02*
X021245Y014423D01*
X021207Y014264D02*
X030451Y014264D01*
X030451Y014106D02*
X021086Y014106D01*
X020567Y014106D02*
X007076Y014106D01*
X007076Y014264D02*
X020446Y014264D01*
X020408Y014423D02*
X007076Y014423D01*
X007076Y014581D02*
X020434Y014581D01*
X020495Y014740D02*
X007076Y014740D01*
X007076Y014898D02*
X020416Y014898D01*
X020408Y015057D02*
X007076Y015057D01*
X007076Y015216D02*
X020463Y015216D01*
X020439Y015374D02*
X007076Y015374D01*
X007076Y015533D02*
X020408Y015533D01*
X020440Y015691D02*
X007076Y015691D01*
X007076Y015850D02*
X009701Y015850D01*
X009701Y016008D02*
X006337Y016008D01*
X006307Y015999D02*
X006374Y016020D01*
X006437Y016053D01*
X006495Y016094D01*
X006545Y016144D01*
X006586Y016202D01*
X006618Y016265D01*
X006640Y016332D01*
X006651Y016402D01*
X006651Y016427D01*
X006212Y016427D01*
X006212Y016447D01*
X006651Y016447D01*
X006651Y016473D01*
X006640Y016543D01*
X006618Y016610D01*
X006586Y016673D01*
X006545Y016731D01*
X006495Y016781D01*
X006437Y016822D01*
X006374Y016854D01*
X006307Y016876D01*
X006237Y016887D01*
X006211Y016887D01*
X006211Y016448D01*
X006191Y016448D01*
X006191Y016887D01*
X006166Y016887D01*
X006096Y016876D01*
X006029Y016854D01*
X005966Y016822D01*
X005908Y016781D01*
X005858Y016731D01*
X005817Y016673D01*
X005784Y016610D01*
X005763Y016543D01*
X005751Y016473D01*
X005751Y016447D01*
X006191Y016447D01*
X006191Y016427D01*
X006211Y016427D01*
X006211Y015987D01*
X006237Y015987D01*
X006307Y015999D01*
X006211Y016008D02*
X006191Y016008D01*
X006191Y015987D02*
X006191Y016427D01*
X005751Y016427D01*
X005751Y016402D01*
X005763Y016332D01*
X005784Y016265D01*
X005817Y016202D01*
X005858Y016144D01*
X005908Y016094D01*
X005966Y016053D01*
X006029Y016020D01*
X006096Y015999D01*
X006166Y015987D01*
X006191Y015987D01*
X006066Y016008D02*
X005701Y016008D01*
X005701Y016167D02*
X005842Y016167D01*
X005765Y016325D02*
X005701Y016325D01*
X005701Y016484D02*
X005753Y016484D01*
X005801Y016642D02*
X005701Y016642D01*
X005701Y016801D02*
X005936Y016801D01*
X006191Y016801D02*
X006211Y016801D01*
X006211Y016642D02*
X006191Y016642D01*
X006191Y016484D02*
X006211Y016484D01*
X006211Y016325D02*
X006191Y016325D01*
X006191Y016167D02*
X006211Y016167D01*
X006561Y016167D02*
X009701Y016167D01*
X009701Y016325D02*
X006638Y016325D01*
X006650Y016484D02*
X009701Y016484D01*
X009701Y016642D02*
X006602Y016642D01*
X006467Y016801D02*
X009701Y016801D01*
X007076Y013947D02*
X030451Y013947D01*
X030451Y013789D02*
X028451Y013789D01*
X028451Y013630D02*
X030451Y013630D01*
X030451Y013472D02*
X028451Y013472D01*
X028451Y013313D02*
X030451Y013313D01*
X030451Y013154D02*
X028451Y013154D01*
X028451Y012996D02*
X030451Y012996D01*
X030451Y012837D02*
X028451Y012837D01*
X028451Y012679D02*
X030451Y012679D01*
X030451Y012520D02*
X028451Y012520D01*
X028451Y012362D02*
X030451Y012362D01*
X030451Y012203D02*
X028451Y012203D01*
X028451Y012045D02*
X030451Y012045D01*
X030451Y011886D02*
X028451Y011886D01*
X028451Y011728D02*
X030451Y011728D01*
X030451Y011569D02*
X028451Y011569D01*
X028451Y011410D02*
X030451Y011410D01*
X030451Y011252D02*
X028451Y011252D01*
X028451Y011093D02*
X030451Y011093D01*
X030451Y010935D02*
X028451Y010935D01*
X028451Y010776D02*
X030451Y010776D01*
X030451Y010618D02*
X028451Y010618D01*
X028451Y010459D02*
X030451Y010459D01*
X030451Y010301D02*
X028451Y010301D01*
X028451Y010142D02*
X030451Y010142D01*
X030451Y009984D02*
X028451Y009984D01*
X028451Y009825D02*
X030451Y009825D01*
X030451Y009666D02*
X028451Y009666D01*
X028451Y009508D02*
X030451Y009508D01*
X030451Y009349D02*
X028451Y009349D01*
X028451Y009191D02*
X030451Y009191D01*
X030451Y009032D02*
X028451Y009032D01*
X028451Y008874D02*
X030451Y008874D01*
X030451Y008715D02*
X028451Y008715D01*
X028451Y008557D02*
X030451Y008557D01*
X030451Y008398D02*
X028451Y008398D01*
X028451Y008240D02*
X030451Y008240D01*
X030451Y008081D02*
X029656Y008081D01*
X029597Y008106D02*
X029431Y008106D01*
X029277Y008042D01*
X029160Y007924D01*
X029096Y007771D01*
X029096Y007604D01*
X029160Y007451D01*
X029277Y007333D01*
X029431Y007269D01*
X029597Y007269D01*
X029751Y007333D01*
X029868Y007451D01*
X029932Y007604D01*
X029932Y007771D01*
X029868Y007924D01*
X029751Y008042D01*
X029597Y008106D01*
X029372Y008081D02*
X028451Y008081D01*
X028451Y007923D02*
X029159Y007923D01*
X029096Y007764D02*
X028451Y007764D01*
X028451Y007605D02*
X029096Y007605D01*
X029163Y007447D02*
X028451Y007447D01*
X028451Y007288D02*
X029385Y007288D01*
X029643Y007288D02*
X029846Y007288D01*
X029848Y007130D02*
X028451Y007130D01*
X028451Y006971D02*
X029920Y006971D01*
X030151Y006813D02*
X028451Y006813D01*
X028451Y006654D02*
X030451Y006654D01*
X030451Y006496D02*
X028451Y006496D01*
X028451Y006337D02*
X030451Y006337D01*
X030451Y006179D02*
X028451Y006179D01*
X029865Y007447D02*
X029906Y007447D01*
X029932Y007605D02*
X030105Y007605D01*
X029932Y007764D02*
X030451Y007764D01*
X030451Y007923D02*
X029869Y007923D01*
X030423Y007605D02*
X030451Y007605D01*
X030826Y007605D02*
X031346Y007605D01*
X031346Y007614D02*
X031346Y007448D01*
X031410Y007294D01*
X031527Y007177D01*
X031681Y007113D01*
X031847Y007113D01*
X032001Y007177D01*
X032118Y007294D01*
X032182Y007448D01*
X032182Y007614D01*
X032118Y007768D01*
X032001Y007886D01*
X031847Y007949D01*
X031681Y007949D01*
X031527Y007886D01*
X031410Y007768D01*
X031346Y007614D01*
X031408Y007764D02*
X030826Y007764D01*
X030826Y007923D02*
X031616Y007923D01*
X031912Y007923D02*
X034826Y007923D01*
X034826Y007764D02*
X032120Y007764D01*
X032182Y007605D02*
X034826Y007605D01*
X034826Y007447D02*
X032182Y007447D01*
X032112Y007288D02*
X034826Y007288D01*
X034826Y007130D02*
X031887Y007130D01*
X031640Y007130D02*
X030826Y007130D01*
X030826Y007288D02*
X031416Y007288D01*
X031346Y007447D02*
X030826Y007447D01*
X030826Y006971D02*
X034826Y006971D01*
X034826Y006813D02*
X030826Y006813D01*
X030826Y006654D02*
X034826Y006654D01*
X034826Y006496D02*
X030826Y006496D01*
X030826Y006337D02*
X032072Y006337D01*
X031948Y006179D02*
X030826Y006179D01*
X030451Y006813D02*
X030376Y006813D01*
X030826Y008081D02*
X034560Y008081D01*
X034461Y008240D02*
X030826Y008240D01*
X030826Y008398D02*
X034440Y008398D01*
X034480Y008557D02*
X030826Y008557D01*
X030826Y008715D02*
X034607Y008715D01*
X034826Y008874D02*
X030826Y008874D01*
X030826Y009032D02*
X034826Y009032D01*
X034826Y009191D02*
X030826Y009191D01*
X030826Y009349D02*
X034826Y009349D01*
X034826Y009508D02*
X030826Y009508D01*
X030826Y009666D02*
X034826Y009666D01*
X034826Y009825D02*
X030826Y009825D01*
X030826Y009984D02*
X034826Y009984D01*
X034826Y010142D02*
X030826Y010142D01*
X030826Y010301D02*
X034826Y010301D01*
X034826Y010459D02*
X030826Y010459D01*
X031379Y010618D02*
X034826Y010618D01*
X034826Y010776D02*
X031475Y010776D01*
X031495Y010935D02*
X034826Y010935D01*
X034826Y011093D02*
X031451Y011093D01*
X031322Y011252D02*
X034826Y011252D01*
X034826Y011410D02*
X030826Y011410D01*
X030826Y011252D02*
X030831Y011252D01*
X030826Y011569D02*
X034826Y011569D01*
X034826Y011728D02*
X030826Y011728D01*
X030826Y011886D02*
X034826Y011886D01*
X034826Y012045D02*
X030826Y012045D01*
X030826Y012203D02*
X034826Y012203D01*
X034826Y012362D02*
X030826Y012362D01*
X030826Y012520D02*
X034826Y012520D01*
X034826Y012679D02*
X030826Y012679D01*
X030826Y012837D02*
X034826Y012837D01*
X034826Y012996D02*
X030826Y012996D01*
X030826Y013154D02*
X034826Y013154D01*
X034826Y013313D02*
X030826Y013313D01*
X030826Y013472D02*
X034645Y013472D01*
X034418Y013630D02*
X030826Y013630D01*
X030826Y013789D02*
X034347Y013789D01*
X034346Y013947D02*
X030826Y013947D01*
X030826Y014106D02*
X034407Y014106D01*
X034611Y014264D02*
X030826Y014264D01*
X030826Y014423D02*
X034826Y014423D01*
X034826Y014581D02*
X030826Y014581D01*
X030826Y015850D02*
X034826Y015850D01*
X034826Y016008D02*
X033801Y016008D01*
X033751Y015958D02*
X033868Y016076D01*
X033932Y016229D01*
X033932Y016396D01*
X033868Y016549D01*
X033751Y016667D01*
X033597Y016731D01*
X033431Y016731D01*
X033277Y016667D01*
X033160Y016549D01*
X033096Y016396D01*
X033096Y016229D01*
X033160Y016076D01*
X033277Y015958D01*
X033431Y015894D01*
X033597Y015894D01*
X033751Y015958D01*
X033906Y016167D02*
X034826Y016167D01*
X034826Y016325D02*
X033932Y016325D01*
X033896Y016484D02*
X034826Y016484D01*
X034826Y016642D02*
X033775Y016642D01*
X033253Y016642D02*
X015576Y016642D01*
X015576Y016484D02*
X020532Y016484D01*
X020431Y016325D02*
X015576Y016325D01*
X015576Y016801D02*
X045846Y016801D01*
X045914Y016959D02*
X015576Y016959D01*
X015576Y013154D02*
X026826Y013154D01*
X026826Y012996D02*
X021078Y012996D01*
X021204Y012837D02*
X026826Y012837D01*
X026826Y012679D02*
X021245Y012679D01*
X021223Y012520D02*
X026826Y012520D01*
X026826Y012362D02*
X021123Y012362D01*
X021195Y012203D02*
X026826Y012203D01*
X026826Y012045D02*
X021245Y012045D01*
X021232Y011886D02*
X025778Y011886D01*
X025722Y011831D02*
X025658Y011677D01*
X025658Y011511D01*
X025673Y011475D01*
X025660Y011481D01*
X025493Y011481D01*
X025340Y011417D01*
X025222Y011299D01*
X025158Y011146D01*
X025158Y010979D01*
X025222Y010826D01*
X025340Y010708D01*
X025493Y010644D01*
X025660Y010644D01*
X025813Y010708D01*
X025931Y010826D01*
X025995Y010979D01*
X025995Y011146D01*
X025980Y011181D01*
X025993Y011176D01*
X026160Y011176D01*
X026313Y011239D01*
X026431Y011357D01*
X026495Y011511D01*
X026495Y011677D01*
X026431Y011831D01*
X026313Y011948D01*
X026160Y012012D01*
X025993Y012012D01*
X025840Y011948D01*
X025722Y011831D01*
X025679Y011728D02*
X021159Y011728D01*
X021237Y011569D02*
X025658Y011569D01*
X025333Y011410D02*
X021245Y011410D01*
X021189Y011252D02*
X025202Y011252D01*
X025158Y011093D02*
X021013Y011093D01*
X020640Y011093D02*
X020451Y011093D01*
X020451Y010935D02*
X025177Y010935D01*
X025271Y010776D02*
X020451Y010776D01*
X020451Y010618D02*
X020541Y010618D01*
X021112Y010618D02*
X026826Y010618D01*
X026826Y010776D02*
X025882Y010776D01*
X025976Y010935D02*
X026826Y010935D01*
X026826Y011093D02*
X025995Y011093D01*
X026326Y011252D02*
X026826Y011252D01*
X026826Y011410D02*
X026453Y011410D01*
X026495Y011569D02*
X026826Y011569D01*
X026826Y011728D02*
X026474Y011728D01*
X026375Y011886D02*
X026826Y011886D01*
X026826Y010459D02*
X021218Y010459D01*
X021245Y010301D02*
X026826Y010301D01*
X026826Y010142D02*
X021208Y010142D01*
X021089Y009984D02*
X026826Y009984D01*
X026826Y009825D02*
X020451Y009825D01*
X020451Y009666D02*
X026826Y009666D01*
X026826Y009508D02*
X020994Y009508D01*
X021186Y009349D02*
X026826Y009349D01*
X026826Y009191D02*
X024704Y009191D01*
X024707Y009032D02*
X026826Y009032D01*
X026826Y008874D02*
X024710Y008874D01*
X024713Y008715D02*
X026826Y008715D01*
X026826Y008557D02*
X024716Y008557D01*
X024719Y008398D02*
X026826Y008398D01*
X026826Y008240D02*
X024722Y008240D01*
X024725Y008081D02*
X026826Y008081D01*
X026826Y007923D02*
X024728Y007923D01*
X024731Y007764D02*
X026826Y007764D01*
X026826Y007605D02*
X024734Y007605D01*
X024737Y007447D02*
X026826Y007447D01*
X026826Y007288D02*
X024740Y007288D01*
X024743Y007130D02*
X026826Y007130D01*
X026826Y006971D02*
X024746Y006971D01*
X024750Y006813D02*
X026826Y006813D01*
X026826Y006654D02*
X024753Y006654D01*
X024756Y006496D02*
X026826Y006496D01*
X026826Y006337D02*
X024759Y006337D01*
X024762Y006179D02*
X026826Y006179D01*
X026826Y006020D02*
X024765Y006020D01*
X024768Y005861D02*
X026826Y005861D01*
X026826Y005703D02*
X024771Y005703D01*
X024774Y005544D02*
X036784Y005544D01*
X036682Y005703D02*
X035201Y005703D01*
X035201Y005861D02*
X036658Y005861D01*
X036697Y006020D02*
X035201Y006020D01*
X035201Y006179D02*
X036820Y006179D01*
X037333Y006179D02*
X037451Y006179D01*
X037451Y006337D02*
X035201Y006337D01*
X035201Y006496D02*
X037451Y006496D01*
X037451Y006654D02*
X035201Y006654D01*
X035201Y006813D02*
X037451Y006813D01*
X037451Y006971D02*
X035201Y006971D01*
X035201Y007130D02*
X037451Y007130D01*
X037451Y007288D02*
X035201Y007288D01*
X035201Y007447D02*
X037451Y007447D01*
X037451Y007605D02*
X035201Y007605D01*
X035201Y007764D02*
X037451Y007764D01*
X037451Y007923D02*
X035201Y007923D01*
X035201Y008081D02*
X037451Y008081D01*
X037451Y008240D02*
X035254Y008240D01*
X035276Y008398D02*
X037451Y008398D01*
X037451Y008557D02*
X035235Y008557D01*
X035201Y008715D02*
X037451Y008715D01*
X037451Y008874D02*
X035201Y008874D01*
X035201Y009032D02*
X037451Y009032D01*
X037451Y009191D02*
X035201Y009191D01*
X035201Y009349D02*
X037451Y009349D01*
X037451Y009508D02*
X037394Y009508D01*
X037826Y009508D02*
X040576Y009508D01*
X040576Y009666D02*
X037826Y009666D01*
X037826Y009825D02*
X040576Y009825D01*
X040576Y009984D02*
X037826Y009984D01*
X037826Y010142D02*
X040576Y010142D01*
X040576Y010301D02*
X037826Y010301D01*
X037826Y010459D02*
X040576Y010459D01*
X040576Y010618D02*
X037826Y010618D01*
X037826Y010776D02*
X038271Y010776D01*
X038222Y010826D02*
X038340Y010708D01*
X038493Y010644D01*
X038660Y010644D01*
X038813Y010708D01*
X038931Y010826D01*
X038995Y010979D01*
X038995Y011144D01*
X039160Y011144D01*
X039313Y011208D01*
X039431Y011326D01*
X039495Y011479D01*
X039495Y011646D01*
X039431Y011799D01*
X039313Y011917D01*
X039160Y011981D01*
X038993Y011981D01*
X038840Y011917D01*
X038722Y011799D01*
X038658Y011646D01*
X038658Y011481D01*
X038493Y011481D01*
X038340Y011417D01*
X038222Y011299D01*
X038158Y011146D01*
X038158Y010979D01*
X038222Y010826D01*
X038177Y010935D02*
X037826Y010935D01*
X037826Y011093D02*
X038158Y011093D01*
X038202Y011252D02*
X037826Y011252D01*
X037826Y011410D02*
X038333Y011410D01*
X038658Y011569D02*
X037826Y011569D01*
X037826Y011728D02*
X038692Y011728D01*
X038809Y011886D02*
X037826Y011886D01*
X037826Y012045D02*
X040576Y012045D01*
X040576Y012203D02*
X037826Y012203D01*
X037826Y012362D02*
X040576Y012362D01*
X040576Y012520D02*
X037826Y012520D01*
X037826Y012679D02*
X040576Y012679D01*
X040576Y012812D02*
X037826Y012812D01*
X037826Y002812D01*
X039681Y002812D01*
X039868Y002920D01*
X040170Y003001D01*
X040483Y003001D01*
X040785Y002920D01*
X040815Y002903D01*
X040815Y003021D01*
X040878Y003174D01*
X040996Y003292D01*
X041150Y003356D01*
X041316Y003356D01*
X041470Y003292D01*
X041587Y003174D01*
X041651Y003021D01*
X041651Y002854D01*
X041633Y002812D01*
X047326Y002812D01*
X047326Y004562D01*
X040576Y004562D01*
X040576Y012812D01*
X040951Y012837D02*
X047451Y012837D01*
X047451Y012679D02*
X040951Y012679D01*
X040951Y012520D02*
X047451Y012520D01*
X047451Y012362D02*
X040951Y012362D01*
X040951Y012203D02*
X047451Y012203D01*
X047451Y012045D02*
X040951Y012045D01*
X040951Y011886D02*
X047451Y011886D01*
X047451Y011728D02*
X040951Y011728D01*
X040951Y011569D02*
X047451Y011569D01*
X047451Y011410D02*
X040951Y011410D01*
X040951Y011252D02*
X047451Y011252D01*
X047451Y011093D02*
X040951Y011093D01*
X040951Y010935D02*
X047451Y010935D01*
X047451Y010776D02*
X040951Y010776D01*
X040951Y010618D02*
X047451Y010618D01*
X047451Y010459D02*
X040951Y010459D01*
X040951Y010301D02*
X047451Y010301D01*
X047451Y010142D02*
X040951Y010142D01*
X040951Y009984D02*
X050283Y009984D01*
X050409Y009508D02*
X042870Y009508D01*
X042870Y009479D02*
X042806Y009326D01*
X042688Y009208D01*
X042535Y009144D01*
X042368Y009144D01*
X042215Y009208D01*
X042097Y009326D01*
X042033Y009479D01*
X042033Y009646D01*
X042097Y009799D01*
X042215Y009917D01*
X042368Y009981D01*
X042535Y009981D01*
X042688Y009917D01*
X042806Y009799D01*
X042870Y009646D01*
X042870Y009479D01*
X042816Y009349D02*
X050217Y009349D01*
X050744Y009508D02*
X050951Y009508D01*
X050951Y009666D02*
X042861Y009666D01*
X042780Y009825D02*
X050951Y009825D01*
X050951Y009984D02*
X050870Y009984D01*
X050936Y009349D02*
X050951Y009349D01*
X047451Y009191D02*
X042647Y009191D01*
X042256Y009191D02*
X040951Y009191D01*
X040951Y009349D02*
X042087Y009349D01*
X042033Y009508D02*
X040951Y009508D01*
X040951Y009666D02*
X042042Y009666D01*
X042123Y009825D02*
X040951Y009825D01*
X040576Y009349D02*
X037826Y009349D01*
X037826Y009191D02*
X040576Y009191D01*
X040576Y009032D02*
X037826Y009032D01*
X037826Y008874D02*
X040576Y008874D01*
X040576Y008715D02*
X037826Y008715D01*
X037826Y008557D02*
X040576Y008557D01*
X040576Y008398D02*
X037826Y008398D01*
X037826Y008240D02*
X040576Y008240D01*
X040576Y008081D02*
X037826Y008081D01*
X037826Y007923D02*
X040576Y007923D01*
X040576Y007764D02*
X037826Y007764D01*
X037826Y007605D02*
X040576Y007605D01*
X040576Y007447D02*
X037826Y007447D01*
X037826Y007288D02*
X040576Y007288D01*
X040576Y007130D02*
X037826Y007130D01*
X037826Y006971D02*
X040576Y006971D01*
X040576Y006813D02*
X037826Y006813D01*
X037826Y006654D02*
X040576Y006654D01*
X040576Y006496D02*
X037826Y006496D01*
X037826Y006337D02*
X040576Y006337D01*
X040576Y006179D02*
X037826Y006179D01*
X037826Y006020D02*
X040576Y006020D01*
X040576Y005861D02*
X037826Y005861D01*
X037826Y005703D02*
X040576Y005703D01*
X040576Y005544D02*
X037826Y005544D01*
X037826Y005386D02*
X040576Y005386D01*
X040576Y005227D02*
X037826Y005227D01*
X037826Y005069D02*
X040576Y005069D01*
X040576Y004910D02*
X039320Y004910D01*
X039313Y004917D02*
X039160Y004981D01*
X038993Y004981D01*
X038840Y004917D01*
X038722Y004799D01*
X038658Y004646D01*
X038658Y004481D01*
X038493Y004481D01*
X038340Y004417D01*
X038222Y004299D01*
X038158Y004146D01*
X038158Y003979D01*
X038222Y003826D01*
X038340Y003708D01*
X038493Y003644D01*
X038660Y003644D01*
X038813Y003708D01*
X038931Y003826D01*
X038995Y003979D01*
X038995Y004144D01*
X039160Y004144D01*
X039313Y004208D01*
X039431Y004326D01*
X039495Y004479D01*
X039495Y004646D01*
X039431Y004799D01*
X039313Y004917D01*
X039451Y004752D02*
X040576Y004752D01*
X040576Y004593D02*
X039495Y004593D01*
X039476Y004435D02*
X047326Y004435D01*
X047326Y004276D02*
X039381Y004276D01*
X038995Y004117D02*
X042884Y004117D01*
X042933Y004167D02*
X042816Y004049D01*
X042752Y003896D01*
X042752Y003729D01*
X042816Y003576D01*
X042933Y003458D01*
X043087Y003394D01*
X043253Y003394D01*
X043407Y003458D01*
X043525Y003576D01*
X043588Y003729D01*
X043588Y003896D01*
X043525Y004049D01*
X043407Y004167D01*
X043253Y004231D01*
X043087Y004231D01*
X042933Y004167D01*
X042778Y003959D02*
X038986Y003959D01*
X038906Y003800D02*
X042752Y003800D01*
X042788Y003642D02*
X037826Y003642D01*
X037826Y003800D02*
X038247Y003800D01*
X038167Y003959D02*
X037826Y003959D01*
X037826Y004117D02*
X038158Y004117D01*
X038212Y004276D02*
X037826Y004276D01*
X037826Y004435D02*
X038382Y004435D01*
X038658Y004593D02*
X037826Y004593D01*
X037826Y004752D02*
X038702Y004752D01*
X038833Y004910D02*
X037826Y004910D01*
X037451Y004910D02*
X035476Y004910D01*
X035525Y004862D02*
X035407Y004979D01*
X035253Y005043D01*
X035087Y005043D01*
X034933Y004979D01*
X034816Y004862D01*
X034752Y004708D01*
X034752Y004542D01*
X034816Y004388D01*
X034933Y004271D01*
X035087Y004207D01*
X035253Y004207D01*
X035407Y004271D01*
X035525Y004388D01*
X035588Y004542D01*
X035588Y004708D01*
X035525Y004862D01*
X035570Y004752D02*
X037451Y004752D01*
X037451Y004593D02*
X035588Y004593D01*
X035544Y004435D02*
X037451Y004435D01*
X037451Y004276D02*
X035413Y004276D01*
X034928Y004276D02*
X026350Y004276D01*
X026313Y004239D02*
X026431Y004357D01*
X026495Y004511D01*
X026495Y004677D01*
X026431Y004831D01*
X026313Y004948D01*
X026160Y005012D01*
X025993Y005012D01*
X025840Y004948D01*
X025722Y004831D01*
X025658Y004677D01*
X025658Y004511D01*
X025673Y004475D01*
X025660Y004481D01*
X025493Y004481D01*
X025340Y004417D01*
X025222Y004299D01*
X025158Y004146D01*
X025158Y003979D01*
X025222Y003826D01*
X025340Y003708D01*
X025493Y003644D01*
X025660Y003644D01*
X025813Y003708D01*
X025931Y003826D01*
X025995Y003979D01*
X025995Y004146D01*
X025980Y004181D01*
X025993Y004176D01*
X026160Y004176D01*
X026313Y004239D01*
X026463Y004435D02*
X034796Y004435D01*
X034752Y004593D02*
X026495Y004593D01*
X026464Y004752D02*
X034770Y004752D01*
X034864Y004910D02*
X026351Y004910D01*
X025802Y004910D02*
X024786Y004910D01*
X024789Y004752D02*
X025689Y004752D01*
X025658Y004593D02*
X024792Y004593D01*
X024795Y004435D02*
X025382Y004435D01*
X025212Y004276D02*
X024798Y004276D01*
X024801Y004117D02*
X025158Y004117D01*
X025167Y003959D02*
X024804Y003959D01*
X024807Y003800D02*
X025247Y003800D01*
X024811Y003642D02*
X035957Y003642D01*
X035972Y003607D02*
X036090Y003489D01*
X036243Y003426D01*
X036410Y003426D01*
X036563Y003489D01*
X036681Y003607D01*
X036745Y003761D01*
X036745Y003927D01*
X036681Y004081D01*
X036563Y004198D01*
X036410Y004262D01*
X036243Y004262D01*
X036090Y004198D01*
X035972Y004081D01*
X035908Y003927D01*
X035908Y003761D01*
X035972Y003607D01*
X036104Y003483D02*
X027903Y003483D01*
X028003Y003325D02*
X037451Y003325D01*
X037451Y003483D02*
X036549Y003483D01*
X036695Y003642D02*
X037451Y003642D01*
X037451Y003800D02*
X036745Y003800D01*
X036731Y003959D02*
X037451Y003959D01*
X037451Y004117D02*
X036644Y004117D01*
X036009Y004117D02*
X025995Y004117D01*
X025986Y003959D02*
X035922Y003959D01*
X035908Y003800D02*
X025906Y003800D01*
X024814Y003483D02*
X027312Y003483D01*
X027212Y003325D02*
X024817Y003325D01*
X024820Y003166D02*
X027190Y003166D01*
X027230Y003008D02*
X024823Y003008D01*
X024826Y002849D02*
X027355Y002849D01*
X027861Y002849D02*
X030745Y002849D01*
X031908Y002849D02*
X037451Y002849D01*
X037451Y003008D02*
X027986Y003008D01*
X028026Y003166D02*
X037451Y003166D01*
X037826Y003166D02*
X040875Y003166D01*
X040815Y003008D02*
X037826Y003008D01*
X037826Y002849D02*
X039745Y002849D01*
X041075Y003325D02*
X037826Y003325D01*
X037826Y003483D02*
X042908Y003483D01*
X043432Y003483D02*
X047326Y003483D01*
X047326Y003325D02*
X041390Y003325D01*
X041590Y003166D02*
X047326Y003166D01*
X047326Y003008D02*
X041651Y003008D01*
X041649Y002849D02*
X047326Y002849D01*
X047326Y003642D02*
X043552Y003642D01*
X043588Y003800D02*
X047326Y003800D01*
X047326Y003959D02*
X043562Y003959D01*
X043456Y004117D02*
X047326Y004117D01*
X047451Y005069D02*
X040951Y005069D01*
X040951Y005227D02*
X047451Y005227D01*
X047451Y005386D02*
X040951Y005386D01*
X040951Y005544D02*
X047451Y005544D01*
X047451Y005703D02*
X042676Y005703D01*
X042688Y005708D02*
X042806Y005826D01*
X042870Y005979D01*
X042870Y006146D01*
X042806Y006299D01*
X042688Y006417D01*
X042535Y006481D01*
X042368Y006481D01*
X042215Y006417D01*
X042097Y006299D01*
X042033Y006146D01*
X042033Y005979D01*
X042097Y005826D01*
X042215Y005708D01*
X042368Y005644D01*
X042535Y005644D01*
X042688Y005708D01*
X042821Y005861D02*
X047451Y005861D01*
X047451Y006020D02*
X042870Y006020D01*
X042856Y006179D02*
X047451Y006179D01*
X047451Y006337D02*
X042768Y006337D01*
X042135Y006337D02*
X040951Y006337D01*
X040951Y006179D02*
X042047Y006179D01*
X042033Y006020D02*
X040951Y006020D01*
X040951Y005861D02*
X042082Y005861D01*
X042227Y005703D02*
X040951Y005703D01*
X040951Y006496D02*
X047451Y006496D01*
X047451Y006654D02*
X040951Y006654D01*
X040951Y006813D02*
X047451Y006813D01*
X047451Y006971D02*
X040951Y006971D01*
X040951Y007130D02*
X047451Y007130D01*
X047451Y007288D02*
X040951Y007288D01*
X040951Y007447D02*
X047451Y007447D01*
X047451Y007605D02*
X040951Y007605D01*
X040951Y007764D02*
X047451Y007764D01*
X047451Y007923D02*
X040951Y007923D01*
X040951Y008081D02*
X047451Y008081D01*
X047451Y008240D02*
X040951Y008240D01*
X040951Y008398D02*
X047451Y008398D01*
X047451Y008557D02*
X040951Y008557D01*
X040951Y008715D02*
X047451Y008715D01*
X047451Y008874D02*
X040951Y008874D01*
X040951Y009032D02*
X047451Y009032D01*
X047451Y012996D02*
X040951Y012996D01*
X040951Y013154D02*
X047451Y013154D01*
X047451Y013313D02*
X035201Y013313D01*
X035201Y013472D02*
X047451Y013472D01*
X047451Y013630D02*
X035201Y013630D01*
X035201Y013789D02*
X047451Y013789D01*
X047451Y013947D02*
X035201Y013947D01*
X035201Y014106D02*
X047451Y014106D01*
X047451Y014264D02*
X035201Y014264D01*
X035201Y013154D02*
X035336Y013154D01*
X035567Y013154D02*
X037451Y013154D01*
X037451Y012996D02*
X035797Y012996D01*
X035868Y012837D02*
X037451Y012837D01*
X037451Y012679D02*
X035870Y012679D01*
X035809Y012520D02*
X037451Y012520D01*
X037451Y012362D02*
X035607Y012362D01*
X035296Y012362D02*
X035201Y012362D01*
X035201Y012203D02*
X037451Y012203D01*
X037451Y012045D02*
X036654Y012045D01*
X036681Y012018D02*
X036563Y012136D01*
X036410Y012199D01*
X036243Y012199D01*
X036090Y012136D01*
X035972Y012018D01*
X035908Y011864D01*
X035908Y011698D01*
X035972Y011544D01*
X036090Y011427D01*
X036243Y011363D01*
X036410Y011363D01*
X036563Y011427D01*
X036681Y011544D01*
X036745Y011698D01*
X036745Y011864D01*
X036681Y012018D01*
X036736Y011886D02*
X037451Y011886D01*
X037451Y011728D02*
X036745Y011728D01*
X036691Y011569D02*
X037451Y011569D01*
X037451Y011410D02*
X036524Y011410D01*
X036129Y011410D02*
X035201Y011410D01*
X035201Y011252D02*
X037451Y011252D01*
X037451Y011093D02*
X035201Y011093D01*
X035201Y010935D02*
X037451Y010935D01*
X037451Y010776D02*
X035201Y010776D01*
X035201Y010618D02*
X037451Y010618D01*
X037451Y010459D02*
X035201Y010459D01*
X035201Y010301D02*
X037451Y010301D01*
X037451Y010142D02*
X037298Y010142D01*
X037445Y009984D02*
X037451Y009984D01*
X036855Y010142D02*
X035201Y010142D01*
X035201Y009984D02*
X036708Y009984D01*
X036658Y009825D02*
X035201Y009825D01*
X035201Y009666D02*
X036671Y009666D01*
X036758Y009508D02*
X035201Y009508D01*
X035201Y011569D02*
X035962Y011569D01*
X035908Y011728D02*
X035201Y011728D01*
X035201Y011886D02*
X035917Y011886D01*
X035999Y012045D02*
X035201Y012045D01*
X038882Y010776D02*
X040576Y010776D01*
X040576Y010935D02*
X038976Y010935D01*
X038995Y011093D02*
X040576Y011093D01*
X040576Y011252D02*
X039357Y011252D01*
X039466Y011410D02*
X040576Y011410D01*
X040576Y011569D02*
X039495Y011569D01*
X039461Y011728D02*
X040576Y011728D01*
X040576Y011886D02*
X039344Y011886D01*
X040379Y014898D02*
X043922Y014898D01*
X044011Y015057D02*
X040475Y015057D01*
X033227Y016008D02*
X030826Y016008D01*
X030826Y016167D02*
X033122Y016167D01*
X033096Y016325D02*
X021222Y016325D01*
X021121Y016484D02*
X033132Y016484D01*
X032581Y006337D02*
X034826Y006337D01*
X034826Y006179D02*
X032705Y006179D01*
X037368Y005544D02*
X037451Y005544D01*
X037451Y005386D02*
X024777Y005386D01*
X024780Y005227D02*
X037451Y005227D01*
X037451Y005069D02*
X024783Y005069D01*
X020659Y009508D02*
X020451Y009508D01*
X020451Y009349D02*
X020467Y009349D01*
X020451Y009984D02*
X020564Y009984D01*
X019783Y011410D02*
X015576Y011410D01*
X015576Y011569D02*
X019803Y011569D01*
X019900Y011728D02*
X015576Y011728D01*
X015576Y011886D02*
X020421Y011886D01*
X020408Y012045D02*
X015576Y012045D01*
X015576Y012203D02*
X020458Y012203D01*
X020530Y012362D02*
X015576Y012362D01*
X015576Y012520D02*
X020430Y012520D01*
X020408Y012679D02*
X015576Y012679D01*
X015576Y012837D02*
X020449Y012837D01*
X020575Y012996D02*
X015576Y012996D01*
M02*
