G75*
G70*
%OFA0B0*%
%FSLAX24Y24*%
%IPPOS*%
%LPD*%
%AMOC8*
5,1,8,0,0,1.08239X$1,22.5*
%
%ADD10C,0.1497*%
%ADD11R,0.0710X0.0789*%
%ADD12R,0.0470X0.0200*%
%ADD13R,0.0513X0.0474*%
%ADD14R,0.0474X0.0513*%
%ADD15R,0.0316X0.0946*%
%ADD16R,0.0789X0.0710*%
%ADD17R,0.0790X0.0710*%
%ADD18R,0.0710X0.0790*%
%ADD19R,0.0946X0.0316*%
%ADD20C,0.1897*%
%ADD21C,0.1700*%
%ADD22C,0.0907*%
%ADD23R,0.1104X0.1025*%
%ADD24R,0.0200X0.0470*%
%ADD25C,0.0397*%
%ADD26R,0.0397X0.0397*%
%ADD27C,0.0631*%
%ADD28R,0.0986X0.0316*%
%ADD29R,0.0620X0.0620*%
%ADD30C,0.0620*%
%ADD31C,0.0516*%
D10*
X009326Y001812D03*
X031326Y001812D03*
X040326Y001812D03*
X062326Y001812D03*
X044326Y022312D03*
X027326Y022312D03*
X009326Y026312D03*
D11*
X026775Y008562D03*
X027878Y008562D03*
X027878Y007062D03*
X026775Y007062D03*
X030525Y006187D03*
X031628Y006187D03*
X033025Y005812D03*
X034128Y005812D03*
D12*
X031225Y006917D03*
X031225Y007173D03*
X031225Y007429D03*
X031225Y007684D03*
X031225Y007940D03*
X031225Y008196D03*
X031225Y008452D03*
X031225Y008708D03*
X028928Y008708D03*
X028928Y008452D03*
X028928Y008196D03*
X028928Y007940D03*
X028928Y007684D03*
X028928Y007429D03*
X028928Y007173D03*
X028928Y006917D03*
D13*
X028161Y006062D03*
X027492Y006062D03*
X025911Y006312D03*
X025242Y006312D03*
X025242Y007312D03*
X024661Y007312D03*
X023992Y007312D03*
X023992Y008312D03*
X024661Y008312D03*
X025242Y008312D03*
X025911Y008312D03*
X025911Y009312D03*
X025242Y009312D03*
X025911Y007312D03*
X027492Y009562D03*
X028161Y009562D03*
X028161Y011062D03*
X027492Y011062D03*
X026661Y013312D03*
X025992Y013312D03*
X025992Y014312D03*
X026661Y014312D03*
X030492Y005219D03*
X031161Y005219D03*
X033242Y004937D03*
X033911Y004937D03*
X037992Y002312D03*
X038661Y002312D03*
X038661Y001312D03*
X037992Y001312D03*
X041867Y002937D03*
X042536Y002937D03*
X042536Y003812D03*
X041867Y003812D03*
X042036Y005562D03*
X041367Y005562D03*
X039661Y006312D03*
X038992Y006312D03*
X038992Y007312D03*
X039661Y007312D03*
X039661Y008312D03*
X038992Y008312D03*
X038992Y009312D03*
X039661Y009312D03*
X041367Y010062D03*
X042036Y010062D03*
X038661Y013312D03*
X037992Y013312D03*
X037992Y014312D03*
X038661Y014312D03*
X028161Y004562D03*
X027492Y004562D03*
X028117Y003187D03*
X028786Y003187D03*
X028786Y002312D03*
X028117Y002312D03*
X026661Y002312D03*
X025992Y002312D03*
X025992Y001312D03*
X026661Y001312D03*
X004161Y008281D03*
X003492Y008281D03*
X003492Y009187D03*
X004161Y009187D03*
X003661Y013312D03*
X002992Y013312D03*
X003461Y014781D03*
X004130Y014781D03*
X004161Y015687D03*
X003492Y015687D03*
X003661Y019812D03*
X002992Y019812D03*
X003461Y021281D03*
X004130Y021281D03*
X004161Y022187D03*
X003492Y022187D03*
X003661Y026312D03*
X002992Y026312D03*
X008492Y033312D03*
X009161Y033312D03*
X009161Y034219D03*
X008492Y034219D03*
X013461Y023937D03*
X014130Y023937D03*
D14*
X014326Y019397D03*
X014326Y018728D03*
X013451Y018728D03*
X013451Y019397D03*
X004826Y018022D03*
X004826Y017353D03*
X002733Y015928D03*
X002733Y015259D03*
X004826Y011522D03*
X004826Y010853D03*
X002733Y009428D03*
X002733Y008759D03*
X013451Y010603D03*
X013451Y011272D03*
X014326Y011272D03*
X014326Y010603D03*
X024326Y010647D03*
X024326Y009978D03*
X024326Y005647D03*
X024326Y004978D03*
X031076Y009728D03*
X031076Y010397D03*
X036326Y010478D03*
X036326Y011147D03*
X037326Y011147D03*
X037326Y010478D03*
X037076Y009147D03*
X037076Y008478D03*
X038076Y008478D03*
X038076Y009147D03*
X038076Y007147D03*
X038076Y006478D03*
X037076Y006478D03*
X037076Y007147D03*
X035170Y005928D03*
X035170Y005259D03*
X036326Y005147D03*
X036326Y004478D03*
X037326Y004478D03*
X037326Y005147D03*
X043826Y005228D03*
X043826Y005897D03*
X046451Y003022D03*
X046451Y002353D03*
X047326Y002353D03*
X047326Y003022D03*
X043826Y009728D03*
X043826Y010397D03*
X037826Y017603D03*
X037826Y018272D03*
X036951Y018272D03*
X036951Y017603D03*
X035951Y020478D03*
X035951Y021147D03*
X035326Y021978D03*
X035326Y022647D03*
X034076Y022647D03*
X034076Y021978D03*
X033451Y021147D03*
X033451Y020478D03*
X032201Y020478D03*
X032201Y021147D03*
X031576Y021978D03*
X031576Y022647D03*
X030326Y022647D03*
X030326Y021978D03*
X029701Y021147D03*
X029701Y020478D03*
X030951Y020478D03*
X030951Y021147D03*
X029076Y021978D03*
X029076Y022647D03*
X032826Y022647D03*
X032826Y021978D03*
X034701Y021147D03*
X034701Y020478D03*
X036576Y021978D03*
X036576Y022647D03*
X038451Y021147D03*
X038451Y020478D03*
X039701Y020478D03*
X039701Y021147D03*
X039076Y021978D03*
X039076Y022647D03*
X040326Y022647D03*
X040326Y021978D03*
X041201Y021978D03*
X041201Y022647D03*
X042451Y022647D03*
X042451Y021978D03*
X041826Y021147D03*
X041826Y020478D03*
X043076Y020478D03*
X043076Y021147D03*
X004826Y023853D03*
X004826Y024522D03*
X002733Y022428D03*
X002733Y021759D03*
D15*
X002576Y023289D03*
X003076Y023289D03*
X003576Y023289D03*
X004076Y023289D03*
X004076Y025336D03*
X003576Y025336D03*
X003076Y025336D03*
X002576Y025336D03*
X002576Y018836D03*
X003076Y018836D03*
X003576Y018836D03*
X004076Y018836D03*
X004076Y016789D03*
X003576Y016789D03*
X003076Y016789D03*
X002576Y016789D03*
X002576Y012336D03*
X003076Y012336D03*
X003576Y012336D03*
X004076Y012336D03*
X004076Y010289D03*
X003576Y010289D03*
X003076Y010289D03*
X002576Y010289D03*
X025076Y010289D03*
X025576Y010289D03*
X026076Y010289D03*
X026576Y010289D03*
X026576Y012336D03*
X026076Y012336D03*
X025576Y012336D03*
X025076Y012336D03*
X025076Y005336D03*
X025576Y005336D03*
X026076Y005336D03*
X026576Y005336D03*
X026576Y003289D03*
X026076Y003289D03*
X025576Y003289D03*
X025076Y003289D03*
X038076Y003289D03*
X038576Y003289D03*
X039076Y003289D03*
X039576Y003289D03*
X039576Y005336D03*
X039076Y005336D03*
X038576Y005336D03*
X038076Y005336D03*
X040826Y006789D03*
X041326Y006789D03*
X041826Y006789D03*
X042326Y006789D03*
X042826Y006789D03*
X043326Y006789D03*
X043826Y006789D03*
X043826Y008836D03*
X043326Y008836D03*
X042826Y008836D03*
X042326Y008836D03*
X041826Y008836D03*
X041326Y008836D03*
X040826Y008836D03*
X039576Y010289D03*
X039076Y010289D03*
X038576Y010289D03*
X038076Y010289D03*
X038076Y012336D03*
X038576Y012336D03*
X039076Y012336D03*
X039576Y012336D03*
D16*
X045576Y003239D03*
X045576Y002136D03*
X015201Y010386D03*
X015201Y011489D03*
X015201Y018511D03*
X015201Y019614D03*
D17*
X013451Y017997D03*
X013451Y016878D03*
X013451Y013122D03*
X013451Y012003D03*
D18*
X013261Y007937D03*
X012142Y007937D03*
X012142Y022437D03*
X013261Y022437D03*
X048267Y003187D03*
X049386Y003187D03*
X057267Y024312D03*
X058386Y024312D03*
X058386Y025437D03*
X057267Y025437D03*
D19*
X046975Y010062D03*
X046975Y009562D03*
X046975Y009062D03*
X046975Y008562D03*
X046975Y007062D03*
X046975Y006562D03*
X046975Y006062D03*
X046975Y005562D03*
X044928Y005562D03*
X044928Y006062D03*
X044928Y006562D03*
X044928Y007062D03*
X044928Y008562D03*
X044928Y009062D03*
X044928Y009562D03*
X044928Y010062D03*
D20*
X006260Y035352D03*
D21*
X005039Y033462D03*
X003779Y035352D03*
D22*
X002008Y035352D03*
D23*
X008067Y036312D03*
X010586Y036312D03*
D24*
X034431Y008961D03*
X034687Y008961D03*
X034943Y008961D03*
X035199Y008961D03*
X035454Y008961D03*
X035710Y008961D03*
X035966Y008961D03*
X036222Y008961D03*
X036222Y006664D03*
X035966Y006664D03*
X035710Y006664D03*
X035454Y006664D03*
X035199Y006664D03*
X034943Y006664D03*
X034687Y006664D03*
X034431Y006664D03*
D25*
X034576Y024562D03*
X034076Y024562D03*
X033576Y024562D03*
X033076Y024562D03*
X032576Y024562D03*
X032076Y024562D03*
X031576Y024562D03*
X031576Y025062D03*
X031076Y025062D03*
X032076Y025062D03*
X032576Y025062D03*
X033076Y025062D03*
X033576Y025062D03*
X034076Y025062D03*
X034576Y025062D03*
X035076Y025062D03*
X035076Y024562D03*
X035576Y024562D03*
X035576Y025062D03*
X036076Y025062D03*
X036076Y024562D03*
X036576Y024562D03*
X036576Y025062D03*
X037076Y025062D03*
X037076Y024562D03*
X037576Y024562D03*
X037576Y025062D03*
X038076Y025062D03*
X038076Y024562D03*
X038576Y024562D03*
X038576Y025062D03*
X039076Y025062D03*
X039076Y024562D03*
X039576Y024562D03*
X039576Y025062D03*
X040076Y025062D03*
X040076Y024562D03*
X040576Y024562D03*
X040576Y025062D03*
X041076Y025062D03*
X041076Y024562D03*
X041576Y024562D03*
X041576Y025062D03*
X042076Y025062D03*
X042076Y024562D03*
X042576Y024562D03*
X042576Y025062D03*
X043076Y025062D03*
X043076Y024562D03*
X043576Y024562D03*
X043576Y025062D03*
X044076Y025062D03*
X044076Y024562D03*
X044576Y024562D03*
X044576Y025062D03*
X045076Y025062D03*
X045076Y024562D03*
X045576Y024562D03*
X045576Y025062D03*
X046076Y025062D03*
X046076Y024562D03*
X046576Y024562D03*
X046576Y025062D03*
X047076Y025062D03*
X047076Y024562D03*
X047576Y024562D03*
X047576Y025062D03*
X048076Y025062D03*
X048076Y024562D03*
X048576Y024562D03*
X048576Y025062D03*
X049076Y025062D03*
X049076Y024562D03*
X049576Y024562D03*
X049576Y025062D03*
X050076Y025062D03*
X050076Y024562D03*
X050576Y024562D03*
X050576Y025062D03*
X051076Y025062D03*
X051076Y024562D03*
X051576Y024562D03*
X051576Y025062D03*
X052076Y025062D03*
X052076Y024562D03*
X052576Y024562D03*
X052576Y025062D03*
X053076Y025062D03*
X053076Y024562D03*
X053576Y024562D03*
X053576Y025062D03*
X054076Y025062D03*
X054076Y024562D03*
X054576Y024562D03*
X054576Y025062D03*
X055076Y025062D03*
X055076Y024562D03*
X055576Y024562D03*
X055576Y025062D03*
D26*
X031076Y024562D03*
D27*
X022326Y018834D03*
X022326Y005291D03*
X049076Y005291D03*
X049076Y018834D03*
D28*
X048348Y018165D03*
X048348Y017771D03*
X048348Y017377D03*
X048348Y016984D03*
X048348Y016590D03*
X048348Y016196D03*
X048348Y015803D03*
X048348Y015409D03*
X048348Y015015D03*
X048348Y014621D03*
X048348Y014228D03*
X048348Y013834D03*
X048348Y013440D03*
X048348Y013047D03*
X048348Y012653D03*
X048348Y012259D03*
X048348Y011866D03*
X048348Y011472D03*
X048348Y011078D03*
X048348Y010684D03*
X048348Y010291D03*
X048348Y009897D03*
X048348Y009503D03*
X048348Y009110D03*
X048348Y008716D03*
X048348Y008322D03*
X048348Y007929D03*
X048348Y007535D03*
X048348Y007141D03*
X048348Y006747D03*
X048348Y006354D03*
X048348Y005960D03*
X049805Y005960D03*
X049805Y006354D03*
X049805Y006747D03*
X049805Y007141D03*
X049805Y007535D03*
X049805Y007929D03*
X049805Y008322D03*
X049805Y008716D03*
X049805Y009110D03*
X049805Y009503D03*
X049805Y009897D03*
X049805Y010291D03*
X049805Y010684D03*
X049805Y011078D03*
X049805Y011472D03*
X049805Y011866D03*
X049805Y012259D03*
X049805Y012653D03*
X049805Y013047D03*
X049805Y013440D03*
X049805Y013834D03*
X049805Y014228D03*
X049805Y014621D03*
X049805Y015015D03*
X049805Y015409D03*
X049805Y015803D03*
X049805Y016196D03*
X049805Y016590D03*
X049805Y016984D03*
X049805Y017377D03*
X049805Y017771D03*
X049805Y018165D03*
X023055Y018165D03*
X023055Y017771D03*
X023055Y017377D03*
X023055Y016984D03*
X023055Y016590D03*
X023055Y016196D03*
X023055Y015803D03*
X023055Y015409D03*
X023055Y015015D03*
X023055Y014621D03*
X023055Y014228D03*
X023055Y013834D03*
X023055Y013440D03*
X023055Y013047D03*
X023055Y012653D03*
X023055Y012259D03*
X023055Y011866D03*
X023055Y011472D03*
X023055Y011078D03*
X023055Y010684D03*
X023055Y010291D03*
X023055Y009897D03*
X023055Y009503D03*
X023055Y009110D03*
X023055Y008716D03*
X023055Y008322D03*
X023055Y007929D03*
X023055Y007535D03*
X023055Y007141D03*
X023055Y006747D03*
X023055Y006354D03*
X023055Y005960D03*
X021598Y005960D03*
X021598Y006354D03*
X021598Y006747D03*
X021598Y007141D03*
X021598Y007535D03*
X021598Y007929D03*
X021598Y008322D03*
X021598Y008716D03*
X021598Y009110D03*
X021598Y009503D03*
X021598Y009897D03*
X021598Y010291D03*
X021598Y010684D03*
X021598Y011078D03*
X021598Y011472D03*
X021598Y011866D03*
X021598Y012259D03*
X021598Y012653D03*
X021598Y013047D03*
X021598Y013440D03*
X021598Y013834D03*
X021598Y014228D03*
X021598Y014621D03*
X021598Y015015D03*
X021598Y015409D03*
X021598Y015803D03*
X021598Y016196D03*
X021598Y016590D03*
X021598Y016984D03*
X021598Y017377D03*
X021598Y017771D03*
X021598Y018165D03*
D29*
X006201Y020437D03*
D30*
X006201Y019437D03*
X006201Y018437D03*
X006201Y017437D03*
X006201Y016437D03*
X006201Y015437D03*
D31*
X004795Y016750D03*
X005451Y018844D03*
X004295Y019812D03*
X004795Y023250D03*
X005451Y025312D03*
X004295Y026312D03*
X011389Y022437D03*
X014014Y022437D03*
X014670Y023937D03*
X013451Y024562D03*
X015858Y019625D03*
X015858Y018500D03*
X020826Y018187D03*
X020826Y017562D03*
X020826Y016812D03*
X020826Y016187D03*
X020826Y015531D03*
X020826Y015000D03*
X020826Y014437D03*
X020826Y012656D03*
X020826Y012000D03*
X020826Y011469D03*
X020201Y011437D03*
X020826Y010312D03*
X020826Y009719D03*
X020826Y009125D03*
X020826Y005969D03*
X025576Y004062D03*
X026076Y004062D03*
X026076Y004594D03*
X027608Y003187D03*
X029295Y003187D03*
X029295Y002312D03*
X032326Y006000D03*
X031764Y007531D03*
X030264Y007219D03*
X029514Y007687D03*
X031076Y009219D03*
X031076Y010906D03*
X034858Y008375D03*
X035576Y008375D03*
X035451Y007250D03*
X033951Y006562D03*
X035170Y004625D03*
X036326Y003844D03*
X037076Y005844D03*
X038576Y004062D03*
X039076Y004062D03*
X039076Y004562D03*
X041233Y002937D03*
X043170Y002937D03*
X043170Y003812D03*
X042733Y005437D03*
X042451Y006062D03*
X045576Y004000D03*
X044826Y002125D03*
X050139Y003187D03*
X050576Y005969D03*
X050576Y009125D03*
X050576Y009687D03*
X050576Y010281D03*
X050576Y011469D03*
X050576Y012000D03*
X051201Y011437D03*
X050576Y012656D03*
X050576Y014406D03*
X050576Y015000D03*
X050576Y015531D03*
X050576Y016187D03*
X050576Y016812D03*
X050576Y017562D03*
X050576Y018187D03*
X048076Y019937D03*
X048076Y021812D03*
X046264Y016719D03*
X045514Y015969D03*
X044920Y015375D03*
X044326Y014781D03*
X040076Y015187D03*
X037826Y017094D03*
X036951Y017094D03*
X037826Y019187D03*
X037201Y019562D03*
X036576Y019937D03*
X038451Y018812D03*
X039076Y018437D03*
X039701Y018062D03*
X040326Y018062D03*
X034764Y013875D03*
X035451Y012750D03*
X036326Y011781D03*
X037076Y009781D03*
X038576Y011062D03*
X039076Y011062D03*
X039076Y011562D03*
X042733Y010187D03*
X042451Y009562D03*
X034139Y015125D03*
X033514Y016312D03*
X032889Y017500D03*
X028826Y014812D03*
X027576Y014812D03*
X026076Y011594D03*
X026076Y011062D03*
X025576Y011062D03*
X029889Y006437D03*
X015951Y010375D03*
X015951Y011500D03*
X014014Y007937D03*
X011389Y007937D03*
X005420Y012344D03*
X004295Y013312D03*
X004795Y010219D03*
X023326Y019937D03*
X023326Y021687D03*
X009639Y036312D03*
X054576Y023187D03*
X056639Y024875D03*
X059139Y024312D03*
X059139Y025437D03*
M02*
